G04 #@! TF.GenerationSoftware,KiCad,Pcbnew,5.0.2+dfsg1-1~bpo9+1*
G04 #@! TF.CreationDate,2020-01-19T21:42:18+01:00*
G04 #@! TF.ProjectId,PCB_I2C,5043425f-4932-4432-9e6b-696361645f70,V0-20*
G04 #@! TF.SameCoordinates,Original*
G04 #@! TF.FileFunction,Paste,Top*
G04 #@! TF.FilePolarity,Positive*
%FSLAX46Y46*%
G04 Gerber Fmt 4.6, Leading zero omitted, Abs format (unit mm)*
G04 Created by KiCad (PCBNEW 5.0.2+dfsg1-1~bpo9+1) date dim. 19 janv. 2020 21:42:18 CET*
%MOMM*%
%LPD*%
G01*
G04 APERTURE LIST*
%ADD10C,0.100000*%
%ADD11C,1.150000*%
%ADD12R,1.120000X2.440000*%
%ADD13R,1.100000X0.400000*%
%ADD14C,0.590000*%
%ADD15R,0.500000X1.600000*%
%ADD16C,0.875000*%
%ADD17R,1.600000X0.500000*%
%ADD18C,1.300000*%
%ADD19R,3.000000X1.000000*%
%ADD20R,1.500000X0.600000*%
G04 APERTURE END LIST*
D10*
G04 #@! TO.C,D301*
G36*
X137137505Y-126936204D02*
X137161773Y-126939804D01*
X137185572Y-126945765D01*
X137208671Y-126954030D01*
X137230850Y-126964520D01*
X137251893Y-126977132D01*
X137271599Y-126991747D01*
X137289777Y-127008223D01*
X137306253Y-127026401D01*
X137320868Y-127046107D01*
X137333480Y-127067150D01*
X137343970Y-127089329D01*
X137352235Y-127112428D01*
X137358196Y-127136227D01*
X137361796Y-127160495D01*
X137363000Y-127184999D01*
X137363000Y-128085001D01*
X137361796Y-128109505D01*
X137358196Y-128133773D01*
X137352235Y-128157572D01*
X137343970Y-128180671D01*
X137333480Y-128202850D01*
X137320868Y-128223893D01*
X137306253Y-128243599D01*
X137289777Y-128261777D01*
X137271599Y-128278253D01*
X137251893Y-128292868D01*
X137230850Y-128305480D01*
X137208671Y-128315970D01*
X137185572Y-128324235D01*
X137161773Y-128330196D01*
X137137505Y-128333796D01*
X137113001Y-128335000D01*
X136462999Y-128335000D01*
X136438495Y-128333796D01*
X136414227Y-128330196D01*
X136390428Y-128324235D01*
X136367329Y-128315970D01*
X136345150Y-128305480D01*
X136324107Y-128292868D01*
X136304401Y-128278253D01*
X136286223Y-128261777D01*
X136269747Y-128243599D01*
X136255132Y-128223893D01*
X136242520Y-128202850D01*
X136232030Y-128180671D01*
X136223765Y-128157572D01*
X136217804Y-128133773D01*
X136214204Y-128109505D01*
X136213000Y-128085001D01*
X136213000Y-127184999D01*
X136214204Y-127160495D01*
X136217804Y-127136227D01*
X136223765Y-127112428D01*
X136232030Y-127089329D01*
X136242520Y-127067150D01*
X136255132Y-127046107D01*
X136269747Y-127026401D01*
X136286223Y-127008223D01*
X136304401Y-126991747D01*
X136324107Y-126977132D01*
X136345150Y-126964520D01*
X136367329Y-126954030D01*
X136390428Y-126945765D01*
X136414227Y-126939804D01*
X136438495Y-126936204D01*
X136462999Y-126935000D01*
X137113001Y-126935000D01*
X137137505Y-126936204D01*
X137137505Y-126936204D01*
G37*
D11*
X136788000Y-127635000D03*
D10*
G36*
X135087505Y-126936204D02*
X135111773Y-126939804D01*
X135135572Y-126945765D01*
X135158671Y-126954030D01*
X135180850Y-126964520D01*
X135201893Y-126977132D01*
X135221599Y-126991747D01*
X135239777Y-127008223D01*
X135256253Y-127026401D01*
X135270868Y-127046107D01*
X135283480Y-127067150D01*
X135293970Y-127089329D01*
X135302235Y-127112428D01*
X135308196Y-127136227D01*
X135311796Y-127160495D01*
X135313000Y-127184999D01*
X135313000Y-128085001D01*
X135311796Y-128109505D01*
X135308196Y-128133773D01*
X135302235Y-128157572D01*
X135293970Y-128180671D01*
X135283480Y-128202850D01*
X135270868Y-128223893D01*
X135256253Y-128243599D01*
X135239777Y-128261777D01*
X135221599Y-128278253D01*
X135201893Y-128292868D01*
X135180850Y-128305480D01*
X135158671Y-128315970D01*
X135135572Y-128324235D01*
X135111773Y-128330196D01*
X135087505Y-128333796D01*
X135063001Y-128335000D01*
X134412999Y-128335000D01*
X134388495Y-128333796D01*
X134364227Y-128330196D01*
X134340428Y-128324235D01*
X134317329Y-128315970D01*
X134295150Y-128305480D01*
X134274107Y-128292868D01*
X134254401Y-128278253D01*
X134236223Y-128261777D01*
X134219747Y-128243599D01*
X134205132Y-128223893D01*
X134192520Y-128202850D01*
X134182030Y-128180671D01*
X134173765Y-128157572D01*
X134167804Y-128133773D01*
X134164204Y-128109505D01*
X134163000Y-128085001D01*
X134163000Y-127184999D01*
X134164204Y-127160495D01*
X134167804Y-127136227D01*
X134173765Y-127112428D01*
X134182030Y-127089329D01*
X134192520Y-127067150D01*
X134205132Y-127046107D01*
X134219747Y-127026401D01*
X134236223Y-127008223D01*
X134254401Y-126991747D01*
X134274107Y-126977132D01*
X134295150Y-126964520D01*
X134317329Y-126954030D01*
X134340428Y-126945765D01*
X134364227Y-126939804D01*
X134388495Y-126936204D01*
X134412999Y-126935000D01*
X135063001Y-126935000D01*
X135087505Y-126936204D01*
X135087505Y-126936204D01*
G37*
D11*
X134738000Y-127635000D03*
G04 #@! TD*
D10*
G04 #@! TO.C,R304*
G36*
X135087505Y-128968204D02*
X135111773Y-128971804D01*
X135135572Y-128977765D01*
X135158671Y-128986030D01*
X135180850Y-128996520D01*
X135201893Y-129009132D01*
X135221599Y-129023747D01*
X135239777Y-129040223D01*
X135256253Y-129058401D01*
X135270868Y-129078107D01*
X135283480Y-129099150D01*
X135293970Y-129121329D01*
X135302235Y-129144428D01*
X135308196Y-129168227D01*
X135311796Y-129192495D01*
X135313000Y-129216999D01*
X135313000Y-130117001D01*
X135311796Y-130141505D01*
X135308196Y-130165773D01*
X135302235Y-130189572D01*
X135293970Y-130212671D01*
X135283480Y-130234850D01*
X135270868Y-130255893D01*
X135256253Y-130275599D01*
X135239777Y-130293777D01*
X135221599Y-130310253D01*
X135201893Y-130324868D01*
X135180850Y-130337480D01*
X135158671Y-130347970D01*
X135135572Y-130356235D01*
X135111773Y-130362196D01*
X135087505Y-130365796D01*
X135063001Y-130367000D01*
X134412999Y-130367000D01*
X134388495Y-130365796D01*
X134364227Y-130362196D01*
X134340428Y-130356235D01*
X134317329Y-130347970D01*
X134295150Y-130337480D01*
X134274107Y-130324868D01*
X134254401Y-130310253D01*
X134236223Y-130293777D01*
X134219747Y-130275599D01*
X134205132Y-130255893D01*
X134192520Y-130234850D01*
X134182030Y-130212671D01*
X134173765Y-130189572D01*
X134167804Y-130165773D01*
X134164204Y-130141505D01*
X134163000Y-130117001D01*
X134163000Y-129216999D01*
X134164204Y-129192495D01*
X134167804Y-129168227D01*
X134173765Y-129144428D01*
X134182030Y-129121329D01*
X134192520Y-129099150D01*
X134205132Y-129078107D01*
X134219747Y-129058401D01*
X134236223Y-129040223D01*
X134254401Y-129023747D01*
X134274107Y-129009132D01*
X134295150Y-128996520D01*
X134317329Y-128986030D01*
X134340428Y-128977765D01*
X134364227Y-128971804D01*
X134388495Y-128968204D01*
X134412999Y-128967000D01*
X135063001Y-128967000D01*
X135087505Y-128968204D01*
X135087505Y-128968204D01*
G37*
D11*
X134738000Y-129667000D03*
D10*
G36*
X137137505Y-128968204D02*
X137161773Y-128971804D01*
X137185572Y-128977765D01*
X137208671Y-128986030D01*
X137230850Y-128996520D01*
X137251893Y-129009132D01*
X137271599Y-129023747D01*
X137289777Y-129040223D01*
X137306253Y-129058401D01*
X137320868Y-129078107D01*
X137333480Y-129099150D01*
X137343970Y-129121329D01*
X137352235Y-129144428D01*
X137358196Y-129168227D01*
X137361796Y-129192495D01*
X137363000Y-129216999D01*
X137363000Y-130117001D01*
X137361796Y-130141505D01*
X137358196Y-130165773D01*
X137352235Y-130189572D01*
X137343970Y-130212671D01*
X137333480Y-130234850D01*
X137320868Y-130255893D01*
X137306253Y-130275599D01*
X137289777Y-130293777D01*
X137271599Y-130310253D01*
X137251893Y-130324868D01*
X137230850Y-130337480D01*
X137208671Y-130347970D01*
X137185572Y-130356235D01*
X137161773Y-130362196D01*
X137137505Y-130365796D01*
X137113001Y-130367000D01*
X136462999Y-130367000D01*
X136438495Y-130365796D01*
X136414227Y-130362196D01*
X136390428Y-130356235D01*
X136367329Y-130347970D01*
X136345150Y-130337480D01*
X136324107Y-130324868D01*
X136304401Y-130310253D01*
X136286223Y-130293777D01*
X136269747Y-130275599D01*
X136255132Y-130255893D01*
X136242520Y-130234850D01*
X136232030Y-130212671D01*
X136223765Y-130189572D01*
X136217804Y-130165773D01*
X136214204Y-130141505D01*
X136213000Y-130117001D01*
X136213000Y-129216999D01*
X136214204Y-129192495D01*
X136217804Y-129168227D01*
X136223765Y-129144428D01*
X136232030Y-129121329D01*
X136242520Y-129099150D01*
X136255132Y-129078107D01*
X136269747Y-129058401D01*
X136286223Y-129040223D01*
X136304401Y-129023747D01*
X136324107Y-129009132D01*
X136345150Y-128996520D01*
X136367329Y-128986030D01*
X136390428Y-128977765D01*
X136414227Y-128971804D01*
X136438495Y-128968204D01*
X136462999Y-128967000D01*
X137113001Y-128967000D01*
X137137505Y-128968204D01*
X137137505Y-128968204D01*
G37*
D11*
X136788000Y-129667000D03*
G04 #@! TD*
D12*
G04 #@! TO.C,SW301*
X129413000Y-143878000D03*
X137033000Y-135268000D03*
X131953000Y-143878000D03*
X134493000Y-135268000D03*
X134493000Y-143878000D03*
X131953000Y-135268000D03*
X137033000Y-143878000D03*
X129413000Y-135268000D03*
G04 #@! TD*
D13*
G04 #@! TO.C,U301*
X135819000Y-117710000D03*
X135819000Y-118360000D03*
X135819000Y-119010000D03*
X135819000Y-119660000D03*
X135819000Y-120310000D03*
X135819000Y-120960000D03*
X135819000Y-121610000D03*
X135819000Y-122260000D03*
X135819000Y-122910000D03*
X135819000Y-123560000D03*
X135819000Y-124210000D03*
X135819000Y-124860000D03*
X130119000Y-124860000D03*
X130119000Y-124210000D03*
X130119000Y-123560000D03*
X130119000Y-122910000D03*
X130119000Y-122260000D03*
X130119000Y-121610000D03*
X130119000Y-120960000D03*
X130119000Y-120310000D03*
X130119000Y-119660000D03*
X130119000Y-119010000D03*
X130119000Y-118360000D03*
X130119000Y-117710000D03*
G04 #@! TD*
D10*
G04 #@! TO.C,R626*
G36*
X170747958Y-73160210D02*
X170762276Y-73162334D01*
X170776317Y-73165851D01*
X170789946Y-73170728D01*
X170803031Y-73176917D01*
X170815447Y-73184358D01*
X170827073Y-73192981D01*
X170837798Y-73202702D01*
X170847519Y-73213427D01*
X170856142Y-73225053D01*
X170863583Y-73237469D01*
X170869772Y-73250554D01*
X170874649Y-73264183D01*
X170878166Y-73278224D01*
X170880290Y-73292542D01*
X170881000Y-73307000D01*
X170881000Y-73602000D01*
X170880290Y-73616458D01*
X170878166Y-73630776D01*
X170874649Y-73644817D01*
X170869772Y-73658446D01*
X170863583Y-73671531D01*
X170856142Y-73683947D01*
X170847519Y-73695573D01*
X170837798Y-73706298D01*
X170827073Y-73716019D01*
X170815447Y-73724642D01*
X170803031Y-73732083D01*
X170789946Y-73738272D01*
X170776317Y-73743149D01*
X170762276Y-73746666D01*
X170747958Y-73748790D01*
X170733500Y-73749500D01*
X170388500Y-73749500D01*
X170374042Y-73748790D01*
X170359724Y-73746666D01*
X170345683Y-73743149D01*
X170332054Y-73738272D01*
X170318969Y-73732083D01*
X170306553Y-73724642D01*
X170294927Y-73716019D01*
X170284202Y-73706298D01*
X170274481Y-73695573D01*
X170265858Y-73683947D01*
X170258417Y-73671531D01*
X170252228Y-73658446D01*
X170247351Y-73644817D01*
X170243834Y-73630776D01*
X170241710Y-73616458D01*
X170241000Y-73602000D01*
X170241000Y-73307000D01*
X170241710Y-73292542D01*
X170243834Y-73278224D01*
X170247351Y-73264183D01*
X170252228Y-73250554D01*
X170258417Y-73237469D01*
X170265858Y-73225053D01*
X170274481Y-73213427D01*
X170284202Y-73202702D01*
X170294927Y-73192981D01*
X170306553Y-73184358D01*
X170318969Y-73176917D01*
X170332054Y-73170728D01*
X170345683Y-73165851D01*
X170359724Y-73162334D01*
X170374042Y-73160210D01*
X170388500Y-73159500D01*
X170733500Y-73159500D01*
X170747958Y-73160210D01*
X170747958Y-73160210D01*
G37*
D14*
X170561000Y-73454500D03*
D10*
G36*
X170747958Y-74130210D02*
X170762276Y-74132334D01*
X170776317Y-74135851D01*
X170789946Y-74140728D01*
X170803031Y-74146917D01*
X170815447Y-74154358D01*
X170827073Y-74162981D01*
X170837798Y-74172702D01*
X170847519Y-74183427D01*
X170856142Y-74195053D01*
X170863583Y-74207469D01*
X170869772Y-74220554D01*
X170874649Y-74234183D01*
X170878166Y-74248224D01*
X170880290Y-74262542D01*
X170881000Y-74277000D01*
X170881000Y-74572000D01*
X170880290Y-74586458D01*
X170878166Y-74600776D01*
X170874649Y-74614817D01*
X170869772Y-74628446D01*
X170863583Y-74641531D01*
X170856142Y-74653947D01*
X170847519Y-74665573D01*
X170837798Y-74676298D01*
X170827073Y-74686019D01*
X170815447Y-74694642D01*
X170803031Y-74702083D01*
X170789946Y-74708272D01*
X170776317Y-74713149D01*
X170762276Y-74716666D01*
X170747958Y-74718790D01*
X170733500Y-74719500D01*
X170388500Y-74719500D01*
X170374042Y-74718790D01*
X170359724Y-74716666D01*
X170345683Y-74713149D01*
X170332054Y-74708272D01*
X170318969Y-74702083D01*
X170306553Y-74694642D01*
X170294927Y-74686019D01*
X170284202Y-74676298D01*
X170274481Y-74665573D01*
X170265858Y-74653947D01*
X170258417Y-74641531D01*
X170252228Y-74628446D01*
X170247351Y-74614817D01*
X170243834Y-74600776D01*
X170241710Y-74586458D01*
X170241000Y-74572000D01*
X170241000Y-74277000D01*
X170241710Y-74262542D01*
X170243834Y-74248224D01*
X170247351Y-74234183D01*
X170252228Y-74220554D01*
X170258417Y-74207469D01*
X170265858Y-74195053D01*
X170274481Y-74183427D01*
X170284202Y-74172702D01*
X170294927Y-74162981D01*
X170306553Y-74154358D01*
X170318969Y-74146917D01*
X170332054Y-74140728D01*
X170345683Y-74135851D01*
X170359724Y-74132334D01*
X170374042Y-74130210D01*
X170388500Y-74129500D01*
X170733500Y-74129500D01*
X170747958Y-74130210D01*
X170747958Y-74130210D01*
G37*
D14*
X170561000Y-74424500D03*
G04 #@! TD*
D10*
G04 #@! TO.C,R627*
G36*
X168969958Y-73134710D02*
X168984276Y-73136834D01*
X168998317Y-73140351D01*
X169011946Y-73145228D01*
X169025031Y-73151417D01*
X169037447Y-73158858D01*
X169049073Y-73167481D01*
X169059798Y-73177202D01*
X169069519Y-73187927D01*
X169078142Y-73199553D01*
X169085583Y-73211969D01*
X169091772Y-73225054D01*
X169096649Y-73238683D01*
X169100166Y-73252724D01*
X169102290Y-73267042D01*
X169103000Y-73281500D01*
X169103000Y-73576500D01*
X169102290Y-73590958D01*
X169100166Y-73605276D01*
X169096649Y-73619317D01*
X169091772Y-73632946D01*
X169085583Y-73646031D01*
X169078142Y-73658447D01*
X169069519Y-73670073D01*
X169059798Y-73680798D01*
X169049073Y-73690519D01*
X169037447Y-73699142D01*
X169025031Y-73706583D01*
X169011946Y-73712772D01*
X168998317Y-73717649D01*
X168984276Y-73721166D01*
X168969958Y-73723290D01*
X168955500Y-73724000D01*
X168610500Y-73724000D01*
X168596042Y-73723290D01*
X168581724Y-73721166D01*
X168567683Y-73717649D01*
X168554054Y-73712772D01*
X168540969Y-73706583D01*
X168528553Y-73699142D01*
X168516927Y-73690519D01*
X168506202Y-73680798D01*
X168496481Y-73670073D01*
X168487858Y-73658447D01*
X168480417Y-73646031D01*
X168474228Y-73632946D01*
X168469351Y-73619317D01*
X168465834Y-73605276D01*
X168463710Y-73590958D01*
X168463000Y-73576500D01*
X168463000Y-73281500D01*
X168463710Y-73267042D01*
X168465834Y-73252724D01*
X168469351Y-73238683D01*
X168474228Y-73225054D01*
X168480417Y-73211969D01*
X168487858Y-73199553D01*
X168496481Y-73187927D01*
X168506202Y-73177202D01*
X168516927Y-73167481D01*
X168528553Y-73158858D01*
X168540969Y-73151417D01*
X168554054Y-73145228D01*
X168567683Y-73140351D01*
X168581724Y-73136834D01*
X168596042Y-73134710D01*
X168610500Y-73134000D01*
X168955500Y-73134000D01*
X168969958Y-73134710D01*
X168969958Y-73134710D01*
G37*
D14*
X168783000Y-73429000D03*
D10*
G36*
X168969958Y-74104710D02*
X168984276Y-74106834D01*
X168998317Y-74110351D01*
X169011946Y-74115228D01*
X169025031Y-74121417D01*
X169037447Y-74128858D01*
X169049073Y-74137481D01*
X169059798Y-74147202D01*
X169069519Y-74157927D01*
X169078142Y-74169553D01*
X169085583Y-74181969D01*
X169091772Y-74195054D01*
X169096649Y-74208683D01*
X169100166Y-74222724D01*
X169102290Y-74237042D01*
X169103000Y-74251500D01*
X169103000Y-74546500D01*
X169102290Y-74560958D01*
X169100166Y-74575276D01*
X169096649Y-74589317D01*
X169091772Y-74602946D01*
X169085583Y-74616031D01*
X169078142Y-74628447D01*
X169069519Y-74640073D01*
X169059798Y-74650798D01*
X169049073Y-74660519D01*
X169037447Y-74669142D01*
X169025031Y-74676583D01*
X169011946Y-74682772D01*
X168998317Y-74687649D01*
X168984276Y-74691166D01*
X168969958Y-74693290D01*
X168955500Y-74694000D01*
X168610500Y-74694000D01*
X168596042Y-74693290D01*
X168581724Y-74691166D01*
X168567683Y-74687649D01*
X168554054Y-74682772D01*
X168540969Y-74676583D01*
X168528553Y-74669142D01*
X168516927Y-74660519D01*
X168506202Y-74650798D01*
X168496481Y-74640073D01*
X168487858Y-74628447D01*
X168480417Y-74616031D01*
X168474228Y-74602946D01*
X168469351Y-74589317D01*
X168465834Y-74575276D01*
X168463710Y-74560958D01*
X168463000Y-74546500D01*
X168463000Y-74251500D01*
X168463710Y-74237042D01*
X168465834Y-74222724D01*
X168469351Y-74208683D01*
X168474228Y-74195054D01*
X168480417Y-74181969D01*
X168487858Y-74169553D01*
X168496481Y-74157927D01*
X168506202Y-74147202D01*
X168516927Y-74137481D01*
X168528553Y-74128858D01*
X168540969Y-74121417D01*
X168554054Y-74115228D01*
X168567683Y-74110351D01*
X168581724Y-74106834D01*
X168596042Y-74104710D01*
X168610500Y-74104000D01*
X168955500Y-74104000D01*
X168969958Y-74104710D01*
X168969958Y-74104710D01*
G37*
D14*
X168783000Y-74399000D03*
G04 #@! TD*
D10*
G04 #@! TO.C,R628*
G36*
X167191958Y-73134710D02*
X167206276Y-73136834D01*
X167220317Y-73140351D01*
X167233946Y-73145228D01*
X167247031Y-73151417D01*
X167259447Y-73158858D01*
X167271073Y-73167481D01*
X167281798Y-73177202D01*
X167291519Y-73187927D01*
X167300142Y-73199553D01*
X167307583Y-73211969D01*
X167313772Y-73225054D01*
X167318649Y-73238683D01*
X167322166Y-73252724D01*
X167324290Y-73267042D01*
X167325000Y-73281500D01*
X167325000Y-73576500D01*
X167324290Y-73590958D01*
X167322166Y-73605276D01*
X167318649Y-73619317D01*
X167313772Y-73632946D01*
X167307583Y-73646031D01*
X167300142Y-73658447D01*
X167291519Y-73670073D01*
X167281798Y-73680798D01*
X167271073Y-73690519D01*
X167259447Y-73699142D01*
X167247031Y-73706583D01*
X167233946Y-73712772D01*
X167220317Y-73717649D01*
X167206276Y-73721166D01*
X167191958Y-73723290D01*
X167177500Y-73724000D01*
X166832500Y-73724000D01*
X166818042Y-73723290D01*
X166803724Y-73721166D01*
X166789683Y-73717649D01*
X166776054Y-73712772D01*
X166762969Y-73706583D01*
X166750553Y-73699142D01*
X166738927Y-73690519D01*
X166728202Y-73680798D01*
X166718481Y-73670073D01*
X166709858Y-73658447D01*
X166702417Y-73646031D01*
X166696228Y-73632946D01*
X166691351Y-73619317D01*
X166687834Y-73605276D01*
X166685710Y-73590958D01*
X166685000Y-73576500D01*
X166685000Y-73281500D01*
X166685710Y-73267042D01*
X166687834Y-73252724D01*
X166691351Y-73238683D01*
X166696228Y-73225054D01*
X166702417Y-73211969D01*
X166709858Y-73199553D01*
X166718481Y-73187927D01*
X166728202Y-73177202D01*
X166738927Y-73167481D01*
X166750553Y-73158858D01*
X166762969Y-73151417D01*
X166776054Y-73145228D01*
X166789683Y-73140351D01*
X166803724Y-73136834D01*
X166818042Y-73134710D01*
X166832500Y-73134000D01*
X167177500Y-73134000D01*
X167191958Y-73134710D01*
X167191958Y-73134710D01*
G37*
D14*
X167005000Y-73429000D03*
D10*
G36*
X167191958Y-74104710D02*
X167206276Y-74106834D01*
X167220317Y-74110351D01*
X167233946Y-74115228D01*
X167247031Y-74121417D01*
X167259447Y-74128858D01*
X167271073Y-74137481D01*
X167281798Y-74147202D01*
X167291519Y-74157927D01*
X167300142Y-74169553D01*
X167307583Y-74181969D01*
X167313772Y-74195054D01*
X167318649Y-74208683D01*
X167322166Y-74222724D01*
X167324290Y-74237042D01*
X167325000Y-74251500D01*
X167325000Y-74546500D01*
X167324290Y-74560958D01*
X167322166Y-74575276D01*
X167318649Y-74589317D01*
X167313772Y-74602946D01*
X167307583Y-74616031D01*
X167300142Y-74628447D01*
X167291519Y-74640073D01*
X167281798Y-74650798D01*
X167271073Y-74660519D01*
X167259447Y-74669142D01*
X167247031Y-74676583D01*
X167233946Y-74682772D01*
X167220317Y-74687649D01*
X167206276Y-74691166D01*
X167191958Y-74693290D01*
X167177500Y-74694000D01*
X166832500Y-74694000D01*
X166818042Y-74693290D01*
X166803724Y-74691166D01*
X166789683Y-74687649D01*
X166776054Y-74682772D01*
X166762969Y-74676583D01*
X166750553Y-74669142D01*
X166738927Y-74660519D01*
X166728202Y-74650798D01*
X166718481Y-74640073D01*
X166709858Y-74628447D01*
X166702417Y-74616031D01*
X166696228Y-74602946D01*
X166691351Y-74589317D01*
X166687834Y-74575276D01*
X166685710Y-74560958D01*
X166685000Y-74546500D01*
X166685000Y-74251500D01*
X166685710Y-74237042D01*
X166687834Y-74222724D01*
X166691351Y-74208683D01*
X166696228Y-74195054D01*
X166702417Y-74181969D01*
X166709858Y-74169553D01*
X166718481Y-74157927D01*
X166728202Y-74147202D01*
X166738927Y-74137481D01*
X166750553Y-74128858D01*
X166762969Y-74121417D01*
X166776054Y-74115228D01*
X166789683Y-74110351D01*
X166803724Y-74106834D01*
X166818042Y-74104710D01*
X166832500Y-74104000D01*
X167177500Y-74104000D01*
X167191958Y-74104710D01*
X167191958Y-74104710D01*
G37*
D14*
X167005000Y-74399000D03*
G04 #@! TD*
D10*
G04 #@! TO.C,R626*
G36*
X135949958Y-79510210D02*
X135964276Y-79512334D01*
X135978317Y-79515851D01*
X135991946Y-79520728D01*
X136005031Y-79526917D01*
X136017447Y-79534358D01*
X136029073Y-79542981D01*
X136039798Y-79552702D01*
X136049519Y-79563427D01*
X136058142Y-79575053D01*
X136065583Y-79587469D01*
X136071772Y-79600554D01*
X136076649Y-79614183D01*
X136080166Y-79628224D01*
X136082290Y-79642542D01*
X136083000Y-79657000D01*
X136083000Y-79952000D01*
X136082290Y-79966458D01*
X136080166Y-79980776D01*
X136076649Y-79994817D01*
X136071772Y-80008446D01*
X136065583Y-80021531D01*
X136058142Y-80033947D01*
X136049519Y-80045573D01*
X136039798Y-80056298D01*
X136029073Y-80066019D01*
X136017447Y-80074642D01*
X136005031Y-80082083D01*
X135991946Y-80088272D01*
X135978317Y-80093149D01*
X135964276Y-80096666D01*
X135949958Y-80098790D01*
X135935500Y-80099500D01*
X135590500Y-80099500D01*
X135576042Y-80098790D01*
X135561724Y-80096666D01*
X135547683Y-80093149D01*
X135534054Y-80088272D01*
X135520969Y-80082083D01*
X135508553Y-80074642D01*
X135496927Y-80066019D01*
X135486202Y-80056298D01*
X135476481Y-80045573D01*
X135467858Y-80033947D01*
X135460417Y-80021531D01*
X135454228Y-80008446D01*
X135449351Y-79994817D01*
X135445834Y-79980776D01*
X135443710Y-79966458D01*
X135443000Y-79952000D01*
X135443000Y-79657000D01*
X135443710Y-79642542D01*
X135445834Y-79628224D01*
X135449351Y-79614183D01*
X135454228Y-79600554D01*
X135460417Y-79587469D01*
X135467858Y-79575053D01*
X135476481Y-79563427D01*
X135486202Y-79552702D01*
X135496927Y-79542981D01*
X135508553Y-79534358D01*
X135520969Y-79526917D01*
X135534054Y-79520728D01*
X135547683Y-79515851D01*
X135561724Y-79512334D01*
X135576042Y-79510210D01*
X135590500Y-79509500D01*
X135935500Y-79509500D01*
X135949958Y-79510210D01*
X135949958Y-79510210D01*
G37*
D14*
X135763000Y-79804500D03*
D10*
G36*
X135949958Y-80480210D02*
X135964276Y-80482334D01*
X135978317Y-80485851D01*
X135991946Y-80490728D01*
X136005031Y-80496917D01*
X136017447Y-80504358D01*
X136029073Y-80512981D01*
X136039798Y-80522702D01*
X136049519Y-80533427D01*
X136058142Y-80545053D01*
X136065583Y-80557469D01*
X136071772Y-80570554D01*
X136076649Y-80584183D01*
X136080166Y-80598224D01*
X136082290Y-80612542D01*
X136083000Y-80627000D01*
X136083000Y-80922000D01*
X136082290Y-80936458D01*
X136080166Y-80950776D01*
X136076649Y-80964817D01*
X136071772Y-80978446D01*
X136065583Y-80991531D01*
X136058142Y-81003947D01*
X136049519Y-81015573D01*
X136039798Y-81026298D01*
X136029073Y-81036019D01*
X136017447Y-81044642D01*
X136005031Y-81052083D01*
X135991946Y-81058272D01*
X135978317Y-81063149D01*
X135964276Y-81066666D01*
X135949958Y-81068790D01*
X135935500Y-81069500D01*
X135590500Y-81069500D01*
X135576042Y-81068790D01*
X135561724Y-81066666D01*
X135547683Y-81063149D01*
X135534054Y-81058272D01*
X135520969Y-81052083D01*
X135508553Y-81044642D01*
X135496927Y-81036019D01*
X135486202Y-81026298D01*
X135476481Y-81015573D01*
X135467858Y-81003947D01*
X135460417Y-80991531D01*
X135454228Y-80978446D01*
X135449351Y-80964817D01*
X135445834Y-80950776D01*
X135443710Y-80936458D01*
X135443000Y-80922000D01*
X135443000Y-80627000D01*
X135443710Y-80612542D01*
X135445834Y-80598224D01*
X135449351Y-80584183D01*
X135454228Y-80570554D01*
X135460417Y-80557469D01*
X135467858Y-80545053D01*
X135476481Y-80533427D01*
X135486202Y-80522702D01*
X135496927Y-80512981D01*
X135508553Y-80504358D01*
X135520969Y-80496917D01*
X135534054Y-80490728D01*
X135547683Y-80485851D01*
X135561724Y-80482334D01*
X135576042Y-80480210D01*
X135590500Y-80479500D01*
X135935500Y-80479500D01*
X135949958Y-80480210D01*
X135949958Y-80480210D01*
G37*
D14*
X135763000Y-80774500D03*
G04 #@! TD*
D10*
G04 #@! TO.C,R627*
G36*
X134171958Y-79484710D02*
X134186276Y-79486834D01*
X134200317Y-79490351D01*
X134213946Y-79495228D01*
X134227031Y-79501417D01*
X134239447Y-79508858D01*
X134251073Y-79517481D01*
X134261798Y-79527202D01*
X134271519Y-79537927D01*
X134280142Y-79549553D01*
X134287583Y-79561969D01*
X134293772Y-79575054D01*
X134298649Y-79588683D01*
X134302166Y-79602724D01*
X134304290Y-79617042D01*
X134305000Y-79631500D01*
X134305000Y-79926500D01*
X134304290Y-79940958D01*
X134302166Y-79955276D01*
X134298649Y-79969317D01*
X134293772Y-79982946D01*
X134287583Y-79996031D01*
X134280142Y-80008447D01*
X134271519Y-80020073D01*
X134261798Y-80030798D01*
X134251073Y-80040519D01*
X134239447Y-80049142D01*
X134227031Y-80056583D01*
X134213946Y-80062772D01*
X134200317Y-80067649D01*
X134186276Y-80071166D01*
X134171958Y-80073290D01*
X134157500Y-80074000D01*
X133812500Y-80074000D01*
X133798042Y-80073290D01*
X133783724Y-80071166D01*
X133769683Y-80067649D01*
X133756054Y-80062772D01*
X133742969Y-80056583D01*
X133730553Y-80049142D01*
X133718927Y-80040519D01*
X133708202Y-80030798D01*
X133698481Y-80020073D01*
X133689858Y-80008447D01*
X133682417Y-79996031D01*
X133676228Y-79982946D01*
X133671351Y-79969317D01*
X133667834Y-79955276D01*
X133665710Y-79940958D01*
X133665000Y-79926500D01*
X133665000Y-79631500D01*
X133665710Y-79617042D01*
X133667834Y-79602724D01*
X133671351Y-79588683D01*
X133676228Y-79575054D01*
X133682417Y-79561969D01*
X133689858Y-79549553D01*
X133698481Y-79537927D01*
X133708202Y-79527202D01*
X133718927Y-79517481D01*
X133730553Y-79508858D01*
X133742969Y-79501417D01*
X133756054Y-79495228D01*
X133769683Y-79490351D01*
X133783724Y-79486834D01*
X133798042Y-79484710D01*
X133812500Y-79484000D01*
X134157500Y-79484000D01*
X134171958Y-79484710D01*
X134171958Y-79484710D01*
G37*
D14*
X133985000Y-79779000D03*
D10*
G36*
X134171958Y-80454710D02*
X134186276Y-80456834D01*
X134200317Y-80460351D01*
X134213946Y-80465228D01*
X134227031Y-80471417D01*
X134239447Y-80478858D01*
X134251073Y-80487481D01*
X134261798Y-80497202D01*
X134271519Y-80507927D01*
X134280142Y-80519553D01*
X134287583Y-80531969D01*
X134293772Y-80545054D01*
X134298649Y-80558683D01*
X134302166Y-80572724D01*
X134304290Y-80587042D01*
X134305000Y-80601500D01*
X134305000Y-80896500D01*
X134304290Y-80910958D01*
X134302166Y-80925276D01*
X134298649Y-80939317D01*
X134293772Y-80952946D01*
X134287583Y-80966031D01*
X134280142Y-80978447D01*
X134271519Y-80990073D01*
X134261798Y-81000798D01*
X134251073Y-81010519D01*
X134239447Y-81019142D01*
X134227031Y-81026583D01*
X134213946Y-81032772D01*
X134200317Y-81037649D01*
X134186276Y-81041166D01*
X134171958Y-81043290D01*
X134157500Y-81044000D01*
X133812500Y-81044000D01*
X133798042Y-81043290D01*
X133783724Y-81041166D01*
X133769683Y-81037649D01*
X133756054Y-81032772D01*
X133742969Y-81026583D01*
X133730553Y-81019142D01*
X133718927Y-81010519D01*
X133708202Y-81000798D01*
X133698481Y-80990073D01*
X133689858Y-80978447D01*
X133682417Y-80966031D01*
X133676228Y-80952946D01*
X133671351Y-80939317D01*
X133667834Y-80925276D01*
X133665710Y-80910958D01*
X133665000Y-80896500D01*
X133665000Y-80601500D01*
X133665710Y-80587042D01*
X133667834Y-80572724D01*
X133671351Y-80558683D01*
X133676228Y-80545054D01*
X133682417Y-80531969D01*
X133689858Y-80519553D01*
X133698481Y-80507927D01*
X133708202Y-80497202D01*
X133718927Y-80487481D01*
X133730553Y-80478858D01*
X133742969Y-80471417D01*
X133756054Y-80465228D01*
X133769683Y-80460351D01*
X133783724Y-80456834D01*
X133798042Y-80454710D01*
X133812500Y-80454000D01*
X134157500Y-80454000D01*
X134171958Y-80454710D01*
X134171958Y-80454710D01*
G37*
D14*
X133985000Y-80749000D03*
G04 #@! TD*
D10*
G04 #@! TO.C,R628*
G36*
X132393958Y-79484710D02*
X132408276Y-79486834D01*
X132422317Y-79490351D01*
X132435946Y-79495228D01*
X132449031Y-79501417D01*
X132461447Y-79508858D01*
X132473073Y-79517481D01*
X132483798Y-79527202D01*
X132493519Y-79537927D01*
X132502142Y-79549553D01*
X132509583Y-79561969D01*
X132515772Y-79575054D01*
X132520649Y-79588683D01*
X132524166Y-79602724D01*
X132526290Y-79617042D01*
X132527000Y-79631500D01*
X132527000Y-79926500D01*
X132526290Y-79940958D01*
X132524166Y-79955276D01*
X132520649Y-79969317D01*
X132515772Y-79982946D01*
X132509583Y-79996031D01*
X132502142Y-80008447D01*
X132493519Y-80020073D01*
X132483798Y-80030798D01*
X132473073Y-80040519D01*
X132461447Y-80049142D01*
X132449031Y-80056583D01*
X132435946Y-80062772D01*
X132422317Y-80067649D01*
X132408276Y-80071166D01*
X132393958Y-80073290D01*
X132379500Y-80074000D01*
X132034500Y-80074000D01*
X132020042Y-80073290D01*
X132005724Y-80071166D01*
X131991683Y-80067649D01*
X131978054Y-80062772D01*
X131964969Y-80056583D01*
X131952553Y-80049142D01*
X131940927Y-80040519D01*
X131930202Y-80030798D01*
X131920481Y-80020073D01*
X131911858Y-80008447D01*
X131904417Y-79996031D01*
X131898228Y-79982946D01*
X131893351Y-79969317D01*
X131889834Y-79955276D01*
X131887710Y-79940958D01*
X131887000Y-79926500D01*
X131887000Y-79631500D01*
X131887710Y-79617042D01*
X131889834Y-79602724D01*
X131893351Y-79588683D01*
X131898228Y-79575054D01*
X131904417Y-79561969D01*
X131911858Y-79549553D01*
X131920481Y-79537927D01*
X131930202Y-79527202D01*
X131940927Y-79517481D01*
X131952553Y-79508858D01*
X131964969Y-79501417D01*
X131978054Y-79495228D01*
X131991683Y-79490351D01*
X132005724Y-79486834D01*
X132020042Y-79484710D01*
X132034500Y-79484000D01*
X132379500Y-79484000D01*
X132393958Y-79484710D01*
X132393958Y-79484710D01*
G37*
D14*
X132207000Y-79779000D03*
D10*
G36*
X132393958Y-80454710D02*
X132408276Y-80456834D01*
X132422317Y-80460351D01*
X132435946Y-80465228D01*
X132449031Y-80471417D01*
X132461447Y-80478858D01*
X132473073Y-80487481D01*
X132483798Y-80497202D01*
X132493519Y-80507927D01*
X132502142Y-80519553D01*
X132509583Y-80531969D01*
X132515772Y-80545054D01*
X132520649Y-80558683D01*
X132524166Y-80572724D01*
X132526290Y-80587042D01*
X132527000Y-80601500D01*
X132527000Y-80896500D01*
X132526290Y-80910958D01*
X132524166Y-80925276D01*
X132520649Y-80939317D01*
X132515772Y-80952946D01*
X132509583Y-80966031D01*
X132502142Y-80978447D01*
X132493519Y-80990073D01*
X132483798Y-81000798D01*
X132473073Y-81010519D01*
X132461447Y-81019142D01*
X132449031Y-81026583D01*
X132435946Y-81032772D01*
X132422317Y-81037649D01*
X132408276Y-81041166D01*
X132393958Y-81043290D01*
X132379500Y-81044000D01*
X132034500Y-81044000D01*
X132020042Y-81043290D01*
X132005724Y-81041166D01*
X131991683Y-81037649D01*
X131978054Y-81032772D01*
X131964969Y-81026583D01*
X131952553Y-81019142D01*
X131940927Y-81010519D01*
X131930202Y-81000798D01*
X131920481Y-80990073D01*
X131911858Y-80978447D01*
X131904417Y-80966031D01*
X131898228Y-80952946D01*
X131893351Y-80939317D01*
X131889834Y-80925276D01*
X131887710Y-80910958D01*
X131887000Y-80896500D01*
X131887000Y-80601500D01*
X131887710Y-80587042D01*
X131889834Y-80572724D01*
X131893351Y-80558683D01*
X131898228Y-80545054D01*
X131904417Y-80531969D01*
X131911858Y-80519553D01*
X131920481Y-80507927D01*
X131930202Y-80497202D01*
X131940927Y-80487481D01*
X131952553Y-80478858D01*
X131964969Y-80471417D01*
X131978054Y-80465228D01*
X131991683Y-80460351D01*
X132005724Y-80456834D01*
X132020042Y-80454710D01*
X132034500Y-80454000D01*
X132379500Y-80454000D01*
X132393958Y-80454710D01*
X132393958Y-80454710D01*
G37*
D14*
X132207000Y-80749000D03*
G04 #@! TD*
D15*
G04 #@! TO.C,D605*
X129213637Y-91934625D03*
X128313637Y-91934625D03*
X127413637Y-91934625D03*
X127413637Y-94884625D03*
X128313637Y-94884625D03*
X129213637Y-94884625D03*
G04 #@! TD*
D10*
G04 #@! TO.C,R609*
G36*
X135278691Y-69947053D02*
X135299926Y-69950203D01*
X135320750Y-69955419D01*
X135340962Y-69962651D01*
X135360368Y-69971830D01*
X135378781Y-69982866D01*
X135396024Y-69995654D01*
X135411930Y-70010070D01*
X135426346Y-70025976D01*
X135439134Y-70043219D01*
X135450170Y-70061632D01*
X135459349Y-70081038D01*
X135466581Y-70101250D01*
X135471797Y-70122074D01*
X135474947Y-70143309D01*
X135476000Y-70164750D01*
X135476000Y-70602250D01*
X135474947Y-70623691D01*
X135471797Y-70644926D01*
X135466581Y-70665750D01*
X135459349Y-70685962D01*
X135450170Y-70705368D01*
X135439134Y-70723781D01*
X135426346Y-70741024D01*
X135411930Y-70756930D01*
X135396024Y-70771346D01*
X135378781Y-70784134D01*
X135360368Y-70795170D01*
X135340962Y-70804349D01*
X135320750Y-70811581D01*
X135299926Y-70816797D01*
X135278691Y-70819947D01*
X135257250Y-70821000D01*
X134744750Y-70821000D01*
X134723309Y-70819947D01*
X134702074Y-70816797D01*
X134681250Y-70811581D01*
X134661038Y-70804349D01*
X134641632Y-70795170D01*
X134623219Y-70784134D01*
X134605976Y-70771346D01*
X134590070Y-70756930D01*
X134575654Y-70741024D01*
X134562866Y-70723781D01*
X134551830Y-70705368D01*
X134542651Y-70685962D01*
X134535419Y-70665750D01*
X134530203Y-70644926D01*
X134527053Y-70623691D01*
X134526000Y-70602250D01*
X134526000Y-70164750D01*
X134527053Y-70143309D01*
X134530203Y-70122074D01*
X134535419Y-70101250D01*
X134542651Y-70081038D01*
X134551830Y-70061632D01*
X134562866Y-70043219D01*
X134575654Y-70025976D01*
X134590070Y-70010070D01*
X134605976Y-69995654D01*
X134623219Y-69982866D01*
X134641632Y-69971830D01*
X134661038Y-69962651D01*
X134681250Y-69955419D01*
X134702074Y-69950203D01*
X134723309Y-69947053D01*
X134744750Y-69946000D01*
X135257250Y-69946000D01*
X135278691Y-69947053D01*
X135278691Y-69947053D01*
G37*
D16*
X135001000Y-70383500D03*
D10*
G36*
X135278691Y-68372053D02*
X135299926Y-68375203D01*
X135320750Y-68380419D01*
X135340962Y-68387651D01*
X135360368Y-68396830D01*
X135378781Y-68407866D01*
X135396024Y-68420654D01*
X135411930Y-68435070D01*
X135426346Y-68450976D01*
X135439134Y-68468219D01*
X135450170Y-68486632D01*
X135459349Y-68506038D01*
X135466581Y-68526250D01*
X135471797Y-68547074D01*
X135474947Y-68568309D01*
X135476000Y-68589750D01*
X135476000Y-69027250D01*
X135474947Y-69048691D01*
X135471797Y-69069926D01*
X135466581Y-69090750D01*
X135459349Y-69110962D01*
X135450170Y-69130368D01*
X135439134Y-69148781D01*
X135426346Y-69166024D01*
X135411930Y-69181930D01*
X135396024Y-69196346D01*
X135378781Y-69209134D01*
X135360368Y-69220170D01*
X135340962Y-69229349D01*
X135320750Y-69236581D01*
X135299926Y-69241797D01*
X135278691Y-69244947D01*
X135257250Y-69246000D01*
X134744750Y-69246000D01*
X134723309Y-69244947D01*
X134702074Y-69241797D01*
X134681250Y-69236581D01*
X134661038Y-69229349D01*
X134641632Y-69220170D01*
X134623219Y-69209134D01*
X134605976Y-69196346D01*
X134590070Y-69181930D01*
X134575654Y-69166024D01*
X134562866Y-69148781D01*
X134551830Y-69130368D01*
X134542651Y-69110962D01*
X134535419Y-69090750D01*
X134530203Y-69069926D01*
X134527053Y-69048691D01*
X134526000Y-69027250D01*
X134526000Y-68589750D01*
X134527053Y-68568309D01*
X134530203Y-68547074D01*
X134535419Y-68526250D01*
X134542651Y-68506038D01*
X134551830Y-68486632D01*
X134562866Y-68468219D01*
X134575654Y-68450976D01*
X134590070Y-68435070D01*
X134605976Y-68420654D01*
X134623219Y-68407866D01*
X134641632Y-68396830D01*
X134661038Y-68387651D01*
X134681250Y-68380419D01*
X134702074Y-68375203D01*
X134723309Y-68372053D01*
X134744750Y-68371000D01*
X135257250Y-68371000D01*
X135278691Y-68372053D01*
X135278691Y-68372053D01*
G37*
D16*
X135001000Y-68808500D03*
G04 #@! TD*
D10*
G04 #@! TO.C,R618*
G36*
X123023691Y-76742053D02*
X123044926Y-76745203D01*
X123065750Y-76750419D01*
X123085962Y-76757651D01*
X123105368Y-76766830D01*
X123123781Y-76777866D01*
X123141024Y-76790654D01*
X123156930Y-76805070D01*
X123171346Y-76820976D01*
X123184134Y-76838219D01*
X123195170Y-76856632D01*
X123204349Y-76876038D01*
X123211581Y-76896250D01*
X123216797Y-76917074D01*
X123219947Y-76938309D01*
X123221000Y-76959750D01*
X123221000Y-77472250D01*
X123219947Y-77493691D01*
X123216797Y-77514926D01*
X123211581Y-77535750D01*
X123204349Y-77555962D01*
X123195170Y-77575368D01*
X123184134Y-77593781D01*
X123171346Y-77611024D01*
X123156930Y-77626930D01*
X123141024Y-77641346D01*
X123123781Y-77654134D01*
X123105368Y-77665170D01*
X123085962Y-77674349D01*
X123065750Y-77681581D01*
X123044926Y-77686797D01*
X123023691Y-77689947D01*
X123002250Y-77691000D01*
X122564750Y-77691000D01*
X122543309Y-77689947D01*
X122522074Y-77686797D01*
X122501250Y-77681581D01*
X122481038Y-77674349D01*
X122461632Y-77665170D01*
X122443219Y-77654134D01*
X122425976Y-77641346D01*
X122410070Y-77626930D01*
X122395654Y-77611024D01*
X122382866Y-77593781D01*
X122371830Y-77575368D01*
X122362651Y-77555962D01*
X122355419Y-77535750D01*
X122350203Y-77514926D01*
X122347053Y-77493691D01*
X122346000Y-77472250D01*
X122346000Y-76959750D01*
X122347053Y-76938309D01*
X122350203Y-76917074D01*
X122355419Y-76896250D01*
X122362651Y-76876038D01*
X122371830Y-76856632D01*
X122382866Y-76838219D01*
X122395654Y-76820976D01*
X122410070Y-76805070D01*
X122425976Y-76790654D01*
X122443219Y-76777866D01*
X122461632Y-76766830D01*
X122481038Y-76757651D01*
X122501250Y-76750419D01*
X122522074Y-76745203D01*
X122543309Y-76742053D01*
X122564750Y-76741000D01*
X123002250Y-76741000D01*
X123023691Y-76742053D01*
X123023691Y-76742053D01*
G37*
D16*
X122783500Y-77216000D03*
D10*
G36*
X124598691Y-76742053D02*
X124619926Y-76745203D01*
X124640750Y-76750419D01*
X124660962Y-76757651D01*
X124680368Y-76766830D01*
X124698781Y-76777866D01*
X124716024Y-76790654D01*
X124731930Y-76805070D01*
X124746346Y-76820976D01*
X124759134Y-76838219D01*
X124770170Y-76856632D01*
X124779349Y-76876038D01*
X124786581Y-76896250D01*
X124791797Y-76917074D01*
X124794947Y-76938309D01*
X124796000Y-76959750D01*
X124796000Y-77472250D01*
X124794947Y-77493691D01*
X124791797Y-77514926D01*
X124786581Y-77535750D01*
X124779349Y-77555962D01*
X124770170Y-77575368D01*
X124759134Y-77593781D01*
X124746346Y-77611024D01*
X124731930Y-77626930D01*
X124716024Y-77641346D01*
X124698781Y-77654134D01*
X124680368Y-77665170D01*
X124660962Y-77674349D01*
X124640750Y-77681581D01*
X124619926Y-77686797D01*
X124598691Y-77689947D01*
X124577250Y-77691000D01*
X124139750Y-77691000D01*
X124118309Y-77689947D01*
X124097074Y-77686797D01*
X124076250Y-77681581D01*
X124056038Y-77674349D01*
X124036632Y-77665170D01*
X124018219Y-77654134D01*
X124000976Y-77641346D01*
X123985070Y-77626930D01*
X123970654Y-77611024D01*
X123957866Y-77593781D01*
X123946830Y-77575368D01*
X123937651Y-77555962D01*
X123930419Y-77535750D01*
X123925203Y-77514926D01*
X123922053Y-77493691D01*
X123921000Y-77472250D01*
X123921000Y-76959750D01*
X123922053Y-76938309D01*
X123925203Y-76917074D01*
X123930419Y-76896250D01*
X123937651Y-76876038D01*
X123946830Y-76856632D01*
X123957866Y-76838219D01*
X123970654Y-76820976D01*
X123985070Y-76805070D01*
X124000976Y-76790654D01*
X124018219Y-76777866D01*
X124036632Y-76766830D01*
X124056038Y-76757651D01*
X124076250Y-76750419D01*
X124097074Y-76745203D01*
X124118309Y-76742053D01*
X124139750Y-76741000D01*
X124577250Y-76741000D01*
X124598691Y-76742053D01*
X124598691Y-76742053D01*
G37*
D16*
X124358500Y-77216000D03*
G04 #@! TD*
D10*
G04 #@! TO.C,R625*
G36*
X127067328Y-87359678D02*
X127088563Y-87362828D01*
X127109387Y-87368044D01*
X127129599Y-87375276D01*
X127149005Y-87384455D01*
X127167418Y-87395491D01*
X127184661Y-87408279D01*
X127200567Y-87422695D01*
X127214983Y-87438601D01*
X127227771Y-87455844D01*
X127238807Y-87474257D01*
X127247986Y-87493663D01*
X127255218Y-87513875D01*
X127260434Y-87534699D01*
X127263584Y-87555934D01*
X127264637Y-87577375D01*
X127264637Y-88014875D01*
X127263584Y-88036316D01*
X127260434Y-88057551D01*
X127255218Y-88078375D01*
X127247986Y-88098587D01*
X127238807Y-88117993D01*
X127227771Y-88136406D01*
X127214983Y-88153649D01*
X127200567Y-88169555D01*
X127184661Y-88183971D01*
X127167418Y-88196759D01*
X127149005Y-88207795D01*
X127129599Y-88216974D01*
X127109387Y-88224206D01*
X127088563Y-88229422D01*
X127067328Y-88232572D01*
X127045887Y-88233625D01*
X126533387Y-88233625D01*
X126511946Y-88232572D01*
X126490711Y-88229422D01*
X126469887Y-88224206D01*
X126449675Y-88216974D01*
X126430269Y-88207795D01*
X126411856Y-88196759D01*
X126394613Y-88183971D01*
X126378707Y-88169555D01*
X126364291Y-88153649D01*
X126351503Y-88136406D01*
X126340467Y-88117993D01*
X126331288Y-88098587D01*
X126324056Y-88078375D01*
X126318840Y-88057551D01*
X126315690Y-88036316D01*
X126314637Y-88014875D01*
X126314637Y-87577375D01*
X126315690Y-87555934D01*
X126318840Y-87534699D01*
X126324056Y-87513875D01*
X126331288Y-87493663D01*
X126340467Y-87474257D01*
X126351503Y-87455844D01*
X126364291Y-87438601D01*
X126378707Y-87422695D01*
X126394613Y-87408279D01*
X126411856Y-87395491D01*
X126430269Y-87384455D01*
X126449675Y-87375276D01*
X126469887Y-87368044D01*
X126490711Y-87362828D01*
X126511946Y-87359678D01*
X126533387Y-87358625D01*
X127045887Y-87358625D01*
X127067328Y-87359678D01*
X127067328Y-87359678D01*
G37*
D16*
X126789637Y-87796125D03*
D10*
G36*
X127067328Y-88934678D02*
X127088563Y-88937828D01*
X127109387Y-88943044D01*
X127129599Y-88950276D01*
X127149005Y-88959455D01*
X127167418Y-88970491D01*
X127184661Y-88983279D01*
X127200567Y-88997695D01*
X127214983Y-89013601D01*
X127227771Y-89030844D01*
X127238807Y-89049257D01*
X127247986Y-89068663D01*
X127255218Y-89088875D01*
X127260434Y-89109699D01*
X127263584Y-89130934D01*
X127264637Y-89152375D01*
X127264637Y-89589875D01*
X127263584Y-89611316D01*
X127260434Y-89632551D01*
X127255218Y-89653375D01*
X127247986Y-89673587D01*
X127238807Y-89692993D01*
X127227771Y-89711406D01*
X127214983Y-89728649D01*
X127200567Y-89744555D01*
X127184661Y-89758971D01*
X127167418Y-89771759D01*
X127149005Y-89782795D01*
X127129599Y-89791974D01*
X127109387Y-89799206D01*
X127088563Y-89804422D01*
X127067328Y-89807572D01*
X127045887Y-89808625D01*
X126533387Y-89808625D01*
X126511946Y-89807572D01*
X126490711Y-89804422D01*
X126469887Y-89799206D01*
X126449675Y-89791974D01*
X126430269Y-89782795D01*
X126411856Y-89771759D01*
X126394613Y-89758971D01*
X126378707Y-89744555D01*
X126364291Y-89728649D01*
X126351503Y-89711406D01*
X126340467Y-89692993D01*
X126331288Y-89673587D01*
X126324056Y-89653375D01*
X126318840Y-89632551D01*
X126315690Y-89611316D01*
X126314637Y-89589875D01*
X126314637Y-89152375D01*
X126315690Y-89130934D01*
X126318840Y-89109699D01*
X126324056Y-89088875D01*
X126331288Y-89068663D01*
X126340467Y-89049257D01*
X126351503Y-89030844D01*
X126364291Y-89013601D01*
X126378707Y-88997695D01*
X126394613Y-88983279D01*
X126411856Y-88970491D01*
X126430269Y-88959455D01*
X126449675Y-88950276D01*
X126469887Y-88943044D01*
X126490711Y-88937828D01*
X126511946Y-88934678D01*
X126533387Y-88933625D01*
X127045887Y-88933625D01*
X127067328Y-88934678D01*
X127067328Y-88934678D01*
G37*
D16*
X126789637Y-89371125D03*
G04 #@! TD*
D10*
G04 #@! TO.C,R624*
G36*
X122998191Y-79790053D02*
X123019426Y-79793203D01*
X123040250Y-79798419D01*
X123060462Y-79805651D01*
X123079868Y-79814830D01*
X123098281Y-79825866D01*
X123115524Y-79838654D01*
X123131430Y-79853070D01*
X123145846Y-79868976D01*
X123158634Y-79886219D01*
X123169670Y-79904632D01*
X123178849Y-79924038D01*
X123186081Y-79944250D01*
X123191297Y-79965074D01*
X123194447Y-79986309D01*
X123195500Y-80007750D01*
X123195500Y-80520250D01*
X123194447Y-80541691D01*
X123191297Y-80562926D01*
X123186081Y-80583750D01*
X123178849Y-80603962D01*
X123169670Y-80623368D01*
X123158634Y-80641781D01*
X123145846Y-80659024D01*
X123131430Y-80674930D01*
X123115524Y-80689346D01*
X123098281Y-80702134D01*
X123079868Y-80713170D01*
X123060462Y-80722349D01*
X123040250Y-80729581D01*
X123019426Y-80734797D01*
X122998191Y-80737947D01*
X122976750Y-80739000D01*
X122539250Y-80739000D01*
X122517809Y-80737947D01*
X122496574Y-80734797D01*
X122475750Y-80729581D01*
X122455538Y-80722349D01*
X122436132Y-80713170D01*
X122417719Y-80702134D01*
X122400476Y-80689346D01*
X122384570Y-80674930D01*
X122370154Y-80659024D01*
X122357366Y-80641781D01*
X122346330Y-80623368D01*
X122337151Y-80603962D01*
X122329919Y-80583750D01*
X122324703Y-80562926D01*
X122321553Y-80541691D01*
X122320500Y-80520250D01*
X122320500Y-80007750D01*
X122321553Y-79986309D01*
X122324703Y-79965074D01*
X122329919Y-79944250D01*
X122337151Y-79924038D01*
X122346330Y-79904632D01*
X122357366Y-79886219D01*
X122370154Y-79868976D01*
X122384570Y-79853070D01*
X122400476Y-79838654D01*
X122417719Y-79825866D01*
X122436132Y-79814830D01*
X122455538Y-79805651D01*
X122475750Y-79798419D01*
X122496574Y-79793203D01*
X122517809Y-79790053D01*
X122539250Y-79789000D01*
X122976750Y-79789000D01*
X122998191Y-79790053D01*
X122998191Y-79790053D01*
G37*
D16*
X122758000Y-80264000D03*
D10*
G36*
X124573191Y-79790053D02*
X124594426Y-79793203D01*
X124615250Y-79798419D01*
X124635462Y-79805651D01*
X124654868Y-79814830D01*
X124673281Y-79825866D01*
X124690524Y-79838654D01*
X124706430Y-79853070D01*
X124720846Y-79868976D01*
X124733634Y-79886219D01*
X124744670Y-79904632D01*
X124753849Y-79924038D01*
X124761081Y-79944250D01*
X124766297Y-79965074D01*
X124769447Y-79986309D01*
X124770500Y-80007750D01*
X124770500Y-80520250D01*
X124769447Y-80541691D01*
X124766297Y-80562926D01*
X124761081Y-80583750D01*
X124753849Y-80603962D01*
X124744670Y-80623368D01*
X124733634Y-80641781D01*
X124720846Y-80659024D01*
X124706430Y-80674930D01*
X124690524Y-80689346D01*
X124673281Y-80702134D01*
X124654868Y-80713170D01*
X124635462Y-80722349D01*
X124615250Y-80729581D01*
X124594426Y-80734797D01*
X124573191Y-80737947D01*
X124551750Y-80739000D01*
X124114250Y-80739000D01*
X124092809Y-80737947D01*
X124071574Y-80734797D01*
X124050750Y-80729581D01*
X124030538Y-80722349D01*
X124011132Y-80713170D01*
X123992719Y-80702134D01*
X123975476Y-80689346D01*
X123959570Y-80674930D01*
X123945154Y-80659024D01*
X123932366Y-80641781D01*
X123921330Y-80623368D01*
X123912151Y-80603962D01*
X123904919Y-80583750D01*
X123899703Y-80562926D01*
X123896553Y-80541691D01*
X123895500Y-80520250D01*
X123895500Y-80007750D01*
X123896553Y-79986309D01*
X123899703Y-79965074D01*
X123904919Y-79944250D01*
X123912151Y-79924038D01*
X123921330Y-79904632D01*
X123932366Y-79886219D01*
X123945154Y-79868976D01*
X123959570Y-79853070D01*
X123975476Y-79838654D01*
X123992719Y-79825866D01*
X124011132Y-79814830D01*
X124030538Y-79805651D01*
X124050750Y-79798419D01*
X124071574Y-79793203D01*
X124092809Y-79790053D01*
X124114250Y-79789000D01*
X124551750Y-79789000D01*
X124573191Y-79790053D01*
X124573191Y-79790053D01*
G37*
D16*
X124333000Y-80264000D03*
G04 #@! TD*
D10*
G04 #@! TO.C,R603*
G36*
X131722691Y-73452053D02*
X131743926Y-73455203D01*
X131764750Y-73460419D01*
X131784962Y-73467651D01*
X131804368Y-73476830D01*
X131822781Y-73487866D01*
X131840024Y-73500654D01*
X131855930Y-73515070D01*
X131870346Y-73530976D01*
X131883134Y-73548219D01*
X131894170Y-73566632D01*
X131903349Y-73586038D01*
X131910581Y-73606250D01*
X131915797Y-73627074D01*
X131918947Y-73648309D01*
X131920000Y-73669750D01*
X131920000Y-74107250D01*
X131918947Y-74128691D01*
X131915797Y-74149926D01*
X131910581Y-74170750D01*
X131903349Y-74190962D01*
X131894170Y-74210368D01*
X131883134Y-74228781D01*
X131870346Y-74246024D01*
X131855930Y-74261930D01*
X131840024Y-74276346D01*
X131822781Y-74289134D01*
X131804368Y-74300170D01*
X131784962Y-74309349D01*
X131764750Y-74316581D01*
X131743926Y-74321797D01*
X131722691Y-74324947D01*
X131701250Y-74326000D01*
X131188750Y-74326000D01*
X131167309Y-74324947D01*
X131146074Y-74321797D01*
X131125250Y-74316581D01*
X131105038Y-74309349D01*
X131085632Y-74300170D01*
X131067219Y-74289134D01*
X131049976Y-74276346D01*
X131034070Y-74261930D01*
X131019654Y-74246024D01*
X131006866Y-74228781D01*
X130995830Y-74210368D01*
X130986651Y-74190962D01*
X130979419Y-74170750D01*
X130974203Y-74149926D01*
X130971053Y-74128691D01*
X130970000Y-74107250D01*
X130970000Y-73669750D01*
X130971053Y-73648309D01*
X130974203Y-73627074D01*
X130979419Y-73606250D01*
X130986651Y-73586038D01*
X130995830Y-73566632D01*
X131006866Y-73548219D01*
X131019654Y-73530976D01*
X131034070Y-73515070D01*
X131049976Y-73500654D01*
X131067219Y-73487866D01*
X131085632Y-73476830D01*
X131105038Y-73467651D01*
X131125250Y-73460419D01*
X131146074Y-73455203D01*
X131167309Y-73452053D01*
X131188750Y-73451000D01*
X131701250Y-73451000D01*
X131722691Y-73452053D01*
X131722691Y-73452053D01*
G37*
D16*
X131445000Y-73888500D03*
D10*
G36*
X131722691Y-75027053D02*
X131743926Y-75030203D01*
X131764750Y-75035419D01*
X131784962Y-75042651D01*
X131804368Y-75051830D01*
X131822781Y-75062866D01*
X131840024Y-75075654D01*
X131855930Y-75090070D01*
X131870346Y-75105976D01*
X131883134Y-75123219D01*
X131894170Y-75141632D01*
X131903349Y-75161038D01*
X131910581Y-75181250D01*
X131915797Y-75202074D01*
X131918947Y-75223309D01*
X131920000Y-75244750D01*
X131920000Y-75682250D01*
X131918947Y-75703691D01*
X131915797Y-75724926D01*
X131910581Y-75745750D01*
X131903349Y-75765962D01*
X131894170Y-75785368D01*
X131883134Y-75803781D01*
X131870346Y-75821024D01*
X131855930Y-75836930D01*
X131840024Y-75851346D01*
X131822781Y-75864134D01*
X131804368Y-75875170D01*
X131784962Y-75884349D01*
X131764750Y-75891581D01*
X131743926Y-75896797D01*
X131722691Y-75899947D01*
X131701250Y-75901000D01*
X131188750Y-75901000D01*
X131167309Y-75899947D01*
X131146074Y-75896797D01*
X131125250Y-75891581D01*
X131105038Y-75884349D01*
X131085632Y-75875170D01*
X131067219Y-75864134D01*
X131049976Y-75851346D01*
X131034070Y-75836930D01*
X131019654Y-75821024D01*
X131006866Y-75803781D01*
X130995830Y-75785368D01*
X130986651Y-75765962D01*
X130979419Y-75745750D01*
X130974203Y-75724926D01*
X130971053Y-75703691D01*
X130970000Y-75682250D01*
X130970000Y-75244750D01*
X130971053Y-75223309D01*
X130974203Y-75202074D01*
X130979419Y-75181250D01*
X130986651Y-75161038D01*
X130995830Y-75141632D01*
X131006866Y-75123219D01*
X131019654Y-75105976D01*
X131034070Y-75090070D01*
X131049976Y-75075654D01*
X131067219Y-75062866D01*
X131085632Y-75051830D01*
X131105038Y-75042651D01*
X131125250Y-75035419D01*
X131146074Y-75030203D01*
X131167309Y-75027053D01*
X131188750Y-75026000D01*
X131701250Y-75026000D01*
X131722691Y-75027053D01*
X131722691Y-75027053D01*
G37*
D16*
X131445000Y-75463500D03*
G04 #@! TD*
D10*
G04 #@! TO.C,R619*
G36*
X130115328Y-87359678D02*
X130136563Y-87362828D01*
X130157387Y-87368044D01*
X130177599Y-87375276D01*
X130197005Y-87384455D01*
X130215418Y-87395491D01*
X130232661Y-87408279D01*
X130248567Y-87422695D01*
X130262983Y-87438601D01*
X130275771Y-87455844D01*
X130286807Y-87474257D01*
X130295986Y-87493663D01*
X130303218Y-87513875D01*
X130308434Y-87534699D01*
X130311584Y-87555934D01*
X130312637Y-87577375D01*
X130312637Y-88014875D01*
X130311584Y-88036316D01*
X130308434Y-88057551D01*
X130303218Y-88078375D01*
X130295986Y-88098587D01*
X130286807Y-88117993D01*
X130275771Y-88136406D01*
X130262983Y-88153649D01*
X130248567Y-88169555D01*
X130232661Y-88183971D01*
X130215418Y-88196759D01*
X130197005Y-88207795D01*
X130177599Y-88216974D01*
X130157387Y-88224206D01*
X130136563Y-88229422D01*
X130115328Y-88232572D01*
X130093887Y-88233625D01*
X129581387Y-88233625D01*
X129559946Y-88232572D01*
X129538711Y-88229422D01*
X129517887Y-88224206D01*
X129497675Y-88216974D01*
X129478269Y-88207795D01*
X129459856Y-88196759D01*
X129442613Y-88183971D01*
X129426707Y-88169555D01*
X129412291Y-88153649D01*
X129399503Y-88136406D01*
X129388467Y-88117993D01*
X129379288Y-88098587D01*
X129372056Y-88078375D01*
X129366840Y-88057551D01*
X129363690Y-88036316D01*
X129362637Y-88014875D01*
X129362637Y-87577375D01*
X129363690Y-87555934D01*
X129366840Y-87534699D01*
X129372056Y-87513875D01*
X129379288Y-87493663D01*
X129388467Y-87474257D01*
X129399503Y-87455844D01*
X129412291Y-87438601D01*
X129426707Y-87422695D01*
X129442613Y-87408279D01*
X129459856Y-87395491D01*
X129478269Y-87384455D01*
X129497675Y-87375276D01*
X129517887Y-87368044D01*
X129538711Y-87362828D01*
X129559946Y-87359678D01*
X129581387Y-87358625D01*
X130093887Y-87358625D01*
X130115328Y-87359678D01*
X130115328Y-87359678D01*
G37*
D16*
X129837637Y-87796125D03*
D10*
G36*
X130115328Y-88934678D02*
X130136563Y-88937828D01*
X130157387Y-88943044D01*
X130177599Y-88950276D01*
X130197005Y-88959455D01*
X130215418Y-88970491D01*
X130232661Y-88983279D01*
X130248567Y-88997695D01*
X130262983Y-89013601D01*
X130275771Y-89030844D01*
X130286807Y-89049257D01*
X130295986Y-89068663D01*
X130303218Y-89088875D01*
X130308434Y-89109699D01*
X130311584Y-89130934D01*
X130312637Y-89152375D01*
X130312637Y-89589875D01*
X130311584Y-89611316D01*
X130308434Y-89632551D01*
X130303218Y-89653375D01*
X130295986Y-89673587D01*
X130286807Y-89692993D01*
X130275771Y-89711406D01*
X130262983Y-89728649D01*
X130248567Y-89744555D01*
X130232661Y-89758971D01*
X130215418Y-89771759D01*
X130197005Y-89782795D01*
X130177599Y-89791974D01*
X130157387Y-89799206D01*
X130136563Y-89804422D01*
X130115328Y-89807572D01*
X130093887Y-89808625D01*
X129581387Y-89808625D01*
X129559946Y-89807572D01*
X129538711Y-89804422D01*
X129517887Y-89799206D01*
X129497675Y-89791974D01*
X129478269Y-89782795D01*
X129459856Y-89771759D01*
X129442613Y-89758971D01*
X129426707Y-89744555D01*
X129412291Y-89728649D01*
X129399503Y-89711406D01*
X129388467Y-89692993D01*
X129379288Y-89673587D01*
X129372056Y-89653375D01*
X129366840Y-89632551D01*
X129363690Y-89611316D01*
X129362637Y-89589875D01*
X129362637Y-89152375D01*
X129363690Y-89130934D01*
X129366840Y-89109699D01*
X129372056Y-89088875D01*
X129379288Y-89068663D01*
X129388467Y-89049257D01*
X129399503Y-89030844D01*
X129412291Y-89013601D01*
X129426707Y-88997695D01*
X129442613Y-88983279D01*
X129459856Y-88970491D01*
X129478269Y-88959455D01*
X129497675Y-88950276D01*
X129517887Y-88943044D01*
X129538711Y-88937828D01*
X129559946Y-88934678D01*
X129581387Y-88933625D01*
X130093887Y-88933625D01*
X130115328Y-88934678D01*
X130115328Y-88934678D01*
G37*
D16*
X129837637Y-89371125D03*
G04 #@! TD*
D10*
G04 #@! TO.C,R610*
G36*
X136040691Y-86203053D02*
X136061926Y-86206203D01*
X136082750Y-86211419D01*
X136102962Y-86218651D01*
X136122368Y-86227830D01*
X136140781Y-86238866D01*
X136158024Y-86251654D01*
X136173930Y-86266070D01*
X136188346Y-86281976D01*
X136201134Y-86299219D01*
X136212170Y-86317632D01*
X136221349Y-86337038D01*
X136228581Y-86357250D01*
X136233797Y-86378074D01*
X136236947Y-86399309D01*
X136238000Y-86420750D01*
X136238000Y-86858250D01*
X136236947Y-86879691D01*
X136233797Y-86900926D01*
X136228581Y-86921750D01*
X136221349Y-86941962D01*
X136212170Y-86961368D01*
X136201134Y-86979781D01*
X136188346Y-86997024D01*
X136173930Y-87012930D01*
X136158024Y-87027346D01*
X136140781Y-87040134D01*
X136122368Y-87051170D01*
X136102962Y-87060349D01*
X136082750Y-87067581D01*
X136061926Y-87072797D01*
X136040691Y-87075947D01*
X136019250Y-87077000D01*
X135506750Y-87077000D01*
X135485309Y-87075947D01*
X135464074Y-87072797D01*
X135443250Y-87067581D01*
X135423038Y-87060349D01*
X135403632Y-87051170D01*
X135385219Y-87040134D01*
X135367976Y-87027346D01*
X135352070Y-87012930D01*
X135337654Y-86997024D01*
X135324866Y-86979781D01*
X135313830Y-86961368D01*
X135304651Y-86941962D01*
X135297419Y-86921750D01*
X135292203Y-86900926D01*
X135289053Y-86879691D01*
X135288000Y-86858250D01*
X135288000Y-86420750D01*
X135289053Y-86399309D01*
X135292203Y-86378074D01*
X135297419Y-86357250D01*
X135304651Y-86337038D01*
X135313830Y-86317632D01*
X135324866Y-86299219D01*
X135337654Y-86281976D01*
X135352070Y-86266070D01*
X135367976Y-86251654D01*
X135385219Y-86238866D01*
X135403632Y-86227830D01*
X135423038Y-86218651D01*
X135443250Y-86211419D01*
X135464074Y-86206203D01*
X135485309Y-86203053D01*
X135506750Y-86202000D01*
X136019250Y-86202000D01*
X136040691Y-86203053D01*
X136040691Y-86203053D01*
G37*
D16*
X135763000Y-86639500D03*
D10*
G36*
X136040691Y-84628053D02*
X136061926Y-84631203D01*
X136082750Y-84636419D01*
X136102962Y-84643651D01*
X136122368Y-84652830D01*
X136140781Y-84663866D01*
X136158024Y-84676654D01*
X136173930Y-84691070D01*
X136188346Y-84706976D01*
X136201134Y-84724219D01*
X136212170Y-84742632D01*
X136221349Y-84762038D01*
X136228581Y-84782250D01*
X136233797Y-84803074D01*
X136236947Y-84824309D01*
X136238000Y-84845750D01*
X136238000Y-85283250D01*
X136236947Y-85304691D01*
X136233797Y-85325926D01*
X136228581Y-85346750D01*
X136221349Y-85366962D01*
X136212170Y-85386368D01*
X136201134Y-85404781D01*
X136188346Y-85422024D01*
X136173930Y-85437930D01*
X136158024Y-85452346D01*
X136140781Y-85465134D01*
X136122368Y-85476170D01*
X136102962Y-85485349D01*
X136082750Y-85492581D01*
X136061926Y-85497797D01*
X136040691Y-85500947D01*
X136019250Y-85502000D01*
X135506750Y-85502000D01*
X135485309Y-85500947D01*
X135464074Y-85497797D01*
X135443250Y-85492581D01*
X135423038Y-85485349D01*
X135403632Y-85476170D01*
X135385219Y-85465134D01*
X135367976Y-85452346D01*
X135352070Y-85437930D01*
X135337654Y-85422024D01*
X135324866Y-85404781D01*
X135313830Y-85386368D01*
X135304651Y-85366962D01*
X135297419Y-85346750D01*
X135292203Y-85325926D01*
X135289053Y-85304691D01*
X135288000Y-85283250D01*
X135288000Y-84845750D01*
X135289053Y-84824309D01*
X135292203Y-84803074D01*
X135297419Y-84782250D01*
X135304651Y-84762038D01*
X135313830Y-84742632D01*
X135324866Y-84724219D01*
X135337654Y-84706976D01*
X135352070Y-84691070D01*
X135367976Y-84676654D01*
X135385219Y-84663866D01*
X135403632Y-84652830D01*
X135423038Y-84643651D01*
X135443250Y-84636419D01*
X135464074Y-84631203D01*
X135485309Y-84628053D01*
X135506750Y-84627000D01*
X136019250Y-84627000D01*
X136040691Y-84628053D01*
X136040691Y-84628053D01*
G37*
D16*
X135763000Y-85064500D03*
G04 #@! TD*
D10*
G04 #@! TO.C,R604*
G36*
X131468691Y-65603553D02*
X131489926Y-65606703D01*
X131510750Y-65611919D01*
X131530962Y-65619151D01*
X131550368Y-65628330D01*
X131568781Y-65639366D01*
X131586024Y-65652154D01*
X131601930Y-65666570D01*
X131616346Y-65682476D01*
X131629134Y-65699719D01*
X131640170Y-65718132D01*
X131649349Y-65737538D01*
X131656581Y-65757750D01*
X131661797Y-65778574D01*
X131664947Y-65799809D01*
X131666000Y-65821250D01*
X131666000Y-66258750D01*
X131664947Y-66280191D01*
X131661797Y-66301426D01*
X131656581Y-66322250D01*
X131649349Y-66342462D01*
X131640170Y-66361868D01*
X131629134Y-66380281D01*
X131616346Y-66397524D01*
X131601930Y-66413430D01*
X131586024Y-66427846D01*
X131568781Y-66440634D01*
X131550368Y-66451670D01*
X131530962Y-66460849D01*
X131510750Y-66468081D01*
X131489926Y-66473297D01*
X131468691Y-66476447D01*
X131447250Y-66477500D01*
X130934750Y-66477500D01*
X130913309Y-66476447D01*
X130892074Y-66473297D01*
X130871250Y-66468081D01*
X130851038Y-66460849D01*
X130831632Y-66451670D01*
X130813219Y-66440634D01*
X130795976Y-66427846D01*
X130780070Y-66413430D01*
X130765654Y-66397524D01*
X130752866Y-66380281D01*
X130741830Y-66361868D01*
X130732651Y-66342462D01*
X130725419Y-66322250D01*
X130720203Y-66301426D01*
X130717053Y-66280191D01*
X130716000Y-66258750D01*
X130716000Y-65821250D01*
X130717053Y-65799809D01*
X130720203Y-65778574D01*
X130725419Y-65757750D01*
X130732651Y-65737538D01*
X130741830Y-65718132D01*
X130752866Y-65699719D01*
X130765654Y-65682476D01*
X130780070Y-65666570D01*
X130795976Y-65652154D01*
X130813219Y-65639366D01*
X130831632Y-65628330D01*
X130851038Y-65619151D01*
X130871250Y-65611919D01*
X130892074Y-65606703D01*
X130913309Y-65603553D01*
X130934750Y-65602500D01*
X131447250Y-65602500D01*
X131468691Y-65603553D01*
X131468691Y-65603553D01*
G37*
D16*
X131191000Y-66040000D03*
D10*
G36*
X131468691Y-67178553D02*
X131489926Y-67181703D01*
X131510750Y-67186919D01*
X131530962Y-67194151D01*
X131550368Y-67203330D01*
X131568781Y-67214366D01*
X131586024Y-67227154D01*
X131601930Y-67241570D01*
X131616346Y-67257476D01*
X131629134Y-67274719D01*
X131640170Y-67293132D01*
X131649349Y-67312538D01*
X131656581Y-67332750D01*
X131661797Y-67353574D01*
X131664947Y-67374809D01*
X131666000Y-67396250D01*
X131666000Y-67833750D01*
X131664947Y-67855191D01*
X131661797Y-67876426D01*
X131656581Y-67897250D01*
X131649349Y-67917462D01*
X131640170Y-67936868D01*
X131629134Y-67955281D01*
X131616346Y-67972524D01*
X131601930Y-67988430D01*
X131586024Y-68002846D01*
X131568781Y-68015634D01*
X131550368Y-68026670D01*
X131530962Y-68035849D01*
X131510750Y-68043081D01*
X131489926Y-68048297D01*
X131468691Y-68051447D01*
X131447250Y-68052500D01*
X130934750Y-68052500D01*
X130913309Y-68051447D01*
X130892074Y-68048297D01*
X130871250Y-68043081D01*
X130851038Y-68035849D01*
X130831632Y-68026670D01*
X130813219Y-68015634D01*
X130795976Y-68002846D01*
X130780070Y-67988430D01*
X130765654Y-67972524D01*
X130752866Y-67955281D01*
X130741830Y-67936868D01*
X130732651Y-67917462D01*
X130725419Y-67897250D01*
X130720203Y-67876426D01*
X130717053Y-67855191D01*
X130716000Y-67833750D01*
X130716000Y-67396250D01*
X130717053Y-67374809D01*
X130720203Y-67353574D01*
X130725419Y-67332750D01*
X130732651Y-67312538D01*
X130741830Y-67293132D01*
X130752866Y-67274719D01*
X130765654Y-67257476D01*
X130780070Y-67241570D01*
X130795976Y-67227154D01*
X130813219Y-67214366D01*
X130831632Y-67203330D01*
X130851038Y-67194151D01*
X130871250Y-67186919D01*
X130892074Y-67181703D01*
X130913309Y-67178553D01*
X130934750Y-67177500D01*
X131447250Y-67177500D01*
X131468691Y-67178553D01*
X131468691Y-67178553D01*
G37*
D16*
X131191000Y-67615000D03*
G04 #@! TD*
D10*
G04 #@! TO.C,R622*
G36*
X128591328Y-87359678D02*
X128612563Y-87362828D01*
X128633387Y-87368044D01*
X128653599Y-87375276D01*
X128673005Y-87384455D01*
X128691418Y-87395491D01*
X128708661Y-87408279D01*
X128724567Y-87422695D01*
X128738983Y-87438601D01*
X128751771Y-87455844D01*
X128762807Y-87474257D01*
X128771986Y-87493663D01*
X128779218Y-87513875D01*
X128784434Y-87534699D01*
X128787584Y-87555934D01*
X128788637Y-87577375D01*
X128788637Y-88014875D01*
X128787584Y-88036316D01*
X128784434Y-88057551D01*
X128779218Y-88078375D01*
X128771986Y-88098587D01*
X128762807Y-88117993D01*
X128751771Y-88136406D01*
X128738983Y-88153649D01*
X128724567Y-88169555D01*
X128708661Y-88183971D01*
X128691418Y-88196759D01*
X128673005Y-88207795D01*
X128653599Y-88216974D01*
X128633387Y-88224206D01*
X128612563Y-88229422D01*
X128591328Y-88232572D01*
X128569887Y-88233625D01*
X128057387Y-88233625D01*
X128035946Y-88232572D01*
X128014711Y-88229422D01*
X127993887Y-88224206D01*
X127973675Y-88216974D01*
X127954269Y-88207795D01*
X127935856Y-88196759D01*
X127918613Y-88183971D01*
X127902707Y-88169555D01*
X127888291Y-88153649D01*
X127875503Y-88136406D01*
X127864467Y-88117993D01*
X127855288Y-88098587D01*
X127848056Y-88078375D01*
X127842840Y-88057551D01*
X127839690Y-88036316D01*
X127838637Y-88014875D01*
X127838637Y-87577375D01*
X127839690Y-87555934D01*
X127842840Y-87534699D01*
X127848056Y-87513875D01*
X127855288Y-87493663D01*
X127864467Y-87474257D01*
X127875503Y-87455844D01*
X127888291Y-87438601D01*
X127902707Y-87422695D01*
X127918613Y-87408279D01*
X127935856Y-87395491D01*
X127954269Y-87384455D01*
X127973675Y-87375276D01*
X127993887Y-87368044D01*
X128014711Y-87362828D01*
X128035946Y-87359678D01*
X128057387Y-87358625D01*
X128569887Y-87358625D01*
X128591328Y-87359678D01*
X128591328Y-87359678D01*
G37*
D16*
X128313637Y-87796125D03*
D10*
G36*
X128591328Y-88934678D02*
X128612563Y-88937828D01*
X128633387Y-88943044D01*
X128653599Y-88950276D01*
X128673005Y-88959455D01*
X128691418Y-88970491D01*
X128708661Y-88983279D01*
X128724567Y-88997695D01*
X128738983Y-89013601D01*
X128751771Y-89030844D01*
X128762807Y-89049257D01*
X128771986Y-89068663D01*
X128779218Y-89088875D01*
X128784434Y-89109699D01*
X128787584Y-89130934D01*
X128788637Y-89152375D01*
X128788637Y-89589875D01*
X128787584Y-89611316D01*
X128784434Y-89632551D01*
X128779218Y-89653375D01*
X128771986Y-89673587D01*
X128762807Y-89692993D01*
X128751771Y-89711406D01*
X128738983Y-89728649D01*
X128724567Y-89744555D01*
X128708661Y-89758971D01*
X128691418Y-89771759D01*
X128673005Y-89782795D01*
X128653599Y-89791974D01*
X128633387Y-89799206D01*
X128612563Y-89804422D01*
X128591328Y-89807572D01*
X128569887Y-89808625D01*
X128057387Y-89808625D01*
X128035946Y-89807572D01*
X128014711Y-89804422D01*
X127993887Y-89799206D01*
X127973675Y-89791974D01*
X127954269Y-89782795D01*
X127935856Y-89771759D01*
X127918613Y-89758971D01*
X127902707Y-89744555D01*
X127888291Y-89728649D01*
X127875503Y-89711406D01*
X127864467Y-89692993D01*
X127855288Y-89673587D01*
X127848056Y-89653375D01*
X127842840Y-89632551D01*
X127839690Y-89611316D01*
X127838637Y-89589875D01*
X127838637Y-89152375D01*
X127839690Y-89130934D01*
X127842840Y-89109699D01*
X127848056Y-89088875D01*
X127855288Y-89068663D01*
X127864467Y-89049257D01*
X127875503Y-89030844D01*
X127888291Y-89013601D01*
X127902707Y-88997695D01*
X127918613Y-88983279D01*
X127935856Y-88970491D01*
X127954269Y-88959455D01*
X127973675Y-88950276D01*
X127993887Y-88943044D01*
X128014711Y-88937828D01*
X128035946Y-88934678D01*
X128057387Y-88933625D01*
X128569887Y-88933625D01*
X128591328Y-88934678D01*
X128591328Y-88934678D01*
G37*
D16*
X128313637Y-89371125D03*
G04 #@! TD*
D17*
G04 #@! TO.C,D604*
X126922000Y-77840000D03*
X126922000Y-78740000D03*
X126922000Y-79640000D03*
X129872000Y-79640000D03*
X129872000Y-78740000D03*
X129872000Y-77840000D03*
G04 #@! TD*
D10*
G04 #@! TO.C,R617*
G36*
X126806917Y-69046509D02*
X126828152Y-69049659D01*
X126848976Y-69054875D01*
X126869188Y-69062107D01*
X126888594Y-69071286D01*
X126907007Y-69082322D01*
X126924250Y-69095110D01*
X126940156Y-69109526D01*
X126954572Y-69125432D01*
X126967360Y-69142675D01*
X126978396Y-69161088D01*
X126987575Y-69180494D01*
X126994807Y-69200706D01*
X127000023Y-69221530D01*
X127003173Y-69242765D01*
X127004226Y-69264206D01*
X127004226Y-69701706D01*
X127003173Y-69723147D01*
X127000023Y-69744382D01*
X126994807Y-69765206D01*
X126987575Y-69785418D01*
X126978396Y-69804824D01*
X126967360Y-69823237D01*
X126954572Y-69840480D01*
X126940156Y-69856386D01*
X126924250Y-69870802D01*
X126907007Y-69883590D01*
X126888594Y-69894626D01*
X126869188Y-69903805D01*
X126848976Y-69911037D01*
X126828152Y-69916253D01*
X126806917Y-69919403D01*
X126785476Y-69920456D01*
X126272976Y-69920456D01*
X126251535Y-69919403D01*
X126230300Y-69916253D01*
X126209476Y-69911037D01*
X126189264Y-69903805D01*
X126169858Y-69894626D01*
X126151445Y-69883590D01*
X126134202Y-69870802D01*
X126118296Y-69856386D01*
X126103880Y-69840480D01*
X126091092Y-69823237D01*
X126080056Y-69804824D01*
X126070877Y-69785418D01*
X126063645Y-69765206D01*
X126058429Y-69744382D01*
X126055279Y-69723147D01*
X126054226Y-69701706D01*
X126054226Y-69264206D01*
X126055279Y-69242765D01*
X126058429Y-69221530D01*
X126063645Y-69200706D01*
X126070877Y-69180494D01*
X126080056Y-69161088D01*
X126091092Y-69142675D01*
X126103880Y-69125432D01*
X126118296Y-69109526D01*
X126134202Y-69095110D01*
X126151445Y-69082322D01*
X126169858Y-69071286D01*
X126189264Y-69062107D01*
X126209476Y-69054875D01*
X126230300Y-69049659D01*
X126251535Y-69046509D01*
X126272976Y-69045456D01*
X126785476Y-69045456D01*
X126806917Y-69046509D01*
X126806917Y-69046509D01*
G37*
D16*
X126529226Y-69482956D03*
D10*
G36*
X126806917Y-67471509D02*
X126828152Y-67474659D01*
X126848976Y-67479875D01*
X126869188Y-67487107D01*
X126888594Y-67496286D01*
X126907007Y-67507322D01*
X126924250Y-67520110D01*
X126940156Y-67534526D01*
X126954572Y-67550432D01*
X126967360Y-67567675D01*
X126978396Y-67586088D01*
X126987575Y-67605494D01*
X126994807Y-67625706D01*
X127000023Y-67646530D01*
X127003173Y-67667765D01*
X127004226Y-67689206D01*
X127004226Y-68126706D01*
X127003173Y-68148147D01*
X127000023Y-68169382D01*
X126994807Y-68190206D01*
X126987575Y-68210418D01*
X126978396Y-68229824D01*
X126967360Y-68248237D01*
X126954572Y-68265480D01*
X126940156Y-68281386D01*
X126924250Y-68295802D01*
X126907007Y-68308590D01*
X126888594Y-68319626D01*
X126869188Y-68328805D01*
X126848976Y-68336037D01*
X126828152Y-68341253D01*
X126806917Y-68344403D01*
X126785476Y-68345456D01*
X126272976Y-68345456D01*
X126251535Y-68344403D01*
X126230300Y-68341253D01*
X126209476Y-68336037D01*
X126189264Y-68328805D01*
X126169858Y-68319626D01*
X126151445Y-68308590D01*
X126134202Y-68295802D01*
X126118296Y-68281386D01*
X126103880Y-68265480D01*
X126091092Y-68248237D01*
X126080056Y-68229824D01*
X126070877Y-68210418D01*
X126063645Y-68190206D01*
X126058429Y-68169382D01*
X126055279Y-68148147D01*
X126054226Y-68126706D01*
X126054226Y-67689206D01*
X126055279Y-67667765D01*
X126058429Y-67646530D01*
X126063645Y-67625706D01*
X126070877Y-67605494D01*
X126080056Y-67586088D01*
X126091092Y-67567675D01*
X126103880Y-67550432D01*
X126118296Y-67534526D01*
X126134202Y-67520110D01*
X126151445Y-67507322D01*
X126169858Y-67496286D01*
X126189264Y-67487107D01*
X126209476Y-67479875D01*
X126230300Y-67474659D01*
X126251535Y-67471509D01*
X126272976Y-67470456D01*
X126785476Y-67470456D01*
X126806917Y-67471509D01*
X126806917Y-67471509D01*
G37*
D16*
X126529226Y-67907956D03*
G04 #@! TD*
D10*
G04 #@! TO.C,R606*
G36*
X132484691Y-86203053D02*
X132505926Y-86206203D01*
X132526750Y-86211419D01*
X132546962Y-86218651D01*
X132566368Y-86227830D01*
X132584781Y-86238866D01*
X132602024Y-86251654D01*
X132617930Y-86266070D01*
X132632346Y-86281976D01*
X132645134Y-86299219D01*
X132656170Y-86317632D01*
X132665349Y-86337038D01*
X132672581Y-86357250D01*
X132677797Y-86378074D01*
X132680947Y-86399309D01*
X132682000Y-86420750D01*
X132682000Y-86858250D01*
X132680947Y-86879691D01*
X132677797Y-86900926D01*
X132672581Y-86921750D01*
X132665349Y-86941962D01*
X132656170Y-86961368D01*
X132645134Y-86979781D01*
X132632346Y-86997024D01*
X132617930Y-87012930D01*
X132602024Y-87027346D01*
X132584781Y-87040134D01*
X132566368Y-87051170D01*
X132546962Y-87060349D01*
X132526750Y-87067581D01*
X132505926Y-87072797D01*
X132484691Y-87075947D01*
X132463250Y-87077000D01*
X131950750Y-87077000D01*
X131929309Y-87075947D01*
X131908074Y-87072797D01*
X131887250Y-87067581D01*
X131867038Y-87060349D01*
X131847632Y-87051170D01*
X131829219Y-87040134D01*
X131811976Y-87027346D01*
X131796070Y-87012930D01*
X131781654Y-86997024D01*
X131768866Y-86979781D01*
X131757830Y-86961368D01*
X131748651Y-86941962D01*
X131741419Y-86921750D01*
X131736203Y-86900926D01*
X131733053Y-86879691D01*
X131732000Y-86858250D01*
X131732000Y-86420750D01*
X131733053Y-86399309D01*
X131736203Y-86378074D01*
X131741419Y-86357250D01*
X131748651Y-86337038D01*
X131757830Y-86317632D01*
X131768866Y-86299219D01*
X131781654Y-86281976D01*
X131796070Y-86266070D01*
X131811976Y-86251654D01*
X131829219Y-86238866D01*
X131847632Y-86227830D01*
X131867038Y-86218651D01*
X131887250Y-86211419D01*
X131908074Y-86206203D01*
X131929309Y-86203053D01*
X131950750Y-86202000D01*
X132463250Y-86202000D01*
X132484691Y-86203053D01*
X132484691Y-86203053D01*
G37*
D16*
X132207000Y-86639500D03*
D10*
G36*
X132484691Y-84628053D02*
X132505926Y-84631203D01*
X132526750Y-84636419D01*
X132546962Y-84643651D01*
X132566368Y-84652830D01*
X132584781Y-84663866D01*
X132602024Y-84676654D01*
X132617930Y-84691070D01*
X132632346Y-84706976D01*
X132645134Y-84724219D01*
X132656170Y-84742632D01*
X132665349Y-84762038D01*
X132672581Y-84782250D01*
X132677797Y-84803074D01*
X132680947Y-84824309D01*
X132682000Y-84845750D01*
X132682000Y-85283250D01*
X132680947Y-85304691D01*
X132677797Y-85325926D01*
X132672581Y-85346750D01*
X132665349Y-85366962D01*
X132656170Y-85386368D01*
X132645134Y-85404781D01*
X132632346Y-85422024D01*
X132617930Y-85437930D01*
X132602024Y-85452346D01*
X132584781Y-85465134D01*
X132566368Y-85476170D01*
X132546962Y-85485349D01*
X132526750Y-85492581D01*
X132505926Y-85497797D01*
X132484691Y-85500947D01*
X132463250Y-85502000D01*
X131950750Y-85502000D01*
X131929309Y-85500947D01*
X131908074Y-85497797D01*
X131887250Y-85492581D01*
X131867038Y-85485349D01*
X131847632Y-85476170D01*
X131829219Y-85465134D01*
X131811976Y-85452346D01*
X131796070Y-85437930D01*
X131781654Y-85422024D01*
X131768866Y-85404781D01*
X131757830Y-85386368D01*
X131748651Y-85366962D01*
X131741419Y-85346750D01*
X131736203Y-85325926D01*
X131733053Y-85304691D01*
X131732000Y-85283250D01*
X131732000Y-84845750D01*
X131733053Y-84824309D01*
X131736203Y-84803074D01*
X131741419Y-84782250D01*
X131748651Y-84762038D01*
X131757830Y-84742632D01*
X131768866Y-84724219D01*
X131781654Y-84706976D01*
X131796070Y-84691070D01*
X131811976Y-84676654D01*
X131829219Y-84663866D01*
X131847632Y-84652830D01*
X131867038Y-84643651D01*
X131887250Y-84636419D01*
X131908074Y-84631203D01*
X131929309Y-84628053D01*
X131950750Y-84627000D01*
X132463250Y-84627000D01*
X132484691Y-84628053D01*
X132484691Y-84628053D01*
G37*
D16*
X132207000Y-85064500D03*
G04 #@! TD*
D10*
G04 #@! TO.C,R608*
G36*
X134262691Y-86203053D02*
X134283926Y-86206203D01*
X134304750Y-86211419D01*
X134324962Y-86218651D01*
X134344368Y-86227830D01*
X134362781Y-86238866D01*
X134380024Y-86251654D01*
X134395930Y-86266070D01*
X134410346Y-86281976D01*
X134423134Y-86299219D01*
X134434170Y-86317632D01*
X134443349Y-86337038D01*
X134450581Y-86357250D01*
X134455797Y-86378074D01*
X134458947Y-86399309D01*
X134460000Y-86420750D01*
X134460000Y-86858250D01*
X134458947Y-86879691D01*
X134455797Y-86900926D01*
X134450581Y-86921750D01*
X134443349Y-86941962D01*
X134434170Y-86961368D01*
X134423134Y-86979781D01*
X134410346Y-86997024D01*
X134395930Y-87012930D01*
X134380024Y-87027346D01*
X134362781Y-87040134D01*
X134344368Y-87051170D01*
X134324962Y-87060349D01*
X134304750Y-87067581D01*
X134283926Y-87072797D01*
X134262691Y-87075947D01*
X134241250Y-87077000D01*
X133728750Y-87077000D01*
X133707309Y-87075947D01*
X133686074Y-87072797D01*
X133665250Y-87067581D01*
X133645038Y-87060349D01*
X133625632Y-87051170D01*
X133607219Y-87040134D01*
X133589976Y-87027346D01*
X133574070Y-87012930D01*
X133559654Y-86997024D01*
X133546866Y-86979781D01*
X133535830Y-86961368D01*
X133526651Y-86941962D01*
X133519419Y-86921750D01*
X133514203Y-86900926D01*
X133511053Y-86879691D01*
X133510000Y-86858250D01*
X133510000Y-86420750D01*
X133511053Y-86399309D01*
X133514203Y-86378074D01*
X133519419Y-86357250D01*
X133526651Y-86337038D01*
X133535830Y-86317632D01*
X133546866Y-86299219D01*
X133559654Y-86281976D01*
X133574070Y-86266070D01*
X133589976Y-86251654D01*
X133607219Y-86238866D01*
X133625632Y-86227830D01*
X133645038Y-86218651D01*
X133665250Y-86211419D01*
X133686074Y-86206203D01*
X133707309Y-86203053D01*
X133728750Y-86202000D01*
X134241250Y-86202000D01*
X134262691Y-86203053D01*
X134262691Y-86203053D01*
G37*
D16*
X133985000Y-86639500D03*
D10*
G36*
X134262691Y-84628053D02*
X134283926Y-84631203D01*
X134304750Y-84636419D01*
X134324962Y-84643651D01*
X134344368Y-84652830D01*
X134362781Y-84663866D01*
X134380024Y-84676654D01*
X134395930Y-84691070D01*
X134410346Y-84706976D01*
X134423134Y-84724219D01*
X134434170Y-84742632D01*
X134443349Y-84762038D01*
X134450581Y-84782250D01*
X134455797Y-84803074D01*
X134458947Y-84824309D01*
X134460000Y-84845750D01*
X134460000Y-85283250D01*
X134458947Y-85304691D01*
X134455797Y-85325926D01*
X134450581Y-85346750D01*
X134443349Y-85366962D01*
X134434170Y-85386368D01*
X134423134Y-85404781D01*
X134410346Y-85422024D01*
X134395930Y-85437930D01*
X134380024Y-85452346D01*
X134362781Y-85465134D01*
X134344368Y-85476170D01*
X134324962Y-85485349D01*
X134304750Y-85492581D01*
X134283926Y-85497797D01*
X134262691Y-85500947D01*
X134241250Y-85502000D01*
X133728750Y-85502000D01*
X133707309Y-85500947D01*
X133686074Y-85497797D01*
X133665250Y-85492581D01*
X133645038Y-85485349D01*
X133625632Y-85476170D01*
X133607219Y-85465134D01*
X133589976Y-85452346D01*
X133574070Y-85437930D01*
X133559654Y-85422024D01*
X133546866Y-85404781D01*
X133535830Y-85386368D01*
X133526651Y-85366962D01*
X133519419Y-85346750D01*
X133514203Y-85325926D01*
X133511053Y-85304691D01*
X133510000Y-85283250D01*
X133510000Y-84845750D01*
X133511053Y-84824309D01*
X133514203Y-84803074D01*
X133519419Y-84782250D01*
X133526651Y-84762038D01*
X133535830Y-84742632D01*
X133546866Y-84724219D01*
X133559654Y-84706976D01*
X133574070Y-84691070D01*
X133589976Y-84676654D01*
X133607219Y-84663866D01*
X133625632Y-84652830D01*
X133645038Y-84643651D01*
X133665250Y-84636419D01*
X133686074Y-84631203D01*
X133707309Y-84628053D01*
X133728750Y-84627000D01*
X134241250Y-84627000D01*
X134262691Y-84628053D01*
X134262691Y-84628053D01*
G37*
D16*
X133985000Y-85064500D03*
G04 #@! TD*
D15*
G04 #@! TO.C,D603*
X127153226Y-62394456D03*
X128053226Y-62394456D03*
X128953226Y-62394456D03*
X128953226Y-65344456D03*
X128053226Y-65344456D03*
X127153226Y-65344456D03*
G04 #@! TD*
D10*
G04 #@! TO.C,R621*
G36*
X122998191Y-78266053D02*
X123019426Y-78269203D01*
X123040250Y-78274419D01*
X123060462Y-78281651D01*
X123079868Y-78290830D01*
X123098281Y-78301866D01*
X123115524Y-78314654D01*
X123131430Y-78329070D01*
X123145846Y-78344976D01*
X123158634Y-78362219D01*
X123169670Y-78380632D01*
X123178849Y-78400038D01*
X123186081Y-78420250D01*
X123191297Y-78441074D01*
X123194447Y-78462309D01*
X123195500Y-78483750D01*
X123195500Y-78996250D01*
X123194447Y-79017691D01*
X123191297Y-79038926D01*
X123186081Y-79059750D01*
X123178849Y-79079962D01*
X123169670Y-79099368D01*
X123158634Y-79117781D01*
X123145846Y-79135024D01*
X123131430Y-79150930D01*
X123115524Y-79165346D01*
X123098281Y-79178134D01*
X123079868Y-79189170D01*
X123060462Y-79198349D01*
X123040250Y-79205581D01*
X123019426Y-79210797D01*
X122998191Y-79213947D01*
X122976750Y-79215000D01*
X122539250Y-79215000D01*
X122517809Y-79213947D01*
X122496574Y-79210797D01*
X122475750Y-79205581D01*
X122455538Y-79198349D01*
X122436132Y-79189170D01*
X122417719Y-79178134D01*
X122400476Y-79165346D01*
X122384570Y-79150930D01*
X122370154Y-79135024D01*
X122357366Y-79117781D01*
X122346330Y-79099368D01*
X122337151Y-79079962D01*
X122329919Y-79059750D01*
X122324703Y-79038926D01*
X122321553Y-79017691D01*
X122320500Y-78996250D01*
X122320500Y-78483750D01*
X122321553Y-78462309D01*
X122324703Y-78441074D01*
X122329919Y-78420250D01*
X122337151Y-78400038D01*
X122346330Y-78380632D01*
X122357366Y-78362219D01*
X122370154Y-78344976D01*
X122384570Y-78329070D01*
X122400476Y-78314654D01*
X122417719Y-78301866D01*
X122436132Y-78290830D01*
X122455538Y-78281651D01*
X122475750Y-78274419D01*
X122496574Y-78269203D01*
X122517809Y-78266053D01*
X122539250Y-78265000D01*
X122976750Y-78265000D01*
X122998191Y-78266053D01*
X122998191Y-78266053D01*
G37*
D16*
X122758000Y-78740000D03*
D10*
G36*
X124573191Y-78266053D02*
X124594426Y-78269203D01*
X124615250Y-78274419D01*
X124635462Y-78281651D01*
X124654868Y-78290830D01*
X124673281Y-78301866D01*
X124690524Y-78314654D01*
X124706430Y-78329070D01*
X124720846Y-78344976D01*
X124733634Y-78362219D01*
X124744670Y-78380632D01*
X124753849Y-78400038D01*
X124761081Y-78420250D01*
X124766297Y-78441074D01*
X124769447Y-78462309D01*
X124770500Y-78483750D01*
X124770500Y-78996250D01*
X124769447Y-79017691D01*
X124766297Y-79038926D01*
X124761081Y-79059750D01*
X124753849Y-79079962D01*
X124744670Y-79099368D01*
X124733634Y-79117781D01*
X124720846Y-79135024D01*
X124706430Y-79150930D01*
X124690524Y-79165346D01*
X124673281Y-79178134D01*
X124654868Y-79189170D01*
X124635462Y-79198349D01*
X124615250Y-79205581D01*
X124594426Y-79210797D01*
X124573191Y-79213947D01*
X124551750Y-79215000D01*
X124114250Y-79215000D01*
X124092809Y-79213947D01*
X124071574Y-79210797D01*
X124050750Y-79205581D01*
X124030538Y-79198349D01*
X124011132Y-79189170D01*
X123992719Y-79178134D01*
X123975476Y-79165346D01*
X123959570Y-79150930D01*
X123945154Y-79135024D01*
X123932366Y-79117781D01*
X123921330Y-79099368D01*
X123912151Y-79079962D01*
X123904919Y-79059750D01*
X123899703Y-79038926D01*
X123896553Y-79017691D01*
X123895500Y-78996250D01*
X123895500Y-78483750D01*
X123896553Y-78462309D01*
X123899703Y-78441074D01*
X123904919Y-78420250D01*
X123912151Y-78400038D01*
X123921330Y-78380632D01*
X123932366Y-78362219D01*
X123945154Y-78344976D01*
X123959570Y-78329070D01*
X123975476Y-78314654D01*
X123992719Y-78301866D01*
X124011132Y-78290830D01*
X124030538Y-78281651D01*
X124050750Y-78274419D01*
X124071574Y-78269203D01*
X124092809Y-78266053D01*
X124114250Y-78265000D01*
X124551750Y-78265000D01*
X124573191Y-78266053D01*
X124573191Y-78266053D01*
G37*
D16*
X124333000Y-78740000D03*
G04 #@! TD*
D10*
G04 #@! TO.C,R623*
G36*
X129854917Y-69046509D02*
X129876152Y-69049659D01*
X129896976Y-69054875D01*
X129917188Y-69062107D01*
X129936594Y-69071286D01*
X129955007Y-69082322D01*
X129972250Y-69095110D01*
X129988156Y-69109526D01*
X130002572Y-69125432D01*
X130015360Y-69142675D01*
X130026396Y-69161088D01*
X130035575Y-69180494D01*
X130042807Y-69200706D01*
X130048023Y-69221530D01*
X130051173Y-69242765D01*
X130052226Y-69264206D01*
X130052226Y-69701706D01*
X130051173Y-69723147D01*
X130048023Y-69744382D01*
X130042807Y-69765206D01*
X130035575Y-69785418D01*
X130026396Y-69804824D01*
X130015360Y-69823237D01*
X130002572Y-69840480D01*
X129988156Y-69856386D01*
X129972250Y-69870802D01*
X129955007Y-69883590D01*
X129936594Y-69894626D01*
X129917188Y-69903805D01*
X129896976Y-69911037D01*
X129876152Y-69916253D01*
X129854917Y-69919403D01*
X129833476Y-69920456D01*
X129320976Y-69920456D01*
X129299535Y-69919403D01*
X129278300Y-69916253D01*
X129257476Y-69911037D01*
X129237264Y-69903805D01*
X129217858Y-69894626D01*
X129199445Y-69883590D01*
X129182202Y-69870802D01*
X129166296Y-69856386D01*
X129151880Y-69840480D01*
X129139092Y-69823237D01*
X129128056Y-69804824D01*
X129118877Y-69785418D01*
X129111645Y-69765206D01*
X129106429Y-69744382D01*
X129103279Y-69723147D01*
X129102226Y-69701706D01*
X129102226Y-69264206D01*
X129103279Y-69242765D01*
X129106429Y-69221530D01*
X129111645Y-69200706D01*
X129118877Y-69180494D01*
X129128056Y-69161088D01*
X129139092Y-69142675D01*
X129151880Y-69125432D01*
X129166296Y-69109526D01*
X129182202Y-69095110D01*
X129199445Y-69082322D01*
X129217858Y-69071286D01*
X129237264Y-69062107D01*
X129257476Y-69054875D01*
X129278300Y-69049659D01*
X129299535Y-69046509D01*
X129320976Y-69045456D01*
X129833476Y-69045456D01*
X129854917Y-69046509D01*
X129854917Y-69046509D01*
G37*
D16*
X129577226Y-69482956D03*
D10*
G36*
X129854917Y-67471509D02*
X129876152Y-67474659D01*
X129896976Y-67479875D01*
X129917188Y-67487107D01*
X129936594Y-67496286D01*
X129955007Y-67507322D01*
X129972250Y-67520110D01*
X129988156Y-67534526D01*
X130002572Y-67550432D01*
X130015360Y-67567675D01*
X130026396Y-67586088D01*
X130035575Y-67605494D01*
X130042807Y-67625706D01*
X130048023Y-67646530D01*
X130051173Y-67667765D01*
X130052226Y-67689206D01*
X130052226Y-68126706D01*
X130051173Y-68148147D01*
X130048023Y-68169382D01*
X130042807Y-68190206D01*
X130035575Y-68210418D01*
X130026396Y-68229824D01*
X130015360Y-68248237D01*
X130002572Y-68265480D01*
X129988156Y-68281386D01*
X129972250Y-68295802D01*
X129955007Y-68308590D01*
X129936594Y-68319626D01*
X129917188Y-68328805D01*
X129896976Y-68336037D01*
X129876152Y-68341253D01*
X129854917Y-68344403D01*
X129833476Y-68345456D01*
X129320976Y-68345456D01*
X129299535Y-68344403D01*
X129278300Y-68341253D01*
X129257476Y-68336037D01*
X129237264Y-68328805D01*
X129217858Y-68319626D01*
X129199445Y-68308590D01*
X129182202Y-68295802D01*
X129166296Y-68281386D01*
X129151880Y-68265480D01*
X129139092Y-68248237D01*
X129128056Y-68229824D01*
X129118877Y-68210418D01*
X129111645Y-68190206D01*
X129106429Y-68169382D01*
X129103279Y-68148147D01*
X129102226Y-68126706D01*
X129102226Y-67689206D01*
X129103279Y-67667765D01*
X129106429Y-67646530D01*
X129111645Y-67625706D01*
X129118877Y-67605494D01*
X129128056Y-67586088D01*
X129139092Y-67567675D01*
X129151880Y-67550432D01*
X129166296Y-67534526D01*
X129182202Y-67520110D01*
X129199445Y-67507322D01*
X129217858Y-67496286D01*
X129237264Y-67487107D01*
X129257476Y-67479875D01*
X129278300Y-67474659D01*
X129299535Y-67471509D01*
X129320976Y-67470456D01*
X129833476Y-67470456D01*
X129854917Y-67471509D01*
X129854917Y-67471509D01*
G37*
D16*
X129577226Y-67907956D03*
G04 #@! TD*
D10*
G04 #@! TO.C,R607*
G36*
X133500691Y-69947053D02*
X133521926Y-69950203D01*
X133542750Y-69955419D01*
X133562962Y-69962651D01*
X133582368Y-69971830D01*
X133600781Y-69982866D01*
X133618024Y-69995654D01*
X133633930Y-70010070D01*
X133648346Y-70025976D01*
X133661134Y-70043219D01*
X133672170Y-70061632D01*
X133681349Y-70081038D01*
X133688581Y-70101250D01*
X133693797Y-70122074D01*
X133696947Y-70143309D01*
X133698000Y-70164750D01*
X133698000Y-70602250D01*
X133696947Y-70623691D01*
X133693797Y-70644926D01*
X133688581Y-70665750D01*
X133681349Y-70685962D01*
X133672170Y-70705368D01*
X133661134Y-70723781D01*
X133648346Y-70741024D01*
X133633930Y-70756930D01*
X133618024Y-70771346D01*
X133600781Y-70784134D01*
X133582368Y-70795170D01*
X133562962Y-70804349D01*
X133542750Y-70811581D01*
X133521926Y-70816797D01*
X133500691Y-70819947D01*
X133479250Y-70821000D01*
X132966750Y-70821000D01*
X132945309Y-70819947D01*
X132924074Y-70816797D01*
X132903250Y-70811581D01*
X132883038Y-70804349D01*
X132863632Y-70795170D01*
X132845219Y-70784134D01*
X132827976Y-70771346D01*
X132812070Y-70756930D01*
X132797654Y-70741024D01*
X132784866Y-70723781D01*
X132773830Y-70705368D01*
X132764651Y-70685962D01*
X132757419Y-70665750D01*
X132752203Y-70644926D01*
X132749053Y-70623691D01*
X132748000Y-70602250D01*
X132748000Y-70164750D01*
X132749053Y-70143309D01*
X132752203Y-70122074D01*
X132757419Y-70101250D01*
X132764651Y-70081038D01*
X132773830Y-70061632D01*
X132784866Y-70043219D01*
X132797654Y-70025976D01*
X132812070Y-70010070D01*
X132827976Y-69995654D01*
X132845219Y-69982866D01*
X132863632Y-69971830D01*
X132883038Y-69962651D01*
X132903250Y-69955419D01*
X132924074Y-69950203D01*
X132945309Y-69947053D01*
X132966750Y-69946000D01*
X133479250Y-69946000D01*
X133500691Y-69947053D01*
X133500691Y-69947053D01*
G37*
D16*
X133223000Y-70383500D03*
D10*
G36*
X133500691Y-68372053D02*
X133521926Y-68375203D01*
X133542750Y-68380419D01*
X133562962Y-68387651D01*
X133582368Y-68396830D01*
X133600781Y-68407866D01*
X133618024Y-68420654D01*
X133633930Y-68435070D01*
X133648346Y-68450976D01*
X133661134Y-68468219D01*
X133672170Y-68486632D01*
X133681349Y-68506038D01*
X133688581Y-68526250D01*
X133693797Y-68547074D01*
X133696947Y-68568309D01*
X133698000Y-68589750D01*
X133698000Y-69027250D01*
X133696947Y-69048691D01*
X133693797Y-69069926D01*
X133688581Y-69090750D01*
X133681349Y-69110962D01*
X133672170Y-69130368D01*
X133661134Y-69148781D01*
X133648346Y-69166024D01*
X133633930Y-69181930D01*
X133618024Y-69196346D01*
X133600781Y-69209134D01*
X133582368Y-69220170D01*
X133562962Y-69229349D01*
X133542750Y-69236581D01*
X133521926Y-69241797D01*
X133500691Y-69244947D01*
X133479250Y-69246000D01*
X132966750Y-69246000D01*
X132945309Y-69244947D01*
X132924074Y-69241797D01*
X132903250Y-69236581D01*
X132883038Y-69229349D01*
X132863632Y-69220170D01*
X132845219Y-69209134D01*
X132827976Y-69196346D01*
X132812070Y-69181930D01*
X132797654Y-69166024D01*
X132784866Y-69148781D01*
X132773830Y-69130368D01*
X132764651Y-69110962D01*
X132757419Y-69090750D01*
X132752203Y-69069926D01*
X132749053Y-69048691D01*
X132748000Y-69027250D01*
X132748000Y-68589750D01*
X132749053Y-68568309D01*
X132752203Y-68547074D01*
X132757419Y-68526250D01*
X132764651Y-68506038D01*
X132773830Y-68486632D01*
X132784866Y-68468219D01*
X132797654Y-68450976D01*
X132812070Y-68435070D01*
X132827976Y-68420654D01*
X132845219Y-68407866D01*
X132863632Y-68396830D01*
X132883038Y-68387651D01*
X132903250Y-68380419D01*
X132924074Y-68375203D01*
X132945309Y-68372053D01*
X132966750Y-68371000D01*
X133479250Y-68371000D01*
X133500691Y-68372053D01*
X133500691Y-68372053D01*
G37*
D16*
X133223000Y-68808500D03*
G04 #@! TD*
D10*
G04 #@! TO.C,R620*
G36*
X128330917Y-69046509D02*
X128352152Y-69049659D01*
X128372976Y-69054875D01*
X128393188Y-69062107D01*
X128412594Y-69071286D01*
X128431007Y-69082322D01*
X128448250Y-69095110D01*
X128464156Y-69109526D01*
X128478572Y-69125432D01*
X128491360Y-69142675D01*
X128502396Y-69161088D01*
X128511575Y-69180494D01*
X128518807Y-69200706D01*
X128524023Y-69221530D01*
X128527173Y-69242765D01*
X128528226Y-69264206D01*
X128528226Y-69701706D01*
X128527173Y-69723147D01*
X128524023Y-69744382D01*
X128518807Y-69765206D01*
X128511575Y-69785418D01*
X128502396Y-69804824D01*
X128491360Y-69823237D01*
X128478572Y-69840480D01*
X128464156Y-69856386D01*
X128448250Y-69870802D01*
X128431007Y-69883590D01*
X128412594Y-69894626D01*
X128393188Y-69903805D01*
X128372976Y-69911037D01*
X128352152Y-69916253D01*
X128330917Y-69919403D01*
X128309476Y-69920456D01*
X127796976Y-69920456D01*
X127775535Y-69919403D01*
X127754300Y-69916253D01*
X127733476Y-69911037D01*
X127713264Y-69903805D01*
X127693858Y-69894626D01*
X127675445Y-69883590D01*
X127658202Y-69870802D01*
X127642296Y-69856386D01*
X127627880Y-69840480D01*
X127615092Y-69823237D01*
X127604056Y-69804824D01*
X127594877Y-69785418D01*
X127587645Y-69765206D01*
X127582429Y-69744382D01*
X127579279Y-69723147D01*
X127578226Y-69701706D01*
X127578226Y-69264206D01*
X127579279Y-69242765D01*
X127582429Y-69221530D01*
X127587645Y-69200706D01*
X127594877Y-69180494D01*
X127604056Y-69161088D01*
X127615092Y-69142675D01*
X127627880Y-69125432D01*
X127642296Y-69109526D01*
X127658202Y-69095110D01*
X127675445Y-69082322D01*
X127693858Y-69071286D01*
X127713264Y-69062107D01*
X127733476Y-69054875D01*
X127754300Y-69049659D01*
X127775535Y-69046509D01*
X127796976Y-69045456D01*
X128309476Y-69045456D01*
X128330917Y-69046509D01*
X128330917Y-69046509D01*
G37*
D16*
X128053226Y-69482956D03*
D10*
G36*
X128330917Y-67471509D02*
X128352152Y-67474659D01*
X128372976Y-67479875D01*
X128393188Y-67487107D01*
X128412594Y-67496286D01*
X128431007Y-67507322D01*
X128448250Y-67520110D01*
X128464156Y-67534526D01*
X128478572Y-67550432D01*
X128491360Y-67567675D01*
X128502396Y-67586088D01*
X128511575Y-67605494D01*
X128518807Y-67625706D01*
X128524023Y-67646530D01*
X128527173Y-67667765D01*
X128528226Y-67689206D01*
X128528226Y-68126706D01*
X128527173Y-68148147D01*
X128524023Y-68169382D01*
X128518807Y-68190206D01*
X128511575Y-68210418D01*
X128502396Y-68229824D01*
X128491360Y-68248237D01*
X128478572Y-68265480D01*
X128464156Y-68281386D01*
X128448250Y-68295802D01*
X128431007Y-68308590D01*
X128412594Y-68319626D01*
X128393188Y-68328805D01*
X128372976Y-68336037D01*
X128352152Y-68341253D01*
X128330917Y-68344403D01*
X128309476Y-68345456D01*
X127796976Y-68345456D01*
X127775535Y-68344403D01*
X127754300Y-68341253D01*
X127733476Y-68336037D01*
X127713264Y-68328805D01*
X127693858Y-68319626D01*
X127675445Y-68308590D01*
X127658202Y-68295802D01*
X127642296Y-68281386D01*
X127627880Y-68265480D01*
X127615092Y-68248237D01*
X127604056Y-68229824D01*
X127594877Y-68210418D01*
X127587645Y-68190206D01*
X127582429Y-68169382D01*
X127579279Y-68148147D01*
X127578226Y-68126706D01*
X127578226Y-67689206D01*
X127579279Y-67667765D01*
X127582429Y-67646530D01*
X127587645Y-67625706D01*
X127594877Y-67605494D01*
X127604056Y-67586088D01*
X127615092Y-67567675D01*
X127627880Y-67550432D01*
X127642296Y-67534526D01*
X127658202Y-67520110D01*
X127675445Y-67507322D01*
X127693858Y-67496286D01*
X127713264Y-67487107D01*
X127733476Y-67479875D01*
X127754300Y-67474659D01*
X127775535Y-67471509D01*
X127796976Y-67470456D01*
X128309476Y-67470456D01*
X128330917Y-67471509D01*
X128330917Y-67471509D01*
G37*
D16*
X128053226Y-67907956D03*
G04 #@! TD*
D10*
G04 #@! TO.C,C501*
G36*
X159480505Y-123888204D02*
X159504773Y-123891804D01*
X159528572Y-123897765D01*
X159551671Y-123906030D01*
X159573850Y-123916520D01*
X159594893Y-123929132D01*
X159614599Y-123943747D01*
X159632777Y-123960223D01*
X159649253Y-123978401D01*
X159663868Y-123998107D01*
X159676480Y-124019150D01*
X159686970Y-124041329D01*
X159695235Y-124064428D01*
X159701196Y-124088227D01*
X159704796Y-124112495D01*
X159706000Y-124136999D01*
X159706000Y-125037001D01*
X159704796Y-125061505D01*
X159701196Y-125085773D01*
X159695235Y-125109572D01*
X159686970Y-125132671D01*
X159676480Y-125154850D01*
X159663868Y-125175893D01*
X159649253Y-125195599D01*
X159632777Y-125213777D01*
X159614599Y-125230253D01*
X159594893Y-125244868D01*
X159573850Y-125257480D01*
X159551671Y-125267970D01*
X159528572Y-125276235D01*
X159504773Y-125282196D01*
X159480505Y-125285796D01*
X159456001Y-125287000D01*
X158805999Y-125287000D01*
X158781495Y-125285796D01*
X158757227Y-125282196D01*
X158733428Y-125276235D01*
X158710329Y-125267970D01*
X158688150Y-125257480D01*
X158667107Y-125244868D01*
X158647401Y-125230253D01*
X158629223Y-125213777D01*
X158612747Y-125195599D01*
X158598132Y-125175893D01*
X158585520Y-125154850D01*
X158575030Y-125132671D01*
X158566765Y-125109572D01*
X158560804Y-125085773D01*
X158557204Y-125061505D01*
X158556000Y-125037001D01*
X158556000Y-124136999D01*
X158557204Y-124112495D01*
X158560804Y-124088227D01*
X158566765Y-124064428D01*
X158575030Y-124041329D01*
X158585520Y-124019150D01*
X158598132Y-123998107D01*
X158612747Y-123978401D01*
X158629223Y-123960223D01*
X158647401Y-123943747D01*
X158667107Y-123929132D01*
X158688150Y-123916520D01*
X158710329Y-123906030D01*
X158733428Y-123897765D01*
X158757227Y-123891804D01*
X158781495Y-123888204D01*
X158805999Y-123887000D01*
X159456001Y-123887000D01*
X159480505Y-123888204D01*
X159480505Y-123888204D01*
G37*
D11*
X159131000Y-124587000D03*
D10*
G36*
X157430505Y-123888204D02*
X157454773Y-123891804D01*
X157478572Y-123897765D01*
X157501671Y-123906030D01*
X157523850Y-123916520D01*
X157544893Y-123929132D01*
X157564599Y-123943747D01*
X157582777Y-123960223D01*
X157599253Y-123978401D01*
X157613868Y-123998107D01*
X157626480Y-124019150D01*
X157636970Y-124041329D01*
X157645235Y-124064428D01*
X157651196Y-124088227D01*
X157654796Y-124112495D01*
X157656000Y-124136999D01*
X157656000Y-125037001D01*
X157654796Y-125061505D01*
X157651196Y-125085773D01*
X157645235Y-125109572D01*
X157636970Y-125132671D01*
X157626480Y-125154850D01*
X157613868Y-125175893D01*
X157599253Y-125195599D01*
X157582777Y-125213777D01*
X157564599Y-125230253D01*
X157544893Y-125244868D01*
X157523850Y-125257480D01*
X157501671Y-125267970D01*
X157478572Y-125276235D01*
X157454773Y-125282196D01*
X157430505Y-125285796D01*
X157406001Y-125287000D01*
X156755999Y-125287000D01*
X156731495Y-125285796D01*
X156707227Y-125282196D01*
X156683428Y-125276235D01*
X156660329Y-125267970D01*
X156638150Y-125257480D01*
X156617107Y-125244868D01*
X156597401Y-125230253D01*
X156579223Y-125213777D01*
X156562747Y-125195599D01*
X156548132Y-125175893D01*
X156535520Y-125154850D01*
X156525030Y-125132671D01*
X156516765Y-125109572D01*
X156510804Y-125085773D01*
X156507204Y-125061505D01*
X156506000Y-125037001D01*
X156506000Y-124136999D01*
X156507204Y-124112495D01*
X156510804Y-124088227D01*
X156516765Y-124064428D01*
X156525030Y-124041329D01*
X156535520Y-124019150D01*
X156548132Y-123998107D01*
X156562747Y-123978401D01*
X156579223Y-123960223D01*
X156597401Y-123943747D01*
X156617107Y-123929132D01*
X156638150Y-123916520D01*
X156660329Y-123906030D01*
X156683428Y-123897765D01*
X156707227Y-123891804D01*
X156731495Y-123888204D01*
X156755999Y-123887000D01*
X157406001Y-123887000D01*
X157430505Y-123888204D01*
X157430505Y-123888204D01*
G37*
D11*
X157081000Y-124587000D03*
G04 #@! TD*
D10*
G04 #@! TO.C,D501*
G36*
X160784504Y-126986204D02*
X160808773Y-126989804D01*
X160832571Y-126995765D01*
X160855671Y-127004030D01*
X160877849Y-127014520D01*
X160898893Y-127027133D01*
X160918598Y-127041747D01*
X160936777Y-127058223D01*
X160953253Y-127076402D01*
X160967867Y-127096107D01*
X160980480Y-127117151D01*
X160990970Y-127139329D01*
X160999235Y-127162429D01*
X161005196Y-127186227D01*
X161008796Y-127210496D01*
X161010000Y-127235000D01*
X161010000Y-128035000D01*
X161008796Y-128059504D01*
X161005196Y-128083773D01*
X160999235Y-128107571D01*
X160990970Y-128130671D01*
X160980480Y-128152849D01*
X160967867Y-128173893D01*
X160953253Y-128193598D01*
X160936777Y-128211777D01*
X160918598Y-128228253D01*
X160898893Y-128242867D01*
X160877849Y-128255480D01*
X160855671Y-128265970D01*
X160832571Y-128274235D01*
X160808773Y-128280196D01*
X160784504Y-128283796D01*
X160760000Y-128285000D01*
X159935000Y-128285000D01*
X159910496Y-128283796D01*
X159886227Y-128280196D01*
X159862429Y-128274235D01*
X159839329Y-128265970D01*
X159817151Y-128255480D01*
X159796107Y-128242867D01*
X159776402Y-128228253D01*
X159758223Y-128211777D01*
X159741747Y-128193598D01*
X159727133Y-128173893D01*
X159714520Y-128152849D01*
X159704030Y-128130671D01*
X159695765Y-128107571D01*
X159689804Y-128083773D01*
X159686204Y-128059504D01*
X159685000Y-128035000D01*
X159685000Y-127235000D01*
X159686204Y-127210496D01*
X159689804Y-127186227D01*
X159695765Y-127162429D01*
X159704030Y-127139329D01*
X159714520Y-127117151D01*
X159727133Y-127096107D01*
X159741747Y-127076402D01*
X159758223Y-127058223D01*
X159776402Y-127041747D01*
X159796107Y-127027133D01*
X159817151Y-127014520D01*
X159839329Y-127004030D01*
X159862429Y-126995765D01*
X159886227Y-126989804D01*
X159910496Y-126986204D01*
X159935000Y-126985000D01*
X160760000Y-126985000D01*
X160784504Y-126986204D01*
X160784504Y-126986204D01*
G37*
D18*
X160347500Y-127635000D03*
D10*
G36*
X158859504Y-126986204D02*
X158883773Y-126989804D01*
X158907571Y-126995765D01*
X158930671Y-127004030D01*
X158952849Y-127014520D01*
X158973893Y-127027133D01*
X158993598Y-127041747D01*
X159011777Y-127058223D01*
X159028253Y-127076402D01*
X159042867Y-127096107D01*
X159055480Y-127117151D01*
X159065970Y-127139329D01*
X159074235Y-127162429D01*
X159080196Y-127186227D01*
X159083796Y-127210496D01*
X159085000Y-127235000D01*
X159085000Y-128035000D01*
X159083796Y-128059504D01*
X159080196Y-128083773D01*
X159074235Y-128107571D01*
X159065970Y-128130671D01*
X159055480Y-128152849D01*
X159042867Y-128173893D01*
X159028253Y-128193598D01*
X159011777Y-128211777D01*
X158993598Y-128228253D01*
X158973893Y-128242867D01*
X158952849Y-128255480D01*
X158930671Y-128265970D01*
X158907571Y-128274235D01*
X158883773Y-128280196D01*
X158859504Y-128283796D01*
X158835000Y-128285000D01*
X158010000Y-128285000D01*
X157985496Y-128283796D01*
X157961227Y-128280196D01*
X157937429Y-128274235D01*
X157914329Y-128265970D01*
X157892151Y-128255480D01*
X157871107Y-128242867D01*
X157851402Y-128228253D01*
X157833223Y-128211777D01*
X157816747Y-128193598D01*
X157802133Y-128173893D01*
X157789520Y-128152849D01*
X157779030Y-128130671D01*
X157770765Y-128107571D01*
X157764804Y-128083773D01*
X157761204Y-128059504D01*
X157760000Y-128035000D01*
X157760000Y-127235000D01*
X157761204Y-127210496D01*
X157764804Y-127186227D01*
X157770765Y-127162429D01*
X157779030Y-127139329D01*
X157789520Y-127117151D01*
X157802133Y-127096107D01*
X157816747Y-127076402D01*
X157833223Y-127058223D01*
X157851402Y-127041747D01*
X157871107Y-127027133D01*
X157892151Y-127014520D01*
X157914329Y-127004030D01*
X157937429Y-126995765D01*
X157961227Y-126989804D01*
X157985496Y-126986204D01*
X158010000Y-126985000D01*
X158835000Y-126985000D01*
X158859504Y-126986204D01*
X158859504Y-126986204D01*
G37*
D18*
X158422500Y-127635000D03*
G04 #@! TD*
D19*
G04 #@! TO.C,SW502*
X154115000Y-103251000D03*
X162115000Y-103251000D03*
X154115000Y-105791000D03*
X162115000Y-105791000D03*
X154115000Y-108331000D03*
X162115000Y-108331000D03*
G04 #@! TD*
D20*
G04 #@! TO.C,U501*
X153719000Y-122428000D03*
X153719000Y-121158000D03*
X153719000Y-119888000D03*
X153719000Y-118618000D03*
X153719000Y-117348000D03*
X153719000Y-116078000D03*
X153719000Y-114808000D03*
X153719000Y-113538000D03*
X163019000Y-113538000D03*
X163019000Y-114808000D03*
X163019000Y-116078000D03*
X163019000Y-117348000D03*
X163019000Y-118618000D03*
X163019000Y-119888000D03*
X163019000Y-121158000D03*
X163019000Y-122428000D03*
G04 #@! TD*
D10*
G04 #@! TO.C,R501*
G36*
X156704505Y-126936204D02*
X156728773Y-126939804D01*
X156752572Y-126945765D01*
X156775671Y-126954030D01*
X156797850Y-126964520D01*
X156818893Y-126977132D01*
X156838599Y-126991747D01*
X156856777Y-127008223D01*
X156873253Y-127026401D01*
X156887868Y-127046107D01*
X156900480Y-127067150D01*
X156910970Y-127089329D01*
X156919235Y-127112428D01*
X156925196Y-127136227D01*
X156928796Y-127160495D01*
X156930000Y-127184999D01*
X156930000Y-128085001D01*
X156928796Y-128109505D01*
X156925196Y-128133773D01*
X156919235Y-128157572D01*
X156910970Y-128180671D01*
X156900480Y-128202850D01*
X156887868Y-128223893D01*
X156873253Y-128243599D01*
X156856777Y-128261777D01*
X156838599Y-128278253D01*
X156818893Y-128292868D01*
X156797850Y-128305480D01*
X156775671Y-128315970D01*
X156752572Y-128324235D01*
X156728773Y-128330196D01*
X156704505Y-128333796D01*
X156680001Y-128335000D01*
X156029999Y-128335000D01*
X156005495Y-128333796D01*
X155981227Y-128330196D01*
X155957428Y-128324235D01*
X155934329Y-128315970D01*
X155912150Y-128305480D01*
X155891107Y-128292868D01*
X155871401Y-128278253D01*
X155853223Y-128261777D01*
X155836747Y-128243599D01*
X155822132Y-128223893D01*
X155809520Y-128202850D01*
X155799030Y-128180671D01*
X155790765Y-128157572D01*
X155784804Y-128133773D01*
X155781204Y-128109505D01*
X155780000Y-128085001D01*
X155780000Y-127184999D01*
X155781204Y-127160495D01*
X155784804Y-127136227D01*
X155790765Y-127112428D01*
X155799030Y-127089329D01*
X155809520Y-127067150D01*
X155822132Y-127046107D01*
X155836747Y-127026401D01*
X155853223Y-127008223D01*
X155871401Y-126991747D01*
X155891107Y-126977132D01*
X155912150Y-126964520D01*
X155934329Y-126954030D01*
X155957428Y-126945765D01*
X155981227Y-126939804D01*
X156005495Y-126936204D01*
X156029999Y-126935000D01*
X156680001Y-126935000D01*
X156704505Y-126936204D01*
X156704505Y-126936204D01*
G37*
D11*
X156355000Y-127635000D03*
D10*
G36*
X154654505Y-126936204D02*
X154678773Y-126939804D01*
X154702572Y-126945765D01*
X154725671Y-126954030D01*
X154747850Y-126964520D01*
X154768893Y-126977132D01*
X154788599Y-126991747D01*
X154806777Y-127008223D01*
X154823253Y-127026401D01*
X154837868Y-127046107D01*
X154850480Y-127067150D01*
X154860970Y-127089329D01*
X154869235Y-127112428D01*
X154875196Y-127136227D01*
X154878796Y-127160495D01*
X154880000Y-127184999D01*
X154880000Y-128085001D01*
X154878796Y-128109505D01*
X154875196Y-128133773D01*
X154869235Y-128157572D01*
X154860970Y-128180671D01*
X154850480Y-128202850D01*
X154837868Y-128223893D01*
X154823253Y-128243599D01*
X154806777Y-128261777D01*
X154788599Y-128278253D01*
X154768893Y-128292868D01*
X154747850Y-128305480D01*
X154725671Y-128315970D01*
X154702572Y-128324235D01*
X154678773Y-128330196D01*
X154654505Y-128333796D01*
X154630001Y-128335000D01*
X153979999Y-128335000D01*
X153955495Y-128333796D01*
X153931227Y-128330196D01*
X153907428Y-128324235D01*
X153884329Y-128315970D01*
X153862150Y-128305480D01*
X153841107Y-128292868D01*
X153821401Y-128278253D01*
X153803223Y-128261777D01*
X153786747Y-128243599D01*
X153772132Y-128223893D01*
X153759520Y-128202850D01*
X153749030Y-128180671D01*
X153740765Y-128157572D01*
X153734804Y-128133773D01*
X153731204Y-128109505D01*
X153730000Y-128085001D01*
X153730000Y-127184999D01*
X153731204Y-127160495D01*
X153734804Y-127136227D01*
X153740765Y-127112428D01*
X153749030Y-127089329D01*
X153759520Y-127067150D01*
X153772132Y-127046107D01*
X153786747Y-127026401D01*
X153803223Y-127008223D01*
X153821401Y-126991747D01*
X153841107Y-126977132D01*
X153862150Y-126964520D01*
X153884329Y-126954030D01*
X153907428Y-126945765D01*
X153931227Y-126939804D01*
X153955495Y-126936204D01*
X153979999Y-126935000D01*
X154630001Y-126935000D01*
X154654505Y-126936204D01*
X154654505Y-126936204D01*
G37*
D11*
X154305000Y-127635000D03*
G04 #@! TD*
D10*
G04 #@! TO.C,C501*
G36*
X174466505Y-123888204D02*
X174490773Y-123891804D01*
X174514572Y-123897765D01*
X174537671Y-123906030D01*
X174559850Y-123916520D01*
X174580893Y-123929132D01*
X174600599Y-123943747D01*
X174618777Y-123960223D01*
X174635253Y-123978401D01*
X174649868Y-123998107D01*
X174662480Y-124019150D01*
X174672970Y-124041329D01*
X174681235Y-124064428D01*
X174687196Y-124088227D01*
X174690796Y-124112495D01*
X174692000Y-124136999D01*
X174692000Y-125037001D01*
X174690796Y-125061505D01*
X174687196Y-125085773D01*
X174681235Y-125109572D01*
X174672970Y-125132671D01*
X174662480Y-125154850D01*
X174649868Y-125175893D01*
X174635253Y-125195599D01*
X174618777Y-125213777D01*
X174600599Y-125230253D01*
X174580893Y-125244868D01*
X174559850Y-125257480D01*
X174537671Y-125267970D01*
X174514572Y-125276235D01*
X174490773Y-125282196D01*
X174466505Y-125285796D01*
X174442001Y-125287000D01*
X173791999Y-125287000D01*
X173767495Y-125285796D01*
X173743227Y-125282196D01*
X173719428Y-125276235D01*
X173696329Y-125267970D01*
X173674150Y-125257480D01*
X173653107Y-125244868D01*
X173633401Y-125230253D01*
X173615223Y-125213777D01*
X173598747Y-125195599D01*
X173584132Y-125175893D01*
X173571520Y-125154850D01*
X173561030Y-125132671D01*
X173552765Y-125109572D01*
X173546804Y-125085773D01*
X173543204Y-125061505D01*
X173542000Y-125037001D01*
X173542000Y-124136999D01*
X173543204Y-124112495D01*
X173546804Y-124088227D01*
X173552765Y-124064428D01*
X173561030Y-124041329D01*
X173571520Y-124019150D01*
X173584132Y-123998107D01*
X173598747Y-123978401D01*
X173615223Y-123960223D01*
X173633401Y-123943747D01*
X173653107Y-123929132D01*
X173674150Y-123916520D01*
X173696329Y-123906030D01*
X173719428Y-123897765D01*
X173743227Y-123891804D01*
X173767495Y-123888204D01*
X173791999Y-123887000D01*
X174442001Y-123887000D01*
X174466505Y-123888204D01*
X174466505Y-123888204D01*
G37*
D11*
X174117000Y-124587000D03*
D10*
G36*
X172416505Y-123888204D02*
X172440773Y-123891804D01*
X172464572Y-123897765D01*
X172487671Y-123906030D01*
X172509850Y-123916520D01*
X172530893Y-123929132D01*
X172550599Y-123943747D01*
X172568777Y-123960223D01*
X172585253Y-123978401D01*
X172599868Y-123998107D01*
X172612480Y-124019150D01*
X172622970Y-124041329D01*
X172631235Y-124064428D01*
X172637196Y-124088227D01*
X172640796Y-124112495D01*
X172642000Y-124136999D01*
X172642000Y-125037001D01*
X172640796Y-125061505D01*
X172637196Y-125085773D01*
X172631235Y-125109572D01*
X172622970Y-125132671D01*
X172612480Y-125154850D01*
X172599868Y-125175893D01*
X172585253Y-125195599D01*
X172568777Y-125213777D01*
X172550599Y-125230253D01*
X172530893Y-125244868D01*
X172509850Y-125257480D01*
X172487671Y-125267970D01*
X172464572Y-125276235D01*
X172440773Y-125282196D01*
X172416505Y-125285796D01*
X172392001Y-125287000D01*
X171741999Y-125287000D01*
X171717495Y-125285796D01*
X171693227Y-125282196D01*
X171669428Y-125276235D01*
X171646329Y-125267970D01*
X171624150Y-125257480D01*
X171603107Y-125244868D01*
X171583401Y-125230253D01*
X171565223Y-125213777D01*
X171548747Y-125195599D01*
X171534132Y-125175893D01*
X171521520Y-125154850D01*
X171511030Y-125132671D01*
X171502765Y-125109572D01*
X171496804Y-125085773D01*
X171493204Y-125061505D01*
X171492000Y-125037001D01*
X171492000Y-124136999D01*
X171493204Y-124112495D01*
X171496804Y-124088227D01*
X171502765Y-124064428D01*
X171511030Y-124041329D01*
X171521520Y-124019150D01*
X171534132Y-123998107D01*
X171548747Y-123978401D01*
X171565223Y-123960223D01*
X171583401Y-123943747D01*
X171603107Y-123929132D01*
X171624150Y-123916520D01*
X171646329Y-123906030D01*
X171669428Y-123897765D01*
X171693227Y-123891804D01*
X171717495Y-123888204D01*
X171741999Y-123887000D01*
X172392001Y-123887000D01*
X172416505Y-123888204D01*
X172416505Y-123888204D01*
G37*
D11*
X172067000Y-124587000D03*
G04 #@! TD*
D10*
G04 #@! TO.C,D501*
G36*
X175770504Y-126986204D02*
X175794773Y-126989804D01*
X175818571Y-126995765D01*
X175841671Y-127004030D01*
X175863849Y-127014520D01*
X175884893Y-127027133D01*
X175904598Y-127041747D01*
X175922777Y-127058223D01*
X175939253Y-127076402D01*
X175953867Y-127096107D01*
X175966480Y-127117151D01*
X175976970Y-127139329D01*
X175985235Y-127162429D01*
X175991196Y-127186227D01*
X175994796Y-127210496D01*
X175996000Y-127235000D01*
X175996000Y-128035000D01*
X175994796Y-128059504D01*
X175991196Y-128083773D01*
X175985235Y-128107571D01*
X175976970Y-128130671D01*
X175966480Y-128152849D01*
X175953867Y-128173893D01*
X175939253Y-128193598D01*
X175922777Y-128211777D01*
X175904598Y-128228253D01*
X175884893Y-128242867D01*
X175863849Y-128255480D01*
X175841671Y-128265970D01*
X175818571Y-128274235D01*
X175794773Y-128280196D01*
X175770504Y-128283796D01*
X175746000Y-128285000D01*
X174921000Y-128285000D01*
X174896496Y-128283796D01*
X174872227Y-128280196D01*
X174848429Y-128274235D01*
X174825329Y-128265970D01*
X174803151Y-128255480D01*
X174782107Y-128242867D01*
X174762402Y-128228253D01*
X174744223Y-128211777D01*
X174727747Y-128193598D01*
X174713133Y-128173893D01*
X174700520Y-128152849D01*
X174690030Y-128130671D01*
X174681765Y-128107571D01*
X174675804Y-128083773D01*
X174672204Y-128059504D01*
X174671000Y-128035000D01*
X174671000Y-127235000D01*
X174672204Y-127210496D01*
X174675804Y-127186227D01*
X174681765Y-127162429D01*
X174690030Y-127139329D01*
X174700520Y-127117151D01*
X174713133Y-127096107D01*
X174727747Y-127076402D01*
X174744223Y-127058223D01*
X174762402Y-127041747D01*
X174782107Y-127027133D01*
X174803151Y-127014520D01*
X174825329Y-127004030D01*
X174848429Y-126995765D01*
X174872227Y-126989804D01*
X174896496Y-126986204D01*
X174921000Y-126985000D01*
X175746000Y-126985000D01*
X175770504Y-126986204D01*
X175770504Y-126986204D01*
G37*
D18*
X175333500Y-127635000D03*
D10*
G36*
X173845504Y-126986204D02*
X173869773Y-126989804D01*
X173893571Y-126995765D01*
X173916671Y-127004030D01*
X173938849Y-127014520D01*
X173959893Y-127027133D01*
X173979598Y-127041747D01*
X173997777Y-127058223D01*
X174014253Y-127076402D01*
X174028867Y-127096107D01*
X174041480Y-127117151D01*
X174051970Y-127139329D01*
X174060235Y-127162429D01*
X174066196Y-127186227D01*
X174069796Y-127210496D01*
X174071000Y-127235000D01*
X174071000Y-128035000D01*
X174069796Y-128059504D01*
X174066196Y-128083773D01*
X174060235Y-128107571D01*
X174051970Y-128130671D01*
X174041480Y-128152849D01*
X174028867Y-128173893D01*
X174014253Y-128193598D01*
X173997777Y-128211777D01*
X173979598Y-128228253D01*
X173959893Y-128242867D01*
X173938849Y-128255480D01*
X173916671Y-128265970D01*
X173893571Y-128274235D01*
X173869773Y-128280196D01*
X173845504Y-128283796D01*
X173821000Y-128285000D01*
X172996000Y-128285000D01*
X172971496Y-128283796D01*
X172947227Y-128280196D01*
X172923429Y-128274235D01*
X172900329Y-128265970D01*
X172878151Y-128255480D01*
X172857107Y-128242867D01*
X172837402Y-128228253D01*
X172819223Y-128211777D01*
X172802747Y-128193598D01*
X172788133Y-128173893D01*
X172775520Y-128152849D01*
X172765030Y-128130671D01*
X172756765Y-128107571D01*
X172750804Y-128083773D01*
X172747204Y-128059504D01*
X172746000Y-128035000D01*
X172746000Y-127235000D01*
X172747204Y-127210496D01*
X172750804Y-127186227D01*
X172756765Y-127162429D01*
X172765030Y-127139329D01*
X172775520Y-127117151D01*
X172788133Y-127096107D01*
X172802747Y-127076402D01*
X172819223Y-127058223D01*
X172837402Y-127041747D01*
X172857107Y-127027133D01*
X172878151Y-127014520D01*
X172900329Y-127004030D01*
X172923429Y-126995765D01*
X172947227Y-126989804D01*
X172971496Y-126986204D01*
X172996000Y-126985000D01*
X173821000Y-126985000D01*
X173845504Y-126986204D01*
X173845504Y-126986204D01*
G37*
D18*
X173408500Y-127635000D03*
G04 #@! TD*
D19*
G04 #@! TO.C,SW502*
X169101000Y-103251000D03*
X177101000Y-103251000D03*
X169101000Y-105791000D03*
X177101000Y-105791000D03*
X169101000Y-108331000D03*
X177101000Y-108331000D03*
G04 #@! TD*
D20*
G04 #@! TO.C,U501*
X168705000Y-122428000D03*
X168705000Y-121158000D03*
X168705000Y-119888000D03*
X168705000Y-118618000D03*
X168705000Y-117348000D03*
X168705000Y-116078000D03*
X168705000Y-114808000D03*
X168705000Y-113538000D03*
X178005000Y-113538000D03*
X178005000Y-114808000D03*
X178005000Y-116078000D03*
X178005000Y-117348000D03*
X178005000Y-118618000D03*
X178005000Y-119888000D03*
X178005000Y-121158000D03*
X178005000Y-122428000D03*
G04 #@! TD*
D10*
G04 #@! TO.C,R501*
G36*
X171690505Y-126936204D02*
X171714773Y-126939804D01*
X171738572Y-126945765D01*
X171761671Y-126954030D01*
X171783850Y-126964520D01*
X171804893Y-126977132D01*
X171824599Y-126991747D01*
X171842777Y-127008223D01*
X171859253Y-127026401D01*
X171873868Y-127046107D01*
X171886480Y-127067150D01*
X171896970Y-127089329D01*
X171905235Y-127112428D01*
X171911196Y-127136227D01*
X171914796Y-127160495D01*
X171916000Y-127184999D01*
X171916000Y-128085001D01*
X171914796Y-128109505D01*
X171911196Y-128133773D01*
X171905235Y-128157572D01*
X171896970Y-128180671D01*
X171886480Y-128202850D01*
X171873868Y-128223893D01*
X171859253Y-128243599D01*
X171842777Y-128261777D01*
X171824599Y-128278253D01*
X171804893Y-128292868D01*
X171783850Y-128305480D01*
X171761671Y-128315970D01*
X171738572Y-128324235D01*
X171714773Y-128330196D01*
X171690505Y-128333796D01*
X171666001Y-128335000D01*
X171015999Y-128335000D01*
X170991495Y-128333796D01*
X170967227Y-128330196D01*
X170943428Y-128324235D01*
X170920329Y-128315970D01*
X170898150Y-128305480D01*
X170877107Y-128292868D01*
X170857401Y-128278253D01*
X170839223Y-128261777D01*
X170822747Y-128243599D01*
X170808132Y-128223893D01*
X170795520Y-128202850D01*
X170785030Y-128180671D01*
X170776765Y-128157572D01*
X170770804Y-128133773D01*
X170767204Y-128109505D01*
X170766000Y-128085001D01*
X170766000Y-127184999D01*
X170767204Y-127160495D01*
X170770804Y-127136227D01*
X170776765Y-127112428D01*
X170785030Y-127089329D01*
X170795520Y-127067150D01*
X170808132Y-127046107D01*
X170822747Y-127026401D01*
X170839223Y-127008223D01*
X170857401Y-126991747D01*
X170877107Y-126977132D01*
X170898150Y-126964520D01*
X170920329Y-126954030D01*
X170943428Y-126945765D01*
X170967227Y-126939804D01*
X170991495Y-126936204D01*
X171015999Y-126935000D01*
X171666001Y-126935000D01*
X171690505Y-126936204D01*
X171690505Y-126936204D01*
G37*
D11*
X171341000Y-127635000D03*
D10*
G36*
X169640505Y-126936204D02*
X169664773Y-126939804D01*
X169688572Y-126945765D01*
X169711671Y-126954030D01*
X169733850Y-126964520D01*
X169754893Y-126977132D01*
X169774599Y-126991747D01*
X169792777Y-127008223D01*
X169809253Y-127026401D01*
X169823868Y-127046107D01*
X169836480Y-127067150D01*
X169846970Y-127089329D01*
X169855235Y-127112428D01*
X169861196Y-127136227D01*
X169864796Y-127160495D01*
X169866000Y-127184999D01*
X169866000Y-128085001D01*
X169864796Y-128109505D01*
X169861196Y-128133773D01*
X169855235Y-128157572D01*
X169846970Y-128180671D01*
X169836480Y-128202850D01*
X169823868Y-128223893D01*
X169809253Y-128243599D01*
X169792777Y-128261777D01*
X169774599Y-128278253D01*
X169754893Y-128292868D01*
X169733850Y-128305480D01*
X169711671Y-128315970D01*
X169688572Y-128324235D01*
X169664773Y-128330196D01*
X169640505Y-128333796D01*
X169616001Y-128335000D01*
X168965999Y-128335000D01*
X168941495Y-128333796D01*
X168917227Y-128330196D01*
X168893428Y-128324235D01*
X168870329Y-128315970D01*
X168848150Y-128305480D01*
X168827107Y-128292868D01*
X168807401Y-128278253D01*
X168789223Y-128261777D01*
X168772747Y-128243599D01*
X168758132Y-128223893D01*
X168745520Y-128202850D01*
X168735030Y-128180671D01*
X168726765Y-128157572D01*
X168720804Y-128133773D01*
X168717204Y-128109505D01*
X168716000Y-128085001D01*
X168716000Y-127184999D01*
X168717204Y-127160495D01*
X168720804Y-127136227D01*
X168726765Y-127112428D01*
X168735030Y-127089329D01*
X168745520Y-127067150D01*
X168758132Y-127046107D01*
X168772747Y-127026401D01*
X168789223Y-127008223D01*
X168807401Y-126991747D01*
X168827107Y-126977132D01*
X168848150Y-126964520D01*
X168870329Y-126954030D01*
X168893428Y-126945765D01*
X168917227Y-126939804D01*
X168941495Y-126936204D01*
X168965999Y-126935000D01*
X169616001Y-126935000D01*
X169640505Y-126936204D01*
X169640505Y-126936204D01*
G37*
D11*
X169291000Y-127635000D03*
G04 #@! TD*
D15*
G04 #@! TO.C,D605*
X164011637Y-88534625D03*
X163111637Y-88534625D03*
X162211637Y-88534625D03*
X162211637Y-85584625D03*
X163111637Y-85584625D03*
X164011637Y-85584625D03*
G04 #@! TD*
D10*
G04 #@! TO.C,R609*
G36*
X170076691Y-62022053D02*
X170097926Y-62025203D01*
X170118750Y-62030419D01*
X170138962Y-62037651D01*
X170158368Y-62046830D01*
X170176781Y-62057866D01*
X170194024Y-62070654D01*
X170209930Y-62085070D01*
X170224346Y-62100976D01*
X170237134Y-62118219D01*
X170248170Y-62136632D01*
X170257349Y-62156038D01*
X170264581Y-62176250D01*
X170269797Y-62197074D01*
X170272947Y-62218309D01*
X170274000Y-62239750D01*
X170274000Y-62677250D01*
X170272947Y-62698691D01*
X170269797Y-62719926D01*
X170264581Y-62740750D01*
X170257349Y-62760962D01*
X170248170Y-62780368D01*
X170237134Y-62798781D01*
X170224346Y-62816024D01*
X170209930Y-62831930D01*
X170194024Y-62846346D01*
X170176781Y-62859134D01*
X170158368Y-62870170D01*
X170138962Y-62879349D01*
X170118750Y-62886581D01*
X170097926Y-62891797D01*
X170076691Y-62894947D01*
X170055250Y-62896000D01*
X169542750Y-62896000D01*
X169521309Y-62894947D01*
X169500074Y-62891797D01*
X169479250Y-62886581D01*
X169459038Y-62879349D01*
X169439632Y-62870170D01*
X169421219Y-62859134D01*
X169403976Y-62846346D01*
X169388070Y-62831930D01*
X169373654Y-62816024D01*
X169360866Y-62798781D01*
X169349830Y-62780368D01*
X169340651Y-62760962D01*
X169333419Y-62740750D01*
X169328203Y-62719926D01*
X169325053Y-62698691D01*
X169324000Y-62677250D01*
X169324000Y-62239750D01*
X169325053Y-62218309D01*
X169328203Y-62197074D01*
X169333419Y-62176250D01*
X169340651Y-62156038D01*
X169349830Y-62136632D01*
X169360866Y-62118219D01*
X169373654Y-62100976D01*
X169388070Y-62085070D01*
X169403976Y-62070654D01*
X169421219Y-62057866D01*
X169439632Y-62046830D01*
X169459038Y-62037651D01*
X169479250Y-62030419D01*
X169500074Y-62025203D01*
X169521309Y-62022053D01*
X169542750Y-62021000D01*
X170055250Y-62021000D01*
X170076691Y-62022053D01*
X170076691Y-62022053D01*
G37*
D16*
X169799000Y-62458500D03*
D10*
G36*
X170076691Y-63597053D02*
X170097926Y-63600203D01*
X170118750Y-63605419D01*
X170138962Y-63612651D01*
X170158368Y-63621830D01*
X170176781Y-63632866D01*
X170194024Y-63645654D01*
X170209930Y-63660070D01*
X170224346Y-63675976D01*
X170237134Y-63693219D01*
X170248170Y-63711632D01*
X170257349Y-63731038D01*
X170264581Y-63751250D01*
X170269797Y-63772074D01*
X170272947Y-63793309D01*
X170274000Y-63814750D01*
X170274000Y-64252250D01*
X170272947Y-64273691D01*
X170269797Y-64294926D01*
X170264581Y-64315750D01*
X170257349Y-64335962D01*
X170248170Y-64355368D01*
X170237134Y-64373781D01*
X170224346Y-64391024D01*
X170209930Y-64406930D01*
X170194024Y-64421346D01*
X170176781Y-64434134D01*
X170158368Y-64445170D01*
X170138962Y-64454349D01*
X170118750Y-64461581D01*
X170097926Y-64466797D01*
X170076691Y-64469947D01*
X170055250Y-64471000D01*
X169542750Y-64471000D01*
X169521309Y-64469947D01*
X169500074Y-64466797D01*
X169479250Y-64461581D01*
X169459038Y-64454349D01*
X169439632Y-64445170D01*
X169421219Y-64434134D01*
X169403976Y-64421346D01*
X169388070Y-64406930D01*
X169373654Y-64391024D01*
X169360866Y-64373781D01*
X169349830Y-64355368D01*
X169340651Y-64335962D01*
X169333419Y-64315750D01*
X169328203Y-64294926D01*
X169325053Y-64273691D01*
X169324000Y-64252250D01*
X169324000Y-63814750D01*
X169325053Y-63793309D01*
X169328203Y-63772074D01*
X169333419Y-63751250D01*
X169340651Y-63731038D01*
X169349830Y-63711632D01*
X169360866Y-63693219D01*
X169373654Y-63675976D01*
X169388070Y-63660070D01*
X169403976Y-63645654D01*
X169421219Y-63632866D01*
X169439632Y-63621830D01*
X169459038Y-63612651D01*
X169479250Y-63605419D01*
X169500074Y-63600203D01*
X169521309Y-63597053D01*
X169542750Y-63596000D01*
X170055250Y-63596000D01*
X170076691Y-63597053D01*
X170076691Y-63597053D01*
G37*
D16*
X169799000Y-64033500D03*
G04 #@! TD*
D10*
G04 #@! TO.C,R618*
G36*
X159396691Y-70392053D02*
X159417926Y-70395203D01*
X159438750Y-70400419D01*
X159458962Y-70407651D01*
X159478368Y-70416830D01*
X159496781Y-70427866D01*
X159514024Y-70440654D01*
X159529930Y-70455070D01*
X159544346Y-70470976D01*
X159557134Y-70488219D01*
X159568170Y-70506632D01*
X159577349Y-70526038D01*
X159584581Y-70546250D01*
X159589797Y-70567074D01*
X159592947Y-70588309D01*
X159594000Y-70609750D01*
X159594000Y-71122250D01*
X159592947Y-71143691D01*
X159589797Y-71164926D01*
X159584581Y-71185750D01*
X159577349Y-71205962D01*
X159568170Y-71225368D01*
X159557134Y-71243781D01*
X159544346Y-71261024D01*
X159529930Y-71276930D01*
X159514024Y-71291346D01*
X159496781Y-71304134D01*
X159478368Y-71315170D01*
X159458962Y-71324349D01*
X159438750Y-71331581D01*
X159417926Y-71336797D01*
X159396691Y-71339947D01*
X159375250Y-71341000D01*
X158937750Y-71341000D01*
X158916309Y-71339947D01*
X158895074Y-71336797D01*
X158874250Y-71331581D01*
X158854038Y-71324349D01*
X158834632Y-71315170D01*
X158816219Y-71304134D01*
X158798976Y-71291346D01*
X158783070Y-71276930D01*
X158768654Y-71261024D01*
X158755866Y-71243781D01*
X158744830Y-71225368D01*
X158735651Y-71205962D01*
X158728419Y-71185750D01*
X158723203Y-71164926D01*
X158720053Y-71143691D01*
X158719000Y-71122250D01*
X158719000Y-70609750D01*
X158720053Y-70588309D01*
X158723203Y-70567074D01*
X158728419Y-70546250D01*
X158735651Y-70526038D01*
X158744830Y-70506632D01*
X158755866Y-70488219D01*
X158768654Y-70470976D01*
X158783070Y-70455070D01*
X158798976Y-70440654D01*
X158816219Y-70427866D01*
X158834632Y-70416830D01*
X158854038Y-70407651D01*
X158874250Y-70400419D01*
X158895074Y-70395203D01*
X158916309Y-70392053D01*
X158937750Y-70391000D01*
X159375250Y-70391000D01*
X159396691Y-70392053D01*
X159396691Y-70392053D01*
G37*
D16*
X159156500Y-70866000D03*
D10*
G36*
X157821691Y-70392053D02*
X157842926Y-70395203D01*
X157863750Y-70400419D01*
X157883962Y-70407651D01*
X157903368Y-70416830D01*
X157921781Y-70427866D01*
X157939024Y-70440654D01*
X157954930Y-70455070D01*
X157969346Y-70470976D01*
X157982134Y-70488219D01*
X157993170Y-70506632D01*
X158002349Y-70526038D01*
X158009581Y-70546250D01*
X158014797Y-70567074D01*
X158017947Y-70588309D01*
X158019000Y-70609750D01*
X158019000Y-71122250D01*
X158017947Y-71143691D01*
X158014797Y-71164926D01*
X158009581Y-71185750D01*
X158002349Y-71205962D01*
X157993170Y-71225368D01*
X157982134Y-71243781D01*
X157969346Y-71261024D01*
X157954930Y-71276930D01*
X157939024Y-71291346D01*
X157921781Y-71304134D01*
X157903368Y-71315170D01*
X157883962Y-71324349D01*
X157863750Y-71331581D01*
X157842926Y-71336797D01*
X157821691Y-71339947D01*
X157800250Y-71341000D01*
X157362750Y-71341000D01*
X157341309Y-71339947D01*
X157320074Y-71336797D01*
X157299250Y-71331581D01*
X157279038Y-71324349D01*
X157259632Y-71315170D01*
X157241219Y-71304134D01*
X157223976Y-71291346D01*
X157208070Y-71276930D01*
X157193654Y-71261024D01*
X157180866Y-71243781D01*
X157169830Y-71225368D01*
X157160651Y-71205962D01*
X157153419Y-71185750D01*
X157148203Y-71164926D01*
X157145053Y-71143691D01*
X157144000Y-71122250D01*
X157144000Y-70609750D01*
X157145053Y-70588309D01*
X157148203Y-70567074D01*
X157153419Y-70546250D01*
X157160651Y-70526038D01*
X157169830Y-70506632D01*
X157180866Y-70488219D01*
X157193654Y-70470976D01*
X157208070Y-70455070D01*
X157223976Y-70440654D01*
X157241219Y-70427866D01*
X157259632Y-70416830D01*
X157279038Y-70407651D01*
X157299250Y-70400419D01*
X157320074Y-70395203D01*
X157341309Y-70392053D01*
X157362750Y-70391000D01*
X157800250Y-70391000D01*
X157821691Y-70392053D01*
X157821691Y-70392053D01*
G37*
D16*
X157581500Y-70866000D03*
G04 #@! TD*
D10*
G04 #@! TO.C,R625*
G36*
X161865328Y-82584678D02*
X161886563Y-82587828D01*
X161907387Y-82593044D01*
X161927599Y-82600276D01*
X161947005Y-82609455D01*
X161965418Y-82620491D01*
X161982661Y-82633279D01*
X161998567Y-82647695D01*
X162012983Y-82663601D01*
X162025771Y-82680844D01*
X162036807Y-82699257D01*
X162045986Y-82718663D01*
X162053218Y-82738875D01*
X162058434Y-82759699D01*
X162061584Y-82780934D01*
X162062637Y-82802375D01*
X162062637Y-83239875D01*
X162061584Y-83261316D01*
X162058434Y-83282551D01*
X162053218Y-83303375D01*
X162045986Y-83323587D01*
X162036807Y-83342993D01*
X162025771Y-83361406D01*
X162012983Y-83378649D01*
X161998567Y-83394555D01*
X161982661Y-83408971D01*
X161965418Y-83421759D01*
X161947005Y-83432795D01*
X161927599Y-83441974D01*
X161907387Y-83449206D01*
X161886563Y-83454422D01*
X161865328Y-83457572D01*
X161843887Y-83458625D01*
X161331387Y-83458625D01*
X161309946Y-83457572D01*
X161288711Y-83454422D01*
X161267887Y-83449206D01*
X161247675Y-83441974D01*
X161228269Y-83432795D01*
X161209856Y-83421759D01*
X161192613Y-83408971D01*
X161176707Y-83394555D01*
X161162291Y-83378649D01*
X161149503Y-83361406D01*
X161138467Y-83342993D01*
X161129288Y-83323587D01*
X161122056Y-83303375D01*
X161116840Y-83282551D01*
X161113690Y-83261316D01*
X161112637Y-83239875D01*
X161112637Y-82802375D01*
X161113690Y-82780934D01*
X161116840Y-82759699D01*
X161122056Y-82738875D01*
X161129288Y-82718663D01*
X161138467Y-82699257D01*
X161149503Y-82680844D01*
X161162291Y-82663601D01*
X161176707Y-82647695D01*
X161192613Y-82633279D01*
X161209856Y-82620491D01*
X161228269Y-82609455D01*
X161247675Y-82600276D01*
X161267887Y-82593044D01*
X161288711Y-82587828D01*
X161309946Y-82584678D01*
X161331387Y-82583625D01*
X161843887Y-82583625D01*
X161865328Y-82584678D01*
X161865328Y-82584678D01*
G37*
D16*
X161587637Y-83021125D03*
D10*
G36*
X161865328Y-81009678D02*
X161886563Y-81012828D01*
X161907387Y-81018044D01*
X161927599Y-81025276D01*
X161947005Y-81034455D01*
X161965418Y-81045491D01*
X161982661Y-81058279D01*
X161998567Y-81072695D01*
X162012983Y-81088601D01*
X162025771Y-81105844D01*
X162036807Y-81124257D01*
X162045986Y-81143663D01*
X162053218Y-81163875D01*
X162058434Y-81184699D01*
X162061584Y-81205934D01*
X162062637Y-81227375D01*
X162062637Y-81664875D01*
X162061584Y-81686316D01*
X162058434Y-81707551D01*
X162053218Y-81728375D01*
X162045986Y-81748587D01*
X162036807Y-81767993D01*
X162025771Y-81786406D01*
X162012983Y-81803649D01*
X161998567Y-81819555D01*
X161982661Y-81833971D01*
X161965418Y-81846759D01*
X161947005Y-81857795D01*
X161927599Y-81866974D01*
X161907387Y-81874206D01*
X161886563Y-81879422D01*
X161865328Y-81882572D01*
X161843887Y-81883625D01*
X161331387Y-81883625D01*
X161309946Y-81882572D01*
X161288711Y-81879422D01*
X161267887Y-81874206D01*
X161247675Y-81866974D01*
X161228269Y-81857795D01*
X161209856Y-81846759D01*
X161192613Y-81833971D01*
X161176707Y-81819555D01*
X161162291Y-81803649D01*
X161149503Y-81786406D01*
X161138467Y-81767993D01*
X161129288Y-81748587D01*
X161122056Y-81728375D01*
X161116840Y-81707551D01*
X161113690Y-81686316D01*
X161112637Y-81664875D01*
X161112637Y-81227375D01*
X161113690Y-81205934D01*
X161116840Y-81184699D01*
X161122056Y-81163875D01*
X161129288Y-81143663D01*
X161138467Y-81124257D01*
X161149503Y-81105844D01*
X161162291Y-81088601D01*
X161176707Y-81072695D01*
X161192613Y-81058279D01*
X161209856Y-81045491D01*
X161228269Y-81034455D01*
X161247675Y-81025276D01*
X161267887Y-81018044D01*
X161288711Y-81012828D01*
X161309946Y-81009678D01*
X161331387Y-81008625D01*
X161843887Y-81008625D01*
X161865328Y-81009678D01*
X161865328Y-81009678D01*
G37*
D16*
X161587637Y-81446125D03*
G04 #@! TD*
D10*
G04 #@! TO.C,R624*
G36*
X159371191Y-73440053D02*
X159392426Y-73443203D01*
X159413250Y-73448419D01*
X159433462Y-73455651D01*
X159452868Y-73464830D01*
X159471281Y-73475866D01*
X159488524Y-73488654D01*
X159504430Y-73503070D01*
X159518846Y-73518976D01*
X159531634Y-73536219D01*
X159542670Y-73554632D01*
X159551849Y-73574038D01*
X159559081Y-73594250D01*
X159564297Y-73615074D01*
X159567447Y-73636309D01*
X159568500Y-73657750D01*
X159568500Y-74170250D01*
X159567447Y-74191691D01*
X159564297Y-74212926D01*
X159559081Y-74233750D01*
X159551849Y-74253962D01*
X159542670Y-74273368D01*
X159531634Y-74291781D01*
X159518846Y-74309024D01*
X159504430Y-74324930D01*
X159488524Y-74339346D01*
X159471281Y-74352134D01*
X159452868Y-74363170D01*
X159433462Y-74372349D01*
X159413250Y-74379581D01*
X159392426Y-74384797D01*
X159371191Y-74387947D01*
X159349750Y-74389000D01*
X158912250Y-74389000D01*
X158890809Y-74387947D01*
X158869574Y-74384797D01*
X158848750Y-74379581D01*
X158828538Y-74372349D01*
X158809132Y-74363170D01*
X158790719Y-74352134D01*
X158773476Y-74339346D01*
X158757570Y-74324930D01*
X158743154Y-74309024D01*
X158730366Y-74291781D01*
X158719330Y-74273368D01*
X158710151Y-74253962D01*
X158702919Y-74233750D01*
X158697703Y-74212926D01*
X158694553Y-74191691D01*
X158693500Y-74170250D01*
X158693500Y-73657750D01*
X158694553Y-73636309D01*
X158697703Y-73615074D01*
X158702919Y-73594250D01*
X158710151Y-73574038D01*
X158719330Y-73554632D01*
X158730366Y-73536219D01*
X158743154Y-73518976D01*
X158757570Y-73503070D01*
X158773476Y-73488654D01*
X158790719Y-73475866D01*
X158809132Y-73464830D01*
X158828538Y-73455651D01*
X158848750Y-73448419D01*
X158869574Y-73443203D01*
X158890809Y-73440053D01*
X158912250Y-73439000D01*
X159349750Y-73439000D01*
X159371191Y-73440053D01*
X159371191Y-73440053D01*
G37*
D16*
X159131000Y-73914000D03*
D10*
G36*
X157796191Y-73440053D02*
X157817426Y-73443203D01*
X157838250Y-73448419D01*
X157858462Y-73455651D01*
X157877868Y-73464830D01*
X157896281Y-73475866D01*
X157913524Y-73488654D01*
X157929430Y-73503070D01*
X157943846Y-73518976D01*
X157956634Y-73536219D01*
X157967670Y-73554632D01*
X157976849Y-73574038D01*
X157984081Y-73594250D01*
X157989297Y-73615074D01*
X157992447Y-73636309D01*
X157993500Y-73657750D01*
X157993500Y-74170250D01*
X157992447Y-74191691D01*
X157989297Y-74212926D01*
X157984081Y-74233750D01*
X157976849Y-74253962D01*
X157967670Y-74273368D01*
X157956634Y-74291781D01*
X157943846Y-74309024D01*
X157929430Y-74324930D01*
X157913524Y-74339346D01*
X157896281Y-74352134D01*
X157877868Y-74363170D01*
X157858462Y-74372349D01*
X157838250Y-74379581D01*
X157817426Y-74384797D01*
X157796191Y-74387947D01*
X157774750Y-74389000D01*
X157337250Y-74389000D01*
X157315809Y-74387947D01*
X157294574Y-74384797D01*
X157273750Y-74379581D01*
X157253538Y-74372349D01*
X157234132Y-74363170D01*
X157215719Y-74352134D01*
X157198476Y-74339346D01*
X157182570Y-74324930D01*
X157168154Y-74309024D01*
X157155366Y-74291781D01*
X157144330Y-74273368D01*
X157135151Y-74253962D01*
X157127919Y-74233750D01*
X157122703Y-74212926D01*
X157119553Y-74191691D01*
X157118500Y-74170250D01*
X157118500Y-73657750D01*
X157119553Y-73636309D01*
X157122703Y-73615074D01*
X157127919Y-73594250D01*
X157135151Y-73574038D01*
X157144330Y-73554632D01*
X157155366Y-73536219D01*
X157168154Y-73518976D01*
X157182570Y-73503070D01*
X157198476Y-73488654D01*
X157215719Y-73475866D01*
X157234132Y-73464830D01*
X157253538Y-73455651D01*
X157273750Y-73448419D01*
X157294574Y-73443203D01*
X157315809Y-73440053D01*
X157337250Y-73439000D01*
X157774750Y-73439000D01*
X157796191Y-73440053D01*
X157796191Y-73440053D01*
G37*
D16*
X157556000Y-73914000D03*
G04 #@! TD*
D10*
G04 #@! TO.C,R603*
G36*
X166520691Y-68677053D02*
X166541926Y-68680203D01*
X166562750Y-68685419D01*
X166582962Y-68692651D01*
X166602368Y-68701830D01*
X166620781Y-68712866D01*
X166638024Y-68725654D01*
X166653930Y-68740070D01*
X166668346Y-68755976D01*
X166681134Y-68773219D01*
X166692170Y-68791632D01*
X166701349Y-68811038D01*
X166708581Y-68831250D01*
X166713797Y-68852074D01*
X166716947Y-68873309D01*
X166718000Y-68894750D01*
X166718000Y-69332250D01*
X166716947Y-69353691D01*
X166713797Y-69374926D01*
X166708581Y-69395750D01*
X166701349Y-69415962D01*
X166692170Y-69435368D01*
X166681134Y-69453781D01*
X166668346Y-69471024D01*
X166653930Y-69486930D01*
X166638024Y-69501346D01*
X166620781Y-69514134D01*
X166602368Y-69525170D01*
X166582962Y-69534349D01*
X166562750Y-69541581D01*
X166541926Y-69546797D01*
X166520691Y-69549947D01*
X166499250Y-69551000D01*
X165986750Y-69551000D01*
X165965309Y-69549947D01*
X165944074Y-69546797D01*
X165923250Y-69541581D01*
X165903038Y-69534349D01*
X165883632Y-69525170D01*
X165865219Y-69514134D01*
X165847976Y-69501346D01*
X165832070Y-69486930D01*
X165817654Y-69471024D01*
X165804866Y-69453781D01*
X165793830Y-69435368D01*
X165784651Y-69415962D01*
X165777419Y-69395750D01*
X165772203Y-69374926D01*
X165769053Y-69353691D01*
X165768000Y-69332250D01*
X165768000Y-68894750D01*
X165769053Y-68873309D01*
X165772203Y-68852074D01*
X165777419Y-68831250D01*
X165784651Y-68811038D01*
X165793830Y-68791632D01*
X165804866Y-68773219D01*
X165817654Y-68755976D01*
X165832070Y-68740070D01*
X165847976Y-68725654D01*
X165865219Y-68712866D01*
X165883632Y-68701830D01*
X165903038Y-68692651D01*
X165923250Y-68685419D01*
X165944074Y-68680203D01*
X165965309Y-68677053D01*
X165986750Y-68676000D01*
X166499250Y-68676000D01*
X166520691Y-68677053D01*
X166520691Y-68677053D01*
G37*
D16*
X166243000Y-69113500D03*
D10*
G36*
X166520691Y-67102053D02*
X166541926Y-67105203D01*
X166562750Y-67110419D01*
X166582962Y-67117651D01*
X166602368Y-67126830D01*
X166620781Y-67137866D01*
X166638024Y-67150654D01*
X166653930Y-67165070D01*
X166668346Y-67180976D01*
X166681134Y-67198219D01*
X166692170Y-67216632D01*
X166701349Y-67236038D01*
X166708581Y-67256250D01*
X166713797Y-67277074D01*
X166716947Y-67298309D01*
X166718000Y-67319750D01*
X166718000Y-67757250D01*
X166716947Y-67778691D01*
X166713797Y-67799926D01*
X166708581Y-67820750D01*
X166701349Y-67840962D01*
X166692170Y-67860368D01*
X166681134Y-67878781D01*
X166668346Y-67896024D01*
X166653930Y-67911930D01*
X166638024Y-67926346D01*
X166620781Y-67939134D01*
X166602368Y-67950170D01*
X166582962Y-67959349D01*
X166562750Y-67966581D01*
X166541926Y-67971797D01*
X166520691Y-67974947D01*
X166499250Y-67976000D01*
X165986750Y-67976000D01*
X165965309Y-67974947D01*
X165944074Y-67971797D01*
X165923250Y-67966581D01*
X165903038Y-67959349D01*
X165883632Y-67950170D01*
X165865219Y-67939134D01*
X165847976Y-67926346D01*
X165832070Y-67911930D01*
X165817654Y-67896024D01*
X165804866Y-67878781D01*
X165793830Y-67860368D01*
X165784651Y-67840962D01*
X165777419Y-67820750D01*
X165772203Y-67799926D01*
X165769053Y-67778691D01*
X165768000Y-67757250D01*
X165768000Y-67319750D01*
X165769053Y-67298309D01*
X165772203Y-67277074D01*
X165777419Y-67256250D01*
X165784651Y-67236038D01*
X165793830Y-67216632D01*
X165804866Y-67198219D01*
X165817654Y-67180976D01*
X165832070Y-67165070D01*
X165847976Y-67150654D01*
X165865219Y-67137866D01*
X165883632Y-67126830D01*
X165903038Y-67117651D01*
X165923250Y-67110419D01*
X165944074Y-67105203D01*
X165965309Y-67102053D01*
X165986750Y-67101000D01*
X166499250Y-67101000D01*
X166520691Y-67102053D01*
X166520691Y-67102053D01*
G37*
D16*
X166243000Y-67538500D03*
G04 #@! TD*
D10*
G04 #@! TO.C,R619*
G36*
X164913328Y-82584678D02*
X164934563Y-82587828D01*
X164955387Y-82593044D01*
X164975599Y-82600276D01*
X164995005Y-82609455D01*
X165013418Y-82620491D01*
X165030661Y-82633279D01*
X165046567Y-82647695D01*
X165060983Y-82663601D01*
X165073771Y-82680844D01*
X165084807Y-82699257D01*
X165093986Y-82718663D01*
X165101218Y-82738875D01*
X165106434Y-82759699D01*
X165109584Y-82780934D01*
X165110637Y-82802375D01*
X165110637Y-83239875D01*
X165109584Y-83261316D01*
X165106434Y-83282551D01*
X165101218Y-83303375D01*
X165093986Y-83323587D01*
X165084807Y-83342993D01*
X165073771Y-83361406D01*
X165060983Y-83378649D01*
X165046567Y-83394555D01*
X165030661Y-83408971D01*
X165013418Y-83421759D01*
X164995005Y-83432795D01*
X164975599Y-83441974D01*
X164955387Y-83449206D01*
X164934563Y-83454422D01*
X164913328Y-83457572D01*
X164891887Y-83458625D01*
X164379387Y-83458625D01*
X164357946Y-83457572D01*
X164336711Y-83454422D01*
X164315887Y-83449206D01*
X164295675Y-83441974D01*
X164276269Y-83432795D01*
X164257856Y-83421759D01*
X164240613Y-83408971D01*
X164224707Y-83394555D01*
X164210291Y-83378649D01*
X164197503Y-83361406D01*
X164186467Y-83342993D01*
X164177288Y-83323587D01*
X164170056Y-83303375D01*
X164164840Y-83282551D01*
X164161690Y-83261316D01*
X164160637Y-83239875D01*
X164160637Y-82802375D01*
X164161690Y-82780934D01*
X164164840Y-82759699D01*
X164170056Y-82738875D01*
X164177288Y-82718663D01*
X164186467Y-82699257D01*
X164197503Y-82680844D01*
X164210291Y-82663601D01*
X164224707Y-82647695D01*
X164240613Y-82633279D01*
X164257856Y-82620491D01*
X164276269Y-82609455D01*
X164295675Y-82600276D01*
X164315887Y-82593044D01*
X164336711Y-82587828D01*
X164357946Y-82584678D01*
X164379387Y-82583625D01*
X164891887Y-82583625D01*
X164913328Y-82584678D01*
X164913328Y-82584678D01*
G37*
D16*
X164635637Y-83021125D03*
D10*
G36*
X164913328Y-81009678D02*
X164934563Y-81012828D01*
X164955387Y-81018044D01*
X164975599Y-81025276D01*
X164995005Y-81034455D01*
X165013418Y-81045491D01*
X165030661Y-81058279D01*
X165046567Y-81072695D01*
X165060983Y-81088601D01*
X165073771Y-81105844D01*
X165084807Y-81124257D01*
X165093986Y-81143663D01*
X165101218Y-81163875D01*
X165106434Y-81184699D01*
X165109584Y-81205934D01*
X165110637Y-81227375D01*
X165110637Y-81664875D01*
X165109584Y-81686316D01*
X165106434Y-81707551D01*
X165101218Y-81728375D01*
X165093986Y-81748587D01*
X165084807Y-81767993D01*
X165073771Y-81786406D01*
X165060983Y-81803649D01*
X165046567Y-81819555D01*
X165030661Y-81833971D01*
X165013418Y-81846759D01*
X164995005Y-81857795D01*
X164975599Y-81866974D01*
X164955387Y-81874206D01*
X164934563Y-81879422D01*
X164913328Y-81882572D01*
X164891887Y-81883625D01*
X164379387Y-81883625D01*
X164357946Y-81882572D01*
X164336711Y-81879422D01*
X164315887Y-81874206D01*
X164295675Y-81866974D01*
X164276269Y-81857795D01*
X164257856Y-81846759D01*
X164240613Y-81833971D01*
X164224707Y-81819555D01*
X164210291Y-81803649D01*
X164197503Y-81786406D01*
X164186467Y-81767993D01*
X164177288Y-81748587D01*
X164170056Y-81728375D01*
X164164840Y-81707551D01*
X164161690Y-81686316D01*
X164160637Y-81664875D01*
X164160637Y-81227375D01*
X164161690Y-81205934D01*
X164164840Y-81184699D01*
X164170056Y-81163875D01*
X164177288Y-81143663D01*
X164186467Y-81124257D01*
X164197503Y-81105844D01*
X164210291Y-81088601D01*
X164224707Y-81072695D01*
X164240613Y-81058279D01*
X164257856Y-81045491D01*
X164276269Y-81034455D01*
X164295675Y-81025276D01*
X164315887Y-81018044D01*
X164336711Y-81012828D01*
X164357946Y-81009678D01*
X164379387Y-81008625D01*
X164891887Y-81008625D01*
X164913328Y-81009678D01*
X164913328Y-81009678D01*
G37*
D16*
X164635637Y-81446125D03*
G04 #@! TD*
D10*
G04 #@! TO.C,R610*
G36*
X170838691Y-78278053D02*
X170859926Y-78281203D01*
X170880750Y-78286419D01*
X170900962Y-78293651D01*
X170920368Y-78302830D01*
X170938781Y-78313866D01*
X170956024Y-78326654D01*
X170971930Y-78341070D01*
X170986346Y-78356976D01*
X170999134Y-78374219D01*
X171010170Y-78392632D01*
X171019349Y-78412038D01*
X171026581Y-78432250D01*
X171031797Y-78453074D01*
X171034947Y-78474309D01*
X171036000Y-78495750D01*
X171036000Y-78933250D01*
X171034947Y-78954691D01*
X171031797Y-78975926D01*
X171026581Y-78996750D01*
X171019349Y-79016962D01*
X171010170Y-79036368D01*
X170999134Y-79054781D01*
X170986346Y-79072024D01*
X170971930Y-79087930D01*
X170956024Y-79102346D01*
X170938781Y-79115134D01*
X170920368Y-79126170D01*
X170900962Y-79135349D01*
X170880750Y-79142581D01*
X170859926Y-79147797D01*
X170838691Y-79150947D01*
X170817250Y-79152000D01*
X170304750Y-79152000D01*
X170283309Y-79150947D01*
X170262074Y-79147797D01*
X170241250Y-79142581D01*
X170221038Y-79135349D01*
X170201632Y-79126170D01*
X170183219Y-79115134D01*
X170165976Y-79102346D01*
X170150070Y-79087930D01*
X170135654Y-79072024D01*
X170122866Y-79054781D01*
X170111830Y-79036368D01*
X170102651Y-79016962D01*
X170095419Y-78996750D01*
X170090203Y-78975926D01*
X170087053Y-78954691D01*
X170086000Y-78933250D01*
X170086000Y-78495750D01*
X170087053Y-78474309D01*
X170090203Y-78453074D01*
X170095419Y-78432250D01*
X170102651Y-78412038D01*
X170111830Y-78392632D01*
X170122866Y-78374219D01*
X170135654Y-78356976D01*
X170150070Y-78341070D01*
X170165976Y-78326654D01*
X170183219Y-78313866D01*
X170201632Y-78302830D01*
X170221038Y-78293651D01*
X170241250Y-78286419D01*
X170262074Y-78281203D01*
X170283309Y-78278053D01*
X170304750Y-78277000D01*
X170817250Y-78277000D01*
X170838691Y-78278053D01*
X170838691Y-78278053D01*
G37*
D16*
X170561000Y-78714500D03*
D10*
G36*
X170838691Y-79853053D02*
X170859926Y-79856203D01*
X170880750Y-79861419D01*
X170900962Y-79868651D01*
X170920368Y-79877830D01*
X170938781Y-79888866D01*
X170956024Y-79901654D01*
X170971930Y-79916070D01*
X170986346Y-79931976D01*
X170999134Y-79949219D01*
X171010170Y-79967632D01*
X171019349Y-79987038D01*
X171026581Y-80007250D01*
X171031797Y-80028074D01*
X171034947Y-80049309D01*
X171036000Y-80070750D01*
X171036000Y-80508250D01*
X171034947Y-80529691D01*
X171031797Y-80550926D01*
X171026581Y-80571750D01*
X171019349Y-80591962D01*
X171010170Y-80611368D01*
X170999134Y-80629781D01*
X170986346Y-80647024D01*
X170971930Y-80662930D01*
X170956024Y-80677346D01*
X170938781Y-80690134D01*
X170920368Y-80701170D01*
X170900962Y-80710349D01*
X170880750Y-80717581D01*
X170859926Y-80722797D01*
X170838691Y-80725947D01*
X170817250Y-80727000D01*
X170304750Y-80727000D01*
X170283309Y-80725947D01*
X170262074Y-80722797D01*
X170241250Y-80717581D01*
X170221038Y-80710349D01*
X170201632Y-80701170D01*
X170183219Y-80690134D01*
X170165976Y-80677346D01*
X170150070Y-80662930D01*
X170135654Y-80647024D01*
X170122866Y-80629781D01*
X170111830Y-80611368D01*
X170102651Y-80591962D01*
X170095419Y-80571750D01*
X170090203Y-80550926D01*
X170087053Y-80529691D01*
X170086000Y-80508250D01*
X170086000Y-80070750D01*
X170087053Y-80049309D01*
X170090203Y-80028074D01*
X170095419Y-80007250D01*
X170102651Y-79987038D01*
X170111830Y-79967632D01*
X170122866Y-79949219D01*
X170135654Y-79931976D01*
X170150070Y-79916070D01*
X170165976Y-79901654D01*
X170183219Y-79888866D01*
X170201632Y-79877830D01*
X170221038Y-79868651D01*
X170241250Y-79861419D01*
X170262074Y-79856203D01*
X170283309Y-79853053D01*
X170304750Y-79852000D01*
X170817250Y-79852000D01*
X170838691Y-79853053D01*
X170838691Y-79853053D01*
G37*
D16*
X170561000Y-80289500D03*
G04 #@! TD*
D10*
G04 #@! TO.C,R604*
G36*
X166266691Y-60828553D02*
X166287926Y-60831703D01*
X166308750Y-60836919D01*
X166328962Y-60844151D01*
X166348368Y-60853330D01*
X166366781Y-60864366D01*
X166384024Y-60877154D01*
X166399930Y-60891570D01*
X166414346Y-60907476D01*
X166427134Y-60924719D01*
X166438170Y-60943132D01*
X166447349Y-60962538D01*
X166454581Y-60982750D01*
X166459797Y-61003574D01*
X166462947Y-61024809D01*
X166464000Y-61046250D01*
X166464000Y-61483750D01*
X166462947Y-61505191D01*
X166459797Y-61526426D01*
X166454581Y-61547250D01*
X166447349Y-61567462D01*
X166438170Y-61586868D01*
X166427134Y-61605281D01*
X166414346Y-61622524D01*
X166399930Y-61638430D01*
X166384024Y-61652846D01*
X166366781Y-61665634D01*
X166348368Y-61676670D01*
X166328962Y-61685849D01*
X166308750Y-61693081D01*
X166287926Y-61698297D01*
X166266691Y-61701447D01*
X166245250Y-61702500D01*
X165732750Y-61702500D01*
X165711309Y-61701447D01*
X165690074Y-61698297D01*
X165669250Y-61693081D01*
X165649038Y-61685849D01*
X165629632Y-61676670D01*
X165611219Y-61665634D01*
X165593976Y-61652846D01*
X165578070Y-61638430D01*
X165563654Y-61622524D01*
X165550866Y-61605281D01*
X165539830Y-61586868D01*
X165530651Y-61567462D01*
X165523419Y-61547250D01*
X165518203Y-61526426D01*
X165515053Y-61505191D01*
X165514000Y-61483750D01*
X165514000Y-61046250D01*
X165515053Y-61024809D01*
X165518203Y-61003574D01*
X165523419Y-60982750D01*
X165530651Y-60962538D01*
X165539830Y-60943132D01*
X165550866Y-60924719D01*
X165563654Y-60907476D01*
X165578070Y-60891570D01*
X165593976Y-60877154D01*
X165611219Y-60864366D01*
X165629632Y-60853330D01*
X165649038Y-60844151D01*
X165669250Y-60836919D01*
X165690074Y-60831703D01*
X165711309Y-60828553D01*
X165732750Y-60827500D01*
X166245250Y-60827500D01*
X166266691Y-60828553D01*
X166266691Y-60828553D01*
G37*
D16*
X165989000Y-61265000D03*
D10*
G36*
X166266691Y-59253553D02*
X166287926Y-59256703D01*
X166308750Y-59261919D01*
X166328962Y-59269151D01*
X166348368Y-59278330D01*
X166366781Y-59289366D01*
X166384024Y-59302154D01*
X166399930Y-59316570D01*
X166414346Y-59332476D01*
X166427134Y-59349719D01*
X166438170Y-59368132D01*
X166447349Y-59387538D01*
X166454581Y-59407750D01*
X166459797Y-59428574D01*
X166462947Y-59449809D01*
X166464000Y-59471250D01*
X166464000Y-59908750D01*
X166462947Y-59930191D01*
X166459797Y-59951426D01*
X166454581Y-59972250D01*
X166447349Y-59992462D01*
X166438170Y-60011868D01*
X166427134Y-60030281D01*
X166414346Y-60047524D01*
X166399930Y-60063430D01*
X166384024Y-60077846D01*
X166366781Y-60090634D01*
X166348368Y-60101670D01*
X166328962Y-60110849D01*
X166308750Y-60118081D01*
X166287926Y-60123297D01*
X166266691Y-60126447D01*
X166245250Y-60127500D01*
X165732750Y-60127500D01*
X165711309Y-60126447D01*
X165690074Y-60123297D01*
X165669250Y-60118081D01*
X165649038Y-60110849D01*
X165629632Y-60101670D01*
X165611219Y-60090634D01*
X165593976Y-60077846D01*
X165578070Y-60063430D01*
X165563654Y-60047524D01*
X165550866Y-60030281D01*
X165539830Y-60011868D01*
X165530651Y-59992462D01*
X165523419Y-59972250D01*
X165518203Y-59951426D01*
X165515053Y-59930191D01*
X165514000Y-59908750D01*
X165514000Y-59471250D01*
X165515053Y-59449809D01*
X165518203Y-59428574D01*
X165523419Y-59407750D01*
X165530651Y-59387538D01*
X165539830Y-59368132D01*
X165550866Y-59349719D01*
X165563654Y-59332476D01*
X165578070Y-59316570D01*
X165593976Y-59302154D01*
X165611219Y-59289366D01*
X165629632Y-59278330D01*
X165649038Y-59269151D01*
X165669250Y-59261919D01*
X165690074Y-59256703D01*
X165711309Y-59253553D01*
X165732750Y-59252500D01*
X166245250Y-59252500D01*
X166266691Y-59253553D01*
X166266691Y-59253553D01*
G37*
D16*
X165989000Y-59690000D03*
G04 #@! TD*
D15*
G04 #@! TO.C,D603*
X161951226Y-58994456D03*
X162851226Y-58994456D03*
X163751226Y-58994456D03*
X163751226Y-56044456D03*
X162851226Y-56044456D03*
X161951226Y-56044456D03*
G04 #@! TD*
D10*
G04 #@! TO.C,R621*
G36*
X159371191Y-71916053D02*
X159392426Y-71919203D01*
X159413250Y-71924419D01*
X159433462Y-71931651D01*
X159452868Y-71940830D01*
X159471281Y-71951866D01*
X159488524Y-71964654D01*
X159504430Y-71979070D01*
X159518846Y-71994976D01*
X159531634Y-72012219D01*
X159542670Y-72030632D01*
X159551849Y-72050038D01*
X159559081Y-72070250D01*
X159564297Y-72091074D01*
X159567447Y-72112309D01*
X159568500Y-72133750D01*
X159568500Y-72646250D01*
X159567447Y-72667691D01*
X159564297Y-72688926D01*
X159559081Y-72709750D01*
X159551849Y-72729962D01*
X159542670Y-72749368D01*
X159531634Y-72767781D01*
X159518846Y-72785024D01*
X159504430Y-72800930D01*
X159488524Y-72815346D01*
X159471281Y-72828134D01*
X159452868Y-72839170D01*
X159433462Y-72848349D01*
X159413250Y-72855581D01*
X159392426Y-72860797D01*
X159371191Y-72863947D01*
X159349750Y-72865000D01*
X158912250Y-72865000D01*
X158890809Y-72863947D01*
X158869574Y-72860797D01*
X158848750Y-72855581D01*
X158828538Y-72848349D01*
X158809132Y-72839170D01*
X158790719Y-72828134D01*
X158773476Y-72815346D01*
X158757570Y-72800930D01*
X158743154Y-72785024D01*
X158730366Y-72767781D01*
X158719330Y-72749368D01*
X158710151Y-72729962D01*
X158702919Y-72709750D01*
X158697703Y-72688926D01*
X158694553Y-72667691D01*
X158693500Y-72646250D01*
X158693500Y-72133750D01*
X158694553Y-72112309D01*
X158697703Y-72091074D01*
X158702919Y-72070250D01*
X158710151Y-72050038D01*
X158719330Y-72030632D01*
X158730366Y-72012219D01*
X158743154Y-71994976D01*
X158757570Y-71979070D01*
X158773476Y-71964654D01*
X158790719Y-71951866D01*
X158809132Y-71940830D01*
X158828538Y-71931651D01*
X158848750Y-71924419D01*
X158869574Y-71919203D01*
X158890809Y-71916053D01*
X158912250Y-71915000D01*
X159349750Y-71915000D01*
X159371191Y-71916053D01*
X159371191Y-71916053D01*
G37*
D16*
X159131000Y-72390000D03*
D10*
G36*
X157796191Y-71916053D02*
X157817426Y-71919203D01*
X157838250Y-71924419D01*
X157858462Y-71931651D01*
X157877868Y-71940830D01*
X157896281Y-71951866D01*
X157913524Y-71964654D01*
X157929430Y-71979070D01*
X157943846Y-71994976D01*
X157956634Y-72012219D01*
X157967670Y-72030632D01*
X157976849Y-72050038D01*
X157984081Y-72070250D01*
X157989297Y-72091074D01*
X157992447Y-72112309D01*
X157993500Y-72133750D01*
X157993500Y-72646250D01*
X157992447Y-72667691D01*
X157989297Y-72688926D01*
X157984081Y-72709750D01*
X157976849Y-72729962D01*
X157967670Y-72749368D01*
X157956634Y-72767781D01*
X157943846Y-72785024D01*
X157929430Y-72800930D01*
X157913524Y-72815346D01*
X157896281Y-72828134D01*
X157877868Y-72839170D01*
X157858462Y-72848349D01*
X157838250Y-72855581D01*
X157817426Y-72860797D01*
X157796191Y-72863947D01*
X157774750Y-72865000D01*
X157337250Y-72865000D01*
X157315809Y-72863947D01*
X157294574Y-72860797D01*
X157273750Y-72855581D01*
X157253538Y-72848349D01*
X157234132Y-72839170D01*
X157215719Y-72828134D01*
X157198476Y-72815346D01*
X157182570Y-72800930D01*
X157168154Y-72785024D01*
X157155366Y-72767781D01*
X157144330Y-72749368D01*
X157135151Y-72729962D01*
X157127919Y-72709750D01*
X157122703Y-72688926D01*
X157119553Y-72667691D01*
X157118500Y-72646250D01*
X157118500Y-72133750D01*
X157119553Y-72112309D01*
X157122703Y-72091074D01*
X157127919Y-72070250D01*
X157135151Y-72050038D01*
X157144330Y-72030632D01*
X157155366Y-72012219D01*
X157168154Y-71994976D01*
X157182570Y-71979070D01*
X157198476Y-71964654D01*
X157215719Y-71951866D01*
X157234132Y-71940830D01*
X157253538Y-71931651D01*
X157273750Y-71924419D01*
X157294574Y-71919203D01*
X157315809Y-71916053D01*
X157337250Y-71915000D01*
X157774750Y-71915000D01*
X157796191Y-71916053D01*
X157796191Y-71916053D01*
G37*
D16*
X157556000Y-72390000D03*
G04 #@! TD*
D10*
G04 #@! TO.C,R623*
G36*
X164652917Y-61121509D02*
X164674152Y-61124659D01*
X164694976Y-61129875D01*
X164715188Y-61137107D01*
X164734594Y-61146286D01*
X164753007Y-61157322D01*
X164770250Y-61170110D01*
X164786156Y-61184526D01*
X164800572Y-61200432D01*
X164813360Y-61217675D01*
X164824396Y-61236088D01*
X164833575Y-61255494D01*
X164840807Y-61275706D01*
X164846023Y-61296530D01*
X164849173Y-61317765D01*
X164850226Y-61339206D01*
X164850226Y-61776706D01*
X164849173Y-61798147D01*
X164846023Y-61819382D01*
X164840807Y-61840206D01*
X164833575Y-61860418D01*
X164824396Y-61879824D01*
X164813360Y-61898237D01*
X164800572Y-61915480D01*
X164786156Y-61931386D01*
X164770250Y-61945802D01*
X164753007Y-61958590D01*
X164734594Y-61969626D01*
X164715188Y-61978805D01*
X164694976Y-61986037D01*
X164674152Y-61991253D01*
X164652917Y-61994403D01*
X164631476Y-61995456D01*
X164118976Y-61995456D01*
X164097535Y-61994403D01*
X164076300Y-61991253D01*
X164055476Y-61986037D01*
X164035264Y-61978805D01*
X164015858Y-61969626D01*
X163997445Y-61958590D01*
X163980202Y-61945802D01*
X163964296Y-61931386D01*
X163949880Y-61915480D01*
X163937092Y-61898237D01*
X163926056Y-61879824D01*
X163916877Y-61860418D01*
X163909645Y-61840206D01*
X163904429Y-61819382D01*
X163901279Y-61798147D01*
X163900226Y-61776706D01*
X163900226Y-61339206D01*
X163901279Y-61317765D01*
X163904429Y-61296530D01*
X163909645Y-61275706D01*
X163916877Y-61255494D01*
X163926056Y-61236088D01*
X163937092Y-61217675D01*
X163949880Y-61200432D01*
X163964296Y-61184526D01*
X163980202Y-61170110D01*
X163997445Y-61157322D01*
X164015858Y-61146286D01*
X164035264Y-61137107D01*
X164055476Y-61129875D01*
X164076300Y-61124659D01*
X164097535Y-61121509D01*
X164118976Y-61120456D01*
X164631476Y-61120456D01*
X164652917Y-61121509D01*
X164652917Y-61121509D01*
G37*
D16*
X164375226Y-61557956D03*
D10*
G36*
X164652917Y-62696509D02*
X164674152Y-62699659D01*
X164694976Y-62704875D01*
X164715188Y-62712107D01*
X164734594Y-62721286D01*
X164753007Y-62732322D01*
X164770250Y-62745110D01*
X164786156Y-62759526D01*
X164800572Y-62775432D01*
X164813360Y-62792675D01*
X164824396Y-62811088D01*
X164833575Y-62830494D01*
X164840807Y-62850706D01*
X164846023Y-62871530D01*
X164849173Y-62892765D01*
X164850226Y-62914206D01*
X164850226Y-63351706D01*
X164849173Y-63373147D01*
X164846023Y-63394382D01*
X164840807Y-63415206D01*
X164833575Y-63435418D01*
X164824396Y-63454824D01*
X164813360Y-63473237D01*
X164800572Y-63490480D01*
X164786156Y-63506386D01*
X164770250Y-63520802D01*
X164753007Y-63533590D01*
X164734594Y-63544626D01*
X164715188Y-63553805D01*
X164694976Y-63561037D01*
X164674152Y-63566253D01*
X164652917Y-63569403D01*
X164631476Y-63570456D01*
X164118976Y-63570456D01*
X164097535Y-63569403D01*
X164076300Y-63566253D01*
X164055476Y-63561037D01*
X164035264Y-63553805D01*
X164015858Y-63544626D01*
X163997445Y-63533590D01*
X163980202Y-63520802D01*
X163964296Y-63506386D01*
X163949880Y-63490480D01*
X163937092Y-63473237D01*
X163926056Y-63454824D01*
X163916877Y-63435418D01*
X163909645Y-63415206D01*
X163904429Y-63394382D01*
X163901279Y-63373147D01*
X163900226Y-63351706D01*
X163900226Y-62914206D01*
X163901279Y-62892765D01*
X163904429Y-62871530D01*
X163909645Y-62850706D01*
X163916877Y-62830494D01*
X163926056Y-62811088D01*
X163937092Y-62792675D01*
X163949880Y-62775432D01*
X163964296Y-62759526D01*
X163980202Y-62745110D01*
X163997445Y-62732322D01*
X164015858Y-62721286D01*
X164035264Y-62712107D01*
X164055476Y-62704875D01*
X164076300Y-62699659D01*
X164097535Y-62696509D01*
X164118976Y-62695456D01*
X164631476Y-62695456D01*
X164652917Y-62696509D01*
X164652917Y-62696509D01*
G37*
D16*
X164375226Y-63132956D03*
G04 #@! TD*
D10*
G04 #@! TO.C,R607*
G36*
X168298691Y-62022053D02*
X168319926Y-62025203D01*
X168340750Y-62030419D01*
X168360962Y-62037651D01*
X168380368Y-62046830D01*
X168398781Y-62057866D01*
X168416024Y-62070654D01*
X168431930Y-62085070D01*
X168446346Y-62100976D01*
X168459134Y-62118219D01*
X168470170Y-62136632D01*
X168479349Y-62156038D01*
X168486581Y-62176250D01*
X168491797Y-62197074D01*
X168494947Y-62218309D01*
X168496000Y-62239750D01*
X168496000Y-62677250D01*
X168494947Y-62698691D01*
X168491797Y-62719926D01*
X168486581Y-62740750D01*
X168479349Y-62760962D01*
X168470170Y-62780368D01*
X168459134Y-62798781D01*
X168446346Y-62816024D01*
X168431930Y-62831930D01*
X168416024Y-62846346D01*
X168398781Y-62859134D01*
X168380368Y-62870170D01*
X168360962Y-62879349D01*
X168340750Y-62886581D01*
X168319926Y-62891797D01*
X168298691Y-62894947D01*
X168277250Y-62896000D01*
X167764750Y-62896000D01*
X167743309Y-62894947D01*
X167722074Y-62891797D01*
X167701250Y-62886581D01*
X167681038Y-62879349D01*
X167661632Y-62870170D01*
X167643219Y-62859134D01*
X167625976Y-62846346D01*
X167610070Y-62831930D01*
X167595654Y-62816024D01*
X167582866Y-62798781D01*
X167571830Y-62780368D01*
X167562651Y-62760962D01*
X167555419Y-62740750D01*
X167550203Y-62719926D01*
X167547053Y-62698691D01*
X167546000Y-62677250D01*
X167546000Y-62239750D01*
X167547053Y-62218309D01*
X167550203Y-62197074D01*
X167555419Y-62176250D01*
X167562651Y-62156038D01*
X167571830Y-62136632D01*
X167582866Y-62118219D01*
X167595654Y-62100976D01*
X167610070Y-62085070D01*
X167625976Y-62070654D01*
X167643219Y-62057866D01*
X167661632Y-62046830D01*
X167681038Y-62037651D01*
X167701250Y-62030419D01*
X167722074Y-62025203D01*
X167743309Y-62022053D01*
X167764750Y-62021000D01*
X168277250Y-62021000D01*
X168298691Y-62022053D01*
X168298691Y-62022053D01*
G37*
D16*
X168021000Y-62458500D03*
D10*
G36*
X168298691Y-63597053D02*
X168319926Y-63600203D01*
X168340750Y-63605419D01*
X168360962Y-63612651D01*
X168380368Y-63621830D01*
X168398781Y-63632866D01*
X168416024Y-63645654D01*
X168431930Y-63660070D01*
X168446346Y-63675976D01*
X168459134Y-63693219D01*
X168470170Y-63711632D01*
X168479349Y-63731038D01*
X168486581Y-63751250D01*
X168491797Y-63772074D01*
X168494947Y-63793309D01*
X168496000Y-63814750D01*
X168496000Y-64252250D01*
X168494947Y-64273691D01*
X168491797Y-64294926D01*
X168486581Y-64315750D01*
X168479349Y-64335962D01*
X168470170Y-64355368D01*
X168459134Y-64373781D01*
X168446346Y-64391024D01*
X168431930Y-64406930D01*
X168416024Y-64421346D01*
X168398781Y-64434134D01*
X168380368Y-64445170D01*
X168360962Y-64454349D01*
X168340750Y-64461581D01*
X168319926Y-64466797D01*
X168298691Y-64469947D01*
X168277250Y-64471000D01*
X167764750Y-64471000D01*
X167743309Y-64469947D01*
X167722074Y-64466797D01*
X167701250Y-64461581D01*
X167681038Y-64454349D01*
X167661632Y-64445170D01*
X167643219Y-64434134D01*
X167625976Y-64421346D01*
X167610070Y-64406930D01*
X167595654Y-64391024D01*
X167582866Y-64373781D01*
X167571830Y-64355368D01*
X167562651Y-64335962D01*
X167555419Y-64315750D01*
X167550203Y-64294926D01*
X167547053Y-64273691D01*
X167546000Y-64252250D01*
X167546000Y-63814750D01*
X167547053Y-63793309D01*
X167550203Y-63772074D01*
X167555419Y-63751250D01*
X167562651Y-63731038D01*
X167571830Y-63711632D01*
X167582866Y-63693219D01*
X167595654Y-63675976D01*
X167610070Y-63660070D01*
X167625976Y-63645654D01*
X167643219Y-63632866D01*
X167661632Y-63621830D01*
X167681038Y-63612651D01*
X167701250Y-63605419D01*
X167722074Y-63600203D01*
X167743309Y-63597053D01*
X167764750Y-63596000D01*
X168277250Y-63596000D01*
X168298691Y-63597053D01*
X168298691Y-63597053D01*
G37*
D16*
X168021000Y-64033500D03*
G04 #@! TD*
D10*
G04 #@! TO.C,R620*
G36*
X163128917Y-61121509D02*
X163150152Y-61124659D01*
X163170976Y-61129875D01*
X163191188Y-61137107D01*
X163210594Y-61146286D01*
X163229007Y-61157322D01*
X163246250Y-61170110D01*
X163262156Y-61184526D01*
X163276572Y-61200432D01*
X163289360Y-61217675D01*
X163300396Y-61236088D01*
X163309575Y-61255494D01*
X163316807Y-61275706D01*
X163322023Y-61296530D01*
X163325173Y-61317765D01*
X163326226Y-61339206D01*
X163326226Y-61776706D01*
X163325173Y-61798147D01*
X163322023Y-61819382D01*
X163316807Y-61840206D01*
X163309575Y-61860418D01*
X163300396Y-61879824D01*
X163289360Y-61898237D01*
X163276572Y-61915480D01*
X163262156Y-61931386D01*
X163246250Y-61945802D01*
X163229007Y-61958590D01*
X163210594Y-61969626D01*
X163191188Y-61978805D01*
X163170976Y-61986037D01*
X163150152Y-61991253D01*
X163128917Y-61994403D01*
X163107476Y-61995456D01*
X162594976Y-61995456D01*
X162573535Y-61994403D01*
X162552300Y-61991253D01*
X162531476Y-61986037D01*
X162511264Y-61978805D01*
X162491858Y-61969626D01*
X162473445Y-61958590D01*
X162456202Y-61945802D01*
X162440296Y-61931386D01*
X162425880Y-61915480D01*
X162413092Y-61898237D01*
X162402056Y-61879824D01*
X162392877Y-61860418D01*
X162385645Y-61840206D01*
X162380429Y-61819382D01*
X162377279Y-61798147D01*
X162376226Y-61776706D01*
X162376226Y-61339206D01*
X162377279Y-61317765D01*
X162380429Y-61296530D01*
X162385645Y-61275706D01*
X162392877Y-61255494D01*
X162402056Y-61236088D01*
X162413092Y-61217675D01*
X162425880Y-61200432D01*
X162440296Y-61184526D01*
X162456202Y-61170110D01*
X162473445Y-61157322D01*
X162491858Y-61146286D01*
X162511264Y-61137107D01*
X162531476Y-61129875D01*
X162552300Y-61124659D01*
X162573535Y-61121509D01*
X162594976Y-61120456D01*
X163107476Y-61120456D01*
X163128917Y-61121509D01*
X163128917Y-61121509D01*
G37*
D16*
X162851226Y-61557956D03*
D10*
G36*
X163128917Y-62696509D02*
X163150152Y-62699659D01*
X163170976Y-62704875D01*
X163191188Y-62712107D01*
X163210594Y-62721286D01*
X163229007Y-62732322D01*
X163246250Y-62745110D01*
X163262156Y-62759526D01*
X163276572Y-62775432D01*
X163289360Y-62792675D01*
X163300396Y-62811088D01*
X163309575Y-62830494D01*
X163316807Y-62850706D01*
X163322023Y-62871530D01*
X163325173Y-62892765D01*
X163326226Y-62914206D01*
X163326226Y-63351706D01*
X163325173Y-63373147D01*
X163322023Y-63394382D01*
X163316807Y-63415206D01*
X163309575Y-63435418D01*
X163300396Y-63454824D01*
X163289360Y-63473237D01*
X163276572Y-63490480D01*
X163262156Y-63506386D01*
X163246250Y-63520802D01*
X163229007Y-63533590D01*
X163210594Y-63544626D01*
X163191188Y-63553805D01*
X163170976Y-63561037D01*
X163150152Y-63566253D01*
X163128917Y-63569403D01*
X163107476Y-63570456D01*
X162594976Y-63570456D01*
X162573535Y-63569403D01*
X162552300Y-63566253D01*
X162531476Y-63561037D01*
X162511264Y-63553805D01*
X162491858Y-63544626D01*
X162473445Y-63533590D01*
X162456202Y-63520802D01*
X162440296Y-63506386D01*
X162425880Y-63490480D01*
X162413092Y-63473237D01*
X162402056Y-63454824D01*
X162392877Y-63435418D01*
X162385645Y-63415206D01*
X162380429Y-63394382D01*
X162377279Y-63373147D01*
X162376226Y-63351706D01*
X162376226Y-62914206D01*
X162377279Y-62892765D01*
X162380429Y-62871530D01*
X162385645Y-62850706D01*
X162392877Y-62830494D01*
X162402056Y-62811088D01*
X162413092Y-62792675D01*
X162425880Y-62775432D01*
X162440296Y-62759526D01*
X162456202Y-62745110D01*
X162473445Y-62732322D01*
X162491858Y-62721286D01*
X162511264Y-62712107D01*
X162531476Y-62704875D01*
X162552300Y-62699659D01*
X162573535Y-62696509D01*
X162594976Y-62695456D01*
X163107476Y-62695456D01*
X163128917Y-62696509D01*
X163128917Y-62696509D01*
G37*
D16*
X162851226Y-63132956D03*
G04 #@! TD*
D10*
G04 #@! TO.C,R622*
G36*
X163389328Y-82584678D02*
X163410563Y-82587828D01*
X163431387Y-82593044D01*
X163451599Y-82600276D01*
X163471005Y-82609455D01*
X163489418Y-82620491D01*
X163506661Y-82633279D01*
X163522567Y-82647695D01*
X163536983Y-82663601D01*
X163549771Y-82680844D01*
X163560807Y-82699257D01*
X163569986Y-82718663D01*
X163577218Y-82738875D01*
X163582434Y-82759699D01*
X163585584Y-82780934D01*
X163586637Y-82802375D01*
X163586637Y-83239875D01*
X163585584Y-83261316D01*
X163582434Y-83282551D01*
X163577218Y-83303375D01*
X163569986Y-83323587D01*
X163560807Y-83342993D01*
X163549771Y-83361406D01*
X163536983Y-83378649D01*
X163522567Y-83394555D01*
X163506661Y-83408971D01*
X163489418Y-83421759D01*
X163471005Y-83432795D01*
X163451599Y-83441974D01*
X163431387Y-83449206D01*
X163410563Y-83454422D01*
X163389328Y-83457572D01*
X163367887Y-83458625D01*
X162855387Y-83458625D01*
X162833946Y-83457572D01*
X162812711Y-83454422D01*
X162791887Y-83449206D01*
X162771675Y-83441974D01*
X162752269Y-83432795D01*
X162733856Y-83421759D01*
X162716613Y-83408971D01*
X162700707Y-83394555D01*
X162686291Y-83378649D01*
X162673503Y-83361406D01*
X162662467Y-83342993D01*
X162653288Y-83323587D01*
X162646056Y-83303375D01*
X162640840Y-83282551D01*
X162637690Y-83261316D01*
X162636637Y-83239875D01*
X162636637Y-82802375D01*
X162637690Y-82780934D01*
X162640840Y-82759699D01*
X162646056Y-82738875D01*
X162653288Y-82718663D01*
X162662467Y-82699257D01*
X162673503Y-82680844D01*
X162686291Y-82663601D01*
X162700707Y-82647695D01*
X162716613Y-82633279D01*
X162733856Y-82620491D01*
X162752269Y-82609455D01*
X162771675Y-82600276D01*
X162791887Y-82593044D01*
X162812711Y-82587828D01*
X162833946Y-82584678D01*
X162855387Y-82583625D01*
X163367887Y-82583625D01*
X163389328Y-82584678D01*
X163389328Y-82584678D01*
G37*
D16*
X163111637Y-83021125D03*
D10*
G36*
X163389328Y-81009678D02*
X163410563Y-81012828D01*
X163431387Y-81018044D01*
X163451599Y-81025276D01*
X163471005Y-81034455D01*
X163489418Y-81045491D01*
X163506661Y-81058279D01*
X163522567Y-81072695D01*
X163536983Y-81088601D01*
X163549771Y-81105844D01*
X163560807Y-81124257D01*
X163569986Y-81143663D01*
X163577218Y-81163875D01*
X163582434Y-81184699D01*
X163585584Y-81205934D01*
X163586637Y-81227375D01*
X163586637Y-81664875D01*
X163585584Y-81686316D01*
X163582434Y-81707551D01*
X163577218Y-81728375D01*
X163569986Y-81748587D01*
X163560807Y-81767993D01*
X163549771Y-81786406D01*
X163536983Y-81803649D01*
X163522567Y-81819555D01*
X163506661Y-81833971D01*
X163489418Y-81846759D01*
X163471005Y-81857795D01*
X163451599Y-81866974D01*
X163431387Y-81874206D01*
X163410563Y-81879422D01*
X163389328Y-81882572D01*
X163367887Y-81883625D01*
X162855387Y-81883625D01*
X162833946Y-81882572D01*
X162812711Y-81879422D01*
X162791887Y-81874206D01*
X162771675Y-81866974D01*
X162752269Y-81857795D01*
X162733856Y-81846759D01*
X162716613Y-81833971D01*
X162700707Y-81819555D01*
X162686291Y-81803649D01*
X162673503Y-81786406D01*
X162662467Y-81767993D01*
X162653288Y-81748587D01*
X162646056Y-81728375D01*
X162640840Y-81707551D01*
X162637690Y-81686316D01*
X162636637Y-81664875D01*
X162636637Y-81227375D01*
X162637690Y-81205934D01*
X162640840Y-81184699D01*
X162646056Y-81163875D01*
X162653288Y-81143663D01*
X162662467Y-81124257D01*
X162673503Y-81105844D01*
X162686291Y-81088601D01*
X162700707Y-81072695D01*
X162716613Y-81058279D01*
X162733856Y-81045491D01*
X162752269Y-81034455D01*
X162771675Y-81025276D01*
X162791887Y-81018044D01*
X162812711Y-81012828D01*
X162833946Y-81009678D01*
X162855387Y-81008625D01*
X163367887Y-81008625D01*
X163389328Y-81009678D01*
X163389328Y-81009678D01*
G37*
D16*
X163111637Y-81446125D03*
G04 #@! TD*
D17*
G04 #@! TO.C,D604*
X164670000Y-71490000D03*
X164670000Y-72390000D03*
X164670000Y-73290000D03*
X161720000Y-73290000D03*
X161720000Y-72390000D03*
X161720000Y-71490000D03*
G04 #@! TD*
D10*
G04 #@! TO.C,R617*
G36*
X161604917Y-61121509D02*
X161626152Y-61124659D01*
X161646976Y-61129875D01*
X161667188Y-61137107D01*
X161686594Y-61146286D01*
X161705007Y-61157322D01*
X161722250Y-61170110D01*
X161738156Y-61184526D01*
X161752572Y-61200432D01*
X161765360Y-61217675D01*
X161776396Y-61236088D01*
X161785575Y-61255494D01*
X161792807Y-61275706D01*
X161798023Y-61296530D01*
X161801173Y-61317765D01*
X161802226Y-61339206D01*
X161802226Y-61776706D01*
X161801173Y-61798147D01*
X161798023Y-61819382D01*
X161792807Y-61840206D01*
X161785575Y-61860418D01*
X161776396Y-61879824D01*
X161765360Y-61898237D01*
X161752572Y-61915480D01*
X161738156Y-61931386D01*
X161722250Y-61945802D01*
X161705007Y-61958590D01*
X161686594Y-61969626D01*
X161667188Y-61978805D01*
X161646976Y-61986037D01*
X161626152Y-61991253D01*
X161604917Y-61994403D01*
X161583476Y-61995456D01*
X161070976Y-61995456D01*
X161049535Y-61994403D01*
X161028300Y-61991253D01*
X161007476Y-61986037D01*
X160987264Y-61978805D01*
X160967858Y-61969626D01*
X160949445Y-61958590D01*
X160932202Y-61945802D01*
X160916296Y-61931386D01*
X160901880Y-61915480D01*
X160889092Y-61898237D01*
X160878056Y-61879824D01*
X160868877Y-61860418D01*
X160861645Y-61840206D01*
X160856429Y-61819382D01*
X160853279Y-61798147D01*
X160852226Y-61776706D01*
X160852226Y-61339206D01*
X160853279Y-61317765D01*
X160856429Y-61296530D01*
X160861645Y-61275706D01*
X160868877Y-61255494D01*
X160878056Y-61236088D01*
X160889092Y-61217675D01*
X160901880Y-61200432D01*
X160916296Y-61184526D01*
X160932202Y-61170110D01*
X160949445Y-61157322D01*
X160967858Y-61146286D01*
X160987264Y-61137107D01*
X161007476Y-61129875D01*
X161028300Y-61124659D01*
X161049535Y-61121509D01*
X161070976Y-61120456D01*
X161583476Y-61120456D01*
X161604917Y-61121509D01*
X161604917Y-61121509D01*
G37*
D16*
X161327226Y-61557956D03*
D10*
G36*
X161604917Y-62696509D02*
X161626152Y-62699659D01*
X161646976Y-62704875D01*
X161667188Y-62712107D01*
X161686594Y-62721286D01*
X161705007Y-62732322D01*
X161722250Y-62745110D01*
X161738156Y-62759526D01*
X161752572Y-62775432D01*
X161765360Y-62792675D01*
X161776396Y-62811088D01*
X161785575Y-62830494D01*
X161792807Y-62850706D01*
X161798023Y-62871530D01*
X161801173Y-62892765D01*
X161802226Y-62914206D01*
X161802226Y-63351706D01*
X161801173Y-63373147D01*
X161798023Y-63394382D01*
X161792807Y-63415206D01*
X161785575Y-63435418D01*
X161776396Y-63454824D01*
X161765360Y-63473237D01*
X161752572Y-63490480D01*
X161738156Y-63506386D01*
X161722250Y-63520802D01*
X161705007Y-63533590D01*
X161686594Y-63544626D01*
X161667188Y-63553805D01*
X161646976Y-63561037D01*
X161626152Y-63566253D01*
X161604917Y-63569403D01*
X161583476Y-63570456D01*
X161070976Y-63570456D01*
X161049535Y-63569403D01*
X161028300Y-63566253D01*
X161007476Y-63561037D01*
X160987264Y-63553805D01*
X160967858Y-63544626D01*
X160949445Y-63533590D01*
X160932202Y-63520802D01*
X160916296Y-63506386D01*
X160901880Y-63490480D01*
X160889092Y-63473237D01*
X160878056Y-63454824D01*
X160868877Y-63435418D01*
X160861645Y-63415206D01*
X160856429Y-63394382D01*
X160853279Y-63373147D01*
X160852226Y-63351706D01*
X160852226Y-62914206D01*
X160853279Y-62892765D01*
X160856429Y-62871530D01*
X160861645Y-62850706D01*
X160868877Y-62830494D01*
X160878056Y-62811088D01*
X160889092Y-62792675D01*
X160901880Y-62775432D01*
X160916296Y-62759526D01*
X160932202Y-62745110D01*
X160949445Y-62732322D01*
X160967858Y-62721286D01*
X160987264Y-62712107D01*
X161007476Y-62704875D01*
X161028300Y-62699659D01*
X161049535Y-62696509D01*
X161070976Y-62695456D01*
X161583476Y-62695456D01*
X161604917Y-62696509D01*
X161604917Y-62696509D01*
G37*
D16*
X161327226Y-63132956D03*
G04 #@! TD*
D10*
G04 #@! TO.C,R606*
G36*
X167282691Y-78278053D02*
X167303926Y-78281203D01*
X167324750Y-78286419D01*
X167344962Y-78293651D01*
X167364368Y-78302830D01*
X167382781Y-78313866D01*
X167400024Y-78326654D01*
X167415930Y-78341070D01*
X167430346Y-78356976D01*
X167443134Y-78374219D01*
X167454170Y-78392632D01*
X167463349Y-78412038D01*
X167470581Y-78432250D01*
X167475797Y-78453074D01*
X167478947Y-78474309D01*
X167480000Y-78495750D01*
X167480000Y-78933250D01*
X167478947Y-78954691D01*
X167475797Y-78975926D01*
X167470581Y-78996750D01*
X167463349Y-79016962D01*
X167454170Y-79036368D01*
X167443134Y-79054781D01*
X167430346Y-79072024D01*
X167415930Y-79087930D01*
X167400024Y-79102346D01*
X167382781Y-79115134D01*
X167364368Y-79126170D01*
X167344962Y-79135349D01*
X167324750Y-79142581D01*
X167303926Y-79147797D01*
X167282691Y-79150947D01*
X167261250Y-79152000D01*
X166748750Y-79152000D01*
X166727309Y-79150947D01*
X166706074Y-79147797D01*
X166685250Y-79142581D01*
X166665038Y-79135349D01*
X166645632Y-79126170D01*
X166627219Y-79115134D01*
X166609976Y-79102346D01*
X166594070Y-79087930D01*
X166579654Y-79072024D01*
X166566866Y-79054781D01*
X166555830Y-79036368D01*
X166546651Y-79016962D01*
X166539419Y-78996750D01*
X166534203Y-78975926D01*
X166531053Y-78954691D01*
X166530000Y-78933250D01*
X166530000Y-78495750D01*
X166531053Y-78474309D01*
X166534203Y-78453074D01*
X166539419Y-78432250D01*
X166546651Y-78412038D01*
X166555830Y-78392632D01*
X166566866Y-78374219D01*
X166579654Y-78356976D01*
X166594070Y-78341070D01*
X166609976Y-78326654D01*
X166627219Y-78313866D01*
X166645632Y-78302830D01*
X166665038Y-78293651D01*
X166685250Y-78286419D01*
X166706074Y-78281203D01*
X166727309Y-78278053D01*
X166748750Y-78277000D01*
X167261250Y-78277000D01*
X167282691Y-78278053D01*
X167282691Y-78278053D01*
G37*
D16*
X167005000Y-78714500D03*
D10*
G36*
X167282691Y-79853053D02*
X167303926Y-79856203D01*
X167324750Y-79861419D01*
X167344962Y-79868651D01*
X167364368Y-79877830D01*
X167382781Y-79888866D01*
X167400024Y-79901654D01*
X167415930Y-79916070D01*
X167430346Y-79931976D01*
X167443134Y-79949219D01*
X167454170Y-79967632D01*
X167463349Y-79987038D01*
X167470581Y-80007250D01*
X167475797Y-80028074D01*
X167478947Y-80049309D01*
X167480000Y-80070750D01*
X167480000Y-80508250D01*
X167478947Y-80529691D01*
X167475797Y-80550926D01*
X167470581Y-80571750D01*
X167463349Y-80591962D01*
X167454170Y-80611368D01*
X167443134Y-80629781D01*
X167430346Y-80647024D01*
X167415930Y-80662930D01*
X167400024Y-80677346D01*
X167382781Y-80690134D01*
X167364368Y-80701170D01*
X167344962Y-80710349D01*
X167324750Y-80717581D01*
X167303926Y-80722797D01*
X167282691Y-80725947D01*
X167261250Y-80727000D01*
X166748750Y-80727000D01*
X166727309Y-80725947D01*
X166706074Y-80722797D01*
X166685250Y-80717581D01*
X166665038Y-80710349D01*
X166645632Y-80701170D01*
X166627219Y-80690134D01*
X166609976Y-80677346D01*
X166594070Y-80662930D01*
X166579654Y-80647024D01*
X166566866Y-80629781D01*
X166555830Y-80611368D01*
X166546651Y-80591962D01*
X166539419Y-80571750D01*
X166534203Y-80550926D01*
X166531053Y-80529691D01*
X166530000Y-80508250D01*
X166530000Y-80070750D01*
X166531053Y-80049309D01*
X166534203Y-80028074D01*
X166539419Y-80007250D01*
X166546651Y-79987038D01*
X166555830Y-79967632D01*
X166566866Y-79949219D01*
X166579654Y-79931976D01*
X166594070Y-79916070D01*
X166609976Y-79901654D01*
X166627219Y-79888866D01*
X166645632Y-79877830D01*
X166665038Y-79868651D01*
X166685250Y-79861419D01*
X166706074Y-79856203D01*
X166727309Y-79853053D01*
X166748750Y-79852000D01*
X167261250Y-79852000D01*
X167282691Y-79853053D01*
X167282691Y-79853053D01*
G37*
D16*
X167005000Y-80289500D03*
G04 #@! TD*
D10*
G04 #@! TO.C,R608*
G36*
X169060691Y-78278053D02*
X169081926Y-78281203D01*
X169102750Y-78286419D01*
X169122962Y-78293651D01*
X169142368Y-78302830D01*
X169160781Y-78313866D01*
X169178024Y-78326654D01*
X169193930Y-78341070D01*
X169208346Y-78356976D01*
X169221134Y-78374219D01*
X169232170Y-78392632D01*
X169241349Y-78412038D01*
X169248581Y-78432250D01*
X169253797Y-78453074D01*
X169256947Y-78474309D01*
X169258000Y-78495750D01*
X169258000Y-78933250D01*
X169256947Y-78954691D01*
X169253797Y-78975926D01*
X169248581Y-78996750D01*
X169241349Y-79016962D01*
X169232170Y-79036368D01*
X169221134Y-79054781D01*
X169208346Y-79072024D01*
X169193930Y-79087930D01*
X169178024Y-79102346D01*
X169160781Y-79115134D01*
X169142368Y-79126170D01*
X169122962Y-79135349D01*
X169102750Y-79142581D01*
X169081926Y-79147797D01*
X169060691Y-79150947D01*
X169039250Y-79152000D01*
X168526750Y-79152000D01*
X168505309Y-79150947D01*
X168484074Y-79147797D01*
X168463250Y-79142581D01*
X168443038Y-79135349D01*
X168423632Y-79126170D01*
X168405219Y-79115134D01*
X168387976Y-79102346D01*
X168372070Y-79087930D01*
X168357654Y-79072024D01*
X168344866Y-79054781D01*
X168333830Y-79036368D01*
X168324651Y-79016962D01*
X168317419Y-78996750D01*
X168312203Y-78975926D01*
X168309053Y-78954691D01*
X168308000Y-78933250D01*
X168308000Y-78495750D01*
X168309053Y-78474309D01*
X168312203Y-78453074D01*
X168317419Y-78432250D01*
X168324651Y-78412038D01*
X168333830Y-78392632D01*
X168344866Y-78374219D01*
X168357654Y-78356976D01*
X168372070Y-78341070D01*
X168387976Y-78326654D01*
X168405219Y-78313866D01*
X168423632Y-78302830D01*
X168443038Y-78293651D01*
X168463250Y-78286419D01*
X168484074Y-78281203D01*
X168505309Y-78278053D01*
X168526750Y-78277000D01*
X169039250Y-78277000D01*
X169060691Y-78278053D01*
X169060691Y-78278053D01*
G37*
D16*
X168783000Y-78714500D03*
D10*
G36*
X169060691Y-79853053D02*
X169081926Y-79856203D01*
X169102750Y-79861419D01*
X169122962Y-79868651D01*
X169142368Y-79877830D01*
X169160781Y-79888866D01*
X169178024Y-79901654D01*
X169193930Y-79916070D01*
X169208346Y-79931976D01*
X169221134Y-79949219D01*
X169232170Y-79967632D01*
X169241349Y-79987038D01*
X169248581Y-80007250D01*
X169253797Y-80028074D01*
X169256947Y-80049309D01*
X169258000Y-80070750D01*
X169258000Y-80508250D01*
X169256947Y-80529691D01*
X169253797Y-80550926D01*
X169248581Y-80571750D01*
X169241349Y-80591962D01*
X169232170Y-80611368D01*
X169221134Y-80629781D01*
X169208346Y-80647024D01*
X169193930Y-80662930D01*
X169178024Y-80677346D01*
X169160781Y-80690134D01*
X169142368Y-80701170D01*
X169122962Y-80710349D01*
X169102750Y-80717581D01*
X169081926Y-80722797D01*
X169060691Y-80725947D01*
X169039250Y-80727000D01*
X168526750Y-80727000D01*
X168505309Y-80725947D01*
X168484074Y-80722797D01*
X168463250Y-80717581D01*
X168443038Y-80710349D01*
X168423632Y-80701170D01*
X168405219Y-80690134D01*
X168387976Y-80677346D01*
X168372070Y-80662930D01*
X168357654Y-80647024D01*
X168344866Y-80629781D01*
X168333830Y-80611368D01*
X168324651Y-80591962D01*
X168317419Y-80571750D01*
X168312203Y-80550926D01*
X168309053Y-80529691D01*
X168308000Y-80508250D01*
X168308000Y-80070750D01*
X168309053Y-80049309D01*
X168312203Y-80028074D01*
X168317419Y-80007250D01*
X168324651Y-79987038D01*
X168333830Y-79967632D01*
X168344866Y-79949219D01*
X168357654Y-79931976D01*
X168372070Y-79916070D01*
X168387976Y-79901654D01*
X168405219Y-79888866D01*
X168423632Y-79877830D01*
X168443038Y-79868651D01*
X168463250Y-79861419D01*
X168484074Y-79856203D01*
X168505309Y-79853053D01*
X168526750Y-79852000D01*
X169039250Y-79852000D01*
X169060691Y-79853053D01*
X169060691Y-79853053D01*
G37*
D16*
X168783000Y-80289500D03*
G04 #@! TD*
D13*
G04 #@! TO.C,U301*
X94432000Y-117710000D03*
X94432000Y-118360000D03*
X94432000Y-119010000D03*
X94432000Y-119660000D03*
X94432000Y-120310000D03*
X94432000Y-120960000D03*
X94432000Y-121610000D03*
X94432000Y-122260000D03*
X94432000Y-122910000D03*
X94432000Y-123560000D03*
X94432000Y-124210000D03*
X94432000Y-124860000D03*
X100132000Y-124860000D03*
X100132000Y-124210000D03*
X100132000Y-123560000D03*
X100132000Y-122910000D03*
X100132000Y-122260000D03*
X100132000Y-121610000D03*
X100132000Y-120960000D03*
X100132000Y-120310000D03*
X100132000Y-119660000D03*
X100132000Y-119010000D03*
X100132000Y-118360000D03*
X100132000Y-117710000D03*
G04 #@! TD*
D12*
G04 #@! TO.C,SW301*
X93726000Y-135268000D03*
X101346000Y-143878000D03*
X96266000Y-135268000D03*
X98806000Y-143878000D03*
X98806000Y-135268000D03*
X96266000Y-143878000D03*
X101346000Y-135268000D03*
X93726000Y-143878000D03*
G04 #@! TD*
D10*
G04 #@! TO.C,R304*
G36*
X101450505Y-128968204D02*
X101474773Y-128971804D01*
X101498572Y-128977765D01*
X101521671Y-128986030D01*
X101543850Y-128996520D01*
X101564893Y-129009132D01*
X101584599Y-129023747D01*
X101602777Y-129040223D01*
X101619253Y-129058401D01*
X101633868Y-129078107D01*
X101646480Y-129099150D01*
X101656970Y-129121329D01*
X101665235Y-129144428D01*
X101671196Y-129168227D01*
X101674796Y-129192495D01*
X101676000Y-129216999D01*
X101676000Y-130117001D01*
X101674796Y-130141505D01*
X101671196Y-130165773D01*
X101665235Y-130189572D01*
X101656970Y-130212671D01*
X101646480Y-130234850D01*
X101633868Y-130255893D01*
X101619253Y-130275599D01*
X101602777Y-130293777D01*
X101584599Y-130310253D01*
X101564893Y-130324868D01*
X101543850Y-130337480D01*
X101521671Y-130347970D01*
X101498572Y-130356235D01*
X101474773Y-130362196D01*
X101450505Y-130365796D01*
X101426001Y-130367000D01*
X100775999Y-130367000D01*
X100751495Y-130365796D01*
X100727227Y-130362196D01*
X100703428Y-130356235D01*
X100680329Y-130347970D01*
X100658150Y-130337480D01*
X100637107Y-130324868D01*
X100617401Y-130310253D01*
X100599223Y-130293777D01*
X100582747Y-130275599D01*
X100568132Y-130255893D01*
X100555520Y-130234850D01*
X100545030Y-130212671D01*
X100536765Y-130189572D01*
X100530804Y-130165773D01*
X100527204Y-130141505D01*
X100526000Y-130117001D01*
X100526000Y-129216999D01*
X100527204Y-129192495D01*
X100530804Y-129168227D01*
X100536765Y-129144428D01*
X100545030Y-129121329D01*
X100555520Y-129099150D01*
X100568132Y-129078107D01*
X100582747Y-129058401D01*
X100599223Y-129040223D01*
X100617401Y-129023747D01*
X100637107Y-129009132D01*
X100658150Y-128996520D01*
X100680329Y-128986030D01*
X100703428Y-128977765D01*
X100727227Y-128971804D01*
X100751495Y-128968204D01*
X100775999Y-128967000D01*
X101426001Y-128967000D01*
X101450505Y-128968204D01*
X101450505Y-128968204D01*
G37*
D11*
X101101000Y-129667000D03*
D10*
G36*
X99400505Y-128968204D02*
X99424773Y-128971804D01*
X99448572Y-128977765D01*
X99471671Y-128986030D01*
X99493850Y-128996520D01*
X99514893Y-129009132D01*
X99534599Y-129023747D01*
X99552777Y-129040223D01*
X99569253Y-129058401D01*
X99583868Y-129078107D01*
X99596480Y-129099150D01*
X99606970Y-129121329D01*
X99615235Y-129144428D01*
X99621196Y-129168227D01*
X99624796Y-129192495D01*
X99626000Y-129216999D01*
X99626000Y-130117001D01*
X99624796Y-130141505D01*
X99621196Y-130165773D01*
X99615235Y-130189572D01*
X99606970Y-130212671D01*
X99596480Y-130234850D01*
X99583868Y-130255893D01*
X99569253Y-130275599D01*
X99552777Y-130293777D01*
X99534599Y-130310253D01*
X99514893Y-130324868D01*
X99493850Y-130337480D01*
X99471671Y-130347970D01*
X99448572Y-130356235D01*
X99424773Y-130362196D01*
X99400505Y-130365796D01*
X99376001Y-130367000D01*
X98725999Y-130367000D01*
X98701495Y-130365796D01*
X98677227Y-130362196D01*
X98653428Y-130356235D01*
X98630329Y-130347970D01*
X98608150Y-130337480D01*
X98587107Y-130324868D01*
X98567401Y-130310253D01*
X98549223Y-130293777D01*
X98532747Y-130275599D01*
X98518132Y-130255893D01*
X98505520Y-130234850D01*
X98495030Y-130212671D01*
X98486765Y-130189572D01*
X98480804Y-130165773D01*
X98477204Y-130141505D01*
X98476000Y-130117001D01*
X98476000Y-129216999D01*
X98477204Y-129192495D01*
X98480804Y-129168227D01*
X98486765Y-129144428D01*
X98495030Y-129121329D01*
X98505520Y-129099150D01*
X98518132Y-129078107D01*
X98532747Y-129058401D01*
X98549223Y-129040223D01*
X98567401Y-129023747D01*
X98587107Y-129009132D01*
X98608150Y-128996520D01*
X98630329Y-128986030D01*
X98653428Y-128977765D01*
X98677227Y-128971804D01*
X98701495Y-128968204D01*
X98725999Y-128967000D01*
X99376001Y-128967000D01*
X99400505Y-128968204D01*
X99400505Y-128968204D01*
G37*
D11*
X99051000Y-129667000D03*
G04 #@! TD*
D10*
G04 #@! TO.C,D301*
G36*
X99400505Y-126936204D02*
X99424773Y-126939804D01*
X99448572Y-126945765D01*
X99471671Y-126954030D01*
X99493850Y-126964520D01*
X99514893Y-126977132D01*
X99534599Y-126991747D01*
X99552777Y-127008223D01*
X99569253Y-127026401D01*
X99583868Y-127046107D01*
X99596480Y-127067150D01*
X99606970Y-127089329D01*
X99615235Y-127112428D01*
X99621196Y-127136227D01*
X99624796Y-127160495D01*
X99626000Y-127184999D01*
X99626000Y-128085001D01*
X99624796Y-128109505D01*
X99621196Y-128133773D01*
X99615235Y-128157572D01*
X99606970Y-128180671D01*
X99596480Y-128202850D01*
X99583868Y-128223893D01*
X99569253Y-128243599D01*
X99552777Y-128261777D01*
X99534599Y-128278253D01*
X99514893Y-128292868D01*
X99493850Y-128305480D01*
X99471671Y-128315970D01*
X99448572Y-128324235D01*
X99424773Y-128330196D01*
X99400505Y-128333796D01*
X99376001Y-128335000D01*
X98725999Y-128335000D01*
X98701495Y-128333796D01*
X98677227Y-128330196D01*
X98653428Y-128324235D01*
X98630329Y-128315970D01*
X98608150Y-128305480D01*
X98587107Y-128292868D01*
X98567401Y-128278253D01*
X98549223Y-128261777D01*
X98532747Y-128243599D01*
X98518132Y-128223893D01*
X98505520Y-128202850D01*
X98495030Y-128180671D01*
X98486765Y-128157572D01*
X98480804Y-128133773D01*
X98477204Y-128109505D01*
X98476000Y-128085001D01*
X98476000Y-127184999D01*
X98477204Y-127160495D01*
X98480804Y-127136227D01*
X98486765Y-127112428D01*
X98495030Y-127089329D01*
X98505520Y-127067150D01*
X98518132Y-127046107D01*
X98532747Y-127026401D01*
X98549223Y-127008223D01*
X98567401Y-126991747D01*
X98587107Y-126977132D01*
X98608150Y-126964520D01*
X98630329Y-126954030D01*
X98653428Y-126945765D01*
X98677227Y-126939804D01*
X98701495Y-126936204D01*
X98725999Y-126935000D01*
X99376001Y-126935000D01*
X99400505Y-126936204D01*
X99400505Y-126936204D01*
G37*
D11*
X99051000Y-127635000D03*
D10*
G36*
X101450505Y-126936204D02*
X101474773Y-126939804D01*
X101498572Y-126945765D01*
X101521671Y-126954030D01*
X101543850Y-126964520D01*
X101564893Y-126977132D01*
X101584599Y-126991747D01*
X101602777Y-127008223D01*
X101619253Y-127026401D01*
X101633868Y-127046107D01*
X101646480Y-127067150D01*
X101656970Y-127089329D01*
X101665235Y-127112428D01*
X101671196Y-127136227D01*
X101674796Y-127160495D01*
X101676000Y-127184999D01*
X101676000Y-128085001D01*
X101674796Y-128109505D01*
X101671196Y-128133773D01*
X101665235Y-128157572D01*
X101656970Y-128180671D01*
X101646480Y-128202850D01*
X101633868Y-128223893D01*
X101619253Y-128243599D01*
X101602777Y-128261777D01*
X101584599Y-128278253D01*
X101564893Y-128292868D01*
X101543850Y-128305480D01*
X101521671Y-128315970D01*
X101498572Y-128324235D01*
X101474773Y-128330196D01*
X101450505Y-128333796D01*
X101426001Y-128335000D01*
X100775999Y-128335000D01*
X100751495Y-128333796D01*
X100727227Y-128330196D01*
X100703428Y-128324235D01*
X100680329Y-128315970D01*
X100658150Y-128305480D01*
X100637107Y-128292868D01*
X100617401Y-128278253D01*
X100599223Y-128261777D01*
X100582747Y-128243599D01*
X100568132Y-128223893D01*
X100555520Y-128202850D01*
X100545030Y-128180671D01*
X100536765Y-128157572D01*
X100530804Y-128133773D01*
X100527204Y-128109505D01*
X100526000Y-128085001D01*
X100526000Y-127184999D01*
X100527204Y-127160495D01*
X100530804Y-127136227D01*
X100536765Y-127112428D01*
X100545030Y-127089329D01*
X100555520Y-127067150D01*
X100568132Y-127046107D01*
X100582747Y-127026401D01*
X100599223Y-127008223D01*
X100617401Y-126991747D01*
X100637107Y-126977132D01*
X100658150Y-126964520D01*
X100680329Y-126954030D01*
X100703428Y-126945765D01*
X100727227Y-126939804D01*
X100751495Y-126936204D01*
X100775999Y-126935000D01*
X101426001Y-126935000D01*
X101450505Y-126936204D01*
X101450505Y-126936204D01*
G37*
D11*
X101101000Y-127635000D03*
G04 #@! TD*
D13*
G04 #@! TO.C,U301*
X94432000Y-68815000D03*
X94432000Y-69465000D03*
X94432000Y-70115000D03*
X94432000Y-70765000D03*
X94432000Y-71415000D03*
X94432000Y-72065000D03*
X94432000Y-72715000D03*
X94432000Y-73365000D03*
X94432000Y-74015000D03*
X94432000Y-74665000D03*
X94432000Y-75315000D03*
X94432000Y-75965000D03*
X100132000Y-75965000D03*
X100132000Y-75315000D03*
X100132000Y-74665000D03*
X100132000Y-74015000D03*
X100132000Y-73365000D03*
X100132000Y-72715000D03*
X100132000Y-72065000D03*
X100132000Y-71415000D03*
X100132000Y-70765000D03*
X100132000Y-70115000D03*
X100132000Y-69465000D03*
X100132000Y-68815000D03*
G04 #@! TD*
D12*
G04 #@! TO.C,SW301*
X93726000Y-86373000D03*
X101346000Y-94983000D03*
X96266000Y-86373000D03*
X98806000Y-94983000D03*
X98806000Y-86373000D03*
X96266000Y-94983000D03*
X101346000Y-86373000D03*
X93726000Y-94983000D03*
G04 #@! TD*
D10*
G04 #@! TO.C,R304*
G36*
X101450505Y-80073204D02*
X101474773Y-80076804D01*
X101498572Y-80082765D01*
X101521671Y-80091030D01*
X101543850Y-80101520D01*
X101564893Y-80114132D01*
X101584599Y-80128747D01*
X101602777Y-80145223D01*
X101619253Y-80163401D01*
X101633868Y-80183107D01*
X101646480Y-80204150D01*
X101656970Y-80226329D01*
X101665235Y-80249428D01*
X101671196Y-80273227D01*
X101674796Y-80297495D01*
X101676000Y-80321999D01*
X101676000Y-81222001D01*
X101674796Y-81246505D01*
X101671196Y-81270773D01*
X101665235Y-81294572D01*
X101656970Y-81317671D01*
X101646480Y-81339850D01*
X101633868Y-81360893D01*
X101619253Y-81380599D01*
X101602777Y-81398777D01*
X101584599Y-81415253D01*
X101564893Y-81429868D01*
X101543850Y-81442480D01*
X101521671Y-81452970D01*
X101498572Y-81461235D01*
X101474773Y-81467196D01*
X101450505Y-81470796D01*
X101426001Y-81472000D01*
X100775999Y-81472000D01*
X100751495Y-81470796D01*
X100727227Y-81467196D01*
X100703428Y-81461235D01*
X100680329Y-81452970D01*
X100658150Y-81442480D01*
X100637107Y-81429868D01*
X100617401Y-81415253D01*
X100599223Y-81398777D01*
X100582747Y-81380599D01*
X100568132Y-81360893D01*
X100555520Y-81339850D01*
X100545030Y-81317671D01*
X100536765Y-81294572D01*
X100530804Y-81270773D01*
X100527204Y-81246505D01*
X100526000Y-81222001D01*
X100526000Y-80321999D01*
X100527204Y-80297495D01*
X100530804Y-80273227D01*
X100536765Y-80249428D01*
X100545030Y-80226329D01*
X100555520Y-80204150D01*
X100568132Y-80183107D01*
X100582747Y-80163401D01*
X100599223Y-80145223D01*
X100617401Y-80128747D01*
X100637107Y-80114132D01*
X100658150Y-80101520D01*
X100680329Y-80091030D01*
X100703428Y-80082765D01*
X100727227Y-80076804D01*
X100751495Y-80073204D01*
X100775999Y-80072000D01*
X101426001Y-80072000D01*
X101450505Y-80073204D01*
X101450505Y-80073204D01*
G37*
D11*
X101101000Y-80772000D03*
D10*
G36*
X99400505Y-80073204D02*
X99424773Y-80076804D01*
X99448572Y-80082765D01*
X99471671Y-80091030D01*
X99493850Y-80101520D01*
X99514893Y-80114132D01*
X99534599Y-80128747D01*
X99552777Y-80145223D01*
X99569253Y-80163401D01*
X99583868Y-80183107D01*
X99596480Y-80204150D01*
X99606970Y-80226329D01*
X99615235Y-80249428D01*
X99621196Y-80273227D01*
X99624796Y-80297495D01*
X99626000Y-80321999D01*
X99626000Y-81222001D01*
X99624796Y-81246505D01*
X99621196Y-81270773D01*
X99615235Y-81294572D01*
X99606970Y-81317671D01*
X99596480Y-81339850D01*
X99583868Y-81360893D01*
X99569253Y-81380599D01*
X99552777Y-81398777D01*
X99534599Y-81415253D01*
X99514893Y-81429868D01*
X99493850Y-81442480D01*
X99471671Y-81452970D01*
X99448572Y-81461235D01*
X99424773Y-81467196D01*
X99400505Y-81470796D01*
X99376001Y-81472000D01*
X98725999Y-81472000D01*
X98701495Y-81470796D01*
X98677227Y-81467196D01*
X98653428Y-81461235D01*
X98630329Y-81452970D01*
X98608150Y-81442480D01*
X98587107Y-81429868D01*
X98567401Y-81415253D01*
X98549223Y-81398777D01*
X98532747Y-81380599D01*
X98518132Y-81360893D01*
X98505520Y-81339850D01*
X98495030Y-81317671D01*
X98486765Y-81294572D01*
X98480804Y-81270773D01*
X98477204Y-81246505D01*
X98476000Y-81222001D01*
X98476000Y-80321999D01*
X98477204Y-80297495D01*
X98480804Y-80273227D01*
X98486765Y-80249428D01*
X98495030Y-80226329D01*
X98505520Y-80204150D01*
X98518132Y-80183107D01*
X98532747Y-80163401D01*
X98549223Y-80145223D01*
X98567401Y-80128747D01*
X98587107Y-80114132D01*
X98608150Y-80101520D01*
X98630329Y-80091030D01*
X98653428Y-80082765D01*
X98677227Y-80076804D01*
X98701495Y-80073204D01*
X98725999Y-80072000D01*
X99376001Y-80072000D01*
X99400505Y-80073204D01*
X99400505Y-80073204D01*
G37*
D11*
X99051000Y-80772000D03*
G04 #@! TD*
D10*
G04 #@! TO.C,D301*
G36*
X99400505Y-78041204D02*
X99424773Y-78044804D01*
X99448572Y-78050765D01*
X99471671Y-78059030D01*
X99493850Y-78069520D01*
X99514893Y-78082132D01*
X99534599Y-78096747D01*
X99552777Y-78113223D01*
X99569253Y-78131401D01*
X99583868Y-78151107D01*
X99596480Y-78172150D01*
X99606970Y-78194329D01*
X99615235Y-78217428D01*
X99621196Y-78241227D01*
X99624796Y-78265495D01*
X99626000Y-78289999D01*
X99626000Y-79190001D01*
X99624796Y-79214505D01*
X99621196Y-79238773D01*
X99615235Y-79262572D01*
X99606970Y-79285671D01*
X99596480Y-79307850D01*
X99583868Y-79328893D01*
X99569253Y-79348599D01*
X99552777Y-79366777D01*
X99534599Y-79383253D01*
X99514893Y-79397868D01*
X99493850Y-79410480D01*
X99471671Y-79420970D01*
X99448572Y-79429235D01*
X99424773Y-79435196D01*
X99400505Y-79438796D01*
X99376001Y-79440000D01*
X98725999Y-79440000D01*
X98701495Y-79438796D01*
X98677227Y-79435196D01*
X98653428Y-79429235D01*
X98630329Y-79420970D01*
X98608150Y-79410480D01*
X98587107Y-79397868D01*
X98567401Y-79383253D01*
X98549223Y-79366777D01*
X98532747Y-79348599D01*
X98518132Y-79328893D01*
X98505520Y-79307850D01*
X98495030Y-79285671D01*
X98486765Y-79262572D01*
X98480804Y-79238773D01*
X98477204Y-79214505D01*
X98476000Y-79190001D01*
X98476000Y-78289999D01*
X98477204Y-78265495D01*
X98480804Y-78241227D01*
X98486765Y-78217428D01*
X98495030Y-78194329D01*
X98505520Y-78172150D01*
X98518132Y-78151107D01*
X98532747Y-78131401D01*
X98549223Y-78113223D01*
X98567401Y-78096747D01*
X98587107Y-78082132D01*
X98608150Y-78069520D01*
X98630329Y-78059030D01*
X98653428Y-78050765D01*
X98677227Y-78044804D01*
X98701495Y-78041204D01*
X98725999Y-78040000D01*
X99376001Y-78040000D01*
X99400505Y-78041204D01*
X99400505Y-78041204D01*
G37*
D11*
X99051000Y-78740000D03*
D10*
G36*
X101450505Y-78041204D02*
X101474773Y-78044804D01*
X101498572Y-78050765D01*
X101521671Y-78059030D01*
X101543850Y-78069520D01*
X101564893Y-78082132D01*
X101584599Y-78096747D01*
X101602777Y-78113223D01*
X101619253Y-78131401D01*
X101633868Y-78151107D01*
X101646480Y-78172150D01*
X101656970Y-78194329D01*
X101665235Y-78217428D01*
X101671196Y-78241227D01*
X101674796Y-78265495D01*
X101676000Y-78289999D01*
X101676000Y-79190001D01*
X101674796Y-79214505D01*
X101671196Y-79238773D01*
X101665235Y-79262572D01*
X101656970Y-79285671D01*
X101646480Y-79307850D01*
X101633868Y-79328893D01*
X101619253Y-79348599D01*
X101602777Y-79366777D01*
X101584599Y-79383253D01*
X101564893Y-79397868D01*
X101543850Y-79410480D01*
X101521671Y-79420970D01*
X101498572Y-79429235D01*
X101474773Y-79435196D01*
X101450505Y-79438796D01*
X101426001Y-79440000D01*
X100775999Y-79440000D01*
X100751495Y-79438796D01*
X100727227Y-79435196D01*
X100703428Y-79429235D01*
X100680329Y-79420970D01*
X100658150Y-79410480D01*
X100637107Y-79397868D01*
X100617401Y-79383253D01*
X100599223Y-79366777D01*
X100582747Y-79348599D01*
X100568132Y-79328893D01*
X100555520Y-79307850D01*
X100545030Y-79285671D01*
X100536765Y-79262572D01*
X100530804Y-79238773D01*
X100527204Y-79214505D01*
X100526000Y-79190001D01*
X100526000Y-78289999D01*
X100527204Y-78265495D01*
X100530804Y-78241227D01*
X100536765Y-78217428D01*
X100545030Y-78194329D01*
X100555520Y-78172150D01*
X100568132Y-78151107D01*
X100582747Y-78131401D01*
X100599223Y-78113223D01*
X100617401Y-78096747D01*
X100637107Y-78082132D01*
X100658150Y-78069520D01*
X100680329Y-78059030D01*
X100703428Y-78050765D01*
X100727227Y-78044804D01*
X100751495Y-78041204D01*
X100775999Y-78040000D01*
X101426001Y-78040000D01*
X101450505Y-78041204D01*
X101450505Y-78041204D01*
G37*
D11*
X101101000Y-78740000D03*
G04 #@! TD*
M02*
