%FSLAX45Y45*%
G04 Gerber Fmt 4.5, Leading zero omitted, Abs format (unit mm)*
G04 Created by KiCad (PCBNEW 5.0.2+dfsg1-1~bpo9+1) date dim. 19 janv. 2020 21:42:26 CET*
%MOMM*%
%LPD*%
G01*
G04 APERTURE LIST*
%ADD10C,0.150000*%
%ADD11C,0.200000*%
%ADD12C,0.300000*%
G04 APERTURE END LIST*
D10*
X14490700Y-6019800D02*
X11430000Y-6019800D01*
X14490700Y-9842500D02*
X14490700Y-6019800D01*
X15100300Y-9842500D02*
X14490700Y-9842500D01*
X15100300Y-9067800D02*
X15100300Y-9842500D01*
X15049500Y-9067800D02*
X15100300Y-9067800D01*
X15049500Y-5384800D02*
X15049500Y-9067800D01*
X17970500Y-5384800D02*
X15049500Y-5384800D01*
X17970500Y-14592300D02*
X17970500Y-5384800D01*
X17970500Y-14592300D02*
X8001000Y-14592300D01*
X8001000Y-14592300D02*
X8001000Y-4953000D01*
X11430000Y-4953000D02*
X11430000Y-6019800D01*
X8001000Y-4953000D02*
X11430000Y-4953000D01*
D11*
X9352600Y-8260400D02*
X9392600Y-8300400D01*
X9392600Y-8260400D02*
X9352600Y-8300400D01*
X9352600Y-8819200D02*
X9392600Y-8859200D01*
X9392600Y-8819200D02*
X9352600Y-8859200D01*
X9352600Y-13149900D02*
X9392600Y-13189900D01*
X9392600Y-13149900D02*
X9352600Y-13189900D01*
X9352600Y-13708700D02*
X9392600Y-13748700D01*
X9392600Y-13708700D02*
X9352600Y-13748700D01*
X9403400Y-6584000D02*
X9443400Y-6624000D01*
X9443400Y-6584000D02*
X9403400Y-6624000D01*
X9403400Y-11473500D02*
X9443400Y-11513500D01*
X9443400Y-11473500D02*
X9403400Y-11513500D01*
X9428800Y-8057200D02*
X9468800Y-8097200D01*
X9468800Y-8057200D02*
X9428800Y-8097200D01*
X9428800Y-12946700D02*
X9468800Y-12986700D01*
X9468800Y-12946700D02*
X9428800Y-12986700D01*
X9606600Y-8819200D02*
X9646600Y-8859200D01*
X9646600Y-8819200D02*
X9606600Y-8859200D01*
X9606600Y-13708700D02*
X9646600Y-13748700D01*
X9646600Y-13708700D02*
X9606600Y-13748700D01*
X9658700Y-5923600D02*
X9698700Y-5963600D01*
X9698700Y-5923600D02*
X9658700Y-5963600D01*
X9658700Y-10813100D02*
X9698700Y-10853100D01*
X9698700Y-10813100D02*
X9658700Y-10853100D01*
X9860600Y-8260400D02*
X9900600Y-8300400D01*
X9900600Y-8260400D02*
X9860600Y-8300400D01*
X9860600Y-8819200D02*
X9900600Y-8859200D01*
X9900600Y-8819200D02*
X9860600Y-8859200D01*
X9860600Y-13149900D02*
X9900600Y-13189900D01*
X9900600Y-13149900D02*
X9860600Y-13189900D01*
X9860600Y-13708700D02*
X9900600Y-13748700D01*
X9900600Y-13708700D02*
X9860600Y-13748700D01*
X9886000Y-7701600D02*
X9926000Y-7741600D01*
X9926000Y-7701600D02*
X9886000Y-7741600D01*
X9886000Y-12591100D02*
X9926000Y-12631100D01*
X9926000Y-12591100D02*
X9886000Y-12631100D01*
X9987600Y-6584000D02*
X10027600Y-6624000D01*
X10027600Y-6584000D02*
X9987600Y-6624000D01*
X9987600Y-11473500D02*
X10027600Y-11513500D01*
X10027600Y-11473500D02*
X9987600Y-11513500D01*
X12108500Y-7701600D02*
X12148500Y-7741600D01*
X12148500Y-7701600D02*
X12108500Y-7741600D01*
X12108500Y-7854000D02*
X12148500Y-7894000D01*
X12148500Y-7854000D02*
X12108500Y-7894000D01*
X12260900Y-8336600D02*
X12300900Y-8376600D01*
X12300900Y-8336600D02*
X12260900Y-8376600D01*
X12413300Y-8209600D02*
X12453300Y-8249600D01*
X12453300Y-8209600D02*
X12413300Y-8249600D01*
X12489500Y-8489000D02*
X12529500Y-8529000D01*
X12529500Y-8489000D02*
X12489500Y-8529000D01*
X12489500Y-8616000D02*
X12529500Y-8656000D01*
X12529500Y-8616000D02*
X12489500Y-8656000D01*
X12489500Y-8743000D02*
X12529500Y-8783000D01*
X12529500Y-8743000D02*
X12489500Y-8783000D01*
X12514900Y-7295200D02*
X12554900Y-7335200D01*
X12554900Y-7295200D02*
X12514900Y-7335200D01*
X12565700Y-7193600D02*
X12605700Y-7233600D01*
X12605700Y-7193600D02*
X12565700Y-7233600D01*
X12565700Y-7193600D02*
X12605700Y-7233600D01*
X12605700Y-7193600D02*
X12565700Y-7233600D01*
X12616500Y-7092000D02*
X12656500Y-7132000D01*
X12656500Y-7092000D02*
X12616500Y-7132000D01*
X12921300Y-13149900D02*
X12961300Y-13189900D01*
X12961300Y-13149900D02*
X12921300Y-13189900D01*
X12921300Y-13708700D02*
X12961300Y-13748700D01*
X12961300Y-13708700D02*
X12921300Y-13748700D01*
X12972100Y-11473500D02*
X13012100Y-11513500D01*
X13012100Y-11473500D02*
X12972100Y-11513500D01*
X12997500Y-12946700D02*
X13037500Y-12986700D01*
X13037500Y-12946700D02*
X12997500Y-12986700D01*
X13048300Y-7295200D02*
X13088300Y-7335200D01*
X13088300Y-7295200D02*
X13048300Y-7335200D01*
X13099100Y-6457000D02*
X13139100Y-6497000D01*
X13139100Y-6457000D02*
X13099100Y-6497000D01*
X13099100Y-7803200D02*
X13139100Y-7843200D01*
X13139100Y-7803200D02*
X13099100Y-7843200D01*
X13099100Y-9530400D02*
X13139100Y-9570400D01*
X13139100Y-9530400D02*
X13099100Y-9570400D01*
X13175300Y-13708700D02*
X13215300Y-13748700D01*
X13215300Y-13708700D02*
X13175300Y-13748700D01*
X13200700Y-8362000D02*
X13240700Y-8402000D01*
X13240700Y-8362000D02*
X13200700Y-8402000D01*
X13227400Y-10813100D02*
X13267400Y-10853100D01*
X13267400Y-10813100D02*
X13227400Y-10853100D01*
X13302300Y-6685600D02*
X13342300Y-6725600D01*
X13342300Y-6685600D02*
X13302300Y-6725600D01*
X13302300Y-7142800D02*
X13342300Y-7182800D01*
X13342300Y-7142800D02*
X13302300Y-7182800D01*
X13378500Y-7803200D02*
X13418500Y-7843200D01*
X13418500Y-7803200D02*
X13378500Y-7843200D01*
X13378500Y-8362000D02*
X13418500Y-8402000D01*
X13418500Y-8362000D02*
X13378500Y-8402000D01*
X13429300Y-13149900D02*
X13469300Y-13189900D01*
X13469300Y-13149900D02*
X13429300Y-13189900D01*
X13429300Y-13708700D02*
X13469300Y-13748700D01*
X13469300Y-13708700D02*
X13429300Y-13748700D01*
X13454700Y-12591100D02*
X13494700Y-12631100D01*
X13494700Y-12591100D02*
X13454700Y-12631100D01*
X13480100Y-7142800D02*
X13520100Y-7182800D01*
X13520100Y-7142800D02*
X13480100Y-7182800D01*
X13556300Y-8362000D02*
X13596300Y-8402000D01*
X13596300Y-8362000D02*
X13556300Y-8402000D01*
X13556300Y-11473500D02*
X13596300Y-11513500D01*
X13596300Y-11473500D02*
X13556300Y-11513500D01*
X13581700Y-7295200D02*
X13621700Y-7335200D01*
X13621700Y-7295200D02*
X13581700Y-7335200D01*
X15181900Y-11981500D02*
X15221900Y-12021500D01*
X15221900Y-11981500D02*
X15181900Y-12021500D01*
X15385100Y-11067100D02*
X15425100Y-11107100D01*
X15425100Y-11067100D02*
X15385100Y-11107100D01*
X15486700Y-12387900D02*
X15526700Y-12427900D01*
X15526700Y-12387900D02*
X15486700Y-12427900D01*
X15588300Y-7066600D02*
X15628300Y-7106600D01*
X15628300Y-7066600D02*
X15588300Y-7106600D01*
X15588300Y-7219000D02*
X15628300Y-7259000D01*
X15628300Y-7219000D02*
X15588300Y-7259000D01*
X15664500Y-10305100D02*
X15704500Y-10345100D01*
X15704500Y-10305100D02*
X15664500Y-10345100D01*
X15664500Y-10711500D02*
X15704500Y-10751500D01*
X15704500Y-10711500D02*
X15664500Y-10751500D01*
X15740700Y-7701600D02*
X15780700Y-7741600D01*
X15780700Y-7701600D02*
X15740700Y-7741600D01*
X15867700Y-10305100D02*
X15907700Y-10345100D01*
X15907700Y-10305100D02*
X15867700Y-10345100D01*
X15893100Y-7574600D02*
X15933100Y-7614600D01*
X15933100Y-7574600D02*
X15893100Y-7614600D01*
X15969300Y-7854000D02*
X16009300Y-7894000D01*
X16009300Y-7854000D02*
X15969300Y-7894000D01*
X15969300Y-7981000D02*
X16009300Y-8021000D01*
X16009300Y-7981000D02*
X15969300Y-8021000D01*
X15969300Y-8108000D02*
X16009300Y-8148000D01*
X16009300Y-8108000D02*
X15969300Y-8148000D01*
X15969300Y-10559100D02*
X16009300Y-10599100D01*
X16009300Y-10559100D02*
X15969300Y-10599100D01*
X15994700Y-6660200D02*
X16034700Y-6700200D01*
X16034700Y-6660200D02*
X15994700Y-6700200D01*
X16044200Y-11371900D02*
X16084200Y-11411900D01*
X16084200Y-11371900D02*
X16044200Y-11411900D01*
X16045500Y-6558600D02*
X16085500Y-6598600D01*
X16085500Y-6558600D02*
X16045500Y-6598600D01*
X16045500Y-6558600D02*
X16085500Y-6598600D01*
X16085500Y-6558600D02*
X16045500Y-6598600D01*
X16045500Y-11143300D02*
X16085500Y-11183300D01*
X16085500Y-11143300D02*
X16045500Y-11183300D01*
X16045500Y-11575100D02*
X16085500Y-11615100D01*
X16085500Y-11575100D02*
X16045500Y-11615100D01*
X16045500Y-11752900D02*
X16085500Y-11792900D01*
X16085500Y-11752900D02*
X16045500Y-11792900D01*
X16045500Y-11752900D02*
X16085500Y-11792900D01*
X16085500Y-11752900D02*
X16045500Y-11792900D01*
X16045500Y-11956100D02*
X16085500Y-11996100D01*
X16085500Y-11956100D02*
X16045500Y-11996100D01*
X16045500Y-12159300D02*
X16085500Y-12199300D01*
X16085500Y-12159300D02*
X16045500Y-12199300D01*
X16045500Y-12362500D02*
X16085500Y-12402500D01*
X16085500Y-12362500D02*
X16045500Y-12402500D01*
X16096300Y-6457000D02*
X16136300Y-6497000D01*
X16136300Y-6457000D02*
X16096300Y-6497000D01*
X16223300Y-11016300D02*
X16263300Y-11056300D01*
X16263300Y-11016300D02*
X16223300Y-11056300D01*
X16274100Y-12565700D02*
X16314100Y-12605700D01*
X16314100Y-12565700D02*
X16274100Y-12605700D01*
X16528100Y-6660200D02*
X16568100Y-6700200D01*
X16568100Y-6660200D02*
X16528100Y-6700200D01*
X16578900Y-5822000D02*
X16618900Y-5862000D01*
X16618900Y-5822000D02*
X16578900Y-5862000D01*
X16578900Y-7168200D02*
X16618900Y-7208200D01*
X16618900Y-7168200D02*
X16578900Y-7208200D01*
X16578900Y-8895400D02*
X16618900Y-8935400D01*
X16618900Y-8895400D02*
X16578900Y-8935400D01*
X16680500Y-7727000D02*
X16720500Y-7767000D01*
X16720500Y-7727000D02*
X16680500Y-7767000D01*
X16680500Y-11981500D02*
X16720500Y-12021500D01*
X16720500Y-11981500D02*
X16680500Y-12021500D01*
X16782100Y-6050600D02*
X16822100Y-6090600D01*
X16822100Y-6050600D02*
X16782100Y-6090600D01*
X16782100Y-6507800D02*
X16822100Y-6547800D01*
X16822100Y-6507800D02*
X16782100Y-6547800D01*
X16858300Y-7168200D02*
X16898300Y-7208200D01*
X16898300Y-7168200D02*
X16858300Y-7208200D01*
X16858300Y-7727000D02*
X16898300Y-7767000D01*
X16898300Y-7727000D02*
X16858300Y-7767000D01*
X16883700Y-11067100D02*
X16923700Y-11107100D01*
X16923700Y-11067100D02*
X16883700Y-11107100D01*
X16959900Y-6507800D02*
X16999900Y-6547800D01*
X16999900Y-6507800D02*
X16959900Y-6547800D01*
X16985300Y-12387900D02*
X17025300Y-12427900D01*
X17025300Y-12387900D02*
X16985300Y-12427900D01*
X17036100Y-7727000D02*
X17076100Y-7767000D01*
X17076100Y-7727000D02*
X17036100Y-7767000D01*
X17061500Y-6660200D02*
X17101500Y-6700200D01*
X17101500Y-6660200D02*
X17061500Y-6700200D01*
X17163100Y-10305100D02*
X17203100Y-10345100D01*
X17203100Y-10305100D02*
X17163100Y-10345100D01*
X17163100Y-10711500D02*
X17203100Y-10751500D01*
X17203100Y-10711500D02*
X17163100Y-10751500D01*
X17366300Y-10305100D02*
X17406300Y-10345100D01*
X17406300Y-10305100D02*
X17366300Y-10345100D01*
X17467900Y-10559100D02*
X17507900Y-10599100D01*
X17507900Y-10559100D02*
X17467900Y-10599100D01*
X17542800Y-11371900D02*
X17582800Y-11411900D01*
X17582800Y-11371900D02*
X17542800Y-11411900D01*
X17544100Y-11143300D02*
X17584100Y-11183300D01*
X17584100Y-11143300D02*
X17544100Y-11183300D01*
X17544100Y-11575100D02*
X17584100Y-11615100D01*
X17584100Y-11575100D02*
X17544100Y-11615100D01*
X17544100Y-11752900D02*
X17584100Y-11792900D01*
X17584100Y-11752900D02*
X17544100Y-11792900D01*
X17544100Y-11752900D02*
X17584100Y-11792900D01*
X17584100Y-11752900D02*
X17544100Y-11792900D01*
X17544100Y-11956100D02*
X17584100Y-11996100D01*
X17584100Y-11956100D02*
X17544100Y-11996100D01*
X17544100Y-12159300D02*
X17584100Y-12199300D01*
X17584100Y-12159300D02*
X17544100Y-12199300D01*
X17544100Y-12362500D02*
X17584100Y-12402500D01*
X17584100Y-12362500D02*
X17544100Y-12402500D01*
X17721900Y-11016300D02*
X17761900Y-11056300D01*
X17761900Y-11016300D02*
X17721900Y-11056300D01*
X17772700Y-12565700D02*
X17812700Y-12605700D01*
X17812700Y-12565700D02*
X17772700Y-12605700D01*
X14118900Y-11137900D02*
G75*
G03X14118900Y-11137900I-60000J0D01*
G01*
X14372900Y-11137900D02*
G75*
G03X14372900Y-11137900I-60000J0D01*
G01*
X14626900Y-11137900D02*
G75*
G03X14626900Y-11137900I-60000J0D01*
G01*
X14880900Y-11137900D02*
G75*
G03X14880900Y-11137900I-60000J0D01*
G01*
X11832900Y-12534900D02*
G75*
G03X11832900Y-12534900I-60000J0D01*
G01*
X12086900Y-12534900D02*
G75*
G03X12086900Y-12534900I-60000J0D01*
G01*
X12340900Y-12534900D02*
G75*
G03X12340900Y-12534900I-60000J0D01*
G01*
X12594900Y-12534900D02*
G75*
G03X12594900Y-12534900I-60000J0D01*
G01*
X10550200Y-11823700D02*
G75*
G03X10550200Y-11823700I-60000J0D01*
G01*
X10804200Y-11823700D02*
G75*
G03X10804200Y-11823700I-60000J0D01*
G01*
X11058200Y-11823700D02*
G75*
G03X11058200Y-11823700I-60000J0D01*
G01*
X11312200Y-11823700D02*
G75*
G03X11312200Y-11823700I-60000J0D01*
G01*
X10550200Y-11137900D02*
G75*
G03X10550200Y-11137900I-60000J0D01*
G01*
X10804200Y-11137900D02*
G75*
G03X10804200Y-11137900I-60000J0D01*
G01*
X11058200Y-11137900D02*
G75*
G03X11058200Y-11137900I-60000J0D01*
G01*
X11312200Y-11137900D02*
G75*
G03X11312200Y-11137900I-60000J0D01*
G01*
X14118900Y-11823700D02*
G75*
G03X14118900Y-11823700I-60000J0D01*
G01*
X14372900Y-11823700D02*
G75*
G03X14372900Y-11823700I-60000J0D01*
G01*
X14626900Y-11823700D02*
G75*
G03X14626900Y-11823700I-60000J0D01*
G01*
X14880900Y-11823700D02*
G75*
G03X14880900Y-11823700I-60000J0D01*
G01*
X11832900Y-11163300D02*
G75*
G03X11832900Y-11163300I-60000J0D01*
G01*
X12086900Y-11163300D02*
G75*
G03X12086900Y-11163300I-60000J0D01*
G01*
X12340900Y-11163300D02*
G75*
G03X12340900Y-11163300I-60000J0D01*
G01*
X12594900Y-11163300D02*
G75*
G03X12594900Y-11163300I-60000J0D01*
G01*
X10550200Y-13195300D02*
G75*
G03X10550200Y-13195300I-60000J0D01*
G01*
X10804200Y-13195300D02*
G75*
G03X10804200Y-13195300I-60000J0D01*
G01*
X11058200Y-13195300D02*
G75*
G03X11058200Y-13195300I-60000J0D01*
G01*
X11312200Y-13195300D02*
G75*
G03X11312200Y-13195300I-60000J0D01*
G01*
X10550200Y-8305800D02*
G75*
G03X10550200Y-8305800I-60000J0D01*
G01*
X10804200Y-8305800D02*
G75*
G03X10804200Y-8305800I-60000J0D01*
G01*
X11058200Y-8305800D02*
G75*
G03X11058200Y-8305800I-60000J0D01*
G01*
X11312200Y-8305800D02*
G75*
G03X11312200Y-8305800I-60000J0D01*
G01*
X15490500Y-13246100D02*
G75*
G03X15490500Y-13246100I-60000J0D01*
G01*
X15744500Y-13246100D02*
G75*
G03X15744500Y-13246100I-60000J0D01*
G01*
X15998500Y-13246100D02*
G75*
G03X15998500Y-13246100I-60000J0D01*
G01*
X16252500Y-13246100D02*
G75*
G03X16252500Y-13246100I-60000J0D01*
G01*
X10550200Y-6248400D02*
G75*
G03X10550200Y-6248400I-60000J0D01*
G01*
X10804200Y-6248400D02*
G75*
G03X10804200Y-6248400I-60000J0D01*
G01*
X11058200Y-6248400D02*
G75*
G03X11058200Y-6248400I-60000J0D01*
G01*
X11312200Y-6248400D02*
G75*
G03X11312200Y-6248400I-60000J0D01*
G01*
X14118900Y-13195300D02*
G75*
G03X14118900Y-13195300I-60000J0D01*
G01*
X14372900Y-13195300D02*
G75*
G03X14372900Y-13195300I-60000J0D01*
G01*
X14626900Y-13195300D02*
G75*
G03X14626900Y-13195300I-60000J0D01*
G01*
X14880900Y-13195300D02*
G75*
G03X14880900Y-13195300I-60000J0D01*
G01*
X17573300Y-6654800D02*
G75*
G03X17573300Y-6654800I-60000J0D01*
G01*
X17573300Y-6908800D02*
G75*
G03X17573300Y-6908800I-60000J0D01*
G01*
X17573300Y-7162800D02*
G75*
G03X17573300Y-7162800I-60000J0D01*
G01*
X17573300Y-7416800D02*
G75*
G03X17573300Y-7416800I-60000J0D01*
G01*
X17573300Y-7670800D02*
G75*
G03X17573300Y-7670800I-60000J0D01*
G01*
X17573300Y-7924800D02*
G75*
G03X17573300Y-7924800I-60000J0D01*
G01*
X16989100Y-13246100D02*
G75*
G03X16989100Y-13246100I-60000J0D01*
G01*
X17243100Y-13246100D02*
G75*
G03X17243100Y-13246100I-60000J0D01*
G01*
X17497100Y-13246100D02*
G75*
G03X17497100Y-13246100I-60000J0D01*
G01*
X17751100Y-13246100D02*
G75*
G03X17751100Y-13246100I-60000J0D01*
G01*
X8264200Y-13220700D02*
G75*
G03X8264200Y-13220700I-60000J0D01*
G01*
X8518200Y-13220700D02*
G75*
G03X8518200Y-13220700I-60000J0D01*
G01*
X8772200Y-13220700D02*
G75*
G03X8772200Y-13220700I-60000J0D01*
G01*
X9026200Y-13220700D02*
G75*
G03X9026200Y-13220700I-60000J0D01*
G01*
X11832900Y-11849100D02*
G75*
G03X11832900Y-11849100I-60000J0D01*
G01*
X12086900Y-11849100D02*
G75*
G03X12086900Y-11849100I-60000J0D01*
G01*
X12340900Y-11849100D02*
G75*
G03X12340900Y-11849100I-60000J0D01*
G01*
X12594900Y-11849100D02*
G75*
G03X12594900Y-11849100I-60000J0D01*
G01*
X10550200Y-7620000D02*
G75*
G03X10550200Y-7620000I-60000J0D01*
G01*
X10804200Y-7620000D02*
G75*
G03X10804200Y-7620000I-60000J0D01*
G01*
X11058200Y-7620000D02*
G75*
G03X11058200Y-7620000I-60000J0D01*
G01*
X11312200Y-7620000D02*
G75*
G03X11312200Y-7620000I-60000J0D01*
G01*
X9407200Y-5638800D02*
G75*
G03X9407200Y-5638800I-60000J0D01*
G01*
X9661200Y-5638800D02*
G75*
G03X9661200Y-5638800I-60000J0D01*
G01*
X9915200Y-5638800D02*
G75*
G03X9915200Y-5638800I-60000J0D01*
G01*
X10169200Y-5638800D02*
G75*
G03X10169200Y-5638800I-60000J0D01*
G01*
X8264200Y-11163300D02*
G75*
G03X8264200Y-11163300I-60000J0D01*
G01*
X8518200Y-11163300D02*
G75*
G03X8518200Y-11163300I-60000J0D01*
G01*
X8772200Y-11163300D02*
G75*
G03X8772200Y-11163300I-60000J0D01*
G01*
X9026200Y-11163300D02*
G75*
G03X9026200Y-11163300I-60000J0D01*
G01*
X11832900Y-13220700D02*
G75*
G03X11832900Y-13220700I-60000J0D01*
G01*
X12086900Y-13220700D02*
G75*
G03X12086900Y-13220700I-60000J0D01*
G01*
X12340900Y-13220700D02*
G75*
G03X12340900Y-13220700I-60000J0D01*
G01*
X12594900Y-13220700D02*
G75*
G03X12594900Y-13220700I-60000J0D01*
G01*
X9407200Y-10528300D02*
G75*
G03X9407200Y-10528300I-60000J0D01*
G01*
X9661200Y-10528300D02*
G75*
G03X9661200Y-10528300I-60000J0D01*
G01*
X9915200Y-10528300D02*
G75*
G03X9915200Y-10528300I-60000J0D01*
G01*
X10169200Y-10528300D02*
G75*
G03X10169200Y-10528300I-60000J0D01*
G01*
X14093500Y-7289800D02*
G75*
G03X14093500Y-7289800I-60000J0D01*
G01*
X14093500Y-7543800D02*
G75*
G03X14093500Y-7543800I-60000J0D01*
G01*
X14093500Y-7797800D02*
G75*
G03X14093500Y-7797800I-60000J0D01*
G01*
X14093500Y-8051800D02*
G75*
G03X14093500Y-8051800I-60000J0D01*
G01*
X14093500Y-8305800D02*
G75*
G03X14093500Y-8305800I-60000J0D01*
G01*
X14093500Y-8559800D02*
G75*
G03X14093500Y-8559800I-60000J0D01*
G01*
X8264200Y-8331200D02*
G75*
G03X8264200Y-8331200I-60000J0D01*
G01*
X8518200Y-8331200D02*
G75*
G03X8518200Y-8331200I-60000J0D01*
G01*
X8772200Y-8331200D02*
G75*
G03X8772200Y-8331200I-60000J0D01*
G01*
X9026200Y-8331200D02*
G75*
G03X9026200Y-8331200I-60000J0D01*
G01*
X8264200Y-7645400D02*
G75*
G03X8264200Y-7645400I-60000J0D01*
G01*
X8518200Y-7645400D02*
G75*
G03X8518200Y-7645400I-60000J0D01*
G01*
X8772200Y-7645400D02*
G75*
G03X8772200Y-7645400I-60000J0D01*
G01*
X9026200Y-7645400D02*
G75*
G03X9026200Y-7645400I-60000J0D01*
G01*
X12975900Y-10528300D02*
G75*
G03X12975900Y-10528300I-60000J0D01*
G01*
X13229900Y-10528300D02*
G75*
G03X13229900Y-10528300I-60000J0D01*
G01*
X13483900Y-10528300D02*
G75*
G03X13483900Y-10528300I-60000J0D01*
G01*
X13737900Y-10528300D02*
G75*
G03X13737900Y-10528300I-60000J0D01*
G01*
X8264200Y-12534900D02*
G75*
G03X8264200Y-12534900I-60000J0D01*
G01*
X8518200Y-12534900D02*
G75*
G03X8518200Y-12534900I-60000J0D01*
G01*
X8772200Y-12534900D02*
G75*
G03X8772200Y-12534900I-60000J0D01*
G01*
X9026200Y-12534900D02*
G75*
G03X9026200Y-12534900I-60000J0D01*
G01*
X8264200Y-6959600D02*
G75*
G03X8264200Y-6959600I-60000J0D01*
G01*
X8518200Y-6959600D02*
G75*
G03X8518200Y-6959600I-60000J0D01*
G01*
X8772200Y-6959600D02*
G75*
G03X8772200Y-6959600I-60000J0D01*
G01*
X9026200Y-6959600D02*
G75*
G03X9026200Y-6959600I-60000J0D01*
G01*
X10550200Y-6934200D02*
G75*
G03X10550200Y-6934200I-60000J0D01*
G01*
X10804200Y-6934200D02*
G75*
G03X10804200Y-6934200I-60000J0D01*
G01*
X11058200Y-6934200D02*
G75*
G03X11058200Y-6934200I-60000J0D01*
G01*
X11312200Y-6934200D02*
G75*
G03X11312200Y-6934200I-60000J0D01*
G01*
X8264200Y-6273800D02*
G75*
G03X8264200Y-6273800I-60000J0D01*
G01*
X8518200Y-6273800D02*
G75*
G03X8518200Y-6273800I-60000J0D01*
G01*
X8772200Y-6273800D02*
G75*
G03X8772200Y-6273800I-60000J0D01*
G01*
X9026200Y-6273800D02*
G75*
G03X9026200Y-6273800I-60000J0D01*
G01*
X8264200Y-11849100D02*
G75*
G03X8264200Y-11849100I-60000J0D01*
G01*
X8518200Y-11849100D02*
G75*
G03X8518200Y-11849100I-60000J0D01*
G01*
X8772200Y-11849100D02*
G75*
G03X8772200Y-11849100I-60000J0D01*
G01*
X9026200Y-11849100D02*
G75*
G03X9026200Y-11849100I-60000J0D01*
G01*
X14118900Y-12509500D02*
G75*
G03X14118900Y-12509500I-60000J0D01*
G01*
X14372900Y-12509500D02*
G75*
G03X14372900Y-12509500I-60000J0D01*
G01*
X14626900Y-12509500D02*
G75*
G03X14626900Y-12509500I-60000J0D01*
G01*
X14880900Y-12509500D02*
G75*
G03X14880900Y-12509500I-60000J0D01*
G01*
X10550200Y-12509500D02*
G75*
G03X10550200Y-12509500I-60000J0D01*
G01*
X10804200Y-12509500D02*
G75*
G03X10804200Y-12509500I-60000J0D01*
G01*
X11058200Y-12509500D02*
G75*
G03X11058200Y-12509500I-60000J0D01*
G01*
X11312200Y-12509500D02*
G75*
G03X11312200Y-12509500I-60000J0D01*
G01*
X17310100Y-9464700D02*
X17310100Y-9864700D01*
X17110100Y-9664700D02*
X17510100Y-9664700D01*
X17487900Y-8385200D02*
X17487900Y-8785200D01*
X17287900Y-8585200D02*
X17687900Y-8585200D01*
X12128500Y-10125100D02*
X12128500Y-10525100D01*
X11928500Y-10325100D02*
X12328500Y-10325100D01*
X8559800Y-5235600D02*
X8559800Y-5635600D01*
X8359800Y-5435600D02*
X8759800Y-5435600D01*
X14008100Y-9020200D02*
X14008100Y-9420200D01*
X13808100Y-9220200D02*
X14208100Y-9220200D01*
X8610600Y-13909700D02*
X8610600Y-14309700D01*
X8410600Y-14109700D02*
X8810600Y-14109700D01*
X12052300Y-9020200D02*
X12052300Y-9420200D01*
X11852300Y-9220200D02*
X12252300Y-9220200D01*
X17310100Y-13909700D02*
X17310100Y-14309700D01*
X17110100Y-14109700D02*
X17510100Y-14109700D01*
X15811500Y-13909700D02*
X15811500Y-14309700D01*
X15611500Y-14109700D02*
X16011500Y-14109700D01*
X14008100Y-6378600D02*
X14008100Y-6778600D01*
X13808100Y-6578600D02*
X14208100Y-6578600D01*
X8559800Y-10125100D02*
X8559800Y-10525100D01*
X8359800Y-10325100D02*
X8759800Y-10325100D01*
X15532100Y-5743600D02*
X15532100Y-6143600D01*
X15332100Y-5943600D02*
X15732100Y-5943600D01*
X10871200Y-9020200D02*
X10871200Y-9420200D01*
X10671200Y-9220200D02*
X11071200Y-9220200D01*
X15811500Y-9464700D02*
X15811500Y-9864700D01*
X15611500Y-9664700D02*
X16011500Y-9664700D01*
X10871200Y-10125100D02*
X10871200Y-10525100D01*
X10671200Y-10325100D02*
X11071200Y-10325100D01*
X12179300Y-13909700D02*
X12179300Y-14309700D01*
X11979300Y-14109700D02*
X12379300Y-14109700D01*
X10871200Y-13909700D02*
X10871200Y-14309700D01*
X10671200Y-14109700D02*
X11071200Y-14109700D01*
X14439900Y-10125100D02*
X14439900Y-10525100D01*
X14239900Y-10325100D02*
X14639900Y-10325100D01*
X8610600Y-9020200D02*
X8610600Y-9420200D01*
X8410600Y-9220200D02*
X8810600Y-9220200D01*
X17487900Y-5743600D02*
X17487900Y-6143600D01*
X17287900Y-5943600D02*
X17687900Y-5943600D01*
X15532100Y-8385200D02*
X15532100Y-8785200D01*
X15332100Y-8585200D02*
X15732100Y-8585200D01*
X14439900Y-13909700D02*
X14439900Y-14309700D01*
X14239900Y-14109700D02*
X14639900Y-14109700D01*
X10871200Y-5235600D02*
X10871200Y-5635600D01*
X10671200Y-5435600D02*
X11071200Y-5435600D01*
X12052300Y-6378600D02*
X12052300Y-6778600D01*
X11852300Y-6578600D02*
X12252300Y-6578600D01*
D12*
X8279928Y-15065514D02*
X8279928Y-14765514D01*
X8351357Y-14765514D01*
X8394214Y-14779800D01*
X8422786Y-14808371D01*
X8437071Y-14836943D01*
X8451357Y-14894086D01*
X8451357Y-14936943D01*
X8437071Y-14994086D01*
X8422786Y-15022657D01*
X8394214Y-15051229D01*
X8351357Y-15065514D01*
X8279928Y-15065514D01*
X8579928Y-15065514D02*
X8579928Y-14865514D01*
X8579928Y-14922657D02*
X8594214Y-14894086D01*
X8608500Y-14879800D01*
X8637071Y-14865514D01*
X8665643Y-14865514D01*
X8765643Y-15065514D02*
X8765643Y-14865514D01*
X8765643Y-14765514D02*
X8751357Y-14779800D01*
X8765643Y-14794086D01*
X8779928Y-14779800D01*
X8765643Y-14765514D01*
X8765643Y-14794086D01*
X8951357Y-15065514D02*
X8922786Y-15051229D01*
X8908500Y-15022657D01*
X8908500Y-14765514D01*
X9108500Y-15065514D02*
X9079928Y-15051229D01*
X9065643Y-15022657D01*
X9065643Y-14765514D01*
X9451357Y-15065514D02*
X9451357Y-14765514D01*
X9551357Y-14979800D01*
X9651357Y-14765514D01*
X9651357Y-15065514D01*
X9922786Y-15065514D02*
X9922786Y-14908371D01*
X9908500Y-14879800D01*
X9879928Y-14865514D01*
X9822786Y-14865514D01*
X9794214Y-14879800D01*
X9922786Y-15051229D02*
X9894214Y-15065514D01*
X9822786Y-15065514D01*
X9794214Y-15051229D01*
X9779928Y-15022657D01*
X9779928Y-14994086D01*
X9794214Y-14965514D01*
X9822786Y-14951229D01*
X9894214Y-14951229D01*
X9922786Y-14936943D01*
X10065643Y-14865514D02*
X10065643Y-15165514D01*
X10065643Y-14879800D02*
X10094214Y-14865514D01*
X10151357Y-14865514D01*
X10179928Y-14879800D01*
X10194214Y-14894086D01*
X10208500Y-14922657D01*
X10208500Y-15008371D01*
X10194214Y-15036943D01*
X10179928Y-15051229D01*
X10151357Y-15065514D01*
X10094214Y-15065514D01*
X10065643Y-15051229D01*
X10337071Y-15036943D02*
X10351357Y-15051229D01*
X10337071Y-15065514D01*
X10322786Y-15051229D01*
X10337071Y-15036943D01*
X10337071Y-15065514D01*
X10337071Y-14879800D02*
X10351357Y-14894086D01*
X10337071Y-14908371D01*
X10322786Y-14894086D01*
X10337071Y-14879800D01*
X10337071Y-14908371D01*
X7953500Y-15539800D02*
X7993500Y-15579800D01*
X7993500Y-15539800D02*
X7953500Y-15579800D01*
X8337071Y-15395514D02*
X8365643Y-15395514D01*
X8394214Y-15409800D01*
X8408500Y-15424086D01*
X8422786Y-15452657D01*
X8437071Y-15509800D01*
X8437071Y-15581229D01*
X8422786Y-15638371D01*
X8408500Y-15666943D01*
X8394214Y-15681229D01*
X8365643Y-15695514D01*
X8337071Y-15695514D01*
X8308500Y-15681229D01*
X8294214Y-15666943D01*
X8279928Y-15638371D01*
X8265643Y-15581229D01*
X8265643Y-15509800D01*
X8279928Y-15452657D01*
X8294214Y-15424086D01*
X8308500Y-15409800D01*
X8337071Y-15395514D01*
X8565643Y-15666943D02*
X8579928Y-15681229D01*
X8565643Y-15695514D01*
X8551357Y-15681229D01*
X8565643Y-15666943D01*
X8565643Y-15695514D01*
X8837071Y-15495514D02*
X8837071Y-15695514D01*
X8765643Y-15381229D02*
X8694214Y-15595514D01*
X8879928Y-15595514D01*
X9051357Y-15395514D02*
X9079928Y-15395514D01*
X9108500Y-15409800D01*
X9122786Y-15424086D01*
X9137071Y-15452657D01*
X9151357Y-15509800D01*
X9151357Y-15581229D01*
X9137071Y-15638371D01*
X9122786Y-15666943D01*
X9108500Y-15681229D01*
X9079928Y-15695514D01*
X9051357Y-15695514D01*
X9022786Y-15681229D01*
X9008500Y-15666943D01*
X8994214Y-15638371D01*
X8979928Y-15581229D01*
X8979928Y-15509800D01*
X8994214Y-15452657D01*
X9008500Y-15424086D01*
X9022786Y-15409800D01*
X9051357Y-15395514D01*
X9279928Y-15695514D02*
X9279928Y-15495514D01*
X9279928Y-15524086D02*
X9294214Y-15509800D01*
X9322786Y-15495514D01*
X9365643Y-15495514D01*
X9394214Y-15509800D01*
X9408500Y-15538371D01*
X9408500Y-15695514D01*
X9408500Y-15538371D02*
X9422786Y-15509800D01*
X9451357Y-15495514D01*
X9494214Y-15495514D01*
X9522786Y-15509800D01*
X9537071Y-15538371D01*
X9537071Y-15695514D01*
X9679928Y-15695514D02*
X9679928Y-15495514D01*
X9679928Y-15524086D02*
X9694214Y-15509800D01*
X9722786Y-15495514D01*
X9765643Y-15495514D01*
X9794214Y-15509800D01*
X9808500Y-15538371D01*
X9808500Y-15695514D01*
X9808500Y-15538371D02*
X9822786Y-15509800D01*
X9851357Y-15495514D01*
X9894214Y-15495514D01*
X9922786Y-15509800D01*
X9937071Y-15538371D01*
X9937071Y-15695514D01*
X10522786Y-15381229D02*
X10265643Y-15766943D01*
X10908500Y-15395514D02*
X10937071Y-15395514D01*
X10965643Y-15409800D01*
X10979928Y-15424086D01*
X10994214Y-15452657D01*
X11008500Y-15509800D01*
X11008500Y-15581229D01*
X10994214Y-15638371D01*
X10979928Y-15666943D01*
X10965643Y-15681229D01*
X10937071Y-15695514D01*
X10908500Y-15695514D01*
X10879928Y-15681229D01*
X10865643Y-15666943D01*
X10851357Y-15638371D01*
X10837071Y-15581229D01*
X10837071Y-15509800D01*
X10851357Y-15452657D01*
X10865643Y-15424086D01*
X10879928Y-15409800D01*
X10908500Y-15395514D01*
X11137071Y-15666943D02*
X11151357Y-15681229D01*
X11137071Y-15695514D01*
X11122786Y-15681229D01*
X11137071Y-15666943D01*
X11137071Y-15695514D01*
X11337071Y-15395514D02*
X11365643Y-15395514D01*
X11394214Y-15409800D01*
X11408500Y-15424086D01*
X11422786Y-15452657D01*
X11437071Y-15509800D01*
X11437071Y-15581229D01*
X11422786Y-15638371D01*
X11408500Y-15666943D01*
X11394214Y-15681229D01*
X11365643Y-15695514D01*
X11337071Y-15695514D01*
X11308500Y-15681229D01*
X11294214Y-15666943D01*
X11279928Y-15638371D01*
X11265643Y-15581229D01*
X11265643Y-15509800D01*
X11279928Y-15452657D01*
X11294214Y-15424086D01*
X11308500Y-15409800D01*
X11337071Y-15395514D01*
X11722786Y-15695514D02*
X11551357Y-15695514D01*
X11637071Y-15695514D02*
X11637071Y-15395514D01*
X11608500Y-15438371D01*
X11579928Y-15466943D01*
X11551357Y-15481229D01*
X11979928Y-15395514D02*
X11922786Y-15395514D01*
X11894214Y-15409800D01*
X11879928Y-15424086D01*
X11851357Y-15466943D01*
X11837071Y-15524086D01*
X11837071Y-15638371D01*
X11851357Y-15666943D01*
X11865643Y-15681229D01*
X11894214Y-15695514D01*
X11951357Y-15695514D01*
X11979928Y-15681229D01*
X11994214Y-15666943D01*
X12008500Y-15638371D01*
X12008500Y-15566943D01*
X11994214Y-15538371D01*
X11979928Y-15524086D01*
X11951357Y-15509800D01*
X11894214Y-15509800D01*
X11865643Y-15524086D01*
X11851357Y-15538371D01*
X11837071Y-15566943D01*
X12122786Y-15395514D02*
X12122786Y-15452657D01*
X12237071Y-15395514D02*
X12237071Y-15452657D01*
X12679928Y-15809800D02*
X12665643Y-15795514D01*
X12637071Y-15752657D01*
X12622786Y-15724086D01*
X12608500Y-15681229D01*
X12594214Y-15609800D01*
X12594214Y-15552657D01*
X12608500Y-15481229D01*
X12622786Y-15438371D01*
X12637071Y-15409800D01*
X12665643Y-15366943D01*
X12679928Y-15352657D01*
X12951357Y-15695514D02*
X12779928Y-15695514D01*
X12865643Y-15695514D02*
X12865643Y-15395514D01*
X12837071Y-15438371D01*
X12808500Y-15466943D01*
X12779928Y-15481229D01*
X13237071Y-15695514D02*
X13065643Y-15695514D01*
X13151357Y-15695514D02*
X13151357Y-15395514D01*
X13122786Y-15438371D01*
X13094214Y-15466943D01*
X13065643Y-15481229D01*
X13422786Y-15395514D02*
X13451357Y-15395514D01*
X13479928Y-15409800D01*
X13494214Y-15424086D01*
X13508500Y-15452657D01*
X13522786Y-15509800D01*
X13522786Y-15581229D01*
X13508500Y-15638371D01*
X13494214Y-15666943D01*
X13479928Y-15681229D01*
X13451357Y-15695514D01*
X13422786Y-15695514D01*
X13394214Y-15681229D01*
X13379928Y-15666943D01*
X13365643Y-15638371D01*
X13351357Y-15581229D01*
X13351357Y-15509800D01*
X13365643Y-15452657D01*
X13379928Y-15424086D01*
X13394214Y-15409800D01*
X13422786Y-15395514D01*
X13879928Y-15695514D02*
X13879928Y-15395514D01*
X14008500Y-15695514D02*
X14008500Y-15538371D01*
X13994214Y-15509800D01*
X13965643Y-15495514D01*
X13922786Y-15495514D01*
X13894214Y-15509800D01*
X13879928Y-15524086D01*
X14194214Y-15695514D02*
X14165643Y-15681229D01*
X14151357Y-15666943D01*
X14137071Y-15638371D01*
X14137071Y-15552657D01*
X14151357Y-15524086D01*
X14165643Y-15509800D01*
X14194214Y-15495514D01*
X14237071Y-15495514D01*
X14265643Y-15509800D01*
X14279928Y-15524086D01*
X14294214Y-15552657D01*
X14294214Y-15638371D01*
X14279928Y-15666943D01*
X14265643Y-15681229D01*
X14237071Y-15695514D01*
X14194214Y-15695514D01*
X14465643Y-15695514D02*
X14437071Y-15681229D01*
X14422786Y-15652657D01*
X14422786Y-15395514D01*
X14694214Y-15681229D02*
X14665643Y-15695514D01*
X14608500Y-15695514D01*
X14579928Y-15681229D01*
X14565643Y-15652657D01*
X14565643Y-15538371D01*
X14579928Y-15509800D01*
X14608500Y-15495514D01*
X14665643Y-15495514D01*
X14694214Y-15509800D01*
X14708500Y-15538371D01*
X14708500Y-15566943D01*
X14565643Y-15595514D01*
X14822786Y-15681229D02*
X14851357Y-15695514D01*
X14908500Y-15695514D01*
X14937071Y-15681229D01*
X14951357Y-15652657D01*
X14951357Y-15638371D01*
X14937071Y-15609800D01*
X14908500Y-15595514D01*
X14865643Y-15595514D01*
X14837071Y-15581229D01*
X14822786Y-15552657D01*
X14822786Y-15538371D01*
X14837071Y-15509800D01*
X14865643Y-15495514D01*
X14908500Y-15495514D01*
X14937071Y-15509800D01*
X15051357Y-15809800D02*
X15065643Y-15795514D01*
X15094214Y-15752657D01*
X15108500Y-15724086D01*
X15122786Y-15681229D01*
X15137071Y-15609800D01*
X15137071Y-15552657D01*
X15122786Y-15481229D01*
X15108500Y-15438371D01*
X15094214Y-15409800D01*
X15065643Y-15366943D01*
X15051357Y-15352657D01*
X7993500Y-15955800D02*
G75*
G03X7993500Y-15955800I-60000J0D01*
G01*
X8437071Y-16091514D02*
X8265643Y-16091514D01*
X8351357Y-16091514D02*
X8351357Y-15791514D01*
X8322786Y-15834371D01*
X8294214Y-15862943D01*
X8265643Y-15877229D01*
X8565643Y-16062943D02*
X8579928Y-16077229D01*
X8565643Y-16091514D01*
X8551357Y-16077229D01*
X8565643Y-16062943D01*
X8565643Y-16091514D01*
X8694214Y-15820086D02*
X8708500Y-15805800D01*
X8737071Y-15791514D01*
X8808500Y-15791514D01*
X8837071Y-15805800D01*
X8851357Y-15820086D01*
X8865643Y-15848657D01*
X8865643Y-15877229D01*
X8851357Y-15920086D01*
X8679928Y-16091514D01*
X8865643Y-16091514D01*
X9051357Y-15791514D02*
X9079928Y-15791514D01*
X9108500Y-15805800D01*
X9122786Y-15820086D01*
X9137071Y-15848657D01*
X9151357Y-15905800D01*
X9151357Y-15977229D01*
X9137071Y-16034371D01*
X9122786Y-16062943D01*
X9108500Y-16077229D01*
X9079928Y-16091514D01*
X9051357Y-16091514D01*
X9022786Y-16077229D01*
X9008500Y-16062943D01*
X8994214Y-16034371D01*
X8979928Y-15977229D01*
X8979928Y-15905800D01*
X8994214Y-15848657D01*
X9008500Y-15820086D01*
X9022786Y-15805800D01*
X9051357Y-15791514D01*
X9279928Y-16091514D02*
X9279928Y-15891514D01*
X9279928Y-15920086D02*
X9294214Y-15905800D01*
X9322786Y-15891514D01*
X9365643Y-15891514D01*
X9394214Y-15905800D01*
X9408500Y-15934371D01*
X9408500Y-16091514D01*
X9408500Y-15934371D02*
X9422786Y-15905800D01*
X9451357Y-15891514D01*
X9494214Y-15891514D01*
X9522786Y-15905800D01*
X9537071Y-15934371D01*
X9537071Y-16091514D01*
X9679928Y-16091514D02*
X9679928Y-15891514D01*
X9679928Y-15920086D02*
X9694214Y-15905800D01*
X9722786Y-15891514D01*
X9765643Y-15891514D01*
X9794214Y-15905800D01*
X9808500Y-15934371D01*
X9808500Y-16091514D01*
X9808500Y-15934371D02*
X9822786Y-15905800D01*
X9851357Y-15891514D01*
X9894214Y-15891514D01*
X9922786Y-15905800D01*
X9937071Y-15934371D01*
X9937071Y-16091514D01*
X10522786Y-15777229D02*
X10265643Y-16162943D01*
X10908500Y-15791514D02*
X10937071Y-15791514D01*
X10965643Y-15805800D01*
X10979928Y-15820086D01*
X10994214Y-15848657D01*
X11008500Y-15905800D01*
X11008500Y-15977229D01*
X10994214Y-16034371D01*
X10979928Y-16062943D01*
X10965643Y-16077229D01*
X10937071Y-16091514D01*
X10908500Y-16091514D01*
X10879928Y-16077229D01*
X10865643Y-16062943D01*
X10851357Y-16034371D01*
X10837071Y-15977229D01*
X10837071Y-15905800D01*
X10851357Y-15848657D01*
X10865643Y-15820086D01*
X10879928Y-15805800D01*
X10908500Y-15791514D01*
X11137071Y-16062943D02*
X11151357Y-16077229D01*
X11137071Y-16091514D01*
X11122786Y-16077229D01*
X11137071Y-16062943D01*
X11137071Y-16091514D01*
X11337071Y-15791514D02*
X11365643Y-15791514D01*
X11394214Y-15805800D01*
X11408500Y-15820086D01*
X11422786Y-15848657D01*
X11437071Y-15905800D01*
X11437071Y-15977229D01*
X11422786Y-16034371D01*
X11408500Y-16062943D01*
X11394214Y-16077229D01*
X11365643Y-16091514D01*
X11337071Y-16091514D01*
X11308500Y-16077229D01*
X11294214Y-16062943D01*
X11279928Y-16034371D01*
X11265643Y-15977229D01*
X11265643Y-15905800D01*
X11279928Y-15848657D01*
X11294214Y-15820086D01*
X11308500Y-15805800D01*
X11337071Y-15791514D01*
X11694214Y-15891514D02*
X11694214Y-16091514D01*
X11622786Y-15777229D02*
X11551357Y-15991514D01*
X11737071Y-15991514D01*
X11822786Y-15791514D02*
X12022786Y-15791514D01*
X11894214Y-16091514D01*
X12122786Y-15791514D02*
X12122786Y-15848657D01*
X12237071Y-15791514D02*
X12237071Y-15848657D01*
X12679928Y-16205800D02*
X12665643Y-16191514D01*
X12637071Y-16148657D01*
X12622786Y-16120086D01*
X12608500Y-16077229D01*
X12594214Y-16005800D01*
X12594214Y-15948657D01*
X12608500Y-15877229D01*
X12622786Y-15834371D01*
X12637071Y-15805800D01*
X12665643Y-15762943D01*
X12679928Y-15748657D01*
X12951357Y-16091514D02*
X12779928Y-16091514D01*
X12865643Y-16091514D02*
X12865643Y-15791514D01*
X12837071Y-15834371D01*
X12808500Y-15862943D01*
X12779928Y-15877229D01*
X13065643Y-15820086D02*
X13079928Y-15805800D01*
X13108500Y-15791514D01*
X13179928Y-15791514D01*
X13208500Y-15805800D01*
X13222786Y-15820086D01*
X13237071Y-15848657D01*
X13237071Y-15877229D01*
X13222786Y-15920086D01*
X13051357Y-16091514D01*
X13237071Y-16091514D01*
X13408500Y-15920086D02*
X13379928Y-15905800D01*
X13365643Y-15891514D01*
X13351357Y-15862943D01*
X13351357Y-15848657D01*
X13365643Y-15820086D01*
X13379928Y-15805800D01*
X13408500Y-15791514D01*
X13465643Y-15791514D01*
X13494214Y-15805800D01*
X13508500Y-15820086D01*
X13522786Y-15848657D01*
X13522786Y-15862943D01*
X13508500Y-15891514D01*
X13494214Y-15905800D01*
X13465643Y-15920086D01*
X13408500Y-15920086D01*
X13379928Y-15934371D01*
X13365643Y-15948657D01*
X13351357Y-15977229D01*
X13351357Y-16034371D01*
X13365643Y-16062943D01*
X13379928Y-16077229D01*
X13408500Y-16091514D01*
X13465643Y-16091514D01*
X13494214Y-16077229D01*
X13508500Y-16062943D01*
X13522786Y-16034371D01*
X13522786Y-15977229D01*
X13508500Y-15948657D01*
X13494214Y-15934371D01*
X13465643Y-15920086D01*
X13879928Y-16091514D02*
X13879928Y-15791514D01*
X14008500Y-16091514D02*
X14008500Y-15934371D01*
X13994214Y-15905800D01*
X13965643Y-15891514D01*
X13922786Y-15891514D01*
X13894214Y-15905800D01*
X13879928Y-15920086D01*
X14194214Y-16091514D02*
X14165643Y-16077229D01*
X14151357Y-16062943D01*
X14137071Y-16034371D01*
X14137071Y-15948657D01*
X14151357Y-15920086D01*
X14165643Y-15905800D01*
X14194214Y-15891514D01*
X14237071Y-15891514D01*
X14265643Y-15905800D01*
X14279928Y-15920086D01*
X14294214Y-15948657D01*
X14294214Y-16034371D01*
X14279928Y-16062943D01*
X14265643Y-16077229D01*
X14237071Y-16091514D01*
X14194214Y-16091514D01*
X14465643Y-16091514D02*
X14437071Y-16077229D01*
X14422786Y-16048657D01*
X14422786Y-15791514D01*
X14694214Y-16077229D02*
X14665643Y-16091514D01*
X14608500Y-16091514D01*
X14579928Y-16077229D01*
X14565643Y-16048657D01*
X14565643Y-15934371D01*
X14579928Y-15905800D01*
X14608500Y-15891514D01*
X14665643Y-15891514D01*
X14694214Y-15905800D01*
X14708500Y-15934371D01*
X14708500Y-15962943D01*
X14565643Y-15991514D01*
X14822786Y-16077229D02*
X14851357Y-16091514D01*
X14908500Y-16091514D01*
X14937071Y-16077229D01*
X14951357Y-16048657D01*
X14951357Y-16034371D01*
X14937071Y-16005800D01*
X14908500Y-15991514D01*
X14865643Y-15991514D01*
X14837071Y-15977229D01*
X14822786Y-15948657D01*
X14822786Y-15934371D01*
X14837071Y-15905800D01*
X14865643Y-15891514D01*
X14908500Y-15891514D01*
X14937071Y-15905800D01*
X15051357Y-16205800D02*
X15065643Y-16191514D01*
X15094214Y-16148657D01*
X15108500Y-16120086D01*
X15122786Y-16077229D01*
X15137071Y-16005800D01*
X15137071Y-15948657D01*
X15122786Y-15877229D01*
X15108500Y-15834371D01*
X15094214Y-15805800D01*
X15065643Y-15762943D01*
X15051357Y-15748657D01*
X7793500Y-16151800D02*
X7793500Y-16551800D01*
X7593500Y-16351800D02*
X7993500Y-16351800D01*
X8408500Y-16287514D02*
X8408500Y-16487514D01*
X8337071Y-16173229D02*
X8265643Y-16387514D01*
X8451357Y-16387514D01*
X8565643Y-16458943D02*
X8579928Y-16473229D01*
X8565643Y-16487514D01*
X8551357Y-16473229D01*
X8565643Y-16458943D01*
X8565643Y-16487514D01*
X8765643Y-16187514D02*
X8794214Y-16187514D01*
X8822786Y-16201800D01*
X8837071Y-16216086D01*
X8851357Y-16244657D01*
X8865643Y-16301800D01*
X8865643Y-16373229D01*
X8851357Y-16430371D01*
X8837071Y-16458943D01*
X8822786Y-16473229D01*
X8794214Y-16487514D01*
X8765643Y-16487514D01*
X8737071Y-16473229D01*
X8722786Y-16458943D01*
X8708500Y-16430371D01*
X8694214Y-16373229D01*
X8694214Y-16301800D01*
X8708500Y-16244657D01*
X8722786Y-16216086D01*
X8737071Y-16201800D01*
X8765643Y-16187514D01*
X9051357Y-16187514D02*
X9079928Y-16187514D01*
X9108500Y-16201800D01*
X9122786Y-16216086D01*
X9137071Y-16244657D01*
X9151357Y-16301800D01*
X9151357Y-16373229D01*
X9137071Y-16430371D01*
X9122786Y-16458943D01*
X9108500Y-16473229D01*
X9079928Y-16487514D01*
X9051357Y-16487514D01*
X9022786Y-16473229D01*
X9008500Y-16458943D01*
X8994214Y-16430371D01*
X8979928Y-16373229D01*
X8979928Y-16301800D01*
X8994214Y-16244657D01*
X9008500Y-16216086D01*
X9022786Y-16201800D01*
X9051357Y-16187514D01*
X9279928Y-16487514D02*
X9279928Y-16287514D01*
X9279928Y-16316086D02*
X9294214Y-16301800D01*
X9322786Y-16287514D01*
X9365643Y-16287514D01*
X9394214Y-16301800D01*
X9408500Y-16330371D01*
X9408500Y-16487514D01*
X9408500Y-16330371D02*
X9422786Y-16301800D01*
X9451357Y-16287514D01*
X9494214Y-16287514D01*
X9522786Y-16301800D01*
X9537071Y-16330371D01*
X9537071Y-16487514D01*
X9679928Y-16487514D02*
X9679928Y-16287514D01*
X9679928Y-16316086D02*
X9694214Y-16301800D01*
X9722786Y-16287514D01*
X9765643Y-16287514D01*
X9794214Y-16301800D01*
X9808500Y-16330371D01*
X9808500Y-16487514D01*
X9808500Y-16330371D02*
X9822786Y-16301800D01*
X9851357Y-16287514D01*
X9894214Y-16287514D01*
X9922786Y-16301800D01*
X9937071Y-16330371D01*
X9937071Y-16487514D01*
X10522786Y-16173229D02*
X10265643Y-16558943D01*
X10908500Y-16187514D02*
X10937071Y-16187514D01*
X10965643Y-16201800D01*
X10979928Y-16216086D01*
X10994214Y-16244657D01*
X11008500Y-16301800D01*
X11008500Y-16373229D01*
X10994214Y-16430371D01*
X10979928Y-16458943D01*
X10965643Y-16473229D01*
X10937071Y-16487514D01*
X10908500Y-16487514D01*
X10879928Y-16473229D01*
X10865643Y-16458943D01*
X10851357Y-16430371D01*
X10837071Y-16373229D01*
X10837071Y-16301800D01*
X10851357Y-16244657D01*
X10865643Y-16216086D01*
X10879928Y-16201800D01*
X10908500Y-16187514D01*
X11137071Y-16458943D02*
X11151357Y-16473229D01*
X11137071Y-16487514D01*
X11122786Y-16473229D01*
X11137071Y-16458943D01*
X11137071Y-16487514D01*
X11437071Y-16487514D02*
X11265643Y-16487514D01*
X11351357Y-16487514D02*
X11351357Y-16187514D01*
X11322786Y-16230371D01*
X11294214Y-16258943D01*
X11265643Y-16273229D01*
X11708500Y-16187514D02*
X11565643Y-16187514D01*
X11551357Y-16330371D01*
X11565643Y-16316086D01*
X11594214Y-16301800D01*
X11665643Y-16301800D01*
X11694214Y-16316086D01*
X11708500Y-16330371D01*
X11722786Y-16358943D01*
X11722786Y-16430371D01*
X11708500Y-16458943D01*
X11694214Y-16473229D01*
X11665643Y-16487514D01*
X11594214Y-16487514D01*
X11565643Y-16473229D01*
X11551357Y-16458943D01*
X11822786Y-16187514D02*
X12022786Y-16187514D01*
X11894214Y-16487514D01*
X12122786Y-16187514D02*
X12122786Y-16244657D01*
X12237071Y-16187514D02*
X12237071Y-16244657D01*
X12679928Y-16601800D02*
X12665643Y-16587514D01*
X12637071Y-16544657D01*
X12622786Y-16516086D01*
X12608500Y-16473229D01*
X12594214Y-16401800D01*
X12594214Y-16344657D01*
X12608500Y-16273229D01*
X12622786Y-16230371D01*
X12637071Y-16201800D01*
X12665643Y-16158943D01*
X12679928Y-16144657D01*
X12779928Y-16216086D02*
X12794214Y-16201800D01*
X12822786Y-16187514D01*
X12894214Y-16187514D01*
X12922786Y-16201800D01*
X12937071Y-16216086D01*
X12951357Y-16244657D01*
X12951357Y-16273229D01*
X12937071Y-16316086D01*
X12765643Y-16487514D01*
X12951357Y-16487514D01*
X13208500Y-16287514D02*
X13208500Y-16487514D01*
X13137071Y-16173229D02*
X13065643Y-16387514D01*
X13251357Y-16387514D01*
X13594214Y-16487514D02*
X13594214Y-16187514D01*
X13722786Y-16487514D02*
X13722786Y-16330371D01*
X13708500Y-16301800D01*
X13679928Y-16287514D01*
X13637071Y-16287514D01*
X13608500Y-16301800D01*
X13594214Y-16316086D01*
X13908500Y-16487514D02*
X13879928Y-16473229D01*
X13865643Y-16458943D01*
X13851357Y-16430371D01*
X13851357Y-16344657D01*
X13865643Y-16316086D01*
X13879928Y-16301800D01*
X13908500Y-16287514D01*
X13951357Y-16287514D01*
X13979928Y-16301800D01*
X13994214Y-16316086D01*
X14008500Y-16344657D01*
X14008500Y-16430371D01*
X13994214Y-16458943D01*
X13979928Y-16473229D01*
X13951357Y-16487514D01*
X13908500Y-16487514D01*
X14179928Y-16487514D02*
X14151357Y-16473229D01*
X14137071Y-16444657D01*
X14137071Y-16187514D01*
X14408500Y-16473229D02*
X14379928Y-16487514D01*
X14322786Y-16487514D01*
X14294214Y-16473229D01*
X14279928Y-16444657D01*
X14279928Y-16330371D01*
X14294214Y-16301800D01*
X14322786Y-16287514D01*
X14379928Y-16287514D01*
X14408500Y-16301800D01*
X14422786Y-16330371D01*
X14422786Y-16358943D01*
X14279928Y-16387514D01*
X14537071Y-16473229D02*
X14565643Y-16487514D01*
X14622786Y-16487514D01*
X14651357Y-16473229D01*
X14665643Y-16444657D01*
X14665643Y-16430371D01*
X14651357Y-16401800D01*
X14622786Y-16387514D01*
X14579928Y-16387514D01*
X14551357Y-16373229D01*
X14537071Y-16344657D01*
X14537071Y-16330371D01*
X14551357Y-16301800D01*
X14579928Y-16287514D01*
X14622786Y-16287514D01*
X14651357Y-16301800D01*
X14765643Y-16601800D02*
X14779928Y-16587514D01*
X14808500Y-16544657D01*
X14822786Y-16516086D01*
X14837071Y-16473229D01*
X14851357Y-16401800D01*
X14851357Y-16344657D01*
X14837071Y-16273229D01*
X14822786Y-16230371D01*
X14808500Y-16201800D01*
X14779928Y-16158943D01*
X14765643Y-16144657D01*
M02*
