M48
;DRILL file {KiCad 5.0.2+dfsg1-1~bpo9+1} date dim. 19 janv. 2020 21:42:25 CET
;FORMAT={-:-/ absolute / inch / decimal}
FMAT,2
INCH,TZ
T1C0.0157
T2C0.0472
T3C0.1575
%
G90
G05
T1
X3.69Y-3.26
X3.69Y-3.48
X3.69Y-5.185
X3.69Y-5.405
X3.71Y-2.6
X3.71Y-4.525
X3.72Y-3.18
X3.72Y-5.105
X3.79Y-3.48
X3.79Y-5.405
X3.8105Y-2.34
X3.8105Y-4.265
X3.89Y-3.26
X3.89Y-3.48
X3.89Y-5.185
X3.89Y-5.405
X3.9Y-3.04
X3.9Y-4.965
X3.94Y-2.6
X3.94Y-4.525
X4.775Y-3.04
X4.775Y-3.1
X4.835Y-3.29
X4.895Y-3.24
X4.925Y-3.35
X4.925Y-3.4
X4.925Y-3.45
X4.935Y-2.88
X4.955Y-2.84
X4.955Y-2.84
X4.975Y-2.8
X5.095Y-5.185
X5.095Y-5.405
X5.115Y-4.525
X5.125Y-5.105
X5.145Y-2.88
X5.165Y-2.55
X5.165Y-3.08
X5.165Y-3.76
X5.195Y-5.405
X5.205Y-3.3
X5.2155Y-4.265
X5.245Y-2.64
X5.245Y-2.82
X5.275Y-3.08
X5.275Y-3.3
X5.295Y-5.185
X5.295Y-5.405
X5.305Y-4.965
X5.315Y-2.82
X5.345Y-3.3
X5.345Y-4.525
X5.355Y-2.88
X5.985Y-4.725
X6.065Y-4.365
X6.105Y-4.885
X6.145Y-2.79
X6.145Y-2.85
X6.175Y-4.065
X6.175Y-4.225
X6.205Y-3.04
X6.255Y-4.065
X6.265Y-2.99
X6.295Y-3.1
X6.295Y-3.15
X6.295Y-3.2
X6.295Y-4.165
X6.305Y-2.63
X6.3245Y-4.485
X6.325Y-2.59
X6.325Y-2.59
X6.325Y-4.395
X6.325Y-4.565
X6.325Y-4.635
X6.325Y-4.635
X6.325Y-4.715
X6.325Y-4.795
X6.325Y-4.875
X6.345Y-2.55
X6.395Y-4.345
X6.415Y-4.955
X6.515Y-2.63
X6.535Y-2.3
X6.535Y-2.83
X6.535Y-3.51
X6.575Y-3.05
X6.575Y-4.725
X6.615Y-2.39
X6.615Y-2.57
X6.645Y-2.83
X6.645Y-3.05
X6.655Y-4.365
X6.685Y-2.57
X6.695Y-4.885
X6.715Y-3.05
X6.725Y-2.63
X6.765Y-4.065
X6.765Y-4.225
X6.845Y-4.065
X6.885Y-4.165
X6.9145Y-4.485
X6.915Y-4.395
X6.915Y-4.565
X6.915Y-4.635
X6.915Y-4.635
X6.915Y-4.715
X6.915Y-4.795
X6.915Y-4.875
X6.985Y-4.345
X7.005Y-4.955
T2
X5.535Y-4.385
X5.635Y-4.385
X5.735Y-4.385
X5.835Y-4.385
X4.635Y-4.935
X4.735Y-4.935
X4.835Y-4.935
X4.935Y-4.935
X4.13Y-4.655
X4.23Y-4.655
X4.33Y-4.655
X4.43Y-4.655
X4.13Y-4.385
X4.23Y-4.385
X4.33Y-4.385
X4.43Y-4.385
X5.535Y-4.655
X5.635Y-4.655
X5.735Y-4.655
X5.835Y-4.655
X4.635Y-4.395
X4.735Y-4.395
X4.835Y-4.395
X4.935Y-4.395
X4.13Y-5.195
X4.23Y-5.195
X4.33Y-5.195
X4.43Y-5.195
X4.13Y-3.27
X4.23Y-3.27
X4.33Y-3.27
X4.43Y-3.27
X6.075Y-5.215
X6.175Y-5.215
X6.275Y-5.215
X6.375Y-5.215
X4.13Y-2.46
X4.23Y-2.46
X4.33Y-2.46
X4.43Y-2.46
X5.535Y-5.195
X5.635Y-5.195
X5.735Y-5.195
X5.835Y-5.195
X6.895Y-2.62
X6.895Y-2.72
X6.895Y-2.82
X6.895Y-2.92
X6.895Y-3.02
X6.895Y-3.12
X6.665Y-5.215
X6.765Y-5.215
X6.865Y-5.215
X6.965Y-5.215
X3.23Y-5.205
X3.33Y-5.205
X3.43Y-5.205
X3.53Y-5.205
X4.635Y-4.665
X4.735Y-4.665
X4.835Y-4.665
X4.935Y-4.665
X4.13Y-3.
X4.23Y-3.
X4.33Y-3.
X4.43Y-3.
X3.68Y-2.22
X3.78Y-2.22
X3.88Y-2.22
X3.98Y-2.22
X3.23Y-4.395
X3.33Y-4.395
X3.43Y-4.395
X3.53Y-4.395
X4.635Y-5.205
X4.735Y-5.205
X4.835Y-5.205
X4.935Y-5.205
X3.68Y-4.145
X3.78Y-4.145
X3.88Y-4.145
X3.98Y-4.145
X5.525Y-2.87
X5.525Y-2.97
X5.525Y-3.07
X5.525Y-3.17
X5.525Y-3.27
X5.525Y-3.37
X3.23Y-3.28
X3.33Y-3.28
X3.43Y-3.28
X3.53Y-3.28
X3.23Y-3.01
X3.33Y-3.01
X3.43Y-3.01
X3.53Y-3.01
X5.085Y-4.145
X5.185Y-4.145
X5.285Y-4.145
X5.385Y-4.145
X3.23Y-4.935
X3.33Y-4.935
X3.43Y-4.935
X3.53Y-4.935
X3.23Y-2.74
X3.33Y-2.74
X3.43Y-2.74
X3.53Y-2.74
X4.13Y-2.73
X4.23Y-2.73
X4.33Y-2.73
X4.43Y-2.73
X3.23Y-2.47
X3.33Y-2.47
X3.43Y-2.47
X3.53Y-2.47
X3.23Y-4.665
X3.33Y-4.665
X3.43Y-4.665
X3.53Y-4.665
X5.535Y-4.925
X5.635Y-4.925
X5.735Y-4.925
X5.835Y-4.925
X4.13Y-4.925
X4.23Y-4.925
X4.33Y-4.925
X4.43Y-4.925
T3
X6.815Y-3.805
X6.885Y-3.38
X4.775Y-4.065
X3.37Y-2.14
X5.515Y-3.63
X3.39Y-5.555
X4.745Y-3.63
X6.815Y-5.555
X6.225Y-5.555
X5.515Y-2.59
X3.37Y-4.065
X6.115Y-2.34
X4.28Y-3.63
X6.225Y-3.805
X4.28Y-4.065
X4.795Y-5.555
X4.28Y-5.555
X5.685Y-4.065
X3.39Y-3.63
X6.885Y-2.34
X6.115Y-3.38
X5.685Y-5.555
X4.28Y-2.14
X4.745Y-2.59
T0
M30
