<?xml version="1.0" standalone="no"?>
 <!DOCTYPE svg PUBLIC "-//W3C//DTD SVG 1.1//EN" 
 "http://www.w3.org/Graphics/SVG/1.1/DTD/svg11.dtd"> 
<svg xmlns="http://www.w3.org/2000/svg" version="1.1" 
    width="29.7002cm" height="21.0007cm" viewBox="0 0 116929 82679 ">
<title>SVG Picture created as Power Supply Board.svg date 2014/06/09 21:18:17 </title>
  <desc>Picture generated by Eeschema-SVG </desc>
<g style="fill:#000000; fill-opacity:1;stroke:#000000; stroke-opacity:1;
stroke-linecap:round; stroke-linejoin:round; "
 transform="translate(0 0) scale(1 1)">
</g>
<g style="fill:#9F0000; fill-opacity:0.0; 
stroke:#9F0000; stroke-width:100; stroke-opacity:1; 
stroke-linecap:round; stroke-linejoin:round;">
<path d="M4000 4000
L112930 4000
L112930 78680
L4000 78680
L4000 4000
" />
<path d="M4700 4700
L112230 4700
L112230 77980
L4700 77980
L4700 4700
" />
<path d="M25780 4000
L25780 4700
" />
<path d="M15030 4550
L14750 4550
" />
<path d="M14890 4550
L14890 4050
L14840 4120
L14790 4170
L14750 4200
" />
<path d="M25780 78680
L25780 77980
" />
<path d="M15030 78530
L14750 78530
" />
<path d="M14890 78530
L14890 78030
L14840 78100
L14790 78150
L14750 78180
" />
<path d="M47560 4000
L47560 4700
" />
<path d="M36530 4100
L36550 4080
L36600 4050
L36720 4050
L36760 4080
L36790 4100
L36810 4150
L36810 4200
L36790 4270
L36500 4550
L36810 4550
" />
<path d="M47560 78680
L47560 77980
" />
<path d="M36530 78080
L36550 78060
L36600 78030
L36720 78030
L36760 78060
L36790 78080
L36810 78130
L36810 78180
L36790 78250
L36500 78530
L36810 78530
" />
<path d="M69340 4000
L69340 4700
" />
<path d="M58280 4050
L58590 4050
L58420 4240
L58500 4240
L58540 4270
L58570 4290
L58590 4340
L58590 4460
L58570 4500
L58540 4530
L58500 4550
L58350 4550
L58310 4530
L58280 4500
" />
<path d="M69340 78680
L69340 77980
" />
<path d="M58280 78030
L58590 78030
L58420 78220
L58500 78220
L58540 78250
L58570 78270
L58590 78320
L58590 78440
L58570 78480
L58540 78510
L58500 78530
L58350 78530
L58310 78510
L58280 78480
" />
<path d="M91120 4000
L91120 4700
" />
<path d="M80320 4220
L80320 4550
" />
<path d="M80200 4030
L80090 4390
L80390 4390
" />
<path d="M91120 78680
L91120 77980
" />
<path d="M80320 78200
L80320 78530
" />
<path d="M80200 78010
L80090 78370
L80390 78370
" />
<path d="M102130 4050
L101890 4050
L101870 4290
L101890 4270
L101940 4240
L102060 4240
L102100 4270
L102130 4290
L102150 4340
L102150 4460
L102130 4500
L102100 4530
L102060 4550
L101940 4550
L101890 4530
L101870 4500
" />
<path d="M102130 78030
L101890 78030
L101870 78270
L101890 78250
L101940 78220
L102060 78220
L102100 78250
L102130 78270
L102150 78320
L102150 78440
L102130 78480
L102100 78510
L102060 78530
L101940 78530
L101890 78510
L101870 78480
" />
<path d="M4000 28890
L4700 28890
" />
<path d="M4240 16510
L4470 16510
" />
<path d="M4190 16650
L4350 16150
L4520 16650
" />
<path d="M112930 28890
L112230 28890
" />
<path d="M112470 16510
L112700 16510
" />
<path d="M112420 16650
L112580 16150
L112750 16650
" />
<path d="M4000 53780
L4700 53780
" />
<path d="M4390 41280
L4460 41300
L4480 41330
L4500 41380
L4500 41450
L4480 41490
L4460 41520
L4410 41540
L4220 41540
L4220 41040
L4390 41040
L4430 41070
L4460 41090
L4480 41140
L4480 41190
L4460 41230
L4430 41260
L4390 41280
L4220 41280
" />
<path d="M112930 53780
L112230 53780
" />
<path d="M112620 41280
L112690 41300
L112710 41330
L112730 41380
L112730 41450
L112710 41490
L112690 41520
L112640 41540
L112450 41540
L112450 41040
L112620 41040
L112660 41070
L112690 41090
L112710 41140
L112710 41190
L112690 41230
L112660 41260
L112620 41280
L112450 41280
" />
<path d="M4500 66380
L4480 66410
L4410 66430
L4360 66430
L4290 66410
L4240 66360
L4220 66310
L4200 66220
L4200 66150
L4220 66050
L4240 66000
L4290 65960
L4360 65930
L4410 65930
L4480 65960
L4500 65980
" />
<path d="M112730 66380
L112710 66410
L112640 66430
L112590 66430
L112520 66410
L112470 66360
L112450 66310
L112430 66220
L112430 66150
L112450 66050
L112470 66000
L112520 65960
L112590 65930
L112640 65930
L112710 65960
L112730 65980
" />
<path d="M79380 76420
L79450 75820
L79600 75820
L79680 75850
L79730 75910
L79750 75970
L79770 76080
L79760 76170
L79720 76280
L79680 76340
L79610 76390
L79530 76420
L79380 76420
" />
<path d="M80240 76420
L80280 76110
L80250 76050
L80200 76020
L80090 76020
L80020 76050
" />
<path d="M80240 76390
L80180 76420
L80040 76420
L79980 76390
L79960 76340
L79970 76280
L80000 76220
L80070 76190
L80210 76190
L80270 76170
" />
<path d="M80490 76020
L80720 76020
" />
<path d="M80590 75820
L80530 76340
L80550 76390
L80610 76420
L80670 76420
" />
<path d="M81090 76390
L81030 76420
L80920 76420
L80860 76390
L80840 76340
L80870 76110
L80900 76050
L80970 76020
L81080 76020
L81130 76050
L81160 76110
L81150 76170
L80850 76220
" />
<path d="M81370 76370
L81400 76390
L81370 76420
L81340 76390
L81370 76370
L81370 76420
" />
<path d="M81410 76050
L81440 76080
L81410 76110
L81380 76080
L81410 76050
L81410 76110
" />
<path d="M82440 76420
L82090 76420
" />
<path d="M82270 76420
L82340 75820
L82270 75910
L82200 75970
L82140 75990
" />
<path d="M82720 76420
L82840 76420
L82890 76390
L82920 76370
L83000 76280
L83040 76170
L83070 75940
L83050 75880
L83020 75850
L82960 75820
L82850 75820
L82790 75850
L82760 75880
L82720 75940
L82700 76080
L82720 76140
L82750 76170
L82810 76190
L82920 76190
L82980 76170
L83010 76140
L83050 76080
" />
<path d="M83980 76420
L84020 76110
L83990 76050
L83940 76020
L83830 76020
L83760 76050
" />
<path d="M83980 76390
L83920 76420
L83780 76420
L83720 76390
L83700 76340
L83710 76280
L83740 76220
L83810 76190
L83950 76190
L84010 76170
" />
<path d="M84310 76020
L84230 76620
" />
<path d="M84300 76050
L84370 76020
L84480 76020
L84530 76050
L84560 76080
L84580 76140
L84560 76310
L84520 76370
L84490 76390
L84430 76420
L84320 76420
L84260 76390
" />
<path d="M84800 76420
L84850 76020
" />
<path d="M84830 76140
L84870 76080
L84900 76050
L84970 76020
L85020 76020
" />
<path d="M85670 75880
L85700 75850
L85760 75820
L85900 75820
L85960 75850
L85990 75880
L86010 75940
L86000 75990
L85960 76080
L85580 76420
L85950 76420
" />
<path d="M86390 75820
L86440 75820
L86500 75850
L86530 75880
L86550 75940
L86560 76050
L86550 76190
L86500 76310
L86460 76370
L86430 76390
L86370 76420
L86320 76420
L86260 76390
L86230 76370
L86210 76310
L86200 76190
L86210 76050
L86260 75940
L86300 75880
L86330 75850
L86390 75820
" />
<path d="M87090 76420
L86740 76420
" />
<path d="M86920 76420
L86990 75820
L86920 75910
L86850 75970
L86790 75990
" />
<path d="M87660 76420
L87310 76420
" />
<path d="M87490 76420
L87560 75820
L87490 75910
L87420 75970
L87360 75990
" />
<path d="M70970 77620
L70970 77020
" />
<path d="M71320 77620
L71060 77280
" />
<path d="M71320 77020
L70970 77370
" />
<path d="M71570 77620
L71570 77220
" />
<path d="M71570 77020
L71540 77050
L71570 77080
L71600 77050
L71570 77020
L71570 77080
" />
<path d="M72210 77570
L72180 77590
L72090 77620
L72030 77620
L71950 77590
L71890 77540
L71860 77480
L71830 77370
L71830 77280
L71860 77170
L71890 77110
L71950 77050
L72030 77020
L72090 77020
L72180 77050
L72210 77080
" />
<path d="M72720 77620
L72720 77310
L72690 77250
L72630 77220
L72520 77220
L72460 77250
" />
<path d="M72720 77590
L72660 77620
L72520 77620
L72460 77590
L72430 77540
L72430 77480
L72460 77420
L72520 77390
L72660 77390
L72720 77370
" />
<path d="M73260 77620
L73260 77020
" />
<path d="M73260 77590
L73200 77620
L73090 77620
L73030 77590
L73000 77570
L72970 77510
L72970 77340
L73000 77280
L73030 77250
L73090 77220
L73200 77220
L73260 77250
" />
<path d="M74000 77310
L74200 77310
" />
<path d="M74290 77620
L74000 77620
L74000 77020
L74290 77020
" />
<path d="M74540 77570
L74570 77590
L74540 77620
L74510 77590
L74540 77570
L74540 77620
" />
<path d="M74830 77620
L74830 77020
L74980 77020
L75060 77050
L75120 77110
L75150 77170
L75180 77280
L75180 77370
L75150 77480
L75120 77540
L75060 77590
L74980 77620
L74830 77620
" />
<path d="M75430 77570
L75460 77590
L75430 77620
L75400 77590
L75430 77570
L75430 77620
" />
<path d="M75690 77450
L75980 77450
" />
<path d="M75640 77620
L75840 77020
L76040 77620
" />
<path d="M76230 77570
L76260 77590
L76230 77620
L76200 77590
L76230 77570
L76230 77620
" />
<path d="M104530 76420
L104360 76140
" />
<path d="M104180 76420
L104250 75820
L104480 75820
L104540 75850
L104570 75880
L104590 75940
L104580 76020
L104540 76080
L104510 76110
L104440 76140
L104210 76140
" />
<path d="M105010 76390
L104950 76420
L104840 76420
L104780 76390
L104760 76340
L104790 76110
L104820 76050
L104890 76020
L105000 76020
L105050 76050
L105080 76110
L105070 76170
L104770 76220
" />
<path d="M105290 76020
L105380 76420
L105570 76020
" />
<path d="M105750 76370
L105780 76390
L105750 76420
L105720 76390
L105750 76370
L105750 76420
" />
<path d="M105790 76050
L105820 76080
L105790 76110
L105760 76080
L105790 76050
L105790 76110
" />
<path d="M106490 75820
L106620 76420
L106890 75820
" />
<path d="M107330 76420
L106980 76420
" />
<path d="M107160 76420
L107230 75820
L107160 75910
L107090 75970
L107030 75990
" />
<path d="M107610 76190
L108070 76190
" />
<path d="M108360 75880
L108390 75850
L108450 75820
L108590 75820
L108650 75850
L108680 75880
L108700 75940
L108690 75990
L108650 76080
L108270 76420
L108640 76420
" />
<path d="M109080 75820
L109130 75820
L109190 75850
L109220 75880
L109240 75940
L109250 76050
L109240 76190
L109190 76310
L109150 76370
L109120 76390
L109060 76420
L109010 76420
L108950 76390
L108920 76370
L108900 76310
L108890 76190
L108900 76050
L108950 75940
L108990 75880
L109020 75850
L109080 75820
" />
<path d="M70940 76390
L71030 76420
L71170 76420
L71230 76390
L71260 76370
L71290 76310
L71290 76250
L71260 76190
L71230 76170
L71170 76140
L71060 76110
L71000 76080
L70970 76050
L70940 75990
L70940 75940
L70970 75880
L71000 75850
L71060 75820
L71200 75820
L71290 75850
" />
<path d="M71540 76420
L71540 76020
" />
<path d="M71540 75820
L71510 75850
L71540 75880
L71570 75850
L71540 75820
L71540 75880
" />
<path d="M71780 76020
L72090 76020
L71780 76420
L72090 76420
" />
<path d="M72550 76390
L72490 76420
L72380 76420
L72320 76390
L72290 76340
L72290 76110
L72320 76050
L72380 76020
L72490 76020
L72550 76050
L72580 76110
L72580 76170
L72290 76220
" />
<path d="M72830 76370
L72860 76390
L72830 76420
L72800 76390
L72830 76370
L72830 76420
" />
<path d="M72830 76050
L72860 76080
L72830 76110
L72800 76080
L72830 76050
L72830 76110
" />
<path d="M73550 76250
L73840 76250
" />
<path d="M73500 76420
L73700 75820
L73900 76420
" />
<path d="M74350 76020
L74350 76420
" />
<path d="M74210 75790
L74060 76220
L74440 76220
" />
<path d="M104170 77620
L104170 77020
" />
<path d="M104720 77620
L104720 77020
" />
<path d="M104720 77590
L104660 77620
L104550 77620
L104490 77590
L104460 77570
L104430 77510
L104430 77340
L104460 77280
L104490 77250
L104550 77220
L104660 77220
L104720 77250
" />
<path d="M105000 77570
L105030 77590
L105000 77620
L104970 77590
L105000 77570
L105000 77620
" />
<path d="M105000 77250
L105030 77280
L105000 77310
L104970 77280
L105000 77250
L105000 77310
" />
<path d="M106070 77620
L105720 77620
" />
<path d="M105900 77620
L105900 77020
L105840 77110
L105780 77170
L105720 77190
" />
<path d="M106750 76990
L106240 77770
" />
<path d="M106900 77020
L107270 77020
L107070 77250
L107150 77250
L107210 77280
L107240 77310
L107270 77370
L107270 77510
L107240 77570
L107210 77590
L107150 77620
L106980 77620
L106920 77590
L106900 77570
" />
<path d="M70970 74620
L71310 74620
" />
<path d="M71070 75220
L71140 74620
" />
<path d="M71440 75220
L71490 74820
" />
<path d="M71510 74620
L71480 74650
L71510 74680
L71540 74650
L71510 74620
L71510 74680
" />
<path d="M71700 74820
L71930 74820
" />
<path d="M71800 74620
L71740 75140
L71760 75190
L71820 75220
L71880 75220
" />
<path d="M72160 75220
L72100 75190
L72080 75140
L72140 74620
" />
<path d="M72610 75190
L72550 75220
L72440 75220
L72380 75190
L72360 75140
L72390 74910
L72420 74850
L72490 74820
L72600 74820
L72650 74850
L72680 74910
L72670 74970
L72370 75020
" />
<path d="M72890 75170
L72920 75190
L72890 75220
L72860 75190
L72890 75170
L72890 75220
" />
<path d="M72930 74850
L72960 74880
L72930 74910
L72900 74880
L72930 74850
L72930 74910
" />
<path d="M73640 75220
L73710 74620
L73940 74620
L74000 74650
L74030 74680
L74050 74740
L74040 74820
L74000 74880
L73970 74910
L73900 74940
L73670 74940
" />
<path d="M74430 74620
L74540 74620
L74600 74650
L74650 74710
L74660 74820
L74630 75020
L74600 75140
L74530 75190
L74470 75220
L74360 75220
L74300 75190
L74250 75140
L74230 75020
L74260 74820
L74300 74710
L74370 74650
L74430 74620
" />
<path d="M74890 74620
L74960 75220
L75120 74790
L75190 75220
L75400 74620
" />
<path d="M75600 74910
L75800 74910
" />
<path d="M75850 75220
L75560 75220
L75630 74620
L75920 74620
" />
<path d="M76450 75220
L76280 74940
" />
<path d="M76100 75220
L76170 74620
L76400 74620
L76460 74650
L76490 74680
L76510 74740
L76500 74820
L76460 74880
L76430 74910
L76360 74940
L76130 74940
" />
<path d="M77130 75190
L77220 75220
L77360 75220
L77420 75190
L77450 75170
L77490 75110
L77500 75050
L77480 74990
L77450 74970
L77390 74940
L77290 74910
L77230 74880
L77200 74850
L77180 74790
L77190 74740
L77230 74680
L77260 74650
L77320 74620
L77460 74620
L77550 74650
" />
<path d="M77800 74620
L77740 75110
L77760 75170
L77790 75190
L77850 75220
L77960 75220
L78020 75190
L78050 75170
L78090 75110
L78150 74620
" />
<path d="M78360 75220
L78430 74620
L78660 74620
L78720 74650
L78750 74680
L78770 74740
L78760 74820
L78720 74880
L78690 74910
L78620 74940
L78390 74940
" />
<path d="M78960 75220
L79030 74620
L79260 74620
L79320 74650
L79350 74680
L79370 74740
L79360 74820
L79320 74880
L79290 74910
L79220 74940
L78990 74940
" />
<path d="M79850 75220
L79560 75220
L79630 74620
" />
<path d="M80200 74940
L80170 75220
" />
<path d="M80040 74620
L80200 74940
L80440 74620
" />
<path d="M81260 74910
L81340 74940
L81370 74970
L81390 75020
L81380 75110
L81340 75170
L81310 75190
L81250 75220
L81020 75220
L81090 74620
L81290 74620
L81350 74650
L81380 74680
L81400 74740
L81390 74790
L81350 74850
L81320 74880
L81260 74910
L81060 74910
" />
<path d="M81810 74620
L81920 74620
L81980 74650
L82030 74710
L82040 74820
L82010 75020
L81980 75140
L81910 75190
L81850 75220
L81740 75220
L81680 75190
L81630 75140
L81610 75020
L81640 74820
L81680 74710
L81750 74650
L81810 74620
" />
<path d="M82240 75050
L82530 75050
" />
<path d="M82170 75220
L82440 74620
L82570 75220
" />
<path d="M83110 75220
L82940 74940
" />
<path d="M82760 75220
L82830 74620
L83060 74620
L83120 74650
L83150 74680
L83170 74740
L83160 74820
L83120 74880
L83090 74910
L83020 74940
L82790 74940
" />
<path d="M83360 75220
L83430 74620
L83580 74620
L83660 74650
L83710 74710
L83730 74770
L83750 74880
L83740 74970
L83700 75080
L83660 75140
L83590 75190
L83510 75220
L83360 75220
" />
<path d="M71170 72510
L70970 72510
" />
<path d="M70970 72820
L70970 72220
L71260 72220
" />
<path d="M71480 72820
L71480 72420
" />
<path d="M71480 72220
L71450 72250
L71480 72280
L71510 72250
L71480 72220
L71480 72280
" />
<path d="M71860 72820
L71800 72790
L71770 72740
L71770 72220
" />
<path d="M72310 72790
L72250 72820
L72140 72820
L72080 72790
L72050 72740
L72050 72510
L72080 72450
L72140 72420
L72250 72420
L72310 72450
L72340 72510
L72340 72570
L72050 72620
" />
<path d="M72590 72770
L72620 72790
L72590 72820
L72560 72790
L72590 72770
L72590 72820
" />
<path d="M72590 72450
L72620 72480
L72590 72510
L72560 72480
L72590 72450
L72590 72510
" />
<path d="M73340 72820
L73340 72220
L73570 72220
L73630 72250
L73660 72280
L73690 72340
L73690 72420
L73660 72480
L73630 72510
L73570 72540
L73340 72540
" />
<path d="M74030 72820
L73970 72790
L73940 72770
L73910 72710
L73910 72540
L73940 72480
L73970 72450
L74030 72420
L74110 72420
L74170 72450
L74200 72480
L74230 72540
L74230 72710
L74200 72770
L74170 72790
L74110 72820
L74030 72820
" />
<path d="M74430 72420
L74540 72820
L74650 72540
L74770 72820
L74880 72420
" />
<path d="M75340 72790
L75280 72820
L75170 72820
L75110 72790
L75080 72740
L75080 72510
L75110 72450
L75170 72420
L75280 72420
L75340 72450
L75370 72510
L75370 72570
L75080 72620
" />
<path d="M75620 72820
L75620 72420
" />
<path d="M75620 72540
L75650 72480
L75680 72450
L75740 72420
L75790 72420
" />
<path d="M76420 72790
L76510 72820
L76650 72820
L76710 72790
L76740 72770
L76770 72710
L76770 72650
L76740 72590
L76710 72570
L76650 72540
L76540 72510
L76480 72480
L76450 72450
L76420 72390
L76420 72340
L76450 72280
L76480 72250
L76540 72220
L76680 72220
L76770 72250
" />
<path d="M77280 72420
L77280 72820
" />
<path d="M77020 72420
L77020 72740
L77050 72790
L77110 72820
L77190 72820
L77250 72790
L77280 72770
" />
<path d="M77560 72420
L77560 73020
" />
<path d="M77560 72450
L77620 72420
L77730 72420
L77790 72450
L77820 72480
L77850 72540
L77850 72710
L77820 72770
L77790 72790
L77730 72820
L77620 72820
L77560 72790
" />
<path d="M78100 72420
L78100 73020
" />
<path d="M78100 72450
L78160 72420
L78270 72420
L78330 72450
L78360 72480
L78390 72540
L78390 72710
L78360 72770
L78330 72790
L78270 72820
L78160 72820
L78100 72790
" />
<path d="M78730 72820
L78670 72790
L78640 72740
L78640 72220
" />
<path d="M78900 72420
L79040 72820
" />
<path d="M79180 72420
L79040 72820
L78980 72970
L78950 72990
L78900 73020
" />
<path d="M80070 72510
L80160 72540
L80190 72570
L80220 72620
L80220 72710
L80190 72770
L80160 72790
L80100 72820
L79870 72820
L79870 72220
L80070 72220
L80130 72250
L80160 72280
L80190 72340
L80190 72390
L80160 72450
L80130 72480
L80070 72510
L79870 72510
" />
<path d="M80560 72820
L80500 72790
L80470 72770
L80440 72710
L80440 72540
L80470 72480
L80500 72450
L80560 72420
L80640 72420
L80700 72450
L80730 72480
L80760 72540
L80760 72710
L80730 72770
L80700 72790
L80640 72820
L80560 72820
" />
<path d="M81270 72820
L81270 72510
L81240 72450
L81180 72420
L81070 72420
L81010 72450
" />
<path d="M81270 72790
L81210 72820
L81070 72820
L81010 72790
L80980 72740
L80980 72680
L81010 72620
L81070 72590
L81210 72590
L81270 72570
" />
<path d="M81550 72820
L81550 72420
" />
<path d="M81550 72540
L81580 72480
L81610 72450
L81670 72420
L81720 72420
" />
<path d="M82180 72820
L82180 72220
" />
<path d="M82180 72790
L82120 72820
L82010 72820
L81950 72790
L81920 72770
L81890 72710
L81890 72540
L81920 72480
L81950 72450
L82010 72420
L82120 72420
L82180 72450
" />
<path d="M82460 72770
L82490 72790
L82460 72820
L82430 72790
L82460 72770
L82460 72820
" />
<path d="M82720 72790
L82780 72820
L82900 72820
L82950 72790
L82980 72740
L82980 72710
L82950 72650
L82900 72620
L82810 72620
L82750 72590
L82720 72540
L82720 72510
L82750 72450
L82810 72420
L82900 72420
L82950 72450
" />
<path d="M83500 72790
L83440 72820
L83330 72820
L83270 72790
L83240 72770
L83210 72710
L83210 72540
L83240 72480
L83270 72450
L83330 72420
L83440 72420
L83500 72450
" />
<path d="M83750 72820
L83750 72220
" />
<path d="M84010 72820
L84010 72510
L83980 72450
L83920 72420
L83840 72420
L83780 72450
L83750 72480
" />
<path d="M70940 73990
L71030 74020
L71170 74020
L71230 73990
L71260 73970
L71290 73910
L71290 73850
L71260 73790
L71230 73770
L71170 73740
L71060 73710
L71000 73680
L70970 73650
L70940 73590
L70940 73540
L70970 73480
L71000 73450
L71060 73420
L71200 73420
L71290 73450
" />
<path d="M71540 74020
L71540 73420
" />
<path d="M71800 74020
L71800 73710
L71770 73650
L71710 73620
L71630 73620
L71570 73650
L71540 73680
" />
<path d="M72310 73990
L72250 74020
L72140 74020
L72080 73990
L72050 73940
L72050 73710
L72080 73650
L72140 73620
L72250 73620
L72310 73650
L72340 73710
L72340 73770
L72050 73820
" />
<path d="M72820 73990
L72760 74020
L72650 74020
L72590 73990
L72560 73940
L72560 73710
L72590 73650
L72650 73620
L72760 73620
L72820 73650
L72850 73710
L72850 73770
L72560 73820
" />
<path d="M73020 73620
L73250 73620
" />
<path d="M73100 73420
L73100 73940
L73130 73990
L73190 74020
L73250 74020
" />
<path d="M73440 73970
L73470 73990
L73440 74020
L73410 73990
L73440 73970
L73440 74020
" />
<path d="M73440 73650
L73470 73680
L73440 73710
L73410 73680
L73440 73650
L73440 73710
" />
<path d="M74620 73390
L74110 74170
" />
<path d="M71330 71570
L71300 71590
L71210 71620
L71150 71620
L71070 71590
L71020 71540
L71000 71480
L70980 71370
L70990 71280
L71030 71170
L71070 71110
L71140 71050
L71220 71020
L71280 71020
L71370 71050
L71400 71080
" />
<path d="M71730 71340
L71700 71620
" />
<path d="M71570 71020
L71730 71340
L71970 71020
" />
<path d="M72330 71310
L72410 71340
L72440 71370
L72460 71420
L72450 71510
L72410 71570
L72380 71590
L72320 71620
L72090 71620
L72160 71020
L72360 71020
L72420 71050
L72450 71080
L72470 71140
L72460 71190
L72420 71250
L72390 71280
L72330 71310
L72130 71310
" />
<path d="M72730 71310
L72930 71310
" />
<path d="M72980 71620
L72690 71620
L72760 71020
L73050 71020
" />
<path d="M73580 71620
L73410 71340
" />
<path d="M73230 71620
L73300 71020
L73530 71020
L73590 71050
L73620 71080
L73640 71140
L73630 71220
L73590 71280
L73560 71310
L73490 71340
L73260 71340
" />
<path d="M73830 71620
L73900 71020
L74180 71620
L74250 71020
" />
<path d="M74500 71310
L74700 71310
" />
<path d="M74750 71620
L74460 71620
L74530 71020
L74820 71020
" />
<path d="M74990 71020
L75330 71020
" />
<path d="M75090 71620
L75160 71020
" />
<path d="M75460 71620
L75530 71020
" />
<path d="M76140 71680
L76090 71650
L76040 71590
L75960 71510
L75920 71480
L75860 71480
" />
<path d="M75870 71620
L75810 71590
L75760 71540
L75740 71420
L75770 71220
L75810 71110
L75880 71050
L75940 71020
L76050 71020
L76110 71050
L76160 71110
L76170 71220
L76140 71420
L76110 71540
L76040 71590
L75980 71620
L75870 71620
" />
<path d="M76450 71020
L76390 71510
L76410 71570
L76440 71590
L76500 71620
L76610 71620
L76670 71590
L76700 71570
L76740 71510
L76800 71020
" />
<path d="M77050 71310
L77250 71310
" />
<path d="M77300 71620
L77010 71620
L77080 71020
L77370 71020
" />
<path d="M78050 71310
L78250 71310
" />
<path d="M78300 71620
L78010 71620
L78080 71020
L78370 71020
" />
<path d="M78550 71620
L78620 71020
L78900 71620
L78970 71020
" />
<path d="M79640 71620
L79710 71020
L79990 71620
L80060 71020
" />
<path d="M80460 71020
L80570 71020
L80630 71050
L80680 71110
L80690 71220
L80660 71420
L80630 71540
L80560 71590
L80500 71620
L80390 71620
L80330 71590
L80280 71540
L80260 71420
L80290 71220
L80330 71110
L80400 71050
L80460 71020
" />
<path d="M81250 71620
L81080 71340
" />
<path d="M80900 71620
L80970 71020
L81200 71020
L81260 71050
L81290 71080
L81310 71140
L81300 71220
L81260 71280
L81230 71310
L81160 71340
L80930 71340
" />
<path d="M81500 71620
L81570 71020
L81720 71020
L81800 71050
L81850 71110
L81870 71170
L81890 71280
L81880 71370
L81840 71480
L81800 71540
L81730 71590
L81650 71620
L81500 71620
" />
<path d="M71170 70110
L70970 70110
" />
<path d="M70970 70420
L70970 69820
L71260 69820
" />
<path d="M71740 70020
L71740 70420
" />
<path d="M71600 69790
L71450 70220
L71830 70220
" />
<path d="M72050 70420
L72050 69820
L72200 69820
L72280 69850
L72340 69910
L72370 69970
L72400 70080
L72400 70170
L72370 70280
L72340 70340
L72280 70390
L72200 70420
L72050 70420
" />
<path d="M72650 70110
L72850 70110
" />
<path d="M72940 70420
L72650 70420
L72650 69820
L72940 69820
" />
<path d="M73390 70110
L73480 70140
L73510 70170
L73540 70220
L73540 70310
L73510 70370
L73480 70390
L73420 70420
L73190 70420
L73190 69820
L73390 69820
L73450 69850
L73480 69880
L73510 69940
L73510 69990
L73480 70050
L73450 70080
L73390 70110
L73190 70110
" />
<path d="M70230 69580
L70230 77980
" />
<path d="M70230 71980
L112230 71980
" />
<path d="M70230 69580
L112230 69580
" />
<path d="M70230 74380
L112230 74380
" />
<path d="M103430 75580
L103430 77980
" />
<path d="M70230 76780
L112230 76780
" />
<path d="M70230 75580
L112230 75580
" />
<path d="M76830 75580
L76830 76780
" />
</g>
<g style="fill:#9F0000; fill-opacity:0.0; 
stroke:#9F0000; stroke-width:60; stroke-opacity:1; 
stroke-linecap:round; stroke-linejoin:round;">
</g>
<g style="fill:#9F009F; fill-opacity:0.0; 
stroke:#9F009F; stroke-width:60; stroke-opacity:1; 
stroke-linecap:round; stroke-linejoin:round;">
<path d="M67500 35000
L76000 35000
L76000 53000
L67500 53000
L67500 35000
" />
</g>
<g style="fill:#009F9F; fill-opacity:0.0; 
stroke:#009F9F; stroke-width:60; stroke-opacity:1; 
stroke-linecap:round; stroke-linejoin:round;">
<path d="M67990 34850
L67960 34870
L67870 34900
L67810 34900
L67730 34870
L67670 34820
L67640 34760
L67610 34650
L67610 34560
L67640 34450
L67670 34390
L67730 34330
L67810 34300
L67870 34300
L67960 34330
L67990 34360
" />
<path d="M68360 34300
L68470 34300
L68530 34330
L68590 34390
L68610 34500
L68610 34700
L68590 34820
L68530 34870
L68470 34900
L68360 34900
L68300 34870
L68240 34820
L68210 34700
L68210 34500
L68240 34390
L68300 34330
L68360 34300
" />
<path d="M68870 34900
L68870 34300
L69220 34900
L69220 34300
" />
<path d="M69500 34900
L69500 34300
L69850 34900
L69850 34300
" />
<path d="M70130 34590
L70330 34590
" />
<path d="M70420 34900
L70130 34900
L70130 34300
L70420 34300
" />
<path d="M71020 34850
L70990 34870
L70900 34900
L70840 34900
L70760 34870
L70700 34820
L70670 34760
L70640 34650
L70640 34560
L70670 34450
L70700 34390
L70760 34330
L70840 34300
L70900 34300
L70990 34330
L71020 34360
" />
<path d="M71190 34300
L71530 34300
" />
<path d="M71360 34900
L71360 34300
" />
<path d="M71730 34590
L71930 34590
" />
<path d="M72020 34900
L71730 34900
L71730 34300
L72020 34300
" />
<path d="M72270 34300
L72270 34790
L72300 34850
L72330 34870
L72390 34900
L72500 34900
L72560 34870
L72590 34850
L72620 34790
L72620 34300
" />
<path d="M73250 34900
L73050 34620
" />
<path d="M72900 34900
L72900 34300
L73130 34300
L73190 34330
L73220 34360
L73250 34420
L73250 34500
L73220 34560
L73190 34590
L73130 34620
L72900 34620
" />
<path d="M73470 34870
L73560 34900
L73700 34900
L73760 34870
L73790 34850
L73820 34790
L73820 34730
L73790 34670
L73760 34650
L73700 34620
L73590 34590
L73530 34560
L73500 34530
L73470 34470
L73470 34420
L73500 34360
L73530 34330
L73590 34300
L73730 34300
L73820 34330
" />
</g>
<g style="fill:#7F7F00; fill-opacity:0.0; 
stroke:#7F7F00; stroke-width:60; stroke-opacity:1; 
stroke-linecap:round; stroke-linejoin:round;">
<path d="M67990 53530
L67960 53550
L67870 53580
L67810 53580
L67730 53550
L67670 53500
L67640 53440
L67610 53330
L67610 53240
L67640 53130
L67670 53070
L67730 53010
L67810 52980
L67870 52980
L67960 53010
L67990 53040
" />
<path d="M68360 52980
L68470 52980
L68530 53010
L68590 53070
L68610 53180
L68610 53380
L68590 53500
L68530 53550
L68470 53580
L68360 53580
L68300 53550
L68240 53500
L68210 53380
L68210 53180
L68240 53070
L68300 53010
L68360 52980
" />
<path d="M68870 53580
L68870 52980
L69220 53580
L69220 52980
" />
<path d="M69500 53580
L69500 52980
L69850 53580
L69850 52980
" />
<path d="M70130 53270
L70330 53270
" />
<path d="M70420 53580
L70130 53580
L70130 52980
L70420 52980
" />
<path d="M71020 53530
L70990 53550
L70900 53580
L70840 53580
L70760 53550
L70700 53500
L70670 53440
L70640 53330
L70640 53240
L70670 53130
L70700 53070
L70760 53010
L70840 52980
L70900 52980
L70990 53010
L71020 53040
" />
<path d="M71190 52980
L71530 52980
" />
<path d="M71360 53580
L71360 52980
" />
<path d="M71730 53270
L71930 53270
" />
<path d="M72020 53580
L71730 53580
L71730 52980
L72020 52980
" />
<path d="M72270 52980
L72270 53470
L72300 53530
L72330 53550
L72390 53580
L72500 53580
L72560 53550
L72590 53530
L72620 53470
L72620 52980
" />
<path d="M73250 53580
L73050 53300
" />
<path d="M72900 53580
L72900 52980
L73130 52980
L73190 53010
L73220 53040
L73250 53100
L73250 53180
L73220 53240
L73190 53270
L73130 53300
L72900 53300
" />
<path d="M73470 53550
L73560 53580
L73700 53580
L73760 53550
L73790 53530
L73820 53470
L73820 53410
L73790 53350
L73760 53330
L73700 53300
L73590 53270
L73530 53240
L73500 53210
L73470 53150
L73470 53100
L73500 53040
L73530 53010
L73590 52980
L73730 52980
L73820 53010
" />
<path d="M74070 53530
L74100 53550
L74070 53580
L74040 53550
L74070 53530
L74070 53580
" />
<path d="M74330 53550
L74390 53580
L74510 53580
L74560 53550
L74590 53500
L74590 53470
L74560 53410
L74510 53380
L74420 53380
L74360 53350
L74330 53300
L74330 53270
L74360 53210
L74420 53180
L74510 53180
L74560 53210
" />
<path d="M75110 53550
L75050 53580
L74940 53580
L74880 53550
L74850 53530
L74820 53470
L74820 53300
L74850 53240
L74880 53210
L74940 53180
L75050 53180
L75110 53210
" />
<path d="M75360 53580
L75360 52980
" />
<path d="M75620 53580
L75620 53270
L75590 53210
L75530 53180
L75450 53180
L75390 53210
L75360 53240
" />
</g>
<g style="fill:#9F009F; fill-opacity:0.0; 
stroke:#9F009F; stroke-width:60; stroke-opacity:1; 
stroke-linecap:round; stroke-linejoin:round;">
<path d="M40000 32000
L51000 32000
L51000 53500
L40000 53500
L40000 32000
" />
</g>
<g style="fill:#009F9F; fill-opacity:0.0; 
stroke:#009F9F; stroke-width:60; stroke-opacity:1; 
stroke-linecap:round; stroke-linejoin:round;">
<path d="M40430 31300
L40140 31300
L40110 31590
L40140 31560
L40200 31530
L40340 31530
L40400 31560
L40430 31590
L40460 31650
L40460 31790
L40430 31850
L40400 31870
L40340 31900
L40200 31900
L40140 31870
L40110 31850
" />
<path d="M40630 31300
L40830 31900
L41030 31300
" />
<path d="M41220 31670
L41680 31670
" />
<path d="M41910 31300
L42280 31300
L42080 31530
L42160 31530
L42220 31560
L42250 31590
L42280 31650
L42280 31790
L42250 31850
L42220 31870
L42160 31900
L41990 31900
L41930 31870
L41910 31850
" />
<path d="M42450 31300
L42650 31900
L42850 31300
" />
<path d="M42990 31300
L43360 31300
L43160 31530
L43240 31530
L43300 31560
L43330 31590
L43360 31650
L43360 31790
L43330 31850
L43300 31870
L43240 31900
L43070 31900
L43010 31870
L42990 31850
" />
</g>
<g style="fill:#7F7F00; fill-opacity:0.0; 
stroke:#7F7F00; stroke-width:60; stroke-opacity:1; 
stroke-linecap:round; stroke-linejoin:round;">
<path d="M40430 53480
L40140 53480
L40110 53770
L40140 53740
L40200 53710
L40340 53710
L40400 53740
L40430 53770
L40460 53830
L40460 53970
L40430 54030
L40400 54050
L40340 54080
L40200 54080
L40140 54050
L40110 54030
" />
<path d="M40630 53480
L40830 54080
L41030 53480
" />
<path d="M41220 53850
L41680 53850
" />
<path d="M41910 53480
L42280 53480
L42080 53710
L42160 53710
L42220 53740
L42250 53770
L42280 53830
L42280 53970
L42250 54030
L42220 54050
L42160 54080
L41990 54080
L41930 54050
L41910 54030
" />
<path d="M42450 53480
L42650 54080
L42850 53480
" />
<path d="M42990 53480
L43360 53480
L43160 53710
L43240 53710
L43300 53740
L43330 53770
L43360 53830
L43360 53970
L43330 54030
L43300 54050
L43240 54080
L43070 54080
L43010 54050
L42990 54030
" />
<path d="M43610 54030
L43640 54050
L43610 54080
L43580 54050
L43610 54030
L43610 54080
" />
<path d="M43870 54050
L43930 54080
L44050 54080
L44100 54050
L44130 54000
L44130 53970
L44100 53910
L44050 53880
L43960 53880
L43900 53850
L43870 53800
L43870 53770
L43900 53710
L43960 53680
L44050 53680
L44100 53710
" />
<path d="M44650 54050
L44590 54080
L44480 54080
L44420 54050
L44390 54030
L44360 53970
L44360 53800
L44390 53740
L44420 53710
L44480 53680
L44590 53680
L44650 53710
" />
<path d="M44900 54080
L44900 53480
" />
<path d="M45160 54080
L45160 53770
L45130 53710
L45070 53680
L44990 53680
L44930 53710
L44900 53740
" />
</g> 
</svg>
