G04 #@! TF.FileFunction,Legend,Top*
%FSLAX46Y46*%
G04 Gerber Fmt 4.6, Leading zero omitted, Abs format (unit mm)*
G04 Created by KiCad (PCBNEW 4.0.0-rc1-stable) date mer. 14 oct. 2015 22:43:12 CEST*
%MOMM*%
G01*
G04 APERTURE LIST*
%ADD10C,0.200000*%
%ADD11C,0.381000*%
%ADD12C,0.127000*%
%ADD13C,0.066040*%
%ADD14C,0.101600*%
%ADD15C,0.304800*%
%ADD16C,0.299720*%
%ADD17C,0.300000*%
%ADD18C,0.508000*%
%ADD19C,0.400000*%
%ADD20C,0.114300*%
%ADD21C,0.271780*%
%ADD22C,0.203200*%
G04 APERTURE END LIST*
D10*
D11*
X90805000Y-57594500D02*
X113284000Y-57594500D01*
X90932000Y-70675500D02*
X113284000Y-70675500D01*
X91440000Y-64071500D02*
X90932000Y-64071500D01*
X91186000Y-64071500D02*
X113030000Y-64071500D01*
X113030000Y-64071500D02*
X113284000Y-64071500D01*
X90932000Y-63055500D02*
X113284000Y-63055500D01*
X113284000Y-63055500D02*
X113284000Y-57594500D01*
X90805000Y-57594500D02*
X90805000Y-63436500D01*
X90805000Y-70612000D02*
X90805000Y-63119000D01*
X113284000Y-70612000D02*
X113284000Y-63119000D01*
X65913000Y-57531000D02*
X88392000Y-57531000D01*
X66040000Y-70612000D02*
X88392000Y-70612000D01*
X66548000Y-64008000D02*
X66040000Y-64008000D01*
X66294000Y-64008000D02*
X88138000Y-64008000D01*
X88138000Y-64008000D02*
X88392000Y-64008000D01*
X66040000Y-62992000D02*
X88392000Y-62992000D01*
X88392000Y-62992000D02*
X88392000Y-57531000D01*
X65913000Y-57531000D02*
X65913000Y-63373000D01*
X65913000Y-70548500D02*
X65913000Y-63055500D01*
X88392000Y-70548500D02*
X88392000Y-63055500D01*
D12*
X56261000Y-50482500D02*
X58547000Y-50482500D01*
X58547000Y-50482500D02*
X58547000Y-51752500D01*
X58547000Y-51752500D02*
X56261000Y-51752500D01*
X56261000Y-51752500D02*
X56261000Y-50482500D01*
X56261000Y-59436000D02*
X58547000Y-59436000D01*
X58547000Y-59436000D02*
X58547000Y-60706000D01*
X58547000Y-60706000D02*
X56261000Y-60706000D01*
X56261000Y-60706000D02*
X56261000Y-59436000D01*
X56261000Y-54927500D02*
X58547000Y-54927500D01*
X58547000Y-54927500D02*
X58547000Y-56197500D01*
X58547000Y-56197500D02*
X56261000Y-56197500D01*
X56261000Y-56197500D02*
X56261000Y-54927500D01*
X56261000Y-52641500D02*
X58547000Y-52641500D01*
X58547000Y-52641500D02*
X58547000Y-53911500D01*
X58547000Y-53911500D02*
X56261000Y-53911500D01*
X56261000Y-53911500D02*
X56261000Y-52641500D01*
X56261000Y-57213500D02*
X58547000Y-57213500D01*
X58547000Y-57213500D02*
X58547000Y-58483500D01*
X58547000Y-58483500D02*
X56261000Y-58483500D01*
X56261000Y-58483500D02*
X56261000Y-57213500D01*
D13*
X60764420Y-60520580D02*
X60764420Y-59621420D01*
X60764420Y-59621420D02*
X60365640Y-59621420D01*
X60365640Y-60520580D02*
X60365640Y-59621420D01*
X60764420Y-60520580D02*
X60365640Y-60520580D01*
X62062360Y-60520580D02*
X62062360Y-59621420D01*
X62062360Y-59621420D02*
X61663580Y-59621420D01*
X61663580Y-60520580D02*
X61663580Y-59621420D01*
X62062360Y-60520580D02*
X61663580Y-60520580D01*
X61214000Y-60520580D02*
X61214000Y-60370720D01*
X61214000Y-60370720D02*
X60914280Y-60370720D01*
X60914280Y-60520580D02*
X60914280Y-60370720D01*
X61214000Y-60520580D02*
X60914280Y-60520580D01*
X61214000Y-59771280D02*
X61214000Y-59621420D01*
X61214000Y-59621420D02*
X60914280Y-59621420D01*
X60914280Y-59771280D02*
X60914280Y-59621420D01*
X61214000Y-59771280D02*
X60914280Y-59771280D01*
X61214000Y-60220860D02*
X61214000Y-59921140D01*
X61214000Y-59921140D02*
X60914280Y-59921140D01*
X60914280Y-60220860D02*
X60914280Y-59921140D01*
X61214000Y-60220860D02*
X60914280Y-60220860D01*
D14*
X60764420Y-60469780D02*
X61663580Y-60469780D01*
X60764420Y-59672220D02*
X61663580Y-59672220D01*
D13*
X60764420Y-51567080D02*
X60764420Y-50667920D01*
X60764420Y-50667920D02*
X60365640Y-50667920D01*
X60365640Y-51567080D02*
X60365640Y-50667920D01*
X60764420Y-51567080D02*
X60365640Y-51567080D01*
X62062360Y-51567080D02*
X62062360Y-50667920D01*
X62062360Y-50667920D02*
X61663580Y-50667920D01*
X61663580Y-51567080D02*
X61663580Y-50667920D01*
X62062360Y-51567080D02*
X61663580Y-51567080D01*
X61214000Y-51567080D02*
X61214000Y-51417220D01*
X61214000Y-51417220D02*
X60914280Y-51417220D01*
X60914280Y-51567080D02*
X60914280Y-51417220D01*
X61214000Y-51567080D02*
X60914280Y-51567080D01*
X61214000Y-50817780D02*
X61214000Y-50667920D01*
X61214000Y-50667920D02*
X60914280Y-50667920D01*
X60914280Y-50817780D02*
X60914280Y-50667920D01*
X61214000Y-50817780D02*
X60914280Y-50817780D01*
X61214000Y-51267360D02*
X61214000Y-50967640D01*
X61214000Y-50967640D02*
X60914280Y-50967640D01*
X60914280Y-51267360D02*
X60914280Y-50967640D01*
X61214000Y-51267360D02*
X60914280Y-51267360D01*
D14*
X60764420Y-51516280D02*
X61663580Y-51516280D01*
X60764420Y-50718720D02*
X61663580Y-50718720D01*
D13*
X60764420Y-56012080D02*
X60764420Y-55112920D01*
X60764420Y-55112920D02*
X60365640Y-55112920D01*
X60365640Y-56012080D02*
X60365640Y-55112920D01*
X60764420Y-56012080D02*
X60365640Y-56012080D01*
X62062360Y-56012080D02*
X62062360Y-55112920D01*
X62062360Y-55112920D02*
X61663580Y-55112920D01*
X61663580Y-56012080D02*
X61663580Y-55112920D01*
X62062360Y-56012080D02*
X61663580Y-56012080D01*
X61214000Y-56012080D02*
X61214000Y-55862220D01*
X61214000Y-55862220D02*
X60914280Y-55862220D01*
X60914280Y-56012080D02*
X60914280Y-55862220D01*
X61214000Y-56012080D02*
X60914280Y-56012080D01*
X61214000Y-55262780D02*
X61214000Y-55112920D01*
X61214000Y-55112920D02*
X60914280Y-55112920D01*
X60914280Y-55262780D02*
X60914280Y-55112920D01*
X61214000Y-55262780D02*
X60914280Y-55262780D01*
X61214000Y-55712360D02*
X61214000Y-55412640D01*
X61214000Y-55412640D02*
X60914280Y-55412640D01*
X60914280Y-55712360D02*
X60914280Y-55412640D01*
X61214000Y-55712360D02*
X60914280Y-55712360D01*
D14*
X60764420Y-55961280D02*
X61663580Y-55961280D01*
X60764420Y-55163720D02*
X61663580Y-55163720D01*
D13*
X60764420Y-53726080D02*
X60764420Y-52826920D01*
X60764420Y-52826920D02*
X60365640Y-52826920D01*
X60365640Y-53726080D02*
X60365640Y-52826920D01*
X60764420Y-53726080D02*
X60365640Y-53726080D01*
X62062360Y-53726080D02*
X62062360Y-52826920D01*
X62062360Y-52826920D02*
X61663580Y-52826920D01*
X61663580Y-53726080D02*
X61663580Y-52826920D01*
X62062360Y-53726080D02*
X61663580Y-53726080D01*
X61214000Y-53726080D02*
X61214000Y-53576220D01*
X61214000Y-53576220D02*
X60914280Y-53576220D01*
X60914280Y-53726080D02*
X60914280Y-53576220D01*
X61214000Y-53726080D02*
X60914280Y-53726080D01*
X61214000Y-52976780D02*
X61214000Y-52826920D01*
X61214000Y-52826920D02*
X60914280Y-52826920D01*
X60914280Y-52976780D02*
X60914280Y-52826920D01*
X61214000Y-52976780D02*
X60914280Y-52976780D01*
X61214000Y-53426360D02*
X61214000Y-53126640D01*
X61214000Y-53126640D02*
X60914280Y-53126640D01*
X60914280Y-53426360D02*
X60914280Y-53126640D01*
X61214000Y-53426360D02*
X60914280Y-53426360D01*
D14*
X60764420Y-53675280D02*
X61663580Y-53675280D01*
X60764420Y-52877720D02*
X61663580Y-52877720D01*
D13*
X60764420Y-58298080D02*
X60764420Y-57398920D01*
X60764420Y-57398920D02*
X60365640Y-57398920D01*
X60365640Y-58298080D02*
X60365640Y-57398920D01*
X60764420Y-58298080D02*
X60365640Y-58298080D01*
X62062360Y-58298080D02*
X62062360Y-57398920D01*
X62062360Y-57398920D02*
X61663580Y-57398920D01*
X61663580Y-58298080D02*
X61663580Y-57398920D01*
X62062360Y-58298080D02*
X61663580Y-58298080D01*
X61214000Y-58298080D02*
X61214000Y-58148220D01*
X61214000Y-58148220D02*
X60914280Y-58148220D01*
X60914280Y-58298080D02*
X60914280Y-58148220D01*
X61214000Y-58298080D02*
X60914280Y-58298080D01*
X61214000Y-57548780D02*
X61214000Y-57398920D01*
X61214000Y-57398920D02*
X60914280Y-57398920D01*
X60914280Y-57548780D02*
X60914280Y-57398920D01*
X61214000Y-57548780D02*
X60914280Y-57548780D01*
X61214000Y-57998360D02*
X61214000Y-57698640D01*
X61214000Y-57698640D02*
X60914280Y-57698640D01*
X60914280Y-57998360D02*
X60914280Y-57698640D01*
X61214000Y-57998360D02*
X60914280Y-57998360D01*
D14*
X60764420Y-58247280D02*
X61663580Y-58247280D01*
X60764420Y-57449720D02*
X61663580Y-57449720D01*
D11*
X195199000Y-46926500D02*
X195834000Y-46926500D01*
X195834000Y-46926500D02*
X195834000Y-54546500D01*
X195834000Y-54546500D02*
X195199000Y-54546500D01*
X201549000Y-55816500D02*
X201549000Y-45656500D01*
X201549000Y-45656500D02*
X195199000Y-45656500D01*
X195199000Y-45656500D02*
X195199000Y-55816500D01*
X195199000Y-55816500D02*
X201549000Y-55816500D01*
X188214000Y-46926500D02*
X188849000Y-46926500D01*
X188849000Y-46926500D02*
X188849000Y-54546500D01*
X188849000Y-54546500D02*
X188214000Y-54546500D01*
X194564000Y-55816500D02*
X194564000Y-45656500D01*
X194564000Y-45656500D02*
X188214000Y-45656500D01*
X188214000Y-45656500D02*
X188214000Y-55816500D01*
X188214000Y-55816500D02*
X194564000Y-55816500D01*
X181292500Y-46926500D02*
X181927500Y-46926500D01*
X181927500Y-46926500D02*
X181927500Y-54546500D01*
X181927500Y-54546500D02*
X181292500Y-54546500D01*
X187642500Y-55816500D02*
X187642500Y-45656500D01*
X187642500Y-45656500D02*
X181292500Y-45656500D01*
X181292500Y-45656500D02*
X181292500Y-55816500D01*
X181292500Y-55816500D02*
X187642500Y-55816500D01*
X202120500Y-46926500D02*
X202755500Y-46926500D01*
X202755500Y-46926500D02*
X202755500Y-54546500D01*
X202755500Y-54546500D02*
X202120500Y-54546500D01*
X208470500Y-55816500D02*
X208470500Y-45656500D01*
X208470500Y-45656500D02*
X202120500Y-45656500D01*
X202120500Y-45656500D02*
X202120500Y-55816500D01*
X202120500Y-55816500D02*
X208470500Y-55816500D01*
D15*
X204420500Y-42576500D02*
X225220500Y-42576500D01*
X225220500Y-33176500D02*
X204420500Y-33176500D01*
X204420500Y-33176500D02*
X204420500Y-42576500D01*
X225220500Y-33176500D02*
X225220500Y-42576500D01*
D16*
X217120500Y-33176500D02*
X217120500Y-42576500D01*
X212520500Y-33176500D02*
X212520500Y-42576500D01*
D15*
X113107500Y-42703500D02*
X133907500Y-42703500D01*
X133907500Y-33303500D02*
X113107500Y-33303500D01*
X113107500Y-33303500D02*
X113107500Y-42703500D01*
X133907500Y-33303500D02*
X133907500Y-42703500D01*
D16*
X125807500Y-33303500D02*
X125807500Y-42703500D01*
X121207500Y-33303500D02*
X121207500Y-42703500D01*
D15*
X156678500Y-42576500D02*
X185078500Y-42576500D01*
X185078500Y-33176500D02*
X156678500Y-33176500D01*
X156678500Y-33176500D02*
X156678500Y-42576500D01*
X185078500Y-33176500D02*
X185078500Y-42576500D01*
D16*
X173178500Y-33176500D02*
X173178500Y-42576500D01*
X168578500Y-33176500D02*
X168578500Y-42576500D01*
D15*
X65302000Y-42703500D02*
X93702000Y-42703500D01*
X93702000Y-33303500D02*
X65302000Y-33303500D01*
X65302000Y-33303500D02*
X65302000Y-42703500D01*
X93702000Y-33303500D02*
X93702000Y-42703500D01*
D16*
X81802000Y-33303500D02*
X81802000Y-42703500D01*
X77202000Y-33303500D02*
X77202000Y-42703500D01*
D15*
X219392000Y-81375500D02*
X160592000Y-81375500D01*
X160592000Y-90775500D02*
X219392000Y-90775500D01*
X219392000Y-90775500D02*
X219392000Y-81375500D01*
X160592000Y-90775500D02*
X160592000Y-81375500D01*
D16*
X187692000Y-90775500D02*
X187692000Y-81375500D01*
X192292000Y-90775500D02*
X192292000Y-81375500D01*
D17*
X109728000Y-88455500D02*
X65659000Y-88455500D01*
X109728000Y-77279500D02*
X109728000Y-88455500D01*
X65659000Y-77279500D02*
X109728000Y-77279500D01*
X65659000Y-77279500D02*
X65659000Y-88455500D01*
D11*
X221615000Y-69278500D02*
X220980000Y-69278500D01*
X220980000Y-62928500D02*
X220980000Y-70548500D01*
X221615000Y-69278500D02*
X221615000Y-64198500D01*
X221615000Y-64198500D02*
X220980000Y-64198500D01*
X220980000Y-70548500D02*
X227330000Y-70548500D01*
X227330000Y-70548500D02*
X227330000Y-62928500D01*
X221615000Y-64198500D02*
X220980000Y-64198500D01*
X220980000Y-62928500D02*
X227330000Y-62928500D01*
X214693500Y-69278500D02*
X214058500Y-69278500D01*
X214058500Y-62928500D02*
X214058500Y-70548500D01*
X214693500Y-69278500D02*
X214693500Y-64198500D01*
X214693500Y-64198500D02*
X214058500Y-64198500D01*
X214058500Y-70548500D02*
X220408500Y-70548500D01*
X220408500Y-70548500D02*
X220408500Y-62928500D01*
X214693500Y-64198500D02*
X214058500Y-64198500D01*
X214058500Y-62928500D02*
X220408500Y-62928500D01*
X225361500Y-60261500D02*
X224726500Y-60261500D01*
X224726500Y-53911500D02*
X224726500Y-61531500D01*
X225361500Y-60261500D02*
X225361500Y-55181500D01*
X225361500Y-55181500D02*
X224726500Y-55181500D01*
X224726500Y-61531500D02*
X231076500Y-61531500D01*
X231076500Y-61531500D02*
X231076500Y-53911500D01*
X225361500Y-55181500D02*
X224726500Y-55181500D01*
X224726500Y-53911500D02*
X231076500Y-53911500D01*
X207708500Y-69215000D02*
X207073500Y-69215000D01*
X207073500Y-62865000D02*
X207073500Y-70485000D01*
X207708500Y-69215000D02*
X207708500Y-64135000D01*
X207708500Y-64135000D02*
X207073500Y-64135000D01*
X207073500Y-70485000D02*
X213423500Y-70485000D01*
X213423500Y-70485000D02*
X213423500Y-62865000D01*
X207708500Y-64135000D02*
X207073500Y-64135000D01*
X207073500Y-62865000D02*
X213423500Y-62865000D01*
X218376500Y-60261500D02*
X217741500Y-60261500D01*
X217741500Y-53911500D02*
X217741500Y-61531500D01*
X218376500Y-60261500D02*
X218376500Y-55181500D01*
X218376500Y-55181500D02*
X217741500Y-55181500D01*
X217741500Y-61531500D02*
X224091500Y-61531500D01*
X224091500Y-61531500D02*
X224091500Y-53911500D01*
X218376500Y-55181500D02*
X217741500Y-55181500D01*
X217741500Y-53911500D02*
X224091500Y-53911500D01*
X211391500Y-60261500D02*
X210756500Y-60261500D01*
X210756500Y-53911500D02*
X210756500Y-61531500D01*
X211391500Y-60261500D02*
X211391500Y-55181500D01*
X211391500Y-55181500D02*
X210756500Y-55181500D01*
X210756500Y-61531500D02*
X217106500Y-61531500D01*
X217106500Y-61531500D02*
X217106500Y-53911500D01*
X211391500Y-55181500D02*
X210756500Y-55181500D01*
X210756500Y-53911500D02*
X217106500Y-53911500D01*
X190119000Y-72199500D02*
X189484000Y-72199500D01*
X189484000Y-65849500D02*
X189484000Y-73469500D01*
X190119000Y-72199500D02*
X190119000Y-67119500D01*
X190119000Y-67119500D02*
X189484000Y-67119500D01*
X189484000Y-73469500D02*
X195834000Y-73469500D01*
X195834000Y-73469500D02*
X195834000Y-65849500D01*
X190119000Y-67119500D02*
X189484000Y-67119500D01*
X189484000Y-65849500D02*
X195834000Y-65849500D01*
X192024000Y-63944500D02*
X191389000Y-63944500D01*
X191389000Y-57594500D02*
X191389000Y-65214500D01*
X192024000Y-63944500D02*
X192024000Y-58864500D01*
X192024000Y-58864500D02*
X191389000Y-58864500D01*
X191389000Y-65214500D02*
X197739000Y-65214500D01*
X197739000Y-65214500D02*
X197739000Y-57594500D01*
X192024000Y-58864500D02*
X191389000Y-58864500D01*
X191389000Y-57594500D02*
X197739000Y-57594500D01*
X180594000Y-72199500D02*
X179959000Y-72199500D01*
X179959000Y-65849500D02*
X179959000Y-73469500D01*
X180594000Y-72199500D02*
X180594000Y-67119500D01*
X180594000Y-67119500D02*
X179959000Y-67119500D01*
X179959000Y-73469500D02*
X186309000Y-73469500D01*
X186309000Y-73469500D02*
X186309000Y-65849500D01*
X180594000Y-67119500D02*
X179959000Y-67119500D01*
X179959000Y-65849500D02*
X186309000Y-65849500D01*
X182499000Y-63944500D02*
X181864000Y-63944500D01*
X181864000Y-57594500D02*
X181864000Y-65214500D01*
X182499000Y-63944500D02*
X182499000Y-58864500D01*
X182499000Y-58864500D02*
X181864000Y-58864500D01*
X181864000Y-65214500D02*
X188214000Y-65214500D01*
X188214000Y-65214500D02*
X188214000Y-57594500D01*
X182499000Y-58864500D02*
X181864000Y-58864500D01*
X181864000Y-57594500D02*
X188214000Y-57594500D01*
X172974000Y-63944500D02*
X172339000Y-63944500D01*
X172339000Y-57594500D02*
X172339000Y-65214500D01*
X172974000Y-63944500D02*
X172974000Y-58864500D01*
X172974000Y-58864500D02*
X172339000Y-58864500D01*
X172339000Y-65214500D02*
X178689000Y-65214500D01*
X178689000Y-65214500D02*
X178689000Y-57594500D01*
X172974000Y-58864500D02*
X172339000Y-58864500D01*
X172339000Y-57594500D02*
X178689000Y-57594500D01*
X171069000Y-72199500D02*
X170434000Y-72199500D01*
X170434000Y-65849500D02*
X170434000Y-73469500D01*
X171069000Y-72199500D02*
X171069000Y-67119500D01*
X171069000Y-67119500D02*
X170434000Y-67119500D01*
X170434000Y-73469500D02*
X176784000Y-73469500D01*
X176784000Y-73469500D02*
X176784000Y-65849500D01*
X171069000Y-67119500D02*
X170434000Y-67119500D01*
X170434000Y-65849500D02*
X176784000Y-65849500D01*
D17*
X114109500Y-77279500D02*
X130429000Y-77279500D01*
X114109500Y-88455500D02*
X130429000Y-88455500D01*
X130429000Y-77279500D02*
X130429000Y-88455500D01*
X114109500Y-77279500D02*
X114109500Y-88455500D01*
X61214000Y-62484000D02*
X61214000Y-71755000D01*
X50038000Y-62484000D02*
X50038000Y-71755000D01*
X61214000Y-71755000D02*
X50038000Y-71755000D01*
X61214000Y-62484000D02*
X50038000Y-62484000D01*
D11*
X143129000Y-57150000D02*
X135001000Y-57150000D01*
X135001000Y-54102000D02*
X143129000Y-54102000D01*
X143129000Y-66294000D02*
X135001000Y-66294000D01*
X135001000Y-54102000D02*
X135001000Y-66294000D01*
D18*
X141605000Y-53086000D02*
X141605000Y-65278000D01*
X139065000Y-63754000D02*
X139065000Y-65278000D01*
X136525000Y-53086000D02*
X136525000Y-65278000D01*
X139065000Y-53086000D02*
X139065000Y-63754000D01*
D11*
X141605000Y-54610000D02*
X141605000Y-63754000D01*
X141605000Y-53086000D02*
X141605000Y-54102000D01*
X143129000Y-54102000D02*
X143129000Y-66294000D01*
X157099000Y-57150000D02*
X148971000Y-57150000D01*
X148971000Y-54102000D02*
X157099000Y-54102000D01*
X157099000Y-66294000D02*
X148971000Y-66294000D01*
X148971000Y-54102000D02*
X148971000Y-66294000D01*
D18*
X155575000Y-53086000D02*
X155575000Y-65278000D01*
X153035000Y-63754000D02*
X153035000Y-65278000D01*
X150495000Y-53086000D02*
X150495000Y-65278000D01*
X153035000Y-53086000D02*
X153035000Y-63754000D01*
D11*
X155575000Y-54610000D02*
X155575000Y-63754000D01*
X155575000Y-53086000D02*
X155575000Y-54102000D01*
X157099000Y-54102000D02*
X157099000Y-66294000D01*
D19*
X135260080Y-66294000D02*
X130180080Y-66294000D01*
X135260080Y-57150000D02*
X130180080Y-57150000D01*
X135260080Y-54102000D02*
X130180080Y-54102000D01*
D11*
X130180080Y-54102000D02*
X130180080Y-66294000D01*
D18*
X133990080Y-63754000D02*
X133990080Y-65278000D01*
X131450080Y-53086000D02*
X131450080Y-65278000D01*
X133990080Y-53086000D02*
X133990080Y-63754000D01*
D11*
X135260080Y-54102000D02*
X135260080Y-66294000D01*
D19*
X149230080Y-66299080D02*
X144150080Y-66299080D01*
X149230080Y-57155080D02*
X144150080Y-57155080D01*
X149230080Y-54107080D02*
X144150080Y-54107080D01*
D11*
X144150080Y-54107080D02*
X144150080Y-66299080D01*
D18*
X147960080Y-63759080D02*
X147960080Y-65283080D01*
X145420080Y-53091080D02*
X145420080Y-65283080D01*
X147960080Y-53091080D02*
X147960080Y-63759080D01*
D11*
X149230080Y-54107080D02*
X149230080Y-66299080D01*
D15*
X101308988Y-70143189D02*
X101308988Y-68619189D01*
X101889560Y-68619189D01*
X102034702Y-68691760D01*
X102107274Y-68764331D01*
X102179845Y-68909474D01*
X102179845Y-69127189D01*
X102107274Y-69272331D01*
X102034702Y-69344903D01*
X101889560Y-69417474D01*
X101308988Y-69417474D01*
X103631274Y-70143189D02*
X102760417Y-70143189D01*
X103195845Y-70143189D02*
X103195845Y-68619189D01*
X103050702Y-68836903D01*
X102905560Y-68982046D01*
X102760417Y-69054617D01*
X104211846Y-68764331D02*
X104284417Y-68691760D01*
X104429560Y-68619189D01*
X104792417Y-68619189D01*
X104937560Y-68691760D01*
X105010131Y-68764331D01*
X105082703Y-68909474D01*
X105082703Y-69054617D01*
X105010131Y-69272331D01*
X104139274Y-70143189D01*
X105082703Y-70143189D01*
X116912572Y-60932786D02*
X116840001Y-61005357D01*
X116622287Y-61077929D01*
X116477144Y-61077929D01*
X116259429Y-61005357D01*
X116114287Y-60860214D01*
X116041715Y-60715071D01*
X115969144Y-60424786D01*
X115969144Y-60207071D01*
X116041715Y-59916786D01*
X116114287Y-59771643D01*
X116259429Y-59626500D01*
X116477144Y-59553929D01*
X116622287Y-59553929D01*
X116840001Y-59626500D01*
X116912572Y-59699071D01*
X117856001Y-59553929D02*
X118146287Y-59553929D01*
X118291429Y-59626500D01*
X118436572Y-59771643D01*
X118509144Y-60061929D01*
X118509144Y-60569929D01*
X118436572Y-60860214D01*
X118291429Y-61005357D01*
X118146287Y-61077929D01*
X117856001Y-61077929D01*
X117710858Y-61005357D01*
X117565715Y-60860214D01*
X117493144Y-60569929D01*
X117493144Y-60061929D01*
X117565715Y-59771643D01*
X117710858Y-59626500D01*
X117856001Y-59553929D01*
X119162286Y-61077929D02*
X119162286Y-59553929D01*
X120033143Y-61077929D01*
X120033143Y-59553929D01*
X120758857Y-61077929D02*
X120758857Y-59553929D01*
X121629714Y-61077929D01*
X121629714Y-59553929D01*
X121992571Y-61223071D02*
X123153714Y-61223071D01*
X124169714Y-59553929D02*
X123879428Y-59553929D01*
X123734285Y-59626500D01*
X123661714Y-59699071D01*
X123516571Y-59916786D01*
X123444000Y-60207071D01*
X123444000Y-60787643D01*
X123516571Y-60932786D01*
X123589143Y-61005357D01*
X123734285Y-61077929D01*
X124024571Y-61077929D01*
X124169714Y-61005357D01*
X124242285Y-60932786D01*
X124314857Y-60787643D01*
X124314857Y-60424786D01*
X124242285Y-60279643D01*
X124169714Y-60207071D01*
X124024571Y-60134500D01*
X123734285Y-60134500D01*
X123589143Y-60207071D01*
X123516571Y-60279643D01*
X123444000Y-60424786D01*
X75781988Y-69901889D02*
X75781988Y-68377889D01*
X76362560Y-68377889D01*
X76507702Y-68450460D01*
X76580274Y-68523031D01*
X76652845Y-68668174D01*
X76652845Y-68885889D01*
X76580274Y-69031031D01*
X76507702Y-69103603D01*
X76362560Y-69176174D01*
X75781988Y-69176174D01*
X78104274Y-69901889D02*
X77233417Y-69901889D01*
X77668845Y-69901889D02*
X77668845Y-68377889D01*
X77523702Y-68595603D01*
X77378560Y-68740746D01*
X77233417Y-68813317D01*
X78612274Y-68377889D02*
X79555703Y-68377889D01*
X79047703Y-68958460D01*
X79265417Y-68958460D01*
X79410560Y-69031031D01*
X79483131Y-69103603D01*
X79555703Y-69248746D01*
X79555703Y-69611603D01*
X79483131Y-69756746D01*
X79410560Y-69829317D01*
X79265417Y-69901889D01*
X78829989Y-69901889D01*
X78684846Y-69829317D01*
X78612274Y-69756746D01*
X74113572Y-60869286D02*
X74041001Y-60941857D01*
X73823287Y-61014429D01*
X73678144Y-61014429D01*
X73460429Y-60941857D01*
X73315287Y-60796714D01*
X73242715Y-60651571D01*
X73170144Y-60361286D01*
X73170144Y-60143571D01*
X73242715Y-59853286D01*
X73315287Y-59708143D01*
X73460429Y-59563000D01*
X73678144Y-59490429D01*
X73823287Y-59490429D01*
X74041001Y-59563000D01*
X74113572Y-59635571D01*
X75057001Y-59490429D02*
X75347287Y-59490429D01*
X75492429Y-59563000D01*
X75637572Y-59708143D01*
X75710144Y-59998429D01*
X75710144Y-60506429D01*
X75637572Y-60796714D01*
X75492429Y-60941857D01*
X75347287Y-61014429D01*
X75057001Y-61014429D01*
X74911858Y-60941857D01*
X74766715Y-60796714D01*
X74694144Y-60506429D01*
X74694144Y-59998429D01*
X74766715Y-59708143D01*
X74911858Y-59563000D01*
X75057001Y-59490429D01*
X76363286Y-61014429D02*
X76363286Y-59490429D01*
X77234143Y-61014429D01*
X77234143Y-59490429D01*
X77959857Y-61014429D02*
X77959857Y-59490429D01*
X78830714Y-61014429D01*
X78830714Y-59490429D01*
X79193571Y-61159571D02*
X80354714Y-61159571D01*
X81370714Y-59490429D02*
X81080428Y-59490429D01*
X80935285Y-59563000D01*
X80862714Y-59635571D01*
X80717571Y-59853286D01*
X80645000Y-60143571D01*
X80645000Y-60724143D01*
X80717571Y-60869286D01*
X80790143Y-60941857D01*
X80935285Y-61014429D01*
X81225571Y-61014429D01*
X81370714Y-60941857D01*
X81443285Y-60869286D01*
X81515857Y-60724143D01*
X81515857Y-60361286D01*
X81443285Y-60216143D01*
X81370714Y-60143571D01*
X81225571Y-60071000D01*
X80935285Y-60071000D01*
X80790143Y-60143571D01*
X80717571Y-60216143D01*
X80645000Y-60361286D01*
D20*
X57327800Y-51439233D02*
X57175400Y-51100567D01*
X57066543Y-51439233D02*
X57066543Y-50728033D01*
X57240715Y-50728033D01*
X57284257Y-50761900D01*
X57306029Y-50795767D01*
X57327800Y-50863500D01*
X57327800Y-50965100D01*
X57306029Y-51032833D01*
X57284257Y-51066700D01*
X57240715Y-51100567D01*
X57066543Y-51100567D01*
X57741457Y-50728033D02*
X57523743Y-50728033D01*
X57501972Y-51066700D01*
X57523743Y-51032833D01*
X57567286Y-50998967D01*
X57676143Y-50998967D01*
X57719686Y-51032833D01*
X57741457Y-51066700D01*
X57763229Y-51134433D01*
X57763229Y-51303767D01*
X57741457Y-51371500D01*
X57719686Y-51405367D01*
X57676143Y-51439233D01*
X57567286Y-51439233D01*
X57523743Y-51405367D01*
X57501972Y-51371500D01*
X57327800Y-60392733D02*
X57175400Y-60054067D01*
X57066543Y-60392733D02*
X57066543Y-59681533D01*
X57240715Y-59681533D01*
X57284257Y-59715400D01*
X57306029Y-59749267D01*
X57327800Y-59817000D01*
X57327800Y-59918600D01*
X57306029Y-59986333D01*
X57284257Y-60020200D01*
X57240715Y-60054067D01*
X57066543Y-60054067D01*
X57763229Y-60392733D02*
X57501972Y-60392733D01*
X57632600Y-60392733D02*
X57632600Y-59681533D01*
X57589057Y-59783133D01*
X57545515Y-59850867D01*
X57501972Y-59884733D01*
X57327800Y-55884233D02*
X57175400Y-55545567D01*
X57066543Y-55884233D02*
X57066543Y-55173033D01*
X57240715Y-55173033D01*
X57284257Y-55206900D01*
X57306029Y-55240767D01*
X57327800Y-55308500D01*
X57327800Y-55410100D01*
X57306029Y-55477833D01*
X57284257Y-55511700D01*
X57240715Y-55545567D01*
X57066543Y-55545567D01*
X57480200Y-55173033D02*
X57763229Y-55173033D01*
X57610829Y-55443967D01*
X57676143Y-55443967D01*
X57719686Y-55477833D01*
X57741457Y-55511700D01*
X57763229Y-55579433D01*
X57763229Y-55748767D01*
X57741457Y-55816500D01*
X57719686Y-55850367D01*
X57676143Y-55884233D01*
X57545515Y-55884233D01*
X57501972Y-55850367D01*
X57480200Y-55816500D01*
X57327800Y-53598233D02*
X57175400Y-53259567D01*
X57066543Y-53598233D02*
X57066543Y-52887033D01*
X57240715Y-52887033D01*
X57284257Y-52920900D01*
X57306029Y-52954767D01*
X57327800Y-53022500D01*
X57327800Y-53124100D01*
X57306029Y-53191833D01*
X57284257Y-53225700D01*
X57240715Y-53259567D01*
X57066543Y-53259567D01*
X57719686Y-53124100D02*
X57719686Y-53598233D01*
X57610829Y-52853167D02*
X57501972Y-53361167D01*
X57785000Y-53361167D01*
X57327800Y-58170233D02*
X57175400Y-57831567D01*
X57066543Y-58170233D02*
X57066543Y-57459033D01*
X57240715Y-57459033D01*
X57284257Y-57492900D01*
X57306029Y-57526767D01*
X57327800Y-57594500D01*
X57327800Y-57696100D01*
X57306029Y-57763833D01*
X57284257Y-57797700D01*
X57240715Y-57831567D01*
X57066543Y-57831567D01*
X57501972Y-57526767D02*
X57523743Y-57492900D01*
X57567286Y-57459033D01*
X57676143Y-57459033D01*
X57719686Y-57492900D01*
X57741457Y-57526767D01*
X57763229Y-57594500D01*
X57763229Y-57662233D01*
X57741457Y-57763833D01*
X57480200Y-58170233D01*
X57763229Y-58170233D01*
D12*
X60839047Y-61316810D02*
X60839047Y-60808810D01*
X60960000Y-60808810D01*
X61032571Y-60833000D01*
X61080952Y-60881381D01*
X61105143Y-60929762D01*
X61129333Y-61026524D01*
X61129333Y-61099095D01*
X61105143Y-61195857D01*
X61080952Y-61244238D01*
X61032571Y-61292619D01*
X60960000Y-61316810D01*
X60839047Y-61316810D01*
X61613143Y-61316810D02*
X61322857Y-61316810D01*
X61468000Y-61316810D02*
X61468000Y-60808810D01*
X61419619Y-60881381D01*
X61371238Y-60929762D01*
X61322857Y-60953952D01*
X59774666Y-59284810D02*
X59532761Y-59284810D01*
X59532761Y-58776810D01*
X60137523Y-59260619D02*
X60089142Y-59284810D01*
X59992380Y-59284810D01*
X59943999Y-59260619D01*
X59919809Y-59212238D01*
X59919809Y-59018714D01*
X59943999Y-58970333D01*
X59992380Y-58946143D01*
X60089142Y-58946143D01*
X60137523Y-58970333D01*
X60161714Y-59018714D01*
X60161714Y-59067095D01*
X59919809Y-59115476D01*
X60597143Y-59284810D02*
X60597143Y-58776810D01*
X60597143Y-59260619D02*
X60548762Y-59284810D01*
X60452000Y-59284810D01*
X60403619Y-59260619D01*
X60379428Y-59236429D01*
X60355238Y-59188048D01*
X60355238Y-59042905D01*
X60379428Y-58994524D01*
X60403619Y-58970333D01*
X60452000Y-58946143D01*
X60548762Y-58946143D01*
X60597143Y-58970333D01*
X61153524Y-58776810D02*
X61322857Y-59284810D01*
X61492191Y-58776810D01*
X61855048Y-59260619D02*
X61806667Y-59284810D01*
X61709905Y-59284810D01*
X61661524Y-59260619D01*
X61637334Y-59212238D01*
X61637334Y-59018714D01*
X61661524Y-58970333D01*
X61709905Y-58946143D01*
X61806667Y-58946143D01*
X61855048Y-58970333D01*
X61879239Y-59018714D01*
X61879239Y-59067095D01*
X61637334Y-59115476D01*
X62096953Y-59284810D02*
X62096953Y-58946143D01*
X62096953Y-59042905D02*
X62121144Y-58994524D01*
X62145334Y-58970333D01*
X62193715Y-58946143D01*
X62242096Y-58946143D01*
X62338858Y-58946143D02*
X62532382Y-58946143D01*
X62411429Y-58776810D02*
X62411429Y-59212238D01*
X62435620Y-59260619D01*
X62484001Y-59284810D01*
X62532382Y-59284810D01*
X62895239Y-59260619D02*
X62846858Y-59284810D01*
X62750096Y-59284810D01*
X62701715Y-59260619D01*
X62677525Y-59212238D01*
X62677525Y-59018714D01*
X62701715Y-58970333D01*
X62750096Y-58946143D01*
X62846858Y-58946143D01*
X62895239Y-58970333D01*
X62919430Y-59018714D01*
X62919430Y-59067095D01*
X62677525Y-59115476D01*
X60839047Y-52363310D02*
X60839047Y-51855310D01*
X60960000Y-51855310D01*
X61032571Y-51879500D01*
X61080952Y-51927881D01*
X61105143Y-51976262D01*
X61129333Y-52073024D01*
X61129333Y-52145595D01*
X61105143Y-52242357D01*
X61080952Y-52290738D01*
X61032571Y-52339119D01*
X60960000Y-52363310D01*
X60839047Y-52363310D01*
X61588952Y-51855310D02*
X61347047Y-51855310D01*
X61322857Y-52097214D01*
X61347047Y-52073024D01*
X61395428Y-52048833D01*
X61516381Y-52048833D01*
X61564762Y-52073024D01*
X61588952Y-52097214D01*
X61613143Y-52145595D01*
X61613143Y-52266548D01*
X61588952Y-52314929D01*
X61564762Y-52339119D01*
X61516381Y-52363310D01*
X61395428Y-52363310D01*
X61347047Y-52339119D01*
X61322857Y-52314929D01*
X60887429Y-50331310D02*
X60645524Y-50331310D01*
X60645524Y-49823310D01*
X61056762Y-50065214D02*
X61226096Y-50065214D01*
X61298667Y-50331310D02*
X61056762Y-50331310D01*
X61056762Y-49823310D01*
X61298667Y-49823310D01*
X61516381Y-50331310D02*
X61516381Y-49823310D01*
X61637334Y-49823310D01*
X61709905Y-49847500D01*
X61758286Y-49895881D01*
X61782477Y-49944262D01*
X61806667Y-50041024D01*
X61806667Y-50113595D01*
X61782477Y-50210357D01*
X61758286Y-50258738D01*
X61709905Y-50307119D01*
X61637334Y-50331310D01*
X61516381Y-50331310D01*
X60839047Y-56808310D02*
X60839047Y-56300310D01*
X60960000Y-56300310D01*
X61032571Y-56324500D01*
X61080952Y-56372881D01*
X61105143Y-56421262D01*
X61129333Y-56518024D01*
X61129333Y-56590595D01*
X61105143Y-56687357D01*
X61080952Y-56735738D01*
X61032571Y-56784119D01*
X60960000Y-56808310D01*
X60839047Y-56808310D01*
X61298666Y-56300310D02*
X61613143Y-56300310D01*
X61443809Y-56493833D01*
X61516381Y-56493833D01*
X61564762Y-56518024D01*
X61588952Y-56542214D01*
X61613143Y-56590595D01*
X61613143Y-56711548D01*
X61588952Y-56759929D01*
X61564762Y-56784119D01*
X61516381Y-56808310D01*
X61371238Y-56808310D01*
X61322857Y-56784119D01*
X61298666Y-56759929D01*
X60887429Y-54776310D02*
X60645524Y-54776310D01*
X60645524Y-54268310D01*
X61056762Y-54510214D02*
X61226096Y-54510214D01*
X61298667Y-54776310D02*
X61056762Y-54776310D01*
X61056762Y-54268310D01*
X61298667Y-54268310D01*
X61516381Y-54776310D02*
X61516381Y-54268310D01*
X61637334Y-54268310D01*
X61709905Y-54292500D01*
X61758286Y-54340881D01*
X61782477Y-54389262D01*
X61806667Y-54486024D01*
X61806667Y-54558595D01*
X61782477Y-54655357D01*
X61758286Y-54703738D01*
X61709905Y-54752119D01*
X61637334Y-54776310D01*
X61516381Y-54776310D01*
X60839047Y-54522310D02*
X60839047Y-54014310D01*
X60960000Y-54014310D01*
X61032571Y-54038500D01*
X61080952Y-54086881D01*
X61105143Y-54135262D01*
X61129333Y-54232024D01*
X61129333Y-54304595D01*
X61105143Y-54401357D01*
X61080952Y-54449738D01*
X61032571Y-54498119D01*
X60960000Y-54522310D01*
X60839047Y-54522310D01*
X61564762Y-54183643D02*
X61564762Y-54522310D01*
X61443809Y-53990119D02*
X61322857Y-54352976D01*
X61637333Y-54352976D01*
X60887429Y-52490310D02*
X60645524Y-52490310D01*
X60645524Y-51982310D01*
X61056762Y-52224214D02*
X61226096Y-52224214D01*
X61298667Y-52490310D02*
X61056762Y-52490310D01*
X61056762Y-51982310D01*
X61298667Y-51982310D01*
X61516381Y-52490310D02*
X61516381Y-51982310D01*
X61637334Y-51982310D01*
X61709905Y-52006500D01*
X61758286Y-52054881D01*
X61782477Y-52103262D01*
X61806667Y-52200024D01*
X61806667Y-52272595D01*
X61782477Y-52369357D01*
X61758286Y-52417738D01*
X61709905Y-52466119D01*
X61637334Y-52490310D01*
X61516381Y-52490310D01*
X60839047Y-59094310D02*
X60839047Y-58586310D01*
X60960000Y-58586310D01*
X61032571Y-58610500D01*
X61080952Y-58658881D01*
X61105143Y-58707262D01*
X61129333Y-58804024D01*
X61129333Y-58876595D01*
X61105143Y-58973357D01*
X61080952Y-59021738D01*
X61032571Y-59070119D01*
X60960000Y-59094310D01*
X60839047Y-59094310D01*
X61322857Y-58634690D02*
X61347047Y-58610500D01*
X61395428Y-58586310D01*
X61516381Y-58586310D01*
X61564762Y-58610500D01*
X61588952Y-58634690D01*
X61613143Y-58683071D01*
X61613143Y-58731452D01*
X61588952Y-58804024D01*
X61298666Y-59094310D01*
X61613143Y-59094310D01*
X60887429Y-57062310D02*
X60645524Y-57062310D01*
X60645524Y-56554310D01*
X61056762Y-56796214D02*
X61226096Y-56796214D01*
X61298667Y-57062310D02*
X61056762Y-57062310D01*
X61056762Y-56554310D01*
X61298667Y-56554310D01*
X61516381Y-57062310D02*
X61516381Y-56554310D01*
X61637334Y-56554310D01*
X61709905Y-56578500D01*
X61758286Y-56626881D01*
X61782477Y-56675262D01*
X61806667Y-56772024D01*
X61806667Y-56844595D01*
X61782477Y-56941357D01*
X61758286Y-56989738D01*
X61709905Y-57038119D01*
X61637334Y-57062310D01*
X61516381Y-57062310D01*
D21*
X199214680Y-45003478D02*
X197479860Y-45003478D01*
X197479860Y-44589337D01*
X197562470Y-44485802D01*
X197645080Y-44434034D01*
X197810301Y-44382266D01*
X198058133Y-44382266D01*
X198223354Y-44434034D01*
X198305964Y-44485802D01*
X198388575Y-44589337D01*
X198388575Y-45003478D01*
X198058133Y-43450449D02*
X199214680Y-43450449D01*
X197397249Y-43709287D02*
X198636406Y-43968126D01*
X198636406Y-43295146D01*
X190764402Y-45133200D02*
X190764402Y-43398380D01*
X191178543Y-43398380D01*
X191282078Y-43480990D01*
X191333846Y-43563600D01*
X191385614Y-43728821D01*
X191385614Y-43976653D01*
X191333846Y-44141874D01*
X191282078Y-44224484D01*
X191178543Y-44307095D01*
X190764402Y-44307095D01*
X191747987Y-43398380D02*
X192420966Y-43398380D01*
X192058593Y-44059263D01*
X192213895Y-44059263D01*
X192317431Y-44141874D01*
X192369198Y-44224484D01*
X192420966Y-44389705D01*
X192420966Y-44802758D01*
X192369198Y-44967979D01*
X192317431Y-45050589D01*
X192213895Y-45133200D01*
X191903290Y-45133200D01*
X191799754Y-45050589D01*
X191747987Y-44967979D01*
X183870842Y-45097640D02*
X183870842Y-43362820D01*
X184284983Y-43362820D01*
X184388518Y-43445430D01*
X184440286Y-43528040D01*
X184492054Y-43693261D01*
X184492054Y-43941093D01*
X184440286Y-44106314D01*
X184388518Y-44188924D01*
X184284983Y-44271535D01*
X183870842Y-44271535D01*
X185475638Y-43362820D02*
X184957962Y-43362820D01*
X184906194Y-44188924D01*
X184957962Y-44106314D01*
X185061497Y-44023703D01*
X185320335Y-44023703D01*
X185423871Y-44106314D01*
X185475638Y-44188924D01*
X185527406Y-44354145D01*
X185527406Y-44767198D01*
X185475638Y-44932419D01*
X185423871Y-45015029D01*
X185320335Y-45097640D01*
X185061497Y-45097640D01*
X184957962Y-45015029D01*
X184906194Y-44932419D01*
X204277202Y-45209400D02*
X204277202Y-43474580D01*
X204691343Y-43474580D01*
X204794878Y-43557190D01*
X204846646Y-43639800D01*
X204898414Y-43805021D01*
X204898414Y-44052853D01*
X204846646Y-44218074D01*
X204794878Y-44300684D01*
X204691343Y-44383295D01*
X204277202Y-44383295D01*
X205830231Y-43474580D02*
X205623160Y-43474580D01*
X205519625Y-43557190D01*
X205467857Y-43639800D01*
X205364322Y-43887632D01*
X205312554Y-44218074D01*
X205312554Y-44878958D01*
X205364322Y-45044179D01*
X205416090Y-45126789D01*
X205519625Y-45209400D01*
X205726695Y-45209400D01*
X205830231Y-45126789D01*
X205881998Y-45044179D01*
X205933766Y-44878958D01*
X205933766Y-44465905D01*
X205881998Y-44300684D01*
X205830231Y-44218074D01*
X205726695Y-44135463D01*
X205519625Y-44135463D01*
X205416090Y-44218074D01*
X205364322Y-44300684D01*
X205312554Y-44465905D01*
D15*
X59073143Y-44694929D02*
X59073143Y-43170929D01*
X59944000Y-44694929D02*
X59290857Y-43824071D01*
X59944000Y-43170929D02*
X59073143Y-44041786D01*
X61395429Y-44694929D02*
X60524572Y-44694929D01*
X60960000Y-44694929D02*
X60960000Y-43170929D01*
X60814857Y-43388643D01*
X60669715Y-43533786D01*
X60524572Y-43606357D01*
X55118001Y-37564786D02*
X55045430Y-37637357D01*
X54827716Y-37709929D01*
X54682573Y-37709929D01*
X54464858Y-37637357D01*
X54319716Y-37492214D01*
X54247144Y-37347071D01*
X54174573Y-37056786D01*
X54174573Y-36839071D01*
X54247144Y-36548786D01*
X54319716Y-36403643D01*
X54464858Y-36258500D01*
X54682573Y-36185929D01*
X54827716Y-36185929D01*
X55045430Y-36258500D01*
X55118001Y-36331071D01*
X56061430Y-36185929D02*
X56351716Y-36185929D01*
X56496858Y-36258500D01*
X56642001Y-36403643D01*
X56714573Y-36693929D01*
X56714573Y-37201929D01*
X56642001Y-37492214D01*
X56496858Y-37637357D01*
X56351716Y-37709929D01*
X56061430Y-37709929D01*
X55916287Y-37637357D01*
X55771144Y-37492214D01*
X55698573Y-37201929D01*
X55698573Y-36693929D01*
X55771144Y-36403643D01*
X55916287Y-36258500D01*
X56061430Y-36185929D01*
X58093429Y-37709929D02*
X57367715Y-37709929D01*
X57367715Y-36185929D01*
X58891715Y-36185929D02*
X59182001Y-36185929D01*
X59327143Y-36258500D01*
X59472286Y-36403643D01*
X59544858Y-36693929D01*
X59544858Y-37201929D01*
X59472286Y-37492214D01*
X59327143Y-37637357D01*
X59182001Y-37709929D01*
X58891715Y-37709929D01*
X58746572Y-37637357D01*
X58601429Y-37492214D01*
X58528858Y-37201929D01*
X58528858Y-36693929D01*
X58601429Y-36403643D01*
X58746572Y-36258500D01*
X58891715Y-36185929D01*
X60198000Y-37709929D02*
X60198000Y-36185929D01*
X61068857Y-37709929D01*
X61068857Y-36185929D01*
X61794571Y-36911643D02*
X62302571Y-36911643D01*
X62520285Y-37709929D02*
X61794571Y-37709929D01*
X61794571Y-36185929D01*
X62520285Y-36185929D01*
X62955714Y-36185929D02*
X63826571Y-36185929D01*
X63391142Y-37709929D02*
X63391142Y-36185929D01*
X64116857Y-36185929D02*
X64987714Y-36185929D01*
X64552285Y-37709929D02*
X64552285Y-36185929D01*
X65495714Y-36911643D02*
X66003714Y-36911643D01*
X66221428Y-37709929D02*
X65495714Y-37709929D01*
X65495714Y-36185929D01*
X66221428Y-36185929D01*
X59073143Y-78984929D02*
X59073143Y-77460929D01*
X59944000Y-78984929D02*
X59290857Y-78114071D01*
X59944000Y-77460929D02*
X59073143Y-78331786D01*
X60452000Y-77460929D02*
X61395429Y-77460929D01*
X60887429Y-78041500D01*
X61105143Y-78041500D01*
X61250286Y-78114071D01*
X61322857Y-78186643D01*
X61395429Y-78331786D01*
X61395429Y-78694643D01*
X61322857Y-78839786D01*
X61250286Y-78912357D01*
X61105143Y-78984929D01*
X60669715Y-78984929D01*
X60524572Y-78912357D01*
X60452000Y-78839786D01*
X55118001Y-71854786D02*
X55045430Y-71927357D01*
X54827716Y-71999929D01*
X54682573Y-71999929D01*
X54464858Y-71927357D01*
X54319716Y-71782214D01*
X54247144Y-71637071D01*
X54174573Y-71346786D01*
X54174573Y-71129071D01*
X54247144Y-70838786D01*
X54319716Y-70693643D01*
X54464858Y-70548500D01*
X54682573Y-70475929D01*
X54827716Y-70475929D01*
X55045430Y-70548500D01*
X55118001Y-70621071D01*
X56061430Y-70475929D02*
X56351716Y-70475929D01*
X56496858Y-70548500D01*
X56642001Y-70693643D01*
X56714573Y-70983929D01*
X56714573Y-71491929D01*
X56642001Y-71782214D01*
X56496858Y-71927357D01*
X56351716Y-71999929D01*
X56061430Y-71999929D01*
X55916287Y-71927357D01*
X55771144Y-71782214D01*
X55698573Y-71491929D01*
X55698573Y-70983929D01*
X55771144Y-70693643D01*
X55916287Y-70548500D01*
X56061430Y-70475929D01*
X58093429Y-71999929D02*
X57367715Y-71999929D01*
X57367715Y-70475929D01*
X58891715Y-70475929D02*
X59182001Y-70475929D01*
X59327143Y-70548500D01*
X59472286Y-70693643D01*
X59544858Y-70983929D01*
X59544858Y-71491929D01*
X59472286Y-71782214D01*
X59327143Y-71927357D01*
X59182001Y-71999929D01*
X58891715Y-71999929D01*
X58746572Y-71927357D01*
X58601429Y-71782214D01*
X58528858Y-71491929D01*
X58528858Y-70983929D01*
X58601429Y-70693643D01*
X58746572Y-70548500D01*
X58891715Y-70475929D01*
X60198000Y-71999929D02*
X60198000Y-70475929D01*
X61068857Y-71999929D01*
X61068857Y-70475929D01*
X61794571Y-71201643D02*
X62302571Y-71201643D01*
X62520285Y-71999929D02*
X61794571Y-71999929D01*
X61794571Y-70475929D01*
X62520285Y-70475929D01*
X62955714Y-70475929D02*
X63826571Y-70475929D01*
X63391142Y-71999929D02*
X63391142Y-70475929D01*
X64116857Y-70475929D02*
X64987714Y-70475929D01*
X64552285Y-71999929D02*
X64552285Y-70475929D01*
X65495714Y-71201643D02*
X66003714Y-71201643D01*
X66221428Y-71999929D02*
X65495714Y-71999929D01*
X65495714Y-70475929D01*
X66221428Y-70475929D01*
X137813143Y-44694929D02*
X137813143Y-43170929D01*
X138684000Y-44694929D02*
X138030857Y-43824071D01*
X138684000Y-43170929D02*
X137813143Y-44041786D01*
X140062857Y-43170929D02*
X139337143Y-43170929D01*
X139264572Y-43896643D01*
X139337143Y-43824071D01*
X139482286Y-43751500D01*
X139845143Y-43751500D01*
X139990286Y-43824071D01*
X140062857Y-43896643D01*
X140135429Y-44041786D01*
X140135429Y-44404643D01*
X140062857Y-44549786D01*
X139990286Y-44622357D01*
X139845143Y-44694929D01*
X139482286Y-44694929D01*
X139337143Y-44622357D01*
X139264572Y-44549786D01*
X133858001Y-37564786D02*
X133785430Y-37637357D01*
X133567716Y-37709929D01*
X133422573Y-37709929D01*
X133204858Y-37637357D01*
X133059716Y-37492214D01*
X132987144Y-37347071D01*
X132914573Y-37056786D01*
X132914573Y-36839071D01*
X132987144Y-36548786D01*
X133059716Y-36403643D01*
X133204858Y-36258500D01*
X133422573Y-36185929D01*
X133567716Y-36185929D01*
X133785430Y-36258500D01*
X133858001Y-36331071D01*
X134801430Y-36185929D02*
X135091716Y-36185929D01*
X135236858Y-36258500D01*
X135382001Y-36403643D01*
X135454573Y-36693929D01*
X135454573Y-37201929D01*
X135382001Y-37492214D01*
X135236858Y-37637357D01*
X135091716Y-37709929D01*
X134801430Y-37709929D01*
X134656287Y-37637357D01*
X134511144Y-37492214D01*
X134438573Y-37201929D01*
X134438573Y-36693929D01*
X134511144Y-36403643D01*
X134656287Y-36258500D01*
X134801430Y-36185929D01*
X136833429Y-37709929D02*
X136107715Y-37709929D01*
X136107715Y-36185929D01*
X137631715Y-36185929D02*
X137922001Y-36185929D01*
X138067143Y-36258500D01*
X138212286Y-36403643D01*
X138284858Y-36693929D01*
X138284858Y-37201929D01*
X138212286Y-37492214D01*
X138067143Y-37637357D01*
X137922001Y-37709929D01*
X137631715Y-37709929D01*
X137486572Y-37637357D01*
X137341429Y-37492214D01*
X137268858Y-37201929D01*
X137268858Y-36693929D01*
X137341429Y-36403643D01*
X137486572Y-36258500D01*
X137631715Y-36185929D01*
X138938000Y-37709929D02*
X138938000Y-36185929D01*
X139808857Y-37709929D01*
X139808857Y-36185929D01*
X140534571Y-36911643D02*
X141042571Y-36911643D01*
X141260285Y-37709929D02*
X140534571Y-37709929D01*
X140534571Y-36185929D01*
X141260285Y-36185929D01*
X141695714Y-36185929D02*
X142566571Y-36185929D01*
X142131142Y-37709929D02*
X142131142Y-36185929D01*
X142856857Y-36185929D02*
X143727714Y-36185929D01*
X143292285Y-37709929D02*
X143292285Y-36185929D01*
X144235714Y-36911643D02*
X144743714Y-36911643D01*
X144961428Y-37709929D02*
X144235714Y-37709929D01*
X144235714Y-36185929D01*
X144961428Y-36185929D01*
X137813143Y-78984929D02*
X137813143Y-77460929D01*
X138684000Y-78984929D02*
X138030857Y-78114071D01*
X138684000Y-77460929D02*
X137813143Y-78331786D01*
X139192000Y-77460929D02*
X140208000Y-77460929D01*
X139554857Y-78984929D01*
X133858001Y-71854786D02*
X133785430Y-71927357D01*
X133567716Y-71999929D01*
X133422573Y-71999929D01*
X133204858Y-71927357D01*
X133059716Y-71782214D01*
X132987144Y-71637071D01*
X132914573Y-71346786D01*
X132914573Y-71129071D01*
X132987144Y-70838786D01*
X133059716Y-70693643D01*
X133204858Y-70548500D01*
X133422573Y-70475929D01*
X133567716Y-70475929D01*
X133785430Y-70548500D01*
X133858001Y-70621071D01*
X134801430Y-70475929D02*
X135091716Y-70475929D01*
X135236858Y-70548500D01*
X135382001Y-70693643D01*
X135454573Y-70983929D01*
X135454573Y-71491929D01*
X135382001Y-71782214D01*
X135236858Y-71927357D01*
X135091716Y-71999929D01*
X134801430Y-71999929D01*
X134656287Y-71927357D01*
X134511144Y-71782214D01*
X134438573Y-71491929D01*
X134438573Y-70983929D01*
X134511144Y-70693643D01*
X134656287Y-70548500D01*
X134801430Y-70475929D01*
X136833429Y-71999929D02*
X136107715Y-71999929D01*
X136107715Y-70475929D01*
X137631715Y-70475929D02*
X137922001Y-70475929D01*
X138067143Y-70548500D01*
X138212286Y-70693643D01*
X138284858Y-70983929D01*
X138284858Y-71491929D01*
X138212286Y-71782214D01*
X138067143Y-71927357D01*
X137922001Y-71999929D01*
X137631715Y-71999929D01*
X137486572Y-71927357D01*
X137341429Y-71782214D01*
X137268858Y-71491929D01*
X137268858Y-70983929D01*
X137341429Y-70693643D01*
X137486572Y-70548500D01*
X137631715Y-70475929D01*
X138938000Y-71999929D02*
X138938000Y-70475929D01*
X139808857Y-71999929D01*
X139808857Y-70475929D01*
X140534571Y-71201643D02*
X141042571Y-71201643D01*
X141260285Y-71999929D02*
X140534571Y-71999929D01*
X140534571Y-70475929D01*
X141260285Y-70475929D01*
X141695714Y-70475929D02*
X142566571Y-70475929D01*
X142131142Y-71999929D02*
X142131142Y-70475929D01*
X142856857Y-70475929D02*
X143727714Y-70475929D01*
X143292285Y-71999929D02*
X143292285Y-70475929D01*
X144235714Y-71201643D02*
X144743714Y-71201643D01*
X144961428Y-71999929D02*
X144235714Y-71999929D01*
X144235714Y-70475929D01*
X144961428Y-70475929D01*
X150513143Y-44694929D02*
X150513143Y-43170929D01*
X151384000Y-44694929D02*
X150730857Y-43824071D01*
X151384000Y-43170929D02*
X150513143Y-44041786D01*
X151964572Y-43316071D02*
X152037143Y-43243500D01*
X152182286Y-43170929D01*
X152545143Y-43170929D01*
X152690286Y-43243500D01*
X152762857Y-43316071D01*
X152835429Y-43461214D01*
X152835429Y-43606357D01*
X152762857Y-43824071D01*
X151892000Y-44694929D01*
X152835429Y-44694929D01*
X146558001Y-37564786D02*
X146485430Y-37637357D01*
X146267716Y-37709929D01*
X146122573Y-37709929D01*
X145904858Y-37637357D01*
X145759716Y-37492214D01*
X145687144Y-37347071D01*
X145614573Y-37056786D01*
X145614573Y-36839071D01*
X145687144Y-36548786D01*
X145759716Y-36403643D01*
X145904858Y-36258500D01*
X146122573Y-36185929D01*
X146267716Y-36185929D01*
X146485430Y-36258500D01*
X146558001Y-36331071D01*
X147501430Y-36185929D02*
X147791716Y-36185929D01*
X147936858Y-36258500D01*
X148082001Y-36403643D01*
X148154573Y-36693929D01*
X148154573Y-37201929D01*
X148082001Y-37492214D01*
X147936858Y-37637357D01*
X147791716Y-37709929D01*
X147501430Y-37709929D01*
X147356287Y-37637357D01*
X147211144Y-37492214D01*
X147138573Y-37201929D01*
X147138573Y-36693929D01*
X147211144Y-36403643D01*
X147356287Y-36258500D01*
X147501430Y-36185929D01*
X149533429Y-37709929D02*
X148807715Y-37709929D01*
X148807715Y-36185929D01*
X150331715Y-36185929D02*
X150622001Y-36185929D01*
X150767143Y-36258500D01*
X150912286Y-36403643D01*
X150984858Y-36693929D01*
X150984858Y-37201929D01*
X150912286Y-37492214D01*
X150767143Y-37637357D01*
X150622001Y-37709929D01*
X150331715Y-37709929D01*
X150186572Y-37637357D01*
X150041429Y-37492214D01*
X149968858Y-37201929D01*
X149968858Y-36693929D01*
X150041429Y-36403643D01*
X150186572Y-36258500D01*
X150331715Y-36185929D01*
X151638000Y-37709929D02*
X151638000Y-36185929D01*
X152508857Y-37709929D01*
X152508857Y-36185929D01*
X153234571Y-36911643D02*
X153742571Y-36911643D01*
X153960285Y-37709929D02*
X153234571Y-37709929D01*
X153234571Y-36185929D01*
X153960285Y-36185929D01*
X154395714Y-36185929D02*
X155266571Y-36185929D01*
X154831142Y-37709929D02*
X154831142Y-36185929D01*
X155556857Y-36185929D02*
X156427714Y-36185929D01*
X155992285Y-37709929D02*
X155992285Y-36185929D01*
X156935714Y-36911643D02*
X157443714Y-36911643D01*
X157661428Y-37709929D02*
X156935714Y-37709929D01*
X156935714Y-36185929D01*
X157661428Y-36185929D01*
X150513143Y-78984929D02*
X150513143Y-77460929D01*
X151384000Y-78984929D02*
X150730857Y-78114071D01*
X151384000Y-77460929D02*
X150513143Y-78331786D01*
X152690286Y-77968929D02*
X152690286Y-78984929D01*
X152327429Y-77388357D02*
X151964572Y-78476929D01*
X152908000Y-78476929D01*
X146558001Y-71854786D02*
X146485430Y-71927357D01*
X146267716Y-71999929D01*
X146122573Y-71999929D01*
X145904858Y-71927357D01*
X145759716Y-71782214D01*
X145687144Y-71637071D01*
X145614573Y-71346786D01*
X145614573Y-71129071D01*
X145687144Y-70838786D01*
X145759716Y-70693643D01*
X145904858Y-70548500D01*
X146122573Y-70475929D01*
X146267716Y-70475929D01*
X146485430Y-70548500D01*
X146558001Y-70621071D01*
X147501430Y-70475929D02*
X147791716Y-70475929D01*
X147936858Y-70548500D01*
X148082001Y-70693643D01*
X148154573Y-70983929D01*
X148154573Y-71491929D01*
X148082001Y-71782214D01*
X147936858Y-71927357D01*
X147791716Y-71999929D01*
X147501430Y-71999929D01*
X147356287Y-71927357D01*
X147211144Y-71782214D01*
X147138573Y-71491929D01*
X147138573Y-70983929D01*
X147211144Y-70693643D01*
X147356287Y-70548500D01*
X147501430Y-70475929D01*
X149533429Y-71999929D02*
X148807715Y-71999929D01*
X148807715Y-70475929D01*
X150331715Y-70475929D02*
X150622001Y-70475929D01*
X150767143Y-70548500D01*
X150912286Y-70693643D01*
X150984858Y-70983929D01*
X150984858Y-71491929D01*
X150912286Y-71782214D01*
X150767143Y-71927357D01*
X150622001Y-71999929D01*
X150331715Y-71999929D01*
X150186572Y-71927357D01*
X150041429Y-71782214D01*
X149968858Y-71491929D01*
X149968858Y-70983929D01*
X150041429Y-70693643D01*
X150186572Y-70548500D01*
X150331715Y-70475929D01*
X151638000Y-71999929D02*
X151638000Y-70475929D01*
X152508857Y-71999929D01*
X152508857Y-70475929D01*
X153234571Y-71201643D02*
X153742571Y-71201643D01*
X153960285Y-71999929D02*
X153234571Y-71999929D01*
X153234571Y-70475929D01*
X153960285Y-70475929D01*
X154395714Y-70475929D02*
X155266571Y-70475929D01*
X154831142Y-71999929D02*
X154831142Y-70475929D01*
X155556857Y-70475929D02*
X156427714Y-70475929D01*
X155992285Y-71999929D02*
X155992285Y-70475929D01*
X156935714Y-71201643D02*
X157443714Y-71201643D01*
X157661428Y-71999929D02*
X156935714Y-71999929D01*
X156935714Y-70475929D01*
X157661428Y-70475929D01*
X229253143Y-44694929D02*
X229253143Y-43170929D01*
X230124000Y-44694929D02*
X229470857Y-43824071D01*
X230124000Y-43170929D02*
X229253143Y-44041786D01*
X231430286Y-43170929D02*
X231140000Y-43170929D01*
X230994857Y-43243500D01*
X230922286Y-43316071D01*
X230777143Y-43533786D01*
X230704572Y-43824071D01*
X230704572Y-44404643D01*
X230777143Y-44549786D01*
X230849715Y-44622357D01*
X230994857Y-44694929D01*
X231285143Y-44694929D01*
X231430286Y-44622357D01*
X231502857Y-44549786D01*
X231575429Y-44404643D01*
X231575429Y-44041786D01*
X231502857Y-43896643D01*
X231430286Y-43824071D01*
X231285143Y-43751500D01*
X230994857Y-43751500D01*
X230849715Y-43824071D01*
X230777143Y-43896643D01*
X230704572Y-44041786D01*
X225298001Y-37564786D02*
X225225430Y-37637357D01*
X225007716Y-37709929D01*
X224862573Y-37709929D01*
X224644858Y-37637357D01*
X224499716Y-37492214D01*
X224427144Y-37347071D01*
X224354573Y-37056786D01*
X224354573Y-36839071D01*
X224427144Y-36548786D01*
X224499716Y-36403643D01*
X224644858Y-36258500D01*
X224862573Y-36185929D01*
X225007716Y-36185929D01*
X225225430Y-36258500D01*
X225298001Y-36331071D01*
X226241430Y-36185929D02*
X226531716Y-36185929D01*
X226676858Y-36258500D01*
X226822001Y-36403643D01*
X226894573Y-36693929D01*
X226894573Y-37201929D01*
X226822001Y-37492214D01*
X226676858Y-37637357D01*
X226531716Y-37709929D01*
X226241430Y-37709929D01*
X226096287Y-37637357D01*
X225951144Y-37492214D01*
X225878573Y-37201929D01*
X225878573Y-36693929D01*
X225951144Y-36403643D01*
X226096287Y-36258500D01*
X226241430Y-36185929D01*
X228273429Y-37709929D02*
X227547715Y-37709929D01*
X227547715Y-36185929D01*
X229071715Y-36185929D02*
X229362001Y-36185929D01*
X229507143Y-36258500D01*
X229652286Y-36403643D01*
X229724858Y-36693929D01*
X229724858Y-37201929D01*
X229652286Y-37492214D01*
X229507143Y-37637357D01*
X229362001Y-37709929D01*
X229071715Y-37709929D01*
X228926572Y-37637357D01*
X228781429Y-37492214D01*
X228708858Y-37201929D01*
X228708858Y-36693929D01*
X228781429Y-36403643D01*
X228926572Y-36258500D01*
X229071715Y-36185929D01*
X230378000Y-37709929D02*
X230378000Y-36185929D01*
X231248857Y-37709929D01*
X231248857Y-36185929D01*
X231974571Y-36911643D02*
X232482571Y-36911643D01*
X232700285Y-37709929D02*
X231974571Y-37709929D01*
X231974571Y-36185929D01*
X232700285Y-36185929D01*
X233135714Y-36185929D02*
X234006571Y-36185929D01*
X233571142Y-37709929D02*
X233571142Y-36185929D01*
X234296857Y-36185929D02*
X235167714Y-36185929D01*
X234732285Y-37709929D02*
X234732285Y-36185929D01*
X235675714Y-36911643D02*
X236183714Y-36911643D01*
X236401428Y-37709929D02*
X235675714Y-37709929D01*
X235675714Y-36185929D01*
X236401428Y-36185929D01*
X229253143Y-78984929D02*
X229253143Y-77460929D01*
X230124000Y-78984929D02*
X229470857Y-78114071D01*
X230124000Y-77460929D02*
X229253143Y-78331786D01*
X230994857Y-78114071D02*
X230849715Y-78041500D01*
X230777143Y-77968929D01*
X230704572Y-77823786D01*
X230704572Y-77751214D01*
X230777143Y-77606071D01*
X230849715Y-77533500D01*
X230994857Y-77460929D01*
X231285143Y-77460929D01*
X231430286Y-77533500D01*
X231502857Y-77606071D01*
X231575429Y-77751214D01*
X231575429Y-77823786D01*
X231502857Y-77968929D01*
X231430286Y-78041500D01*
X231285143Y-78114071D01*
X230994857Y-78114071D01*
X230849715Y-78186643D01*
X230777143Y-78259214D01*
X230704572Y-78404357D01*
X230704572Y-78694643D01*
X230777143Y-78839786D01*
X230849715Y-78912357D01*
X230994857Y-78984929D01*
X231285143Y-78984929D01*
X231430286Y-78912357D01*
X231502857Y-78839786D01*
X231575429Y-78694643D01*
X231575429Y-78404357D01*
X231502857Y-78259214D01*
X231430286Y-78186643D01*
X231285143Y-78114071D01*
X225298001Y-71854786D02*
X225225430Y-71927357D01*
X225007716Y-71999929D01*
X224862573Y-71999929D01*
X224644858Y-71927357D01*
X224499716Y-71782214D01*
X224427144Y-71637071D01*
X224354573Y-71346786D01*
X224354573Y-71129071D01*
X224427144Y-70838786D01*
X224499716Y-70693643D01*
X224644858Y-70548500D01*
X224862573Y-70475929D01*
X225007716Y-70475929D01*
X225225430Y-70548500D01*
X225298001Y-70621071D01*
X226241430Y-70475929D02*
X226531716Y-70475929D01*
X226676858Y-70548500D01*
X226822001Y-70693643D01*
X226894573Y-70983929D01*
X226894573Y-71491929D01*
X226822001Y-71782214D01*
X226676858Y-71927357D01*
X226531716Y-71999929D01*
X226241430Y-71999929D01*
X226096287Y-71927357D01*
X225951144Y-71782214D01*
X225878573Y-71491929D01*
X225878573Y-70983929D01*
X225951144Y-70693643D01*
X226096287Y-70548500D01*
X226241430Y-70475929D01*
X228273429Y-71999929D02*
X227547715Y-71999929D01*
X227547715Y-70475929D01*
X229071715Y-70475929D02*
X229362001Y-70475929D01*
X229507143Y-70548500D01*
X229652286Y-70693643D01*
X229724858Y-70983929D01*
X229724858Y-71491929D01*
X229652286Y-71782214D01*
X229507143Y-71927357D01*
X229362001Y-71999929D01*
X229071715Y-71999929D01*
X228926572Y-71927357D01*
X228781429Y-71782214D01*
X228708858Y-71491929D01*
X228708858Y-70983929D01*
X228781429Y-70693643D01*
X228926572Y-70548500D01*
X229071715Y-70475929D01*
X230378000Y-71999929D02*
X230378000Y-70475929D01*
X231248857Y-71999929D01*
X231248857Y-70475929D01*
X231974571Y-71201643D02*
X232482571Y-71201643D01*
X232700285Y-71999929D02*
X231974571Y-71999929D01*
X231974571Y-70475929D01*
X232700285Y-70475929D01*
X233135714Y-70475929D02*
X234006571Y-70475929D01*
X233571142Y-71999929D02*
X233571142Y-70475929D01*
X234296857Y-70475929D02*
X235167714Y-70475929D01*
X234732285Y-71999929D02*
X234732285Y-70475929D01*
X235675714Y-71201643D02*
X236183714Y-71201643D01*
X236401428Y-71999929D02*
X235675714Y-71999929D01*
X235675714Y-70475929D01*
X236401428Y-70475929D01*
D22*
X213481754Y-37079181D02*
X213481754Y-36079181D01*
X213862707Y-36079181D01*
X213957945Y-36126800D01*
X214005564Y-36174419D01*
X214053183Y-36269657D01*
X214053183Y-36412514D01*
X214005564Y-36507752D01*
X213957945Y-36555371D01*
X213862707Y-36602990D01*
X213481754Y-36602990D01*
X215005564Y-37079181D02*
X214434135Y-37079181D01*
X214719849Y-37079181D02*
X214719849Y-36079181D01*
X214624611Y-36222038D01*
X214529373Y-36317276D01*
X214434135Y-36364895D01*
X215576992Y-36507752D02*
X215481754Y-36460133D01*
X215434135Y-36412514D01*
X215386516Y-36317276D01*
X215386516Y-36269657D01*
X215434135Y-36174419D01*
X215481754Y-36126800D01*
X215576992Y-36079181D01*
X215767469Y-36079181D01*
X215862707Y-36126800D01*
X215910326Y-36174419D01*
X215957945Y-36269657D01*
X215957945Y-36317276D01*
X215910326Y-36412514D01*
X215862707Y-36460133D01*
X215767469Y-36507752D01*
X215576992Y-36507752D01*
X215481754Y-36555371D01*
X215434135Y-36602990D01*
X215386516Y-36698229D01*
X215386516Y-36888705D01*
X215434135Y-36983943D01*
X215481754Y-37031562D01*
X215576992Y-37079181D01*
X215767469Y-37079181D01*
X215862707Y-37031562D01*
X215910326Y-36983943D01*
X215957945Y-36888705D01*
X215957945Y-36698229D01*
X215910326Y-36602990D01*
X215862707Y-36555371D01*
X215767469Y-36507752D01*
X122102714Y-37221421D02*
X122102714Y-36221421D01*
X122483667Y-36221421D01*
X122578905Y-36269040D01*
X122626524Y-36316659D01*
X122674143Y-36411897D01*
X122674143Y-36554754D01*
X122626524Y-36649992D01*
X122578905Y-36697611D01*
X122483667Y-36745230D01*
X122102714Y-36745230D01*
X123626524Y-37221421D02*
X123055095Y-37221421D01*
X123340809Y-37221421D02*
X123340809Y-36221421D01*
X123245571Y-36364278D01*
X123150333Y-36459516D01*
X123055095Y-36507135D01*
X124102714Y-37221421D02*
X124293190Y-37221421D01*
X124388429Y-37173802D01*
X124436048Y-37126183D01*
X124531286Y-36983326D01*
X124578905Y-36792850D01*
X124578905Y-36411897D01*
X124531286Y-36316659D01*
X124483667Y-36269040D01*
X124388429Y-36221421D01*
X124197952Y-36221421D01*
X124102714Y-36269040D01*
X124055095Y-36316659D01*
X124007476Y-36411897D01*
X124007476Y-36649992D01*
X124055095Y-36745230D01*
X124102714Y-36792850D01*
X124197952Y-36840469D01*
X124388429Y-36840469D01*
X124483667Y-36792850D01*
X124531286Y-36745230D01*
X124578905Y-36649992D01*
X169600714Y-37094421D02*
X169600714Y-36094421D01*
X169981667Y-36094421D01*
X170076905Y-36142040D01*
X170124524Y-36189659D01*
X170172143Y-36284897D01*
X170172143Y-36427754D01*
X170124524Y-36522992D01*
X170076905Y-36570611D01*
X169981667Y-36618230D01*
X169600714Y-36618230D01*
X171124524Y-37094421D02*
X170553095Y-37094421D01*
X170838809Y-37094421D02*
X170838809Y-36094421D01*
X170743571Y-36237278D01*
X170648333Y-36332516D01*
X170553095Y-36380135D01*
X171457857Y-36094421D02*
X172124524Y-36094421D01*
X171695952Y-37094421D01*
X78262314Y-37170621D02*
X78262314Y-36170621D01*
X78643267Y-36170621D01*
X78738505Y-36218240D01*
X78786124Y-36265859D01*
X78833743Y-36361097D01*
X78833743Y-36503954D01*
X78786124Y-36599192D01*
X78738505Y-36646811D01*
X78643267Y-36694430D01*
X78262314Y-36694430D01*
X79786124Y-37170621D02*
X79214695Y-37170621D01*
X79500409Y-37170621D02*
X79500409Y-36170621D01*
X79405171Y-36313478D01*
X79309933Y-36408716D01*
X79214695Y-36456335D01*
X80690886Y-36170621D02*
X80214695Y-36170621D01*
X80167076Y-36646811D01*
X80214695Y-36599192D01*
X80309933Y-36551573D01*
X80548029Y-36551573D01*
X80643267Y-36599192D01*
X80690886Y-36646811D01*
X80738505Y-36742050D01*
X80738505Y-36980145D01*
X80690886Y-37075383D01*
X80643267Y-37123002D01*
X80548029Y-37170621D01*
X80309933Y-37170621D01*
X80214695Y-37123002D01*
X80167076Y-37075383D01*
X189126905Y-85923381D02*
X189126905Y-84923381D01*
X189507858Y-84923381D01*
X189603096Y-84971000D01*
X189650715Y-85018619D01*
X189698334Y-85113857D01*
X189698334Y-85256714D01*
X189650715Y-85351952D01*
X189603096Y-85399571D01*
X189507858Y-85447190D01*
X189126905Y-85447190D01*
X190079286Y-85018619D02*
X190126905Y-84971000D01*
X190222143Y-84923381D01*
X190460239Y-84923381D01*
X190555477Y-84971000D01*
X190603096Y-85018619D01*
X190650715Y-85113857D01*
X190650715Y-85209095D01*
X190603096Y-85351952D01*
X190031667Y-85923381D01*
X190650715Y-85923381D01*
D15*
X86632143Y-85906429D02*
X86632143Y-84382429D01*
X87212715Y-84382429D01*
X87357857Y-84455000D01*
X87430429Y-84527571D01*
X87503000Y-84672714D01*
X87503000Y-84890429D01*
X87430429Y-85035571D01*
X87357857Y-85108143D01*
X87212715Y-85180714D01*
X86632143Y-85180714D01*
X88954429Y-85906429D02*
X88083572Y-85906429D01*
X88519000Y-85906429D02*
X88519000Y-84382429D01*
X88373857Y-84600143D01*
X88228715Y-84745286D01*
X88083572Y-84817857D01*
X90024857Y-75156786D02*
X89952286Y-75229357D01*
X89734572Y-75301929D01*
X89589429Y-75301929D01*
X89371714Y-75229357D01*
X89226572Y-75084214D01*
X89154000Y-74939071D01*
X89081429Y-74648786D01*
X89081429Y-74431071D01*
X89154000Y-74140786D01*
X89226572Y-73995643D01*
X89371714Y-73850500D01*
X89589429Y-73777929D01*
X89734572Y-73777929D01*
X89952286Y-73850500D01*
X90024857Y-73923071D01*
X90968286Y-73777929D02*
X91258572Y-73777929D01*
X91403714Y-73850500D01*
X91548857Y-73995643D01*
X91621429Y-74285929D01*
X91621429Y-74793929D01*
X91548857Y-75084214D01*
X91403714Y-75229357D01*
X91258572Y-75301929D01*
X90968286Y-75301929D01*
X90823143Y-75229357D01*
X90678000Y-75084214D01*
X90605429Y-74793929D01*
X90605429Y-74285929D01*
X90678000Y-73995643D01*
X90823143Y-73850500D01*
X90968286Y-73777929D01*
X92274571Y-75301929D02*
X92274571Y-73777929D01*
X93145428Y-75301929D01*
X93145428Y-73777929D01*
X93871142Y-75301929D02*
X93871142Y-73777929D01*
X94741999Y-75301929D01*
X94741999Y-73777929D01*
X95104856Y-75447071D02*
X96265999Y-75447071D01*
X97427142Y-75301929D02*
X96556285Y-75301929D01*
X96991713Y-75301929D02*
X96991713Y-73777929D01*
X96846570Y-73995643D01*
X96701428Y-74140786D01*
X96556285Y-74213357D01*
X98007714Y-73923071D02*
X98080285Y-73850500D01*
X98225428Y-73777929D01*
X98588285Y-73777929D01*
X98733428Y-73850500D01*
X98805999Y-73923071D01*
X98878571Y-74068214D01*
X98878571Y-74213357D01*
X98805999Y-74431071D01*
X97935142Y-75301929D01*
X98878571Y-75301929D01*
D21*
X223444042Y-72844600D02*
X223444042Y-71109780D01*
X224065254Y-72844600D02*
X223599345Y-71853274D01*
X224065254Y-71109780D02*
X223444042Y-72101105D01*
X224582930Y-72844600D02*
X224790000Y-72844600D01*
X224893535Y-72761989D01*
X224945303Y-72679379D01*
X225048838Y-72431547D01*
X225100606Y-72101105D01*
X225100606Y-71440221D01*
X225048838Y-71275000D01*
X224997071Y-71192390D01*
X224893535Y-71109780D01*
X224686465Y-71109780D01*
X224582930Y-71192390D01*
X224531162Y-71275000D01*
X224479394Y-71440221D01*
X224479394Y-71853274D01*
X224531162Y-72018495D01*
X224582930Y-72101105D01*
X224686465Y-72183716D01*
X224893535Y-72183716D01*
X224997071Y-72101105D01*
X225048838Y-72018495D01*
X225100606Y-71853274D01*
X215915966Y-72814120D02*
X215915966Y-71079300D01*
X216537178Y-72814120D02*
X216071269Y-71822794D01*
X216537178Y-71079300D02*
X215915966Y-72070625D01*
X217572530Y-72814120D02*
X216951318Y-72814120D01*
X217261924Y-72814120D02*
X217261924Y-71079300D01*
X217158389Y-71327131D01*
X217054854Y-71492352D01*
X216951318Y-71574962D01*
X218607882Y-72814120D02*
X217986670Y-72814120D01*
X218297276Y-72814120D02*
X218297276Y-71079300D01*
X218193741Y-71327131D01*
X218090206Y-71492352D01*
X217986670Y-71574962D01*
X226594126Y-53098640D02*
X226594126Y-51363820D01*
X227215338Y-53098640D02*
X226749429Y-52107314D01*
X227215338Y-51363820D02*
X226594126Y-52355145D01*
X228250690Y-53098640D02*
X227629478Y-53098640D01*
X227940084Y-53098640D02*
X227940084Y-51363820D01*
X227836549Y-51611651D01*
X227733014Y-51776872D01*
X227629478Y-51859482D01*
X228923669Y-51363820D02*
X229027204Y-51363820D01*
X229130739Y-51446430D01*
X229182507Y-51529040D01*
X229234274Y-51694261D01*
X229286042Y-52024703D01*
X229286042Y-52437756D01*
X229234274Y-52768198D01*
X229182507Y-52933419D01*
X229130739Y-53016029D01*
X229027204Y-53098640D01*
X228923669Y-53098640D01*
X228820133Y-53016029D01*
X228768366Y-52933419D01*
X228716598Y-52768198D01*
X228664830Y-52437756D01*
X228664830Y-52024703D01*
X228716598Y-51694261D01*
X228768366Y-51529040D01*
X228820133Y-51446430D01*
X228923669Y-51363820D01*
X208763326Y-72758240D02*
X208763326Y-71023420D01*
X209384538Y-72758240D02*
X208918629Y-71766914D01*
X209384538Y-71023420D02*
X208763326Y-72014745D01*
X210419890Y-72758240D02*
X209798678Y-72758240D01*
X210109284Y-72758240D02*
X210109284Y-71023420D01*
X210005749Y-71271251D01*
X209902214Y-71436472D01*
X209798678Y-71519082D01*
X210782263Y-71023420D02*
X211455242Y-71023420D01*
X211092869Y-71684303D01*
X211248171Y-71684303D01*
X211351707Y-71766914D01*
X211403474Y-71849524D01*
X211455242Y-72014745D01*
X211455242Y-72427798D01*
X211403474Y-72593019D01*
X211351707Y-72675629D01*
X211248171Y-72758240D01*
X210937566Y-72758240D01*
X210834030Y-72675629D01*
X210782263Y-72593019D01*
X219405926Y-53088480D02*
X219405926Y-51353660D01*
X220027138Y-53088480D02*
X219561229Y-52097154D01*
X220027138Y-51353660D02*
X219405926Y-52344985D01*
X221062490Y-53088480D02*
X220441278Y-53088480D01*
X220751884Y-53088480D02*
X220751884Y-51353660D01*
X220648349Y-51601491D01*
X220544814Y-51766712D01*
X220441278Y-51849322D01*
X221476630Y-51518880D02*
X221528398Y-51436270D01*
X221631933Y-51353660D01*
X221890771Y-51353660D01*
X221994307Y-51436270D01*
X222046074Y-51518880D01*
X222097842Y-51684101D01*
X222097842Y-51849322D01*
X222046074Y-52097154D01*
X221424863Y-53088480D01*
X222097842Y-53088480D01*
X212532686Y-53144360D02*
X212532686Y-51409540D01*
X213153898Y-53144360D02*
X212687989Y-52153034D01*
X213153898Y-51409540D02*
X212532686Y-52400865D01*
X214189250Y-53144360D02*
X213568038Y-53144360D01*
X213878644Y-53144360D02*
X213878644Y-51409540D01*
X213775109Y-51657371D01*
X213671574Y-51822592D01*
X213568038Y-51905202D01*
X215121067Y-51987813D02*
X215121067Y-53144360D01*
X214862229Y-51326929D02*
X214603390Y-52566086D01*
X215276370Y-52566086D01*
X188922600Y-70890674D02*
X187187780Y-70890674D01*
X188922600Y-70269462D02*
X187931274Y-70735371D01*
X187187780Y-70269462D02*
X188179105Y-70890674D01*
X188922600Y-69234110D02*
X188922600Y-69855322D01*
X188922600Y-69544716D02*
X187187780Y-69544716D01*
X187435611Y-69648251D01*
X187600832Y-69751786D01*
X187683442Y-69855322D01*
X187187780Y-68250526D02*
X187187780Y-68768202D01*
X188013884Y-68819970D01*
X187931274Y-68768202D01*
X187848663Y-68664667D01*
X187848663Y-68405829D01*
X187931274Y-68302293D01*
X188013884Y-68250526D01*
X188179105Y-68198758D01*
X188592158Y-68198758D01*
X188757379Y-68250526D01*
X188839989Y-68302293D01*
X188922600Y-68405829D01*
X188922600Y-68664667D01*
X188839989Y-68768202D01*
X188757379Y-68819970D01*
X190980000Y-62889674D02*
X189245180Y-62889674D01*
X190980000Y-62268462D02*
X189988674Y-62734371D01*
X189245180Y-62268462D02*
X190236505Y-62889674D01*
X190980000Y-61233110D02*
X190980000Y-61854322D01*
X190980000Y-61543716D02*
X189245180Y-61543716D01*
X189493011Y-61647251D01*
X189658232Y-61750786D01*
X189740842Y-61854322D01*
X189245180Y-60870737D02*
X189245180Y-60145990D01*
X190980000Y-60611899D01*
X179285840Y-70890674D02*
X177551020Y-70890674D01*
X179285840Y-70269462D02*
X178294514Y-70735371D01*
X177551020Y-70269462D02*
X178542345Y-70890674D01*
X179285840Y-69234110D02*
X179285840Y-69855322D01*
X179285840Y-69544716D02*
X177551020Y-69544716D01*
X177798851Y-69648251D01*
X177964072Y-69751786D01*
X178046682Y-69855322D01*
X179285840Y-68716434D02*
X179285840Y-68509364D01*
X179203229Y-68405829D01*
X179120619Y-68354061D01*
X178872787Y-68250526D01*
X178542345Y-68198758D01*
X177881461Y-68198758D01*
X177716240Y-68250526D01*
X177633630Y-68302293D01*
X177551020Y-68405829D01*
X177551020Y-68612899D01*
X177633630Y-68716434D01*
X177716240Y-68768202D01*
X177881461Y-68819970D01*
X178294514Y-68819970D01*
X178459735Y-68768202D01*
X178542345Y-68716434D01*
X178624956Y-68612899D01*
X178624956Y-68405829D01*
X178542345Y-68302293D01*
X178459735Y-68250526D01*
X178294514Y-68198758D01*
X181444840Y-62762674D02*
X179710020Y-62762674D01*
X181444840Y-62141462D02*
X180453514Y-62607371D01*
X179710020Y-62141462D02*
X180701345Y-62762674D01*
X181444840Y-61106110D02*
X181444840Y-61727322D01*
X181444840Y-61416716D02*
X179710020Y-61416716D01*
X179957851Y-61520251D01*
X180123072Y-61623786D01*
X180205682Y-61727322D01*
X179710020Y-60174293D02*
X179710020Y-60381364D01*
X179792630Y-60484899D01*
X179875240Y-60536667D01*
X180123072Y-60640202D01*
X180453514Y-60691970D01*
X181114398Y-60691970D01*
X181279619Y-60640202D01*
X181362229Y-60588434D01*
X181444840Y-60484899D01*
X181444840Y-60277829D01*
X181362229Y-60174293D01*
X181279619Y-60122526D01*
X181114398Y-60070758D01*
X180701345Y-60070758D01*
X180536124Y-60122526D01*
X180453514Y-60174293D01*
X180370903Y-60277829D01*
X180370903Y-60484899D01*
X180453514Y-60588434D01*
X180536124Y-60640202D01*
X180701345Y-60691970D01*
X171889360Y-62874434D02*
X170154540Y-62874434D01*
X171889360Y-62253222D02*
X170898034Y-62719131D01*
X170154540Y-62253222D02*
X171145865Y-62874434D01*
X171889360Y-61217870D02*
X171889360Y-61839082D01*
X171889360Y-61528476D02*
X170154540Y-61528476D01*
X170402371Y-61632011D01*
X170567592Y-61735546D01*
X170650202Y-61839082D01*
X170898034Y-60596659D02*
X170815423Y-60700194D01*
X170732813Y-60751962D01*
X170567592Y-60803730D01*
X170484981Y-60803730D01*
X170319760Y-60751962D01*
X170237150Y-60700194D01*
X170154540Y-60596659D01*
X170154540Y-60389589D01*
X170237150Y-60286053D01*
X170319760Y-60234286D01*
X170484981Y-60182518D01*
X170567592Y-60182518D01*
X170732813Y-60234286D01*
X170815423Y-60286053D01*
X170898034Y-60389589D01*
X170898034Y-60596659D01*
X170980644Y-60700194D01*
X171063255Y-60751962D01*
X171228476Y-60803730D01*
X171558918Y-60803730D01*
X171724139Y-60751962D01*
X171806749Y-60700194D01*
X171889360Y-60596659D01*
X171889360Y-60389589D01*
X171806749Y-60286053D01*
X171724139Y-60234286D01*
X171558918Y-60182518D01*
X171228476Y-60182518D01*
X171063255Y-60234286D01*
X170980644Y-60286053D01*
X170898034Y-60389589D01*
X169948800Y-70890674D02*
X168213980Y-70890674D01*
X169948800Y-70269462D02*
X168957474Y-70735371D01*
X168213980Y-70269462D02*
X169205305Y-70890674D01*
X168379200Y-69855322D02*
X168296590Y-69803554D01*
X168213980Y-69700019D01*
X168213980Y-69441181D01*
X168296590Y-69337645D01*
X168379200Y-69285878D01*
X168544421Y-69234110D01*
X168709642Y-69234110D01*
X168957474Y-69285878D01*
X169948800Y-69907089D01*
X169948800Y-69234110D01*
X168213980Y-68561131D02*
X168213980Y-68457596D01*
X168296590Y-68354061D01*
X168379200Y-68302293D01*
X168544421Y-68250526D01*
X168874863Y-68198758D01*
X169287916Y-68198758D01*
X169618358Y-68250526D01*
X169783579Y-68302293D01*
X169866189Y-68354061D01*
X169948800Y-68457596D01*
X169948800Y-68561131D01*
X169866189Y-68664667D01*
X169783579Y-68716434D01*
X169618358Y-68768202D01*
X169287916Y-68819970D01*
X168874863Y-68819970D01*
X168544421Y-68768202D01*
X168379200Y-68716434D01*
X168296590Y-68664667D01*
X168213980Y-68561131D01*
D15*
X119942428Y-86033429D02*
X119942428Y-84509429D01*
X120523000Y-84509429D01*
X120668142Y-84582000D01*
X120740714Y-84654571D01*
X120813285Y-84799714D01*
X120813285Y-85017429D01*
X120740714Y-85162571D01*
X120668142Y-85235143D01*
X120523000Y-85307714D01*
X119942428Y-85307714D01*
X122264714Y-86033429D02*
X121393857Y-86033429D01*
X121829285Y-86033429D02*
X121829285Y-84509429D01*
X121684142Y-84727143D01*
X121539000Y-84872286D01*
X121393857Y-84944857D01*
X123716143Y-86033429D02*
X122845286Y-86033429D01*
X123280714Y-86033429D02*
X123280714Y-84509429D01*
X123135571Y-84727143D01*
X122990429Y-84872286D01*
X122845286Y-84944857D01*
X119643072Y-75156786D02*
X119570501Y-75229357D01*
X119352787Y-75301929D01*
X119207644Y-75301929D01*
X118989929Y-75229357D01*
X118844787Y-75084214D01*
X118772215Y-74939071D01*
X118699644Y-74648786D01*
X118699644Y-74431071D01*
X118772215Y-74140786D01*
X118844787Y-73995643D01*
X118989929Y-73850500D01*
X119207644Y-73777929D01*
X119352787Y-73777929D01*
X119570501Y-73850500D01*
X119643072Y-73923071D01*
X120586501Y-73777929D02*
X120876787Y-73777929D01*
X121021929Y-73850500D01*
X121167072Y-73995643D01*
X121239644Y-74285929D01*
X121239644Y-74793929D01*
X121167072Y-75084214D01*
X121021929Y-75229357D01*
X120876787Y-75301929D01*
X120586501Y-75301929D01*
X120441358Y-75229357D01*
X120296215Y-75084214D01*
X120223644Y-74793929D01*
X120223644Y-74285929D01*
X120296215Y-73995643D01*
X120441358Y-73850500D01*
X120586501Y-73777929D01*
X121892786Y-75301929D02*
X121892786Y-73777929D01*
X122763643Y-75301929D01*
X122763643Y-73777929D01*
X123489357Y-75301929D02*
X123489357Y-73777929D01*
X124360214Y-75301929D01*
X124360214Y-73777929D01*
X124723071Y-75447071D02*
X125884214Y-75447071D01*
X126900214Y-74285929D02*
X126900214Y-75301929D01*
X126537357Y-73705357D02*
X126174500Y-74793929D01*
X127117928Y-74793929D01*
X65840429Y-66493572D02*
X64316429Y-66493572D01*
X64316429Y-65913000D01*
X64389000Y-65767858D01*
X64461571Y-65695286D01*
X64606714Y-65622715D01*
X64824429Y-65622715D01*
X64969571Y-65695286D01*
X65042143Y-65767858D01*
X65114714Y-65913000D01*
X65114714Y-66493572D01*
X65840429Y-64171286D02*
X65840429Y-65042143D01*
X65840429Y-64606715D02*
X64316429Y-64606715D01*
X64534143Y-64751858D01*
X64679286Y-64897000D01*
X64751857Y-65042143D01*
X64316429Y-63227857D02*
X64316429Y-63082714D01*
X64389000Y-62937571D01*
X64461571Y-62865000D01*
X64606714Y-62792429D01*
X64897000Y-62719857D01*
X65259857Y-62719857D01*
X65550143Y-62792429D01*
X65695286Y-62865000D01*
X65767857Y-62937571D01*
X65840429Y-63082714D01*
X65840429Y-63227857D01*
X65767857Y-63373000D01*
X65695286Y-63445571D01*
X65550143Y-63518143D01*
X65259857Y-63590714D01*
X64897000Y-63590714D01*
X64606714Y-63518143D01*
X64461571Y-63445571D01*
X64389000Y-63373000D01*
X64316429Y-63227857D01*
X63409286Y-71174428D02*
X63481857Y-71246999D01*
X63554429Y-71464713D01*
X63554429Y-71609856D01*
X63481857Y-71827571D01*
X63336714Y-71972713D01*
X63191571Y-72045285D01*
X62901286Y-72117856D01*
X62683571Y-72117856D01*
X62393286Y-72045285D01*
X62248143Y-71972713D01*
X62103000Y-71827571D01*
X62030429Y-71609856D01*
X62030429Y-71464713D01*
X62103000Y-71246999D01*
X62175571Y-71174428D01*
X62030429Y-70230999D02*
X62030429Y-69940713D01*
X62103000Y-69795571D01*
X62248143Y-69650428D01*
X62538429Y-69577856D01*
X63046429Y-69577856D01*
X63336714Y-69650428D01*
X63481857Y-69795571D01*
X63554429Y-69940713D01*
X63554429Y-70230999D01*
X63481857Y-70376142D01*
X63336714Y-70521285D01*
X63046429Y-70593856D01*
X62538429Y-70593856D01*
X62248143Y-70521285D01*
X62103000Y-70376142D01*
X62030429Y-70230999D01*
X63554429Y-68924714D02*
X62030429Y-68924714D01*
X63554429Y-68053857D01*
X62030429Y-68053857D01*
X63554429Y-67328143D02*
X62030429Y-67328143D01*
X63554429Y-66457286D01*
X62030429Y-66457286D01*
X63699571Y-66094429D02*
X63699571Y-64933286D01*
X62538429Y-63917286D02*
X63554429Y-63917286D01*
X61957857Y-64280143D02*
X63046429Y-64643000D01*
X63046429Y-63699572D01*
D21*
X141554926Y-60474800D02*
X141554926Y-58739980D01*
X142176138Y-60474800D02*
X141710229Y-59483474D01*
X142176138Y-58739980D02*
X141554926Y-59731305D01*
X142590278Y-58905200D02*
X142642046Y-58822590D01*
X142745581Y-58739980D01*
X143004419Y-58739980D01*
X143107955Y-58822590D01*
X143159722Y-58905200D01*
X143211490Y-59070421D01*
X143211490Y-59235642D01*
X143159722Y-59483474D01*
X142538511Y-60474800D01*
X143211490Y-60474800D01*
X144143307Y-59318253D02*
X144143307Y-60474800D01*
X143884469Y-58657369D02*
X143625630Y-59896526D01*
X144298610Y-59896526D01*
X155524926Y-60474800D02*
X155524926Y-58739980D01*
X156146138Y-60474800D02*
X155680229Y-59483474D01*
X156146138Y-58739980D02*
X155524926Y-59731305D01*
X156560278Y-58905200D02*
X156612046Y-58822590D01*
X156715581Y-58739980D01*
X156974419Y-58739980D01*
X157077955Y-58822590D01*
X157129722Y-58905200D01*
X157181490Y-59070421D01*
X157181490Y-59235642D01*
X157129722Y-59483474D01*
X156508511Y-60474800D01*
X157181490Y-60474800D01*
X157543863Y-58739980D02*
X158216842Y-58739980D01*
X157854469Y-59400863D01*
X158009771Y-59400863D01*
X158113307Y-59483474D01*
X158165074Y-59566084D01*
X158216842Y-59731305D01*
X158216842Y-60144358D01*
X158165074Y-60309579D01*
X158113307Y-60392189D01*
X158009771Y-60474800D01*
X157699166Y-60474800D01*
X157595630Y-60392189D01*
X157543863Y-60309579D01*
X136480006Y-60474800D02*
X136480006Y-58739980D01*
X137101218Y-60474800D02*
X136635309Y-59483474D01*
X137101218Y-58739980D02*
X136480006Y-59731305D01*
X137515358Y-58905200D02*
X137567126Y-58822590D01*
X137670661Y-58739980D01*
X137929499Y-58739980D01*
X138033035Y-58822590D01*
X138084802Y-58905200D01*
X138136570Y-59070421D01*
X138136570Y-59235642D01*
X138084802Y-59483474D01*
X137463591Y-60474800D01*
X138136570Y-60474800D01*
X139171922Y-60474800D02*
X138550710Y-60474800D01*
X138861316Y-60474800D02*
X138861316Y-58739980D01*
X138757781Y-58987811D01*
X138654246Y-59153032D01*
X138550710Y-59235642D01*
X150450006Y-60479880D02*
X150450006Y-58745060D01*
X151071218Y-60479880D02*
X150605309Y-59488554D01*
X151071218Y-58745060D02*
X150450006Y-59736385D01*
X151485358Y-58910280D02*
X151537126Y-58827670D01*
X151640661Y-58745060D01*
X151899499Y-58745060D01*
X152003035Y-58827670D01*
X152054802Y-58910280D01*
X152106570Y-59075501D01*
X152106570Y-59240722D01*
X152054802Y-59488554D01*
X151433591Y-60479880D01*
X152106570Y-60479880D01*
X152520710Y-58910280D02*
X152572478Y-58827670D01*
X152676013Y-58745060D01*
X152934851Y-58745060D01*
X153038387Y-58827670D01*
X153090154Y-58910280D01*
X153141922Y-59075501D01*
X153141922Y-59240722D01*
X153090154Y-59488554D01*
X152468943Y-60479880D01*
X153141922Y-60479880D01*
M02*
