M48
;DRILL file {KiCad 4.0.0-rc1-stable} date mer. 14 oct. 2015 22:43:14 CEST
;FORMAT={-:-/ absolute / inch / decimal}
FMAT,2
INCH,TZ
T1C0.024
T2C0.039
T3C0.051
T4C0.158
%
G90
G05
M72
T1
X2.37Y-1.7325
X2.37Y-3.0825
X2.53Y-2.5725
X2.53Y-2.8675
X2.69Y-2.4125
X2.79Y-2.28
X2.8775Y-2.165
X2.98Y-2.0725
X3.08Y-2.1675
X3.1625Y-2.2775
X3.28Y-1.975
X3.38Y-2.38
X3.5175Y-2.9375
X3.655Y-2.9525
X3.67Y-2.38
X3.805Y-2.285
X3.945Y-2.1675
X4.0825Y-2.0675
X4.2225Y-1.9625
X4.7625Y-2.0375
X4.8125Y-1.98
X4.8625Y-2.0375
X5.02Y-2.1325
X5.07Y-2.08
X5.2525Y-2.7
X5.39Y-2.575
X5.47Y-1.7325
X5.47Y-3.0825
X5.79Y-2.5725
X5.97Y-1.7325
X5.97Y-3.0825
X6.1875Y-2.575
X6.19Y-2.295
X6.19Y-2.4825
X6.245Y-3.07
X6.255Y-3.185
X6.2875Y-2.845
X6.29Y-2.3875
X6.32Y-3.0225
X6.3325Y-2.7675
X6.39Y-2.8425
X6.4075Y-2.4175
X6.4075Y-3.0225
X6.48Y-2.8425
X6.5675Y-2.515
X6.57Y-2.8425
X6.5775Y-1.9475
X6.685Y-2.3425
X6.98Y-2.935
X7.005Y-2.8325
X7.0275Y-2.18
X7.03Y-2.02
X7.0825Y-1.9725
X7.0825Y-2.0725
X7.0975Y-2.475
X7.1Y-2.545
X7.1025Y-2.935
X7.1825Y-2.94
X7.4025Y-2.8525
X7.4775Y-2.57
X7.81Y-2.65
X7.84Y-2.3525
X7.92Y-2.4375
X7.9475Y-2.51
X7.9575Y-2.225
X7.9775Y-1.6275
X7.98Y-2.385
X8.105Y-2.64
X8.2625Y-2.0475
X8.265Y-2.115
X8.3575Y-1.955
X8.4075Y-2.0725
X8.575Y-1.965
X8.6875Y-3.0325
X8.7625Y-2.8775
X8.765Y-1.9075
X8.8225Y-1.9725
X9.04Y-2.495
X9.07Y-1.7325
X9.07Y-3.0825
X9.195Y-1.935
T2
X2.78Y-1.7525
X2.78Y-1.8525
X2.88Y-1.7525
X2.88Y-1.8525
X2.98Y-1.7525
X2.98Y-1.8525
X3.08Y-1.7525
X3.08Y-1.8525
X3.18Y-1.7525
X3.18Y-1.8525
X3.28Y-1.7525
X3.28Y-1.8525
X3.38Y-1.7525
X3.38Y-1.8525
X3.48Y-1.7525
X3.48Y-1.8525
X4.6625Y-1.7525
X4.6625Y-1.8525
X4.7625Y-1.7525
X4.7625Y-1.8525
X4.8625Y-1.7525
X4.8625Y-1.8525
X4.9625Y-1.7525
X4.9625Y-1.8525
X5.0625Y-1.7525
X5.0625Y-1.8525
X5.1752Y-2.05
X5.2752Y-2.05
X5.375Y-2.05
X5.475Y-2.05
X5.575Y-2.05
X5.7252Y-2.0502
X5.8252Y-2.0502
X5.925Y-2.05
X6.025Y-2.05
X6.125Y-2.05
X6.3775Y-1.7475
X6.3775Y-1.8475
X6.4775Y-1.7475
X6.4775Y-1.8475
X6.53Y-3.0325
X6.53Y-3.1325
X6.5775Y-1.7475
X6.5775Y-1.8475
X6.63Y-3.0325
X6.63Y-3.1325
X6.6775Y-1.7475
X6.6775Y-1.8475
X6.73Y-3.0325
X6.73Y-3.1325
X6.7775Y-1.7475
X6.7775Y-1.8475
X6.83Y-3.0325
X6.83Y-3.1325
X6.835Y-2.6425
X6.835Y-2.7425
X6.835Y-2.8425
X6.8775Y-1.7475
X6.8775Y-1.8475
X6.91Y-2.3175
X6.91Y-2.4175
X6.91Y-2.5175
X6.93Y-3.0325
X6.93Y-3.1325
X6.9775Y-1.7475
X6.9775Y-1.8475
X7.03Y-3.0325
X7.03Y-3.1325
X7.0775Y-1.7475
X7.0775Y-1.8475
X7.13Y-3.0325
X7.13Y-3.1325
X7.21Y-2.6425
X7.21Y-2.7425
X7.21Y-2.8425
X7.23Y-3.0325
X7.23Y-3.1325
X7.2625Y-1.8475
X7.2625Y-1.9475
X7.2625Y-2.0475
X7.2625Y-2.1475
X7.285Y-2.3175
X7.285Y-2.4175
X7.285Y-2.5175
X7.33Y-3.0325
X7.33Y-3.1325
X7.43Y-3.0325
X7.43Y-3.1325
X7.53Y-3.0325
X7.53Y-3.1325
X7.535Y-1.8475
X7.535Y-1.9475
X7.535Y-2.0475
X7.535Y-2.1475
X7.585Y-2.6425
X7.585Y-2.7425
X7.585Y-2.8425
X7.63Y-3.0325
X7.63Y-3.1325
X7.66Y-2.3175
X7.66Y-2.4175
X7.66Y-2.5175
X7.73Y-3.0325
X7.73Y-3.1325
X7.81Y-1.8475
X7.81Y-1.9475
X7.81Y-2.0475
X7.81Y-2.1475
X7.83Y-3.0325
X7.83Y-3.1325
X7.93Y-3.0325
X7.93Y-3.1325
X8.03Y-3.0325
X8.03Y-3.1325
X8.0825Y-1.8475
X8.0825Y-1.9475
X8.0825Y-2.0475
X8.0825Y-2.1475
X8.13Y-3.0325
X8.13Y-3.1325
X8.23Y-3.0325
X8.23Y-3.1325
X8.2575Y-1.7475
X8.2575Y-1.8475
X8.2775Y-2.525
X8.2775Y-2.625
X8.2775Y-2.725
X8.33Y-3.0325
X8.33Y-3.1325
X8.3575Y-1.7475
X8.3575Y-1.8475
X8.4225Y-2.1725
X8.4225Y-2.2725
X8.4225Y-2.3725
X8.43Y-3.0325
X8.43Y-3.1325
X8.4575Y-1.7475
X8.4575Y-1.8475
X8.5525Y-2.5275
X8.5525Y-2.6275
X8.5525Y-2.7275
X8.5575Y-1.7475
X8.5575Y-1.8475
X8.6575Y-1.7475
X8.6575Y-1.8475
X8.6975Y-2.1725
X8.6975Y-2.2725
X8.6975Y-2.3725
X8.825Y-2.5275
X8.825Y-2.6275
X8.825Y-2.7275
X8.9725Y-2.1725
X8.9725Y-2.2725
X8.9725Y-2.3725
T3
X2.32Y-2.5725
X2.32Y-2.71
X2.69Y-2.62
X2.69Y-3.1325
X2.8275Y-2.62
X2.8275Y-3.1325
X2.965Y-2.62
X2.9675Y-3.1325
X3.1025Y-2.62
X3.105Y-3.1325
X3.2425Y-2.62
X3.2425Y-3.1325
X3.38Y-2.62
X3.38Y-3.1325
X3.5175Y-3.1325
X3.655Y-3.1325
X3.67Y-2.6225
X3.7925Y-3.1325
X3.8075Y-2.6225
X3.93Y-3.1325
X3.945Y-2.6225
X4.0675Y-3.1325
X4.0825Y-2.6225
X4.205Y-3.1325
X4.2225Y-2.6225
X4.36Y-2.6225
X4.6075Y-3.1325
X4.745Y-3.1325
X4.8825Y-3.1325
X5.02Y-3.1325
T4
X2.37Y-1.7325
X2.37Y-3.0825
X5.47Y-1.7325
X5.47Y-3.0825
X5.97Y-1.7325
X5.97Y-3.0825
X9.07Y-1.7325
X9.07Y-3.0825
T0
M30
