G04 #@! TF.FileFunction,Profile,NP*
%FSLAX46Y46*%
G04 Gerber Fmt 4.6, Leading zero omitted, Abs format (unit mm)*
G04 Created by KiCad (PCBNEW 4.0.0-rc1-stable) date mer. 14 oct. 2015 22:43:12 CEST*
%MOMM*%
G01*
G04 APERTURE LIST*
%ADD10C,0.200000*%
%ADD11C,0.250000*%
%ADD12C,0.150000*%
G04 APERTURE END LIST*
D10*
D11*
X249705714Y-64817166D02*
X250372381Y-64817166D01*
X249324762Y-65055262D02*
X250039048Y-65293357D01*
X250039048Y-64674309D01*
X249705714Y-63864785D02*
X250372381Y-63864785D01*
X249324762Y-64102881D02*
X250039048Y-64340976D01*
X250039048Y-63721928D01*
X250324762Y-63293357D02*
X250372381Y-63293357D01*
X250467619Y-63340976D01*
X250515238Y-63388595D01*
X249705714Y-62436214D02*
X250372381Y-62436214D01*
X249324762Y-62674310D02*
X250039048Y-62912405D01*
X250039048Y-62293357D01*
X249372381Y-61436214D02*
X249372381Y-61912405D01*
X249848571Y-61960024D01*
X249800952Y-61912405D01*
X249753333Y-61817167D01*
X249753333Y-61579071D01*
X249800952Y-61483833D01*
X249848571Y-61436214D01*
X249943810Y-61388595D01*
X250181905Y-61388595D01*
X250277143Y-61436214D01*
X250324762Y-61483833D01*
X250372381Y-61579071D01*
X250372381Y-61817167D01*
X250324762Y-61912405D01*
X250277143Y-61960024D01*
X249372381Y-60769548D02*
X249372381Y-60674309D01*
X249420000Y-60579071D01*
X249467619Y-60531452D01*
X249562857Y-60483833D01*
X249753333Y-60436214D01*
X249991429Y-60436214D01*
X250181905Y-60483833D01*
X250277143Y-60531452D01*
X250324762Y-60579071D01*
X250372381Y-60674309D01*
X250372381Y-60769548D01*
X250324762Y-60864786D01*
X250277143Y-60912405D01*
X250181905Y-60960024D01*
X249991429Y-61007643D01*
X249753333Y-61007643D01*
X249562857Y-60960024D01*
X249467619Y-60912405D01*
X249420000Y-60864786D01*
X249372381Y-60769548D01*
X250372381Y-59245738D02*
X249705714Y-59245738D01*
X249800952Y-59245738D02*
X249753333Y-59198119D01*
X249705714Y-59102881D01*
X249705714Y-58960023D01*
X249753333Y-58864785D01*
X249848571Y-58817166D01*
X250372381Y-58817166D01*
X249848571Y-58817166D02*
X249753333Y-58769547D01*
X249705714Y-58674309D01*
X249705714Y-58531452D01*
X249753333Y-58436214D01*
X249848571Y-58388595D01*
X250372381Y-58388595D01*
X250372381Y-57912405D02*
X249705714Y-57912405D01*
X249800952Y-57912405D02*
X249753333Y-57864786D01*
X249705714Y-57769548D01*
X249705714Y-57626690D01*
X249753333Y-57531452D01*
X249848571Y-57483833D01*
X250372381Y-57483833D01*
X249848571Y-57483833D02*
X249753333Y-57436214D01*
X249705714Y-57340976D01*
X249705714Y-57198119D01*
X249753333Y-57102881D01*
X249848571Y-57055262D01*
X250372381Y-57055262D01*
X248920000Y-83375500D02*
X248920000Y-38925500D01*
X42164000Y-83375500D02*
X250920000Y-83375500D01*
X42164000Y-38925500D02*
X250920000Y-38925500D01*
X248920000Y-38925500D02*
X249506420Y-40052003D01*
X248920000Y-38925500D02*
X248333580Y-40052003D01*
X248920000Y-83375500D02*
X249506420Y-82248997D01*
X248920000Y-83375500D02*
X248333580Y-82248997D01*
X141218861Y-29076920D02*
X140647432Y-29077121D01*
X140933146Y-29077021D02*
X140932793Y-28077021D01*
X140837606Y-28219911D01*
X140742401Y-28315183D01*
X140647180Y-28362835D01*
X141790087Y-28505290D02*
X141694833Y-28457705D01*
X141647197Y-28410102D01*
X141599544Y-28314881D01*
X141599527Y-28267262D01*
X141647113Y-28172007D01*
X141694715Y-28124372D01*
X141789936Y-28076719D01*
X141980413Y-28076652D01*
X142075668Y-28124237D01*
X142123304Y-28171840D01*
X142170956Y-28267061D01*
X142170973Y-28314680D01*
X142123388Y-28409935D01*
X142075786Y-28457570D01*
X141980564Y-28505223D01*
X141790087Y-28505290D01*
X141694866Y-28552943D01*
X141647264Y-28600578D01*
X141599678Y-28695834D01*
X141599745Y-28886310D01*
X141647398Y-28981531D01*
X141695034Y-29029134D01*
X141790289Y-29076719D01*
X141980765Y-29076652D01*
X142075987Y-29028999D01*
X142123589Y-28981364D01*
X142171174Y-28886109D01*
X142171107Y-28695633D01*
X142123455Y-28600411D01*
X142075819Y-28552808D01*
X141980564Y-28505223D01*
X142789936Y-28076367D02*
X142885175Y-28076333D01*
X142980430Y-28123919D01*
X143028066Y-28171521D01*
X143075718Y-28266742D01*
X143123404Y-28457202D01*
X143123488Y-28695298D01*
X143075936Y-28885790D01*
X143028351Y-28981045D01*
X142980749Y-29028681D01*
X142885527Y-29076333D01*
X142790288Y-29076367D01*
X142695034Y-29028781D01*
X142647398Y-28981179D01*
X142599745Y-28885958D01*
X142552059Y-28695499D01*
X142551975Y-28457403D01*
X142599527Y-28266910D01*
X142647113Y-28171655D01*
X142694715Y-28124019D01*
X142789936Y-28076367D01*
X143599796Y-29028463D02*
X143599812Y-29076082D01*
X143552227Y-29171337D01*
X143504625Y-29218972D01*
X143932793Y-28075965D02*
X144551841Y-28075747D01*
X144218641Y-28456816D01*
X144361499Y-28456766D01*
X144456754Y-28504351D01*
X144504390Y-28551953D01*
X144552042Y-28647176D01*
X144552126Y-28885270D01*
X144504541Y-28980525D01*
X144456939Y-29028161D01*
X144361717Y-29075814D01*
X144076002Y-29075914D01*
X143980748Y-29028329D01*
X143933112Y-28980726D01*
X145409102Y-28408778D02*
X145409336Y-29075445D01*
X145170871Y-28027910D02*
X144933028Y-28742279D01*
X145552076Y-28742061D01*
X146123269Y-28075193D02*
X146218508Y-28075160D01*
X146313763Y-28122745D01*
X146361399Y-28170347D01*
X146409051Y-28265569D01*
X146456737Y-28456028D01*
X146456821Y-28694124D01*
X146409269Y-28884617D01*
X146361684Y-28979871D01*
X146314081Y-29027507D01*
X146218860Y-29075160D01*
X146123621Y-29075193D01*
X146028366Y-29027608D01*
X145980731Y-28980005D01*
X145933078Y-28884784D01*
X145885392Y-28694325D01*
X145885308Y-28456229D01*
X145932860Y-28265736D01*
X145980446Y-28170482D01*
X146028048Y-28122846D01*
X146123269Y-28075193D01*
X147647431Y-29074657D02*
X147647196Y-28407990D01*
X147647230Y-28503228D02*
X147694832Y-28455592D01*
X147790053Y-28407939D01*
X147932911Y-28407889D01*
X148028166Y-28455475D01*
X148075819Y-28550696D01*
X148076003Y-29074506D01*
X148075819Y-28550696D02*
X148123404Y-28455441D01*
X148218625Y-28407788D01*
X148361482Y-28407738D01*
X148456737Y-28455324D01*
X148504390Y-28550545D01*
X148504574Y-29074355D01*
X148980764Y-29074187D02*
X148980529Y-28407520D01*
X148980563Y-28502758D02*
X149028165Y-28455122D01*
X149123386Y-28407470D01*
X149266244Y-28407420D01*
X149361499Y-28455005D01*
X149409152Y-28550226D01*
X149409336Y-29074036D01*
X149409152Y-28550226D02*
X149456737Y-28454971D01*
X149551958Y-28407319D01*
X149694815Y-28407269D01*
X149790070Y-28454854D01*
X149837723Y-28550075D01*
X149837907Y-29073885D01*
X55096671Y-29654864D02*
X235436671Y-29591364D01*
X55118000Y-90233500D02*
X55095967Y-27654865D01*
X235458000Y-90170000D02*
X235435967Y-27591365D01*
X235436671Y-29591364D02*
X234310374Y-30178181D01*
X235436671Y-29591364D02*
X234309961Y-29005340D01*
X55096671Y-29654864D02*
X56223381Y-30240888D01*
X55096671Y-29654864D02*
X56222968Y-29068047D01*
D12*
X55054500Y-83375500D02*
X55054500Y-38925500D01*
X235458000Y-83375500D02*
X55054500Y-83375500D01*
X235458000Y-38925500D02*
X235458000Y-83375500D01*
X55054500Y-38925500D02*
X235458000Y-38925500D01*
M02*
