G04 #@! TF.FileFunction,Copper,L1,Top,Signal*
%FSLAX46Y46*%
G04 Gerber Fmt 4.6, Leading zero omitted, Abs format (unit mm)*
G04 Created by KiCad (PCBNEW 4.0.0-rc1-stable) date mer. 14 oct. 2015 22:43:12 CEST*
%MOMM*%
G01*
G04 APERTURE LIST*
%ADD10C,0.200000*%
%ADD11C,0.375000*%
%ADD12C,0.250000*%
%ADD13R,2.540000X2.540000*%
%ADD14C,2.540000*%
%ADD15R,0.635000X1.143000*%
%ADD16R,0.797560X0.797560*%
%ADD17R,1.998980X1.998980*%
%ADD18C,1.998980*%
%ADD19C,8.999220*%
%ADD20C,2.000000*%
%ADD21O,1.800000X2.200000*%
%ADD22R,1.800000X2.200000*%
%ADD23O,1.600000X2.200000*%
%ADD24R,1.600000X2.200000*%
%ADD25O,2.540000X4.000000*%
%ADD26R,2.540000X4.000000*%
%ADD27R,2.100580X1.899920*%
%ADD28C,2.100580*%
%ADD29O,4.000000X2.540000*%
%ADD30R,4.000000X2.540000*%
%ADD31R,1.800860X1.998980*%
%ADD32C,1.300000*%
%ADD33C,1.000000*%
%ADD34C,2.000000*%
%ADD35C,0.350000*%
%ADD36C,0.300000*%
%ADD37C,0.254000*%
G04 APERTURE END LIST*
D10*
D11*
X179296143Y-70802357D02*
X179367571Y-70588071D01*
X179367571Y-70230928D01*
X179296143Y-70088071D01*
X179224714Y-70016642D01*
X179081857Y-69945214D01*
X178939000Y-69945214D01*
X178796143Y-70016642D01*
X178724714Y-70088071D01*
X178653286Y-70230928D01*
X178581857Y-70516642D01*
X178510429Y-70659500D01*
X178439000Y-70730928D01*
X178296143Y-70802357D01*
X178153286Y-70802357D01*
X178010429Y-70730928D01*
X177939000Y-70659500D01*
X177867571Y-70516642D01*
X177867571Y-70159500D01*
X177939000Y-69945214D01*
X177867571Y-68588071D02*
X177867571Y-69302357D01*
X178581857Y-69373786D01*
X178510429Y-69302357D01*
X178439000Y-69159500D01*
X178439000Y-68802357D01*
X178510429Y-68659500D01*
X178581857Y-68588071D01*
X178724714Y-68516643D01*
X179081857Y-68516643D01*
X179224714Y-68588071D01*
X179296143Y-68659500D01*
X179367571Y-68802357D01*
X179367571Y-69159500D01*
X179296143Y-69302357D01*
X179224714Y-69373786D01*
X181201143Y-60007357D02*
X181272571Y-59793071D01*
X181272571Y-59435928D01*
X181201143Y-59293071D01*
X181129714Y-59221642D01*
X180986857Y-59150214D01*
X180844000Y-59150214D01*
X180701143Y-59221642D01*
X180629714Y-59293071D01*
X180558286Y-59435928D01*
X180486857Y-59721642D01*
X180415429Y-59864500D01*
X180344000Y-59935928D01*
X180201143Y-60007357D01*
X180058286Y-60007357D01*
X179915429Y-59935928D01*
X179844000Y-59864500D01*
X179772571Y-59721642D01*
X179772571Y-59364500D01*
X179844000Y-59150214D01*
X179772571Y-57864500D02*
X179772571Y-58150214D01*
X179844000Y-58293071D01*
X179915429Y-58364500D01*
X180129714Y-58507357D01*
X180415429Y-58578786D01*
X180986857Y-58578786D01*
X181129714Y-58507357D01*
X181201143Y-58435929D01*
X181272571Y-58293071D01*
X181272571Y-58007357D01*
X181201143Y-57864500D01*
X181129714Y-57793071D01*
X180986857Y-57721643D01*
X180629714Y-57721643D01*
X180486857Y-57793071D01*
X180415429Y-57864500D01*
X180344000Y-58007357D01*
X180344000Y-58293071D01*
X180415429Y-58435929D01*
X180486857Y-58507357D01*
X180629714Y-58578786D01*
X190726143Y-60007357D02*
X190797571Y-59793071D01*
X190797571Y-59435928D01*
X190726143Y-59293071D01*
X190654714Y-59221642D01*
X190511857Y-59150214D01*
X190369000Y-59150214D01*
X190226143Y-59221642D01*
X190154714Y-59293071D01*
X190083286Y-59435928D01*
X190011857Y-59721642D01*
X189940429Y-59864500D01*
X189869000Y-59935928D01*
X189726143Y-60007357D01*
X189583286Y-60007357D01*
X189440429Y-59935928D01*
X189369000Y-59864500D01*
X189297571Y-59721642D01*
X189297571Y-59364500D01*
X189369000Y-59150214D01*
X189797571Y-57864500D02*
X190797571Y-57864500D01*
X189226143Y-58221643D02*
X190297571Y-58578786D01*
X190297571Y-57650214D01*
X188821143Y-70802357D02*
X188892571Y-70588071D01*
X188892571Y-70230928D01*
X188821143Y-70088071D01*
X188749714Y-70016642D01*
X188606857Y-69945214D01*
X188464000Y-69945214D01*
X188321143Y-70016642D01*
X188249714Y-70088071D01*
X188178286Y-70230928D01*
X188106857Y-70516642D01*
X188035429Y-70659500D01*
X187964000Y-70730928D01*
X187821143Y-70802357D01*
X187678286Y-70802357D01*
X187535429Y-70730928D01*
X187464000Y-70659500D01*
X187392571Y-70516642D01*
X187392571Y-70159500D01*
X187464000Y-69945214D01*
X187392571Y-69445214D02*
X187392571Y-68516643D01*
X187964000Y-69016643D01*
X187964000Y-68802357D01*
X188035429Y-68659500D01*
X188106857Y-68588071D01*
X188249714Y-68516643D01*
X188606857Y-68516643D01*
X188749714Y-68588071D01*
X188821143Y-68659500D01*
X188892571Y-68802357D01*
X188892571Y-69230929D01*
X188821143Y-69373786D01*
X188749714Y-69445214D01*
X199933643Y-63245857D02*
X200005071Y-63031571D01*
X200005071Y-62674428D01*
X199933643Y-62531571D01*
X199862214Y-62460142D01*
X199719357Y-62388714D01*
X199576500Y-62388714D01*
X199433643Y-62460142D01*
X199362214Y-62531571D01*
X199290786Y-62674428D01*
X199219357Y-62960142D01*
X199147929Y-63103000D01*
X199076500Y-63174428D01*
X198933643Y-63245857D01*
X198790786Y-63245857D01*
X198647929Y-63174428D01*
X198576500Y-63103000D01*
X198505071Y-62960142D01*
X198505071Y-62603000D01*
X198576500Y-62388714D01*
X198647929Y-61817286D02*
X198576500Y-61745857D01*
X198505071Y-61603000D01*
X198505071Y-61245857D01*
X198576500Y-61103000D01*
X198647929Y-61031571D01*
X198790786Y-60960143D01*
X198933643Y-60960143D01*
X199147929Y-61031571D01*
X200005071Y-61888714D01*
X200005071Y-60960143D01*
X198346143Y-70802357D02*
X198417571Y-70588071D01*
X198417571Y-70230928D01*
X198346143Y-70088071D01*
X198274714Y-70016642D01*
X198131857Y-69945214D01*
X197989000Y-69945214D01*
X197846143Y-70016642D01*
X197774714Y-70088071D01*
X197703286Y-70230928D01*
X197631857Y-70516642D01*
X197560429Y-70659500D01*
X197489000Y-70730928D01*
X197346143Y-70802357D01*
X197203286Y-70802357D01*
X197060429Y-70730928D01*
X196989000Y-70659500D01*
X196917571Y-70516642D01*
X196917571Y-70159500D01*
X196989000Y-69945214D01*
X198417571Y-68516643D02*
X198417571Y-69373786D01*
X198417571Y-68945214D02*
X196917571Y-68945214D01*
X197131857Y-69088071D01*
X197274714Y-69230929D01*
X197346143Y-69373786D01*
X150681500Y-68952928D02*
X150681500Y-68238642D01*
X151110071Y-69095785D02*
X149610071Y-68595785D01*
X151110071Y-68095785D01*
X151110071Y-66810071D02*
X151110071Y-67667214D01*
X151110071Y-67238642D02*
X149610071Y-67238642D01*
X149824357Y-67381499D01*
X149967214Y-67524357D01*
X150038643Y-67667214D01*
X153054857Y-68552142D02*
X153126286Y-68337856D01*
X153197714Y-68266428D01*
X153340571Y-68194999D01*
X153554857Y-68194999D01*
X153697714Y-68266428D01*
X153769143Y-68337856D01*
X153840571Y-68480714D01*
X153840571Y-69052142D01*
X152340571Y-69052142D01*
X152340571Y-68552142D01*
X152412000Y-68409285D01*
X152483429Y-68337856D01*
X152626286Y-68266428D01*
X152769143Y-68266428D01*
X152912000Y-68337856D01*
X152983429Y-68409285D01*
X153054857Y-68552142D01*
X153054857Y-69052142D01*
X153840571Y-66766428D02*
X153840571Y-67623571D01*
X153840571Y-67194999D02*
X152340571Y-67194999D01*
X152554857Y-67337856D01*
X152697714Y-67480714D01*
X152769143Y-67623571D01*
X154880571Y-69159285D02*
X154880571Y-68159285D01*
X156380571Y-69159285D01*
X156380571Y-68159285D01*
X156380571Y-66802143D02*
X156380571Y-67659286D01*
X156380571Y-67230714D02*
X154880571Y-67230714D01*
X155094857Y-67373571D01*
X155237714Y-67516429D01*
X155309143Y-67659286D01*
X136838500Y-69079928D02*
X136838500Y-68365642D01*
X137267071Y-69222785D02*
X135767071Y-68722785D01*
X137267071Y-68222785D01*
X135909929Y-67794214D02*
X135838500Y-67722785D01*
X135767071Y-67579928D01*
X135767071Y-67222785D01*
X135838500Y-67079928D01*
X135909929Y-67008499D01*
X136052786Y-66937071D01*
X136195643Y-66937071D01*
X136409929Y-67008499D01*
X137267071Y-67865642D01*
X137267071Y-66937071D01*
X139084857Y-68742642D02*
X139156286Y-68528356D01*
X139227714Y-68456928D01*
X139370571Y-68385499D01*
X139584857Y-68385499D01*
X139727714Y-68456928D01*
X139799143Y-68528356D01*
X139870571Y-68671214D01*
X139870571Y-69242642D01*
X138370571Y-69242642D01*
X138370571Y-68742642D01*
X138442000Y-68599785D01*
X138513429Y-68528356D01*
X138656286Y-68456928D01*
X138799143Y-68456928D01*
X138942000Y-68528356D01*
X139013429Y-68599785D01*
X139084857Y-68742642D01*
X139084857Y-69242642D01*
X138513429Y-67814071D02*
X138442000Y-67742642D01*
X138370571Y-67599785D01*
X138370571Y-67242642D01*
X138442000Y-67099785D01*
X138513429Y-67028356D01*
X138656286Y-66956928D01*
X138799143Y-66956928D01*
X139013429Y-67028356D01*
X139870571Y-67885499D01*
X139870571Y-66956928D01*
X140910571Y-69349785D02*
X140910571Y-68349785D01*
X142410571Y-69349785D01*
X142410571Y-68349785D01*
X141053429Y-67849786D02*
X140982000Y-67778357D01*
X140910571Y-67635500D01*
X140910571Y-67278357D01*
X140982000Y-67135500D01*
X141053429Y-67064071D01*
X141196286Y-66992643D01*
X141339143Y-66992643D01*
X141553429Y-67064071D01*
X142410571Y-67921214D01*
X142410571Y-66992643D01*
X116415429Y-72374358D02*
X117915429Y-72374358D01*
X116844000Y-72874358D01*
X117915429Y-73374358D01*
X116415429Y-73374358D01*
X116415429Y-74874358D02*
X116415429Y-74017215D01*
X116415429Y-74445787D02*
X117915429Y-74445787D01*
X117701143Y-74302930D01*
X117558286Y-74160072D01*
X117486857Y-74017215D01*
X116844000Y-75445786D02*
X116844000Y-76160072D01*
X116415429Y-75302929D02*
X117915429Y-75802929D01*
X116415429Y-76302929D01*
X119844429Y-72457715D02*
X121344429Y-72457715D01*
X120273000Y-72957715D01*
X121344429Y-73457715D01*
X119844429Y-73457715D01*
X119844429Y-74957715D02*
X119844429Y-74100572D01*
X119844429Y-74529144D02*
X121344429Y-74529144D01*
X121130143Y-74386287D01*
X120987286Y-74243429D01*
X120915857Y-74100572D01*
X120630143Y-76100572D02*
X120558714Y-76314858D01*
X120487286Y-76386286D01*
X120344429Y-76457715D01*
X120130143Y-76457715D01*
X119987286Y-76386286D01*
X119915857Y-76314858D01*
X119844429Y-76172000D01*
X119844429Y-75600572D01*
X121344429Y-75600572D01*
X121344429Y-76100572D01*
X121273000Y-76243429D01*
X121201571Y-76314858D01*
X121058714Y-76386286D01*
X120915857Y-76386286D01*
X120773000Y-76314858D01*
X120701571Y-76243429D01*
X120630143Y-76100572D01*
X120630143Y-75600572D01*
X123400429Y-72501358D02*
X124900429Y-72501358D01*
X123829000Y-73001358D01*
X124900429Y-73501358D01*
X123400429Y-73501358D01*
X124757571Y-74144215D02*
X124829000Y-74215644D01*
X124900429Y-74358501D01*
X124900429Y-74715644D01*
X124829000Y-74858501D01*
X124757571Y-74929930D01*
X124614714Y-75001358D01*
X124471857Y-75001358D01*
X124257571Y-74929930D01*
X123400429Y-74072787D01*
X123400429Y-75001358D01*
X123829000Y-75572786D02*
X123829000Y-76287072D01*
X123400429Y-75429929D02*
X124900429Y-75929929D01*
X123400429Y-76429929D01*
X126829429Y-72457715D02*
X128329429Y-72457715D01*
X127258000Y-72957715D01*
X128329429Y-73457715D01*
X126829429Y-73457715D01*
X128186571Y-74100572D02*
X128258000Y-74172001D01*
X128329429Y-74314858D01*
X128329429Y-74672001D01*
X128258000Y-74814858D01*
X128186571Y-74886287D01*
X128043714Y-74957715D01*
X127900857Y-74957715D01*
X127686571Y-74886287D01*
X126829429Y-74029144D01*
X126829429Y-74957715D01*
X127615143Y-76100572D02*
X127543714Y-76314858D01*
X127472286Y-76386286D01*
X127329429Y-76457715D01*
X127115143Y-76457715D01*
X126972286Y-76386286D01*
X126900857Y-76314858D01*
X126829429Y-76172000D01*
X126829429Y-75600572D01*
X128329429Y-75600572D01*
X128329429Y-76100572D01*
X128258000Y-76243429D01*
X128186571Y-76314858D01*
X128043714Y-76386286D01*
X127900857Y-76386286D01*
X127758000Y-76314858D01*
X127686571Y-76243429D01*
X127615143Y-76100572D01*
X127615143Y-75600572D01*
X62023858Y-63480071D02*
X62023858Y-61980071D01*
X62523858Y-63051500D01*
X63023858Y-61980071D01*
X63023858Y-63480071D01*
X63595287Y-61980071D02*
X64523858Y-61980071D01*
X64023858Y-62551500D01*
X64238144Y-62551500D01*
X64381001Y-62622929D01*
X64452430Y-62694357D01*
X64523858Y-62837214D01*
X64523858Y-63194357D01*
X64452430Y-63337214D01*
X64381001Y-63408643D01*
X64238144Y-63480071D01*
X63809572Y-63480071D01*
X63666715Y-63408643D01*
X63595287Y-63337214D01*
X65095286Y-63051500D02*
X65809572Y-63051500D01*
X64952429Y-63480071D02*
X65452429Y-61980071D01*
X65952429Y-63480071D01*
X55439715Y-73322571D02*
X55439715Y-71822571D01*
X55939715Y-72894000D01*
X56439715Y-71822571D01*
X56439715Y-73322571D01*
X57011144Y-71822571D02*
X57939715Y-71822571D01*
X57439715Y-72394000D01*
X57654001Y-72394000D01*
X57796858Y-72465429D01*
X57868287Y-72536857D01*
X57939715Y-72679714D01*
X57939715Y-73036857D01*
X57868287Y-73179714D01*
X57796858Y-73251143D01*
X57654001Y-73322571D01*
X57225429Y-73322571D01*
X57082572Y-73251143D01*
X57011144Y-73179714D01*
X59082572Y-72536857D02*
X59296858Y-72608286D01*
X59368286Y-72679714D01*
X59439715Y-72822571D01*
X59439715Y-73036857D01*
X59368286Y-73179714D01*
X59296858Y-73251143D01*
X59154000Y-73322571D01*
X58582572Y-73322571D01*
X58582572Y-71822571D01*
X59082572Y-71822571D01*
X59225429Y-71894000D01*
X59296858Y-71965429D01*
X59368286Y-72108286D01*
X59368286Y-72251143D01*
X59296858Y-72394000D01*
X59225429Y-72465429D01*
X59082572Y-72536857D01*
X58582572Y-72536857D01*
X207415000Y-71323071D02*
X207415000Y-69823071D01*
X208415000Y-69823071D02*
X208700714Y-69823071D01*
X208843572Y-69894500D01*
X208986429Y-70037357D01*
X209057857Y-70323071D01*
X209057857Y-70823071D01*
X208986429Y-71108786D01*
X208843572Y-71251643D01*
X208700714Y-71323071D01*
X208415000Y-71323071D01*
X208272143Y-71251643D01*
X208129286Y-71108786D01*
X208057857Y-70823071D01*
X208057857Y-70323071D01*
X208129286Y-70037357D01*
X208272143Y-69894500D01*
X208415000Y-69823071D01*
X209986429Y-69823071D02*
X210129286Y-69823071D01*
X210272143Y-69894500D01*
X210343572Y-69965929D01*
X210415001Y-70108786D01*
X210486429Y-70394500D01*
X210486429Y-70751643D01*
X210415001Y-71037357D01*
X210343572Y-71180214D01*
X210272143Y-71251643D01*
X210129286Y-71323071D01*
X209986429Y-71323071D01*
X209843572Y-71251643D01*
X209772143Y-71180214D01*
X209700715Y-71037357D01*
X209629286Y-70751643D01*
X209629286Y-70394500D01*
X209700715Y-70108786D01*
X209772143Y-69965929D01*
X209843572Y-69894500D01*
X209986429Y-69823071D01*
X206986429Y-73226643D02*
X208129286Y-73226643D01*
X207557857Y-73798071D02*
X207557857Y-72655214D01*
X209557858Y-72298071D02*
X208843572Y-72298071D01*
X208772143Y-73012357D01*
X208843572Y-72940929D01*
X208986429Y-72869500D01*
X209343572Y-72869500D01*
X209486429Y-72940929D01*
X209557858Y-73012357D01*
X209629286Y-73155214D01*
X209629286Y-73512357D01*
X209557858Y-73655214D01*
X209486429Y-73726643D01*
X209343572Y-73798071D01*
X208986429Y-73798071D01*
X208843572Y-73726643D01*
X208772143Y-73655214D01*
X210057857Y-72298071D02*
X210557857Y-73798071D01*
X211057857Y-72298071D01*
X214527000Y-71513571D02*
X214527000Y-70013571D01*
X215527000Y-70013571D02*
X215812714Y-70013571D01*
X215955572Y-70085000D01*
X216098429Y-70227857D01*
X216169857Y-70513571D01*
X216169857Y-71013571D01*
X216098429Y-71299286D01*
X215955572Y-71442143D01*
X215812714Y-71513571D01*
X215527000Y-71513571D01*
X215384143Y-71442143D01*
X215241286Y-71299286D01*
X215169857Y-71013571D01*
X215169857Y-70513571D01*
X215241286Y-70227857D01*
X215384143Y-70085000D01*
X215527000Y-70013571D01*
X217598429Y-71513571D02*
X216741286Y-71513571D01*
X217169858Y-71513571D02*
X217169858Y-70013571D01*
X217027001Y-70227857D01*
X216884143Y-70370714D01*
X216741286Y-70442143D01*
X214098429Y-73417143D02*
X215241286Y-73417143D01*
X214669857Y-73988571D02*
X214669857Y-72845714D01*
X216669858Y-72488571D02*
X215955572Y-72488571D01*
X215884143Y-73202857D01*
X215955572Y-73131429D01*
X216098429Y-73060000D01*
X216455572Y-73060000D01*
X216598429Y-73131429D01*
X216669858Y-73202857D01*
X216741286Y-73345714D01*
X216741286Y-73702857D01*
X216669858Y-73845714D01*
X216598429Y-73917143D01*
X216455572Y-73988571D01*
X216098429Y-73988571D01*
X215955572Y-73917143D01*
X215884143Y-73845714D01*
X217169857Y-72488571D02*
X217669857Y-73988571D01*
X218169857Y-72488571D01*
X221385000Y-71513571D02*
X221385000Y-70013571D01*
X222385000Y-70013571D02*
X222670714Y-70013571D01*
X222813572Y-70085000D01*
X222956429Y-70227857D01*
X223027857Y-70513571D01*
X223027857Y-71013571D01*
X222956429Y-71299286D01*
X222813572Y-71442143D01*
X222670714Y-71513571D01*
X222385000Y-71513571D01*
X222242143Y-71442143D01*
X222099286Y-71299286D01*
X222027857Y-71013571D01*
X222027857Y-70513571D01*
X222099286Y-70227857D01*
X222242143Y-70085000D01*
X222385000Y-70013571D01*
X223599286Y-70156429D02*
X223670715Y-70085000D01*
X223813572Y-70013571D01*
X224170715Y-70013571D01*
X224313572Y-70085000D01*
X224385001Y-70156429D01*
X224456429Y-70299286D01*
X224456429Y-70442143D01*
X224385001Y-70656429D01*
X223527858Y-71513571D01*
X224456429Y-71513571D01*
X220956429Y-73417143D02*
X222099286Y-73417143D01*
X221527857Y-73988571D02*
X221527857Y-72845714D01*
X223527858Y-72488571D02*
X222813572Y-72488571D01*
X222742143Y-73202857D01*
X222813572Y-73131429D01*
X222956429Y-73060000D01*
X223313572Y-73060000D01*
X223456429Y-73131429D01*
X223527858Y-73202857D01*
X223599286Y-73345714D01*
X223599286Y-73702857D01*
X223527858Y-73845714D01*
X223456429Y-73917143D01*
X223313572Y-73988571D01*
X222956429Y-73988571D01*
X222813572Y-73917143D01*
X222742143Y-73845714D01*
X224027857Y-72488571D02*
X224527857Y-73988571D01*
X225027857Y-72488571D01*
X226211000Y-50622071D02*
X226211000Y-49122071D01*
X227211000Y-49122071D02*
X227496714Y-49122071D01*
X227639572Y-49193500D01*
X227782429Y-49336357D01*
X227853857Y-49622071D01*
X227853857Y-50122071D01*
X227782429Y-50407786D01*
X227639572Y-50550643D01*
X227496714Y-50622071D01*
X227211000Y-50622071D01*
X227068143Y-50550643D01*
X226925286Y-50407786D01*
X226853857Y-50122071D01*
X226853857Y-49622071D01*
X226925286Y-49336357D01*
X227068143Y-49193500D01*
X227211000Y-49122071D01*
X228353858Y-49122071D02*
X229282429Y-49122071D01*
X228782429Y-49693500D01*
X228996715Y-49693500D01*
X229139572Y-49764929D01*
X229211001Y-49836357D01*
X229282429Y-49979214D01*
X229282429Y-50336357D01*
X229211001Y-50479214D01*
X229139572Y-50550643D01*
X228996715Y-50622071D01*
X228568143Y-50622071D01*
X228425286Y-50550643D01*
X228353858Y-50479214D01*
X225068144Y-52525643D02*
X226211001Y-52525643D01*
X225639572Y-53097071D02*
X225639572Y-51954214D01*
X227711001Y-53097071D02*
X226853858Y-53097071D01*
X227282430Y-53097071D02*
X227282430Y-51597071D01*
X227139573Y-51811357D01*
X226996715Y-51954214D01*
X226853858Y-52025643D01*
X228282429Y-51739929D02*
X228353858Y-51668500D01*
X228496715Y-51597071D01*
X228853858Y-51597071D01*
X228996715Y-51668500D01*
X229068144Y-51739929D01*
X229139572Y-51882786D01*
X229139572Y-52025643D01*
X229068144Y-52239929D01*
X228211001Y-53097071D01*
X229139572Y-53097071D01*
X229568143Y-51597071D02*
X230068143Y-53097071D01*
X230568143Y-51597071D01*
X218845000Y-50368071D02*
X218845000Y-48868071D01*
X219845000Y-48868071D02*
X220130714Y-48868071D01*
X220273572Y-48939500D01*
X220416429Y-49082357D01*
X220487857Y-49368071D01*
X220487857Y-49868071D01*
X220416429Y-50153786D01*
X220273572Y-50296643D01*
X220130714Y-50368071D01*
X219845000Y-50368071D01*
X219702143Y-50296643D01*
X219559286Y-50153786D01*
X219487857Y-49868071D01*
X219487857Y-49368071D01*
X219559286Y-49082357D01*
X219702143Y-48939500D01*
X219845000Y-48868071D01*
X221773572Y-49368071D02*
X221773572Y-50368071D01*
X221416429Y-48796643D02*
X221059286Y-49868071D01*
X221987858Y-49868071D01*
X217702144Y-52271643D02*
X218845001Y-52271643D01*
X218273572Y-52843071D02*
X218273572Y-51700214D01*
X220345001Y-52843071D02*
X219487858Y-52843071D01*
X219916430Y-52843071D02*
X219916430Y-51343071D01*
X219773573Y-51557357D01*
X219630715Y-51700214D01*
X219487858Y-51771643D01*
X220916429Y-51485929D02*
X220987858Y-51414500D01*
X221130715Y-51343071D01*
X221487858Y-51343071D01*
X221630715Y-51414500D01*
X221702144Y-51485929D01*
X221773572Y-51628786D01*
X221773572Y-51771643D01*
X221702144Y-51985929D01*
X220845001Y-52843071D01*
X221773572Y-52843071D01*
X222202143Y-51343071D02*
X222702143Y-52843071D01*
X223202143Y-51343071D01*
X205891000Y-57924571D02*
X205891000Y-56424571D01*
X206891000Y-56424571D02*
X207176714Y-56424571D01*
X207319572Y-56496000D01*
X207462429Y-56638857D01*
X207533857Y-56924571D01*
X207533857Y-57424571D01*
X207462429Y-57710286D01*
X207319572Y-57853143D01*
X207176714Y-57924571D01*
X206891000Y-57924571D01*
X206748143Y-57853143D01*
X206605286Y-57710286D01*
X206533857Y-57424571D01*
X206533857Y-56924571D01*
X206605286Y-56638857D01*
X206748143Y-56496000D01*
X206891000Y-56424571D01*
X208891001Y-56424571D02*
X208176715Y-56424571D01*
X208105286Y-57138857D01*
X208176715Y-57067429D01*
X208319572Y-56996000D01*
X208676715Y-56996000D01*
X208819572Y-57067429D01*
X208891001Y-57138857D01*
X208962429Y-57281714D01*
X208962429Y-57638857D01*
X208891001Y-57781714D01*
X208819572Y-57853143D01*
X208676715Y-57924571D01*
X208319572Y-57924571D01*
X208176715Y-57853143D01*
X208105286Y-57781714D01*
X204748144Y-59828143D02*
X205891001Y-59828143D01*
X205319572Y-60399571D02*
X205319572Y-59256714D01*
X207391001Y-60399571D02*
X206533858Y-60399571D01*
X206962430Y-60399571D02*
X206962430Y-58899571D01*
X206819573Y-59113857D01*
X206676715Y-59256714D01*
X206533858Y-59328143D01*
X207962429Y-59042429D02*
X208033858Y-58971000D01*
X208176715Y-58899571D01*
X208533858Y-58899571D01*
X208676715Y-58971000D01*
X208748144Y-59042429D01*
X208819572Y-59185286D01*
X208819572Y-59328143D01*
X208748144Y-59542429D01*
X207891001Y-60399571D01*
X208819572Y-60399571D01*
X209248143Y-58899571D02*
X209748143Y-60399571D01*
X210248143Y-58899571D01*
X203767715Y-45192071D02*
X203767715Y-43692071D01*
X204410572Y-43834929D02*
X204482001Y-43763500D01*
X204624858Y-43692071D01*
X204982001Y-43692071D01*
X205124858Y-43763500D01*
X205196287Y-43834929D01*
X205267715Y-43977786D01*
X205267715Y-44120643D01*
X205196287Y-44334929D01*
X204339144Y-45192071D01*
X205267715Y-45192071D01*
X206767715Y-45049214D02*
X206696286Y-45120643D01*
X206482000Y-45192071D01*
X206339143Y-45192071D01*
X206124858Y-45120643D01*
X205982000Y-44977786D01*
X205910572Y-44834929D01*
X205839143Y-44549214D01*
X205839143Y-44334929D01*
X205910572Y-44049214D01*
X205982000Y-43906357D01*
X206124858Y-43763500D01*
X206339143Y-43692071D01*
X206482000Y-43692071D01*
X206696286Y-43763500D01*
X206767715Y-43834929D01*
X196909715Y-45128571D02*
X196909715Y-43628571D01*
X197552572Y-43771429D02*
X197624001Y-43700000D01*
X197766858Y-43628571D01*
X198124001Y-43628571D01*
X198266858Y-43700000D01*
X198338287Y-43771429D01*
X198409715Y-43914286D01*
X198409715Y-44057143D01*
X198338287Y-44271429D01*
X197481144Y-45128571D01*
X198409715Y-45128571D01*
X199909715Y-44985714D02*
X199838286Y-45057143D01*
X199624000Y-45128571D01*
X199481143Y-45128571D01*
X199266858Y-45057143D01*
X199124000Y-44914286D01*
X199052572Y-44771429D01*
X198981143Y-44485714D01*
X198981143Y-44271429D01*
X199052572Y-43985714D01*
X199124000Y-43842857D01*
X199266858Y-43700000D01*
X199481143Y-43628571D01*
X199624000Y-43628571D01*
X199838286Y-43700000D01*
X199909715Y-43771429D01*
X189861215Y-45192071D02*
X189861215Y-43692071D01*
X190504072Y-43834929D02*
X190575501Y-43763500D01*
X190718358Y-43692071D01*
X191075501Y-43692071D01*
X191218358Y-43763500D01*
X191289787Y-43834929D01*
X191361215Y-43977786D01*
X191361215Y-44120643D01*
X191289787Y-44334929D01*
X190432644Y-45192071D01*
X191361215Y-45192071D01*
X192861215Y-45049214D02*
X192789786Y-45120643D01*
X192575500Y-45192071D01*
X192432643Y-45192071D01*
X192218358Y-45120643D01*
X192075500Y-44977786D01*
X192004072Y-44834929D01*
X191932643Y-44549214D01*
X191932643Y-44334929D01*
X192004072Y-44049214D01*
X192075500Y-43906357D01*
X192218358Y-43763500D01*
X192432643Y-43692071D01*
X192575500Y-43692071D01*
X192789786Y-43763500D01*
X192861215Y-43834929D01*
X183193715Y-45128571D02*
X183193715Y-43628571D01*
X183836572Y-43771429D02*
X183908001Y-43700000D01*
X184050858Y-43628571D01*
X184408001Y-43628571D01*
X184550858Y-43700000D01*
X184622287Y-43771429D01*
X184693715Y-43914286D01*
X184693715Y-44057143D01*
X184622287Y-44271429D01*
X183765144Y-45128571D01*
X184693715Y-45128571D01*
X186193715Y-44985714D02*
X186122286Y-45057143D01*
X185908000Y-45128571D01*
X185765143Y-45128571D01*
X185550858Y-45057143D01*
X185408000Y-44914286D01*
X185336572Y-44771429D01*
X185265143Y-44485714D01*
X185265143Y-44271429D01*
X185336572Y-43985714D01*
X185408000Y-43842857D01*
X185550858Y-43700000D01*
X185765143Y-43628571D01*
X185908000Y-43628571D01*
X186122286Y-43700000D01*
X186193715Y-43771429D01*
D12*
X62960500Y-51188929D02*
X63722405Y-51188929D01*
X63341453Y-51569881D02*
X63341453Y-50807976D01*
X64103357Y-50569881D02*
X64722405Y-50569881D01*
X64389071Y-50950833D01*
X64531929Y-50950833D01*
X64627167Y-50998452D01*
X64674786Y-51046071D01*
X64722405Y-51141310D01*
X64722405Y-51379405D01*
X64674786Y-51474643D01*
X64627167Y-51522262D01*
X64531929Y-51569881D01*
X64246214Y-51569881D01*
X64150976Y-51522262D01*
X64103357Y-51474643D01*
X65150976Y-51474643D02*
X65198595Y-51522262D01*
X65150976Y-51569881D01*
X65103357Y-51522262D01*
X65150976Y-51474643D01*
X65150976Y-51569881D01*
X65531928Y-50569881D02*
X66150976Y-50569881D01*
X65817642Y-50950833D01*
X65960500Y-50950833D01*
X66055738Y-50998452D01*
X66103357Y-51046071D01*
X66150976Y-51141310D01*
X66150976Y-51379405D01*
X66103357Y-51474643D01*
X66055738Y-51522262D01*
X65960500Y-51569881D01*
X65674785Y-51569881D01*
X65579547Y-51522262D01*
X65531928Y-51474643D01*
X66436690Y-50569881D02*
X66770023Y-51569881D01*
X67103357Y-50569881D01*
X63103286Y-55570429D02*
X63865191Y-55570429D01*
X63484239Y-55951381D02*
X63484239Y-55189476D01*
X64817572Y-54951381D02*
X64341381Y-54951381D01*
X64293762Y-55427571D01*
X64341381Y-55379952D01*
X64436619Y-55332333D01*
X64674715Y-55332333D01*
X64769953Y-55379952D01*
X64817572Y-55427571D01*
X64865191Y-55522810D01*
X64865191Y-55760905D01*
X64817572Y-55856143D01*
X64769953Y-55903762D01*
X64674715Y-55951381D01*
X64436619Y-55951381D01*
X64341381Y-55903762D01*
X64293762Y-55856143D01*
X65150905Y-54951381D02*
X65484238Y-55951381D01*
X65817572Y-54951381D01*
X63008095Y-57919929D02*
X63770000Y-57919929D01*
X63389048Y-58300881D02*
X63389048Y-57538976D01*
X64770000Y-58300881D02*
X64198571Y-58300881D01*
X64484285Y-58300881D02*
X64484285Y-57300881D01*
X64389047Y-57443738D01*
X64293809Y-57538976D01*
X64198571Y-57586595D01*
X65150952Y-57396119D02*
X65198571Y-57348500D01*
X65293809Y-57300881D01*
X65531905Y-57300881D01*
X65627143Y-57348500D01*
X65674762Y-57396119D01*
X65722381Y-57491357D01*
X65722381Y-57586595D01*
X65674762Y-57729452D01*
X65103333Y-58300881D01*
X65722381Y-58300881D01*
X66008095Y-57300881D02*
X66341428Y-58300881D01*
X66674762Y-57300881D01*
X62984286Y-53347929D02*
X63746191Y-53347929D01*
X63365239Y-53728881D02*
X63365239Y-52966976D01*
X64698572Y-52728881D02*
X64222381Y-52728881D01*
X64174762Y-53205071D01*
X64222381Y-53157452D01*
X64317619Y-53109833D01*
X64555715Y-53109833D01*
X64650953Y-53157452D01*
X64698572Y-53205071D01*
X64746191Y-53300310D01*
X64746191Y-53538405D01*
X64698572Y-53633643D01*
X64650953Y-53681262D01*
X64555715Y-53728881D01*
X64317619Y-53728881D01*
X64222381Y-53681262D01*
X64174762Y-53633643D01*
X65031905Y-52728881D02*
X65365238Y-53728881D01*
X65698572Y-52728881D01*
X66031905Y-53728881D02*
X66031905Y-52728881D01*
X66270000Y-52728881D01*
X66412858Y-52776500D01*
X66508096Y-52871738D01*
X66555715Y-52966976D01*
X66603334Y-53157452D01*
X66603334Y-53300310D01*
X66555715Y-53490786D01*
X66508096Y-53586024D01*
X66412858Y-53681262D01*
X66270000Y-53728881D01*
X66031905Y-53728881D01*
X63079571Y-60142429D02*
X63841476Y-60142429D01*
X63460524Y-60523381D02*
X63460524Y-59761476D01*
X64651000Y-59999571D02*
X64793857Y-60047190D01*
X64841476Y-60094810D01*
X64889095Y-60190048D01*
X64889095Y-60332905D01*
X64841476Y-60428143D01*
X64793857Y-60475762D01*
X64698619Y-60523381D01*
X64317666Y-60523381D01*
X64317666Y-59523381D01*
X64651000Y-59523381D01*
X64746238Y-59571000D01*
X64793857Y-59618619D01*
X64841476Y-59713857D01*
X64841476Y-59809095D01*
X64793857Y-59904333D01*
X64746238Y-59951952D01*
X64651000Y-59999571D01*
X64317666Y-59999571D01*
X65270047Y-60237667D02*
X65746238Y-60237667D01*
X65174809Y-60523381D02*
X65508142Y-59523381D01*
X65841476Y-60523381D01*
X66031952Y-59523381D02*
X66603381Y-59523381D01*
X66317666Y-60523381D02*
X66317666Y-59523381D01*
X66793857Y-59523381D02*
X67365286Y-59523381D01*
X67079571Y-60523381D02*
X67079571Y-59523381D01*
X95035358Y-73227071D02*
X95035358Y-71727071D01*
X95402024Y-72798500D01*
X95768691Y-71727071D01*
X95768691Y-73227071D01*
X96292501Y-72441357D02*
X96659167Y-72441357D01*
X96816310Y-73227071D02*
X96292501Y-73227071D01*
X96292501Y-71727071D01*
X96816310Y-71727071D01*
X97916310Y-73084214D02*
X97863929Y-73155643D01*
X97706786Y-73227071D01*
X97602024Y-73227071D01*
X97444882Y-73155643D01*
X97340120Y-73012786D01*
X97287739Y-72869929D01*
X97235358Y-72584214D01*
X97235358Y-72369929D01*
X97287739Y-72084214D01*
X97340120Y-71941357D01*
X97444882Y-71798500D01*
X97602024Y-71727071D01*
X97706786Y-71727071D01*
X97863929Y-71798500D01*
X97916310Y-71869929D01*
X98387739Y-73227071D02*
X98387739Y-71727071D01*
X98387739Y-72441357D02*
X99016310Y-72441357D01*
X99016310Y-73227071D02*
X99016310Y-71727071D01*
X99487739Y-72798500D02*
X100011548Y-72798500D01*
X99382977Y-73227071D02*
X99749644Y-71727071D01*
X100116310Y-73227071D01*
X100482977Y-73227071D02*
X100482977Y-71727071D01*
X101111548Y-73227071D01*
X101111548Y-71727071D01*
X101635358Y-73227071D02*
X101635358Y-71727071D01*
X102787739Y-73084214D02*
X102735358Y-73155643D01*
X102578215Y-73227071D01*
X102473453Y-73227071D01*
X102316311Y-73155643D01*
X102211549Y-73012786D01*
X102159168Y-72869929D01*
X102106787Y-72584214D01*
X102106787Y-72369929D01*
X102159168Y-72084214D01*
X102211549Y-71941357D01*
X102316311Y-71798500D01*
X102473453Y-71727071D01*
X102578215Y-71727071D01*
X102735358Y-71798500D01*
X102787739Y-71869929D01*
X103206787Y-72798500D02*
X103730596Y-72798500D01*
X103102025Y-73227071D02*
X103468692Y-71727071D01*
X103835358Y-73227071D01*
X104725834Y-73227071D02*
X104202025Y-73227071D01*
X104202025Y-71727071D01*
X105930596Y-73227071D02*
X105930596Y-71727071D01*
X106349643Y-71727071D01*
X106454405Y-71798500D01*
X106506786Y-71869929D01*
X106559167Y-72012786D01*
X106559167Y-72227071D01*
X106506786Y-72369929D01*
X106454405Y-72441357D01*
X106349643Y-72512786D01*
X105930596Y-72512786D01*
X107240120Y-71727071D02*
X107449643Y-71727071D01*
X107554405Y-71798500D01*
X107659167Y-71941357D01*
X107711548Y-72227071D01*
X107711548Y-72727071D01*
X107659167Y-73012786D01*
X107554405Y-73155643D01*
X107449643Y-73227071D01*
X107240120Y-73227071D01*
X107135358Y-73155643D01*
X107030596Y-73012786D01*
X106978215Y-72727071D01*
X106978215Y-72227071D01*
X107030596Y-71941357D01*
X107135358Y-71798500D01*
X107240120Y-71727071D01*
X108078215Y-71727071D02*
X108340120Y-73227071D01*
X108549643Y-72155643D01*
X108759167Y-73227071D01*
X109021072Y-71727071D01*
X109440120Y-72441357D02*
X109806786Y-72441357D01*
X109963929Y-73227071D02*
X109440120Y-73227071D01*
X109440120Y-71727071D01*
X109963929Y-71727071D01*
X111063929Y-73227071D02*
X110697263Y-72512786D01*
X110435358Y-73227071D02*
X110435358Y-71727071D01*
X110854405Y-71727071D01*
X110959167Y-71798500D01*
X111011548Y-71869929D01*
X111063929Y-72012786D01*
X111063929Y-72227071D01*
X111011548Y-72369929D01*
X110959167Y-72441357D01*
X110854405Y-72512786D01*
X110435358Y-72512786D01*
X112740119Y-72441357D02*
X112897262Y-72512786D01*
X112949643Y-72584214D01*
X113002024Y-72727071D01*
X113002024Y-72941357D01*
X112949643Y-73084214D01*
X112897262Y-73155643D01*
X112792500Y-73227071D01*
X112373453Y-73227071D01*
X112373453Y-71727071D01*
X112740119Y-71727071D01*
X112844881Y-71798500D01*
X112897262Y-71869929D01*
X112949643Y-72012786D01*
X112949643Y-72155643D01*
X112897262Y-72298500D01*
X112844881Y-72369929D01*
X112740119Y-72441357D01*
X112373453Y-72441357D01*
X114102024Y-73227071D02*
X113735358Y-72512786D01*
X113473453Y-73227071D02*
X113473453Y-71727071D01*
X113892500Y-71727071D01*
X113997262Y-71798500D01*
X114049643Y-71869929D01*
X114102024Y-72012786D01*
X114102024Y-72227071D01*
X114049643Y-72369929D01*
X113997262Y-72441357D01*
X113892500Y-72512786D01*
X113473453Y-72512786D01*
X114573453Y-73227071D02*
X114573453Y-71727071D01*
X114835358Y-71727071D01*
X114992500Y-71798500D01*
X115097262Y-71941357D01*
X115149643Y-72084214D01*
X115202024Y-72369929D01*
X115202024Y-72584214D01*
X115149643Y-72869929D01*
X115097262Y-73012786D01*
X114992500Y-73155643D01*
X114835358Y-73227071D01*
X114573453Y-73227071D01*
X95192501Y-74077071D02*
X95559168Y-75577071D01*
X95925834Y-74077071D01*
X96868691Y-75577071D02*
X96240120Y-75577071D01*
X96554406Y-75577071D02*
X96554406Y-74077071D01*
X96449644Y-74291357D01*
X96344882Y-74434214D01*
X96240120Y-74505643D01*
X97340120Y-75005643D02*
X98178215Y-75005643D01*
X98911549Y-74077071D02*
X99016310Y-74077071D01*
X99121072Y-74148500D01*
X99173453Y-74219929D01*
X99225834Y-74362786D01*
X99278215Y-74648500D01*
X99278215Y-75005643D01*
X99225834Y-75291357D01*
X99173453Y-75434214D01*
X99121072Y-75505643D01*
X99016310Y-75577071D01*
X98911549Y-75577071D01*
X98806787Y-75505643D01*
X98754406Y-75434214D01*
X98702025Y-75291357D01*
X98649644Y-75005643D01*
X98649644Y-74648500D01*
X98702025Y-74362786D01*
X98754406Y-74219929D01*
X98806787Y-74148500D01*
X98911549Y-74077071D01*
X99959168Y-74077071D02*
X100063929Y-74077071D01*
X100168691Y-74148500D01*
X100221072Y-74219929D01*
X100273453Y-74362786D01*
X100325834Y-74648500D01*
X100325834Y-75005643D01*
X100273453Y-75291357D01*
X100221072Y-75434214D01*
X100168691Y-75505643D01*
X100063929Y-75577071D01*
X99959168Y-75577071D01*
X99854406Y-75505643D01*
X99802025Y-75434214D01*
X99749644Y-75291357D01*
X99697263Y-75005643D01*
X99697263Y-74648500D01*
X99749644Y-74362786D01*
X99802025Y-74219929D01*
X99854406Y-74148500D01*
X99959168Y-74077071D01*
X102682977Y-74077071D02*
X102892500Y-74077071D01*
X102997262Y-74148500D01*
X103102024Y-74291357D01*
X103154405Y-74577071D01*
X103154405Y-75077071D01*
X103102024Y-75362786D01*
X102997262Y-75505643D01*
X102892500Y-75577071D01*
X102682977Y-75577071D01*
X102578215Y-75505643D01*
X102473453Y-75362786D01*
X102421072Y-75077071D01*
X102421072Y-74577071D01*
X102473453Y-74291357D01*
X102578215Y-74148500D01*
X102682977Y-74077071D01*
X104254405Y-75434214D02*
X104202024Y-75505643D01*
X104044881Y-75577071D01*
X103940119Y-75577071D01*
X103782977Y-75505643D01*
X103678215Y-75362786D01*
X103625834Y-75219929D01*
X103573453Y-74934214D01*
X103573453Y-74719929D01*
X103625834Y-74434214D01*
X103678215Y-74291357D01*
X103782977Y-74148500D01*
X103940119Y-74077071D01*
X104044881Y-74077071D01*
X104202024Y-74148500D01*
X104254405Y-74219929D01*
X104568691Y-74077071D02*
X105197262Y-74077071D01*
X104882977Y-75577071D02*
X104882977Y-74077071D01*
X106978214Y-75577071D02*
X106349643Y-75577071D01*
X106663929Y-75577071D02*
X106663929Y-74077071D01*
X106559167Y-74291357D01*
X106454405Y-74434214D01*
X106349643Y-74505643D01*
X107973452Y-74077071D02*
X107449643Y-74077071D01*
X107397262Y-74791357D01*
X107449643Y-74719929D01*
X107554405Y-74648500D01*
X107816309Y-74648500D01*
X107921071Y-74719929D01*
X107973452Y-74791357D01*
X108025833Y-74934214D01*
X108025833Y-75291357D01*
X107973452Y-75434214D01*
X107921071Y-75505643D01*
X107816309Y-75577071D01*
X107554405Y-75577071D01*
X107449643Y-75505643D01*
X107397262Y-75434214D01*
X110540118Y-74791357D02*
X110173452Y-74791357D01*
X110173452Y-75577071D02*
X110173452Y-74077071D01*
X110697261Y-74077071D01*
X111587737Y-74577071D02*
X111587737Y-75577071D01*
X111325833Y-74005643D02*
X111063928Y-75077071D01*
X111744880Y-75077071D01*
X112163928Y-75577071D02*
X112163928Y-74077071D01*
X112425833Y-74077071D01*
X112582975Y-74148500D01*
X112687737Y-74291357D01*
X112740118Y-74434214D01*
X112792499Y-74719929D01*
X112792499Y-74934214D01*
X112740118Y-75219929D01*
X112687737Y-75362786D01*
X112582975Y-75505643D01*
X112425833Y-75577071D01*
X112163928Y-75577071D01*
X113263928Y-74791357D02*
X113630594Y-74791357D01*
X113787737Y-75577071D02*
X113263928Y-75577071D01*
X113263928Y-74077071D01*
X113787737Y-74077071D01*
X114625832Y-74791357D02*
X114782975Y-74862786D01*
X114835356Y-74934214D01*
X114887737Y-75077071D01*
X114887737Y-75291357D01*
X114835356Y-75434214D01*
X114782975Y-75505643D01*
X114678213Y-75577071D01*
X114259166Y-75577071D01*
X114259166Y-74077071D01*
X114625832Y-74077071D01*
X114730594Y-74148500D01*
X114782975Y-74219929D01*
X114835356Y-74362786D01*
X114835356Y-74505643D01*
X114782975Y-74648500D01*
X114730594Y-74719929D01*
X114625832Y-74791357D01*
X114259166Y-74791357D01*
D13*
X110744000Y-66611500D03*
D14*
X107251500Y-66611500D03*
X103695500Y-66611500D03*
X100203000Y-66611500D03*
X96710500Y-66611500D03*
X93218000Y-66611500D03*
D13*
X85852000Y-66548000D03*
D14*
X82359500Y-66548000D03*
X78803500Y-66548000D03*
X75311000Y-66548000D03*
X71818500Y-66548000D03*
X68326000Y-66548000D03*
D15*
X56642000Y-51117500D03*
X58166000Y-51117500D03*
X56642000Y-60071000D03*
X58166000Y-60071000D03*
X56642000Y-55562500D03*
X58166000Y-55562500D03*
X56642000Y-53276500D03*
X58166000Y-53276500D03*
X56642000Y-57848500D03*
X58166000Y-57848500D03*
D16*
X61963300Y-60071000D03*
X60464700Y-60071000D03*
X61963300Y-51117500D03*
X60464700Y-51117500D03*
X61963300Y-55562500D03*
X60464700Y-55562500D03*
X61963300Y-53276500D03*
X60464700Y-53276500D03*
X61963300Y-57848500D03*
X60464700Y-57848500D03*
D17*
X198374000Y-46926500D03*
D18*
X198374000Y-49466500D03*
X198374000Y-52006500D03*
X198374000Y-54546500D03*
D17*
X191389000Y-46926500D03*
D18*
X191389000Y-49466500D03*
X191389000Y-52006500D03*
X191389000Y-54546500D03*
D17*
X184467500Y-46926500D03*
D18*
X184467500Y-49466500D03*
X184467500Y-52006500D03*
X184467500Y-54546500D03*
D17*
X205295500Y-46926500D03*
D18*
X205295500Y-49466500D03*
X205295500Y-52006500D03*
X205295500Y-54546500D03*
D19*
X60198000Y-44005500D03*
D20*
X60198000Y-44005500D03*
D19*
X60198000Y-78295500D03*
D20*
X60198000Y-78295500D03*
D19*
X138938000Y-44005500D03*
D20*
X138938000Y-44005500D03*
D19*
X138938000Y-78295500D03*
D20*
X138938000Y-78295500D03*
D19*
X151638000Y-44005500D03*
D20*
X151638000Y-44005500D03*
D19*
X151638000Y-78295500D03*
D20*
X151638000Y-78295500D03*
D19*
X230378000Y-44005500D03*
D20*
X230378000Y-44005500D03*
D19*
X230378000Y-78295500D03*
D20*
X230378000Y-78295500D03*
D21*
X219900500Y-46926500D03*
X219900500Y-44386500D03*
X217360500Y-44386500D03*
X217360500Y-46926500D03*
D22*
X209740500Y-46926500D03*
D21*
X209740500Y-44386500D03*
X212280500Y-46926500D03*
X212280500Y-44386500D03*
X214820500Y-46926500D03*
X214820500Y-44386500D03*
X128587500Y-47053500D03*
X128587500Y-44513500D03*
X126047500Y-44513500D03*
X126047500Y-47053500D03*
D22*
X118427500Y-47053500D03*
D21*
X118427500Y-44513500D03*
X120967500Y-47053500D03*
X120967500Y-44513500D03*
X123507500Y-47053500D03*
X123507500Y-44513500D03*
X179768500Y-44386500D03*
X179768500Y-46926500D03*
X177228500Y-46926500D03*
X177228500Y-44386500D03*
X174688500Y-44386500D03*
X174688500Y-46926500D03*
X172148500Y-46926500D03*
X172148500Y-44386500D03*
X169608500Y-44386500D03*
X169608500Y-46926500D03*
D22*
X161988500Y-46926500D03*
D21*
X161988500Y-44386500D03*
X164528500Y-46926500D03*
X164528500Y-44386500D03*
X167068500Y-46926500D03*
X167068500Y-44386500D03*
X88392000Y-44513500D03*
X88392000Y-47053500D03*
X85852000Y-47053500D03*
X85852000Y-44513500D03*
X83312000Y-44513500D03*
X83312000Y-47053500D03*
X80772000Y-47053500D03*
X80772000Y-44513500D03*
X78232000Y-44513500D03*
X78232000Y-47053500D03*
D22*
X70612000Y-47053500D03*
D21*
X70612000Y-44513500D03*
X73152000Y-47053500D03*
X73152000Y-44513500D03*
X75692000Y-47053500D03*
X75692000Y-44513500D03*
D23*
X168402000Y-77025500D03*
X168402000Y-79565500D03*
X165862000Y-79565500D03*
X165862000Y-77025500D03*
X170942000Y-77025500D03*
X170942000Y-79565500D03*
X173482000Y-79565500D03*
X173482000Y-77025500D03*
X176022000Y-77025500D03*
X176022000Y-79565500D03*
X181102000Y-77025500D03*
X181102000Y-79565500D03*
X178562000Y-79565500D03*
X178562000Y-77025500D03*
X183642000Y-77025500D03*
X183642000Y-79565500D03*
X186182000Y-79565500D03*
X186182000Y-77025500D03*
X188722000Y-77025500D03*
X188722000Y-79565500D03*
X191262000Y-79565500D03*
X191262000Y-77025500D03*
X193802000Y-77025500D03*
X193802000Y-79565500D03*
X196342000Y-79565500D03*
X196342000Y-77025500D03*
X198882000Y-77025500D03*
X198882000Y-79565500D03*
X201422000Y-79565500D03*
X201422000Y-77025500D03*
X203962000Y-77025500D03*
X203962000Y-79565500D03*
X206502000Y-79565500D03*
X206502000Y-77025500D03*
D24*
X214122000Y-77025500D03*
D23*
X214122000Y-79565500D03*
X211582000Y-77025500D03*
X211582000Y-79565500D03*
X209042000Y-77025500D03*
X209042000Y-79565500D03*
D25*
X68326000Y-79565500D03*
X71818500Y-79565500D03*
X75374500Y-79565500D03*
X78867000Y-79565500D03*
X82359500Y-79565500D03*
X85852000Y-79565500D03*
X89344500Y-79565500D03*
X92837000Y-79565500D03*
X96329500Y-79565500D03*
X99822000Y-79565500D03*
X103314500Y-79565500D03*
D26*
X106807000Y-79565500D03*
D27*
X224155000Y-64198500D03*
D28*
X224155000Y-66738500D03*
X224155000Y-69278500D03*
D27*
X217233500Y-64198500D03*
D28*
X217233500Y-66738500D03*
X217233500Y-69278500D03*
D27*
X227901500Y-55181500D03*
D28*
X227901500Y-57721500D03*
X227901500Y-60261500D03*
D27*
X210248500Y-64135000D03*
D28*
X210248500Y-66675000D03*
X210248500Y-69215000D03*
D27*
X220916500Y-55181500D03*
D28*
X220916500Y-57721500D03*
X220916500Y-60261500D03*
D27*
X213931500Y-55181500D03*
D28*
X213931500Y-57721500D03*
X213931500Y-60261500D03*
D27*
X192659000Y-67119500D03*
D28*
X192659000Y-69659500D03*
X192659000Y-72199500D03*
D27*
X194564000Y-58864500D03*
D28*
X194564000Y-61404500D03*
X194564000Y-63944500D03*
D27*
X183134000Y-67119500D03*
D28*
X183134000Y-69659500D03*
X183134000Y-72199500D03*
D27*
X185039000Y-58864500D03*
D28*
X185039000Y-61404500D03*
X185039000Y-63944500D03*
D27*
X175514000Y-58864500D03*
D28*
X175514000Y-61404500D03*
X175514000Y-63944500D03*
D27*
X173609000Y-67119500D03*
D28*
X173609000Y-69659500D03*
X173609000Y-72199500D03*
D25*
X117030500Y-79565500D03*
X120523000Y-79565500D03*
X124015500Y-79565500D03*
D26*
X127508000Y-79565500D03*
D29*
X58928000Y-65341500D03*
D30*
X58928000Y-68834000D03*
D31*
X136525000Y-52070000D03*
D18*
X139065000Y-52070000D03*
X141605000Y-52070000D03*
D31*
X150495000Y-52070000D03*
D18*
X153035000Y-52070000D03*
X155575000Y-52070000D03*
D31*
X131450080Y-52070000D03*
D18*
X133990080Y-52070000D03*
D31*
X145420080Y-52075080D03*
D18*
X147960080Y-52075080D03*
D32*
X233553000Y-49149000D03*
X80327500Y-57848500D03*
X70866000Y-57912000D03*
X96647000Y-58039000D03*
X136906000Y-65405000D03*
X147066000Y-65341500D03*
X157162500Y-65405000D03*
X202120500Y-56515000D03*
X202628500Y-41338500D03*
X68326000Y-61277500D03*
X169799000Y-59499500D03*
X93218000Y-60452000D03*
X85852000Y-60452000D03*
X78232000Y-55054500D03*
X100203000Y-55054500D03*
X73088500Y-54991000D03*
X157226000Y-63055500D03*
X162750500Y-61404500D03*
X166814500Y-63881000D03*
X205867000Y-67056000D03*
X198374000Y-67310000D03*
X159766000Y-60642500D03*
X75692000Y-52641500D03*
X103695500Y-52514500D03*
X179895500Y-50101500D03*
X167068500Y-49466500D03*
X162306000Y-72199500D03*
X164592000Y-72199500D03*
X159702500Y-72263000D03*
X160528000Y-76771500D03*
X217805000Y-49911000D03*
X201168000Y-61912500D03*
X158877000Y-80899000D03*
X177292000Y-74549000D03*
X92837000Y-74993500D03*
X64262000Y-65341500D03*
X64262000Y-72834500D03*
X89344500Y-74612500D03*
X158623000Y-77978000D03*
X182435500Y-74676000D03*
X222567500Y-73088500D03*
X199136000Y-59753500D03*
X202692000Y-60579000D03*
X178498500Y-55372000D03*
X123507500Y-51752500D03*
X213550500Y-52641500D03*
X120967500Y-51752500D03*
X224091500Y-50101500D03*
X209867500Y-52006500D03*
X178562000Y-51308000D03*
X128778000Y-52832000D03*
X127508000Y-54165500D03*
X179895500Y-52641500D03*
X222631000Y-48450500D03*
X209931000Y-53721000D03*
X188023500Y-72453500D03*
X189928500Y-65278000D03*
X180340000Y-64643000D03*
X180403500Y-74549000D03*
X180276500Y-62865000D03*
X177927000Y-71945500D03*
X201866500Y-63754000D03*
X133413500Y-68580000D03*
X212280500Y-49657000D03*
X122237500Y-50292000D03*
X166878000Y-72199500D03*
X160845500Y-70294500D03*
X162750500Y-76771500D03*
X229616000Y-63373000D03*
X220662500Y-77025500D03*
X107251500Y-49847500D03*
X83312000Y-50165000D03*
X157226000Y-58293000D03*
D33*
X232156000Y-53721000D02*
X232156000Y-50546000D01*
X232156000Y-50546000D02*
X233553000Y-49149000D01*
D34*
X172783500Y-41338500D02*
X202628500Y-41338500D01*
X172148500Y-44386500D02*
X172148500Y-41973500D01*
X172148500Y-41973500D02*
X172783500Y-41338500D01*
X172148500Y-44386500D02*
X172148500Y-46926500D01*
D33*
X196659500Y-41338500D02*
X172783500Y-41338500D01*
X172783500Y-41338500D02*
X172148500Y-41973500D01*
D35*
X70866000Y-57912000D02*
X68643500Y-57912000D01*
X63169800Y-56642000D02*
X61963300Y-57848500D01*
X67373500Y-56642000D02*
X63169800Y-56642000D01*
X68643500Y-57912000D02*
X67373500Y-56642000D01*
D34*
X125222000Y-65309502D02*
X120872002Y-65309502D01*
X113728500Y-58166000D02*
X113728500Y-58039000D01*
X120872002Y-65309502D02*
X113728500Y-58166000D01*
X96647000Y-58039000D02*
X113728500Y-58039000D01*
X136906000Y-65309502D02*
X136906000Y-65405000D01*
X125222000Y-65309502D02*
X136906000Y-65309502D01*
X80327500Y-57848500D02*
X80327500Y-57912000D01*
X80327500Y-57912000D02*
X80327500Y-57848500D01*
X80327500Y-57848500D02*
X80327500Y-57912000D01*
X96520000Y-57912000D02*
X80327500Y-57912000D01*
X80327500Y-57912000D02*
X70866000Y-57912000D01*
X96647000Y-58039000D02*
X96520000Y-57912000D01*
D35*
X147066000Y-65341500D02*
X147066000Y-65405000D01*
X147066000Y-65405000D02*
X147066000Y-65341500D01*
X147066000Y-65341500D02*
X147066000Y-65405000D01*
D34*
X157162500Y-65405000D02*
X147066000Y-65405000D01*
D33*
X201866500Y-54800500D02*
X201866500Y-56261000D01*
X201866500Y-56261000D02*
X202120500Y-56515000D01*
X196659500Y-41338500D02*
X200850500Y-41338500D01*
X201866500Y-42354500D02*
X201866500Y-54800500D01*
X201866500Y-54800500D02*
X201866500Y-55585998D01*
X200850500Y-41338500D02*
X201866500Y-42354500D01*
X232156000Y-53721000D02*
X232156000Y-57721500D01*
X196659500Y-41338500D02*
X202628500Y-41338500D01*
D34*
X147066000Y-65405000D02*
X138620500Y-65405000D01*
X138620500Y-65405000D02*
X136906000Y-65405000D01*
X141160500Y-72072500D02*
X156337000Y-72072500D01*
X160501793Y-67907707D02*
X166534293Y-67907707D01*
X156337000Y-72072500D02*
X160501793Y-67907707D01*
X69215000Y-60388500D02*
X69342000Y-60388500D01*
X68326000Y-61277500D02*
X69215000Y-60388500D01*
D35*
X61963300Y-60071000D02*
X61976000Y-60071000D01*
X61976000Y-60071000D02*
X63119000Y-58928000D01*
X67881500Y-58928000D02*
X69342000Y-60388500D01*
X63119000Y-58928000D02*
X67881500Y-58928000D01*
D34*
X93218000Y-60452000D02*
X112014000Y-60452000D01*
X112014000Y-60452000D02*
X115443000Y-63881000D01*
X115443000Y-63881000D02*
X115443000Y-68516500D01*
X115443000Y-68516500D02*
X116840000Y-69913500D01*
X169799000Y-59499500D02*
X169799000Y-64643000D01*
X169799000Y-64643000D02*
X166534293Y-67907707D01*
X140208000Y-72072500D02*
X141160500Y-72072500D01*
X140208000Y-72072500D02*
X133985000Y-72072500D01*
X129222500Y-69913500D02*
X116840000Y-69913500D01*
X131381500Y-72072500D02*
X129222500Y-69913500D01*
X133985000Y-72072500D02*
X131381500Y-72072500D01*
X85852000Y-60452000D02*
X93218000Y-60452000D01*
X85852000Y-60452000D02*
X85852000Y-60388500D01*
X85852000Y-60388500D02*
X85852000Y-60452000D01*
X85852000Y-60452000D02*
X85852000Y-60388500D01*
X69342000Y-60388500D02*
X85852000Y-60388500D01*
D35*
X73088500Y-54991000D02*
X67373500Y-54991000D01*
X63233300Y-54292500D02*
X61963300Y-55562500D01*
X66675000Y-54292500D02*
X63233300Y-54292500D01*
X67373500Y-54991000D02*
X66675000Y-54292500D01*
D34*
X131826000Y-63055500D02*
X122491500Y-63055500D01*
X114490500Y-55054500D02*
X100203000Y-55054500D01*
X122491500Y-63055500D02*
X114490500Y-55054500D01*
X78232000Y-55054500D02*
X78232000Y-54991000D01*
X78232000Y-54991000D02*
X78232000Y-55054500D01*
X78232000Y-55054500D02*
X78232000Y-54991000D01*
X100139500Y-54991000D02*
X78232000Y-54991000D01*
X100203000Y-55054500D02*
X100139500Y-54991000D01*
X78232000Y-54991000D02*
X73088500Y-54991000D01*
X131826000Y-63055500D02*
X131826000Y-63055500D01*
X131826000Y-63055500D02*
X131826000Y-63055500D01*
X131826000Y-63055500D02*
X157226000Y-63055500D01*
D33*
X164338000Y-61404500D02*
X162750500Y-61404500D01*
X166814500Y-63881000D02*
X164338000Y-61404500D01*
X198628000Y-67056000D02*
X205867000Y-67056000D01*
X198374000Y-67310000D02*
X198628000Y-67056000D01*
D35*
X75692000Y-52641500D02*
X67881500Y-52641500D01*
X63106300Y-52133500D02*
X61963300Y-53276500D01*
X67373500Y-52133500D02*
X63106300Y-52133500D01*
X67881500Y-52641500D02*
X67373500Y-52133500D01*
D34*
X103695500Y-52514500D02*
X115570000Y-52514500D01*
X123698000Y-60642500D02*
X159766000Y-60642500D01*
X115570000Y-52514500D02*
X123698000Y-60642500D01*
X75819000Y-52514500D02*
X103695500Y-52514500D01*
X75819000Y-52514500D02*
X75692000Y-52641500D01*
D33*
X179260500Y-49466500D02*
X167068500Y-49466500D01*
X179895500Y-50101500D02*
X179260500Y-49466500D01*
D35*
X165735000Y-69977000D02*
X164528500Y-69977000D01*
X164528500Y-69977000D02*
X162306000Y-72199500D01*
X167322500Y-69977000D02*
X165735000Y-69977000D01*
X173482000Y-77025500D02*
X173482000Y-75628500D01*
X167830500Y-69977000D02*
X167322500Y-69977000D01*
X173482000Y-75628500D02*
X167830500Y-69977000D01*
X165862000Y-70929500D02*
X164592000Y-72199500D01*
X167513000Y-70929500D02*
X165862000Y-70929500D01*
X170942000Y-77025500D02*
X170942000Y-74358500D01*
X170942000Y-74358500D02*
X167513000Y-70929500D01*
X159702500Y-72263000D02*
X159702500Y-75946000D01*
X159702500Y-75946000D02*
X160528000Y-76771500D01*
X215011000Y-61849000D02*
X210693000Y-61849000D01*
X201739500Y-62484000D02*
X201168000Y-61912500D01*
X210058000Y-62484000D02*
X201739500Y-62484000D01*
X210693000Y-61849000D02*
X210058000Y-62484000D01*
X216217500Y-61849000D02*
X215011000Y-61849000D01*
D36*
X217805000Y-49911000D02*
X216852500Y-50863500D01*
X216852500Y-50863500D02*
X216852500Y-61214000D01*
X216852500Y-61214000D02*
X216217500Y-61849000D01*
D35*
X159575500Y-81597500D02*
X158877000Y-80899000D01*
X176720500Y-81597500D02*
X159575500Y-81597500D01*
X177292000Y-81026000D02*
X176720500Y-81597500D01*
X177292000Y-80581500D02*
X177292000Y-81026000D01*
X177292000Y-74549000D02*
X177292000Y-80581500D01*
D34*
X92837000Y-74993500D02*
X92837000Y-72993502D01*
X88582500Y-72009000D02*
X86868000Y-70294500D01*
X91852498Y-72009000D02*
X88582500Y-72009000D01*
X92837000Y-72993502D02*
X91852498Y-72009000D01*
X64262000Y-68072000D02*
X64262000Y-65341500D01*
X66484500Y-70294500D02*
X64262000Y-68072000D01*
X86868000Y-70294500D02*
X66484500Y-70294500D01*
X85280500Y-72834500D02*
X64262000Y-72834500D01*
X86868000Y-74422000D02*
X85280500Y-72834500D01*
X89154000Y-74422000D02*
X86868000Y-74422000D01*
X89344500Y-74612500D02*
X89154000Y-74422000D01*
D35*
X157003750Y-79597250D02*
X157003750Y-80867250D01*
X158623000Y-77978000D02*
X157003750Y-79597250D01*
X182435500Y-75438000D02*
X182372000Y-75501500D01*
X182435500Y-74676000D02*
X182435500Y-75438000D01*
X158496000Y-82359500D02*
X157003750Y-80867250D01*
X180721000Y-82359500D02*
X158496000Y-82359500D01*
X182372000Y-80708500D02*
X180721000Y-82359500D01*
X182372000Y-75501500D02*
X182372000Y-80708500D01*
X182403750Y-74644250D02*
X182435500Y-74676000D01*
X182403750Y-74644250D02*
X182372000Y-74612500D01*
X195707000Y-74676000D02*
X182435500Y-74676000D01*
X197231000Y-73152000D02*
X195707000Y-74676000D01*
X222504000Y-73152000D02*
X197231000Y-73152000D01*
X222567500Y-73088500D02*
X222504000Y-73152000D01*
X201866500Y-59753500D02*
X199136000Y-59753500D01*
X202692000Y-60579000D02*
X201866500Y-59753500D01*
X123507500Y-51752500D02*
X123507500Y-52354998D01*
X123507500Y-52354998D02*
X126524502Y-55372000D01*
X126524502Y-55372000D02*
X172816002Y-55372000D01*
X172816002Y-55372000D02*
X178498500Y-55372000D01*
X195643500Y-57340500D02*
X200025000Y-57340500D01*
X212090000Y-54102000D02*
X213550500Y-52641500D01*
X212090000Y-57086500D02*
X212090000Y-54102000D01*
X209613500Y-59563000D02*
X212090000Y-57086500D01*
X204025500Y-59563000D02*
X209613500Y-59563000D01*
X202882500Y-58420000D02*
X204025500Y-59563000D01*
X201104500Y-58420000D02*
X202882500Y-58420000D01*
X200025000Y-57340500D02*
X201104500Y-58420000D01*
X120967500Y-52260500D02*
X125412500Y-56705500D01*
X125412500Y-56705500D02*
X154559000Y-56705500D01*
X120967500Y-51752500D02*
X120967500Y-52260500D01*
X171259500Y-57340500D02*
X195643500Y-57340500D01*
X170624500Y-56705500D02*
X171259500Y-57340500D01*
X154559000Y-56705500D02*
X170624500Y-56705500D01*
X224472500Y-49720500D02*
X224091500Y-50101500D01*
X207391000Y-42481500D02*
X207391000Y-42418000D01*
X208788000Y-52006500D02*
X207391000Y-50609500D01*
X207391000Y-50609500D02*
X207391000Y-42418000D01*
X209867500Y-52006500D02*
X208788000Y-52006500D01*
X224091500Y-50101500D02*
X224028000Y-50038000D01*
X224028000Y-50038000D02*
X224028000Y-47879000D01*
X224028000Y-47879000D02*
X222758000Y-46609000D01*
X222758000Y-46609000D02*
X222758000Y-42862500D01*
X222758000Y-42862500D02*
X221170500Y-41275000D01*
X221170500Y-41275000D02*
X208597500Y-41275000D01*
X208597500Y-41275000D02*
X207391000Y-42481500D01*
X178562000Y-51308000D02*
X177927000Y-51308000D01*
X177927000Y-51308000D02*
X175323500Y-53911500D01*
X129857500Y-53911500D02*
X128778000Y-52832000D01*
X175323500Y-53911500D02*
X129857500Y-53911500D01*
X178181000Y-52641500D02*
X179895500Y-52641500D01*
X176149000Y-54673500D02*
X178181000Y-52641500D01*
X128016000Y-54673500D02*
X176149000Y-54673500D01*
X127508000Y-54165500D02*
X128016000Y-54673500D01*
D36*
X208978500Y-42227500D02*
X208216500Y-42989500D01*
X220853000Y-42227500D02*
X208978500Y-42227500D01*
X221932500Y-43307000D02*
X220853000Y-42227500D01*
X221932500Y-47752000D02*
X221932500Y-43307000D01*
X222631000Y-48450500D02*
X221932500Y-47752000D01*
D35*
X211074000Y-52578000D02*
X211074000Y-51625500D01*
X209931000Y-53721000D02*
X211074000Y-52578000D01*
X208216500Y-49022000D02*
X208851500Y-49657000D01*
X208851500Y-49657000D02*
X210375500Y-49657000D01*
X210375500Y-49657000D02*
X211074000Y-50355500D01*
X211074000Y-50355500D02*
X211074000Y-51625500D01*
X208216500Y-42989500D02*
X208216500Y-48006000D01*
X208216500Y-48006000D02*
X208216500Y-49022000D01*
X189928500Y-70548500D02*
X189928500Y-65278000D01*
X188023500Y-72453500D02*
X189928500Y-70548500D01*
X180340000Y-71882000D02*
X180340000Y-64643000D01*
X180403500Y-74549000D02*
X180340000Y-74485500D01*
X180340000Y-74485500D02*
X180340000Y-72009000D01*
X180340000Y-72009000D02*
X180213000Y-71882000D01*
X180213000Y-71882000D02*
X180340000Y-71882000D01*
X178498500Y-64643000D02*
X178498500Y-66167000D01*
X180276500Y-62865000D02*
X178498500Y-64643000D01*
X176784000Y-67881500D02*
X178498500Y-66167000D01*
X176784000Y-70802500D02*
X176784000Y-67881500D01*
X177927000Y-71945500D02*
X176784000Y-70802500D01*
X151955500Y-70358000D02*
X156030586Y-70358000D01*
X160031086Y-66357500D02*
X165925500Y-66357500D01*
X156030586Y-70358000D02*
X160031086Y-66357500D01*
X200088500Y-65532000D02*
X195770500Y-65532000D01*
X201866500Y-63754000D02*
X200088500Y-65532000D01*
X170624500Y-57785000D02*
X172402500Y-59563000D01*
X169037000Y-57785000D02*
X170624500Y-57785000D01*
X168275000Y-58547000D02*
X169037000Y-57785000D01*
X168275000Y-64008000D02*
X168275000Y-58547000D01*
X165925500Y-66357500D02*
X168275000Y-64008000D01*
X172402500Y-64198500D02*
X172402500Y-59563000D01*
X173736000Y-65532000D02*
X172402500Y-64198500D01*
X176784000Y-65532000D02*
X173736000Y-65532000D01*
X177482500Y-64833500D02*
X176784000Y-65532000D01*
X177482500Y-62801500D02*
X177482500Y-64833500D01*
X178752500Y-61531500D02*
X177482500Y-62801500D01*
X181229000Y-61531500D02*
X178752500Y-61531500D01*
X182054500Y-62357000D02*
X181229000Y-61531500D01*
X182054500Y-64897000D02*
X182054500Y-62357000D01*
X182689500Y-65532000D02*
X182054500Y-64897000D01*
X186817000Y-65532000D02*
X182689500Y-65532000D01*
X188531500Y-63817500D02*
X186817000Y-65532000D01*
X190690500Y-63817500D02*
X188531500Y-63817500D01*
X192405000Y-65532000D02*
X190690500Y-63817500D01*
X195770500Y-65532000D02*
X192405000Y-65532000D01*
X133413500Y-68580000D02*
X133413500Y-69659500D01*
X134112000Y-70358000D02*
X151955500Y-70358000D01*
X133413500Y-69659500D02*
X134112000Y-70358000D01*
X211455000Y-53911500D02*
X211455000Y-54546500D01*
X200152000Y-56515000D02*
X198628000Y-56515000D01*
X201231500Y-57594500D02*
X200152000Y-56515000D01*
X205359000Y-57594500D02*
X201231500Y-57594500D01*
X206057500Y-56896000D02*
X205359000Y-57594500D01*
X209105500Y-56896000D02*
X206057500Y-56896000D01*
X211455000Y-54546500D02*
X209105500Y-56896000D01*
X211455000Y-53276500D02*
X211455000Y-53911500D01*
X212280500Y-52451000D02*
X211455000Y-53276500D01*
X212280500Y-49657000D02*
X212280500Y-52451000D01*
X122237500Y-52324000D02*
X125984000Y-56070500D01*
X154813000Y-56070500D02*
X171831000Y-56070500D01*
X171831000Y-56070500D02*
X172275500Y-56515000D01*
X122237500Y-50292000D02*
X122237500Y-52324000D01*
X172275500Y-56515000D02*
X198628000Y-56515000D01*
X125984000Y-56070500D02*
X154813000Y-56070500D01*
X168402000Y-77025500D02*
X168402000Y-73723500D01*
X168402000Y-73723500D02*
X166878000Y-72199500D01*
X168402000Y-73723500D02*
X167767000Y-73088500D01*
X162750500Y-76771500D02*
X162750500Y-75247500D01*
X160845500Y-73342500D02*
X160845500Y-70294500D01*
X162750500Y-75247500D02*
X160845500Y-73342500D01*
X56642000Y-51117500D02*
X56642000Y-49911000D01*
X68707000Y-48958500D02*
X70612000Y-47053500D01*
X62357000Y-48958500D02*
X68707000Y-48958500D01*
X61785500Y-49530000D02*
X62357000Y-48958500D01*
X57023000Y-49530000D02*
X61785500Y-49530000D01*
X56642000Y-49911000D02*
X57023000Y-49530000D01*
D33*
X229616000Y-70866000D02*
X229616000Y-63373000D01*
X223520000Y-76962000D02*
X229616000Y-70866000D01*
X220726000Y-76962000D02*
X223520000Y-76962000D01*
X220662500Y-77025500D02*
X220726000Y-76962000D01*
D35*
X56642000Y-53276500D02*
X56642000Y-51117500D01*
X56642000Y-55562500D02*
X56642000Y-53276500D01*
X56642000Y-57848500D02*
X56642000Y-55562500D01*
X56642000Y-60071000D02*
X56642000Y-57848500D01*
X60464700Y-60071000D02*
X58166000Y-60071000D01*
X58166000Y-57848500D02*
X60464700Y-57848500D01*
X58166000Y-55562500D02*
X60433702Y-55562500D01*
X60464700Y-55531502D02*
X60464700Y-55562500D01*
X60433702Y-55562500D02*
X60464700Y-55531502D01*
X60464700Y-53276500D02*
X58166000Y-53276500D01*
X64643000Y-50101500D02*
X62979300Y-50101500D01*
X62979300Y-50101500D02*
X61963300Y-51117500D01*
X61963300Y-51117500D02*
X61963300Y-51003200D01*
X64643000Y-50101500D02*
X74104500Y-50101500D01*
D34*
X132588000Y-58293000D02*
X124714000Y-58293000D01*
X116268500Y-49847500D02*
X107251500Y-49847500D01*
X124714000Y-58293000D02*
X116268500Y-49847500D01*
X106934000Y-50165000D02*
X83312000Y-50165000D01*
X107251500Y-49847500D02*
X106934000Y-50165000D01*
X83312000Y-50165000D02*
X83312000Y-50101500D01*
X83312000Y-50101500D02*
X83312000Y-50165000D01*
X83312000Y-50165000D02*
X83312000Y-50101500D01*
X73152000Y-47053500D02*
X73152000Y-49149000D01*
X74104500Y-50101500D02*
X83312000Y-50101500D01*
X73152000Y-49149000D02*
X74104500Y-50101500D01*
X132588000Y-58293000D02*
X136080500Y-58293000D01*
X136080500Y-58293000D02*
X157226000Y-58293000D01*
X132588000Y-58293000D02*
X135826500Y-58293000D01*
X157226000Y-58293000D02*
X135826500Y-58293000D01*
D35*
X58166000Y-51117500D02*
X60464700Y-51117500D01*
D37*
G36*
X234748000Y-75425993D02*
X234733449Y-75390777D01*
X233290320Y-73945128D01*
X231403818Y-73161783D01*
X229361144Y-73160001D01*
X227473277Y-73940051D01*
X226027628Y-75383180D01*
X225244283Y-77269682D01*
X225242501Y-79312356D01*
X226022551Y-81200223D01*
X227465680Y-82645872D01*
X227512949Y-82665500D01*
X181560512Y-82665500D01*
X182944757Y-81281256D01*
X183036081Y-81144580D01*
X183210181Y-81239867D01*
X183292961Y-81257404D01*
X183515000Y-81135415D01*
X183515000Y-79692500D01*
X183769000Y-79692500D01*
X183769000Y-81135415D01*
X183991039Y-81257404D01*
X184073819Y-81239867D01*
X184566896Y-80970000D01*
X184912000Y-80540893D01*
X185257104Y-80970000D01*
X185750181Y-81239867D01*
X185832961Y-81257404D01*
X186055000Y-81135415D01*
X186055000Y-79692500D01*
X186309000Y-79692500D01*
X186309000Y-81135415D01*
X186531039Y-81257404D01*
X186613819Y-81239867D01*
X187106896Y-80970000D01*
X187452000Y-80540893D01*
X187797104Y-80970000D01*
X188290181Y-81239867D01*
X188372961Y-81257404D01*
X188595000Y-81135415D01*
X188595000Y-79692500D01*
X186309000Y-79692500D01*
X186055000Y-79692500D01*
X183769000Y-79692500D01*
X183515000Y-79692500D01*
X183495000Y-79692500D01*
X183495000Y-79438500D01*
X183515000Y-79438500D01*
X183515000Y-79418500D01*
X183769000Y-79418500D01*
X183769000Y-79438500D01*
X186055000Y-79438500D01*
X186055000Y-79418500D01*
X186309000Y-79418500D01*
X186309000Y-79438500D01*
X188595000Y-79438500D01*
X188595000Y-79418500D01*
X188849000Y-79418500D01*
X188849000Y-79438500D01*
X188869000Y-79438500D01*
X188869000Y-79692500D01*
X188849000Y-79692500D01*
X188849000Y-81135415D01*
X189071039Y-81257404D01*
X189153819Y-81239867D01*
X189646896Y-80970000D01*
X189995208Y-80536904D01*
X190247302Y-80914189D01*
X190712849Y-81225258D01*
X191262000Y-81334491D01*
X191811151Y-81225258D01*
X192276698Y-80914189D01*
X192532000Y-80532103D01*
X192787302Y-80914189D01*
X193252849Y-81225258D01*
X193802000Y-81334491D01*
X194351151Y-81225258D01*
X194816698Y-80914189D01*
X195072000Y-80532103D01*
X195327302Y-80914189D01*
X195792849Y-81225258D01*
X196342000Y-81334491D01*
X196891151Y-81225258D01*
X197356698Y-80914189D01*
X197612000Y-80532103D01*
X197867302Y-80914189D01*
X198332849Y-81225258D01*
X198882000Y-81334491D01*
X199431151Y-81225258D01*
X199896698Y-80914189D01*
X200152000Y-80532103D01*
X200407302Y-80914189D01*
X200872849Y-81225258D01*
X201422000Y-81334491D01*
X201971151Y-81225258D01*
X202436698Y-80914189D01*
X202692000Y-80532103D01*
X202947302Y-80914189D01*
X203412849Y-81225258D01*
X203962000Y-81334491D01*
X204511151Y-81225258D01*
X204976698Y-80914189D01*
X205232000Y-80532103D01*
X205487302Y-80914189D01*
X205952849Y-81225258D01*
X206502000Y-81334491D01*
X207051151Y-81225258D01*
X207516698Y-80914189D01*
X207772000Y-80532103D01*
X208027302Y-80914189D01*
X208492849Y-81225258D01*
X209042000Y-81334491D01*
X209591151Y-81225258D01*
X210056698Y-80914189D01*
X210312000Y-80532103D01*
X210567302Y-80914189D01*
X211032849Y-81225258D01*
X211582000Y-81334491D01*
X212131151Y-81225258D01*
X212596698Y-80914189D01*
X212848792Y-80536904D01*
X213197104Y-80970000D01*
X213690181Y-81239867D01*
X213772961Y-81257404D01*
X213995000Y-81135415D01*
X213995000Y-79692500D01*
X214249000Y-79692500D01*
X214249000Y-81135415D01*
X214471039Y-81257404D01*
X214553819Y-81239867D01*
X215046896Y-80970000D01*
X215399166Y-80531983D01*
X215557000Y-79992500D01*
X215557000Y-79692500D01*
X214249000Y-79692500D01*
X213995000Y-79692500D01*
X213975000Y-79692500D01*
X213975000Y-79438500D01*
X213995000Y-79438500D01*
X213995000Y-77152500D01*
X214249000Y-77152500D01*
X214249000Y-79438500D01*
X215557000Y-79438500D01*
X215557000Y-79138500D01*
X215399166Y-78599017D01*
X215375694Y-78569832D01*
X215460327Y-78485199D01*
X215557000Y-78251810D01*
X215557000Y-77311250D01*
X215398250Y-77152500D01*
X214249000Y-77152500D01*
X213995000Y-77152500D01*
X213975000Y-77152500D01*
X213975000Y-76898500D01*
X213995000Y-76898500D01*
X213995000Y-75449250D01*
X214249000Y-75449250D01*
X214249000Y-76898500D01*
X215398250Y-76898500D01*
X215557000Y-76739750D01*
X215557000Y-75799190D01*
X215460327Y-75565801D01*
X215281698Y-75387173D01*
X215048309Y-75290500D01*
X214407750Y-75290500D01*
X214249000Y-75449250D01*
X213995000Y-75449250D01*
X213836250Y-75290500D01*
X213195691Y-75290500D01*
X212962302Y-75387173D01*
X212783673Y-75565801D01*
X212687000Y-75799190D01*
X212687000Y-75811957D01*
X212596698Y-75676811D01*
X212131151Y-75365742D01*
X211582000Y-75256509D01*
X211032849Y-75365742D01*
X210567302Y-75676811D01*
X210312000Y-76058897D01*
X210056698Y-75676811D01*
X209591151Y-75365742D01*
X209042000Y-75256509D01*
X208492849Y-75365742D01*
X208027302Y-75676811D01*
X207772000Y-76058897D01*
X207516698Y-75676811D01*
X207051151Y-75365742D01*
X206502000Y-75256509D01*
X205952849Y-75365742D01*
X205487302Y-75676811D01*
X205232000Y-76058897D01*
X204976698Y-75676811D01*
X204511151Y-75365742D01*
X203962000Y-75256509D01*
X203412849Y-75365742D01*
X202947302Y-75676811D01*
X202692000Y-76058897D01*
X202436698Y-75676811D01*
X201971151Y-75365742D01*
X201422000Y-75256509D01*
X200872849Y-75365742D01*
X200407302Y-75676811D01*
X200152000Y-76058897D01*
X199896698Y-75676811D01*
X199431151Y-75365742D01*
X198882000Y-75256509D01*
X198332849Y-75365742D01*
X197867302Y-75676811D01*
X197612000Y-76058897D01*
X197356698Y-75676811D01*
X196891151Y-75365742D01*
X196342000Y-75256509D01*
X196236851Y-75277425D01*
X196279756Y-75248756D01*
X197566513Y-73962000D01*
X205806786Y-73962000D01*
X205806786Y-74992000D01*
X212023214Y-74992000D01*
X212023214Y-73962000D01*
X212918786Y-73962000D01*
X212918786Y-75182500D01*
X219135214Y-75182500D01*
X219135214Y-73962000D01*
X219776786Y-73962000D01*
X219776786Y-75182500D01*
X225993214Y-75182500D01*
X225993214Y-68587500D01*
X225692971Y-68587500D01*
X225584553Y-68325107D01*
X225268361Y-68008363D01*
X225582886Y-67694387D01*
X225839997Y-67075196D01*
X225840582Y-66404746D01*
X225584553Y-65785107D01*
X225509393Y-65709816D01*
X225564989Y-65686787D01*
X225743617Y-65508158D01*
X225840290Y-65274769D01*
X225840290Y-64484250D01*
X225681540Y-64325500D01*
X224282000Y-64325500D01*
X224282000Y-64345500D01*
X224028000Y-64345500D01*
X224028000Y-64325500D01*
X222628460Y-64325500D01*
X222469710Y-64484250D01*
X222469710Y-65274769D01*
X222566383Y-65508158D01*
X222745011Y-65686787D01*
X222800205Y-65709649D01*
X222727114Y-65782613D01*
X222470003Y-66401804D01*
X222469418Y-67072254D01*
X222725447Y-67691893D01*
X223041639Y-68008637D01*
X222727114Y-68322613D01*
X222617123Y-68587500D01*
X219776786Y-68587500D01*
X219776786Y-72342000D01*
X219135214Y-72342000D01*
X219135214Y-68587500D01*
X218771471Y-68587500D01*
X218663053Y-68325107D01*
X218346861Y-68008363D01*
X218661386Y-67694387D01*
X218918497Y-67075196D01*
X218919082Y-66404746D01*
X218663053Y-65785107D01*
X218587893Y-65709816D01*
X218643489Y-65686787D01*
X218822117Y-65508158D01*
X218918790Y-65274769D01*
X218918790Y-64484250D01*
X218760040Y-64325500D01*
X217360500Y-64325500D01*
X217360500Y-64345500D01*
X217106500Y-64345500D01*
X217106500Y-64325500D01*
X215706960Y-64325500D01*
X215548210Y-64484250D01*
X215548210Y-65274769D01*
X215644883Y-65508158D01*
X215823511Y-65686787D01*
X215878705Y-65709649D01*
X215805614Y-65782613D01*
X215548503Y-66401804D01*
X215547918Y-67072254D01*
X215803947Y-67691893D01*
X216120139Y-68008637D01*
X215805614Y-68322613D01*
X215695623Y-68587500D01*
X212918786Y-68587500D01*
X212918786Y-72342000D01*
X212023214Y-72342000D01*
X212023214Y-68397000D01*
X211733996Y-68397000D01*
X211678053Y-68261607D01*
X211361861Y-67944863D01*
X211676386Y-67630887D01*
X211933497Y-67011696D01*
X211934082Y-66341246D01*
X211678053Y-65721607D01*
X211602893Y-65646316D01*
X211658489Y-65623287D01*
X211837117Y-65444658D01*
X211933790Y-65211269D01*
X211933790Y-64420750D01*
X211775040Y-64262000D01*
X210375500Y-64262000D01*
X210375500Y-64282000D01*
X210121500Y-64282000D01*
X210121500Y-64262000D01*
X208721960Y-64262000D01*
X208563210Y-64420750D01*
X208563210Y-65211269D01*
X208659883Y-65444658D01*
X208838511Y-65623287D01*
X208893705Y-65646149D01*
X208820614Y-65719113D01*
X208563503Y-66338304D01*
X208562918Y-67008754D01*
X208818947Y-67628393D01*
X209135139Y-67945137D01*
X208820614Y-68259113D01*
X208763358Y-68397000D01*
X205806786Y-68397000D01*
X205806786Y-72342000D01*
X197231000Y-72342000D01*
X196921026Y-72403658D01*
X196845713Y-72453981D01*
X196658243Y-72579244D01*
X195371488Y-73866000D01*
X193038936Y-73866000D01*
X193612393Y-73629053D01*
X194086886Y-73155387D01*
X194343997Y-72536196D01*
X194344582Y-71865746D01*
X194088553Y-71246107D01*
X193772361Y-70929363D01*
X194086886Y-70615387D01*
X194343997Y-69996196D01*
X194344582Y-69325746D01*
X194088553Y-68706107D01*
X194013393Y-68630816D01*
X194068989Y-68607787D01*
X194247617Y-68429158D01*
X194344290Y-68195769D01*
X194344290Y-67405250D01*
X194185540Y-67246500D01*
X192786000Y-67246500D01*
X192786000Y-67266500D01*
X192532000Y-67266500D01*
X192532000Y-67246500D01*
X191132460Y-67246500D01*
X190973710Y-67405250D01*
X190973710Y-68195769D01*
X191070383Y-68429158D01*
X191249011Y-68607787D01*
X191304205Y-68630649D01*
X191231114Y-68703613D01*
X190974003Y-69322804D01*
X190973418Y-69993254D01*
X191229447Y-70612893D01*
X191545639Y-70929637D01*
X191231114Y-71243613D01*
X190974003Y-71862804D01*
X190973418Y-72533254D01*
X191229447Y-73152893D01*
X191703113Y-73627386D01*
X192277758Y-73866000D01*
X183513936Y-73866000D01*
X184087393Y-73629053D01*
X184561886Y-73155387D01*
X184818997Y-72536196D01*
X184819582Y-71865746D01*
X184563553Y-71246107D01*
X184247361Y-70929363D01*
X184561886Y-70615387D01*
X184818997Y-69996196D01*
X184819582Y-69325746D01*
X184563553Y-68706107D01*
X184488393Y-68630816D01*
X184543989Y-68607787D01*
X184722617Y-68429158D01*
X184819290Y-68195769D01*
X184819290Y-67405250D01*
X184660540Y-67246500D01*
X183261000Y-67246500D01*
X183261000Y-67266500D01*
X183007000Y-67266500D01*
X183007000Y-67246500D01*
X181607460Y-67246500D01*
X181448710Y-67405250D01*
X181448710Y-68195769D01*
X181545383Y-68429158D01*
X181724011Y-68607787D01*
X181779205Y-68630649D01*
X181706114Y-68703613D01*
X181449003Y-69322804D01*
X181448418Y-69993254D01*
X181704447Y-70612893D01*
X182020639Y-70929637D01*
X181706114Y-71243613D01*
X181449003Y-71862804D01*
X181448418Y-72533254D01*
X181704447Y-73152893D01*
X182011740Y-73460722D01*
X181708557Y-73585995D01*
X181482812Y-73811345D01*
X181150000Y-73477951D01*
X181150000Y-72009000D01*
X181137369Y-71945500D01*
X181150000Y-71882000D01*
X181150000Y-65650093D01*
X181421289Y-65379278D01*
X181439315Y-65406257D01*
X181481744Y-65469756D01*
X181683606Y-65671618D01*
X181545383Y-65809842D01*
X181448710Y-66043231D01*
X181448710Y-66833750D01*
X181607460Y-66992500D01*
X183007000Y-66992500D01*
X183007000Y-66972500D01*
X183261000Y-66972500D01*
X183261000Y-66992500D01*
X184660540Y-66992500D01*
X184819290Y-66833750D01*
X184819290Y-66342000D01*
X186817000Y-66342000D01*
X187126974Y-66280342D01*
X187389756Y-66104756D01*
X188764784Y-64729729D01*
X188643723Y-65021276D01*
X188643277Y-65532481D01*
X188838495Y-66004943D01*
X189118500Y-66285438D01*
X189118500Y-67408429D01*
X185966500Y-67408429D01*
X185966500Y-71910571D01*
X186857566Y-71910571D01*
X186738723Y-72196776D01*
X186738277Y-72707981D01*
X186933495Y-73180443D01*
X187294655Y-73542235D01*
X187766776Y-73738277D01*
X188277981Y-73738723D01*
X188750443Y-73543505D01*
X189112235Y-73182345D01*
X189308277Y-72710224D01*
X189308623Y-72313890D01*
X189711942Y-71910571D01*
X190086500Y-71910571D01*
X190086500Y-71536013D01*
X190501257Y-71121256D01*
X190676843Y-70858473D01*
X190716266Y-70660277D01*
X190738500Y-70548500D01*
X190738500Y-66285093D01*
X190973710Y-66050294D01*
X190973710Y-66833750D01*
X191132460Y-66992500D01*
X192532000Y-66992500D01*
X192532000Y-66972500D01*
X192786000Y-66972500D01*
X192786000Y-66992500D01*
X194185540Y-66992500D01*
X194344290Y-66833750D01*
X194344290Y-66342000D01*
X197524839Y-66342000D01*
X197285265Y-66581155D01*
X197089223Y-67053276D01*
X197088913Y-67408429D01*
X195491500Y-67408429D01*
X195491500Y-71910571D01*
X199611500Y-71910571D01*
X199611500Y-68191000D01*
X205249573Y-68191000D01*
X205610276Y-68340777D01*
X206121481Y-68341223D01*
X206593943Y-68146005D01*
X206955735Y-67784845D01*
X207151777Y-67312724D01*
X207152223Y-66801519D01*
X206957005Y-66329057D01*
X206595845Y-65967265D01*
X206123724Y-65771223D01*
X205612519Y-65770777D01*
X205248953Y-65921000D01*
X200845012Y-65921000D01*
X201727133Y-65038879D01*
X202120981Y-65039223D01*
X202593443Y-64844005D01*
X202955235Y-64482845D01*
X203151277Y-64010724D01*
X203151723Y-63499519D01*
X203066804Y-63294000D01*
X208563210Y-63294000D01*
X208563210Y-63849250D01*
X208721960Y-64008000D01*
X210121500Y-64008000D01*
X210121500Y-63988000D01*
X210375500Y-63988000D01*
X210375500Y-64008000D01*
X211775040Y-64008000D01*
X211933790Y-63849250D01*
X211933790Y-63058731D01*
X211837117Y-62825342D01*
X211670776Y-62659000D01*
X215947150Y-62659000D01*
X215823511Y-62710213D01*
X215644883Y-62888842D01*
X215548210Y-63122231D01*
X215548210Y-63912750D01*
X215706960Y-64071500D01*
X217106500Y-64071500D01*
X217106500Y-62772290D01*
X217360500Y-62772290D01*
X217360500Y-64071500D01*
X218760040Y-64071500D01*
X218918790Y-63912750D01*
X218918790Y-63122231D01*
X222469710Y-63122231D01*
X222469710Y-63912750D01*
X222628460Y-64071500D01*
X224028000Y-64071500D01*
X224028000Y-62772290D01*
X224282000Y-62772290D01*
X224282000Y-64071500D01*
X225681540Y-64071500D01*
X225840290Y-63912750D01*
X225840290Y-63122231D01*
X225743617Y-62888842D01*
X225564989Y-62710213D01*
X225331600Y-62613540D01*
X224440750Y-62613540D01*
X224282000Y-62772290D01*
X224028000Y-62772290D01*
X223869250Y-62613540D01*
X222978400Y-62613540D01*
X222745011Y-62710213D01*
X222566383Y-62888842D01*
X222469710Y-63122231D01*
X218918790Y-63122231D01*
X218822117Y-62888842D01*
X218643489Y-62710213D01*
X218410100Y-62613540D01*
X217519250Y-62613540D01*
X217360500Y-62772290D01*
X217106500Y-62772290D01*
X216947750Y-62613540D01*
X216446042Y-62613540D01*
X216527474Y-62597342D01*
X216790256Y-62421756D01*
X216861448Y-62315210D01*
X217407579Y-61769079D01*
X217577745Y-61514406D01*
X217637501Y-61214000D01*
X217637500Y-61213995D01*
X217637500Y-58055254D01*
X219230918Y-58055254D01*
X219486947Y-58674893D01*
X219803139Y-58991637D01*
X219488614Y-59305613D01*
X219231503Y-59924804D01*
X219230918Y-60595254D01*
X219486947Y-61214893D01*
X219960613Y-61689386D01*
X220579804Y-61946497D01*
X221250254Y-61947082D01*
X221869893Y-61691053D01*
X222344386Y-61217387D01*
X222601497Y-60598196D01*
X222602082Y-59927746D01*
X222346053Y-59308107D01*
X222029861Y-58991363D01*
X222344386Y-58677387D01*
X222601497Y-58058196D01*
X222601499Y-58055254D01*
X226215918Y-58055254D01*
X226471947Y-58674893D01*
X226788139Y-58991637D01*
X226473614Y-59305613D01*
X226216503Y-59924804D01*
X226215918Y-60595254D01*
X226471947Y-61214893D01*
X226945613Y-61689386D01*
X227564804Y-61946497D01*
X228235254Y-61947082D01*
X228854893Y-61691053D01*
X229329386Y-61217387D01*
X229586497Y-60598196D01*
X229587082Y-59927746D01*
X229331053Y-59308107D01*
X229014861Y-58991363D01*
X229329386Y-58677387D01*
X229586497Y-58058196D01*
X229587082Y-57387746D01*
X229331053Y-56768107D01*
X229255893Y-56692816D01*
X229311489Y-56669787D01*
X229490117Y-56491158D01*
X229586790Y-56257769D01*
X229586790Y-55467250D01*
X229428040Y-55308500D01*
X228028500Y-55308500D01*
X228028500Y-55328500D01*
X227774500Y-55328500D01*
X227774500Y-55308500D01*
X226374960Y-55308500D01*
X226216210Y-55467250D01*
X226216210Y-56257769D01*
X226312883Y-56491158D01*
X226491511Y-56669787D01*
X226546705Y-56692649D01*
X226473614Y-56765613D01*
X226216503Y-57384804D01*
X226215918Y-58055254D01*
X222601499Y-58055254D01*
X222602082Y-57387746D01*
X222346053Y-56768107D01*
X222270893Y-56692816D01*
X222326489Y-56669787D01*
X222505117Y-56491158D01*
X222601790Y-56257769D01*
X222601790Y-55467250D01*
X222443040Y-55308500D01*
X221043500Y-55308500D01*
X221043500Y-55328500D01*
X220789500Y-55328500D01*
X220789500Y-55308500D01*
X219389960Y-55308500D01*
X219231210Y-55467250D01*
X219231210Y-56257769D01*
X219327883Y-56491158D01*
X219506511Y-56669787D01*
X219561705Y-56692649D01*
X219488614Y-56765613D01*
X219231503Y-57384804D01*
X219230918Y-58055254D01*
X217637500Y-58055254D01*
X217637500Y-54037000D01*
X219259472Y-54037000D01*
X219231210Y-54105231D01*
X219231210Y-54895750D01*
X219389960Y-55054500D01*
X220789500Y-55054500D01*
X220789500Y-55034500D01*
X221043500Y-55034500D01*
X221043500Y-55054500D01*
X222443040Y-55054500D01*
X222601790Y-54895750D01*
X222601790Y-54105231D01*
X222573528Y-54037000D01*
X223888501Y-54037000D01*
X223888501Y-54291000D01*
X226216210Y-54291000D01*
X226216210Y-54895750D01*
X226374960Y-55054500D01*
X227774500Y-55054500D01*
X227774500Y-55034500D01*
X228028500Y-55034500D01*
X228028500Y-55054500D01*
X229428040Y-55054500D01*
X229586790Y-54895750D01*
X229586790Y-54291000D01*
X231021000Y-54291000D01*
X231021000Y-57721500D01*
X231107397Y-58155846D01*
X231353434Y-58524066D01*
X231721654Y-58770103D01*
X232156000Y-58856500D01*
X232590346Y-58770103D01*
X232958566Y-58524066D01*
X233204603Y-58155846D01*
X233291000Y-57721500D01*
X233291000Y-51016132D01*
X233918979Y-50388153D01*
X234279943Y-50239005D01*
X234641735Y-49877845D01*
X234748000Y-49621931D01*
X234748000Y-75425993D01*
X234748000Y-75425993D01*
G37*
X234748000Y-75425993D02*
X234733449Y-75390777D01*
X233290320Y-73945128D01*
X231403818Y-73161783D01*
X229361144Y-73160001D01*
X227473277Y-73940051D01*
X226027628Y-75383180D01*
X225244283Y-77269682D01*
X225242501Y-79312356D01*
X226022551Y-81200223D01*
X227465680Y-82645872D01*
X227512949Y-82665500D01*
X181560512Y-82665500D01*
X182944757Y-81281256D01*
X183036081Y-81144580D01*
X183210181Y-81239867D01*
X183292961Y-81257404D01*
X183515000Y-81135415D01*
X183515000Y-79692500D01*
X183769000Y-79692500D01*
X183769000Y-81135415D01*
X183991039Y-81257404D01*
X184073819Y-81239867D01*
X184566896Y-80970000D01*
X184912000Y-80540893D01*
X185257104Y-80970000D01*
X185750181Y-81239867D01*
X185832961Y-81257404D01*
X186055000Y-81135415D01*
X186055000Y-79692500D01*
X186309000Y-79692500D01*
X186309000Y-81135415D01*
X186531039Y-81257404D01*
X186613819Y-81239867D01*
X187106896Y-80970000D01*
X187452000Y-80540893D01*
X187797104Y-80970000D01*
X188290181Y-81239867D01*
X188372961Y-81257404D01*
X188595000Y-81135415D01*
X188595000Y-79692500D01*
X186309000Y-79692500D01*
X186055000Y-79692500D01*
X183769000Y-79692500D01*
X183515000Y-79692500D01*
X183495000Y-79692500D01*
X183495000Y-79438500D01*
X183515000Y-79438500D01*
X183515000Y-79418500D01*
X183769000Y-79418500D01*
X183769000Y-79438500D01*
X186055000Y-79438500D01*
X186055000Y-79418500D01*
X186309000Y-79418500D01*
X186309000Y-79438500D01*
X188595000Y-79438500D01*
X188595000Y-79418500D01*
X188849000Y-79418500D01*
X188849000Y-79438500D01*
X188869000Y-79438500D01*
X188869000Y-79692500D01*
X188849000Y-79692500D01*
X188849000Y-81135415D01*
X189071039Y-81257404D01*
X189153819Y-81239867D01*
X189646896Y-80970000D01*
X189995208Y-80536904D01*
X190247302Y-80914189D01*
X190712849Y-81225258D01*
X191262000Y-81334491D01*
X191811151Y-81225258D01*
X192276698Y-80914189D01*
X192532000Y-80532103D01*
X192787302Y-80914189D01*
X193252849Y-81225258D01*
X193802000Y-81334491D01*
X194351151Y-81225258D01*
X194816698Y-80914189D01*
X195072000Y-80532103D01*
X195327302Y-80914189D01*
X195792849Y-81225258D01*
X196342000Y-81334491D01*
X196891151Y-81225258D01*
X197356698Y-80914189D01*
X197612000Y-80532103D01*
X197867302Y-80914189D01*
X198332849Y-81225258D01*
X198882000Y-81334491D01*
X199431151Y-81225258D01*
X199896698Y-80914189D01*
X200152000Y-80532103D01*
X200407302Y-80914189D01*
X200872849Y-81225258D01*
X201422000Y-81334491D01*
X201971151Y-81225258D01*
X202436698Y-80914189D01*
X202692000Y-80532103D01*
X202947302Y-80914189D01*
X203412849Y-81225258D01*
X203962000Y-81334491D01*
X204511151Y-81225258D01*
X204976698Y-80914189D01*
X205232000Y-80532103D01*
X205487302Y-80914189D01*
X205952849Y-81225258D01*
X206502000Y-81334491D01*
X207051151Y-81225258D01*
X207516698Y-80914189D01*
X207772000Y-80532103D01*
X208027302Y-80914189D01*
X208492849Y-81225258D01*
X209042000Y-81334491D01*
X209591151Y-81225258D01*
X210056698Y-80914189D01*
X210312000Y-80532103D01*
X210567302Y-80914189D01*
X211032849Y-81225258D01*
X211582000Y-81334491D01*
X212131151Y-81225258D01*
X212596698Y-80914189D01*
X212848792Y-80536904D01*
X213197104Y-80970000D01*
X213690181Y-81239867D01*
X213772961Y-81257404D01*
X213995000Y-81135415D01*
X213995000Y-79692500D01*
X214249000Y-79692500D01*
X214249000Y-81135415D01*
X214471039Y-81257404D01*
X214553819Y-81239867D01*
X215046896Y-80970000D01*
X215399166Y-80531983D01*
X215557000Y-79992500D01*
X215557000Y-79692500D01*
X214249000Y-79692500D01*
X213995000Y-79692500D01*
X213975000Y-79692500D01*
X213975000Y-79438500D01*
X213995000Y-79438500D01*
X213995000Y-77152500D01*
X214249000Y-77152500D01*
X214249000Y-79438500D01*
X215557000Y-79438500D01*
X215557000Y-79138500D01*
X215399166Y-78599017D01*
X215375694Y-78569832D01*
X215460327Y-78485199D01*
X215557000Y-78251810D01*
X215557000Y-77311250D01*
X215398250Y-77152500D01*
X214249000Y-77152500D01*
X213995000Y-77152500D01*
X213975000Y-77152500D01*
X213975000Y-76898500D01*
X213995000Y-76898500D01*
X213995000Y-75449250D01*
X214249000Y-75449250D01*
X214249000Y-76898500D01*
X215398250Y-76898500D01*
X215557000Y-76739750D01*
X215557000Y-75799190D01*
X215460327Y-75565801D01*
X215281698Y-75387173D01*
X215048309Y-75290500D01*
X214407750Y-75290500D01*
X214249000Y-75449250D01*
X213995000Y-75449250D01*
X213836250Y-75290500D01*
X213195691Y-75290500D01*
X212962302Y-75387173D01*
X212783673Y-75565801D01*
X212687000Y-75799190D01*
X212687000Y-75811957D01*
X212596698Y-75676811D01*
X212131151Y-75365742D01*
X211582000Y-75256509D01*
X211032849Y-75365742D01*
X210567302Y-75676811D01*
X210312000Y-76058897D01*
X210056698Y-75676811D01*
X209591151Y-75365742D01*
X209042000Y-75256509D01*
X208492849Y-75365742D01*
X208027302Y-75676811D01*
X207772000Y-76058897D01*
X207516698Y-75676811D01*
X207051151Y-75365742D01*
X206502000Y-75256509D01*
X205952849Y-75365742D01*
X205487302Y-75676811D01*
X205232000Y-76058897D01*
X204976698Y-75676811D01*
X204511151Y-75365742D01*
X203962000Y-75256509D01*
X203412849Y-75365742D01*
X202947302Y-75676811D01*
X202692000Y-76058897D01*
X202436698Y-75676811D01*
X201971151Y-75365742D01*
X201422000Y-75256509D01*
X200872849Y-75365742D01*
X200407302Y-75676811D01*
X200152000Y-76058897D01*
X199896698Y-75676811D01*
X199431151Y-75365742D01*
X198882000Y-75256509D01*
X198332849Y-75365742D01*
X197867302Y-75676811D01*
X197612000Y-76058897D01*
X197356698Y-75676811D01*
X196891151Y-75365742D01*
X196342000Y-75256509D01*
X196236851Y-75277425D01*
X196279756Y-75248756D01*
X197566513Y-73962000D01*
X205806786Y-73962000D01*
X205806786Y-74992000D01*
X212023214Y-74992000D01*
X212023214Y-73962000D01*
X212918786Y-73962000D01*
X212918786Y-75182500D01*
X219135214Y-75182500D01*
X219135214Y-73962000D01*
X219776786Y-73962000D01*
X219776786Y-75182500D01*
X225993214Y-75182500D01*
X225993214Y-68587500D01*
X225692971Y-68587500D01*
X225584553Y-68325107D01*
X225268361Y-68008363D01*
X225582886Y-67694387D01*
X225839997Y-67075196D01*
X225840582Y-66404746D01*
X225584553Y-65785107D01*
X225509393Y-65709816D01*
X225564989Y-65686787D01*
X225743617Y-65508158D01*
X225840290Y-65274769D01*
X225840290Y-64484250D01*
X225681540Y-64325500D01*
X224282000Y-64325500D01*
X224282000Y-64345500D01*
X224028000Y-64345500D01*
X224028000Y-64325500D01*
X222628460Y-64325500D01*
X222469710Y-64484250D01*
X222469710Y-65274769D01*
X222566383Y-65508158D01*
X222745011Y-65686787D01*
X222800205Y-65709649D01*
X222727114Y-65782613D01*
X222470003Y-66401804D01*
X222469418Y-67072254D01*
X222725447Y-67691893D01*
X223041639Y-68008637D01*
X222727114Y-68322613D01*
X222617123Y-68587500D01*
X219776786Y-68587500D01*
X219776786Y-72342000D01*
X219135214Y-72342000D01*
X219135214Y-68587500D01*
X218771471Y-68587500D01*
X218663053Y-68325107D01*
X218346861Y-68008363D01*
X218661386Y-67694387D01*
X218918497Y-67075196D01*
X218919082Y-66404746D01*
X218663053Y-65785107D01*
X218587893Y-65709816D01*
X218643489Y-65686787D01*
X218822117Y-65508158D01*
X218918790Y-65274769D01*
X218918790Y-64484250D01*
X218760040Y-64325500D01*
X217360500Y-64325500D01*
X217360500Y-64345500D01*
X217106500Y-64345500D01*
X217106500Y-64325500D01*
X215706960Y-64325500D01*
X215548210Y-64484250D01*
X215548210Y-65274769D01*
X215644883Y-65508158D01*
X215823511Y-65686787D01*
X215878705Y-65709649D01*
X215805614Y-65782613D01*
X215548503Y-66401804D01*
X215547918Y-67072254D01*
X215803947Y-67691893D01*
X216120139Y-68008637D01*
X215805614Y-68322613D01*
X215695623Y-68587500D01*
X212918786Y-68587500D01*
X212918786Y-72342000D01*
X212023214Y-72342000D01*
X212023214Y-68397000D01*
X211733996Y-68397000D01*
X211678053Y-68261607D01*
X211361861Y-67944863D01*
X211676386Y-67630887D01*
X211933497Y-67011696D01*
X211934082Y-66341246D01*
X211678053Y-65721607D01*
X211602893Y-65646316D01*
X211658489Y-65623287D01*
X211837117Y-65444658D01*
X211933790Y-65211269D01*
X211933790Y-64420750D01*
X211775040Y-64262000D01*
X210375500Y-64262000D01*
X210375500Y-64282000D01*
X210121500Y-64282000D01*
X210121500Y-64262000D01*
X208721960Y-64262000D01*
X208563210Y-64420750D01*
X208563210Y-65211269D01*
X208659883Y-65444658D01*
X208838511Y-65623287D01*
X208893705Y-65646149D01*
X208820614Y-65719113D01*
X208563503Y-66338304D01*
X208562918Y-67008754D01*
X208818947Y-67628393D01*
X209135139Y-67945137D01*
X208820614Y-68259113D01*
X208763358Y-68397000D01*
X205806786Y-68397000D01*
X205806786Y-72342000D01*
X197231000Y-72342000D01*
X196921026Y-72403658D01*
X196845713Y-72453981D01*
X196658243Y-72579244D01*
X195371488Y-73866000D01*
X193038936Y-73866000D01*
X193612393Y-73629053D01*
X194086886Y-73155387D01*
X194343997Y-72536196D01*
X194344582Y-71865746D01*
X194088553Y-71246107D01*
X193772361Y-70929363D01*
X194086886Y-70615387D01*
X194343997Y-69996196D01*
X194344582Y-69325746D01*
X194088553Y-68706107D01*
X194013393Y-68630816D01*
X194068989Y-68607787D01*
X194247617Y-68429158D01*
X194344290Y-68195769D01*
X194344290Y-67405250D01*
X194185540Y-67246500D01*
X192786000Y-67246500D01*
X192786000Y-67266500D01*
X192532000Y-67266500D01*
X192532000Y-67246500D01*
X191132460Y-67246500D01*
X190973710Y-67405250D01*
X190973710Y-68195769D01*
X191070383Y-68429158D01*
X191249011Y-68607787D01*
X191304205Y-68630649D01*
X191231114Y-68703613D01*
X190974003Y-69322804D01*
X190973418Y-69993254D01*
X191229447Y-70612893D01*
X191545639Y-70929637D01*
X191231114Y-71243613D01*
X190974003Y-71862804D01*
X190973418Y-72533254D01*
X191229447Y-73152893D01*
X191703113Y-73627386D01*
X192277758Y-73866000D01*
X183513936Y-73866000D01*
X184087393Y-73629053D01*
X184561886Y-73155387D01*
X184818997Y-72536196D01*
X184819582Y-71865746D01*
X184563553Y-71246107D01*
X184247361Y-70929363D01*
X184561886Y-70615387D01*
X184818997Y-69996196D01*
X184819582Y-69325746D01*
X184563553Y-68706107D01*
X184488393Y-68630816D01*
X184543989Y-68607787D01*
X184722617Y-68429158D01*
X184819290Y-68195769D01*
X184819290Y-67405250D01*
X184660540Y-67246500D01*
X183261000Y-67246500D01*
X183261000Y-67266500D01*
X183007000Y-67266500D01*
X183007000Y-67246500D01*
X181607460Y-67246500D01*
X181448710Y-67405250D01*
X181448710Y-68195769D01*
X181545383Y-68429158D01*
X181724011Y-68607787D01*
X181779205Y-68630649D01*
X181706114Y-68703613D01*
X181449003Y-69322804D01*
X181448418Y-69993254D01*
X181704447Y-70612893D01*
X182020639Y-70929637D01*
X181706114Y-71243613D01*
X181449003Y-71862804D01*
X181448418Y-72533254D01*
X181704447Y-73152893D01*
X182011740Y-73460722D01*
X181708557Y-73585995D01*
X181482812Y-73811345D01*
X181150000Y-73477951D01*
X181150000Y-72009000D01*
X181137369Y-71945500D01*
X181150000Y-71882000D01*
X181150000Y-65650093D01*
X181421289Y-65379278D01*
X181439315Y-65406257D01*
X181481744Y-65469756D01*
X181683606Y-65671618D01*
X181545383Y-65809842D01*
X181448710Y-66043231D01*
X181448710Y-66833750D01*
X181607460Y-66992500D01*
X183007000Y-66992500D01*
X183007000Y-66972500D01*
X183261000Y-66972500D01*
X183261000Y-66992500D01*
X184660540Y-66992500D01*
X184819290Y-66833750D01*
X184819290Y-66342000D01*
X186817000Y-66342000D01*
X187126974Y-66280342D01*
X187389756Y-66104756D01*
X188764784Y-64729729D01*
X188643723Y-65021276D01*
X188643277Y-65532481D01*
X188838495Y-66004943D01*
X189118500Y-66285438D01*
X189118500Y-67408429D01*
X185966500Y-67408429D01*
X185966500Y-71910571D01*
X186857566Y-71910571D01*
X186738723Y-72196776D01*
X186738277Y-72707981D01*
X186933495Y-73180443D01*
X187294655Y-73542235D01*
X187766776Y-73738277D01*
X188277981Y-73738723D01*
X188750443Y-73543505D01*
X189112235Y-73182345D01*
X189308277Y-72710224D01*
X189308623Y-72313890D01*
X189711942Y-71910571D01*
X190086500Y-71910571D01*
X190086500Y-71536013D01*
X190501257Y-71121256D01*
X190676843Y-70858473D01*
X190716266Y-70660277D01*
X190738500Y-70548500D01*
X190738500Y-66285093D01*
X190973710Y-66050294D01*
X190973710Y-66833750D01*
X191132460Y-66992500D01*
X192532000Y-66992500D01*
X192532000Y-66972500D01*
X192786000Y-66972500D01*
X192786000Y-66992500D01*
X194185540Y-66992500D01*
X194344290Y-66833750D01*
X194344290Y-66342000D01*
X197524839Y-66342000D01*
X197285265Y-66581155D01*
X197089223Y-67053276D01*
X197088913Y-67408429D01*
X195491500Y-67408429D01*
X195491500Y-71910571D01*
X199611500Y-71910571D01*
X199611500Y-68191000D01*
X205249573Y-68191000D01*
X205610276Y-68340777D01*
X206121481Y-68341223D01*
X206593943Y-68146005D01*
X206955735Y-67784845D01*
X207151777Y-67312724D01*
X207152223Y-66801519D01*
X206957005Y-66329057D01*
X206595845Y-65967265D01*
X206123724Y-65771223D01*
X205612519Y-65770777D01*
X205248953Y-65921000D01*
X200845012Y-65921000D01*
X201727133Y-65038879D01*
X202120981Y-65039223D01*
X202593443Y-64844005D01*
X202955235Y-64482845D01*
X203151277Y-64010724D01*
X203151723Y-63499519D01*
X203066804Y-63294000D01*
X208563210Y-63294000D01*
X208563210Y-63849250D01*
X208721960Y-64008000D01*
X210121500Y-64008000D01*
X210121500Y-63988000D01*
X210375500Y-63988000D01*
X210375500Y-64008000D01*
X211775040Y-64008000D01*
X211933790Y-63849250D01*
X211933790Y-63058731D01*
X211837117Y-62825342D01*
X211670776Y-62659000D01*
X215947150Y-62659000D01*
X215823511Y-62710213D01*
X215644883Y-62888842D01*
X215548210Y-63122231D01*
X215548210Y-63912750D01*
X215706960Y-64071500D01*
X217106500Y-64071500D01*
X217106500Y-62772290D01*
X217360500Y-62772290D01*
X217360500Y-64071500D01*
X218760040Y-64071500D01*
X218918790Y-63912750D01*
X218918790Y-63122231D01*
X222469710Y-63122231D01*
X222469710Y-63912750D01*
X222628460Y-64071500D01*
X224028000Y-64071500D01*
X224028000Y-62772290D01*
X224282000Y-62772290D01*
X224282000Y-64071500D01*
X225681540Y-64071500D01*
X225840290Y-63912750D01*
X225840290Y-63122231D01*
X225743617Y-62888842D01*
X225564989Y-62710213D01*
X225331600Y-62613540D01*
X224440750Y-62613540D01*
X224282000Y-62772290D01*
X224028000Y-62772290D01*
X223869250Y-62613540D01*
X222978400Y-62613540D01*
X222745011Y-62710213D01*
X222566383Y-62888842D01*
X222469710Y-63122231D01*
X218918790Y-63122231D01*
X218822117Y-62888842D01*
X218643489Y-62710213D01*
X218410100Y-62613540D01*
X217519250Y-62613540D01*
X217360500Y-62772290D01*
X217106500Y-62772290D01*
X216947750Y-62613540D01*
X216446042Y-62613540D01*
X216527474Y-62597342D01*
X216790256Y-62421756D01*
X216861448Y-62315210D01*
X217407579Y-61769079D01*
X217577745Y-61514406D01*
X217637501Y-61214000D01*
X217637500Y-61213995D01*
X217637500Y-58055254D01*
X219230918Y-58055254D01*
X219486947Y-58674893D01*
X219803139Y-58991637D01*
X219488614Y-59305613D01*
X219231503Y-59924804D01*
X219230918Y-60595254D01*
X219486947Y-61214893D01*
X219960613Y-61689386D01*
X220579804Y-61946497D01*
X221250254Y-61947082D01*
X221869893Y-61691053D01*
X222344386Y-61217387D01*
X222601497Y-60598196D01*
X222602082Y-59927746D01*
X222346053Y-59308107D01*
X222029861Y-58991363D01*
X222344386Y-58677387D01*
X222601497Y-58058196D01*
X222601499Y-58055254D01*
X226215918Y-58055254D01*
X226471947Y-58674893D01*
X226788139Y-58991637D01*
X226473614Y-59305613D01*
X226216503Y-59924804D01*
X226215918Y-60595254D01*
X226471947Y-61214893D01*
X226945613Y-61689386D01*
X227564804Y-61946497D01*
X228235254Y-61947082D01*
X228854893Y-61691053D01*
X229329386Y-61217387D01*
X229586497Y-60598196D01*
X229587082Y-59927746D01*
X229331053Y-59308107D01*
X229014861Y-58991363D01*
X229329386Y-58677387D01*
X229586497Y-58058196D01*
X229587082Y-57387746D01*
X229331053Y-56768107D01*
X229255893Y-56692816D01*
X229311489Y-56669787D01*
X229490117Y-56491158D01*
X229586790Y-56257769D01*
X229586790Y-55467250D01*
X229428040Y-55308500D01*
X228028500Y-55308500D01*
X228028500Y-55328500D01*
X227774500Y-55328500D01*
X227774500Y-55308500D01*
X226374960Y-55308500D01*
X226216210Y-55467250D01*
X226216210Y-56257769D01*
X226312883Y-56491158D01*
X226491511Y-56669787D01*
X226546705Y-56692649D01*
X226473614Y-56765613D01*
X226216503Y-57384804D01*
X226215918Y-58055254D01*
X222601499Y-58055254D01*
X222602082Y-57387746D01*
X222346053Y-56768107D01*
X222270893Y-56692816D01*
X222326489Y-56669787D01*
X222505117Y-56491158D01*
X222601790Y-56257769D01*
X222601790Y-55467250D01*
X222443040Y-55308500D01*
X221043500Y-55308500D01*
X221043500Y-55328500D01*
X220789500Y-55328500D01*
X220789500Y-55308500D01*
X219389960Y-55308500D01*
X219231210Y-55467250D01*
X219231210Y-56257769D01*
X219327883Y-56491158D01*
X219506511Y-56669787D01*
X219561705Y-56692649D01*
X219488614Y-56765613D01*
X219231503Y-57384804D01*
X219230918Y-58055254D01*
X217637500Y-58055254D01*
X217637500Y-54037000D01*
X219259472Y-54037000D01*
X219231210Y-54105231D01*
X219231210Y-54895750D01*
X219389960Y-55054500D01*
X220789500Y-55054500D01*
X220789500Y-55034500D01*
X221043500Y-55034500D01*
X221043500Y-55054500D01*
X222443040Y-55054500D01*
X222601790Y-54895750D01*
X222601790Y-54105231D01*
X222573528Y-54037000D01*
X223888501Y-54037000D01*
X223888501Y-54291000D01*
X226216210Y-54291000D01*
X226216210Y-54895750D01*
X226374960Y-55054500D01*
X227774500Y-55054500D01*
X227774500Y-55034500D01*
X228028500Y-55034500D01*
X228028500Y-55054500D01*
X229428040Y-55054500D01*
X229586790Y-54895750D01*
X229586790Y-54291000D01*
X231021000Y-54291000D01*
X231021000Y-57721500D01*
X231107397Y-58155846D01*
X231353434Y-58524066D01*
X231721654Y-58770103D01*
X232156000Y-58856500D01*
X232590346Y-58770103D01*
X232958566Y-58524066D01*
X233204603Y-58155846D01*
X233291000Y-57721500D01*
X233291000Y-51016132D01*
X233918979Y-50388153D01*
X234279943Y-50239005D01*
X234641735Y-49877845D01*
X234748000Y-49621931D01*
X234748000Y-75425993D01*
G36*
X130225380Y-73228620D02*
X130755812Y-73583043D01*
X131381500Y-73707501D01*
X131381505Y-73707500D01*
X136596094Y-73707500D01*
X136033277Y-73940051D01*
X134587628Y-75383180D01*
X133804283Y-77269682D01*
X133802501Y-79312356D01*
X134582551Y-81200223D01*
X136025680Y-82645872D01*
X136072949Y-82665500D01*
X63067507Y-82665500D01*
X63102723Y-82650949D01*
X64548372Y-81207820D01*
X65331717Y-79321318D01*
X65332185Y-78783877D01*
X66421000Y-78783877D01*
X66421000Y-80347123D01*
X66566009Y-81076135D01*
X66978962Y-81694161D01*
X67596988Y-82107114D01*
X68326000Y-82252123D01*
X69055012Y-82107114D01*
X69673038Y-81694161D01*
X70072250Y-81096700D01*
X70471462Y-81694161D01*
X71089488Y-82107114D01*
X71818500Y-82252123D01*
X72547512Y-82107114D01*
X73165538Y-81694161D01*
X73578491Y-81076135D01*
X73596500Y-80985597D01*
X73614509Y-81076135D01*
X74027462Y-81694161D01*
X74645488Y-82107114D01*
X75374500Y-82252123D01*
X76103512Y-82107114D01*
X76721538Y-81694161D01*
X77120750Y-81096700D01*
X77519962Y-81694161D01*
X78137988Y-82107114D01*
X78867000Y-82252123D01*
X79596012Y-82107114D01*
X80214038Y-81694161D01*
X80613250Y-81096700D01*
X81012462Y-81694161D01*
X81630488Y-82107114D01*
X82359500Y-82252123D01*
X83088512Y-82107114D01*
X83706538Y-81694161D01*
X84119491Y-81076135D01*
X84120950Y-81068800D01*
X84140610Y-81141845D01*
X84594764Y-81732341D01*
X85240321Y-82104091D01*
X85429219Y-82152993D01*
X85725000Y-82037126D01*
X85725000Y-79692500D01*
X85705000Y-79692500D01*
X85705000Y-79438500D01*
X85725000Y-79438500D01*
X85725000Y-77093874D01*
X85979000Y-77093874D01*
X85979000Y-79438500D01*
X85999000Y-79438500D01*
X85999000Y-79692500D01*
X85979000Y-79692500D01*
X85979000Y-82037126D01*
X86274781Y-82152993D01*
X86463679Y-82104091D01*
X87109236Y-81732341D01*
X87563390Y-81141845D01*
X87583050Y-81068800D01*
X87584509Y-81076135D01*
X87997462Y-81694161D01*
X88615488Y-82107114D01*
X89344500Y-82252123D01*
X90073512Y-82107114D01*
X90691538Y-81694161D01*
X91090750Y-81096700D01*
X91489962Y-81694161D01*
X92107988Y-82107114D01*
X92837000Y-82252123D01*
X93566012Y-82107114D01*
X94184038Y-81694161D01*
X94583250Y-81096700D01*
X94982462Y-81694161D01*
X95600488Y-82107114D01*
X96329500Y-82252123D01*
X97058512Y-82107114D01*
X97676538Y-81694161D01*
X98075750Y-81096700D01*
X98474962Y-81694161D01*
X99092988Y-82107114D01*
X99822000Y-82252123D01*
X100551012Y-82107114D01*
X101169038Y-81694161D01*
X101568250Y-81096700D01*
X101967462Y-81694161D01*
X102585488Y-82107114D01*
X103314500Y-82252123D01*
X104043512Y-82107114D01*
X104661538Y-81694161D01*
X104889560Y-81352903D01*
X104889560Y-81565500D01*
X104933838Y-81800817D01*
X105072910Y-82016941D01*
X105285110Y-82161931D01*
X105537000Y-82212940D01*
X108077000Y-82212940D01*
X108312317Y-82168662D01*
X108528441Y-82029590D01*
X108673431Y-81817390D01*
X108724440Y-81565500D01*
X108724440Y-77565500D01*
X108680162Y-77330183D01*
X108541090Y-77114059D01*
X108328890Y-76969069D01*
X108077000Y-76918060D01*
X105537000Y-76918060D01*
X105301683Y-76962338D01*
X105085559Y-77101410D01*
X104940569Y-77313610D01*
X104889560Y-77565500D01*
X104889560Y-77778097D01*
X104661538Y-77436839D01*
X104043512Y-77023886D01*
X103314500Y-76878877D01*
X102585488Y-77023886D01*
X101967462Y-77436839D01*
X101568250Y-78034300D01*
X101169038Y-77436839D01*
X100551012Y-77023886D01*
X99822000Y-76878877D01*
X99092988Y-77023886D01*
X98474962Y-77436839D01*
X98075750Y-78034300D01*
X97676538Y-77436839D01*
X97058512Y-77023886D01*
X96329500Y-76878877D01*
X95600488Y-77023886D01*
X94982462Y-77436839D01*
X94583250Y-78034300D01*
X94184038Y-77436839D01*
X93566012Y-77023886D01*
X92837000Y-76878877D01*
X92107988Y-77023886D01*
X91489962Y-77436839D01*
X91090750Y-78034300D01*
X90691538Y-77436839D01*
X90073512Y-77023886D01*
X89344500Y-76878877D01*
X88615488Y-77023886D01*
X87997462Y-77436839D01*
X87584509Y-78054865D01*
X87583050Y-78062200D01*
X87563390Y-77989155D01*
X87109236Y-77398659D01*
X86463679Y-77026909D01*
X86274781Y-76978007D01*
X85979000Y-77093874D01*
X85725000Y-77093874D01*
X85429219Y-76978007D01*
X85240321Y-77026909D01*
X84594764Y-77398659D01*
X84140610Y-77989155D01*
X84120950Y-78062200D01*
X84119491Y-78054865D01*
X83706538Y-77436839D01*
X83088512Y-77023886D01*
X82359500Y-76878877D01*
X81630488Y-77023886D01*
X81012462Y-77436839D01*
X80613250Y-78034300D01*
X80214038Y-77436839D01*
X79596012Y-77023886D01*
X78867000Y-76878877D01*
X78137988Y-77023886D01*
X77519962Y-77436839D01*
X77120750Y-78034300D01*
X76721538Y-77436839D01*
X76103512Y-77023886D01*
X75374500Y-76878877D01*
X74645488Y-77023886D01*
X74027462Y-77436839D01*
X73614509Y-78054865D01*
X73596500Y-78145403D01*
X73578491Y-78054865D01*
X73165538Y-77436839D01*
X72547512Y-77023886D01*
X71818500Y-76878877D01*
X71089488Y-77023886D01*
X70471462Y-77436839D01*
X70072250Y-78034300D01*
X69673038Y-77436839D01*
X69055012Y-77023886D01*
X68326000Y-76878877D01*
X67596988Y-77023886D01*
X66978962Y-77436839D01*
X66566009Y-78054865D01*
X66421000Y-78783877D01*
X65332185Y-78783877D01*
X65333499Y-77278644D01*
X64553449Y-75390777D01*
X63255593Y-74090655D01*
X63636313Y-74345043D01*
X64262000Y-74469500D01*
X84603260Y-74469500D01*
X85711880Y-75578120D01*
X86242312Y-75932543D01*
X86868000Y-76057001D01*
X86868005Y-76057000D01*
X88619973Y-76057000D01*
X88718813Y-76123043D01*
X89344500Y-76247501D01*
X89970188Y-76123043D01*
X90500620Y-75768620D01*
X90855043Y-75238188D01*
X90979501Y-74612500D01*
X90855043Y-73986813D01*
X90625983Y-73644000D01*
X91175258Y-73644000D01*
X91202000Y-73670742D01*
X91202000Y-74993500D01*
X91326457Y-75619187D01*
X91680880Y-76149620D01*
X92211313Y-76504043D01*
X92837000Y-76628500D01*
X93462687Y-76504043D01*
X93993120Y-76149620D01*
X94013453Y-76119189D01*
X94013453Y-76708500D01*
X115221500Y-76708500D01*
X115221500Y-77268286D01*
X115935719Y-77268286D01*
X115683462Y-77436839D01*
X115270509Y-78054865D01*
X115125500Y-78783877D01*
X115125500Y-80347123D01*
X115270509Y-81076135D01*
X115683462Y-81694161D01*
X116301488Y-82107114D01*
X117030500Y-82252123D01*
X117759512Y-82107114D01*
X118377538Y-81694161D01*
X118776750Y-81096700D01*
X119175962Y-81694161D01*
X119793988Y-82107114D01*
X120523000Y-82252123D01*
X121252012Y-82107114D01*
X121870038Y-81694161D01*
X122269250Y-81096700D01*
X122668462Y-81694161D01*
X123286488Y-82107114D01*
X124015500Y-82252123D01*
X124744512Y-82107114D01*
X125362538Y-81694161D01*
X125590560Y-81352903D01*
X125590560Y-81565500D01*
X125634838Y-81800817D01*
X125773910Y-82016941D01*
X125986110Y-82161931D01*
X126238000Y-82212940D01*
X128778000Y-82212940D01*
X129013317Y-82168662D01*
X129229441Y-82029590D01*
X129374431Y-81817390D01*
X129425440Y-81565500D01*
X129425440Y-77565929D01*
X129755500Y-77565929D01*
X129755500Y-72758740D01*
X130225380Y-73228620D01*
X130225380Y-73228620D01*
G37*
X130225380Y-73228620D02*
X130755812Y-73583043D01*
X131381500Y-73707501D01*
X131381505Y-73707500D01*
X136596094Y-73707500D01*
X136033277Y-73940051D01*
X134587628Y-75383180D01*
X133804283Y-77269682D01*
X133802501Y-79312356D01*
X134582551Y-81200223D01*
X136025680Y-82645872D01*
X136072949Y-82665500D01*
X63067507Y-82665500D01*
X63102723Y-82650949D01*
X64548372Y-81207820D01*
X65331717Y-79321318D01*
X65332185Y-78783877D01*
X66421000Y-78783877D01*
X66421000Y-80347123D01*
X66566009Y-81076135D01*
X66978962Y-81694161D01*
X67596988Y-82107114D01*
X68326000Y-82252123D01*
X69055012Y-82107114D01*
X69673038Y-81694161D01*
X70072250Y-81096700D01*
X70471462Y-81694161D01*
X71089488Y-82107114D01*
X71818500Y-82252123D01*
X72547512Y-82107114D01*
X73165538Y-81694161D01*
X73578491Y-81076135D01*
X73596500Y-80985597D01*
X73614509Y-81076135D01*
X74027462Y-81694161D01*
X74645488Y-82107114D01*
X75374500Y-82252123D01*
X76103512Y-82107114D01*
X76721538Y-81694161D01*
X77120750Y-81096700D01*
X77519962Y-81694161D01*
X78137988Y-82107114D01*
X78867000Y-82252123D01*
X79596012Y-82107114D01*
X80214038Y-81694161D01*
X80613250Y-81096700D01*
X81012462Y-81694161D01*
X81630488Y-82107114D01*
X82359500Y-82252123D01*
X83088512Y-82107114D01*
X83706538Y-81694161D01*
X84119491Y-81076135D01*
X84120950Y-81068800D01*
X84140610Y-81141845D01*
X84594764Y-81732341D01*
X85240321Y-82104091D01*
X85429219Y-82152993D01*
X85725000Y-82037126D01*
X85725000Y-79692500D01*
X85705000Y-79692500D01*
X85705000Y-79438500D01*
X85725000Y-79438500D01*
X85725000Y-77093874D01*
X85979000Y-77093874D01*
X85979000Y-79438500D01*
X85999000Y-79438500D01*
X85999000Y-79692500D01*
X85979000Y-79692500D01*
X85979000Y-82037126D01*
X86274781Y-82152993D01*
X86463679Y-82104091D01*
X87109236Y-81732341D01*
X87563390Y-81141845D01*
X87583050Y-81068800D01*
X87584509Y-81076135D01*
X87997462Y-81694161D01*
X88615488Y-82107114D01*
X89344500Y-82252123D01*
X90073512Y-82107114D01*
X90691538Y-81694161D01*
X91090750Y-81096700D01*
X91489962Y-81694161D01*
X92107988Y-82107114D01*
X92837000Y-82252123D01*
X93566012Y-82107114D01*
X94184038Y-81694161D01*
X94583250Y-81096700D01*
X94982462Y-81694161D01*
X95600488Y-82107114D01*
X96329500Y-82252123D01*
X97058512Y-82107114D01*
X97676538Y-81694161D01*
X98075750Y-81096700D01*
X98474962Y-81694161D01*
X99092988Y-82107114D01*
X99822000Y-82252123D01*
X100551012Y-82107114D01*
X101169038Y-81694161D01*
X101568250Y-81096700D01*
X101967462Y-81694161D01*
X102585488Y-82107114D01*
X103314500Y-82252123D01*
X104043512Y-82107114D01*
X104661538Y-81694161D01*
X104889560Y-81352903D01*
X104889560Y-81565500D01*
X104933838Y-81800817D01*
X105072910Y-82016941D01*
X105285110Y-82161931D01*
X105537000Y-82212940D01*
X108077000Y-82212940D01*
X108312317Y-82168662D01*
X108528441Y-82029590D01*
X108673431Y-81817390D01*
X108724440Y-81565500D01*
X108724440Y-77565500D01*
X108680162Y-77330183D01*
X108541090Y-77114059D01*
X108328890Y-76969069D01*
X108077000Y-76918060D01*
X105537000Y-76918060D01*
X105301683Y-76962338D01*
X105085559Y-77101410D01*
X104940569Y-77313610D01*
X104889560Y-77565500D01*
X104889560Y-77778097D01*
X104661538Y-77436839D01*
X104043512Y-77023886D01*
X103314500Y-76878877D01*
X102585488Y-77023886D01*
X101967462Y-77436839D01*
X101568250Y-78034300D01*
X101169038Y-77436839D01*
X100551012Y-77023886D01*
X99822000Y-76878877D01*
X99092988Y-77023886D01*
X98474962Y-77436839D01*
X98075750Y-78034300D01*
X97676538Y-77436839D01*
X97058512Y-77023886D01*
X96329500Y-76878877D01*
X95600488Y-77023886D01*
X94982462Y-77436839D01*
X94583250Y-78034300D01*
X94184038Y-77436839D01*
X93566012Y-77023886D01*
X92837000Y-76878877D01*
X92107988Y-77023886D01*
X91489962Y-77436839D01*
X91090750Y-78034300D01*
X90691538Y-77436839D01*
X90073512Y-77023886D01*
X89344500Y-76878877D01*
X88615488Y-77023886D01*
X87997462Y-77436839D01*
X87584509Y-78054865D01*
X87583050Y-78062200D01*
X87563390Y-77989155D01*
X87109236Y-77398659D01*
X86463679Y-77026909D01*
X86274781Y-76978007D01*
X85979000Y-77093874D01*
X85725000Y-77093874D01*
X85429219Y-76978007D01*
X85240321Y-77026909D01*
X84594764Y-77398659D01*
X84140610Y-77989155D01*
X84120950Y-78062200D01*
X84119491Y-78054865D01*
X83706538Y-77436839D01*
X83088512Y-77023886D01*
X82359500Y-76878877D01*
X81630488Y-77023886D01*
X81012462Y-77436839D01*
X80613250Y-78034300D01*
X80214038Y-77436839D01*
X79596012Y-77023886D01*
X78867000Y-76878877D01*
X78137988Y-77023886D01*
X77519962Y-77436839D01*
X77120750Y-78034300D01*
X76721538Y-77436839D01*
X76103512Y-77023886D01*
X75374500Y-76878877D01*
X74645488Y-77023886D01*
X74027462Y-77436839D01*
X73614509Y-78054865D01*
X73596500Y-78145403D01*
X73578491Y-78054865D01*
X73165538Y-77436839D01*
X72547512Y-77023886D01*
X71818500Y-76878877D01*
X71089488Y-77023886D01*
X70471462Y-77436839D01*
X70072250Y-78034300D01*
X69673038Y-77436839D01*
X69055012Y-77023886D01*
X68326000Y-76878877D01*
X67596988Y-77023886D01*
X66978962Y-77436839D01*
X66566009Y-78054865D01*
X66421000Y-78783877D01*
X65332185Y-78783877D01*
X65333499Y-77278644D01*
X64553449Y-75390777D01*
X63255593Y-74090655D01*
X63636313Y-74345043D01*
X64262000Y-74469500D01*
X84603260Y-74469500D01*
X85711880Y-75578120D01*
X86242312Y-75932543D01*
X86868000Y-76057001D01*
X86868005Y-76057000D01*
X88619973Y-76057000D01*
X88718813Y-76123043D01*
X89344500Y-76247501D01*
X89970188Y-76123043D01*
X90500620Y-75768620D01*
X90855043Y-75238188D01*
X90979501Y-74612500D01*
X90855043Y-73986813D01*
X90625983Y-73644000D01*
X91175258Y-73644000D01*
X91202000Y-73670742D01*
X91202000Y-74993500D01*
X91326457Y-75619187D01*
X91680880Y-76149620D01*
X92211313Y-76504043D01*
X92837000Y-76628500D01*
X93462687Y-76504043D01*
X93993120Y-76149620D01*
X94013453Y-76119189D01*
X94013453Y-76708500D01*
X115221500Y-76708500D01*
X115221500Y-77268286D01*
X115935719Y-77268286D01*
X115683462Y-77436839D01*
X115270509Y-78054865D01*
X115125500Y-78783877D01*
X115125500Y-80347123D01*
X115270509Y-81076135D01*
X115683462Y-81694161D01*
X116301488Y-82107114D01*
X117030500Y-82252123D01*
X117759512Y-82107114D01*
X118377538Y-81694161D01*
X118776750Y-81096700D01*
X119175962Y-81694161D01*
X119793988Y-82107114D01*
X120523000Y-82252123D01*
X121252012Y-82107114D01*
X121870038Y-81694161D01*
X122269250Y-81096700D01*
X122668462Y-81694161D01*
X123286488Y-82107114D01*
X124015500Y-82252123D01*
X124744512Y-82107114D01*
X125362538Y-81694161D01*
X125590560Y-81352903D01*
X125590560Y-81565500D01*
X125634838Y-81800817D01*
X125773910Y-82016941D01*
X125986110Y-82161931D01*
X126238000Y-82212940D01*
X128778000Y-82212940D01*
X129013317Y-82168662D01*
X129229441Y-82029590D01*
X129374431Y-81817390D01*
X129425440Y-81565500D01*
X129425440Y-77565929D01*
X129755500Y-77565929D01*
X129755500Y-72758740D01*
X130225380Y-73228620D01*
G36*
X178689000Y-79438500D02*
X178709000Y-79438500D01*
X178709000Y-79692500D01*
X178689000Y-79692500D01*
X178689000Y-81135415D01*
X178911039Y-81257404D01*
X178993819Y-81239867D01*
X179486896Y-80970000D01*
X179835208Y-80536904D01*
X180087302Y-80914189D01*
X180552849Y-81225258D01*
X180683701Y-81251286D01*
X180385488Y-81549500D01*
X177897668Y-81549500D01*
X177970830Y-81440006D01*
X178040342Y-81335974D01*
X178066402Y-81204960D01*
X178130181Y-81239867D01*
X178212961Y-81257404D01*
X178435000Y-81135415D01*
X178435000Y-79692500D01*
X178415000Y-79692500D01*
X178415000Y-79438500D01*
X178435000Y-79438500D01*
X178435000Y-79418500D01*
X178689000Y-79418500D01*
X178689000Y-79438500D01*
X178689000Y-79438500D01*
G37*
X178689000Y-79438500D02*
X178709000Y-79438500D01*
X178709000Y-79692500D01*
X178689000Y-79692500D01*
X178689000Y-81135415D01*
X178911039Y-81257404D01*
X178993819Y-81239867D01*
X179486896Y-80970000D01*
X179835208Y-80536904D01*
X180087302Y-80914189D01*
X180552849Y-81225258D01*
X180683701Y-81251286D01*
X180385488Y-81549500D01*
X177897668Y-81549500D01*
X177970830Y-81440006D01*
X178040342Y-81335974D01*
X178066402Y-81204960D01*
X178130181Y-81239867D01*
X178212961Y-81257404D01*
X178435000Y-81135415D01*
X178435000Y-79692500D01*
X178415000Y-79692500D01*
X178415000Y-79438500D01*
X178435000Y-79438500D01*
X178435000Y-79418500D01*
X178689000Y-79418500D01*
X178689000Y-79438500D01*
G36*
X165787995Y-72926443D02*
X166149155Y-73288235D01*
X166621276Y-73484277D01*
X167017610Y-73484623D01*
X167592000Y-74059013D01*
X167592000Y-75540036D01*
X167387302Y-75676811D01*
X167135208Y-76054096D01*
X166786896Y-75621000D01*
X166293819Y-75351133D01*
X166211039Y-75333596D01*
X165989000Y-75455585D01*
X165989000Y-76898500D01*
X166009000Y-76898500D01*
X166009000Y-77152500D01*
X165989000Y-77152500D01*
X165989000Y-79438500D01*
X166009000Y-79438500D01*
X166009000Y-79692500D01*
X165989000Y-79692500D01*
X165989000Y-79712500D01*
X165735000Y-79712500D01*
X165735000Y-79692500D01*
X164427000Y-79692500D01*
X164427000Y-79992500D01*
X164584834Y-80531983D01*
X164790331Y-80787500D01*
X160162098Y-80787500D01*
X160162223Y-80644519D01*
X159967005Y-80172057D01*
X159605845Y-79810265D01*
X159133724Y-79614223D01*
X158622519Y-79613777D01*
X158150057Y-79808995D01*
X157813750Y-80144715D01*
X157813750Y-79932762D01*
X158483633Y-79262879D01*
X158877481Y-79263223D01*
X159349943Y-79068005D01*
X159711735Y-78706845D01*
X159907777Y-78234724D01*
X159908064Y-77905458D01*
X160271276Y-78056277D01*
X160782481Y-78056723D01*
X161254943Y-77861505D01*
X161616735Y-77500345D01*
X161639063Y-77446574D01*
X161660495Y-77498443D01*
X162021655Y-77860235D01*
X162493776Y-78056277D01*
X163004981Y-78056723D01*
X163477443Y-77861505D01*
X163839235Y-77500345D01*
X163983673Y-77152500D01*
X164427000Y-77152500D01*
X164427000Y-77452500D01*
X164584834Y-77991983D01*
X164828934Y-78295500D01*
X164584834Y-78599017D01*
X164427000Y-79138500D01*
X164427000Y-79438500D01*
X165735000Y-79438500D01*
X165735000Y-77152500D01*
X164427000Y-77152500D01*
X163983673Y-77152500D01*
X164035277Y-77028224D01*
X164035651Y-76598500D01*
X164427000Y-76598500D01*
X164427000Y-76898500D01*
X165735000Y-76898500D01*
X165735000Y-75455585D01*
X165512961Y-75333596D01*
X165430181Y-75351133D01*
X164937104Y-75621000D01*
X164584834Y-76059017D01*
X164427000Y-76598500D01*
X164035651Y-76598500D01*
X164035723Y-76517019D01*
X163840505Y-76044557D01*
X163560500Y-75764062D01*
X163560500Y-75247500D01*
X163508479Y-74985973D01*
X163498843Y-74937527D01*
X163323257Y-74674744D01*
X162132862Y-73484350D01*
X162560481Y-73484723D01*
X163032943Y-73289505D01*
X163394735Y-72928345D01*
X163448891Y-72797922D01*
X163501995Y-72926443D01*
X163863155Y-73288235D01*
X164335276Y-73484277D01*
X164846481Y-73484723D01*
X165318943Y-73289505D01*
X165680735Y-72928345D01*
X165734891Y-72797922D01*
X165787995Y-72926443D01*
X165787995Y-72926443D01*
G37*
X165787995Y-72926443D02*
X166149155Y-73288235D01*
X166621276Y-73484277D01*
X167017610Y-73484623D01*
X167592000Y-74059013D01*
X167592000Y-75540036D01*
X167387302Y-75676811D01*
X167135208Y-76054096D01*
X166786896Y-75621000D01*
X166293819Y-75351133D01*
X166211039Y-75333596D01*
X165989000Y-75455585D01*
X165989000Y-76898500D01*
X166009000Y-76898500D01*
X166009000Y-77152500D01*
X165989000Y-77152500D01*
X165989000Y-79438500D01*
X166009000Y-79438500D01*
X166009000Y-79692500D01*
X165989000Y-79692500D01*
X165989000Y-79712500D01*
X165735000Y-79712500D01*
X165735000Y-79692500D01*
X164427000Y-79692500D01*
X164427000Y-79992500D01*
X164584834Y-80531983D01*
X164790331Y-80787500D01*
X160162098Y-80787500D01*
X160162223Y-80644519D01*
X159967005Y-80172057D01*
X159605845Y-79810265D01*
X159133724Y-79614223D01*
X158622519Y-79613777D01*
X158150057Y-79808995D01*
X157813750Y-80144715D01*
X157813750Y-79932762D01*
X158483633Y-79262879D01*
X158877481Y-79263223D01*
X159349943Y-79068005D01*
X159711735Y-78706845D01*
X159907777Y-78234724D01*
X159908064Y-77905458D01*
X160271276Y-78056277D01*
X160782481Y-78056723D01*
X161254943Y-77861505D01*
X161616735Y-77500345D01*
X161639063Y-77446574D01*
X161660495Y-77498443D01*
X162021655Y-77860235D01*
X162493776Y-78056277D01*
X163004981Y-78056723D01*
X163477443Y-77861505D01*
X163839235Y-77500345D01*
X163983673Y-77152500D01*
X164427000Y-77152500D01*
X164427000Y-77452500D01*
X164584834Y-77991983D01*
X164828934Y-78295500D01*
X164584834Y-78599017D01*
X164427000Y-79138500D01*
X164427000Y-79438500D01*
X165735000Y-79438500D01*
X165735000Y-77152500D01*
X164427000Y-77152500D01*
X163983673Y-77152500D01*
X164035277Y-77028224D01*
X164035651Y-76598500D01*
X164427000Y-76598500D01*
X164427000Y-76898500D01*
X165735000Y-76898500D01*
X165735000Y-75455585D01*
X165512961Y-75333596D01*
X165430181Y-75351133D01*
X164937104Y-75621000D01*
X164584834Y-76059017D01*
X164427000Y-76598500D01*
X164035651Y-76598500D01*
X164035723Y-76517019D01*
X163840505Y-76044557D01*
X163560500Y-75764062D01*
X163560500Y-75247500D01*
X163508479Y-74985973D01*
X163498843Y-74937527D01*
X163323257Y-74674744D01*
X162132862Y-73484350D01*
X162560481Y-73484723D01*
X163032943Y-73289505D01*
X163394735Y-72928345D01*
X163448891Y-72797922D01*
X163501995Y-72926443D01*
X163863155Y-73288235D01*
X164335276Y-73484277D01*
X164846481Y-73484723D01*
X165318943Y-73289505D01*
X165680735Y-72928345D01*
X165734891Y-72797922D01*
X165787995Y-72926443D01*
G36*
X191389000Y-76898500D02*
X191409000Y-76898500D01*
X191409000Y-77152500D01*
X191389000Y-77152500D01*
X191389000Y-77172500D01*
X191135000Y-77172500D01*
X191135000Y-77152500D01*
X191115000Y-77152500D01*
X191115000Y-76898500D01*
X191135000Y-76898500D01*
X191135000Y-76878500D01*
X191389000Y-76878500D01*
X191389000Y-76898500D01*
X191389000Y-76898500D01*
G37*
X191389000Y-76898500D02*
X191409000Y-76898500D01*
X191409000Y-77152500D01*
X191389000Y-77152500D01*
X191389000Y-77172500D01*
X191135000Y-77172500D01*
X191135000Y-77152500D01*
X191115000Y-77152500D01*
X191115000Y-76898500D01*
X191135000Y-76898500D01*
X191135000Y-76878500D01*
X191389000Y-76878500D01*
X191389000Y-76898500D01*
G36*
X171592500Y-59898513D02*
X171592500Y-64198500D01*
X171654158Y-64508474D01*
X171775785Y-64690501D01*
X171829744Y-64771256D01*
X172593027Y-65534540D01*
X172432400Y-65534540D01*
X172199011Y-65631213D01*
X172020383Y-65809842D01*
X171923710Y-66043231D01*
X171923710Y-66833750D01*
X172082460Y-66992500D01*
X173482000Y-66992500D01*
X173482000Y-66972500D01*
X173736000Y-66972500D01*
X173736000Y-66992500D01*
X175135540Y-66992500D01*
X175294290Y-66833750D01*
X175294290Y-66342000D01*
X176784000Y-66342000D01*
X177093974Y-66280342D01*
X177356756Y-66104756D01*
X177688500Y-65773012D01*
X177688500Y-65831487D01*
X176211244Y-67308744D01*
X176035658Y-67571526D01*
X175974000Y-67881500D01*
X175974000Y-70802500D01*
X176035658Y-71112474D01*
X176158849Y-71296842D01*
X176211244Y-71375256D01*
X176441500Y-71605512D01*
X176441500Y-71910571D01*
X176642029Y-71910571D01*
X176641777Y-72199981D01*
X176836995Y-72672443D01*
X177198155Y-73034235D01*
X177670276Y-73230277D01*
X178181481Y-73230723D01*
X178653943Y-73035505D01*
X179015735Y-72674345D01*
X179211777Y-72202224D01*
X179212031Y-71910571D01*
X179408683Y-71910571D01*
X179464658Y-72191974D01*
X179530000Y-72289765D01*
X179530000Y-73605296D01*
X179314765Y-73820155D01*
X179118723Y-74292276D01*
X179118277Y-74803481D01*
X179313495Y-75275943D01*
X179674655Y-75637735D01*
X180018117Y-75780353D01*
X179832000Y-76058897D01*
X179576698Y-75676811D01*
X179111151Y-75365742D01*
X178562000Y-75256509D01*
X178362320Y-75296228D01*
X178380735Y-75277845D01*
X178576777Y-74805724D01*
X178577223Y-74294519D01*
X178382005Y-73822057D01*
X178020845Y-73460265D01*
X177548724Y-73264223D01*
X177037519Y-73263777D01*
X176565057Y-73458995D01*
X176203265Y-73820155D01*
X176007223Y-74292276D01*
X176006777Y-74803481D01*
X176201995Y-75275943D01*
X176222384Y-75296368D01*
X176022000Y-75256509D01*
X175472849Y-75365742D01*
X175007302Y-75676811D01*
X174752000Y-76058897D01*
X174496698Y-75676811D01*
X174271706Y-75526476D01*
X174230342Y-75318526D01*
X174145483Y-75191526D01*
X174054757Y-75055744D01*
X168992267Y-69993254D01*
X171923418Y-69993254D01*
X172179447Y-70612893D01*
X172495639Y-70929637D01*
X172181114Y-71243613D01*
X171924003Y-71862804D01*
X171923418Y-72533254D01*
X172179447Y-73152893D01*
X172653113Y-73627386D01*
X173272304Y-73884497D01*
X173942754Y-73885082D01*
X174562393Y-73629053D01*
X175036886Y-73155387D01*
X175293997Y-72536196D01*
X175294582Y-71865746D01*
X175038553Y-71246107D01*
X174722361Y-70929363D01*
X175036886Y-70615387D01*
X175293997Y-69996196D01*
X175294582Y-69325746D01*
X175038553Y-68706107D01*
X174963393Y-68630816D01*
X175018989Y-68607787D01*
X175197617Y-68429158D01*
X175294290Y-68195769D01*
X175294290Y-67405250D01*
X175135540Y-67246500D01*
X173736000Y-67246500D01*
X173736000Y-67266500D01*
X173482000Y-67266500D01*
X173482000Y-67246500D01*
X172082460Y-67246500D01*
X171923710Y-67405250D01*
X171923710Y-68195769D01*
X172020383Y-68429158D01*
X172199011Y-68607787D01*
X172254205Y-68630649D01*
X172181114Y-68703613D01*
X171924003Y-69322804D01*
X171923418Y-69993254D01*
X168992267Y-69993254D01*
X168403256Y-69404244D01*
X168403255Y-69404243D01*
X168140474Y-69228658D01*
X167830500Y-69167000D01*
X167536004Y-69167000D01*
X167690413Y-69063827D01*
X170955120Y-65799120D01*
X171309543Y-65268688D01*
X171434001Y-64643000D01*
X171434000Y-64642995D01*
X171434000Y-59740013D01*
X171592500Y-59898513D01*
X171592500Y-59898513D01*
G37*
X171592500Y-59898513D02*
X171592500Y-64198500D01*
X171654158Y-64508474D01*
X171775785Y-64690501D01*
X171829744Y-64771256D01*
X172593027Y-65534540D01*
X172432400Y-65534540D01*
X172199011Y-65631213D01*
X172020383Y-65809842D01*
X171923710Y-66043231D01*
X171923710Y-66833750D01*
X172082460Y-66992500D01*
X173482000Y-66992500D01*
X173482000Y-66972500D01*
X173736000Y-66972500D01*
X173736000Y-66992500D01*
X175135540Y-66992500D01*
X175294290Y-66833750D01*
X175294290Y-66342000D01*
X176784000Y-66342000D01*
X177093974Y-66280342D01*
X177356756Y-66104756D01*
X177688500Y-65773012D01*
X177688500Y-65831487D01*
X176211244Y-67308744D01*
X176035658Y-67571526D01*
X175974000Y-67881500D01*
X175974000Y-70802500D01*
X176035658Y-71112474D01*
X176158849Y-71296842D01*
X176211244Y-71375256D01*
X176441500Y-71605512D01*
X176441500Y-71910571D01*
X176642029Y-71910571D01*
X176641777Y-72199981D01*
X176836995Y-72672443D01*
X177198155Y-73034235D01*
X177670276Y-73230277D01*
X178181481Y-73230723D01*
X178653943Y-73035505D01*
X179015735Y-72674345D01*
X179211777Y-72202224D01*
X179212031Y-71910571D01*
X179408683Y-71910571D01*
X179464658Y-72191974D01*
X179530000Y-72289765D01*
X179530000Y-73605296D01*
X179314765Y-73820155D01*
X179118723Y-74292276D01*
X179118277Y-74803481D01*
X179313495Y-75275943D01*
X179674655Y-75637735D01*
X180018117Y-75780353D01*
X179832000Y-76058897D01*
X179576698Y-75676811D01*
X179111151Y-75365742D01*
X178562000Y-75256509D01*
X178362320Y-75296228D01*
X178380735Y-75277845D01*
X178576777Y-74805724D01*
X178577223Y-74294519D01*
X178382005Y-73822057D01*
X178020845Y-73460265D01*
X177548724Y-73264223D01*
X177037519Y-73263777D01*
X176565057Y-73458995D01*
X176203265Y-73820155D01*
X176007223Y-74292276D01*
X176006777Y-74803481D01*
X176201995Y-75275943D01*
X176222384Y-75296368D01*
X176022000Y-75256509D01*
X175472849Y-75365742D01*
X175007302Y-75676811D01*
X174752000Y-76058897D01*
X174496698Y-75676811D01*
X174271706Y-75526476D01*
X174230342Y-75318526D01*
X174145483Y-75191526D01*
X174054757Y-75055744D01*
X168992267Y-69993254D01*
X171923418Y-69993254D01*
X172179447Y-70612893D01*
X172495639Y-70929637D01*
X172181114Y-71243613D01*
X171924003Y-71862804D01*
X171923418Y-72533254D01*
X172179447Y-73152893D01*
X172653113Y-73627386D01*
X173272304Y-73884497D01*
X173942754Y-73885082D01*
X174562393Y-73629053D01*
X175036886Y-73155387D01*
X175293997Y-72536196D01*
X175294582Y-71865746D01*
X175038553Y-71246107D01*
X174722361Y-70929363D01*
X175036886Y-70615387D01*
X175293997Y-69996196D01*
X175294582Y-69325746D01*
X175038553Y-68706107D01*
X174963393Y-68630816D01*
X175018989Y-68607787D01*
X175197617Y-68429158D01*
X175294290Y-68195769D01*
X175294290Y-67405250D01*
X175135540Y-67246500D01*
X173736000Y-67246500D01*
X173736000Y-67266500D01*
X173482000Y-67266500D01*
X173482000Y-67246500D01*
X172082460Y-67246500D01*
X171923710Y-67405250D01*
X171923710Y-68195769D01*
X172020383Y-68429158D01*
X172199011Y-68607787D01*
X172254205Y-68630649D01*
X172181114Y-68703613D01*
X171924003Y-69322804D01*
X171923418Y-69993254D01*
X168992267Y-69993254D01*
X168403256Y-69404244D01*
X168403255Y-69404243D01*
X168140474Y-69228658D01*
X167830500Y-69167000D01*
X167536004Y-69167000D01*
X167690413Y-69063827D01*
X170955120Y-65799120D01*
X171309543Y-65268688D01*
X171434001Y-64643000D01*
X171434000Y-64642995D01*
X171434000Y-59740013D01*
X171592500Y-59898513D01*
G36*
X85852000Y-62087000D02*
X111336760Y-62087000D01*
X113808000Y-64558239D01*
X113808000Y-68516495D01*
X113807999Y-68516500D01*
X113932457Y-69142188D01*
X114286880Y-69672620D01*
X115102761Y-70488500D01*
X94013453Y-70488500D01*
X94013453Y-71867813D01*
X93993120Y-71837382D01*
X93008618Y-70852880D01*
X92478186Y-70498457D01*
X91852498Y-70373999D01*
X91852493Y-70374000D01*
X89259739Y-70374000D01*
X88024120Y-69138380D01*
X87493688Y-68783957D01*
X86868000Y-68659499D01*
X86867995Y-68659500D01*
X67161739Y-68659500D01*
X65897000Y-67394760D01*
X65897000Y-66925265D01*
X66420670Y-66925265D01*
X66710078Y-67625686D01*
X67245495Y-68162039D01*
X67945410Y-68452668D01*
X68703265Y-68453330D01*
X69403686Y-68163922D01*
X69940039Y-67628505D01*
X70072216Y-67310186D01*
X70202578Y-67625686D01*
X70737995Y-68162039D01*
X71437910Y-68452668D01*
X72195765Y-68453330D01*
X72896186Y-68163922D01*
X73432539Y-67628505D01*
X73564716Y-67310186D01*
X73695078Y-67625686D01*
X74230495Y-68162039D01*
X74930410Y-68452668D01*
X75688265Y-68453330D01*
X76388686Y-68163922D01*
X76925039Y-67628505D01*
X77057216Y-67310186D01*
X77187578Y-67625686D01*
X77722995Y-68162039D01*
X78422910Y-68452668D01*
X79180765Y-68453330D01*
X79881186Y-68163922D01*
X80417539Y-67628505D01*
X80581544Y-67233535D01*
X80743578Y-67625686D01*
X81278995Y-68162039D01*
X81978910Y-68452668D01*
X82736765Y-68453330D01*
X83437186Y-68163922D01*
X83947000Y-67654998D01*
X83947000Y-67944310D01*
X84043673Y-68177699D01*
X84222302Y-68356327D01*
X84455691Y-68453000D01*
X85566250Y-68453000D01*
X85725000Y-68294250D01*
X85725000Y-66675000D01*
X85979000Y-66675000D01*
X85979000Y-68294250D01*
X86137750Y-68453000D01*
X87248309Y-68453000D01*
X87481698Y-68356327D01*
X87660327Y-68177699D01*
X87757000Y-67944310D01*
X87757000Y-66988765D01*
X91312670Y-66988765D01*
X91602078Y-67689186D01*
X92137495Y-68225539D01*
X92837410Y-68516168D01*
X93595265Y-68516830D01*
X94295686Y-68227422D01*
X94832039Y-67692005D01*
X94964216Y-67373686D01*
X95094578Y-67689186D01*
X95629995Y-68225539D01*
X96329910Y-68516168D01*
X97087765Y-68516830D01*
X97788186Y-68227422D01*
X98324539Y-67692005D01*
X98456716Y-67373686D01*
X98587078Y-67689186D01*
X99122495Y-68225539D01*
X99822410Y-68516168D01*
X100580265Y-68516830D01*
X101280686Y-68227422D01*
X101817039Y-67692005D01*
X101949216Y-67373686D01*
X102079578Y-67689186D01*
X102614995Y-68225539D01*
X103314910Y-68516168D01*
X104072765Y-68516830D01*
X104773186Y-68227422D01*
X105309539Y-67692005D01*
X105473544Y-67297035D01*
X105635578Y-67689186D01*
X106170995Y-68225539D01*
X106870910Y-68516168D01*
X107628765Y-68516830D01*
X108329186Y-68227422D01*
X108839000Y-67718498D01*
X108839000Y-68007810D01*
X108935673Y-68241199D01*
X109114302Y-68419827D01*
X109347691Y-68516500D01*
X110458250Y-68516500D01*
X110617000Y-68357750D01*
X110617000Y-66738500D01*
X110871000Y-66738500D01*
X110871000Y-68357750D01*
X111029750Y-68516500D01*
X112140309Y-68516500D01*
X112373698Y-68419827D01*
X112552327Y-68241199D01*
X112649000Y-68007810D01*
X112649000Y-66897250D01*
X112490250Y-66738500D01*
X110871000Y-66738500D01*
X110617000Y-66738500D01*
X110597000Y-66738500D01*
X110597000Y-66484500D01*
X110617000Y-66484500D01*
X110617000Y-64865250D01*
X110871000Y-64865250D01*
X110871000Y-66484500D01*
X112490250Y-66484500D01*
X112649000Y-66325750D01*
X112649000Y-65215190D01*
X112552327Y-64981801D01*
X112373698Y-64803173D01*
X112140309Y-64706500D01*
X111029750Y-64706500D01*
X110871000Y-64865250D01*
X110617000Y-64865250D01*
X110458250Y-64706500D01*
X109347691Y-64706500D01*
X109114302Y-64803173D01*
X108935673Y-64981801D01*
X108839000Y-65215190D01*
X108839000Y-65505342D01*
X108332005Y-64997461D01*
X107632090Y-64706832D01*
X106874235Y-64706170D01*
X106173814Y-64995578D01*
X105637461Y-65530995D01*
X105473456Y-65925965D01*
X105311422Y-65533814D01*
X104776005Y-64997461D01*
X104076090Y-64706832D01*
X103318235Y-64706170D01*
X102617814Y-64995578D01*
X102081461Y-65530995D01*
X101949284Y-65849314D01*
X101818922Y-65533814D01*
X101283505Y-64997461D01*
X100583590Y-64706832D01*
X99825735Y-64706170D01*
X99125314Y-64995578D01*
X98588961Y-65530995D01*
X98456784Y-65849314D01*
X98326422Y-65533814D01*
X97791005Y-64997461D01*
X97091090Y-64706832D01*
X96333235Y-64706170D01*
X95632814Y-64995578D01*
X95096461Y-65530995D01*
X94964284Y-65849314D01*
X94833922Y-65533814D01*
X94298505Y-64997461D01*
X93598590Y-64706832D01*
X92840735Y-64706170D01*
X92140314Y-64995578D01*
X91603961Y-65530995D01*
X91313332Y-66230910D01*
X91312670Y-66988765D01*
X87757000Y-66988765D01*
X87757000Y-66833750D01*
X87598250Y-66675000D01*
X85979000Y-66675000D01*
X85725000Y-66675000D01*
X85705000Y-66675000D01*
X85705000Y-66421000D01*
X85725000Y-66421000D01*
X85725000Y-64801750D01*
X85979000Y-64801750D01*
X85979000Y-66421000D01*
X87598250Y-66421000D01*
X87757000Y-66262250D01*
X87757000Y-65151690D01*
X87660327Y-64918301D01*
X87481698Y-64739673D01*
X87248309Y-64643000D01*
X86137750Y-64643000D01*
X85979000Y-64801750D01*
X85725000Y-64801750D01*
X85566250Y-64643000D01*
X84455691Y-64643000D01*
X84222302Y-64739673D01*
X84043673Y-64918301D01*
X83947000Y-65151690D01*
X83947000Y-65441842D01*
X83440005Y-64933961D01*
X82740090Y-64643332D01*
X81982235Y-64642670D01*
X81281814Y-64932078D01*
X80745461Y-65467495D01*
X80581456Y-65862465D01*
X80419422Y-65470314D01*
X79884005Y-64933961D01*
X79184090Y-64643332D01*
X78426235Y-64642670D01*
X77725814Y-64932078D01*
X77189461Y-65467495D01*
X77057284Y-65785814D01*
X76926922Y-65470314D01*
X76391505Y-64933961D01*
X75691590Y-64643332D01*
X74933735Y-64642670D01*
X74233314Y-64932078D01*
X73696961Y-65467495D01*
X73564784Y-65785814D01*
X73434422Y-65470314D01*
X72899005Y-64933961D01*
X72199090Y-64643332D01*
X71441235Y-64642670D01*
X70740814Y-64932078D01*
X70204461Y-65467495D01*
X70072284Y-65785814D01*
X69941922Y-65470314D01*
X69406505Y-64933961D01*
X68706590Y-64643332D01*
X67948735Y-64642670D01*
X67248314Y-64932078D01*
X66711961Y-65467495D01*
X66421332Y-66167410D01*
X66420670Y-66925265D01*
X65897000Y-66925265D01*
X65897000Y-65341500D01*
X65772543Y-64715813D01*
X65744605Y-64674000D01*
X66917786Y-64674000D01*
X66917786Y-62056334D01*
X67169880Y-62433620D01*
X67700312Y-62788043D01*
X68326000Y-62912501D01*
X68951688Y-62788043D01*
X69482120Y-62433620D01*
X69892240Y-62023500D01*
X85532764Y-62023500D01*
X85852000Y-62087000D01*
X85852000Y-62087000D01*
G37*
X85852000Y-62087000D02*
X111336760Y-62087000D01*
X113808000Y-64558239D01*
X113808000Y-68516495D01*
X113807999Y-68516500D01*
X113932457Y-69142188D01*
X114286880Y-69672620D01*
X115102761Y-70488500D01*
X94013453Y-70488500D01*
X94013453Y-71867813D01*
X93993120Y-71837382D01*
X93008618Y-70852880D01*
X92478186Y-70498457D01*
X91852498Y-70373999D01*
X91852493Y-70374000D01*
X89259739Y-70374000D01*
X88024120Y-69138380D01*
X87493688Y-68783957D01*
X86868000Y-68659499D01*
X86867995Y-68659500D01*
X67161739Y-68659500D01*
X65897000Y-67394760D01*
X65897000Y-66925265D01*
X66420670Y-66925265D01*
X66710078Y-67625686D01*
X67245495Y-68162039D01*
X67945410Y-68452668D01*
X68703265Y-68453330D01*
X69403686Y-68163922D01*
X69940039Y-67628505D01*
X70072216Y-67310186D01*
X70202578Y-67625686D01*
X70737995Y-68162039D01*
X71437910Y-68452668D01*
X72195765Y-68453330D01*
X72896186Y-68163922D01*
X73432539Y-67628505D01*
X73564716Y-67310186D01*
X73695078Y-67625686D01*
X74230495Y-68162039D01*
X74930410Y-68452668D01*
X75688265Y-68453330D01*
X76388686Y-68163922D01*
X76925039Y-67628505D01*
X77057216Y-67310186D01*
X77187578Y-67625686D01*
X77722995Y-68162039D01*
X78422910Y-68452668D01*
X79180765Y-68453330D01*
X79881186Y-68163922D01*
X80417539Y-67628505D01*
X80581544Y-67233535D01*
X80743578Y-67625686D01*
X81278995Y-68162039D01*
X81978910Y-68452668D01*
X82736765Y-68453330D01*
X83437186Y-68163922D01*
X83947000Y-67654998D01*
X83947000Y-67944310D01*
X84043673Y-68177699D01*
X84222302Y-68356327D01*
X84455691Y-68453000D01*
X85566250Y-68453000D01*
X85725000Y-68294250D01*
X85725000Y-66675000D01*
X85979000Y-66675000D01*
X85979000Y-68294250D01*
X86137750Y-68453000D01*
X87248309Y-68453000D01*
X87481698Y-68356327D01*
X87660327Y-68177699D01*
X87757000Y-67944310D01*
X87757000Y-66988765D01*
X91312670Y-66988765D01*
X91602078Y-67689186D01*
X92137495Y-68225539D01*
X92837410Y-68516168D01*
X93595265Y-68516830D01*
X94295686Y-68227422D01*
X94832039Y-67692005D01*
X94964216Y-67373686D01*
X95094578Y-67689186D01*
X95629995Y-68225539D01*
X96329910Y-68516168D01*
X97087765Y-68516830D01*
X97788186Y-68227422D01*
X98324539Y-67692005D01*
X98456716Y-67373686D01*
X98587078Y-67689186D01*
X99122495Y-68225539D01*
X99822410Y-68516168D01*
X100580265Y-68516830D01*
X101280686Y-68227422D01*
X101817039Y-67692005D01*
X101949216Y-67373686D01*
X102079578Y-67689186D01*
X102614995Y-68225539D01*
X103314910Y-68516168D01*
X104072765Y-68516830D01*
X104773186Y-68227422D01*
X105309539Y-67692005D01*
X105473544Y-67297035D01*
X105635578Y-67689186D01*
X106170995Y-68225539D01*
X106870910Y-68516168D01*
X107628765Y-68516830D01*
X108329186Y-68227422D01*
X108839000Y-67718498D01*
X108839000Y-68007810D01*
X108935673Y-68241199D01*
X109114302Y-68419827D01*
X109347691Y-68516500D01*
X110458250Y-68516500D01*
X110617000Y-68357750D01*
X110617000Y-66738500D01*
X110871000Y-66738500D01*
X110871000Y-68357750D01*
X111029750Y-68516500D01*
X112140309Y-68516500D01*
X112373698Y-68419827D01*
X112552327Y-68241199D01*
X112649000Y-68007810D01*
X112649000Y-66897250D01*
X112490250Y-66738500D01*
X110871000Y-66738500D01*
X110617000Y-66738500D01*
X110597000Y-66738500D01*
X110597000Y-66484500D01*
X110617000Y-66484500D01*
X110617000Y-64865250D01*
X110871000Y-64865250D01*
X110871000Y-66484500D01*
X112490250Y-66484500D01*
X112649000Y-66325750D01*
X112649000Y-65215190D01*
X112552327Y-64981801D01*
X112373698Y-64803173D01*
X112140309Y-64706500D01*
X111029750Y-64706500D01*
X110871000Y-64865250D01*
X110617000Y-64865250D01*
X110458250Y-64706500D01*
X109347691Y-64706500D01*
X109114302Y-64803173D01*
X108935673Y-64981801D01*
X108839000Y-65215190D01*
X108839000Y-65505342D01*
X108332005Y-64997461D01*
X107632090Y-64706832D01*
X106874235Y-64706170D01*
X106173814Y-64995578D01*
X105637461Y-65530995D01*
X105473456Y-65925965D01*
X105311422Y-65533814D01*
X104776005Y-64997461D01*
X104076090Y-64706832D01*
X103318235Y-64706170D01*
X102617814Y-64995578D01*
X102081461Y-65530995D01*
X101949284Y-65849314D01*
X101818922Y-65533814D01*
X101283505Y-64997461D01*
X100583590Y-64706832D01*
X99825735Y-64706170D01*
X99125314Y-64995578D01*
X98588961Y-65530995D01*
X98456784Y-65849314D01*
X98326422Y-65533814D01*
X97791005Y-64997461D01*
X97091090Y-64706832D01*
X96333235Y-64706170D01*
X95632814Y-64995578D01*
X95096461Y-65530995D01*
X94964284Y-65849314D01*
X94833922Y-65533814D01*
X94298505Y-64997461D01*
X93598590Y-64706832D01*
X92840735Y-64706170D01*
X92140314Y-64995578D01*
X91603961Y-65530995D01*
X91313332Y-66230910D01*
X91312670Y-66988765D01*
X87757000Y-66988765D01*
X87757000Y-66833750D01*
X87598250Y-66675000D01*
X85979000Y-66675000D01*
X85725000Y-66675000D01*
X85705000Y-66675000D01*
X85705000Y-66421000D01*
X85725000Y-66421000D01*
X85725000Y-64801750D01*
X85979000Y-64801750D01*
X85979000Y-66421000D01*
X87598250Y-66421000D01*
X87757000Y-66262250D01*
X87757000Y-65151690D01*
X87660327Y-64918301D01*
X87481698Y-64739673D01*
X87248309Y-64643000D01*
X86137750Y-64643000D01*
X85979000Y-64801750D01*
X85725000Y-64801750D01*
X85566250Y-64643000D01*
X84455691Y-64643000D01*
X84222302Y-64739673D01*
X84043673Y-64918301D01*
X83947000Y-65151690D01*
X83947000Y-65441842D01*
X83440005Y-64933961D01*
X82740090Y-64643332D01*
X81982235Y-64642670D01*
X81281814Y-64932078D01*
X80745461Y-65467495D01*
X80581456Y-65862465D01*
X80419422Y-65470314D01*
X79884005Y-64933961D01*
X79184090Y-64643332D01*
X78426235Y-64642670D01*
X77725814Y-64932078D01*
X77189461Y-65467495D01*
X77057284Y-65785814D01*
X76926922Y-65470314D01*
X76391505Y-64933961D01*
X75691590Y-64643332D01*
X74933735Y-64642670D01*
X74233314Y-64932078D01*
X73696961Y-65467495D01*
X73564784Y-65785814D01*
X73434422Y-65470314D01*
X72899005Y-64933961D01*
X72199090Y-64643332D01*
X71441235Y-64642670D01*
X70740814Y-64932078D01*
X70204461Y-65467495D01*
X70072284Y-65785814D01*
X69941922Y-65470314D01*
X69406505Y-64933961D01*
X68706590Y-64643332D01*
X67948735Y-64642670D01*
X67248314Y-64932078D01*
X66711961Y-65467495D01*
X66421332Y-66167410D01*
X66420670Y-66925265D01*
X65897000Y-66925265D01*
X65897000Y-65341500D01*
X65772543Y-64715813D01*
X65744605Y-64674000D01*
X66917786Y-64674000D01*
X66917786Y-62056334D01*
X67169880Y-62433620D01*
X67700312Y-62788043D01*
X68326000Y-62912501D01*
X68951688Y-62788043D01*
X69482120Y-62433620D01*
X69892240Y-62023500D01*
X85532764Y-62023500D01*
X85852000Y-62087000D01*
G36*
X136033277Y-39650051D02*
X134587628Y-41093180D01*
X133804283Y-42979682D01*
X133802501Y-45022356D01*
X134582551Y-46910223D01*
X136025680Y-48355872D01*
X137912182Y-49139217D01*
X139954856Y-49140999D01*
X141842723Y-48360949D01*
X143288372Y-46917820D01*
X144071717Y-45031318D01*
X144073499Y-42988644D01*
X143293449Y-41100777D01*
X141850320Y-39655128D01*
X141803051Y-39635500D01*
X148768493Y-39635500D01*
X148733277Y-39650051D01*
X147287628Y-41093180D01*
X146504283Y-42979682D01*
X146502501Y-45022356D01*
X147282551Y-46910223D01*
X148725680Y-48355872D01*
X150612182Y-49139217D01*
X152654856Y-49140999D01*
X154542723Y-48360949D01*
X155693427Y-47212250D01*
X160453500Y-47212250D01*
X160453500Y-48152810D01*
X160550173Y-48386199D01*
X160728802Y-48564827D01*
X160962191Y-48661500D01*
X161702750Y-48661500D01*
X161861500Y-48502750D01*
X161861500Y-47053500D01*
X160612250Y-47053500D01*
X160453500Y-47212250D01*
X155693427Y-47212250D01*
X155988372Y-46917820D01*
X156493976Y-45700190D01*
X160453500Y-45700190D01*
X160453500Y-46640750D01*
X160612250Y-46799500D01*
X161861500Y-46799500D01*
X161861500Y-44513500D01*
X160609238Y-44513500D01*
X160458004Y-44754997D01*
X160638987Y-45327866D01*
X160661870Y-45355105D01*
X160550173Y-45466801D01*
X160453500Y-45700190D01*
X156493976Y-45700190D01*
X156771717Y-45031318D01*
X156772601Y-44018003D01*
X160458004Y-44018003D01*
X160609238Y-44259500D01*
X161861500Y-44259500D01*
X161861500Y-42816122D01*
X161623760Y-42695464D01*
X161558475Y-42708025D01*
X161025421Y-42985131D01*
X160638987Y-43445134D01*
X160458004Y-44018003D01*
X156772601Y-44018003D01*
X156773499Y-42988644D01*
X155993449Y-41100777D01*
X154550320Y-39655128D01*
X154503051Y-39635500D01*
X227508493Y-39635500D01*
X227473277Y-39650051D01*
X226027628Y-41093180D01*
X225244283Y-42979682D01*
X225242501Y-45022356D01*
X226022551Y-46910223D01*
X226806958Y-47696000D01*
X224801599Y-47696000D01*
X224776342Y-47569026D01*
X224678100Y-47421997D01*
X224600756Y-47306243D01*
X223568000Y-46273488D01*
X223568000Y-42862500D01*
X223506342Y-42552526D01*
X223409669Y-42407845D01*
X223330756Y-42289743D01*
X221743256Y-40702244D01*
X221743255Y-40702243D01*
X221480474Y-40526658D01*
X221170500Y-40465000D01*
X208597500Y-40465000D01*
X208287527Y-40526657D01*
X208024744Y-40702243D01*
X207009613Y-41717375D01*
X206818244Y-41845244D01*
X206642658Y-42108026D01*
X206611235Y-42266000D01*
X203937379Y-42266000D01*
X204139043Y-41964187D01*
X204263500Y-41338500D01*
X204139043Y-40712813D01*
X203784620Y-40182380D01*
X203254187Y-39827957D01*
X202628500Y-39703500D01*
X172783505Y-39703500D01*
X172783500Y-39703499D01*
X172157813Y-39827957D01*
X171627380Y-40182380D01*
X171627378Y-40182383D01*
X170992380Y-40817380D01*
X170637957Y-41347812D01*
X170513499Y-41973500D01*
X170513500Y-41973505D01*
X170513500Y-42946555D01*
X170195919Y-42734354D01*
X169608500Y-42617509D01*
X169021081Y-42734354D01*
X168523091Y-43067100D01*
X168338500Y-43343360D01*
X168153909Y-43067100D01*
X167655919Y-42734354D01*
X167068500Y-42617509D01*
X166481081Y-42734354D01*
X165983091Y-43067100D01*
X165798500Y-43343360D01*
X165613909Y-43067100D01*
X165115919Y-42734354D01*
X164528500Y-42617509D01*
X163941081Y-42734354D01*
X163443091Y-43067100D01*
X163255849Y-43347328D01*
X162951579Y-42985131D01*
X162418525Y-42708025D01*
X162353240Y-42695464D01*
X162115500Y-42816122D01*
X162115500Y-44259500D01*
X162135500Y-44259500D01*
X162135500Y-44513500D01*
X162115500Y-44513500D01*
X162115500Y-46799500D01*
X162135500Y-46799500D01*
X162135500Y-47053500D01*
X162115500Y-47053500D01*
X162115500Y-48502750D01*
X162274250Y-48661500D01*
X163014809Y-48661500D01*
X163248198Y-48564827D01*
X163426827Y-48386199D01*
X163475869Y-48267801D01*
X163941081Y-48578646D01*
X164528500Y-48695491D01*
X165115919Y-48578646D01*
X165613909Y-48245900D01*
X165798500Y-47969640D01*
X165983091Y-48245900D01*
X166276193Y-48441745D01*
X165979765Y-48737655D01*
X165783723Y-49209776D01*
X165783277Y-49720981D01*
X165978495Y-50193443D01*
X166339655Y-50555235D01*
X166811776Y-50751277D01*
X167322981Y-50751723D01*
X167686547Y-50601500D01*
X177463987Y-50601500D01*
X177429266Y-50685116D01*
X177354244Y-50735244D01*
X174987988Y-53101500D01*
X156927141Y-53101500D01*
X157002886Y-53025887D01*
X157259997Y-52406696D01*
X157260582Y-51736246D01*
X157004553Y-51116607D01*
X156530887Y-50642114D01*
X155911696Y-50385003D01*
X155241246Y-50384418D01*
X154621607Y-50640447D01*
X154304863Y-50956639D01*
X153990887Y-50642114D01*
X153371696Y-50385003D01*
X152701246Y-50384418D01*
X152081607Y-50640447D01*
X152004820Y-50717100D01*
X151909050Y-50568269D01*
X151696850Y-50423279D01*
X151444960Y-50372270D01*
X149545040Y-50372270D01*
X149309723Y-50416548D01*
X149093599Y-50555620D01*
X148984271Y-50715626D01*
X148910887Y-50642114D01*
X148291696Y-50385003D01*
X147621246Y-50384418D01*
X147001607Y-50640447D01*
X146891275Y-50750587D01*
X146853757Y-50660011D01*
X146675128Y-50481383D01*
X146441739Y-50384710D01*
X145700750Y-50384710D01*
X145542000Y-50543460D01*
X145542000Y-51943000D01*
X145562000Y-51943000D01*
X145562000Y-52197000D01*
X145542000Y-52197000D01*
X145542000Y-52217000D01*
X145288000Y-52217000D01*
X145288000Y-52197000D01*
X144038320Y-52197000D01*
X143879570Y-52355750D01*
X143879570Y-53101500D01*
X142957141Y-53101500D01*
X143032886Y-53025887D01*
X143289997Y-52406696D01*
X143290582Y-51736246D01*
X143034553Y-51116607D01*
X142811736Y-50893400D01*
X143879570Y-50893400D01*
X143879570Y-51784250D01*
X144038320Y-51943000D01*
X145288000Y-51943000D01*
X145288000Y-50543460D01*
X145129250Y-50384710D01*
X144388261Y-50384710D01*
X144154872Y-50481383D01*
X143976243Y-50660011D01*
X143879570Y-50893400D01*
X142811736Y-50893400D01*
X142560887Y-50642114D01*
X141941696Y-50385003D01*
X141271246Y-50384418D01*
X140651607Y-50640447D01*
X140334863Y-50956639D01*
X140020887Y-50642114D01*
X139401696Y-50385003D01*
X138731246Y-50384418D01*
X138111607Y-50640447D01*
X138034820Y-50717100D01*
X137939050Y-50568269D01*
X137726850Y-50423279D01*
X137474960Y-50372270D01*
X135575040Y-50372270D01*
X135339723Y-50416548D01*
X135123599Y-50555620D01*
X135014271Y-50715626D01*
X134940887Y-50642114D01*
X134321696Y-50385003D01*
X133651246Y-50384418D01*
X133031607Y-50640447D01*
X132921275Y-50750587D01*
X132883757Y-50660011D01*
X132705128Y-50481383D01*
X132471739Y-50384710D01*
X131730750Y-50384710D01*
X131572000Y-50543460D01*
X131572000Y-51943000D01*
X131592000Y-51943000D01*
X131592000Y-52197000D01*
X131572000Y-52197000D01*
X131572000Y-52217000D01*
X131318000Y-52217000D01*
X131318000Y-52197000D01*
X130068320Y-52197000D01*
X129953456Y-52311864D01*
X129868005Y-52105057D01*
X129506845Y-51743265D01*
X129034724Y-51547223D01*
X128523519Y-51546777D01*
X128051057Y-51741995D01*
X127689265Y-52103155D01*
X127493223Y-52575276D01*
X127492957Y-52880486D01*
X127253519Y-52880277D01*
X126781057Y-53075495D01*
X126419265Y-53436655D01*
X126223223Y-53908776D01*
X126223209Y-53925194D01*
X124649964Y-52351950D01*
X124792277Y-52009224D01*
X124792723Y-51498019D01*
X124597505Y-51025557D01*
X124465579Y-50893400D01*
X129909570Y-50893400D01*
X129909570Y-51784250D01*
X130068320Y-51943000D01*
X131318000Y-51943000D01*
X131318000Y-50543460D01*
X131159250Y-50384710D01*
X130418261Y-50384710D01*
X130184872Y-50481383D01*
X130006243Y-50660011D01*
X129909570Y-50893400D01*
X124465579Y-50893400D01*
X124236345Y-50663765D01*
X123764224Y-50467723D01*
X123522348Y-50467512D01*
X123522723Y-50037519D01*
X123327505Y-49565057D01*
X122966345Y-49203265D01*
X122494224Y-49007223D01*
X121983019Y-49006777D01*
X121510557Y-49201995D01*
X121148765Y-49563155D01*
X120952723Y-50035276D01*
X120952346Y-50467486D01*
X120713019Y-50467277D01*
X120240557Y-50662495D01*
X119878765Y-51023655D01*
X119843008Y-51109768D01*
X117521740Y-48788500D01*
X118141750Y-48788500D01*
X118300500Y-48629750D01*
X118300500Y-47180500D01*
X117051250Y-47180500D01*
X116892500Y-47339250D01*
X116892500Y-48279810D01*
X116924584Y-48357267D01*
X116894188Y-48336957D01*
X116268500Y-48212499D01*
X116268495Y-48212500D01*
X107251505Y-48212500D01*
X107251500Y-48212499D01*
X106625812Y-48336957D01*
X106362047Y-48513199D01*
X106336903Y-48530000D01*
X89210554Y-48530000D01*
X89355079Y-48454869D01*
X89741513Y-47994866D01*
X89922496Y-47421997D01*
X89771262Y-47180500D01*
X88519000Y-47180500D01*
X88519000Y-47200500D01*
X88265000Y-47200500D01*
X88265000Y-47180500D01*
X88245000Y-47180500D01*
X88245000Y-46926500D01*
X88265000Y-46926500D01*
X88265000Y-44640500D01*
X88519000Y-44640500D01*
X88519000Y-46926500D01*
X89771262Y-46926500D01*
X89922496Y-46685003D01*
X89741513Y-46112134D01*
X89502141Y-45827190D01*
X116892500Y-45827190D01*
X116892500Y-46767750D01*
X117051250Y-46926500D01*
X118300500Y-46926500D01*
X118300500Y-44640500D01*
X117048238Y-44640500D01*
X116897004Y-44881997D01*
X117077987Y-45454866D01*
X117100870Y-45482105D01*
X116989173Y-45593801D01*
X116892500Y-45827190D01*
X89502141Y-45827190D01*
X89465438Y-45783500D01*
X89741513Y-45454866D01*
X89922496Y-44881997D01*
X89771262Y-44640500D01*
X88519000Y-44640500D01*
X88265000Y-44640500D01*
X88245000Y-44640500D01*
X88245000Y-44386500D01*
X88265000Y-44386500D01*
X88265000Y-42943122D01*
X88519000Y-42943122D01*
X88519000Y-44386500D01*
X89771262Y-44386500D01*
X89922496Y-44145003D01*
X116897004Y-44145003D01*
X117048238Y-44386500D01*
X118300500Y-44386500D01*
X118300500Y-42943122D01*
X118554500Y-42943122D01*
X118554500Y-44386500D01*
X118574500Y-44386500D01*
X118574500Y-44640500D01*
X118554500Y-44640500D01*
X118554500Y-46926500D01*
X118574500Y-46926500D01*
X118574500Y-47180500D01*
X118554500Y-47180500D01*
X118554500Y-48629750D01*
X118713250Y-48788500D01*
X119453809Y-48788500D01*
X119687198Y-48691827D01*
X119865827Y-48513199D01*
X119914869Y-48394801D01*
X120380081Y-48705646D01*
X120967500Y-48822491D01*
X121554919Y-48705646D01*
X122052909Y-48372900D01*
X122237500Y-48096640D01*
X122422091Y-48372900D01*
X122920081Y-48705646D01*
X123507500Y-48822491D01*
X124094919Y-48705646D01*
X124592909Y-48372900D01*
X124777500Y-48096640D01*
X124962091Y-48372900D01*
X125460081Y-48705646D01*
X126047500Y-48822491D01*
X126634919Y-48705646D01*
X127132909Y-48372900D01*
X127317500Y-48096640D01*
X127502091Y-48372900D01*
X128000081Y-48705646D01*
X128587500Y-48822491D01*
X129174919Y-48705646D01*
X129672909Y-48372900D01*
X130005655Y-47874910D01*
X130122500Y-47287491D01*
X130122500Y-46819509D01*
X130005655Y-46232090D01*
X129705917Y-45783500D01*
X130005655Y-45334910D01*
X130122500Y-44747491D01*
X130122500Y-44279509D01*
X130005655Y-43692090D01*
X129672909Y-43194100D01*
X129174919Y-42861354D01*
X128587500Y-42744509D01*
X128000081Y-42861354D01*
X127502091Y-43194100D01*
X127317500Y-43470360D01*
X127132909Y-43194100D01*
X126634919Y-42861354D01*
X126047500Y-42744509D01*
X125460081Y-42861354D01*
X124962091Y-43194100D01*
X124777500Y-43470360D01*
X124592909Y-43194100D01*
X124094919Y-42861354D01*
X123507500Y-42744509D01*
X122920081Y-42861354D01*
X122422091Y-43194100D01*
X122237500Y-43470360D01*
X122052909Y-43194100D01*
X121554919Y-42861354D01*
X120967500Y-42744509D01*
X120380081Y-42861354D01*
X119882091Y-43194100D01*
X119694849Y-43474328D01*
X119390579Y-43112131D01*
X118857525Y-42835025D01*
X118792240Y-42822464D01*
X118554500Y-42943122D01*
X118300500Y-42943122D01*
X118062760Y-42822464D01*
X117997475Y-42835025D01*
X117464421Y-43112131D01*
X117077987Y-43572134D01*
X116897004Y-44145003D01*
X89922496Y-44145003D01*
X89741513Y-43572134D01*
X89355079Y-43112131D01*
X88822025Y-42835025D01*
X88756740Y-42822464D01*
X88519000Y-42943122D01*
X88265000Y-42943122D01*
X88027260Y-42822464D01*
X87961975Y-42835025D01*
X87428921Y-43112131D01*
X87124651Y-43474328D01*
X86937409Y-43194100D01*
X86439419Y-42861354D01*
X85852000Y-42744509D01*
X85264581Y-42861354D01*
X84766591Y-43194100D01*
X84582000Y-43470360D01*
X84397409Y-43194100D01*
X83899419Y-42861354D01*
X83312000Y-42744509D01*
X82724581Y-42861354D01*
X82226591Y-43194100D01*
X82042000Y-43470360D01*
X81857409Y-43194100D01*
X81359419Y-42861354D01*
X80772000Y-42744509D01*
X80184581Y-42861354D01*
X79686591Y-43194100D01*
X79502000Y-43470360D01*
X79317409Y-43194100D01*
X78819419Y-42861354D01*
X78232000Y-42744509D01*
X77644581Y-42861354D01*
X77146591Y-43194100D01*
X76962000Y-43470360D01*
X76777409Y-43194100D01*
X76279419Y-42861354D01*
X75692000Y-42744509D01*
X75104581Y-42861354D01*
X74606591Y-43194100D01*
X74422000Y-43470360D01*
X74237409Y-43194100D01*
X73739419Y-42861354D01*
X73152000Y-42744509D01*
X72564581Y-42861354D01*
X72066591Y-43194100D01*
X71879349Y-43474328D01*
X71575079Y-43112131D01*
X71042025Y-42835025D01*
X70976740Y-42822464D01*
X70739000Y-42943122D01*
X70739000Y-44386500D01*
X70759000Y-44386500D01*
X70759000Y-44640500D01*
X70739000Y-44640500D01*
X70739000Y-46926500D01*
X70759000Y-46926500D01*
X70759000Y-47180500D01*
X70739000Y-47180500D01*
X70739000Y-48629750D01*
X70897750Y-48788500D01*
X71517000Y-48788500D01*
X71517000Y-49148995D01*
X71516999Y-49149000D01*
X71545344Y-49291500D01*
X62979300Y-49291500D01*
X62669326Y-49353158D01*
X62594013Y-49403481D01*
X62587998Y-49407500D01*
X61962405Y-49407500D01*
X61962405Y-49972882D01*
X61864008Y-50071280D01*
X61564520Y-50071280D01*
X61329203Y-50115558D01*
X61214007Y-50189685D01*
X61115370Y-50122289D01*
X60863480Y-50071280D01*
X60065920Y-50071280D01*
X59830603Y-50115558D01*
X59614479Y-50254630D01*
X59578354Y-50307500D01*
X59084614Y-50307500D01*
X58947590Y-50094559D01*
X58735390Y-49949569D01*
X58483500Y-49898560D01*
X57848500Y-49898560D01*
X57613183Y-49942838D01*
X57397059Y-50081910D01*
X57395588Y-50084063D01*
X57319198Y-50007673D01*
X57085809Y-49911000D01*
X56927750Y-49911000D01*
X56769000Y-50069750D01*
X56769000Y-50990500D01*
X56789000Y-50990500D01*
X56789000Y-51244500D01*
X56769000Y-51244500D01*
X56769000Y-52165250D01*
X56800750Y-52197000D01*
X56769000Y-52228750D01*
X56769000Y-53149500D01*
X56789000Y-53149500D01*
X56789000Y-53403500D01*
X56769000Y-53403500D01*
X56769000Y-54324250D01*
X56864250Y-54419500D01*
X56769000Y-54514750D01*
X56769000Y-55435500D01*
X56789000Y-55435500D01*
X56789000Y-55689500D01*
X56769000Y-55689500D01*
X56769000Y-56610250D01*
X56864250Y-56705500D01*
X56769000Y-56800750D01*
X56769000Y-57721500D01*
X56789000Y-57721500D01*
X56789000Y-57975500D01*
X56769000Y-57975500D01*
X56769000Y-58896250D01*
X56832500Y-58959750D01*
X56769000Y-59023250D01*
X56769000Y-59944000D01*
X56789000Y-59944000D01*
X56789000Y-60198000D01*
X56769000Y-60198000D01*
X56769000Y-61118750D01*
X56927750Y-61277500D01*
X57085809Y-61277500D01*
X57319198Y-61180827D01*
X57397286Y-61102739D01*
X57596610Y-61238931D01*
X57848500Y-61289940D01*
X58483500Y-61289940D01*
X58718817Y-61245662D01*
X58934941Y-61106590D01*
X59079931Y-60894390D01*
X59082643Y-60881000D01*
X59575948Y-60881000D01*
X59601830Y-60921221D01*
X59814030Y-61066211D01*
X60065920Y-61117220D01*
X60844215Y-61117220D01*
X60844215Y-63852510D01*
X60438635Y-63581509D01*
X59709623Y-63436500D01*
X58146377Y-63436500D01*
X57417365Y-63581509D01*
X56799339Y-63994462D01*
X56386386Y-64612488D01*
X56241377Y-65341500D01*
X56386386Y-66070512D01*
X56799339Y-66688538D01*
X57140597Y-66916560D01*
X56928000Y-66916560D01*
X56692683Y-66960838D01*
X56476559Y-67099910D01*
X56331569Y-67312110D01*
X56280560Y-67564000D01*
X56280560Y-70104000D01*
X56324838Y-70339317D01*
X56361634Y-70396500D01*
X55764500Y-70396500D01*
X55764500Y-60949876D01*
X55786173Y-61002199D01*
X55964802Y-61180827D01*
X56198191Y-61277500D01*
X56356250Y-61277500D01*
X56515000Y-61118750D01*
X56515000Y-60198000D01*
X56495000Y-60198000D01*
X56495000Y-59944000D01*
X56515000Y-59944000D01*
X56515000Y-59023250D01*
X56451500Y-58959750D01*
X56515000Y-58896250D01*
X56515000Y-57975500D01*
X56495000Y-57975500D01*
X56495000Y-57721500D01*
X56515000Y-57721500D01*
X56515000Y-56800750D01*
X56419750Y-56705500D01*
X56515000Y-56610250D01*
X56515000Y-55689500D01*
X56495000Y-55689500D01*
X56495000Y-55435500D01*
X56515000Y-55435500D01*
X56515000Y-54514750D01*
X56419750Y-54419500D01*
X56515000Y-54324250D01*
X56515000Y-53403500D01*
X56495000Y-53403500D01*
X56495000Y-53149500D01*
X56515000Y-53149500D01*
X56515000Y-52228750D01*
X56483250Y-52197000D01*
X56515000Y-52165250D01*
X56515000Y-51244500D01*
X56495000Y-51244500D01*
X56495000Y-50990500D01*
X56515000Y-50990500D01*
X56515000Y-50069750D01*
X56356250Y-49911000D01*
X56198191Y-49911000D01*
X55964802Y-50007673D01*
X55786173Y-50186301D01*
X55764500Y-50238624D01*
X55764500Y-46721325D01*
X55842551Y-46910223D01*
X57285680Y-48355872D01*
X59172182Y-49139217D01*
X61214856Y-49140999D01*
X63102723Y-48360949D01*
X64126206Y-47339250D01*
X69077000Y-47339250D01*
X69077000Y-48279810D01*
X69173673Y-48513199D01*
X69352302Y-48691827D01*
X69585691Y-48788500D01*
X70326250Y-48788500D01*
X70485000Y-48629750D01*
X70485000Y-47180500D01*
X69235750Y-47180500D01*
X69077000Y-47339250D01*
X64126206Y-47339250D01*
X64548372Y-46917820D01*
X65001241Y-45827190D01*
X69077000Y-45827190D01*
X69077000Y-46767750D01*
X69235750Y-46926500D01*
X70485000Y-46926500D01*
X70485000Y-44640500D01*
X69232738Y-44640500D01*
X69081504Y-44881997D01*
X69262487Y-45454866D01*
X69285370Y-45482105D01*
X69173673Y-45593801D01*
X69077000Y-45827190D01*
X65001241Y-45827190D01*
X65331717Y-45031318D01*
X65332490Y-44145003D01*
X69081504Y-44145003D01*
X69232738Y-44386500D01*
X70485000Y-44386500D01*
X70485000Y-42943122D01*
X70247260Y-42822464D01*
X70181975Y-42835025D01*
X69648921Y-43112131D01*
X69262487Y-43572134D01*
X69081504Y-44145003D01*
X65332490Y-44145003D01*
X65333499Y-42988644D01*
X64553449Y-41100777D01*
X63110320Y-39655128D01*
X63063051Y-39635500D01*
X136068493Y-39635500D01*
X136033277Y-39650051D01*
X136033277Y-39650051D01*
G37*
X136033277Y-39650051D02*
X134587628Y-41093180D01*
X133804283Y-42979682D01*
X133802501Y-45022356D01*
X134582551Y-46910223D01*
X136025680Y-48355872D01*
X137912182Y-49139217D01*
X139954856Y-49140999D01*
X141842723Y-48360949D01*
X143288372Y-46917820D01*
X144071717Y-45031318D01*
X144073499Y-42988644D01*
X143293449Y-41100777D01*
X141850320Y-39655128D01*
X141803051Y-39635500D01*
X148768493Y-39635500D01*
X148733277Y-39650051D01*
X147287628Y-41093180D01*
X146504283Y-42979682D01*
X146502501Y-45022356D01*
X147282551Y-46910223D01*
X148725680Y-48355872D01*
X150612182Y-49139217D01*
X152654856Y-49140999D01*
X154542723Y-48360949D01*
X155693427Y-47212250D01*
X160453500Y-47212250D01*
X160453500Y-48152810D01*
X160550173Y-48386199D01*
X160728802Y-48564827D01*
X160962191Y-48661500D01*
X161702750Y-48661500D01*
X161861500Y-48502750D01*
X161861500Y-47053500D01*
X160612250Y-47053500D01*
X160453500Y-47212250D01*
X155693427Y-47212250D01*
X155988372Y-46917820D01*
X156493976Y-45700190D01*
X160453500Y-45700190D01*
X160453500Y-46640750D01*
X160612250Y-46799500D01*
X161861500Y-46799500D01*
X161861500Y-44513500D01*
X160609238Y-44513500D01*
X160458004Y-44754997D01*
X160638987Y-45327866D01*
X160661870Y-45355105D01*
X160550173Y-45466801D01*
X160453500Y-45700190D01*
X156493976Y-45700190D01*
X156771717Y-45031318D01*
X156772601Y-44018003D01*
X160458004Y-44018003D01*
X160609238Y-44259500D01*
X161861500Y-44259500D01*
X161861500Y-42816122D01*
X161623760Y-42695464D01*
X161558475Y-42708025D01*
X161025421Y-42985131D01*
X160638987Y-43445134D01*
X160458004Y-44018003D01*
X156772601Y-44018003D01*
X156773499Y-42988644D01*
X155993449Y-41100777D01*
X154550320Y-39655128D01*
X154503051Y-39635500D01*
X227508493Y-39635500D01*
X227473277Y-39650051D01*
X226027628Y-41093180D01*
X225244283Y-42979682D01*
X225242501Y-45022356D01*
X226022551Y-46910223D01*
X226806958Y-47696000D01*
X224801599Y-47696000D01*
X224776342Y-47569026D01*
X224678100Y-47421997D01*
X224600756Y-47306243D01*
X223568000Y-46273488D01*
X223568000Y-42862500D01*
X223506342Y-42552526D01*
X223409669Y-42407845D01*
X223330756Y-42289743D01*
X221743256Y-40702244D01*
X221743255Y-40702243D01*
X221480474Y-40526658D01*
X221170500Y-40465000D01*
X208597500Y-40465000D01*
X208287527Y-40526657D01*
X208024744Y-40702243D01*
X207009613Y-41717375D01*
X206818244Y-41845244D01*
X206642658Y-42108026D01*
X206611235Y-42266000D01*
X203937379Y-42266000D01*
X204139043Y-41964187D01*
X204263500Y-41338500D01*
X204139043Y-40712813D01*
X203784620Y-40182380D01*
X203254187Y-39827957D01*
X202628500Y-39703500D01*
X172783505Y-39703500D01*
X172783500Y-39703499D01*
X172157813Y-39827957D01*
X171627380Y-40182380D01*
X171627378Y-40182383D01*
X170992380Y-40817380D01*
X170637957Y-41347812D01*
X170513499Y-41973500D01*
X170513500Y-41973505D01*
X170513500Y-42946555D01*
X170195919Y-42734354D01*
X169608500Y-42617509D01*
X169021081Y-42734354D01*
X168523091Y-43067100D01*
X168338500Y-43343360D01*
X168153909Y-43067100D01*
X167655919Y-42734354D01*
X167068500Y-42617509D01*
X166481081Y-42734354D01*
X165983091Y-43067100D01*
X165798500Y-43343360D01*
X165613909Y-43067100D01*
X165115919Y-42734354D01*
X164528500Y-42617509D01*
X163941081Y-42734354D01*
X163443091Y-43067100D01*
X163255849Y-43347328D01*
X162951579Y-42985131D01*
X162418525Y-42708025D01*
X162353240Y-42695464D01*
X162115500Y-42816122D01*
X162115500Y-44259500D01*
X162135500Y-44259500D01*
X162135500Y-44513500D01*
X162115500Y-44513500D01*
X162115500Y-46799500D01*
X162135500Y-46799500D01*
X162135500Y-47053500D01*
X162115500Y-47053500D01*
X162115500Y-48502750D01*
X162274250Y-48661500D01*
X163014809Y-48661500D01*
X163248198Y-48564827D01*
X163426827Y-48386199D01*
X163475869Y-48267801D01*
X163941081Y-48578646D01*
X164528500Y-48695491D01*
X165115919Y-48578646D01*
X165613909Y-48245900D01*
X165798500Y-47969640D01*
X165983091Y-48245900D01*
X166276193Y-48441745D01*
X165979765Y-48737655D01*
X165783723Y-49209776D01*
X165783277Y-49720981D01*
X165978495Y-50193443D01*
X166339655Y-50555235D01*
X166811776Y-50751277D01*
X167322981Y-50751723D01*
X167686547Y-50601500D01*
X177463987Y-50601500D01*
X177429266Y-50685116D01*
X177354244Y-50735244D01*
X174987988Y-53101500D01*
X156927141Y-53101500D01*
X157002886Y-53025887D01*
X157259997Y-52406696D01*
X157260582Y-51736246D01*
X157004553Y-51116607D01*
X156530887Y-50642114D01*
X155911696Y-50385003D01*
X155241246Y-50384418D01*
X154621607Y-50640447D01*
X154304863Y-50956639D01*
X153990887Y-50642114D01*
X153371696Y-50385003D01*
X152701246Y-50384418D01*
X152081607Y-50640447D01*
X152004820Y-50717100D01*
X151909050Y-50568269D01*
X151696850Y-50423279D01*
X151444960Y-50372270D01*
X149545040Y-50372270D01*
X149309723Y-50416548D01*
X149093599Y-50555620D01*
X148984271Y-50715626D01*
X148910887Y-50642114D01*
X148291696Y-50385003D01*
X147621246Y-50384418D01*
X147001607Y-50640447D01*
X146891275Y-50750587D01*
X146853757Y-50660011D01*
X146675128Y-50481383D01*
X146441739Y-50384710D01*
X145700750Y-50384710D01*
X145542000Y-50543460D01*
X145542000Y-51943000D01*
X145562000Y-51943000D01*
X145562000Y-52197000D01*
X145542000Y-52197000D01*
X145542000Y-52217000D01*
X145288000Y-52217000D01*
X145288000Y-52197000D01*
X144038320Y-52197000D01*
X143879570Y-52355750D01*
X143879570Y-53101500D01*
X142957141Y-53101500D01*
X143032886Y-53025887D01*
X143289997Y-52406696D01*
X143290582Y-51736246D01*
X143034553Y-51116607D01*
X142811736Y-50893400D01*
X143879570Y-50893400D01*
X143879570Y-51784250D01*
X144038320Y-51943000D01*
X145288000Y-51943000D01*
X145288000Y-50543460D01*
X145129250Y-50384710D01*
X144388261Y-50384710D01*
X144154872Y-50481383D01*
X143976243Y-50660011D01*
X143879570Y-50893400D01*
X142811736Y-50893400D01*
X142560887Y-50642114D01*
X141941696Y-50385003D01*
X141271246Y-50384418D01*
X140651607Y-50640447D01*
X140334863Y-50956639D01*
X140020887Y-50642114D01*
X139401696Y-50385003D01*
X138731246Y-50384418D01*
X138111607Y-50640447D01*
X138034820Y-50717100D01*
X137939050Y-50568269D01*
X137726850Y-50423279D01*
X137474960Y-50372270D01*
X135575040Y-50372270D01*
X135339723Y-50416548D01*
X135123599Y-50555620D01*
X135014271Y-50715626D01*
X134940887Y-50642114D01*
X134321696Y-50385003D01*
X133651246Y-50384418D01*
X133031607Y-50640447D01*
X132921275Y-50750587D01*
X132883757Y-50660011D01*
X132705128Y-50481383D01*
X132471739Y-50384710D01*
X131730750Y-50384710D01*
X131572000Y-50543460D01*
X131572000Y-51943000D01*
X131592000Y-51943000D01*
X131592000Y-52197000D01*
X131572000Y-52197000D01*
X131572000Y-52217000D01*
X131318000Y-52217000D01*
X131318000Y-52197000D01*
X130068320Y-52197000D01*
X129953456Y-52311864D01*
X129868005Y-52105057D01*
X129506845Y-51743265D01*
X129034724Y-51547223D01*
X128523519Y-51546777D01*
X128051057Y-51741995D01*
X127689265Y-52103155D01*
X127493223Y-52575276D01*
X127492957Y-52880486D01*
X127253519Y-52880277D01*
X126781057Y-53075495D01*
X126419265Y-53436655D01*
X126223223Y-53908776D01*
X126223209Y-53925194D01*
X124649964Y-52351950D01*
X124792277Y-52009224D01*
X124792723Y-51498019D01*
X124597505Y-51025557D01*
X124465579Y-50893400D01*
X129909570Y-50893400D01*
X129909570Y-51784250D01*
X130068320Y-51943000D01*
X131318000Y-51943000D01*
X131318000Y-50543460D01*
X131159250Y-50384710D01*
X130418261Y-50384710D01*
X130184872Y-50481383D01*
X130006243Y-50660011D01*
X129909570Y-50893400D01*
X124465579Y-50893400D01*
X124236345Y-50663765D01*
X123764224Y-50467723D01*
X123522348Y-50467512D01*
X123522723Y-50037519D01*
X123327505Y-49565057D01*
X122966345Y-49203265D01*
X122494224Y-49007223D01*
X121983019Y-49006777D01*
X121510557Y-49201995D01*
X121148765Y-49563155D01*
X120952723Y-50035276D01*
X120952346Y-50467486D01*
X120713019Y-50467277D01*
X120240557Y-50662495D01*
X119878765Y-51023655D01*
X119843008Y-51109768D01*
X117521740Y-48788500D01*
X118141750Y-48788500D01*
X118300500Y-48629750D01*
X118300500Y-47180500D01*
X117051250Y-47180500D01*
X116892500Y-47339250D01*
X116892500Y-48279810D01*
X116924584Y-48357267D01*
X116894188Y-48336957D01*
X116268500Y-48212499D01*
X116268495Y-48212500D01*
X107251505Y-48212500D01*
X107251500Y-48212499D01*
X106625812Y-48336957D01*
X106362047Y-48513199D01*
X106336903Y-48530000D01*
X89210554Y-48530000D01*
X89355079Y-48454869D01*
X89741513Y-47994866D01*
X89922496Y-47421997D01*
X89771262Y-47180500D01*
X88519000Y-47180500D01*
X88519000Y-47200500D01*
X88265000Y-47200500D01*
X88265000Y-47180500D01*
X88245000Y-47180500D01*
X88245000Y-46926500D01*
X88265000Y-46926500D01*
X88265000Y-44640500D01*
X88519000Y-44640500D01*
X88519000Y-46926500D01*
X89771262Y-46926500D01*
X89922496Y-46685003D01*
X89741513Y-46112134D01*
X89502141Y-45827190D01*
X116892500Y-45827190D01*
X116892500Y-46767750D01*
X117051250Y-46926500D01*
X118300500Y-46926500D01*
X118300500Y-44640500D01*
X117048238Y-44640500D01*
X116897004Y-44881997D01*
X117077987Y-45454866D01*
X117100870Y-45482105D01*
X116989173Y-45593801D01*
X116892500Y-45827190D01*
X89502141Y-45827190D01*
X89465438Y-45783500D01*
X89741513Y-45454866D01*
X89922496Y-44881997D01*
X89771262Y-44640500D01*
X88519000Y-44640500D01*
X88265000Y-44640500D01*
X88245000Y-44640500D01*
X88245000Y-44386500D01*
X88265000Y-44386500D01*
X88265000Y-42943122D01*
X88519000Y-42943122D01*
X88519000Y-44386500D01*
X89771262Y-44386500D01*
X89922496Y-44145003D01*
X116897004Y-44145003D01*
X117048238Y-44386500D01*
X118300500Y-44386500D01*
X118300500Y-42943122D01*
X118554500Y-42943122D01*
X118554500Y-44386500D01*
X118574500Y-44386500D01*
X118574500Y-44640500D01*
X118554500Y-44640500D01*
X118554500Y-46926500D01*
X118574500Y-46926500D01*
X118574500Y-47180500D01*
X118554500Y-47180500D01*
X118554500Y-48629750D01*
X118713250Y-48788500D01*
X119453809Y-48788500D01*
X119687198Y-48691827D01*
X119865827Y-48513199D01*
X119914869Y-48394801D01*
X120380081Y-48705646D01*
X120967500Y-48822491D01*
X121554919Y-48705646D01*
X122052909Y-48372900D01*
X122237500Y-48096640D01*
X122422091Y-48372900D01*
X122920081Y-48705646D01*
X123507500Y-48822491D01*
X124094919Y-48705646D01*
X124592909Y-48372900D01*
X124777500Y-48096640D01*
X124962091Y-48372900D01*
X125460081Y-48705646D01*
X126047500Y-48822491D01*
X126634919Y-48705646D01*
X127132909Y-48372900D01*
X127317500Y-48096640D01*
X127502091Y-48372900D01*
X128000081Y-48705646D01*
X128587500Y-48822491D01*
X129174919Y-48705646D01*
X129672909Y-48372900D01*
X130005655Y-47874910D01*
X130122500Y-47287491D01*
X130122500Y-46819509D01*
X130005655Y-46232090D01*
X129705917Y-45783500D01*
X130005655Y-45334910D01*
X130122500Y-44747491D01*
X130122500Y-44279509D01*
X130005655Y-43692090D01*
X129672909Y-43194100D01*
X129174919Y-42861354D01*
X128587500Y-42744509D01*
X128000081Y-42861354D01*
X127502091Y-43194100D01*
X127317500Y-43470360D01*
X127132909Y-43194100D01*
X126634919Y-42861354D01*
X126047500Y-42744509D01*
X125460081Y-42861354D01*
X124962091Y-43194100D01*
X124777500Y-43470360D01*
X124592909Y-43194100D01*
X124094919Y-42861354D01*
X123507500Y-42744509D01*
X122920081Y-42861354D01*
X122422091Y-43194100D01*
X122237500Y-43470360D01*
X122052909Y-43194100D01*
X121554919Y-42861354D01*
X120967500Y-42744509D01*
X120380081Y-42861354D01*
X119882091Y-43194100D01*
X119694849Y-43474328D01*
X119390579Y-43112131D01*
X118857525Y-42835025D01*
X118792240Y-42822464D01*
X118554500Y-42943122D01*
X118300500Y-42943122D01*
X118062760Y-42822464D01*
X117997475Y-42835025D01*
X117464421Y-43112131D01*
X117077987Y-43572134D01*
X116897004Y-44145003D01*
X89922496Y-44145003D01*
X89741513Y-43572134D01*
X89355079Y-43112131D01*
X88822025Y-42835025D01*
X88756740Y-42822464D01*
X88519000Y-42943122D01*
X88265000Y-42943122D01*
X88027260Y-42822464D01*
X87961975Y-42835025D01*
X87428921Y-43112131D01*
X87124651Y-43474328D01*
X86937409Y-43194100D01*
X86439419Y-42861354D01*
X85852000Y-42744509D01*
X85264581Y-42861354D01*
X84766591Y-43194100D01*
X84582000Y-43470360D01*
X84397409Y-43194100D01*
X83899419Y-42861354D01*
X83312000Y-42744509D01*
X82724581Y-42861354D01*
X82226591Y-43194100D01*
X82042000Y-43470360D01*
X81857409Y-43194100D01*
X81359419Y-42861354D01*
X80772000Y-42744509D01*
X80184581Y-42861354D01*
X79686591Y-43194100D01*
X79502000Y-43470360D01*
X79317409Y-43194100D01*
X78819419Y-42861354D01*
X78232000Y-42744509D01*
X77644581Y-42861354D01*
X77146591Y-43194100D01*
X76962000Y-43470360D01*
X76777409Y-43194100D01*
X76279419Y-42861354D01*
X75692000Y-42744509D01*
X75104581Y-42861354D01*
X74606591Y-43194100D01*
X74422000Y-43470360D01*
X74237409Y-43194100D01*
X73739419Y-42861354D01*
X73152000Y-42744509D01*
X72564581Y-42861354D01*
X72066591Y-43194100D01*
X71879349Y-43474328D01*
X71575079Y-43112131D01*
X71042025Y-42835025D01*
X70976740Y-42822464D01*
X70739000Y-42943122D01*
X70739000Y-44386500D01*
X70759000Y-44386500D01*
X70759000Y-44640500D01*
X70739000Y-44640500D01*
X70739000Y-46926500D01*
X70759000Y-46926500D01*
X70759000Y-47180500D01*
X70739000Y-47180500D01*
X70739000Y-48629750D01*
X70897750Y-48788500D01*
X71517000Y-48788500D01*
X71517000Y-49148995D01*
X71516999Y-49149000D01*
X71545344Y-49291500D01*
X62979300Y-49291500D01*
X62669326Y-49353158D01*
X62594013Y-49403481D01*
X62587998Y-49407500D01*
X61962405Y-49407500D01*
X61962405Y-49972882D01*
X61864008Y-50071280D01*
X61564520Y-50071280D01*
X61329203Y-50115558D01*
X61214007Y-50189685D01*
X61115370Y-50122289D01*
X60863480Y-50071280D01*
X60065920Y-50071280D01*
X59830603Y-50115558D01*
X59614479Y-50254630D01*
X59578354Y-50307500D01*
X59084614Y-50307500D01*
X58947590Y-50094559D01*
X58735390Y-49949569D01*
X58483500Y-49898560D01*
X57848500Y-49898560D01*
X57613183Y-49942838D01*
X57397059Y-50081910D01*
X57395588Y-50084063D01*
X57319198Y-50007673D01*
X57085809Y-49911000D01*
X56927750Y-49911000D01*
X56769000Y-50069750D01*
X56769000Y-50990500D01*
X56789000Y-50990500D01*
X56789000Y-51244500D01*
X56769000Y-51244500D01*
X56769000Y-52165250D01*
X56800750Y-52197000D01*
X56769000Y-52228750D01*
X56769000Y-53149500D01*
X56789000Y-53149500D01*
X56789000Y-53403500D01*
X56769000Y-53403500D01*
X56769000Y-54324250D01*
X56864250Y-54419500D01*
X56769000Y-54514750D01*
X56769000Y-55435500D01*
X56789000Y-55435500D01*
X56789000Y-55689500D01*
X56769000Y-55689500D01*
X56769000Y-56610250D01*
X56864250Y-56705500D01*
X56769000Y-56800750D01*
X56769000Y-57721500D01*
X56789000Y-57721500D01*
X56789000Y-57975500D01*
X56769000Y-57975500D01*
X56769000Y-58896250D01*
X56832500Y-58959750D01*
X56769000Y-59023250D01*
X56769000Y-59944000D01*
X56789000Y-59944000D01*
X56789000Y-60198000D01*
X56769000Y-60198000D01*
X56769000Y-61118750D01*
X56927750Y-61277500D01*
X57085809Y-61277500D01*
X57319198Y-61180827D01*
X57397286Y-61102739D01*
X57596610Y-61238931D01*
X57848500Y-61289940D01*
X58483500Y-61289940D01*
X58718817Y-61245662D01*
X58934941Y-61106590D01*
X59079931Y-60894390D01*
X59082643Y-60881000D01*
X59575948Y-60881000D01*
X59601830Y-60921221D01*
X59814030Y-61066211D01*
X60065920Y-61117220D01*
X60844215Y-61117220D01*
X60844215Y-63852510D01*
X60438635Y-63581509D01*
X59709623Y-63436500D01*
X58146377Y-63436500D01*
X57417365Y-63581509D01*
X56799339Y-63994462D01*
X56386386Y-64612488D01*
X56241377Y-65341500D01*
X56386386Y-66070512D01*
X56799339Y-66688538D01*
X57140597Y-66916560D01*
X56928000Y-66916560D01*
X56692683Y-66960838D01*
X56476559Y-67099910D01*
X56331569Y-67312110D01*
X56280560Y-67564000D01*
X56280560Y-70104000D01*
X56324838Y-70339317D01*
X56361634Y-70396500D01*
X55764500Y-70396500D01*
X55764500Y-60949876D01*
X55786173Y-61002199D01*
X55964802Y-61180827D01*
X56198191Y-61277500D01*
X56356250Y-61277500D01*
X56515000Y-61118750D01*
X56515000Y-60198000D01*
X56495000Y-60198000D01*
X56495000Y-59944000D01*
X56515000Y-59944000D01*
X56515000Y-59023250D01*
X56451500Y-58959750D01*
X56515000Y-58896250D01*
X56515000Y-57975500D01*
X56495000Y-57975500D01*
X56495000Y-57721500D01*
X56515000Y-57721500D01*
X56515000Y-56800750D01*
X56419750Y-56705500D01*
X56515000Y-56610250D01*
X56515000Y-55689500D01*
X56495000Y-55689500D01*
X56495000Y-55435500D01*
X56515000Y-55435500D01*
X56515000Y-54514750D01*
X56419750Y-54419500D01*
X56515000Y-54324250D01*
X56515000Y-53403500D01*
X56495000Y-53403500D01*
X56495000Y-53149500D01*
X56515000Y-53149500D01*
X56515000Y-52228750D01*
X56483250Y-52197000D01*
X56515000Y-52165250D01*
X56515000Y-51244500D01*
X56495000Y-51244500D01*
X56495000Y-50990500D01*
X56515000Y-50990500D01*
X56515000Y-50069750D01*
X56356250Y-49911000D01*
X56198191Y-49911000D01*
X55964802Y-50007673D01*
X55786173Y-50186301D01*
X55764500Y-50238624D01*
X55764500Y-46721325D01*
X55842551Y-46910223D01*
X57285680Y-48355872D01*
X59172182Y-49139217D01*
X61214856Y-49140999D01*
X63102723Y-48360949D01*
X64126206Y-47339250D01*
X69077000Y-47339250D01*
X69077000Y-48279810D01*
X69173673Y-48513199D01*
X69352302Y-48691827D01*
X69585691Y-48788500D01*
X70326250Y-48788500D01*
X70485000Y-48629750D01*
X70485000Y-47180500D01*
X69235750Y-47180500D01*
X69077000Y-47339250D01*
X64126206Y-47339250D01*
X64548372Y-46917820D01*
X65001241Y-45827190D01*
X69077000Y-45827190D01*
X69077000Y-46767750D01*
X69235750Y-46926500D01*
X70485000Y-46926500D01*
X70485000Y-44640500D01*
X69232738Y-44640500D01*
X69081504Y-44881997D01*
X69262487Y-45454866D01*
X69285370Y-45482105D01*
X69173673Y-45593801D01*
X69077000Y-45827190D01*
X65001241Y-45827190D01*
X65331717Y-45031318D01*
X65332490Y-44145003D01*
X69081504Y-44145003D01*
X69232738Y-44386500D01*
X70485000Y-44386500D01*
X70485000Y-42943122D01*
X70247260Y-42822464D01*
X70181975Y-42835025D01*
X69648921Y-43112131D01*
X69262487Y-43572134D01*
X69081504Y-44145003D01*
X65332490Y-44145003D01*
X65333499Y-42988644D01*
X64553449Y-41100777D01*
X63110320Y-39655128D01*
X63063051Y-39635500D01*
X136068493Y-39635500D01*
X136033277Y-39650051D01*
G36*
X183353710Y-58578750D02*
X183512460Y-58737500D01*
X184912000Y-58737500D01*
X184912000Y-58717500D01*
X185166000Y-58717500D01*
X185166000Y-58737500D01*
X186565540Y-58737500D01*
X186724290Y-58578750D01*
X186724290Y-58150500D01*
X187871500Y-58150500D01*
X187871500Y-61115571D01*
X191991500Y-61115571D01*
X191991500Y-58150500D01*
X192878710Y-58150500D01*
X192878710Y-58578750D01*
X193037460Y-58737500D01*
X194437000Y-58737500D01*
X194437000Y-58717500D01*
X194691000Y-58717500D01*
X194691000Y-58737500D01*
X196090540Y-58737500D01*
X196249290Y-58578750D01*
X196249290Y-58150500D01*
X199689488Y-58150500D01*
X200482487Y-58943500D01*
X200143093Y-58943500D01*
X199864845Y-58664765D01*
X199392724Y-58468723D01*
X198881519Y-58468277D01*
X198409057Y-58663495D01*
X198047265Y-59024655D01*
X197851223Y-59496776D01*
X197850913Y-59851929D01*
X197079000Y-59851929D01*
X197079000Y-64354071D01*
X200120917Y-64354071D01*
X199752988Y-64722000D01*
X196065959Y-64722000D01*
X196248997Y-64281196D01*
X196249582Y-63610746D01*
X195993553Y-62991107D01*
X195677361Y-62674363D01*
X195991886Y-62360387D01*
X196248997Y-61741196D01*
X196249582Y-61070746D01*
X195993553Y-60451107D01*
X195918393Y-60375816D01*
X195973989Y-60352787D01*
X196152617Y-60174158D01*
X196249290Y-59940769D01*
X196249290Y-59150250D01*
X196090540Y-58991500D01*
X194691000Y-58991500D01*
X194691000Y-59011500D01*
X194437000Y-59011500D01*
X194437000Y-58991500D01*
X193037460Y-58991500D01*
X192878710Y-59150250D01*
X192878710Y-59940769D01*
X192975383Y-60174158D01*
X193154011Y-60352787D01*
X193209205Y-60375649D01*
X193136114Y-60448613D01*
X192879003Y-61067804D01*
X192878418Y-61738254D01*
X193134447Y-62357893D01*
X193450639Y-62674637D01*
X193136114Y-62988613D01*
X192879003Y-63607804D01*
X192878418Y-64278254D01*
X193061770Y-64722000D01*
X192740513Y-64722000D01*
X191263256Y-63244744D01*
X191168220Y-63181243D01*
X191000474Y-63069158D01*
X190690500Y-63007500D01*
X188531500Y-63007500D01*
X188221526Y-63069158D01*
X188146213Y-63119481D01*
X187958743Y-63244744D01*
X186583189Y-64620299D01*
X186723997Y-64281196D01*
X186724582Y-63610746D01*
X186468553Y-62991107D01*
X186152361Y-62674363D01*
X186466886Y-62360387D01*
X186723997Y-61741196D01*
X186724582Y-61070746D01*
X186468553Y-60451107D01*
X186393393Y-60375816D01*
X186448989Y-60352787D01*
X186627617Y-60174158D01*
X186724290Y-59940769D01*
X186724290Y-59150250D01*
X186565540Y-58991500D01*
X185166000Y-58991500D01*
X185166000Y-59011500D01*
X184912000Y-59011500D01*
X184912000Y-58991500D01*
X183512460Y-58991500D01*
X183353710Y-59150250D01*
X183353710Y-59940769D01*
X183450383Y-60174158D01*
X183629011Y-60352787D01*
X183684205Y-60375649D01*
X183611114Y-60448613D01*
X183354003Y-61067804D01*
X183353418Y-61738254D01*
X183609447Y-62357893D01*
X183925639Y-62674637D01*
X183611114Y-62988613D01*
X183354003Y-63607804D01*
X183353418Y-64278254D01*
X183536770Y-64722000D01*
X183025013Y-64722000D01*
X182864500Y-64561488D01*
X182864500Y-62357000D01*
X182802842Y-62047026D01*
X182703963Y-61899043D01*
X182627256Y-61784243D01*
X181958583Y-61115571D01*
X182466500Y-61115571D01*
X182466500Y-58150500D01*
X183353710Y-58150500D01*
X183353710Y-58578750D01*
X183353710Y-58578750D01*
G37*
X183353710Y-58578750D02*
X183512460Y-58737500D01*
X184912000Y-58737500D01*
X184912000Y-58717500D01*
X185166000Y-58717500D01*
X185166000Y-58737500D01*
X186565540Y-58737500D01*
X186724290Y-58578750D01*
X186724290Y-58150500D01*
X187871500Y-58150500D01*
X187871500Y-61115571D01*
X191991500Y-61115571D01*
X191991500Y-58150500D01*
X192878710Y-58150500D01*
X192878710Y-58578750D01*
X193037460Y-58737500D01*
X194437000Y-58737500D01*
X194437000Y-58717500D01*
X194691000Y-58717500D01*
X194691000Y-58737500D01*
X196090540Y-58737500D01*
X196249290Y-58578750D01*
X196249290Y-58150500D01*
X199689488Y-58150500D01*
X200482487Y-58943500D01*
X200143093Y-58943500D01*
X199864845Y-58664765D01*
X199392724Y-58468723D01*
X198881519Y-58468277D01*
X198409057Y-58663495D01*
X198047265Y-59024655D01*
X197851223Y-59496776D01*
X197850913Y-59851929D01*
X197079000Y-59851929D01*
X197079000Y-64354071D01*
X200120917Y-64354071D01*
X199752988Y-64722000D01*
X196065959Y-64722000D01*
X196248997Y-64281196D01*
X196249582Y-63610746D01*
X195993553Y-62991107D01*
X195677361Y-62674363D01*
X195991886Y-62360387D01*
X196248997Y-61741196D01*
X196249582Y-61070746D01*
X195993553Y-60451107D01*
X195918393Y-60375816D01*
X195973989Y-60352787D01*
X196152617Y-60174158D01*
X196249290Y-59940769D01*
X196249290Y-59150250D01*
X196090540Y-58991500D01*
X194691000Y-58991500D01*
X194691000Y-59011500D01*
X194437000Y-59011500D01*
X194437000Y-58991500D01*
X193037460Y-58991500D01*
X192878710Y-59150250D01*
X192878710Y-59940769D01*
X192975383Y-60174158D01*
X193154011Y-60352787D01*
X193209205Y-60375649D01*
X193136114Y-60448613D01*
X192879003Y-61067804D01*
X192878418Y-61738254D01*
X193134447Y-62357893D01*
X193450639Y-62674637D01*
X193136114Y-62988613D01*
X192879003Y-63607804D01*
X192878418Y-64278254D01*
X193061770Y-64722000D01*
X192740513Y-64722000D01*
X191263256Y-63244744D01*
X191168220Y-63181243D01*
X191000474Y-63069158D01*
X190690500Y-63007500D01*
X188531500Y-63007500D01*
X188221526Y-63069158D01*
X188146213Y-63119481D01*
X187958743Y-63244744D01*
X186583189Y-64620299D01*
X186723997Y-64281196D01*
X186724582Y-63610746D01*
X186468553Y-62991107D01*
X186152361Y-62674363D01*
X186466886Y-62360387D01*
X186723997Y-61741196D01*
X186724582Y-61070746D01*
X186468553Y-60451107D01*
X186393393Y-60375816D01*
X186448989Y-60352787D01*
X186627617Y-60174158D01*
X186724290Y-59940769D01*
X186724290Y-59150250D01*
X186565540Y-58991500D01*
X185166000Y-58991500D01*
X185166000Y-59011500D01*
X184912000Y-59011500D01*
X184912000Y-58991500D01*
X183512460Y-58991500D01*
X183353710Y-59150250D01*
X183353710Y-59940769D01*
X183450383Y-60174158D01*
X183629011Y-60352787D01*
X183684205Y-60375649D01*
X183611114Y-60448613D01*
X183354003Y-61067804D01*
X183353418Y-61738254D01*
X183609447Y-62357893D01*
X183925639Y-62674637D01*
X183611114Y-62988613D01*
X183354003Y-63607804D01*
X183353418Y-64278254D01*
X183536770Y-64722000D01*
X183025013Y-64722000D01*
X182864500Y-64561488D01*
X182864500Y-62357000D01*
X182802842Y-62047026D01*
X182703963Y-61899043D01*
X182627256Y-61784243D01*
X181958583Y-61115571D01*
X182466500Y-61115571D01*
X182466500Y-58150500D01*
X183353710Y-58150500D01*
X183353710Y-58578750D01*
G36*
X173828710Y-58578750D02*
X173987460Y-58737500D01*
X175387000Y-58737500D01*
X175387000Y-58717500D01*
X175641000Y-58717500D01*
X175641000Y-58737500D01*
X177040540Y-58737500D01*
X177199290Y-58578750D01*
X177199290Y-58150500D01*
X178346500Y-58150500D01*
X178346500Y-60847321D01*
X178179743Y-60958744D01*
X177058189Y-62080299D01*
X177198997Y-61741196D01*
X177199582Y-61070746D01*
X176943553Y-60451107D01*
X176868393Y-60375816D01*
X176923989Y-60352787D01*
X177102617Y-60174158D01*
X177199290Y-59940769D01*
X177199290Y-59150250D01*
X177040540Y-58991500D01*
X175641000Y-58991500D01*
X175641000Y-59011500D01*
X175387000Y-59011500D01*
X175387000Y-58991500D01*
X173987460Y-58991500D01*
X173828710Y-59150250D01*
X173828710Y-59940769D01*
X173925383Y-60174158D01*
X174104011Y-60352787D01*
X174159205Y-60375649D01*
X174086114Y-60448613D01*
X173829003Y-61067804D01*
X173828418Y-61738254D01*
X174084447Y-62357893D01*
X174400639Y-62674637D01*
X174086114Y-62988613D01*
X173829003Y-63607804D01*
X173828418Y-64278254D01*
X173969703Y-64620190D01*
X173212500Y-63862988D01*
X173212500Y-59563000D01*
X173198032Y-59490265D01*
X173150843Y-59253027D01*
X172975257Y-58990244D01*
X172135513Y-58150500D01*
X173828710Y-58150500D01*
X173828710Y-58578750D01*
X173828710Y-58578750D01*
G37*
X173828710Y-58578750D02*
X173987460Y-58737500D01*
X175387000Y-58737500D01*
X175387000Y-58717500D01*
X175641000Y-58717500D01*
X175641000Y-58737500D01*
X177040540Y-58737500D01*
X177199290Y-58578750D01*
X177199290Y-58150500D01*
X178346500Y-58150500D01*
X178346500Y-60847321D01*
X178179743Y-60958744D01*
X177058189Y-62080299D01*
X177198997Y-61741196D01*
X177199582Y-61070746D01*
X176943553Y-60451107D01*
X176868393Y-60375816D01*
X176923989Y-60352787D01*
X177102617Y-60174158D01*
X177199290Y-59940769D01*
X177199290Y-59150250D01*
X177040540Y-58991500D01*
X175641000Y-58991500D01*
X175641000Y-59011500D01*
X175387000Y-59011500D01*
X175387000Y-58991500D01*
X173987460Y-58991500D01*
X173828710Y-59150250D01*
X173828710Y-59940769D01*
X173925383Y-60174158D01*
X174104011Y-60352787D01*
X174159205Y-60375649D01*
X174086114Y-60448613D01*
X173829003Y-61067804D01*
X173828418Y-61738254D01*
X174084447Y-62357893D01*
X174400639Y-62674637D01*
X174086114Y-62988613D01*
X173829003Y-63607804D01*
X173828418Y-64278254D01*
X173969703Y-64620190D01*
X173212500Y-63862988D01*
X173212500Y-59563000D01*
X173198032Y-59490265D01*
X173150843Y-59253027D01*
X172975257Y-58990244D01*
X172135513Y-58150500D01*
X173828710Y-58150500D01*
X173828710Y-58578750D01*
G36*
X216275091Y-48245900D02*
X216522501Y-48411214D01*
X216522501Y-49648790D01*
X216520223Y-49654276D01*
X216519846Y-50085996D01*
X216297421Y-50308421D01*
X216127255Y-50563093D01*
X216081983Y-50790688D01*
X216067500Y-50863500D01*
X216067500Y-60888842D01*
X215917342Y-61039000D01*
X215433459Y-61039000D01*
X215616497Y-60598196D01*
X215617082Y-59927746D01*
X215361053Y-59308107D01*
X215044861Y-58991363D01*
X215359386Y-58677387D01*
X215616497Y-58058196D01*
X215617082Y-57387746D01*
X215361053Y-56768107D01*
X215285893Y-56692816D01*
X215341489Y-56669787D01*
X215520117Y-56491158D01*
X215616790Y-56257769D01*
X215616790Y-55467250D01*
X215458040Y-55308500D01*
X214058500Y-55308500D01*
X214058500Y-55328500D01*
X213804500Y-55328500D01*
X213804500Y-55308500D01*
X213784500Y-55308500D01*
X213784500Y-55054500D01*
X213804500Y-55054500D01*
X213804500Y-55034500D01*
X214058500Y-55034500D01*
X214058500Y-55054500D01*
X215458040Y-55054500D01*
X215616790Y-54895750D01*
X215616790Y-54105231D01*
X215520117Y-53871842D01*
X215341489Y-53693213D01*
X215108100Y-53596540D01*
X214412644Y-53596540D01*
X214639235Y-53370345D01*
X214835277Y-52898224D01*
X214835723Y-52387019D01*
X214640505Y-51914557D01*
X214279345Y-51552765D01*
X213807224Y-51356723D01*
X213296019Y-51356277D01*
X213090500Y-51441196D01*
X213090500Y-50664093D01*
X213369235Y-50385845D01*
X213565277Y-49913724D01*
X213565723Y-49402519D01*
X213370505Y-48930057D01*
X213009345Y-48568265D01*
X212931705Y-48536026D01*
X213365909Y-48245900D01*
X213550500Y-47969640D01*
X213735091Y-48245900D01*
X214233081Y-48578646D01*
X214820500Y-48695491D01*
X215407919Y-48578646D01*
X215905909Y-48245900D01*
X216090500Y-47969640D01*
X216275091Y-48245900D01*
X216275091Y-48245900D01*
G37*
X216275091Y-48245900D02*
X216522501Y-48411214D01*
X216522501Y-49648790D01*
X216520223Y-49654276D01*
X216519846Y-50085996D01*
X216297421Y-50308421D01*
X216127255Y-50563093D01*
X216081983Y-50790688D01*
X216067500Y-50863500D01*
X216067500Y-60888842D01*
X215917342Y-61039000D01*
X215433459Y-61039000D01*
X215616497Y-60598196D01*
X215617082Y-59927746D01*
X215361053Y-59308107D01*
X215044861Y-58991363D01*
X215359386Y-58677387D01*
X215616497Y-58058196D01*
X215617082Y-57387746D01*
X215361053Y-56768107D01*
X215285893Y-56692816D01*
X215341489Y-56669787D01*
X215520117Y-56491158D01*
X215616790Y-56257769D01*
X215616790Y-55467250D01*
X215458040Y-55308500D01*
X214058500Y-55308500D01*
X214058500Y-55328500D01*
X213804500Y-55328500D01*
X213804500Y-55308500D01*
X213784500Y-55308500D01*
X213784500Y-55054500D01*
X213804500Y-55054500D01*
X213804500Y-55034500D01*
X214058500Y-55034500D01*
X214058500Y-55054500D01*
X215458040Y-55054500D01*
X215616790Y-54895750D01*
X215616790Y-54105231D01*
X215520117Y-53871842D01*
X215341489Y-53693213D01*
X215108100Y-53596540D01*
X214412644Y-53596540D01*
X214639235Y-53370345D01*
X214835277Y-52898224D01*
X214835723Y-52387019D01*
X214640505Y-51914557D01*
X214279345Y-51552765D01*
X213807224Y-51356723D01*
X213296019Y-51356277D01*
X213090500Y-51441196D01*
X213090500Y-50664093D01*
X213369235Y-50385845D01*
X213565277Y-49913724D01*
X213565723Y-49402519D01*
X213370505Y-48930057D01*
X213009345Y-48568265D01*
X212931705Y-48536026D01*
X213365909Y-48245900D01*
X213550500Y-47969640D01*
X213735091Y-48245900D01*
X214233081Y-48578646D01*
X214820500Y-48695491D01*
X215407919Y-48578646D01*
X215905909Y-48245900D01*
X216090500Y-47969640D01*
X216275091Y-48245900D01*
G36*
X203661010Y-46640750D02*
X203819760Y-46799500D01*
X205168500Y-46799500D01*
X205168500Y-46779500D01*
X205422500Y-46779500D01*
X205422500Y-46799500D01*
X205442500Y-46799500D01*
X205442500Y-47053500D01*
X205422500Y-47053500D01*
X205422500Y-47073500D01*
X205168500Y-47073500D01*
X205168500Y-47053500D01*
X203819760Y-47053500D01*
X203661010Y-47212250D01*
X203661010Y-48052299D01*
X203757683Y-48285688D01*
X203936311Y-48464317D01*
X203971354Y-48478832D01*
X203910654Y-48539427D01*
X203661294Y-49139953D01*
X203660726Y-49790194D01*
X203909038Y-50391155D01*
X204253980Y-50736699D01*
X203910654Y-51079427D01*
X203661294Y-51679953D01*
X203660726Y-52330194D01*
X203909038Y-52931155D01*
X204253980Y-53276699D01*
X203910654Y-53619427D01*
X203661294Y-54219953D01*
X203660726Y-54870194D01*
X203713741Y-54998500D01*
X203568501Y-54998500D01*
X203568501Y-56784500D01*
X203399972Y-56784500D01*
X203405277Y-56771724D01*
X203405723Y-56260519D01*
X203210505Y-55788057D01*
X203001500Y-55578686D01*
X203001500Y-46386000D01*
X203661010Y-46386000D01*
X203661010Y-46640750D01*
X203661010Y-46640750D01*
G37*
X203661010Y-46640750D02*
X203819760Y-46799500D01*
X205168500Y-46799500D01*
X205168500Y-46779500D01*
X205422500Y-46779500D01*
X205422500Y-46799500D01*
X205442500Y-46799500D01*
X205442500Y-47053500D01*
X205422500Y-47053500D01*
X205422500Y-47073500D01*
X205168500Y-47073500D01*
X205168500Y-47053500D01*
X203819760Y-47053500D01*
X203661010Y-47212250D01*
X203661010Y-48052299D01*
X203757683Y-48285688D01*
X203936311Y-48464317D01*
X203971354Y-48478832D01*
X203910654Y-48539427D01*
X203661294Y-49139953D01*
X203660726Y-49790194D01*
X203909038Y-50391155D01*
X204253980Y-50736699D01*
X203910654Y-51079427D01*
X203661294Y-51679953D01*
X203660726Y-52330194D01*
X203909038Y-52931155D01*
X204253980Y-53276699D01*
X203910654Y-53619427D01*
X203661294Y-54219953D01*
X203660726Y-54870194D01*
X203713741Y-54998500D01*
X203568501Y-54998500D01*
X203568501Y-56784500D01*
X203399972Y-56784500D01*
X203405277Y-56771724D01*
X203405723Y-56260519D01*
X203210505Y-55788057D01*
X203001500Y-55578686D01*
X203001500Y-46386000D01*
X203661010Y-46386000D01*
X203661010Y-46640750D01*
G36*
X182014072Y-46322500D02*
X182833010Y-46322500D01*
X182833010Y-46640750D01*
X182991760Y-46799500D01*
X184340500Y-46799500D01*
X184340500Y-46779500D01*
X184594500Y-46779500D01*
X184594500Y-46799500D01*
X185943240Y-46799500D01*
X186101990Y-46640750D01*
X186101990Y-46322500D01*
X187301929Y-46322500D01*
X187301929Y-42973500D01*
X188681572Y-42973500D01*
X188681572Y-46386000D01*
X189754510Y-46386000D01*
X189754510Y-46640750D01*
X189913260Y-46799500D01*
X191262000Y-46799500D01*
X191262000Y-46779500D01*
X191516000Y-46779500D01*
X191516000Y-46799500D01*
X192864740Y-46799500D01*
X193023490Y-46640750D01*
X193023490Y-46386000D01*
X193969429Y-46386000D01*
X193969429Y-42973500D01*
X195730072Y-42973500D01*
X195730072Y-46322500D01*
X196739510Y-46322500D01*
X196739510Y-46640750D01*
X196898260Y-46799500D01*
X198247000Y-46799500D01*
X198247000Y-46779500D01*
X198501000Y-46779500D01*
X198501000Y-46799500D01*
X199849740Y-46799500D01*
X200008490Y-46640750D01*
X200008490Y-46322500D01*
X200731500Y-46322500D01*
X200731500Y-55948988D01*
X200724756Y-55942244D01*
X200652042Y-55893658D01*
X200461974Y-55766658D01*
X200152000Y-55705000D01*
X199527015Y-55705000D01*
X199758846Y-55473573D01*
X200008206Y-54873047D01*
X200008774Y-54222806D01*
X199760462Y-53621845D01*
X199415520Y-53276301D01*
X199758846Y-52933573D01*
X200008206Y-52333047D01*
X200008774Y-51682806D01*
X199760462Y-51081845D01*
X199415520Y-50736301D01*
X199758846Y-50393573D01*
X200008206Y-49793047D01*
X200008774Y-49142806D01*
X199760462Y-48541845D01*
X199697731Y-48479004D01*
X199733189Y-48464317D01*
X199911817Y-48285688D01*
X200008490Y-48052299D01*
X200008490Y-47212250D01*
X199849740Y-47053500D01*
X198501000Y-47053500D01*
X198501000Y-47073500D01*
X198247000Y-47073500D01*
X198247000Y-47053500D01*
X196898260Y-47053500D01*
X196739510Y-47212250D01*
X196739510Y-48052299D01*
X196836183Y-48285688D01*
X197014811Y-48464317D01*
X197049854Y-48478832D01*
X196989154Y-48539427D01*
X196739794Y-49139953D01*
X196739226Y-49790194D01*
X196987538Y-50391155D01*
X197332480Y-50736699D01*
X196989154Y-51079427D01*
X196739794Y-51679953D01*
X196739226Y-52330194D01*
X196987538Y-52931155D01*
X197332480Y-53276699D01*
X196989154Y-53619427D01*
X196739794Y-54219953D01*
X196739226Y-54870194D01*
X196987538Y-55471155D01*
X197220975Y-55705000D01*
X192542015Y-55705000D01*
X192773846Y-55473573D01*
X193023206Y-54873047D01*
X193023774Y-54222806D01*
X192775462Y-53621845D01*
X192430520Y-53276301D01*
X192773846Y-52933573D01*
X193023206Y-52333047D01*
X193023774Y-51682806D01*
X192775462Y-51081845D01*
X192430520Y-50736301D01*
X192773846Y-50393573D01*
X193023206Y-49793047D01*
X193023774Y-49142806D01*
X192775462Y-48541845D01*
X192712731Y-48479004D01*
X192748189Y-48464317D01*
X192926817Y-48285688D01*
X193023490Y-48052299D01*
X193023490Y-47212250D01*
X192864740Y-47053500D01*
X191516000Y-47053500D01*
X191516000Y-47073500D01*
X191262000Y-47073500D01*
X191262000Y-47053500D01*
X189913260Y-47053500D01*
X189754510Y-47212250D01*
X189754510Y-48052299D01*
X189851183Y-48285688D01*
X190029811Y-48464317D01*
X190064854Y-48478832D01*
X190004154Y-48539427D01*
X189754794Y-49139953D01*
X189754226Y-49790194D01*
X190002538Y-50391155D01*
X190347480Y-50736699D01*
X190004154Y-51079427D01*
X189754794Y-51679953D01*
X189754226Y-52330194D01*
X190002538Y-52931155D01*
X190347480Y-53276699D01*
X190004154Y-53619427D01*
X189754794Y-54219953D01*
X189754226Y-54870194D01*
X190002538Y-55471155D01*
X190235975Y-55705000D01*
X185620515Y-55705000D01*
X185852346Y-55473573D01*
X186101706Y-54873047D01*
X186102274Y-54222806D01*
X185853962Y-53621845D01*
X185509020Y-53276301D01*
X185852346Y-52933573D01*
X186101706Y-52333047D01*
X186102274Y-51682806D01*
X185853962Y-51081845D01*
X185509020Y-50736301D01*
X185852346Y-50393573D01*
X186101706Y-49793047D01*
X186102274Y-49142806D01*
X185853962Y-48541845D01*
X185791231Y-48479004D01*
X185826689Y-48464317D01*
X186005317Y-48285688D01*
X186101990Y-48052299D01*
X186101990Y-47212250D01*
X185943240Y-47053500D01*
X184594500Y-47053500D01*
X184594500Y-47073500D01*
X184340500Y-47073500D01*
X184340500Y-47053500D01*
X182991760Y-47053500D01*
X182833010Y-47212250D01*
X182833010Y-48052299D01*
X182929683Y-48285688D01*
X183108311Y-48464317D01*
X183143354Y-48478832D01*
X183082654Y-48539427D01*
X182833294Y-49139953D01*
X182832726Y-49790194D01*
X183081038Y-50391155D01*
X183425980Y-50736699D01*
X183082654Y-51079427D01*
X182833294Y-51679953D01*
X182832726Y-52330194D01*
X183081038Y-52931155D01*
X183425980Y-53276699D01*
X183082654Y-53619427D01*
X182833294Y-54219953D01*
X182832726Y-54870194D01*
X183081038Y-55471155D01*
X183314475Y-55705000D01*
X179751604Y-55705000D01*
X179783277Y-55628724D01*
X179783723Y-55117519D01*
X179588505Y-54645057D01*
X179227345Y-54283265D01*
X178755224Y-54087223D01*
X178244019Y-54086777D01*
X177771557Y-54281995D01*
X177491062Y-54562000D01*
X177406012Y-54562000D01*
X178516513Y-53451500D01*
X178888407Y-53451500D01*
X179166655Y-53730235D01*
X179638776Y-53926277D01*
X180149981Y-53926723D01*
X180622443Y-53731505D01*
X180984235Y-53370345D01*
X181180277Y-52898224D01*
X181180723Y-52387019D01*
X180985505Y-51914557D01*
X180624345Y-51552765D01*
X180187318Y-51371295D01*
X180622443Y-51191505D01*
X180984235Y-50830345D01*
X181180277Y-50358224D01*
X181180723Y-49847019D01*
X180985505Y-49374557D01*
X180624345Y-49012765D01*
X180261039Y-48861907D01*
X180063066Y-48663934D01*
X180008302Y-48627342D01*
X179895502Y-48551971D01*
X179895502Y-48496879D01*
X180133240Y-48617536D01*
X180198525Y-48604975D01*
X180731579Y-48327869D01*
X181118013Y-47867866D01*
X181298996Y-47294997D01*
X181147762Y-47053500D01*
X179895500Y-47053500D01*
X179895500Y-47073500D01*
X179641500Y-47073500D01*
X179641500Y-47053500D01*
X179621500Y-47053500D01*
X179621500Y-46799500D01*
X179641500Y-46799500D01*
X179641500Y-44513500D01*
X179895500Y-44513500D01*
X179895500Y-46799500D01*
X181147762Y-46799500D01*
X181298996Y-46558003D01*
X181118013Y-45985134D01*
X180841938Y-45656500D01*
X181118013Y-45327866D01*
X181298996Y-44754997D01*
X181147762Y-44513500D01*
X179895500Y-44513500D01*
X179641500Y-44513500D01*
X179621500Y-44513500D01*
X179621500Y-44259500D01*
X179641500Y-44259500D01*
X179641500Y-44239500D01*
X179895500Y-44239500D01*
X179895500Y-44259500D01*
X181147762Y-44259500D01*
X181298996Y-44018003D01*
X181118013Y-43445134D01*
X180731579Y-42985131D01*
X180709205Y-42973500D01*
X182014072Y-42973500D01*
X182014072Y-46322500D01*
X182014072Y-46322500D01*
G37*
X182014072Y-46322500D02*
X182833010Y-46322500D01*
X182833010Y-46640750D01*
X182991760Y-46799500D01*
X184340500Y-46799500D01*
X184340500Y-46779500D01*
X184594500Y-46779500D01*
X184594500Y-46799500D01*
X185943240Y-46799500D01*
X186101990Y-46640750D01*
X186101990Y-46322500D01*
X187301929Y-46322500D01*
X187301929Y-42973500D01*
X188681572Y-42973500D01*
X188681572Y-46386000D01*
X189754510Y-46386000D01*
X189754510Y-46640750D01*
X189913260Y-46799500D01*
X191262000Y-46799500D01*
X191262000Y-46779500D01*
X191516000Y-46779500D01*
X191516000Y-46799500D01*
X192864740Y-46799500D01*
X193023490Y-46640750D01*
X193023490Y-46386000D01*
X193969429Y-46386000D01*
X193969429Y-42973500D01*
X195730072Y-42973500D01*
X195730072Y-46322500D01*
X196739510Y-46322500D01*
X196739510Y-46640750D01*
X196898260Y-46799500D01*
X198247000Y-46799500D01*
X198247000Y-46779500D01*
X198501000Y-46779500D01*
X198501000Y-46799500D01*
X199849740Y-46799500D01*
X200008490Y-46640750D01*
X200008490Y-46322500D01*
X200731500Y-46322500D01*
X200731500Y-55948988D01*
X200724756Y-55942244D01*
X200652042Y-55893658D01*
X200461974Y-55766658D01*
X200152000Y-55705000D01*
X199527015Y-55705000D01*
X199758846Y-55473573D01*
X200008206Y-54873047D01*
X200008774Y-54222806D01*
X199760462Y-53621845D01*
X199415520Y-53276301D01*
X199758846Y-52933573D01*
X200008206Y-52333047D01*
X200008774Y-51682806D01*
X199760462Y-51081845D01*
X199415520Y-50736301D01*
X199758846Y-50393573D01*
X200008206Y-49793047D01*
X200008774Y-49142806D01*
X199760462Y-48541845D01*
X199697731Y-48479004D01*
X199733189Y-48464317D01*
X199911817Y-48285688D01*
X200008490Y-48052299D01*
X200008490Y-47212250D01*
X199849740Y-47053500D01*
X198501000Y-47053500D01*
X198501000Y-47073500D01*
X198247000Y-47073500D01*
X198247000Y-47053500D01*
X196898260Y-47053500D01*
X196739510Y-47212250D01*
X196739510Y-48052299D01*
X196836183Y-48285688D01*
X197014811Y-48464317D01*
X197049854Y-48478832D01*
X196989154Y-48539427D01*
X196739794Y-49139953D01*
X196739226Y-49790194D01*
X196987538Y-50391155D01*
X197332480Y-50736699D01*
X196989154Y-51079427D01*
X196739794Y-51679953D01*
X196739226Y-52330194D01*
X196987538Y-52931155D01*
X197332480Y-53276699D01*
X196989154Y-53619427D01*
X196739794Y-54219953D01*
X196739226Y-54870194D01*
X196987538Y-55471155D01*
X197220975Y-55705000D01*
X192542015Y-55705000D01*
X192773846Y-55473573D01*
X193023206Y-54873047D01*
X193023774Y-54222806D01*
X192775462Y-53621845D01*
X192430520Y-53276301D01*
X192773846Y-52933573D01*
X193023206Y-52333047D01*
X193023774Y-51682806D01*
X192775462Y-51081845D01*
X192430520Y-50736301D01*
X192773846Y-50393573D01*
X193023206Y-49793047D01*
X193023774Y-49142806D01*
X192775462Y-48541845D01*
X192712731Y-48479004D01*
X192748189Y-48464317D01*
X192926817Y-48285688D01*
X193023490Y-48052299D01*
X193023490Y-47212250D01*
X192864740Y-47053500D01*
X191516000Y-47053500D01*
X191516000Y-47073500D01*
X191262000Y-47073500D01*
X191262000Y-47053500D01*
X189913260Y-47053500D01*
X189754510Y-47212250D01*
X189754510Y-48052299D01*
X189851183Y-48285688D01*
X190029811Y-48464317D01*
X190064854Y-48478832D01*
X190004154Y-48539427D01*
X189754794Y-49139953D01*
X189754226Y-49790194D01*
X190002538Y-50391155D01*
X190347480Y-50736699D01*
X190004154Y-51079427D01*
X189754794Y-51679953D01*
X189754226Y-52330194D01*
X190002538Y-52931155D01*
X190347480Y-53276699D01*
X190004154Y-53619427D01*
X189754794Y-54219953D01*
X189754226Y-54870194D01*
X190002538Y-55471155D01*
X190235975Y-55705000D01*
X185620515Y-55705000D01*
X185852346Y-55473573D01*
X186101706Y-54873047D01*
X186102274Y-54222806D01*
X185853962Y-53621845D01*
X185509020Y-53276301D01*
X185852346Y-52933573D01*
X186101706Y-52333047D01*
X186102274Y-51682806D01*
X185853962Y-51081845D01*
X185509020Y-50736301D01*
X185852346Y-50393573D01*
X186101706Y-49793047D01*
X186102274Y-49142806D01*
X185853962Y-48541845D01*
X185791231Y-48479004D01*
X185826689Y-48464317D01*
X186005317Y-48285688D01*
X186101990Y-48052299D01*
X186101990Y-47212250D01*
X185943240Y-47053500D01*
X184594500Y-47053500D01*
X184594500Y-47073500D01*
X184340500Y-47073500D01*
X184340500Y-47053500D01*
X182991760Y-47053500D01*
X182833010Y-47212250D01*
X182833010Y-48052299D01*
X182929683Y-48285688D01*
X183108311Y-48464317D01*
X183143354Y-48478832D01*
X183082654Y-48539427D01*
X182833294Y-49139953D01*
X182832726Y-49790194D01*
X183081038Y-50391155D01*
X183425980Y-50736699D01*
X183082654Y-51079427D01*
X182833294Y-51679953D01*
X182832726Y-52330194D01*
X183081038Y-52931155D01*
X183425980Y-53276699D01*
X183082654Y-53619427D01*
X182833294Y-54219953D01*
X182832726Y-54870194D01*
X183081038Y-55471155D01*
X183314475Y-55705000D01*
X179751604Y-55705000D01*
X179783277Y-55628724D01*
X179783723Y-55117519D01*
X179588505Y-54645057D01*
X179227345Y-54283265D01*
X178755224Y-54087223D01*
X178244019Y-54086777D01*
X177771557Y-54281995D01*
X177491062Y-54562000D01*
X177406012Y-54562000D01*
X178516513Y-53451500D01*
X178888407Y-53451500D01*
X179166655Y-53730235D01*
X179638776Y-53926277D01*
X180149981Y-53926723D01*
X180622443Y-53731505D01*
X180984235Y-53370345D01*
X181180277Y-52898224D01*
X181180723Y-52387019D01*
X180985505Y-51914557D01*
X180624345Y-51552765D01*
X180187318Y-51371295D01*
X180622443Y-51191505D01*
X180984235Y-50830345D01*
X181180277Y-50358224D01*
X181180723Y-49847019D01*
X180985505Y-49374557D01*
X180624345Y-49012765D01*
X180261039Y-48861907D01*
X180063066Y-48663934D01*
X180008302Y-48627342D01*
X179895502Y-48551971D01*
X179895502Y-48496879D01*
X180133240Y-48617536D01*
X180198525Y-48604975D01*
X180731579Y-48327869D01*
X181118013Y-47867866D01*
X181298996Y-47294997D01*
X181147762Y-47053500D01*
X179895500Y-47053500D01*
X179895500Y-47073500D01*
X179641500Y-47073500D01*
X179641500Y-47053500D01*
X179621500Y-47053500D01*
X179621500Y-46799500D01*
X179641500Y-46799500D01*
X179641500Y-44513500D01*
X179895500Y-44513500D01*
X179895500Y-46799500D01*
X181147762Y-46799500D01*
X181298996Y-46558003D01*
X181118013Y-45985134D01*
X180841938Y-45656500D01*
X181118013Y-45327866D01*
X181298996Y-44754997D01*
X181147762Y-44513500D01*
X179895500Y-44513500D01*
X179641500Y-44513500D01*
X179621500Y-44513500D01*
X179621500Y-44259500D01*
X179641500Y-44259500D01*
X179641500Y-44239500D01*
X179895500Y-44239500D01*
X179895500Y-44259500D01*
X181147762Y-44259500D01*
X181298996Y-44018003D01*
X181118013Y-43445134D01*
X180731579Y-42985131D01*
X180709205Y-42973500D01*
X182014072Y-42973500D01*
X182014072Y-46322500D01*
G36*
X209867500Y-44259500D02*
X209887500Y-44259500D01*
X209887500Y-44513500D01*
X209867500Y-44513500D01*
X209867500Y-46799500D01*
X209887500Y-46799500D01*
X209887500Y-47053500D01*
X209867500Y-47053500D01*
X209867500Y-48502750D01*
X210026250Y-48661500D01*
X210766809Y-48661500D01*
X211000198Y-48564827D01*
X211178827Y-48386199D01*
X211227869Y-48267801D01*
X211628994Y-48535825D01*
X211553557Y-48566995D01*
X211191765Y-48928155D01*
X211074521Y-49210509D01*
X210948256Y-49084244D01*
X210934414Y-49074995D01*
X210685474Y-48908658D01*
X210375500Y-48847000D01*
X209187013Y-48847000D01*
X209026500Y-48686488D01*
X209026500Y-48661500D01*
X209454750Y-48661500D01*
X209613500Y-48502750D01*
X209613500Y-47053500D01*
X209593500Y-47053500D01*
X209593500Y-46799500D01*
X209613500Y-46799500D01*
X209613500Y-44513500D01*
X209593500Y-44513500D01*
X209593500Y-44259500D01*
X209613500Y-44259500D01*
X209613500Y-44239500D01*
X209867500Y-44239500D01*
X209867500Y-44259500D01*
X209867500Y-44259500D01*
G37*
X209867500Y-44259500D02*
X209887500Y-44259500D01*
X209887500Y-44513500D01*
X209867500Y-44513500D01*
X209867500Y-46799500D01*
X209887500Y-46799500D01*
X209887500Y-47053500D01*
X209867500Y-47053500D01*
X209867500Y-48502750D01*
X210026250Y-48661500D01*
X210766809Y-48661500D01*
X211000198Y-48564827D01*
X211178827Y-48386199D01*
X211227869Y-48267801D01*
X211628994Y-48535825D01*
X211553557Y-48566995D01*
X211191765Y-48928155D01*
X211074521Y-49210509D01*
X210948256Y-49084244D01*
X210934414Y-49074995D01*
X210685474Y-48908658D01*
X210375500Y-48847000D01*
X209187013Y-48847000D01*
X209026500Y-48686488D01*
X209026500Y-48661500D01*
X209454750Y-48661500D01*
X209613500Y-48502750D01*
X209613500Y-47053500D01*
X209593500Y-47053500D01*
X209593500Y-46799500D01*
X209613500Y-46799500D01*
X209613500Y-44513500D01*
X209593500Y-44513500D01*
X209593500Y-44259500D01*
X209613500Y-44259500D01*
X209613500Y-44239500D01*
X209867500Y-44239500D01*
X209867500Y-44259500D01*
M02*
