%FSLAX45Y45*%
G04 Gerber Fmt 4.5, Leading zero omitted, Abs format (unit mm)*
G04 Created by KiCad (PCBNEW 4.0.7) date 03/26/18 23:13:57*
%MOMM*%
%LPD*%
G01*
G04 APERTURE LIST*
%ADD10C,0.127000*%
%ADD11C,0.381000*%
%ADD12C,0.200000*%
%ADD13C,0.300000*%
G04 APERTURE END LIST*
D10*
D11*
X8166100Y-15900400D02*
X8166100Y-4140200D01*
X16903700Y-15900400D02*
X8166100Y-15900400D01*
X16903700Y-4140200D02*
X16903700Y-15900400D01*
X8166100Y-4140200D02*
X16903700Y-4140200D01*
D12*
X8415528Y-10053828D02*
X8475472Y-10113772D01*
X8475472Y-10053828D02*
X8415528Y-10113772D01*
X8415528Y-10358628D02*
X8475472Y-10418572D01*
X8475472Y-10358628D02*
X8415528Y-10418572D01*
X8468868Y-12019788D02*
X8528812Y-12079732D01*
X8528812Y-12019788D02*
X8468868Y-12079732D01*
X8491728Y-12581128D02*
X8551672Y-12641072D01*
X8551672Y-12581128D02*
X8491728Y-12641072D01*
X8600948Y-6888988D02*
X8660892Y-6948932D01*
X8660892Y-6888988D02*
X8600948Y-6948932D01*
X8606028Y-14816328D02*
X8665972Y-14876272D01*
X8665972Y-14816328D02*
X8606028Y-14876272D01*
X8682228Y-10180828D02*
X8742172Y-10240772D01*
X8742172Y-10180828D02*
X8682228Y-10240772D01*
X8758428Y-10490708D02*
X8818372Y-10550652D01*
X8818372Y-10490708D02*
X8758428Y-10550652D01*
X8860028Y-14813788D02*
X8919972Y-14873732D01*
X8919972Y-14813788D02*
X8860028Y-14873732D01*
X8872728Y-6256528D02*
X8932672Y-6316472D01*
X8932672Y-6256528D02*
X8872728Y-6316472D01*
X8900668Y-10688828D02*
X8960612Y-10748772D01*
X8960612Y-10688828D02*
X8900668Y-10748772D01*
X9012428Y-6904228D02*
X9072372Y-6964172D01*
X9072372Y-6904228D02*
X9012428Y-6964172D01*
X9108948Y-14813788D02*
X9168892Y-14873732D01*
X9168892Y-14813788D02*
X9108948Y-14873732D01*
X9190228Y-6332728D02*
X9250172Y-6392672D01*
X9250172Y-6332728D02*
X9190228Y-6392672D01*
X9215628Y-11857228D02*
X9275572Y-11917172D01*
X9275572Y-11857228D02*
X9215628Y-11917172D01*
X9279128Y-5062728D02*
X9339072Y-5122672D01*
X9339072Y-5062728D02*
X9279128Y-5122672D01*
X9327388Y-11029188D02*
X9387332Y-11089132D01*
X9387332Y-11029188D02*
X9327388Y-11089132D01*
X9352788Y-10846308D02*
X9412732Y-10906252D01*
X9412732Y-10846308D02*
X9352788Y-10906252D01*
X9393428Y-12708128D02*
X9453372Y-12768072D01*
X9453372Y-12708128D02*
X9393428Y-12768072D01*
X9418828Y-9444228D02*
X9478772Y-9504172D01*
X9478772Y-9444228D02*
X9418828Y-9504172D01*
X9558528Y-14816328D02*
X9618472Y-14876272D01*
X9618472Y-14816328D02*
X9558528Y-14876272D01*
X9609328Y-9368028D02*
X9669272Y-9427972D01*
X9669272Y-9368028D02*
X9609328Y-9427972D01*
X9622028Y-11374628D02*
X9681972Y-11434572D01*
X9681972Y-11374628D02*
X9622028Y-11434572D01*
X9622028Y-11641328D02*
X9681972Y-11701272D01*
X9681972Y-11641328D02*
X9622028Y-11701272D01*
X9647428Y-8809228D02*
X9707372Y-8869172D01*
X9707372Y-8809228D02*
X9647428Y-8869172D01*
X9672828Y-5265928D02*
X9732772Y-5325872D01*
X9732772Y-5265928D02*
X9672828Y-5325872D01*
X9672828Y-6408928D02*
X9732772Y-6468872D01*
X9732772Y-6408928D02*
X9672828Y-6468872D01*
X9698228Y-5583428D02*
X9758172Y-5643372D01*
X9758172Y-5583428D02*
X9698228Y-5643372D01*
X9698228Y-5812028D02*
X9758172Y-5871972D01*
X9758172Y-5812028D02*
X9698228Y-5871972D01*
X9749028Y-12327128D02*
X9808972Y-12387072D01*
X9808972Y-12327128D02*
X9749028Y-12387072D01*
X9799828Y-9657588D02*
X9859772Y-9717532D01*
X9859772Y-9657588D02*
X9799828Y-9717532D01*
X9815068Y-11110468D02*
X9875012Y-11170412D01*
X9875012Y-11110468D02*
X9815068Y-11170412D01*
X9825228Y-9164828D02*
X9885172Y-9224772D01*
X9885172Y-9164828D02*
X9825228Y-9224772D01*
X9939528Y-4529328D02*
X9999472Y-4589272D01*
X9999472Y-4529328D02*
X9939528Y-4589272D01*
X9977628Y-6408928D02*
X10037572Y-6468872D01*
X10037572Y-6408928D02*
X9977628Y-6468872D01*
X9992868Y-5974588D02*
X10052812Y-6034532D01*
X10052812Y-5974588D02*
X9992868Y-6034532D01*
X10041128Y-7717028D02*
X10101072Y-7776972D01*
X10101072Y-7717028D02*
X10041128Y-7776972D01*
X10063988Y-9743948D02*
X10123932Y-9803892D01*
X10123932Y-9743948D02*
X10063988Y-9803892D01*
X10079228Y-9355328D02*
X10139172Y-9415272D01*
X10139172Y-9355328D02*
X10079228Y-9415272D01*
X10079228Y-12454128D02*
X10139172Y-12514072D01*
X10139172Y-12454128D02*
X10079228Y-12514072D01*
X10168128Y-7831328D02*
X10228072Y-7891272D01*
X10228072Y-7831328D02*
X10168128Y-7891272D01*
X10180828Y-6396228D02*
X10240772Y-6456172D01*
X10240772Y-6396228D02*
X10180828Y-6456172D01*
X10218928Y-9241028D02*
X10278872Y-9300972D01*
X10278872Y-9241028D02*
X10218928Y-9300972D01*
X10231628Y-12670028D02*
X10291572Y-12729972D01*
X10291572Y-12670028D02*
X10231628Y-12729972D01*
X10282428Y-8733028D02*
X10342372Y-8792972D01*
X10342372Y-8733028D02*
X10282428Y-8792972D01*
X10287508Y-9749028D02*
X10347452Y-9808972D01*
X10347452Y-9749028D02*
X10287508Y-9808972D01*
X10307828Y-8059928D02*
X10367772Y-8119872D01*
X10367772Y-8059928D02*
X10307828Y-8119872D01*
X10320528Y-8377428D02*
X10380472Y-8437372D01*
X10380472Y-8377428D02*
X10320528Y-8437372D01*
X10371328Y-4516628D02*
X10431272Y-4576572D01*
X10431272Y-4516628D02*
X10371328Y-4576572D01*
X10422128Y-7539228D02*
X10482072Y-7599172D01*
X10482072Y-7539228D02*
X10422128Y-7599172D01*
X10434828Y-12377928D02*
X10494772Y-12437872D01*
X10494772Y-12377928D02*
X10434828Y-12437872D01*
X10587228Y-9431528D02*
X10647172Y-9491472D01*
X10647172Y-9431528D02*
X10587228Y-9491472D01*
X10739628Y-11158728D02*
X10799572Y-11218672D01*
X10799572Y-11158728D02*
X10739628Y-11218672D01*
X10749788Y-9032748D02*
X10809732Y-9092692D01*
X10809732Y-9032748D02*
X10749788Y-9092692D01*
X10752328Y-4465828D02*
X10812272Y-4525772D01*
X10812272Y-4465828D02*
X10752328Y-4525772D01*
X10752328Y-6002528D02*
X10812272Y-6062472D01*
X10812272Y-6002528D02*
X10752328Y-6062472D01*
X10765028Y-13190728D02*
X10824972Y-13250672D01*
X10824972Y-13190728D02*
X10765028Y-13250672D01*
X10790428Y-12809728D02*
X10850372Y-12869672D01*
X10850372Y-12809728D02*
X10790428Y-12869672D01*
X10803128Y-7539228D02*
X10863072Y-7599172D01*
X10863072Y-7539228D02*
X10803128Y-7599172D01*
X10841228Y-9698228D02*
X10901172Y-9758172D01*
X10901172Y-9698228D02*
X10841228Y-9758172D01*
X10841228Y-13698728D02*
X10901172Y-13758672D01*
X10901172Y-13698728D02*
X10841228Y-13758672D01*
X10993628Y-4478528D02*
X11053572Y-4538472D01*
X11053572Y-4478528D02*
X10993628Y-4538472D01*
X11019028Y-12708128D02*
X11078972Y-12768072D01*
X11078972Y-12708128D02*
X11019028Y-12768072D01*
X11069828Y-6416548D02*
X11129772Y-6476492D01*
X11129772Y-6416548D02*
X11069828Y-6476492D01*
X11120628Y-6015228D02*
X11180572Y-6075172D01*
X11180572Y-6015228D02*
X11120628Y-6075172D01*
X11146028Y-11488928D02*
X11205972Y-11548872D01*
X11205972Y-11488928D02*
X11146028Y-11548872D01*
X11171428Y-14257528D02*
X11231372Y-14317472D01*
X11231372Y-14257528D02*
X11171428Y-14317472D01*
X11293348Y-4491228D02*
X11353292Y-4551172D01*
X11353292Y-4491228D02*
X11293348Y-4551172D01*
X11527028Y-14816328D02*
X11586972Y-14876272D01*
X11586972Y-14816328D02*
X11527028Y-14876272D01*
X11539728Y-8733028D02*
X11599672Y-8792972D01*
X11599672Y-8733028D02*
X11539728Y-8792972D01*
X11552428Y-12657328D02*
X11612372Y-12717272D01*
X11612372Y-12657328D02*
X11552428Y-12717272D01*
X11577828Y-8961628D02*
X11637772Y-9021572D01*
X11637772Y-8961628D02*
X11577828Y-9021572D01*
X11641328Y-6015228D02*
X11701272Y-6075172D01*
X11701272Y-6015228D02*
X11641328Y-6075172D01*
X11742928Y-7831328D02*
X11802872Y-7891272D01*
X11802872Y-7831328D02*
X11742928Y-7891272D01*
X11755628Y-7653528D02*
X11815572Y-7713472D01*
X11815572Y-7653528D02*
X11755628Y-7713472D01*
X11806428Y-14016228D02*
X11866372Y-14076172D01*
X11866372Y-14016228D02*
X11806428Y-14076172D01*
X11857228Y-8961628D02*
X11917172Y-9021572D01*
X11917172Y-8961628D02*
X11857228Y-9021572D01*
X11872468Y-8219948D02*
X11932412Y-8279892D01*
X11932412Y-8219948D02*
X11872468Y-8279892D01*
X11895328Y-5977128D02*
X11955272Y-6037072D01*
X11955272Y-5977128D02*
X11895328Y-6037072D01*
X12060428Y-12454128D02*
X12120372Y-12514072D01*
X12120372Y-12454128D02*
X12060428Y-12514072D01*
X12060428Y-15121128D02*
X12120372Y-15181072D01*
X12120372Y-15121128D02*
X12060428Y-15181072D01*
X12111228Y-10498328D02*
X12171172Y-10558272D01*
X12171172Y-10498328D02*
X12111228Y-10558272D01*
X12225528Y-11806428D02*
X12285472Y-11866372D01*
X12285472Y-11806428D02*
X12225528Y-11866372D01*
X12238228Y-13190728D02*
X12298172Y-13250672D01*
X12298172Y-13190728D02*
X12238228Y-13250672D01*
X12289028Y-13508228D02*
X12348972Y-13568172D01*
X12348972Y-13508228D02*
X12289028Y-13568172D01*
X12314428Y-5812028D02*
X12374372Y-5871972D01*
X12374372Y-5812028D02*
X12314428Y-5871972D01*
X12314428Y-6761988D02*
X12374372Y-6821932D01*
X12374372Y-6761988D02*
X12314428Y-6821932D01*
X12339828Y-5512308D02*
X12399772Y-5572252D01*
X12399772Y-5512308D02*
X12339828Y-5572252D01*
X12344908Y-5070348D02*
X12404852Y-5130292D01*
X12404852Y-5070348D02*
X12344908Y-5130292D01*
X12344908Y-5314188D02*
X12404852Y-5374132D01*
X12404852Y-5314188D02*
X12344908Y-5374132D01*
X12441428Y-14270228D02*
X12501372Y-14330172D01*
X12501372Y-14270228D02*
X12441428Y-14330172D01*
X12451588Y-6137148D02*
X12511532Y-6197092D01*
X12511532Y-6137148D02*
X12451588Y-6197092D01*
X12517628Y-5964428D02*
X12577572Y-6024372D01*
X12577572Y-5964428D02*
X12517628Y-6024372D01*
X12517628Y-12657328D02*
X12577572Y-12717272D01*
X12577572Y-12657328D02*
X12517628Y-12717272D01*
X12522708Y-5568188D02*
X12582652Y-5628132D01*
X12582652Y-5568188D02*
X12522708Y-5628132D01*
X12606528Y-6599428D02*
X12666472Y-6659372D01*
X12666472Y-6599428D02*
X12606528Y-6659372D01*
X12624308Y-6853428D02*
X12684252Y-6913372D01*
X12684252Y-6853428D02*
X12624308Y-6913372D01*
X12695428Y-11361928D02*
X12755372Y-11421872D01*
X12755372Y-11361928D02*
X12695428Y-11421872D01*
X12784328Y-14765528D02*
X12844272Y-14825472D01*
X12844272Y-14765528D02*
X12784328Y-14825472D01*
X12924028Y-5918708D02*
X12983972Y-5978652D01*
X12983972Y-5918708D02*
X12924028Y-5978652D01*
X12974828Y-8847328D02*
X13034772Y-8907272D01*
X13034772Y-8847328D02*
X12974828Y-8907272D01*
X12974828Y-9393428D02*
X13034772Y-9453372D01*
X13034772Y-9393428D02*
X12974828Y-9453372D01*
X13000228Y-5126228D02*
X13060172Y-5186172D01*
X13060172Y-5126228D02*
X13000228Y-5186172D01*
X13000228Y-8542528D02*
X13060172Y-8602472D01*
X13060172Y-8542528D02*
X13000228Y-8602472D01*
X13012928Y-9749028D02*
X13072872Y-9808972D01*
X13072872Y-9749028D02*
X13012928Y-9808972D01*
X13012928Y-9977628D02*
X13072872Y-10037572D01*
X13072872Y-9977628D02*
X13012928Y-10037572D01*
X13030708Y-7168388D02*
X13090652Y-7228332D01*
X13090652Y-7168388D02*
X13030708Y-7228332D01*
X13076428Y-12631928D02*
X13136372Y-12691872D01*
X13136372Y-12631928D02*
X13076428Y-12691872D01*
X13076428Y-14765528D02*
X13136372Y-14825472D01*
X13136372Y-14765528D02*
X13076428Y-14825472D01*
X13139928Y-9101328D02*
X13199872Y-9161272D01*
X13199872Y-9101328D02*
X13139928Y-9161272D01*
X13142468Y-5563108D02*
X13202412Y-5623052D01*
X13202412Y-5563108D02*
X13142468Y-5623052D01*
X13152628Y-9863328D02*
X13212572Y-9923272D01*
X13212572Y-9863328D02*
X13152628Y-9923272D01*
X13165328Y-10574528D02*
X13225272Y-10634472D01*
X13225272Y-10574528D02*
X13165328Y-10634472D01*
X13198348Y-10876788D02*
X13258292Y-10936732D01*
X13258292Y-10876788D02*
X13198348Y-10936732D01*
X13203428Y-5146548D02*
X13263372Y-5206492D01*
X13263372Y-5146548D02*
X13203428Y-5206492D01*
X13228828Y-4288028D02*
X13288772Y-4347972D01*
X13288772Y-4288028D02*
X13228828Y-4347972D01*
X13292328Y-7602728D02*
X13352272Y-7662672D01*
X13352272Y-7602728D02*
X13292328Y-7662672D01*
X13292328Y-7844028D02*
X13352272Y-7903972D01*
X13352272Y-7844028D02*
X13292328Y-7903972D01*
X13305028Y-8098028D02*
X13364972Y-8157972D01*
X13364972Y-8098028D02*
X13305028Y-8157972D01*
X13305028Y-8339328D02*
X13364972Y-8399272D01*
X13364972Y-8339328D02*
X13305028Y-8399272D01*
X13330428Y-14232128D02*
X13390372Y-14292072D01*
X13390372Y-14232128D02*
X13330428Y-14292072D01*
X13355828Y-10460228D02*
X13415772Y-10520172D01*
X13415772Y-10460228D02*
X13355828Y-10520172D01*
X13444728Y-10701528D02*
X13504672Y-10761472D01*
X13504672Y-10701528D02*
X13444728Y-10761472D01*
X13462508Y-4745228D02*
X13522452Y-4805172D01*
X13522452Y-4745228D02*
X13462508Y-4805172D01*
X13482828Y-14765528D02*
X13542772Y-14825472D01*
X13542772Y-14765528D02*
X13482828Y-14825472D01*
X13571728Y-12390628D02*
X13631672Y-12450572D01*
X13631672Y-12390628D02*
X13571728Y-12450572D01*
X13584428Y-10853928D02*
X13644372Y-10913872D01*
X13644372Y-10853928D02*
X13584428Y-10913872D01*
X13609828Y-4465828D02*
X13669772Y-4525772D01*
X13669772Y-4465828D02*
X13609828Y-4525772D01*
X13647928Y-4745228D02*
X13707872Y-4805172D01*
X13707872Y-4745228D02*
X13647928Y-4805172D01*
X13774928Y-6154928D02*
X13834872Y-6214872D01*
X13834872Y-6154928D02*
X13774928Y-6214872D01*
X13787628Y-5649468D02*
X13847572Y-5709412D01*
X13847572Y-5649468D02*
X13787628Y-5709412D01*
X13813028Y-13190728D02*
X13872972Y-13250672D01*
X13872972Y-13190728D02*
X13813028Y-13250672D01*
X13828268Y-8225028D02*
X13888212Y-8284972D01*
X13888212Y-8225028D02*
X13828268Y-8284972D01*
X13838428Y-13508228D02*
X13898372Y-13568172D01*
X13898372Y-13508228D02*
X13838428Y-13568172D01*
X13838428Y-14765528D02*
X13898372Y-14825472D01*
X13898372Y-14765528D02*
X13838428Y-14825472D01*
X13889228Y-10853928D02*
X13949172Y-10913872D01*
X13949172Y-10853928D02*
X13889228Y-10913872D01*
X13889228Y-11158728D02*
X13949172Y-11218672D01*
X13949172Y-11158728D02*
X13889228Y-11218672D01*
X13940028Y-8077708D02*
X13999972Y-8137652D01*
X13999972Y-8077708D02*
X13940028Y-8137652D01*
X14031468Y-7483348D02*
X14091412Y-7543292D01*
X14091412Y-7483348D02*
X14031468Y-7543292D01*
X14041628Y-12657328D02*
X14101572Y-12717272D01*
X14101572Y-12657328D02*
X14041628Y-12717272D01*
X14194028Y-11361928D02*
X14253972Y-11421872D01*
X14253972Y-11361928D02*
X14194028Y-11421872D01*
X14209268Y-7986268D02*
X14269212Y-8046212D01*
X14269212Y-7986268D02*
X14209268Y-8046212D01*
X14232128Y-14028928D02*
X14292072Y-14088872D01*
X14292072Y-14028928D02*
X14232128Y-14088872D01*
X14239748Y-5568188D02*
X14299692Y-5628132D01*
X14299692Y-5568188D02*
X14239748Y-5628132D01*
X14239748Y-8199628D02*
X14299692Y-8259572D01*
X14299692Y-8199628D02*
X14239748Y-8259572D01*
X14275308Y-7503668D02*
X14335252Y-7563612D01*
X14335252Y-7503668D02*
X14275308Y-7563612D01*
X14282928Y-10714228D02*
X14342872Y-10774172D01*
X14342872Y-10714228D02*
X14282928Y-10774172D01*
X14448028Y-8143748D02*
X14507972Y-8203692D01*
X14507972Y-8143748D02*
X14448028Y-8203692D01*
X14600428Y-12631928D02*
X14660372Y-12691872D01*
X14660372Y-12631928D02*
X14600428Y-12691872D01*
X14663928Y-5253228D02*
X14723872Y-5313172D01*
X14723872Y-5253228D02*
X14663928Y-5313172D01*
X14686788Y-6492748D02*
X14746732Y-6552692D01*
X14746732Y-6492748D02*
X14686788Y-6552692D01*
X14722348Y-8367268D02*
X14782292Y-8427212D01*
X14782292Y-8367268D02*
X14722348Y-8427212D01*
X14765528Y-10460228D02*
X14825472Y-10520172D01*
X14825472Y-10460228D02*
X14765528Y-10520172D01*
X14765528Y-10930128D02*
X14825472Y-10990072D01*
X14825472Y-10930128D02*
X14765528Y-10990072D01*
X14849348Y-8646668D02*
X14909292Y-8706612D01*
X14909292Y-8646668D02*
X14849348Y-8706612D01*
X14854428Y-13901928D02*
X14914372Y-13961872D01*
X14914372Y-13901928D02*
X14854428Y-13961872D01*
X14877288Y-6347968D02*
X14937232Y-6407912D01*
X14937232Y-6347968D02*
X14877288Y-6407912D01*
X14930628Y-5418328D02*
X14990572Y-5478272D01*
X14990572Y-5418328D02*
X14930628Y-5478272D01*
X14930628Y-11133328D02*
X14990572Y-11193272D01*
X14990572Y-11133328D02*
X14930628Y-11193272D01*
X14986508Y-7828788D02*
X15046452Y-7888732D01*
X15046452Y-7828788D02*
X14986508Y-7888732D01*
X15006828Y-8362188D02*
X15066772Y-8422132D01*
X15066772Y-8362188D02*
X15006828Y-8422132D01*
X15019528Y-9952228D02*
X15079472Y-10012172D01*
X15079472Y-9952228D02*
X15019528Y-10012172D01*
X15133828Y-12403328D02*
X15193772Y-12463272D01*
X15193772Y-12403328D02*
X15133828Y-12463272D01*
X15159228Y-9456928D02*
X15219172Y-9516872D01*
X15219172Y-9456928D02*
X15159228Y-9516872D01*
X15159228Y-10269728D02*
X15219172Y-10329672D01*
X15219172Y-10269728D02*
X15159228Y-10329672D01*
X15164308Y-8672068D02*
X15224252Y-8732012D01*
X15224252Y-8672068D02*
X15164308Y-8732012D01*
X15171928Y-11336528D02*
X15231872Y-11396472D01*
X15231872Y-11336528D02*
X15171928Y-11396472D01*
X15260828Y-6180328D02*
X15320772Y-6240272D01*
X15320772Y-6180328D02*
X15260828Y-6240272D01*
X15286228Y-13190728D02*
X15346172Y-13250672D01*
X15346172Y-13190728D02*
X15286228Y-13250672D01*
X15298928Y-12606528D02*
X15358872Y-12666472D01*
X15358872Y-12606528D02*
X15298928Y-12666472D01*
X15311628Y-9241028D02*
X15371572Y-9300972D01*
X15371572Y-9241028D02*
X15311628Y-9300972D01*
X15324328Y-7259828D02*
X15384272Y-7319772D01*
X15384272Y-7259828D02*
X15324328Y-7319772D01*
X15376398Y-8200898D02*
X15436342Y-8260842D01*
X15436342Y-8200898D02*
X15376398Y-8260842D01*
X15377668Y-7798308D02*
X15437612Y-7858252D01*
X15437612Y-7798308D02*
X15377668Y-7858252D01*
X15438628Y-5659628D02*
X15498572Y-5719572D01*
X15498572Y-5659628D02*
X15438628Y-5719572D01*
X15438628Y-5913628D02*
X15498572Y-5973572D01*
X15498572Y-5913628D02*
X15438628Y-5973572D01*
X15438628Y-6802628D02*
X15498572Y-6862572D01*
X15498572Y-6802628D02*
X15438628Y-6862572D01*
X15438628Y-7056628D02*
X15498572Y-7116572D01*
X15498572Y-7056628D02*
X15438628Y-7116572D01*
X15438628Y-11349228D02*
X15498572Y-11409172D01*
X15498572Y-11349228D02*
X15438628Y-11409172D01*
X15464028Y-7437628D02*
X15523972Y-7497572D01*
X15523972Y-7437628D02*
X15464028Y-7497572D01*
X15464028Y-8580628D02*
X15523972Y-8640572D01*
X15523972Y-8580628D02*
X15464028Y-8640572D01*
X15464028Y-9469628D02*
X15523972Y-9529572D01*
X15523972Y-9469628D02*
X15464028Y-9529572D01*
X15603728Y-7983728D02*
X15663672Y-8043672D01*
X15663672Y-7983728D02*
X15603728Y-8043672D01*
X15641828Y-4389628D02*
X15701772Y-4449572D01*
X15701772Y-4389628D02*
X15641828Y-4449572D01*
X15641828Y-4783328D02*
X15701772Y-4843272D01*
X15701772Y-4783328D02*
X15641828Y-4843272D01*
X15641828Y-4961128D02*
X15701772Y-5021072D01*
X15701772Y-4961128D02*
X15641828Y-5021072D01*
X15654528Y-4592828D02*
X15714472Y-4652772D01*
X15714472Y-4592828D02*
X15654528Y-4652772D01*
X15781528Y-5177028D02*
X15841472Y-5236972D01*
X15841472Y-5177028D02*
X15781528Y-5236972D01*
X15933928Y-4681728D02*
X15993872Y-4741672D01*
X15993872Y-4681728D02*
X15933928Y-4741672D01*
X16060928Y-9228328D02*
X16120872Y-9288272D01*
X16120872Y-9228328D02*
X16060928Y-9288272D01*
X16073628Y-11247628D02*
X16133572Y-11307572D01*
X16133572Y-11247628D02*
X16073628Y-11307572D01*
X16073628Y-11819128D02*
X16133572Y-11879072D01*
X16133572Y-11819128D02*
X16073628Y-11879072D01*
X16086328Y-7691628D02*
X16146272Y-7751572D01*
X16146272Y-7691628D02*
X16086328Y-7751572D01*
X16086328Y-8834628D02*
X16146272Y-8894572D01*
X16146272Y-8834628D02*
X16086328Y-8894572D01*
X16086328Y-9723628D02*
X16146272Y-9783572D01*
X16146272Y-9723628D02*
X16086328Y-9783572D01*
X16086328Y-10180828D02*
X16146272Y-10240772D01*
X16146272Y-10180828D02*
X16086328Y-10240772D01*
X16099028Y-5050028D02*
X16158972Y-5109972D01*
X16158972Y-5050028D02*
X16099028Y-5109972D01*
X16099028Y-12530328D02*
X16158972Y-12590272D01*
X16158972Y-12530328D02*
X16099028Y-12590272D01*
X16111728Y-7247128D02*
X16171672Y-7307072D01*
X16171672Y-7247128D02*
X16111728Y-7307072D01*
X16302228Y-13711428D02*
X16362172Y-13771372D01*
X16362172Y-13711428D02*
X16302228Y-13771372D01*
X16302228Y-13889228D02*
X16362172Y-13949172D01*
X16362172Y-13889228D02*
X16302228Y-13949172D01*
X16302228Y-14265148D02*
X16362172Y-14325092D01*
X16362172Y-14265148D02*
X16302228Y-14325092D01*
X16307308Y-14067028D02*
X16367252Y-14126972D01*
X16367252Y-14067028D02*
X16307308Y-14126972D01*
X16378428Y-11996928D02*
X16438372Y-12056872D01*
X16438372Y-11996928D02*
X16378428Y-12056872D01*
X12613160Y-4409440D02*
G75*
G03X12613160Y-4409440I-30000J0D01*
G01*
X12613160Y-5036820D02*
G75*
G03X12613160Y-5036820I-30000J0D01*
G01*
X12613160Y-5283200D02*
G75*
G03X12613160Y-5283200I-30000J0D01*
G01*
X12618240Y-5786120D02*
G75*
G03X12618240Y-5786120I-30000J0D01*
G01*
X14691360Y-5608955D02*
X14691360Y-5688965D01*
X14651355Y-5648960D02*
X14731365Y-5648960D01*
X14691360Y-5862955D02*
X14691360Y-5942965D01*
X14651355Y-5902960D02*
X14731365Y-5902960D01*
X15773400Y-10475595D02*
X15773400Y-10555605D01*
X15733395Y-10515600D02*
X15813405Y-10515600D01*
X15773400Y-10907395D02*
X15773400Y-10987405D01*
X15733395Y-10947400D02*
X15813405Y-10947400D01*
X16027400Y-10475595D02*
X16027400Y-10555605D01*
X15987395Y-10515600D02*
X16067405Y-10515600D01*
X16027400Y-10907395D02*
X16027400Y-10987405D01*
X15987395Y-10947400D02*
X16067405Y-10947400D01*
X13763787Y-8918737D02*
X13763787Y-8861263D01*
X13706313Y-8861263D01*
X13706313Y-8918737D01*
X13763787Y-8918737D01*
X13890787Y-8664737D02*
X13890787Y-8607263D01*
X13833313Y-8607263D01*
X13833313Y-8664737D01*
X13890787Y-8664737D01*
X14017787Y-8918737D02*
X14017787Y-8861263D01*
X13960313Y-8861263D01*
X13960313Y-8918737D01*
X14017787Y-8918737D01*
X14144787Y-8664737D02*
X14144787Y-8607263D01*
X14087313Y-8607263D01*
X14087313Y-8664737D01*
X14144787Y-8664737D01*
X14271787Y-8918737D02*
X14271787Y-8861263D01*
X14214313Y-8861263D01*
X14214313Y-8918737D01*
X14271787Y-8918737D01*
X14398787Y-8664737D02*
X14398787Y-8607263D01*
X14341313Y-8607263D01*
X14341313Y-8664737D01*
X14398787Y-8664737D01*
X8610600Y-7670000D02*
X8660600Y-7620000D01*
X8610600Y-7570000D01*
X8560600Y-7620000D01*
X8610600Y-7670000D01*
X8610600Y-7924000D02*
X8660600Y-7874000D01*
X8610600Y-7824000D01*
X8560600Y-7874000D01*
X8610600Y-7924000D01*
X8610600Y-8178000D02*
X8660600Y-8128000D01*
X8610600Y-8078000D01*
X8560600Y-8128000D01*
X8610600Y-8178000D01*
X8610600Y-8432000D02*
X8660600Y-8382000D01*
X8610600Y-8332000D01*
X8560600Y-8382000D01*
X8610600Y-8432000D01*
X8610600Y-8686000D02*
X8660600Y-8636000D01*
X8610600Y-8586000D01*
X8560600Y-8636000D01*
X8610600Y-8686000D01*
X8610600Y-8940000D02*
X8660600Y-8890000D01*
X8610600Y-8840000D01*
X8560600Y-8890000D01*
X8610600Y-8940000D01*
X8610600Y-9194000D02*
X8660600Y-9144000D01*
X8610600Y-9094000D01*
X8560600Y-9144000D01*
X8610600Y-9194000D01*
X8610600Y-9448000D02*
X8660600Y-9398000D01*
X8610600Y-9348000D01*
X8560600Y-9398000D01*
X8610600Y-9448000D01*
X8864600Y-7670000D02*
X8914600Y-7620000D01*
X8864600Y-7570000D01*
X8814600Y-7620000D01*
X8864600Y-7670000D01*
X8864600Y-7924000D02*
X8914600Y-7874000D01*
X8864600Y-7824000D01*
X8814600Y-7874000D01*
X8864600Y-7924000D01*
X8864600Y-8178000D02*
X8914600Y-8128000D01*
X8864600Y-8078000D01*
X8814600Y-8128000D01*
X8864600Y-8178000D01*
X8864600Y-8432000D02*
X8914600Y-8382000D01*
X8864600Y-8332000D01*
X8814600Y-8382000D01*
X8864600Y-8432000D01*
X8864600Y-8686000D02*
X8914600Y-8636000D01*
X8864600Y-8586000D01*
X8814600Y-8636000D01*
X8864600Y-8686000D01*
X8864600Y-8940000D02*
X8914600Y-8890000D01*
X8864600Y-8840000D01*
X8814600Y-8890000D01*
X8864600Y-8940000D01*
X8864600Y-9194000D02*
X8914600Y-9144000D01*
X8864600Y-9094000D01*
X8814600Y-9144000D01*
X8864600Y-9194000D01*
X8864600Y-9448000D02*
X8914600Y-9398000D01*
X8864600Y-9348000D01*
X8814600Y-9398000D01*
X8864600Y-9448000D01*
X9702800Y-6933400D02*
X9752800Y-6883400D01*
X9702800Y-6833400D01*
X9652800Y-6883400D01*
X9702800Y-6933400D01*
X9702800Y-7187400D02*
X9752800Y-7137400D01*
X9702800Y-7087400D01*
X9652800Y-7137400D01*
X9702800Y-7187400D01*
X9702800Y-10273500D02*
X9752800Y-10223500D01*
X9702800Y-10173500D01*
X9652800Y-10223500D01*
X9702800Y-10273500D01*
X9702800Y-10527500D02*
X9752800Y-10477500D01*
X9702800Y-10427500D01*
X9652800Y-10477500D01*
X9702800Y-10527500D01*
X9956800Y-6933400D02*
X10006800Y-6883400D01*
X9956800Y-6833400D01*
X9906800Y-6883400D01*
X9956800Y-6933400D01*
X9956800Y-7187400D02*
X10006800Y-7137400D01*
X9956800Y-7087400D01*
X9906800Y-7137400D01*
X9956800Y-7187400D01*
X9956800Y-10273500D02*
X10006800Y-10223500D01*
X9956800Y-10173500D01*
X9906800Y-10223500D01*
X9956800Y-10273500D01*
X9956800Y-10527500D02*
X10006800Y-10477500D01*
X9956800Y-10427500D01*
X9906800Y-10477500D01*
X9956800Y-10527500D01*
X10210800Y-6933400D02*
X10260800Y-6883400D01*
X10210800Y-6833400D01*
X10160800Y-6883400D01*
X10210800Y-6933400D01*
X10210800Y-7187400D02*
X10260800Y-7137400D01*
X10210800Y-7087400D01*
X10160800Y-7137400D01*
X10210800Y-7187400D01*
X10210800Y-10273500D02*
X10260800Y-10223500D01*
X10210800Y-10173500D01*
X10160800Y-10223500D01*
X10210800Y-10273500D01*
X10210800Y-10527500D02*
X10260800Y-10477500D01*
X10210800Y-10427500D01*
X10160800Y-10477500D01*
X10210800Y-10527500D01*
X10464800Y-6933400D02*
X10514800Y-6883400D01*
X10464800Y-6833400D01*
X10414800Y-6883400D01*
X10464800Y-6933400D01*
X10464800Y-7187400D02*
X10514800Y-7137400D01*
X10464800Y-7087400D01*
X10414800Y-7137400D01*
X10464800Y-7187400D01*
X10464800Y-10273500D02*
X10514800Y-10223500D01*
X10464800Y-10173500D01*
X10414800Y-10223500D01*
X10464800Y-10273500D01*
X10464800Y-10527500D02*
X10514800Y-10477500D01*
X10464800Y-10427500D01*
X10414800Y-10477500D01*
X10464800Y-10527500D01*
X10718800Y-6933400D02*
X10768800Y-6883400D01*
X10718800Y-6833400D01*
X10668800Y-6883400D01*
X10718800Y-6933400D01*
X10718800Y-7187400D02*
X10768800Y-7137400D01*
X10718800Y-7087400D01*
X10668800Y-7137400D01*
X10718800Y-7187400D01*
X10718800Y-10273500D02*
X10768800Y-10223500D01*
X10718800Y-10173500D01*
X10668800Y-10223500D01*
X10718800Y-10273500D01*
X10718800Y-10527500D02*
X10768800Y-10477500D01*
X10718800Y-10427500D01*
X10668800Y-10477500D01*
X10718800Y-10527500D01*
X10972800Y-6933400D02*
X11022800Y-6883400D01*
X10972800Y-6833400D01*
X10922800Y-6883400D01*
X10972800Y-6933400D01*
X10972800Y-7187400D02*
X11022800Y-7137400D01*
X10972800Y-7087400D01*
X10922800Y-7137400D01*
X10972800Y-7187400D01*
X10972800Y-10273500D02*
X11022800Y-10223500D01*
X10972800Y-10173500D01*
X10922800Y-10223500D01*
X10972800Y-10273500D01*
X10972800Y-10527500D02*
X11022800Y-10477500D01*
X10972800Y-10427500D01*
X10922800Y-10477500D01*
X10972800Y-10527500D01*
X11226800Y-6933400D02*
X11276800Y-6883400D01*
X11226800Y-6833400D01*
X11176800Y-6883400D01*
X11226800Y-6933400D01*
X11226800Y-7187400D02*
X11276800Y-7137400D01*
X11226800Y-7087400D01*
X11176800Y-7137400D01*
X11226800Y-7187400D01*
X11226800Y-10273500D02*
X11276800Y-10223500D01*
X11226800Y-10173500D01*
X11176800Y-10223500D01*
X11226800Y-10273500D01*
X11226800Y-10527500D02*
X11276800Y-10477500D01*
X11226800Y-10427500D01*
X11176800Y-10477500D01*
X11226800Y-10527500D01*
X11480800Y-6933400D02*
X11530800Y-6883400D01*
X11480800Y-6833400D01*
X11430800Y-6883400D01*
X11480800Y-6933400D01*
X11480800Y-7187400D02*
X11530800Y-7137400D01*
X11480800Y-7087400D01*
X11430800Y-7137400D01*
X11480800Y-7187400D01*
X11480800Y-10273500D02*
X11530800Y-10223500D01*
X11480800Y-10173500D01*
X11430800Y-10223500D01*
X11480800Y-10273500D01*
X11480800Y-10527500D02*
X11530800Y-10477500D01*
X11480800Y-10427500D01*
X11430800Y-10477500D01*
X11480800Y-10527500D01*
X12331446Y-7670000D02*
X12381446Y-7620000D01*
X12331446Y-7570000D01*
X12281446Y-7620000D01*
X12331446Y-7670000D01*
X12331446Y-7924000D02*
X12381446Y-7874000D01*
X12331446Y-7824000D01*
X12281446Y-7874000D01*
X12331446Y-7924000D01*
X12331446Y-8178000D02*
X12381446Y-8128000D01*
X12331446Y-8078000D01*
X12281446Y-8128000D01*
X12331446Y-8178000D01*
X12331446Y-8432000D02*
X12381446Y-8382000D01*
X12331446Y-8332000D01*
X12281446Y-8382000D01*
X12331446Y-8432000D01*
X12331446Y-8686000D02*
X12381446Y-8636000D01*
X12331446Y-8586000D01*
X12281446Y-8636000D01*
X12331446Y-8686000D01*
X12331446Y-8940000D02*
X12381446Y-8890000D01*
X12331446Y-8840000D01*
X12281446Y-8890000D01*
X12331446Y-8940000D01*
X12331446Y-9194000D02*
X12381446Y-9144000D01*
X12331446Y-9094000D01*
X12281446Y-9144000D01*
X12331446Y-9194000D01*
X12331446Y-9448000D02*
X12381446Y-9398000D01*
X12331446Y-9348000D01*
X12281446Y-9398000D01*
X12331446Y-9448000D01*
X12585446Y-7670000D02*
X12635446Y-7620000D01*
X12585446Y-7570000D01*
X12535446Y-7620000D01*
X12585446Y-7670000D01*
X12585446Y-7924000D02*
X12635446Y-7874000D01*
X12585446Y-7824000D01*
X12535446Y-7874000D01*
X12585446Y-7924000D01*
X12585446Y-8178000D02*
X12635446Y-8128000D01*
X12585446Y-8078000D01*
X12535446Y-8128000D01*
X12585446Y-8178000D01*
X12585446Y-8432000D02*
X12635446Y-8382000D01*
X12585446Y-8332000D01*
X12535446Y-8382000D01*
X12585446Y-8432000D01*
X12585446Y-8686000D02*
X12635446Y-8636000D01*
X12585446Y-8586000D01*
X12535446Y-8636000D01*
X12585446Y-8686000D01*
X12585446Y-8940000D02*
X12635446Y-8890000D01*
X12585446Y-8840000D01*
X12535446Y-8890000D01*
X12585446Y-8940000D01*
X12585446Y-9194000D02*
X12635446Y-9144000D01*
X12585446Y-9094000D01*
X12535446Y-9144000D01*
X12585446Y-9194000D01*
X12585446Y-9448000D02*
X12635446Y-9398000D01*
X12585446Y-9348000D01*
X12535446Y-9398000D01*
X12585446Y-9448000D01*
X13279120Y-5988520D02*
X13329120Y-5938520D01*
X13279120Y-5888520D01*
X13229120Y-5938520D01*
X13279120Y-5988520D01*
X13533120Y-5988520D02*
X13583120Y-5938520D01*
X13533120Y-5888520D01*
X13483120Y-5938520D01*
X13533120Y-5988520D01*
X13914120Y-6003760D02*
X13964120Y-5953760D01*
X13914120Y-5903760D01*
X13864120Y-5953760D01*
X13914120Y-6003760D01*
X14020800Y-4596600D02*
X14070800Y-4546600D01*
X14020800Y-4496600D01*
X13970800Y-4546600D01*
X14020800Y-4596600D01*
X14168120Y-6003760D02*
X14218120Y-5953760D01*
X14168120Y-5903760D01*
X14118120Y-5953760D01*
X14168120Y-6003760D01*
X14274800Y-4596600D02*
X14324800Y-4546600D01*
X14274800Y-4496600D01*
X14224800Y-4546600D01*
X14274800Y-4596600D01*
X14528800Y-4596600D02*
X14578800Y-4546600D01*
X14528800Y-4496600D01*
X14478800Y-4546600D01*
X14528800Y-4596600D01*
X14909800Y-4596600D02*
X14959800Y-4546600D01*
X14909800Y-4496600D01*
X14859800Y-4546600D01*
X14909800Y-4596600D01*
X15163800Y-4596600D02*
X15213800Y-4546600D01*
X15163800Y-4496600D01*
X15113800Y-4546600D01*
X15163800Y-4596600D01*
X15417800Y-4596600D02*
X15467800Y-4546600D01*
X15417800Y-4496600D01*
X15367800Y-4546600D01*
X15417800Y-4596600D01*
X16560800Y-5231600D02*
X16610800Y-5181600D01*
X16560800Y-5131600D01*
X16510800Y-5181600D01*
X16560800Y-5231600D01*
X16560800Y-5485600D02*
X16610800Y-5435600D01*
X16560800Y-5385600D01*
X16510800Y-5435600D01*
X16560800Y-5485600D01*
X16560800Y-5739600D02*
X16610800Y-5689600D01*
X16560800Y-5639600D01*
X16510800Y-5689600D01*
X16560800Y-5739600D01*
X16560800Y-5993600D02*
X16610800Y-5943600D01*
X16560800Y-5893600D01*
X16510800Y-5943600D01*
X16560800Y-5993600D01*
X16560800Y-6374600D02*
X16610800Y-6324600D01*
X16560800Y-6274600D01*
X16510800Y-6324600D01*
X16560800Y-6374600D01*
X16560800Y-6628600D02*
X16610800Y-6578600D01*
X16560800Y-6528600D01*
X16510800Y-6578600D01*
X16560800Y-6628600D01*
X16560800Y-6882600D02*
X16610800Y-6832600D01*
X16560800Y-6782600D01*
X16510800Y-6832600D01*
X16560800Y-6882600D01*
X16560800Y-7136600D02*
X16610800Y-7086600D01*
X16560800Y-7036600D01*
X16510800Y-7086600D01*
X16560800Y-7136600D01*
X14143482Y-6345682D02*
X14243558Y-6445758D01*
X14243558Y-6345682D02*
X14143482Y-6445758D01*
X14243558Y-6395720D02*
G75*
G03X14243558Y-6395720I-50038J0D01*
G01*
X14143482Y-6599682D02*
X14243558Y-6699758D01*
X14243558Y-6599682D02*
X14143482Y-6699758D01*
X14243558Y-6649720D02*
G75*
G03X14243558Y-6649720I-50038J0D01*
G01*
X14143482Y-6853682D02*
X14243558Y-6953758D01*
X14243558Y-6853682D02*
X14143482Y-6953758D01*
X14243558Y-6903720D02*
G75*
G03X14243558Y-6903720I-50038J0D01*
G01*
X14143482Y-7107682D02*
X14243558Y-7207758D01*
X14243558Y-7107682D02*
X14143482Y-7207758D01*
X14243558Y-7157720D02*
G75*
G03X14243558Y-7157720I-50038J0D01*
G01*
X16510762Y-7417562D02*
X16610838Y-7517638D01*
X16610838Y-7417562D02*
X16510762Y-7517638D01*
X16610838Y-7467600D02*
G75*
G03X16610838Y-7467600I-50038J0D01*
G01*
X16510762Y-7671562D02*
X16610838Y-7771638D01*
X16610838Y-7671562D02*
X16510762Y-7771638D01*
X16610838Y-7721600D02*
G75*
G03X16610838Y-7721600I-50038J0D01*
G01*
X16510762Y-7925562D02*
X16610838Y-8025638D01*
X16610838Y-7925562D02*
X16510762Y-8025638D01*
X16610838Y-7975600D02*
G75*
G03X16610838Y-7975600I-50038J0D01*
G01*
X16510762Y-8179562D02*
X16610838Y-8279638D01*
X16610838Y-8179562D02*
X16510762Y-8279638D01*
X16610838Y-8229600D02*
G75*
G03X16610838Y-8229600I-50038J0D01*
G01*
X16510762Y-8560562D02*
X16610838Y-8660638D01*
X16610838Y-8560562D02*
X16510762Y-8660638D01*
X16610838Y-8610600D02*
G75*
G03X16610838Y-8610600I-50038J0D01*
G01*
X16510762Y-8814562D02*
X16610838Y-8914638D01*
X16610838Y-8814562D02*
X16510762Y-8914638D01*
X16610838Y-8864600D02*
G75*
G03X16610838Y-8864600I-50038J0D01*
G01*
X16510762Y-9068562D02*
X16610838Y-9168638D01*
X16610838Y-9068562D02*
X16510762Y-9168638D01*
X16610838Y-9118600D02*
G75*
G03X16610838Y-9118600I-50038J0D01*
G01*
X16510762Y-9322562D02*
X16610838Y-9422638D01*
X16610838Y-9322562D02*
X16510762Y-9422638D01*
X16610838Y-9372600D02*
G75*
G03X16610838Y-9372600I-50038J0D01*
G01*
X16510762Y-9703562D02*
X16610838Y-9803638D01*
X16610838Y-9703562D02*
X16510762Y-9803638D01*
X16610838Y-9753600D02*
G75*
G03X16610838Y-9753600I-50038J0D01*
G01*
X16510762Y-9957562D02*
X16610838Y-10057638D01*
X16610838Y-9957562D02*
X16510762Y-10057638D01*
X16610838Y-10007600D02*
G75*
G03X16610838Y-10007600I-50038J0D01*
G01*
X16510762Y-10211562D02*
X16610838Y-10311638D01*
X16610838Y-10211562D02*
X16510762Y-10311638D01*
X16610838Y-10261600D02*
G75*
G03X16610838Y-10261600I-50038J0D01*
G01*
X16510762Y-10465562D02*
X16610838Y-10565638D01*
X16610838Y-10465562D02*
X16510762Y-10565638D01*
X16610838Y-10515600D02*
G75*
G03X16610838Y-10515600I-50038J0D01*
G01*
X16510762Y-10846562D02*
X16610838Y-10946638D01*
X16610838Y-10846562D02*
X16510762Y-10946638D01*
X16610838Y-10896600D02*
G75*
G03X16610838Y-10896600I-50038J0D01*
G01*
X16510762Y-11100562D02*
X16610838Y-11200638D01*
X16610838Y-11100562D02*
X16510762Y-11200638D01*
X16610838Y-11150600D02*
G75*
G03X16610838Y-11150600I-50038J0D01*
G01*
X16510762Y-11354562D02*
X16610838Y-11454638D01*
X16610838Y-11354562D02*
X16510762Y-11454638D01*
X16610838Y-11404600D02*
G75*
G03X16610838Y-11404600I-50038J0D01*
G01*
X16510762Y-11608562D02*
X16610838Y-11708638D01*
X16610838Y-11608562D02*
X16510762Y-11708638D01*
X16610838Y-11658600D02*
G75*
G03X16610838Y-11658600I-50038J0D01*
G01*
X16510762Y-12370562D02*
X16610838Y-12470638D01*
X16610838Y-12370562D02*
X16510762Y-12470638D01*
X16610838Y-12420600D02*
G75*
G03X16610838Y-12420600I-50038J0D01*
G01*
X16510762Y-12624562D02*
X16610838Y-12724638D01*
X16610838Y-12624562D02*
X16510762Y-12724638D01*
X16610838Y-12674600D02*
G75*
G03X16610838Y-12674600I-50038J0D01*
G01*
X16510762Y-12878562D02*
X16610838Y-12978638D01*
X16610838Y-12878562D02*
X16510762Y-12978638D01*
X16610838Y-12928600D02*
G75*
G03X16610838Y-12928600I-50038J0D01*
G01*
X16510762Y-13132562D02*
X16610838Y-13232638D01*
X16610838Y-13132562D02*
X16510762Y-13232638D01*
X16610838Y-13182600D02*
G75*
G03X16610838Y-13182600I-50038J0D01*
G01*
X16510762Y-13386562D02*
X16610838Y-13486638D01*
X16610838Y-13386562D02*
X16510762Y-13486638D01*
X16610838Y-13436600D02*
G75*
G03X16610838Y-13436600I-50038J0D01*
G01*
X9753600Y-12890500D02*
X9855200Y-12992100D01*
X9855200Y-12890500D02*
X9753600Y-12992100D01*
X9804400Y-12890500D02*
X9804400Y-12992100D01*
X9753600Y-12941300D02*
X9855200Y-12941300D01*
X9753600Y-13525500D02*
X9855200Y-13627100D01*
X9855200Y-13525500D02*
X9753600Y-13627100D01*
X9804400Y-13525500D02*
X9804400Y-13627100D01*
X9753600Y-13576300D02*
X9855200Y-13576300D01*
X10007600Y-12890500D02*
X10109200Y-12992100D01*
X10109200Y-12890500D02*
X10007600Y-12992100D01*
X10058400Y-12890500D02*
X10058400Y-12992100D01*
X10007600Y-12941300D02*
X10109200Y-12941300D01*
X10007600Y-13525500D02*
X10109200Y-13627100D01*
X10109200Y-13525500D02*
X10007600Y-13627100D01*
X10058400Y-13525500D02*
X10058400Y-13627100D01*
X10007600Y-13576300D02*
X10109200Y-13576300D01*
X10261600Y-12890500D02*
X10363200Y-12992100D01*
X10363200Y-12890500D02*
X10261600Y-12992100D01*
X10312400Y-12890500D02*
X10312400Y-12992100D01*
X10261600Y-12941300D02*
X10363200Y-12941300D01*
X10261600Y-13525500D02*
X10363200Y-13627100D01*
X10363200Y-13525500D02*
X10261600Y-13627100D01*
X10312400Y-13525500D02*
X10312400Y-13627100D01*
X10261600Y-13576300D02*
X10363200Y-13576300D01*
X11277600Y-12890500D02*
X11379200Y-12992100D01*
X11379200Y-12890500D02*
X11277600Y-12992100D01*
X11328400Y-12890500D02*
X11328400Y-12992100D01*
X11277600Y-12941300D02*
X11379200Y-12941300D01*
X11277600Y-13525500D02*
X11379200Y-13627100D01*
X11379200Y-13525500D02*
X11277600Y-13627100D01*
X11328400Y-13525500D02*
X11328400Y-13627100D01*
X11277600Y-13576300D02*
X11379200Y-13576300D01*
X11531600Y-12890500D02*
X11633200Y-12992100D01*
X11633200Y-12890500D02*
X11531600Y-12992100D01*
X11582400Y-12890500D02*
X11582400Y-12992100D01*
X11531600Y-12941300D02*
X11633200Y-12941300D01*
X11531600Y-13525500D02*
X11633200Y-13627100D01*
X11633200Y-13525500D02*
X11531600Y-13627100D01*
X11582400Y-13525500D02*
X11582400Y-13627100D01*
X11531600Y-13576300D02*
X11633200Y-13576300D01*
X11785600Y-12890500D02*
X11887200Y-12992100D01*
X11887200Y-12890500D02*
X11785600Y-12992100D01*
X11836400Y-12890500D02*
X11836400Y-12992100D01*
X11785600Y-12941300D02*
X11887200Y-12941300D01*
X11785600Y-13525500D02*
X11887200Y-13627100D01*
X11887200Y-13525500D02*
X11785600Y-13627100D01*
X11836400Y-13525500D02*
X11836400Y-13627100D01*
X11785600Y-13576300D02*
X11887200Y-13576300D01*
X12801600Y-12890500D02*
X12903200Y-12992100D01*
X12903200Y-12890500D02*
X12801600Y-12992100D01*
X12852400Y-12890500D02*
X12852400Y-12992100D01*
X12801600Y-12941300D02*
X12903200Y-12941300D01*
X12801600Y-13525500D02*
X12903200Y-13627100D01*
X12903200Y-13525500D02*
X12801600Y-13627100D01*
X12852400Y-13525500D02*
X12852400Y-13627100D01*
X12801600Y-13576300D02*
X12903200Y-13576300D01*
X13055600Y-12890500D02*
X13157200Y-12992100D01*
X13157200Y-12890500D02*
X13055600Y-12992100D01*
X13106400Y-12890500D02*
X13106400Y-12992100D01*
X13055600Y-12941300D02*
X13157200Y-12941300D01*
X13055600Y-13525500D02*
X13157200Y-13627100D01*
X13157200Y-13525500D02*
X13055600Y-13627100D01*
X13106400Y-13525500D02*
X13106400Y-13627100D01*
X13055600Y-13576300D02*
X13157200Y-13576300D01*
X13309600Y-12890500D02*
X13411200Y-12992100D01*
X13411200Y-12890500D02*
X13309600Y-12992100D01*
X13360400Y-12890500D02*
X13360400Y-12992100D01*
X13309600Y-12941300D02*
X13411200Y-12941300D01*
X13309600Y-13525500D02*
X13411200Y-13627100D01*
X13411200Y-13525500D02*
X13309600Y-13627100D01*
X13360400Y-13525500D02*
X13360400Y-13627100D01*
X13309600Y-13576300D02*
X13411200Y-13576300D01*
X14325600Y-12890500D02*
X14427200Y-12992100D01*
X14427200Y-12890500D02*
X14325600Y-12992100D01*
X14376400Y-12890500D02*
X14376400Y-12992100D01*
X14325600Y-12941300D02*
X14427200Y-12941300D01*
X14325600Y-13525500D02*
X14427200Y-13627100D01*
X14427200Y-13525500D02*
X14325600Y-13627100D01*
X14376400Y-13525500D02*
X14376400Y-13627100D01*
X14325600Y-13576300D02*
X14427200Y-13576300D01*
X14579600Y-12890500D02*
X14681200Y-12992100D01*
X14681200Y-12890500D02*
X14579600Y-12992100D01*
X14630400Y-12890500D02*
X14630400Y-12992100D01*
X14579600Y-12941300D02*
X14681200Y-12941300D01*
X14579600Y-13525500D02*
X14681200Y-13627100D01*
X14681200Y-13525500D02*
X14579600Y-13627100D01*
X14630400Y-13525500D02*
X14630400Y-13627100D01*
X14579600Y-13576300D02*
X14681200Y-13576300D01*
X14833600Y-12890500D02*
X14935200Y-12992100D01*
X14935200Y-12890500D02*
X14833600Y-12992100D01*
X14884400Y-12890500D02*
X14884400Y-12992100D01*
X14833600Y-12941300D02*
X14935200Y-12941300D01*
X14833600Y-13525500D02*
X14935200Y-13627100D01*
X14935200Y-13525500D02*
X14833600Y-13627100D01*
X14884400Y-13525500D02*
X14884400Y-13627100D01*
X14833600Y-13576300D02*
X14935200Y-13576300D01*
X12401400Y-15284300D02*
X12541400Y-15424300D01*
X12541400Y-15284300D02*
X12401400Y-15424300D01*
X12520898Y-15403798D02*
X12520898Y-15304802D01*
X12421902Y-15304802D01*
X12421902Y-15403798D01*
X12520898Y-15403798D01*
X12750650Y-15284300D02*
X12890650Y-15424300D01*
X12890650Y-15284300D02*
X12750650Y-15424300D01*
X12870148Y-15403798D02*
X12870148Y-15304802D01*
X12771152Y-15304802D01*
X12771152Y-15403798D01*
X12870148Y-15403798D01*
X13106250Y-15284300D02*
X13246250Y-15424300D01*
X13246250Y-15284300D02*
X13106250Y-15424300D01*
X13225748Y-15403798D02*
X13225748Y-15304802D01*
X13126752Y-15304802D01*
X13126752Y-15403798D01*
X13225748Y-15403798D01*
X13455500Y-15284300D02*
X13595500Y-15424300D01*
X13595500Y-15284300D02*
X13455500Y-15424300D01*
X13574998Y-15403798D02*
X13574998Y-15304802D01*
X13476002Y-15304802D01*
X13476002Y-15403798D01*
X13574998Y-15403798D01*
X13804750Y-15284300D02*
X13944750Y-15424300D01*
X13944750Y-15284300D02*
X13804750Y-15424300D01*
X13924248Y-15403798D02*
X13924248Y-15304802D01*
X13825252Y-15304802D01*
X13825252Y-15403798D01*
X13924248Y-15403798D01*
X14154000Y-15284300D02*
X14294000Y-15424300D01*
X14294000Y-15284300D02*
X14154000Y-15424300D01*
X14273498Y-15403798D02*
X14273498Y-15304802D01*
X14174502Y-15304802D01*
X14174502Y-15403798D01*
X14273498Y-15403798D01*
X13381990Y-9362440D02*
X13707110Y-9687560D01*
X13707110Y-9362440D02*
X13381990Y-9687560D01*
X13544550Y-9687560D02*
X13707110Y-9525000D01*
X13544550Y-9362440D01*
X13381990Y-9525000D01*
X13544550Y-9687560D01*
X14397990Y-9362440D02*
X14723110Y-9687560D01*
X14723110Y-9362440D02*
X14397990Y-9687560D01*
X14560550Y-9687560D02*
X14723110Y-9525000D01*
X14560550Y-9362440D01*
X14397990Y-9525000D01*
X14560550Y-9687560D01*
X9169400Y-4244975D02*
X9169400Y-4645025D01*
X8969375Y-4445000D02*
X9369425Y-4445000D01*
X9369425Y-4445000D02*
G75*
G03X9369425Y-4445000I-200025J0D01*
G01*
X9175750Y-15395575D02*
X9175750Y-15795625D01*
X8975725Y-15595600D02*
X9375775Y-15595600D01*
X9375775Y-15595600D02*
G75*
G03X9375775Y-15595600I-200025J0D01*
G01*
X11423650Y-15395575D02*
X11423650Y-15795625D01*
X11223625Y-15595600D02*
X11623675Y-15595600D01*
X11623675Y-15595600D02*
G75*
G03X11623675Y-15595600I-200025J0D01*
G01*
X16630650Y-4232275D02*
X16630650Y-4632325D01*
X16430625Y-4432300D02*
X16830675Y-4432300D01*
X16830675Y-4432300D02*
G75*
G03X16830675Y-4432300I-200025J0D01*
G01*
X16649700Y-15395575D02*
X16649700Y-15795625D01*
X16449675Y-15595600D02*
X16849725Y-15595600D01*
X16849725Y-15595600D02*
G75*
G03X16849725Y-15595600I-200025J0D01*
G01*
D13*
X8418479Y-16385164D02*
X8418479Y-16085164D01*
X8489907Y-16085164D01*
X8532764Y-16099450D01*
X8561336Y-16128021D01*
X8575621Y-16156593D01*
X8589907Y-16213736D01*
X8589907Y-16256593D01*
X8575621Y-16313736D01*
X8561336Y-16342307D01*
X8532764Y-16370879D01*
X8489907Y-16385164D01*
X8418479Y-16385164D01*
X8718479Y-16385164D02*
X8718479Y-16185164D01*
X8718479Y-16242307D02*
X8732764Y-16213736D01*
X8747050Y-16199450D01*
X8775621Y-16185164D01*
X8804193Y-16185164D01*
X8904193Y-16385164D02*
X8904193Y-16185164D01*
X8904193Y-16085164D02*
X8889907Y-16099450D01*
X8904193Y-16113736D01*
X8918479Y-16099450D01*
X8904193Y-16085164D01*
X8904193Y-16113736D01*
X9089907Y-16385164D02*
X9061336Y-16370879D01*
X9047050Y-16342307D01*
X9047050Y-16085164D01*
X9247050Y-16385164D02*
X9218479Y-16370879D01*
X9204193Y-16342307D01*
X9204193Y-16085164D01*
X9589907Y-16385164D02*
X9589907Y-16085164D01*
X9689907Y-16299450D01*
X9789907Y-16085164D01*
X9789907Y-16385164D01*
X10061336Y-16385164D02*
X10061336Y-16228021D01*
X10047050Y-16199450D01*
X10018479Y-16185164D01*
X9961336Y-16185164D01*
X9932764Y-16199450D01*
X10061336Y-16370879D02*
X10032764Y-16385164D01*
X9961336Y-16385164D01*
X9932764Y-16370879D01*
X9918479Y-16342307D01*
X9918479Y-16313736D01*
X9932764Y-16285164D01*
X9961336Y-16270879D01*
X10032764Y-16270879D01*
X10061336Y-16256593D01*
X10204193Y-16185164D02*
X10204193Y-16485164D01*
X10204193Y-16199450D02*
X10232764Y-16185164D01*
X10289907Y-16185164D01*
X10318479Y-16199450D01*
X10332764Y-16213736D01*
X10347050Y-16242307D01*
X10347050Y-16328021D01*
X10332764Y-16356593D01*
X10318479Y-16370879D01*
X10289907Y-16385164D01*
X10232764Y-16385164D01*
X10204193Y-16370879D01*
X10475621Y-16356593D02*
X10489907Y-16370879D01*
X10475621Y-16385164D01*
X10461336Y-16370879D01*
X10475621Y-16356593D01*
X10475621Y-16385164D01*
X10475621Y-16199450D02*
X10489907Y-16213736D01*
X10475621Y-16228021D01*
X10461336Y-16213736D01*
X10475621Y-16199450D01*
X10475621Y-16228021D01*
X8087106Y-16849478D02*
X8147050Y-16909422D01*
X8147050Y-16849478D02*
X8087106Y-16909422D01*
X8475621Y-16715164D02*
X8504193Y-16715164D01*
X8532764Y-16729450D01*
X8547050Y-16743736D01*
X8561336Y-16772307D01*
X8575621Y-16829450D01*
X8575621Y-16900879D01*
X8561336Y-16958022D01*
X8547050Y-16986593D01*
X8532764Y-17000879D01*
X8504193Y-17015164D01*
X8475621Y-17015164D01*
X8447050Y-17000879D01*
X8432764Y-16986593D01*
X8418479Y-16958022D01*
X8404193Y-16900879D01*
X8404193Y-16829450D01*
X8418479Y-16772307D01*
X8432764Y-16743736D01*
X8447050Y-16729450D01*
X8475621Y-16715164D01*
X8704193Y-16986593D02*
X8718479Y-17000879D01*
X8704193Y-17015164D01*
X8689907Y-17000879D01*
X8704193Y-16986593D01*
X8704193Y-17015164D01*
X8975621Y-16715164D02*
X8918478Y-16715164D01*
X8889907Y-16729450D01*
X8875621Y-16743736D01*
X8847050Y-16786593D01*
X8832764Y-16843736D01*
X8832764Y-16958022D01*
X8847050Y-16986593D01*
X8861336Y-17000879D01*
X8889907Y-17015164D01*
X8947050Y-17015164D01*
X8975621Y-17000879D01*
X8989907Y-16986593D01*
X9004193Y-16958022D01*
X9004193Y-16886593D01*
X8989907Y-16858022D01*
X8975621Y-16843736D01*
X8947050Y-16829450D01*
X8889907Y-16829450D01*
X8861336Y-16843736D01*
X8847050Y-16858022D01*
X8832764Y-16886593D01*
X9189907Y-16715164D02*
X9218479Y-16715164D01*
X9247050Y-16729450D01*
X9261336Y-16743736D01*
X9275621Y-16772307D01*
X9289907Y-16829450D01*
X9289907Y-16900879D01*
X9275621Y-16958022D01*
X9261336Y-16986593D01*
X9247050Y-17000879D01*
X9218479Y-17015164D01*
X9189907Y-17015164D01*
X9161336Y-17000879D01*
X9147050Y-16986593D01*
X9132764Y-16958022D01*
X9118479Y-16900879D01*
X9118479Y-16829450D01*
X9132764Y-16772307D01*
X9147050Y-16743736D01*
X9161336Y-16729450D01*
X9189907Y-16715164D01*
X9418479Y-17015164D02*
X9418479Y-16815164D01*
X9418479Y-16843736D02*
X9432764Y-16829450D01*
X9461336Y-16815164D01*
X9504193Y-16815164D01*
X9532764Y-16829450D01*
X9547050Y-16858022D01*
X9547050Y-17015164D01*
X9547050Y-16858022D02*
X9561336Y-16829450D01*
X9589907Y-16815164D01*
X9632764Y-16815164D01*
X9661336Y-16829450D01*
X9675621Y-16858022D01*
X9675621Y-17015164D01*
X9818479Y-17015164D02*
X9818479Y-16815164D01*
X9818479Y-16843736D02*
X9832764Y-16829450D01*
X9861336Y-16815164D01*
X9904193Y-16815164D01*
X9932764Y-16829450D01*
X9947050Y-16858022D01*
X9947050Y-17015164D01*
X9947050Y-16858022D02*
X9961336Y-16829450D01*
X9989907Y-16815164D01*
X10032764Y-16815164D01*
X10061336Y-16829450D01*
X10075621Y-16858022D01*
X10075621Y-17015164D01*
X10661336Y-16700879D02*
X10404193Y-17086593D01*
X11047050Y-16715164D02*
X11075621Y-16715164D01*
X11104193Y-16729450D01*
X11118478Y-16743736D01*
X11132764Y-16772307D01*
X11147050Y-16829450D01*
X11147050Y-16900879D01*
X11132764Y-16958022D01*
X11118478Y-16986593D01*
X11104193Y-17000879D01*
X11075621Y-17015164D01*
X11047050Y-17015164D01*
X11018478Y-17000879D01*
X11004193Y-16986593D01*
X10989907Y-16958022D01*
X10975621Y-16900879D01*
X10975621Y-16829450D01*
X10989907Y-16772307D01*
X11004193Y-16743736D01*
X11018478Y-16729450D01*
X11047050Y-16715164D01*
X11275621Y-16986593D02*
X11289907Y-17000879D01*
X11275621Y-17015164D01*
X11261336Y-17000879D01*
X11275621Y-16986593D01*
X11275621Y-17015164D01*
X11475621Y-16715164D02*
X11504193Y-16715164D01*
X11532764Y-16729450D01*
X11547050Y-16743736D01*
X11561335Y-16772307D01*
X11575621Y-16829450D01*
X11575621Y-16900879D01*
X11561335Y-16958022D01*
X11547050Y-16986593D01*
X11532764Y-17000879D01*
X11504193Y-17015164D01*
X11475621Y-17015164D01*
X11447050Y-17000879D01*
X11432764Y-16986593D01*
X11418478Y-16958022D01*
X11404193Y-16900879D01*
X11404193Y-16829450D01*
X11418478Y-16772307D01*
X11432764Y-16743736D01*
X11447050Y-16729450D01*
X11475621Y-16715164D01*
X11689907Y-16743736D02*
X11704193Y-16729450D01*
X11732764Y-16715164D01*
X11804193Y-16715164D01*
X11832764Y-16729450D01*
X11847050Y-16743736D01*
X11861335Y-16772307D01*
X11861335Y-16800879D01*
X11847050Y-16843736D01*
X11675621Y-17015164D01*
X11861335Y-17015164D01*
X12118478Y-16815164D02*
X12118478Y-17015164D01*
X12047050Y-16700879D02*
X11975621Y-16915164D01*
X12161335Y-16915164D01*
X12261336Y-16715164D02*
X12261336Y-16772307D01*
X12375621Y-16715164D02*
X12375621Y-16772307D01*
X12818478Y-17129450D02*
X12804193Y-17115164D01*
X12775621Y-17072307D01*
X12761335Y-17043736D01*
X12747050Y-17000879D01*
X12732764Y-16929450D01*
X12732764Y-16872307D01*
X12747050Y-16800879D01*
X12761335Y-16758021D01*
X12775621Y-16729450D01*
X12804193Y-16686593D01*
X12818478Y-16672307D01*
X12918478Y-16743736D02*
X12932764Y-16729450D01*
X12961335Y-16715164D01*
X13032764Y-16715164D01*
X13061335Y-16729450D01*
X13075621Y-16743736D01*
X13089907Y-16772307D01*
X13089907Y-16800879D01*
X13075621Y-16843736D01*
X12904193Y-17015164D01*
X13089907Y-17015164D01*
X13275621Y-16715164D02*
X13304193Y-16715164D01*
X13332764Y-16729450D01*
X13347050Y-16743736D01*
X13361335Y-16772307D01*
X13375621Y-16829450D01*
X13375621Y-16900879D01*
X13361335Y-16958022D01*
X13347050Y-16986593D01*
X13332764Y-17000879D01*
X13304193Y-17015164D01*
X13275621Y-17015164D01*
X13247050Y-17000879D01*
X13232764Y-16986593D01*
X13218478Y-16958022D01*
X13204193Y-16900879D01*
X13204193Y-16829450D01*
X13218478Y-16772307D01*
X13232764Y-16743736D01*
X13247050Y-16729450D01*
X13275621Y-16715164D01*
X13632764Y-16815164D02*
X13632764Y-17015164D01*
X13561335Y-16700879D02*
X13489907Y-16915164D01*
X13675621Y-16915164D01*
X14018478Y-17015164D02*
X14018478Y-16715164D01*
X14147050Y-17015164D02*
X14147050Y-16858022D01*
X14132764Y-16829450D01*
X14104193Y-16815164D01*
X14061335Y-16815164D01*
X14032764Y-16829450D01*
X14018478Y-16843736D01*
X14332764Y-17015164D02*
X14304193Y-17000879D01*
X14289907Y-16986593D01*
X14275621Y-16958022D01*
X14275621Y-16872307D01*
X14289907Y-16843736D01*
X14304193Y-16829450D01*
X14332764Y-16815164D01*
X14375621Y-16815164D01*
X14404193Y-16829450D01*
X14418478Y-16843736D01*
X14432764Y-16872307D01*
X14432764Y-16958022D01*
X14418478Y-16986593D01*
X14404193Y-17000879D01*
X14375621Y-17015164D01*
X14332764Y-17015164D01*
X14604193Y-17015164D02*
X14575621Y-17000879D01*
X14561336Y-16972307D01*
X14561336Y-16715164D01*
X14832764Y-17000879D02*
X14804193Y-17015164D01*
X14747050Y-17015164D01*
X14718478Y-17000879D01*
X14704193Y-16972307D01*
X14704193Y-16858022D01*
X14718478Y-16829450D01*
X14747050Y-16815164D01*
X14804193Y-16815164D01*
X14832764Y-16829450D01*
X14847050Y-16858022D01*
X14847050Y-16886593D01*
X14704193Y-16915164D01*
X14961336Y-17000879D02*
X14989907Y-17015164D01*
X15047050Y-17015164D01*
X15075621Y-17000879D01*
X15089907Y-16972307D01*
X15089907Y-16958022D01*
X15075621Y-16929450D01*
X15047050Y-16915164D01*
X15004193Y-16915164D01*
X14975621Y-16900879D01*
X14961336Y-16872307D01*
X14961336Y-16858022D01*
X14975621Y-16829450D01*
X15004193Y-16815164D01*
X15047050Y-16815164D01*
X15075621Y-16829450D01*
X15189907Y-17129450D02*
X15204193Y-17115164D01*
X15232764Y-17072307D01*
X15247050Y-17043736D01*
X15261336Y-17000879D01*
X15275621Y-16929450D01*
X15275621Y-16872307D01*
X15261336Y-16800879D01*
X15247050Y-16758021D01*
X15232764Y-16729450D01*
X15204193Y-16686593D01*
X15189907Y-16672307D01*
X8147050Y-17275450D02*
G75*
G03X8147050Y-17275450I-30000J0D01*
G01*
X8475621Y-17111164D02*
X8504193Y-17111164D01*
X8532764Y-17125450D01*
X8547050Y-17139736D01*
X8561336Y-17168307D01*
X8575621Y-17225450D01*
X8575621Y-17296879D01*
X8561336Y-17354022D01*
X8547050Y-17382593D01*
X8532764Y-17396879D01*
X8504193Y-17411164D01*
X8475621Y-17411164D01*
X8447050Y-17396879D01*
X8432764Y-17382593D01*
X8418479Y-17354022D01*
X8404193Y-17296879D01*
X8404193Y-17225450D01*
X8418479Y-17168307D01*
X8432764Y-17139736D01*
X8447050Y-17125450D01*
X8475621Y-17111164D01*
X8704193Y-17382593D02*
X8718479Y-17396879D01*
X8704193Y-17411164D01*
X8689907Y-17396879D01*
X8704193Y-17382593D01*
X8704193Y-17411164D01*
X8975621Y-17111164D02*
X8918478Y-17111164D01*
X8889907Y-17125450D01*
X8875621Y-17139736D01*
X8847050Y-17182593D01*
X8832764Y-17239736D01*
X8832764Y-17354022D01*
X8847050Y-17382593D01*
X8861336Y-17396879D01*
X8889907Y-17411164D01*
X8947050Y-17411164D01*
X8975621Y-17396879D01*
X8989907Y-17382593D01*
X9004193Y-17354022D01*
X9004193Y-17282593D01*
X8989907Y-17254022D01*
X8975621Y-17239736D01*
X8947050Y-17225450D01*
X8889907Y-17225450D01*
X8861336Y-17239736D01*
X8847050Y-17254022D01*
X8832764Y-17282593D01*
X9189907Y-17111164D02*
X9218479Y-17111164D01*
X9247050Y-17125450D01*
X9261336Y-17139736D01*
X9275621Y-17168307D01*
X9289907Y-17225450D01*
X9289907Y-17296879D01*
X9275621Y-17354022D01*
X9261336Y-17382593D01*
X9247050Y-17396879D01*
X9218479Y-17411164D01*
X9189907Y-17411164D01*
X9161336Y-17396879D01*
X9147050Y-17382593D01*
X9132764Y-17354022D01*
X9118479Y-17296879D01*
X9118479Y-17225450D01*
X9132764Y-17168307D01*
X9147050Y-17139736D01*
X9161336Y-17125450D01*
X9189907Y-17111164D01*
X9418479Y-17411164D02*
X9418479Y-17211164D01*
X9418479Y-17239736D02*
X9432764Y-17225450D01*
X9461336Y-17211164D01*
X9504193Y-17211164D01*
X9532764Y-17225450D01*
X9547050Y-17254022D01*
X9547050Y-17411164D01*
X9547050Y-17254022D02*
X9561336Y-17225450D01*
X9589907Y-17211164D01*
X9632764Y-17211164D01*
X9661336Y-17225450D01*
X9675621Y-17254022D01*
X9675621Y-17411164D01*
X9818479Y-17411164D02*
X9818479Y-17211164D01*
X9818479Y-17239736D02*
X9832764Y-17225450D01*
X9861336Y-17211164D01*
X9904193Y-17211164D01*
X9932764Y-17225450D01*
X9947050Y-17254022D01*
X9947050Y-17411164D01*
X9947050Y-17254022D02*
X9961336Y-17225450D01*
X9989907Y-17211164D01*
X10032764Y-17211164D01*
X10061336Y-17225450D01*
X10075621Y-17254022D01*
X10075621Y-17411164D01*
X10661336Y-17096879D02*
X10404193Y-17482593D01*
X11047050Y-17111164D02*
X11075621Y-17111164D01*
X11104193Y-17125450D01*
X11118478Y-17139736D01*
X11132764Y-17168307D01*
X11147050Y-17225450D01*
X11147050Y-17296879D01*
X11132764Y-17354022D01*
X11118478Y-17382593D01*
X11104193Y-17396879D01*
X11075621Y-17411164D01*
X11047050Y-17411164D01*
X11018478Y-17396879D01*
X11004193Y-17382593D01*
X10989907Y-17354022D01*
X10975621Y-17296879D01*
X10975621Y-17225450D01*
X10989907Y-17168307D01*
X11004193Y-17139736D01*
X11018478Y-17125450D01*
X11047050Y-17111164D01*
X11275621Y-17382593D02*
X11289907Y-17396879D01*
X11275621Y-17411164D01*
X11261336Y-17396879D01*
X11275621Y-17382593D01*
X11275621Y-17411164D01*
X11475621Y-17111164D02*
X11504193Y-17111164D01*
X11532764Y-17125450D01*
X11547050Y-17139736D01*
X11561335Y-17168307D01*
X11575621Y-17225450D01*
X11575621Y-17296879D01*
X11561335Y-17354022D01*
X11547050Y-17382593D01*
X11532764Y-17396879D01*
X11504193Y-17411164D01*
X11475621Y-17411164D01*
X11447050Y-17396879D01*
X11432764Y-17382593D01*
X11418478Y-17354022D01*
X11404193Y-17296879D01*
X11404193Y-17225450D01*
X11418478Y-17168307D01*
X11432764Y-17139736D01*
X11447050Y-17125450D01*
X11475621Y-17111164D01*
X11689907Y-17139736D02*
X11704193Y-17125450D01*
X11732764Y-17111164D01*
X11804193Y-17111164D01*
X11832764Y-17125450D01*
X11847050Y-17139736D01*
X11861335Y-17168307D01*
X11861335Y-17196879D01*
X11847050Y-17239736D01*
X11675621Y-17411164D01*
X11861335Y-17411164D01*
X12118478Y-17211164D02*
X12118478Y-17411164D01*
X12047050Y-17096879D02*
X11975621Y-17311164D01*
X12161335Y-17311164D01*
X12261336Y-17111164D02*
X12261336Y-17168307D01*
X12375621Y-17111164D02*
X12375621Y-17168307D01*
X12818478Y-17525450D02*
X12804193Y-17511164D01*
X12775621Y-17468307D01*
X12761335Y-17439736D01*
X12747050Y-17396879D01*
X12732764Y-17325450D01*
X12732764Y-17268307D01*
X12747050Y-17196879D01*
X12761335Y-17154022D01*
X12775621Y-17125450D01*
X12804193Y-17082593D01*
X12818478Y-17068307D01*
X13061335Y-17211164D02*
X13061335Y-17411164D01*
X12989907Y-17096879D02*
X12918478Y-17311164D01*
X13104193Y-17311164D01*
X13447050Y-17411164D02*
X13447050Y-17111164D01*
X13575621Y-17411164D02*
X13575621Y-17254022D01*
X13561335Y-17225450D01*
X13532764Y-17211164D01*
X13489907Y-17211164D01*
X13461335Y-17225450D01*
X13447050Y-17239736D01*
X13761335Y-17411164D02*
X13732764Y-17396879D01*
X13718478Y-17382593D01*
X13704193Y-17354022D01*
X13704193Y-17268307D01*
X13718478Y-17239736D01*
X13732764Y-17225450D01*
X13761335Y-17211164D01*
X13804193Y-17211164D01*
X13832764Y-17225450D01*
X13847050Y-17239736D01*
X13861335Y-17268307D01*
X13861335Y-17354022D01*
X13847050Y-17382593D01*
X13832764Y-17396879D01*
X13804193Y-17411164D01*
X13761335Y-17411164D01*
X14032764Y-17411164D02*
X14004193Y-17396879D01*
X13989907Y-17368307D01*
X13989907Y-17111164D01*
X14261336Y-17396879D02*
X14232764Y-17411164D01*
X14175621Y-17411164D01*
X14147050Y-17396879D01*
X14132764Y-17368307D01*
X14132764Y-17254022D01*
X14147050Y-17225450D01*
X14175621Y-17211164D01*
X14232764Y-17211164D01*
X14261336Y-17225450D01*
X14275621Y-17254022D01*
X14275621Y-17282593D01*
X14132764Y-17311164D01*
X14389907Y-17396879D02*
X14418478Y-17411164D01*
X14475621Y-17411164D01*
X14504193Y-17396879D01*
X14518478Y-17368307D01*
X14518478Y-17354022D01*
X14504193Y-17325450D01*
X14475621Y-17311164D01*
X14432764Y-17311164D01*
X14404193Y-17296879D01*
X14389907Y-17268307D01*
X14389907Y-17254022D01*
X14404193Y-17225450D01*
X14432764Y-17211164D01*
X14475621Y-17211164D01*
X14504193Y-17225450D01*
X14618478Y-17525450D02*
X14632764Y-17511164D01*
X14661336Y-17468307D01*
X14675621Y-17439736D01*
X14689907Y-17396879D01*
X14704193Y-17325450D01*
X14704193Y-17268307D01*
X14689907Y-17196879D01*
X14675621Y-17154022D01*
X14661336Y-17125450D01*
X14632764Y-17082593D01*
X14618478Y-17068307D01*
X8107045Y-17631445D02*
X8107045Y-17711455D01*
X8067040Y-17671450D02*
X8147050Y-17671450D01*
X8475621Y-17507164D02*
X8504193Y-17507164D01*
X8532764Y-17521450D01*
X8547050Y-17535736D01*
X8561336Y-17564307D01*
X8575621Y-17621450D01*
X8575621Y-17692879D01*
X8561336Y-17750022D01*
X8547050Y-17778593D01*
X8532764Y-17792879D01*
X8504193Y-17807164D01*
X8475621Y-17807164D01*
X8447050Y-17792879D01*
X8432764Y-17778593D01*
X8418479Y-17750022D01*
X8404193Y-17692879D01*
X8404193Y-17621450D01*
X8418479Y-17564307D01*
X8432764Y-17535736D01*
X8447050Y-17521450D01*
X8475621Y-17507164D01*
X8704193Y-17778593D02*
X8718479Y-17792879D01*
X8704193Y-17807164D01*
X8689907Y-17792879D01*
X8704193Y-17778593D01*
X8704193Y-17807164D01*
X8889907Y-17635736D02*
X8861336Y-17621450D01*
X8847050Y-17607164D01*
X8832764Y-17578593D01*
X8832764Y-17564307D01*
X8847050Y-17535736D01*
X8861336Y-17521450D01*
X8889907Y-17507164D01*
X8947050Y-17507164D01*
X8975621Y-17521450D01*
X8989907Y-17535736D01*
X9004193Y-17564307D01*
X9004193Y-17578593D01*
X8989907Y-17607164D01*
X8975621Y-17621450D01*
X8947050Y-17635736D01*
X8889907Y-17635736D01*
X8861336Y-17650022D01*
X8847050Y-17664307D01*
X8832764Y-17692879D01*
X8832764Y-17750022D01*
X8847050Y-17778593D01*
X8861336Y-17792879D01*
X8889907Y-17807164D01*
X8947050Y-17807164D01*
X8975621Y-17792879D01*
X8989907Y-17778593D01*
X9004193Y-17750022D01*
X9004193Y-17692879D01*
X8989907Y-17664307D01*
X8975621Y-17650022D01*
X8947050Y-17635736D01*
X9189907Y-17507164D02*
X9218479Y-17507164D01*
X9247050Y-17521450D01*
X9261336Y-17535736D01*
X9275621Y-17564307D01*
X9289907Y-17621450D01*
X9289907Y-17692879D01*
X9275621Y-17750022D01*
X9261336Y-17778593D01*
X9247050Y-17792879D01*
X9218479Y-17807164D01*
X9189907Y-17807164D01*
X9161336Y-17792879D01*
X9147050Y-17778593D01*
X9132764Y-17750022D01*
X9118479Y-17692879D01*
X9118479Y-17621450D01*
X9132764Y-17564307D01*
X9147050Y-17535736D01*
X9161336Y-17521450D01*
X9189907Y-17507164D01*
X9418479Y-17807164D02*
X9418479Y-17607164D01*
X9418479Y-17635736D02*
X9432764Y-17621450D01*
X9461336Y-17607164D01*
X9504193Y-17607164D01*
X9532764Y-17621450D01*
X9547050Y-17650022D01*
X9547050Y-17807164D01*
X9547050Y-17650022D02*
X9561336Y-17621450D01*
X9589907Y-17607164D01*
X9632764Y-17607164D01*
X9661336Y-17621450D01*
X9675621Y-17650022D01*
X9675621Y-17807164D01*
X9818479Y-17807164D02*
X9818479Y-17607164D01*
X9818479Y-17635736D02*
X9832764Y-17621450D01*
X9861336Y-17607164D01*
X9904193Y-17607164D01*
X9932764Y-17621450D01*
X9947050Y-17650022D01*
X9947050Y-17807164D01*
X9947050Y-17650022D02*
X9961336Y-17621450D01*
X9989907Y-17607164D01*
X10032764Y-17607164D01*
X10061336Y-17621450D01*
X10075621Y-17650022D01*
X10075621Y-17807164D01*
X10661336Y-17492879D02*
X10404193Y-17878593D01*
X11047050Y-17507164D02*
X11075621Y-17507164D01*
X11104193Y-17521450D01*
X11118478Y-17535736D01*
X11132764Y-17564307D01*
X11147050Y-17621450D01*
X11147050Y-17692879D01*
X11132764Y-17750022D01*
X11118478Y-17778593D01*
X11104193Y-17792879D01*
X11075621Y-17807164D01*
X11047050Y-17807164D01*
X11018478Y-17792879D01*
X11004193Y-17778593D01*
X10989907Y-17750022D01*
X10975621Y-17692879D01*
X10975621Y-17621450D01*
X10989907Y-17564307D01*
X11004193Y-17535736D01*
X11018478Y-17521450D01*
X11047050Y-17507164D01*
X11275621Y-17778593D02*
X11289907Y-17792879D01*
X11275621Y-17807164D01*
X11261336Y-17792879D01*
X11275621Y-17778593D01*
X11275621Y-17807164D01*
X11475621Y-17507164D02*
X11504193Y-17507164D01*
X11532764Y-17521450D01*
X11547050Y-17535736D01*
X11561335Y-17564307D01*
X11575621Y-17621450D01*
X11575621Y-17692879D01*
X11561335Y-17750022D01*
X11547050Y-17778593D01*
X11532764Y-17792879D01*
X11504193Y-17807164D01*
X11475621Y-17807164D01*
X11447050Y-17792879D01*
X11432764Y-17778593D01*
X11418478Y-17750022D01*
X11404193Y-17692879D01*
X11404193Y-17621450D01*
X11418478Y-17564307D01*
X11432764Y-17535736D01*
X11447050Y-17521450D01*
X11475621Y-17507164D01*
X11675621Y-17507164D02*
X11861335Y-17507164D01*
X11761335Y-17621450D01*
X11804193Y-17621450D01*
X11832764Y-17635736D01*
X11847050Y-17650022D01*
X11861335Y-17678593D01*
X11861335Y-17750022D01*
X11847050Y-17778593D01*
X11832764Y-17792879D01*
X11804193Y-17807164D01*
X11718478Y-17807164D01*
X11689907Y-17792879D01*
X11675621Y-17778593D01*
X11975621Y-17535736D02*
X11989907Y-17521450D01*
X12018478Y-17507164D01*
X12089907Y-17507164D01*
X12118478Y-17521450D01*
X12132764Y-17535736D01*
X12147050Y-17564307D01*
X12147050Y-17592879D01*
X12132764Y-17635736D01*
X11961335Y-17807164D01*
X12147050Y-17807164D01*
X12261336Y-17507164D02*
X12261336Y-17564307D01*
X12375621Y-17507164D02*
X12375621Y-17564307D01*
X12818478Y-17921450D02*
X12804193Y-17907164D01*
X12775621Y-17864307D01*
X12761335Y-17835736D01*
X12747050Y-17792879D01*
X12732764Y-17721450D01*
X12732764Y-17664307D01*
X12747050Y-17592879D01*
X12761335Y-17550022D01*
X12775621Y-17521450D01*
X12804193Y-17478593D01*
X12818478Y-17464307D01*
X13061335Y-17507164D02*
X13004193Y-17507164D01*
X12975621Y-17521450D01*
X12961335Y-17535736D01*
X12932764Y-17578593D01*
X12918478Y-17635736D01*
X12918478Y-17750022D01*
X12932764Y-17778593D01*
X12947050Y-17792879D01*
X12975621Y-17807164D01*
X13032764Y-17807164D01*
X13061335Y-17792879D01*
X13075621Y-17778593D01*
X13089907Y-17750022D01*
X13089907Y-17678593D01*
X13075621Y-17650022D01*
X13061335Y-17635736D01*
X13032764Y-17621450D01*
X12975621Y-17621450D01*
X12947050Y-17635736D01*
X12932764Y-17650022D01*
X12918478Y-17678593D01*
X13447050Y-17807164D02*
X13447050Y-17507164D01*
X13575621Y-17807164D02*
X13575621Y-17650022D01*
X13561335Y-17621450D01*
X13532764Y-17607164D01*
X13489907Y-17607164D01*
X13461335Y-17621450D01*
X13447050Y-17635736D01*
X13761335Y-17807164D02*
X13732764Y-17792879D01*
X13718478Y-17778593D01*
X13704193Y-17750022D01*
X13704193Y-17664307D01*
X13718478Y-17635736D01*
X13732764Y-17621450D01*
X13761335Y-17607164D01*
X13804193Y-17607164D01*
X13832764Y-17621450D01*
X13847050Y-17635736D01*
X13861335Y-17664307D01*
X13861335Y-17750022D01*
X13847050Y-17778593D01*
X13832764Y-17792879D01*
X13804193Y-17807164D01*
X13761335Y-17807164D01*
X14032764Y-17807164D02*
X14004193Y-17792879D01*
X13989907Y-17764307D01*
X13989907Y-17507164D01*
X14261336Y-17792879D02*
X14232764Y-17807164D01*
X14175621Y-17807164D01*
X14147050Y-17792879D01*
X14132764Y-17764307D01*
X14132764Y-17650022D01*
X14147050Y-17621450D01*
X14175621Y-17607164D01*
X14232764Y-17607164D01*
X14261336Y-17621450D01*
X14275621Y-17650022D01*
X14275621Y-17678593D01*
X14132764Y-17707164D01*
X14389907Y-17792879D02*
X14418478Y-17807164D01*
X14475621Y-17807164D01*
X14504193Y-17792879D01*
X14518478Y-17764307D01*
X14518478Y-17750022D01*
X14504193Y-17721450D01*
X14475621Y-17707164D01*
X14432764Y-17707164D01*
X14404193Y-17692879D01*
X14389907Y-17664307D01*
X14389907Y-17650022D01*
X14404193Y-17621450D01*
X14432764Y-17607164D01*
X14475621Y-17607164D01*
X14504193Y-17621450D01*
X14618478Y-17921450D02*
X14632764Y-17907164D01*
X14661336Y-17864307D01*
X14675621Y-17835736D01*
X14689907Y-17792879D01*
X14704193Y-17721450D01*
X14704193Y-17664307D01*
X14689907Y-17592879D01*
X14675621Y-17550022D01*
X14661336Y-17521450D01*
X14632764Y-17478593D01*
X14618478Y-17464307D01*
X8135147Y-18096187D02*
X8135147Y-18038713D01*
X8077673Y-18038713D01*
X8077673Y-18096187D01*
X8135147Y-18096187D01*
X8475621Y-17903164D02*
X8504193Y-17903164D01*
X8532764Y-17917450D01*
X8547050Y-17931736D01*
X8561336Y-17960307D01*
X8575621Y-18017450D01*
X8575621Y-18088879D01*
X8561336Y-18146022D01*
X8547050Y-18174593D01*
X8532764Y-18188879D01*
X8504193Y-18203164D01*
X8475621Y-18203164D01*
X8447050Y-18188879D01*
X8432764Y-18174593D01*
X8418479Y-18146022D01*
X8404193Y-18088879D01*
X8404193Y-18017450D01*
X8418479Y-17960307D01*
X8432764Y-17931736D01*
X8447050Y-17917450D01*
X8475621Y-17903164D01*
X8704193Y-18174593D02*
X8718479Y-18188879D01*
X8704193Y-18203164D01*
X8689907Y-18188879D01*
X8704193Y-18174593D01*
X8704193Y-18203164D01*
X8889907Y-18031736D02*
X8861336Y-18017450D01*
X8847050Y-18003164D01*
X8832764Y-17974593D01*
X8832764Y-17960307D01*
X8847050Y-17931736D01*
X8861336Y-17917450D01*
X8889907Y-17903164D01*
X8947050Y-17903164D01*
X8975621Y-17917450D01*
X8989907Y-17931736D01*
X9004193Y-17960307D01*
X9004193Y-17974593D01*
X8989907Y-18003164D01*
X8975621Y-18017450D01*
X8947050Y-18031736D01*
X8889907Y-18031736D01*
X8861336Y-18046022D01*
X8847050Y-18060307D01*
X8832764Y-18088879D01*
X8832764Y-18146022D01*
X8847050Y-18174593D01*
X8861336Y-18188879D01*
X8889907Y-18203164D01*
X8947050Y-18203164D01*
X8975621Y-18188879D01*
X8989907Y-18174593D01*
X9004193Y-18146022D01*
X9004193Y-18088879D01*
X8989907Y-18060307D01*
X8975621Y-18046022D01*
X8947050Y-18031736D01*
X9289907Y-18203164D02*
X9118479Y-18203164D01*
X9204193Y-18203164D02*
X9204193Y-17903164D01*
X9175621Y-17946022D01*
X9147050Y-17974593D01*
X9118479Y-17988879D01*
X9418479Y-18203164D02*
X9418479Y-18003164D01*
X9418479Y-18031736D02*
X9432764Y-18017450D01*
X9461336Y-18003164D01*
X9504193Y-18003164D01*
X9532764Y-18017450D01*
X9547050Y-18046022D01*
X9547050Y-18203164D01*
X9547050Y-18046022D02*
X9561336Y-18017450D01*
X9589907Y-18003164D01*
X9632764Y-18003164D01*
X9661336Y-18017450D01*
X9675621Y-18046022D01*
X9675621Y-18203164D01*
X9818479Y-18203164D02*
X9818479Y-18003164D01*
X9818479Y-18031736D02*
X9832764Y-18017450D01*
X9861336Y-18003164D01*
X9904193Y-18003164D01*
X9932764Y-18017450D01*
X9947050Y-18046022D01*
X9947050Y-18203164D01*
X9947050Y-18046022D02*
X9961336Y-18017450D01*
X9989907Y-18003164D01*
X10032764Y-18003164D01*
X10061336Y-18017450D01*
X10075621Y-18046022D01*
X10075621Y-18203164D01*
X10661336Y-17888879D02*
X10404193Y-18274593D01*
X11047050Y-17903164D02*
X11075621Y-17903164D01*
X11104193Y-17917450D01*
X11118478Y-17931736D01*
X11132764Y-17960307D01*
X11147050Y-18017450D01*
X11147050Y-18088879D01*
X11132764Y-18146022D01*
X11118478Y-18174593D01*
X11104193Y-18188879D01*
X11075621Y-18203164D01*
X11047050Y-18203164D01*
X11018478Y-18188879D01*
X11004193Y-18174593D01*
X10989907Y-18146022D01*
X10975621Y-18088879D01*
X10975621Y-18017450D01*
X10989907Y-17960307D01*
X11004193Y-17931736D01*
X11018478Y-17917450D01*
X11047050Y-17903164D01*
X11275621Y-18174593D02*
X11289907Y-18188879D01*
X11275621Y-18203164D01*
X11261336Y-18188879D01*
X11275621Y-18174593D01*
X11275621Y-18203164D01*
X11475621Y-17903164D02*
X11504193Y-17903164D01*
X11532764Y-17917450D01*
X11547050Y-17931736D01*
X11561335Y-17960307D01*
X11575621Y-18017450D01*
X11575621Y-18088879D01*
X11561335Y-18146022D01*
X11547050Y-18174593D01*
X11532764Y-18188879D01*
X11504193Y-18203164D01*
X11475621Y-18203164D01*
X11447050Y-18188879D01*
X11432764Y-18174593D01*
X11418478Y-18146022D01*
X11404193Y-18088879D01*
X11404193Y-18017450D01*
X11418478Y-17960307D01*
X11432764Y-17931736D01*
X11447050Y-17917450D01*
X11475621Y-17903164D01*
X11675621Y-17903164D02*
X11861335Y-17903164D01*
X11761335Y-18017450D01*
X11804193Y-18017450D01*
X11832764Y-18031736D01*
X11847050Y-18046022D01*
X11861335Y-18074593D01*
X11861335Y-18146022D01*
X11847050Y-18174593D01*
X11832764Y-18188879D01*
X11804193Y-18203164D01*
X11718478Y-18203164D01*
X11689907Y-18188879D01*
X11675621Y-18174593D01*
X11975621Y-17931736D02*
X11989907Y-17917450D01*
X12018478Y-17903164D01*
X12089907Y-17903164D01*
X12118478Y-17917450D01*
X12132764Y-17931736D01*
X12147050Y-17960307D01*
X12147050Y-17988879D01*
X12132764Y-18031736D01*
X11961335Y-18203164D01*
X12147050Y-18203164D01*
X12261336Y-17903164D02*
X12261336Y-17960307D01*
X12375621Y-17903164D02*
X12375621Y-17960307D01*
X12818478Y-18317450D02*
X12804193Y-18303164D01*
X12775621Y-18260307D01*
X12761335Y-18231736D01*
X12747050Y-18188879D01*
X12732764Y-18117450D01*
X12732764Y-18060307D01*
X12747050Y-17988879D01*
X12761335Y-17946022D01*
X12775621Y-17917450D01*
X12804193Y-17874593D01*
X12818478Y-17860307D01*
X13061335Y-17903164D02*
X13004193Y-17903164D01*
X12975621Y-17917450D01*
X12961335Y-17931736D01*
X12932764Y-17974593D01*
X12918478Y-18031736D01*
X12918478Y-18146022D01*
X12932764Y-18174593D01*
X12947050Y-18188879D01*
X12975621Y-18203164D01*
X13032764Y-18203164D01*
X13061335Y-18188879D01*
X13075621Y-18174593D01*
X13089907Y-18146022D01*
X13089907Y-18074593D01*
X13075621Y-18046022D01*
X13061335Y-18031736D01*
X13032764Y-18017450D01*
X12975621Y-18017450D01*
X12947050Y-18031736D01*
X12932764Y-18046022D01*
X12918478Y-18074593D01*
X13447050Y-18203164D02*
X13447050Y-17903164D01*
X13575621Y-18203164D02*
X13575621Y-18046022D01*
X13561335Y-18017450D01*
X13532764Y-18003164D01*
X13489907Y-18003164D01*
X13461335Y-18017450D01*
X13447050Y-18031736D01*
X13761335Y-18203164D02*
X13732764Y-18188879D01*
X13718478Y-18174593D01*
X13704193Y-18146022D01*
X13704193Y-18060307D01*
X13718478Y-18031736D01*
X13732764Y-18017450D01*
X13761335Y-18003164D01*
X13804193Y-18003164D01*
X13832764Y-18017450D01*
X13847050Y-18031736D01*
X13861335Y-18060307D01*
X13861335Y-18146022D01*
X13847050Y-18174593D01*
X13832764Y-18188879D01*
X13804193Y-18203164D01*
X13761335Y-18203164D01*
X14032764Y-18203164D02*
X14004193Y-18188879D01*
X13989907Y-18160307D01*
X13989907Y-17903164D01*
X14261336Y-18188879D02*
X14232764Y-18203164D01*
X14175621Y-18203164D01*
X14147050Y-18188879D01*
X14132764Y-18160307D01*
X14132764Y-18046022D01*
X14147050Y-18017450D01*
X14175621Y-18003164D01*
X14232764Y-18003164D01*
X14261336Y-18017450D01*
X14275621Y-18046022D01*
X14275621Y-18074593D01*
X14132764Y-18103164D01*
X14389907Y-18188879D02*
X14418478Y-18203164D01*
X14475621Y-18203164D01*
X14504193Y-18188879D01*
X14518478Y-18160307D01*
X14518478Y-18146022D01*
X14504193Y-18117450D01*
X14475621Y-18103164D01*
X14432764Y-18103164D01*
X14404193Y-18088879D01*
X14389907Y-18060307D01*
X14389907Y-18046022D01*
X14404193Y-18017450D01*
X14432764Y-18003164D01*
X14475621Y-18003164D01*
X14504193Y-18017450D01*
X14618478Y-18317450D02*
X14632764Y-18303164D01*
X14661336Y-18260307D01*
X14675621Y-18231736D01*
X14689907Y-18188879D01*
X14704193Y-18117450D01*
X14704193Y-18060307D01*
X14689907Y-17988879D01*
X14675621Y-17946022D01*
X14661336Y-17917450D01*
X14632764Y-17874593D01*
X14618478Y-17860307D01*
X8097050Y-18513450D02*
X8147050Y-18463450D01*
X8097050Y-18413450D01*
X8047050Y-18463450D01*
X8097050Y-18513450D01*
X8575621Y-18599164D02*
X8404193Y-18599164D01*
X8489907Y-18599164D02*
X8489907Y-18299164D01*
X8461336Y-18342022D01*
X8432764Y-18370593D01*
X8404193Y-18384879D01*
X8704193Y-18570593D02*
X8718479Y-18584879D01*
X8704193Y-18599164D01*
X8689907Y-18584879D01*
X8704193Y-18570593D01*
X8704193Y-18599164D01*
X8904193Y-18299164D02*
X8932764Y-18299164D01*
X8961336Y-18313450D01*
X8975621Y-18327736D01*
X8989907Y-18356307D01*
X9004193Y-18413450D01*
X9004193Y-18484879D01*
X8989907Y-18542022D01*
X8975621Y-18570593D01*
X8961336Y-18584879D01*
X8932764Y-18599164D01*
X8904193Y-18599164D01*
X8875621Y-18584879D01*
X8861336Y-18570593D01*
X8847050Y-18542022D01*
X8832764Y-18484879D01*
X8832764Y-18413450D01*
X8847050Y-18356307D01*
X8861336Y-18327736D01*
X8875621Y-18313450D01*
X8904193Y-18299164D01*
X9189907Y-18299164D02*
X9218479Y-18299164D01*
X9247050Y-18313450D01*
X9261336Y-18327736D01*
X9275621Y-18356307D01*
X9289907Y-18413450D01*
X9289907Y-18484879D01*
X9275621Y-18542022D01*
X9261336Y-18570593D01*
X9247050Y-18584879D01*
X9218479Y-18599164D01*
X9189907Y-18599164D01*
X9161336Y-18584879D01*
X9147050Y-18570593D01*
X9132764Y-18542022D01*
X9118479Y-18484879D01*
X9118479Y-18413450D01*
X9132764Y-18356307D01*
X9147050Y-18327736D01*
X9161336Y-18313450D01*
X9189907Y-18299164D01*
X9418479Y-18599164D02*
X9418479Y-18399164D01*
X9418479Y-18427736D02*
X9432764Y-18413450D01*
X9461336Y-18399164D01*
X9504193Y-18399164D01*
X9532764Y-18413450D01*
X9547050Y-18442022D01*
X9547050Y-18599164D01*
X9547050Y-18442022D02*
X9561336Y-18413450D01*
X9589907Y-18399164D01*
X9632764Y-18399164D01*
X9661336Y-18413450D01*
X9675621Y-18442022D01*
X9675621Y-18599164D01*
X9818479Y-18599164D02*
X9818479Y-18399164D01*
X9818479Y-18427736D02*
X9832764Y-18413450D01*
X9861336Y-18399164D01*
X9904193Y-18399164D01*
X9932764Y-18413450D01*
X9947050Y-18442022D01*
X9947050Y-18599164D01*
X9947050Y-18442022D02*
X9961336Y-18413450D01*
X9989907Y-18399164D01*
X10032764Y-18399164D01*
X10061336Y-18413450D01*
X10075621Y-18442022D01*
X10075621Y-18599164D01*
X10661336Y-18284879D02*
X10404193Y-18670593D01*
X11047050Y-18299164D02*
X11075621Y-18299164D01*
X11104193Y-18313450D01*
X11118478Y-18327736D01*
X11132764Y-18356307D01*
X11147050Y-18413450D01*
X11147050Y-18484879D01*
X11132764Y-18542022D01*
X11118478Y-18570593D01*
X11104193Y-18584879D01*
X11075621Y-18599164D01*
X11047050Y-18599164D01*
X11018478Y-18584879D01*
X11004193Y-18570593D01*
X10989907Y-18542022D01*
X10975621Y-18484879D01*
X10975621Y-18413450D01*
X10989907Y-18356307D01*
X11004193Y-18327736D01*
X11018478Y-18313450D01*
X11047050Y-18299164D01*
X11275621Y-18570593D02*
X11289907Y-18584879D01*
X11275621Y-18599164D01*
X11261336Y-18584879D01*
X11275621Y-18570593D01*
X11275621Y-18599164D01*
X11475621Y-18299164D02*
X11504193Y-18299164D01*
X11532764Y-18313450D01*
X11547050Y-18327736D01*
X11561335Y-18356307D01*
X11575621Y-18413450D01*
X11575621Y-18484879D01*
X11561335Y-18542022D01*
X11547050Y-18570593D01*
X11532764Y-18584879D01*
X11504193Y-18599164D01*
X11475621Y-18599164D01*
X11447050Y-18584879D01*
X11432764Y-18570593D01*
X11418478Y-18542022D01*
X11404193Y-18484879D01*
X11404193Y-18413450D01*
X11418478Y-18356307D01*
X11432764Y-18327736D01*
X11447050Y-18313450D01*
X11475621Y-18299164D01*
X11675621Y-18299164D02*
X11861335Y-18299164D01*
X11761335Y-18413450D01*
X11804193Y-18413450D01*
X11832764Y-18427736D01*
X11847050Y-18442022D01*
X11861335Y-18470593D01*
X11861335Y-18542022D01*
X11847050Y-18570593D01*
X11832764Y-18584879D01*
X11804193Y-18599164D01*
X11718478Y-18599164D01*
X11689907Y-18584879D01*
X11675621Y-18570593D01*
X12004193Y-18599164D02*
X12061335Y-18599164D01*
X12089907Y-18584879D01*
X12104193Y-18570593D01*
X12132764Y-18527736D01*
X12147050Y-18470593D01*
X12147050Y-18356307D01*
X12132764Y-18327736D01*
X12118478Y-18313450D01*
X12089907Y-18299164D01*
X12032764Y-18299164D01*
X12004193Y-18313450D01*
X11989907Y-18327736D01*
X11975621Y-18356307D01*
X11975621Y-18427736D01*
X11989907Y-18456307D01*
X12004193Y-18470593D01*
X12032764Y-18484879D01*
X12089907Y-18484879D01*
X12118478Y-18470593D01*
X12132764Y-18456307D01*
X12147050Y-18427736D01*
X12261336Y-18299164D02*
X12261336Y-18356307D01*
X12375621Y-18299164D02*
X12375621Y-18356307D01*
X12818478Y-18713450D02*
X12804193Y-18699164D01*
X12775621Y-18656307D01*
X12761335Y-18627736D01*
X12747050Y-18584879D01*
X12732764Y-18513450D01*
X12732764Y-18456307D01*
X12747050Y-18384879D01*
X12761335Y-18342022D01*
X12775621Y-18313450D01*
X12804193Y-18270593D01*
X12818478Y-18256307D01*
X12975621Y-18427736D02*
X12947050Y-18413450D01*
X12932764Y-18399164D01*
X12918478Y-18370593D01*
X12918478Y-18356307D01*
X12932764Y-18327736D01*
X12947050Y-18313450D01*
X12975621Y-18299164D01*
X13032764Y-18299164D01*
X13061335Y-18313450D01*
X13075621Y-18327736D01*
X13089907Y-18356307D01*
X13089907Y-18370593D01*
X13075621Y-18399164D01*
X13061335Y-18413450D01*
X13032764Y-18427736D01*
X12975621Y-18427736D01*
X12947050Y-18442022D01*
X12932764Y-18456307D01*
X12918478Y-18484879D01*
X12918478Y-18542022D01*
X12932764Y-18570593D01*
X12947050Y-18584879D01*
X12975621Y-18599164D01*
X13032764Y-18599164D01*
X13061335Y-18584879D01*
X13075621Y-18570593D01*
X13089907Y-18542022D01*
X13089907Y-18484879D01*
X13075621Y-18456307D01*
X13061335Y-18442022D01*
X13032764Y-18427736D01*
X13204193Y-18327736D02*
X13218478Y-18313450D01*
X13247050Y-18299164D01*
X13318478Y-18299164D01*
X13347050Y-18313450D01*
X13361335Y-18327736D01*
X13375621Y-18356307D01*
X13375621Y-18384879D01*
X13361335Y-18427736D01*
X13189907Y-18599164D01*
X13375621Y-18599164D01*
X13732764Y-18599164D02*
X13732764Y-18299164D01*
X13861335Y-18599164D02*
X13861335Y-18442022D01*
X13847050Y-18413450D01*
X13818478Y-18399164D01*
X13775621Y-18399164D01*
X13747050Y-18413450D01*
X13732764Y-18427736D01*
X14047050Y-18599164D02*
X14018478Y-18584879D01*
X14004193Y-18570593D01*
X13989907Y-18542022D01*
X13989907Y-18456307D01*
X14004193Y-18427736D01*
X14018478Y-18413450D01*
X14047050Y-18399164D01*
X14089907Y-18399164D01*
X14118478Y-18413450D01*
X14132764Y-18427736D01*
X14147050Y-18456307D01*
X14147050Y-18542022D01*
X14132764Y-18570593D01*
X14118478Y-18584879D01*
X14089907Y-18599164D01*
X14047050Y-18599164D01*
X14318478Y-18599164D02*
X14289907Y-18584879D01*
X14275621Y-18556307D01*
X14275621Y-18299164D01*
X14547050Y-18584879D02*
X14518478Y-18599164D01*
X14461336Y-18599164D01*
X14432764Y-18584879D01*
X14418478Y-18556307D01*
X14418478Y-18442022D01*
X14432764Y-18413450D01*
X14461336Y-18399164D01*
X14518478Y-18399164D01*
X14547050Y-18413450D01*
X14561336Y-18442022D01*
X14561336Y-18470593D01*
X14418478Y-18499164D01*
X14675621Y-18584879D02*
X14704193Y-18599164D01*
X14761336Y-18599164D01*
X14789907Y-18584879D01*
X14804193Y-18556307D01*
X14804193Y-18542022D01*
X14789907Y-18513450D01*
X14761336Y-18499164D01*
X14718478Y-18499164D01*
X14689907Y-18484879D01*
X14675621Y-18456307D01*
X14675621Y-18442022D01*
X14689907Y-18413450D01*
X14718478Y-18399164D01*
X14761336Y-18399164D01*
X14789907Y-18413450D01*
X14904193Y-18713450D02*
X14918478Y-18699164D01*
X14947050Y-18656307D01*
X14961336Y-18627736D01*
X14975621Y-18584879D01*
X14989907Y-18513450D01*
X14989907Y-18456307D01*
X14975621Y-18384879D01*
X14961336Y-18342022D01*
X14947050Y-18313450D01*
X14918478Y-18270593D01*
X14904193Y-18256307D01*
X8046974Y-18809412D02*
X8147050Y-18909488D01*
X8147050Y-18809412D02*
X8046974Y-18909488D01*
X8147050Y-18859450D02*
G75*
G03X8147050Y-18859450I-50038J0D01*
G01*
X8575621Y-18995164D02*
X8404193Y-18995164D01*
X8489907Y-18995164D02*
X8489907Y-18695164D01*
X8461336Y-18738022D01*
X8432764Y-18766593D01*
X8404193Y-18780879D01*
X8704193Y-18966593D02*
X8718479Y-18980879D01*
X8704193Y-18995164D01*
X8689907Y-18980879D01*
X8704193Y-18966593D01*
X8704193Y-18995164D01*
X8904193Y-18695164D02*
X8932764Y-18695164D01*
X8961336Y-18709450D01*
X8975621Y-18723736D01*
X8989907Y-18752307D01*
X9004193Y-18809450D01*
X9004193Y-18880879D01*
X8989907Y-18938022D01*
X8975621Y-18966593D01*
X8961336Y-18980879D01*
X8932764Y-18995164D01*
X8904193Y-18995164D01*
X8875621Y-18980879D01*
X8861336Y-18966593D01*
X8847050Y-18938022D01*
X8832764Y-18880879D01*
X8832764Y-18809450D01*
X8847050Y-18752307D01*
X8861336Y-18723736D01*
X8875621Y-18709450D01*
X8904193Y-18695164D01*
X9189907Y-18695164D02*
X9218479Y-18695164D01*
X9247050Y-18709450D01*
X9261336Y-18723736D01*
X9275621Y-18752307D01*
X9289907Y-18809450D01*
X9289907Y-18880879D01*
X9275621Y-18938022D01*
X9261336Y-18966593D01*
X9247050Y-18980879D01*
X9218479Y-18995164D01*
X9189907Y-18995164D01*
X9161336Y-18980879D01*
X9147050Y-18966593D01*
X9132764Y-18938022D01*
X9118479Y-18880879D01*
X9118479Y-18809450D01*
X9132764Y-18752307D01*
X9147050Y-18723736D01*
X9161336Y-18709450D01*
X9189907Y-18695164D01*
X9418479Y-18995164D02*
X9418479Y-18795164D01*
X9418479Y-18823736D02*
X9432764Y-18809450D01*
X9461336Y-18795164D01*
X9504193Y-18795164D01*
X9532764Y-18809450D01*
X9547050Y-18838022D01*
X9547050Y-18995164D01*
X9547050Y-18838022D02*
X9561336Y-18809450D01*
X9589907Y-18795164D01*
X9632764Y-18795164D01*
X9661336Y-18809450D01*
X9675621Y-18838022D01*
X9675621Y-18995164D01*
X9818479Y-18995164D02*
X9818479Y-18795164D01*
X9818479Y-18823736D02*
X9832764Y-18809450D01*
X9861336Y-18795164D01*
X9904193Y-18795164D01*
X9932764Y-18809450D01*
X9947050Y-18838022D01*
X9947050Y-18995164D01*
X9947050Y-18838022D02*
X9961336Y-18809450D01*
X9989907Y-18795164D01*
X10032764Y-18795164D01*
X10061336Y-18809450D01*
X10075621Y-18838022D01*
X10075621Y-18995164D01*
X10661336Y-18680879D02*
X10404193Y-19066593D01*
X11047050Y-18695164D02*
X11075621Y-18695164D01*
X11104193Y-18709450D01*
X11118478Y-18723736D01*
X11132764Y-18752307D01*
X11147050Y-18809450D01*
X11147050Y-18880879D01*
X11132764Y-18938022D01*
X11118478Y-18966593D01*
X11104193Y-18980879D01*
X11075621Y-18995164D01*
X11047050Y-18995164D01*
X11018478Y-18980879D01*
X11004193Y-18966593D01*
X10989907Y-18938022D01*
X10975621Y-18880879D01*
X10975621Y-18809450D01*
X10989907Y-18752307D01*
X11004193Y-18723736D01*
X11018478Y-18709450D01*
X11047050Y-18695164D01*
X11275621Y-18966593D02*
X11289907Y-18980879D01*
X11275621Y-18995164D01*
X11261336Y-18980879D01*
X11275621Y-18966593D01*
X11275621Y-18995164D01*
X11475621Y-18695164D02*
X11504193Y-18695164D01*
X11532764Y-18709450D01*
X11547050Y-18723736D01*
X11561335Y-18752307D01*
X11575621Y-18809450D01*
X11575621Y-18880879D01*
X11561335Y-18938022D01*
X11547050Y-18966593D01*
X11532764Y-18980879D01*
X11504193Y-18995164D01*
X11475621Y-18995164D01*
X11447050Y-18980879D01*
X11432764Y-18966593D01*
X11418478Y-18938022D01*
X11404193Y-18880879D01*
X11404193Y-18809450D01*
X11418478Y-18752307D01*
X11432764Y-18723736D01*
X11447050Y-18709450D01*
X11475621Y-18695164D01*
X11675621Y-18695164D02*
X11861335Y-18695164D01*
X11761335Y-18809450D01*
X11804193Y-18809450D01*
X11832764Y-18823736D01*
X11847050Y-18838022D01*
X11861335Y-18866593D01*
X11861335Y-18938022D01*
X11847050Y-18966593D01*
X11832764Y-18980879D01*
X11804193Y-18995164D01*
X11718478Y-18995164D01*
X11689907Y-18980879D01*
X11675621Y-18966593D01*
X12004193Y-18995164D02*
X12061335Y-18995164D01*
X12089907Y-18980879D01*
X12104193Y-18966593D01*
X12132764Y-18923736D01*
X12147050Y-18866593D01*
X12147050Y-18752307D01*
X12132764Y-18723736D01*
X12118478Y-18709450D01*
X12089907Y-18695164D01*
X12032764Y-18695164D01*
X12004193Y-18709450D01*
X11989907Y-18723736D01*
X11975621Y-18752307D01*
X11975621Y-18823736D01*
X11989907Y-18852307D01*
X12004193Y-18866593D01*
X12032764Y-18880879D01*
X12089907Y-18880879D01*
X12118478Y-18866593D01*
X12132764Y-18852307D01*
X12147050Y-18823736D01*
X12261336Y-18695164D02*
X12261336Y-18752307D01*
X12375621Y-18695164D02*
X12375621Y-18752307D01*
X12818478Y-19109450D02*
X12804193Y-19095164D01*
X12775621Y-19052307D01*
X12761335Y-19023736D01*
X12747050Y-18980879D01*
X12732764Y-18909450D01*
X12732764Y-18852307D01*
X12747050Y-18780879D01*
X12761335Y-18738022D01*
X12775621Y-18709450D01*
X12804193Y-18666593D01*
X12818478Y-18652307D01*
X12918478Y-18723736D02*
X12932764Y-18709450D01*
X12961335Y-18695164D01*
X13032764Y-18695164D01*
X13061335Y-18709450D01*
X13075621Y-18723736D01*
X13089907Y-18752307D01*
X13089907Y-18780879D01*
X13075621Y-18823736D01*
X12904193Y-18995164D01*
X13089907Y-18995164D01*
X13361335Y-18695164D02*
X13218478Y-18695164D01*
X13204193Y-18838022D01*
X13218478Y-18823736D01*
X13247050Y-18809450D01*
X13318478Y-18809450D01*
X13347050Y-18823736D01*
X13361335Y-18838022D01*
X13375621Y-18866593D01*
X13375621Y-18938022D01*
X13361335Y-18966593D01*
X13347050Y-18980879D01*
X13318478Y-18995164D01*
X13247050Y-18995164D01*
X13218478Y-18980879D01*
X13204193Y-18966593D01*
X13732764Y-18995164D02*
X13732764Y-18695164D01*
X13861335Y-18995164D02*
X13861335Y-18838022D01*
X13847050Y-18809450D01*
X13818478Y-18795164D01*
X13775621Y-18795164D01*
X13747050Y-18809450D01*
X13732764Y-18823736D01*
X14047050Y-18995164D02*
X14018478Y-18980879D01*
X14004193Y-18966593D01*
X13989907Y-18938022D01*
X13989907Y-18852307D01*
X14004193Y-18823736D01*
X14018478Y-18809450D01*
X14047050Y-18795164D01*
X14089907Y-18795164D01*
X14118478Y-18809450D01*
X14132764Y-18823736D01*
X14147050Y-18852307D01*
X14147050Y-18938022D01*
X14132764Y-18966593D01*
X14118478Y-18980879D01*
X14089907Y-18995164D01*
X14047050Y-18995164D01*
X14318478Y-18995164D02*
X14289907Y-18980879D01*
X14275621Y-18952307D01*
X14275621Y-18695164D01*
X14547050Y-18980879D02*
X14518478Y-18995164D01*
X14461336Y-18995164D01*
X14432764Y-18980879D01*
X14418478Y-18952307D01*
X14418478Y-18838022D01*
X14432764Y-18809450D01*
X14461336Y-18795164D01*
X14518478Y-18795164D01*
X14547050Y-18809450D01*
X14561336Y-18838022D01*
X14561336Y-18866593D01*
X14418478Y-18895164D01*
X14675621Y-18980879D02*
X14704193Y-18995164D01*
X14761336Y-18995164D01*
X14789907Y-18980879D01*
X14804193Y-18952307D01*
X14804193Y-18938022D01*
X14789907Y-18909450D01*
X14761336Y-18895164D01*
X14718478Y-18895164D01*
X14689907Y-18880879D01*
X14675621Y-18852307D01*
X14675621Y-18838022D01*
X14689907Y-18809450D01*
X14718478Y-18795164D01*
X14761336Y-18795164D01*
X14789907Y-18809450D01*
X14904193Y-19109450D02*
X14918478Y-19095164D01*
X14947050Y-19052307D01*
X14961336Y-19023736D01*
X14975621Y-18980879D01*
X14989907Y-18909450D01*
X14989907Y-18852307D01*
X14975621Y-18780879D01*
X14961336Y-18738022D01*
X14947050Y-18709450D01*
X14918478Y-18666593D01*
X14904193Y-18652307D01*
X8045450Y-19204650D02*
X8147050Y-19306250D01*
X8147050Y-19204650D02*
X8045450Y-19306250D01*
X8096250Y-19204650D02*
X8096250Y-19306250D01*
X8045450Y-19255450D02*
X8147050Y-19255450D01*
X8575621Y-19391164D02*
X8404193Y-19391164D01*
X8489907Y-19391164D02*
X8489907Y-19091164D01*
X8461336Y-19134022D01*
X8432764Y-19162593D01*
X8404193Y-19176879D01*
X8704193Y-19362593D02*
X8718479Y-19376879D01*
X8704193Y-19391164D01*
X8689907Y-19376879D01*
X8704193Y-19362593D01*
X8704193Y-19391164D01*
X8904193Y-19091164D02*
X8932764Y-19091164D01*
X8961336Y-19105450D01*
X8975621Y-19119736D01*
X8989907Y-19148307D01*
X9004193Y-19205450D01*
X9004193Y-19276879D01*
X8989907Y-19334022D01*
X8975621Y-19362593D01*
X8961336Y-19376879D01*
X8932764Y-19391164D01*
X8904193Y-19391164D01*
X8875621Y-19376879D01*
X8861336Y-19362593D01*
X8847050Y-19334022D01*
X8832764Y-19276879D01*
X8832764Y-19205450D01*
X8847050Y-19148307D01*
X8861336Y-19119736D01*
X8875621Y-19105450D01*
X8904193Y-19091164D01*
X9118479Y-19119736D02*
X9132764Y-19105450D01*
X9161336Y-19091164D01*
X9232764Y-19091164D01*
X9261336Y-19105450D01*
X9275621Y-19119736D01*
X9289907Y-19148307D01*
X9289907Y-19176879D01*
X9275621Y-19219736D01*
X9104193Y-19391164D01*
X9289907Y-19391164D01*
X9418479Y-19391164D02*
X9418479Y-19191164D01*
X9418479Y-19219736D02*
X9432764Y-19205450D01*
X9461336Y-19191164D01*
X9504193Y-19191164D01*
X9532764Y-19205450D01*
X9547050Y-19234022D01*
X9547050Y-19391164D01*
X9547050Y-19234022D02*
X9561336Y-19205450D01*
X9589907Y-19191164D01*
X9632764Y-19191164D01*
X9661336Y-19205450D01*
X9675621Y-19234022D01*
X9675621Y-19391164D01*
X9818479Y-19391164D02*
X9818479Y-19191164D01*
X9818479Y-19219736D02*
X9832764Y-19205450D01*
X9861336Y-19191164D01*
X9904193Y-19191164D01*
X9932764Y-19205450D01*
X9947050Y-19234022D01*
X9947050Y-19391164D01*
X9947050Y-19234022D02*
X9961336Y-19205450D01*
X9989907Y-19191164D01*
X10032764Y-19191164D01*
X10061336Y-19205450D01*
X10075621Y-19234022D01*
X10075621Y-19391164D01*
X10661336Y-19076879D02*
X10404193Y-19462593D01*
X11047050Y-19091164D02*
X11075621Y-19091164D01*
X11104193Y-19105450D01*
X11118478Y-19119736D01*
X11132764Y-19148307D01*
X11147050Y-19205450D01*
X11147050Y-19276879D01*
X11132764Y-19334022D01*
X11118478Y-19362593D01*
X11104193Y-19376879D01*
X11075621Y-19391164D01*
X11047050Y-19391164D01*
X11018478Y-19376879D01*
X11004193Y-19362593D01*
X10989907Y-19334022D01*
X10975621Y-19276879D01*
X10975621Y-19205450D01*
X10989907Y-19148307D01*
X11004193Y-19119736D01*
X11018478Y-19105450D01*
X11047050Y-19091164D01*
X11275621Y-19362593D02*
X11289907Y-19376879D01*
X11275621Y-19391164D01*
X11261336Y-19376879D01*
X11275621Y-19362593D01*
X11275621Y-19391164D01*
X11475621Y-19091164D02*
X11504193Y-19091164D01*
X11532764Y-19105450D01*
X11547050Y-19119736D01*
X11561335Y-19148307D01*
X11575621Y-19205450D01*
X11575621Y-19276879D01*
X11561335Y-19334022D01*
X11547050Y-19362593D01*
X11532764Y-19376879D01*
X11504193Y-19391164D01*
X11475621Y-19391164D01*
X11447050Y-19376879D01*
X11432764Y-19362593D01*
X11418478Y-19334022D01*
X11404193Y-19276879D01*
X11404193Y-19205450D01*
X11418478Y-19148307D01*
X11432764Y-19119736D01*
X11447050Y-19105450D01*
X11475621Y-19091164D01*
X11832764Y-19191164D02*
X11832764Y-19391164D01*
X11761335Y-19076879D02*
X11689907Y-19291164D01*
X11875621Y-19291164D01*
X12047050Y-19091164D02*
X12075621Y-19091164D01*
X12104193Y-19105450D01*
X12118478Y-19119736D01*
X12132764Y-19148307D01*
X12147050Y-19205450D01*
X12147050Y-19276879D01*
X12132764Y-19334022D01*
X12118478Y-19362593D01*
X12104193Y-19376879D01*
X12075621Y-19391164D01*
X12047050Y-19391164D01*
X12018478Y-19376879D01*
X12004193Y-19362593D01*
X11989907Y-19334022D01*
X11975621Y-19276879D01*
X11975621Y-19205450D01*
X11989907Y-19148307D01*
X12004193Y-19119736D01*
X12018478Y-19105450D01*
X12047050Y-19091164D01*
X12261336Y-19091164D02*
X12261336Y-19148307D01*
X12375621Y-19091164D02*
X12375621Y-19148307D01*
X12818478Y-19505450D02*
X12804193Y-19491164D01*
X12775621Y-19448307D01*
X12761335Y-19419736D01*
X12747050Y-19376879D01*
X12732764Y-19305450D01*
X12732764Y-19248307D01*
X12747050Y-19176879D01*
X12761335Y-19134022D01*
X12775621Y-19105450D01*
X12804193Y-19062593D01*
X12818478Y-19048307D01*
X12918478Y-19119736D02*
X12932764Y-19105450D01*
X12961335Y-19091164D01*
X13032764Y-19091164D01*
X13061335Y-19105450D01*
X13075621Y-19119736D01*
X13089907Y-19148307D01*
X13089907Y-19176879D01*
X13075621Y-19219736D01*
X12904193Y-19391164D01*
X13089907Y-19391164D01*
X13347050Y-19191164D02*
X13347050Y-19391164D01*
X13275621Y-19076879D02*
X13204193Y-19291164D01*
X13389907Y-19291164D01*
X13732764Y-19391164D02*
X13732764Y-19091164D01*
X13861335Y-19391164D02*
X13861335Y-19234022D01*
X13847050Y-19205450D01*
X13818478Y-19191164D01*
X13775621Y-19191164D01*
X13747050Y-19205450D01*
X13732764Y-19219736D01*
X14047050Y-19391164D02*
X14018478Y-19376879D01*
X14004193Y-19362593D01*
X13989907Y-19334022D01*
X13989907Y-19248307D01*
X14004193Y-19219736D01*
X14018478Y-19205450D01*
X14047050Y-19191164D01*
X14089907Y-19191164D01*
X14118478Y-19205450D01*
X14132764Y-19219736D01*
X14147050Y-19248307D01*
X14147050Y-19334022D01*
X14132764Y-19362593D01*
X14118478Y-19376879D01*
X14089907Y-19391164D01*
X14047050Y-19391164D01*
X14318478Y-19391164D02*
X14289907Y-19376879D01*
X14275621Y-19348307D01*
X14275621Y-19091164D01*
X14547050Y-19376879D02*
X14518478Y-19391164D01*
X14461336Y-19391164D01*
X14432764Y-19376879D01*
X14418478Y-19348307D01*
X14418478Y-19234022D01*
X14432764Y-19205450D01*
X14461336Y-19191164D01*
X14518478Y-19191164D01*
X14547050Y-19205450D01*
X14561336Y-19234022D01*
X14561336Y-19262593D01*
X14418478Y-19291164D01*
X14675621Y-19376879D02*
X14704193Y-19391164D01*
X14761336Y-19391164D01*
X14789907Y-19376879D01*
X14804193Y-19348307D01*
X14804193Y-19334022D01*
X14789907Y-19305450D01*
X14761336Y-19291164D01*
X14718478Y-19291164D01*
X14689907Y-19276879D01*
X14675621Y-19248307D01*
X14675621Y-19234022D01*
X14689907Y-19205450D01*
X14718478Y-19191164D01*
X14761336Y-19191164D01*
X14789907Y-19205450D01*
X14904193Y-19505450D02*
X14918478Y-19491164D01*
X14947050Y-19448307D01*
X14961336Y-19419736D01*
X14975621Y-19376879D01*
X14989907Y-19305450D01*
X14989907Y-19248307D01*
X14975621Y-19176879D01*
X14961336Y-19134022D01*
X14947050Y-19105450D01*
X14918478Y-19062593D01*
X14904193Y-19048307D01*
X8007050Y-19581450D02*
X8147050Y-19721450D01*
X8147050Y-19581450D02*
X8007050Y-19721450D01*
X8126548Y-19700948D02*
X8126548Y-19601952D01*
X8027552Y-19601952D01*
X8027552Y-19700948D01*
X8126548Y-19700948D01*
X8575621Y-19787164D02*
X8404193Y-19787164D01*
X8489907Y-19787164D02*
X8489907Y-19487164D01*
X8461336Y-19530022D01*
X8432764Y-19558593D01*
X8404193Y-19572879D01*
X8704193Y-19758593D02*
X8718479Y-19772879D01*
X8704193Y-19787164D01*
X8689907Y-19772879D01*
X8704193Y-19758593D01*
X8704193Y-19787164D01*
X8975621Y-19587164D02*
X8975621Y-19787164D01*
X8904193Y-19472879D02*
X8832764Y-19687164D01*
X9018478Y-19687164D01*
X9189907Y-19487164D02*
X9218479Y-19487164D01*
X9247050Y-19501450D01*
X9261336Y-19515736D01*
X9275621Y-19544307D01*
X9289907Y-19601450D01*
X9289907Y-19672879D01*
X9275621Y-19730022D01*
X9261336Y-19758593D01*
X9247050Y-19772879D01*
X9218479Y-19787164D01*
X9189907Y-19787164D01*
X9161336Y-19772879D01*
X9147050Y-19758593D01*
X9132764Y-19730022D01*
X9118479Y-19672879D01*
X9118479Y-19601450D01*
X9132764Y-19544307D01*
X9147050Y-19515736D01*
X9161336Y-19501450D01*
X9189907Y-19487164D01*
X9418479Y-19787164D02*
X9418479Y-19587164D01*
X9418479Y-19615736D02*
X9432764Y-19601450D01*
X9461336Y-19587164D01*
X9504193Y-19587164D01*
X9532764Y-19601450D01*
X9547050Y-19630022D01*
X9547050Y-19787164D01*
X9547050Y-19630022D02*
X9561336Y-19601450D01*
X9589907Y-19587164D01*
X9632764Y-19587164D01*
X9661336Y-19601450D01*
X9675621Y-19630022D01*
X9675621Y-19787164D01*
X9818479Y-19787164D02*
X9818479Y-19587164D01*
X9818479Y-19615736D02*
X9832764Y-19601450D01*
X9861336Y-19587164D01*
X9904193Y-19587164D01*
X9932764Y-19601450D01*
X9947050Y-19630022D01*
X9947050Y-19787164D01*
X9947050Y-19630022D02*
X9961336Y-19601450D01*
X9989907Y-19587164D01*
X10032764Y-19587164D01*
X10061336Y-19601450D01*
X10075621Y-19630022D01*
X10075621Y-19787164D01*
X10661336Y-19472879D02*
X10404193Y-19858593D01*
X11047050Y-19487164D02*
X11075621Y-19487164D01*
X11104193Y-19501450D01*
X11118478Y-19515736D01*
X11132764Y-19544307D01*
X11147050Y-19601450D01*
X11147050Y-19672879D01*
X11132764Y-19730022D01*
X11118478Y-19758593D01*
X11104193Y-19772879D01*
X11075621Y-19787164D01*
X11047050Y-19787164D01*
X11018478Y-19772879D01*
X11004193Y-19758593D01*
X10989907Y-19730022D01*
X10975621Y-19672879D01*
X10975621Y-19601450D01*
X10989907Y-19544307D01*
X11004193Y-19515736D01*
X11018478Y-19501450D01*
X11047050Y-19487164D01*
X11275621Y-19758593D02*
X11289907Y-19772879D01*
X11275621Y-19787164D01*
X11261336Y-19772879D01*
X11275621Y-19758593D01*
X11275621Y-19787164D01*
X11475621Y-19487164D02*
X11504193Y-19487164D01*
X11532764Y-19501450D01*
X11547050Y-19515736D01*
X11561335Y-19544307D01*
X11575621Y-19601450D01*
X11575621Y-19672879D01*
X11561335Y-19730022D01*
X11547050Y-19758593D01*
X11532764Y-19772879D01*
X11504193Y-19787164D01*
X11475621Y-19787164D01*
X11447050Y-19772879D01*
X11432764Y-19758593D01*
X11418478Y-19730022D01*
X11404193Y-19672879D01*
X11404193Y-19601450D01*
X11418478Y-19544307D01*
X11432764Y-19515736D01*
X11447050Y-19501450D01*
X11475621Y-19487164D01*
X11847050Y-19487164D02*
X11704193Y-19487164D01*
X11689907Y-19630022D01*
X11704193Y-19615736D01*
X11732764Y-19601450D01*
X11804193Y-19601450D01*
X11832764Y-19615736D01*
X11847050Y-19630022D01*
X11861335Y-19658593D01*
X11861335Y-19730022D01*
X11847050Y-19758593D01*
X11832764Y-19772879D01*
X11804193Y-19787164D01*
X11732764Y-19787164D01*
X11704193Y-19772879D01*
X11689907Y-19758593D01*
X12132764Y-19487164D02*
X11989907Y-19487164D01*
X11975621Y-19630022D01*
X11989907Y-19615736D01*
X12018478Y-19601450D01*
X12089907Y-19601450D01*
X12118478Y-19615736D01*
X12132764Y-19630022D01*
X12147050Y-19658593D01*
X12147050Y-19730022D01*
X12132764Y-19758593D01*
X12118478Y-19772879D01*
X12089907Y-19787164D01*
X12018478Y-19787164D01*
X11989907Y-19772879D01*
X11975621Y-19758593D01*
X12261336Y-19487164D02*
X12261336Y-19544307D01*
X12375621Y-19487164D02*
X12375621Y-19544307D01*
X12818478Y-19901450D02*
X12804193Y-19887164D01*
X12775621Y-19844307D01*
X12761335Y-19815736D01*
X12747050Y-19772879D01*
X12732764Y-19701450D01*
X12732764Y-19644307D01*
X12747050Y-19572879D01*
X12761335Y-19530022D01*
X12775621Y-19501450D01*
X12804193Y-19458593D01*
X12818478Y-19444307D01*
X13061335Y-19487164D02*
X13004193Y-19487164D01*
X12975621Y-19501450D01*
X12961335Y-19515736D01*
X12932764Y-19558593D01*
X12918478Y-19615736D01*
X12918478Y-19730022D01*
X12932764Y-19758593D01*
X12947050Y-19772879D01*
X12975621Y-19787164D01*
X13032764Y-19787164D01*
X13061335Y-19772879D01*
X13075621Y-19758593D01*
X13089907Y-19730022D01*
X13089907Y-19658593D01*
X13075621Y-19630022D01*
X13061335Y-19615736D01*
X13032764Y-19601450D01*
X12975621Y-19601450D01*
X12947050Y-19615736D01*
X12932764Y-19630022D01*
X12918478Y-19658593D01*
X13447050Y-19787164D02*
X13447050Y-19487164D01*
X13575621Y-19787164D02*
X13575621Y-19630022D01*
X13561335Y-19601450D01*
X13532764Y-19587164D01*
X13489907Y-19587164D01*
X13461335Y-19601450D01*
X13447050Y-19615736D01*
X13761335Y-19787164D02*
X13732764Y-19772879D01*
X13718478Y-19758593D01*
X13704193Y-19730022D01*
X13704193Y-19644307D01*
X13718478Y-19615736D01*
X13732764Y-19601450D01*
X13761335Y-19587164D01*
X13804193Y-19587164D01*
X13832764Y-19601450D01*
X13847050Y-19615736D01*
X13861335Y-19644307D01*
X13861335Y-19730022D01*
X13847050Y-19758593D01*
X13832764Y-19772879D01*
X13804193Y-19787164D01*
X13761335Y-19787164D01*
X14032764Y-19787164D02*
X14004193Y-19772879D01*
X13989907Y-19744307D01*
X13989907Y-19487164D01*
X14261336Y-19772879D02*
X14232764Y-19787164D01*
X14175621Y-19787164D01*
X14147050Y-19772879D01*
X14132764Y-19744307D01*
X14132764Y-19630022D01*
X14147050Y-19601450D01*
X14175621Y-19587164D01*
X14232764Y-19587164D01*
X14261336Y-19601450D01*
X14275621Y-19630022D01*
X14275621Y-19658593D01*
X14132764Y-19687164D01*
X14389907Y-19772879D02*
X14418478Y-19787164D01*
X14475621Y-19787164D01*
X14504193Y-19772879D01*
X14518478Y-19744307D01*
X14518478Y-19730022D01*
X14504193Y-19701450D01*
X14475621Y-19687164D01*
X14432764Y-19687164D01*
X14404193Y-19672879D01*
X14389907Y-19644307D01*
X14389907Y-19630022D01*
X14404193Y-19601450D01*
X14432764Y-19587164D01*
X14475621Y-19587164D01*
X14504193Y-19601450D01*
X14618478Y-19901450D02*
X14632764Y-19887164D01*
X14661336Y-19844307D01*
X14675621Y-19815736D01*
X14689907Y-19772879D01*
X14704193Y-19701450D01*
X14704193Y-19644307D01*
X14689907Y-19572879D01*
X14675621Y-19530022D01*
X14661336Y-19501450D01*
X14632764Y-19458593D01*
X14618478Y-19444307D01*
X7821930Y-19884890D02*
X8147050Y-20210010D01*
X8147050Y-19884890D02*
X7821930Y-20210010D01*
X7984490Y-20210010D02*
X8147050Y-20047450D01*
X7984490Y-19884890D01*
X7821930Y-20047450D01*
X7984490Y-20210010D01*
X8389907Y-19883164D02*
X8575621Y-19883164D01*
X8475621Y-19997450D01*
X8518479Y-19997450D01*
X8547050Y-20011736D01*
X8561336Y-20026022D01*
X8575621Y-20054593D01*
X8575621Y-20126022D01*
X8561336Y-20154593D01*
X8547050Y-20168879D01*
X8518479Y-20183164D01*
X8432764Y-20183164D01*
X8404193Y-20168879D01*
X8389907Y-20154593D01*
X8704193Y-20154593D02*
X8718479Y-20168879D01*
X8704193Y-20183164D01*
X8689907Y-20168879D01*
X8704193Y-20154593D01*
X8704193Y-20183164D01*
X8832764Y-19911736D02*
X8847050Y-19897450D01*
X8875621Y-19883164D01*
X8947050Y-19883164D01*
X8975621Y-19897450D01*
X8989907Y-19911736D01*
X9004193Y-19940307D01*
X9004193Y-19968879D01*
X8989907Y-20011736D01*
X8818478Y-20183164D01*
X9004193Y-20183164D01*
X9275621Y-19883164D02*
X9132764Y-19883164D01*
X9118479Y-20026022D01*
X9132764Y-20011736D01*
X9161336Y-19997450D01*
X9232764Y-19997450D01*
X9261336Y-20011736D01*
X9275621Y-20026022D01*
X9289907Y-20054593D01*
X9289907Y-20126022D01*
X9275621Y-20154593D01*
X9261336Y-20168879D01*
X9232764Y-20183164D01*
X9161336Y-20183164D01*
X9132764Y-20168879D01*
X9118479Y-20154593D01*
X9418479Y-20183164D02*
X9418479Y-19983164D01*
X9418479Y-20011736D02*
X9432764Y-19997450D01*
X9461336Y-19983164D01*
X9504193Y-19983164D01*
X9532764Y-19997450D01*
X9547050Y-20026022D01*
X9547050Y-20183164D01*
X9547050Y-20026022D02*
X9561336Y-19997450D01*
X9589907Y-19983164D01*
X9632764Y-19983164D01*
X9661336Y-19997450D01*
X9675621Y-20026022D01*
X9675621Y-20183164D01*
X9818479Y-20183164D02*
X9818479Y-19983164D01*
X9818479Y-20011736D02*
X9832764Y-19997450D01*
X9861336Y-19983164D01*
X9904193Y-19983164D01*
X9932764Y-19997450D01*
X9947050Y-20026022D01*
X9947050Y-20183164D01*
X9947050Y-20026022D02*
X9961336Y-19997450D01*
X9989907Y-19983164D01*
X10032764Y-19983164D01*
X10061336Y-19997450D01*
X10075621Y-20026022D01*
X10075621Y-20183164D01*
X10661336Y-19868879D02*
X10404193Y-20254593D01*
X11047050Y-19883164D02*
X11075621Y-19883164D01*
X11104193Y-19897450D01*
X11118478Y-19911736D01*
X11132764Y-19940307D01*
X11147050Y-19997450D01*
X11147050Y-20068879D01*
X11132764Y-20126022D01*
X11118478Y-20154593D01*
X11104193Y-20168879D01*
X11075621Y-20183164D01*
X11047050Y-20183164D01*
X11018478Y-20168879D01*
X11004193Y-20154593D01*
X10989907Y-20126022D01*
X10975621Y-20068879D01*
X10975621Y-19997450D01*
X10989907Y-19940307D01*
X11004193Y-19911736D01*
X11018478Y-19897450D01*
X11047050Y-19883164D01*
X11275621Y-20154593D02*
X11289907Y-20168879D01*
X11275621Y-20183164D01*
X11261336Y-20168879D01*
X11275621Y-20154593D01*
X11275621Y-20183164D01*
X11575621Y-20183164D02*
X11404193Y-20183164D01*
X11489907Y-20183164D02*
X11489907Y-19883164D01*
X11461335Y-19926022D01*
X11432764Y-19954593D01*
X11404193Y-19968879D01*
X11689907Y-19911736D02*
X11704193Y-19897450D01*
X11732764Y-19883164D01*
X11804193Y-19883164D01*
X11832764Y-19897450D01*
X11847050Y-19911736D01*
X11861335Y-19940307D01*
X11861335Y-19968879D01*
X11847050Y-20011736D01*
X11675621Y-20183164D01*
X11861335Y-20183164D01*
X12032764Y-20011736D02*
X12004193Y-19997450D01*
X11989907Y-19983164D01*
X11975621Y-19954593D01*
X11975621Y-19940307D01*
X11989907Y-19911736D01*
X12004193Y-19897450D01*
X12032764Y-19883164D01*
X12089907Y-19883164D01*
X12118478Y-19897450D01*
X12132764Y-19911736D01*
X12147050Y-19940307D01*
X12147050Y-19954593D01*
X12132764Y-19983164D01*
X12118478Y-19997450D01*
X12089907Y-20011736D01*
X12032764Y-20011736D01*
X12004193Y-20026022D01*
X11989907Y-20040307D01*
X11975621Y-20068879D01*
X11975621Y-20126022D01*
X11989907Y-20154593D01*
X12004193Y-20168879D01*
X12032764Y-20183164D01*
X12089907Y-20183164D01*
X12118478Y-20168879D01*
X12132764Y-20154593D01*
X12147050Y-20126022D01*
X12147050Y-20068879D01*
X12132764Y-20040307D01*
X12118478Y-20026022D01*
X12089907Y-20011736D01*
X12261336Y-19883164D02*
X12261336Y-19940307D01*
X12375621Y-19883164D02*
X12375621Y-19940307D01*
X12818478Y-20297450D02*
X12804193Y-20283164D01*
X12775621Y-20240307D01*
X12761335Y-20211736D01*
X12747050Y-20168879D01*
X12732764Y-20097450D01*
X12732764Y-20040307D01*
X12747050Y-19968879D01*
X12761335Y-19926022D01*
X12775621Y-19897450D01*
X12804193Y-19854593D01*
X12818478Y-19840307D01*
X12918478Y-19911736D02*
X12932764Y-19897450D01*
X12961335Y-19883164D01*
X13032764Y-19883164D01*
X13061335Y-19897450D01*
X13075621Y-19911736D01*
X13089907Y-19940307D01*
X13089907Y-19968879D01*
X13075621Y-20011736D01*
X12904193Y-20183164D01*
X13089907Y-20183164D01*
X13447050Y-20183164D02*
X13447050Y-19883164D01*
X13575621Y-20183164D02*
X13575621Y-20026022D01*
X13561335Y-19997450D01*
X13532764Y-19983164D01*
X13489907Y-19983164D01*
X13461335Y-19997450D01*
X13447050Y-20011736D01*
X13761335Y-20183164D02*
X13732764Y-20168879D01*
X13718478Y-20154593D01*
X13704193Y-20126022D01*
X13704193Y-20040307D01*
X13718478Y-20011736D01*
X13732764Y-19997450D01*
X13761335Y-19983164D01*
X13804193Y-19983164D01*
X13832764Y-19997450D01*
X13847050Y-20011736D01*
X13861335Y-20040307D01*
X13861335Y-20126022D01*
X13847050Y-20154593D01*
X13832764Y-20168879D01*
X13804193Y-20183164D01*
X13761335Y-20183164D01*
X14032764Y-20183164D02*
X14004193Y-20168879D01*
X13989907Y-20140307D01*
X13989907Y-19883164D01*
X14261336Y-20168879D02*
X14232764Y-20183164D01*
X14175621Y-20183164D01*
X14147050Y-20168879D01*
X14132764Y-20140307D01*
X14132764Y-20026022D01*
X14147050Y-19997450D01*
X14175621Y-19983164D01*
X14232764Y-19983164D01*
X14261336Y-19997450D01*
X14275621Y-20026022D01*
X14275621Y-20054593D01*
X14132764Y-20083164D01*
X14389907Y-20168879D02*
X14418478Y-20183164D01*
X14475621Y-20183164D01*
X14504193Y-20168879D01*
X14518478Y-20140307D01*
X14518478Y-20126022D01*
X14504193Y-20097450D01*
X14475621Y-20083164D01*
X14432764Y-20083164D01*
X14404193Y-20068879D01*
X14389907Y-20040307D01*
X14389907Y-20026022D01*
X14404193Y-19997450D01*
X14432764Y-19983164D01*
X14475621Y-19983164D01*
X14504193Y-19997450D01*
X14618478Y-20297450D02*
X14632764Y-20283164D01*
X14661336Y-20240307D01*
X14675621Y-20211736D01*
X14689907Y-20168879D01*
X14704193Y-20097450D01*
X14704193Y-20040307D01*
X14689907Y-19968879D01*
X14675621Y-19926022D01*
X14661336Y-19897450D01*
X14632764Y-19854593D01*
X14618478Y-19840307D01*
X7947025Y-20302545D02*
X7947025Y-20702595D01*
X7747000Y-20502570D02*
X8147050Y-20502570D01*
X8147050Y-20502570D02*
G75*
G03X8147050Y-20502570I-200025J0D01*
G01*
X8547050Y-20438284D02*
X8547050Y-20638284D01*
X8475621Y-20323999D02*
X8404193Y-20538284D01*
X8589907Y-20538284D01*
X8704193Y-20609713D02*
X8718479Y-20623999D01*
X8704193Y-20638284D01*
X8689907Y-20623999D01*
X8704193Y-20609713D01*
X8704193Y-20638284D01*
X8904193Y-20338284D02*
X8932764Y-20338284D01*
X8961336Y-20352570D01*
X8975621Y-20366856D01*
X8989907Y-20395427D01*
X9004193Y-20452570D01*
X9004193Y-20523999D01*
X8989907Y-20581142D01*
X8975621Y-20609713D01*
X8961336Y-20623999D01*
X8932764Y-20638284D01*
X8904193Y-20638284D01*
X8875621Y-20623999D01*
X8861336Y-20609713D01*
X8847050Y-20581142D01*
X8832764Y-20523999D01*
X8832764Y-20452570D01*
X8847050Y-20395427D01*
X8861336Y-20366856D01*
X8875621Y-20352570D01*
X8904193Y-20338284D01*
X9189907Y-20338284D02*
X9218479Y-20338284D01*
X9247050Y-20352570D01*
X9261336Y-20366856D01*
X9275621Y-20395427D01*
X9289907Y-20452570D01*
X9289907Y-20523999D01*
X9275621Y-20581142D01*
X9261336Y-20609713D01*
X9247050Y-20623999D01*
X9218479Y-20638284D01*
X9189907Y-20638284D01*
X9161336Y-20623999D01*
X9147050Y-20609713D01*
X9132764Y-20581142D01*
X9118479Y-20523999D01*
X9118479Y-20452570D01*
X9132764Y-20395427D01*
X9147050Y-20366856D01*
X9161336Y-20352570D01*
X9189907Y-20338284D01*
X9418479Y-20638284D02*
X9418479Y-20438284D01*
X9418479Y-20466856D02*
X9432764Y-20452570D01*
X9461336Y-20438284D01*
X9504193Y-20438284D01*
X9532764Y-20452570D01*
X9547050Y-20481142D01*
X9547050Y-20638284D01*
X9547050Y-20481142D02*
X9561336Y-20452570D01*
X9589907Y-20438284D01*
X9632764Y-20438284D01*
X9661336Y-20452570D01*
X9675621Y-20481142D01*
X9675621Y-20638284D01*
X9818479Y-20638284D02*
X9818479Y-20438284D01*
X9818479Y-20466856D02*
X9832764Y-20452570D01*
X9861336Y-20438284D01*
X9904193Y-20438284D01*
X9932764Y-20452570D01*
X9947050Y-20481142D01*
X9947050Y-20638284D01*
X9947050Y-20481142D02*
X9961336Y-20452570D01*
X9989907Y-20438284D01*
X10032764Y-20438284D01*
X10061336Y-20452570D01*
X10075621Y-20481142D01*
X10075621Y-20638284D01*
X10661336Y-20323999D02*
X10404193Y-20709713D01*
X11047050Y-20338284D02*
X11075621Y-20338284D01*
X11104193Y-20352570D01*
X11118478Y-20366856D01*
X11132764Y-20395427D01*
X11147050Y-20452570D01*
X11147050Y-20523999D01*
X11132764Y-20581142D01*
X11118478Y-20609713D01*
X11104193Y-20623999D01*
X11075621Y-20638284D01*
X11047050Y-20638284D01*
X11018478Y-20623999D01*
X11004193Y-20609713D01*
X10989907Y-20581142D01*
X10975621Y-20523999D01*
X10975621Y-20452570D01*
X10989907Y-20395427D01*
X11004193Y-20366856D01*
X11018478Y-20352570D01*
X11047050Y-20338284D01*
X11275621Y-20609713D02*
X11289907Y-20623999D01*
X11275621Y-20638284D01*
X11261336Y-20623999D01*
X11275621Y-20609713D01*
X11275621Y-20638284D01*
X11575621Y-20638284D02*
X11404193Y-20638284D01*
X11489907Y-20638284D02*
X11489907Y-20338284D01*
X11461335Y-20381142D01*
X11432764Y-20409713D01*
X11404193Y-20423999D01*
X11847050Y-20338284D02*
X11704193Y-20338284D01*
X11689907Y-20481142D01*
X11704193Y-20466856D01*
X11732764Y-20452570D01*
X11804193Y-20452570D01*
X11832764Y-20466856D01*
X11847050Y-20481142D01*
X11861335Y-20509713D01*
X11861335Y-20581142D01*
X11847050Y-20609713D01*
X11832764Y-20623999D01*
X11804193Y-20638284D01*
X11732764Y-20638284D01*
X11704193Y-20623999D01*
X11689907Y-20609713D01*
X12032764Y-20466856D02*
X12004193Y-20452570D01*
X11989907Y-20438284D01*
X11975621Y-20409713D01*
X11975621Y-20395427D01*
X11989907Y-20366856D01*
X12004193Y-20352570D01*
X12032764Y-20338284D01*
X12089907Y-20338284D01*
X12118478Y-20352570D01*
X12132764Y-20366856D01*
X12147050Y-20395427D01*
X12147050Y-20409713D01*
X12132764Y-20438284D01*
X12118478Y-20452570D01*
X12089907Y-20466856D01*
X12032764Y-20466856D01*
X12004193Y-20481142D01*
X11989907Y-20495427D01*
X11975621Y-20523999D01*
X11975621Y-20581142D01*
X11989907Y-20609713D01*
X12004193Y-20623999D01*
X12032764Y-20638284D01*
X12089907Y-20638284D01*
X12118478Y-20623999D01*
X12132764Y-20609713D01*
X12147050Y-20581142D01*
X12147050Y-20523999D01*
X12132764Y-20495427D01*
X12118478Y-20481142D01*
X12089907Y-20466856D01*
X12261336Y-20338284D02*
X12261336Y-20395427D01*
X12375621Y-20338284D02*
X12375621Y-20395427D01*
X12818478Y-20752570D02*
X12804193Y-20738284D01*
X12775621Y-20695427D01*
X12761335Y-20666856D01*
X12747050Y-20623999D01*
X12732764Y-20552570D01*
X12732764Y-20495427D01*
X12747050Y-20423999D01*
X12761335Y-20381142D01*
X12775621Y-20352570D01*
X12804193Y-20309713D01*
X12818478Y-20295427D01*
X13075621Y-20338284D02*
X12932764Y-20338284D01*
X12918478Y-20481142D01*
X12932764Y-20466856D01*
X12961335Y-20452570D01*
X13032764Y-20452570D01*
X13061335Y-20466856D01*
X13075621Y-20481142D01*
X13089907Y-20509713D01*
X13089907Y-20581142D01*
X13075621Y-20609713D01*
X13061335Y-20623999D01*
X13032764Y-20638284D01*
X12961335Y-20638284D01*
X12932764Y-20623999D01*
X12918478Y-20609713D01*
X13447050Y-20638284D02*
X13447050Y-20338284D01*
X13575621Y-20638284D02*
X13575621Y-20481142D01*
X13561335Y-20452570D01*
X13532764Y-20438284D01*
X13489907Y-20438284D01*
X13461335Y-20452570D01*
X13447050Y-20466856D01*
X13761335Y-20638284D02*
X13732764Y-20623999D01*
X13718478Y-20609713D01*
X13704193Y-20581142D01*
X13704193Y-20495427D01*
X13718478Y-20466856D01*
X13732764Y-20452570D01*
X13761335Y-20438284D01*
X13804193Y-20438284D01*
X13832764Y-20452570D01*
X13847050Y-20466856D01*
X13861335Y-20495427D01*
X13861335Y-20581142D01*
X13847050Y-20609713D01*
X13832764Y-20623999D01*
X13804193Y-20638284D01*
X13761335Y-20638284D01*
X14032764Y-20638284D02*
X14004193Y-20623999D01*
X13989907Y-20595427D01*
X13989907Y-20338284D01*
X14261336Y-20623999D02*
X14232764Y-20638284D01*
X14175621Y-20638284D01*
X14147050Y-20623999D01*
X14132764Y-20595427D01*
X14132764Y-20481142D01*
X14147050Y-20452570D01*
X14175621Y-20438284D01*
X14232764Y-20438284D01*
X14261336Y-20452570D01*
X14275621Y-20481142D01*
X14275621Y-20509713D01*
X14132764Y-20538284D01*
X14389907Y-20623999D02*
X14418478Y-20638284D01*
X14475621Y-20638284D01*
X14504193Y-20623999D01*
X14518478Y-20595427D01*
X14518478Y-20581142D01*
X14504193Y-20552570D01*
X14475621Y-20538284D01*
X14432764Y-20538284D01*
X14404193Y-20523999D01*
X14389907Y-20495427D01*
X14389907Y-20481142D01*
X14404193Y-20452570D01*
X14432764Y-20438284D01*
X14475621Y-20438284D01*
X14504193Y-20452570D01*
X14618478Y-20752570D02*
X14632764Y-20738284D01*
X14661336Y-20695427D01*
X14675621Y-20666856D01*
X14689907Y-20623999D01*
X14704193Y-20552570D01*
X14704193Y-20495427D01*
X14689907Y-20423999D01*
X14675621Y-20381142D01*
X14661336Y-20352570D01*
X14632764Y-20309713D01*
X14618478Y-20295427D01*
M02*
