G04 (created by PCBNEW (2013-07-07 BZR 4022)-stable) date ven. 16 mai 2014 20:48:30 CEST*
%MOIN*%
G04 Gerber Fmt 3.4, Leading zero omitted, Abs format*
%FSLAX34Y34*%
G01*
G70*
G90*
G04 APERTURE LIST*
%ADD10C,0.00590551*%
%ADD11C,0.315*%
%ADD12R,0.1142X0.1142*%
%ADD13C,0.1142*%
%ADD14C,0.0787402*%
%ADD15O,0.0787402X0.0629921*%
%ADD16C,0.128*%
%ADD17C,0.3543*%
%ADD18R,0.0098X0.0394*%
%ADD19R,0.0551X0.0138*%
%ADD20R,0.05X0.018*%
%ADD21R,0.045X0.02*%
%ADD22R,0.045X0.025*%
%ADD23R,0.0709X0.0827*%
%ADD24C,0.0827*%
%ADD25R,0.0748X0.063*%
%ADD26C,0.0787*%
%ADD27R,0.0787X0.0787*%
%ADD28R,0.0827X0.0748*%
%ADD29C,0.07*%
%ADD30R,0.07X0.07*%
%ADD31C,0.0512*%
%ADD32C,0.0157*%
%ADD33C,0.0197*%
%ADD34C,0.0787402*%
%ADD35C,0.0138*%
%ADD36C,0.00984252*%
%ADD37C,0.011811*%
G04 APERTURE END LIST*
G54D10*
G54D11*
X80000Y-41375D03*
G54D12*
X37000Y-25000D03*
G54D13*
X37000Y-26375D03*
X37000Y-27775D03*
X37000Y-29150D03*
X37000Y-30525D03*
X37000Y-31900D03*
G54D14*
X62450Y-30975D03*
X62450Y-31975D03*
X62450Y-29975D03*
X63450Y-32475D03*
G54D15*
X63450Y-31475D03*
X63450Y-30475D03*
G54D16*
X59950Y-29225D03*
X59950Y-33225D03*
G54D17*
X80000Y-41375D03*
X36050Y-20825D03*
X36050Y-41375D03*
G54D18*
X55700Y-34870D03*
X55500Y-34870D03*
X55300Y-34870D03*
X55100Y-34870D03*
X55700Y-36010D03*
X55500Y-36010D03*
X55300Y-36010D03*
X55100Y-36010D03*
G54D19*
X63800Y-21475D03*
X63800Y-21225D03*
X63800Y-20975D03*
X63800Y-20725D03*
X63800Y-20475D03*
X63800Y-20225D03*
X63800Y-19975D03*
X63800Y-19725D03*
X63800Y-19475D03*
X63800Y-19225D03*
X63800Y-18975D03*
X63800Y-18725D03*
X65800Y-18725D03*
X65800Y-18975D03*
X65800Y-19225D03*
X65800Y-19475D03*
X65800Y-19725D03*
X65800Y-19975D03*
X65800Y-20225D03*
X65800Y-20475D03*
X65800Y-20725D03*
X65800Y-20975D03*
X65800Y-21225D03*
X65800Y-21475D03*
X63800Y-15725D03*
X63800Y-15475D03*
X63800Y-15225D03*
X63800Y-14975D03*
X63800Y-14725D03*
X63800Y-14475D03*
X63800Y-14225D03*
X63800Y-13975D03*
X63800Y-13725D03*
X63800Y-13475D03*
X63800Y-13225D03*
X63800Y-12975D03*
X65800Y-12975D03*
X65800Y-13225D03*
X65800Y-13475D03*
X65800Y-13725D03*
X65800Y-13975D03*
X65800Y-14225D03*
X65800Y-14475D03*
X65800Y-14725D03*
X65800Y-14975D03*
X65800Y-15225D03*
X65800Y-15475D03*
X65800Y-15725D03*
X54000Y-9175D03*
X54000Y-9425D03*
X54000Y-9675D03*
X54000Y-9925D03*
X54000Y-10175D03*
X54000Y-10425D03*
X54000Y-10675D03*
X54000Y-10925D03*
X54000Y-11175D03*
X54000Y-11425D03*
X54000Y-11675D03*
X54000Y-11925D03*
X52000Y-11925D03*
X52000Y-11675D03*
X52000Y-11425D03*
X52000Y-11175D03*
X52000Y-10925D03*
X52000Y-10675D03*
X52000Y-10425D03*
X52000Y-10175D03*
X52000Y-9925D03*
X52000Y-9675D03*
X52000Y-9425D03*
X52000Y-9175D03*
G54D20*
X74650Y-21350D03*
X74650Y-20850D03*
X74650Y-20350D03*
X74650Y-19850D03*
X74650Y-19350D03*
X74650Y-17350D03*
X74650Y-16850D03*
X74650Y-16350D03*
X74650Y-15850D03*
X74650Y-15350D03*
X78350Y-15350D03*
X78350Y-15850D03*
X78350Y-16350D03*
X78350Y-16850D03*
X78350Y-17350D03*
X78350Y-19350D03*
X78350Y-19850D03*
X78350Y-20350D03*
X78350Y-20850D03*
X78350Y-21350D03*
X78350Y-21850D03*
X78350Y-22350D03*
X78350Y-22850D03*
X78350Y-17850D03*
X78350Y-18350D03*
X78350Y-18850D03*
X74650Y-17850D03*
X74650Y-18350D03*
X74650Y-18850D03*
X74650Y-21850D03*
X74650Y-22350D03*
X74650Y-22850D03*
G54D21*
X49900Y-30700D03*
X49900Y-30200D03*
X49900Y-29700D03*
X49900Y-29200D03*
X49900Y-28700D03*
X49900Y-28200D03*
X49900Y-27700D03*
X52000Y-27700D03*
X52000Y-28200D03*
X52000Y-28700D03*
X52000Y-29200D03*
X52000Y-29700D03*
X52000Y-30200D03*
X52000Y-30700D03*
X49900Y-18700D03*
X49900Y-18200D03*
X49900Y-17700D03*
X49900Y-17200D03*
X49900Y-16700D03*
X49900Y-16200D03*
X49900Y-15700D03*
X52000Y-15700D03*
X52000Y-16200D03*
X52000Y-16700D03*
X52000Y-17200D03*
X52000Y-17700D03*
X52000Y-18200D03*
X52000Y-18700D03*
G54D22*
X74050Y-38100D03*
X74050Y-37500D03*
X71050Y-36050D03*
X71050Y-35450D03*
X70050Y-36050D03*
X70050Y-35450D03*
X69050Y-36050D03*
X69050Y-35450D03*
X73050Y-36050D03*
X73050Y-35450D03*
X73050Y-38100D03*
X73050Y-37500D03*
X75050Y-38100D03*
X75050Y-37500D03*
X74050Y-36050D03*
X74050Y-35450D03*
X75050Y-36050D03*
X75050Y-35450D03*
X57250Y-38600D03*
X57250Y-38000D03*
X54350Y-36900D03*
X54350Y-36300D03*
X68050Y-39350D03*
X68050Y-38750D03*
X68050Y-38100D03*
X68050Y-37500D03*
X60050Y-39350D03*
X60050Y-38750D03*
X64050Y-39350D03*
X64050Y-38750D03*
X64050Y-38100D03*
X64050Y-37500D03*
X60050Y-38100D03*
X60050Y-37500D03*
X56150Y-33550D03*
X56150Y-32950D03*
X54800Y-33550D03*
X54800Y-32950D03*
X71050Y-38100D03*
X71050Y-37500D03*
X69050Y-38100D03*
X69050Y-37500D03*
X70050Y-38100D03*
X70050Y-37500D03*
X53050Y-38600D03*
X53050Y-38000D03*
X50000Y-37400D03*
X50000Y-36800D03*
X50900Y-37400D03*
X50900Y-36800D03*
X51800Y-37400D03*
X51800Y-36800D03*
X49100Y-37400D03*
X49100Y-36800D03*
X54400Y-35450D03*
X54400Y-34850D03*
X55100Y-9300D03*
X55100Y-8700D03*
X50900Y-9300D03*
X50900Y-8700D03*
X79250Y-15700D03*
X79250Y-16300D03*
X50900Y-38700D03*
X50900Y-38100D03*
X50000Y-38700D03*
X50000Y-38100D03*
X49100Y-38700D03*
X49100Y-38100D03*
X51800Y-38700D03*
X51800Y-38100D03*
X69050Y-39350D03*
X69050Y-38750D03*
X71050Y-39350D03*
X71050Y-38750D03*
X70050Y-39350D03*
X70050Y-38750D03*
X73050Y-39350D03*
X73050Y-38750D03*
X74050Y-39350D03*
X74050Y-38750D03*
X75050Y-39350D03*
X75050Y-38750D03*
G54D23*
X73450Y-33700D03*
G54D24*
X74450Y-33700D03*
G54D25*
X67450Y-24449D03*
X67450Y-25449D03*
X66450Y-24449D03*
X66450Y-25449D03*
X65450Y-24449D03*
X65450Y-25449D03*
X64450Y-24449D03*
X64450Y-25449D03*
X63450Y-24449D03*
X63450Y-25449D03*
X62450Y-24449D03*
X62450Y-25449D03*
X61450Y-24449D03*
X61450Y-25449D03*
X60450Y-24449D03*
X60450Y-25449D03*
X67450Y-9800D03*
X67450Y-10800D03*
X66450Y-9800D03*
X66450Y-10800D03*
X65450Y-9800D03*
X65450Y-10800D03*
X64450Y-9800D03*
X64450Y-10800D03*
X63450Y-9800D03*
X63450Y-10800D03*
X62450Y-9800D03*
X62450Y-10800D03*
X61450Y-9800D03*
X61450Y-10800D03*
X60450Y-9800D03*
X60450Y-10800D03*
X69350Y-14100D03*
X70350Y-14100D03*
X69350Y-15100D03*
X70350Y-15100D03*
X69350Y-16100D03*
X70350Y-16100D03*
X69350Y-17100D03*
X70350Y-17100D03*
X69350Y-18100D03*
X70350Y-18100D03*
X69350Y-19100D03*
X70350Y-19100D03*
X69350Y-20100D03*
X70350Y-20100D03*
X69350Y-21100D03*
X70350Y-21100D03*
X56200Y-21100D03*
X57200Y-21100D03*
X56200Y-20100D03*
X57200Y-20100D03*
X56200Y-19100D03*
X57200Y-19100D03*
X56200Y-18100D03*
X57200Y-18100D03*
X56200Y-17100D03*
X57200Y-17100D03*
X56200Y-16100D03*
X57200Y-16100D03*
X56200Y-15100D03*
X57200Y-15100D03*
X56200Y-14100D03*
X57200Y-14100D03*
G54D26*
X51000Y-41150D03*
G54D27*
X47000Y-41150D03*
G54D26*
X48000Y-41150D03*
X49000Y-41150D03*
X50000Y-41150D03*
G54D27*
X65050Y-41150D03*
G54D26*
X66050Y-41150D03*
X67050Y-41150D03*
X68050Y-41150D03*
G54D27*
X57050Y-41150D03*
G54D26*
X58050Y-41150D03*
X59050Y-41150D03*
X60050Y-41150D03*
G54D27*
X61050Y-41150D03*
G54D26*
X62050Y-41150D03*
X63050Y-41150D03*
X64050Y-41150D03*
G54D27*
X53050Y-41150D03*
G54D26*
X54050Y-41150D03*
X55050Y-41150D03*
X56050Y-41150D03*
G54D27*
X69050Y-41150D03*
G54D26*
X70050Y-41150D03*
X71050Y-41150D03*
X72050Y-41150D03*
G54D27*
X73050Y-41150D03*
G54D26*
X74050Y-41150D03*
X75050Y-41150D03*
X76050Y-41150D03*
G54D28*
X79750Y-33300D03*
G54D24*
X79750Y-32300D03*
X79750Y-31300D03*
G54D28*
X79700Y-36300D03*
G54D24*
X79700Y-35300D03*
X79700Y-34300D03*
G54D29*
X46500Y-16500D03*
X46500Y-15500D03*
G54D30*
X46500Y-14500D03*
G54D29*
X44000Y-34500D03*
X44000Y-33500D03*
G54D30*
X44000Y-32500D03*
G54D29*
X46500Y-34500D03*
X46500Y-33500D03*
G54D30*
X46500Y-32500D03*
G54D29*
X44000Y-22500D03*
X44000Y-21500D03*
G54D30*
X44000Y-20500D03*
G54D29*
X46500Y-22500D03*
X46500Y-21500D03*
G54D30*
X46500Y-20500D03*
G54D29*
X46500Y-28500D03*
X46500Y-27500D03*
G54D30*
X46500Y-26500D03*
G54D29*
X44000Y-16500D03*
X44000Y-15500D03*
G54D30*
X44000Y-14500D03*
G54D29*
X44000Y-28500D03*
X44000Y-27500D03*
G54D30*
X44000Y-26500D03*
G54D26*
X56050Y-39000D03*
X56050Y-38000D03*
G54D17*
X79950Y-12050D03*
X36050Y-12050D03*
X81225Y-42601D03*
X81225Y-42601D03*
G54D26*
X54350Y-39000D03*
X54350Y-38000D03*
G54D31*
X61850Y-27400D03*
X59100Y-27350D03*
X56000Y-23700D03*
X51600Y-31600D03*
X72050Y-37400D03*
X67900Y-35050D03*
X70300Y-29850D03*
X77500Y-41150D03*
X51700Y-39350D03*
X67550Y-35800D03*
X69450Y-30100D03*
X65500Y-37400D03*
X65000Y-36300D03*
X39000Y-9900D03*
X43350Y-40200D03*
X56150Y-34150D03*
X54300Y-34150D03*
X48000Y-39400D03*
X63700Y-27200D03*
X56550Y-9150D03*
X62950Y-16050D03*
X62950Y-21450D03*
X48950Y-9200D03*
X78650Y-28100D03*
X54600Y-30700D03*
X53400Y-30700D03*
X77450Y-13900D03*
X50800Y-39300D03*
X77650Y-40250D03*
X80450Y-28100D03*
X57250Y-39350D03*
X53050Y-39300D03*
X59050Y-39350D03*
X67050Y-39350D03*
X63050Y-39350D03*
X66500Y-16050D03*
X66500Y-22250D03*
X62450Y-18200D03*
X45400Y-24200D03*
X45400Y-18400D03*
X59150Y-18700D03*
X45400Y-36200D03*
X45400Y-30400D03*
X53650Y-13950D03*
X52550Y-13900D03*
X74450Y-14200D03*
X79550Y-16850D03*
X56100Y-10750D03*
X59500Y-15650D03*
X58950Y-16300D03*
X55300Y-10900D03*
X79750Y-29600D03*
X72150Y-16100D03*
X79200Y-37350D03*
X72100Y-15300D03*
X79700Y-19300D03*
X75350Y-14200D03*
X65850Y-30500D03*
X67450Y-31000D03*
X60150Y-13100D03*
X57250Y-10200D03*
X63400Y-22200D03*
X62800Y-27800D03*
X66200Y-32500D03*
X74450Y-31800D03*
X66950Y-15550D03*
X67150Y-22600D03*
X56900Y-27750D03*
X60050Y-14550D03*
X57650Y-27500D03*
X60200Y-17700D03*
X79750Y-18350D03*
X79500Y-15150D03*
X73700Y-18350D03*
X72400Y-12200D03*
X56900Y-35700D03*
X62050Y-35750D03*
X58150Y-35150D03*
X66050Y-35150D03*
X48250Y-9850D03*
X57750Y-9150D03*
X78650Y-29750D03*
X50850Y-24150D03*
X54000Y-29450D03*
X65600Y-16600D03*
X74900Y-31100D03*
X73050Y-24500D03*
X73650Y-19800D03*
X37800Y-23150D03*
X52650Y-36800D03*
X53400Y-18300D03*
X53500Y-34800D03*
X50900Y-35700D03*
X46000Y-39700D03*
X43400Y-18700D03*
X46900Y-18500D03*
X48300Y-15700D03*
X78700Y-38850D03*
X68050Y-36900D03*
X64050Y-36900D03*
X60050Y-36900D03*
X76400Y-35450D03*
X72300Y-33750D03*
X62650Y-14000D03*
X72100Y-14100D03*
X62500Y-27100D03*
X60500Y-15700D03*
X60250Y-26700D03*
X60950Y-16250D03*
X66450Y-28350D03*
X64500Y-28400D03*
X65450Y-28400D03*
X76200Y-38700D03*
X69050Y-36900D03*
X74850Y-25000D03*
X73800Y-22850D03*
X78500Y-37600D03*
X74050Y-36800D03*
X55100Y-11600D03*
X54900Y-28600D03*
X49050Y-10700D03*
X54000Y-28650D03*
X48500Y-35600D03*
X47500Y-31300D03*
X52600Y-26000D03*
X51500Y-13900D03*
X47300Y-13000D03*
X48550Y-29450D03*
X48600Y-17100D03*
X47500Y-25300D03*
X52600Y-31900D03*
X52100Y-19900D03*
X47300Y-19400D03*
X47500Y-15500D03*
X41200Y-20000D03*
X39000Y-21400D03*
X47500Y-21500D03*
X41000Y-22500D03*
X39200Y-27500D03*
X47600Y-27500D03*
X41400Y-29100D03*
X39200Y-29100D03*
X47600Y-33500D03*
X39200Y-30500D03*
X42600Y-34500D03*
X48300Y-23500D03*
X77800Y-38100D03*
X70050Y-36800D03*
X76650Y-33750D03*
X73050Y-36850D03*
X75900Y-24700D03*
X72900Y-22850D03*
X67400Y-28350D03*
X61950Y-21500D03*
X60800Y-14550D03*
X70150Y-11500D03*
X64350Y-16650D03*
G54D32*
X61650Y-27600D02*
X61650Y-28350D01*
X61850Y-27400D02*
X61650Y-27600D01*
G54D33*
X59100Y-27350D02*
X59100Y-24450D01*
X59100Y-24450D02*
X58350Y-23700D01*
X58350Y-23700D02*
X56000Y-23700D01*
X61650Y-29500D02*
X61650Y-28350D01*
X62150Y-33750D02*
X61650Y-33250D01*
X61650Y-33250D02*
X61650Y-29500D01*
X62850Y-33750D02*
X62150Y-33750D01*
X67900Y-35050D02*
X67900Y-34300D01*
X67350Y-33750D02*
X62850Y-33750D01*
X62850Y-33750D02*
X62800Y-33750D01*
X67900Y-34300D02*
X67350Y-33750D01*
X72050Y-37400D02*
X72050Y-41150D01*
X70250Y-32700D02*
X67900Y-35050D01*
X70250Y-29900D02*
X70250Y-32700D01*
X70300Y-29850D02*
X70250Y-29900D01*
X75050Y-42050D02*
X75700Y-42050D01*
X72050Y-41750D02*
X72350Y-42050D01*
X72350Y-42050D02*
X75050Y-42050D01*
X72050Y-41150D02*
X72050Y-41750D01*
X75700Y-42050D02*
X76050Y-41700D01*
X76050Y-41700D02*
X76050Y-41150D01*
X77500Y-41150D02*
X76050Y-41150D01*
X51700Y-38650D02*
X51700Y-39350D01*
X50000Y-40650D02*
X50550Y-40100D01*
X50550Y-40100D02*
X51400Y-40100D01*
X51400Y-40100D02*
X51700Y-39800D01*
X51700Y-39800D02*
X51700Y-39350D01*
X50000Y-40650D02*
X50000Y-41150D01*
X67797Y-35800D02*
X67550Y-35800D01*
X71100Y-32497D02*
X67797Y-35800D01*
X71100Y-29500D02*
X71100Y-32497D01*
X70800Y-29200D02*
X71100Y-29500D01*
X69800Y-29200D02*
X70800Y-29200D01*
X69400Y-29600D02*
X69800Y-29200D01*
X69400Y-30150D02*
X69400Y-29600D01*
X69450Y-30100D02*
X69400Y-30150D01*
X65500Y-36800D02*
X65500Y-37400D01*
X65000Y-36300D02*
X65500Y-36800D01*
G54D34*
X40100Y-17200D02*
X40100Y-11000D01*
X40100Y-11000D02*
X39000Y-9900D01*
X37000Y-31900D02*
X37000Y-33850D01*
X37000Y-33850D02*
X43350Y-40200D01*
G54D32*
X49100Y-38700D02*
X45650Y-38700D01*
X41100Y-35500D02*
X41100Y-33500D01*
X42950Y-37350D02*
X41100Y-35500D01*
X44300Y-37350D02*
X42950Y-37350D01*
X45650Y-38700D02*
X44300Y-37350D01*
G54D34*
X44000Y-33500D02*
X41100Y-33500D01*
X41100Y-33500D02*
X40100Y-32500D01*
X44000Y-21500D02*
X40100Y-21500D01*
X40100Y-21500D02*
X40300Y-21500D01*
X40300Y-21500D02*
X40100Y-21500D01*
X44000Y-27500D02*
X40100Y-27500D01*
X40100Y-32500D02*
X40100Y-27500D01*
X40100Y-27500D02*
X40100Y-21900D01*
X40100Y-21900D02*
X40100Y-21500D01*
X40100Y-21500D02*
X40100Y-17200D01*
X40100Y-17200D02*
X41800Y-15500D01*
X41800Y-15500D02*
X44000Y-15500D01*
X37600Y-32500D02*
X37000Y-31900D01*
X39600Y-32500D02*
X37600Y-32500D01*
X40100Y-32500D02*
X39600Y-32500D01*
G54D35*
X64450Y-25449D02*
X64449Y-25449D01*
X63800Y-21900D02*
X63800Y-21475D01*
X63950Y-22050D02*
X63800Y-21900D01*
X63950Y-24950D02*
X63950Y-22050D01*
X64449Y-25449D02*
X63950Y-24950D01*
G54D32*
X54800Y-33950D02*
X54500Y-33950D01*
X56150Y-34150D02*
X56150Y-33550D01*
X54500Y-33950D02*
X54300Y-34150D01*
G54D36*
X55300Y-34870D02*
X55300Y-34450D01*
X54800Y-33950D02*
X54800Y-33550D01*
X55300Y-34450D02*
X54800Y-33950D01*
X54400Y-35450D02*
X55050Y-35450D01*
X55300Y-35200D02*
X55300Y-34870D01*
X55050Y-35450D02*
X55300Y-35200D01*
G54D33*
X64450Y-25449D02*
X64450Y-26450D01*
X64450Y-26450D02*
X63700Y-27200D01*
X48000Y-39400D02*
X49650Y-39400D01*
X48000Y-41150D02*
X48000Y-39400D01*
X49950Y-39100D02*
X49950Y-38650D01*
X49650Y-39400D02*
X49950Y-39100D01*
X55100Y-9300D02*
X56400Y-9300D01*
X56400Y-9300D02*
X56550Y-9150D01*
X54000Y-9175D02*
X54475Y-9175D01*
X54600Y-9300D02*
X55100Y-9300D01*
X54475Y-9175D02*
X54600Y-9300D01*
G54D35*
X54000Y-9175D02*
X54000Y-9425D01*
X63800Y-15725D02*
X63275Y-15725D01*
X63275Y-15725D02*
X62950Y-16050D01*
X63800Y-15725D02*
X63800Y-15475D01*
X63800Y-21475D02*
X62975Y-21475D01*
X62975Y-21475D02*
X62950Y-21450D01*
G54D33*
X50900Y-9300D02*
X49050Y-9300D01*
X49050Y-9300D02*
X48950Y-9200D01*
G54D32*
X80450Y-28100D02*
X78650Y-28100D01*
X52200Y-25350D02*
X52900Y-25350D01*
X53200Y-26550D02*
X52800Y-26950D01*
X53200Y-25650D02*
X53200Y-26550D01*
X52900Y-25350D02*
X53200Y-25650D01*
X52000Y-18700D02*
X52200Y-18700D01*
X51750Y-30700D02*
X52000Y-30700D01*
X52800Y-26950D02*
X48600Y-26950D01*
X48600Y-26950D02*
X48100Y-27450D01*
X48100Y-27450D02*
X48100Y-31300D01*
X48100Y-31300D02*
X48800Y-32000D01*
X48800Y-32000D02*
X50450Y-32000D01*
X50450Y-32000D02*
X51750Y-30700D01*
X49150Y-25350D02*
X52200Y-25350D01*
X47600Y-23800D02*
X49150Y-25350D01*
X47600Y-23150D02*
X47600Y-23800D01*
X48050Y-22700D02*
X47600Y-23150D01*
X50400Y-22700D02*
X48050Y-22700D01*
X52700Y-20400D02*
X50400Y-22700D01*
X52700Y-19200D02*
X52700Y-20400D01*
X52200Y-18700D02*
X52700Y-19200D01*
G54D33*
X53000Y-34250D02*
X53000Y-33100D01*
X53000Y-34950D02*
X53000Y-35250D01*
X52000Y-30700D02*
X53400Y-30700D01*
X53000Y-34950D02*
X53000Y-34250D01*
X53300Y-35550D02*
X53000Y-35250D01*
X53300Y-36900D02*
X53300Y-35550D01*
X53000Y-33100D02*
X53750Y-32350D01*
X53750Y-32350D02*
X53750Y-31850D01*
X53750Y-31850D02*
X54600Y-31000D01*
X54600Y-31000D02*
X54600Y-30700D01*
G54D32*
X78350Y-15350D02*
X78350Y-14800D01*
X78350Y-14800D02*
X77450Y-13900D01*
G54D33*
X53050Y-38600D02*
X52700Y-38600D01*
X52700Y-38600D02*
X52500Y-38400D01*
X52500Y-38400D02*
X52500Y-37600D01*
X52500Y-37600D02*
X52550Y-37600D01*
X53250Y-36900D02*
X53300Y-36900D01*
X53300Y-36900D02*
X54350Y-36900D01*
X52550Y-37600D02*
X53250Y-36900D01*
X50800Y-38650D02*
X50800Y-39300D01*
X49000Y-40550D02*
X49500Y-40050D01*
X49500Y-40050D02*
X49950Y-40050D01*
X49950Y-40050D02*
X50700Y-39300D01*
X50700Y-39300D02*
X50800Y-39300D01*
X49000Y-40550D02*
X49000Y-41150D01*
G54D35*
X52500Y-38400D02*
X52700Y-38600D01*
X52500Y-37600D02*
X52500Y-38400D01*
G54D33*
X80800Y-34800D02*
X80800Y-37450D01*
X80800Y-37450D02*
X78000Y-40250D01*
X78000Y-40250D02*
X77650Y-40250D01*
G54D35*
X79750Y-32300D02*
X80800Y-32300D01*
X80800Y-32300D02*
X80750Y-32300D01*
X80750Y-32300D02*
X80800Y-32300D01*
X80400Y-35300D02*
X79700Y-35300D01*
X80800Y-34900D02*
X80400Y-35300D01*
X80800Y-28450D02*
X80800Y-32300D01*
X80800Y-32300D02*
X80800Y-34800D01*
X80800Y-34800D02*
X80800Y-34900D01*
X80450Y-28100D02*
X80800Y-28450D01*
X52000Y-9175D02*
X51275Y-9175D01*
X51150Y-9300D02*
X50900Y-9300D01*
X51275Y-9175D02*
X51150Y-9300D01*
G54D33*
X57250Y-38600D02*
X57250Y-39350D01*
X53050Y-39300D02*
X53050Y-38600D01*
X54050Y-40300D02*
X54050Y-41150D01*
X53050Y-39300D02*
X54050Y-40300D01*
X59050Y-39350D02*
X59050Y-41150D01*
X67050Y-41150D02*
X67050Y-39350D01*
X63050Y-39350D02*
X63050Y-41150D01*
G54D35*
X79250Y-15700D02*
X78350Y-15700D01*
X78350Y-15700D02*
X78400Y-15700D01*
X78400Y-15700D02*
X78350Y-15700D01*
X65800Y-15725D02*
X66175Y-15725D01*
X66175Y-15725D02*
X66500Y-16050D01*
X66450Y-22125D02*
X65800Y-21475D01*
X66500Y-22250D02*
X66450Y-22200D01*
X66450Y-22200D02*
X66450Y-22125D01*
X78350Y-15350D02*
X78350Y-15700D01*
X78350Y-15700D02*
X78350Y-15850D01*
G54D32*
X65800Y-17397D02*
X63252Y-17397D01*
X65800Y-17397D02*
X67102Y-17397D01*
X67102Y-17397D02*
X68150Y-16350D01*
X68150Y-16350D02*
X68150Y-15450D01*
X68150Y-15450D02*
X68500Y-15100D01*
X68500Y-15100D02*
X69350Y-15100D01*
X63252Y-17397D02*
X62450Y-18200D01*
G54D34*
X46500Y-23100D02*
X46500Y-22500D01*
X45400Y-24200D02*
X46500Y-23100D01*
X46500Y-16500D02*
X46500Y-17300D01*
X46500Y-17300D02*
X45400Y-18400D01*
G54D33*
X59300Y-18850D02*
X59150Y-18700D01*
X66450Y-17800D02*
X63700Y-17800D01*
G54D32*
X69850Y-15600D02*
X68750Y-15600D01*
G54D33*
X68750Y-15600D02*
X68450Y-15900D01*
X68450Y-15900D02*
X68450Y-16550D01*
X68450Y-16550D02*
X67200Y-17800D01*
X67200Y-17800D02*
X66450Y-17800D01*
X70350Y-15100D02*
X69850Y-15600D01*
X62650Y-18850D02*
X62000Y-18850D01*
X63700Y-17800D02*
X62650Y-18850D01*
X62000Y-18850D02*
X59300Y-18850D01*
G54D34*
X46500Y-34500D02*
X46500Y-35100D01*
X46500Y-35100D02*
X45400Y-36200D01*
X46500Y-28500D02*
X46500Y-29300D01*
X46500Y-29300D02*
X45400Y-30400D01*
G54D33*
X52400Y-12700D02*
X50900Y-12700D01*
X50600Y-12400D02*
X50600Y-10700D01*
X50900Y-12700D02*
X50600Y-12400D01*
G54D32*
X52400Y-12700D02*
X52550Y-12700D01*
X52950Y-17700D02*
X52000Y-17700D01*
X53100Y-17550D02*
X52950Y-17700D01*
G54D33*
X53100Y-13250D02*
X53100Y-17550D01*
G54D32*
X52550Y-12700D02*
X53100Y-13250D01*
G54D35*
X52000Y-17700D02*
X51400Y-17700D01*
X49400Y-18200D02*
X49300Y-18300D01*
X49300Y-18300D02*
X49300Y-19100D01*
X49300Y-19100D02*
X49500Y-19300D01*
X49500Y-19300D02*
X50300Y-19300D01*
X49900Y-18200D02*
X49400Y-18200D01*
X51100Y-19100D02*
X50900Y-19300D01*
X50900Y-19300D02*
X50300Y-19300D01*
X51100Y-18000D02*
X51100Y-19100D01*
X51400Y-17700D02*
X51100Y-18000D01*
X49900Y-18200D02*
X49900Y-17700D01*
X50875Y-10425D02*
X50600Y-10700D01*
X52000Y-10425D02*
X50875Y-10425D01*
G54D33*
X53350Y-12400D02*
X51250Y-12400D01*
X51050Y-10950D02*
X51200Y-10800D01*
X51050Y-12200D02*
X51050Y-10950D01*
X51250Y-12400D02*
X51050Y-12200D01*
X54250Y-26450D02*
X54250Y-27600D01*
X53200Y-28650D02*
X53200Y-29500D01*
X54250Y-27600D02*
X53200Y-28650D01*
X53350Y-12400D02*
X53600Y-12400D01*
X53600Y-12400D02*
X54100Y-12900D01*
G54D32*
X52000Y-29700D02*
X53000Y-29700D01*
X53000Y-29700D02*
X53200Y-29500D01*
X54250Y-13050D02*
X54250Y-26450D01*
X54100Y-12900D02*
X54250Y-13050D01*
G54D35*
X52000Y-10675D02*
X51325Y-10675D01*
X51325Y-10675D02*
X51200Y-10800D01*
X49900Y-30200D02*
X49500Y-30200D01*
X49500Y-30200D02*
X49200Y-30500D01*
X49900Y-30200D02*
X49900Y-29700D01*
X52000Y-29700D02*
X51400Y-29700D01*
X51400Y-29700D02*
X51100Y-30000D01*
X51100Y-30000D02*
X51100Y-30700D01*
X51100Y-30700D02*
X50600Y-31200D01*
X50600Y-31200D02*
X49500Y-31200D01*
X49500Y-31200D02*
X49200Y-30900D01*
X49200Y-30900D02*
X49200Y-30500D01*
G54D33*
X52000Y-15700D02*
X52000Y-13600D01*
X52000Y-13600D02*
X51750Y-13350D01*
X50075Y-9925D02*
X50175Y-9925D01*
X49850Y-10150D02*
X50075Y-9925D01*
X49850Y-13100D02*
X49850Y-10150D01*
X50100Y-13350D02*
X49850Y-13100D01*
X51750Y-13350D02*
X50100Y-13350D01*
G54D35*
X50175Y-9925D02*
X52000Y-9925D01*
X52000Y-16200D02*
X52000Y-15700D01*
G54D33*
X50475Y-10225D02*
X50200Y-10500D01*
X52200Y-13050D02*
X52550Y-13400D01*
X50500Y-13050D02*
X52200Y-13050D01*
X50200Y-12750D02*
X50500Y-13050D01*
X50200Y-10500D02*
X50200Y-12750D01*
X52550Y-13400D02*
X52550Y-13900D01*
G54D32*
X53350Y-27700D02*
X52000Y-27700D01*
X53900Y-27150D02*
X53350Y-27700D01*
X53900Y-17900D02*
X53900Y-27150D01*
X53650Y-17650D02*
X53900Y-17900D01*
X53650Y-13950D02*
X53650Y-17650D01*
X52550Y-13400D02*
X52550Y-13900D01*
G54D35*
X50525Y-10175D02*
X52000Y-10175D01*
X50525Y-10175D02*
X50475Y-10225D01*
X52000Y-28200D02*
X52000Y-27700D01*
X56200Y-19100D02*
X56700Y-19600D01*
X58725Y-19225D02*
X63800Y-19225D01*
X58350Y-19600D02*
X58725Y-19225D01*
X56700Y-19600D02*
X58350Y-19600D01*
X63800Y-19475D02*
X59225Y-19475D01*
X58600Y-20100D02*
X57200Y-20100D01*
X59225Y-19475D02*
X58600Y-20100D01*
X56200Y-20100D02*
X56700Y-20600D01*
X59675Y-19725D02*
X63800Y-19725D01*
X58800Y-20600D02*
X59675Y-19725D01*
X56700Y-20600D02*
X58800Y-20600D01*
X63800Y-19975D02*
X60025Y-19975D01*
X58900Y-21100D02*
X57200Y-21100D01*
X60025Y-19975D02*
X58900Y-21100D01*
X63800Y-20225D02*
X60425Y-20225D01*
X59000Y-21650D02*
X57350Y-21650D01*
X60425Y-20225D02*
X59000Y-21650D01*
X56200Y-21100D02*
X56250Y-21100D01*
X56800Y-21650D02*
X57350Y-21650D01*
X56250Y-21100D02*
X56800Y-21650D01*
X60450Y-24449D02*
X60450Y-20750D01*
X60725Y-20475D02*
X63800Y-20475D01*
X60450Y-20750D02*
X60725Y-20475D01*
X63800Y-20725D02*
X61125Y-20725D01*
X60950Y-24949D02*
X60450Y-25449D01*
X60950Y-20900D02*
X60950Y-24949D01*
X61125Y-20725D02*
X60950Y-20900D01*
X61450Y-24449D02*
X61450Y-24000D01*
X61900Y-22200D02*
X61450Y-21750D01*
X61900Y-23550D02*
X61900Y-22200D01*
X61450Y-24000D02*
X61900Y-23550D01*
X61450Y-21750D02*
X61450Y-21100D01*
X61575Y-20975D02*
X63800Y-20975D01*
X61450Y-21100D02*
X61575Y-20975D01*
G54D33*
X74450Y-14200D02*
X73350Y-15300D01*
X73350Y-15300D02*
X73350Y-15700D01*
G54D35*
X73350Y-15300D02*
X73350Y-15700D01*
X73350Y-15700D02*
X71450Y-17600D01*
X71450Y-17600D02*
X68250Y-17600D01*
X68250Y-17600D02*
X66863Y-18986D01*
X66863Y-18986D02*
X65800Y-18986D01*
X65800Y-18986D02*
X65800Y-18975D01*
X79550Y-16850D02*
X78350Y-16850D01*
X65800Y-19225D02*
X67975Y-19225D01*
X73700Y-15850D02*
X74650Y-15850D01*
X72350Y-17200D02*
X73700Y-15850D01*
X72350Y-18300D02*
X72350Y-17200D01*
X72050Y-18600D02*
X72350Y-18300D01*
X68600Y-18600D02*
X72050Y-18600D01*
X67975Y-19225D02*
X68600Y-18600D01*
X74650Y-16350D02*
X73650Y-16350D01*
X65800Y-19486D02*
X65800Y-19475D01*
X67686Y-19486D02*
X65800Y-19486D01*
X67800Y-19600D02*
X67686Y-19486D01*
X72350Y-19600D02*
X67800Y-19600D01*
X72750Y-19200D02*
X72350Y-19600D01*
X72750Y-17250D02*
X72750Y-19200D01*
X73650Y-16350D02*
X72750Y-17250D01*
X65800Y-19725D02*
X67325Y-19725D01*
X73750Y-16850D02*
X74650Y-16850D01*
X73150Y-17450D02*
X73750Y-16850D01*
X73150Y-19500D02*
X73150Y-17450D01*
X72050Y-20600D02*
X73150Y-19500D01*
X68200Y-20600D02*
X72050Y-20600D01*
X67325Y-19725D02*
X68200Y-20600D01*
X70700Y-22000D02*
X69000Y-22000D01*
X66986Y-19986D02*
X65800Y-19986D01*
X69000Y-22000D02*
X66986Y-19986D01*
X65800Y-19986D02*
X65800Y-19975D01*
X73000Y-20350D02*
X73550Y-20350D01*
X71350Y-22000D02*
X73000Y-20350D01*
X70700Y-22000D02*
X71350Y-22000D01*
X74650Y-20350D02*
X73550Y-20350D01*
X65800Y-19986D02*
X65800Y-19975D01*
X66350Y-20225D02*
X66775Y-20225D01*
X68850Y-22300D02*
X70200Y-22300D01*
X66775Y-20225D02*
X68850Y-22300D01*
X73600Y-20850D02*
X73050Y-20850D01*
X71600Y-22300D02*
X70200Y-22300D01*
X73050Y-20850D02*
X71600Y-22300D01*
X73600Y-20850D02*
X74650Y-20850D01*
X65800Y-20225D02*
X66350Y-20225D01*
X65800Y-20475D02*
X66525Y-20475D01*
X67350Y-21300D02*
X67350Y-21288D01*
X66525Y-20475D02*
X67350Y-21300D01*
X73600Y-21350D02*
X73300Y-21350D01*
X73300Y-21350D02*
X72000Y-22650D01*
X72000Y-22650D02*
X68711Y-22650D01*
X68711Y-22650D02*
X67350Y-21288D01*
X67350Y-21288D02*
X66536Y-20475D01*
X66536Y-20475D02*
X66536Y-20463D01*
X66536Y-20463D02*
X66536Y-20475D01*
X66500Y-20475D02*
X66536Y-20475D01*
X66500Y-20475D02*
X65800Y-20475D01*
X74650Y-21350D02*
X73600Y-21350D01*
X65800Y-20725D02*
X66425Y-20725D01*
X69150Y-23450D02*
X70450Y-23450D01*
X66425Y-20725D02*
X69150Y-23450D01*
X70450Y-23450D02*
X71050Y-23450D01*
X77350Y-19850D02*
X78350Y-19850D01*
X77200Y-20000D02*
X77350Y-19850D01*
X77200Y-23300D02*
X77200Y-20000D01*
X77050Y-23450D02*
X77200Y-23300D01*
X71050Y-23450D02*
X77050Y-23450D01*
G54D33*
X55725Y-10375D02*
X56100Y-10750D01*
G54D35*
X55250Y-10175D02*
X55525Y-10175D01*
X55525Y-10175D02*
X55725Y-10375D01*
X54000Y-10175D02*
X55250Y-10175D01*
G54D33*
X58300Y-16450D02*
X58150Y-16600D01*
X58300Y-15850D02*
X58300Y-16450D01*
X58500Y-15650D02*
X58300Y-15850D01*
X58150Y-16600D02*
X58000Y-16600D01*
X57800Y-16600D02*
X58000Y-16600D01*
X56200Y-16100D02*
X56700Y-16600D01*
G54D32*
X56700Y-16600D02*
X57800Y-16600D01*
G54D33*
X59500Y-15650D02*
X58500Y-15650D01*
X55450Y-10800D02*
X55400Y-10800D01*
G54D32*
X54000Y-10425D02*
X54950Y-10425D01*
G54D35*
X55075Y-10425D02*
X55450Y-10800D01*
X54950Y-10425D02*
X55075Y-10425D01*
G54D33*
X58500Y-17100D02*
X57200Y-17100D01*
X58950Y-16650D02*
X58500Y-17100D01*
X58950Y-16300D02*
X58950Y-16650D01*
X55400Y-10800D02*
X55300Y-10900D01*
G54D35*
X72150Y-16100D02*
X72150Y-16150D01*
G54D33*
X79750Y-31300D02*
X79750Y-29600D01*
G54D35*
X69850Y-16600D02*
X69350Y-16100D01*
X71700Y-16600D02*
X69850Y-16600D01*
X72150Y-16150D02*
X71700Y-16600D01*
G54D32*
X79250Y-34300D02*
X79700Y-34300D01*
X78850Y-34700D02*
X79250Y-34300D01*
X78850Y-37000D02*
X78850Y-34700D01*
X79200Y-37350D02*
X78850Y-37000D01*
G54D35*
X71300Y-16100D02*
X72100Y-15300D01*
X70350Y-16100D02*
X71300Y-16100D01*
G54D33*
X78350Y-18350D02*
X78850Y-18350D01*
X78850Y-18350D02*
X79700Y-19200D01*
X79700Y-19200D02*
X79700Y-19300D01*
G54D32*
X71650Y-13300D02*
X75150Y-13300D01*
X75350Y-13500D02*
X75350Y-14200D01*
X75150Y-13300D02*
X75350Y-13500D01*
G54D35*
X67175Y-14725D02*
X65800Y-14725D01*
X68600Y-13300D02*
X67175Y-14725D01*
X71650Y-13300D02*
X68600Y-13300D01*
G54D33*
X75000Y-12350D02*
X73550Y-12350D01*
X73550Y-12350D02*
X72700Y-11500D01*
X64450Y-9150D02*
X64450Y-9800D01*
X64800Y-8800D02*
X64450Y-9150D01*
X68400Y-8800D02*
X64800Y-8800D01*
X71100Y-11500D02*
X68400Y-8800D01*
X72700Y-11500D02*
X71100Y-11500D01*
G54D35*
X78350Y-17350D02*
X79250Y-17350D01*
X80350Y-15350D02*
X78300Y-13300D01*
X80350Y-17550D02*
X80350Y-15350D01*
X80200Y-17700D02*
X80350Y-17550D01*
X79600Y-17700D02*
X80200Y-17700D01*
X79250Y-17350D02*
X79600Y-17700D01*
X77350Y-12350D02*
X75000Y-12350D01*
X75000Y-12350D02*
X73550Y-12350D01*
X78300Y-13300D02*
X77350Y-12350D01*
G54D33*
X67300Y-31750D02*
X67750Y-31750D01*
X68199Y-24449D02*
X67450Y-24449D01*
X68550Y-24800D02*
X68199Y-24449D01*
X68550Y-29250D02*
X68550Y-24800D01*
X68150Y-29650D02*
X68550Y-29250D01*
X68150Y-31350D02*
X68150Y-29650D01*
X67750Y-31750D02*
X68150Y-31350D01*
X65850Y-30500D02*
X65850Y-31450D01*
X65850Y-31450D02*
X66150Y-31750D01*
X66150Y-31750D02*
X67300Y-31750D01*
X66150Y-31750D02*
X65850Y-31450D01*
X67450Y-31000D02*
X67450Y-29600D01*
X68050Y-26049D02*
X67450Y-25449D01*
X68050Y-29000D02*
X68050Y-26049D01*
X67450Y-29600D02*
X68050Y-29000D01*
G54D35*
X55500Y-9675D02*
X59075Y-9675D01*
X59075Y-9675D02*
X59750Y-9000D01*
X59750Y-9000D02*
X60600Y-9000D01*
X54000Y-9675D02*
X55500Y-9675D01*
G54D32*
X61450Y-9200D02*
X61250Y-9000D01*
X61450Y-9200D02*
X61450Y-9800D01*
X61250Y-9000D02*
X60600Y-9000D01*
X60600Y-9000D02*
X59750Y-9000D01*
X55700Y-9925D02*
X54000Y-9925D01*
G54D35*
X56225Y-9925D02*
X56375Y-10075D01*
X55700Y-9925D02*
X56225Y-9925D01*
G54D33*
X59150Y-14100D02*
X60150Y-13100D01*
X57200Y-14100D02*
X59150Y-14100D01*
X57250Y-10200D02*
X57125Y-10075D01*
X57125Y-10075D02*
X56375Y-10075D01*
G54D35*
X63800Y-14975D02*
X62725Y-14975D01*
X62725Y-14975D02*
X61500Y-16200D01*
X59850Y-16800D02*
X58450Y-18200D01*
X61300Y-16800D02*
X59850Y-16800D01*
X61500Y-16600D02*
X61300Y-16800D01*
X61500Y-16200D02*
X61500Y-16600D01*
G54D32*
X58050Y-18600D02*
X56900Y-18600D01*
X58450Y-18200D02*
X58050Y-18600D01*
G54D35*
X56700Y-18600D02*
X56200Y-18100D01*
X56900Y-18600D02*
X56700Y-18600D01*
X63800Y-15225D02*
X62975Y-15225D01*
X62975Y-15225D02*
X61900Y-16300D01*
X61500Y-17150D02*
X60050Y-17150D01*
X61900Y-16750D02*
X61500Y-17150D01*
X61900Y-16300D02*
X61900Y-16750D01*
G54D32*
X60050Y-17150D02*
X58100Y-19100D01*
X58100Y-19100D02*
X57200Y-19100D01*
G54D33*
X63450Y-22250D02*
X63400Y-22200D01*
X63450Y-24449D02*
X63450Y-22250D01*
X62800Y-27800D02*
X64050Y-29050D01*
X64050Y-29050D02*
X64050Y-30850D01*
X64050Y-30850D02*
X65700Y-32500D01*
X65700Y-32500D02*
X66200Y-32500D01*
X74450Y-33700D02*
X74450Y-31800D01*
G54D35*
X72150Y-23750D02*
X70950Y-23750D01*
X66375Y-14975D02*
X66950Y-15550D01*
X65800Y-14975D02*
X66375Y-14975D01*
X70000Y-23750D02*
X70950Y-23750D01*
X67150Y-22600D02*
X68300Y-23750D01*
X68300Y-23750D02*
X70000Y-23750D01*
X72150Y-23750D02*
X77250Y-23750D01*
X77250Y-23750D02*
X77500Y-23500D01*
X77500Y-23500D02*
X77500Y-21150D01*
X77500Y-21150D02*
X77800Y-20850D01*
X77800Y-20850D02*
X78350Y-20850D01*
X78350Y-20850D02*
X78350Y-20350D01*
G54D33*
X58100Y-29350D02*
X58100Y-28600D01*
X58100Y-28600D02*
X57750Y-28600D01*
X57750Y-28600D02*
X56900Y-27750D01*
X58100Y-34300D02*
X59350Y-35550D01*
X58100Y-29350D02*
X58100Y-34300D01*
X59350Y-35550D02*
X59350Y-37850D01*
X59350Y-37850D02*
X59600Y-38100D01*
X59600Y-38100D02*
X60050Y-38100D01*
X58350Y-14600D02*
X60000Y-14600D01*
X56200Y-14100D02*
X56700Y-14600D01*
G54D35*
X56700Y-14600D02*
X57850Y-14600D01*
G54D33*
X57850Y-14600D02*
X58350Y-14600D01*
X60000Y-14600D02*
X60050Y-14550D01*
X60050Y-38750D02*
X60050Y-38100D01*
G54D35*
X60200Y-17700D02*
X61650Y-17700D01*
X61650Y-17700D02*
X62200Y-17150D01*
G54D32*
X58600Y-29500D02*
X58600Y-28450D01*
X58600Y-28450D02*
X57650Y-27500D01*
X63000Y-17150D02*
X62200Y-17150D01*
G54D35*
X67550Y-14850D02*
X67550Y-15400D01*
X69350Y-14100D02*
X68300Y-14100D01*
X68300Y-14100D02*
X67550Y-14850D01*
G54D32*
X67550Y-16300D02*
X67550Y-15400D01*
G54D35*
X67550Y-16500D02*
X66900Y-17150D01*
X66900Y-17150D02*
X63000Y-17150D01*
X67550Y-16300D02*
X67550Y-16500D01*
G54D33*
X58600Y-34000D02*
X59150Y-34550D01*
X58600Y-29500D02*
X58600Y-34000D01*
X63450Y-38100D02*
X63050Y-37700D01*
X63450Y-38100D02*
X64050Y-38100D01*
X59400Y-34800D02*
X59150Y-34550D01*
X62750Y-34800D02*
X59400Y-34800D01*
X63050Y-35100D02*
X62750Y-34800D01*
X63050Y-37700D02*
X63050Y-35100D01*
X64050Y-38100D02*
X64050Y-38750D01*
X61950Y-26050D02*
X61950Y-26100D01*
X61950Y-26100D02*
X61200Y-26850D01*
X61600Y-34350D02*
X63150Y-34350D01*
X61200Y-33950D02*
X61600Y-34350D01*
X61200Y-26850D02*
X61200Y-33950D01*
X68050Y-38750D02*
X68050Y-38100D01*
X67050Y-35850D02*
X67050Y-38350D01*
X67050Y-38350D02*
X67450Y-38750D01*
X68050Y-38750D02*
X67450Y-38750D01*
G54D35*
X61950Y-26050D02*
X61950Y-24949D01*
X61950Y-24949D02*
X62450Y-24449D01*
G54D33*
X63150Y-34350D02*
X65400Y-34350D01*
X66800Y-34350D02*
X67050Y-34600D01*
X67050Y-34600D02*
X67050Y-35850D01*
X65400Y-34350D02*
X66800Y-34350D01*
G54D36*
X55500Y-36010D02*
X55500Y-36500D01*
G54D35*
X54650Y-39000D02*
X55050Y-38600D01*
X55050Y-38600D02*
X55050Y-36950D01*
X54650Y-39000D02*
X54350Y-39000D01*
G54D36*
X55500Y-36500D02*
X55050Y-36950D01*
G54D33*
X55050Y-41150D02*
X55050Y-39700D01*
X55050Y-39700D02*
X54350Y-39000D01*
G54D36*
X55700Y-36010D02*
X55700Y-36950D01*
X55700Y-36950D02*
X55700Y-36900D01*
X55700Y-36900D02*
X55700Y-36950D01*
G54D35*
X56050Y-39000D02*
X55700Y-39000D01*
X55350Y-37300D02*
X55700Y-36950D01*
X55700Y-36950D02*
X55700Y-36950D01*
X55350Y-38650D02*
X55350Y-37300D01*
X55700Y-39000D02*
X55350Y-38650D01*
G54D33*
X56050Y-41150D02*
X56050Y-39000D01*
G54D32*
X73450Y-12700D02*
X77050Y-12700D01*
X77050Y-12700D02*
X79500Y-15150D01*
G54D35*
X78350Y-17850D02*
X79250Y-17850D01*
X79250Y-17850D02*
X79750Y-18350D01*
X66875Y-14225D02*
X65800Y-14225D01*
X68400Y-12700D02*
X66875Y-14225D01*
X73450Y-12700D02*
X68400Y-12700D01*
X69100Y-12200D02*
X68500Y-12200D01*
X74650Y-18350D02*
X73700Y-18350D01*
X72400Y-12200D02*
X69100Y-12200D01*
X66725Y-13975D02*
X65800Y-13975D01*
X68500Y-12200D02*
X66725Y-13975D01*
G54D33*
X60050Y-39350D02*
X60050Y-41150D01*
G54D32*
X60300Y-12300D02*
X59350Y-12300D01*
X54950Y-13550D02*
X54950Y-14000D01*
X55600Y-12900D02*
X54950Y-13550D01*
X58750Y-12900D02*
X55600Y-12900D01*
X59350Y-12300D02*
X58750Y-12900D01*
X54950Y-22750D02*
X54950Y-27400D01*
G54D33*
X54950Y-21550D02*
X54950Y-14000D01*
G54D32*
X54950Y-22750D02*
X54950Y-21550D01*
G54D33*
X58050Y-36800D02*
X58050Y-35850D01*
X57150Y-34950D02*
X57150Y-31750D01*
X58050Y-35850D02*
X57150Y-34950D01*
X58050Y-36800D02*
X58050Y-37800D01*
X58050Y-41150D02*
X58050Y-37800D01*
G54D32*
X57150Y-31750D02*
X57150Y-30000D01*
X54950Y-27400D02*
X57150Y-29600D01*
X57150Y-29600D02*
X57150Y-30000D01*
X66800Y-12750D02*
X66800Y-12500D01*
X66800Y-12500D02*
X66600Y-12300D01*
X66600Y-12300D02*
X60300Y-12300D01*
G54D35*
X65800Y-13475D02*
X66525Y-13475D01*
X66500Y-12350D02*
X63200Y-12350D01*
X63200Y-12350D02*
X63150Y-12350D01*
X66800Y-12650D02*
X66500Y-12350D01*
X66800Y-13200D02*
X66800Y-12750D01*
X66800Y-12750D02*
X66800Y-12650D01*
X66525Y-13475D02*
X66800Y-13200D01*
G54D33*
X64050Y-39350D02*
X64050Y-41150D01*
G54D32*
X59300Y-12000D02*
X59050Y-12000D01*
X54550Y-13250D02*
X54550Y-13600D01*
X55250Y-12550D02*
X54550Y-13250D01*
X58500Y-12550D02*
X55250Y-12550D01*
X59050Y-12000D02*
X58500Y-12550D01*
X54550Y-23000D02*
X54550Y-27600D01*
X56650Y-29700D02*
X56650Y-29900D01*
X54550Y-27600D02*
X56650Y-29700D01*
X54550Y-21750D02*
X54550Y-23000D01*
X56650Y-29900D02*
X56650Y-31750D01*
G54D33*
X54550Y-21000D02*
X54550Y-21750D01*
X56650Y-35450D02*
X56900Y-35700D01*
X56650Y-31750D02*
X56650Y-35450D01*
X54550Y-13600D02*
X54550Y-21000D01*
G54D32*
X67150Y-12800D02*
X67150Y-12300D01*
G54D35*
X65800Y-13725D02*
X66611Y-13725D01*
X67150Y-13186D02*
X67150Y-12800D01*
X66611Y-13725D02*
X67150Y-13186D01*
G54D32*
X67150Y-12300D02*
X66850Y-12000D01*
X66850Y-12000D02*
X59300Y-12000D01*
G54D33*
X62050Y-35750D02*
X62050Y-41150D01*
X68050Y-39350D02*
X68050Y-41150D01*
G54D32*
X55450Y-13800D02*
X55450Y-13500D01*
X58950Y-13250D02*
X59600Y-12600D01*
X55700Y-13250D02*
X58950Y-13250D01*
X55450Y-13500D02*
X55700Y-13250D01*
X55450Y-22500D02*
X55450Y-27250D01*
X57600Y-29400D02*
X57600Y-29850D01*
X55450Y-27250D02*
X57600Y-29400D01*
X55450Y-21450D02*
X55450Y-22500D01*
X55450Y-13800D02*
X55450Y-21450D01*
G54D33*
X58150Y-35150D02*
X58150Y-35100D01*
X57600Y-34550D02*
X57600Y-29850D01*
X58150Y-35100D02*
X57600Y-34550D01*
X66050Y-36850D02*
X66050Y-41150D01*
X66050Y-35150D02*
X66050Y-36850D01*
G54D32*
X63150Y-12600D02*
X59600Y-12600D01*
G54D35*
X66375Y-13225D02*
X66550Y-13050D01*
X66550Y-13050D02*
X66550Y-12800D01*
X66550Y-12800D02*
X66350Y-12600D01*
X66350Y-12600D02*
X63150Y-12600D01*
X65800Y-13225D02*
X66375Y-13225D01*
G54D32*
X74650Y-15350D02*
X75650Y-15350D01*
X75700Y-13000D02*
X72550Y-13000D01*
X75900Y-13200D02*
X75700Y-13000D01*
X75900Y-13800D02*
X75900Y-13200D01*
X75900Y-15100D02*
X75900Y-13800D01*
X75650Y-15350D02*
X75900Y-15100D01*
G54D35*
X67025Y-14475D02*
X65800Y-14475D01*
X68500Y-13000D02*
X67025Y-14475D01*
X72550Y-13000D02*
X68500Y-13000D01*
G54D33*
X48275Y-9825D02*
X48275Y-9125D01*
X48250Y-9850D02*
X48275Y-9825D01*
X57100Y-8700D02*
X57300Y-8700D01*
X57300Y-8700D02*
X57750Y-9150D01*
G54D32*
X79750Y-33300D02*
X79200Y-33300D01*
X79000Y-30100D02*
X78650Y-29750D01*
X79000Y-33100D02*
X79000Y-30100D01*
X79200Y-33300D02*
X79000Y-33100D01*
X53550Y-26800D02*
X53550Y-24900D01*
X50550Y-27700D02*
X50950Y-27300D01*
X50950Y-27300D02*
X53100Y-27300D01*
X53100Y-27300D02*
X53550Y-26850D01*
X53550Y-26850D02*
X53550Y-26800D01*
X49900Y-27700D02*
X50550Y-27700D01*
X52800Y-24150D02*
X50850Y-24150D01*
X53550Y-24900D02*
X52800Y-24150D01*
G54D35*
X53400Y-21600D02*
X53400Y-20450D01*
X50850Y-24150D02*
X53400Y-21600D01*
G54D33*
X64450Y-23550D02*
X67650Y-23550D01*
X72567Y-24017D02*
X73050Y-24500D01*
X68117Y-24017D02*
X72567Y-24017D01*
X67650Y-23550D02*
X68117Y-24017D01*
X37000Y-25000D02*
X36000Y-25000D01*
X42700Y-41150D02*
X47000Y-41150D01*
X35650Y-34100D02*
X42700Y-41150D01*
X35650Y-25350D02*
X35650Y-34100D01*
X36000Y-25000D02*
X35650Y-25350D01*
X53500Y-34800D02*
X53500Y-33250D01*
X55150Y-31200D02*
X55150Y-30100D01*
X54300Y-32050D02*
X55150Y-31200D01*
X54300Y-32450D02*
X54300Y-32050D01*
X53500Y-33250D02*
X54300Y-32450D01*
X55150Y-30100D02*
X54500Y-29450D01*
X54500Y-29450D02*
X54000Y-29450D01*
G54D32*
X54550Y-29500D02*
X55150Y-30100D01*
X54050Y-29500D02*
X54550Y-29500D01*
X54000Y-29450D02*
X54050Y-29500D01*
X65100Y-16100D02*
X65600Y-16600D01*
X65100Y-15225D02*
X65100Y-16100D01*
G54D33*
X73050Y-24500D02*
X73100Y-24500D01*
X74900Y-26300D02*
X74900Y-31100D01*
X73100Y-24500D02*
X74900Y-26300D01*
G54D32*
X74650Y-19850D02*
X73700Y-19850D01*
X73700Y-19850D02*
X73650Y-19800D01*
G54D34*
X37000Y-25000D02*
X37000Y-23950D01*
X37000Y-23950D02*
X37800Y-23150D01*
G54D33*
X52650Y-36800D02*
X51800Y-36800D01*
G54D32*
X65100Y-12975D02*
X65100Y-15225D01*
X65100Y-15225D02*
X65100Y-15200D01*
X65100Y-15200D02*
X65100Y-15225D01*
X53400Y-18300D02*
X53400Y-20450D01*
G54D33*
X64450Y-24449D02*
X64450Y-23550D01*
X64450Y-23550D02*
X64450Y-21225D01*
G54D36*
X55100Y-34870D02*
X54420Y-34870D01*
X54420Y-34870D02*
X54400Y-34850D01*
G54D33*
X54400Y-34850D02*
X53550Y-34850D01*
X53550Y-34850D02*
X53500Y-34800D01*
X50900Y-36800D02*
X50900Y-35700D01*
X50900Y-36800D02*
X51800Y-36800D01*
X50000Y-36800D02*
X50900Y-36800D01*
X49100Y-36800D02*
X50000Y-36800D01*
G54D34*
X47000Y-41150D02*
X47000Y-40700D01*
X47000Y-40700D02*
X46000Y-39700D01*
G54D32*
X50800Y-36850D02*
X51700Y-36850D01*
X49950Y-36850D02*
X50800Y-36850D01*
X49100Y-36900D02*
X49900Y-36900D01*
X49900Y-36900D02*
X49950Y-36850D01*
X43400Y-18700D02*
X43800Y-19100D01*
X43800Y-19100D02*
X46300Y-19100D01*
X46300Y-19100D02*
X46900Y-18500D01*
G54D35*
X46300Y-19100D02*
X43800Y-19100D01*
X46900Y-18500D02*
X46300Y-19100D01*
X48300Y-15700D02*
X49900Y-15700D01*
G54D33*
X50900Y-8700D02*
X48700Y-8700D01*
X48700Y-8700D02*
X48275Y-9125D01*
X64300Y-37500D02*
X64750Y-37500D01*
X64750Y-37500D02*
X65050Y-37800D01*
X65050Y-41150D02*
X65050Y-37800D01*
X64300Y-37500D02*
X64050Y-37500D01*
X79700Y-36300D02*
X79700Y-37850D01*
X79700Y-37850D02*
X78700Y-38850D01*
G54D35*
X55100Y-8700D02*
X57100Y-8700D01*
X52800Y-9675D02*
X53050Y-9675D01*
X53000Y-9700D02*
X53050Y-9700D01*
X53025Y-9700D02*
X53000Y-9700D01*
X53050Y-9675D02*
X53025Y-9700D01*
X53050Y-10200D02*
X53050Y-9700D01*
X53050Y-9700D02*
X53050Y-8700D01*
X53050Y-8700D02*
X53050Y-8750D01*
X53050Y-8750D02*
X53050Y-8700D01*
X50900Y-8700D02*
X53050Y-8700D01*
X53050Y-8700D02*
X55100Y-8700D01*
G54D33*
X60050Y-37500D02*
X60050Y-36900D01*
X64050Y-36900D02*
X64050Y-37500D01*
X53050Y-41150D02*
X53050Y-42100D01*
X53050Y-42100D02*
X53050Y-42050D01*
X53050Y-42050D02*
X53050Y-42100D01*
X51000Y-41150D02*
X51000Y-42100D01*
X51000Y-42100D02*
X51000Y-42050D01*
X51000Y-42050D02*
X51000Y-42100D01*
X53600Y-42100D02*
X53050Y-42100D01*
X53050Y-42100D02*
X51000Y-42100D01*
X51000Y-42100D02*
X47450Y-42100D01*
X47450Y-42100D02*
X47000Y-41650D01*
X47000Y-41650D02*
X47000Y-41150D01*
X68050Y-37500D02*
X68050Y-36900D01*
X68050Y-36900D02*
X68050Y-36050D01*
X68050Y-36050D02*
X68650Y-35450D01*
X68650Y-35450D02*
X69050Y-35450D01*
X75050Y-35450D02*
X76400Y-35450D01*
X74050Y-35450D02*
X75050Y-35450D01*
X73050Y-35450D02*
X74050Y-35450D01*
X71050Y-35450D02*
X71050Y-35000D01*
X71050Y-35000D02*
X72300Y-33750D01*
X70050Y-35450D02*
X71050Y-35450D01*
X69050Y-35450D02*
X70050Y-35450D01*
X72350Y-33700D02*
X73450Y-33700D01*
X72300Y-33750D02*
X72350Y-33700D01*
G54D35*
X65800Y-15225D02*
X65100Y-15225D01*
X78350Y-16350D02*
X79200Y-16350D01*
X79200Y-16350D02*
X79250Y-16300D01*
X52000Y-9675D02*
X52800Y-9675D01*
X53050Y-10200D02*
X53050Y-11925D01*
X52000Y-11925D02*
X53050Y-11925D01*
X53050Y-11925D02*
X54000Y-11925D01*
X54000Y-11925D02*
X54000Y-11675D01*
G54D33*
X57050Y-41150D02*
X57050Y-42100D01*
X61050Y-41150D02*
X61050Y-42100D01*
X61050Y-42100D02*
X61050Y-42050D01*
X61050Y-42050D02*
X61050Y-42100D01*
X65050Y-41750D02*
X65050Y-41150D01*
X64700Y-42100D02*
X65050Y-41750D01*
X53600Y-42100D02*
X57050Y-42100D01*
X57050Y-42100D02*
X61050Y-42100D01*
X61050Y-42100D02*
X64700Y-42100D01*
G54D35*
X64450Y-18700D02*
X64450Y-21225D01*
X64450Y-21225D02*
X64450Y-21250D01*
X64450Y-21250D02*
X64450Y-21225D01*
X64450Y-18725D02*
X64450Y-18700D01*
X64450Y-12975D02*
X64450Y-13000D01*
X64450Y-13000D02*
X64450Y-12975D01*
X63800Y-13225D02*
X63800Y-12975D01*
X63800Y-12975D02*
X64450Y-12975D01*
X64450Y-12975D02*
X65100Y-12975D01*
X65100Y-12975D02*
X65800Y-12975D01*
X63800Y-21225D02*
X64450Y-21225D01*
X64450Y-21225D02*
X64825Y-21225D01*
X64825Y-21225D02*
X65075Y-20975D01*
X65075Y-20975D02*
X65100Y-20975D01*
X65100Y-20975D02*
X65800Y-20975D01*
X63800Y-18975D02*
X63800Y-18725D01*
X63800Y-18725D02*
X64450Y-18725D01*
X64450Y-18725D02*
X65100Y-18725D01*
X65800Y-18736D02*
X65800Y-18725D01*
X65788Y-18725D02*
X65800Y-18736D01*
X65100Y-18725D02*
X65788Y-18725D01*
X75700Y-20700D02*
X75700Y-16750D01*
X76100Y-16350D02*
X78350Y-16350D01*
X75700Y-16750D02*
X76100Y-16350D01*
X74650Y-19850D02*
X75700Y-19850D01*
X75700Y-19850D02*
X75700Y-20700D01*
X75700Y-20700D02*
X75700Y-22150D01*
X75500Y-22350D02*
X74650Y-22350D01*
X75700Y-22150D02*
X75500Y-22350D01*
X70350Y-14100D02*
X72100Y-14100D01*
X62675Y-13975D02*
X63800Y-13975D01*
X62650Y-14000D02*
X62675Y-13975D01*
G54D33*
X62500Y-27100D02*
X63450Y-26150D01*
X63450Y-26150D02*
X63450Y-25449D01*
G54D35*
X63175Y-14225D02*
X62950Y-14450D01*
X62950Y-14450D02*
X62250Y-14450D01*
G54D33*
X62250Y-14450D02*
X61000Y-15700D01*
X61000Y-15700D02*
X60500Y-15700D01*
G54D35*
X63800Y-14225D02*
X63175Y-14225D01*
G54D33*
X60250Y-26700D02*
X61450Y-25500D01*
X61450Y-25500D02*
X61450Y-25449D01*
G54D35*
X63800Y-14475D02*
X63375Y-14475D01*
G54D33*
X61000Y-16250D02*
X60950Y-16250D01*
G54D35*
X62550Y-14700D02*
X61000Y-16250D01*
X63150Y-14700D02*
X62550Y-14700D01*
X63375Y-14475D02*
X63150Y-14700D01*
X65950Y-26400D02*
X65950Y-24949D01*
G54D33*
X66450Y-28350D02*
X65950Y-27850D01*
X65950Y-26400D02*
X65950Y-27850D01*
G54D35*
X65950Y-24949D02*
X66450Y-24449D01*
X64950Y-26350D02*
X64950Y-24949D01*
G54D33*
X64500Y-28400D02*
X64950Y-27950D01*
X64950Y-26350D02*
X64950Y-27950D01*
G54D35*
X64950Y-24949D02*
X65450Y-24449D01*
G54D33*
X65450Y-25449D02*
X65450Y-28400D01*
X79200Y-23900D02*
X79200Y-24400D01*
X77400Y-37500D02*
X76200Y-38700D01*
X77400Y-33500D02*
X77400Y-37500D01*
X77100Y-33200D02*
X77400Y-33500D01*
X77100Y-25050D02*
X77100Y-33200D01*
X77300Y-24850D02*
X77100Y-25050D01*
X78750Y-24850D02*
X77300Y-24850D01*
X79200Y-24400D02*
X78750Y-24850D01*
X79200Y-23750D02*
X79200Y-23900D01*
G54D35*
X78950Y-22350D02*
X78350Y-22350D01*
X79200Y-22600D02*
X79200Y-23750D01*
X78950Y-22350D02*
X79200Y-22600D01*
G54D33*
X69050Y-37500D02*
X69050Y-36900D01*
X69050Y-36900D02*
X69050Y-36050D01*
X75050Y-41150D02*
X75050Y-39350D01*
X73050Y-41150D02*
X73050Y-39350D01*
X70050Y-41150D02*
X70050Y-39350D01*
X74500Y-34450D02*
X75100Y-34450D01*
X71050Y-36800D02*
X71550Y-36800D01*
X71950Y-36400D02*
X71550Y-36800D01*
X71950Y-35500D02*
X71950Y-34850D01*
X75100Y-25000D02*
X74850Y-25000D01*
X72350Y-34450D02*
X74500Y-34450D01*
X71950Y-34850D02*
X72350Y-34450D01*
X71950Y-35500D02*
X71950Y-36400D01*
X75100Y-34450D02*
X75500Y-34050D01*
X75500Y-34050D02*
X75500Y-25400D01*
X75500Y-25400D02*
X75100Y-25000D01*
G54D35*
X73800Y-22850D02*
X74650Y-22850D01*
G54D33*
X71050Y-36050D02*
X71050Y-36800D01*
X71050Y-36800D02*
X71050Y-37500D01*
X71050Y-38750D02*
X71050Y-38100D01*
X69050Y-38750D02*
X69050Y-38100D01*
X75050Y-38750D02*
X75050Y-38100D01*
X73050Y-38750D02*
X73050Y-38100D01*
G54D32*
X78500Y-37600D02*
X78500Y-35900D01*
X78000Y-32500D02*
X78000Y-32400D01*
X78300Y-32800D02*
X78000Y-32500D01*
X78300Y-35700D02*
X78300Y-32800D01*
X78500Y-35900D02*
X78300Y-35700D01*
G54D33*
X80050Y-24450D02*
X80050Y-25000D01*
X78000Y-32400D02*
X78000Y-32400D01*
X78000Y-25800D02*
X78000Y-32400D01*
X78050Y-25750D02*
X78000Y-25800D01*
X79300Y-25750D02*
X78050Y-25750D01*
X80050Y-25000D02*
X79300Y-25750D01*
X80050Y-23800D02*
X80050Y-24450D01*
G54D35*
X79400Y-21350D02*
X78350Y-21350D01*
X80050Y-22000D02*
X80050Y-23800D01*
X79400Y-21350D02*
X80050Y-22000D01*
G54D33*
X74050Y-36050D02*
X74050Y-36800D01*
X74050Y-36800D02*
X74050Y-37500D01*
X55150Y-11650D02*
X55100Y-11600D01*
X55250Y-28850D02*
X55150Y-28850D01*
X56150Y-29750D02*
X55250Y-28850D01*
X56150Y-29750D02*
X56150Y-32950D01*
X55150Y-28850D02*
X54900Y-28600D01*
X57150Y-11650D02*
X55150Y-11650D01*
G54D32*
X57150Y-11650D02*
X57150Y-11700D01*
G54D33*
X62450Y-11350D02*
X62150Y-11650D01*
X62150Y-11650D02*
X57150Y-11650D01*
X62450Y-10800D02*
X62450Y-11350D01*
G54D32*
X57150Y-11700D02*
X57150Y-11650D01*
G54D36*
X55700Y-34870D02*
X55700Y-33750D01*
X55700Y-33750D02*
X55600Y-33650D01*
G54D35*
X55750Y-32950D02*
X56150Y-32950D01*
X55600Y-33100D02*
X55600Y-33650D01*
X55750Y-32950D02*
X55600Y-33100D01*
G54D33*
X49050Y-10700D02*
X48000Y-10700D01*
X61750Y-8400D02*
X62450Y-9100D01*
G54D35*
X48200Y-8400D02*
X61750Y-8400D01*
G54D33*
X48000Y-8600D02*
X48200Y-8400D01*
X62450Y-9100D02*
X62450Y-9800D01*
X54800Y-29150D02*
X54300Y-28650D01*
X54300Y-28650D02*
X54000Y-28650D01*
X54800Y-32950D02*
X54800Y-32500D01*
X55700Y-29950D02*
X54900Y-29150D01*
X55700Y-31600D02*
X55700Y-29950D01*
X54800Y-32500D02*
X55700Y-31600D01*
X54900Y-29150D02*
X54800Y-29150D01*
X48000Y-10700D02*
X47550Y-10250D01*
X47550Y-10250D02*
X47550Y-9050D01*
X47550Y-9050D02*
X48000Y-8600D01*
G54D35*
X55350Y-33850D02*
X55350Y-33100D01*
X55200Y-32950D02*
X54800Y-32950D01*
X55350Y-33100D02*
X55200Y-32950D01*
G54D36*
X55500Y-34870D02*
X55500Y-34000D01*
X55500Y-34000D02*
X55350Y-33850D01*
G54D33*
X52975Y-32525D02*
X53250Y-32250D01*
X54100Y-30800D02*
X54100Y-30500D01*
X53250Y-31650D02*
X54100Y-30800D01*
X53250Y-32250D02*
X53250Y-31650D01*
G54D32*
X53900Y-30200D02*
X52000Y-30200D01*
X54100Y-30400D02*
X53900Y-30200D01*
X54100Y-30500D02*
X54100Y-30400D01*
X51800Y-33700D02*
X52975Y-32525D01*
X50400Y-33700D02*
X51800Y-33700D01*
X48500Y-35600D02*
X50400Y-33700D01*
G54D35*
X49900Y-30700D02*
X50400Y-30700D01*
X50400Y-28700D02*
X49900Y-28700D01*
X50600Y-28900D02*
X50400Y-28700D01*
X50600Y-30500D02*
X50600Y-28900D01*
X50400Y-30700D02*
X50600Y-30500D01*
X49900Y-28200D02*
X50800Y-28200D01*
X51300Y-28700D02*
X52000Y-28700D01*
X50800Y-28200D02*
X51300Y-28700D01*
X52000Y-28700D02*
X52000Y-29200D01*
G54D33*
X44000Y-31900D02*
X44000Y-32500D01*
X44500Y-31400D02*
X44000Y-31900D01*
X47400Y-31400D02*
X44500Y-31400D01*
X47500Y-31300D02*
X47400Y-31400D01*
X46500Y-26500D02*
X52100Y-26500D01*
X52100Y-26500D02*
X52600Y-26000D01*
X51500Y-13900D02*
X48400Y-13900D01*
X47800Y-14500D02*
X46500Y-14500D01*
X48400Y-13900D02*
X47800Y-14500D01*
G54D35*
X47100Y-14500D02*
X46500Y-14500D01*
G54D33*
X47100Y-14500D02*
X46500Y-14500D01*
X44000Y-14500D02*
X44000Y-13300D01*
X44300Y-13000D02*
X47300Y-13000D01*
X44000Y-13300D02*
X44300Y-13000D01*
G54D32*
X49900Y-29200D02*
X48800Y-29200D01*
X48800Y-29200D02*
X48550Y-29450D01*
G54D33*
X48700Y-17200D02*
X48600Y-17100D01*
X49900Y-17200D02*
X48700Y-17200D01*
X44000Y-25700D02*
X44000Y-26500D01*
X44400Y-25300D02*
X44000Y-25700D01*
X47500Y-25300D02*
X44400Y-25300D01*
X46500Y-32500D02*
X52000Y-32500D01*
X52000Y-32500D02*
X52600Y-31900D01*
G54D35*
X50450Y-20550D02*
X50450Y-20500D01*
X50500Y-20500D02*
X50450Y-20550D01*
X51500Y-20500D02*
X50500Y-20500D01*
X52100Y-19900D02*
X51500Y-20500D01*
G54D33*
X46500Y-20500D02*
X50450Y-20500D01*
X44000Y-20500D02*
X44400Y-20500D01*
X47000Y-19700D02*
X47300Y-19400D01*
X45200Y-19700D02*
X47000Y-19700D01*
X44400Y-20500D02*
X45200Y-19700D01*
G54D35*
X49900Y-18700D02*
X50500Y-18700D01*
X50500Y-16700D02*
X49900Y-16700D01*
X50700Y-16900D02*
X50500Y-16700D01*
X50700Y-18500D02*
X50700Y-16900D01*
X50500Y-18700D02*
X50700Y-18500D01*
X52000Y-17200D02*
X52000Y-16700D01*
X52000Y-16700D02*
X51300Y-16700D01*
X50800Y-16200D02*
X49900Y-16200D01*
X51300Y-16700D02*
X50800Y-16200D01*
G54D33*
X46500Y-15500D02*
X47500Y-15500D01*
G54D34*
X37000Y-26375D02*
X38425Y-26375D01*
X42800Y-16500D02*
X44000Y-16500D01*
X41300Y-18000D02*
X42800Y-16500D01*
X41300Y-19900D02*
X41300Y-18000D01*
X41200Y-20000D02*
X41300Y-19900D01*
X39000Y-25800D02*
X39000Y-21400D01*
X38425Y-26375D02*
X39000Y-25800D01*
X44000Y-16500D02*
X45000Y-16500D01*
X45000Y-16500D02*
X46000Y-15500D01*
X46000Y-15500D02*
X46500Y-15500D01*
G54D33*
X46000Y-15500D02*
X46500Y-15500D01*
X45000Y-16500D02*
X46000Y-15500D01*
X47500Y-21500D02*
X46500Y-21500D01*
G54D34*
X44000Y-22500D02*
X41000Y-22500D01*
X39200Y-27500D02*
X38925Y-27775D01*
X38925Y-27775D02*
X37000Y-27775D01*
X44000Y-22500D02*
X44800Y-22500D01*
X44800Y-22500D02*
X45800Y-21500D01*
X45800Y-21500D02*
X46500Y-21500D01*
G54D33*
X47600Y-27500D02*
X46500Y-27500D01*
G54D34*
X37000Y-29150D02*
X39150Y-29150D01*
X42000Y-28500D02*
X44000Y-28500D01*
X41400Y-29100D02*
X42000Y-28500D01*
X39150Y-29150D02*
X39200Y-29100D01*
X44000Y-28500D02*
X44800Y-28500D01*
X44800Y-28500D02*
X45800Y-27500D01*
X45800Y-27500D02*
X46500Y-27500D01*
G54D33*
X47600Y-33500D02*
X46500Y-33500D01*
G54D34*
X44000Y-34500D02*
X42600Y-34500D01*
X39175Y-30525D02*
X37000Y-30525D01*
X39200Y-30500D02*
X39175Y-30525D01*
X44000Y-34500D02*
X44900Y-34500D01*
X45900Y-33500D02*
X46500Y-33500D01*
X44900Y-34500D02*
X45900Y-33500D01*
G54D32*
X52000Y-18200D02*
X52400Y-18200D01*
X52400Y-18200D02*
X53050Y-18850D01*
X53050Y-20750D02*
X52300Y-21500D01*
X53050Y-18850D02*
X53050Y-20750D01*
G54D35*
X50300Y-23500D02*
X48300Y-23500D01*
X52300Y-21500D02*
X50300Y-23500D01*
G54D33*
X54350Y-38000D02*
X53050Y-38000D01*
G54D32*
X49100Y-38100D02*
X49100Y-37400D01*
G54D33*
X56050Y-38000D02*
X57250Y-38000D01*
G54D37*
X55100Y-36010D02*
X54640Y-36010D01*
X54640Y-36010D02*
X54350Y-36300D01*
G54D36*
X55300Y-36010D02*
X55100Y-36010D01*
G54D33*
X70050Y-38750D02*
X70050Y-38250D01*
X70050Y-38250D02*
X70050Y-38100D01*
X79600Y-24550D02*
X79600Y-24750D01*
X77800Y-33100D02*
X77800Y-38100D01*
X77550Y-32850D02*
X77800Y-33100D01*
X77550Y-25400D02*
X77550Y-32850D01*
X77650Y-25300D02*
X77550Y-25400D01*
X79050Y-25300D02*
X77650Y-25300D01*
X79600Y-24750D02*
X79050Y-25300D01*
X79600Y-24550D02*
X79600Y-23800D01*
G54D35*
X79600Y-22250D02*
X79600Y-23800D01*
X79200Y-21850D02*
X79600Y-22250D01*
X79200Y-21850D02*
X78350Y-21850D01*
G54D33*
X70050Y-37500D02*
X70050Y-36800D01*
X70050Y-36800D02*
X70050Y-36050D01*
X69050Y-41150D02*
X69050Y-39350D01*
X71050Y-41150D02*
X71050Y-39350D01*
X74050Y-41150D02*
X74050Y-39350D01*
X78500Y-24400D02*
X78800Y-24100D01*
X76800Y-24400D02*
X78500Y-24400D01*
X76650Y-24550D02*
X76800Y-24400D01*
X76650Y-33750D02*
X76650Y-24550D01*
X78800Y-24100D02*
X78800Y-23750D01*
G54D35*
X78350Y-22850D02*
X78600Y-22850D01*
X78800Y-23050D02*
X78800Y-23750D01*
X78600Y-22850D02*
X78800Y-23050D01*
G54D33*
X73050Y-36050D02*
X73050Y-36850D01*
X73050Y-36850D02*
X73050Y-37500D01*
G54D32*
X75950Y-24750D02*
X75950Y-25300D01*
G54D33*
X76700Y-36850D02*
X75050Y-36850D01*
X75950Y-25300D02*
X75950Y-33900D01*
X75950Y-33900D02*
X77000Y-34950D01*
X77000Y-34950D02*
X77000Y-36550D01*
X77000Y-36550D02*
X76700Y-36850D01*
G54D32*
X75900Y-24700D02*
X75950Y-24750D01*
G54D35*
X73300Y-21850D02*
X72900Y-22250D01*
X72900Y-22850D02*
X72900Y-22250D01*
X74650Y-21850D02*
X73300Y-21850D01*
G54D33*
X75050Y-36050D02*
X75050Y-36850D01*
X75050Y-36850D02*
X75050Y-37500D01*
X74050Y-38750D02*
X74050Y-38100D01*
G54D32*
X50000Y-37400D02*
X50000Y-38100D01*
G54D33*
X66450Y-25449D02*
X66450Y-27400D01*
X66450Y-27400D02*
X67400Y-28350D01*
G54D32*
X50900Y-38100D02*
X50900Y-37400D01*
G54D33*
X62950Y-23250D02*
X62950Y-22500D01*
X62950Y-22500D02*
X61950Y-21500D01*
G54D32*
X62550Y-13100D02*
X62250Y-13100D01*
X62250Y-13100D02*
X60800Y-14550D01*
G54D35*
X62700Y-13100D02*
X62550Y-13100D01*
X63800Y-13475D02*
X63375Y-13475D01*
X63000Y-13100D02*
X62700Y-13100D01*
X63375Y-13475D02*
X63000Y-13100D01*
X62451Y-25449D02*
X62450Y-25449D01*
X62950Y-23250D02*
X62950Y-24950D01*
X62950Y-24950D02*
X62451Y-25449D01*
G54D33*
X67450Y-10800D02*
X69450Y-10800D01*
X69450Y-10800D02*
X70150Y-11500D01*
G54D32*
X64275Y-14725D02*
X63800Y-14725D01*
X64500Y-14950D02*
X64275Y-14725D01*
X64500Y-16500D02*
X64500Y-14950D01*
X64350Y-16650D02*
X64500Y-16500D01*
X51800Y-37400D02*
X51800Y-38100D01*
X60000Y-15100D02*
X61050Y-15100D01*
X61900Y-13900D02*
X62250Y-13550D01*
X61900Y-14250D02*
X61900Y-13900D01*
X61050Y-15100D02*
X61900Y-14250D01*
X57200Y-15100D02*
X60000Y-15100D01*
X62250Y-13550D02*
X62700Y-13550D01*
G54D35*
X63800Y-13725D02*
X63175Y-13725D01*
X63000Y-13550D02*
X62700Y-13550D01*
X63175Y-13725D02*
X63000Y-13550D01*
M02*
