G04 (created by PCBNEW (2013-07-07 BZR 4022)-stable) date ven. 16 mai 2014 20:48:24 CEST*
%MOIN*%
G04 Gerber Fmt 3.4, Leading zero omitted, Abs format*
%FSLAX34Y34*%
G01*
G70*
G90*
G04 APERTURE LIST*
%ADD10C,0.00590551*%
%ADD11C,0.015*%
%ADD12C,0.012*%
%ADD13C,0.005*%
%ADD14C,0.0047*%
%ADD15C,0.006*%
%ADD16C,0.0045*%
%ADD17C,0.0107*%
%ADD18C,0.008*%
G04 APERTURE END LIST*
G54D10*
G54D11*
X35500Y-31500D02*
X35500Y-33000D01*
X36000Y-31500D02*
X36000Y-33000D01*
X38500Y-31500D02*
X38500Y-33000D01*
X36000Y-30000D02*
X36000Y-31500D01*
X38500Y-30000D02*
X38500Y-31500D01*
X38500Y-33000D02*
X35500Y-33000D01*
X35500Y-31500D02*
X35500Y-30000D01*
X36000Y-24000D02*
X36000Y-30000D01*
X38500Y-24000D02*
X38500Y-28000D01*
X35500Y-30000D02*
X35500Y-24000D01*
X35500Y-24000D02*
X38500Y-24000D01*
X38500Y-28000D02*
X38500Y-30000D01*
X36000Y-30000D02*
X36000Y-28000D01*
G54D12*
X36000Y-28000D02*
X36000Y-24000D01*
X38500Y-28000D02*
X38500Y-24000D01*
X38500Y-24000D02*
X35500Y-24000D01*
X35500Y-24000D02*
X35500Y-28000D01*
G54D13*
X51050Y-14800D02*
X51050Y-14750D01*
X51050Y-14750D02*
X48950Y-14750D01*
X48950Y-16250D02*
X51050Y-16250D01*
X51050Y-16250D02*
X51050Y-14800D01*
X51050Y-15700D02*
X50850Y-15700D01*
X50850Y-15700D02*
X50850Y-15300D01*
X50850Y-15300D02*
X51050Y-15300D01*
X48950Y-16250D02*
X48950Y-14750D01*
X51050Y-32800D02*
X51050Y-32750D01*
X51050Y-32750D02*
X48950Y-32750D01*
X48950Y-34250D02*
X51050Y-34250D01*
X51050Y-34250D02*
X51050Y-32800D01*
X51050Y-33700D02*
X50850Y-33700D01*
X50850Y-33700D02*
X50850Y-33300D01*
X50850Y-33300D02*
X51050Y-33300D01*
X48950Y-34250D02*
X48950Y-32750D01*
X51050Y-26800D02*
X51050Y-26750D01*
X51050Y-26750D02*
X48950Y-26750D01*
X48950Y-28250D02*
X51050Y-28250D01*
X51050Y-28250D02*
X51050Y-26800D01*
X51050Y-27700D02*
X50850Y-27700D01*
X50850Y-27700D02*
X50850Y-27300D01*
X50850Y-27300D02*
X51050Y-27300D01*
X48950Y-28250D02*
X48950Y-26750D01*
X51050Y-20800D02*
X51050Y-20750D01*
X51050Y-20750D02*
X48950Y-20750D01*
X48950Y-22250D02*
X51050Y-22250D01*
X51050Y-22250D02*
X51050Y-20800D01*
X51050Y-21700D02*
X50850Y-21700D01*
X50850Y-21700D02*
X50850Y-21300D01*
X50850Y-21300D02*
X51050Y-21300D01*
X48950Y-22250D02*
X48950Y-20750D01*
X75870Y-29600D02*
G75*
G03X75870Y-29600I-70J0D01*
G74*
G01*
X75850Y-31500D02*
X75850Y-32150D01*
X75850Y-32150D02*
X77450Y-32150D01*
X77450Y-32150D02*
X77450Y-31500D01*
X77450Y-30300D02*
X77450Y-29650D01*
X77450Y-29650D02*
X75850Y-29650D01*
X75850Y-29650D02*
X75850Y-30300D01*
X53050Y-20400D02*
X52150Y-20400D01*
X52150Y-20400D02*
X52150Y-21050D01*
X53050Y-21750D02*
X53050Y-22400D01*
X53050Y-22400D02*
X52150Y-22400D01*
X52150Y-22400D02*
X52150Y-21750D01*
X53050Y-21050D02*
X53050Y-20400D01*
X48500Y-18850D02*
X48500Y-19750D01*
X48500Y-19750D02*
X49150Y-19750D01*
X49850Y-18850D02*
X50500Y-18850D01*
X50500Y-18850D02*
X50500Y-19750D01*
X50500Y-19750D02*
X49850Y-19750D01*
X49150Y-18850D02*
X48500Y-18850D01*
X53050Y-32500D02*
X52150Y-32500D01*
X52150Y-32500D02*
X52150Y-33150D01*
X53050Y-33850D02*
X53050Y-34500D01*
X53050Y-34500D02*
X52150Y-34500D01*
X52150Y-34500D02*
X52150Y-33850D01*
X53050Y-33150D02*
X53050Y-32500D01*
X48500Y-30850D02*
X48500Y-31750D01*
X48500Y-31750D02*
X49150Y-31750D01*
X49850Y-30850D02*
X50500Y-30850D01*
X50500Y-30850D02*
X50500Y-31750D01*
X50500Y-31750D02*
X49850Y-31750D01*
X49150Y-30850D02*
X48500Y-30850D01*
X53050Y-26500D02*
X52150Y-26500D01*
X52150Y-26500D02*
X52150Y-27150D01*
X53050Y-27850D02*
X53050Y-28500D01*
X53050Y-28500D02*
X52150Y-28500D01*
X52150Y-28500D02*
X52150Y-27850D01*
X53050Y-27150D02*
X53050Y-26500D01*
X48500Y-24850D02*
X48500Y-25750D01*
X48500Y-25750D02*
X49150Y-25750D01*
X49850Y-24850D02*
X50500Y-24850D01*
X50500Y-24850D02*
X50500Y-25750D01*
X50500Y-25750D02*
X49850Y-25750D01*
X49150Y-24850D02*
X48500Y-24850D01*
X53050Y-14700D02*
X52150Y-14700D01*
X52150Y-14700D02*
X52150Y-15350D01*
X53050Y-16050D02*
X53050Y-16700D01*
X53050Y-16700D02*
X52150Y-16700D01*
X52150Y-16700D02*
X52150Y-16050D01*
X53050Y-15350D02*
X53050Y-14700D01*
X48000Y-12550D02*
X48000Y-13450D01*
X48000Y-13450D02*
X48650Y-13450D01*
X49350Y-12550D02*
X50000Y-12550D01*
X50000Y-12550D02*
X50000Y-13450D01*
X50000Y-13450D02*
X49350Y-13450D01*
X48650Y-12550D02*
X48000Y-12550D01*
X48250Y-36800D02*
X47350Y-36800D01*
X47350Y-36800D02*
X47350Y-37450D01*
X48250Y-38150D02*
X48250Y-38800D01*
X48250Y-38800D02*
X47350Y-38800D01*
X47350Y-38800D02*
X47350Y-38150D01*
X48250Y-37450D02*
X48250Y-36800D01*
X41850Y-11700D02*
X42750Y-11700D01*
X42750Y-11700D02*
X42750Y-11050D01*
X41850Y-10350D02*
X41850Y-9700D01*
X41850Y-9700D02*
X42750Y-9700D01*
X42750Y-9700D02*
X42750Y-10350D01*
X41850Y-11050D02*
X41850Y-11700D01*
X46950Y-36800D02*
X46050Y-36800D01*
X46050Y-36800D02*
X46050Y-37450D01*
X46950Y-38150D02*
X46950Y-38800D01*
X46950Y-38800D02*
X46050Y-38800D01*
X46050Y-38800D02*
X46050Y-38150D01*
X46950Y-37450D02*
X46950Y-36800D01*
X44350Y-36800D02*
X43450Y-36800D01*
X43450Y-36800D02*
X43450Y-37450D01*
X44350Y-38150D02*
X44350Y-38800D01*
X44350Y-38800D02*
X43450Y-38800D01*
X43450Y-38800D02*
X43450Y-38150D01*
X44350Y-37450D02*
X44350Y-36800D01*
X45650Y-36800D02*
X44750Y-36800D01*
X44750Y-36800D02*
X44750Y-37450D01*
X45650Y-38150D02*
X45650Y-38800D01*
X45650Y-38800D02*
X44750Y-38800D01*
X44750Y-38800D02*
X44750Y-38150D01*
X45650Y-37450D02*
X45650Y-36800D01*
X44350Y-11700D02*
X45250Y-11700D01*
X45250Y-11700D02*
X45250Y-11050D01*
X44350Y-10350D02*
X44350Y-9700D01*
X44350Y-9700D02*
X45250Y-9700D01*
X45250Y-9700D02*
X45250Y-10350D01*
X44350Y-11050D02*
X44350Y-11700D01*
X43050Y-11700D02*
X43950Y-11700D01*
X43950Y-11700D02*
X43950Y-11050D01*
X43050Y-10350D02*
X43050Y-9700D01*
X43050Y-9700D02*
X43950Y-9700D01*
X43950Y-9700D02*
X43950Y-10350D01*
X43050Y-11050D02*
X43050Y-11700D01*
X45650Y-11700D02*
X46550Y-11700D01*
X46550Y-11700D02*
X46550Y-11050D01*
X45650Y-10350D02*
X45650Y-9700D01*
X45650Y-9700D02*
X46550Y-9700D01*
X46550Y-9700D02*
X46550Y-10350D01*
X45650Y-11050D02*
X45650Y-11700D01*
X49403Y-17325D02*
X49125Y-17325D01*
X49125Y-17325D02*
X49125Y-17875D01*
X49125Y-17875D02*
X49403Y-17875D01*
X50075Y-17325D02*
X49797Y-17325D01*
X50075Y-17325D02*
X50075Y-17875D01*
X50075Y-17875D02*
X49797Y-17875D01*
X64775Y-29303D02*
X64775Y-29025D01*
X64775Y-29025D02*
X64225Y-29025D01*
X64225Y-29025D02*
X64225Y-29303D01*
X64775Y-29975D02*
X64775Y-29697D01*
X64775Y-29975D02*
X64225Y-29975D01*
X64225Y-29975D02*
X64225Y-29697D01*
X65725Y-29303D02*
X65725Y-29025D01*
X65725Y-29025D02*
X65175Y-29025D01*
X65175Y-29025D02*
X65175Y-29303D01*
X65725Y-29975D02*
X65725Y-29697D01*
X65725Y-29975D02*
X65175Y-29975D01*
X65175Y-29975D02*
X65175Y-29697D01*
X66725Y-29303D02*
X66725Y-29025D01*
X66725Y-29025D02*
X66175Y-29025D01*
X66175Y-29025D02*
X66175Y-29303D01*
X66725Y-29975D02*
X66725Y-29697D01*
X66725Y-29975D02*
X66175Y-29975D01*
X66175Y-29975D02*
X66175Y-29697D01*
X67675Y-29303D02*
X67675Y-29025D01*
X67675Y-29025D02*
X67125Y-29025D01*
X67125Y-29025D02*
X67125Y-29303D01*
X67675Y-29975D02*
X67675Y-29697D01*
X67675Y-29975D02*
X67125Y-29975D01*
X67125Y-29975D02*
X67125Y-29697D01*
X64775Y-27303D02*
X64775Y-27025D01*
X64775Y-27025D02*
X64225Y-27025D01*
X64225Y-27025D02*
X64225Y-27303D01*
X64775Y-27975D02*
X64775Y-27697D01*
X64775Y-27975D02*
X64225Y-27975D01*
X64225Y-27975D02*
X64225Y-27697D01*
X65725Y-27303D02*
X65725Y-27025D01*
X65725Y-27025D02*
X65175Y-27025D01*
X65175Y-27025D02*
X65175Y-27303D01*
X65725Y-27975D02*
X65725Y-27697D01*
X65725Y-27975D02*
X65175Y-27975D01*
X65175Y-27975D02*
X65175Y-27697D01*
X66725Y-27303D02*
X66725Y-27025D01*
X66725Y-27025D02*
X66175Y-27025D01*
X66175Y-27025D02*
X66175Y-27303D01*
X66725Y-27975D02*
X66725Y-27697D01*
X66725Y-27975D02*
X66175Y-27975D01*
X66175Y-27975D02*
X66175Y-27697D01*
X67675Y-27303D02*
X67675Y-27025D01*
X67675Y-27025D02*
X67125Y-27025D01*
X67125Y-27025D02*
X67125Y-27303D01*
X67675Y-27975D02*
X67675Y-27697D01*
X67675Y-27975D02*
X67125Y-27975D01*
X67125Y-27975D02*
X67125Y-27697D01*
X48803Y-11725D02*
X48525Y-11725D01*
X48525Y-11725D02*
X48525Y-12275D01*
X48525Y-12275D02*
X48803Y-12275D01*
X49475Y-11725D02*
X49197Y-11725D01*
X49475Y-11725D02*
X49475Y-12275D01*
X49475Y-12275D02*
X49197Y-12275D01*
X49303Y-29225D02*
X49025Y-29225D01*
X49025Y-29225D02*
X49025Y-29775D01*
X49025Y-29775D02*
X49303Y-29775D01*
X49975Y-29225D02*
X49697Y-29225D01*
X49975Y-29225D02*
X49975Y-29775D01*
X49975Y-29775D02*
X49697Y-29775D01*
X49303Y-24125D02*
X49025Y-24125D01*
X49025Y-24125D02*
X49025Y-24675D01*
X49025Y-24675D02*
X49303Y-24675D01*
X49975Y-24125D02*
X49697Y-24125D01*
X49975Y-24125D02*
X49975Y-24675D01*
X49975Y-24675D02*
X49697Y-24675D01*
X53775Y-27303D02*
X53775Y-27025D01*
X53775Y-27025D02*
X53225Y-27025D01*
X53225Y-27025D02*
X53225Y-27303D01*
X53775Y-27975D02*
X53775Y-27697D01*
X53775Y-27975D02*
X53225Y-27975D01*
X53225Y-27975D02*
X53225Y-27697D01*
X53775Y-33303D02*
X53775Y-33025D01*
X53775Y-33025D02*
X53225Y-33025D01*
X53225Y-33025D02*
X53225Y-33303D01*
X53775Y-33975D02*
X53775Y-33697D01*
X53775Y-33975D02*
X53225Y-33975D01*
X53225Y-33975D02*
X53225Y-33697D01*
X49303Y-30125D02*
X49025Y-30125D01*
X49025Y-30125D02*
X49025Y-30675D01*
X49025Y-30675D02*
X49303Y-30675D01*
X49975Y-30125D02*
X49697Y-30125D01*
X49975Y-30125D02*
X49975Y-30675D01*
X49975Y-30675D02*
X49697Y-30675D01*
X49303Y-35325D02*
X49025Y-35325D01*
X49025Y-35325D02*
X49025Y-35875D01*
X49025Y-35875D02*
X49303Y-35875D01*
X49975Y-35325D02*
X49697Y-35325D01*
X49975Y-35325D02*
X49975Y-35875D01*
X49975Y-35875D02*
X49697Y-35875D01*
X49403Y-23325D02*
X49125Y-23325D01*
X49125Y-23325D02*
X49125Y-23875D01*
X49125Y-23875D02*
X49403Y-23875D01*
X50075Y-23325D02*
X49797Y-23325D01*
X50075Y-23325D02*
X50075Y-23875D01*
X50075Y-23875D02*
X49797Y-23875D01*
X53775Y-15503D02*
X53775Y-15225D01*
X53775Y-15225D02*
X53225Y-15225D01*
X53225Y-15225D02*
X53225Y-15503D01*
X53775Y-16175D02*
X53775Y-15897D01*
X53775Y-16175D02*
X53225Y-16175D01*
X53225Y-16175D02*
X53225Y-15897D01*
X53775Y-21203D02*
X53775Y-20925D01*
X53775Y-20925D02*
X53225Y-20925D01*
X53225Y-20925D02*
X53225Y-21203D01*
X53775Y-21875D02*
X53775Y-21597D01*
X53775Y-21875D02*
X53225Y-21875D01*
X53225Y-21875D02*
X53225Y-21597D01*
X49403Y-18125D02*
X49125Y-18125D01*
X49125Y-18125D02*
X49125Y-18675D01*
X49125Y-18675D02*
X49403Y-18675D01*
X50075Y-18125D02*
X49797Y-18125D01*
X50075Y-18125D02*
X50075Y-18675D01*
X50075Y-18675D02*
X49797Y-18675D01*
G54D14*
X63447Y-21056D02*
X63722Y-21056D01*
X63053Y-21056D02*
X62778Y-21056D01*
X63447Y-20544D02*
X63722Y-20544D01*
X62778Y-20544D02*
X63053Y-20544D01*
X63722Y-20550D02*
X63722Y-21050D01*
X62778Y-21050D02*
X62778Y-20550D01*
X63447Y-15456D02*
X63722Y-15456D01*
X63053Y-15456D02*
X62778Y-15456D01*
X63447Y-14944D02*
X63722Y-14944D01*
X62778Y-14944D02*
X63053Y-14944D01*
X63722Y-14950D02*
X63722Y-15450D01*
X62778Y-15450D02*
X62778Y-14950D01*
X51344Y-27697D02*
X51344Y-27972D01*
X51344Y-27303D02*
X51344Y-27028D01*
X51856Y-27697D02*
X51856Y-27972D01*
X51856Y-27028D02*
X51856Y-27303D01*
X51850Y-27972D02*
X51350Y-27972D01*
X51350Y-27028D02*
X51850Y-27028D01*
X51344Y-15697D02*
X51344Y-15972D01*
X51344Y-15303D02*
X51344Y-15028D01*
X51856Y-15697D02*
X51856Y-15972D01*
X51856Y-15028D02*
X51856Y-15303D01*
X51850Y-15972D02*
X51350Y-15972D01*
X51350Y-15028D02*
X51850Y-15028D01*
X48044Y-20997D02*
X48044Y-21272D01*
X48044Y-20603D02*
X48044Y-20328D01*
X48556Y-20997D02*
X48556Y-21272D01*
X48556Y-20328D02*
X48556Y-20603D01*
X48550Y-21272D02*
X48050Y-21272D01*
X48050Y-20328D02*
X48550Y-20328D01*
X48044Y-26997D02*
X48044Y-27272D01*
X48044Y-26603D02*
X48044Y-26328D01*
X48556Y-26997D02*
X48556Y-27272D01*
X48556Y-26328D02*
X48556Y-26603D01*
X48550Y-27272D02*
X48050Y-27272D01*
X48050Y-26328D02*
X48550Y-26328D01*
X65703Y-14944D02*
X65428Y-14944D01*
X66097Y-14944D02*
X66372Y-14944D01*
X65703Y-15456D02*
X65428Y-15456D01*
X66372Y-15456D02*
X66097Y-15456D01*
X65428Y-15450D02*
X65428Y-14950D01*
X66372Y-14950D02*
X66372Y-15450D01*
X66003Y-20844D02*
X65728Y-20844D01*
X66397Y-20844D02*
X66672Y-20844D01*
X66003Y-21356D02*
X65728Y-21356D01*
X66672Y-21356D02*
X66397Y-21356D01*
X65728Y-21350D02*
X65728Y-20850D01*
X66672Y-20850D02*
X66672Y-21350D01*
X48044Y-14897D02*
X48044Y-15172D01*
X48044Y-14503D02*
X48044Y-14228D01*
X48556Y-14897D02*
X48556Y-15172D01*
X48556Y-14228D02*
X48556Y-14503D01*
X48550Y-15172D02*
X48050Y-15172D01*
X48050Y-14228D02*
X48550Y-14228D01*
X48044Y-32997D02*
X48044Y-33272D01*
X48044Y-32603D02*
X48044Y-32328D01*
X48556Y-32997D02*
X48556Y-33272D01*
X48556Y-32328D02*
X48556Y-32603D01*
X48550Y-33272D02*
X48050Y-33272D01*
X48050Y-32328D02*
X48550Y-32328D01*
X51344Y-21697D02*
X51344Y-21972D01*
X51344Y-21303D02*
X51344Y-21028D01*
X51856Y-21697D02*
X51856Y-21972D01*
X51856Y-21028D02*
X51856Y-21303D01*
X51850Y-21972D02*
X51350Y-21972D01*
X51350Y-21028D02*
X51850Y-21028D01*
X51344Y-33697D02*
X51344Y-33972D01*
X51344Y-33303D02*
X51344Y-33028D01*
X51856Y-33697D02*
X51856Y-33972D01*
X51856Y-33028D02*
X51856Y-33303D01*
X51850Y-33972D02*
X51350Y-33972D01*
X51350Y-33028D02*
X51850Y-33028D01*
G54D11*
X74550Y-34700D02*
X74550Y-34900D01*
X74950Y-34950D02*
X72950Y-34950D01*
X74950Y-34950D02*
X74950Y-32450D01*
X74950Y-32450D02*
X73200Y-32450D01*
X73200Y-32450D02*
X72950Y-32450D01*
X73450Y-34700D02*
X74550Y-34700D01*
X73450Y-34700D02*
X73450Y-34950D01*
X72950Y-34950D02*
X72950Y-32450D01*
G54D12*
X58500Y-23199D02*
X69400Y-23199D01*
X69400Y-26599D02*
X58550Y-26599D01*
X64950Y-23249D02*
X64950Y-23549D01*
X64950Y-23549D02*
X68950Y-23549D01*
X68950Y-23549D02*
X68950Y-26349D01*
X68950Y-26349D02*
X58950Y-26349D01*
X58950Y-26349D02*
X58950Y-23549D01*
X58950Y-23549D02*
X62950Y-23549D01*
X62950Y-23549D02*
X62950Y-23249D01*
X69350Y-23199D02*
X69350Y-26599D01*
X58500Y-26649D02*
X58500Y-23249D01*
X59350Y-24750D02*
X59850Y-24450D01*
X59350Y-24150D02*
X59350Y-24750D01*
X59850Y-24450D02*
X59350Y-24150D01*
X69400Y-8600D02*
X69400Y-12000D01*
X58550Y-12050D02*
X58550Y-8650D01*
X64950Y-11700D02*
X64950Y-12000D01*
X68950Y-11700D02*
X64950Y-11700D01*
X68950Y-8900D02*
X68950Y-11700D01*
X58950Y-8900D02*
X68950Y-8900D01*
X58950Y-11700D02*
X58950Y-8900D01*
X62950Y-11700D02*
X58950Y-11700D01*
X62950Y-12000D02*
X62950Y-11700D01*
X58500Y-8650D02*
X69350Y-8650D01*
X69400Y-12000D02*
X58500Y-12000D01*
X68150Y-23050D02*
X68150Y-12150D01*
X71500Y-12150D02*
X71500Y-23000D01*
X68150Y-16600D02*
X68450Y-16600D01*
X68450Y-16600D02*
X68450Y-12600D01*
X68450Y-12600D02*
X71250Y-12600D01*
X71250Y-12600D02*
X71250Y-22600D01*
X71250Y-22600D02*
X68450Y-22600D01*
X68450Y-22600D02*
X68450Y-18600D01*
X68450Y-18600D02*
X68150Y-18600D01*
X68100Y-12200D02*
X71500Y-12200D01*
X71550Y-23050D02*
X68150Y-23050D01*
X55000Y-23050D02*
X58400Y-23050D01*
X58450Y-12200D02*
X55050Y-12200D01*
X58100Y-18600D02*
X58400Y-18600D01*
X58100Y-22600D02*
X58100Y-18600D01*
X55300Y-22600D02*
X58100Y-22600D01*
X55300Y-12600D02*
X55300Y-22600D01*
X58100Y-12600D02*
X55300Y-12600D01*
X58100Y-16600D02*
X58100Y-12600D01*
X58400Y-16600D02*
X58100Y-16600D01*
X55050Y-12150D02*
X55050Y-23000D01*
X58400Y-23050D02*
X58400Y-12150D01*
G54D11*
X51500Y-39900D02*
X50250Y-39900D01*
X51000Y-42150D02*
X51000Y-42400D01*
X46500Y-42400D02*
X51500Y-42400D01*
X51500Y-42400D02*
X51500Y-39900D01*
X51000Y-42150D02*
X50000Y-42150D01*
X47000Y-42400D02*
X47000Y-42150D01*
X47000Y-42150D02*
X50000Y-42150D01*
X50500Y-39900D02*
X46500Y-39900D01*
X46500Y-39900D02*
X46500Y-42400D01*
X65050Y-42400D02*
X65050Y-42150D01*
X65050Y-42150D02*
X68050Y-42150D01*
X68050Y-42150D02*
X68050Y-42400D01*
X68550Y-39900D02*
X64550Y-39900D01*
X64550Y-39900D02*
X64550Y-42400D01*
X64550Y-42400D02*
X68550Y-42400D01*
X68550Y-42400D02*
X68550Y-39900D01*
X57050Y-42400D02*
X57050Y-42150D01*
X57050Y-42150D02*
X60050Y-42150D01*
X60050Y-42150D02*
X60050Y-42400D01*
X60550Y-39900D02*
X56550Y-39900D01*
X56550Y-39900D02*
X56550Y-42400D01*
X56550Y-42400D02*
X60550Y-42400D01*
X60550Y-42400D02*
X60550Y-39900D01*
X61050Y-42400D02*
X61050Y-42150D01*
X61050Y-42150D02*
X64050Y-42150D01*
X64050Y-42150D02*
X64050Y-42400D01*
X64550Y-39900D02*
X60550Y-39900D01*
X60550Y-39900D02*
X60550Y-42400D01*
X60550Y-42400D02*
X64550Y-42400D01*
X64550Y-42400D02*
X64550Y-39900D01*
X53050Y-42400D02*
X53050Y-42150D01*
X53050Y-42150D02*
X56050Y-42150D01*
X56050Y-42150D02*
X56050Y-42400D01*
X56550Y-39900D02*
X52550Y-39900D01*
X52550Y-39900D02*
X52550Y-42400D01*
X52550Y-42400D02*
X56550Y-42400D01*
X56550Y-42400D02*
X56550Y-39900D01*
X69050Y-42400D02*
X69050Y-42150D01*
X69050Y-42150D02*
X72050Y-42150D01*
X72050Y-42150D02*
X72050Y-42400D01*
X72550Y-39900D02*
X68550Y-39900D01*
X68550Y-39900D02*
X68550Y-42400D01*
X68550Y-42400D02*
X72550Y-42400D01*
X72550Y-42400D02*
X72550Y-39900D01*
X73050Y-42400D02*
X73050Y-42150D01*
X73050Y-42150D02*
X76050Y-42150D01*
X76050Y-42150D02*
X76050Y-42400D01*
X76550Y-39900D02*
X72550Y-39900D01*
X72550Y-39900D02*
X72550Y-42400D01*
X72550Y-42400D02*
X76550Y-42400D01*
X76550Y-42400D02*
X76550Y-39900D01*
X80750Y-31300D02*
X81000Y-31300D01*
X81000Y-33800D02*
X81000Y-30800D01*
X80750Y-31300D02*
X80750Y-33300D01*
X80750Y-33300D02*
X81000Y-33300D01*
X81000Y-30800D02*
X78500Y-30800D01*
X78500Y-30800D02*
X78500Y-33800D01*
X80750Y-33300D02*
X81000Y-33300D01*
X81000Y-33800D02*
X78500Y-33800D01*
X80700Y-34300D02*
X80950Y-34300D01*
X80950Y-36800D02*
X80950Y-33800D01*
X80700Y-34300D02*
X80700Y-36300D01*
X80700Y-36300D02*
X80950Y-36300D01*
X80950Y-33800D02*
X78450Y-33800D01*
X78450Y-33800D02*
X78450Y-36800D01*
X80700Y-36300D02*
X80950Y-36300D01*
X80950Y-36800D02*
X78450Y-36800D01*
X47250Y-13500D02*
X47500Y-13500D01*
X47500Y-13500D02*
X47500Y-17500D01*
X47500Y-17500D02*
X47250Y-17500D01*
X45750Y-13500D02*
X47250Y-13500D01*
X47250Y-13500D02*
X47250Y-17500D01*
X47250Y-17500D02*
X45750Y-17500D01*
X45750Y-17500D02*
X45750Y-13500D01*
X44750Y-31500D02*
X45000Y-31500D01*
X45000Y-31500D02*
X45000Y-35500D01*
X45000Y-35500D02*
X44750Y-35500D01*
X43250Y-31500D02*
X44750Y-31500D01*
X44750Y-31500D02*
X44750Y-35500D01*
X44750Y-35500D02*
X43250Y-35500D01*
X43250Y-35500D02*
X43250Y-31500D01*
X47250Y-31500D02*
X47500Y-31500D01*
X47500Y-31500D02*
X47500Y-35500D01*
X47500Y-35500D02*
X47250Y-35500D01*
X45750Y-31500D02*
X47250Y-31500D01*
X47250Y-31500D02*
X47250Y-35500D01*
X47250Y-35500D02*
X45750Y-35500D01*
X45750Y-35500D02*
X45750Y-31500D01*
X44750Y-19500D02*
X45000Y-19500D01*
X45000Y-19500D02*
X45000Y-23500D01*
X45000Y-23500D02*
X44750Y-23500D01*
X43250Y-19500D02*
X44750Y-19500D01*
X44750Y-19500D02*
X44750Y-23500D01*
X44750Y-23500D02*
X43250Y-23500D01*
X43250Y-23500D02*
X43250Y-19500D01*
X47250Y-19500D02*
X47500Y-19500D01*
X47500Y-19500D02*
X47500Y-23500D01*
X47500Y-23500D02*
X47250Y-23500D01*
X45750Y-19500D02*
X47250Y-19500D01*
X47250Y-19500D02*
X47250Y-23500D01*
X47250Y-23500D02*
X45750Y-23500D01*
X45750Y-23500D02*
X45750Y-19500D01*
X47250Y-25500D02*
X47500Y-25500D01*
X47500Y-25500D02*
X47500Y-29500D01*
X47500Y-29500D02*
X47250Y-29500D01*
X45750Y-25500D02*
X47250Y-25500D01*
X47250Y-25500D02*
X47250Y-29500D01*
X47250Y-29500D02*
X45750Y-29500D01*
X45750Y-29500D02*
X45750Y-25500D01*
X44750Y-13500D02*
X45000Y-13500D01*
X45000Y-13500D02*
X45000Y-17500D01*
X45000Y-17500D02*
X44750Y-17500D01*
X43250Y-13500D02*
X44750Y-13500D01*
X44750Y-13500D02*
X44750Y-17500D01*
X44750Y-17500D02*
X43250Y-17500D01*
X43250Y-17500D02*
X43250Y-13500D01*
X44750Y-25500D02*
X45000Y-25500D01*
X45000Y-25500D02*
X45000Y-29500D01*
X45000Y-29500D02*
X44750Y-29500D01*
X43250Y-25500D02*
X44750Y-25500D01*
X44750Y-25500D02*
X44750Y-29500D01*
X44750Y-29500D02*
X43250Y-29500D01*
X43250Y-29500D02*
X43250Y-25500D01*
X56550Y-39500D02*
X55550Y-39500D01*
X55550Y-39500D02*
X55550Y-37500D01*
X55550Y-37500D02*
X56550Y-37500D01*
X56550Y-37500D02*
X56550Y-39500D01*
X54850Y-39500D02*
X53850Y-39500D01*
X53850Y-39500D02*
X53850Y-37500D01*
X53850Y-37500D02*
X54850Y-37500D01*
X54850Y-37500D02*
X54850Y-39500D01*
X68350Y-33150D02*
X68350Y-34350D01*
X68350Y-34350D02*
X70950Y-34350D01*
X70950Y-34350D02*
X70950Y-33150D01*
X70950Y-33150D02*
X68350Y-33150D01*
X41561Y-16300D02*
G75*
G03X41561Y-16300I-2561J0D01*
G74*
G01*
X41000Y-15500D02*
X41000Y-14700D01*
X37600Y-15100D02*
X37400Y-15100D01*
X37800Y-15300D02*
X37800Y-15500D01*
X37800Y-15300D02*
X37800Y-14700D01*
X37600Y-15100D02*
X38200Y-15100D01*
X41800Y-13700D02*
X41800Y-13500D01*
X36400Y-14900D02*
X37800Y-13500D01*
X36400Y-17700D02*
X36400Y-14900D01*
X36400Y-17700D02*
X37800Y-19100D01*
X41800Y-13500D02*
X37800Y-13500D01*
X41800Y-19100D02*
X37800Y-19100D01*
X41800Y-19100D02*
X41800Y-13700D01*
X41800Y-19100D02*
X41800Y-14100D01*
X41711Y-37000D02*
G75*
G03X41711Y-37000I-2561J0D01*
G74*
G01*
X41150Y-36200D02*
X41150Y-35400D01*
X37750Y-35800D02*
X37550Y-35800D01*
X37950Y-36000D02*
X37950Y-36200D01*
X37950Y-36000D02*
X37950Y-35400D01*
X37750Y-35800D02*
X38350Y-35800D01*
X41950Y-34400D02*
X41950Y-34200D01*
X36550Y-35600D02*
X37950Y-34200D01*
X36550Y-38400D02*
X36550Y-35600D01*
X36550Y-38400D02*
X37950Y-39800D01*
X41950Y-34200D02*
X37950Y-34200D01*
X41950Y-39800D02*
X37950Y-39800D01*
X41950Y-39800D02*
X41950Y-34400D01*
X41950Y-39800D02*
X41950Y-34800D01*
G54D12*
X37342Y-29142D02*
X36742Y-29142D01*
X36742Y-28914D01*
X36771Y-28857D01*
X36800Y-28828D01*
X36857Y-28800D01*
X36942Y-28800D01*
X37000Y-28828D01*
X37028Y-28857D01*
X37057Y-28914D01*
X37057Y-29142D01*
X36942Y-28285D02*
X37342Y-28285D01*
X36714Y-28428D02*
X37142Y-28571D01*
X37142Y-28200D01*
X35185Y-29271D02*
X35214Y-29299D01*
X35242Y-29385D01*
X35242Y-29442D01*
X35214Y-29528D01*
X35157Y-29585D01*
X35100Y-29614D01*
X34985Y-29642D01*
X34900Y-29642D01*
X34785Y-29614D01*
X34728Y-29585D01*
X34671Y-29528D01*
X34642Y-29442D01*
X34642Y-29385D01*
X34671Y-29299D01*
X34700Y-29271D01*
X34642Y-28899D02*
X34642Y-28785D01*
X34671Y-28728D01*
X34728Y-28671D01*
X34842Y-28642D01*
X35042Y-28642D01*
X35157Y-28671D01*
X35214Y-28728D01*
X35242Y-28785D01*
X35242Y-28899D01*
X35214Y-28957D01*
X35157Y-29014D01*
X35042Y-29042D01*
X34842Y-29042D01*
X34728Y-29014D01*
X34671Y-28957D01*
X34642Y-28899D01*
X35242Y-28385D02*
X34642Y-28385D01*
X35242Y-28042D01*
X34642Y-28042D01*
X35242Y-27757D02*
X34642Y-27757D01*
X35242Y-27414D01*
X34642Y-27414D01*
X35300Y-27271D02*
X35300Y-26814D01*
X34642Y-26414D02*
X34642Y-26528D01*
X34671Y-26585D01*
X34700Y-26614D01*
X34785Y-26671D01*
X34900Y-26700D01*
X35128Y-26700D01*
X35185Y-26671D01*
X35214Y-26642D01*
X35242Y-26585D01*
X35242Y-26471D01*
X35214Y-26414D01*
X35185Y-26385D01*
X35128Y-26357D01*
X34985Y-26357D01*
X34928Y-26385D01*
X34900Y-26414D01*
X34871Y-26471D01*
X34871Y-26585D01*
X34900Y-26642D01*
X34928Y-26671D01*
X34985Y-26700D01*
X80185Y-43374D02*
X80214Y-43403D01*
X80242Y-43489D01*
X80242Y-43546D01*
X80214Y-43632D01*
X80157Y-43689D01*
X80100Y-43717D01*
X79985Y-43746D01*
X79900Y-43746D01*
X79785Y-43717D01*
X79728Y-43689D01*
X79671Y-43632D01*
X79642Y-43546D01*
X79642Y-43489D01*
X79671Y-43403D01*
X79700Y-43374D01*
X79642Y-43003D02*
X79642Y-42889D01*
X79671Y-42832D01*
X79728Y-42774D01*
X79842Y-42746D01*
X80042Y-42746D01*
X80157Y-42774D01*
X80214Y-42832D01*
X80242Y-42889D01*
X80242Y-43003D01*
X80214Y-43060D01*
X80157Y-43117D01*
X80042Y-43146D01*
X79842Y-43146D01*
X79728Y-43117D01*
X79671Y-43060D01*
X79642Y-43003D01*
X80242Y-42203D02*
X80242Y-42489D01*
X79642Y-42489D01*
X79642Y-41889D02*
X79642Y-41774D01*
X79671Y-41717D01*
X79728Y-41660D01*
X79842Y-41632D01*
X80042Y-41632D01*
X80157Y-41660D01*
X80214Y-41717D01*
X80242Y-41774D01*
X80242Y-41889D01*
X80214Y-41946D01*
X80157Y-42003D01*
X80042Y-42032D01*
X79842Y-42032D01*
X79728Y-42003D01*
X79671Y-41946D01*
X79642Y-41889D01*
X80242Y-41375D02*
X79642Y-41375D01*
X80242Y-41032D01*
X79642Y-41032D01*
X79928Y-40746D02*
X79928Y-40546D01*
X80242Y-40460D02*
X80242Y-40746D01*
X79642Y-40746D01*
X79642Y-40460D01*
X79642Y-40289D02*
X79642Y-39946D01*
X80242Y-40117D02*
X79642Y-40117D01*
X79642Y-39832D02*
X79642Y-39489D01*
X80242Y-39660D02*
X79642Y-39660D01*
X79928Y-39289D02*
X79928Y-39089D01*
X80242Y-39003D02*
X80242Y-39289D01*
X79642Y-39289D01*
X79642Y-39003D01*
X76892Y-42532D02*
X77492Y-42332D01*
X76892Y-42132D01*
X77321Y-41960D02*
X77321Y-41675D01*
X77492Y-42017D02*
X76892Y-41817D01*
X77492Y-41617D01*
X77492Y-41132D02*
X77492Y-41417D01*
X76892Y-41417D01*
X76892Y-40846D02*
X77035Y-40846D01*
X76978Y-40989D02*
X77035Y-40846D01*
X76978Y-40703D01*
X77150Y-40932D02*
X77035Y-40846D01*
X77150Y-40760D01*
X76892Y-40389D02*
X77035Y-40389D01*
X76978Y-40532D02*
X77035Y-40389D01*
X76978Y-40246D01*
X77150Y-40475D02*
X77035Y-40389D01*
X77150Y-40303D01*
X36235Y-22824D02*
X36264Y-22853D01*
X36292Y-22939D01*
X36292Y-22996D01*
X36264Y-23082D01*
X36207Y-23139D01*
X36150Y-23167D01*
X36035Y-23196D01*
X35950Y-23196D01*
X35835Y-23167D01*
X35778Y-23139D01*
X35721Y-23082D01*
X35692Y-22996D01*
X35692Y-22939D01*
X35721Y-22853D01*
X35750Y-22824D01*
X35692Y-22453D02*
X35692Y-22339D01*
X35721Y-22282D01*
X35778Y-22224D01*
X35892Y-22196D01*
X36092Y-22196D01*
X36207Y-22224D01*
X36264Y-22282D01*
X36292Y-22339D01*
X36292Y-22453D01*
X36264Y-22510D01*
X36207Y-22567D01*
X36092Y-22596D01*
X35892Y-22596D01*
X35778Y-22567D01*
X35721Y-22510D01*
X35692Y-22453D01*
X36292Y-21653D02*
X36292Y-21939D01*
X35692Y-21939D01*
X35692Y-21339D02*
X35692Y-21224D01*
X35721Y-21167D01*
X35778Y-21110D01*
X35892Y-21082D01*
X36092Y-21082D01*
X36207Y-21110D01*
X36264Y-21167D01*
X36292Y-21224D01*
X36292Y-21339D01*
X36264Y-21396D01*
X36207Y-21453D01*
X36092Y-21482D01*
X35892Y-21482D01*
X35778Y-21453D01*
X35721Y-21396D01*
X35692Y-21339D01*
X36292Y-20825D02*
X35692Y-20825D01*
X36292Y-20482D01*
X35692Y-20482D01*
X35978Y-20196D02*
X35978Y-19996D01*
X36292Y-19910D02*
X36292Y-20196D01*
X35692Y-20196D01*
X35692Y-19910D01*
X35692Y-19739D02*
X35692Y-19396D01*
X36292Y-19567D02*
X35692Y-19567D01*
X35692Y-19282D02*
X35692Y-18939D01*
X36292Y-19110D02*
X35692Y-19110D01*
X35978Y-18739D02*
X35978Y-18539D01*
X36292Y-18453D02*
X36292Y-18739D01*
X35692Y-18739D01*
X35692Y-18453D01*
X32942Y-21982D02*
X33542Y-21782D01*
X32942Y-21582D01*
X33371Y-21410D02*
X33371Y-21125D01*
X33542Y-21467D02*
X32942Y-21267D01*
X33542Y-21067D01*
X33542Y-20582D02*
X33542Y-20867D01*
X32942Y-20867D01*
X32942Y-20296D02*
X33085Y-20296D01*
X33028Y-20439D02*
X33085Y-20296D01*
X33028Y-20153D01*
X33200Y-20382D02*
X33085Y-20296D01*
X33200Y-20210D01*
X32942Y-19839D02*
X33085Y-19839D01*
X33028Y-19982D02*
X33085Y-19839D01*
X33028Y-19696D01*
X33200Y-19925D02*
X33085Y-19839D01*
X33200Y-19753D01*
X36235Y-43374D02*
X36264Y-43403D01*
X36292Y-43489D01*
X36292Y-43546D01*
X36264Y-43632D01*
X36207Y-43689D01*
X36150Y-43717D01*
X36035Y-43746D01*
X35950Y-43746D01*
X35835Y-43717D01*
X35778Y-43689D01*
X35721Y-43632D01*
X35692Y-43546D01*
X35692Y-43489D01*
X35721Y-43403D01*
X35750Y-43374D01*
X35692Y-43003D02*
X35692Y-42889D01*
X35721Y-42832D01*
X35778Y-42774D01*
X35892Y-42746D01*
X36092Y-42746D01*
X36207Y-42774D01*
X36264Y-42832D01*
X36292Y-42889D01*
X36292Y-43003D01*
X36264Y-43060D01*
X36207Y-43117D01*
X36092Y-43146D01*
X35892Y-43146D01*
X35778Y-43117D01*
X35721Y-43060D01*
X35692Y-43003D01*
X36292Y-42203D02*
X36292Y-42489D01*
X35692Y-42489D01*
X35692Y-41889D02*
X35692Y-41774D01*
X35721Y-41717D01*
X35778Y-41660D01*
X35892Y-41632D01*
X36092Y-41632D01*
X36207Y-41660D01*
X36264Y-41717D01*
X36292Y-41774D01*
X36292Y-41889D01*
X36264Y-41946D01*
X36207Y-42003D01*
X36092Y-42032D01*
X35892Y-42032D01*
X35778Y-42003D01*
X35721Y-41946D01*
X35692Y-41889D01*
X36292Y-41375D02*
X35692Y-41375D01*
X36292Y-41032D01*
X35692Y-41032D01*
X35978Y-40746D02*
X35978Y-40546D01*
X36292Y-40460D02*
X36292Y-40746D01*
X35692Y-40746D01*
X35692Y-40460D01*
X35692Y-40289D02*
X35692Y-39946D01*
X36292Y-40117D02*
X35692Y-40117D01*
X35692Y-39832D02*
X35692Y-39489D01*
X36292Y-39660D02*
X35692Y-39660D01*
X35978Y-39289D02*
X35978Y-39089D01*
X36292Y-39003D02*
X36292Y-39289D01*
X35692Y-39289D01*
X35692Y-39003D01*
X32942Y-42532D02*
X33542Y-42332D01*
X32942Y-42132D01*
X33371Y-41960D02*
X33371Y-41675D01*
X33542Y-42017D02*
X32942Y-41817D01*
X33542Y-41617D01*
X33542Y-41132D02*
X33542Y-41417D01*
X32942Y-41417D01*
X32942Y-40846D02*
X33085Y-40846D01*
X33028Y-40989D02*
X33085Y-40846D01*
X33028Y-40703D01*
X33200Y-40932D02*
X33085Y-40846D01*
X33200Y-40760D01*
X32942Y-40389D02*
X33085Y-40389D01*
X33028Y-40532D02*
X33085Y-40389D01*
X33028Y-40246D01*
X33200Y-40475D02*
X33085Y-40389D01*
X33200Y-40303D01*
G54D15*
X49657Y-15582D02*
X49657Y-15946D01*
X49678Y-15989D01*
X49700Y-16010D01*
X49742Y-16032D01*
X49828Y-16032D01*
X49871Y-16010D01*
X49892Y-15989D01*
X49914Y-15946D01*
X49914Y-15582D01*
X50321Y-15732D02*
X50321Y-16032D01*
X50214Y-15560D02*
X50107Y-15882D01*
X50385Y-15882D01*
X49241Y-15241D02*
X49075Y-15241D01*
X49075Y-14891D01*
X49358Y-15241D02*
X49358Y-14891D01*
X49475Y-15141D01*
X49591Y-14891D01*
X49591Y-15241D01*
X49925Y-14891D02*
X49758Y-14891D01*
X49741Y-15058D01*
X49758Y-15041D01*
X49791Y-15025D01*
X49875Y-15025D01*
X49908Y-15041D01*
X49925Y-15058D01*
X49941Y-15091D01*
X49941Y-15175D01*
X49925Y-15208D01*
X49908Y-15225D01*
X49875Y-15241D01*
X49791Y-15241D01*
X49758Y-15225D01*
X49741Y-15208D01*
X50275Y-15241D02*
X50075Y-15241D01*
X50175Y-15241D02*
X50175Y-14891D01*
X50141Y-14941D01*
X50108Y-14975D01*
X50075Y-14991D01*
X50491Y-14891D02*
X50525Y-14891D01*
X50558Y-14908D01*
X50575Y-14925D01*
X50591Y-14958D01*
X50608Y-15025D01*
X50608Y-15108D01*
X50591Y-15175D01*
X50575Y-15208D01*
X50558Y-15225D01*
X50525Y-15241D01*
X50491Y-15241D01*
X50458Y-15225D01*
X50441Y-15208D01*
X50425Y-15175D01*
X50408Y-15108D01*
X50408Y-15025D01*
X50425Y-14958D01*
X50441Y-14925D01*
X50458Y-14908D01*
X50491Y-14891D01*
X50908Y-15008D02*
X50908Y-15241D01*
X50825Y-14875D02*
X50741Y-15125D01*
X50958Y-15125D01*
X49657Y-33582D02*
X49657Y-33946D01*
X49678Y-33989D01*
X49700Y-34010D01*
X49742Y-34032D01*
X49828Y-34032D01*
X49871Y-34010D01*
X49892Y-33989D01*
X49914Y-33946D01*
X49914Y-33582D01*
X50192Y-33775D02*
X50150Y-33753D01*
X50128Y-33732D01*
X50107Y-33689D01*
X50107Y-33667D01*
X50128Y-33625D01*
X50150Y-33603D01*
X50192Y-33582D01*
X50278Y-33582D01*
X50321Y-33603D01*
X50342Y-33625D01*
X50364Y-33667D01*
X50364Y-33689D01*
X50342Y-33732D01*
X50321Y-33753D01*
X50278Y-33775D01*
X50192Y-33775D01*
X50150Y-33796D01*
X50128Y-33817D01*
X50107Y-33860D01*
X50107Y-33946D01*
X50128Y-33989D01*
X50150Y-34010D01*
X50192Y-34032D01*
X50278Y-34032D01*
X50321Y-34010D01*
X50342Y-33989D01*
X50364Y-33946D01*
X50364Y-33860D01*
X50342Y-33817D01*
X50321Y-33796D01*
X50278Y-33775D01*
X49241Y-33241D02*
X49075Y-33241D01*
X49075Y-32891D01*
X49358Y-33241D02*
X49358Y-32891D01*
X49475Y-33141D01*
X49591Y-32891D01*
X49591Y-33241D01*
X49925Y-32891D02*
X49758Y-32891D01*
X49741Y-33058D01*
X49758Y-33041D01*
X49791Y-33025D01*
X49875Y-33025D01*
X49908Y-33041D01*
X49925Y-33058D01*
X49941Y-33091D01*
X49941Y-33175D01*
X49925Y-33208D01*
X49908Y-33225D01*
X49875Y-33241D01*
X49791Y-33241D01*
X49758Y-33225D01*
X49741Y-33208D01*
X50275Y-33241D02*
X50075Y-33241D01*
X50175Y-33241D02*
X50175Y-32891D01*
X50141Y-32941D01*
X50108Y-32975D01*
X50075Y-32991D01*
X50491Y-32891D02*
X50525Y-32891D01*
X50558Y-32908D01*
X50575Y-32925D01*
X50591Y-32958D01*
X50608Y-33025D01*
X50608Y-33108D01*
X50591Y-33175D01*
X50575Y-33208D01*
X50558Y-33225D01*
X50525Y-33241D01*
X50491Y-33241D01*
X50458Y-33225D01*
X50441Y-33208D01*
X50425Y-33175D01*
X50408Y-33108D01*
X50408Y-33025D01*
X50425Y-32958D01*
X50441Y-32925D01*
X50458Y-32908D01*
X50491Y-32891D01*
X50908Y-33008D02*
X50908Y-33241D01*
X50825Y-32875D02*
X50741Y-33125D01*
X50958Y-33125D01*
X49657Y-27582D02*
X49657Y-27946D01*
X49678Y-27989D01*
X49700Y-28010D01*
X49742Y-28032D01*
X49828Y-28032D01*
X49871Y-28010D01*
X49892Y-27989D01*
X49914Y-27946D01*
X49914Y-27582D01*
X50085Y-27582D02*
X50385Y-27582D01*
X50192Y-28032D01*
X49241Y-27241D02*
X49075Y-27241D01*
X49075Y-26891D01*
X49358Y-27241D02*
X49358Y-26891D01*
X49475Y-27141D01*
X49591Y-26891D01*
X49591Y-27241D01*
X49925Y-26891D02*
X49758Y-26891D01*
X49741Y-27058D01*
X49758Y-27041D01*
X49791Y-27025D01*
X49875Y-27025D01*
X49908Y-27041D01*
X49925Y-27058D01*
X49941Y-27091D01*
X49941Y-27175D01*
X49925Y-27208D01*
X49908Y-27225D01*
X49875Y-27241D01*
X49791Y-27241D01*
X49758Y-27225D01*
X49741Y-27208D01*
X50275Y-27241D02*
X50075Y-27241D01*
X50175Y-27241D02*
X50175Y-26891D01*
X50141Y-26941D01*
X50108Y-26975D01*
X50075Y-26991D01*
X50491Y-26891D02*
X50525Y-26891D01*
X50558Y-26908D01*
X50575Y-26925D01*
X50591Y-26958D01*
X50608Y-27025D01*
X50608Y-27108D01*
X50591Y-27175D01*
X50575Y-27208D01*
X50558Y-27225D01*
X50525Y-27241D01*
X50491Y-27241D01*
X50458Y-27225D01*
X50441Y-27208D01*
X50425Y-27175D01*
X50408Y-27108D01*
X50408Y-27025D01*
X50425Y-26958D01*
X50441Y-26925D01*
X50458Y-26908D01*
X50491Y-26891D01*
X50908Y-27008D02*
X50908Y-27241D01*
X50825Y-26875D02*
X50741Y-27125D01*
X50958Y-27125D01*
X49657Y-21582D02*
X49657Y-21946D01*
X49678Y-21989D01*
X49700Y-22010D01*
X49742Y-22032D01*
X49828Y-22032D01*
X49871Y-22010D01*
X49892Y-21989D01*
X49914Y-21946D01*
X49914Y-21582D01*
X50342Y-21582D02*
X50128Y-21582D01*
X50107Y-21796D01*
X50128Y-21775D01*
X50171Y-21753D01*
X50278Y-21753D01*
X50321Y-21775D01*
X50342Y-21796D01*
X50364Y-21839D01*
X50364Y-21946D01*
X50342Y-21989D01*
X50321Y-22010D01*
X50278Y-22032D01*
X50171Y-22032D01*
X50128Y-22010D01*
X50107Y-21989D01*
X49241Y-21241D02*
X49075Y-21241D01*
X49075Y-20891D01*
X49358Y-21241D02*
X49358Y-20891D01*
X49475Y-21141D01*
X49591Y-20891D01*
X49591Y-21241D01*
X49925Y-20891D02*
X49758Y-20891D01*
X49741Y-21058D01*
X49758Y-21041D01*
X49791Y-21025D01*
X49875Y-21025D01*
X49908Y-21041D01*
X49925Y-21058D01*
X49941Y-21091D01*
X49941Y-21175D01*
X49925Y-21208D01*
X49908Y-21225D01*
X49875Y-21241D01*
X49791Y-21241D01*
X49758Y-21225D01*
X49741Y-21208D01*
X50275Y-21241D02*
X50075Y-21241D01*
X50175Y-21241D02*
X50175Y-20891D01*
X50141Y-20941D01*
X50108Y-20975D01*
X50075Y-20991D01*
X50491Y-20891D02*
X50525Y-20891D01*
X50558Y-20908D01*
X50575Y-20925D01*
X50591Y-20958D01*
X50608Y-21025D01*
X50608Y-21108D01*
X50591Y-21175D01*
X50575Y-21208D01*
X50558Y-21225D01*
X50525Y-21241D01*
X50491Y-21241D01*
X50458Y-21225D01*
X50441Y-21208D01*
X50425Y-21175D01*
X50408Y-21108D01*
X50408Y-21025D01*
X50425Y-20958D01*
X50441Y-20925D01*
X50458Y-20908D01*
X50491Y-20891D01*
X50908Y-21008D02*
X50908Y-21241D01*
X50825Y-20875D02*
X50741Y-21125D01*
X50958Y-21125D01*
G54D13*
X76457Y-30729D02*
X76442Y-30748D01*
X76400Y-30767D01*
X76371Y-30767D01*
X76328Y-30748D01*
X76300Y-30710D01*
X76285Y-30672D01*
X76271Y-30596D01*
X76271Y-30539D01*
X76285Y-30463D01*
X76300Y-30425D01*
X76328Y-30386D01*
X76371Y-30367D01*
X76400Y-30367D01*
X76442Y-30386D01*
X76457Y-30406D01*
X76742Y-30767D02*
X76571Y-30767D01*
X76657Y-30767D02*
X76657Y-30367D01*
X76628Y-30425D01*
X76600Y-30463D01*
X76571Y-30482D01*
X76914Y-30539D02*
X76885Y-30520D01*
X76871Y-30501D01*
X76857Y-30463D01*
X76857Y-30444D01*
X76871Y-30406D01*
X76885Y-30386D01*
X76914Y-30367D01*
X76971Y-30367D01*
X77000Y-30386D01*
X77014Y-30406D01*
X77028Y-30444D01*
X77028Y-30463D01*
X77014Y-30501D01*
X77000Y-30520D01*
X76971Y-30539D01*
X76914Y-30539D01*
X76885Y-30558D01*
X76871Y-30577D01*
X76857Y-30615D01*
X76857Y-30691D01*
X76871Y-30729D01*
X76885Y-30748D01*
X76914Y-30767D01*
X76971Y-30767D01*
X77000Y-30748D01*
X77014Y-30729D01*
X77028Y-30691D01*
X77028Y-30615D01*
X77014Y-30577D01*
X77000Y-30558D01*
X76971Y-30539D01*
X76428Y-31095D02*
X76428Y-31361D01*
X76357Y-30942D02*
X76285Y-31228D01*
X76471Y-31228D01*
X76557Y-30961D02*
X76757Y-30961D01*
X76628Y-31361D01*
X77000Y-31095D02*
X77000Y-31361D01*
X76871Y-31095D02*
X76871Y-31304D01*
X76885Y-31342D01*
X76914Y-31361D01*
X76957Y-31361D01*
X76985Y-31342D01*
X77000Y-31323D01*
X52721Y-21764D02*
X52421Y-21764D01*
X52421Y-21692D01*
X52435Y-21650D01*
X52464Y-21621D01*
X52492Y-21607D01*
X52550Y-21592D01*
X52592Y-21592D01*
X52650Y-21607D01*
X52678Y-21621D01*
X52707Y-21650D01*
X52721Y-21692D01*
X52721Y-21764D01*
X52721Y-21307D02*
X52721Y-21478D01*
X52721Y-21392D02*
X52421Y-21392D01*
X52464Y-21421D01*
X52492Y-21450D01*
X52507Y-21478D01*
X52721Y-21021D02*
X52721Y-21192D01*
X52721Y-21107D02*
X52421Y-21107D01*
X52464Y-21135D01*
X52492Y-21164D01*
X52507Y-21192D01*
X49278Y-19421D02*
X49278Y-19121D01*
X49350Y-19121D01*
X49392Y-19135D01*
X49421Y-19164D01*
X49435Y-19192D01*
X49450Y-19250D01*
X49450Y-19292D01*
X49435Y-19350D01*
X49421Y-19378D01*
X49392Y-19407D01*
X49350Y-19421D01*
X49278Y-19421D01*
X49592Y-19421D02*
X49650Y-19421D01*
X49678Y-19407D01*
X49692Y-19392D01*
X49721Y-19350D01*
X49735Y-19292D01*
X49735Y-19178D01*
X49721Y-19150D01*
X49707Y-19135D01*
X49678Y-19121D01*
X49621Y-19121D01*
X49592Y-19135D01*
X49578Y-19150D01*
X49564Y-19178D01*
X49564Y-19250D01*
X49578Y-19278D01*
X49592Y-19292D01*
X49621Y-19307D01*
X49678Y-19307D01*
X49707Y-19292D01*
X49721Y-19278D01*
X49735Y-19250D01*
X52721Y-33864D02*
X52421Y-33864D01*
X52421Y-33792D01*
X52435Y-33750D01*
X52464Y-33721D01*
X52492Y-33707D01*
X52550Y-33692D01*
X52592Y-33692D01*
X52650Y-33707D01*
X52678Y-33721D01*
X52707Y-33750D01*
X52721Y-33792D01*
X52721Y-33864D01*
X52721Y-33407D02*
X52721Y-33578D01*
X52721Y-33492D02*
X52421Y-33492D01*
X52464Y-33521D01*
X52492Y-33550D01*
X52507Y-33578D01*
X52421Y-33135D02*
X52421Y-33278D01*
X52564Y-33292D01*
X52550Y-33278D01*
X52535Y-33250D01*
X52535Y-33178D01*
X52550Y-33150D01*
X52564Y-33135D01*
X52592Y-33121D01*
X52664Y-33121D01*
X52692Y-33135D01*
X52707Y-33150D01*
X52721Y-33178D01*
X52721Y-33250D01*
X52707Y-33278D01*
X52692Y-33292D01*
X49135Y-31421D02*
X49135Y-31121D01*
X49207Y-31121D01*
X49250Y-31135D01*
X49278Y-31164D01*
X49292Y-31192D01*
X49307Y-31250D01*
X49307Y-31292D01*
X49292Y-31350D01*
X49278Y-31378D01*
X49250Y-31407D01*
X49207Y-31421D01*
X49135Y-31421D01*
X49592Y-31421D02*
X49421Y-31421D01*
X49507Y-31421D02*
X49507Y-31121D01*
X49478Y-31164D01*
X49450Y-31192D01*
X49421Y-31207D01*
X49692Y-31121D02*
X49878Y-31121D01*
X49778Y-31235D01*
X49821Y-31235D01*
X49850Y-31250D01*
X49864Y-31264D01*
X49878Y-31292D01*
X49878Y-31364D01*
X49864Y-31392D01*
X49850Y-31407D01*
X49821Y-31421D01*
X49735Y-31421D01*
X49707Y-31407D01*
X49692Y-31392D01*
X52721Y-27864D02*
X52421Y-27864D01*
X52421Y-27792D01*
X52435Y-27750D01*
X52464Y-27721D01*
X52492Y-27707D01*
X52550Y-27692D01*
X52592Y-27692D01*
X52650Y-27707D01*
X52678Y-27721D01*
X52707Y-27750D01*
X52721Y-27792D01*
X52721Y-27864D01*
X52721Y-27407D02*
X52721Y-27578D01*
X52721Y-27492D02*
X52421Y-27492D01*
X52464Y-27521D01*
X52492Y-27550D01*
X52507Y-27578D01*
X52521Y-27150D02*
X52721Y-27150D01*
X52407Y-27221D02*
X52621Y-27292D01*
X52621Y-27107D01*
X49135Y-25421D02*
X49135Y-25121D01*
X49207Y-25121D01*
X49250Y-25135D01*
X49278Y-25164D01*
X49292Y-25192D01*
X49307Y-25250D01*
X49307Y-25292D01*
X49292Y-25350D01*
X49278Y-25378D01*
X49250Y-25407D01*
X49207Y-25421D01*
X49135Y-25421D01*
X49592Y-25421D02*
X49421Y-25421D01*
X49507Y-25421D02*
X49507Y-25121D01*
X49478Y-25164D01*
X49450Y-25192D01*
X49421Y-25207D01*
X49707Y-25150D02*
X49721Y-25135D01*
X49750Y-25121D01*
X49821Y-25121D01*
X49850Y-25135D01*
X49864Y-25150D01*
X49878Y-25178D01*
X49878Y-25207D01*
X49864Y-25250D01*
X49692Y-25421D01*
X49878Y-25421D01*
X52721Y-16064D02*
X52421Y-16064D01*
X52421Y-15992D01*
X52435Y-15950D01*
X52464Y-15921D01*
X52492Y-15907D01*
X52550Y-15892D01*
X52592Y-15892D01*
X52650Y-15907D01*
X52678Y-15921D01*
X52707Y-15950D01*
X52721Y-15992D01*
X52721Y-16064D01*
X52721Y-15607D02*
X52721Y-15778D01*
X52721Y-15692D02*
X52421Y-15692D01*
X52464Y-15721D01*
X52492Y-15750D01*
X52507Y-15778D01*
X52421Y-15421D02*
X52421Y-15392D01*
X52435Y-15364D01*
X52450Y-15350D01*
X52478Y-15335D01*
X52535Y-15321D01*
X52607Y-15321D01*
X52664Y-15335D01*
X52692Y-15350D01*
X52707Y-15364D01*
X52721Y-15392D01*
X52721Y-15421D01*
X52707Y-15450D01*
X52692Y-15464D01*
X52664Y-15478D01*
X52607Y-15492D01*
X52535Y-15492D01*
X52478Y-15478D01*
X52450Y-15464D01*
X52435Y-15450D01*
X52421Y-15421D01*
X48778Y-13121D02*
X48778Y-12821D01*
X48850Y-12821D01*
X48892Y-12835D01*
X48921Y-12864D01*
X48935Y-12892D01*
X48950Y-12950D01*
X48950Y-12992D01*
X48935Y-13050D01*
X48921Y-13078D01*
X48892Y-13107D01*
X48850Y-13121D01*
X48778Y-13121D01*
X49121Y-12950D02*
X49092Y-12935D01*
X49078Y-12921D01*
X49064Y-12892D01*
X49064Y-12878D01*
X49078Y-12850D01*
X49092Y-12835D01*
X49121Y-12821D01*
X49178Y-12821D01*
X49207Y-12835D01*
X49221Y-12850D01*
X49235Y-12878D01*
X49235Y-12892D01*
X49221Y-12921D01*
X49207Y-12935D01*
X49178Y-12950D01*
X49121Y-12950D01*
X49092Y-12964D01*
X49078Y-12978D01*
X49064Y-13007D01*
X49064Y-13064D01*
X49078Y-13092D01*
X49092Y-13107D01*
X49121Y-13121D01*
X49178Y-13121D01*
X49207Y-13107D01*
X49221Y-13092D01*
X49235Y-13064D01*
X49235Y-13007D01*
X49221Y-12978D01*
X49207Y-12964D01*
X49178Y-12950D01*
X47921Y-37992D02*
X47778Y-38092D01*
X47921Y-38164D02*
X47621Y-38164D01*
X47621Y-38050D01*
X47635Y-38021D01*
X47650Y-38007D01*
X47678Y-37992D01*
X47721Y-37992D01*
X47750Y-38007D01*
X47764Y-38021D01*
X47778Y-38050D01*
X47778Y-38164D01*
X47921Y-37707D02*
X47921Y-37878D01*
X47921Y-37792D02*
X47621Y-37792D01*
X47664Y-37821D01*
X47692Y-37850D01*
X47707Y-37878D01*
X47750Y-37535D02*
X47735Y-37564D01*
X47721Y-37578D01*
X47692Y-37592D01*
X47678Y-37592D01*
X47650Y-37578D01*
X47635Y-37564D01*
X47621Y-37535D01*
X47621Y-37478D01*
X47635Y-37450D01*
X47650Y-37435D01*
X47678Y-37421D01*
X47692Y-37421D01*
X47721Y-37435D01*
X47735Y-37450D01*
X47750Y-37478D01*
X47750Y-37535D01*
X47764Y-37564D01*
X47778Y-37578D01*
X47807Y-37592D01*
X47864Y-37592D01*
X47892Y-37578D01*
X47907Y-37564D01*
X47921Y-37535D01*
X47921Y-37478D01*
X47907Y-37450D01*
X47892Y-37435D01*
X47864Y-37421D01*
X47807Y-37421D01*
X47778Y-37435D01*
X47764Y-37450D01*
X47750Y-37478D01*
X42421Y-10892D02*
X42278Y-10992D01*
X42421Y-11064D02*
X42121Y-11064D01*
X42121Y-10950D01*
X42135Y-10921D01*
X42150Y-10907D01*
X42178Y-10892D01*
X42221Y-10892D01*
X42250Y-10907D01*
X42264Y-10921D01*
X42278Y-10950D01*
X42278Y-11064D01*
X42421Y-10607D02*
X42421Y-10778D01*
X42421Y-10692D02*
X42121Y-10692D01*
X42164Y-10721D01*
X42192Y-10750D01*
X42207Y-10778D01*
X42421Y-10321D02*
X42421Y-10492D01*
X42421Y-10407D02*
X42121Y-10407D01*
X42164Y-10435D01*
X42192Y-10464D01*
X42207Y-10492D01*
X46621Y-37992D02*
X46478Y-38092D01*
X46621Y-38164D02*
X46321Y-38164D01*
X46321Y-38050D01*
X46335Y-38021D01*
X46350Y-38007D01*
X46378Y-37992D01*
X46421Y-37992D01*
X46450Y-38007D01*
X46464Y-38021D01*
X46478Y-38050D01*
X46478Y-38164D01*
X46321Y-37721D02*
X46321Y-37864D01*
X46464Y-37878D01*
X46450Y-37864D01*
X46435Y-37835D01*
X46435Y-37764D01*
X46450Y-37735D01*
X46464Y-37721D01*
X46492Y-37707D01*
X46564Y-37707D01*
X46592Y-37721D01*
X46607Y-37735D01*
X46621Y-37764D01*
X46621Y-37835D01*
X46607Y-37864D01*
X46592Y-37878D01*
X46321Y-37435D02*
X46321Y-37578D01*
X46464Y-37592D01*
X46450Y-37578D01*
X46435Y-37550D01*
X46435Y-37478D01*
X46450Y-37450D01*
X46464Y-37435D01*
X46492Y-37421D01*
X46564Y-37421D01*
X46592Y-37435D01*
X46607Y-37450D01*
X46621Y-37478D01*
X46621Y-37550D01*
X46607Y-37578D01*
X46592Y-37592D01*
X44021Y-37992D02*
X43878Y-38092D01*
X44021Y-38164D02*
X43721Y-38164D01*
X43721Y-38050D01*
X43735Y-38021D01*
X43750Y-38007D01*
X43778Y-37992D01*
X43821Y-37992D01*
X43850Y-38007D01*
X43864Y-38021D01*
X43878Y-38050D01*
X43878Y-38164D01*
X43721Y-37721D02*
X43721Y-37864D01*
X43864Y-37878D01*
X43850Y-37864D01*
X43835Y-37835D01*
X43835Y-37764D01*
X43850Y-37735D01*
X43864Y-37721D01*
X43892Y-37707D01*
X43964Y-37707D01*
X43992Y-37721D01*
X44007Y-37735D01*
X44021Y-37764D01*
X44021Y-37835D01*
X44007Y-37864D01*
X43992Y-37878D01*
X43821Y-37450D02*
X44021Y-37450D01*
X43707Y-37521D02*
X43921Y-37592D01*
X43921Y-37407D01*
X45321Y-37992D02*
X45178Y-38092D01*
X45321Y-38164D02*
X45021Y-38164D01*
X45021Y-38050D01*
X45035Y-38021D01*
X45050Y-38007D01*
X45078Y-37992D01*
X45121Y-37992D01*
X45150Y-38007D01*
X45164Y-38021D01*
X45178Y-38050D01*
X45178Y-38164D01*
X45021Y-37721D02*
X45021Y-37864D01*
X45164Y-37878D01*
X45150Y-37864D01*
X45135Y-37835D01*
X45135Y-37764D01*
X45150Y-37735D01*
X45164Y-37721D01*
X45192Y-37707D01*
X45264Y-37707D01*
X45292Y-37721D01*
X45307Y-37735D01*
X45321Y-37764D01*
X45321Y-37835D01*
X45307Y-37864D01*
X45292Y-37878D01*
X45021Y-37607D02*
X45021Y-37421D01*
X45135Y-37521D01*
X45135Y-37478D01*
X45150Y-37450D01*
X45164Y-37435D01*
X45192Y-37421D01*
X45264Y-37421D01*
X45292Y-37435D01*
X45307Y-37450D01*
X45321Y-37478D01*
X45321Y-37564D01*
X45307Y-37592D01*
X45292Y-37607D01*
X44921Y-10892D02*
X44778Y-10992D01*
X44921Y-11064D02*
X44621Y-11064D01*
X44621Y-10950D01*
X44635Y-10921D01*
X44650Y-10907D01*
X44678Y-10892D01*
X44721Y-10892D01*
X44750Y-10907D01*
X44764Y-10921D01*
X44778Y-10950D01*
X44778Y-11064D01*
X44621Y-10621D02*
X44621Y-10764D01*
X44764Y-10778D01*
X44750Y-10764D01*
X44735Y-10735D01*
X44735Y-10664D01*
X44750Y-10635D01*
X44764Y-10621D01*
X44792Y-10607D01*
X44864Y-10607D01*
X44892Y-10621D01*
X44907Y-10635D01*
X44921Y-10664D01*
X44921Y-10735D01*
X44907Y-10764D01*
X44892Y-10778D01*
X44650Y-10492D02*
X44635Y-10478D01*
X44621Y-10450D01*
X44621Y-10378D01*
X44635Y-10350D01*
X44650Y-10335D01*
X44678Y-10321D01*
X44707Y-10321D01*
X44750Y-10335D01*
X44921Y-10507D01*
X44921Y-10321D01*
X43621Y-10750D02*
X43478Y-10850D01*
X43621Y-10921D02*
X43321Y-10921D01*
X43321Y-10807D01*
X43335Y-10778D01*
X43350Y-10764D01*
X43378Y-10750D01*
X43421Y-10750D01*
X43450Y-10764D01*
X43464Y-10778D01*
X43478Y-10807D01*
X43478Y-10921D01*
X43350Y-10635D02*
X43335Y-10621D01*
X43321Y-10592D01*
X43321Y-10521D01*
X43335Y-10492D01*
X43350Y-10478D01*
X43378Y-10464D01*
X43407Y-10464D01*
X43450Y-10478D01*
X43621Y-10650D01*
X43621Y-10464D01*
X46221Y-10750D02*
X46078Y-10850D01*
X46221Y-10921D02*
X45921Y-10921D01*
X45921Y-10807D01*
X45935Y-10778D01*
X45950Y-10764D01*
X45978Y-10750D01*
X46021Y-10750D01*
X46050Y-10764D01*
X46064Y-10778D01*
X46078Y-10807D01*
X46078Y-10921D01*
X46221Y-10464D02*
X46221Y-10635D01*
X46221Y-10550D02*
X45921Y-10550D01*
X45964Y-10578D01*
X45992Y-10607D01*
X46007Y-10635D01*
G54D16*
X49704Y-17605D02*
X49610Y-17665D01*
X49704Y-17707D02*
X49507Y-17707D01*
X49507Y-17639D01*
X49517Y-17622D01*
X49526Y-17613D01*
X49545Y-17605D01*
X49573Y-17605D01*
X49592Y-17613D01*
X49601Y-17622D01*
X49610Y-17639D01*
X49610Y-17707D01*
X49507Y-17545D02*
X49507Y-17425D01*
X49704Y-17502D01*
X48831Y-17895D02*
X48821Y-17887D01*
X48811Y-17870D01*
X48811Y-17827D01*
X48821Y-17810D01*
X48831Y-17801D01*
X48850Y-17792D01*
X48869Y-17792D01*
X48897Y-17801D01*
X49011Y-17904D01*
X49011Y-17792D01*
X48831Y-17724D02*
X48821Y-17715D01*
X48811Y-17698D01*
X48811Y-17655D01*
X48821Y-17638D01*
X48831Y-17630D01*
X48850Y-17621D01*
X48869Y-17621D01*
X48897Y-17630D01*
X49011Y-17732D01*
X49011Y-17621D01*
X48811Y-17509D02*
X48811Y-17492D01*
X48821Y-17475D01*
X48831Y-17467D01*
X48850Y-17458D01*
X48888Y-17449D01*
X48935Y-17449D01*
X48973Y-17458D01*
X48992Y-17467D01*
X49002Y-17475D01*
X49011Y-17492D01*
X49011Y-17509D01*
X49002Y-17527D01*
X48992Y-17535D01*
X48973Y-17544D01*
X48935Y-17552D01*
X48888Y-17552D01*
X48850Y-17544D01*
X48831Y-17535D01*
X48821Y-17527D01*
X48811Y-17509D01*
X49011Y-17372D02*
X48811Y-17372D01*
X48935Y-17355D02*
X49011Y-17304D01*
X48878Y-17304D02*
X48954Y-17372D01*
X64409Y-29604D02*
X64349Y-29510D01*
X64306Y-29604D02*
X64306Y-29407D01*
X64375Y-29407D01*
X64392Y-29417D01*
X64400Y-29426D01*
X64409Y-29445D01*
X64409Y-29473D01*
X64400Y-29492D01*
X64392Y-29501D01*
X64375Y-29510D01*
X64306Y-29510D01*
X64563Y-29473D02*
X64563Y-29604D01*
X64520Y-29398D02*
X64477Y-29539D01*
X64589Y-29539D01*
X64649Y-29426D02*
X64657Y-29417D01*
X64675Y-29407D01*
X64717Y-29407D01*
X64735Y-29417D01*
X64743Y-29426D01*
X64752Y-29445D01*
X64752Y-29464D01*
X64743Y-29492D01*
X64640Y-29604D01*
X64752Y-29604D01*
X64221Y-28911D02*
X64118Y-28911D01*
X64170Y-28911D02*
X64170Y-28711D01*
X64152Y-28740D01*
X64135Y-28759D01*
X64118Y-28769D01*
X64298Y-28911D02*
X64298Y-28711D01*
X64315Y-28835D02*
X64367Y-28911D01*
X64367Y-28778D02*
X64298Y-28854D01*
X64675Y-28911D02*
X64572Y-28911D01*
X64624Y-28911D02*
X64624Y-28711D01*
X64607Y-28740D01*
X64590Y-28759D01*
X64572Y-28769D01*
X64744Y-28911D02*
X64881Y-28711D01*
X64770Y-28711D02*
X64787Y-28721D01*
X64795Y-28740D01*
X64787Y-28759D01*
X64770Y-28769D01*
X64752Y-28759D01*
X64744Y-28740D01*
X64752Y-28721D01*
X64770Y-28711D01*
X64872Y-28902D02*
X64881Y-28883D01*
X64872Y-28864D01*
X64855Y-28854D01*
X64838Y-28864D01*
X64830Y-28883D01*
X64838Y-28902D01*
X64855Y-28911D01*
X64872Y-28902D01*
X65359Y-29604D02*
X65299Y-29510D01*
X65256Y-29604D02*
X65256Y-29407D01*
X65325Y-29407D01*
X65342Y-29417D01*
X65350Y-29426D01*
X65359Y-29445D01*
X65359Y-29473D01*
X65350Y-29492D01*
X65342Y-29501D01*
X65325Y-29510D01*
X65256Y-29510D01*
X65513Y-29473D02*
X65513Y-29604D01*
X65470Y-29398D02*
X65427Y-29539D01*
X65539Y-29539D01*
X65702Y-29604D02*
X65599Y-29604D01*
X65650Y-29604D02*
X65650Y-29407D01*
X65633Y-29435D01*
X65616Y-29454D01*
X65599Y-29464D01*
X65171Y-28911D02*
X65068Y-28911D01*
X65120Y-28911D02*
X65120Y-28711D01*
X65102Y-28740D01*
X65085Y-28759D01*
X65068Y-28769D01*
X65248Y-28911D02*
X65248Y-28711D01*
X65265Y-28835D02*
X65317Y-28911D01*
X65317Y-28778D02*
X65248Y-28854D01*
X65625Y-28911D02*
X65522Y-28911D01*
X65574Y-28911D02*
X65574Y-28711D01*
X65557Y-28740D01*
X65540Y-28759D01*
X65522Y-28769D01*
X65694Y-28911D02*
X65831Y-28711D01*
X65720Y-28711D02*
X65737Y-28721D01*
X65745Y-28740D01*
X65737Y-28759D01*
X65720Y-28769D01*
X65702Y-28759D01*
X65694Y-28740D01*
X65702Y-28721D01*
X65720Y-28711D01*
X65822Y-28902D02*
X65831Y-28883D01*
X65822Y-28864D01*
X65805Y-28854D01*
X65788Y-28864D01*
X65780Y-28883D01*
X65788Y-28902D01*
X65805Y-28911D01*
X65822Y-28902D01*
X66359Y-29604D02*
X66299Y-29510D01*
X66256Y-29604D02*
X66256Y-29407D01*
X66325Y-29407D01*
X66342Y-29417D01*
X66350Y-29426D01*
X66359Y-29445D01*
X66359Y-29473D01*
X66350Y-29492D01*
X66342Y-29501D01*
X66325Y-29510D01*
X66256Y-29510D01*
X66513Y-29473D02*
X66513Y-29604D01*
X66470Y-29398D02*
X66427Y-29539D01*
X66539Y-29539D01*
X66642Y-29407D02*
X66659Y-29407D01*
X66676Y-29417D01*
X66685Y-29426D01*
X66693Y-29445D01*
X66702Y-29482D01*
X66702Y-29529D01*
X66693Y-29567D01*
X66685Y-29585D01*
X66676Y-29595D01*
X66659Y-29604D01*
X66642Y-29604D01*
X66625Y-29595D01*
X66616Y-29585D01*
X66607Y-29567D01*
X66599Y-29529D01*
X66599Y-29482D01*
X66607Y-29445D01*
X66616Y-29426D01*
X66625Y-29417D01*
X66642Y-29407D01*
X66171Y-28911D02*
X66068Y-28911D01*
X66120Y-28911D02*
X66120Y-28711D01*
X66102Y-28740D01*
X66085Y-28759D01*
X66068Y-28769D01*
X66248Y-28911D02*
X66248Y-28711D01*
X66265Y-28835D02*
X66317Y-28911D01*
X66317Y-28778D02*
X66248Y-28854D01*
X66625Y-28911D02*
X66522Y-28911D01*
X66574Y-28911D02*
X66574Y-28711D01*
X66557Y-28740D01*
X66540Y-28759D01*
X66522Y-28769D01*
X66694Y-28911D02*
X66831Y-28711D01*
X66720Y-28711D02*
X66737Y-28721D01*
X66745Y-28740D01*
X66737Y-28759D01*
X66720Y-28769D01*
X66702Y-28759D01*
X66694Y-28740D01*
X66702Y-28721D01*
X66720Y-28711D01*
X66822Y-28902D02*
X66831Y-28883D01*
X66822Y-28864D01*
X66805Y-28854D01*
X66788Y-28864D01*
X66780Y-28883D01*
X66788Y-28902D01*
X66805Y-28911D01*
X66822Y-28902D01*
X67309Y-29604D02*
X67249Y-29510D01*
X67206Y-29604D02*
X67206Y-29407D01*
X67275Y-29407D01*
X67292Y-29417D01*
X67300Y-29426D01*
X67309Y-29445D01*
X67309Y-29473D01*
X67300Y-29492D01*
X67292Y-29501D01*
X67275Y-29510D01*
X67206Y-29510D01*
X67369Y-29407D02*
X67480Y-29407D01*
X67420Y-29482D01*
X67446Y-29482D01*
X67463Y-29492D01*
X67472Y-29501D01*
X67480Y-29520D01*
X67480Y-29567D01*
X67472Y-29585D01*
X67463Y-29595D01*
X67446Y-29604D01*
X67395Y-29604D01*
X67377Y-29595D01*
X67369Y-29585D01*
X67566Y-29604D02*
X67600Y-29604D01*
X67617Y-29595D01*
X67626Y-29585D01*
X67643Y-29557D01*
X67652Y-29520D01*
X67652Y-29445D01*
X67643Y-29426D01*
X67635Y-29417D01*
X67617Y-29407D01*
X67583Y-29407D01*
X67566Y-29417D01*
X67557Y-29426D01*
X67549Y-29445D01*
X67549Y-29492D01*
X67557Y-29510D01*
X67566Y-29520D01*
X67583Y-29529D01*
X67617Y-29529D01*
X67635Y-29520D01*
X67643Y-29510D01*
X67652Y-29492D01*
X67121Y-28911D02*
X67018Y-28911D01*
X67070Y-28911D02*
X67070Y-28711D01*
X67052Y-28740D01*
X67035Y-28759D01*
X67018Y-28769D01*
X67198Y-28911D02*
X67198Y-28711D01*
X67215Y-28835D02*
X67267Y-28911D01*
X67267Y-28778D02*
X67198Y-28854D01*
X67575Y-28911D02*
X67472Y-28911D01*
X67524Y-28911D02*
X67524Y-28711D01*
X67507Y-28740D01*
X67490Y-28759D01*
X67472Y-28769D01*
X67644Y-28911D02*
X67781Y-28711D01*
X67670Y-28711D02*
X67687Y-28721D01*
X67695Y-28740D01*
X67687Y-28759D01*
X67670Y-28769D01*
X67652Y-28759D01*
X67644Y-28740D01*
X67652Y-28721D01*
X67670Y-28711D01*
X67772Y-28902D02*
X67781Y-28883D01*
X67772Y-28864D01*
X67755Y-28854D01*
X67738Y-28864D01*
X67730Y-28883D01*
X67738Y-28902D01*
X67755Y-28911D01*
X67772Y-28902D01*
X64409Y-27604D02*
X64349Y-27510D01*
X64306Y-27604D02*
X64306Y-27407D01*
X64375Y-27407D01*
X64392Y-27417D01*
X64400Y-27426D01*
X64409Y-27445D01*
X64409Y-27473D01*
X64400Y-27492D01*
X64392Y-27501D01*
X64375Y-27510D01*
X64306Y-27510D01*
X64469Y-27407D02*
X64580Y-27407D01*
X64520Y-27482D01*
X64546Y-27482D01*
X64563Y-27492D01*
X64572Y-27501D01*
X64580Y-27520D01*
X64580Y-27567D01*
X64572Y-27585D01*
X64563Y-27595D01*
X64546Y-27604D01*
X64495Y-27604D01*
X64477Y-27595D01*
X64469Y-27585D01*
X64683Y-27492D02*
X64666Y-27482D01*
X64657Y-27473D01*
X64649Y-27454D01*
X64649Y-27445D01*
X64657Y-27426D01*
X64666Y-27417D01*
X64683Y-27407D01*
X64717Y-27407D01*
X64735Y-27417D01*
X64743Y-27426D01*
X64752Y-27445D01*
X64752Y-27454D01*
X64743Y-27473D01*
X64735Y-27482D01*
X64717Y-27492D01*
X64683Y-27492D01*
X64666Y-27501D01*
X64657Y-27510D01*
X64649Y-27529D01*
X64649Y-27567D01*
X64657Y-27585D01*
X64666Y-27595D01*
X64683Y-27604D01*
X64717Y-27604D01*
X64735Y-27595D01*
X64743Y-27585D01*
X64752Y-27567D01*
X64752Y-27529D01*
X64743Y-27510D01*
X64735Y-27501D01*
X64717Y-27492D01*
X64135Y-26911D02*
X64032Y-26911D01*
X64084Y-26911D02*
X64084Y-26711D01*
X64067Y-26740D01*
X64050Y-26759D01*
X64032Y-26769D01*
X64247Y-26711D02*
X64264Y-26711D01*
X64281Y-26721D01*
X64290Y-26731D01*
X64298Y-26750D01*
X64307Y-26788D01*
X64307Y-26835D01*
X64298Y-26873D01*
X64290Y-26892D01*
X64281Y-26902D01*
X64264Y-26911D01*
X64247Y-26911D01*
X64230Y-26902D01*
X64221Y-26892D01*
X64212Y-26873D01*
X64204Y-26835D01*
X64204Y-26788D01*
X64212Y-26750D01*
X64221Y-26731D01*
X64230Y-26721D01*
X64247Y-26711D01*
X64384Y-26911D02*
X64384Y-26711D01*
X64401Y-26835D02*
X64452Y-26911D01*
X64452Y-26778D02*
X64384Y-26854D01*
X64761Y-26911D02*
X64658Y-26911D01*
X64710Y-26911D02*
X64710Y-26711D01*
X64692Y-26740D01*
X64675Y-26759D01*
X64658Y-26769D01*
X64830Y-26911D02*
X64967Y-26711D01*
X64855Y-26711D02*
X64872Y-26721D01*
X64881Y-26740D01*
X64872Y-26759D01*
X64855Y-26769D01*
X64838Y-26759D01*
X64830Y-26740D01*
X64838Y-26721D01*
X64855Y-26711D01*
X64958Y-26902D02*
X64967Y-26883D01*
X64958Y-26864D01*
X64941Y-26854D01*
X64924Y-26864D01*
X64915Y-26883D01*
X64924Y-26902D01*
X64941Y-26911D01*
X64958Y-26902D01*
X65359Y-27604D02*
X65299Y-27510D01*
X65256Y-27604D02*
X65256Y-27407D01*
X65325Y-27407D01*
X65342Y-27417D01*
X65350Y-27426D01*
X65359Y-27445D01*
X65359Y-27473D01*
X65350Y-27492D01*
X65342Y-27501D01*
X65325Y-27510D01*
X65256Y-27510D01*
X65419Y-27407D02*
X65530Y-27407D01*
X65470Y-27482D01*
X65496Y-27482D01*
X65513Y-27492D01*
X65522Y-27501D01*
X65530Y-27520D01*
X65530Y-27567D01*
X65522Y-27585D01*
X65513Y-27595D01*
X65496Y-27604D01*
X65445Y-27604D01*
X65427Y-27595D01*
X65419Y-27585D01*
X65590Y-27407D02*
X65710Y-27407D01*
X65633Y-27604D01*
X65085Y-26911D02*
X64982Y-26911D01*
X65034Y-26911D02*
X65034Y-26711D01*
X65017Y-26740D01*
X65000Y-26759D01*
X64982Y-26769D01*
X65197Y-26711D02*
X65214Y-26711D01*
X65231Y-26721D01*
X65240Y-26731D01*
X65248Y-26750D01*
X65257Y-26788D01*
X65257Y-26835D01*
X65248Y-26873D01*
X65240Y-26892D01*
X65231Y-26902D01*
X65214Y-26911D01*
X65197Y-26911D01*
X65180Y-26902D01*
X65171Y-26892D01*
X65162Y-26873D01*
X65154Y-26835D01*
X65154Y-26788D01*
X65162Y-26750D01*
X65171Y-26731D01*
X65180Y-26721D01*
X65197Y-26711D01*
X65334Y-26911D02*
X65334Y-26711D01*
X65351Y-26835D02*
X65402Y-26911D01*
X65402Y-26778D02*
X65334Y-26854D01*
X65711Y-26911D02*
X65608Y-26911D01*
X65660Y-26911D02*
X65660Y-26711D01*
X65642Y-26740D01*
X65625Y-26759D01*
X65608Y-26769D01*
X65780Y-26911D02*
X65917Y-26711D01*
X65805Y-26711D02*
X65822Y-26721D01*
X65831Y-26740D01*
X65822Y-26759D01*
X65805Y-26769D01*
X65788Y-26759D01*
X65780Y-26740D01*
X65788Y-26721D01*
X65805Y-26711D01*
X65908Y-26902D02*
X65917Y-26883D01*
X65908Y-26864D01*
X65891Y-26854D01*
X65874Y-26864D01*
X65865Y-26883D01*
X65874Y-26902D01*
X65891Y-26911D01*
X65908Y-26902D01*
X66359Y-27604D02*
X66299Y-27510D01*
X66256Y-27604D02*
X66256Y-27407D01*
X66325Y-27407D01*
X66342Y-27417D01*
X66350Y-27426D01*
X66359Y-27445D01*
X66359Y-27473D01*
X66350Y-27492D01*
X66342Y-27501D01*
X66325Y-27510D01*
X66256Y-27510D01*
X66419Y-27407D02*
X66530Y-27407D01*
X66470Y-27482D01*
X66496Y-27482D01*
X66513Y-27492D01*
X66522Y-27501D01*
X66530Y-27520D01*
X66530Y-27567D01*
X66522Y-27585D01*
X66513Y-27595D01*
X66496Y-27604D01*
X66445Y-27604D01*
X66427Y-27595D01*
X66419Y-27585D01*
X66685Y-27407D02*
X66650Y-27407D01*
X66633Y-27417D01*
X66625Y-27426D01*
X66607Y-27454D01*
X66599Y-27492D01*
X66599Y-27567D01*
X66607Y-27585D01*
X66616Y-27595D01*
X66633Y-27604D01*
X66667Y-27604D01*
X66685Y-27595D01*
X66693Y-27585D01*
X66702Y-27567D01*
X66702Y-27520D01*
X66693Y-27501D01*
X66685Y-27492D01*
X66667Y-27482D01*
X66633Y-27482D01*
X66616Y-27492D01*
X66607Y-27501D01*
X66599Y-27520D01*
X66085Y-26911D02*
X65982Y-26911D01*
X66034Y-26911D02*
X66034Y-26711D01*
X66017Y-26740D01*
X66000Y-26759D01*
X65982Y-26769D01*
X66197Y-26711D02*
X66214Y-26711D01*
X66231Y-26721D01*
X66240Y-26731D01*
X66248Y-26750D01*
X66257Y-26788D01*
X66257Y-26835D01*
X66248Y-26873D01*
X66240Y-26892D01*
X66231Y-26902D01*
X66214Y-26911D01*
X66197Y-26911D01*
X66180Y-26902D01*
X66171Y-26892D01*
X66162Y-26873D01*
X66154Y-26835D01*
X66154Y-26788D01*
X66162Y-26750D01*
X66171Y-26731D01*
X66180Y-26721D01*
X66197Y-26711D01*
X66334Y-26911D02*
X66334Y-26711D01*
X66351Y-26835D02*
X66402Y-26911D01*
X66402Y-26778D02*
X66334Y-26854D01*
X66711Y-26911D02*
X66608Y-26911D01*
X66660Y-26911D02*
X66660Y-26711D01*
X66642Y-26740D01*
X66625Y-26759D01*
X66608Y-26769D01*
X66780Y-26911D02*
X66917Y-26711D01*
X66805Y-26711D02*
X66822Y-26721D01*
X66831Y-26740D01*
X66822Y-26759D01*
X66805Y-26769D01*
X66788Y-26759D01*
X66780Y-26740D01*
X66788Y-26721D01*
X66805Y-26711D01*
X66908Y-26902D02*
X66917Y-26883D01*
X66908Y-26864D01*
X66891Y-26854D01*
X66874Y-26864D01*
X66865Y-26883D01*
X66874Y-26902D01*
X66891Y-26911D01*
X66908Y-26902D01*
X67309Y-27604D02*
X67249Y-27510D01*
X67206Y-27604D02*
X67206Y-27407D01*
X67275Y-27407D01*
X67292Y-27417D01*
X67300Y-27426D01*
X67309Y-27445D01*
X67309Y-27473D01*
X67300Y-27492D01*
X67292Y-27501D01*
X67275Y-27510D01*
X67206Y-27510D01*
X67369Y-27407D02*
X67480Y-27407D01*
X67420Y-27482D01*
X67446Y-27482D01*
X67463Y-27492D01*
X67472Y-27501D01*
X67480Y-27520D01*
X67480Y-27567D01*
X67472Y-27585D01*
X67463Y-27595D01*
X67446Y-27604D01*
X67395Y-27604D01*
X67377Y-27595D01*
X67369Y-27585D01*
X67643Y-27407D02*
X67557Y-27407D01*
X67549Y-27501D01*
X67557Y-27492D01*
X67575Y-27482D01*
X67617Y-27482D01*
X67635Y-27492D01*
X67643Y-27501D01*
X67652Y-27520D01*
X67652Y-27567D01*
X67643Y-27585D01*
X67635Y-27595D01*
X67617Y-27604D01*
X67575Y-27604D01*
X67557Y-27595D01*
X67549Y-27585D01*
X67035Y-26911D02*
X66932Y-26911D01*
X66984Y-26911D02*
X66984Y-26711D01*
X66967Y-26740D01*
X66950Y-26759D01*
X66932Y-26769D01*
X67147Y-26711D02*
X67164Y-26711D01*
X67181Y-26721D01*
X67190Y-26731D01*
X67198Y-26750D01*
X67207Y-26788D01*
X67207Y-26835D01*
X67198Y-26873D01*
X67190Y-26892D01*
X67181Y-26902D01*
X67164Y-26911D01*
X67147Y-26911D01*
X67130Y-26902D01*
X67121Y-26892D01*
X67112Y-26873D01*
X67104Y-26835D01*
X67104Y-26788D01*
X67112Y-26750D01*
X67121Y-26731D01*
X67130Y-26721D01*
X67147Y-26711D01*
X67284Y-26911D02*
X67284Y-26711D01*
X67301Y-26835D02*
X67352Y-26911D01*
X67352Y-26778D02*
X67284Y-26854D01*
X67661Y-26911D02*
X67558Y-26911D01*
X67610Y-26911D02*
X67610Y-26711D01*
X67592Y-26740D01*
X67575Y-26759D01*
X67558Y-26769D01*
X67730Y-26911D02*
X67867Y-26711D01*
X67755Y-26711D02*
X67772Y-26721D01*
X67781Y-26740D01*
X67772Y-26759D01*
X67755Y-26769D01*
X67738Y-26759D01*
X67730Y-26740D01*
X67738Y-26721D01*
X67755Y-26711D01*
X67858Y-26902D02*
X67867Y-26883D01*
X67858Y-26864D01*
X67841Y-26854D01*
X67824Y-26864D01*
X67815Y-26883D01*
X67824Y-26902D01*
X67841Y-26911D01*
X67858Y-26902D01*
X49104Y-12005D02*
X49010Y-12065D01*
X49104Y-12107D02*
X48907Y-12107D01*
X48907Y-12039D01*
X48917Y-12022D01*
X48926Y-12013D01*
X48945Y-12005D01*
X48973Y-12005D01*
X48992Y-12013D01*
X49001Y-12022D01*
X49010Y-12039D01*
X49010Y-12107D01*
X48907Y-11842D02*
X48907Y-11927D01*
X49001Y-11936D01*
X48992Y-11927D01*
X48982Y-11910D01*
X48982Y-11867D01*
X48992Y-11850D01*
X49001Y-11842D01*
X49020Y-11833D01*
X49067Y-11833D01*
X49085Y-11842D01*
X49095Y-11850D01*
X49104Y-11867D01*
X49104Y-11910D01*
X49095Y-11927D01*
X49085Y-11936D01*
X48278Y-12051D02*
X48411Y-12051D01*
X48202Y-12094D02*
X48345Y-12137D01*
X48345Y-12025D01*
X48211Y-11974D02*
X48211Y-11854D01*
X48411Y-11931D01*
X49604Y-29590D02*
X49510Y-29650D01*
X49604Y-29693D02*
X49407Y-29693D01*
X49407Y-29625D01*
X49417Y-29607D01*
X49426Y-29599D01*
X49445Y-29590D01*
X49473Y-29590D01*
X49492Y-29599D01*
X49501Y-29607D01*
X49510Y-29625D01*
X49510Y-29693D01*
X49604Y-29419D02*
X49604Y-29522D01*
X49604Y-29470D02*
X49407Y-29470D01*
X49435Y-29487D01*
X49454Y-29505D01*
X49464Y-29522D01*
X49473Y-29265D02*
X49604Y-29265D01*
X49398Y-29307D02*
X49539Y-29350D01*
X49539Y-29239D01*
X48731Y-29795D02*
X48721Y-29787D01*
X48711Y-29770D01*
X48711Y-29727D01*
X48721Y-29710D01*
X48731Y-29701D01*
X48750Y-29692D01*
X48769Y-29692D01*
X48797Y-29701D01*
X48911Y-29804D01*
X48911Y-29692D01*
X48731Y-29624D02*
X48721Y-29615D01*
X48711Y-29598D01*
X48711Y-29555D01*
X48721Y-29538D01*
X48731Y-29530D01*
X48750Y-29521D01*
X48769Y-29521D01*
X48797Y-29530D01*
X48911Y-29632D01*
X48911Y-29521D01*
X48711Y-29409D02*
X48711Y-29392D01*
X48721Y-29375D01*
X48731Y-29367D01*
X48750Y-29358D01*
X48788Y-29349D01*
X48835Y-29349D01*
X48873Y-29358D01*
X48892Y-29367D01*
X48902Y-29375D01*
X48911Y-29392D01*
X48911Y-29409D01*
X48902Y-29427D01*
X48892Y-29435D01*
X48873Y-29444D01*
X48835Y-29452D01*
X48788Y-29452D01*
X48750Y-29444D01*
X48731Y-29435D01*
X48721Y-29427D01*
X48711Y-29409D01*
X48911Y-29272D02*
X48711Y-29272D01*
X48835Y-29255D02*
X48911Y-29204D01*
X48778Y-29204D02*
X48854Y-29272D01*
X49604Y-24490D02*
X49510Y-24550D01*
X49604Y-24593D02*
X49407Y-24593D01*
X49407Y-24525D01*
X49417Y-24507D01*
X49426Y-24499D01*
X49445Y-24490D01*
X49473Y-24490D01*
X49492Y-24499D01*
X49501Y-24507D01*
X49510Y-24525D01*
X49510Y-24593D01*
X49604Y-24319D02*
X49604Y-24422D01*
X49604Y-24370D02*
X49407Y-24370D01*
X49435Y-24387D01*
X49454Y-24405D01*
X49464Y-24422D01*
X49426Y-24250D02*
X49417Y-24242D01*
X49407Y-24225D01*
X49407Y-24182D01*
X49417Y-24165D01*
X49426Y-24156D01*
X49445Y-24147D01*
X49464Y-24147D01*
X49492Y-24156D01*
X49604Y-24259D01*
X49604Y-24147D01*
X48778Y-24451D02*
X48911Y-24451D01*
X48702Y-24494D02*
X48845Y-24537D01*
X48845Y-24425D01*
X48711Y-24374D02*
X48711Y-24254D01*
X48911Y-24331D01*
X53409Y-27604D02*
X53349Y-27510D01*
X53306Y-27604D02*
X53306Y-27407D01*
X53375Y-27407D01*
X53392Y-27417D01*
X53400Y-27426D01*
X53409Y-27445D01*
X53409Y-27473D01*
X53400Y-27492D01*
X53392Y-27501D01*
X53375Y-27510D01*
X53306Y-27510D01*
X53580Y-27604D02*
X53477Y-27604D01*
X53529Y-27604D02*
X53529Y-27407D01*
X53512Y-27435D01*
X53495Y-27454D01*
X53477Y-27464D01*
X53743Y-27407D02*
X53657Y-27407D01*
X53649Y-27501D01*
X53657Y-27492D01*
X53675Y-27482D01*
X53717Y-27482D01*
X53735Y-27492D01*
X53743Y-27501D01*
X53752Y-27520D01*
X53752Y-27567D01*
X53743Y-27585D01*
X53735Y-27595D01*
X53717Y-27604D01*
X53675Y-27604D01*
X53657Y-27595D01*
X53649Y-27585D01*
X53448Y-26778D02*
X53448Y-26911D01*
X53405Y-26702D02*
X53362Y-26845D01*
X53474Y-26845D01*
X53525Y-26711D02*
X53645Y-26711D01*
X53568Y-26911D01*
X53409Y-33604D02*
X53349Y-33510D01*
X53306Y-33604D02*
X53306Y-33407D01*
X53375Y-33407D01*
X53392Y-33417D01*
X53400Y-33426D01*
X53409Y-33445D01*
X53409Y-33473D01*
X53400Y-33492D01*
X53392Y-33501D01*
X53375Y-33510D01*
X53306Y-33510D01*
X53580Y-33604D02*
X53477Y-33604D01*
X53529Y-33604D02*
X53529Y-33407D01*
X53512Y-33435D01*
X53495Y-33454D01*
X53477Y-33464D01*
X53735Y-33407D02*
X53700Y-33407D01*
X53683Y-33417D01*
X53675Y-33426D01*
X53657Y-33454D01*
X53649Y-33492D01*
X53649Y-33567D01*
X53657Y-33585D01*
X53666Y-33595D01*
X53683Y-33604D01*
X53717Y-33604D01*
X53735Y-33595D01*
X53743Y-33585D01*
X53752Y-33567D01*
X53752Y-33520D01*
X53743Y-33501D01*
X53735Y-33492D01*
X53717Y-33482D01*
X53683Y-33482D01*
X53666Y-33492D01*
X53657Y-33501D01*
X53649Y-33520D01*
X53448Y-32778D02*
X53448Y-32911D01*
X53405Y-32702D02*
X53362Y-32845D01*
X53474Y-32845D01*
X53525Y-32711D02*
X53645Y-32711D01*
X53568Y-32911D01*
X49604Y-30490D02*
X49510Y-30550D01*
X49604Y-30593D02*
X49407Y-30593D01*
X49407Y-30525D01*
X49417Y-30507D01*
X49426Y-30499D01*
X49445Y-30490D01*
X49473Y-30490D01*
X49492Y-30499D01*
X49501Y-30507D01*
X49510Y-30525D01*
X49510Y-30593D01*
X49604Y-30319D02*
X49604Y-30422D01*
X49604Y-30370D02*
X49407Y-30370D01*
X49435Y-30387D01*
X49454Y-30405D01*
X49464Y-30422D01*
X49407Y-30259D02*
X49407Y-30147D01*
X49482Y-30207D01*
X49482Y-30182D01*
X49492Y-30165D01*
X49501Y-30156D01*
X49520Y-30147D01*
X49567Y-30147D01*
X49585Y-30156D01*
X49595Y-30165D01*
X49604Y-30182D01*
X49604Y-30233D01*
X49595Y-30250D01*
X49585Y-30259D01*
X48778Y-30451D02*
X48911Y-30451D01*
X48702Y-30494D02*
X48845Y-30537D01*
X48845Y-30425D01*
X48711Y-30374D02*
X48711Y-30254D01*
X48911Y-30331D01*
X49604Y-35690D02*
X49510Y-35750D01*
X49604Y-35793D02*
X49407Y-35793D01*
X49407Y-35725D01*
X49417Y-35707D01*
X49426Y-35699D01*
X49445Y-35690D01*
X49473Y-35690D01*
X49492Y-35699D01*
X49501Y-35707D01*
X49510Y-35725D01*
X49510Y-35793D01*
X49604Y-35519D02*
X49604Y-35622D01*
X49604Y-35570D02*
X49407Y-35570D01*
X49435Y-35587D01*
X49454Y-35605D01*
X49464Y-35622D01*
X49407Y-35459D02*
X49407Y-35339D01*
X49604Y-35416D01*
X48731Y-35895D02*
X48721Y-35887D01*
X48711Y-35870D01*
X48711Y-35827D01*
X48721Y-35810D01*
X48731Y-35801D01*
X48750Y-35792D01*
X48769Y-35792D01*
X48797Y-35801D01*
X48911Y-35904D01*
X48911Y-35792D01*
X48731Y-35724D02*
X48721Y-35715D01*
X48711Y-35698D01*
X48711Y-35655D01*
X48721Y-35638D01*
X48731Y-35630D01*
X48750Y-35621D01*
X48769Y-35621D01*
X48797Y-35630D01*
X48911Y-35732D01*
X48911Y-35621D01*
X48711Y-35509D02*
X48711Y-35492D01*
X48721Y-35475D01*
X48731Y-35467D01*
X48750Y-35458D01*
X48788Y-35449D01*
X48835Y-35449D01*
X48873Y-35458D01*
X48892Y-35467D01*
X48902Y-35475D01*
X48911Y-35492D01*
X48911Y-35509D01*
X48902Y-35527D01*
X48892Y-35535D01*
X48873Y-35544D01*
X48835Y-35552D01*
X48788Y-35552D01*
X48750Y-35544D01*
X48731Y-35535D01*
X48721Y-35527D01*
X48711Y-35509D01*
X48911Y-35372D02*
X48711Y-35372D01*
X48835Y-35355D02*
X48911Y-35304D01*
X48778Y-35304D02*
X48854Y-35372D01*
X49704Y-23690D02*
X49610Y-23750D01*
X49704Y-23793D02*
X49507Y-23793D01*
X49507Y-23725D01*
X49517Y-23707D01*
X49526Y-23699D01*
X49545Y-23690D01*
X49573Y-23690D01*
X49592Y-23699D01*
X49601Y-23707D01*
X49610Y-23725D01*
X49610Y-23793D01*
X49704Y-23519D02*
X49704Y-23622D01*
X49704Y-23570D02*
X49507Y-23570D01*
X49535Y-23587D01*
X49554Y-23605D01*
X49564Y-23622D01*
X49507Y-23407D02*
X49507Y-23390D01*
X49517Y-23373D01*
X49526Y-23365D01*
X49545Y-23356D01*
X49582Y-23347D01*
X49629Y-23347D01*
X49667Y-23356D01*
X49685Y-23365D01*
X49695Y-23373D01*
X49704Y-23390D01*
X49704Y-23407D01*
X49695Y-23425D01*
X49685Y-23433D01*
X49667Y-23442D01*
X49629Y-23450D01*
X49582Y-23450D01*
X49545Y-23442D01*
X49526Y-23433D01*
X49517Y-23425D01*
X49507Y-23407D01*
X48831Y-23895D02*
X48821Y-23887D01*
X48811Y-23870D01*
X48811Y-23827D01*
X48821Y-23810D01*
X48831Y-23801D01*
X48850Y-23792D01*
X48869Y-23792D01*
X48897Y-23801D01*
X49011Y-23904D01*
X49011Y-23792D01*
X48831Y-23724D02*
X48821Y-23715D01*
X48811Y-23698D01*
X48811Y-23655D01*
X48821Y-23638D01*
X48831Y-23630D01*
X48850Y-23621D01*
X48869Y-23621D01*
X48897Y-23630D01*
X49011Y-23732D01*
X49011Y-23621D01*
X48811Y-23509D02*
X48811Y-23492D01*
X48821Y-23475D01*
X48831Y-23467D01*
X48850Y-23458D01*
X48888Y-23449D01*
X48935Y-23449D01*
X48973Y-23458D01*
X48992Y-23467D01*
X49002Y-23475D01*
X49011Y-23492D01*
X49011Y-23509D01*
X49002Y-23527D01*
X48992Y-23535D01*
X48973Y-23544D01*
X48935Y-23552D01*
X48888Y-23552D01*
X48850Y-23544D01*
X48831Y-23535D01*
X48821Y-23527D01*
X48811Y-23509D01*
X49011Y-23372D02*
X48811Y-23372D01*
X48935Y-23355D02*
X49011Y-23304D01*
X48878Y-23304D02*
X48954Y-23372D01*
X53495Y-15804D02*
X53435Y-15710D01*
X53392Y-15804D02*
X53392Y-15607D01*
X53460Y-15607D01*
X53477Y-15617D01*
X53486Y-15626D01*
X53495Y-15645D01*
X53495Y-15673D01*
X53486Y-15692D01*
X53477Y-15701D01*
X53460Y-15710D01*
X53392Y-15710D01*
X53597Y-15692D02*
X53580Y-15682D01*
X53572Y-15673D01*
X53563Y-15654D01*
X53563Y-15645D01*
X53572Y-15626D01*
X53580Y-15617D01*
X53597Y-15607D01*
X53632Y-15607D01*
X53649Y-15617D01*
X53657Y-15626D01*
X53666Y-15645D01*
X53666Y-15654D01*
X53657Y-15673D01*
X53649Y-15682D01*
X53632Y-15692D01*
X53597Y-15692D01*
X53580Y-15701D01*
X53572Y-15710D01*
X53563Y-15729D01*
X53563Y-15767D01*
X53572Y-15785D01*
X53580Y-15795D01*
X53597Y-15804D01*
X53632Y-15804D01*
X53649Y-15795D01*
X53657Y-15785D01*
X53666Y-15767D01*
X53666Y-15729D01*
X53657Y-15710D01*
X53649Y-15701D01*
X53632Y-15692D01*
X53448Y-14978D02*
X53448Y-15111D01*
X53405Y-14902D02*
X53362Y-15045D01*
X53474Y-15045D01*
X53525Y-14911D02*
X53645Y-14911D01*
X53568Y-15111D01*
X53495Y-21504D02*
X53435Y-21410D01*
X53392Y-21504D02*
X53392Y-21307D01*
X53460Y-21307D01*
X53477Y-21317D01*
X53486Y-21326D01*
X53495Y-21345D01*
X53495Y-21373D01*
X53486Y-21392D01*
X53477Y-21401D01*
X53460Y-21410D01*
X53392Y-21410D01*
X53580Y-21504D02*
X53615Y-21504D01*
X53632Y-21495D01*
X53640Y-21485D01*
X53657Y-21457D01*
X53666Y-21420D01*
X53666Y-21345D01*
X53657Y-21326D01*
X53649Y-21317D01*
X53632Y-21307D01*
X53597Y-21307D01*
X53580Y-21317D01*
X53572Y-21326D01*
X53563Y-21345D01*
X53563Y-21392D01*
X53572Y-21410D01*
X53580Y-21420D01*
X53597Y-21429D01*
X53632Y-21429D01*
X53649Y-21420D01*
X53657Y-21410D01*
X53666Y-21392D01*
X53448Y-20678D02*
X53448Y-20811D01*
X53405Y-20602D02*
X53362Y-20745D01*
X53474Y-20745D01*
X53525Y-20611D02*
X53645Y-20611D01*
X53568Y-20811D01*
X49704Y-18405D02*
X49610Y-18465D01*
X49704Y-18507D02*
X49507Y-18507D01*
X49507Y-18439D01*
X49517Y-18422D01*
X49526Y-18413D01*
X49545Y-18405D01*
X49573Y-18405D01*
X49592Y-18413D01*
X49601Y-18422D01*
X49610Y-18439D01*
X49610Y-18507D01*
X49507Y-18250D02*
X49507Y-18285D01*
X49517Y-18302D01*
X49526Y-18310D01*
X49554Y-18327D01*
X49592Y-18336D01*
X49667Y-18336D01*
X49685Y-18327D01*
X49695Y-18319D01*
X49704Y-18302D01*
X49704Y-18267D01*
X49695Y-18250D01*
X49685Y-18242D01*
X49667Y-18233D01*
X49620Y-18233D01*
X49601Y-18242D01*
X49592Y-18250D01*
X49582Y-18267D01*
X49582Y-18302D01*
X49592Y-18319D01*
X49601Y-18327D01*
X49620Y-18336D01*
X48878Y-18451D02*
X49011Y-18451D01*
X48802Y-18494D02*
X48945Y-18537D01*
X48945Y-18425D01*
X48811Y-18374D02*
X48811Y-18254D01*
X49011Y-18331D01*
X63311Y-20915D02*
X63321Y-20924D01*
X63330Y-20950D01*
X63330Y-20967D01*
X63321Y-20992D01*
X63302Y-21010D01*
X63283Y-21018D01*
X63245Y-21027D01*
X63216Y-21027D01*
X63178Y-21018D01*
X63159Y-21010D01*
X63140Y-20992D01*
X63130Y-20967D01*
X63130Y-20950D01*
X63140Y-20924D01*
X63150Y-20915D01*
X63330Y-20744D02*
X63330Y-20847D01*
X63330Y-20795D02*
X63130Y-20795D01*
X63159Y-20812D01*
X63178Y-20830D01*
X63188Y-20847D01*
X63197Y-20590D02*
X63330Y-20590D01*
X63121Y-20632D02*
X63264Y-20675D01*
X63264Y-20564D01*
X62480Y-20975D02*
X62480Y-21010D01*
X62490Y-21027D01*
X62500Y-21035D01*
X62528Y-21052D01*
X62566Y-21061D01*
X62642Y-21061D01*
X62661Y-21052D01*
X62671Y-21044D01*
X62680Y-21027D01*
X62680Y-20992D01*
X62671Y-20975D01*
X62661Y-20967D01*
X62642Y-20958D01*
X62595Y-20958D01*
X62576Y-20967D01*
X62566Y-20975D01*
X62557Y-20992D01*
X62557Y-21027D01*
X62566Y-21044D01*
X62576Y-21052D01*
X62595Y-21061D01*
X62661Y-20881D02*
X62671Y-20872D01*
X62680Y-20881D01*
X62671Y-20889D01*
X62661Y-20881D01*
X62680Y-20881D01*
X62566Y-20770D02*
X62557Y-20787D01*
X62547Y-20795D01*
X62528Y-20804D01*
X62519Y-20804D01*
X62500Y-20795D01*
X62490Y-20787D01*
X62480Y-20770D01*
X62480Y-20735D01*
X62490Y-20718D01*
X62500Y-20710D01*
X62519Y-20701D01*
X62528Y-20701D01*
X62547Y-20710D01*
X62557Y-20718D01*
X62566Y-20735D01*
X62566Y-20770D01*
X62576Y-20787D01*
X62585Y-20795D01*
X62604Y-20804D01*
X62642Y-20804D01*
X62661Y-20795D01*
X62671Y-20787D01*
X62680Y-20770D01*
X62680Y-20735D01*
X62671Y-20718D01*
X62661Y-20710D01*
X62642Y-20701D01*
X62604Y-20701D01*
X62585Y-20710D01*
X62576Y-20718D01*
X62566Y-20735D01*
X62547Y-20624D02*
X62680Y-20624D01*
X62566Y-20624D02*
X62557Y-20615D01*
X62547Y-20598D01*
X62547Y-20572D01*
X62557Y-20555D01*
X62576Y-20547D01*
X62680Y-20547D01*
X63311Y-15315D02*
X63321Y-15324D01*
X63330Y-15350D01*
X63330Y-15367D01*
X63321Y-15392D01*
X63302Y-15410D01*
X63283Y-15418D01*
X63245Y-15427D01*
X63216Y-15427D01*
X63178Y-15418D01*
X63159Y-15410D01*
X63140Y-15392D01*
X63130Y-15367D01*
X63130Y-15350D01*
X63140Y-15324D01*
X63150Y-15315D01*
X63330Y-15144D02*
X63330Y-15247D01*
X63330Y-15195D02*
X63130Y-15195D01*
X63159Y-15212D01*
X63178Y-15230D01*
X63188Y-15247D01*
X63130Y-15084D02*
X63130Y-14972D01*
X63207Y-15032D01*
X63207Y-15007D01*
X63216Y-14990D01*
X63226Y-14981D01*
X63245Y-14972D01*
X63292Y-14972D01*
X63311Y-14981D01*
X63321Y-14990D01*
X63330Y-15007D01*
X63330Y-15058D01*
X63321Y-15075D01*
X63311Y-15084D01*
X62480Y-15375D02*
X62480Y-15410D01*
X62490Y-15427D01*
X62500Y-15435D01*
X62528Y-15452D01*
X62566Y-15461D01*
X62642Y-15461D01*
X62661Y-15452D01*
X62671Y-15444D01*
X62680Y-15427D01*
X62680Y-15392D01*
X62671Y-15375D01*
X62661Y-15367D01*
X62642Y-15358D01*
X62595Y-15358D01*
X62576Y-15367D01*
X62566Y-15375D01*
X62557Y-15392D01*
X62557Y-15427D01*
X62566Y-15444D01*
X62576Y-15452D01*
X62595Y-15461D01*
X62661Y-15281D02*
X62671Y-15272D01*
X62680Y-15281D01*
X62671Y-15289D01*
X62661Y-15281D01*
X62680Y-15281D01*
X62566Y-15170D02*
X62557Y-15187D01*
X62547Y-15195D01*
X62528Y-15204D01*
X62519Y-15204D01*
X62500Y-15195D01*
X62490Y-15187D01*
X62480Y-15170D01*
X62480Y-15135D01*
X62490Y-15118D01*
X62500Y-15110D01*
X62519Y-15101D01*
X62528Y-15101D01*
X62547Y-15110D01*
X62557Y-15118D01*
X62566Y-15135D01*
X62566Y-15170D01*
X62576Y-15187D01*
X62585Y-15195D01*
X62604Y-15204D01*
X62642Y-15204D01*
X62661Y-15195D01*
X62671Y-15187D01*
X62680Y-15170D01*
X62680Y-15135D01*
X62671Y-15118D01*
X62661Y-15110D01*
X62642Y-15101D01*
X62604Y-15101D01*
X62585Y-15110D01*
X62576Y-15118D01*
X62566Y-15135D01*
X62547Y-15024D02*
X62680Y-15024D01*
X62566Y-15024D02*
X62557Y-15015D01*
X62547Y-14998D01*
X62547Y-14972D01*
X62557Y-14955D01*
X62576Y-14947D01*
X62680Y-14947D01*
X51570Y-27561D02*
X51561Y-27571D01*
X51535Y-27580D01*
X51518Y-27580D01*
X51492Y-27571D01*
X51475Y-27552D01*
X51467Y-27533D01*
X51458Y-27495D01*
X51458Y-27466D01*
X51467Y-27428D01*
X51475Y-27409D01*
X51492Y-27390D01*
X51518Y-27380D01*
X51535Y-27380D01*
X51561Y-27390D01*
X51570Y-27400D01*
X51655Y-27580D02*
X51690Y-27580D01*
X51707Y-27571D01*
X51715Y-27561D01*
X51732Y-27533D01*
X51741Y-27495D01*
X51741Y-27419D01*
X51732Y-27400D01*
X51724Y-27390D01*
X51707Y-27380D01*
X51672Y-27380D01*
X51655Y-27390D01*
X51647Y-27400D01*
X51638Y-27419D01*
X51638Y-27466D01*
X51647Y-27485D01*
X51655Y-27495D01*
X51672Y-27504D01*
X51707Y-27504D01*
X51724Y-27495D01*
X51732Y-27485D01*
X51741Y-27466D01*
X51398Y-26930D02*
X51295Y-26930D01*
X51347Y-26930D02*
X51347Y-26730D01*
X51329Y-26759D01*
X51312Y-26778D01*
X51295Y-26788D01*
X51510Y-26730D02*
X51527Y-26730D01*
X51544Y-26740D01*
X51552Y-26750D01*
X51561Y-26769D01*
X51570Y-26807D01*
X51570Y-26854D01*
X51561Y-26892D01*
X51552Y-26911D01*
X51544Y-26921D01*
X51527Y-26930D01*
X51510Y-26930D01*
X51492Y-26921D01*
X51484Y-26911D01*
X51475Y-26892D01*
X51467Y-26854D01*
X51467Y-26807D01*
X51475Y-26769D01*
X51484Y-26750D01*
X51492Y-26740D01*
X51510Y-26730D01*
X51681Y-26730D02*
X51698Y-26730D01*
X51715Y-26740D01*
X51724Y-26750D01*
X51732Y-26769D01*
X51741Y-26807D01*
X51741Y-26854D01*
X51732Y-26892D01*
X51724Y-26911D01*
X51715Y-26921D01*
X51698Y-26930D01*
X51681Y-26930D01*
X51664Y-26921D01*
X51655Y-26911D01*
X51647Y-26892D01*
X51638Y-26854D01*
X51638Y-26807D01*
X51647Y-26769D01*
X51655Y-26750D01*
X51664Y-26740D01*
X51681Y-26730D01*
X51818Y-26797D02*
X51818Y-26930D01*
X51818Y-26816D02*
X51827Y-26807D01*
X51844Y-26797D01*
X51870Y-26797D01*
X51887Y-26807D01*
X51895Y-26826D01*
X51895Y-26930D01*
X51570Y-15561D02*
X51561Y-15571D01*
X51535Y-15580D01*
X51518Y-15580D01*
X51492Y-15571D01*
X51475Y-15552D01*
X51467Y-15533D01*
X51458Y-15495D01*
X51458Y-15466D01*
X51467Y-15428D01*
X51475Y-15409D01*
X51492Y-15390D01*
X51518Y-15380D01*
X51535Y-15380D01*
X51561Y-15390D01*
X51570Y-15400D01*
X51732Y-15380D02*
X51647Y-15380D01*
X51638Y-15476D01*
X51647Y-15466D01*
X51664Y-15457D01*
X51707Y-15457D01*
X51724Y-15466D01*
X51732Y-15476D01*
X51741Y-15495D01*
X51741Y-15542D01*
X51732Y-15561D01*
X51724Y-15571D01*
X51707Y-15580D01*
X51664Y-15580D01*
X51647Y-15571D01*
X51638Y-15561D01*
X51398Y-14930D02*
X51295Y-14930D01*
X51347Y-14930D02*
X51347Y-14730D01*
X51329Y-14759D01*
X51312Y-14778D01*
X51295Y-14788D01*
X51510Y-14730D02*
X51527Y-14730D01*
X51544Y-14740D01*
X51552Y-14750D01*
X51561Y-14769D01*
X51570Y-14807D01*
X51570Y-14854D01*
X51561Y-14892D01*
X51552Y-14911D01*
X51544Y-14921D01*
X51527Y-14930D01*
X51510Y-14930D01*
X51492Y-14921D01*
X51484Y-14911D01*
X51475Y-14892D01*
X51467Y-14854D01*
X51467Y-14807D01*
X51475Y-14769D01*
X51484Y-14750D01*
X51492Y-14740D01*
X51510Y-14730D01*
X51681Y-14730D02*
X51698Y-14730D01*
X51715Y-14740D01*
X51724Y-14750D01*
X51732Y-14769D01*
X51741Y-14807D01*
X51741Y-14854D01*
X51732Y-14892D01*
X51724Y-14911D01*
X51715Y-14921D01*
X51698Y-14930D01*
X51681Y-14930D01*
X51664Y-14921D01*
X51655Y-14911D01*
X51647Y-14892D01*
X51638Y-14854D01*
X51638Y-14807D01*
X51647Y-14769D01*
X51655Y-14750D01*
X51664Y-14740D01*
X51681Y-14730D01*
X51818Y-14797D02*
X51818Y-14930D01*
X51818Y-14816D02*
X51827Y-14807D01*
X51844Y-14797D01*
X51870Y-14797D01*
X51887Y-14807D01*
X51895Y-14826D01*
X51895Y-14930D01*
X48270Y-20861D02*
X48261Y-20871D01*
X48235Y-20880D01*
X48218Y-20880D01*
X48192Y-20871D01*
X48175Y-20852D01*
X48167Y-20833D01*
X48158Y-20795D01*
X48158Y-20766D01*
X48167Y-20728D01*
X48175Y-20709D01*
X48192Y-20690D01*
X48218Y-20680D01*
X48235Y-20680D01*
X48261Y-20690D01*
X48270Y-20700D01*
X48424Y-20747D02*
X48424Y-20880D01*
X48381Y-20671D02*
X48338Y-20814D01*
X48450Y-20814D01*
X48098Y-20230D02*
X47995Y-20230D01*
X48047Y-20230D02*
X48047Y-20030D01*
X48029Y-20059D01*
X48012Y-20078D01*
X47995Y-20088D01*
X48210Y-20030D02*
X48227Y-20030D01*
X48244Y-20040D01*
X48252Y-20050D01*
X48261Y-20069D01*
X48270Y-20107D01*
X48270Y-20154D01*
X48261Y-20192D01*
X48252Y-20211D01*
X48244Y-20221D01*
X48227Y-20230D01*
X48210Y-20230D01*
X48192Y-20221D01*
X48184Y-20211D01*
X48175Y-20192D01*
X48167Y-20154D01*
X48167Y-20107D01*
X48175Y-20069D01*
X48184Y-20050D01*
X48192Y-20040D01*
X48210Y-20030D01*
X48381Y-20030D02*
X48398Y-20030D01*
X48415Y-20040D01*
X48424Y-20050D01*
X48432Y-20069D01*
X48441Y-20107D01*
X48441Y-20154D01*
X48432Y-20192D01*
X48424Y-20211D01*
X48415Y-20221D01*
X48398Y-20230D01*
X48381Y-20230D01*
X48364Y-20221D01*
X48355Y-20211D01*
X48347Y-20192D01*
X48338Y-20154D01*
X48338Y-20107D01*
X48347Y-20069D01*
X48355Y-20050D01*
X48364Y-20040D01*
X48381Y-20030D01*
X48518Y-20097D02*
X48518Y-20230D01*
X48518Y-20116D02*
X48527Y-20107D01*
X48544Y-20097D01*
X48570Y-20097D01*
X48587Y-20107D01*
X48595Y-20126D01*
X48595Y-20230D01*
X48270Y-26861D02*
X48261Y-26871D01*
X48235Y-26880D01*
X48218Y-26880D01*
X48192Y-26871D01*
X48175Y-26852D01*
X48167Y-26833D01*
X48158Y-26795D01*
X48158Y-26766D01*
X48167Y-26728D01*
X48175Y-26709D01*
X48192Y-26690D01*
X48218Y-26680D01*
X48235Y-26680D01*
X48261Y-26690D01*
X48270Y-26700D01*
X48330Y-26680D02*
X48450Y-26680D01*
X48372Y-26880D01*
X48098Y-26230D02*
X47995Y-26230D01*
X48047Y-26230D02*
X48047Y-26030D01*
X48029Y-26059D01*
X48012Y-26078D01*
X47995Y-26088D01*
X48210Y-26030D02*
X48227Y-26030D01*
X48244Y-26040D01*
X48252Y-26050D01*
X48261Y-26069D01*
X48270Y-26107D01*
X48270Y-26154D01*
X48261Y-26192D01*
X48252Y-26211D01*
X48244Y-26221D01*
X48227Y-26230D01*
X48210Y-26230D01*
X48192Y-26221D01*
X48184Y-26211D01*
X48175Y-26192D01*
X48167Y-26154D01*
X48167Y-26107D01*
X48175Y-26069D01*
X48184Y-26050D01*
X48192Y-26040D01*
X48210Y-26030D01*
X48381Y-26030D02*
X48398Y-26030D01*
X48415Y-26040D01*
X48424Y-26050D01*
X48432Y-26069D01*
X48441Y-26107D01*
X48441Y-26154D01*
X48432Y-26192D01*
X48424Y-26211D01*
X48415Y-26221D01*
X48398Y-26230D01*
X48381Y-26230D01*
X48364Y-26221D01*
X48355Y-26211D01*
X48347Y-26192D01*
X48338Y-26154D01*
X48338Y-26107D01*
X48347Y-26069D01*
X48355Y-26050D01*
X48364Y-26040D01*
X48381Y-26030D01*
X48518Y-26097D02*
X48518Y-26230D01*
X48518Y-26116D02*
X48527Y-26107D01*
X48544Y-26097D01*
X48570Y-26097D01*
X48587Y-26107D01*
X48595Y-26126D01*
X48595Y-26230D01*
X65961Y-15315D02*
X65971Y-15324D01*
X65980Y-15350D01*
X65980Y-15367D01*
X65971Y-15392D01*
X65952Y-15410D01*
X65933Y-15418D01*
X65895Y-15427D01*
X65866Y-15427D01*
X65828Y-15418D01*
X65809Y-15410D01*
X65790Y-15392D01*
X65780Y-15367D01*
X65780Y-15350D01*
X65790Y-15324D01*
X65800Y-15315D01*
X65980Y-15144D02*
X65980Y-15247D01*
X65980Y-15195D02*
X65780Y-15195D01*
X65809Y-15212D01*
X65828Y-15230D01*
X65838Y-15247D01*
X65780Y-14990D02*
X65780Y-15024D01*
X65790Y-15041D01*
X65800Y-15050D01*
X65828Y-15067D01*
X65866Y-15075D01*
X65942Y-15075D01*
X65961Y-15067D01*
X65971Y-15058D01*
X65980Y-15041D01*
X65980Y-15007D01*
X65971Y-14990D01*
X65961Y-14981D01*
X65942Y-14972D01*
X65895Y-14972D01*
X65876Y-14981D01*
X65866Y-14990D01*
X65857Y-15007D01*
X65857Y-15041D01*
X65866Y-15058D01*
X65876Y-15067D01*
X65895Y-15075D01*
X66430Y-15375D02*
X66430Y-15410D01*
X66440Y-15427D01*
X66450Y-15435D01*
X66478Y-15452D01*
X66516Y-15461D01*
X66592Y-15461D01*
X66611Y-15452D01*
X66621Y-15444D01*
X66630Y-15427D01*
X66630Y-15392D01*
X66621Y-15375D01*
X66611Y-15367D01*
X66592Y-15358D01*
X66545Y-15358D01*
X66526Y-15367D01*
X66516Y-15375D01*
X66507Y-15392D01*
X66507Y-15427D01*
X66516Y-15444D01*
X66526Y-15452D01*
X66545Y-15461D01*
X66611Y-15281D02*
X66621Y-15272D01*
X66630Y-15281D01*
X66621Y-15289D01*
X66611Y-15281D01*
X66630Y-15281D01*
X66516Y-15170D02*
X66507Y-15187D01*
X66497Y-15195D01*
X66478Y-15204D01*
X66469Y-15204D01*
X66450Y-15195D01*
X66440Y-15187D01*
X66430Y-15170D01*
X66430Y-15135D01*
X66440Y-15118D01*
X66450Y-15110D01*
X66469Y-15101D01*
X66478Y-15101D01*
X66497Y-15110D01*
X66507Y-15118D01*
X66516Y-15135D01*
X66516Y-15170D01*
X66526Y-15187D01*
X66535Y-15195D01*
X66554Y-15204D01*
X66592Y-15204D01*
X66611Y-15195D01*
X66621Y-15187D01*
X66630Y-15170D01*
X66630Y-15135D01*
X66621Y-15118D01*
X66611Y-15110D01*
X66592Y-15101D01*
X66554Y-15101D01*
X66535Y-15110D01*
X66526Y-15118D01*
X66516Y-15135D01*
X66497Y-15024D02*
X66630Y-15024D01*
X66516Y-15024D02*
X66507Y-15015D01*
X66497Y-14998D01*
X66497Y-14972D01*
X66507Y-14955D01*
X66526Y-14947D01*
X66630Y-14947D01*
X66261Y-21215D02*
X66271Y-21224D01*
X66280Y-21250D01*
X66280Y-21267D01*
X66271Y-21292D01*
X66252Y-21310D01*
X66233Y-21318D01*
X66195Y-21327D01*
X66166Y-21327D01*
X66128Y-21318D01*
X66109Y-21310D01*
X66090Y-21292D01*
X66080Y-21267D01*
X66080Y-21250D01*
X66090Y-21224D01*
X66100Y-21215D01*
X66280Y-21044D02*
X66280Y-21147D01*
X66280Y-21095D02*
X66080Y-21095D01*
X66109Y-21112D01*
X66128Y-21130D01*
X66138Y-21147D01*
X66080Y-20881D02*
X66080Y-20967D01*
X66176Y-20975D01*
X66166Y-20967D01*
X66157Y-20950D01*
X66157Y-20907D01*
X66166Y-20890D01*
X66176Y-20881D01*
X66195Y-20872D01*
X66242Y-20872D01*
X66261Y-20881D01*
X66271Y-20890D01*
X66280Y-20907D01*
X66280Y-20950D01*
X66271Y-20967D01*
X66261Y-20975D01*
X66730Y-21275D02*
X66730Y-21310D01*
X66740Y-21327D01*
X66750Y-21335D01*
X66778Y-21352D01*
X66816Y-21361D01*
X66892Y-21361D01*
X66911Y-21352D01*
X66921Y-21344D01*
X66930Y-21327D01*
X66930Y-21292D01*
X66921Y-21275D01*
X66911Y-21267D01*
X66892Y-21258D01*
X66845Y-21258D01*
X66826Y-21267D01*
X66816Y-21275D01*
X66807Y-21292D01*
X66807Y-21327D01*
X66816Y-21344D01*
X66826Y-21352D01*
X66845Y-21361D01*
X66911Y-21181D02*
X66921Y-21172D01*
X66930Y-21181D01*
X66921Y-21189D01*
X66911Y-21181D01*
X66930Y-21181D01*
X66816Y-21070D02*
X66807Y-21087D01*
X66797Y-21095D01*
X66778Y-21104D01*
X66769Y-21104D01*
X66750Y-21095D01*
X66740Y-21087D01*
X66730Y-21070D01*
X66730Y-21035D01*
X66740Y-21018D01*
X66750Y-21010D01*
X66769Y-21001D01*
X66778Y-21001D01*
X66797Y-21010D01*
X66807Y-21018D01*
X66816Y-21035D01*
X66816Y-21070D01*
X66826Y-21087D01*
X66835Y-21095D01*
X66854Y-21104D01*
X66892Y-21104D01*
X66911Y-21095D01*
X66921Y-21087D01*
X66930Y-21070D01*
X66930Y-21035D01*
X66921Y-21018D01*
X66911Y-21010D01*
X66892Y-21001D01*
X66854Y-21001D01*
X66835Y-21010D01*
X66826Y-21018D01*
X66816Y-21035D01*
X66797Y-20924D02*
X66930Y-20924D01*
X66816Y-20924D02*
X66807Y-20915D01*
X66797Y-20898D01*
X66797Y-20872D01*
X66807Y-20855D01*
X66826Y-20847D01*
X66930Y-20847D01*
X48270Y-14761D02*
X48261Y-14771D01*
X48235Y-14780D01*
X48218Y-14780D01*
X48192Y-14771D01*
X48175Y-14752D01*
X48167Y-14733D01*
X48158Y-14695D01*
X48158Y-14666D01*
X48167Y-14628D01*
X48175Y-14609D01*
X48192Y-14590D01*
X48218Y-14580D01*
X48235Y-14580D01*
X48261Y-14590D01*
X48270Y-14600D01*
X48330Y-14580D02*
X48441Y-14580D01*
X48381Y-14657D01*
X48407Y-14657D01*
X48424Y-14666D01*
X48432Y-14676D01*
X48441Y-14695D01*
X48441Y-14742D01*
X48432Y-14761D01*
X48424Y-14771D01*
X48407Y-14780D01*
X48355Y-14780D01*
X48338Y-14771D01*
X48330Y-14761D01*
X48098Y-14130D02*
X47995Y-14130D01*
X48047Y-14130D02*
X48047Y-13930D01*
X48029Y-13959D01*
X48012Y-13978D01*
X47995Y-13988D01*
X48210Y-13930D02*
X48227Y-13930D01*
X48244Y-13940D01*
X48252Y-13950D01*
X48261Y-13969D01*
X48270Y-14007D01*
X48270Y-14054D01*
X48261Y-14092D01*
X48252Y-14111D01*
X48244Y-14121D01*
X48227Y-14130D01*
X48210Y-14130D01*
X48192Y-14121D01*
X48184Y-14111D01*
X48175Y-14092D01*
X48167Y-14054D01*
X48167Y-14007D01*
X48175Y-13969D01*
X48184Y-13950D01*
X48192Y-13940D01*
X48210Y-13930D01*
X48381Y-13930D02*
X48398Y-13930D01*
X48415Y-13940D01*
X48424Y-13950D01*
X48432Y-13969D01*
X48441Y-14007D01*
X48441Y-14054D01*
X48432Y-14092D01*
X48424Y-14111D01*
X48415Y-14121D01*
X48398Y-14130D01*
X48381Y-14130D01*
X48364Y-14121D01*
X48355Y-14111D01*
X48347Y-14092D01*
X48338Y-14054D01*
X48338Y-14007D01*
X48347Y-13969D01*
X48355Y-13950D01*
X48364Y-13940D01*
X48381Y-13930D01*
X48518Y-13997D02*
X48518Y-14130D01*
X48518Y-14016D02*
X48527Y-14007D01*
X48544Y-13997D01*
X48570Y-13997D01*
X48587Y-14007D01*
X48595Y-14026D01*
X48595Y-14130D01*
X48270Y-32861D02*
X48261Y-32871D01*
X48235Y-32880D01*
X48218Y-32880D01*
X48192Y-32871D01*
X48175Y-32852D01*
X48167Y-32833D01*
X48158Y-32795D01*
X48158Y-32766D01*
X48167Y-32728D01*
X48175Y-32709D01*
X48192Y-32690D01*
X48218Y-32680D01*
X48235Y-32680D01*
X48261Y-32690D01*
X48270Y-32700D01*
X48372Y-32766D02*
X48355Y-32757D01*
X48347Y-32747D01*
X48338Y-32728D01*
X48338Y-32719D01*
X48347Y-32700D01*
X48355Y-32690D01*
X48372Y-32680D01*
X48407Y-32680D01*
X48424Y-32690D01*
X48432Y-32700D01*
X48441Y-32719D01*
X48441Y-32728D01*
X48432Y-32747D01*
X48424Y-32757D01*
X48407Y-32766D01*
X48372Y-32766D01*
X48355Y-32776D01*
X48347Y-32785D01*
X48338Y-32804D01*
X48338Y-32842D01*
X48347Y-32861D01*
X48355Y-32871D01*
X48372Y-32880D01*
X48407Y-32880D01*
X48424Y-32871D01*
X48432Y-32861D01*
X48441Y-32842D01*
X48441Y-32804D01*
X48432Y-32785D01*
X48424Y-32776D01*
X48407Y-32766D01*
X48098Y-32230D02*
X47995Y-32230D01*
X48047Y-32230D02*
X48047Y-32030D01*
X48029Y-32059D01*
X48012Y-32078D01*
X47995Y-32088D01*
X48210Y-32030D02*
X48227Y-32030D01*
X48244Y-32040D01*
X48252Y-32050D01*
X48261Y-32069D01*
X48270Y-32107D01*
X48270Y-32154D01*
X48261Y-32192D01*
X48252Y-32211D01*
X48244Y-32221D01*
X48227Y-32230D01*
X48210Y-32230D01*
X48192Y-32221D01*
X48184Y-32211D01*
X48175Y-32192D01*
X48167Y-32154D01*
X48167Y-32107D01*
X48175Y-32069D01*
X48184Y-32050D01*
X48192Y-32040D01*
X48210Y-32030D01*
X48381Y-32030D02*
X48398Y-32030D01*
X48415Y-32040D01*
X48424Y-32050D01*
X48432Y-32069D01*
X48441Y-32107D01*
X48441Y-32154D01*
X48432Y-32192D01*
X48424Y-32211D01*
X48415Y-32221D01*
X48398Y-32230D01*
X48381Y-32230D01*
X48364Y-32221D01*
X48355Y-32211D01*
X48347Y-32192D01*
X48338Y-32154D01*
X48338Y-32107D01*
X48347Y-32069D01*
X48355Y-32050D01*
X48364Y-32040D01*
X48381Y-32030D01*
X48518Y-32097D02*
X48518Y-32230D01*
X48518Y-32116D02*
X48527Y-32107D01*
X48544Y-32097D01*
X48570Y-32097D01*
X48587Y-32107D01*
X48595Y-32126D01*
X48595Y-32230D01*
X51570Y-21561D02*
X51561Y-21571D01*
X51535Y-21580D01*
X51518Y-21580D01*
X51492Y-21571D01*
X51475Y-21552D01*
X51467Y-21533D01*
X51458Y-21495D01*
X51458Y-21466D01*
X51467Y-21428D01*
X51475Y-21409D01*
X51492Y-21390D01*
X51518Y-21380D01*
X51535Y-21380D01*
X51561Y-21390D01*
X51570Y-21400D01*
X51724Y-21380D02*
X51690Y-21380D01*
X51672Y-21390D01*
X51664Y-21400D01*
X51647Y-21428D01*
X51638Y-21466D01*
X51638Y-21542D01*
X51647Y-21561D01*
X51655Y-21571D01*
X51672Y-21580D01*
X51707Y-21580D01*
X51724Y-21571D01*
X51732Y-21561D01*
X51741Y-21542D01*
X51741Y-21495D01*
X51732Y-21476D01*
X51724Y-21466D01*
X51707Y-21457D01*
X51672Y-21457D01*
X51655Y-21466D01*
X51647Y-21476D01*
X51638Y-21495D01*
X51398Y-20930D02*
X51295Y-20930D01*
X51347Y-20930D02*
X51347Y-20730D01*
X51329Y-20759D01*
X51312Y-20778D01*
X51295Y-20788D01*
X51510Y-20730D02*
X51527Y-20730D01*
X51544Y-20740D01*
X51552Y-20750D01*
X51561Y-20769D01*
X51570Y-20807D01*
X51570Y-20854D01*
X51561Y-20892D01*
X51552Y-20911D01*
X51544Y-20921D01*
X51527Y-20930D01*
X51510Y-20930D01*
X51492Y-20921D01*
X51484Y-20911D01*
X51475Y-20892D01*
X51467Y-20854D01*
X51467Y-20807D01*
X51475Y-20769D01*
X51484Y-20750D01*
X51492Y-20740D01*
X51510Y-20730D01*
X51681Y-20730D02*
X51698Y-20730D01*
X51715Y-20740D01*
X51724Y-20750D01*
X51732Y-20769D01*
X51741Y-20807D01*
X51741Y-20854D01*
X51732Y-20892D01*
X51724Y-20911D01*
X51715Y-20921D01*
X51698Y-20930D01*
X51681Y-20930D01*
X51664Y-20921D01*
X51655Y-20911D01*
X51647Y-20892D01*
X51638Y-20854D01*
X51638Y-20807D01*
X51647Y-20769D01*
X51655Y-20750D01*
X51664Y-20740D01*
X51681Y-20730D01*
X51818Y-20797D02*
X51818Y-20930D01*
X51818Y-20816D02*
X51827Y-20807D01*
X51844Y-20797D01*
X51870Y-20797D01*
X51887Y-20807D01*
X51895Y-20826D01*
X51895Y-20930D01*
X51484Y-33561D02*
X51475Y-33571D01*
X51450Y-33580D01*
X51432Y-33580D01*
X51407Y-33571D01*
X51390Y-33552D01*
X51381Y-33533D01*
X51372Y-33495D01*
X51372Y-33466D01*
X51381Y-33428D01*
X51390Y-33409D01*
X51407Y-33390D01*
X51432Y-33380D01*
X51450Y-33380D01*
X51475Y-33390D01*
X51484Y-33400D01*
X51655Y-33580D02*
X51552Y-33580D01*
X51604Y-33580D02*
X51604Y-33380D01*
X51587Y-33409D01*
X51570Y-33428D01*
X51552Y-33438D01*
X51767Y-33380D02*
X51784Y-33380D01*
X51801Y-33390D01*
X51810Y-33400D01*
X51818Y-33419D01*
X51827Y-33457D01*
X51827Y-33504D01*
X51818Y-33542D01*
X51810Y-33561D01*
X51801Y-33571D01*
X51784Y-33580D01*
X51767Y-33580D01*
X51750Y-33571D01*
X51741Y-33561D01*
X51732Y-33542D01*
X51724Y-33504D01*
X51724Y-33457D01*
X51732Y-33419D01*
X51741Y-33400D01*
X51750Y-33390D01*
X51767Y-33380D01*
X51398Y-32930D02*
X51295Y-32930D01*
X51347Y-32930D02*
X51347Y-32730D01*
X51329Y-32759D01*
X51312Y-32778D01*
X51295Y-32788D01*
X51510Y-32730D02*
X51527Y-32730D01*
X51544Y-32740D01*
X51552Y-32750D01*
X51561Y-32769D01*
X51570Y-32807D01*
X51570Y-32854D01*
X51561Y-32892D01*
X51552Y-32911D01*
X51544Y-32921D01*
X51527Y-32930D01*
X51510Y-32930D01*
X51492Y-32921D01*
X51484Y-32911D01*
X51475Y-32892D01*
X51467Y-32854D01*
X51467Y-32807D01*
X51475Y-32769D01*
X51484Y-32750D01*
X51492Y-32740D01*
X51510Y-32730D01*
X51681Y-32730D02*
X51698Y-32730D01*
X51715Y-32740D01*
X51724Y-32750D01*
X51732Y-32769D01*
X51741Y-32807D01*
X51741Y-32854D01*
X51732Y-32892D01*
X51724Y-32911D01*
X51715Y-32921D01*
X51698Y-32930D01*
X51681Y-32930D01*
X51664Y-32921D01*
X51655Y-32911D01*
X51647Y-32892D01*
X51638Y-32854D01*
X51638Y-32807D01*
X51647Y-32769D01*
X51655Y-32750D01*
X51664Y-32740D01*
X51681Y-32730D01*
X51818Y-32797D02*
X51818Y-32930D01*
X51818Y-32816D02*
X51827Y-32807D01*
X51844Y-32797D01*
X51870Y-32797D01*
X51887Y-32807D01*
X51895Y-32826D01*
X51895Y-32930D01*
G54D17*
X72280Y-31976D02*
X72280Y-31293D01*
X72524Y-31976D02*
X72341Y-31586D01*
X72524Y-31293D02*
X72280Y-31683D01*
X72932Y-31976D02*
X72687Y-31976D01*
X72810Y-31976D02*
X72810Y-31293D01*
X72769Y-31391D01*
X72728Y-31456D01*
X72687Y-31488D01*
X73197Y-31293D02*
X73238Y-31293D01*
X73278Y-31325D01*
X73299Y-31358D01*
X73319Y-31423D01*
X73340Y-31553D01*
X73340Y-31716D01*
X73319Y-31846D01*
X73299Y-31911D01*
X73278Y-31943D01*
X73238Y-31976D01*
X73197Y-31976D01*
X73156Y-31943D01*
X73136Y-31911D01*
X73115Y-31846D01*
X73095Y-31716D01*
X73095Y-31553D01*
X73115Y-31423D01*
X73136Y-31358D01*
X73156Y-31325D01*
X73197Y-31293D01*
G54D12*
X57383Y-22633D02*
X57383Y-23200D01*
X57416Y-23266D01*
X57450Y-23300D01*
X57516Y-23333D01*
X57650Y-23333D01*
X57716Y-23300D01*
X57750Y-23266D01*
X57783Y-23200D01*
X57783Y-22633D01*
X58483Y-23333D02*
X58083Y-23333D01*
X58283Y-23333D02*
X58283Y-22633D01*
X58216Y-22733D01*
X58150Y-22800D01*
X58083Y-22833D01*
X58916Y-22633D02*
X58983Y-22633D01*
X59050Y-22666D01*
X59083Y-22700D01*
X59116Y-22766D01*
X59150Y-22900D01*
X59150Y-23066D01*
X59116Y-23200D01*
X59083Y-23266D01*
X59050Y-23300D01*
X58983Y-23333D01*
X58916Y-23333D01*
X58850Y-23300D01*
X58816Y-23266D01*
X58783Y-23200D01*
X58750Y-23066D01*
X58750Y-22900D01*
X58783Y-22766D01*
X58816Y-22700D01*
X58850Y-22666D01*
X58916Y-22633D01*
X60683Y-28133D02*
X60683Y-27433D01*
X60950Y-27433D01*
X61016Y-27466D01*
X61050Y-27500D01*
X61083Y-27566D01*
X61083Y-27666D01*
X61050Y-27733D01*
X61016Y-27766D01*
X60950Y-27800D01*
X60683Y-27800D01*
X61383Y-28133D02*
X61383Y-27433D01*
X62116Y-28066D02*
X62083Y-28100D01*
X61983Y-28133D01*
X61916Y-28133D01*
X61816Y-28100D01*
X61750Y-28033D01*
X61716Y-27966D01*
X61683Y-27833D01*
X61683Y-27733D01*
X61716Y-27600D01*
X61750Y-27533D01*
X61816Y-27466D01*
X61916Y-27433D01*
X61983Y-27433D01*
X62083Y-27466D01*
X62116Y-27500D01*
X62350Y-27433D02*
X62783Y-27433D01*
X62550Y-27700D01*
X62650Y-27700D01*
X62716Y-27733D01*
X62750Y-27766D01*
X62783Y-27833D01*
X62783Y-28000D01*
X62750Y-28066D01*
X62716Y-28100D01*
X62650Y-28133D01*
X62450Y-28133D01*
X62383Y-28100D01*
X62350Y-28066D01*
X63050Y-27500D02*
X63083Y-27466D01*
X63150Y-27433D01*
X63316Y-27433D01*
X63383Y-27466D01*
X63416Y-27500D01*
X63450Y-27566D01*
X63450Y-27633D01*
X63416Y-27733D01*
X63016Y-28133D01*
X63450Y-28133D01*
X63750Y-28133D02*
X63750Y-27433D01*
X63983Y-27933D01*
X64216Y-27433D01*
X64216Y-28133D01*
X64483Y-27433D02*
X64950Y-28133D01*
X64950Y-27433D02*
X64483Y-28133D01*
X65150Y-27433D02*
X65616Y-27433D01*
X65316Y-28133D01*
X65916Y-28133D02*
X66050Y-28133D01*
X66116Y-28100D01*
X66150Y-28066D01*
X66216Y-27966D01*
X66250Y-27833D01*
X66250Y-27566D01*
X66216Y-27500D01*
X66183Y-27466D01*
X66116Y-27433D01*
X65983Y-27433D01*
X65916Y-27466D01*
X65883Y-27500D01*
X65850Y-27566D01*
X65850Y-27733D01*
X65883Y-27800D01*
X65916Y-27833D01*
X65983Y-27866D01*
X66116Y-27866D01*
X66183Y-27833D01*
X66216Y-27800D01*
X66250Y-27733D01*
X66883Y-27433D02*
X66550Y-27433D01*
X66516Y-27766D01*
X66550Y-27733D01*
X66616Y-27700D01*
X66783Y-27700D01*
X66850Y-27733D01*
X66883Y-27766D01*
X66916Y-27833D01*
X66916Y-28000D01*
X66883Y-28066D01*
X66850Y-28100D01*
X66783Y-28133D01*
X66616Y-28133D01*
X66550Y-28100D01*
X66516Y-28066D01*
X67450Y-27766D02*
X67216Y-27766D01*
X67216Y-28133D02*
X67216Y-27433D01*
X67550Y-27433D01*
X68150Y-27433D02*
X67816Y-27433D01*
X67783Y-27766D01*
X67816Y-27733D01*
X67883Y-27700D01*
X68050Y-27700D01*
X68116Y-27733D01*
X68150Y-27766D01*
X68183Y-27833D01*
X68183Y-28000D01*
X68150Y-28066D01*
X68116Y-28100D01*
X68050Y-28133D01*
X67883Y-28133D01*
X67816Y-28100D01*
X67783Y-28066D01*
X68850Y-28133D02*
X68450Y-28133D01*
X68650Y-28133D02*
X68650Y-27433D01*
X68583Y-27533D01*
X68516Y-27600D01*
X68450Y-27633D01*
X69116Y-27500D02*
X69149Y-27466D01*
X69216Y-27433D01*
X69383Y-27433D01*
X69449Y-27466D01*
X69483Y-27500D01*
X69516Y-27566D01*
X69516Y-27633D01*
X69483Y-27733D01*
X69083Y-28133D01*
X69516Y-28133D01*
X69816Y-28133D02*
X69816Y-27433D01*
X69816Y-27766D02*
X70216Y-27766D01*
X70216Y-28133D02*
X70216Y-27433D01*
G54D17*
X50184Y-44426D02*
X50184Y-43743D01*
X50347Y-43743D01*
X50387Y-43775D01*
X50408Y-43808D01*
X50428Y-43873D01*
X50428Y-43971D01*
X50408Y-44036D01*
X50387Y-44068D01*
X50347Y-44101D01*
X50184Y-44101D01*
X50795Y-43743D02*
X50714Y-43743D01*
X50673Y-43775D01*
X50652Y-43808D01*
X50612Y-43906D01*
X50591Y-44036D01*
X50591Y-44296D01*
X50612Y-44361D01*
X50632Y-44393D01*
X50673Y-44426D01*
X50754Y-44426D01*
X50795Y-44393D01*
X50815Y-44361D01*
X50836Y-44296D01*
X50836Y-44133D01*
X50815Y-44068D01*
X50795Y-44036D01*
X50754Y-44003D01*
X50673Y-44003D01*
X50632Y-44036D01*
X50612Y-44068D01*
X50591Y-44133D01*
X68234Y-44426D02*
X68234Y-43743D01*
X68397Y-43743D01*
X68437Y-43775D01*
X68458Y-43808D01*
X68478Y-43873D01*
X68478Y-43971D01*
X68458Y-44036D01*
X68437Y-44068D01*
X68397Y-44101D01*
X68234Y-44101D01*
X68621Y-43743D02*
X68906Y-43743D01*
X68723Y-44426D01*
X60234Y-44426D02*
X60234Y-43743D01*
X60397Y-43743D01*
X60437Y-43775D01*
X60458Y-43808D01*
X60478Y-43873D01*
X60478Y-43971D01*
X60458Y-44036D01*
X60437Y-44068D01*
X60397Y-44101D01*
X60234Y-44101D01*
X60723Y-44036D02*
X60682Y-44003D01*
X60662Y-43971D01*
X60641Y-43906D01*
X60641Y-43873D01*
X60662Y-43808D01*
X60682Y-43775D01*
X60723Y-43743D01*
X60804Y-43743D01*
X60845Y-43775D01*
X60865Y-43808D01*
X60886Y-43873D01*
X60886Y-43906D01*
X60865Y-43971D01*
X60845Y-44003D01*
X60804Y-44036D01*
X60723Y-44036D01*
X60682Y-44068D01*
X60662Y-44101D01*
X60641Y-44166D01*
X60641Y-44296D01*
X60662Y-44361D01*
X60682Y-44393D01*
X60723Y-44426D01*
X60804Y-44426D01*
X60845Y-44393D01*
X60865Y-44361D01*
X60886Y-44296D01*
X60886Y-44166D01*
X60865Y-44101D01*
X60845Y-44068D01*
X60804Y-44036D01*
X64234Y-44426D02*
X64234Y-43743D01*
X64397Y-43743D01*
X64437Y-43775D01*
X64458Y-43808D01*
X64478Y-43873D01*
X64478Y-43971D01*
X64458Y-44036D01*
X64437Y-44068D01*
X64397Y-44101D01*
X64234Y-44101D01*
X64865Y-43743D02*
X64662Y-43743D01*
X64641Y-44068D01*
X64662Y-44036D01*
X64702Y-44003D01*
X64804Y-44003D01*
X64845Y-44036D01*
X64865Y-44068D01*
X64886Y-44133D01*
X64886Y-44296D01*
X64865Y-44361D01*
X64845Y-44393D01*
X64804Y-44426D01*
X64702Y-44426D01*
X64662Y-44393D01*
X64641Y-44361D01*
X56234Y-44426D02*
X56234Y-43743D01*
X56397Y-43743D01*
X56437Y-43775D01*
X56458Y-43808D01*
X56478Y-43873D01*
X56478Y-43971D01*
X56458Y-44036D01*
X56437Y-44068D01*
X56397Y-44101D01*
X56234Y-44101D01*
X56641Y-43808D02*
X56662Y-43775D01*
X56702Y-43743D01*
X56804Y-43743D01*
X56845Y-43775D01*
X56865Y-43808D01*
X56886Y-43873D01*
X56886Y-43938D01*
X56865Y-44036D01*
X56621Y-44426D01*
X56886Y-44426D01*
X72234Y-44426D02*
X72234Y-43743D01*
X72478Y-44426D02*
X72295Y-44036D01*
X72478Y-43743D02*
X72234Y-44133D01*
X72641Y-43808D02*
X72662Y-43775D01*
X72702Y-43743D01*
X72804Y-43743D01*
X72845Y-43775D01*
X72865Y-43808D01*
X72886Y-43873D01*
X72886Y-43938D01*
X72865Y-44036D01*
X72621Y-44426D01*
X72886Y-44426D01*
X76234Y-44426D02*
X76234Y-43743D01*
X76478Y-44426D02*
X76295Y-44036D01*
X76478Y-43743D02*
X76234Y-44133D01*
X76621Y-43743D02*
X76886Y-43743D01*
X76743Y-44003D01*
X76804Y-44003D01*
X76845Y-44036D01*
X76865Y-44068D01*
X76886Y-44133D01*
X76886Y-44296D01*
X76865Y-44361D01*
X76845Y-44393D01*
X76804Y-44426D01*
X76682Y-44426D01*
X76641Y-44393D01*
X76621Y-44361D01*
X82176Y-32465D02*
X81493Y-32465D01*
X82176Y-32221D02*
X81786Y-32404D01*
X81493Y-32221D02*
X81883Y-32465D01*
X81493Y-31834D02*
X81493Y-32037D01*
X81818Y-32058D01*
X81786Y-32037D01*
X81753Y-31997D01*
X81753Y-31895D01*
X81786Y-31854D01*
X81818Y-31834D01*
X81883Y-31813D01*
X82046Y-31813D01*
X82111Y-31834D01*
X82143Y-31854D01*
X82176Y-31895D01*
X82176Y-31997D01*
X82143Y-32037D01*
X82111Y-32058D01*
X82126Y-35465D02*
X81443Y-35465D01*
X82126Y-35221D02*
X81736Y-35404D01*
X81443Y-35221D02*
X81833Y-35465D01*
X81671Y-34854D02*
X82126Y-34854D01*
X81410Y-34956D02*
X81898Y-35058D01*
X81898Y-34793D01*
G54D18*
X46700Y-15538D02*
X46671Y-15576D01*
X46614Y-15614D01*
X46528Y-15671D01*
X46500Y-15709D01*
X46500Y-15747D01*
X46642Y-15728D02*
X46614Y-15766D01*
X46557Y-15804D01*
X46442Y-15823D01*
X46242Y-15823D01*
X46128Y-15804D01*
X46071Y-15766D01*
X46042Y-15728D01*
X46042Y-15652D01*
X46071Y-15614D01*
X46128Y-15576D01*
X46242Y-15557D01*
X46442Y-15557D01*
X46557Y-15576D01*
X46614Y-15614D01*
X46642Y-15652D01*
X46642Y-15728D01*
X46042Y-15423D02*
X46042Y-15176D01*
X46271Y-15309D01*
X46271Y-15252D01*
X46300Y-15214D01*
X46328Y-15195D01*
X46385Y-15176D01*
X46528Y-15176D01*
X46585Y-15195D01*
X46614Y-15214D01*
X46642Y-15252D01*
X46642Y-15366D01*
X46614Y-15404D01*
X46585Y-15423D01*
X44200Y-33538D02*
X44171Y-33576D01*
X44114Y-33614D01*
X44028Y-33671D01*
X44000Y-33709D01*
X44000Y-33747D01*
X44142Y-33728D02*
X44114Y-33766D01*
X44057Y-33804D01*
X43942Y-33823D01*
X43742Y-33823D01*
X43628Y-33804D01*
X43571Y-33766D01*
X43542Y-33728D01*
X43542Y-33652D01*
X43571Y-33614D01*
X43628Y-33576D01*
X43742Y-33557D01*
X43942Y-33557D01*
X44057Y-33576D01*
X44114Y-33614D01*
X44142Y-33652D01*
X44142Y-33728D01*
X43542Y-33214D02*
X43542Y-33290D01*
X43571Y-33328D01*
X43600Y-33347D01*
X43685Y-33385D01*
X43800Y-33404D01*
X44028Y-33404D01*
X44085Y-33385D01*
X44114Y-33366D01*
X44142Y-33328D01*
X44142Y-33252D01*
X44114Y-33214D01*
X44085Y-33195D01*
X44028Y-33176D01*
X43885Y-33176D01*
X43828Y-33195D01*
X43800Y-33214D01*
X43771Y-33252D01*
X43771Y-33328D01*
X43800Y-33366D01*
X43828Y-33385D01*
X43885Y-33404D01*
X46700Y-33538D02*
X46671Y-33576D01*
X46614Y-33614D01*
X46528Y-33671D01*
X46500Y-33709D01*
X46500Y-33747D01*
X46642Y-33728D02*
X46614Y-33766D01*
X46557Y-33804D01*
X46442Y-33823D01*
X46242Y-33823D01*
X46128Y-33804D01*
X46071Y-33766D01*
X46042Y-33728D01*
X46042Y-33652D01*
X46071Y-33614D01*
X46128Y-33576D01*
X46242Y-33557D01*
X46442Y-33557D01*
X46557Y-33576D01*
X46614Y-33614D01*
X46642Y-33652D01*
X46642Y-33728D01*
X46300Y-33328D02*
X46271Y-33366D01*
X46242Y-33385D01*
X46185Y-33404D01*
X46157Y-33404D01*
X46100Y-33385D01*
X46071Y-33366D01*
X46042Y-33328D01*
X46042Y-33252D01*
X46071Y-33214D01*
X46100Y-33195D01*
X46157Y-33176D01*
X46185Y-33176D01*
X46242Y-33195D01*
X46271Y-33214D01*
X46300Y-33252D01*
X46300Y-33328D01*
X46328Y-33366D01*
X46357Y-33385D01*
X46414Y-33404D01*
X46528Y-33404D01*
X46585Y-33385D01*
X46614Y-33366D01*
X46642Y-33328D01*
X46642Y-33252D01*
X46614Y-33214D01*
X46585Y-33195D01*
X46528Y-33176D01*
X46414Y-33176D01*
X46357Y-33195D01*
X46328Y-33214D01*
X46300Y-33252D01*
X44200Y-21538D02*
X44171Y-21576D01*
X44114Y-21614D01*
X44028Y-21671D01*
X44000Y-21709D01*
X44000Y-21747D01*
X44142Y-21728D02*
X44114Y-21766D01*
X44057Y-21804D01*
X43942Y-21823D01*
X43742Y-21823D01*
X43628Y-21804D01*
X43571Y-21766D01*
X43542Y-21728D01*
X43542Y-21652D01*
X43571Y-21614D01*
X43628Y-21576D01*
X43742Y-21557D01*
X43942Y-21557D01*
X44057Y-21576D01*
X44114Y-21614D01*
X44142Y-21652D01*
X44142Y-21728D01*
X43600Y-21404D02*
X43571Y-21385D01*
X43542Y-21347D01*
X43542Y-21252D01*
X43571Y-21214D01*
X43600Y-21195D01*
X43657Y-21176D01*
X43714Y-21176D01*
X43800Y-21195D01*
X44142Y-21423D01*
X44142Y-21176D01*
X46700Y-21538D02*
X46671Y-21576D01*
X46614Y-21614D01*
X46528Y-21671D01*
X46500Y-21709D01*
X46500Y-21747D01*
X46642Y-21728D02*
X46614Y-21766D01*
X46557Y-21804D01*
X46442Y-21823D01*
X46242Y-21823D01*
X46128Y-21804D01*
X46071Y-21766D01*
X46042Y-21728D01*
X46042Y-21652D01*
X46071Y-21614D01*
X46128Y-21576D01*
X46242Y-21557D01*
X46442Y-21557D01*
X46557Y-21576D01*
X46614Y-21614D01*
X46642Y-21652D01*
X46642Y-21728D01*
X46242Y-21214D02*
X46642Y-21214D01*
X46014Y-21309D02*
X46442Y-21404D01*
X46442Y-21157D01*
X46700Y-27538D02*
X46671Y-27576D01*
X46614Y-27614D01*
X46528Y-27671D01*
X46500Y-27709D01*
X46500Y-27747D01*
X46642Y-27728D02*
X46614Y-27766D01*
X46557Y-27804D01*
X46442Y-27823D01*
X46242Y-27823D01*
X46128Y-27804D01*
X46071Y-27766D01*
X46042Y-27728D01*
X46042Y-27652D01*
X46071Y-27614D01*
X46128Y-27576D01*
X46242Y-27557D01*
X46442Y-27557D01*
X46557Y-27576D01*
X46614Y-27614D01*
X46642Y-27652D01*
X46642Y-27728D01*
X46042Y-27423D02*
X46042Y-27157D01*
X46642Y-27328D01*
X44200Y-15538D02*
X44171Y-15576D01*
X44114Y-15614D01*
X44028Y-15671D01*
X44000Y-15709D01*
X44000Y-15747D01*
X44142Y-15728D02*
X44114Y-15766D01*
X44057Y-15804D01*
X43942Y-15823D01*
X43742Y-15823D01*
X43628Y-15804D01*
X43571Y-15766D01*
X43542Y-15728D01*
X43542Y-15652D01*
X43571Y-15614D01*
X43628Y-15576D01*
X43742Y-15557D01*
X43942Y-15557D01*
X44057Y-15576D01*
X44114Y-15614D01*
X44142Y-15652D01*
X44142Y-15728D01*
X44142Y-15176D02*
X44142Y-15404D01*
X44142Y-15290D02*
X43542Y-15290D01*
X43628Y-15328D01*
X43685Y-15366D01*
X43714Y-15404D01*
X44200Y-27538D02*
X44171Y-27576D01*
X44114Y-27614D01*
X44028Y-27671D01*
X44000Y-27709D01*
X44000Y-27747D01*
X44142Y-27728D02*
X44114Y-27766D01*
X44057Y-27804D01*
X43942Y-27823D01*
X43742Y-27823D01*
X43628Y-27804D01*
X43571Y-27766D01*
X43542Y-27728D01*
X43542Y-27652D01*
X43571Y-27614D01*
X43628Y-27576D01*
X43742Y-27557D01*
X43942Y-27557D01*
X44057Y-27576D01*
X44114Y-27614D01*
X44142Y-27652D01*
X44142Y-27728D01*
X43542Y-27195D02*
X43542Y-27385D01*
X43828Y-27404D01*
X43800Y-27385D01*
X43771Y-27347D01*
X43771Y-27252D01*
X43800Y-27214D01*
X43828Y-27195D01*
X43885Y-27176D01*
X44028Y-27176D01*
X44085Y-27195D01*
X44114Y-27214D01*
X44142Y-27252D01*
X44142Y-27347D01*
X44114Y-27385D01*
X44085Y-27404D01*
G54D12*
X55292Y-38942D02*
X54692Y-38942D01*
X54692Y-38714D01*
X54721Y-38657D01*
X54750Y-38628D01*
X54807Y-38600D01*
X54892Y-38600D01*
X54950Y-38628D01*
X54978Y-38657D01*
X55007Y-38714D01*
X55007Y-38942D01*
X55292Y-38028D02*
X55292Y-38371D01*
X55292Y-38200D02*
X54692Y-38200D01*
X54778Y-38257D01*
X54835Y-38314D01*
X54864Y-38371D01*
X57235Y-40042D02*
X57264Y-40071D01*
X57292Y-40157D01*
X57292Y-40214D01*
X57264Y-40300D01*
X57207Y-40357D01*
X57150Y-40385D01*
X57035Y-40414D01*
X56950Y-40414D01*
X56835Y-40385D01*
X56778Y-40357D01*
X56721Y-40300D01*
X56692Y-40214D01*
X56692Y-40157D01*
X56721Y-40071D01*
X56750Y-40042D01*
X57121Y-39814D02*
X57121Y-39528D01*
X57292Y-39871D02*
X56692Y-39671D01*
X57292Y-39471D01*
X56692Y-39357D02*
X57292Y-39157D01*
X56692Y-38957D01*
X57121Y-38785D02*
X57121Y-38499D01*
X57292Y-38842D02*
X56692Y-38642D01*
X57292Y-38442D01*
X57292Y-37957D02*
X57292Y-38242D01*
X56692Y-38242D01*
X57292Y-37757D02*
X56692Y-37757D01*
X56978Y-37471D02*
X56978Y-37271D01*
X57292Y-37185D02*
X57292Y-37471D01*
X56692Y-37471D01*
X56692Y-37185D01*
X57292Y-36585D02*
X57007Y-36785D01*
X57292Y-36928D02*
X56692Y-36928D01*
X56692Y-36699D01*
X56721Y-36642D01*
X56750Y-36614D01*
X56807Y-36585D01*
X56892Y-36585D01*
X56950Y-36614D01*
X56978Y-36642D01*
X57007Y-36699D01*
X57007Y-36928D01*
X79507Y-12292D02*
X79507Y-11692D01*
X79850Y-12292D02*
X79592Y-11950D01*
X79850Y-11692D02*
X79507Y-12035D01*
X80135Y-12292D02*
X80250Y-12292D01*
X80307Y-12264D01*
X80335Y-12235D01*
X80392Y-12150D01*
X80421Y-12035D01*
X80421Y-11807D01*
X80392Y-11750D01*
X80364Y-11721D01*
X80307Y-11692D01*
X80192Y-11692D01*
X80135Y-11721D01*
X80107Y-11750D01*
X80078Y-11807D01*
X80078Y-11950D01*
X80107Y-12007D01*
X80135Y-12035D01*
X80192Y-12064D01*
X80307Y-12064D01*
X80364Y-12035D01*
X80392Y-12007D01*
X80421Y-11950D01*
X77950Y-9485D02*
X77921Y-9514D01*
X77835Y-9542D01*
X77778Y-9542D01*
X77692Y-9514D01*
X77635Y-9457D01*
X77607Y-9400D01*
X77578Y-9285D01*
X77578Y-9200D01*
X77607Y-9085D01*
X77635Y-9028D01*
X77692Y-8971D01*
X77778Y-8942D01*
X77835Y-8942D01*
X77921Y-8971D01*
X77950Y-9000D01*
X78321Y-8942D02*
X78435Y-8942D01*
X78492Y-8971D01*
X78550Y-9028D01*
X78578Y-9142D01*
X78578Y-9342D01*
X78550Y-9457D01*
X78492Y-9514D01*
X78435Y-9542D01*
X78321Y-9542D01*
X78264Y-9514D01*
X78207Y-9457D01*
X78178Y-9342D01*
X78178Y-9142D01*
X78207Y-9028D01*
X78264Y-8971D01*
X78321Y-8942D01*
X79121Y-9542D02*
X78835Y-9542D01*
X78835Y-8942D01*
X79435Y-8942D02*
X79550Y-8942D01*
X79607Y-8971D01*
X79664Y-9028D01*
X79692Y-9142D01*
X79692Y-9342D01*
X79664Y-9457D01*
X79607Y-9514D01*
X79550Y-9542D01*
X79435Y-9542D01*
X79378Y-9514D01*
X79321Y-9457D01*
X79292Y-9342D01*
X79292Y-9142D01*
X79321Y-9028D01*
X79378Y-8971D01*
X79435Y-8942D01*
X79950Y-9542D02*
X79950Y-8942D01*
X80292Y-9542D01*
X80292Y-8942D01*
X80578Y-9228D02*
X80778Y-9228D01*
X80864Y-9542D02*
X80578Y-9542D01*
X80578Y-8942D01*
X80864Y-8942D01*
X81035Y-8942D02*
X81378Y-8942D01*
X81207Y-9542D02*
X81207Y-8942D01*
X81492Y-8942D02*
X81835Y-8942D01*
X81664Y-9542D02*
X81664Y-8942D01*
X82035Y-9228D02*
X82235Y-9228D01*
X82321Y-9542D02*
X82035Y-9542D01*
X82035Y-8942D01*
X82321Y-8942D01*
X35607Y-12292D02*
X35607Y-11692D01*
X35950Y-12292D02*
X35692Y-11950D01*
X35950Y-11692D02*
X35607Y-12035D01*
X36292Y-11950D02*
X36235Y-11921D01*
X36207Y-11892D01*
X36178Y-11835D01*
X36178Y-11807D01*
X36207Y-11750D01*
X36235Y-11721D01*
X36292Y-11692D01*
X36407Y-11692D01*
X36464Y-11721D01*
X36492Y-11750D01*
X36521Y-11807D01*
X36521Y-11835D01*
X36492Y-11892D01*
X36464Y-11921D01*
X36407Y-11950D01*
X36292Y-11950D01*
X36235Y-11978D01*
X36207Y-12007D01*
X36178Y-12064D01*
X36178Y-12178D01*
X36207Y-12235D01*
X36235Y-12264D01*
X36292Y-12292D01*
X36407Y-12292D01*
X36464Y-12264D01*
X36492Y-12235D01*
X36521Y-12178D01*
X36521Y-12064D01*
X36492Y-12007D01*
X36464Y-11978D01*
X36407Y-11950D01*
X34050Y-9485D02*
X34021Y-9514D01*
X33935Y-9542D01*
X33878Y-9542D01*
X33792Y-9514D01*
X33735Y-9457D01*
X33707Y-9400D01*
X33678Y-9285D01*
X33678Y-9200D01*
X33707Y-9085D01*
X33735Y-9028D01*
X33792Y-8971D01*
X33878Y-8942D01*
X33935Y-8942D01*
X34021Y-8971D01*
X34050Y-9000D01*
X34421Y-8942D02*
X34535Y-8942D01*
X34592Y-8971D01*
X34650Y-9028D01*
X34678Y-9142D01*
X34678Y-9342D01*
X34650Y-9457D01*
X34592Y-9514D01*
X34535Y-9542D01*
X34421Y-9542D01*
X34364Y-9514D01*
X34307Y-9457D01*
X34278Y-9342D01*
X34278Y-9142D01*
X34307Y-9028D01*
X34364Y-8971D01*
X34421Y-8942D01*
X35221Y-9542D02*
X34935Y-9542D01*
X34935Y-8942D01*
X35535Y-8942D02*
X35650Y-8942D01*
X35707Y-8971D01*
X35764Y-9028D01*
X35792Y-9142D01*
X35792Y-9342D01*
X35764Y-9457D01*
X35707Y-9514D01*
X35650Y-9542D01*
X35535Y-9542D01*
X35478Y-9514D01*
X35421Y-9457D01*
X35392Y-9342D01*
X35392Y-9142D01*
X35421Y-9028D01*
X35478Y-8971D01*
X35535Y-8942D01*
X36050Y-9542D02*
X36050Y-8942D01*
X36392Y-9542D01*
X36392Y-8942D01*
X36678Y-9228D02*
X36878Y-9228D01*
X36964Y-9542D02*
X36678Y-9542D01*
X36678Y-8942D01*
X36964Y-8942D01*
X37135Y-8942D02*
X37478Y-8942D01*
X37307Y-9542D02*
X37307Y-8942D01*
X37592Y-8942D02*
X37935Y-8942D01*
X37764Y-9542D02*
X37764Y-8942D01*
X38135Y-9228D02*
X38335Y-9228D01*
X38421Y-9542D02*
X38135Y-9542D01*
X38135Y-8942D01*
X38421Y-8942D01*
X80782Y-42844D02*
X80782Y-42244D01*
X81125Y-42844D02*
X80867Y-42501D01*
X81125Y-42244D02*
X80782Y-42587D01*
X81325Y-42244D02*
X81725Y-42244D01*
X81467Y-42844D01*
X79225Y-40037D02*
X79196Y-40066D01*
X79110Y-40094D01*
X79053Y-40094D01*
X78967Y-40066D01*
X78910Y-40009D01*
X78882Y-39951D01*
X78853Y-39837D01*
X78853Y-39751D01*
X78882Y-39637D01*
X78910Y-39580D01*
X78967Y-39523D01*
X79053Y-39494D01*
X79110Y-39494D01*
X79196Y-39523D01*
X79225Y-39551D01*
X79596Y-39494D02*
X79710Y-39494D01*
X79767Y-39523D01*
X79825Y-39580D01*
X79853Y-39694D01*
X79853Y-39894D01*
X79825Y-40009D01*
X79767Y-40066D01*
X79710Y-40094D01*
X79596Y-40094D01*
X79539Y-40066D01*
X79482Y-40009D01*
X79453Y-39894D01*
X79453Y-39694D01*
X79482Y-39580D01*
X79539Y-39523D01*
X79596Y-39494D01*
X80396Y-40094D02*
X80110Y-40094D01*
X80110Y-39494D01*
X80710Y-39494D02*
X80825Y-39494D01*
X80882Y-39523D01*
X80939Y-39580D01*
X80967Y-39694D01*
X80967Y-39894D01*
X80939Y-40009D01*
X80882Y-40066D01*
X80825Y-40094D01*
X80710Y-40094D01*
X80653Y-40066D01*
X80596Y-40009D01*
X80567Y-39894D01*
X80567Y-39694D01*
X80596Y-39580D01*
X80653Y-39523D01*
X80710Y-39494D01*
X81225Y-40094D02*
X81225Y-39494D01*
X81567Y-40094D01*
X81567Y-39494D01*
X81853Y-39780D02*
X82053Y-39780D01*
X82139Y-40094D02*
X81853Y-40094D01*
X81853Y-39494D01*
X82139Y-39494D01*
X82310Y-39494D02*
X82653Y-39494D01*
X82482Y-40094D02*
X82482Y-39494D01*
X82767Y-39494D02*
X83110Y-39494D01*
X82939Y-40094D02*
X82939Y-39494D01*
X83310Y-39780D02*
X83510Y-39780D01*
X83596Y-40094D02*
X83310Y-40094D01*
X83310Y-39494D01*
X83596Y-39494D01*
X80782Y-42844D02*
X80782Y-42244D01*
X81125Y-42844D02*
X80867Y-42501D01*
X81125Y-42244D02*
X80782Y-42587D01*
X81639Y-42244D02*
X81525Y-42244D01*
X81467Y-42273D01*
X81439Y-42301D01*
X81382Y-42387D01*
X81353Y-42501D01*
X81353Y-42730D01*
X81382Y-42787D01*
X81410Y-42816D01*
X81467Y-42844D01*
X81582Y-42844D01*
X81639Y-42816D01*
X81667Y-42787D01*
X81696Y-42730D01*
X81696Y-42587D01*
X81667Y-42530D01*
X81639Y-42501D01*
X81582Y-42473D01*
X81467Y-42473D01*
X81410Y-42501D01*
X81382Y-42530D01*
X81353Y-42587D01*
X79225Y-40037D02*
X79196Y-40066D01*
X79110Y-40094D01*
X79053Y-40094D01*
X78967Y-40066D01*
X78910Y-40009D01*
X78882Y-39951D01*
X78853Y-39837D01*
X78853Y-39751D01*
X78882Y-39637D01*
X78910Y-39580D01*
X78967Y-39523D01*
X79053Y-39494D01*
X79110Y-39494D01*
X79196Y-39523D01*
X79225Y-39551D01*
X79596Y-39494D02*
X79710Y-39494D01*
X79767Y-39523D01*
X79825Y-39580D01*
X79853Y-39694D01*
X79853Y-39894D01*
X79825Y-40009D01*
X79767Y-40066D01*
X79710Y-40094D01*
X79596Y-40094D01*
X79539Y-40066D01*
X79482Y-40009D01*
X79453Y-39894D01*
X79453Y-39694D01*
X79482Y-39580D01*
X79539Y-39523D01*
X79596Y-39494D01*
X80396Y-40094D02*
X80110Y-40094D01*
X80110Y-39494D01*
X80710Y-39494D02*
X80825Y-39494D01*
X80882Y-39523D01*
X80939Y-39580D01*
X80967Y-39694D01*
X80967Y-39894D01*
X80939Y-40009D01*
X80882Y-40066D01*
X80825Y-40094D01*
X80710Y-40094D01*
X80653Y-40066D01*
X80596Y-40009D01*
X80567Y-39894D01*
X80567Y-39694D01*
X80596Y-39580D01*
X80653Y-39523D01*
X80710Y-39494D01*
X81225Y-40094D02*
X81225Y-39494D01*
X81567Y-40094D01*
X81567Y-39494D01*
X81853Y-39780D02*
X82053Y-39780D01*
X82139Y-40094D02*
X81853Y-40094D01*
X81853Y-39494D01*
X82139Y-39494D01*
X82310Y-39494D02*
X82653Y-39494D01*
X82482Y-40094D02*
X82482Y-39494D01*
X82767Y-39494D02*
X83110Y-39494D01*
X82939Y-40094D02*
X82939Y-39494D01*
X83310Y-39780D02*
X83510Y-39780D01*
X83596Y-40094D02*
X83310Y-40094D01*
X83310Y-39494D01*
X83596Y-39494D01*
X53592Y-38942D02*
X52992Y-38942D01*
X52992Y-38714D01*
X53021Y-38657D01*
X53050Y-38628D01*
X53107Y-38600D01*
X53192Y-38600D01*
X53250Y-38628D01*
X53278Y-38657D01*
X53307Y-38714D01*
X53307Y-38942D01*
X52992Y-38400D02*
X52992Y-38028D01*
X53221Y-38228D01*
X53221Y-38142D01*
X53250Y-38085D01*
X53278Y-38057D01*
X53335Y-38028D01*
X53478Y-38028D01*
X53535Y-38057D01*
X53564Y-38085D01*
X53592Y-38142D01*
X53592Y-38314D01*
X53564Y-38371D01*
X53535Y-38400D01*
X55535Y-40042D02*
X55564Y-40071D01*
X55592Y-40157D01*
X55592Y-40214D01*
X55564Y-40300D01*
X55507Y-40357D01*
X55450Y-40385D01*
X55335Y-40414D01*
X55250Y-40414D01*
X55135Y-40385D01*
X55078Y-40357D01*
X55021Y-40300D01*
X54992Y-40214D01*
X54992Y-40157D01*
X55021Y-40071D01*
X55050Y-40042D01*
X55421Y-39814D02*
X55421Y-39528D01*
X55592Y-39871D02*
X54992Y-39671D01*
X55592Y-39471D01*
X54992Y-39357D02*
X55592Y-39157D01*
X54992Y-38957D01*
X55421Y-38785D02*
X55421Y-38499D01*
X55592Y-38842D02*
X54992Y-38642D01*
X55592Y-38442D01*
X55592Y-37957D02*
X55592Y-38242D01*
X54992Y-38242D01*
X55592Y-37757D02*
X54992Y-37757D01*
X55278Y-37471D02*
X55278Y-37271D01*
X55592Y-37185D02*
X55592Y-37471D01*
X54992Y-37471D01*
X54992Y-37185D01*
X55592Y-36585D02*
X55307Y-36785D01*
X55592Y-36928D02*
X54992Y-36928D01*
X54992Y-36699D01*
X55021Y-36642D01*
X55050Y-36614D01*
X55107Y-36585D01*
X55192Y-36585D01*
X55250Y-36614D01*
X55278Y-36642D01*
X55307Y-36699D01*
X55307Y-36928D01*
X68150Y-32564D02*
X68235Y-32592D01*
X68378Y-32592D01*
X68435Y-32564D01*
X68464Y-32535D01*
X68492Y-32478D01*
X68492Y-32421D01*
X68464Y-32364D01*
X68435Y-32335D01*
X68378Y-32307D01*
X68264Y-32278D01*
X68207Y-32250D01*
X68178Y-32221D01*
X68150Y-32164D01*
X68150Y-32107D01*
X68178Y-32050D01*
X68207Y-32021D01*
X68264Y-31992D01*
X68407Y-31992D01*
X68492Y-32021D01*
X68692Y-31992D02*
X68835Y-32592D01*
X68950Y-32164D01*
X69064Y-32592D01*
X69207Y-31992D01*
X69407Y-32050D02*
X69435Y-32021D01*
X69492Y-31992D01*
X69635Y-31992D01*
X69692Y-32021D01*
X69721Y-32050D01*
X69750Y-32107D01*
X69750Y-32164D01*
X69721Y-32250D01*
X69378Y-32592D01*
X69750Y-32592D01*
X65792Y-33364D02*
X65878Y-33392D01*
X66021Y-33392D01*
X66078Y-33364D01*
X66107Y-33335D01*
X66135Y-33278D01*
X66135Y-33221D01*
X66107Y-33164D01*
X66078Y-33135D01*
X66021Y-33107D01*
X65907Y-33078D01*
X65850Y-33050D01*
X65821Y-33021D01*
X65792Y-32964D01*
X65792Y-32907D01*
X65821Y-32850D01*
X65850Y-32821D01*
X65907Y-32792D01*
X66050Y-32792D01*
X66135Y-32821D01*
X66335Y-32792D02*
X66478Y-33392D01*
X66592Y-32964D01*
X66707Y-33392D01*
X66850Y-32792D01*
X66935Y-33450D02*
X67392Y-33450D01*
X67535Y-33392D02*
X67535Y-32792D01*
X67764Y-32792D01*
X67821Y-32821D01*
X67850Y-32850D01*
X67878Y-32907D01*
X67878Y-32992D01*
X67850Y-33050D01*
X67821Y-33078D01*
X67764Y-33107D01*
X67535Y-33107D01*
X68135Y-32792D02*
X68135Y-33278D01*
X68164Y-33335D01*
X68192Y-33364D01*
X68250Y-33392D01*
X68364Y-33392D01*
X68421Y-33364D01*
X68450Y-33335D01*
X68478Y-33278D01*
X68478Y-32792D01*
X68735Y-33364D02*
X68821Y-33392D01*
X68964Y-33392D01*
X69021Y-33364D01*
X69050Y-33335D01*
X69078Y-33278D01*
X69078Y-33221D01*
X69050Y-33164D01*
X69021Y-33135D01*
X68964Y-33107D01*
X68850Y-33078D01*
X68792Y-33050D01*
X68764Y-33021D01*
X68735Y-32964D01*
X68735Y-32907D01*
X68764Y-32850D01*
X68792Y-32821D01*
X68850Y-32792D01*
X68992Y-32792D01*
X69078Y-32821D01*
X69335Y-33392D02*
X69335Y-32792D01*
X69335Y-33078D02*
X69678Y-33078D01*
X69678Y-33392D02*
X69678Y-32792D01*
X69821Y-33450D02*
X70278Y-33450D01*
X70392Y-33364D02*
X70478Y-33392D01*
X70621Y-33392D01*
X70678Y-33364D01*
X70707Y-33335D01*
X70735Y-33278D01*
X70735Y-33221D01*
X70707Y-33164D01*
X70678Y-33135D01*
X70621Y-33107D01*
X70507Y-33078D01*
X70450Y-33050D01*
X70421Y-33021D01*
X70392Y-32964D01*
X70392Y-32907D01*
X70421Y-32850D01*
X70450Y-32821D01*
X70507Y-32792D01*
X70650Y-32792D01*
X70735Y-32821D01*
X70992Y-33392D02*
X70992Y-32792D01*
X71192Y-33221D01*
X71392Y-32792D01*
X71392Y-33392D01*
X71650Y-33221D02*
X71935Y-33221D01*
X71592Y-33392D02*
X71792Y-32792D01*
X71992Y-33392D01*
X72478Y-33392D02*
X72192Y-33392D01*
X72192Y-32792D01*
X72964Y-33392D02*
X72678Y-33392D01*
X72678Y-32792D01*
X35385Y-18685D02*
X35414Y-18714D01*
X35442Y-18800D01*
X35442Y-18857D01*
X35414Y-18942D01*
X35357Y-19000D01*
X35300Y-19028D01*
X35185Y-19057D01*
X35100Y-19057D01*
X34985Y-19028D01*
X34928Y-19000D01*
X34871Y-18942D01*
X34842Y-18857D01*
X34842Y-18800D01*
X34871Y-18714D01*
X34900Y-18685D01*
X35442Y-18114D02*
X35442Y-18457D01*
X35442Y-18285D02*
X34842Y-18285D01*
X34928Y-18342D01*
X34985Y-18400D01*
X35014Y-18457D01*
X35442Y-17828D02*
X35442Y-17714D01*
X35414Y-17657D01*
X35385Y-17628D01*
X35300Y-17571D01*
X35185Y-17542D01*
X34957Y-17542D01*
X34900Y-17571D01*
X34871Y-17600D01*
X34842Y-17657D01*
X34842Y-17771D01*
X34871Y-17828D01*
X34900Y-17857D01*
X34957Y-17885D01*
X35100Y-17885D01*
X35157Y-17857D01*
X35185Y-17828D01*
X35214Y-17771D01*
X35214Y-17657D01*
X35185Y-17600D01*
X35157Y-17571D01*
X35100Y-17542D01*
X34900Y-15800D02*
X34871Y-15771D01*
X34842Y-15714D01*
X34842Y-15571D01*
X34871Y-15514D01*
X34900Y-15485D01*
X34957Y-15457D01*
X35014Y-15457D01*
X35100Y-15485D01*
X35442Y-15828D01*
X35442Y-15457D01*
X34900Y-15228D02*
X34871Y-15200D01*
X34842Y-15142D01*
X34842Y-15000D01*
X34871Y-14942D01*
X34900Y-14914D01*
X34957Y-14885D01*
X35014Y-14885D01*
X35100Y-14914D01*
X35442Y-15257D01*
X35442Y-14885D01*
X34842Y-14514D02*
X34842Y-14457D01*
X34871Y-14399D01*
X34900Y-14371D01*
X34957Y-14342D01*
X35071Y-14314D01*
X35214Y-14314D01*
X35328Y-14342D01*
X35385Y-14371D01*
X35414Y-14399D01*
X35442Y-14457D01*
X35442Y-14514D01*
X35414Y-14571D01*
X35385Y-14599D01*
X35328Y-14628D01*
X35214Y-14657D01*
X35071Y-14657D01*
X34957Y-14628D01*
X34900Y-14599D01*
X34871Y-14571D01*
X34842Y-14514D01*
X34842Y-13942D02*
X34842Y-13885D01*
X34871Y-13828D01*
X34900Y-13799D01*
X34957Y-13771D01*
X35071Y-13742D01*
X35214Y-13742D01*
X35328Y-13771D01*
X35385Y-13799D01*
X35414Y-13828D01*
X35442Y-13885D01*
X35442Y-13942D01*
X35414Y-13999D01*
X35385Y-14028D01*
X35328Y-14057D01*
X35214Y-14085D01*
X35071Y-14085D01*
X34957Y-14057D01*
X34900Y-14028D01*
X34871Y-13999D01*
X34842Y-13942D01*
X35042Y-13228D02*
X35442Y-13228D01*
X35042Y-13485D02*
X35357Y-13485D01*
X35414Y-13457D01*
X35442Y-13399D01*
X35442Y-13314D01*
X35414Y-13257D01*
X35385Y-13228D01*
X35535Y-39100D02*
X35564Y-39128D01*
X35592Y-39214D01*
X35592Y-39271D01*
X35564Y-39357D01*
X35507Y-39414D01*
X35450Y-39442D01*
X35335Y-39471D01*
X35250Y-39471D01*
X35135Y-39442D01*
X35078Y-39414D01*
X35021Y-39357D01*
X34992Y-39271D01*
X34992Y-39214D01*
X35021Y-39128D01*
X35050Y-39100D01*
X35592Y-38528D02*
X35592Y-38871D01*
X35592Y-38700D02*
X34992Y-38700D01*
X35078Y-38757D01*
X35135Y-38814D01*
X35164Y-38871D01*
X35050Y-36500D02*
X35021Y-36471D01*
X34992Y-36414D01*
X34992Y-36271D01*
X35021Y-36214D01*
X35050Y-36185D01*
X35107Y-36157D01*
X35164Y-36157D01*
X35250Y-36185D01*
X35592Y-36528D01*
X35592Y-36157D01*
X35050Y-35928D02*
X35021Y-35900D01*
X34992Y-35842D01*
X34992Y-35700D01*
X35021Y-35642D01*
X35050Y-35614D01*
X35107Y-35585D01*
X35164Y-35585D01*
X35250Y-35614D01*
X35592Y-35957D01*
X35592Y-35585D01*
X34992Y-35214D02*
X34992Y-35157D01*
X35021Y-35099D01*
X35050Y-35071D01*
X35107Y-35042D01*
X35221Y-35014D01*
X35364Y-35014D01*
X35478Y-35042D01*
X35535Y-35071D01*
X35564Y-35099D01*
X35592Y-35157D01*
X35592Y-35214D01*
X35564Y-35271D01*
X35535Y-35299D01*
X35478Y-35328D01*
X35364Y-35357D01*
X35221Y-35357D01*
X35107Y-35328D01*
X35050Y-35299D01*
X35021Y-35271D01*
X34992Y-35214D01*
X34992Y-34642D02*
X34992Y-34585D01*
X35021Y-34528D01*
X35050Y-34499D01*
X35107Y-34471D01*
X35221Y-34442D01*
X35364Y-34442D01*
X35478Y-34471D01*
X35535Y-34499D01*
X35564Y-34528D01*
X35592Y-34585D01*
X35592Y-34642D01*
X35564Y-34699D01*
X35535Y-34728D01*
X35478Y-34757D01*
X35364Y-34785D01*
X35221Y-34785D01*
X35107Y-34757D01*
X35050Y-34728D01*
X35021Y-34699D01*
X34992Y-34642D01*
X35192Y-33928D02*
X35592Y-33928D01*
X35192Y-34185D02*
X35507Y-34185D01*
X35564Y-34157D01*
X35592Y-34099D01*
X35592Y-34014D01*
X35564Y-33957D01*
X35535Y-33928D01*
M02*
