<?xml version="1.0" standalone="no"?>
 <!DOCTYPE svg PUBLIC "-//W3C//DTD SVG 1.1//EN" 
 "http://www.w3.org/Graphics/SVG/1.1/DTD/svg11.dtd"> 
<svg xmlns="http://www.w3.org/2000/svg" version="1.1" 
    width="29.7002cm" height="21.0007cm" viewBox="0 0 116929 82679 ">
<title>SVG Picture created as TODO-TODO.svg date 2014/06/05 23:34:05 </title>
  <desc>Picture generated by Eeschema-SVG </desc>
<g style="fill:#000000; fill-opacity:1;stroke:#000000; stroke-opacity:1;
stroke-linecap:round; stroke-linejoin:round; "
 transform="translate(0 0) scale(1 1)">
</g>
<g style="fill:#9F0000; fill-opacity:0.0; 
stroke:#9F0000; stroke-width:100; stroke-opacity:1; 
stroke-linecap:round; stroke-linejoin:round;">
<path d="M4000 4000
L112930 4000
L112930 78680
L4000 78680
L4000 4000
" />
<path d="M4700 4700
L112230 4700
L112230 77980
L4700 77980
L4700 4700
" />
<path d="M25780 4000
L25780 4700
" />
<path d="M15030 4550
L14750 4550
" />
<path d="M14890 4550
L14890 4050
L14840 4120
L14790 4170
L14750 4200
" />
<path d="M25780 78680
L25780 77980
" />
<path d="M15030 78530
L14750 78530
" />
<path d="M14890 78530
L14890 78030
L14840 78100
L14790 78150
L14750 78180
" />
<path d="M47560 4000
L47560 4700
" />
<path d="M36530 4100
L36550 4080
L36600 4050
L36720 4050
L36760 4080
L36790 4100
L36810 4150
L36810 4200
L36790 4270
L36500 4550
L36810 4550
" />
<path d="M47560 78680
L47560 77980
" />
<path d="M36530 78080
L36550 78060
L36600 78030
L36720 78030
L36760 78060
L36790 78080
L36810 78130
L36810 78180
L36790 78250
L36500 78530
L36810 78530
" />
<path d="M69340 4000
L69340 4700
" />
<path d="M58280 4050
L58590 4050
L58420 4240
L58500 4240
L58540 4270
L58570 4290
L58590 4340
L58590 4460
L58570 4500
L58540 4530
L58500 4550
L58350 4550
L58310 4530
L58280 4500
" />
<path d="M69340 78680
L69340 77980
" />
<path d="M58280 78030
L58590 78030
L58420 78220
L58500 78220
L58540 78250
L58570 78270
L58590 78320
L58590 78440
L58570 78480
L58540 78510
L58500 78530
L58350 78530
L58310 78510
L58280 78480
" />
<path d="M91120 4000
L91120 4700
" />
<path d="M80320 4220
L80320 4550
" />
<path d="M80200 4030
L80090 4390
L80390 4390
" />
<path d="M91120 78680
L91120 77980
" />
<path d="M80320 78200
L80320 78530
" />
<path d="M80200 78010
L80090 78370
L80390 78370
" />
<path d="M102130 4050
L101890 4050
L101870 4290
L101890 4270
L101940 4240
L102060 4240
L102100 4270
L102130 4290
L102150 4340
L102150 4460
L102130 4500
L102100 4530
L102060 4550
L101940 4550
L101890 4530
L101870 4500
" />
<path d="M102130 78030
L101890 78030
L101870 78270
L101890 78250
L101940 78220
L102060 78220
L102100 78250
L102130 78270
L102150 78320
L102150 78440
L102130 78480
L102100 78510
L102060 78530
L101940 78530
L101890 78510
L101870 78480
" />
<path d="M4000 28890
L4700 28890
" />
<path d="M4240 16510
L4470 16510
" />
<path d="M4190 16650
L4350 16150
L4520 16650
" />
<path d="M112930 28890
L112230 28890
" />
<path d="M112470 16510
L112700 16510
" />
<path d="M112420 16650
L112580 16150
L112750 16650
" />
<path d="M4000 53780
L4700 53780
" />
<path d="M4390 41280
L4460 41300
L4480 41330
L4500 41380
L4500 41450
L4480 41490
L4460 41520
L4410 41540
L4220 41540
L4220 41040
L4390 41040
L4430 41070
L4460 41090
L4480 41140
L4480 41190
L4460 41230
L4430 41260
L4390 41280
L4220 41280
" />
<path d="M112930 53780
L112230 53780
" />
<path d="M112620 41280
L112690 41300
L112710 41330
L112730 41380
L112730 41450
L112710 41490
L112690 41520
L112640 41540
L112450 41540
L112450 41040
L112620 41040
L112660 41070
L112690 41090
L112710 41140
L112710 41190
L112690 41230
L112660 41260
L112620 41280
L112450 41280
" />
<path d="M4500 66380
L4480 66410
L4410 66430
L4360 66430
L4290 66410
L4240 66360
L4220 66310
L4200 66220
L4200 66150
L4220 66050
L4240 66000
L4290 65960
L4360 65930
L4410 65930
L4480 65960
L4500 65980
" />
<path d="M112730 66380
L112710 66410
L112640 66430
L112590 66430
L112520 66410
L112470 66360
L112450 66310
L112430 66220
L112430 66150
L112450 66050
L112470 66000
L112520 65960
L112590 65930
L112640 65930
L112710 65960
L112730 65980
" />
<path d="M79380 76420
L79450 75820
L79600 75820
L79680 75850
L79730 75910
L79750 75970
L79770 76080
L79760 76170
L79720 76280
L79680 76340
L79610 76390
L79530 76420
L79380 76420
" />
<path d="M80240 76420
L80280 76110
L80250 76050
L80200 76020
L80090 76020
L80020 76050
" />
<path d="M80240 76390
L80180 76420
L80040 76420
L79980 76390
L79960 76340
L79970 76280
L80000 76220
L80070 76190
L80210 76190
L80270 76170
" />
<path d="M80490 76020
L80720 76020
" />
<path d="M80590 75820
L80530 76340
L80550 76390
L80610 76420
L80670 76420
" />
<path d="M81090 76390
L81030 76420
L80920 76420
L80860 76390
L80840 76340
L80870 76110
L80900 76050
L80970 76020
L81080 76020
L81130 76050
L81160 76110
L81150 76170
L80850 76220
" />
<path d="M81370 76370
L81400 76390
L81370 76420
L81340 76390
L81370 76370
L81370 76420
" />
<path d="M81410 76050
L81440 76080
L81410 76110
L81380 76080
L81410 76050
L81410 76110
" />
<path d="M82480 75820
L82190 75820
L82130 76110
L82160 76080
L82220 76050
L82360 76050
L82420 76080
L82450 76110
L82470 76170
L82450 76310
L82410 76370
L82380 76390
L82320 76420
L82180 76420
L82120 76390
L82090 76370
" />
<path d="M83200 76020
L83130 76540
L83100 76590
L83040 76620
L83010 76620
" />
<path d="M83220 75820
L83190 75850
L83220 75880
L83250 75850
L83220 75820
L83220 75880
" />
<path d="M83750 76020
L83700 76420
" />
<path d="M83490 76020
L83450 76340
L83470 76390
L83530 76420
L83610 76420
L83670 76390
L83700 76370
" />
<path d="M84030 76020
L83980 76420
" />
<path d="M84020 76080
L84050 76050
L84120 76020
L84200 76020
L84250 76050
L84280 76110
L84240 76420
" />
<path d="M85020 75880
L85050 75850
L85110 75820
L85250 75820
L85310 75850
L85340 75880
L85360 75940
L85350 75990
L85310 76080
L84930 76420
L85300 76420
" />
<path d="M85740 75820
L85790 75820
L85850 75850
L85880 75880
L85900 75940
L85910 76050
L85900 76190
L85850 76310
L85810 76370
L85780 76390
L85720 76420
L85670 76420
L85610 76390
L85580 76370
L85560 76310
L85550 76190
L85560 76050
L85610 75940
L85650 75880
L85680 75850
L85740 75820
" />
<path d="M86440 76420
L86090 76420
" />
<path d="M86270 76420
L86340 75820
L86270 75910
L86200 75970
L86140 75990
" />
<path d="M87000 76020
L86950 76420
" />
<path d="M86890 75790
L86680 76220
L87060 76220
" />
<path d="M70970 77620
L70970 77020
" />
<path d="M71320 77620
L71060 77280
" />
<path d="M71320 77020
L70970 77370
" />
<path d="M71570 77620
L71570 77220
" />
<path d="M71570 77020
L71540 77050
L71570 77080
L71600 77050
L71570 77020
L71570 77080
" />
<path d="M72210 77570
L72180 77590
L72090 77620
L72030 77620
L71950 77590
L71890 77540
L71860 77480
L71830 77370
L71830 77280
L71860 77170
L71890 77110
L71950 77050
L72030 77020
L72090 77020
L72180 77050
L72210 77080
" />
<path d="M72720 77620
L72720 77310
L72690 77250
L72630 77220
L72520 77220
L72460 77250
" />
<path d="M72720 77590
L72660 77620
L72520 77620
L72460 77590
L72430 77540
L72430 77480
L72460 77420
L72520 77390
L72660 77390
L72720 77370
" />
<path d="M73260 77620
L73260 77020
" />
<path d="M73260 77590
L73200 77620
L73090 77620
L73030 77590
L73000 77570
L72970 77510
L72970 77340
L73000 77280
L73030 77250
L73090 77220
L73200 77220
L73260 77250
" />
<path d="M74000 77310
L74200 77310
" />
<path d="M74290 77620
L74000 77620
L74000 77020
L74290 77020
" />
<path d="M74540 77570
L74570 77590
L74540 77620
L74510 77590
L74540 77570
L74540 77620
" />
<path d="M74830 77620
L74830 77020
L74980 77020
L75060 77050
L75120 77110
L75150 77170
L75180 77280
L75180 77370
L75150 77480
L75120 77540
L75060 77590
L74980 77620
L74830 77620
" />
<path d="M75430 77570
L75460 77590
L75430 77620
L75400 77590
L75430 77570
L75430 77620
" />
<path d="M75690 77450
L75980 77450
" />
<path d="M75640 77620
L75840 77020
L76040 77620
" />
<path d="M76230 77570
L76260 77590
L76230 77620
L76200 77590
L76230 77570
L76230 77620
" />
<path d="M104530 76420
L104360 76140
" />
<path d="M104180 76420
L104250 75820
L104480 75820
L104540 75850
L104570 75880
L104590 75940
L104580 76020
L104540 76080
L104510 76110
L104440 76140
L104210 76140
" />
<path d="M105010 76390
L104950 76420
L104840 76420
L104780 76390
L104760 76340
L104790 76110
L104820 76050
L104890 76020
L105000 76020
L105050 76050
L105080 76110
L105070 76170
L104770 76220
" />
<path d="M105290 76020
L105380 76420
L105570 76020
" />
<path d="M105750 76370
L105780 76390
L105750 76420
L105720 76390
L105750 76370
L105750 76420
" />
<path d="M105790 76050
L105820 76080
L105790 76110
L105760 76080
L105790 76050
L105790 76110
" />
<path d="M106490 75820
L106620 76420
L106890 75820
" />
<path d="M107030 75820
L107400 75820
L107170 76050
L107250 76050
L107310 76080
L107340 76110
L107360 76170
L107340 76310
L107300 76370
L107270 76390
L107210 76420
L107040 76420
L106980 76390
L106960 76370
" />
<path d="M107580 76370
L107610 76390
L107580 76420
L107550 76390
L107580 76370
L107580 76420
" />
<path d="M108190 76420
L107840 76420
" />
<path d="M108020 76420
L108090 75820
L108020 75910
L107950 75970
L107890 75990
" />
<path d="M108630 75820
L108680 75820
L108740 75850
L108770 75880
L108790 75940
L108800 76050
L108790 76190
L108740 76310
L108700 76370
L108670 76390
L108610 76420
L108560 76420
L108500 76390
L108470 76370
L108450 76310
L108440 76190
L108450 76050
L108500 75940
L108540 75880
L108570 75850
L108630 75820
" />
<path d="M70940 76390
L71030 76420
L71170 76420
L71230 76390
L71260 76370
L71290 76310
L71290 76250
L71260 76190
L71230 76170
L71170 76140
L71060 76110
L71000 76080
L70970 76050
L70940 75990
L70940 75940
L70970 75880
L71000 75850
L71060 75820
L71200 75820
L71290 75850
" />
<path d="M71540 76420
L71540 76020
" />
<path d="M71540 75820
L71510 75850
L71540 75880
L71570 75850
L71540 75820
L71540 75880
" />
<path d="M71780 76020
L72090 76020
L71780 76420
L72090 76420
" />
<path d="M72550 76390
L72490 76420
L72380 76420
L72320 76390
L72290 76340
L72290 76110
L72320 76050
L72380 76020
L72490 76020
L72550 76050
L72580 76110
L72580 76170
L72290 76220
" />
<path d="M72830 76370
L72860 76390
L72830 76420
L72800 76390
L72830 76370
L72830 76420
" />
<path d="M72830 76050
L72860 76080
L72830 76110
L72800 76080
L72830 76050
L72830 76110
" />
<path d="M73550 76250
L73840 76250
" />
<path d="M73500 76420
L73700 75820
L73900 76420
" />
<path d="M74350 76020
L74350 76420
" />
<path d="M74210 75790
L74060 76220
L74440 76220
" />
<path d="M104170 77620
L104170 77020
" />
<path d="M104720 77620
L104720 77020
" />
<path d="M104720 77590
L104660 77620
L104550 77620
L104490 77590
L104460 77570
L104430 77510
L104430 77340
L104460 77280
L104490 77250
L104550 77220
L104660 77220
L104720 77250
" />
<path d="M105000 77570
L105030 77590
L105000 77620
L104970 77590
L105000 77570
L105000 77620
" />
<path d="M105000 77250
L105030 77280
L105000 77310
L104970 77280
L105000 77250
L105000 77310
" />
<path d="M105700 77020
L106070 77020
L105870 77250
L105950 77250
L106010 77280
L106040 77310
L106070 77370
L106070 77510
L106040 77570
L106010 77590
L105950 77620
L105780 77620
L105720 77590
L105700 77570
" />
<path d="M106750 76990
L106240 77770
" />
<path d="M107210 77220
L107210 77620
" />
<path d="M107070 76990
L106920 77420
L107300 77420
" />
<path d="M70970 74620
L71310 74620
" />
<path d="M71070 75220
L71140 74620
" />
<path d="M71440 75220
L71490 74820
" />
<path d="M71510 74620
L71480 74650
L71510 74680
L71540 74650
L71510 74620
L71510 74680
" />
<path d="M71700 74820
L71930 74820
" />
<path d="M71800 74620
L71740 75140
L71760 75190
L71820 75220
L71880 75220
" />
<path d="M72160 75220
L72100 75190
L72080 75140
L72140 74620
" />
<path d="M72610 75190
L72550 75220
L72440 75220
L72380 75190
L72360 75140
L72390 74910
L72420 74850
L72490 74820
L72600 74820
L72650 74850
L72680 74910
L72670 74970
L72370 75020
" />
<path d="M72890 75170
L72920 75190
L72890 75220
L72860 75190
L72890 75170
L72890 75220
" />
<path d="M72930 74850
L72960 74880
L72930 74910
L72900 74880
L72930 74850
L72930 74910
" />
<path d="M71170 72510
L70970 72510
" />
<path d="M70970 72820
L70970 72220
L71260 72220
" />
<path d="M71480 72820
L71480 72420
" />
<path d="M71480 72220
L71450 72250
L71480 72280
L71510 72250
L71480 72220
L71480 72280
" />
<path d="M71860 72820
L71800 72790
L71770 72740
L71770 72220
" />
<path d="M72310 72790
L72250 72820
L72140 72820
L72080 72790
L72050 72740
L72050 72510
L72080 72450
L72140 72420
L72250 72420
L72310 72450
L72340 72510
L72340 72570
L72050 72620
" />
<path d="M72590 72770
L72620 72790
L72590 72820
L72560 72790
L72590 72770
L72590 72820
" />
<path d="M72590 72450
L72620 72480
L72590 72510
L72560 72480
L72590 72450
L72590 72510
" />
<path d="M73260 72220
L73600 72220
" />
<path d="M73430 72820
L73430 72220
" />
<path d="M73920 72220
L74030 72220
L74090 72250
L74150 72310
L74170 72420
L74170 72620
L74150 72740
L74090 72790
L74030 72820
L73920 72820
L73860 72790
L73800 72740
L73770 72620
L73770 72420
L73800 72310
L73860 72250
L73920 72220
" />
<path d="M74430 72820
L74430 72220
L74580 72220
L74660 72250
L74720 72310
L74750 72370
L74780 72480
L74780 72570
L74750 72680
L74720 72740
L74660 72790
L74580 72820
L74430 72820
" />
<path d="M75150 72220
L75260 72220
L75320 72250
L75380 72310
L75400 72420
L75400 72620
L75380 72740
L75320 72790
L75260 72820
L75150 72820
L75090 72790
L75030 72740
L75000 72620
L75000 72420
L75030 72310
L75090 72250
L75150 72220
" />
<path d="M75660 72770
L75690 72790
L75660 72820
L75630 72790
L75660 72770
L75660 72820
" />
<path d="M75920 72790
L75980 72820
L76100 72820
L76150 72790
L76180 72740
L76180 72710
L76150 72650
L76100 72620
L76010 72620
L75950 72590
L75920 72540
L75920 72510
L75950 72450
L76010 72420
L76100 72420
L76150 72450
" />
<path d="M76700 72790
L76640 72820
L76530 72820
L76470 72790
L76440 72770
L76410 72710
L76410 72540
L76440 72480
L76470 72450
L76530 72420
L76640 72420
L76700 72450
" />
<path d="M76950 72820
L76950 72220
" />
<path d="M77210 72820
L77210 72510
L77180 72450
L77120 72420
L77040 72420
L76980 72450
L76950 72480
" />
<path d="M70940 73990
L71030 74020
L71170 74020
L71230 73990
L71260 73970
L71290 73910
L71290 73850
L71260 73790
L71230 73770
L71170 73740
L71060 73710
L71000 73680
L70970 73650
L70940 73590
L70940 73540
L70970 73480
L71000 73450
L71060 73420
L71200 73420
L71290 73450
" />
<path d="M71540 74020
L71540 73420
" />
<path d="M71800 74020
L71800 73710
L71770 73650
L71710 73620
L71630 73620
L71570 73650
L71540 73680
" />
<path d="M72310 73990
L72250 74020
L72140 74020
L72080 73990
L72050 73940
L72050 73710
L72080 73650
L72140 73620
L72250 73620
L72310 73650
L72340 73710
L72340 73770
L72050 73820
" />
<path d="M72820 73990
L72760 74020
L72650 74020
L72590 73990
L72560 73940
L72560 73710
L72590 73650
L72650 73620
L72760 73620
L72820 73650
L72850 73710
L72850 73770
L72560 73820
" />
<path d="M73020 73620
L73250 73620
" />
<path d="M73100 73420
L73100 73940
L73130 73990
L73190 74020
L73250 74020
" />
<path d="M73440 73970
L73470 73990
L73440 74020
L73410 73990
L73440 73970
L73440 74020
" />
<path d="M73440 73650
L73470 73680
L73440 73710
L73410 73680
L73440 73650
L73440 73710
" />
<path d="M74620 73390
L74110 74170
" />
<path d="M74740 73420
L75080 73420
" />
<path d="M74910 74020
L74910 73420
" />
<path d="M75400 73420
L75510 73420
L75570 73450
L75630 73510
L75650 73620
L75650 73820
L75630 73940
L75570 73990
L75510 74020
L75400 74020
L75340 73990
L75280 73940
L75250 73820
L75250 73620
L75280 73510
L75340 73450
L75400 73420
" />
<path d="M75910 74020
L75910 73420
L76060 73420
L76140 73450
L76200 73510
L76230 73570
L76260 73680
L76260 73770
L76230 73880
L76200 73940
L76140 73990
L76060 74020
L75910 74020
" />
<path d="M76630 73420
L76740 73420
L76800 73450
L76860 73510
L76880 73620
L76880 73820
L76860 73940
L76800 73990
L76740 74020
L76630 74020
L76570 73990
L76510 73940
L76480 73820
L76480 73620
L76510 73510
L76570 73450
L76630 73420
" />
<path d="M77570 73390
L77060 74170
" />
<path d="M70230 71980
L70230 77980
" />
<path d="M70230 71980
L112230 71980
" />
<path d="M70230 71980
L112230 71980
" />
<path d="M70230 74380
L112230 74380
" />
<path d="M103430 75580
L103430 77980
" />
<path d="M70230 76780
L112230 76780
" />
<path d="M70230 75580
L112230 75580
" />
<path d="M76830 75580
L76830 76780
" />
</g>
<g style="fill:#9F0000; fill-opacity:0.0; 
stroke:#9F0000; stroke-width:60; stroke-opacity:1; 
stroke-linecap:round; stroke-linejoin:round;">
</g>
<g style="fill:#0000FF; fill-opacity:0.0; 
stroke:#0000FF; stroke-width:60; stroke-opacity:1; 
stroke-linecap:round; stroke-linejoin:round;">
<path d="M6230 6240
L6230 6390
" />
<path d="M6090 6330
L6230 6390
L6370 6330
" />
<path d="M6140 6500
L6230 6390
L6310 6500
" />
<path d="M6690 6240
L6690 6390
" />
<path d="M6550 6330
L6690 6390
L6830 6330
" />
<path d="M6600 6500
L6690 6390
L6770 6500
" />
<path d="M7520 6840
L7520 6240
" />
<path d="M7520 6530
L7870 6530
" />
<path d="M7870 6840
L7870 6240
" />
<path d="M8500 6790
L8470 6810
L8380 6840
L8320 6840
L8240 6810
L8180 6760
L8150 6700
L8120 6590
L8120 6500
L8150 6390
L8180 6330
L8240 6270
L8320 6240
L8380 6240
L8470 6270
L8500 6300
" />
<path d="M8670 6240
L9010 6240
" />
<path d="M8840 6840
L8840 6240
" />
<path d="M9500 6840
L9210 6840
L9210 6240
" />
<path d="M10130 6300
L10160 6270
L10220 6240
L10360 6240
L10420 6270
L10450 6300
L10480 6360
L10480 6410
L10450 6500
L10110 6840
L10480 6840
" />
<path d="M10850 6240
L10900 6240
L10960 6270
L10990 6300
L11020 6360
L11050 6470
L11050 6610
L11020 6730
L10990 6790
L10960 6810
L10900 6840
L10850 6840
L10790 6810
L10760 6790
L10730 6730
L10700 6610
L10700 6470
L10730 6360
L10760 6300
L10790 6270
L10850 6240
" />
<path d="M11250 6240
L11620 6240
L11420 6470
L11500 6470
L11560 6500
L11590 6530
L11620 6590
L11620 6730
L11590 6790
L11560 6810
L11500 6840
L11330 6840
L11270 6810
L11250 6790
" />
<path d="M11840 6300
L11870 6270
L11930 6240
L12070 6240
L12130 6270
L12160 6300
L12190 6360
L12190 6410
L12160 6500
L11820 6840
L12190 6840
" />
<path d="M12990 6240
L12990 6390
" />
<path d="M12850 6330
L12990 6390
L13130 6330
" />
<path d="M12900 6500
L12990 6390
L13070 6500
" />
<path d="M13450 6240
L13450 6390
" />
<path d="M13310 6330
L13450 6390
L13590 6330
" />
<path d="M13360 6500
L13450 6390
L13530 6500
" />
<path d="M6110 7510
L6400 7510
" />
<path d="M6060 7680
L6260 7080
L6460 7680
" />
<path d="M6910 7680
L6910 7080
" />
<path d="M6910 7650
L6850 7680
L6740 7680
L6680 7650
L6650 7630
L6620 7570
L6620 7400
L6650 7340
L6680 7310
L6740 7280
L6850 7280
L6910 7310
" />
<path d="M7450 7680
L7450 7370
L7420 7310
L7360 7280
L7250 7280
L7190 7310
" />
<path d="M7450 7650
L7390 7680
L7250 7680
L7190 7650
L7160 7600
L7160 7540
L7190 7480
L7250 7450
L7390 7450
L7450 7430
" />
<path d="M7730 7280
L7730 7880
" />
<path d="M7730 7310
L7790 7280
L7900 7280
L7960 7310
L7990 7340
L8020 7400
L8020 7570
L7990 7630
L7960 7650
L7900 7680
L7790 7680
L7730 7650
" />
<path d="M8190 7280
L8420 7280
" />
<path d="M8270 7080
L8270 7600
L8300 7650
L8360 7680
L8420 7680
" />
<path d="M8840 7650
L8780 7680
L8670 7680
L8610 7650
L8580 7600
L8580 7370
L8610 7310
L8670 7280
L8780 7280
L8840 7310
L8870 7370
L8870 7430
L8580 7480
" />
<path d="M9120 7680
L9120 7280
" />
<path d="M9120 7400
L9150 7340
L9180 7310
L9240 7280
L9290 7280
" />
<path d="M10040 7680
L9980 7650
L9950 7600
L9950 7080
" />
<path d="M10490 7650
L10430 7680
L10320 7680
L10260 7650
L10230 7600
L10230 7370
L10260 7310
L10320 7280
L10430 7280
L10490 7310
L10520 7370
L10520 7430
L10230 7480
" />
<path d="M11230 7280
L11230 7680
" />
<path d="M11230 7340
L11260 7310
L11320 7280
L11400 7280
L11460 7310
L11490 7370
L11490 7680
" />
<path d="M11770 7680
L11770 7280
" />
<path d="M11770 7080
L11740 7110
L11770 7140
L11800 7110
L11770 7080
L11770 7140
" />
<path d="M12010 7280
L12150 7680
L12290 7280
" />
<path d="M12750 7650
L12690 7680
L12580 7680
L12520 7650
L12490 7600
L12490 7370
L12520 7310
L12580 7280
L12690 7280
L12750 7310
L12780 7370
L12780 7430
L12490 7480
" />
<path d="M13290 7680
L13290 7370
L13260 7310
L13200 7280
L13090 7280
L13030 7310
" />
<path d="M13290 7650
L13230 7680
L13090 7680
L13030 7650
L13000 7600
L13000 7540
L13030 7480
L13090 7450
L13230 7450
L13290 7430
" />
<path d="M13830 7280
L13830 7680
" />
<path d="M13570 7280
L13570 7600
L13600 7650
L13660 7680
L13740 7680
L13800 7650
L13830 7630
" />
<path d="M14830 7680
L14830 7080
" />
<path d="M14830 7650
L14770 7680
L14660 7680
L14600 7650
L14570 7630
L14540 7570
L14540 7400
L14570 7340
L14600 7310
L14660 7280
L14770 7280
L14830 7310
" />
<path d="M15340 7650
L15280 7680
L15170 7680
L15110 7650
L15080 7600
L15080 7370
L15110 7310
L15170 7280
L15280 7280
L15340 7310
L15370 7370
L15370 7430
L15080 7480
" />
<path d="M16170 7680
L16110 7650
L16080 7600
L16080 7080
" />
<path d="M16420 7080
L16360 7200
" />
<path d="M16680 7680
L16680 7080
" />
<path d="M16940 7680
L16940 7370
L16910 7310
L16850 7280
L16770 7280
L16710 7310
L16680 7340
" />
<path d="M17310 7680
L17250 7650
L17220 7630
L17190 7570
L17190 7400
L17220 7340
L17250 7310
L17310 7280
L17390 7280
L17450 7310
L17480 7340
L17510 7400
L17510 7570
L17480 7630
L17450 7650
L17390 7680
L17310 7680
" />
<path d="M17760 7680
L17760 7280
" />
<path d="M17760 7400
L17790 7340
L17820 7310
L17880 7280
L17930 7280
" />
<path d="M18220 7680
L18160 7650
L18130 7600
L18130 7080
" />
<path d="M18530 7680
L18470 7650
L18440 7630
L18410 7570
L18410 7400
L18440 7340
L18470 7310
L18530 7280
L18610 7280
L18670 7310
L18700 7340
L18730 7400
L18730 7570
L18700 7630
L18670 7650
L18610 7680
L18530 7680
" />
<path d="M19240 7280
L19240 7770
L19210 7830
L19180 7850
L19130 7880
L19040 7880
L18980 7850
" />
<path d="M19240 7650
L19180 7680
L19070 7680
L19010 7650
L18980 7630
L18950 7570
L18950 7400
L18980 7340
L19010 7310
L19070 7280
L19180 7280
L19240 7310
" />
<path d="M19750 7650
L19690 7680
L19580 7680
L19520 7650
L19490 7600
L19490 7370
L19520 7310
L19580 7280
L19690 7280
L19750 7310
L19780 7370
L19780 7430
L19490 7480
" />
<path d="M6230 8760
L6230 8910
" />
<path d="M6090 8850
L6230 8910
L6370 8850
" />
<path d="M6140 9020
L6230 8910
L6310 9020
" />
<path d="M6690 8760
L6690 8910
" />
<path d="M6550 8850
L6690 8910
L6830 8850
" />
<path d="M6600 9020
L6690 8910
L6770 9020
" />
<path d="M7870 9310
L7840 9330
L7750 9360
L7690 9360
L7610 9330
L7550 9280
L7520 9220
L7490 9110
L7490 9020
L7520 8910
L7550 8850
L7610 8790
L7690 8760
L7750 8760
L7840 8790
L7870 8820
" />
<path d="M8210 9360
L8150 9330
L8120 9310
L8090 9250
L8090 9080
L8120 9020
L8150 8990
L8210 8960
L8290 8960
L8350 8990
L8380 9020
L8410 9080
L8410 9250
L8380 9310
L8350 9330
L8290 9360
L8210 9360
" />
<path d="M8660 8960
L8660 9360
" />
<path d="M8660 9020
L8690 8990
L8750 8960
L8830 8960
L8890 8990
L8920 9050
L8920 9360
" />
<path d="M9200 8960
L9200 9360
" />
<path d="M9200 9020
L9230 8990
L9290 8960
L9370 8960
L9430 8990
L9460 9050
L9460 9360
" />
<path d="M9970 9330
L9910 9360
L9800 9360
L9740 9330
L9710 9280
L9710 9050
L9740 8990
L9800 8960
L9910 8960
L9970 8990
L10000 9050
L10000 9110
L9710 9160
" />
<path d="M10510 9330
L10450 9360
L10340 9360
L10280 9330
L10250 9310
L10220 9250
L10220 9080
L10250 9020
L10280 8990
L10340 8960
L10450 8960
L10510 8990
" />
<path d="M10680 8960
L10910 8960
" />
<path d="M10760 8760
L10760 9280
L10790 9330
L10850 9360
L10910 9360
" />
<path d="M11100 9360
L11100 8960
" />
<path d="M11100 8760
L11070 8790
L11100 8820
L11130 8790
L11100 8760
L11100 8820
" />
<path d="M11650 8960
L11650 9560
" />
<path d="M11650 9330
L11590 9360
L11480 9360
L11420 9330
L11390 9310
L11360 9250
L11360 9080
L11390 9020
L11420 8990
L11480 8960
L11590 8960
L11650 8990
" />
<path d="M12190 8960
L12190 9360
" />
<path d="M11930 8960
L11930 9280
L11960 9330
L12020 9360
L12100 9360
L12160 9330
L12190 9310
" />
<path d="M12700 9330
L12640 9360
L12530 9360
L12470 9330
L12440 9280
L12440 9050
L12470 8990
L12530 8960
L12640 8960
L12700 8990
L12730 9050
L12730 9110
L12440 9160
" />
<path d="M13530 8760
L13530 8910
" />
<path d="M13390 8850
L13530 8910
L13670 8850
" />
<path d="M13440 9020
L13530 8910
L13610 9020
" />
<path d="M13990 8760
L13990 8910
" />
<path d="M13850 8850
L13990 8910
L14130 8850
" />
<path d="M13900 9020
L13990 8910
L14070 9020
" />
<path d="M6370 10170
L6310 10200
L6200 10200
L6140 10170
L6110 10120
L6110 9890
L6140 9830
L6200 9800
L6310 9800
L6370 9830
L6400 9890
L6400 9950
L6110 10000
" />
<path d="M6910 10170
L6850 10200
L6740 10200
L6680 10170
L6650 10150
L6620 10090
L6620 9920
L6650 9860
L6680 9830
L6740 9800
L6850 9800
L6910 9830
" />
<path d="M7420 10200
L7420 9890
L7390 9830
L7330 9800
L7220 9800
L7160 9830
" />
<path d="M7420 10170
L7360 10200
L7220 10200
L7160 10170
L7130 10120
L7130 10060
L7160 10000
L7220 9970
L7360 9970
L7420 9950
" />
<path d="M7700 10200
L7700 9800
" />
<path d="M7700 9920
L7730 9860
L7760 9830
L7820 9800
L7870 9800
" />
<path d="M7990 9800
L8220 9800
" />
<path d="M8070 9600
L8070 10120
L8100 10170
L8160 10200
L8220 10200
" />
<path d="M8640 10170
L8580 10200
L8470 10200
L8410 10170
L8380 10120
L8380 9890
L8410 9830
L8470 9800
L8580 9800
L8640 9830
L8670 9890
L8670 9950
L8380 10000
" />
<path d="M8920 10200
L8920 9800
" />
<path d="M8920 9920
L8950 9860
L8980 9830
L9040 9800
L9090 9800
" />
<path d="M9840 10200
L9780 10170
L9750 10120
L9750 9600
" />
<path d="M10290 10170
L10230 10200
L10120 10200
L10060 10170
L10030 10120
L10030 9890
L10060 9830
L10120 9800
L10230 9800
L10290 9830
L10320 9890
L10320 9950
L10030 10000
" />
<path d="M10540 10170
L10600 10200
L10720 10200
L10770 10170
L10800 10120
L10800 10090
L10770 10030
L10720 10000
L10630 10000
L10570 9970
L10540 9920
L10540 9890
L10570 9830
L10630 9800
L10720 9800
L10770 9830
" />
<path d="M11780 10170
L11720 10200
L11610 10200
L11550 10170
L11520 10150
L11490 10090
L11490 9920
L11520 9860
L11550 9830
L11610 9800
L11720 9800
L11780 9830
" />
<path d="M12120 10200
L12060 10170
L12030 10150
L12000 10090
L12000 9920
L12030 9860
L12060 9830
L12120 9800
L12200 9800
L12260 9830
L12290 9860
L12320 9920
L12320 10090
L12290 10150
L12260 10170
L12200 10200
L12120 10200
" />
<path d="M12570 9800
L12570 10200
" />
<path d="M12570 9860
L12600 9830
L12660 9800
L12740 9800
L12800 9830
L12830 9890
L12830 10200
" />
<path d="M13110 9800
L13110 10200
" />
<path d="M13110 9860
L13140 9830
L13200 9800
L13280 9800
L13340 9830
L13370 9890
L13370 10200
" />
<path d="M13880 10170
L13820 10200
L13710 10200
L13650 10170
L13620 10120
L13620 9890
L13650 9830
L13710 9800
L13820 9800
L13880 9830
L13910 9890
L13910 9950
L13620 10000
" />
<path d="M14420 10170
L14360 10200
L14250 10200
L14190 10170
L14160 10150
L14130 10090
L14130 9920
L14160 9860
L14190 9830
L14250 9800
L14360 9800
L14420 9830
" />
<path d="M14590 9800
L14820 9800
" />
<path d="M14670 9600
L14670 10120
L14700 10170
L14760 10200
L14820 10200
" />
<path d="M15240 10170
L15180 10200
L15070 10200
L15010 10170
L14980 10120
L14980 9890
L15010 9830
L15070 9800
L15180 9800
L15240 9830
L15270 9890
L15270 9950
L14980 10000
" />
<path d="M15780 9800
L15780 10200
" />
<path d="M15520 9800
L15520 10120
L15550 10170
L15610 10200
L15690 10200
L15750 10170
L15780 10150
" />
<path d="M16060 10200
L16060 9800
" />
<path d="M16060 9920
L16090 9860
L16120 9830
L16180 9800
L16230 9800
" />
<path d="M16400 10170
L16460 10200
L16580 10200
L16630 10170
L16660 10120
L16660 10090
L16630 10030
L16580 10000
L16490 10000
L16430 9970
L16400 9920
L16400 9890
L16430 9830
L16490 9800
L16580 9800
L16630 9830
" />
<path d="M17380 10200
L17380 9600
" />
<path d="M17640 9660
L17670 9630
L17730 9600
L17870 9600
L17930 9630
L17960 9660
L17990 9720
L17990 9770
L17960 9860
L17620 10200
L17990 10200
" />
<path d="M18590 10150
L18560 10170
L18470 10200
L18410 10200
L18330 10170
L18270 10120
L18240 10060
L18210 9950
L18210 9860
L18240 9750
L18270 9690
L18330 9630
L18410 9600
L18470 9600
L18560 9630
L18590 9660
" />
<path d="M19530 10170
L19470 10200
L19360 10200
L19300 10170
L19270 10120
L19270 9890
L19300 9830
L19360 9800
L19470 9800
L19530 9830
L19560 9890
L19560 9950
L19270 10000
" />
<path d="M19730 9800
L19960 9800
" />
<path d="M19810 9600
L19810 10120
L19840 10170
L19900 10200
L19960 10200
" />
<path d="M20700 10200
L20640 10170
L20610 10120
L20610 9600
" />
<path d="M21150 10170
L21090 10200
L20980 10200
L20920 10170
L20890 10120
L20890 9890
L20920 9830
L20980 9800
L21090 9800
L21150 9830
L21180 9890
L21180 9950
L20890 10000
" />
<path d="M21400 10170
L21460 10200
L21580 10200
L21630 10170
L21660 10120
L21660 10090
L21630 10030
L21580 10000
L21490 10000
L21430 9970
L21400 9920
L21400 9890
L21430 9830
L21490 9800
L21580 9800
L21630 9830
" />
<path d="M22380 9600
L22380 10090
L22410 10150
L22440 10170
L22500 10200
L22610 10200
L22670 10170
L22700 10150
L22730 10090
L22730 9600
" />
<path d="M22980 10030
L23270 10030
" />
<path d="M22930 10200
L23130 9600
L23330 10200
" />
<path d="M23870 10200
L23670 9920
" />
<path d="M23520 10200
L23520 9600
L23750 9600
L23810 9630
L23840 9660
L23870 9720
L23870 9800
L23840 9860
L23810 9890
L23750 9920
L23520 9920
" />
<path d="M24040 9600
L24380 9600
" />
<path d="M24210 10200
L24210 9600
" />
</g> 
</svg>
