<?xml version="1.0" standalone="no"?>
 <!DOCTYPE svg PUBLIC "-//W3C//DTD SVG 1.1//EN" 
 "http://www.w3.org/Graphics/SVG/1.1/DTD/svg11.dtd"> 
<svg xmlns="http://www.w3.org/2000/svg" version="1.1" 
    width="29.7002cm" height="21.0007cm" viewBox="0 0 116930 82680 ">
<title>SVG Picture created as Temp_Board-Edge_Cuts.svg date 2014/02/02 21:31:33 </title>
  <desc>Picture generated by PCBNEW </desc>
<g style="fill:#000000; fill-opacity:1;stroke:#000000; stroke-opacity:1;
stroke-linecap:round; stroke-linejoin:round; "
 transform="translate(0 0) scale(1 1)">
</g>
<g style="fill:#000000; fill-opacity:0.0; 
stroke:#000000; stroke-width:118.11; stroke-opacity:1; 
stroke-linecap:round; stroke-linejoin:round;">
<path d="M34326 23803
L34354 23831
L34383 23887
L34383 24028
L34354 24084
L34326 24112
L34270 24140
L34214 24140
L34129 24112
L33792 23775
L33792 24140
" />
<path d="M33792 24703
L33792 24365
" />
<path d="M33792 24534
L34383 24534
L34298 24478
L34242 24422
L34214 24365
" />
<path d="M33820 24984
L33792 24984
L33736 24956
L33708 24928
" />
<path d="M34383 25518
L34383 25237
L34101 25209
L34129 25237
L34158 25293
L34158 25434
L34129 25490
L34101 25518
L34045 25546
L33904 25546
L33848 25518
L33820 25490
L33792 25434
L33792 25293
L33820 25237
L33848 25209
" />
<path d="M33792 25828
L33792 25940
L33820 25996
L33848 26025
L33933 26081
L34045 26109
L34270 26109
L34326 26081
L34354 26053
L34383 25996
L34383 25884
L34354 25828
L34326 25800
L34270 25771
L34129 25771
L34073 25800
L34045 25828
L34017 25884
L34017 25996
L34045 26053
L34073 26081
L34129 26109
" />
<path d="M34383 26474
L34383 26531
L34354 26587
L34326 26615
L34270 26643
L34158 26671
L34017 26671
L33904 26643
L33848 26615
L33820 26587
L33792 26531
L33792 26474
L33820 26418
L33848 26390
L33904 26362
L34017 26334
L34158 26334
L34270 26362
L34326 26390
L34354 26418
L34383 26474
" />
<path d="M33792 27374
L34186 27374
" />
<path d="M34129 27374
L34158 27402
L34186 27459
L34186 27543
L34158 27599
L34101 27627
L33792 27627
" />
<path d="M34101 27627
L34158 27656
L34186 27712
L34186 27796
L34158 27852
L34101 27881
L33792 27881
" />
<path d="M33792 28162
L34186 28162
" />
<path d="M34129 28162
L34158 28190
L34186 28246
L34186 28330
L34158 28387
L34101 28415
L33792 28415
" />
<path d="M34101 28415
L34158 28443
L34186 28499
L34186 28584
L34158 28640
L34101 28668
L33792 28668
" />
<path d="M33499 30499
L33499 21999
" />
<path d="M10500 30500
L34562 30499
" />
<path d="M10500 22000
L34562 21999
" />
<path d="M33499 21999
L33269 22443
" />
<path d="M33499 21999
L33730 22443
" />
<path d="M33499 30499
L33269 30056
" />
<path d="M33499 30499
L33730 30056
" />
<path d="M34326 11803
L34354 11831
L34383 11887
L34383 12028
L34354 12084
L34326 12112
L34270 12140
L34214 12140
L34129 12112
L33792 11775
L33792 12140
" />
<path d="M33792 12703
L33792 12365
" />
<path d="M33792 12534
L34383 12534
L34298 12478
L34242 12422
L34214 12365
" />
<path d="M33820 12984
L33792 12984
L33736 12956
L33708 12928
" />
<path d="M34383 13518
L34383 13237
L34101 13209
L34129 13237
L34158 13293
L34158 13434
L34129 13490
L34101 13518
L34045 13546
L33904 13546
L33848 13518
L33820 13490
L33792 13434
L33792 13293
L33820 13237
L33848 13209
" />
<path d="M33792 13828
L33792 13940
L33820 13996
L33848 14025
L33933 14081
L34045 14109
L34270 14109
L34326 14081
L34354 14053
L34383 13996
L34383 13884
L34354 13828
L34326 13800
L34270 13771
L34129 13771
L34073 13800
L34045 13828
L34017 13884
L34017 13996
L34045 14053
L34073 14081
L34129 14109
" />
<path d="M34383 14474
L34383 14531
L34354 14587
L34326 14615
L34270 14643
L34158 14671
L34017 14671
L33904 14643
L33848 14615
L33820 14587
L33792 14531
L33792 14474
L33820 14418
L33848 14390
L33904 14362
L34017 14334
L34158 14334
L34270 14362
L34326 14390
L34354 14418
L34383 14474
" />
<path d="M33792 15374
L34186 15374
" />
<path d="M34129 15374
L34158 15402
L34186 15459
L34186 15543
L34158 15599
L34101 15627
L33792 15627
" />
<path d="M34101 15627
L34158 15656
L34186 15712
L34186 15796
L34158 15852
L34101 15881
L33792 15881
" />
<path d="M33792 16162
L34186 16162
" />
<path d="M34129 16162
L34158 16190
L34186 16246
L34186 16330
L34158 16387
L34101 16415
L33792 16415
" />
<path d="M34101 16415
L34158 16443
L34186 16499
L34186 16584
L34158 16640
L34101 16668
L33792 16668
" />
<path d="M33499 10000
L33499 18500
" />
<path d="M10500 10000
L34562 10000
" />
<path d="M10500 18500
L34562 18500
" />
<path d="M33499 18500
L33269 18056
" />
<path d="M33499 18500
L33730 18056
" />
<path d="M33499 10000
L33269 10443
" />
<path d="M33499 10000
L33730 10443
" />
</g> 
</svg>
