<?xml version="1.0" standalone="no"?>
 <!DOCTYPE svg PUBLIC "-//W3C//DTD SVG 1.1//EN" 
 "http://www.w3.org/Graphics/SVG/1.1/DTD/svg11.dtd"> 
<svg xmlns="http://www.w3.org/2000/svg" version="1.1" 
    width="29.7002cm" height="21.0007cm" viewBox="0 0 116930 82680 ">
<title>SVG Picture created as Temp_Board-Dessous_Cu.svg date 2014/02/02 21:41:45 </title>
  <desc>Picture generated by PCBNEW </desc>
<g style="fill:#000000; fill-opacity:1;stroke:#000000; stroke-opacity:1;
stroke-linecap:round; stroke-linejoin:round; "
 transform="translate(0 0) scale(1 1)">
</g>
<g style="fill:#000000; fill-opacity:0.0; 
stroke:#000000; stroke-width:118.11; stroke-opacity:1; 
stroke-linecap:round; stroke-linejoin:round;">
<path d="M45826 60803
L45854 60831
L45883 60887
L45883 61028
L45854 61084
L45826 61112
L45770 61140
L45714 61140
L45629 61112
L45292 60775
L45292 61140
" />
<path d="M45292 61703
L45292 61365
" />
<path d="M45292 61534
L45883 61534
L45798 61478
L45742 61422
L45714 61365
" />
<path d="M45320 61984
L45292 61984
L45236 61956
L45208 61928
" />
<path d="M45883 62518
L45883 62237
L45601 62209
L45629 62237
L45658 62293
L45658 62434
L45629 62490
L45601 62518
L45545 62546
L45404 62546
L45348 62518
L45320 62490
L45292 62434
L45292 62293
L45320 62237
L45348 62209
" />
<path d="M45292 62828
L45292 62940
L45320 62996
L45348 63025
L45433 63081
L45545 63109
L45770 63109
L45826 63081
L45854 63053
L45883 62996
L45883 62884
L45854 62828
L45826 62800
L45770 62771
L45629 62771
L45573 62800
L45545 62828
L45517 62884
L45517 62996
L45545 63053
L45573 63081
L45629 63109
" />
<path d="M45883 63474
L45883 63531
L45854 63587
L45826 63615
L45770 63643
L45658 63671
L45517 63671
L45404 63643
L45348 63615
L45320 63587
L45292 63531
L45292 63474
L45320 63418
L45348 63390
L45404 63362
L45517 63334
L45658 63334
L45770 63362
L45826 63390
L45854 63418
L45883 63474
" />
<path d="M45292 64374
L45686 64374
" />
<path d="M45629 64374
L45658 64402
L45686 64459
L45686 64543
L45658 64599
L45601 64627
L45292 64627
" />
<path d="M45601 64627
L45658 64656
L45686 64712
L45686 64796
L45658 64852
L45601 64881
L45292 64881
" />
<path d="M45292 65162
L45686 65162
" />
<path d="M45629 65162
L45658 65190
L45686 65246
L45686 65330
L45658 65387
L45601 65415
L45292 65415
" />
<path d="M45601 65415
L45658 65443
L45686 65499
L45686 65584
L45658 65640
L45601 65668
L45292 65668
" />
<path d="M44999 67499
L44999 58999
" />
<path d="M22000 67500
L46062 67499
" />
<path d="M22000 59000
L46062 58999
" />
<path d="M44999 58999
L44769 59443
" />
<path d="M44999 58999
L45230 59443
" />
<path d="M44999 67499
L44769 67056
" />
<path d="M44999 67499
L45230 67056
" />
<path d="M38648 66387
L38648 66106
L38929 66078
L38901 66106
L38873 66162
L38873 66303
L38901 66359
L38929 66387
L38985 66415
L39126 66415
L39182 66387
L39210 66359
L39239 66303
L39239 66162
L39210 66106
L39182 66078
" />
<path d="M38648 66584
L39239 66781
L38648 66978
" />
<path d="M35648 66148
L35648 66260
L35676 66317
L35732 66373
L35845 66401
L36042 66401
L36154 66373
L36210 66317
L36239 66260
L36239 66148
L36210 66092
L36154 66035
L36042 66007
L35845 66007
L35732 66035
L35676 66092
L35648 66148
" />
<path d="M36239 66654
L35648 66654
" />
<path d="M36239 66992
L35901 66739
" />
<path d="M35648 66992
L35985 66654
" />
<path d="M37570 66120
L37570 66401
" />
<path d="M37739 66064
L37148 66260
L37739 66457
" />
<path d="M37739 66935
L37739 66654
L37148 66654
" />
<path d="M30612 56766
L30331 56766
L30303 57048
L30331 57020
L30387 56991
L30528 56991
L30584 57020
L30612 57048
L30640 57104
L30640 57245
L30612 57301
L30584 57329
L30528 57357
L30387 57357
L30331 57329
L30303 57301
" />
<path d="M31147 56963
L31147 57357
" />
<path d="M31006 56738
L30865 57160
L31231 57160
" />
<path d="M31484 57329
L31484 57357
L31456 57413
L31428 57441
" />
<path d="M31990 56766
L31878 56766
L31821 56795
L31793 56823
L31737 56907
L31709 57020
L31709 57245
L31737 57301
L31765 57329
L31821 57357
L31934 57357
L31990 57329
L32018 57301
L32046 57245
L32046 57104
L32018 57048
L31990 57020
L31934 56991
L31821 56991
L31765 57020
L31737 57048
L31709 57104
" />
<path d="M32609 57357
L32271 57357
" />
<path d="M32440 57357
L32440 56766
L32384 56851
L32328 56907
L32271 56935
" />
<path d="M32974 56766
L33031 56766
L33087 56795
L33115 56823
L33143 56879
L33171 56991
L33171 57132
L33143 57245
L33115 57301
L33087 57329
L33031 57357
L32974 57357
L32918 57329
L32890 57301
L32862 57245
L32834 57132
L32834 56991
L32862 56879
L32890 56823
L32918 56795
L32974 56766
" />
<path d="M33874 57357
L33874 56963
" />
<path d="M33874 57020
L33902 56991
L33959 56963
L34043 56963
L34099 56991
L34127 57048
L34127 57357
" />
<path d="M34127 57048
L34156 56991
L34212 56963
L34296 56963
L34352 56991
L34381 57048
L34381 57357
" />
<path d="M34662 57357
L34662 56963
" />
<path d="M34662 57020
L34690 56991
L34746 56963
L34830 56963
L34887 56991
L34915 57048
L34915 57357
" />
<path d="M34915 57048
L34943 56991
L34999 56963
L35084 56963
L35140 56991
L35168 57048
L35168 57357
" />
<path d="M21999 57650
L43499 57650
" />
<path d="M22000 67500
L21999 56587
" />
<path d="M43500 67500
L43499 56587
" />
<path d="M43499 57650
L43056 57419
" />
<path d="M43499 57650
L43056 57880
" />
<path d="M21999 57650
L22443 57419
" />
<path d="M21999 57650
L22443 57880
" />
<path d="M30612 45266
L30331 45266
L30303 45548
L30331 45520
L30387 45491
L30528 45491
L30584 45520
L30612 45548
L30640 45604
L30640 45745
L30612 45801
L30584 45829
L30528 45857
L30387 45857
L30331 45829
L30303 45801
" />
<path d="M31147 45463
L31147 45857
" />
<path d="M31006 45238
L30865 45660
L31231 45660
" />
<path d="M31484 45829
L31484 45857
L31456 45913
L31428 45941
" />
<path d="M31990 45266
L31878 45266
L31821 45295
L31793 45323
L31737 45407
L31709 45520
L31709 45745
L31737 45801
L31765 45829
L31821 45857
L31934 45857
L31990 45829
L32018 45801
L32046 45745
L32046 45604
L32018 45548
L31990 45520
L31934 45491
L31821 45491
L31765 45520
L31737 45548
L31709 45604
" />
<path d="M32609 45857
L32271 45857
" />
<path d="M32440 45857
L32440 45266
L32384 45351
L32328 45407
L32271 45435
" />
<path d="M32974 45266
L33031 45266
L33087 45295
L33115 45323
L33143 45379
L33171 45491
L33171 45632
L33143 45745
L33115 45801
L33087 45829
L33031 45857
L32974 45857
L32918 45829
L32890 45801
L32862 45745
L32834 45632
L32834 45491
L32862 45379
L32890 45323
L32918 45295
L32974 45266
" />
<path d="M33874 45857
L33874 45463
" />
<path d="M33874 45520
L33902 45491
L33959 45463
L34043 45463
L34099 45491
L34127 45548
L34127 45857
" />
<path d="M34127 45548
L34156 45491
L34212 45463
L34296 45463
L34352 45491
L34381 45548
L34381 45857
" />
<path d="M34662 45857
L34662 45463
" />
<path d="M34662 45520
L34690 45491
L34746 45463
L34830 45463
L34887 45491
L34915 45548
L34915 45857
" />
<path d="M34915 45548
L34943 45491
L34999 45463
L35084 45463
L35140 45491
L35168 45548
L35168 45857
" />
<path d="M21999 46150
L43499 46150
" />
<path d="M22000 56000
L21999 45087
" />
<path d="M43500 56000
L43499 45087
" />
<path d="M43499 46150
L43056 45919
" />
<path d="M43499 46150
L43056 46380
" />
<path d="M21999 46150
L22443 45919
" />
<path d="M21999 46150
L22443 46380
" />
<path d="M37570 54620
L37570 54901
" />
<path d="M37739 54564
L37148 54760
L37739 54957
" />
<path d="M37739 55435
L37739 55154
L37148 55154
" />
<path d="M35648 54648
L35648 54760
L35676 54817
L35732 54873
L35845 54901
L36042 54901
L36154 54873
L36210 54817
L36239 54760
L36239 54648
L36210 54592
L36154 54535
L36042 54507
L35845 54507
L35732 54535
L35676 54592
L35648 54648
" />
<path d="M36239 55154
L35648 55154
" />
<path d="M36239 55492
L35901 55239
" />
<path d="M35648 55492
L35985 55154
" />
<path d="M38648 54887
L38648 54606
L38929 54578
L38901 54606
L38873 54662
L38873 54803
L38901 54859
L38929 54887
L38985 54915
L39126 54915
L39182 54887
L39210 54859
L39239 54803
L39239 54662
L39210 54606
L39182 54578
" />
<path d="M38648 55084
L39239 55281
L38648 55478
" />
<path d="M45826 49303
L45854 49331
L45883 49387
L45883 49528
L45854 49584
L45826 49612
L45770 49640
L45714 49640
L45629 49612
L45292 49275
L45292 49640
" />
<path d="M45292 50203
L45292 49865
" />
<path d="M45292 50034
L45883 50034
L45798 49978
L45742 49922
L45714 49865
" />
<path d="M45320 50484
L45292 50484
L45236 50456
L45208 50428
" />
<path d="M45883 51018
L45883 50737
L45601 50709
L45629 50737
L45658 50793
L45658 50934
L45629 50990
L45601 51018
L45545 51046
L45404 51046
L45348 51018
L45320 50990
L45292 50934
L45292 50793
L45320 50737
L45348 50709
" />
<path d="M45292 51328
L45292 51440
L45320 51496
L45348 51525
L45433 51581
L45545 51609
L45770 51609
L45826 51581
L45854 51553
L45883 51496
L45883 51384
L45854 51328
L45826 51300
L45770 51271
L45629 51271
L45573 51300
L45545 51328
L45517 51384
L45517 51496
L45545 51553
L45573 51581
L45629 51609
" />
<path d="M45883 51974
L45883 52031
L45854 52087
L45826 52115
L45770 52143
L45658 52171
L45517 52171
L45404 52143
L45348 52115
L45320 52087
L45292 52031
L45292 51974
L45320 51918
L45348 51890
L45404 51862
L45517 51834
L45658 51834
L45770 51862
L45826 51890
L45854 51918
L45883 51974
" />
<path d="M45292 52874
L45686 52874
" />
<path d="M45629 52874
L45658 52902
L45686 52959
L45686 53043
L45658 53099
L45601 53127
L45292 53127
" />
<path d="M45601 53127
L45658 53156
L45686 53212
L45686 53296
L45658 53352
L45601 53381
L45292 53381
" />
<path d="M45292 53662
L45686 53662
" />
<path d="M45629 53662
L45658 53690
L45686 53746
L45686 53830
L45658 53887
L45601 53915
L45292 53915
" />
<path d="M45601 53915
L45658 53943
L45686 53999
L45686 54084
L45658 54140
L45601 54168
L45292 54168
" />
<path d="M44999 55999
L44999 47499
" />
<path d="M22000 56000
L46062 55999
" />
<path d="M22000 47500
L46062 47499
" />
<path d="M44999 47499
L44769 47943
" />
<path d="M44999 47499
L45230 47943
" />
<path d="M44999 55999
L44769 55556
" />
<path d="M44999 55999
L45230 55556
" />
<path d="M45826 23303
L45854 23331
L45883 23387
L45883 23528
L45854 23584
L45826 23612
L45770 23640
L45714 23640
L45629 23612
L45292 23275
L45292 23640
" />
<path d="M45292 24203
L45292 23865
" />
<path d="M45292 24034
L45883 24034
L45798 23978
L45742 23922
L45714 23865
" />
<path d="M45320 24484
L45292 24484
L45236 24456
L45208 24428
" />
<path d="M45883 25018
L45883 24737
L45601 24709
L45629 24737
L45658 24793
L45658 24934
L45629 24990
L45601 25018
L45545 25046
L45404 25046
L45348 25018
L45320 24990
L45292 24934
L45292 24793
L45320 24737
L45348 24709
" />
<path d="M45292 25328
L45292 25440
L45320 25496
L45348 25525
L45433 25581
L45545 25609
L45770 25609
L45826 25581
L45854 25553
L45883 25496
L45883 25384
L45854 25328
L45826 25300
L45770 25271
L45629 25271
L45573 25300
L45545 25328
L45517 25384
L45517 25496
L45545 25553
L45573 25581
L45629 25609
" />
<path d="M45883 25974
L45883 26031
L45854 26087
L45826 26115
L45770 26143
L45658 26171
L45517 26171
L45404 26143
L45348 26115
L45320 26087
L45292 26031
L45292 25974
L45320 25918
L45348 25890
L45404 25862
L45517 25834
L45658 25834
L45770 25862
L45826 25890
L45854 25918
L45883 25974
" />
<path d="M45292 26874
L45686 26874
" />
<path d="M45629 26874
L45658 26902
L45686 26959
L45686 27043
L45658 27099
L45601 27127
L45292 27127
" />
<path d="M45601 27127
L45658 27156
L45686 27212
L45686 27296
L45658 27352
L45601 27381
L45292 27381
" />
<path d="M45292 27662
L45686 27662
" />
<path d="M45629 27662
L45658 27690
L45686 27746
L45686 27830
L45658 27887
L45601 27915
L45292 27915
" />
<path d="M45601 27915
L45658 27943
L45686 27999
L45686 28084
L45658 28140
L45601 28168
L45292 28168
" />
<path d="M44999 21500
L44999 30000
" />
<path d="M22000 21500
L46062 21500
" />
<path d="M22000 30000
L46062 30000
" />
<path d="M44999 30000
L44769 29556
" />
<path d="M44999 30000
L45230 29556
" />
<path d="M44999 21500
L44769 21943
" />
<path d="M44999 21500
L45230 21943
" />
<path d="M30612 31529
L30331 31529
L30303 31811
L30331 31783
L30387 31754
L30528 31754
L30584 31783
L30612 31811
L30640 31867
L30640 32008
L30612 32064
L30584 32092
L30528 32120
L30387 32120
L30331 32092
L30303 32064
" />
<path d="M31147 31726
L31147 32120
" />
<path d="M31006 31501
L30865 31923
L31231 31923
" />
<path d="M31484 32092
L31484 32120
L31456 32176
L31428 32204
" />
<path d="M31990 31529
L31878 31529
L31821 31558
L31793 31586
L31737 31670
L31709 31783
L31709 32008
L31737 32064
L31765 32092
L31821 32120
L31934 32120
L31990 32092
L32018 32064
L32046 32008
L32046 31867
L32018 31811
L31990 31783
L31934 31754
L31821 31754
L31765 31783
L31737 31811
L31709 31867
" />
<path d="M32609 32120
L32271 32120
" />
<path d="M32440 32120
L32440 31529
L32384 31614
L32328 31670
L32271 31698
" />
<path d="M32974 31529
L33031 31529
L33087 31558
L33115 31586
L33143 31642
L33171 31754
L33171 31895
L33143 32008
L33115 32064
L33087 32092
L33031 32120
L32974 32120
L32918 32092
L32890 32064
L32862 32008
L32834 31895
L32834 31754
L32862 31642
L32890 31586
L32918 31558
L32974 31529
" />
<path d="M33874 32120
L33874 31726
" />
<path d="M33874 31783
L33902 31754
L33959 31726
L34043 31726
L34099 31754
L34127 31811
L34127 32120
" />
<path d="M34127 31811
L34156 31754
L34212 31726
L34296 31726
L34352 31754
L34381 31811
L34381 32120
" />
<path d="M34662 32120
L34662 31726
" />
<path d="M34662 31783
L34690 31754
L34746 31726
L34830 31726
L34887 31754
L34915 31811
L34915 32120
" />
<path d="M34915 31811
L34943 31754
L34999 31726
L35084 31726
L35140 31754
L35168 31811
L35168 32120
" />
<path d="M21999 31349
L43499 31349
" />
<path d="M22000 21500
L21999 32412
" />
<path d="M43500 21500
L43499 32412
" />
<path d="M43499 31349
L43056 31580
" />
<path d="M43499 31349
L43056 31119
" />
<path d="M21999 31349
L22443 31580
" />
<path d="M21999 31349
L22443 31119
" />
<path d="M30612 20029
L30331 20029
L30303 20311
L30331 20283
L30387 20254
L30528 20254
L30584 20283
L30612 20311
L30640 20367
L30640 20508
L30612 20564
L30584 20592
L30528 20620
L30387 20620
L30331 20592
L30303 20564
" />
<path d="M31147 20226
L31147 20620
" />
<path d="M31006 20001
L30865 20423
L31231 20423
" />
<path d="M31484 20592
L31484 20620
L31456 20676
L31428 20704
" />
<path d="M31990 20029
L31878 20029
L31821 20058
L31793 20086
L31737 20170
L31709 20283
L31709 20508
L31737 20564
L31765 20592
L31821 20620
L31934 20620
L31990 20592
L32018 20564
L32046 20508
L32046 20367
L32018 20311
L31990 20283
L31934 20254
L31821 20254
L31765 20283
L31737 20311
L31709 20367
" />
<path d="M32609 20620
L32271 20620
" />
<path d="M32440 20620
L32440 20029
L32384 20114
L32328 20170
L32271 20198
" />
<path d="M32974 20029
L33031 20029
L33087 20058
L33115 20086
L33143 20142
L33171 20254
L33171 20395
L33143 20508
L33115 20564
L33087 20592
L33031 20620
L32974 20620
L32918 20592
L32890 20564
L32862 20508
L32834 20395
L32834 20254
L32862 20142
L32890 20086
L32918 20058
L32974 20029
" />
<path d="M33874 20620
L33874 20226
" />
<path d="M33874 20283
L33902 20254
L33959 20226
L34043 20226
L34099 20254
L34127 20311
L34127 20620
" />
<path d="M34127 20311
L34156 20254
L34212 20226
L34296 20226
L34352 20254
L34381 20311
L34381 20620
" />
<path d="M34662 20620
L34662 20226
" />
<path d="M34662 20283
L34690 20254
L34746 20226
L34830 20226
L34887 20254
L34915 20311
L34915 20620
" />
<path d="M34915 20311
L34943 20254
L34999 20226
L35084 20226
L35140 20254
L35168 20311
L35168 20620
" />
<path d="M21999 19849
L43499 19849
" />
<path d="M22000 10000
L21999 20912
" />
<path d="M43500 10000
L43499 20912
" />
<path d="M43499 19849
L43056 20080
" />
<path d="M43499 19849
L43056 19619
" />
<path d="M21999 19849
L22443 20080
" />
<path d="M21999 19849
L22443 19619
" />
<path d="M45826 11803
L45854 11831
L45883 11887
L45883 12028
L45854 12084
L45826 12112
L45770 12140
L45714 12140
L45629 12112
L45292 11775
L45292 12140
" />
<path d="M45292 12703
L45292 12365
" />
<path d="M45292 12534
L45883 12534
L45798 12478
L45742 12422
L45714 12365
" />
<path d="M45320 12984
L45292 12984
L45236 12956
L45208 12928
" />
<path d="M45883 13518
L45883 13237
L45601 13209
L45629 13237
L45658 13293
L45658 13434
L45629 13490
L45601 13518
L45545 13546
L45404 13546
L45348 13518
L45320 13490
L45292 13434
L45292 13293
L45320 13237
L45348 13209
" />
<path d="M45292 13828
L45292 13940
L45320 13996
L45348 14025
L45433 14081
L45545 14109
L45770 14109
L45826 14081
L45854 14053
L45883 13996
L45883 13884
L45854 13828
L45826 13800
L45770 13771
L45629 13771
L45573 13800
L45545 13828
L45517 13884
L45517 13996
L45545 14053
L45573 14081
L45629 14109
" />
<path d="M45883 14474
L45883 14531
L45854 14587
L45826 14615
L45770 14643
L45658 14671
L45517 14671
L45404 14643
L45348 14615
L45320 14587
L45292 14531
L45292 14474
L45320 14418
L45348 14390
L45404 14362
L45517 14334
L45658 14334
L45770 14362
L45826 14390
L45854 14418
L45883 14474
" />
<path d="M45292 15374
L45686 15374
" />
<path d="M45629 15374
L45658 15402
L45686 15459
L45686 15543
L45658 15599
L45601 15627
L45292 15627
" />
<path d="M45601 15627
L45658 15656
L45686 15712
L45686 15796
L45658 15852
L45601 15881
L45292 15881
" />
<path d="M45292 16162
L45686 16162
" />
<path d="M45629 16162
L45658 16190
L45686 16246
L45686 16330
L45658 16387
L45601 16415
L45292 16415
" />
<path d="M45601 16415
L45658 16443
L45686 16499
L45686 16584
L45658 16640
L45601 16668
L45292 16668
" />
<path d="M44999 10000
L44999 18500
" />
<path d="M22000 10000
L46062 10000
" />
<path d="M22000 18500
L46062 18500
" />
<path d="M44999 18500
L44769 18056
" />
<path d="M44999 18500
L45230 18056
" />
<path d="M44999 10000
L44769 10443
" />
<path d="M44999 10000
L45230 10443
" />
</g>
<g style="fill:#000000; fill-opacity:0.0; 
stroke:#000000; stroke-width:39.3701; stroke-opacity:1; 
stroke-linecap:round; stroke-linejoin:round;">
</g>
<g style="fill:#000000; fill-opacity:1.0; 
stroke:#000000; stroke-width:39.3701; stroke-opacity:1; 
stroke-linecap:round; stroke-linejoin:round;">
<circle cx="24000" cy="61000" r="1751.81" /> 
<circle cx="41500" cy="61000" r="1751.81" /> 
<circle cx="41500" cy="65500" r="1751.81" /> 
<circle cx="24000" cy="65500" r="1751.81" /> 
<polyline style="fill-rule:evenodd;"
points="31480,63530
30719,63530
30719,62969
31480,62969
31480,63530
" /> 
<polyline style="fill-rule:evenodd;"
points="31480,62530
30719,62530
30719,61969
31480,61969
31480,62530
" /> 
<polyline style="fill-rule:evenodd;"
points="31480,61530
30719,61530
30719,60969
31480,60969
31480,61530
" /> 
<polyline style="fill-rule:evenodd;"
points="31480,60530
30719,60530
30719,59969
31480,59969
31480,60530
" /> 
<polyline style="fill-rule:evenodd;"
points="34780,60530
34019,60530
34019,59969
34780,59969
34780,60530
" /> 
<polyline style="fill-rule:evenodd;"
points="34780,61530
34019,61530
34019,60969
34780,60969
34780,61530
" /> 
<polyline style="fill-rule:evenodd;"
points="34780,62530
34019,62530
34019,61969
34780,61969
34780,62530
" /> 
<polyline style="fill-rule:evenodd;"
points="34780,63530
34019,63530
34019,62969
34780,62969
34780,63530
" /> 
<polyline style="fill-rule:evenodd;"
points="33626,66373
33626,65626
34373,65626
34373,66373
33626,66373
" /> 
<circle cx="33000" cy="66000" r="373.815" /> 
<circle cx="32000" cy="66000" r="373.815" /> 
<circle cx="31000" cy="66000" r="373.815" /> 
<polyline style="fill-rule:evenodd;"
points="39137,65432
38862,65432
38862,65157
39137,65157
39137,65432
" /> 
<polyline style="fill-rule:evenodd;"
points="39137,64842
38862,64842
38862,64567
39137,64567
39137,64842
" /> 
<polyline style="fill-rule:evenodd;"
points="36137,65432
35862,65432
35862,65157
36137,65157
36137,65432
" /> 
<polyline style="fill-rule:evenodd;"
points="36137,64842
35862,64842
35862,64567
36137,64567
36137,64842
" /> 
<polyline style="fill-rule:evenodd;"
points="37637,65432
37362,65432
37362,65157
37637,65157
37637,65432
" /> 
<polyline style="fill-rule:evenodd;"
points="37637,64842
37362,64842
37362,64567
37637,64567
37637,64842
" /> 
<polyline style="fill-rule:evenodd;"
points="29144,64219
29555,64219
29555,64430
29144,64430
29144,64219
" /> 
<polyline style="fill-rule:evenodd;"
points="29144,64819
29555,64819
29555,65030
29144,65030
29144,64819
" /> 
<polyline style="fill-rule:evenodd;"
points="35455,63905
35044,63905
35044,63694
35455,63694
35455,63905
" /> 
<polyline style="fill-rule:evenodd;"
points="35455,63305
35044,63305
35044,63094
35455,63094
35455,63305
" /> 
<polyline style="fill-rule:evenodd;"
points="36205,63905
35794,63905
35794,63694
36205,63694
36205,63905
" /> 
<polyline style="fill-rule:evenodd;"
points="36205,63305
35794,63305
35794,63094
36205,63094
36205,63305
" /> 
<polyline style="fill-rule:evenodd;"
points="28294,60944
28705,60944
28705,61155
28294,61155
28294,60944
" /> 
<polyline style="fill-rule:evenodd;"
points="28294,61544
28705,61544
28705,61755
28294,61755
28294,61544
" /> 
<polyline style="fill-rule:evenodd;"
points="27569,60944
27980,60944
27980,61155
27569,61155
27569,60944
" /> 
<polyline style="fill-rule:evenodd;"
points="27569,61544
27980,61544
27980,61755
27569,61755
27569,61544
" /> 
<polyline style="fill-rule:evenodd;"
points="26844,60944
27255,60944
27255,61155
26844,61155
26844,60944
" /> 
<polyline style="fill-rule:evenodd;"
points="26844,61544
27255,61544
27255,61755
26844,61755
26844,61544
" /> 
<polyline style="fill-rule:evenodd;"
points="39205,63905
38794,63905
38794,63694
39205,63694
39205,63905
" /> 
<polyline style="fill-rule:evenodd;"
points="39205,63305
38794,63305
38794,63094
39205,63094
39205,63305
" /> 
<polyline style="fill-rule:evenodd;"
points="35594,60955
35594,60544
35805,60544
35805,60955
35594,60955
" /> 
<polyline style="fill-rule:evenodd;"
points="36194,60955
36194,60544
36405,60544
36405,60955
36194,60955
" /> 
<polyline style="fill-rule:evenodd;"
points="37094,60955
37094,60544
37305,60544
37305,60955
37094,60955
" /> 
<polyline style="fill-rule:evenodd;"
points="37694,60955
37694,60544
37905,60544
37905,60955
37694,60955
" /> 
<polyline style="fill-rule:evenodd;"
points="37705,63905
37294,63905
37294,63694
37705,63694
37705,63905
" /> 
<polyline style="fill-rule:evenodd;"
points="37705,63305
37294,63305
37294,63094
37705,63094
37705,63305
" /> 
<polyline style="fill-rule:evenodd;"
points="38010,61439
38010,61760
37689,61760
37689,61439
38010,61439
" /> 
<polyline style="fill-rule:evenodd;"
points="37310,61439
37310,61760
36989,61760
36989,61439
37310,61439
" /> 
<polyline style="fill-rule:evenodd;"
points="37660,62239
37660,62560
37339,62560
37339,62239
37660,62239
" /> 
<polyline style="fill-rule:evenodd;"
points="36510,61439
36510,61760
36189,61760
36189,61439
36510,61439
" /> 
<polyline style="fill-rule:evenodd;"
points="35810,61439
35810,61760
35489,61760
35489,61439
35810,61439
" /> 
<polyline style="fill-rule:evenodd;"
points="36160,62239
36160,62560
35839,62560
35839,62239
36160,62239
" /> 
<polyline style="fill-rule:evenodd;"
points="28048,65451
28048,65872
27923,65872
27923,65451
28048,65451
" /> 
<polyline style="fill-rule:evenodd;"
points="27792,65451
27792,65872
27667,65872
27667,65451
27792,65451
" /> 
<polyline style="fill-rule:evenodd;"
points="27532,65451
27532,65872
27407,65872
27407,65451
27532,65451
" /> 
<polyline style="fill-rule:evenodd;"
points="27276,65451
27276,65872
27151,65872
27151,65451
27276,65451
" /> 
<polyline style="fill-rule:evenodd;"
points="27276,63877
27276,64298
27151,64298
27151,63877
27276,63877
" /> 
<polyline style="fill-rule:evenodd;"
points="27532,63877
27532,64298
27407,64298
27407,63877
27532,63877
" /> 
<polyline style="fill-rule:evenodd;"
points="27792,63877
27792,64298
27667,64298
27667,63877
27792,63877
" /> 
<polyline style="fill-rule:evenodd;"
points="28048,63877
28048,64298
27923,64298
27923,63877
28048,63877
" /> 
<polyline style="fill-rule:evenodd;"
points="28761,64599
28761,65150
26438,65150
26438,64599
28761,64599
" /> 
<polyline style="fill-rule:evenodd;"
points="28048,53951
28048,54372
27923,54372
27923,53951
28048,53951
" /> 
<polyline style="fill-rule:evenodd;"
points="27792,53951
27792,54372
27667,54372
27667,53951
27792,53951
" /> 
<polyline style="fill-rule:evenodd;"
points="27532,53951
27532,54372
27407,54372
27407,53951
27532,53951
" /> 
<polyline style="fill-rule:evenodd;"
points="27276,53951
27276,54372
27151,54372
27151,53951
27276,53951
" /> 
<polyline style="fill-rule:evenodd;"
points="27276,52377
27276,52798
27151,52798
27151,52377
27276,52377
" /> 
<polyline style="fill-rule:evenodd;"
points="27532,52377
27532,52798
27407,52798
27407,52377
27532,52377
" /> 
<polyline style="fill-rule:evenodd;"
points="27792,52377
27792,52798
27667,52798
27667,52377
27792,52377
" /> 
<polyline style="fill-rule:evenodd;"
points="28048,52377
28048,52798
27923,52798
27923,52377
28048,52377
" /> 
<polyline style="fill-rule:evenodd;"
points="28761,53099
28761,53650
26438,53650
26438,53099
28761,53099
" /> 
<polyline style="fill-rule:evenodd;"
points="36510,49939
36510,50260
36189,50260
36189,49939
36510,49939
" /> 
<polyline style="fill-rule:evenodd;"
points="35810,49939
35810,50260
35489,50260
35489,49939
35810,49939
" /> 
<polyline style="fill-rule:evenodd;"
points="36160,50739
36160,51060
35839,51060
35839,50739
36160,50739
" /> 
<polyline style="fill-rule:evenodd;"
points="38010,49939
38010,50260
37689,50260
37689,49939
38010,49939
" /> 
<polyline style="fill-rule:evenodd;"
points="37310,49939
37310,50260
36989,50260
36989,49939
37310,49939
" /> 
<polyline style="fill-rule:evenodd;"
points="37660,50739
37660,51060
37339,51060
37339,50739
37660,50739
" /> 
<polyline style="fill-rule:evenodd;"
points="37705,52405
37294,52405
37294,52194
37705,52194
37705,52405
" /> 
<polyline style="fill-rule:evenodd;"
points="37705,51805
37294,51805
37294,51594
37705,51594
37705,51805
" /> 
<polyline style="fill-rule:evenodd;"
points="37094,49455
37094,49044
37305,49044
37305,49455
37094,49455
" /> 
<polyline style="fill-rule:evenodd;"
points="37694,49455
37694,49044
37905,49044
37905,49455
37694,49455
" /> 
<polyline style="fill-rule:evenodd;"
points="35594,49455
35594,49044
35805,49044
35805,49455
35594,49455
" /> 
<polyline style="fill-rule:evenodd;"
points="36194,49455
36194,49044
36405,49044
36405,49455
36194,49455
" /> 
<polyline style="fill-rule:evenodd;"
points="39205,52405
38794,52405
38794,52194
39205,52194
39205,52405
" /> 
<polyline style="fill-rule:evenodd;"
points="39205,51805
38794,51805
38794,51594
39205,51594
39205,51805
" /> 
<polyline style="fill-rule:evenodd;"
points="26844,49444
27255,49444
27255,49655
26844,49655
26844,49444
" /> 
<polyline style="fill-rule:evenodd;"
points="26844,50044
27255,50044
27255,50255
26844,50255
26844,50044
" /> 
<polyline style="fill-rule:evenodd;"
points="27569,49444
27980,49444
27980,49655
27569,49655
27569,49444
" /> 
<polyline style="fill-rule:evenodd;"
points="27569,50044
27980,50044
27980,50255
27569,50255
27569,50044
" /> 
<polyline style="fill-rule:evenodd;"
points="28294,49444
28705,49444
28705,49655
28294,49655
28294,49444
" /> 
<polyline style="fill-rule:evenodd;"
points="28294,50044
28705,50044
28705,50255
28294,50255
28294,50044
" /> 
<polyline style="fill-rule:evenodd;"
points="36205,52405
35794,52405
35794,52194
36205,52194
36205,52405
" /> 
<polyline style="fill-rule:evenodd;"
points="36205,51805
35794,51805
35794,51594
36205,51594
36205,51805
" /> 
<polyline style="fill-rule:evenodd;"
points="35455,52405
35044,52405
35044,52194
35455,52194
35455,52405
" /> 
<polyline style="fill-rule:evenodd;"
points="35455,51805
35044,51805
35044,51594
35455,51594
35455,51805
" /> 
<polyline style="fill-rule:evenodd;"
points="29144,52719
29555,52719
29555,52930
29144,52930
29144,52719
" /> 
<polyline style="fill-rule:evenodd;"
points="29144,53319
29555,53319
29555,53530
29144,53530
29144,53319
" /> 
<polyline style="fill-rule:evenodd;"
points="37637,53932
37362,53932
37362,53657
37637,53657
37637,53932
" /> 
<polyline style="fill-rule:evenodd;"
points="37637,53342
37362,53342
37362,53067
37637,53067
37637,53342
" /> 
<polyline style="fill-rule:evenodd;"
points="36137,53932
35862,53932
35862,53657
36137,53657
36137,53932
" /> 
<polyline style="fill-rule:evenodd;"
points="36137,53342
35862,53342
35862,53067
36137,53067
36137,53342
" /> 
<polyline style="fill-rule:evenodd;"
points="39137,53932
38862,53932
38862,53657
39137,53657
39137,53932
" /> 
<polyline style="fill-rule:evenodd;"
points="39137,53342
38862,53342
38862,53067
39137,53067
39137,53342
" /> 
<polyline style="fill-rule:evenodd;"
points="33626,54873
33626,54126
34373,54126
34373,54873
33626,54873
" /> 
<circle cx="33000" cy="54500" r="373.815" /> 
<circle cx="32000" cy="54500" r="373.815" /> 
<circle cx="31000" cy="54500" r="373.815" /> 
<polyline style="fill-rule:evenodd;"
points="31480,52030
30719,52030
30719,51469
31480,51469
31480,52030
" /> 
<polyline style="fill-rule:evenodd;"
points="31480,51030
30719,51030
30719,50469
31480,50469
31480,51030
" /> 
<polyline style="fill-rule:evenodd;"
points="31480,50030
30719,50030
30719,49469
31480,49469
31480,50030
" /> 
<polyline style="fill-rule:evenodd;"
points="31480,49030
30719,49030
30719,48469
31480,48469
31480,49030
" /> 
<polyline style="fill-rule:evenodd;"
points="34780,49030
34019,49030
34019,48469
34780,48469
34780,49030
" /> 
<polyline style="fill-rule:evenodd;"
points="34780,50030
34019,50030
34019,49469
34780,49469
34780,50030
" /> 
<polyline style="fill-rule:evenodd;"
points="34780,51030
34019,51030
34019,50469
34780,50469
34780,51030
" /> 
<polyline style="fill-rule:evenodd;"
points="34780,52030
34019,52030
34019,51469
34780,51469
34780,52030
" /> 
<circle cx="24000" cy="54000" r="1751.81" /> 
<circle cx="41500" cy="54000" r="1751.81" /> 
<circle cx="41500" cy="49500" r="1751.81" /> 
<circle cx="24000" cy="49500" r="1751.81" /> 
<circle cx="24000" cy="28000" r="1751.81" /> 
<circle cx="41500" cy="28000" r="1751.81" /> 
<circle cx="41500" cy="23500" r="1751.81" /> 
<circle cx="24000" cy="23500" r="1751.81" /> 
<polyline style="fill-rule:evenodd;"
points="33626,23373
33626,22626
34373,22626
34373,23373
33626,23373
" /> 
<circle cx="33000" cy="23000" r="373.815" /> 
<circle cx="32000" cy="23000" r="373.815" /> 
<circle cx="31000" cy="23000" r="373.815" /> 
<polyline style="fill-rule:evenodd;"
points="33626,11873
33626,11126
34373,11126
34373,11873
33626,11873
" /> 
<circle cx="33000" cy="11500" r="373.815" /> 
<circle cx="32000" cy="11500" r="373.815" /> 
<circle cx="31000" cy="11500" r="373.815" /> 
<circle cx="24000" cy="12000" r="1751.81" /> 
<circle cx="41500" cy="12000" r="1751.81" /> 
<circle cx="41500" cy="16500" r="1751.81" /> 
<circle cx="24000" cy="16500" r="1751.81" /> 
<circle cx="34750" cy="64250" r="236.22" /> 
<circle cx="34750" cy="52750" r="236.22" /> 
<circle cx="34750" cy="24750" r="236.22" /> 
<circle cx="34750" cy="13250" r="236.22" /> 
<circle cx="28050" cy="66625" r="236.22" /> 
<circle cx="28050" cy="55125" r="236.22" /> 
<circle cx="28050" cy="22375" r="236.22" /> 
<circle cx="28050" cy="10875" r="236.22" /> 
<circle cx="28900" cy="66150" r="236.22" /> 
<circle cx="28900" cy="54650" r="236.22" /> 
<circle cx="28900" cy="22850" r="236.22" /> 
<circle cx="28900" cy="11350" r="236.22" /> 
<circle cx="39000" cy="61500" r="236.22" /> 
<circle cx="29500" cy="61600" r="236.22" /> 
<circle cx="29425" cy="65575" r="236.22" /> 
<circle cx="29425" cy="54075" r="236.22" /> 
<circle cx="29500" cy="50100" r="236.22" /> 
<circle cx="39000" cy="50000" r="236.22" /> 
<circle cx="39000" cy="27500" r="236.22" /> 
<circle cx="29500" cy="27400" r="236.22" /> 
<circle cx="29425" cy="23425" r="236.22" /> 
<circle cx="29425" cy="11925" r="236.22" /> 
<circle cx="29500" cy="15900" r="236.22" /> 
<circle cx="39000" cy="16000" r="236.22" /> 
<circle cx="29925" cy="59775" r="236.22" /> 
<circle cx="27175" cy="66600" r="236.22" /> 
<circle cx="27175" cy="55100" r="236.22" /> 
<circle cx="29925" cy="48275" r="236.22" /> 
<circle cx="29925" cy="29225" r="236.22" /> 
<circle cx="27175" cy="22400" r="236.22" /> 
<circle cx="27175" cy="10900" r="236.22" /> 
<circle cx="29925" cy="17725" r="236.22" /> 
<circle cx="28500" cy="62325" r="236.22" /> 
<circle cx="29900" cy="63250" r="236.22" /> 
<circle cx="29900" cy="51750" r="236.22" /> 
<circle cx="28500" cy="50825" r="236.22" /> 
<circle cx="28500" cy="26675" r="236.22" /> 
<circle cx="29900" cy="25750" r="236.22" /> 
<circle cx="29900" cy="14250" r="236.22" /> 
<circle cx="28500" cy="15175" r="236.22" /> 
</g>
<g style="fill:#000000; fill-opacity:1.0; 
stroke:#000000; stroke-width:196.85; stroke-opacity:1; 
stroke-linecap:round; stroke-linejoin:round;">
<path d="M36000 65295
L37500 65295
" />
<path d="M37500 65295
L39000 65295
" />
<path d="M35295 65295
L34750 64750
" />
<path d="M34750 64750
L34750 64250
" />
<path d="M36000 65295
L35295 65295
" />
<path d="M34250 63250
L34250 62250
" />
<path d="M34250 62250
L34250 61250
" />
<path d="M34250 63750
L34750 64250
" />
<path d="M34250 63250
L34250 63750
" />
</g>
<g style="fill:#000000; fill-opacity:1.0; 
stroke:#000000; stroke-width:137.795; stroke-opacity:1; 
stroke-linecap:round; stroke-linejoin:round;">
<path d="M28023 64125
L29150 64125
" />
<path d="M29150 64125
L29350 64325
" />
<path d="M27986 64088
L28023 64125
" />
</g>
<g style="fill:#000000; fill-opacity:1.0; 
stroke:#000000; stroke-width:196.85; stroke-opacity:1; 
stroke-linecap:round; stroke-linejoin:round;">
<path d="M34675 64325
L34750 64250
" />
<path d="M29350 64325
L34675 64325
" />
<path d="M35200 63800
L34750 64250
" />
<path d="M35250 63800
L35200 63800
" />
<path d="M35250 52300
L35200 52300
" />
<path d="M35200 52300
L34750 52750
" />
<path d="M29350 52825
L34675 52825
" />
<path d="M34675 52825
L34750 52750
" />
</g>
<g style="fill:#000000; fill-opacity:1.0; 
stroke:#000000; stroke-width:137.795; stroke-opacity:1; 
stroke-linecap:round; stroke-linejoin:round;">
<path d="M27986 52588
L28023 52625
" />
<path d="M29150 52625
L29350 52825
" />
<path d="M28023 52625
L29150 52625
" />
</g>
<g style="fill:#000000; fill-opacity:1.0; 
stroke:#000000; stroke-width:196.85; stroke-opacity:1; 
stroke-linecap:round; stroke-linejoin:round;">
<path d="M34250 51750
L34250 52250
" />
<path d="M34250 52250
L34750 52750
" />
<path d="M34250 50750
L34250 49750
" />
<path d="M34250 51750
L34250 50750
" />
<path d="M36000 53795
L35295 53795
" />
<path d="M34750 53250
L34750 52750
" />
<path d="M35295 53795
L34750 53250
" />
<path d="M37500 53795
L39000 53795
" />
<path d="M36000 53795
L37500 53795
" />
<path d="M33000 23750
L33250 24000
" />
<path d="M33250 24000
L34500 24000
" />
<path d="M34500 24000
L34750 24250
" />
<path d="M34750 24250
L34750 24750
" />
<path d="M33000 23000
L33000 23750
" />
<path d="M33000 11500
L33000 12250
" />
<path d="M34750 12750
L34750 13250
" />
<path d="M34500 12500
L34750 12750
" />
<path d="M33250 12500
L34500 12500
" />
<path d="M33000 12250
L33250 12500
" />
</g>
<g style="fill:#000000; fill-opacity:1.0; 
stroke:#000000; stroke-width:118.11; stroke-opacity:1; 
stroke-linecap:round; stroke-linejoin:round;">
<path d="M28050 66625
L27730 66305
" />
<path d="M27730 65662
L27730 66305
" />
<path d="M27730 54162
L27730 54805
" />
<path d="M28050 55125
L27730 54805
" />
</g>
<g style="fill:#000000; fill-opacity:1.0; 
stroke:#000000; stroke-width:196.85; stroke-opacity:1; 
stroke-linecap:round; stroke-linejoin:round;">
<path d="M29900 22375
L30225 22050
" />
<path d="M30225 22050
L31700 22050
" />
<path d="M31700 22050
L32000 22350
" />
<path d="M32000 22350
L32000 23000
" />
<path d="M28050 22375
L29900 22375
" />
<path d="M28050 10875
L29900 10875
" />
<path d="M32000 10850
L32000 11500
" />
<path d="M31700 10550
L32000 10850
" />
<path d="M30225 10550
L31700 10550
" />
<path d="M29900 10875
L30225 10550
" />
</g>
<g style="fill:#000000; fill-opacity:1.0; 
stroke:#000000; stroke-width:118.11; stroke-opacity:1; 
stroke-linecap:round; stroke-linejoin:round;">
<path d="M27986 65886
L28250 66150
" />
<path d="M28250 66150
L28900 66150
" />
<path d="M27986 65662
L27986 65886
" />
<path d="M27986 54162
L27986 54386
" />
<path d="M28250 54650
L28900 54650
" />
<path d="M27986 54386
L28250 54650
" />
</g>
<g style="fill:#000000; fill-opacity:1.0; 
stroke:#000000; stroke-width:196.85; stroke-opacity:1; 
stroke-linecap:round; stroke-linejoin:round;">
<path d="M30150 23000
L31000 23000
" />
<path d="M30000 22850
L28900 22850
" />
<path d="M30150 23000
L30000 22850
" />
<path d="M30150 11500
L30000 11350
" />
<path d="M30000 11350
L28900 11350
" />
<path d="M30150 11500
L31000 11500
" />
<path d="M39000 61500
L39000 63200
" />
<path d="M38900 61600
L39000 61500
" />
<path d="M37850 61600
L38900 61600
" />
<path d="M37800 61550
L37850 61600
" />
<path d="M37800 60750
L37800 61550
" />
<path d="M36300 60200
L36500 60000
" />
<path d="M36500 60000
L37500 60000
" />
<path d="M37500 60000
L37800 60300
" />
<path d="M37800 60300
L37800 60750
" />
<path d="M36300 60750
L36300 60200
" />
</g>
<g style="fill:#000000; fill-opacity:1.0; 
stroke:#000000; stroke-width:137.795; stroke-opacity:1; 
stroke-linecap:round; stroke-linejoin:round;">
<path d="M27214 65261
L27600 64875
" />
<path d="M27214 65662
L27214 65261
" />
<path d="M29300 64875
L27600 64875
" />
<path d="M29350 64925
L29300 64875
" />
</g>
<g style="fill:#000000; fill-opacity:1.0; 
stroke:#000000; stroke-width:196.85; stroke-opacity:1; 
stroke-linecap:round; stroke-linejoin:round;">
<path d="M27050 61050
L27775 61050
" />
<path d="M27775 61050
L28500 61050
" />
<path d="M28950 61050
L29500 61600
" />
<path d="M28500 61050
L28950 61050
" />
<path d="M29350 65500
L29425 65575
" />
<path d="M29350 64925
L29350 65500
" />
<path d="M36350 60800
L36300 60750
" />
<path d="M36350 61600
L36350 60800
" />
<path d="M36350 50100
L36350 49300
" />
<path d="M36350 49300
L36300 49250
" />
<path d="M29350 53425
L29350 54000
" />
<path d="M29350 54000
L29425 54075
" />
<path d="M28500 49550
L28950 49550
" />
<path d="M28950 49550
L29500 50100
" />
<path d="M27775 49550
L28500 49550
" />
<path d="M27050 49550
L27775 49550
" />
</g>
<g style="fill:#000000; fill-opacity:1.0; 
stroke:#000000; stroke-width:137.795; stroke-opacity:1; 
stroke-linecap:round; stroke-linejoin:round;">
<path d="M29350 53425
L29300 53375
" />
<path d="M29300 53375
L27600 53375
" />
<path d="M27214 54162
L27214 53761
" />
<path d="M27214 53761
L27600 53375
" />
</g>
<g style="fill:#000000; fill-opacity:1.0; 
stroke:#000000; stroke-width:196.85; stroke-opacity:1; 
stroke-linecap:round; stroke-linejoin:round;">
<path d="M36300 49250
L36300 48700
" />
<path d="M37800 48800
L37800 49250
" />
<path d="M37500 48500
L37800 48800
" />
<path d="M36500 48500
L37500 48500
" />
<path d="M36300 48700
L36500 48500
" />
<path d="M37800 49250
L37800 50050
" />
<path d="M37800 50050
L37850 50100
" />
<path d="M37850 50100
L38900 50100
" />
<path d="M38900 50100
L39000 50000
" />
<path d="M39000 50000
L39000 51700
" />
<path d="M39000 23500
L39000 25500
" />
<path d="M38500 23000
L39000 23500
" />
<path d="M39000 25500
L39000 27500
" />
<path d="M34000 23000
L38500 23000
" />
<path d="M37525 29800
L39000 28325
" />
<path d="M31900 29800
L37525 29800
" />
<path d="M29500 27400
L31900 29800
" />
<path d="M39000 28325
L39000 27500
" />
<path d="M29425 23425
L30850 24850
" />
<path d="M30850 24850
L30850 26050
" />
<path d="M30850 26050
L29500 27400
" />
<path d="M30850 14550
L29500 15900
" />
<path d="M30850 13350
L30850 14550
" />
<path d="M29425 11925
L30850 13350
" />
<path d="M39000 16825
L39000 16000
" />
<path d="M29500 15900
L31900 18300
" />
<path d="M31900 18300
L37525 18300
" />
<path d="M37525 18300
L39000 16825
" />
<path d="M34000 11500
L38500 11500
" />
<path d="M39000 14000
L39000 16000
" />
<path d="M38500 11500
L39000 12000
" />
<path d="M39000 12000
L39000 14000
" />
<path d="M39000 63800
L39000 64705
" />
<path d="M39000 52300
L39000 53205
" />
<path d="M37200 61550
L37150 61600
" />
<path d="M37200 60750
L37200 61550
" />
<path d="M36350 62400
L37150 61600
" />
<path d="M36000 62400
L36350 62400
" />
<path d="M36000 62400
L36000 63200
" />
<path d="M36000 50900
L36000 51700
" />
<path d="M36000 50900
L36350 50900
" />
<path d="M36350 50900
L37150 50100
" />
<path d="M37200 49250
L37200 50050
" />
<path d="M37200 50050
L37150 50100
" />
<path d="M37500 62400
L37500 63200
" />
<path d="M37500 50900
L37500 51700
" />
<path d="M36000 63800
L36000 64705
" />
<path d="M36000 52300
L36000 53205
" />
<path d="M37500 63800
L37500 64705
" />
<path d="M37500 52300
L37500 53205
" />
</g>
<g style="fill:#000000; fill-opacity:1.0; 
stroke:#000000; stroke-width:137.795; stroke-opacity:1; 
stroke-linecap:round; stroke-linejoin:round;">
<path d="M35500 59750
L35700 59950
" />
</g>
<g style="fill:#000000; fill-opacity:1.0; 
stroke:#000000; stroke-width:196.85; stroke-opacity:1; 
stroke-linecap:round; stroke-linejoin:round;">
<path d="M35700 59950
L35500 59750
" />
<path d="M35700 60750
L35700 59950
" />
<path d="M29925 59775
L30425 59275
" />
<path d="M30425 59275
L35025 59275
" />
<path d="M35025 59275
L35500 59750
" />
</g>
<g style="fill:#000000; fill-opacity:1.0; 
stroke:#000000; stroke-width:118.11; stroke-opacity:1; 
stroke-linecap:round; stroke-linejoin:round;">
<path d="M27470 65662
L27470 66305
" />
<path d="M27470 66305
L27175 66600
" />
</g>
<g style="fill:#000000; fill-opacity:1.0; 
stroke:#000000; stroke-width:196.85; stroke-opacity:1; 
stroke-linecap:round; stroke-linejoin:round;">
<path d="M35250 62000
L35650 61600
" />
<path d="M35250 63200
L35250 62000
" />
<path d="M35650 60800
L35700 60750
" />
<path d="M35650 61600
L35650 60800
" />
<path d="M35650 50100
L35650 49300
" />
<path d="M35650 49300
L35700 49250
" />
<path d="M35250 51700
L35250 50500
" />
<path d="M35250 50500
L35650 50100
" />
</g>
<g style="fill:#000000; fill-opacity:1.0; 
stroke:#000000; stroke-width:118.11; stroke-opacity:1; 
stroke-linecap:round; stroke-linejoin:round;">
<path d="M27470 54805
L27175 55100
" />
<path d="M27470 54162
L27470 54805
" />
</g>
<g style="fill:#000000; fill-opacity:1.0; 
stroke:#000000; stroke-width:196.85; stroke-opacity:1; 
stroke-linecap:round; stroke-linejoin:round;">
<path d="M35025 47775
L35500 48250
" />
<path d="M30425 47775
L35025 47775
" />
<path d="M29925 48275
L30425 47775
" />
<path d="M35700 49250
L35700 48450
" />
<path d="M35700 48450
L35500 48250
" />
</g>
<g style="fill:#000000; fill-opacity:1.0; 
stroke:#000000; stroke-width:137.795; stroke-opacity:1; 
stroke-linecap:round; stroke-linejoin:round;">
<path d="M35500 48250
L35700 48450
" />
</g>
<g style="fill:#000000; fill-opacity:1.0; 
stroke:#000000; stroke-width:196.85; stroke-opacity:1; 
stroke-linecap:round; stroke-linejoin:round;">
<path d="M27175 26475
L29925 29225
" />
<path d="M27175 22400
L27175 26475
" />
<path d="M27175 10900
L27175 14975
" />
<path d="M27175 14975
L29925 17725
" />
<path d="M28050 63250
L27825 63475
" />
</g>
<g style="fill:#000000; fill-opacity:1.0; 
stroke:#000000; stroke-width:100; stroke-opacity:1; 
stroke-linecap:round; stroke-linejoin:round;">
<path d="M27730 63570
L27730 64088
" />
<path d="M27730 63570
L27825 63475
" />
</g>
<g style="fill:#000000; fill-opacity:1.0; 
stroke:#000000; stroke-width:196.85; stroke-opacity:1; 
stroke-linecap:round; stroke-linejoin:round;">
<path d="M29900 63250
L28050 63250
" />
<path d="M31250 63250
L29900 63250
" />
<path d="M28500 61650
L28500 62325
" />
<path d="M28500 50150
L28500 50825
" />
<path d="M31250 51750
L29900 51750
" />
<path d="M29900 51750
L28050 51750
" />
</g>
<g style="fill:#000000; fill-opacity:1.0; 
stroke:#000000; stroke-width:100; stroke-opacity:1; 
stroke-linecap:round; stroke-linejoin:round;">
<path d="M27730 52070
L27825 51975
" />
<path d="M27730 52070
L27730 52588
" />
</g>
<g style="fill:#000000; fill-opacity:1.0; 
stroke:#000000; stroke-width:196.85; stroke-opacity:1; 
stroke-linecap:round; stroke-linejoin:round;">
<path d="M28050 51750
L27825 51975
" />
<path d="M28500 26675
L29425 25750
" />
<path d="M29425 25750
L29900 25750
" />
<path d="M29425 14250
L29900 14250
" />
<path d="M28500 15175
L29425 14250
" />
</g>
<g style="fill:#000000; fill-opacity:1.0; 
stroke:#000000; stroke-width:118.11; stroke-opacity:1; 
stroke-linecap:round; stroke-linejoin:round;">
<path d="M27214 63664
L27100 63550
" />
<path d="M27100 63550
L27100 63075
" />
</g>
<g style="fill:#000000; fill-opacity:1.0; 
stroke:#000000; stroke-width:196.85; stroke-opacity:1; 
stroke-linecap:round; stroke-linejoin:round;">
<path d="M27125 63050
L27100 63075
" />
</g>
<g style="fill:#000000; fill-opacity:1.0; 
stroke:#000000; stroke-width:118.11; stroke-opacity:1; 
stroke-linecap:round; stroke-linejoin:round;">
<path d="M27214 64088
L27214 63664
" />
</g>
<g style="fill:#000000; fill-opacity:1.0; 
stroke:#000000; stroke-width:196.85; stroke-opacity:1; 
stroke-linecap:round; stroke-linejoin:round;">
<path d="M27050 62975
L27125 63050
" />
<path d="M27050 62175
L27050 62975
" />
<path d="M27050 61650
L27050 62175
" />
<path d="M26575 62175
L26350 61950
" />
<path d="M26350 61950
L26350 60600
" />
<path d="M26350 60600
L26575 60375
" />
<path d="M26575 60375
L29350 60375
" />
<path d="M29350 60375
L30225 61250
" />
<path d="M30225 61250
L31250 61250
" />
<path d="M27050 62175
L26575 62175
" />
<path d="M27050 50675
L26575 50675
" />
<path d="M30225 49750
L31250 49750
" />
<path d="M29350 48875
L30225 49750
" />
<path d="M26575 48875
L29350 48875
" />
<path d="M26350 49100
L26575 48875
" />
<path d="M26350 50450
L26350 49100
" />
<path d="M26575 50675
L26350 50450
" />
<path d="M27050 50150
L27050 50675
" />
<path d="M27050 50675
L27050 51475
" />
<path d="M27050 51475
L27125 51550
" />
</g>
<g style="fill:#000000; fill-opacity:1.0; 
stroke:#000000; stroke-width:118.11; stroke-opacity:1; 
stroke-linecap:round; stroke-linejoin:round;">
<path d="M27214 52588
L27214 52164
" />
</g>
<g style="fill:#000000; fill-opacity:1.0; 
stroke:#000000; stroke-width:196.85; stroke-opacity:1; 
stroke-linecap:round; stroke-linejoin:round;">
<path d="M27125 51550
L27100 51575
" />
</g>
<g style="fill:#000000; fill-opacity:1.0; 
stroke:#000000; stroke-width:118.11; stroke-opacity:1; 
stroke-linecap:round; stroke-linejoin:round;">
<path d="M27100 52050
L27100 51575
" />
<path d="M27214 52164
L27100 52050
" />
<path d="M27470 63280
L27450 63300
" />
</g>
<g style="fill:#000000; fill-opacity:1.0; 
stroke:#000000; stroke-width:196.85; stroke-opacity:1; 
stroke-linecap:round; stroke-linejoin:round;">
<path d="M27900 62850
L27450 63300
" />
<path d="M28025 62850
L27900 62850
" />
</g>
<g style="fill:#000000; fill-opacity:1.0; 
stroke:#000000; stroke-width:118.11; stroke-opacity:1; 
stroke-linecap:round; stroke-linejoin:round;">
<path d="M27470 64088
L27470 63280
" />
</g>
<g style="fill:#000000; fill-opacity:1.0; 
stroke:#000000; stroke-width:196.85; stroke-opacity:1; 
stroke-linecap:round; stroke-linejoin:round;">
<path d="M27775 62600
L28025 62850
" />
<path d="M27775 61650
L27775 62600
" />
<path d="M29750 62250
L29150 62850
" />
<path d="M29150 62850
L28025 62850
" />
<path d="M31250 62250
L29750 62250
" />
<path d="M31250 50750
L29750 50750
" />
<path d="M29150 51350
L28025 51350
" />
<path d="M29750 50750
L29150 51350
" />
<path d="M27775 50150
L27775 51100
" />
<path d="M27775 51100
L28025 51350
" />
</g>
<g style="fill:#000000; fill-opacity:1.0; 
stroke:#000000; stroke-width:118.11; stroke-opacity:1; 
stroke-linecap:round; stroke-linejoin:round;">
<path d="M27470 52588
L27470 51780
" />
</g>
<g style="fill:#000000; fill-opacity:1.0; 
stroke:#000000; stroke-width:196.85; stroke-opacity:1; 
stroke-linecap:round; stroke-linejoin:round;">
<path d="M28025 51350
L27900 51350
" />
<path d="M27900 51350
L27450 51800
" />
</g>
<g style="fill:#000000; fill-opacity:1.0; 
stroke:#000000; stroke-width:118.11; stroke-opacity:1; 
stroke-linecap:round; stroke-linejoin:round;">
<path d="M27470 51780
L27450 51800
" />
</g>
<g style="fill:#000000; fill-opacity:1.0; 
stroke:#000000; stroke-width:39.3701; stroke-opacity:1; 
stroke-linecap:round; stroke-linejoin:round;">
<polyline style="fill-rule:evenodd;"
points="43450,15925
43214,15356
42646,14787
41903,14478
41099,14478
40356,14785
39787,15353
39478,16096
39478,16900
39785,17643
40353,18212
40924,18450
35255,18450
35255,13149
35179,12963
35098,12882
35098,12750
35071,12616
34996,12503
34996,12503
34746,12253
34633,12178
34611,12173
34500,12151
34499,12151
33394,12151
33348,12105
33348,12052
33364,12045
33545,11864
33643,11628
33643,11372
33545,11135
33364,10954
33128,10856
32872,10856
32635,10954
32499,11089
32364,10954
32348,10947
32348,10850
32348,10849
32348,10849
32321,10716
32246,10603
32246,10603
31946,10303
31833,10228
31811,10223
31700,10201
31699,10201
30225,10201
30091,10228
29978,10303
29978,10303
29755,10526
28417,10526
28336,10446
28151,10369
27949,10369
27763,10445
27621,10588
27607,10621
27604,10613
27461,10471
27276,10394
27074,10394
26888,10470
26746,10613
26669,10798
26669,11000
26745,11186
26826,11267
26826,14974
26826,14975
26848,15086
26853,15108
26928,15221
29419,17711
29419,17825
29495,18011
29638,18153
29823,18230
30025,18230
30211,18154
30353,18011
30430,17826
30430,17624
30354,17438
30211,17296
30026,17219
29911,17219
28355,15662
28398,15680
28600,15680
28786,15604
28928,15461
29005,15276
29005,15161
29551,14616
29613,14678
29798,14755
30000,14755
30186,14679
30328,14536
30405,14351
30405,14149
30329,13963
30186,13821
30001,13744
29799,13744
29613,13820
29532,13901
29425,13901
29424,13901
29291,13928
29178,14003
29178,14003
28513,14669
28399,14669
28213,14745
28071,14888
27994,15073
27994,15275
28012,15319
27523,14830
27523,11267
27603,11186
27617,11153
27620,11161
27763,11303
27948,11380
28150,11380
28336,11304
28396,11244
28394,11248
28394,11450
28470,11636
28613,11778
28798,11855
29000,11855
29186,11779
29267,11698
29855,11698
29903,11746
29903,11746
30016,11821
30150,11848
30447,11848
30454,11864
30635,12045
30871,12143
31127,12143
31364,12045
31500,11910
31635,12045
31871,12143
32127,12143
32364,12045
32500,11910
32635,12045
32651,12052
32651,12249
32651,12250
32673,12361
32678,12383
32753,12496
33003,12746
33003,12746
33116,12821
33250,12848
34355,12848
34395,12888
34321,12963
34244,13148
34244,13350
34320,13536
34463,13678
34648,13755
34850,13755
35036,13679
35178,13536
35255,13351
35255,13149
35255,18450
24574,18450
25143,18214
25712,17646
26021,16903
26021,16099
25714,15356
25146,14787
24403,14478
23599,14478
22856,14785
22287,15353
22050,15924
22050,12574
22285,13143
22853,13712
23596,14021
24400,14021
25143,13714
25712,13146
26021,12403
26021,11599
25714,10856
25146,10287
24575,10050
40925,10050
40356,10285
39787,10853
39478,11596
39478,12400
39785,13143
40353,13712
41096,14021
41900,14021
42643,13714
43212,13146
43450,12575
43450,15925
" /> 
</g>
<g style="fill:#000000; fill-opacity:0.0; 
stroke:#000000; stroke-width:100; stroke-opacity:1; 
stroke-linecap:round; stroke-linejoin:round;">
<polyline fill="none;"
points="43450,15925
43214,15356
42646,14787
41903,14478
41099,14478
40356,14785
39787,15353
39478,16096
39478,16900
39785,17643
40353,18212
40924,18450
35255,18450
35255,13149
35179,12963
35098,12882
35098,12750
35071,12616
34996,12503
34996,12503
34746,12253
34633,12178
34611,12173
34500,12151
34499,12151
33394,12151
33348,12105
33348,12052
33364,12045
33545,11864
33643,11628
33643,11372
33545,11135
33364,10954
33128,10856
32872,10856
32635,10954
32499,11089
32364,10954
32348,10947
32348,10850
32348,10849
32348,10849
32321,10716
32246,10603
32246,10603
31946,10303
31833,10228
31811,10223
31700,10201
31699,10201
30225,10201
30091,10228
29978,10303
29978,10303
29755,10526
28417,10526
28336,10446
28151,10369
27949,10369
27763,10445
27621,10588
27607,10621
27604,10613
27461,10471
27276,10394
27074,10394
26888,10470
26746,10613
26669,10798
26669,11000
26745,11186
26826,11267
26826,14974
26826,14975
26848,15086
26853,15108
26928,15221
29419,17711
29419,17825
29495,18011
29638,18153
29823,18230
30025,18230
30211,18154
30353,18011
30430,17826
30430,17624
30354,17438
30211,17296
30026,17219
29911,17219
28355,15662
28398,15680
28600,15680
28786,15604
28928,15461
29005,15276
29005,15161
29551,14616
29613,14678
29798,14755
30000,14755
30186,14679
30328,14536
30405,14351
30405,14149
30329,13963
30186,13821
30001,13744
29799,13744
29613,13820
29532,13901
29425,13901
29424,13901
29291,13928
29178,14003
29178,14003
28513,14669
28399,14669
28213,14745
28071,14888
27994,15073
27994,15275
28012,15319
27523,14830
27523,11267
27603,11186
27617,11153
27620,11161
27763,11303
27948,11380
28150,11380
28336,11304
28396,11244
28394,11248
28394,11450
28470,11636
28613,11778
28798,11855
29000,11855
29186,11779
29267,11698
29855,11698
29903,11746
29903,11746
30016,11821
30150,11848
30447,11848
30454,11864
30635,12045
30871,12143
31127,12143
31364,12045
31500,11910
31635,12045
31871,12143
32127,12143
32364,12045
32500,11910
32635,12045
32651,12052
32651,12249
32651,12250
32673,12361
32678,12383
32753,12496
33003,12746
33003,12746
33116,12821
33250,12848
34355,12848
34395,12888
34321,12963
34244,13148
34244,13350
34320,13536
34463,13678
34648,13755
34850,13755
35036,13679
35178,13536
35255,13351
35255,13149
35255,18450
24574,18450
25143,18214
25712,17646
26021,16903
26021,16099
25714,15356
25146,14787
24403,14478
23599,14478
22856,14785
22287,15353
22050,15924
22050,12574
22285,13143
22853,13712
23596,14021
24400,14021
25143,13714
25712,13146
26021,12403
26021,11599
25714,10856
25146,10287
24575,10050
40925,10050
40356,10285
39787,10853
39478,11596
39478,12400
39785,13143
40353,13712
41096,14021
41900,14021
42643,13714
43212,13146
43450,12575
43450,15925
" /> 
</g>
<g style="fill:#000000; fill-opacity:1.0; 
stroke:#000000; stroke-width:39.3701; stroke-opacity:1; 
stroke-linecap:round; stroke-linejoin:round;">
<polyline style="fill-rule:evenodd;"
points="43450,27425
43214,26856
42646,26287
41903,25978
41099,25978
40356,26285
39787,26853
39478,27596
39478,28400
39785,29143
40353,29712
40924,29950
35255,29950
35255,24649
35179,24463
35098,24382
35098,24250
35071,24116
34996,24003
34996,24003
34746,23753
34633,23678
34611,23673
34500,23651
34499,23651
33394,23651
33348,23605
33348,23552
33364,23545
33545,23364
33643,23128
33643,22872
33545,22635
33364,22454
33128,22356
32872,22356
32635,22454
32499,22589
32364,22454
32348,22447
32348,22350
32348,22349
32348,22349
32321,22216
32246,22103
32246,22103
31946,21803
31833,21728
31811,21723
31700,21701
31699,21701
30225,21701
30091,21728
29978,21803
29978,21803
29755,22026
28417,22026
28336,21946
28151,21869
27949,21869
27763,21945
27621,22088
27607,22121
27604,22113
27461,21971
27276,21894
27074,21894
26888,21970
26746,22113
26669,22298
26669,22500
26745,22686
26826,22767
26826,26474
26826,26475
26848,26586
26853,26608
26928,26721
29419,29211
29419,29325
29495,29511
29638,29653
29823,29730
30025,29730
30211,29654
30353,29511
30430,29326
30430,29124
30354,28938
30211,28796
30026,28719
29911,28719
28355,27162
28398,27180
28600,27180
28786,27104
28928,26961
29005,26776
29005,26661
29551,26116
29613,26178
29798,26255
30000,26255
30186,26179
30328,26036
30405,25851
30405,25649
30329,25463
30186,25321
30001,25244
29799,25244
29613,25320
29532,25401
29425,25401
29424,25401
29291,25428
29178,25503
29178,25503
28513,26169
28399,26169
28213,26245
28071,26388
27994,26573
27994,26775
28012,26819
27523,26330
27523,22767
27603,22686
27617,22653
27620,22661
27763,22803
27948,22880
28150,22880
28336,22804
28396,22744
28394,22748
28394,22950
28470,23136
28613,23278
28798,23355
29000,23355
29186,23279
29267,23198
29855,23198
29903,23246
29903,23246
30016,23321
30150,23348
30447,23348
30454,23364
30635,23545
30871,23643
31127,23643
31364,23545
31500,23410
31635,23545
31871,23643
32127,23643
32364,23545
32500,23410
32635,23545
32651,23552
32651,23749
32651,23750
32673,23861
32678,23883
32753,23996
33003,24246
33003,24246
33116,24321
33250,24348
34355,24348
34395,24388
34321,24463
34244,24648
34244,24850
34320,25036
34463,25178
34648,25255
34850,25255
35036,25179
35178,25036
35255,24851
35255,24649
35255,29950
24574,29950
25143,29714
25712,29146
26021,28403
26021,27599
25714,26856
25146,26287
24403,25978
23599,25978
22856,26285
22287,26853
22050,27424
22050,24074
22285,24643
22853,25212
23596,25521
24400,25521
25143,25214
25712,24646
26021,23903
26021,23099
25714,22356
25146,21787
24575,21550
40925,21550
40356,21785
39787,22353
39478,23096
39478,23900
39785,24643
40353,25212
41096,25521
41900,25521
42643,25214
43212,24646
43450,24075
43450,27425
" /> 
</g>
<g style="fill:#000000; fill-opacity:0.0; 
stroke:#000000; stroke-width:100; stroke-opacity:1; 
stroke-linecap:round; stroke-linejoin:round;">
<polyline fill="none;"
points="43450,27425
43214,26856
42646,26287
41903,25978
41099,25978
40356,26285
39787,26853
39478,27596
39478,28400
39785,29143
40353,29712
40924,29950
35255,29950
35255,24649
35179,24463
35098,24382
35098,24250
35071,24116
34996,24003
34996,24003
34746,23753
34633,23678
34611,23673
34500,23651
34499,23651
33394,23651
33348,23605
33348,23552
33364,23545
33545,23364
33643,23128
33643,22872
33545,22635
33364,22454
33128,22356
32872,22356
32635,22454
32499,22589
32364,22454
32348,22447
32348,22350
32348,22349
32348,22349
32321,22216
32246,22103
32246,22103
31946,21803
31833,21728
31811,21723
31700,21701
31699,21701
30225,21701
30091,21728
29978,21803
29978,21803
29755,22026
28417,22026
28336,21946
28151,21869
27949,21869
27763,21945
27621,22088
27607,22121
27604,22113
27461,21971
27276,21894
27074,21894
26888,21970
26746,22113
26669,22298
26669,22500
26745,22686
26826,22767
26826,26474
26826,26475
26848,26586
26853,26608
26928,26721
29419,29211
29419,29325
29495,29511
29638,29653
29823,29730
30025,29730
30211,29654
30353,29511
30430,29326
30430,29124
30354,28938
30211,28796
30026,28719
29911,28719
28355,27162
28398,27180
28600,27180
28786,27104
28928,26961
29005,26776
29005,26661
29551,26116
29613,26178
29798,26255
30000,26255
30186,26179
30328,26036
30405,25851
30405,25649
30329,25463
30186,25321
30001,25244
29799,25244
29613,25320
29532,25401
29425,25401
29424,25401
29291,25428
29178,25503
29178,25503
28513,26169
28399,26169
28213,26245
28071,26388
27994,26573
27994,26775
28012,26819
27523,26330
27523,22767
27603,22686
27617,22653
27620,22661
27763,22803
27948,22880
28150,22880
28336,22804
28396,22744
28394,22748
28394,22950
28470,23136
28613,23278
28798,23355
29000,23355
29186,23279
29267,23198
29855,23198
29903,23246
29903,23246
30016,23321
30150,23348
30447,23348
30454,23364
30635,23545
30871,23643
31127,23643
31364,23545
31500,23410
31635,23545
31871,23643
32127,23643
32364,23545
32500,23410
32635,23545
32651,23552
32651,23749
32651,23750
32673,23861
32678,23883
32753,23996
33003,24246
33003,24246
33116,24321
33250,24348
34355,24348
34395,24388
34321,24463
34244,24648
34244,24850
34320,25036
34463,25178
34648,25255
34850,25255
35036,25179
35178,25036
35255,24851
35255,24649
35255,29950
24574,29950
25143,29714
25712,29146
26021,28403
26021,27599
25714,26856
25146,26287
24403,25978
23599,25978
22856,26285
22287,26853
22050,27424
22050,24074
22285,24643
22853,25212
23596,25521
24400,25521
25143,25214
25712,24646
26021,23903
26021,23099
25714,22356
25146,21787
24575,21550
40925,21550
40356,21785
39787,22353
39478,23096
39478,23900
39785,24643
40353,25212
41096,25521
41900,25521
42643,25214
43212,24646
43450,24075
43450,27425
" /> 
</g>
<g style="fill:#000000; fill-opacity:1.0; 
stroke:#000000; stroke-width:39.3701; stroke-opacity:1; 
stroke-linecap:round; stroke-linejoin:round;">
<polyline style="fill-rule:evenodd;"
points="30546,61749
30488,61691
30450,61599
30450,61598
30225,61598
30091,61571
29978,61496
29978,61496
29205,60723
26719,60723
26698,60744
26698,61306
26775,61275
26874,61274
27324,61274
27412,61311
27500,61275
27599,61274
28049,61274
28137,61311
28225,61275
28324,61274
28774,61274
28866,61312
28936,61383
28974,61475
28975,61574
28975,61824
28937,61916
28872,61981
28928,62038
29005,62223
29005,62425
28974,62501
29005,62501
29503,62003
29503,62003
29616,61928
29750,61901
30449,61901
30449,61900
30487,61808
30546,61749
" /> 
</g>
<g style="fill:#000000; fill-opacity:0.0; 
stroke:#000000; stroke-width:100; stroke-opacity:1; 
stroke-linecap:round; stroke-linejoin:round;">
<polyline fill="none;"
points="30546,61749
30488,61691
30450,61599
30450,61598
30225,61598
30091,61571
29978,61496
29978,61496
29205,60723
26719,60723
26698,60744
26698,61306
26775,61275
26874,61274
27324,61274
27412,61311
27500,61275
27599,61274
28049,61274
28137,61311
28225,61275
28324,61274
28774,61274
28866,61312
28936,61383
28974,61475
28975,61574
28975,61824
28937,61916
28872,61981
28928,62038
29005,62223
29005,62425
28974,62501
29005,62501
29503,62003
29503,62003
29616,61928
29750,61901
30449,61901
30449,61900
30487,61808
30546,61749
" /> 
</g>
<g style="fill:#000000; fill-opacity:1.0; 
stroke:#000000; stroke-width:39.3701; stroke-opacity:1; 
stroke-linecap:round; stroke-linejoin:round;">
<polyline style="fill-rule:evenodd;"
points="40925,67450
40356,67214
39787,66646
39722,66490
39722,67343
38159,67343
38159,67301
36722,67301
36722,67413
35159,67413
35159,65615
35048,65541
35048,65541
34503,64996
34428,64883
34423,64861
34401,64750
34401,64749
34401,64673
33643,64673
33643,66127
33545,66364
33364,66545
33128,66643
32872,66643
32635,66545
32499,66410
32364,66545
32128,66643
31872,66643
31635,66545
31499,66410
31364,66545
31128,66643
30872,66643
30635,66545
30454,66364
30356,66128
30356,65872
30454,65635
30635,65454
30871,65356
31127,65356
31364,65454
31500,65589
31635,65454
31871,65356
32127,65356
32364,65454
32500,65589
32635,65454
32871,65356
33127,65356
33364,65454
33545,65635
33643,65871
33643,66127
33643,64673
29688,64673
29624,64699
29525,64700
29405,64700
29405,66250
29329,66436
29186,66578
29001,66655
28799,66655
28613,66579
28553,66519
28555,66523
28555,66725
28479,66911
28336,67053
28151,67130
27949,67130
27763,67054
27621,66911
27607,66878
27604,66886
27461,67028
27276,67105
27074,67105
26888,67029
26746,66886
26669,66701
26669,66499
26745,66313
26888,66171
27073,66094
27160,66094
27160,65998
27137,65941
27137,65842
27137,65382
27175,65290
27245,65220
27337,65182
27437,65181
27602,65181
27602,65182
27697,65181
27862,65181
27862,65182
27953,65181
28118,65181
28209,65219
28280,65290
28318,65382
28318,65481
28318,65781
28378,65840
28493,65840
28613,65721
28798,65644
29000,65644
29186,65720
29328,65863
29405,66048
29405,66250
29405,64700
29075,64700
28983,64662
28913,64591
28875,64499
28874,64443
28286,64443
28280,64459
28210,64529
28118,64567
28018,64568
27853,64568
27853,64567
27762,64568
27597,64568
27597,64567
27502,64568
27337,64568
27337,64567
27246,64568
27081,64568
26990,64530
26919,64459
26881,64367
26881,64268
26881,63808
26893,63780
26881,63768
26814,63668
26790,63550
26790,63227
26778,63208
26770,63172
26728,63108
26723,63086
26701,62975
26701,62974
26701,62523
26575,62523
26575,62523
26463,62501
26441,62496
26328,62421
26328,62421
26103,62196
26028,62083
26023,62061
26001,61950
26001,61949
26001,61449
25714,62143
25146,62712
24403,63021
23599,63021
22856,62714
22287,62146
22050,61575
22050,64925
22285,64356
22853,63787
23596,63478
24400,63478
25143,63785
25712,64353
26021,65096
26021,65900
25714,66643
25146,67212
24575,67450
40925,67450
" /> 
</g>
<g style="fill:#000000; fill-opacity:0.0; 
stroke:#000000; stroke-width:100; stroke-opacity:1; 
stroke-linecap:round; stroke-linejoin:round;">
<polyline fill="none;"
points="40925,67450
40356,67214
39787,66646
39722,66490
39722,67343
38159,67343
38159,67301
36722,67301
36722,67413
35159,67413
35159,65615
35048,65541
35048,65541
34503,64996
34428,64883
34423,64861
34401,64750
34401,64749
34401,64673
33643,64673
33643,66127
33545,66364
33364,66545
33128,66643
32872,66643
32635,66545
32499,66410
32364,66545
32128,66643
31872,66643
31635,66545
31499,66410
31364,66545
31128,66643
30872,66643
30635,66545
30454,66364
30356,66128
30356,65872
30454,65635
30635,65454
30871,65356
31127,65356
31364,65454
31500,65589
31635,65454
31871,65356
32127,65356
32364,65454
32500,65589
32635,65454
32871,65356
33127,65356
33364,65454
33545,65635
33643,65871
33643,66127
33643,64673
29688,64673
29624,64699
29525,64700
29405,64700
29405,66250
29329,66436
29186,66578
29001,66655
28799,66655
28613,66579
28553,66519
28555,66523
28555,66725
28479,66911
28336,67053
28151,67130
27949,67130
27763,67054
27621,66911
27607,66878
27604,66886
27461,67028
27276,67105
27074,67105
26888,67029
26746,66886
26669,66701
26669,66499
26745,66313
26888,66171
27073,66094
27160,66094
27160,65998
27137,65941
27137,65842
27137,65382
27175,65290
27245,65220
27337,65182
27437,65181
27602,65181
27602,65182
27697,65181
27862,65181
27862,65182
27953,65181
28118,65181
28209,65219
28280,65290
28318,65382
28318,65481
28318,65781
28378,65840
28493,65840
28613,65721
28798,65644
29000,65644
29186,65720
29328,65863
29405,66048
29405,66250
29405,64700
29075,64700
28983,64662
28913,64591
28875,64499
28874,64443
28286,64443
28280,64459
28210,64529
28118,64567
28018,64568
27853,64568
27853,64567
27762,64568
27597,64568
27597,64567
27502,64568
27337,64568
27337,64567
27246,64568
27081,64568
26990,64530
26919,64459
26881,64367
26881,64268
26881,63808
26893,63780
26881,63768
26814,63668
26790,63550
26790,63227
26778,63208
26770,63172
26728,63108
26723,63086
26701,62975
26701,62974
26701,62523
26575,62523
26575,62523
26463,62501
26441,62496
26328,62421
26328,62421
26103,62196
26028,62083
26023,62061
26001,61950
26001,61949
26001,61449
25714,62143
25146,62712
24403,63021
23599,63021
22856,62714
22287,62146
22050,61575
22050,64925
22285,64356
22853,63787
23596,63478
24400,63478
25143,63785
25712,64353
26021,65096
26021,65900
25714,66643
25146,67212
24575,67450
40925,67450
" /> 
</g>
<g style="fill:#000000; fill-opacity:1.0; 
stroke:#000000; stroke-width:39.3701; stroke-opacity:1; 
stroke-linecap:round; stroke-linejoin:round;">
<polyline style="fill-rule:evenodd;"
points="43450,61574
43214,62143
42646,62712
41903,63021
41099,63021
40356,62714
39787,62146
39478,61403
39478,60599
39785,59856
40353,59287
40924,59050
35292,59050
35746,59503
35746,59503
35746,59503
35946,59703
35946,59703
35946,59703
36021,59816
36048,59950
36048,60411
36074,60475
36075,60574
36075,61024
36037,61116
35998,61155
35998,61234
36041,61278
36079,61370
36080,61469
36080,61829
36042,61921
35993,61969
36229,61969
36270,61986
36719,61537
36719,61370
36757,61278
36828,61208
36851,61198
36851,61088
36825,61024
36824,60925
36824,60475
36862,60383
36933,60313
37025,60275
37124,60274
37374,60274
37466,60312
37536,60383
37574,60475
37575,60574
37575,61024
37548,61088
37548,61294
37579,61370
37580,61469
37580,61829
37542,61921
37493,61969
37729,61969
37821,62007
37891,62078
37929,62170
37930,62269
37930,62629
37892,62721
37848,62765
37848,62855
37866,62862
37936,62933
37974,63025
37975,63124
37975,63374
37937,63466
37903,63499
37936,63533
37974,63625
37975,63724
37975,63974
37937,64066
37866,64136
37848,64144
37848,64385
37868,64406
37906,64498
37907,64597
37907,64911
37892,64946
38607,64946
38593,64911
38592,64812
38592,64498
38630,64406
38651,64385
38651,64144
38633,64137
38563,64066
38525,63974
38524,63875
38524,63625
38562,63533
38633,63463
38725,63425
38824,63424
39274,63424
39366,63462
39436,63533
39474,63625
39475,63724
39475,63974
39437,64066
39366,64136
39348,64144
39348,64385
39368,64406
39406,64498
39407,64597
39407,64911
39370,65000
39406,65088
39407,65187
39407,65501
39369,65593
39305,65656
39478,65656
39478,65099
39785,64356
40353,63787
41096,63478
41900,63478
42643,63785
43212,64353
43450,64924
43450,61574
" /> 
</g>
<g style="fill:#000000; fill-opacity:0.0; 
stroke:#000000; stroke-width:100; stroke-opacity:1; 
stroke-linecap:round; stroke-linejoin:round;">
<polyline fill="none;"
points="43450,61574
43214,62143
42646,62712
41903,63021
41099,63021
40356,62714
39787,62146
39478,61403
39478,60599
39785,59856
40353,59287
40924,59050
35292,59050
35746,59503
35746,59503
35746,59503
35946,59703
35946,59703
35946,59703
36021,59816
36048,59950
36048,60411
36074,60475
36075,60574
36075,61024
36037,61116
35998,61155
35998,61234
36041,61278
36079,61370
36080,61469
36080,61829
36042,61921
35993,61969
36229,61969
36270,61986
36719,61537
36719,61370
36757,61278
36828,61208
36851,61198
36851,61088
36825,61024
36824,60925
36824,60475
36862,60383
36933,60313
37025,60275
37124,60274
37374,60274
37466,60312
37536,60383
37574,60475
37575,60574
37575,61024
37548,61088
37548,61294
37579,61370
37580,61469
37580,61829
37542,61921
37493,61969
37729,61969
37821,62007
37891,62078
37929,62170
37930,62269
37930,62629
37892,62721
37848,62765
37848,62855
37866,62862
37936,62933
37974,63025
37975,63124
37975,63374
37937,63466
37903,63499
37936,63533
37974,63625
37975,63724
37975,63974
37937,64066
37866,64136
37848,64144
37848,64385
37868,64406
37906,64498
37907,64597
37907,64911
37892,64946
38607,64946
38593,64911
38592,64812
38592,64498
38630,64406
38651,64385
38651,64144
38633,64137
38563,64066
38525,63974
38524,63875
38524,63625
38562,63533
38633,63463
38725,63425
38824,63424
39274,63424
39366,63462
39436,63533
39474,63625
39475,63724
39475,63974
39437,64066
39366,64136
39348,64144
39348,64385
39368,64406
39406,64498
39407,64597
39407,64911
39370,65000
39406,65088
39407,65187
39407,65501
39369,65593
39305,65656
39478,65656
39478,65099
39785,64356
40353,63787
41096,63478
41900,63478
42643,63785
43212,64353
43450,64924
43450,61574
" /> 
</g>
<g style="fill:#000000; fill-opacity:1.0; 
stroke:#000000; stroke-width:39.3701; stroke-opacity:1; 
stroke-linecap:round; stroke-linejoin:round;">
<polyline style="fill-rule:evenodd;"
points="30546,50249
30488,50191
30450,50099
30450,50098
30225,50098
30091,50071
29978,49996
29978,49996
29205,49223
26719,49223
26698,49244
26698,49806
26775,49775
26874,49774
27324,49774
27412,49811
27500,49775
27599,49774
28049,49774
28137,49811
28225,49775
28324,49774
28774,49774
28866,49812
28936,49883
28974,49975
28975,50074
28975,50324
28937,50416
28872,50481
28928,50538
29005,50723
29005,50925
28974,51001
29005,51001
29503,50503
29503,50503
29616,50428
29750,50401
30449,50401
30449,50400
30487,50308
30546,50249
" /> 
</g>
<g style="fill:#000000; fill-opacity:0.0; 
stroke:#000000; stroke-width:100; stroke-opacity:1; 
stroke-linecap:round; stroke-linejoin:round;">
<polyline fill="none;"
points="30546,50249
30488,50191
30450,50099
30450,50098
30225,50098
30091,50071
29978,49996
29978,49996
29205,49223
26719,49223
26698,49244
26698,49806
26775,49775
26874,49774
27324,49774
27412,49811
27500,49775
27599,49774
28049,49774
28137,49811
28225,49775
28324,49774
28774,49774
28866,49812
28936,49883
28974,49975
28975,50074
28975,50324
28937,50416
28872,50481
28928,50538
29005,50723
29005,50925
28974,51001
29005,51001
29503,50503
29503,50503
29616,50428
29750,50401
30449,50401
30449,50400
30487,50308
30546,50249
" /> 
</g>
<g style="fill:#000000; fill-opacity:1.0; 
stroke:#000000; stroke-width:39.3701; stroke-opacity:1; 
stroke-linecap:round; stroke-linejoin:round;">
<polyline style="fill-rule:evenodd;"
points="40925,55950
40356,55714
39787,55146
39722,54990
39722,55843
38159,55843
38159,55801
36722,55801
36722,55913
35159,55913
35159,54115
35048,54041
35048,54041
34503,53496
34428,53383
34423,53361
34401,53250
34401,53249
34401,53173
33643,53173
33643,54627
33545,54864
33364,55045
33128,55143
32872,55143
32635,55045
32499,54910
32364,55045
32128,55143
31872,55143
31635,55045
31499,54910
31364,55045
31128,55143
30872,55143
30635,55045
30454,54864
30356,54628
30356,54372
30454,54135
30635,53954
30871,53856
31127,53856
31364,53954
31500,54089
31635,53954
31871,53856
32127,53856
32364,53954
32500,54089
32635,53954
32871,53856
33127,53856
33364,53954
33545,54135
33643,54371
33643,54627
33643,53173
29688,53173
29624,53199
29525,53200
29405,53200
29405,54750
29329,54936
29186,55078
29001,55155
28799,55155
28613,55079
28553,55019
28555,55023
28555,55225
28479,55411
28336,55553
28151,55630
27949,55630
27763,55554
27621,55411
27607,55378
27604,55386
27461,55528
27276,55605
27074,55605
26888,55529
26746,55386
26669,55201
26669,54999
26745,54813
26888,54671
27073,54594
27160,54594
27160,54498
27137,54441
27137,54342
27137,53882
27175,53790
27245,53720
27337,53682
27437,53681
27602,53681
27602,53682
27697,53681
27862,53681
27862,53682
27953,53681
28118,53681
28209,53719
28280,53790
28318,53882
28318,53981
28318,54281
28378,54340
28493,54340
28613,54221
28798,54144
29000,54144
29186,54220
29328,54363
29405,54548
29405,54750
29405,53200
29075,53200
28983,53162
28913,53091
28875,52999
28874,52943
28286,52943
28280,52959
28210,53029
28118,53067
28018,53068
27853,53068
27853,53067
27762,53068
27597,53068
27597,53067
27502,53068
27337,53068
27337,53067
27246,53068
27081,53068
26990,53030
26919,52959
26881,52867
26881,52768
26881,52308
26893,52280
26881,52268
26814,52168
26790,52050
26790,51727
26778,51708
26770,51672
26728,51608
26723,51586
26701,51475
26701,51474
26701,51023
26575,51023
26575,51023
26463,51001
26441,50996
26328,50921
26328,50921
26103,50696
26028,50583
26023,50561
26001,50450
26001,50449
26001,49949
25714,50643
25146,51212
24403,51521
23599,51521
22856,51214
22287,50646
22050,50075
22050,53425
22285,52856
22853,52287
23596,51978
24400,51978
25143,52285
25712,52853
26021,53596
26021,54400
25714,55143
25146,55712
24575,55950
40925,55950
" /> 
</g>
<g style="fill:#000000; fill-opacity:0.0; 
stroke:#000000; stroke-width:100; stroke-opacity:1; 
stroke-linecap:round; stroke-linejoin:round;">
<polyline fill="none;"
points="40925,55950
40356,55714
39787,55146
39722,54990
39722,55843
38159,55843
38159,55801
36722,55801
36722,55913
35159,55913
35159,54115
35048,54041
35048,54041
34503,53496
34428,53383
34423,53361
34401,53250
34401,53249
34401,53173
33643,53173
33643,54627
33545,54864
33364,55045
33128,55143
32872,55143
32635,55045
32499,54910
32364,55045
32128,55143
31872,55143
31635,55045
31499,54910
31364,55045
31128,55143
30872,55143
30635,55045
30454,54864
30356,54628
30356,54372
30454,54135
30635,53954
30871,53856
31127,53856
31364,53954
31500,54089
31635,53954
31871,53856
32127,53856
32364,53954
32500,54089
32635,53954
32871,53856
33127,53856
33364,53954
33545,54135
33643,54371
33643,54627
33643,53173
29688,53173
29624,53199
29525,53200
29405,53200
29405,54750
29329,54936
29186,55078
29001,55155
28799,55155
28613,55079
28553,55019
28555,55023
28555,55225
28479,55411
28336,55553
28151,55630
27949,55630
27763,55554
27621,55411
27607,55378
27604,55386
27461,55528
27276,55605
27074,55605
26888,55529
26746,55386
26669,55201
26669,54999
26745,54813
26888,54671
27073,54594
27160,54594
27160,54498
27137,54441
27137,54342
27137,53882
27175,53790
27245,53720
27337,53682
27437,53681
27602,53681
27602,53682
27697,53681
27862,53681
27862,53682
27953,53681
28118,53681
28209,53719
28280,53790
28318,53882
28318,53981
28318,54281
28378,54340
28493,54340
28613,54221
28798,54144
29000,54144
29186,54220
29328,54363
29405,54548
29405,54750
29405,53200
29075,53200
28983,53162
28913,53091
28875,52999
28874,52943
28286,52943
28280,52959
28210,53029
28118,53067
28018,53068
27853,53068
27853,53067
27762,53068
27597,53068
27597,53067
27502,53068
27337,53068
27337,53067
27246,53068
27081,53068
26990,53030
26919,52959
26881,52867
26881,52768
26881,52308
26893,52280
26881,52268
26814,52168
26790,52050
26790,51727
26778,51708
26770,51672
26728,51608
26723,51586
26701,51475
26701,51474
26701,51023
26575,51023
26575,51023
26463,51001
26441,50996
26328,50921
26328,50921
26103,50696
26028,50583
26023,50561
26001,50450
26001,50449
26001,49949
25714,50643
25146,51212
24403,51521
23599,51521
22856,51214
22287,50646
22050,50075
22050,53425
22285,52856
22853,52287
23596,51978
24400,51978
25143,52285
25712,52853
26021,53596
26021,54400
25714,55143
25146,55712
24575,55950
40925,55950
" /> 
</g>
<g style="fill:#000000; fill-opacity:1.0; 
stroke:#000000; stroke-width:39.3701; stroke-opacity:1; 
stroke-linecap:round; stroke-linejoin:round;">
<polyline style="fill-rule:evenodd;"
points="43450,50074
43214,50643
42646,51212
41903,51521
41099,51521
40356,51214
39787,50646
39478,49903
39478,49099
39785,48356
40353,47787
40924,47550
35292,47550
35746,48003
35746,48003
35746,48003
35946,48203
35946,48203
35946,48203
36021,48316
36048,48450
36048,48911
36074,48975
36075,49074
36075,49524
36037,49616
35998,49655
35998,49734
36041,49778
36079,49870
36080,49969
36080,50329
36042,50421
35993,50469
36229,50469
36270,50486
36719,50037
36719,49870
36757,49778
36828,49708
36851,49698
36851,49588
36825,49524
36824,49425
36824,48975
36862,48883
36933,48813
37025,48775
37124,48774
37374,48774
37466,48812
37536,48883
37574,48975
37575,49074
37575,49524
37548,49588
37548,49794
37579,49870
37580,49969
37580,50329
37542,50421
37493,50469
37729,50469
37821,50507
37891,50578
37929,50670
37930,50769
37930,51129
37892,51221
37848,51265
37848,51355
37866,51362
37936,51433
37974,51525
37975,51624
37975,51874
37937,51966
37903,51999
37936,52033
37974,52125
37975,52224
37975,52474
37937,52566
37866,52636
37848,52644
37848,52885
37868,52906
37906,52998
37907,53097
37907,53411
37892,53446
38607,53446
38593,53411
38592,53312
38592,52998
38630,52906
38651,52885
38651,52644
38633,52637
38563,52566
38525,52474
38524,52375
38524,52125
38562,52033
38633,51963
38725,51925
38824,51924
39274,51924
39366,51962
39436,52033
39474,52125
39475,52224
39475,52474
39437,52566
39366,52636
39348,52644
39348,52885
39368,52906
39406,52998
39407,53097
39407,53411
39370,53500
39406,53588
39407,53687
39407,54001
39369,54093
39305,54156
39478,54156
39478,53599
39785,52856
40353,52287
41096,51978
41900,51978
42643,52285
43212,52853
43450,53424
43450,50074
" /> 
</g>
<g style="fill:#000000; fill-opacity:0.0; 
stroke:#000000; stroke-width:100; stroke-opacity:1; 
stroke-linecap:round; stroke-linejoin:round;">
<polyline fill="none;"
points="43450,50074
43214,50643
42646,51212
41903,51521
41099,51521
40356,51214
39787,50646
39478,49903
39478,49099
39785,48356
40353,47787
40924,47550
35292,47550
35746,48003
35746,48003
35746,48003
35946,48203
35946,48203
35946,48203
36021,48316
36048,48450
36048,48911
36074,48975
36075,49074
36075,49524
36037,49616
35998,49655
35998,49734
36041,49778
36079,49870
36080,49969
36080,50329
36042,50421
35993,50469
36229,50469
36270,50486
36719,50037
36719,49870
36757,49778
36828,49708
36851,49698
36851,49588
36825,49524
36824,49425
36824,48975
36862,48883
36933,48813
37025,48775
37124,48774
37374,48774
37466,48812
37536,48883
37574,48975
37575,49074
37575,49524
37548,49588
37548,49794
37579,49870
37580,49969
37580,50329
37542,50421
37493,50469
37729,50469
37821,50507
37891,50578
37929,50670
37930,50769
37930,51129
37892,51221
37848,51265
37848,51355
37866,51362
37936,51433
37974,51525
37975,51624
37975,51874
37937,51966
37903,51999
37936,52033
37974,52125
37975,52224
37975,52474
37937,52566
37866,52636
37848,52644
37848,52885
37868,52906
37906,52998
37907,53097
37907,53411
37892,53446
38607,53446
38593,53411
38592,53312
38592,52998
38630,52906
38651,52885
38651,52644
38633,52637
38563,52566
38525,52474
38524,52375
38524,52125
38562,52033
38633,51963
38725,51925
38824,51924
39274,51924
39366,51962
39436,52033
39474,52125
39475,52224
39475,52474
39437,52566
39366,52636
39348,52644
39348,52885
39368,52906
39406,52998
39407,53097
39407,53411
39370,53500
39406,53588
39407,53687
39407,54001
39369,54093
39305,54156
39478,54156
39478,53599
39785,52856
40353,52287
41096,51978
41900,51978
42643,52285
43212,52853
43450,53424
43450,50074
" /> 
</g>
<g style="fill:#FFFFFF; fill-opacity:0.0; 
stroke:#FFFFFF; stroke-width:39.3701; stroke-opacity:1; 
stroke-linecap:round; stroke-linejoin:round;">
</g>
<g style="fill:#FFFFFF; fill-opacity:1.0; 
stroke:#FFFFFF; stroke-width:39.3701; stroke-opacity:1; 
stroke-linecap:round; stroke-linejoin:round;">
<circle cx="34750" cy="64250" r="98.4252" /> 
<circle cx="34750" cy="52750" r="98.4252" /> 
<circle cx="34750" cy="24750" r="98.4252" /> 
<circle cx="34750" cy="13250" r="98.4252" /> 
<circle cx="28050" cy="66625" r="98.4252" /> 
<circle cx="28050" cy="55125" r="98.4252" /> 
<circle cx="28050" cy="22375" r="98.4252" /> 
<circle cx="28050" cy="10875" r="98.4252" /> 
<circle cx="28900" cy="66150" r="98.4252" /> 
<circle cx="28900" cy="54650" r="98.4252" /> 
<circle cx="28900" cy="22850" r="98.4252" /> 
<circle cx="28900" cy="11350" r="98.4252" /> 
<circle cx="39000" cy="61500" r="98.4252" /> 
<circle cx="29500" cy="61600" r="98.4252" /> 
<circle cx="29425" cy="65575" r="98.4252" /> 
<circle cx="29425" cy="54075" r="98.4252" /> 
<circle cx="29500" cy="50100" r="98.4252" /> 
<circle cx="39000" cy="50000" r="98.4252" /> 
<circle cx="39000" cy="27500" r="98.4252" /> 
<circle cx="29500" cy="27400" r="98.4252" /> 
<circle cx="29425" cy="23425" r="98.4252" /> 
<circle cx="29425" cy="11925" r="98.4252" /> 
<circle cx="29500" cy="15900" r="98.4252" /> 
<circle cx="39000" cy="16000" r="98.4252" /> 
<circle cx="29925" cy="59775" r="98.4252" /> 
<circle cx="27175" cy="66600" r="98.4252" /> 
<circle cx="27175" cy="55100" r="98.4252" /> 
<circle cx="29925" cy="48275" r="98.4252" /> 
<circle cx="29925" cy="29225" r="98.4252" /> 
<circle cx="27175" cy="22400" r="98.4252" /> 
<circle cx="27175" cy="10900" r="98.4252" /> 
<circle cx="29925" cy="17725" r="98.4252" /> 
<circle cx="28500" cy="62325" r="98.4252" /> 
<circle cx="29900" cy="63250" r="98.4252" /> 
<circle cx="29900" cy="51750" r="98.4252" /> 
<circle cx="28500" cy="50825" r="98.4252" /> 
<circle cx="28500" cy="26675" r="98.4252" /> 
<circle cx="29900" cy="25750" r="98.4252" /> 
<circle cx="29900" cy="14250" r="98.4252" /> 
<circle cx="28500" cy="15175" r="98.4252" /> 
<circle cx="24000" cy="61000" r="767.815" /> 
<circle cx="41500" cy="61000" r="767.815" /> 
<circle cx="41500" cy="65500" r="767.815" /> 
<circle cx="24000" cy="65500" r="767.815" /> 
<circle cx="34000" cy="66000" r="177.315" /> 
<circle cx="33000" cy="66000" r="177.315" /> 
<circle cx="32000" cy="66000" r="177.315" /> 
<circle cx="31000" cy="66000" r="177.315" /> 
<circle cx="34000" cy="54500" r="177.315" /> 
<circle cx="33000" cy="54500" r="177.315" /> 
<circle cx="32000" cy="54500" r="177.315" /> 
<circle cx="31000" cy="54500" r="177.315" /> 
<circle cx="24000" cy="54000" r="767.815" /> 
<circle cx="41500" cy="54000" r="767.815" /> 
<circle cx="41500" cy="49500" r="767.815" /> 
<circle cx="24000" cy="49500" r="767.815" /> 
<circle cx="24000" cy="28000" r="767.815" /> 
<circle cx="41500" cy="28000" r="767.815" /> 
<circle cx="41500" cy="23500" r="767.815" /> 
<circle cx="24000" cy="23500" r="767.815" /> 
<circle cx="34000" cy="23000" r="177.315" /> 
<circle cx="33000" cy="23000" r="177.315" /> 
<circle cx="32000" cy="23000" r="177.315" /> 
<circle cx="31000" cy="23000" r="177.315" /> 
<circle cx="34000" cy="11500" r="177.315" /> 
<circle cx="33000" cy="11500" r="177.315" /> 
<circle cx="32000" cy="11500" r="177.315" /> 
<circle cx="31000" cy="11500" r="177.315" /> 
<circle cx="24000" cy="12000" r="767.815" /> 
<circle cx="41500" cy="12000" r="767.815" /> 
<circle cx="41500" cy="16500" r="767.815" /> 
<circle cx="24000" cy="16500" r="767.815" /> 
</g> 
</svg>
