G04 #@! TF.FileFunction,Legend,Bot*
%FSLAX46Y46*%
G04 Gerber Fmt 4.6, Leading zero omitted, Abs format (unit mm)*
G04 Created by KiCad (PCBNEW 4.0.0-rc1-stable) date mer. 14 oct. 2015 22:56:32 CEST*
%MOMM*%
G01*
G04 APERTURE LIST*
%ADD10C,0.150000*%
%ADD11C,0.304800*%
%ADD12C,0.381000*%
%ADD13C,0.203200*%
G04 APERTURE END LIST*
D10*
D11*
X139573000Y-49911000D02*
X106553000Y-49911000D01*
X106553000Y-54991000D02*
X139573000Y-54991000D01*
X106553000Y-52451000D02*
X109093000Y-52451000D01*
X109093000Y-52451000D02*
X109093000Y-49911000D01*
X106553000Y-54991000D02*
X106553000Y-49911000D01*
X139573000Y-49911000D02*
X139573000Y-54991000D01*
D12*
X104902000Y-74422000D02*
X104902000Y-78994000D01*
X104902000Y-78994000D02*
X108966000Y-78994000D01*
X108966000Y-78994000D02*
X108966000Y-70866000D01*
X108966000Y-70866000D02*
X104902000Y-70866000D01*
X104902000Y-70866000D02*
X104902000Y-74422000D01*
D10*
X72382000Y-54316000D02*
X71382000Y-54316000D01*
X71382000Y-55666000D02*
X72382000Y-55666000D01*
X142883000Y-94528000D02*
X143883000Y-94528000D01*
X143883000Y-93178000D02*
X142883000Y-93178000D01*
X144788000Y-99354000D02*
X145788000Y-99354000D01*
X145788000Y-98004000D02*
X144788000Y-98004000D01*
X142883000Y-105831000D02*
X143883000Y-105831000D01*
X143883000Y-104481000D02*
X142883000Y-104481000D01*
X141867000Y-97322000D02*
X142867000Y-97322000D01*
X142867000Y-95972000D02*
X141867000Y-95972000D01*
X144788000Y-97322000D02*
X145788000Y-97322000D01*
X145788000Y-95972000D02*
X144788000Y-95972000D01*
X144788000Y-88559000D02*
X145788000Y-88559000D01*
X145788000Y-87209000D02*
X144788000Y-87209000D01*
X144788000Y-77764000D02*
X145788000Y-77764000D01*
X145788000Y-76414000D02*
X144788000Y-76414000D01*
X141359000Y-83352000D02*
X142359000Y-83352000D01*
X142359000Y-82002000D02*
X141359000Y-82002000D01*
X141867000Y-73446000D02*
X142867000Y-73446000D01*
X142867000Y-72096000D02*
X141867000Y-72096000D01*
X68842000Y-90972000D02*
X69842000Y-90972000D01*
X69842000Y-89622000D02*
X68842000Y-89622000D01*
X68715000Y-97957000D02*
X69715000Y-97957000D01*
X69715000Y-96607000D02*
X68715000Y-96607000D01*
X75176000Y-54316000D02*
X74176000Y-54316000D01*
X74176000Y-55666000D02*
X75176000Y-55666000D01*
X144788000Y-73446000D02*
X145788000Y-73446000D01*
X145788000Y-72096000D02*
X144788000Y-72096000D01*
X134529200Y-65870200D02*
X134529200Y-66870200D01*
X135879200Y-66870200D02*
X135879200Y-65870200D01*
X136129400Y-65870200D02*
X136129400Y-66870200D01*
X137479400Y-66870200D02*
X137479400Y-65870200D01*
X144534000Y-54777000D02*
X145534000Y-54777000D01*
X145534000Y-53427000D02*
X144534000Y-53427000D01*
X146471000Y-47617000D02*
X146471000Y-46617000D01*
X145121000Y-46617000D02*
X145121000Y-47617000D01*
X145121000Y-50681000D02*
X145121000Y-51681000D01*
X146471000Y-51681000D02*
X146471000Y-50681000D01*
X69223000Y-111292000D02*
X70223000Y-111292000D01*
X70223000Y-109942000D02*
X69223000Y-109942000D01*
X68715000Y-104942000D02*
X69715000Y-104942000D01*
X69715000Y-103592000D02*
X68715000Y-103592000D01*
X68842000Y-84114000D02*
X69842000Y-84114000D01*
X69842000Y-82764000D02*
X68842000Y-82764000D01*
X74636000Y-110117000D02*
X74636000Y-111117000D01*
X75986000Y-111117000D02*
X75986000Y-110117000D01*
X74636000Y-103767000D02*
X74636000Y-104767000D01*
X75986000Y-104767000D02*
X75986000Y-103767000D01*
X74636000Y-96782000D02*
X74636000Y-97782000D01*
X75986000Y-97782000D02*
X75986000Y-96782000D01*
X74636000Y-89797000D02*
X74636000Y-90797000D01*
X75986000Y-90797000D02*
X75986000Y-89797000D01*
X137787000Y-72883400D02*
X136787000Y-72883400D01*
X136787000Y-74233400D02*
X137787000Y-74233400D01*
X74636000Y-82939000D02*
X74636000Y-83939000D01*
X75986000Y-83939000D02*
X75986000Y-82939000D01*
X139609200Y-70061200D02*
X139609200Y-71061200D01*
X140959200Y-71061200D02*
X140959200Y-70061200D01*
X75176000Y-75144000D02*
X74176000Y-75144000D01*
X74176000Y-76494000D02*
X75176000Y-76494000D01*
X72382000Y-75144000D02*
X71382000Y-75144000D01*
X71382000Y-76494000D02*
X72382000Y-76494000D01*
X141946000Y-84590000D02*
X141946000Y-85590000D01*
X143296000Y-85590000D02*
X143296000Y-84590000D01*
X75176000Y-68286000D02*
X74176000Y-68286000D01*
X74176000Y-69636000D02*
X75176000Y-69636000D01*
X72382000Y-68286000D02*
X71382000Y-68286000D01*
X71382000Y-69636000D02*
X72382000Y-69636000D01*
X144534000Y-65699000D02*
X145534000Y-65699000D01*
X145534000Y-64349000D02*
X144534000Y-64349000D01*
X145534000Y-83145000D02*
X144534000Y-83145000D01*
X144534000Y-84495000D02*
X145534000Y-84495000D01*
X75176000Y-62317000D02*
X74176000Y-62317000D01*
X74176000Y-63667000D02*
X75176000Y-63667000D01*
X72382000Y-62317000D02*
X71382000Y-62317000D01*
X71382000Y-63667000D02*
X72382000Y-63667000D01*
X147461600Y-58691400D02*
X147461600Y-57691400D01*
X146111600Y-57691400D02*
X146111600Y-58691400D01*
X145121000Y-61730000D02*
X145121000Y-62730000D01*
X146471000Y-62730000D02*
X146471000Y-61730000D01*
X107665000Y-79918000D02*
X106965000Y-79918000D01*
X106965000Y-81118000D02*
X107665000Y-81118000D01*
X105760000Y-69173800D02*
X105060000Y-69173800D01*
X105060000Y-70373800D02*
X105760000Y-70373800D01*
D12*
X141782800Y-51485800D02*
G75*
G03X141782800Y-51485800I-50800J0D01*
G01*
X140157200Y-52006500D02*
X140157200Y-49593500D01*
X140157200Y-49593500D02*
X142252700Y-49593500D01*
X142252700Y-49593500D02*
X142252700Y-52006500D01*
X142252700Y-52006500D02*
X140157200Y-52006500D01*
X141198600Y-65532000D02*
G75*
G03X141198600Y-65532000I-50800J0D01*
G01*
X139573000Y-66052700D02*
X139573000Y-63639700D01*
X139573000Y-63639700D02*
X141668500Y-63639700D01*
X141668500Y-63639700D02*
X141668500Y-66052700D01*
X141668500Y-66052700D02*
X139573000Y-66052700D01*
D10*
X84050000Y-84477000D02*
X84050000Y-80377000D01*
X81050000Y-84477000D02*
X81050000Y-80377000D01*
D11*
X77825600Y-54940200D02*
X98145600Y-54940200D01*
X98145600Y-54940200D02*
X98145600Y-49860200D01*
X98145600Y-49860200D02*
X77825600Y-49860200D01*
X77825600Y-52400200D02*
X80365600Y-52400200D01*
X80365600Y-52400200D02*
X80365600Y-49860200D01*
X77825600Y-54940200D02*
X77825600Y-49860200D01*
D10*
X71866760Y-98581160D02*
X71866760Y-98532900D01*
X72567800Y-95782180D02*
X71866760Y-95782180D01*
X71866760Y-95782180D02*
X71866760Y-96031100D01*
X71866760Y-98581160D02*
X71866760Y-98781820D01*
X71866760Y-98781820D02*
X72567800Y-98781820D01*
X71866760Y-91596160D02*
X71866760Y-91547900D01*
X72567800Y-88797180D02*
X71866760Y-88797180D01*
X71866760Y-88797180D02*
X71866760Y-89046100D01*
X71866760Y-91596160D02*
X71866760Y-91796820D01*
X71866760Y-91796820D02*
X72567800Y-91796820D01*
X71739760Y-105566160D02*
X71739760Y-105517900D01*
X72440800Y-102767180D02*
X71739760Y-102767180D01*
X71739760Y-102767180D02*
X71739760Y-103016100D01*
X71739760Y-105566160D02*
X71739760Y-105766820D01*
X71739760Y-105766820D02*
X72440800Y-105766820D01*
X71993760Y-84738160D02*
X71993760Y-84689900D01*
X72694800Y-81939180D02*
X71993760Y-81939180D01*
X71993760Y-81939180D02*
X71993760Y-82188100D01*
X71993760Y-84738160D02*
X71993760Y-84938820D01*
X71993760Y-84938820D02*
X72694800Y-84938820D01*
X71866760Y-111916160D02*
X71866760Y-111867900D01*
X72567800Y-109117180D02*
X71866760Y-109117180D01*
X71866760Y-109117180D02*
X71866760Y-109366100D01*
X71866760Y-111916160D02*
X71866760Y-112116820D01*
X71866760Y-112116820D02*
X72567800Y-112116820D01*
X141493240Y-78837840D02*
X141493240Y-78886100D01*
X140792200Y-81636820D02*
X141493240Y-81636820D01*
X141493240Y-81636820D02*
X141493240Y-81387900D01*
X141493240Y-78837840D02*
X141493240Y-78637180D01*
X141493240Y-78637180D02*
X140792200Y-78637180D01*
X145684240Y-78837840D02*
X145684240Y-78886100D01*
X144983200Y-81636820D02*
X145684240Y-81636820D01*
X145684240Y-81636820D02*
X145684240Y-81387900D01*
X145684240Y-78837840D02*
X145684240Y-78637180D01*
X145684240Y-78637180D02*
X144983200Y-78637180D01*
X141493240Y-100427840D02*
X141493240Y-100476100D01*
X140792200Y-103226820D02*
X141493240Y-103226820D01*
X141493240Y-103226820D02*
X141493240Y-102977900D01*
X141493240Y-100427840D02*
X141493240Y-100227180D01*
X141493240Y-100227180D02*
X140792200Y-100227180D01*
X145811240Y-100427840D02*
X145811240Y-100476100D01*
X145110200Y-103226820D02*
X145811240Y-103226820D01*
X145811240Y-103226820D02*
X145811240Y-102977900D01*
X145811240Y-100427840D02*
X145811240Y-100227180D01*
X145811240Y-100227180D02*
X145110200Y-100227180D01*
X145684240Y-89632840D02*
X145684240Y-89681100D01*
X144983200Y-92431820D02*
X145684240Y-92431820D01*
X145684240Y-92431820D02*
X145684240Y-92182900D01*
X145684240Y-89632840D02*
X145684240Y-89432180D01*
X145684240Y-89432180D02*
X144983200Y-89432180D01*
X141493240Y-89632840D02*
X141493240Y-89681100D01*
X140792200Y-92431820D02*
X141493240Y-92431820D01*
X141493240Y-92431820D02*
X141493240Y-92182900D01*
X141493240Y-89632840D02*
X141493240Y-89432180D01*
X141493240Y-89432180D02*
X140792200Y-89432180D01*
X127097840Y-108569760D02*
X127146100Y-108569760D01*
X129896820Y-109270800D02*
X129896820Y-108569760D01*
X129896820Y-108569760D02*
X129647900Y-108569760D01*
X127097840Y-108569760D02*
X126897180Y-108569760D01*
X126897180Y-108569760D02*
X126897180Y-109270800D01*
D13*
X125264333Y-56720619D02*
X125264333Y-55704619D01*
X124877286Y-55704619D01*
X124780524Y-55753000D01*
X124732143Y-55801381D01*
X124683762Y-55898143D01*
X124683762Y-56043286D01*
X124732143Y-56140048D01*
X124780524Y-56188429D01*
X124877286Y-56236810D01*
X125264333Y-56236810D01*
X123716143Y-56720619D02*
X124296714Y-56720619D01*
X124006428Y-56720619D02*
X124006428Y-55704619D01*
X124103190Y-55849762D01*
X124199952Y-55946524D01*
X124296714Y-55994905D01*
X123087190Y-55704619D02*
X122990429Y-55704619D01*
X122893667Y-55753000D01*
X122845286Y-55801381D01*
X122796905Y-55898143D01*
X122748524Y-56091667D01*
X122748524Y-56333571D01*
X122796905Y-56527095D01*
X122845286Y-56623857D01*
X122893667Y-56672238D01*
X122990429Y-56720619D01*
X123087190Y-56720619D01*
X123183952Y-56672238D01*
X123232333Y-56623857D01*
X123280714Y-56527095D01*
X123329095Y-56333571D01*
X123329095Y-56091667D01*
X123280714Y-55898143D01*
X123232333Y-55801381D01*
X123183952Y-55753000D01*
X123087190Y-55704619D01*
X122119571Y-55704619D02*
X122022810Y-55704619D01*
X121926048Y-55753000D01*
X121877667Y-55801381D01*
X121829286Y-55898143D01*
X121780905Y-56091667D01*
X121780905Y-56333571D01*
X121829286Y-56527095D01*
X121877667Y-56623857D01*
X121926048Y-56672238D01*
X122022810Y-56720619D01*
X122119571Y-56720619D01*
X122216333Y-56672238D01*
X122264714Y-56623857D01*
X122313095Y-56527095D01*
X122361476Y-56333571D01*
X122361476Y-56091667D01*
X122313095Y-55898143D01*
X122264714Y-55801381D01*
X122216333Y-55753000D01*
X122119571Y-55704619D01*
X120813286Y-56720619D02*
X121393857Y-56720619D01*
X121103571Y-56720619D02*
X121103571Y-55704619D01*
X121200333Y-55849762D01*
X121297095Y-55946524D01*
X121393857Y-55994905D01*
D11*
X108167715Y-66475429D02*
X107151715Y-67999429D01*
X107151715Y-66475429D02*
X108167715Y-67999429D01*
X105772857Y-67999429D02*
X106643714Y-67999429D01*
X106208286Y-67999429D02*
X106208286Y-66475429D01*
X106353429Y-66693143D01*
X106498571Y-66838286D01*
X106643714Y-66910857D01*
X112848572Y-68507429D02*
X111905143Y-68507429D01*
X112413143Y-69088000D01*
X112195429Y-69088000D01*
X112050286Y-69160571D01*
X111977715Y-69233143D01*
X111905143Y-69378286D01*
X111905143Y-69741143D01*
X111977715Y-69886286D01*
X112050286Y-69958857D01*
X112195429Y-70031429D01*
X112630857Y-70031429D01*
X112776000Y-69958857D01*
X112848572Y-69886286D01*
X111324571Y-68652571D02*
X111252000Y-68580000D01*
X111106857Y-68507429D01*
X110744000Y-68507429D01*
X110598857Y-68580000D01*
X110526286Y-68652571D01*
X110453714Y-68797714D01*
X110453714Y-68942857D01*
X110526286Y-69160571D01*
X111397143Y-70031429D01*
X110453714Y-70031429D01*
X109727999Y-69958857D02*
X109727999Y-70031429D01*
X109800571Y-70176571D01*
X109873142Y-70249143D01*
X109220000Y-68507429D02*
X108204000Y-68507429D01*
X108857143Y-70031429D01*
X106970285Y-68507429D02*
X107260571Y-68507429D01*
X107405714Y-68580000D01*
X107478285Y-68652571D01*
X107623428Y-68870286D01*
X107695999Y-69160571D01*
X107695999Y-69741143D01*
X107623428Y-69886286D01*
X107550856Y-69958857D01*
X107405714Y-70031429D01*
X107115428Y-70031429D01*
X106970285Y-69958857D01*
X106897714Y-69886286D01*
X106825142Y-69741143D01*
X106825142Y-69378286D01*
X106897714Y-69233143D01*
X106970285Y-69160571D01*
X107115428Y-69088000D01*
X107405714Y-69088000D01*
X107550856Y-69160571D01*
X107623428Y-69233143D01*
X107695999Y-69378286D01*
X105954285Y-69160571D02*
X106099427Y-69088000D01*
X106171999Y-69015429D01*
X106244570Y-68870286D01*
X106244570Y-68797714D01*
X106171999Y-68652571D01*
X106099427Y-68580000D01*
X105954285Y-68507429D01*
X105663999Y-68507429D01*
X105518856Y-68580000D01*
X105446285Y-68652571D01*
X105373713Y-68797714D01*
X105373713Y-68870286D01*
X105446285Y-69015429D01*
X105518856Y-69088000D01*
X105663999Y-69160571D01*
X105954285Y-69160571D01*
X106099427Y-69233143D01*
X106171999Y-69305714D01*
X106244570Y-69450857D01*
X106244570Y-69741143D01*
X106171999Y-69886286D01*
X106099427Y-69958857D01*
X105954285Y-70031429D01*
X105663999Y-70031429D01*
X105518856Y-69958857D01*
X105446285Y-69886286D01*
X105373713Y-69741143D01*
X105373713Y-69450857D01*
X105446285Y-69305714D01*
X105518856Y-69233143D01*
X105663999Y-69160571D01*
X104720570Y-70031429D02*
X104720570Y-68507429D01*
X104575427Y-69450857D02*
X104139998Y-70031429D01*
X104139998Y-69015429D02*
X104720570Y-69596000D01*
D10*
X72048666Y-57343381D02*
X72382000Y-56867190D01*
X72620095Y-57343381D02*
X72620095Y-56343381D01*
X72239142Y-56343381D01*
X72143904Y-56391000D01*
X72096285Y-56438619D01*
X72048666Y-56533857D01*
X72048666Y-56676714D01*
X72096285Y-56771952D01*
X72143904Y-56819571D01*
X72239142Y-56867190D01*
X72620095Y-56867190D01*
X71096285Y-57343381D02*
X71667714Y-57343381D01*
X71382000Y-57343381D02*
X71382000Y-56343381D01*
X71477238Y-56486238D01*
X71572476Y-56581476D01*
X71667714Y-56629095D01*
X144025857Y-92405381D02*
X144359191Y-91929190D01*
X144597286Y-92405381D02*
X144597286Y-91405381D01*
X144216333Y-91405381D01*
X144121095Y-91453000D01*
X144073476Y-91500619D01*
X144025857Y-91595857D01*
X144025857Y-91738714D01*
X144073476Y-91833952D01*
X144121095Y-91881571D01*
X144216333Y-91929190D01*
X144597286Y-91929190D01*
X143073476Y-92405381D02*
X143644905Y-92405381D01*
X143359191Y-92405381D02*
X143359191Y-91405381D01*
X143454429Y-91548238D01*
X143549667Y-91643476D01*
X143644905Y-91691095D01*
X142597286Y-92405381D02*
X142406810Y-92405381D01*
X142311571Y-92357762D01*
X142263952Y-92310143D01*
X142168714Y-92167286D01*
X142121095Y-91976810D01*
X142121095Y-91595857D01*
X142168714Y-91500619D01*
X142216333Y-91453000D01*
X142311571Y-91405381D01*
X142502048Y-91405381D01*
X142597286Y-91453000D01*
X142644905Y-91500619D01*
X142692524Y-91595857D01*
X142692524Y-91833952D01*
X142644905Y-91929190D01*
X142597286Y-91976810D01*
X142502048Y-92024429D01*
X142311571Y-92024429D01*
X142216333Y-91976810D01*
X142168714Y-91929190D01*
X142121095Y-91833952D01*
X145930857Y-97231381D02*
X146264191Y-96755190D01*
X146502286Y-97231381D02*
X146502286Y-96231381D01*
X146121333Y-96231381D01*
X146026095Y-96279000D01*
X145978476Y-96326619D01*
X145930857Y-96421857D01*
X145930857Y-96564714D01*
X145978476Y-96659952D01*
X146026095Y-96707571D01*
X146121333Y-96755190D01*
X146502286Y-96755190D01*
X145549905Y-96326619D02*
X145502286Y-96279000D01*
X145407048Y-96231381D01*
X145168952Y-96231381D01*
X145073714Y-96279000D01*
X145026095Y-96326619D01*
X144978476Y-96421857D01*
X144978476Y-96517095D01*
X145026095Y-96659952D01*
X145597524Y-97231381D01*
X144978476Y-97231381D01*
X144645143Y-96231381D02*
X143978476Y-96231381D01*
X144407048Y-97231381D01*
X144025857Y-103708381D02*
X144359191Y-103232190D01*
X144597286Y-103708381D02*
X144597286Y-102708381D01*
X144216333Y-102708381D01*
X144121095Y-102756000D01*
X144073476Y-102803619D01*
X144025857Y-102898857D01*
X144025857Y-103041714D01*
X144073476Y-103136952D01*
X144121095Y-103184571D01*
X144216333Y-103232190D01*
X144597286Y-103232190D01*
X143644905Y-102803619D02*
X143597286Y-102756000D01*
X143502048Y-102708381D01*
X143263952Y-102708381D01*
X143168714Y-102756000D01*
X143121095Y-102803619D01*
X143073476Y-102898857D01*
X143073476Y-102994095D01*
X143121095Y-103136952D01*
X143692524Y-103708381D01*
X143073476Y-103708381D01*
X142216333Y-102708381D02*
X142406810Y-102708381D01*
X142502048Y-102756000D01*
X142549667Y-102803619D01*
X142644905Y-102946476D01*
X142692524Y-103136952D01*
X142692524Y-103517905D01*
X142644905Y-103613143D01*
X142597286Y-103660762D01*
X142502048Y-103708381D01*
X142311571Y-103708381D01*
X142216333Y-103660762D01*
X142168714Y-103613143D01*
X142121095Y-103517905D01*
X142121095Y-103279810D01*
X142168714Y-103184571D01*
X142216333Y-103136952D01*
X142311571Y-103089333D01*
X142502048Y-103089333D01*
X142597286Y-103136952D01*
X142644905Y-103184571D01*
X142692524Y-103279810D01*
X143009857Y-95199381D02*
X143343191Y-94723190D01*
X143581286Y-95199381D02*
X143581286Y-94199381D01*
X143200333Y-94199381D01*
X143105095Y-94247000D01*
X143057476Y-94294619D01*
X143009857Y-94389857D01*
X143009857Y-94532714D01*
X143057476Y-94627952D01*
X143105095Y-94675571D01*
X143200333Y-94723190D01*
X143581286Y-94723190D01*
X142628905Y-94294619D02*
X142581286Y-94247000D01*
X142486048Y-94199381D01*
X142247952Y-94199381D01*
X142152714Y-94247000D01*
X142105095Y-94294619D01*
X142057476Y-94389857D01*
X142057476Y-94485095D01*
X142105095Y-94627952D01*
X142676524Y-95199381D01*
X142057476Y-95199381D01*
X141581286Y-95199381D02*
X141390810Y-95199381D01*
X141295571Y-95151762D01*
X141247952Y-95104143D01*
X141152714Y-94961286D01*
X141105095Y-94770810D01*
X141105095Y-94389857D01*
X141152714Y-94294619D01*
X141200333Y-94247000D01*
X141295571Y-94199381D01*
X141486048Y-94199381D01*
X141581286Y-94247000D01*
X141628905Y-94294619D01*
X141676524Y-94389857D01*
X141676524Y-94627952D01*
X141628905Y-94723190D01*
X141581286Y-94770810D01*
X141486048Y-94818429D01*
X141295571Y-94818429D01*
X141200333Y-94770810D01*
X141152714Y-94723190D01*
X141105095Y-94627952D01*
X145930857Y-95199381D02*
X146264191Y-94723190D01*
X146502286Y-95199381D02*
X146502286Y-94199381D01*
X146121333Y-94199381D01*
X146026095Y-94247000D01*
X145978476Y-94294619D01*
X145930857Y-94389857D01*
X145930857Y-94532714D01*
X145978476Y-94627952D01*
X146026095Y-94675571D01*
X146121333Y-94723190D01*
X146502286Y-94723190D01*
X145549905Y-94294619D02*
X145502286Y-94247000D01*
X145407048Y-94199381D01*
X145168952Y-94199381D01*
X145073714Y-94247000D01*
X145026095Y-94294619D01*
X144978476Y-94389857D01*
X144978476Y-94485095D01*
X145026095Y-94627952D01*
X145597524Y-95199381D01*
X144978476Y-95199381D01*
X144073714Y-94199381D02*
X144549905Y-94199381D01*
X144597524Y-94675571D01*
X144549905Y-94627952D01*
X144454667Y-94580333D01*
X144216571Y-94580333D01*
X144121333Y-94627952D01*
X144073714Y-94675571D01*
X144026095Y-94770810D01*
X144026095Y-95008905D01*
X144073714Y-95104143D01*
X144121333Y-95151762D01*
X144216571Y-95199381D01*
X144454667Y-95199381D01*
X144549905Y-95151762D01*
X144597524Y-95104143D01*
X145930857Y-86436381D02*
X146264191Y-85960190D01*
X146502286Y-86436381D02*
X146502286Y-85436381D01*
X146121333Y-85436381D01*
X146026095Y-85484000D01*
X145978476Y-85531619D01*
X145930857Y-85626857D01*
X145930857Y-85769714D01*
X145978476Y-85864952D01*
X146026095Y-85912571D01*
X146121333Y-85960190D01*
X146502286Y-85960190D01*
X145549905Y-85531619D02*
X145502286Y-85484000D01*
X145407048Y-85436381D01*
X145168952Y-85436381D01*
X145073714Y-85484000D01*
X145026095Y-85531619D01*
X144978476Y-85626857D01*
X144978476Y-85722095D01*
X145026095Y-85864952D01*
X145597524Y-86436381D01*
X144978476Y-86436381D01*
X144359429Y-85436381D02*
X144264190Y-85436381D01*
X144168952Y-85484000D01*
X144121333Y-85531619D01*
X144073714Y-85626857D01*
X144026095Y-85817333D01*
X144026095Y-86055429D01*
X144073714Y-86245905D01*
X144121333Y-86341143D01*
X144168952Y-86388762D01*
X144264190Y-86436381D01*
X144359429Y-86436381D01*
X144454667Y-86388762D01*
X144502286Y-86341143D01*
X144549905Y-86245905D01*
X144597524Y-86055429D01*
X144597524Y-85817333D01*
X144549905Y-85626857D01*
X144502286Y-85531619D01*
X144454667Y-85484000D01*
X144359429Y-85436381D01*
X145930857Y-75641381D02*
X146264191Y-75165190D01*
X146502286Y-75641381D02*
X146502286Y-74641381D01*
X146121333Y-74641381D01*
X146026095Y-74689000D01*
X145978476Y-74736619D01*
X145930857Y-74831857D01*
X145930857Y-74974714D01*
X145978476Y-75069952D01*
X146026095Y-75117571D01*
X146121333Y-75165190D01*
X146502286Y-75165190D01*
X144978476Y-75641381D02*
X145549905Y-75641381D01*
X145264191Y-75641381D02*
X145264191Y-74641381D01*
X145359429Y-74784238D01*
X145454667Y-74879476D01*
X145549905Y-74927095D01*
X144121333Y-74974714D02*
X144121333Y-75641381D01*
X144359429Y-74593762D02*
X144597524Y-75308048D01*
X143978476Y-75308048D01*
X142501857Y-81229381D02*
X142835191Y-80753190D01*
X143073286Y-81229381D02*
X143073286Y-80229381D01*
X142692333Y-80229381D01*
X142597095Y-80277000D01*
X142549476Y-80324619D01*
X142501857Y-80419857D01*
X142501857Y-80562714D01*
X142549476Y-80657952D01*
X142597095Y-80705571D01*
X142692333Y-80753190D01*
X143073286Y-80753190D01*
X141549476Y-81229381D02*
X142120905Y-81229381D01*
X141835191Y-81229381D02*
X141835191Y-80229381D01*
X141930429Y-80372238D01*
X142025667Y-80467476D01*
X142120905Y-80515095D01*
X141216143Y-80229381D02*
X140597095Y-80229381D01*
X140930429Y-80610333D01*
X140787571Y-80610333D01*
X140692333Y-80657952D01*
X140644714Y-80705571D01*
X140597095Y-80800810D01*
X140597095Y-81038905D01*
X140644714Y-81134143D01*
X140692333Y-81181762D01*
X140787571Y-81229381D01*
X141073286Y-81229381D01*
X141168524Y-81181762D01*
X141216143Y-81134143D01*
X143009857Y-71323381D02*
X143343191Y-70847190D01*
X143581286Y-71323381D02*
X143581286Y-70323381D01*
X143200333Y-70323381D01*
X143105095Y-70371000D01*
X143057476Y-70418619D01*
X143009857Y-70513857D01*
X143009857Y-70656714D01*
X143057476Y-70751952D01*
X143105095Y-70799571D01*
X143200333Y-70847190D01*
X143581286Y-70847190D01*
X142057476Y-71323381D02*
X142628905Y-71323381D01*
X142343191Y-71323381D02*
X142343191Y-70323381D01*
X142438429Y-70466238D01*
X142533667Y-70561476D01*
X142628905Y-70609095D01*
X141200333Y-70323381D02*
X141390810Y-70323381D01*
X141486048Y-70371000D01*
X141533667Y-70418619D01*
X141628905Y-70561476D01*
X141676524Y-70751952D01*
X141676524Y-71132905D01*
X141628905Y-71228143D01*
X141581286Y-71275762D01*
X141486048Y-71323381D01*
X141295571Y-71323381D01*
X141200333Y-71275762D01*
X141152714Y-71228143D01*
X141105095Y-71132905D01*
X141105095Y-70894810D01*
X141152714Y-70799571D01*
X141200333Y-70751952D01*
X141295571Y-70704333D01*
X141486048Y-70704333D01*
X141581286Y-70751952D01*
X141628905Y-70799571D01*
X141676524Y-70894810D01*
X69984857Y-88849381D02*
X70318191Y-88373190D01*
X70556286Y-88849381D02*
X70556286Y-87849381D01*
X70175333Y-87849381D01*
X70080095Y-87897000D01*
X70032476Y-87944619D01*
X69984857Y-88039857D01*
X69984857Y-88182714D01*
X70032476Y-88277952D01*
X70080095Y-88325571D01*
X70175333Y-88373190D01*
X70556286Y-88373190D01*
X69032476Y-88849381D02*
X69603905Y-88849381D01*
X69318191Y-88849381D02*
X69318191Y-87849381D01*
X69413429Y-87992238D01*
X69508667Y-88087476D01*
X69603905Y-88135095D01*
X68080095Y-88849381D02*
X68651524Y-88849381D01*
X68365810Y-88849381D02*
X68365810Y-87849381D01*
X68461048Y-87992238D01*
X68556286Y-88087476D01*
X68651524Y-88135095D01*
X69857857Y-95834381D02*
X70191191Y-95358190D01*
X70429286Y-95834381D02*
X70429286Y-94834381D01*
X70048333Y-94834381D01*
X69953095Y-94882000D01*
X69905476Y-94929619D01*
X69857857Y-95024857D01*
X69857857Y-95167714D01*
X69905476Y-95262952D01*
X69953095Y-95310571D01*
X70048333Y-95358190D01*
X70429286Y-95358190D01*
X68905476Y-95834381D02*
X69476905Y-95834381D01*
X69191191Y-95834381D02*
X69191191Y-94834381D01*
X69286429Y-94977238D01*
X69381667Y-95072476D01*
X69476905Y-95120095D01*
X68572143Y-94834381D02*
X67905476Y-94834381D01*
X68334048Y-95834381D01*
X74842666Y-57343381D02*
X75176000Y-56867190D01*
X75414095Y-57343381D02*
X75414095Y-56343381D01*
X75033142Y-56343381D01*
X74937904Y-56391000D01*
X74890285Y-56438619D01*
X74842666Y-56533857D01*
X74842666Y-56676714D01*
X74890285Y-56771952D01*
X74937904Y-56819571D01*
X75033142Y-56867190D01*
X75414095Y-56867190D01*
X73937904Y-56343381D02*
X74414095Y-56343381D01*
X74461714Y-56819571D01*
X74414095Y-56771952D01*
X74318857Y-56724333D01*
X74080761Y-56724333D01*
X73985523Y-56771952D01*
X73937904Y-56819571D01*
X73890285Y-56914810D01*
X73890285Y-57152905D01*
X73937904Y-57248143D01*
X73985523Y-57295762D01*
X74080761Y-57343381D01*
X74318857Y-57343381D01*
X74414095Y-57295762D01*
X74461714Y-57248143D01*
X145930857Y-71323381D02*
X146264191Y-70847190D01*
X146502286Y-71323381D02*
X146502286Y-70323381D01*
X146121333Y-70323381D01*
X146026095Y-70371000D01*
X145978476Y-70418619D01*
X145930857Y-70513857D01*
X145930857Y-70656714D01*
X145978476Y-70751952D01*
X146026095Y-70799571D01*
X146121333Y-70847190D01*
X146502286Y-70847190D01*
X144978476Y-71323381D02*
X145549905Y-71323381D01*
X145264191Y-71323381D02*
X145264191Y-70323381D01*
X145359429Y-70466238D01*
X145454667Y-70561476D01*
X145549905Y-70609095D01*
X144597524Y-70418619D02*
X144549905Y-70371000D01*
X144454667Y-70323381D01*
X144216571Y-70323381D01*
X144121333Y-70371000D01*
X144073714Y-70418619D01*
X144026095Y-70513857D01*
X144026095Y-70609095D01*
X144073714Y-70751952D01*
X144645143Y-71323381D01*
X144026095Y-71323381D01*
X137556581Y-65727343D02*
X137080390Y-65394009D01*
X137556581Y-65155914D02*
X136556581Y-65155914D01*
X136556581Y-65536867D01*
X136604200Y-65632105D01*
X136651819Y-65679724D01*
X136747057Y-65727343D01*
X136889914Y-65727343D01*
X136985152Y-65679724D01*
X137032771Y-65632105D01*
X137080390Y-65536867D01*
X137080390Y-65155914D01*
X136556581Y-66060676D02*
X136556581Y-66679724D01*
X136937533Y-66346390D01*
X136937533Y-66489248D01*
X136985152Y-66584486D01*
X137032771Y-66632105D01*
X137128010Y-66679724D01*
X137366105Y-66679724D01*
X137461343Y-66632105D01*
X137508962Y-66584486D01*
X137556581Y-66489248D01*
X137556581Y-66203533D01*
X137508962Y-66108295D01*
X137461343Y-66060676D01*
X136556581Y-67584486D02*
X136556581Y-67108295D01*
X137032771Y-67060676D01*
X136985152Y-67108295D01*
X136937533Y-67203533D01*
X136937533Y-67441629D01*
X136985152Y-67536867D01*
X137032771Y-67584486D01*
X137128010Y-67632105D01*
X137366105Y-67632105D01*
X137461343Y-67584486D01*
X137508962Y-67536867D01*
X137556581Y-67441629D01*
X137556581Y-67203533D01*
X137508962Y-67108295D01*
X137461343Y-67060676D01*
X139156781Y-65727343D02*
X138680590Y-65394009D01*
X139156781Y-65155914D02*
X138156781Y-65155914D01*
X138156781Y-65536867D01*
X138204400Y-65632105D01*
X138252019Y-65679724D01*
X138347257Y-65727343D01*
X138490114Y-65727343D01*
X138585352Y-65679724D01*
X138632971Y-65632105D01*
X138680590Y-65536867D01*
X138680590Y-65155914D01*
X138156781Y-66060676D02*
X138156781Y-66679724D01*
X138537733Y-66346390D01*
X138537733Y-66489248D01*
X138585352Y-66584486D01*
X138632971Y-66632105D01*
X138728210Y-66679724D01*
X138966305Y-66679724D01*
X139061543Y-66632105D01*
X139109162Y-66584486D01*
X139156781Y-66489248D01*
X139156781Y-66203533D01*
X139109162Y-66108295D01*
X139061543Y-66060676D01*
X138490114Y-67536867D02*
X139156781Y-67536867D01*
X138109162Y-67298771D02*
X138823448Y-67060676D01*
X138823448Y-67679724D01*
X145676857Y-52654381D02*
X146010191Y-52178190D01*
X146248286Y-52654381D02*
X146248286Y-51654381D01*
X145867333Y-51654381D01*
X145772095Y-51702000D01*
X145724476Y-51749619D01*
X145676857Y-51844857D01*
X145676857Y-51987714D01*
X145724476Y-52082952D01*
X145772095Y-52130571D01*
X145867333Y-52178190D01*
X146248286Y-52178190D01*
X145343524Y-51654381D02*
X144724476Y-51654381D01*
X145057810Y-52035333D01*
X144914952Y-52035333D01*
X144819714Y-52082952D01*
X144772095Y-52130571D01*
X144724476Y-52225810D01*
X144724476Y-52463905D01*
X144772095Y-52559143D01*
X144819714Y-52606762D01*
X144914952Y-52654381D01*
X145200667Y-52654381D01*
X145295905Y-52606762D01*
X145343524Y-52559143D01*
X144391143Y-51654381D02*
X143772095Y-51654381D01*
X144105429Y-52035333D01*
X143962571Y-52035333D01*
X143867333Y-52082952D01*
X143819714Y-52130571D01*
X143772095Y-52225810D01*
X143772095Y-52463905D01*
X143819714Y-52559143D01*
X143867333Y-52606762D01*
X143962571Y-52654381D01*
X144248286Y-52654381D01*
X144343524Y-52606762D01*
X144391143Y-52559143D01*
X144348381Y-46474143D02*
X143872190Y-46140809D01*
X144348381Y-45902714D02*
X143348381Y-45902714D01*
X143348381Y-46283667D01*
X143396000Y-46378905D01*
X143443619Y-46426524D01*
X143538857Y-46474143D01*
X143681714Y-46474143D01*
X143776952Y-46426524D01*
X143824571Y-46378905D01*
X143872190Y-46283667D01*
X143872190Y-45902714D01*
X143348381Y-46807476D02*
X143348381Y-47426524D01*
X143729333Y-47093190D01*
X143729333Y-47236048D01*
X143776952Y-47331286D01*
X143824571Y-47378905D01*
X143919810Y-47426524D01*
X144157905Y-47426524D01*
X144253143Y-47378905D01*
X144300762Y-47331286D01*
X144348381Y-47236048D01*
X144348381Y-46950333D01*
X144300762Y-46855095D01*
X144253143Y-46807476D01*
X143443619Y-47807476D02*
X143396000Y-47855095D01*
X143348381Y-47950333D01*
X143348381Y-48188429D01*
X143396000Y-48283667D01*
X143443619Y-48331286D01*
X143538857Y-48378905D01*
X143634095Y-48378905D01*
X143776952Y-48331286D01*
X144348381Y-47759857D01*
X144348381Y-48378905D01*
X148148381Y-50538143D02*
X147672190Y-50204809D01*
X148148381Y-49966714D02*
X147148381Y-49966714D01*
X147148381Y-50347667D01*
X147196000Y-50442905D01*
X147243619Y-50490524D01*
X147338857Y-50538143D01*
X147481714Y-50538143D01*
X147576952Y-50490524D01*
X147624571Y-50442905D01*
X147672190Y-50347667D01*
X147672190Y-49966714D01*
X147148381Y-50871476D02*
X147148381Y-51490524D01*
X147529333Y-51157190D01*
X147529333Y-51300048D01*
X147576952Y-51395286D01*
X147624571Y-51442905D01*
X147719810Y-51490524D01*
X147957905Y-51490524D01*
X148053143Y-51442905D01*
X148100762Y-51395286D01*
X148148381Y-51300048D01*
X148148381Y-51014333D01*
X148100762Y-50919095D01*
X148053143Y-50871476D01*
X148148381Y-52442905D02*
X148148381Y-51871476D01*
X148148381Y-52157190D02*
X147148381Y-52157190D01*
X147291238Y-52061952D01*
X147386476Y-51966714D01*
X147434095Y-51871476D01*
X70365857Y-109169381D02*
X70699191Y-108693190D01*
X70937286Y-109169381D02*
X70937286Y-108169381D01*
X70556333Y-108169381D01*
X70461095Y-108217000D01*
X70413476Y-108264619D01*
X70365857Y-108359857D01*
X70365857Y-108502714D01*
X70413476Y-108597952D01*
X70461095Y-108645571D01*
X70556333Y-108693190D01*
X70937286Y-108693190D01*
X69984905Y-108264619D02*
X69937286Y-108217000D01*
X69842048Y-108169381D01*
X69603952Y-108169381D01*
X69508714Y-108217000D01*
X69461095Y-108264619D01*
X69413476Y-108359857D01*
X69413476Y-108455095D01*
X69461095Y-108597952D01*
X70032524Y-109169381D01*
X69413476Y-109169381D01*
X68842048Y-108597952D02*
X68937286Y-108550333D01*
X68984905Y-108502714D01*
X69032524Y-108407476D01*
X69032524Y-108359857D01*
X68984905Y-108264619D01*
X68937286Y-108217000D01*
X68842048Y-108169381D01*
X68651571Y-108169381D01*
X68556333Y-108217000D01*
X68508714Y-108264619D01*
X68461095Y-108359857D01*
X68461095Y-108407476D01*
X68508714Y-108502714D01*
X68556333Y-108550333D01*
X68651571Y-108597952D01*
X68842048Y-108597952D01*
X68937286Y-108645571D01*
X68984905Y-108693190D01*
X69032524Y-108788429D01*
X69032524Y-108978905D01*
X68984905Y-109074143D01*
X68937286Y-109121762D01*
X68842048Y-109169381D01*
X68651571Y-109169381D01*
X68556333Y-109121762D01*
X68508714Y-109074143D01*
X68461095Y-108978905D01*
X68461095Y-108788429D01*
X68508714Y-108693190D01*
X68556333Y-108645571D01*
X68651571Y-108597952D01*
X69857857Y-102819381D02*
X70191191Y-102343190D01*
X70429286Y-102819381D02*
X70429286Y-101819381D01*
X70048333Y-101819381D01*
X69953095Y-101867000D01*
X69905476Y-101914619D01*
X69857857Y-102009857D01*
X69857857Y-102152714D01*
X69905476Y-102247952D01*
X69953095Y-102295571D01*
X70048333Y-102343190D01*
X70429286Y-102343190D01*
X69476905Y-101914619D02*
X69429286Y-101867000D01*
X69334048Y-101819381D01*
X69095952Y-101819381D01*
X69000714Y-101867000D01*
X68953095Y-101914619D01*
X68905476Y-102009857D01*
X68905476Y-102105095D01*
X68953095Y-102247952D01*
X69524524Y-102819381D01*
X68905476Y-102819381D01*
X68524524Y-101914619D02*
X68476905Y-101867000D01*
X68381667Y-101819381D01*
X68143571Y-101819381D01*
X68048333Y-101867000D01*
X68000714Y-101914619D01*
X67953095Y-102009857D01*
X67953095Y-102105095D01*
X68000714Y-102247952D01*
X68572143Y-102819381D01*
X67953095Y-102819381D01*
X69508666Y-81991381D02*
X69842000Y-81515190D01*
X70080095Y-81991381D02*
X70080095Y-80991381D01*
X69699142Y-80991381D01*
X69603904Y-81039000D01*
X69556285Y-81086619D01*
X69508666Y-81181857D01*
X69508666Y-81324714D01*
X69556285Y-81419952D01*
X69603904Y-81467571D01*
X69699142Y-81515190D01*
X70080095Y-81515190D01*
X69032476Y-81991381D02*
X68842000Y-81991381D01*
X68746761Y-81943762D01*
X68699142Y-81896143D01*
X68603904Y-81753286D01*
X68556285Y-81562810D01*
X68556285Y-81181857D01*
X68603904Y-81086619D01*
X68651523Y-81039000D01*
X68746761Y-80991381D01*
X68937238Y-80991381D01*
X69032476Y-81039000D01*
X69080095Y-81086619D01*
X69127714Y-81181857D01*
X69127714Y-81419952D01*
X69080095Y-81515190D01*
X69032476Y-81562810D01*
X68937238Y-81610429D01*
X68746761Y-81610429D01*
X68651523Y-81562810D01*
X68603904Y-81515190D01*
X68556285Y-81419952D01*
X77663381Y-109974143D02*
X77187190Y-109640809D01*
X77663381Y-109402714D02*
X76663381Y-109402714D01*
X76663381Y-109783667D01*
X76711000Y-109878905D01*
X76758619Y-109926524D01*
X76853857Y-109974143D01*
X76996714Y-109974143D01*
X77091952Y-109926524D01*
X77139571Y-109878905D01*
X77187190Y-109783667D01*
X77187190Y-109402714D01*
X76663381Y-110307476D02*
X76663381Y-110926524D01*
X77044333Y-110593190D01*
X77044333Y-110736048D01*
X77091952Y-110831286D01*
X77139571Y-110878905D01*
X77234810Y-110926524D01*
X77472905Y-110926524D01*
X77568143Y-110878905D01*
X77615762Y-110831286D01*
X77663381Y-110736048D01*
X77663381Y-110450333D01*
X77615762Y-110355095D01*
X77568143Y-110307476D01*
X76663381Y-111545571D02*
X76663381Y-111640810D01*
X76711000Y-111736048D01*
X76758619Y-111783667D01*
X76853857Y-111831286D01*
X77044333Y-111878905D01*
X77282429Y-111878905D01*
X77472905Y-111831286D01*
X77568143Y-111783667D01*
X77615762Y-111736048D01*
X77663381Y-111640810D01*
X77663381Y-111545571D01*
X77615762Y-111450333D01*
X77568143Y-111402714D01*
X77472905Y-111355095D01*
X77282429Y-111307476D01*
X77044333Y-111307476D01*
X76853857Y-111355095D01*
X76758619Y-111402714D01*
X76711000Y-111450333D01*
X76663381Y-111545571D01*
X77663381Y-103624143D02*
X77187190Y-103290809D01*
X77663381Y-103052714D02*
X76663381Y-103052714D01*
X76663381Y-103433667D01*
X76711000Y-103528905D01*
X76758619Y-103576524D01*
X76853857Y-103624143D01*
X76996714Y-103624143D01*
X77091952Y-103576524D01*
X77139571Y-103528905D01*
X77187190Y-103433667D01*
X77187190Y-103052714D01*
X76758619Y-104005095D02*
X76711000Y-104052714D01*
X76663381Y-104147952D01*
X76663381Y-104386048D01*
X76711000Y-104481286D01*
X76758619Y-104528905D01*
X76853857Y-104576524D01*
X76949095Y-104576524D01*
X77091952Y-104528905D01*
X77663381Y-103957476D01*
X77663381Y-104576524D01*
X76996714Y-105433667D02*
X77663381Y-105433667D01*
X76615762Y-105195571D02*
X77330048Y-104957476D01*
X77330048Y-105576524D01*
X77663381Y-96639143D02*
X77187190Y-96305809D01*
X77663381Y-96067714D02*
X76663381Y-96067714D01*
X76663381Y-96448667D01*
X76711000Y-96543905D01*
X76758619Y-96591524D01*
X76853857Y-96639143D01*
X76996714Y-96639143D01*
X77091952Y-96591524D01*
X77139571Y-96543905D01*
X77187190Y-96448667D01*
X77187190Y-96067714D01*
X76758619Y-97020095D02*
X76711000Y-97067714D01*
X76663381Y-97162952D01*
X76663381Y-97401048D01*
X76711000Y-97496286D01*
X76758619Y-97543905D01*
X76853857Y-97591524D01*
X76949095Y-97591524D01*
X77091952Y-97543905D01*
X77663381Y-96972476D01*
X77663381Y-97591524D01*
X77663381Y-98543905D02*
X77663381Y-97972476D01*
X77663381Y-98258190D02*
X76663381Y-98258190D01*
X76806238Y-98162952D01*
X76901476Y-98067714D01*
X76949095Y-97972476D01*
X77663381Y-89654143D02*
X77187190Y-89320809D01*
X77663381Y-89082714D02*
X76663381Y-89082714D01*
X76663381Y-89463667D01*
X76711000Y-89558905D01*
X76758619Y-89606524D01*
X76853857Y-89654143D01*
X76996714Y-89654143D01*
X77091952Y-89606524D01*
X77139571Y-89558905D01*
X77187190Y-89463667D01*
X77187190Y-89082714D01*
X77663381Y-90606524D02*
X77663381Y-90035095D01*
X77663381Y-90320809D02*
X76663381Y-90320809D01*
X76806238Y-90225571D01*
X76901476Y-90130333D01*
X76949095Y-90035095D01*
X76663381Y-91511286D02*
X76663381Y-91035095D01*
X77139571Y-90987476D01*
X77091952Y-91035095D01*
X77044333Y-91130333D01*
X77044333Y-91368429D01*
X77091952Y-91463667D01*
X77139571Y-91511286D01*
X77234810Y-91558905D01*
X77472905Y-91558905D01*
X77568143Y-91511286D01*
X77615762Y-91463667D01*
X77663381Y-91368429D01*
X77663381Y-91130333D01*
X77615762Y-91035095D01*
X77568143Y-90987476D01*
X137929857Y-75910781D02*
X138263191Y-75434590D01*
X138501286Y-75910781D02*
X138501286Y-74910781D01*
X138120333Y-74910781D01*
X138025095Y-74958400D01*
X137977476Y-75006019D01*
X137929857Y-75101257D01*
X137929857Y-75244114D01*
X137977476Y-75339352D01*
X138025095Y-75386971D01*
X138120333Y-75434590D01*
X138501286Y-75434590D01*
X137072714Y-75244114D02*
X137072714Y-75910781D01*
X137310810Y-74863162D02*
X137548905Y-75577448D01*
X136929857Y-75577448D01*
X136358429Y-74910781D02*
X136263190Y-74910781D01*
X136167952Y-74958400D01*
X136120333Y-75006019D01*
X136072714Y-75101257D01*
X136025095Y-75291733D01*
X136025095Y-75529829D01*
X136072714Y-75720305D01*
X136120333Y-75815543D01*
X136167952Y-75863162D01*
X136263190Y-75910781D01*
X136358429Y-75910781D01*
X136453667Y-75863162D01*
X136501286Y-75815543D01*
X136548905Y-75720305D01*
X136596524Y-75529829D01*
X136596524Y-75291733D01*
X136548905Y-75101257D01*
X136501286Y-75006019D01*
X136453667Y-74958400D01*
X136358429Y-74910781D01*
X77663381Y-82796143D02*
X77187190Y-82462809D01*
X77663381Y-82224714D02*
X76663381Y-82224714D01*
X76663381Y-82605667D01*
X76711000Y-82700905D01*
X76758619Y-82748524D01*
X76853857Y-82796143D01*
X76996714Y-82796143D01*
X77091952Y-82748524D01*
X77139571Y-82700905D01*
X77187190Y-82605667D01*
X77187190Y-82224714D01*
X77663381Y-83748524D02*
X77663381Y-83177095D01*
X77663381Y-83462809D02*
X76663381Y-83462809D01*
X76806238Y-83367571D01*
X76901476Y-83272333D01*
X76949095Y-83177095D01*
X76663381Y-84367571D02*
X76663381Y-84462810D01*
X76711000Y-84558048D01*
X76758619Y-84605667D01*
X76853857Y-84653286D01*
X77044333Y-84700905D01*
X77282429Y-84700905D01*
X77472905Y-84653286D01*
X77568143Y-84605667D01*
X77615762Y-84558048D01*
X77663381Y-84462810D01*
X77663381Y-84367571D01*
X77615762Y-84272333D01*
X77568143Y-84224714D01*
X77472905Y-84177095D01*
X77282429Y-84129476D01*
X77044333Y-84129476D01*
X76853857Y-84177095D01*
X76758619Y-84224714D01*
X76711000Y-84272333D01*
X76663381Y-84367571D01*
X142636581Y-69918343D02*
X142160390Y-69585009D01*
X142636581Y-69346914D02*
X141636581Y-69346914D01*
X141636581Y-69727867D01*
X141684200Y-69823105D01*
X141731819Y-69870724D01*
X141827057Y-69918343D01*
X141969914Y-69918343D01*
X142065152Y-69870724D01*
X142112771Y-69823105D01*
X142160390Y-69727867D01*
X142160390Y-69346914D01*
X141636581Y-70251676D02*
X141636581Y-70870724D01*
X142017533Y-70537390D01*
X142017533Y-70680248D01*
X142065152Y-70775486D01*
X142112771Y-70823105D01*
X142208010Y-70870724D01*
X142446105Y-70870724D01*
X142541343Y-70823105D01*
X142588962Y-70775486D01*
X142636581Y-70680248D01*
X142636581Y-70394533D01*
X142588962Y-70299295D01*
X142541343Y-70251676D01*
X142636581Y-71346914D02*
X142636581Y-71537390D01*
X142588962Y-71632629D01*
X142541343Y-71680248D01*
X142398486Y-71775486D01*
X142208010Y-71823105D01*
X141827057Y-71823105D01*
X141731819Y-71775486D01*
X141684200Y-71727867D01*
X141636581Y-71632629D01*
X141636581Y-71442152D01*
X141684200Y-71346914D01*
X141731819Y-71299295D01*
X141827057Y-71251676D01*
X142065152Y-71251676D01*
X142160390Y-71299295D01*
X142208010Y-71346914D01*
X142255629Y-71442152D01*
X142255629Y-71632629D01*
X142208010Y-71727867D01*
X142160390Y-71775486D01*
X142065152Y-71823105D01*
X74842666Y-78171381D02*
X75176000Y-77695190D01*
X75414095Y-78171381D02*
X75414095Y-77171381D01*
X75033142Y-77171381D01*
X74937904Y-77219000D01*
X74890285Y-77266619D01*
X74842666Y-77361857D01*
X74842666Y-77504714D01*
X74890285Y-77599952D01*
X74937904Y-77647571D01*
X75033142Y-77695190D01*
X75414095Y-77695190D01*
X74271238Y-77599952D02*
X74366476Y-77552333D01*
X74414095Y-77504714D01*
X74461714Y-77409476D01*
X74461714Y-77361857D01*
X74414095Y-77266619D01*
X74366476Y-77219000D01*
X74271238Y-77171381D01*
X74080761Y-77171381D01*
X73985523Y-77219000D01*
X73937904Y-77266619D01*
X73890285Y-77361857D01*
X73890285Y-77409476D01*
X73937904Y-77504714D01*
X73985523Y-77552333D01*
X74080761Y-77599952D01*
X74271238Y-77599952D01*
X74366476Y-77647571D01*
X74414095Y-77695190D01*
X74461714Y-77790429D01*
X74461714Y-77980905D01*
X74414095Y-78076143D01*
X74366476Y-78123762D01*
X74271238Y-78171381D01*
X74080761Y-78171381D01*
X73985523Y-78123762D01*
X73937904Y-78076143D01*
X73890285Y-77980905D01*
X73890285Y-77790429D01*
X73937904Y-77695190D01*
X73985523Y-77647571D01*
X74080761Y-77599952D01*
X72048666Y-78171381D02*
X72382000Y-77695190D01*
X72620095Y-78171381D02*
X72620095Y-77171381D01*
X72239142Y-77171381D01*
X72143904Y-77219000D01*
X72096285Y-77266619D01*
X72048666Y-77361857D01*
X72048666Y-77504714D01*
X72096285Y-77599952D01*
X72143904Y-77647571D01*
X72239142Y-77695190D01*
X72620095Y-77695190D01*
X71191523Y-77504714D02*
X71191523Y-78171381D01*
X71429619Y-77123762D02*
X71667714Y-77838048D01*
X71048666Y-77838048D01*
X144973381Y-84447143D02*
X144497190Y-84113809D01*
X144973381Y-83875714D02*
X143973381Y-83875714D01*
X143973381Y-84256667D01*
X144021000Y-84351905D01*
X144068619Y-84399524D01*
X144163857Y-84447143D01*
X144306714Y-84447143D01*
X144401952Y-84399524D01*
X144449571Y-84351905D01*
X144497190Y-84256667D01*
X144497190Y-83875714D01*
X144973381Y-85399524D02*
X144973381Y-84828095D01*
X144973381Y-85113809D02*
X143973381Y-85113809D01*
X144116238Y-85018571D01*
X144211476Y-84923333D01*
X144259095Y-84828095D01*
X144401952Y-85970952D02*
X144354333Y-85875714D01*
X144306714Y-85828095D01*
X144211476Y-85780476D01*
X144163857Y-85780476D01*
X144068619Y-85828095D01*
X144021000Y-85875714D01*
X143973381Y-85970952D01*
X143973381Y-86161429D01*
X144021000Y-86256667D01*
X144068619Y-86304286D01*
X144163857Y-86351905D01*
X144211476Y-86351905D01*
X144306714Y-86304286D01*
X144354333Y-86256667D01*
X144401952Y-86161429D01*
X144401952Y-85970952D01*
X144449571Y-85875714D01*
X144497190Y-85828095D01*
X144592429Y-85780476D01*
X144782905Y-85780476D01*
X144878143Y-85828095D01*
X144925762Y-85875714D01*
X144973381Y-85970952D01*
X144973381Y-86161429D01*
X144925762Y-86256667D01*
X144878143Y-86304286D01*
X144782905Y-86351905D01*
X144592429Y-86351905D01*
X144497190Y-86304286D01*
X144449571Y-86256667D01*
X144401952Y-86161429D01*
X74842666Y-71313381D02*
X75176000Y-70837190D01*
X75414095Y-71313381D02*
X75414095Y-70313381D01*
X75033142Y-70313381D01*
X74937904Y-70361000D01*
X74890285Y-70408619D01*
X74842666Y-70503857D01*
X74842666Y-70646714D01*
X74890285Y-70741952D01*
X74937904Y-70789571D01*
X75033142Y-70837190D01*
X75414095Y-70837190D01*
X74509333Y-70313381D02*
X73842666Y-70313381D01*
X74271238Y-71313381D01*
X72048666Y-71313381D02*
X72382000Y-70837190D01*
X72620095Y-71313381D02*
X72620095Y-70313381D01*
X72239142Y-70313381D01*
X72143904Y-70361000D01*
X72096285Y-70408619D01*
X72048666Y-70503857D01*
X72048666Y-70646714D01*
X72096285Y-70741952D01*
X72143904Y-70789571D01*
X72239142Y-70837190D01*
X72620095Y-70837190D01*
X71715333Y-70313381D02*
X71096285Y-70313381D01*
X71429619Y-70694333D01*
X71286761Y-70694333D01*
X71191523Y-70741952D01*
X71143904Y-70789571D01*
X71096285Y-70884810D01*
X71096285Y-71122905D01*
X71143904Y-71218143D01*
X71191523Y-71265762D01*
X71286761Y-71313381D01*
X71572476Y-71313381D01*
X71667714Y-71265762D01*
X71715333Y-71218143D01*
X145676857Y-63576381D02*
X146010191Y-63100190D01*
X146248286Y-63576381D02*
X146248286Y-62576381D01*
X145867333Y-62576381D01*
X145772095Y-62624000D01*
X145724476Y-62671619D01*
X145676857Y-62766857D01*
X145676857Y-62909714D01*
X145724476Y-63004952D01*
X145772095Y-63052571D01*
X145867333Y-63100190D01*
X146248286Y-63100190D01*
X145343524Y-62576381D02*
X144724476Y-62576381D01*
X145057810Y-62957333D01*
X144914952Y-62957333D01*
X144819714Y-63004952D01*
X144772095Y-63052571D01*
X144724476Y-63147810D01*
X144724476Y-63385905D01*
X144772095Y-63481143D01*
X144819714Y-63528762D01*
X144914952Y-63576381D01*
X145200667Y-63576381D01*
X145295905Y-63528762D01*
X145343524Y-63481143D01*
X144153048Y-63004952D02*
X144248286Y-62957333D01*
X144295905Y-62909714D01*
X144343524Y-62814476D01*
X144343524Y-62766857D01*
X144295905Y-62671619D01*
X144248286Y-62624000D01*
X144153048Y-62576381D01*
X143962571Y-62576381D01*
X143867333Y-62624000D01*
X143819714Y-62671619D01*
X143772095Y-62766857D01*
X143772095Y-62814476D01*
X143819714Y-62909714D01*
X143867333Y-62957333D01*
X143962571Y-63004952D01*
X144153048Y-63004952D01*
X144248286Y-63052571D01*
X144295905Y-63100190D01*
X144343524Y-63195429D01*
X144343524Y-63385905D01*
X144295905Y-63481143D01*
X144248286Y-63528762D01*
X144153048Y-63576381D01*
X143962571Y-63576381D01*
X143867333Y-63528762D01*
X143819714Y-63481143D01*
X143772095Y-63385905D01*
X143772095Y-63195429D01*
X143819714Y-63100190D01*
X143867333Y-63052571D01*
X143962571Y-63004952D01*
X145676857Y-86172381D02*
X146010191Y-85696190D01*
X146248286Y-86172381D02*
X146248286Y-85172381D01*
X145867333Y-85172381D01*
X145772095Y-85220000D01*
X145724476Y-85267619D01*
X145676857Y-85362857D01*
X145676857Y-85505714D01*
X145724476Y-85600952D01*
X145772095Y-85648571D01*
X145867333Y-85696190D01*
X146248286Y-85696190D01*
X145295905Y-85267619D02*
X145248286Y-85220000D01*
X145153048Y-85172381D01*
X144914952Y-85172381D01*
X144819714Y-85220000D01*
X144772095Y-85267619D01*
X144724476Y-85362857D01*
X144724476Y-85458095D01*
X144772095Y-85600952D01*
X145343524Y-86172381D01*
X144724476Y-86172381D01*
X144391143Y-85172381D02*
X143772095Y-85172381D01*
X144105429Y-85553333D01*
X143962571Y-85553333D01*
X143867333Y-85600952D01*
X143819714Y-85648571D01*
X143772095Y-85743810D01*
X143772095Y-85981905D01*
X143819714Y-86077143D01*
X143867333Y-86124762D01*
X143962571Y-86172381D01*
X144248286Y-86172381D01*
X144343524Y-86124762D01*
X144391143Y-86077143D01*
X74842666Y-65344381D02*
X75176000Y-64868190D01*
X75414095Y-65344381D02*
X75414095Y-64344381D01*
X75033142Y-64344381D01*
X74937904Y-64392000D01*
X74890285Y-64439619D01*
X74842666Y-64534857D01*
X74842666Y-64677714D01*
X74890285Y-64772952D01*
X74937904Y-64820571D01*
X75033142Y-64868190D01*
X75414095Y-64868190D01*
X73985523Y-64344381D02*
X74176000Y-64344381D01*
X74271238Y-64392000D01*
X74318857Y-64439619D01*
X74414095Y-64582476D01*
X74461714Y-64772952D01*
X74461714Y-65153905D01*
X74414095Y-65249143D01*
X74366476Y-65296762D01*
X74271238Y-65344381D01*
X74080761Y-65344381D01*
X73985523Y-65296762D01*
X73937904Y-65249143D01*
X73890285Y-65153905D01*
X73890285Y-64915810D01*
X73937904Y-64820571D01*
X73985523Y-64772952D01*
X74080761Y-64725333D01*
X74271238Y-64725333D01*
X74366476Y-64772952D01*
X74414095Y-64820571D01*
X74461714Y-64915810D01*
X72048666Y-65344381D02*
X72382000Y-64868190D01*
X72620095Y-65344381D02*
X72620095Y-64344381D01*
X72239142Y-64344381D01*
X72143904Y-64392000D01*
X72096285Y-64439619D01*
X72048666Y-64534857D01*
X72048666Y-64677714D01*
X72096285Y-64772952D01*
X72143904Y-64820571D01*
X72239142Y-64868190D01*
X72620095Y-64868190D01*
X71667714Y-64439619D02*
X71620095Y-64392000D01*
X71524857Y-64344381D01*
X71286761Y-64344381D01*
X71191523Y-64392000D01*
X71143904Y-64439619D01*
X71096285Y-64534857D01*
X71096285Y-64630095D01*
X71143904Y-64772952D01*
X71715333Y-65344381D01*
X71096285Y-65344381D01*
X145338981Y-57548543D02*
X144862790Y-57215209D01*
X145338981Y-56977114D02*
X144338981Y-56977114D01*
X144338981Y-57358067D01*
X144386600Y-57453305D01*
X144434219Y-57500924D01*
X144529457Y-57548543D01*
X144672314Y-57548543D01*
X144767552Y-57500924D01*
X144815171Y-57453305D01*
X144862790Y-57358067D01*
X144862790Y-56977114D01*
X144338981Y-57881876D02*
X144338981Y-58500924D01*
X144719933Y-58167590D01*
X144719933Y-58310448D01*
X144767552Y-58405686D01*
X144815171Y-58453305D01*
X144910410Y-58500924D01*
X145148505Y-58500924D01*
X145243743Y-58453305D01*
X145291362Y-58405686D01*
X145338981Y-58310448D01*
X145338981Y-58024733D01*
X145291362Y-57929495D01*
X145243743Y-57881876D01*
X144338981Y-58834257D02*
X144338981Y-59500924D01*
X145338981Y-59072352D01*
X148148381Y-61587143D02*
X147672190Y-61253809D01*
X148148381Y-61015714D02*
X147148381Y-61015714D01*
X147148381Y-61396667D01*
X147196000Y-61491905D01*
X147243619Y-61539524D01*
X147338857Y-61587143D01*
X147481714Y-61587143D01*
X147576952Y-61539524D01*
X147624571Y-61491905D01*
X147672190Y-61396667D01*
X147672190Y-61015714D01*
X147148381Y-61920476D02*
X147148381Y-62539524D01*
X147529333Y-62206190D01*
X147529333Y-62349048D01*
X147576952Y-62444286D01*
X147624571Y-62491905D01*
X147719810Y-62539524D01*
X147957905Y-62539524D01*
X148053143Y-62491905D01*
X148100762Y-62444286D01*
X148148381Y-62349048D01*
X148148381Y-62063333D01*
X148100762Y-61968095D01*
X148053143Y-61920476D01*
X147148381Y-63396667D02*
X147148381Y-63206190D01*
X147196000Y-63110952D01*
X147243619Y-63063333D01*
X147386476Y-62968095D01*
X147576952Y-62920476D01*
X147957905Y-62920476D01*
X148053143Y-62968095D01*
X148100762Y-63015714D01*
X148148381Y-63110952D01*
X148148381Y-63301429D01*
X148100762Y-63396667D01*
X148053143Y-63444286D01*
X147957905Y-63491905D01*
X147719810Y-63491905D01*
X147624571Y-63444286D01*
X147576952Y-63396667D01*
X147529333Y-63301429D01*
X147529333Y-63110952D01*
X147576952Y-63015714D01*
X147624571Y-62968095D01*
X147719810Y-62920476D01*
X107481666Y-78975143D02*
X107529285Y-79022762D01*
X107672142Y-79070381D01*
X107767380Y-79070381D01*
X107910238Y-79022762D01*
X108005476Y-78927524D01*
X108053095Y-78832286D01*
X108100714Y-78641810D01*
X108100714Y-78498952D01*
X108053095Y-78308476D01*
X108005476Y-78213238D01*
X107910238Y-78118000D01*
X107767380Y-78070381D01*
X107672142Y-78070381D01*
X107529285Y-78118000D01*
X107481666Y-78165619D01*
X107100714Y-78165619D02*
X107053095Y-78118000D01*
X106957857Y-78070381D01*
X106719761Y-78070381D01*
X106624523Y-78118000D01*
X106576904Y-78165619D01*
X106529285Y-78260857D01*
X106529285Y-78356095D01*
X106576904Y-78498952D01*
X107148333Y-79070381D01*
X106529285Y-79070381D01*
X105576666Y-68230943D02*
X105624285Y-68278562D01*
X105767142Y-68326181D01*
X105862380Y-68326181D01*
X106005238Y-68278562D01*
X106100476Y-68183324D01*
X106148095Y-68088086D01*
X106195714Y-67897610D01*
X106195714Y-67754752D01*
X106148095Y-67564276D01*
X106100476Y-67469038D01*
X106005238Y-67373800D01*
X105862380Y-67326181D01*
X105767142Y-67326181D01*
X105624285Y-67373800D01*
X105576666Y-67421419D01*
X105243333Y-67326181D02*
X104624285Y-67326181D01*
X104957619Y-67707133D01*
X104814761Y-67707133D01*
X104719523Y-67754752D01*
X104671904Y-67802371D01*
X104624285Y-67897610D01*
X104624285Y-68135705D01*
X104671904Y-68230943D01*
X104719523Y-68278562D01*
X104814761Y-68326181D01*
X105100476Y-68326181D01*
X105195714Y-68278562D01*
X105243333Y-68230943D01*
D11*
X137595429Y-50172257D02*
X138829143Y-50172257D01*
X138974286Y-50244829D01*
X139046857Y-50317400D01*
X139119429Y-50462543D01*
X139119429Y-50752829D01*
X139046857Y-50897971D01*
X138974286Y-50970543D01*
X138829143Y-51043114D01*
X137595429Y-51043114D01*
X137595429Y-51623685D02*
X137595429Y-52567114D01*
X138176000Y-52059114D01*
X138176000Y-52276828D01*
X138248571Y-52421971D01*
X138321143Y-52494542D01*
X138466286Y-52567114D01*
X138829143Y-52567114D01*
X138974286Y-52494542D01*
X139046857Y-52421971D01*
X139119429Y-52276828D01*
X139119429Y-51841400D01*
X139046857Y-51696257D01*
X138974286Y-51623685D01*
X144758229Y-46819456D02*
X143234229Y-46819456D01*
X143234229Y-47400028D01*
X143306800Y-47545170D01*
X143379371Y-47617742D01*
X143524514Y-47690313D01*
X143742229Y-47690313D01*
X143887371Y-47617742D01*
X143959943Y-47545170D01*
X144032514Y-47400028D01*
X144032514Y-46819456D01*
X144613086Y-49214313D02*
X144685657Y-49141742D01*
X144758229Y-48924028D01*
X144758229Y-48778885D01*
X144685657Y-48561170D01*
X144540514Y-48416028D01*
X144395371Y-48343456D01*
X144105086Y-48270885D01*
X143887371Y-48270885D01*
X143597086Y-48343456D01*
X143451943Y-48416028D01*
X143306800Y-48561170D01*
X143234229Y-48778885D01*
X143234229Y-48924028D01*
X143306800Y-49141742D01*
X143379371Y-49214313D01*
X144322800Y-49794885D02*
X144322800Y-50520599D01*
X144758229Y-49649742D02*
X143234229Y-50157742D01*
X144758229Y-50665742D01*
X144758229Y-51246314D02*
X144758229Y-51536599D01*
X144685657Y-51681742D01*
X144613086Y-51754314D01*
X144395371Y-51899456D01*
X144105086Y-51972028D01*
X143524514Y-51972028D01*
X143379371Y-51899456D01*
X143306800Y-51826885D01*
X143234229Y-51681742D01*
X143234229Y-51391456D01*
X143306800Y-51246314D01*
X143379371Y-51173742D01*
X143524514Y-51101171D01*
X143887371Y-51101171D01*
X144032514Y-51173742D01*
X144105086Y-51246314D01*
X144177657Y-51391456D01*
X144177657Y-51681742D01*
X144105086Y-51826885D01*
X144032514Y-51899456D01*
X143887371Y-51972028D01*
X143234229Y-52480028D02*
X143234229Y-53423457D01*
X143814800Y-52915457D01*
X143814800Y-53133171D01*
X143887371Y-53278314D01*
X143959943Y-53350885D01*
X144105086Y-53423457D01*
X144467943Y-53423457D01*
X144613086Y-53350885D01*
X144685657Y-53278314D01*
X144758229Y-53133171D01*
X144758229Y-52697743D01*
X144685657Y-52552600D01*
X144613086Y-52480028D01*
X143234229Y-54366886D02*
X143234229Y-54512029D01*
X143306800Y-54657172D01*
X143379371Y-54729743D01*
X143524514Y-54802314D01*
X143814800Y-54874886D01*
X144177657Y-54874886D01*
X144467943Y-54802314D01*
X144613086Y-54729743D01*
X144685657Y-54657172D01*
X144758229Y-54512029D01*
X144758229Y-54366886D01*
X144685657Y-54221743D01*
X144613086Y-54149172D01*
X144467943Y-54076600D01*
X144177657Y-54004029D01*
X143814800Y-54004029D01*
X143524514Y-54076600D01*
X143379371Y-54149172D01*
X143306800Y-54221743D01*
X143234229Y-54366886D01*
X143234229Y-56181172D02*
X143234229Y-55890886D01*
X143306800Y-55745743D01*
X143379371Y-55673172D01*
X143597086Y-55528029D01*
X143887371Y-55455458D01*
X144467943Y-55455458D01*
X144613086Y-55528029D01*
X144685657Y-55600601D01*
X144758229Y-55745743D01*
X144758229Y-56036029D01*
X144685657Y-56181172D01*
X144613086Y-56253743D01*
X144467943Y-56326315D01*
X144105086Y-56326315D01*
X143959943Y-56253743D01*
X143887371Y-56181172D01*
X143814800Y-56036029D01*
X143814800Y-55745743D01*
X143887371Y-55600601D01*
X143959943Y-55528029D01*
X144105086Y-55455458D01*
X137011229Y-64218457D02*
X138244943Y-64218457D01*
X138390086Y-64291029D01*
X138462657Y-64363600D01*
X138535229Y-64508743D01*
X138535229Y-64799029D01*
X138462657Y-64944171D01*
X138390086Y-65016743D01*
X138244943Y-65089314D01*
X137011229Y-65089314D01*
X137519229Y-66468171D02*
X138535229Y-66468171D01*
X136938657Y-66105314D02*
X138027229Y-65742457D01*
X138027229Y-66685885D01*
X144174029Y-60865656D02*
X142650029Y-60865656D01*
X142650029Y-61446228D01*
X142722600Y-61591370D01*
X142795171Y-61663942D01*
X142940314Y-61736513D01*
X143158029Y-61736513D01*
X143303171Y-61663942D01*
X143375743Y-61591370D01*
X143448314Y-61446228D01*
X143448314Y-60865656D01*
X144028886Y-63260513D02*
X144101457Y-63187942D01*
X144174029Y-62970228D01*
X144174029Y-62825085D01*
X144101457Y-62607370D01*
X143956314Y-62462228D01*
X143811171Y-62389656D01*
X143520886Y-62317085D01*
X143303171Y-62317085D01*
X143012886Y-62389656D01*
X142867743Y-62462228D01*
X142722600Y-62607370D01*
X142650029Y-62825085D01*
X142650029Y-62970228D01*
X142722600Y-63187942D01*
X142795171Y-63260513D01*
X143738600Y-63841085D02*
X143738600Y-64566799D01*
X144174029Y-63695942D02*
X142650029Y-64203942D01*
X144174029Y-64711942D01*
X144174029Y-65292514D02*
X144174029Y-65582799D01*
X144101457Y-65727942D01*
X144028886Y-65800514D01*
X143811171Y-65945656D01*
X143520886Y-66018228D01*
X142940314Y-66018228D01*
X142795171Y-65945656D01*
X142722600Y-65873085D01*
X142650029Y-65727942D01*
X142650029Y-65437656D01*
X142722600Y-65292514D01*
X142795171Y-65219942D01*
X142940314Y-65147371D01*
X143303171Y-65147371D01*
X143448314Y-65219942D01*
X143520886Y-65292514D01*
X143593457Y-65437656D01*
X143593457Y-65727942D01*
X143520886Y-65873085D01*
X143448314Y-65945656D01*
X143303171Y-66018228D01*
X142650029Y-66526228D02*
X142650029Y-67469657D01*
X143230600Y-66961657D01*
X143230600Y-67179371D01*
X143303171Y-67324514D01*
X143375743Y-67397085D01*
X143520886Y-67469657D01*
X143883743Y-67469657D01*
X144028886Y-67397085D01*
X144101457Y-67324514D01*
X144174029Y-67179371D01*
X144174029Y-66743943D01*
X144101457Y-66598800D01*
X144028886Y-66526228D01*
X142650029Y-68413086D02*
X142650029Y-68558229D01*
X142722600Y-68703372D01*
X142795171Y-68775943D01*
X142940314Y-68848514D01*
X143230600Y-68921086D01*
X143593457Y-68921086D01*
X143883743Y-68848514D01*
X144028886Y-68775943D01*
X144101457Y-68703372D01*
X144174029Y-68558229D01*
X144174029Y-68413086D01*
X144101457Y-68267943D01*
X144028886Y-68195372D01*
X143883743Y-68122800D01*
X143593457Y-68050229D01*
X143230600Y-68050229D01*
X142940314Y-68122800D01*
X142795171Y-68195372D01*
X142722600Y-68267943D01*
X142650029Y-68413086D01*
X142650029Y-70227372D02*
X142650029Y-69937086D01*
X142722600Y-69791943D01*
X142795171Y-69719372D01*
X143012886Y-69574229D01*
X143303171Y-69501658D01*
X143883743Y-69501658D01*
X144028886Y-69574229D01*
X144101457Y-69646801D01*
X144174029Y-69791943D01*
X144174029Y-70082229D01*
X144101457Y-70227372D01*
X144028886Y-70299943D01*
X143883743Y-70372515D01*
X143520886Y-70372515D01*
X143375743Y-70299943D01*
X143303171Y-70227372D01*
X143230600Y-70082229D01*
X143230600Y-69791943D01*
X143303171Y-69646801D01*
X143375743Y-69574229D01*
X143520886Y-69501658D01*
D10*
X80307143Y-82510334D02*
X80354762Y-82462715D01*
X80402381Y-82319858D01*
X80402381Y-82224620D01*
X80354762Y-82081762D01*
X80259524Y-81986524D01*
X80164286Y-81938905D01*
X79973810Y-81891286D01*
X79830952Y-81891286D01*
X79640476Y-81938905D01*
X79545238Y-81986524D01*
X79450000Y-82081762D01*
X79402381Y-82224620D01*
X79402381Y-82319858D01*
X79450000Y-82462715D01*
X79497619Y-82510334D01*
X80402381Y-83462715D02*
X80402381Y-82891286D01*
X80402381Y-83177000D02*
X79402381Y-83177000D01*
X79545238Y-83081762D01*
X79640476Y-82986524D01*
X79688095Y-82891286D01*
D13*
X90186933Y-56669819D02*
X90186933Y-55653819D01*
X89799886Y-55653819D01*
X89703124Y-55702200D01*
X89654743Y-55750581D01*
X89606362Y-55847343D01*
X89606362Y-55992486D01*
X89654743Y-56089248D01*
X89703124Y-56137629D01*
X89799886Y-56186010D01*
X90186933Y-56186010D01*
X88638743Y-56669819D02*
X89219314Y-56669819D01*
X88929028Y-56669819D02*
X88929028Y-55653819D01*
X89025790Y-55798962D01*
X89122552Y-55895724D01*
X89219314Y-55944105D01*
X88009790Y-55653819D02*
X87913029Y-55653819D01*
X87816267Y-55702200D01*
X87767886Y-55750581D01*
X87719505Y-55847343D01*
X87671124Y-56040867D01*
X87671124Y-56282771D01*
X87719505Y-56476295D01*
X87767886Y-56573057D01*
X87816267Y-56621438D01*
X87913029Y-56669819D01*
X88009790Y-56669819D01*
X88106552Y-56621438D01*
X88154933Y-56573057D01*
X88203314Y-56476295D01*
X88251695Y-56282771D01*
X88251695Y-56040867D01*
X88203314Y-55847343D01*
X88154933Y-55750581D01*
X88106552Y-55702200D01*
X88009790Y-55653819D01*
X87042171Y-55653819D02*
X86945410Y-55653819D01*
X86848648Y-55702200D01*
X86800267Y-55750581D01*
X86751886Y-55847343D01*
X86703505Y-56040867D01*
X86703505Y-56282771D01*
X86751886Y-56476295D01*
X86800267Y-56573057D01*
X86848648Y-56621438D01*
X86945410Y-56669819D01*
X87042171Y-56669819D01*
X87138933Y-56621438D01*
X87187314Y-56573057D01*
X87235695Y-56476295D01*
X87284076Y-56282771D01*
X87284076Y-56040867D01*
X87235695Y-55847343D01*
X87187314Y-55750581D01*
X87138933Y-55702200D01*
X87042171Y-55653819D01*
X86316457Y-55750581D02*
X86268076Y-55702200D01*
X86171314Y-55653819D01*
X85929410Y-55653819D01*
X85832648Y-55702200D01*
X85784267Y-55750581D01*
X85735886Y-55847343D01*
X85735886Y-55944105D01*
X85784267Y-56089248D01*
X86364838Y-56669819D01*
X85735886Y-56669819D01*
D10*
X70814619Y-97186762D02*
X70767000Y-97091524D01*
X70671762Y-96996286D01*
X70528905Y-96853429D01*
X70481286Y-96758190D01*
X70481286Y-96662952D01*
X70719381Y-96710571D02*
X70671762Y-96615333D01*
X70576524Y-96520095D01*
X70386048Y-96472476D01*
X70052714Y-96472476D01*
X69862238Y-96520095D01*
X69767000Y-96615333D01*
X69719381Y-96710571D01*
X69719381Y-96901048D01*
X69767000Y-96996286D01*
X69862238Y-97091524D01*
X70052714Y-97139143D01*
X70386048Y-97139143D01*
X70576524Y-97091524D01*
X70671762Y-96996286D01*
X70719381Y-96901048D01*
X70719381Y-96710571D01*
X69719381Y-97996286D02*
X69719381Y-97805809D01*
X69767000Y-97710571D01*
X69814619Y-97662952D01*
X69957476Y-97567714D01*
X70147952Y-97520095D01*
X70528905Y-97520095D01*
X70624143Y-97567714D01*
X70671762Y-97615333D01*
X70719381Y-97710571D01*
X70719381Y-97901048D01*
X70671762Y-97996286D01*
X70624143Y-98043905D01*
X70528905Y-98091524D01*
X70290810Y-98091524D01*
X70195571Y-98043905D01*
X70147952Y-97996286D01*
X70100333Y-97901048D01*
X70100333Y-97710571D01*
X70147952Y-97615333D01*
X70195571Y-97567714D01*
X70290810Y-97520095D01*
X70814619Y-90201762D02*
X70767000Y-90106524D01*
X70671762Y-90011286D01*
X70528905Y-89868429D01*
X70481286Y-89773190D01*
X70481286Y-89677952D01*
X70719381Y-89725571D02*
X70671762Y-89630333D01*
X70576524Y-89535095D01*
X70386048Y-89487476D01*
X70052714Y-89487476D01*
X69862238Y-89535095D01*
X69767000Y-89630333D01*
X69719381Y-89725571D01*
X69719381Y-89916048D01*
X69767000Y-90011286D01*
X69862238Y-90106524D01*
X70052714Y-90154143D01*
X70386048Y-90154143D01*
X70576524Y-90106524D01*
X70671762Y-90011286D01*
X70719381Y-89916048D01*
X70719381Y-89725571D01*
X69719381Y-90487476D02*
X69719381Y-91106524D01*
X70100333Y-90773190D01*
X70100333Y-90916048D01*
X70147952Y-91011286D01*
X70195571Y-91058905D01*
X70290810Y-91106524D01*
X70528905Y-91106524D01*
X70624143Y-91058905D01*
X70671762Y-91011286D01*
X70719381Y-90916048D01*
X70719381Y-90630333D01*
X70671762Y-90535095D01*
X70624143Y-90487476D01*
X70687619Y-104171762D02*
X70640000Y-104076524D01*
X70544762Y-103981286D01*
X70401905Y-103838429D01*
X70354286Y-103743190D01*
X70354286Y-103647952D01*
X70592381Y-103695571D02*
X70544762Y-103600333D01*
X70449524Y-103505095D01*
X70259048Y-103457476D01*
X69925714Y-103457476D01*
X69735238Y-103505095D01*
X69640000Y-103600333D01*
X69592381Y-103695571D01*
X69592381Y-103886048D01*
X69640000Y-103981286D01*
X69735238Y-104076524D01*
X69925714Y-104124143D01*
X70259048Y-104124143D01*
X70449524Y-104076524D01*
X70544762Y-103981286D01*
X70592381Y-103886048D01*
X70592381Y-103695571D01*
X70592381Y-104600333D02*
X70592381Y-104790809D01*
X70544762Y-104886048D01*
X70497143Y-104933667D01*
X70354286Y-105028905D01*
X70163810Y-105076524D01*
X69782857Y-105076524D01*
X69687619Y-105028905D01*
X69640000Y-104981286D01*
X69592381Y-104886048D01*
X69592381Y-104695571D01*
X69640000Y-104600333D01*
X69687619Y-104552714D01*
X69782857Y-104505095D01*
X70020952Y-104505095D01*
X70116190Y-104552714D01*
X70163810Y-104600333D01*
X70211429Y-104695571D01*
X70211429Y-104886048D01*
X70163810Y-104981286D01*
X70116190Y-105028905D01*
X70020952Y-105076524D01*
X70941619Y-83343762D02*
X70894000Y-83248524D01*
X70798762Y-83153286D01*
X70655905Y-83010429D01*
X70608286Y-82915190D01*
X70608286Y-82819952D01*
X70846381Y-82867571D02*
X70798762Y-82772333D01*
X70703524Y-82677095D01*
X70513048Y-82629476D01*
X70179714Y-82629476D01*
X69989238Y-82677095D01*
X69894000Y-82772333D01*
X69846381Y-82867571D01*
X69846381Y-83058048D01*
X69894000Y-83153286D01*
X69989238Y-83248524D01*
X70179714Y-83296143D01*
X70513048Y-83296143D01*
X70703524Y-83248524D01*
X70798762Y-83153286D01*
X70846381Y-83058048D01*
X70846381Y-82867571D01*
X69941619Y-83677095D02*
X69894000Y-83724714D01*
X69846381Y-83819952D01*
X69846381Y-84058048D01*
X69894000Y-84153286D01*
X69941619Y-84200905D01*
X70036857Y-84248524D01*
X70132095Y-84248524D01*
X70274952Y-84200905D01*
X70846381Y-83629476D01*
X70846381Y-84248524D01*
X70814619Y-110045572D02*
X70767000Y-109950334D01*
X70671762Y-109855096D01*
X70528905Y-109712239D01*
X70481286Y-109617000D01*
X70481286Y-109521762D01*
X70719381Y-109569381D02*
X70671762Y-109474143D01*
X70576524Y-109378905D01*
X70386048Y-109331286D01*
X70052714Y-109331286D01*
X69862238Y-109378905D01*
X69767000Y-109474143D01*
X69719381Y-109569381D01*
X69719381Y-109759858D01*
X69767000Y-109855096D01*
X69862238Y-109950334D01*
X70052714Y-109997953D01*
X70386048Y-109997953D01*
X70576524Y-109950334D01*
X70671762Y-109855096D01*
X70719381Y-109759858D01*
X70719381Y-109569381D01*
X70719381Y-110950334D02*
X70719381Y-110378905D01*
X70719381Y-110664619D02*
X69719381Y-110664619D01*
X69862238Y-110569381D01*
X69957476Y-110474143D01*
X70005095Y-110378905D01*
X69719381Y-111569381D02*
X69719381Y-111664620D01*
X69767000Y-111759858D01*
X69814619Y-111807477D01*
X69909857Y-111855096D01*
X70100333Y-111902715D01*
X70338429Y-111902715D01*
X70528905Y-111855096D01*
X70624143Y-111807477D01*
X70671762Y-111759858D01*
X70719381Y-111664620D01*
X70719381Y-111569381D01*
X70671762Y-111474143D01*
X70624143Y-111426524D01*
X70528905Y-111378905D01*
X70338429Y-111331286D01*
X70100333Y-111331286D01*
X69909857Y-111378905D01*
X69814619Y-111426524D01*
X69767000Y-111474143D01*
X69719381Y-111569381D01*
X143640619Y-80041762D02*
X143593000Y-79946524D01*
X143497762Y-79851286D01*
X143354905Y-79708429D01*
X143307286Y-79613190D01*
X143307286Y-79517952D01*
X143545381Y-79565571D02*
X143497762Y-79470333D01*
X143402524Y-79375095D01*
X143212048Y-79327476D01*
X142878714Y-79327476D01*
X142688238Y-79375095D01*
X142593000Y-79470333D01*
X142545381Y-79565571D01*
X142545381Y-79756048D01*
X142593000Y-79851286D01*
X142688238Y-79946524D01*
X142878714Y-79994143D01*
X143212048Y-79994143D01*
X143402524Y-79946524D01*
X143497762Y-79851286D01*
X143545381Y-79756048D01*
X143545381Y-79565571D01*
X142878714Y-80851286D02*
X143545381Y-80851286D01*
X142497762Y-80613190D02*
X143212048Y-80375095D01*
X143212048Y-80994143D01*
X147831619Y-80041762D02*
X147784000Y-79946524D01*
X147688762Y-79851286D01*
X147545905Y-79708429D01*
X147498286Y-79613190D01*
X147498286Y-79517952D01*
X147736381Y-79565571D02*
X147688762Y-79470333D01*
X147593524Y-79375095D01*
X147403048Y-79327476D01*
X147069714Y-79327476D01*
X146879238Y-79375095D01*
X146784000Y-79470333D01*
X146736381Y-79565571D01*
X146736381Y-79756048D01*
X146784000Y-79851286D01*
X146879238Y-79946524D01*
X147069714Y-79994143D01*
X147403048Y-79994143D01*
X147593524Y-79946524D01*
X147688762Y-79851286D01*
X147736381Y-79756048D01*
X147736381Y-79565571D01*
X146736381Y-80898905D02*
X146736381Y-80422714D01*
X147212571Y-80375095D01*
X147164952Y-80422714D01*
X147117333Y-80517952D01*
X147117333Y-80756048D01*
X147164952Y-80851286D01*
X147212571Y-80898905D01*
X147307810Y-80946524D01*
X147545905Y-80946524D01*
X147641143Y-80898905D01*
X147688762Y-80851286D01*
X147736381Y-80756048D01*
X147736381Y-80517952D01*
X147688762Y-80422714D01*
X147641143Y-80375095D01*
X143640619Y-101155572D02*
X143593000Y-101060334D01*
X143497762Y-100965096D01*
X143354905Y-100822239D01*
X143307286Y-100727000D01*
X143307286Y-100631762D01*
X143545381Y-100679381D02*
X143497762Y-100584143D01*
X143402524Y-100488905D01*
X143212048Y-100441286D01*
X142878714Y-100441286D01*
X142688238Y-100488905D01*
X142593000Y-100584143D01*
X142545381Y-100679381D01*
X142545381Y-100869858D01*
X142593000Y-100965096D01*
X142688238Y-101060334D01*
X142878714Y-101107953D01*
X143212048Y-101107953D01*
X143402524Y-101060334D01*
X143497762Y-100965096D01*
X143545381Y-100869858D01*
X143545381Y-100679381D01*
X143545381Y-102060334D02*
X143545381Y-101488905D01*
X143545381Y-101774619D02*
X142545381Y-101774619D01*
X142688238Y-101679381D01*
X142783476Y-101584143D01*
X142831095Y-101488905D01*
X143545381Y-103012715D02*
X143545381Y-102441286D01*
X143545381Y-102727000D02*
X142545381Y-102727000D01*
X142688238Y-102631762D01*
X142783476Y-102536524D01*
X142831095Y-102441286D01*
X147958619Y-101155572D02*
X147911000Y-101060334D01*
X147815762Y-100965096D01*
X147672905Y-100822239D01*
X147625286Y-100727000D01*
X147625286Y-100631762D01*
X147863381Y-100679381D02*
X147815762Y-100584143D01*
X147720524Y-100488905D01*
X147530048Y-100441286D01*
X147196714Y-100441286D01*
X147006238Y-100488905D01*
X146911000Y-100584143D01*
X146863381Y-100679381D01*
X146863381Y-100869858D01*
X146911000Y-100965096D01*
X147006238Y-101060334D01*
X147196714Y-101107953D01*
X147530048Y-101107953D01*
X147720524Y-101060334D01*
X147815762Y-100965096D01*
X147863381Y-100869858D01*
X147863381Y-100679381D01*
X147863381Y-102060334D02*
X147863381Y-101488905D01*
X147863381Y-101774619D02*
X146863381Y-101774619D01*
X147006238Y-101679381D01*
X147101476Y-101584143D01*
X147149095Y-101488905D01*
X146958619Y-102441286D02*
X146911000Y-102488905D01*
X146863381Y-102584143D01*
X146863381Y-102822239D01*
X146911000Y-102917477D01*
X146958619Y-102965096D01*
X147053857Y-103012715D01*
X147149095Y-103012715D01*
X147291952Y-102965096D01*
X147863381Y-102393667D01*
X147863381Y-103012715D01*
X147831619Y-90836762D02*
X147784000Y-90741524D01*
X147688762Y-90646286D01*
X147545905Y-90503429D01*
X147498286Y-90408190D01*
X147498286Y-90312952D01*
X147736381Y-90360571D02*
X147688762Y-90265333D01*
X147593524Y-90170095D01*
X147403048Y-90122476D01*
X147069714Y-90122476D01*
X146879238Y-90170095D01*
X146784000Y-90265333D01*
X146736381Y-90360571D01*
X146736381Y-90551048D01*
X146784000Y-90646286D01*
X146879238Y-90741524D01*
X147069714Y-90789143D01*
X147403048Y-90789143D01*
X147593524Y-90741524D01*
X147688762Y-90646286D01*
X147736381Y-90551048D01*
X147736381Y-90360571D01*
X147164952Y-91360571D02*
X147117333Y-91265333D01*
X147069714Y-91217714D01*
X146974476Y-91170095D01*
X146926857Y-91170095D01*
X146831619Y-91217714D01*
X146784000Y-91265333D01*
X146736381Y-91360571D01*
X146736381Y-91551048D01*
X146784000Y-91646286D01*
X146831619Y-91693905D01*
X146926857Y-91741524D01*
X146974476Y-91741524D01*
X147069714Y-91693905D01*
X147117333Y-91646286D01*
X147164952Y-91551048D01*
X147164952Y-91360571D01*
X147212571Y-91265333D01*
X147260190Y-91217714D01*
X147355429Y-91170095D01*
X147545905Y-91170095D01*
X147641143Y-91217714D01*
X147688762Y-91265333D01*
X147736381Y-91360571D01*
X147736381Y-91551048D01*
X147688762Y-91646286D01*
X147641143Y-91693905D01*
X147545905Y-91741524D01*
X147355429Y-91741524D01*
X147260190Y-91693905D01*
X147212571Y-91646286D01*
X147164952Y-91551048D01*
X143640619Y-90836762D02*
X143593000Y-90741524D01*
X143497762Y-90646286D01*
X143354905Y-90503429D01*
X143307286Y-90408190D01*
X143307286Y-90312952D01*
X143545381Y-90360571D02*
X143497762Y-90265333D01*
X143402524Y-90170095D01*
X143212048Y-90122476D01*
X142878714Y-90122476D01*
X142688238Y-90170095D01*
X142593000Y-90265333D01*
X142545381Y-90360571D01*
X142545381Y-90551048D01*
X142593000Y-90646286D01*
X142688238Y-90741524D01*
X142878714Y-90789143D01*
X143212048Y-90789143D01*
X143402524Y-90741524D01*
X143497762Y-90646286D01*
X143545381Y-90551048D01*
X143545381Y-90360571D01*
X142545381Y-91122476D02*
X142545381Y-91789143D01*
X143545381Y-91360571D01*
X128492238Y-107517619D02*
X128587476Y-107470000D01*
X128682714Y-107374762D01*
X128825571Y-107231905D01*
X128920810Y-107184286D01*
X129016048Y-107184286D01*
X128968429Y-107422381D02*
X129063667Y-107374762D01*
X129158905Y-107279524D01*
X129206524Y-107089048D01*
X129206524Y-106755714D01*
X129158905Y-106565238D01*
X129063667Y-106470000D01*
X128968429Y-106422381D01*
X128777952Y-106422381D01*
X128682714Y-106470000D01*
X128587476Y-106565238D01*
X128539857Y-106755714D01*
X128539857Y-107089048D01*
X128587476Y-107279524D01*
X128682714Y-107374762D01*
X128777952Y-107422381D01*
X128968429Y-107422381D01*
X127587476Y-107422381D02*
X128158905Y-107422381D01*
X127873191Y-107422381D02*
X127873191Y-106422381D01*
X127968429Y-106565238D01*
X128063667Y-106660476D01*
X128158905Y-106708095D01*
M02*
