G04 #@! TF.FileFunction,Legend,Top*
%FSLAX46Y46*%
G04 Gerber Fmt 4.6, Leading zero omitted, Abs format (unit mm)*
G04 Created by KiCad (PCBNEW 4.0.0-rc1-stable) date mer. 14 oct. 2015 22:56:32 CEST*
%MOMM*%
G01*
G04 APERTURE LIST*
%ADD10C,0.150000*%
%ADD11C,0.304800*%
%ADD12C,0.299720*%
%ADD13C,0.381000*%
%ADD14C,0.152400*%
%ADD15C,0.203200*%
%ADD16C,0.271780*%
G04 APERTURE END LIST*
D10*
D11*
X73811000Y-41497000D02*
X102211000Y-41497000D01*
X102211000Y-32097000D02*
X73811000Y-32097000D01*
X73811000Y-32097000D02*
X73811000Y-41497000D01*
X102211000Y-32097000D02*
X102211000Y-41497000D01*
D12*
X90311000Y-32097000D02*
X90311000Y-41497000D01*
X85711000Y-32097000D02*
X85711000Y-41497000D01*
D13*
X71120000Y-55118000D02*
X71120000Y-55753000D01*
X64770000Y-55753000D02*
X72390000Y-55753000D01*
X71120000Y-55118000D02*
X66040000Y-55118000D01*
X66040000Y-55118000D02*
X66040000Y-55753000D01*
X72390000Y-55753000D02*
X72390000Y-49403000D01*
X72390000Y-49403000D02*
X64770000Y-49403000D01*
X66040000Y-55118000D02*
X66040000Y-55753000D01*
X64770000Y-55753000D02*
X64770000Y-49403000D01*
X71120000Y-61976000D02*
X71120000Y-62611000D01*
X64770000Y-62611000D02*
X72390000Y-62611000D01*
X71120000Y-61976000D02*
X66040000Y-61976000D01*
X66040000Y-61976000D02*
X66040000Y-62611000D01*
X72390000Y-62611000D02*
X72390000Y-56261000D01*
X72390000Y-56261000D02*
X64770000Y-56261000D01*
X66040000Y-61976000D02*
X66040000Y-62611000D01*
X64770000Y-62611000D02*
X64770000Y-56261000D01*
X71247000Y-68961000D02*
X71247000Y-69596000D01*
X64897000Y-69596000D02*
X72517000Y-69596000D01*
X71247000Y-68961000D02*
X66167000Y-68961000D01*
X66167000Y-68961000D02*
X66167000Y-69596000D01*
X72517000Y-69596000D02*
X72517000Y-63246000D01*
X72517000Y-63246000D02*
X64897000Y-63246000D01*
X66167000Y-68961000D02*
X66167000Y-69596000D01*
X64897000Y-69596000D02*
X64897000Y-63246000D01*
X71120000Y-75946000D02*
X71120000Y-76581000D01*
X64770000Y-76581000D02*
X72390000Y-76581000D01*
X71120000Y-75946000D02*
X66040000Y-75946000D01*
X66040000Y-75946000D02*
X66040000Y-76581000D01*
X72390000Y-76581000D02*
X72390000Y-70231000D01*
X72390000Y-70231000D02*
X64770000Y-70231000D01*
X66040000Y-75946000D02*
X66040000Y-76581000D01*
X64770000Y-76581000D02*
X64770000Y-70231000D01*
X71120000Y-82931000D02*
X71120000Y-83566000D01*
X64770000Y-83566000D02*
X72390000Y-83566000D01*
X71120000Y-82931000D02*
X66040000Y-82931000D01*
X66040000Y-82931000D02*
X66040000Y-83566000D01*
X72390000Y-83566000D02*
X72390000Y-77216000D01*
X72390000Y-77216000D02*
X64770000Y-77216000D01*
X66040000Y-82931000D02*
X66040000Y-83566000D01*
X64770000Y-83566000D02*
X64770000Y-77216000D01*
X71120000Y-89789000D02*
X71120000Y-90424000D01*
X64770000Y-90424000D02*
X72390000Y-90424000D01*
X71120000Y-89789000D02*
X66040000Y-89789000D01*
X66040000Y-89789000D02*
X66040000Y-90424000D01*
X72390000Y-90424000D02*
X72390000Y-84074000D01*
X72390000Y-84074000D02*
X64770000Y-84074000D01*
X66040000Y-89789000D02*
X66040000Y-90424000D01*
X64770000Y-90424000D02*
X64770000Y-84074000D01*
X70993000Y-96647000D02*
X70993000Y-97282000D01*
X64643000Y-97282000D02*
X72263000Y-97282000D01*
X70993000Y-96647000D02*
X65913000Y-96647000D01*
X65913000Y-96647000D02*
X65913000Y-97282000D01*
X72263000Y-97282000D02*
X72263000Y-90932000D01*
X72263000Y-90932000D02*
X64643000Y-90932000D01*
X65913000Y-96647000D02*
X65913000Y-97282000D01*
X64643000Y-97282000D02*
X64643000Y-90932000D01*
X70993000Y-103632000D02*
X70993000Y-104267000D01*
X64643000Y-104267000D02*
X72263000Y-104267000D01*
X70993000Y-103632000D02*
X65913000Y-103632000D01*
X65913000Y-103632000D02*
X65913000Y-104267000D01*
X72263000Y-104267000D02*
X72263000Y-97917000D01*
X72263000Y-97917000D02*
X64643000Y-97917000D01*
X65913000Y-103632000D02*
X65913000Y-104267000D01*
X64643000Y-104267000D02*
X64643000Y-97917000D01*
X70993000Y-110617000D02*
X70993000Y-111252000D01*
X64643000Y-111252000D02*
X72263000Y-111252000D01*
X70993000Y-110617000D02*
X65913000Y-110617000D01*
X65913000Y-110617000D02*
X65913000Y-111252000D01*
X72263000Y-111252000D02*
X72263000Y-104902000D01*
X72263000Y-104902000D02*
X64643000Y-104902000D01*
X65913000Y-110617000D02*
X65913000Y-111252000D01*
X64643000Y-111252000D02*
X64643000Y-104902000D01*
X152146000Y-55499000D02*
X151511000Y-55499000D01*
X151511000Y-55499000D02*
X151511000Y-47879000D01*
X151511000Y-47879000D02*
X152146000Y-47879000D01*
X145796000Y-46609000D02*
X145796000Y-56769000D01*
X145796000Y-56769000D02*
X152146000Y-56769000D01*
X152146000Y-56769000D02*
X152146000Y-46609000D01*
X152146000Y-46609000D02*
X145796000Y-46609000D01*
X152400000Y-82677000D02*
X151765000Y-82677000D01*
X151765000Y-82677000D02*
X151765000Y-75057000D01*
X151765000Y-75057000D02*
X152400000Y-75057000D01*
X146050000Y-73787000D02*
X146050000Y-83947000D01*
X146050000Y-83947000D02*
X152400000Y-83947000D01*
X152400000Y-83947000D02*
X152400000Y-73787000D01*
X152400000Y-73787000D02*
X146050000Y-73787000D01*
X152400000Y-104267000D02*
X151765000Y-104267000D01*
X151765000Y-104267000D02*
X151765000Y-96647000D01*
X151765000Y-96647000D02*
X152400000Y-96647000D01*
X146050000Y-95377000D02*
X146050000Y-105537000D01*
X146050000Y-105537000D02*
X152400000Y-105537000D01*
X152400000Y-105537000D02*
X152400000Y-95377000D01*
X152400000Y-95377000D02*
X146050000Y-95377000D01*
X152146000Y-66548000D02*
X151511000Y-66548000D01*
X151511000Y-66548000D02*
X151511000Y-58928000D01*
X151511000Y-58928000D02*
X152146000Y-58928000D01*
X145796000Y-57658000D02*
X145796000Y-67818000D01*
X145796000Y-67818000D02*
X152146000Y-67818000D01*
X152146000Y-67818000D02*
X152146000Y-57658000D01*
X152146000Y-57658000D02*
X145796000Y-57658000D01*
X152400000Y-93472000D02*
X151765000Y-93472000D01*
X151765000Y-93472000D02*
X151765000Y-85852000D01*
X151765000Y-85852000D02*
X152400000Y-85852000D01*
X146050000Y-84582000D02*
X146050000Y-94742000D01*
X146050000Y-94742000D02*
X152400000Y-94742000D01*
X152400000Y-94742000D02*
X152400000Y-84582000D01*
X152400000Y-84582000D02*
X146050000Y-84582000D01*
D11*
X102563000Y-41497000D02*
X143563000Y-41497000D01*
X143563000Y-32097000D02*
X102563000Y-32097000D01*
X102563000Y-32097000D02*
X102563000Y-41497000D01*
X143563000Y-32097000D02*
X143563000Y-41497000D01*
D12*
X125363000Y-32097000D02*
X125363000Y-41497000D01*
X120763000Y-32097000D02*
X120763000Y-41497000D01*
D11*
X93345000Y-96771460D02*
X121031000Y-96771460D01*
X121031000Y-105407460D02*
X93472000Y-105407460D01*
X109728000Y-96898460D02*
X109728000Y-97660460D01*
X109728000Y-97660460D02*
X119888000Y-97660460D01*
X119888000Y-97660460D02*
X119888000Y-104772460D01*
X119888000Y-104772460D02*
X94488000Y-104772460D01*
X94488000Y-104772460D02*
X94488000Y-97660460D01*
X94488000Y-97660460D02*
X104648000Y-97660460D01*
X104648000Y-97660460D02*
X104648000Y-96898460D01*
X120904000Y-96771460D02*
X120904000Y-105407460D01*
X93345000Y-105534460D02*
X93345000Y-96898460D01*
X95504000Y-100711000D02*
X96774000Y-99949000D01*
X95504000Y-99187000D02*
X95504000Y-100711000D01*
X96774000Y-99949000D02*
X95504000Y-99187000D01*
X121031000Y-59690000D02*
X121031000Y-68326000D01*
X93472000Y-68453000D02*
X93472000Y-59817000D01*
X109728000Y-67564000D02*
X109728000Y-68326000D01*
X119888000Y-67564000D02*
X109728000Y-67564000D01*
X119888000Y-60452000D02*
X119888000Y-67564000D01*
X94488000Y-60452000D02*
X119888000Y-60452000D01*
X94488000Y-67564000D02*
X94488000Y-60452000D01*
X104648000Y-67564000D02*
X94488000Y-67564000D01*
X104648000Y-68326000D02*
X104648000Y-67564000D01*
X93345000Y-59817000D02*
X120904000Y-59817000D01*
X121031000Y-68326000D02*
X93345000Y-68326000D01*
X117856000Y-96393000D02*
X117856000Y-68707000D01*
X126365000Y-68707000D02*
X126365000Y-96266000D01*
X117856000Y-80010000D02*
X118618000Y-80010000D01*
X118618000Y-80010000D02*
X118618000Y-69850000D01*
X118618000Y-69850000D02*
X125730000Y-69850000D01*
X125730000Y-69850000D02*
X125730000Y-95250000D01*
X125730000Y-95250000D02*
X118618000Y-95250000D01*
X118618000Y-95250000D02*
X118618000Y-85090000D01*
X118618000Y-85090000D02*
X117856000Y-85090000D01*
X117729000Y-68834000D02*
X126365000Y-68834000D01*
X126492000Y-96393000D02*
X117856000Y-96393000D01*
X84455000Y-96393000D02*
X93091000Y-96393000D01*
X93218000Y-68834000D02*
X84582000Y-68834000D01*
X92329000Y-85090000D02*
X93091000Y-85090000D01*
X92329000Y-95250000D02*
X92329000Y-85090000D01*
X85217000Y-95250000D02*
X92329000Y-95250000D01*
X85217000Y-69850000D02*
X85217000Y-95250000D01*
X92329000Y-69850000D02*
X85217000Y-69850000D01*
X92329000Y-80010000D02*
X92329000Y-69850000D01*
X93091000Y-80010000D02*
X92329000Y-80010000D01*
X84582000Y-68707000D02*
X84582000Y-96266000D01*
X93091000Y-96393000D02*
X93091000Y-68707000D01*
D14*
X139573000Y-67564000D02*
G75*
G03X139573000Y-67564000I-254000J0D01*
G01*
X141859000Y-68072000D02*
X138811000Y-68072000D01*
X138811000Y-68072000D02*
X138811000Y-65024000D01*
X138811000Y-65024000D02*
X141859000Y-65024000D01*
X141859000Y-65024000D02*
X141859000Y-68072000D01*
D13*
X121539000Y-107950000D02*
X121539000Y-123825000D01*
X121539000Y-123825000D02*
X107569000Y-123825000D01*
X107569000Y-123825000D02*
X107569000Y-107950000D01*
X107569000Y-107950000D02*
X121539000Y-107950000D01*
D10*
X98552000Y-119634000D02*
X98552000Y-128270000D01*
X98552000Y-128270000D02*
X78232000Y-128270000D01*
X78232000Y-128270000D02*
X78232000Y-119634000D01*
X98552000Y-119634000D02*
X78232000Y-119634000D01*
D11*
X79502000Y-127508000D02*
X78740000Y-126238000D01*
X78740000Y-126238000D02*
X80264000Y-126238000D01*
X80264000Y-126238000D02*
X79502000Y-127508000D01*
D10*
X138684000Y-119634000D02*
X125984000Y-119634000D01*
X138684000Y-128270000D02*
X125984000Y-128270000D01*
X138684000Y-119634000D02*
X138684000Y-128270000D01*
X125984000Y-128270000D02*
X125984000Y-119634000D01*
D11*
X127254000Y-127508000D02*
X126492000Y-126238000D01*
X126492000Y-126238000D02*
X128016000Y-126238000D01*
X128016000Y-126238000D02*
X127254000Y-127508000D01*
D13*
X104267000Y-111442500D02*
X101219000Y-111442500D01*
X101219000Y-111442500D02*
X101219000Y-118046500D01*
X101219000Y-118046500D02*
X104267000Y-118046500D01*
X104267000Y-118046500D02*
X104267000Y-111442500D01*
D10*
X97409000Y-111125000D02*
X97409000Y-109601000D01*
X97282000Y-109220000D02*
X97282000Y-111506000D01*
X97155000Y-111760000D02*
X97155000Y-108966000D01*
X97028000Y-108712000D02*
X97028000Y-112014000D01*
X96901000Y-112141000D02*
X96901000Y-108585000D01*
X97790000Y-113665000D02*
X97790000Y-107061000D01*
X97790000Y-107061000D02*
X91948000Y-107061000D01*
X91948000Y-107061000D02*
X91186000Y-107823000D01*
X91186000Y-107823000D02*
X91186000Y-112903000D01*
X91186000Y-112903000D02*
X91948000Y-113665000D01*
X91948000Y-113665000D02*
X97790000Y-113665000D01*
X92329000Y-110363000D02*
X93091000Y-110363000D01*
X92710000Y-110744000D02*
X92710000Y-109982000D01*
X97536000Y-110363000D02*
G75*
G03X97536000Y-110363000I-3048000J0D01*
G01*
X95250000Y-49657000D02*
X93726000Y-49657000D01*
X93345000Y-49784000D02*
X95631000Y-49784000D01*
X95885000Y-49911000D02*
X93091000Y-49911000D01*
X92837000Y-50038000D02*
X96139000Y-50038000D01*
X96266000Y-50165000D02*
X92710000Y-50165000D01*
X97790000Y-49276000D02*
X91186000Y-49276000D01*
X91186000Y-49276000D02*
X91186000Y-55118000D01*
X91186000Y-55118000D02*
X91948000Y-55880000D01*
X91948000Y-55880000D02*
X97028000Y-55880000D01*
X97028000Y-55880000D02*
X97790000Y-55118000D01*
X97790000Y-55118000D02*
X97790000Y-49276000D01*
X94488000Y-54737000D02*
X94488000Y-53975000D01*
X94869000Y-54356000D02*
X94107000Y-54356000D01*
X97536000Y-52578000D02*
G75*
G03X97536000Y-52578000I-3048000J0D01*
G01*
X102108000Y-47879000D02*
X100584000Y-47879000D01*
X100203000Y-48006000D02*
X102489000Y-48006000D01*
X102743000Y-48133000D02*
X99949000Y-48133000D01*
X99695000Y-48260000D02*
X102997000Y-48260000D01*
X103124000Y-48387000D02*
X99568000Y-48387000D01*
X104648000Y-47498000D02*
X98044000Y-47498000D01*
X98044000Y-47498000D02*
X98044000Y-53340000D01*
X98044000Y-53340000D02*
X98806000Y-54102000D01*
X98806000Y-54102000D02*
X103886000Y-54102000D01*
X103886000Y-54102000D02*
X104648000Y-53340000D01*
X104648000Y-53340000D02*
X104648000Y-47498000D01*
X101346000Y-52959000D02*
X101346000Y-52197000D01*
X101727000Y-52578000D02*
X100965000Y-52578000D01*
X104394000Y-50800000D02*
G75*
G03X104394000Y-50800000I-3048000J0D01*
G01*
X108966000Y-49657000D02*
X107442000Y-49657000D01*
X107061000Y-49784000D02*
X109347000Y-49784000D01*
X109601000Y-49911000D02*
X106807000Y-49911000D01*
X106553000Y-50038000D02*
X109855000Y-50038000D01*
X109982000Y-50165000D02*
X106426000Y-50165000D01*
X111506000Y-49276000D02*
X104902000Y-49276000D01*
X104902000Y-49276000D02*
X104902000Y-55118000D01*
X104902000Y-55118000D02*
X105664000Y-55880000D01*
X105664000Y-55880000D02*
X110744000Y-55880000D01*
X110744000Y-55880000D02*
X111506000Y-55118000D01*
X111506000Y-55118000D02*
X111506000Y-49276000D01*
X108204000Y-54737000D02*
X108204000Y-53975000D01*
X108585000Y-54356000D02*
X107823000Y-54356000D01*
X111252000Y-52578000D02*
G75*
G03X111252000Y-52578000I-3048000J0D01*
G01*
X115824000Y-49657000D02*
X114300000Y-49657000D01*
X113919000Y-49784000D02*
X116205000Y-49784000D01*
X116459000Y-49911000D02*
X113665000Y-49911000D01*
X113411000Y-50038000D02*
X116713000Y-50038000D01*
X116840000Y-50165000D02*
X113284000Y-50165000D01*
X118364000Y-49276000D02*
X111760000Y-49276000D01*
X111760000Y-49276000D02*
X111760000Y-55118000D01*
X111760000Y-55118000D02*
X112522000Y-55880000D01*
X112522000Y-55880000D02*
X117602000Y-55880000D01*
X117602000Y-55880000D02*
X118364000Y-55118000D01*
X118364000Y-55118000D02*
X118364000Y-49276000D01*
X115062000Y-54737000D02*
X115062000Y-53975000D01*
X115443000Y-54356000D02*
X114681000Y-54356000D01*
X118110000Y-52578000D02*
G75*
G03X118110000Y-52578000I-3048000J0D01*
G01*
X122682000Y-49657000D02*
X121158000Y-49657000D01*
X120777000Y-49784000D02*
X123063000Y-49784000D01*
X123317000Y-49911000D02*
X120523000Y-49911000D01*
X120269000Y-50038000D02*
X123571000Y-50038000D01*
X123698000Y-50165000D02*
X120142000Y-50165000D01*
X125222000Y-49276000D02*
X118618000Y-49276000D01*
X118618000Y-49276000D02*
X118618000Y-55118000D01*
X118618000Y-55118000D02*
X119380000Y-55880000D01*
X119380000Y-55880000D02*
X124460000Y-55880000D01*
X124460000Y-55880000D02*
X125222000Y-55118000D01*
X125222000Y-55118000D02*
X125222000Y-49276000D01*
X121920000Y-54737000D02*
X121920000Y-53975000D01*
X122301000Y-54356000D02*
X121539000Y-54356000D01*
X124968000Y-52578000D02*
G75*
G03X124968000Y-52578000I-3048000J0D01*
G01*
X129540000Y-49657000D02*
X128016000Y-49657000D01*
X127635000Y-49784000D02*
X129921000Y-49784000D01*
X130175000Y-49911000D02*
X127381000Y-49911000D01*
X127127000Y-50038000D02*
X130429000Y-50038000D01*
X130556000Y-50165000D02*
X127000000Y-50165000D01*
X132080000Y-49276000D02*
X125476000Y-49276000D01*
X125476000Y-49276000D02*
X125476000Y-55118000D01*
X125476000Y-55118000D02*
X126238000Y-55880000D01*
X126238000Y-55880000D02*
X131318000Y-55880000D01*
X131318000Y-55880000D02*
X132080000Y-55118000D01*
X132080000Y-55118000D02*
X132080000Y-49276000D01*
X128778000Y-54737000D02*
X128778000Y-53975000D01*
X129159000Y-54356000D02*
X128397000Y-54356000D01*
X131826000Y-52578000D02*
G75*
G03X131826000Y-52578000I-3048000J0D01*
G01*
X136398000Y-49657000D02*
X134874000Y-49657000D01*
X134493000Y-49784000D02*
X136779000Y-49784000D01*
X137033000Y-49911000D02*
X134239000Y-49911000D01*
X133985000Y-50038000D02*
X137287000Y-50038000D01*
X137414000Y-50165000D02*
X133858000Y-50165000D01*
X138938000Y-49276000D02*
X132334000Y-49276000D01*
X132334000Y-49276000D02*
X132334000Y-55118000D01*
X132334000Y-55118000D02*
X133096000Y-55880000D01*
X133096000Y-55880000D02*
X138176000Y-55880000D01*
X138176000Y-55880000D02*
X138938000Y-55118000D01*
X138938000Y-55118000D02*
X138938000Y-49276000D01*
X135636000Y-54737000D02*
X135636000Y-53975000D01*
X136017000Y-54356000D02*
X135255000Y-54356000D01*
X138684000Y-52578000D02*
G75*
G03X138684000Y-52578000I-3048000J0D01*
G01*
D15*
X87272905Y-31449381D02*
X87272905Y-30449381D01*
X87653858Y-30449381D01*
X87749096Y-30497000D01*
X87796715Y-30544619D01*
X87844334Y-30639857D01*
X87844334Y-30782714D01*
X87796715Y-30877952D01*
X87749096Y-30925571D01*
X87653858Y-30973190D01*
X87272905Y-30973190D01*
X88225286Y-30544619D02*
X88272905Y-30497000D01*
X88368143Y-30449381D01*
X88606239Y-30449381D01*
X88701477Y-30497000D01*
X88749096Y-30544619D01*
X88796715Y-30639857D01*
X88796715Y-30735095D01*
X88749096Y-30877952D01*
X88177667Y-31449381D01*
X88796715Y-31449381D01*
D11*
X145977428Y-40567429D02*
X145977428Y-39043429D01*
X146848285Y-40567429D02*
X146195142Y-39696571D01*
X146848285Y-39043429D02*
X145977428Y-39914286D01*
X148299714Y-40567429D02*
X147428857Y-40567429D01*
X147864285Y-40567429D02*
X147864285Y-39043429D01*
X147719142Y-39261143D01*
X147574000Y-39406286D01*
X147428857Y-39478857D01*
X149243143Y-39043429D02*
X149388286Y-39043429D01*
X149533429Y-39116000D01*
X149606000Y-39188571D01*
X149678571Y-39333714D01*
X149751143Y-39624000D01*
X149751143Y-39986857D01*
X149678571Y-40277143D01*
X149606000Y-40422286D01*
X149533429Y-40494857D01*
X149388286Y-40567429D01*
X149243143Y-40567429D01*
X149098000Y-40494857D01*
X149025429Y-40422286D01*
X148952857Y-40277143D01*
X148880286Y-39986857D01*
X148880286Y-39624000D01*
X148952857Y-39333714D01*
X149025429Y-39188571D01*
X149098000Y-39116000D01*
X149243143Y-39043429D01*
X142748001Y-33437286D02*
X142675430Y-33509857D01*
X142457716Y-33582429D01*
X142312573Y-33582429D01*
X142094858Y-33509857D01*
X141949716Y-33364714D01*
X141877144Y-33219571D01*
X141804573Y-32929286D01*
X141804573Y-32711571D01*
X141877144Y-32421286D01*
X141949716Y-32276143D01*
X142094858Y-32131000D01*
X142312573Y-32058429D01*
X142457716Y-32058429D01*
X142675430Y-32131000D01*
X142748001Y-32203571D01*
X143691430Y-32058429D02*
X143981716Y-32058429D01*
X144126858Y-32131000D01*
X144272001Y-32276143D01*
X144344573Y-32566429D01*
X144344573Y-33074429D01*
X144272001Y-33364714D01*
X144126858Y-33509857D01*
X143981716Y-33582429D01*
X143691430Y-33582429D01*
X143546287Y-33509857D01*
X143401144Y-33364714D01*
X143328573Y-33074429D01*
X143328573Y-32566429D01*
X143401144Y-32276143D01*
X143546287Y-32131000D01*
X143691430Y-32058429D01*
X145723429Y-33582429D02*
X144997715Y-33582429D01*
X144997715Y-32058429D01*
X146521715Y-32058429D02*
X146812001Y-32058429D01*
X146957143Y-32131000D01*
X147102286Y-32276143D01*
X147174858Y-32566429D01*
X147174858Y-33074429D01*
X147102286Y-33364714D01*
X146957143Y-33509857D01*
X146812001Y-33582429D01*
X146521715Y-33582429D01*
X146376572Y-33509857D01*
X146231429Y-33364714D01*
X146158858Y-33074429D01*
X146158858Y-32566429D01*
X146231429Y-32276143D01*
X146376572Y-32131000D01*
X146521715Y-32058429D01*
X147828000Y-33582429D02*
X147828000Y-32058429D01*
X148698857Y-33582429D01*
X148698857Y-32058429D01*
X149424571Y-32784143D02*
X149932571Y-32784143D01*
X150150285Y-33582429D02*
X149424571Y-33582429D01*
X149424571Y-32058429D01*
X150150285Y-32058429D01*
X150585714Y-32058429D02*
X151456571Y-32058429D01*
X151021142Y-33582429D02*
X151021142Y-32058429D01*
X151746857Y-32058429D02*
X152617714Y-32058429D01*
X152182285Y-33582429D02*
X152182285Y-32058429D01*
X153125714Y-32784143D02*
X153633714Y-32784143D01*
X153851428Y-33582429D02*
X153125714Y-33582429D01*
X153125714Y-32058429D01*
X153851428Y-32058429D01*
X67110428Y-119561429D02*
X67110428Y-118037429D01*
X67981285Y-119561429D02*
X67328142Y-118690571D01*
X67981285Y-118037429D02*
X67110428Y-118908286D01*
X69432714Y-119561429D02*
X68561857Y-119561429D01*
X68997285Y-119561429D02*
X68997285Y-118037429D01*
X68852142Y-118255143D01*
X68707000Y-118400286D01*
X68561857Y-118472857D01*
X70884143Y-119561429D02*
X70013286Y-119561429D01*
X70448714Y-119561429D02*
X70448714Y-118037429D01*
X70303571Y-118255143D01*
X70158429Y-118400286D01*
X70013286Y-118472857D01*
X63881001Y-112431286D02*
X63808430Y-112503857D01*
X63590716Y-112576429D01*
X63445573Y-112576429D01*
X63227858Y-112503857D01*
X63082716Y-112358714D01*
X63010144Y-112213571D01*
X62937573Y-111923286D01*
X62937573Y-111705571D01*
X63010144Y-111415286D01*
X63082716Y-111270143D01*
X63227858Y-111125000D01*
X63445573Y-111052429D01*
X63590716Y-111052429D01*
X63808430Y-111125000D01*
X63881001Y-111197571D01*
X64824430Y-111052429D02*
X65114716Y-111052429D01*
X65259858Y-111125000D01*
X65405001Y-111270143D01*
X65477573Y-111560429D01*
X65477573Y-112068429D01*
X65405001Y-112358714D01*
X65259858Y-112503857D01*
X65114716Y-112576429D01*
X64824430Y-112576429D01*
X64679287Y-112503857D01*
X64534144Y-112358714D01*
X64461573Y-112068429D01*
X64461573Y-111560429D01*
X64534144Y-111270143D01*
X64679287Y-111125000D01*
X64824430Y-111052429D01*
X66856429Y-112576429D02*
X66130715Y-112576429D01*
X66130715Y-111052429D01*
X67654715Y-111052429D02*
X67945001Y-111052429D01*
X68090143Y-111125000D01*
X68235286Y-111270143D01*
X68307858Y-111560429D01*
X68307858Y-112068429D01*
X68235286Y-112358714D01*
X68090143Y-112503857D01*
X67945001Y-112576429D01*
X67654715Y-112576429D01*
X67509572Y-112503857D01*
X67364429Y-112358714D01*
X67291858Y-112068429D01*
X67291858Y-111560429D01*
X67364429Y-111270143D01*
X67509572Y-111125000D01*
X67654715Y-111052429D01*
X68961000Y-112576429D02*
X68961000Y-111052429D01*
X69831857Y-112576429D01*
X69831857Y-111052429D01*
X70557571Y-111778143D02*
X71065571Y-111778143D01*
X71283285Y-112576429D02*
X70557571Y-112576429D01*
X70557571Y-111052429D01*
X71283285Y-111052429D01*
X71718714Y-111052429D02*
X72589571Y-111052429D01*
X72154142Y-112576429D02*
X72154142Y-111052429D01*
X72879857Y-111052429D02*
X73750714Y-111052429D01*
X73315285Y-112576429D02*
X73315285Y-111052429D01*
X74258714Y-111778143D02*
X74766714Y-111778143D01*
X74984428Y-112576429D02*
X74258714Y-112576429D01*
X74258714Y-111052429D01*
X74984428Y-111052429D01*
X146104428Y-119561429D02*
X146104428Y-118037429D01*
X146975285Y-119561429D02*
X146322142Y-118690571D01*
X146975285Y-118037429D02*
X146104428Y-118908286D01*
X148426714Y-119561429D02*
X147555857Y-119561429D01*
X147991285Y-119561429D02*
X147991285Y-118037429D01*
X147846142Y-118255143D01*
X147701000Y-118400286D01*
X147555857Y-118472857D01*
X149007286Y-118182571D02*
X149079857Y-118110000D01*
X149225000Y-118037429D01*
X149587857Y-118037429D01*
X149733000Y-118110000D01*
X149805571Y-118182571D01*
X149878143Y-118327714D01*
X149878143Y-118472857D01*
X149805571Y-118690571D01*
X148934714Y-119561429D01*
X149878143Y-119561429D01*
X142875001Y-112431286D02*
X142802430Y-112503857D01*
X142584716Y-112576429D01*
X142439573Y-112576429D01*
X142221858Y-112503857D01*
X142076716Y-112358714D01*
X142004144Y-112213571D01*
X141931573Y-111923286D01*
X141931573Y-111705571D01*
X142004144Y-111415286D01*
X142076716Y-111270143D01*
X142221858Y-111125000D01*
X142439573Y-111052429D01*
X142584716Y-111052429D01*
X142802430Y-111125000D01*
X142875001Y-111197571D01*
X143818430Y-111052429D02*
X144108716Y-111052429D01*
X144253858Y-111125000D01*
X144399001Y-111270143D01*
X144471573Y-111560429D01*
X144471573Y-112068429D01*
X144399001Y-112358714D01*
X144253858Y-112503857D01*
X144108716Y-112576429D01*
X143818430Y-112576429D01*
X143673287Y-112503857D01*
X143528144Y-112358714D01*
X143455573Y-112068429D01*
X143455573Y-111560429D01*
X143528144Y-111270143D01*
X143673287Y-111125000D01*
X143818430Y-111052429D01*
X145850429Y-112576429D02*
X145124715Y-112576429D01*
X145124715Y-111052429D01*
X146648715Y-111052429D02*
X146939001Y-111052429D01*
X147084143Y-111125000D01*
X147229286Y-111270143D01*
X147301858Y-111560429D01*
X147301858Y-112068429D01*
X147229286Y-112358714D01*
X147084143Y-112503857D01*
X146939001Y-112576429D01*
X146648715Y-112576429D01*
X146503572Y-112503857D01*
X146358429Y-112358714D01*
X146285858Y-112068429D01*
X146285858Y-111560429D01*
X146358429Y-111270143D01*
X146503572Y-111125000D01*
X146648715Y-111052429D01*
X147955000Y-112576429D02*
X147955000Y-111052429D01*
X148825857Y-112576429D01*
X148825857Y-111052429D01*
X149551571Y-111778143D02*
X150059571Y-111778143D01*
X150277285Y-112576429D02*
X149551571Y-112576429D01*
X149551571Y-111052429D01*
X150277285Y-111052429D01*
X150712714Y-111052429D02*
X151583571Y-111052429D01*
X151148142Y-112576429D02*
X151148142Y-111052429D01*
X151873857Y-111052429D02*
X152744714Y-111052429D01*
X152309285Y-112576429D02*
X152309285Y-111052429D01*
X153252714Y-111778143D02*
X153760714Y-111778143D01*
X153978428Y-112576429D02*
X153252714Y-112576429D01*
X153252714Y-111052429D01*
X153978428Y-111052429D01*
X67110428Y-40567429D02*
X67110428Y-39043429D01*
X67981285Y-40567429D02*
X67328142Y-39696571D01*
X67981285Y-39043429D02*
X67110428Y-39914286D01*
X69432714Y-40567429D02*
X68561857Y-40567429D01*
X68997285Y-40567429D02*
X68997285Y-39043429D01*
X68852142Y-39261143D01*
X68707000Y-39406286D01*
X68561857Y-39478857D01*
X69940714Y-39043429D02*
X70884143Y-39043429D01*
X70376143Y-39624000D01*
X70593857Y-39624000D01*
X70739000Y-39696571D01*
X70811571Y-39769143D01*
X70884143Y-39914286D01*
X70884143Y-40277143D01*
X70811571Y-40422286D01*
X70739000Y-40494857D01*
X70593857Y-40567429D01*
X70158429Y-40567429D01*
X70013286Y-40494857D01*
X69940714Y-40422286D01*
X63881001Y-33437286D02*
X63808430Y-33509857D01*
X63590716Y-33582429D01*
X63445573Y-33582429D01*
X63227858Y-33509857D01*
X63082716Y-33364714D01*
X63010144Y-33219571D01*
X62937573Y-32929286D01*
X62937573Y-32711571D01*
X63010144Y-32421286D01*
X63082716Y-32276143D01*
X63227858Y-32131000D01*
X63445573Y-32058429D01*
X63590716Y-32058429D01*
X63808430Y-32131000D01*
X63881001Y-32203571D01*
X64824430Y-32058429D02*
X65114716Y-32058429D01*
X65259858Y-32131000D01*
X65405001Y-32276143D01*
X65477573Y-32566429D01*
X65477573Y-33074429D01*
X65405001Y-33364714D01*
X65259858Y-33509857D01*
X65114716Y-33582429D01*
X64824430Y-33582429D01*
X64679287Y-33509857D01*
X64534144Y-33364714D01*
X64461573Y-33074429D01*
X64461573Y-32566429D01*
X64534144Y-32276143D01*
X64679287Y-32131000D01*
X64824430Y-32058429D01*
X66856429Y-33582429D02*
X66130715Y-33582429D01*
X66130715Y-32058429D01*
X67654715Y-32058429D02*
X67945001Y-32058429D01*
X68090143Y-32131000D01*
X68235286Y-32276143D01*
X68307858Y-32566429D01*
X68307858Y-33074429D01*
X68235286Y-33364714D01*
X68090143Y-33509857D01*
X67945001Y-33582429D01*
X67654715Y-33582429D01*
X67509572Y-33509857D01*
X67364429Y-33364714D01*
X67291858Y-33074429D01*
X67291858Y-32566429D01*
X67364429Y-32276143D01*
X67509572Y-32131000D01*
X67654715Y-32058429D01*
X68961000Y-33582429D02*
X68961000Y-32058429D01*
X69831857Y-33582429D01*
X69831857Y-32058429D01*
X70557571Y-32784143D02*
X71065571Y-32784143D01*
X71283285Y-33582429D02*
X70557571Y-33582429D01*
X70557571Y-32058429D01*
X71283285Y-32058429D01*
X71718714Y-32058429D02*
X72589571Y-32058429D01*
X72154142Y-33582429D02*
X72154142Y-32058429D01*
X72879857Y-32058429D02*
X73750714Y-32058429D01*
X73315285Y-33582429D02*
X73315285Y-32058429D01*
X74258714Y-32784143D02*
X74766714Y-32784143D01*
X74984428Y-33582429D02*
X74258714Y-33582429D01*
X74258714Y-32058429D01*
X74984428Y-32058429D01*
D16*
X68158602Y-58823800D02*
X68158602Y-57088980D01*
X68779814Y-58823800D02*
X68313905Y-57832474D01*
X68779814Y-57088980D02*
X68158602Y-58080305D01*
X69815166Y-58823800D02*
X69193954Y-58823800D01*
X69504560Y-58823800D02*
X69504560Y-57088980D01*
X69401025Y-57336811D01*
X69297490Y-57502032D01*
X69193954Y-57584642D01*
X68158602Y-65681800D02*
X68158602Y-63946980D01*
X68779814Y-65681800D02*
X68313905Y-64690474D01*
X68779814Y-63946980D02*
X68158602Y-64938305D01*
X69193954Y-64112200D02*
X69245722Y-64029590D01*
X69349257Y-63946980D01*
X69608095Y-63946980D01*
X69711631Y-64029590D01*
X69763398Y-64112200D01*
X69815166Y-64277421D01*
X69815166Y-64442642D01*
X69763398Y-64690474D01*
X69142187Y-65681800D01*
X69815166Y-65681800D01*
X68285602Y-72666800D02*
X68285602Y-70931980D01*
X68906814Y-72666800D02*
X68440905Y-71675474D01*
X68906814Y-70931980D02*
X68285602Y-71923305D01*
X69269187Y-70931980D02*
X69942166Y-70931980D01*
X69579793Y-71592863D01*
X69735095Y-71592863D01*
X69838631Y-71675474D01*
X69890398Y-71758084D01*
X69942166Y-71923305D01*
X69942166Y-72336358D01*
X69890398Y-72501579D01*
X69838631Y-72584189D01*
X69735095Y-72666800D01*
X69424490Y-72666800D01*
X69320954Y-72584189D01*
X69269187Y-72501579D01*
X68158602Y-79651800D02*
X68158602Y-77916980D01*
X68779814Y-79651800D02*
X68313905Y-78660474D01*
X68779814Y-77916980D02*
X68158602Y-78908305D01*
X69711631Y-78495253D02*
X69711631Y-79651800D01*
X69452793Y-77834369D02*
X69193954Y-79073526D01*
X69866934Y-79073526D01*
X68158602Y-86636800D02*
X68158602Y-84901980D01*
X68779814Y-86636800D02*
X68313905Y-85645474D01*
X68779814Y-84901980D02*
X68158602Y-85893305D01*
X69763398Y-84901980D02*
X69245722Y-84901980D01*
X69193954Y-85728084D01*
X69245722Y-85645474D01*
X69349257Y-85562863D01*
X69608095Y-85562863D01*
X69711631Y-85645474D01*
X69763398Y-85728084D01*
X69815166Y-85893305D01*
X69815166Y-86306358D01*
X69763398Y-86471579D01*
X69711631Y-86554189D01*
X69608095Y-86636800D01*
X69349257Y-86636800D01*
X69245722Y-86554189D01*
X69193954Y-86471579D01*
X68158602Y-93494800D02*
X68158602Y-91759980D01*
X68779814Y-93494800D02*
X68313905Y-92503474D01*
X68779814Y-91759980D02*
X68158602Y-92751305D01*
X69711631Y-91759980D02*
X69504560Y-91759980D01*
X69401025Y-91842590D01*
X69349257Y-91925200D01*
X69245722Y-92173032D01*
X69193954Y-92503474D01*
X69193954Y-93164358D01*
X69245722Y-93329579D01*
X69297490Y-93412189D01*
X69401025Y-93494800D01*
X69608095Y-93494800D01*
X69711631Y-93412189D01*
X69763398Y-93329579D01*
X69815166Y-93164358D01*
X69815166Y-92751305D01*
X69763398Y-92586084D01*
X69711631Y-92503474D01*
X69608095Y-92420863D01*
X69401025Y-92420863D01*
X69297490Y-92503474D01*
X69245722Y-92586084D01*
X69193954Y-92751305D01*
X68031602Y-100352800D02*
X68031602Y-98617980D01*
X68652814Y-100352800D02*
X68186905Y-99361474D01*
X68652814Y-98617980D02*
X68031602Y-99609305D01*
X69015187Y-98617980D02*
X69739934Y-98617980D01*
X69274025Y-100352800D01*
X68031602Y-107337800D02*
X68031602Y-105602980D01*
X68652814Y-107337800D02*
X68186905Y-106346474D01*
X68652814Y-105602980D02*
X68031602Y-106594305D01*
X69274025Y-106346474D02*
X69170490Y-106263863D01*
X69118722Y-106181253D01*
X69066954Y-106016032D01*
X69066954Y-105933421D01*
X69118722Y-105768200D01*
X69170490Y-105685590D01*
X69274025Y-105602980D01*
X69481095Y-105602980D01*
X69584631Y-105685590D01*
X69636398Y-105768200D01*
X69688166Y-105933421D01*
X69688166Y-106016032D01*
X69636398Y-106181253D01*
X69584631Y-106263863D01*
X69481095Y-106346474D01*
X69274025Y-106346474D01*
X69170490Y-106429084D01*
X69118722Y-106511695D01*
X69066954Y-106676916D01*
X69066954Y-107007358D01*
X69118722Y-107172579D01*
X69170490Y-107255189D01*
X69274025Y-107337800D01*
X69481095Y-107337800D01*
X69584631Y-107255189D01*
X69636398Y-107172579D01*
X69688166Y-107007358D01*
X69688166Y-106676916D01*
X69636398Y-106511695D01*
X69584631Y-106429084D01*
X69481095Y-106346474D01*
X68031602Y-114322800D02*
X68031602Y-112587980D01*
X68652814Y-114322800D02*
X68186905Y-113331474D01*
X68652814Y-112587980D02*
X68031602Y-113579305D01*
X69170490Y-114322800D02*
X69377560Y-114322800D01*
X69481095Y-114240189D01*
X69532863Y-114157579D01*
X69636398Y-113909747D01*
X69688166Y-113579305D01*
X69688166Y-112918421D01*
X69636398Y-112753200D01*
X69584631Y-112670590D01*
X69481095Y-112587980D01*
X69274025Y-112587980D01*
X69170490Y-112670590D01*
X69118722Y-112753200D01*
X69066954Y-112918421D01*
X69066954Y-113331474D01*
X69118722Y-113496695D01*
X69170490Y-113579305D01*
X69274025Y-113661916D01*
X69481095Y-113661916D01*
X69584631Y-113579305D01*
X69636398Y-113496695D01*
X69688166Y-113331474D01*
X157375800Y-47411398D02*
X155640980Y-47411398D01*
X155640980Y-46997257D01*
X155723590Y-46893722D01*
X155806200Y-46841954D01*
X155971421Y-46790186D01*
X156219253Y-46790186D01*
X156384474Y-46841954D01*
X156467084Y-46893722D01*
X156549695Y-46997257D01*
X156549695Y-47411398D01*
X156384474Y-46168975D02*
X156301863Y-46272510D01*
X156219253Y-46324278D01*
X156054032Y-46376046D01*
X155971421Y-46376046D01*
X155806200Y-46324278D01*
X155723590Y-46272510D01*
X155640980Y-46168975D01*
X155640980Y-45961905D01*
X155723590Y-45858369D01*
X155806200Y-45806602D01*
X155971421Y-45754834D01*
X156054032Y-45754834D01*
X156219253Y-45806602D01*
X156301863Y-45858369D01*
X156384474Y-45961905D01*
X156384474Y-46168975D01*
X156467084Y-46272510D01*
X156549695Y-46324278D01*
X156714916Y-46376046D01*
X157045358Y-46376046D01*
X157210579Y-46324278D01*
X157293189Y-46272510D01*
X157375800Y-46168975D01*
X157375800Y-45961905D01*
X157293189Y-45858369D01*
X157210579Y-45806602D01*
X157045358Y-45754834D01*
X156714916Y-45754834D01*
X156549695Y-45806602D01*
X156467084Y-45858369D01*
X156384474Y-45961905D01*
X157629800Y-74589398D02*
X155894980Y-74589398D01*
X155894980Y-74175257D01*
X155977590Y-74071722D01*
X156060200Y-74019954D01*
X156225421Y-73968186D01*
X156473253Y-73968186D01*
X156638474Y-74019954D01*
X156721084Y-74071722D01*
X156803695Y-74175257D01*
X156803695Y-74589398D01*
X155894980Y-72984602D02*
X155894980Y-73502278D01*
X156721084Y-73554046D01*
X156638474Y-73502278D01*
X156555863Y-73398743D01*
X156555863Y-73139905D01*
X156638474Y-73036369D01*
X156721084Y-72984602D01*
X156886305Y-72932834D01*
X157299358Y-72932834D01*
X157464579Y-72984602D01*
X157547189Y-73036369D01*
X157629800Y-73139905D01*
X157629800Y-73398743D01*
X157547189Y-73502278D01*
X157464579Y-73554046D01*
X157629800Y-96179398D02*
X155894980Y-96179398D01*
X155894980Y-95765257D01*
X155977590Y-95661722D01*
X156060200Y-95609954D01*
X156225421Y-95558186D01*
X156473253Y-95558186D01*
X156638474Y-95609954D01*
X156721084Y-95661722D01*
X156803695Y-95765257D01*
X156803695Y-96179398D01*
X155894980Y-95195813D02*
X155894980Y-94471066D01*
X157629800Y-94936975D01*
X157375800Y-58460398D02*
X155640980Y-58460398D01*
X155640980Y-58046257D01*
X155723590Y-57942722D01*
X155806200Y-57890954D01*
X155971421Y-57839186D01*
X156219253Y-57839186D01*
X156384474Y-57890954D01*
X156467084Y-57942722D01*
X156549695Y-58046257D01*
X156549695Y-58460398D01*
X157375800Y-57321510D02*
X157375800Y-57114440D01*
X157293189Y-57010905D01*
X157210579Y-56959137D01*
X156962747Y-56855602D01*
X156632305Y-56803834D01*
X155971421Y-56803834D01*
X155806200Y-56855602D01*
X155723590Y-56907369D01*
X155640980Y-57010905D01*
X155640980Y-57217975D01*
X155723590Y-57321510D01*
X155806200Y-57373278D01*
X155971421Y-57425046D01*
X156384474Y-57425046D01*
X156549695Y-57373278D01*
X156632305Y-57321510D01*
X156714916Y-57217975D01*
X156714916Y-57010905D01*
X156632305Y-56907369D01*
X156549695Y-56855602D01*
X156384474Y-56803834D01*
X157629800Y-85384398D02*
X155894980Y-85384398D01*
X155894980Y-84970257D01*
X155977590Y-84866722D01*
X156060200Y-84814954D01*
X156225421Y-84763186D01*
X156473253Y-84763186D01*
X156638474Y-84814954D01*
X156721084Y-84866722D01*
X156803695Y-84970257D01*
X156803695Y-85384398D01*
X155894980Y-83831369D02*
X155894980Y-84038440D01*
X155977590Y-84141975D01*
X156060200Y-84193743D01*
X156308032Y-84297278D01*
X156638474Y-84349046D01*
X157299358Y-84349046D01*
X157464579Y-84297278D01*
X157547189Y-84245510D01*
X157629800Y-84141975D01*
X157629800Y-83934905D01*
X157547189Y-83831369D01*
X157464579Y-83779602D01*
X157299358Y-83727834D01*
X156886305Y-83727834D01*
X156721084Y-83779602D01*
X156638474Y-83831369D01*
X156555863Y-83934905D01*
X156555863Y-84141975D01*
X156638474Y-84245510D01*
X156721084Y-84297278D01*
X156886305Y-84349046D01*
D15*
X122324905Y-31449381D02*
X122324905Y-30449381D01*
X122705858Y-30449381D01*
X122801096Y-30497000D01*
X122848715Y-30544619D01*
X122896334Y-30639857D01*
X122896334Y-30782714D01*
X122848715Y-30877952D01*
X122801096Y-30925571D01*
X122705858Y-30973190D01*
X122324905Y-30973190D01*
X123229667Y-30449381D02*
X123848715Y-30449381D01*
X123515381Y-30830333D01*
X123658239Y-30830333D01*
X123753477Y-30877952D01*
X123801096Y-30925571D01*
X123848715Y-31020810D01*
X123848715Y-31258905D01*
X123801096Y-31354143D01*
X123753477Y-31401762D01*
X123658239Y-31449381D01*
X123372524Y-31449381D01*
X123277286Y-31401762D01*
X123229667Y-31354143D01*
D11*
X91355333Y-95419333D02*
X91355333Y-96858667D01*
X91440000Y-97028000D01*
X91524667Y-97112667D01*
X91694000Y-97197333D01*
X92032667Y-97197333D01*
X92202000Y-97112667D01*
X92286667Y-97028000D01*
X92371333Y-96858667D01*
X92371333Y-95419333D01*
X94149334Y-97197333D02*
X93133334Y-97197333D01*
X93641334Y-97197333D02*
X93641334Y-95419333D01*
X93472000Y-95673333D01*
X93302667Y-95842667D01*
X93133334Y-95927333D01*
X98890668Y-109389333D02*
X98890668Y-107611333D01*
X99568002Y-107611333D01*
X99737335Y-107696000D01*
X99822002Y-107780667D01*
X99906668Y-107950000D01*
X99906668Y-108204000D01*
X99822002Y-108373333D01*
X99737335Y-108458000D01*
X99568002Y-108542667D01*
X98890668Y-108542667D01*
X100668668Y-109389333D02*
X100668668Y-107611333D01*
X102531335Y-109220000D02*
X102446669Y-109304667D01*
X102192669Y-109389333D01*
X102023335Y-109389333D01*
X101769335Y-109304667D01*
X101600002Y-109135333D01*
X101515335Y-108966000D01*
X101430669Y-108627333D01*
X101430669Y-108373333D01*
X101515335Y-108034667D01*
X101600002Y-107865333D01*
X101769335Y-107696000D01*
X102023335Y-107611333D01*
X102192669Y-107611333D01*
X102446669Y-107696000D01*
X102531335Y-107780667D01*
X103124002Y-107611333D02*
X104224669Y-107611333D01*
X103632002Y-108288667D01*
X103886002Y-108288667D01*
X104055335Y-108373333D01*
X104140002Y-108458000D01*
X104224669Y-108627333D01*
X104224669Y-109050667D01*
X104140002Y-109220000D01*
X104055335Y-109304667D01*
X103886002Y-109389333D01*
X103378002Y-109389333D01*
X103208669Y-109304667D01*
X103124002Y-109220000D01*
X104902002Y-107780667D02*
X104986668Y-107696000D01*
X105156002Y-107611333D01*
X105579335Y-107611333D01*
X105748668Y-107696000D01*
X105833335Y-107780667D01*
X105918002Y-107950000D01*
X105918002Y-108119333D01*
X105833335Y-108373333D01*
X104817335Y-109389333D01*
X105918002Y-109389333D01*
X106680001Y-109389333D02*
X106680001Y-107611333D01*
X107272668Y-108881333D01*
X107865335Y-107611333D01*
X107865335Y-109389333D01*
X108542668Y-107611333D02*
X109728001Y-109389333D01*
X109728001Y-107611333D02*
X108542668Y-109389333D01*
X110236001Y-107611333D02*
X111421334Y-107611333D01*
X110659334Y-109389333D01*
X112183334Y-109389333D02*
X112522001Y-109389333D01*
X112691334Y-109304667D01*
X112776001Y-109220000D01*
X112945334Y-108966000D01*
X113030001Y-108627333D01*
X113030001Y-107950000D01*
X112945334Y-107780667D01*
X112860667Y-107696000D01*
X112691334Y-107611333D01*
X112352667Y-107611333D01*
X112183334Y-107696000D01*
X112098667Y-107780667D01*
X112014001Y-107950000D01*
X112014001Y-108373333D01*
X112098667Y-108542667D01*
X112183334Y-108627333D01*
X112352667Y-108712000D01*
X112691334Y-108712000D01*
X112860667Y-108627333D01*
X112945334Y-108542667D01*
X113030001Y-108373333D01*
X114638667Y-107611333D02*
X113792000Y-107611333D01*
X113707334Y-108458000D01*
X113792000Y-108373333D01*
X113961334Y-108288667D01*
X114384667Y-108288667D01*
X114554000Y-108373333D01*
X114638667Y-108458000D01*
X114723334Y-108627333D01*
X114723334Y-109050667D01*
X114638667Y-109220000D01*
X114554000Y-109304667D01*
X114384667Y-109389333D01*
X113961334Y-109389333D01*
X113792000Y-109304667D01*
X113707334Y-109220000D01*
X116078000Y-108458000D02*
X115485333Y-108458000D01*
X115485333Y-109389333D02*
X115485333Y-107611333D01*
X116332000Y-107611333D01*
X117856000Y-107611333D02*
X117009333Y-107611333D01*
X116924667Y-108458000D01*
X117009333Y-108373333D01*
X117178667Y-108288667D01*
X117602000Y-108288667D01*
X117771333Y-108373333D01*
X117856000Y-108458000D01*
X117940667Y-108627333D01*
X117940667Y-109050667D01*
X117856000Y-109220000D01*
X117771333Y-109304667D01*
X117602000Y-109389333D01*
X117178667Y-109389333D01*
X117009333Y-109304667D01*
X116924667Y-109220000D01*
X119634000Y-109389333D02*
X118618000Y-109389333D01*
X119126000Y-109389333D02*
X119126000Y-107611333D01*
X118956666Y-107865333D01*
X118787333Y-108034667D01*
X118618000Y-108119333D01*
X120311333Y-107780667D02*
X120395999Y-107696000D01*
X120565333Y-107611333D01*
X120988666Y-107611333D01*
X121157999Y-107696000D01*
X121242666Y-107780667D01*
X121327333Y-107950000D01*
X121327333Y-108119333D01*
X121242666Y-108373333D01*
X120226666Y-109389333D01*
X121327333Y-109389333D01*
X122089332Y-109389333D02*
X122089332Y-107611333D01*
X122089332Y-108458000D02*
X123105332Y-108458000D01*
X123105332Y-109389333D02*
X123105332Y-107611333D01*
D14*
X139560905Y-66499619D02*
X139560905Y-67322095D01*
X139609286Y-67418857D01*
X139657667Y-67467238D01*
X139754429Y-67515619D01*
X139947952Y-67515619D01*
X140044714Y-67467238D01*
X140093095Y-67418857D01*
X140141476Y-67322095D01*
X140141476Y-66499619D01*
X140576905Y-66596381D02*
X140625286Y-66548000D01*
X140722048Y-66499619D01*
X140963952Y-66499619D01*
X141060714Y-66548000D01*
X141109095Y-66596381D01*
X141157476Y-66693143D01*
X141157476Y-66789905D01*
X141109095Y-66935048D01*
X140528524Y-67515619D01*
X141157476Y-67515619D01*
D11*
X114046000Y-107750429D02*
X114046000Y-108839000D01*
X113973428Y-109056714D01*
X113828285Y-109201857D01*
X113610571Y-109274429D01*
X113465428Y-109274429D01*
X115570000Y-109274429D02*
X114699143Y-109274429D01*
X115134571Y-109274429D02*
X115134571Y-107750429D01*
X114989428Y-107968143D01*
X114844286Y-108113286D01*
X114699143Y-108185857D01*
X112993714Y-106734429D02*
X112485714Y-106008714D01*
X112122857Y-106734429D02*
X112122857Y-105210429D01*
X112703429Y-105210429D01*
X112848571Y-105283000D01*
X112921143Y-105355571D01*
X112993714Y-105500714D01*
X112993714Y-105718429D01*
X112921143Y-105863571D01*
X112848571Y-105936143D01*
X112703429Y-106008714D01*
X112122857Y-106008714D01*
X114082286Y-105210429D02*
X114082286Y-106299000D01*
X114009714Y-106516714D01*
X113864571Y-106661857D01*
X113646857Y-106734429D01*
X113501714Y-106734429D01*
X115606286Y-106734429D02*
X114735429Y-106734429D01*
X115170857Y-106734429D02*
X115170857Y-105210429D01*
X115025714Y-105428143D01*
X114880572Y-105573286D01*
X114735429Y-105645857D01*
X116186858Y-105355571D02*
X116259429Y-105283000D01*
X116404572Y-105210429D01*
X116767429Y-105210429D01*
X116912572Y-105283000D01*
X116985143Y-105355571D01*
X117057715Y-105500714D01*
X117057715Y-105645857D01*
X116985143Y-105863571D01*
X116114286Y-106734429D01*
X117057715Y-106734429D01*
X87079667Y-124248333D02*
X87079667Y-122470333D01*
X87757001Y-122470333D01*
X87926334Y-122555000D01*
X88011001Y-122639667D01*
X88095667Y-122809000D01*
X88095667Y-123063000D01*
X88011001Y-123232333D01*
X87926334Y-123317000D01*
X87757001Y-123401667D01*
X87079667Y-123401667D01*
X89789001Y-124248333D02*
X88773001Y-124248333D01*
X89281001Y-124248333D02*
X89281001Y-122470333D01*
X89111667Y-122724333D01*
X88942334Y-122893667D01*
X88773001Y-122978333D01*
X70231000Y-111379000D02*
X70146334Y-111463667D01*
X69892334Y-111548333D01*
X69723000Y-111548333D01*
X69469000Y-111463667D01*
X69299667Y-111294333D01*
X69215000Y-111125000D01*
X69130334Y-110786333D01*
X69130334Y-110532333D01*
X69215000Y-110193667D01*
X69299667Y-110024333D01*
X69469000Y-109855000D01*
X69723000Y-109770333D01*
X69892334Y-109770333D01*
X70146334Y-109855000D01*
X70231000Y-109939667D01*
X71331667Y-109770333D02*
X71670334Y-109770333D01*
X71839667Y-109855000D01*
X72009000Y-110024333D01*
X72093667Y-110363000D01*
X72093667Y-110955667D01*
X72009000Y-111294333D01*
X71839667Y-111463667D01*
X71670334Y-111548333D01*
X71331667Y-111548333D01*
X71162334Y-111463667D01*
X70993000Y-111294333D01*
X70908334Y-110955667D01*
X70908334Y-110363000D01*
X70993000Y-110024333D01*
X71162334Y-109855000D01*
X71331667Y-109770333D01*
X72855667Y-111548333D02*
X72855667Y-109770333D01*
X73871667Y-111548333D01*
X73871667Y-109770333D01*
X74718334Y-111548333D02*
X74718334Y-109770333D01*
X75734334Y-111548333D01*
X75734334Y-109770333D01*
X76157668Y-111717667D02*
X77512335Y-111717667D01*
X78189668Y-110532333D02*
X78020335Y-110447667D01*
X77935668Y-110363000D01*
X77851002Y-110193667D01*
X77851002Y-110109000D01*
X77935668Y-109939667D01*
X78020335Y-109855000D01*
X78189668Y-109770333D01*
X78528335Y-109770333D01*
X78697668Y-109855000D01*
X78782335Y-109939667D01*
X78867002Y-110109000D01*
X78867002Y-110193667D01*
X78782335Y-110363000D01*
X78697668Y-110447667D01*
X78528335Y-110532333D01*
X78189668Y-110532333D01*
X78020335Y-110617000D01*
X77935668Y-110701667D01*
X77851002Y-110871000D01*
X77851002Y-111209667D01*
X77935668Y-111379000D01*
X78020335Y-111463667D01*
X78189668Y-111548333D01*
X78528335Y-111548333D01*
X78697668Y-111463667D01*
X78782335Y-111379000D01*
X78867002Y-111209667D01*
X78867002Y-110871000D01*
X78782335Y-110701667D01*
X78697668Y-110617000D01*
X78528335Y-110532333D01*
X79459668Y-109770333D02*
X80645001Y-111548333D01*
X80645001Y-109770333D02*
X79459668Y-111548333D01*
X81237668Y-109939667D02*
X81322334Y-109855000D01*
X81491668Y-109770333D01*
X81915001Y-109770333D01*
X82084334Y-109855000D01*
X82169001Y-109939667D01*
X82253668Y-110109000D01*
X82253668Y-110278333D01*
X82169001Y-110532333D01*
X81153001Y-111548333D01*
X82253668Y-111548333D01*
X131021667Y-124502333D02*
X131021667Y-122724333D01*
X131699001Y-122724333D01*
X131868334Y-122809000D01*
X131953001Y-122893667D01*
X132037667Y-123063000D01*
X132037667Y-123317000D01*
X131953001Y-123486333D01*
X131868334Y-123571000D01*
X131699001Y-123655667D01*
X131021667Y-123655667D01*
X133561667Y-123317000D02*
X133561667Y-124502333D01*
X133138334Y-122639667D02*
X132715001Y-123909667D01*
X133815667Y-123909667D01*
X114173000Y-111379000D02*
X114088334Y-111463667D01*
X113834334Y-111548333D01*
X113665000Y-111548333D01*
X113411000Y-111463667D01*
X113241667Y-111294333D01*
X113157000Y-111125000D01*
X113072334Y-110786333D01*
X113072334Y-110532333D01*
X113157000Y-110193667D01*
X113241667Y-110024333D01*
X113411000Y-109855000D01*
X113665000Y-109770333D01*
X113834334Y-109770333D01*
X114088334Y-109855000D01*
X114173000Y-109939667D01*
X115273667Y-109770333D02*
X115612334Y-109770333D01*
X115781667Y-109855000D01*
X115951000Y-110024333D01*
X116035667Y-110363000D01*
X116035667Y-110955667D01*
X115951000Y-111294333D01*
X115781667Y-111463667D01*
X115612334Y-111548333D01*
X115273667Y-111548333D01*
X115104334Y-111463667D01*
X114935000Y-111294333D01*
X114850334Y-110955667D01*
X114850334Y-110363000D01*
X114935000Y-110024333D01*
X115104334Y-109855000D01*
X115273667Y-109770333D01*
X116797667Y-111548333D02*
X116797667Y-109770333D01*
X117813667Y-111548333D01*
X117813667Y-109770333D01*
X118660334Y-111548333D02*
X118660334Y-109770333D01*
X119676334Y-111548333D01*
X119676334Y-109770333D01*
X120099668Y-111717667D02*
X121454335Y-111717667D01*
X122724335Y-109770333D02*
X121877668Y-109770333D01*
X121793002Y-110617000D01*
X121877668Y-110532333D01*
X122047002Y-110447667D01*
X122470335Y-110447667D01*
X122639668Y-110532333D01*
X122724335Y-110617000D01*
X122809002Y-110786333D01*
X122809002Y-111209667D01*
X122724335Y-111379000D01*
X122639668Y-111463667D01*
X122470335Y-111548333D01*
X122047002Y-111548333D01*
X121877668Y-111463667D01*
X121793002Y-111379000D01*
X123401668Y-109770333D02*
X124587001Y-111548333D01*
X124587001Y-109770333D02*
X123401668Y-111548333D01*
X125179668Y-109939667D02*
X125264334Y-109855000D01*
X125433668Y-109770333D01*
X125857001Y-109770333D01*
X126026334Y-109855000D01*
X126111001Y-109939667D01*
X126195668Y-110109000D01*
X126195668Y-110278333D01*
X126111001Y-110532333D01*
X125095001Y-111548333D01*
X126195668Y-111548333D01*
X106915857Y-114998500D02*
X106988429Y-114780786D01*
X106988429Y-114417929D01*
X106915857Y-114272786D01*
X106843286Y-114200215D01*
X106698143Y-114127643D01*
X106553000Y-114127643D01*
X106407857Y-114200215D01*
X106335286Y-114272786D01*
X106262714Y-114417929D01*
X106190143Y-114708215D01*
X106117571Y-114853357D01*
X106045000Y-114925929D01*
X105899857Y-114998500D01*
X105754714Y-114998500D01*
X105609571Y-114925929D01*
X105537000Y-114853357D01*
X105464429Y-114708215D01*
X105464429Y-114345357D01*
X105537000Y-114127643D01*
X105464429Y-113619643D02*
X106988429Y-113256786D01*
X105899857Y-112966500D01*
X106988429Y-112676214D01*
X105464429Y-112313357D01*
X106988429Y-110934500D02*
X106988429Y-111805357D01*
X106988429Y-111369929D02*
X105464429Y-111369929D01*
X105682143Y-111515072D01*
X105827286Y-111660214D01*
X105899857Y-111805357D01*
X104883857Y-123017642D02*
X104956429Y-122799928D01*
X104956429Y-122437071D01*
X104883857Y-122291928D01*
X104811286Y-122219357D01*
X104666143Y-122146785D01*
X104521000Y-122146785D01*
X104375857Y-122219357D01*
X104303286Y-122291928D01*
X104230714Y-122437071D01*
X104158143Y-122727357D01*
X104085571Y-122872499D01*
X104013000Y-122945071D01*
X103867857Y-123017642D01*
X103722714Y-123017642D01*
X103577571Y-122945071D01*
X103505000Y-122872499D01*
X103432429Y-122727357D01*
X103432429Y-122364499D01*
X103505000Y-122146785D01*
X103432429Y-121638785D02*
X104956429Y-121275928D01*
X103867857Y-120985642D01*
X104956429Y-120695356D01*
X103432429Y-120332499D01*
X105101571Y-120114785D02*
X105101571Y-118953642D01*
X104956429Y-118590785D02*
X103432429Y-118590785D01*
X103432429Y-118010213D01*
X103505000Y-117865071D01*
X103577571Y-117792499D01*
X103722714Y-117719928D01*
X103940429Y-117719928D01*
X104085571Y-117792499D01*
X104158143Y-117865071D01*
X104230714Y-118010213D01*
X104230714Y-118590785D01*
X103432429Y-117066785D02*
X104666143Y-117066785D01*
X104811286Y-116994213D01*
X104883857Y-116921642D01*
X104956429Y-116776499D01*
X104956429Y-116486213D01*
X104883857Y-116341071D01*
X104811286Y-116268499D01*
X104666143Y-116195928D01*
X103432429Y-116195928D01*
X104883857Y-115542785D02*
X104956429Y-115325071D01*
X104956429Y-114962214D01*
X104883857Y-114817071D01*
X104811286Y-114744500D01*
X104666143Y-114671928D01*
X104521000Y-114671928D01*
X104375857Y-114744500D01*
X104303286Y-114817071D01*
X104230714Y-114962214D01*
X104158143Y-115252500D01*
X104085571Y-115397642D01*
X104013000Y-115470214D01*
X103867857Y-115542785D01*
X103722714Y-115542785D01*
X103577571Y-115470214D01*
X103505000Y-115397642D01*
X103432429Y-115252500D01*
X103432429Y-114889642D01*
X103505000Y-114671928D01*
X104956429Y-114018785D02*
X103432429Y-114018785D01*
X104158143Y-114018785D02*
X104158143Y-113147928D01*
X104956429Y-113147928D02*
X103432429Y-113147928D01*
X105101571Y-112785071D02*
X105101571Y-111623928D01*
X104883857Y-111333642D02*
X104956429Y-111115928D01*
X104956429Y-110753071D01*
X104883857Y-110607928D01*
X104811286Y-110535357D01*
X104666143Y-110462785D01*
X104521000Y-110462785D01*
X104375857Y-110535357D01*
X104303286Y-110607928D01*
X104230714Y-110753071D01*
X104158143Y-111043357D01*
X104085571Y-111188499D01*
X104013000Y-111261071D01*
X103867857Y-111333642D01*
X103722714Y-111333642D01*
X103577571Y-111261071D01*
X103505000Y-111188499D01*
X103432429Y-111043357D01*
X103432429Y-110680499D01*
X103505000Y-110462785D01*
X104956429Y-109809642D02*
X103432429Y-109809642D01*
X104521000Y-109301642D01*
X103432429Y-108793642D01*
X104956429Y-108793642D01*
X104521000Y-108140499D02*
X104521000Y-107414785D01*
X104956429Y-108285642D02*
X103432429Y-107777642D01*
X104956429Y-107269642D01*
X104956429Y-106035928D02*
X104956429Y-106761642D01*
X103432429Y-106761642D01*
X104956429Y-104802214D02*
X104956429Y-105527928D01*
X103432429Y-105527928D01*
D10*
X92892762Y-115038143D02*
X92845143Y-115085762D01*
X92702286Y-115133381D01*
X92607048Y-115133381D01*
X92464190Y-115085762D01*
X92368952Y-114990524D01*
X92321333Y-114895286D01*
X92273714Y-114704810D01*
X92273714Y-114561952D01*
X92321333Y-114371476D01*
X92368952Y-114276238D01*
X92464190Y-114181000D01*
X92607048Y-114133381D01*
X92702286Y-114133381D01*
X92845143Y-114181000D01*
X92892762Y-114228619D01*
X93845143Y-115133381D02*
X93273714Y-115133381D01*
X93559428Y-115133381D02*
X93559428Y-114133381D01*
X93464190Y-114276238D01*
X93368952Y-114371476D01*
X93273714Y-114419095D01*
X94464190Y-114133381D02*
X94559429Y-114133381D01*
X94654667Y-114181000D01*
X94702286Y-114228619D01*
X94749905Y-114323857D01*
X94797524Y-114514333D01*
X94797524Y-114752429D01*
X94749905Y-114942905D01*
X94702286Y-115038143D01*
X94654667Y-115085762D01*
X94559429Y-115133381D01*
X94464190Y-115133381D01*
X94368952Y-115085762D01*
X94321333Y-115038143D01*
X94273714Y-114942905D01*
X94226095Y-114752429D01*
X94226095Y-114514333D01*
X94273714Y-114323857D01*
X94321333Y-114228619D01*
X94368952Y-114181000D01*
X94464190Y-114133381D01*
X95416571Y-114133381D02*
X95511810Y-114133381D01*
X95607048Y-114181000D01*
X95654667Y-114228619D01*
X95702286Y-114323857D01*
X95749905Y-114514333D01*
X95749905Y-114752429D01*
X95702286Y-114942905D01*
X95654667Y-115038143D01*
X95607048Y-115085762D01*
X95511810Y-115133381D01*
X95416571Y-115133381D01*
X95321333Y-115085762D01*
X95273714Y-115038143D01*
X95226095Y-114942905D01*
X95178476Y-114752429D01*
X95178476Y-114514333D01*
X95226095Y-114323857D01*
X95273714Y-114228619D01*
X95321333Y-114181000D01*
X95416571Y-114133381D01*
X96702286Y-115133381D02*
X96130857Y-115133381D01*
X96416571Y-115133381D02*
X96416571Y-114133381D01*
X96321333Y-114276238D01*
X96226095Y-114371476D01*
X96130857Y-114419095D01*
X99163143Y-54173238D02*
X99210762Y-54220857D01*
X99258381Y-54363714D01*
X99258381Y-54458952D01*
X99210762Y-54601810D01*
X99115524Y-54697048D01*
X99020286Y-54744667D01*
X98829810Y-54792286D01*
X98686952Y-54792286D01*
X98496476Y-54744667D01*
X98401238Y-54697048D01*
X98306000Y-54601810D01*
X98258381Y-54458952D01*
X98258381Y-54363714D01*
X98306000Y-54220857D01*
X98353619Y-54173238D01*
X99258381Y-53220857D02*
X99258381Y-53792286D01*
X99258381Y-53506572D02*
X98258381Y-53506572D01*
X98401238Y-53601810D01*
X98496476Y-53697048D01*
X98544095Y-53792286D01*
X98258381Y-52601810D02*
X98258381Y-52506571D01*
X98306000Y-52411333D01*
X98353619Y-52363714D01*
X98448857Y-52316095D01*
X98639333Y-52268476D01*
X98877429Y-52268476D01*
X99067905Y-52316095D01*
X99163143Y-52363714D01*
X99210762Y-52411333D01*
X99258381Y-52506571D01*
X99258381Y-52601810D01*
X99210762Y-52697048D01*
X99163143Y-52744667D01*
X99067905Y-52792286D01*
X98877429Y-52839905D01*
X98639333Y-52839905D01*
X98448857Y-52792286D01*
X98353619Y-52744667D01*
X98306000Y-52697048D01*
X98258381Y-52601810D01*
X98258381Y-51649429D02*
X98258381Y-51554190D01*
X98306000Y-51458952D01*
X98353619Y-51411333D01*
X98448857Y-51363714D01*
X98639333Y-51316095D01*
X98877429Y-51316095D01*
X99067905Y-51363714D01*
X99163143Y-51411333D01*
X99210762Y-51458952D01*
X99258381Y-51554190D01*
X99258381Y-51649429D01*
X99210762Y-51744667D01*
X99163143Y-51792286D01*
X99067905Y-51839905D01*
X98877429Y-51887524D01*
X98639333Y-51887524D01*
X98448857Y-51839905D01*
X98353619Y-51792286D01*
X98306000Y-51744667D01*
X98258381Y-51649429D01*
X98353619Y-50935143D02*
X98306000Y-50887524D01*
X98258381Y-50792286D01*
X98258381Y-50554190D01*
X98306000Y-50458952D01*
X98353619Y-50411333D01*
X98448857Y-50363714D01*
X98544095Y-50363714D01*
X98686952Y-50411333D01*
X99258381Y-50982762D01*
X99258381Y-50363714D01*
X106021143Y-52395238D02*
X106068762Y-52442857D01*
X106116381Y-52585714D01*
X106116381Y-52680952D01*
X106068762Y-52823810D01*
X105973524Y-52919048D01*
X105878286Y-52966667D01*
X105687810Y-53014286D01*
X105544952Y-53014286D01*
X105354476Y-52966667D01*
X105259238Y-52919048D01*
X105164000Y-52823810D01*
X105116381Y-52680952D01*
X105116381Y-52585714D01*
X105164000Y-52442857D01*
X105211619Y-52395238D01*
X106116381Y-51442857D02*
X106116381Y-52014286D01*
X106116381Y-51728572D02*
X105116381Y-51728572D01*
X105259238Y-51823810D01*
X105354476Y-51919048D01*
X105402095Y-52014286D01*
X105116381Y-50823810D02*
X105116381Y-50728571D01*
X105164000Y-50633333D01*
X105211619Y-50585714D01*
X105306857Y-50538095D01*
X105497333Y-50490476D01*
X105735429Y-50490476D01*
X105925905Y-50538095D01*
X106021143Y-50585714D01*
X106068762Y-50633333D01*
X106116381Y-50728571D01*
X106116381Y-50823810D01*
X106068762Y-50919048D01*
X106021143Y-50966667D01*
X105925905Y-51014286D01*
X105735429Y-51061905D01*
X105497333Y-51061905D01*
X105306857Y-51014286D01*
X105211619Y-50966667D01*
X105164000Y-50919048D01*
X105116381Y-50823810D01*
X105116381Y-49871429D02*
X105116381Y-49776190D01*
X105164000Y-49680952D01*
X105211619Y-49633333D01*
X105306857Y-49585714D01*
X105497333Y-49538095D01*
X105735429Y-49538095D01*
X105925905Y-49585714D01*
X106021143Y-49633333D01*
X106068762Y-49680952D01*
X106116381Y-49776190D01*
X106116381Y-49871429D01*
X106068762Y-49966667D01*
X106021143Y-50014286D01*
X105925905Y-50061905D01*
X105735429Y-50109524D01*
X105497333Y-50109524D01*
X105306857Y-50061905D01*
X105211619Y-50014286D01*
X105164000Y-49966667D01*
X105116381Y-49871429D01*
X105116381Y-49204762D02*
X105116381Y-48585714D01*
X105497333Y-48919048D01*
X105497333Y-48776190D01*
X105544952Y-48680952D01*
X105592571Y-48633333D01*
X105687810Y-48585714D01*
X105925905Y-48585714D01*
X106021143Y-48633333D01*
X106068762Y-48680952D01*
X106116381Y-48776190D01*
X106116381Y-49061905D01*
X106068762Y-49157143D01*
X106021143Y-49204762D01*
X112879143Y-54173238D02*
X112926762Y-54220857D01*
X112974381Y-54363714D01*
X112974381Y-54458952D01*
X112926762Y-54601810D01*
X112831524Y-54697048D01*
X112736286Y-54744667D01*
X112545810Y-54792286D01*
X112402952Y-54792286D01*
X112212476Y-54744667D01*
X112117238Y-54697048D01*
X112022000Y-54601810D01*
X111974381Y-54458952D01*
X111974381Y-54363714D01*
X112022000Y-54220857D01*
X112069619Y-54173238D01*
X112974381Y-53220857D02*
X112974381Y-53792286D01*
X112974381Y-53506572D02*
X111974381Y-53506572D01*
X112117238Y-53601810D01*
X112212476Y-53697048D01*
X112260095Y-53792286D01*
X111974381Y-52601810D02*
X111974381Y-52506571D01*
X112022000Y-52411333D01*
X112069619Y-52363714D01*
X112164857Y-52316095D01*
X112355333Y-52268476D01*
X112593429Y-52268476D01*
X112783905Y-52316095D01*
X112879143Y-52363714D01*
X112926762Y-52411333D01*
X112974381Y-52506571D01*
X112974381Y-52601810D01*
X112926762Y-52697048D01*
X112879143Y-52744667D01*
X112783905Y-52792286D01*
X112593429Y-52839905D01*
X112355333Y-52839905D01*
X112164857Y-52792286D01*
X112069619Y-52744667D01*
X112022000Y-52697048D01*
X111974381Y-52601810D01*
X111974381Y-51649429D02*
X111974381Y-51554190D01*
X112022000Y-51458952D01*
X112069619Y-51411333D01*
X112164857Y-51363714D01*
X112355333Y-51316095D01*
X112593429Y-51316095D01*
X112783905Y-51363714D01*
X112879143Y-51411333D01*
X112926762Y-51458952D01*
X112974381Y-51554190D01*
X112974381Y-51649429D01*
X112926762Y-51744667D01*
X112879143Y-51792286D01*
X112783905Y-51839905D01*
X112593429Y-51887524D01*
X112355333Y-51887524D01*
X112164857Y-51839905D01*
X112069619Y-51792286D01*
X112022000Y-51744667D01*
X111974381Y-51649429D01*
X112307714Y-50458952D02*
X112974381Y-50458952D01*
X111926762Y-50697048D02*
X112641048Y-50935143D01*
X112641048Y-50316095D01*
X119737143Y-54173238D02*
X119784762Y-54220857D01*
X119832381Y-54363714D01*
X119832381Y-54458952D01*
X119784762Y-54601810D01*
X119689524Y-54697048D01*
X119594286Y-54744667D01*
X119403810Y-54792286D01*
X119260952Y-54792286D01*
X119070476Y-54744667D01*
X118975238Y-54697048D01*
X118880000Y-54601810D01*
X118832381Y-54458952D01*
X118832381Y-54363714D01*
X118880000Y-54220857D01*
X118927619Y-54173238D01*
X119832381Y-53220857D02*
X119832381Y-53792286D01*
X119832381Y-53506572D02*
X118832381Y-53506572D01*
X118975238Y-53601810D01*
X119070476Y-53697048D01*
X119118095Y-53792286D01*
X118832381Y-52601810D02*
X118832381Y-52506571D01*
X118880000Y-52411333D01*
X118927619Y-52363714D01*
X119022857Y-52316095D01*
X119213333Y-52268476D01*
X119451429Y-52268476D01*
X119641905Y-52316095D01*
X119737143Y-52363714D01*
X119784762Y-52411333D01*
X119832381Y-52506571D01*
X119832381Y-52601810D01*
X119784762Y-52697048D01*
X119737143Y-52744667D01*
X119641905Y-52792286D01*
X119451429Y-52839905D01*
X119213333Y-52839905D01*
X119022857Y-52792286D01*
X118927619Y-52744667D01*
X118880000Y-52697048D01*
X118832381Y-52601810D01*
X118832381Y-51649429D02*
X118832381Y-51554190D01*
X118880000Y-51458952D01*
X118927619Y-51411333D01*
X119022857Y-51363714D01*
X119213333Y-51316095D01*
X119451429Y-51316095D01*
X119641905Y-51363714D01*
X119737143Y-51411333D01*
X119784762Y-51458952D01*
X119832381Y-51554190D01*
X119832381Y-51649429D01*
X119784762Y-51744667D01*
X119737143Y-51792286D01*
X119641905Y-51839905D01*
X119451429Y-51887524D01*
X119213333Y-51887524D01*
X119022857Y-51839905D01*
X118927619Y-51792286D01*
X118880000Y-51744667D01*
X118832381Y-51649429D01*
X118832381Y-50411333D02*
X118832381Y-50887524D01*
X119308571Y-50935143D01*
X119260952Y-50887524D01*
X119213333Y-50792286D01*
X119213333Y-50554190D01*
X119260952Y-50458952D01*
X119308571Y-50411333D01*
X119403810Y-50363714D01*
X119641905Y-50363714D01*
X119737143Y-50411333D01*
X119784762Y-50458952D01*
X119832381Y-50554190D01*
X119832381Y-50792286D01*
X119784762Y-50887524D01*
X119737143Y-50935143D01*
X126595143Y-54173238D02*
X126642762Y-54220857D01*
X126690381Y-54363714D01*
X126690381Y-54458952D01*
X126642762Y-54601810D01*
X126547524Y-54697048D01*
X126452286Y-54744667D01*
X126261810Y-54792286D01*
X126118952Y-54792286D01*
X125928476Y-54744667D01*
X125833238Y-54697048D01*
X125738000Y-54601810D01*
X125690381Y-54458952D01*
X125690381Y-54363714D01*
X125738000Y-54220857D01*
X125785619Y-54173238D01*
X126690381Y-53220857D02*
X126690381Y-53792286D01*
X126690381Y-53506572D02*
X125690381Y-53506572D01*
X125833238Y-53601810D01*
X125928476Y-53697048D01*
X125976095Y-53792286D01*
X125690381Y-52601810D02*
X125690381Y-52506571D01*
X125738000Y-52411333D01*
X125785619Y-52363714D01*
X125880857Y-52316095D01*
X126071333Y-52268476D01*
X126309429Y-52268476D01*
X126499905Y-52316095D01*
X126595143Y-52363714D01*
X126642762Y-52411333D01*
X126690381Y-52506571D01*
X126690381Y-52601810D01*
X126642762Y-52697048D01*
X126595143Y-52744667D01*
X126499905Y-52792286D01*
X126309429Y-52839905D01*
X126071333Y-52839905D01*
X125880857Y-52792286D01*
X125785619Y-52744667D01*
X125738000Y-52697048D01*
X125690381Y-52601810D01*
X125690381Y-51649429D02*
X125690381Y-51554190D01*
X125738000Y-51458952D01*
X125785619Y-51411333D01*
X125880857Y-51363714D01*
X126071333Y-51316095D01*
X126309429Y-51316095D01*
X126499905Y-51363714D01*
X126595143Y-51411333D01*
X126642762Y-51458952D01*
X126690381Y-51554190D01*
X126690381Y-51649429D01*
X126642762Y-51744667D01*
X126595143Y-51792286D01*
X126499905Y-51839905D01*
X126309429Y-51887524D01*
X126071333Y-51887524D01*
X125880857Y-51839905D01*
X125785619Y-51792286D01*
X125738000Y-51744667D01*
X125690381Y-51649429D01*
X125690381Y-50458952D02*
X125690381Y-50649429D01*
X125738000Y-50744667D01*
X125785619Y-50792286D01*
X125928476Y-50887524D01*
X126118952Y-50935143D01*
X126499905Y-50935143D01*
X126595143Y-50887524D01*
X126642762Y-50839905D01*
X126690381Y-50744667D01*
X126690381Y-50554190D01*
X126642762Y-50458952D01*
X126595143Y-50411333D01*
X126499905Y-50363714D01*
X126261810Y-50363714D01*
X126166571Y-50411333D01*
X126118952Y-50458952D01*
X126071333Y-50554190D01*
X126071333Y-50744667D01*
X126118952Y-50839905D01*
X126166571Y-50887524D01*
X126261810Y-50935143D01*
X133453143Y-54173238D02*
X133500762Y-54220857D01*
X133548381Y-54363714D01*
X133548381Y-54458952D01*
X133500762Y-54601810D01*
X133405524Y-54697048D01*
X133310286Y-54744667D01*
X133119810Y-54792286D01*
X132976952Y-54792286D01*
X132786476Y-54744667D01*
X132691238Y-54697048D01*
X132596000Y-54601810D01*
X132548381Y-54458952D01*
X132548381Y-54363714D01*
X132596000Y-54220857D01*
X132643619Y-54173238D01*
X133548381Y-53220857D02*
X133548381Y-53792286D01*
X133548381Y-53506572D02*
X132548381Y-53506572D01*
X132691238Y-53601810D01*
X132786476Y-53697048D01*
X132834095Y-53792286D01*
X132548381Y-52601810D02*
X132548381Y-52506571D01*
X132596000Y-52411333D01*
X132643619Y-52363714D01*
X132738857Y-52316095D01*
X132929333Y-52268476D01*
X133167429Y-52268476D01*
X133357905Y-52316095D01*
X133453143Y-52363714D01*
X133500762Y-52411333D01*
X133548381Y-52506571D01*
X133548381Y-52601810D01*
X133500762Y-52697048D01*
X133453143Y-52744667D01*
X133357905Y-52792286D01*
X133167429Y-52839905D01*
X132929333Y-52839905D01*
X132738857Y-52792286D01*
X132643619Y-52744667D01*
X132596000Y-52697048D01*
X132548381Y-52601810D01*
X132548381Y-51649429D02*
X132548381Y-51554190D01*
X132596000Y-51458952D01*
X132643619Y-51411333D01*
X132738857Y-51363714D01*
X132929333Y-51316095D01*
X133167429Y-51316095D01*
X133357905Y-51363714D01*
X133453143Y-51411333D01*
X133500762Y-51458952D01*
X133548381Y-51554190D01*
X133548381Y-51649429D01*
X133500762Y-51744667D01*
X133453143Y-51792286D01*
X133357905Y-51839905D01*
X133167429Y-51887524D01*
X132929333Y-51887524D01*
X132738857Y-51839905D01*
X132643619Y-51792286D01*
X132596000Y-51744667D01*
X132548381Y-51649429D01*
X132548381Y-50982762D02*
X132548381Y-50316095D01*
X133548381Y-50744667D01*
X140311143Y-54173238D02*
X140358762Y-54220857D01*
X140406381Y-54363714D01*
X140406381Y-54458952D01*
X140358762Y-54601810D01*
X140263524Y-54697048D01*
X140168286Y-54744667D01*
X139977810Y-54792286D01*
X139834952Y-54792286D01*
X139644476Y-54744667D01*
X139549238Y-54697048D01*
X139454000Y-54601810D01*
X139406381Y-54458952D01*
X139406381Y-54363714D01*
X139454000Y-54220857D01*
X139501619Y-54173238D01*
X140406381Y-53220857D02*
X140406381Y-53792286D01*
X140406381Y-53506572D02*
X139406381Y-53506572D01*
X139549238Y-53601810D01*
X139644476Y-53697048D01*
X139692095Y-53792286D01*
X139406381Y-52601810D02*
X139406381Y-52506571D01*
X139454000Y-52411333D01*
X139501619Y-52363714D01*
X139596857Y-52316095D01*
X139787333Y-52268476D01*
X140025429Y-52268476D01*
X140215905Y-52316095D01*
X140311143Y-52363714D01*
X140358762Y-52411333D01*
X140406381Y-52506571D01*
X140406381Y-52601810D01*
X140358762Y-52697048D01*
X140311143Y-52744667D01*
X140215905Y-52792286D01*
X140025429Y-52839905D01*
X139787333Y-52839905D01*
X139596857Y-52792286D01*
X139501619Y-52744667D01*
X139454000Y-52697048D01*
X139406381Y-52601810D01*
X139406381Y-51649429D02*
X139406381Y-51554190D01*
X139454000Y-51458952D01*
X139501619Y-51411333D01*
X139596857Y-51363714D01*
X139787333Y-51316095D01*
X140025429Y-51316095D01*
X140215905Y-51363714D01*
X140311143Y-51411333D01*
X140358762Y-51458952D01*
X140406381Y-51554190D01*
X140406381Y-51649429D01*
X140358762Y-51744667D01*
X140311143Y-51792286D01*
X140215905Y-51839905D01*
X140025429Y-51887524D01*
X139787333Y-51887524D01*
X139596857Y-51839905D01*
X139501619Y-51792286D01*
X139454000Y-51744667D01*
X139406381Y-51649429D01*
X139834952Y-50744667D02*
X139787333Y-50839905D01*
X139739714Y-50887524D01*
X139644476Y-50935143D01*
X139596857Y-50935143D01*
X139501619Y-50887524D01*
X139454000Y-50839905D01*
X139406381Y-50744667D01*
X139406381Y-50554190D01*
X139454000Y-50458952D01*
X139501619Y-50411333D01*
X139596857Y-50363714D01*
X139644476Y-50363714D01*
X139739714Y-50411333D01*
X139787333Y-50458952D01*
X139834952Y-50554190D01*
X139834952Y-50744667D01*
X139882571Y-50839905D01*
X139930190Y-50887524D01*
X140025429Y-50935143D01*
X140215905Y-50935143D01*
X140311143Y-50887524D01*
X140358762Y-50839905D01*
X140406381Y-50744667D01*
X140406381Y-50554190D01*
X140358762Y-50458952D01*
X140311143Y-50411333D01*
X140215905Y-50363714D01*
X140025429Y-50363714D01*
X139930190Y-50411333D01*
X139882571Y-50458952D01*
X139834952Y-50554190D01*
M02*
