%FSLAX45Y45*%
G04 Gerber Fmt 4.5, Leading zero omitted, Abs format (unit mm)*
G04 Created by KiCad (PCBNEW 4.0.0-rc1-stable) date mer. 14 oct. 2015 22:56:35 CEST*
%MOMM*%
G01*
G04 APERTURE LIST*
%ADD10C,0.127000*%
%ADD11C,0.150000*%
%ADD12C,0.200000*%
%ADD13C,0.300000*%
G04 APERTURE END LIST*
D10*
D11*
X6400800Y-12382500D02*
X6400800Y-3492500D01*
X15290800Y-12382500D02*
X6400800Y-12382500D01*
X15290800Y-3492500D02*
X15290800Y-12382500D01*
X6400800Y-3492500D02*
X15290800Y-3492500D01*
X15290800Y-3492500D02*
X6400800Y-3492500D01*
X15290800Y-12395200D02*
X15290800Y-3492500D01*
X6400800Y-12395200D02*
X15290800Y-12395200D01*
X6400800Y-3492500D02*
X6400800Y-12395200D01*
D12*
X6866100Y-3957800D02*
X6926100Y-4017800D01*
X6926100Y-3957800D02*
X6866100Y-4017800D01*
X6866100Y-11857200D02*
X6926100Y-11917200D01*
X6926100Y-11857200D02*
X6866100Y-11917200D01*
X7308060Y-11384760D02*
X7368060Y-11444760D01*
X7368060Y-11384760D02*
X7308060Y-11444760D01*
X7427440Y-11504140D02*
X7487440Y-11564140D01*
X7487440Y-11504140D02*
X7427440Y-11564140D01*
X7480780Y-8702520D02*
X7540780Y-8762520D01*
X7540780Y-8702520D02*
X7480780Y-8762520D01*
X7490940Y-10018240D02*
X7550940Y-10078240D01*
X7550940Y-10018240D02*
X7490940Y-10078240D01*
X7503640Y-9342600D02*
X7563640Y-9402600D01*
X7563640Y-9342600D02*
X7503640Y-9402600D01*
X7511260Y-10704040D02*
X7571260Y-10764040D01*
X7571260Y-10704040D02*
X7511260Y-10764040D01*
X7650960Y-6797520D02*
X7710960Y-6857520D01*
X7710960Y-6797520D02*
X7650960Y-6857520D01*
X7668740Y-7556980D02*
X7728740Y-7616980D01*
X7728740Y-7556980D02*
X7668740Y-7616980D01*
X7709380Y-5436080D02*
X7769380Y-5496080D01*
X7769380Y-5436080D02*
X7709380Y-5496080D01*
X7945600Y-5847560D02*
X8005600Y-5907560D01*
X8005600Y-5847560D02*
X7945600Y-5907560D01*
X7945600Y-8644100D02*
X8005600Y-8704100D01*
X8005600Y-8644100D02*
X7945600Y-8704100D01*
X8237700Y-7844000D02*
X8297700Y-7904000D01*
X8297700Y-7844000D02*
X8237700Y-7904000D01*
X8501860Y-6330160D02*
X8561860Y-6390160D01*
X8561860Y-6330160D02*
X8501860Y-6390160D01*
X8720300Y-6656550D02*
X8780300Y-6716550D01*
X8780300Y-6656550D02*
X8720300Y-6716550D01*
X8821900Y-10155400D02*
X8881900Y-10215400D01*
X8881900Y-10155400D02*
X8821900Y-10215400D01*
X8834600Y-9736300D02*
X8894600Y-9796300D01*
X8894600Y-9736300D02*
X8834600Y-9796300D01*
X8946360Y-6655280D02*
X9006360Y-6715280D01*
X9006360Y-6655280D02*
X8946360Y-6715280D01*
X8971760Y-6439380D02*
X9031760Y-6499380D01*
X9031760Y-6439380D02*
X8971760Y-6499380D01*
X9145750Y-6027900D02*
X9205750Y-6087900D01*
X9205750Y-6027900D02*
X9145750Y-6087900D01*
X9177500Y-9958550D02*
X9237500Y-10018550D01*
X9237500Y-9958550D02*
X9177500Y-10018550D01*
X9393400Y-9482300D02*
X9453400Y-9542300D01*
X9453400Y-9482300D02*
X9393400Y-9542300D01*
X9431500Y-7917660D02*
X9491500Y-7977660D01*
X9491500Y-7917660D02*
X9431500Y-7977660D01*
X9431500Y-8098000D02*
X9491500Y-8158000D01*
X9491500Y-8098000D02*
X9431500Y-8158000D01*
X9441660Y-7732240D02*
X9501660Y-7792240D01*
X9501660Y-7732240D02*
X9441660Y-7792240D01*
X9500080Y-5827240D02*
X9560080Y-5887240D01*
X9560080Y-5827240D02*
X9500080Y-5887240D01*
X9558500Y-9355300D02*
X9618500Y-9415300D01*
X9618500Y-9355300D02*
X9558500Y-9415300D01*
X9680420Y-6949920D02*
X9740420Y-7009920D01*
X9740420Y-6949920D02*
X9680420Y-7009920D01*
X9749000Y-8225000D02*
X9809000Y-8285000D01*
X9809000Y-8225000D02*
X9749000Y-8285000D01*
X9774400Y-7145500D02*
X9834400Y-7205500D01*
X9834400Y-7145500D02*
X9774400Y-7205500D01*
X9774400Y-8479000D02*
X9834400Y-8539000D01*
X9834400Y-8479000D02*
X9774400Y-8539000D01*
X9926800Y-7282660D02*
X9986800Y-7342660D01*
X9986800Y-7282660D02*
X9926800Y-7342660D01*
X9977600Y-9241000D02*
X10037600Y-9301000D01*
X10037600Y-9241000D02*
X9977600Y-9301000D01*
X10028400Y-10853900D02*
X10088400Y-10913900D01*
X10088400Y-10853900D02*
X10028400Y-10913900D01*
X10038560Y-5832320D02*
X10098560Y-5892320D01*
X10098560Y-5832320D02*
X10038560Y-5892320D01*
X10053800Y-10625300D02*
X10113800Y-10685300D01*
X10113800Y-10625300D02*
X10053800Y-10685300D01*
X10084280Y-6980400D02*
X10144280Y-7040400D01*
X10144280Y-6980400D02*
X10084280Y-7040400D01*
X10203660Y-7153120D02*
X10263660Y-7213120D01*
X10263660Y-7153120D02*
X10203660Y-7213120D01*
X10218900Y-5837400D02*
X10278900Y-5897400D01*
X10278900Y-5837400D02*
X10218900Y-5897400D01*
X10396700Y-10739600D02*
X10456700Y-10799600D01*
X10456700Y-10739600D02*
X10396700Y-10799600D01*
X10447500Y-8019260D02*
X10507500Y-8079260D01*
X10507500Y-8019260D02*
X10447500Y-8079260D01*
X10447500Y-9526750D02*
X10507500Y-9586750D01*
X10507500Y-9526750D02*
X10447500Y-9586750D01*
X10561800Y-5646900D02*
X10621800Y-5706900D01*
X10621800Y-5646900D02*
X10561800Y-5706900D01*
X10602440Y-9261320D02*
X10662440Y-9321320D01*
X10662440Y-9261320D02*
X10602440Y-9321320D01*
X10612600Y-8936200D02*
X10672600Y-8996200D01*
X10672600Y-8936200D02*
X10612600Y-8996200D01*
X10625300Y-9520400D02*
X10685300Y-9580400D01*
X10685300Y-9520400D02*
X10625300Y-9580400D01*
X10777700Y-9152100D02*
X10837700Y-9212100D01*
X10837700Y-9152100D02*
X10777700Y-9212100D01*
X11298400Y-8987000D02*
X11358400Y-9047000D01*
X11358400Y-8987000D02*
X11298400Y-9047000D01*
X11298400Y-9164800D02*
X11358400Y-9224800D01*
X11358400Y-9164800D02*
X11298400Y-9224800D01*
X11486360Y-8989540D02*
X11546360Y-9049540D01*
X11546360Y-8989540D02*
X11486360Y-9049540D01*
X11486360Y-9164800D02*
X11546360Y-9224800D01*
X11546360Y-9164800D02*
X11486360Y-9224800D01*
X11628600Y-8606000D02*
X11688600Y-8666000D01*
X11688600Y-8606000D02*
X11628600Y-8666000D01*
X11641300Y-7590000D02*
X11701300Y-7650000D01*
X11701300Y-7590000D02*
X11641300Y-7650000D01*
X12263600Y-6294600D02*
X12323600Y-6354600D01*
X12323600Y-6294600D02*
X12263600Y-6354600D01*
X12266648Y-11698196D02*
X12326648Y-11758196D01*
X12326648Y-11698196D02*
X12266648Y-11758196D01*
X12289000Y-6548600D02*
X12349000Y-6608600D01*
X12349000Y-6548600D02*
X12289000Y-6608600D01*
X12352500Y-6726400D02*
X12412500Y-6786400D01*
X12412500Y-6726400D02*
X12352500Y-6786400D01*
X12362660Y-11529032D02*
X12422660Y-11589032D01*
X12422660Y-11529032D02*
X12362660Y-11589032D01*
X12365200Y-10968200D02*
X12425200Y-11028200D01*
X12425200Y-10968200D02*
X12365200Y-11028200D01*
X12430224Y-10688800D02*
X12490224Y-10748800D01*
X12490224Y-10688800D02*
X12430224Y-10748800D01*
X12644600Y-10218900D02*
X12704600Y-10278900D01*
X12704600Y-10218900D02*
X12644600Y-10278900D01*
X12644600Y-10409400D02*
X12704600Y-10469400D01*
X12704600Y-10409400D02*
X12644600Y-10469400D01*
X12900632Y-11192736D02*
X12960632Y-11252736D01*
X12960632Y-11192736D02*
X12900632Y-11252736D01*
X13076400Y-9647400D02*
X13136400Y-9707400D01*
X13136400Y-9647400D02*
X13076400Y-9707400D01*
X13152600Y-10003000D02*
X13212600Y-10063000D01*
X13212600Y-10003000D02*
X13152600Y-10063000D01*
X13266900Y-6345400D02*
X13326900Y-6405400D01*
X13326900Y-6345400D02*
X13266900Y-6405400D01*
X13292300Y-9672800D02*
X13352300Y-9732800D01*
X13352300Y-9672800D02*
X13292300Y-9732800D01*
X13487880Y-7163280D02*
X13547880Y-7223280D01*
X13547880Y-7163280D02*
X13487880Y-7223280D01*
X13495500Y-10193500D02*
X13555500Y-10253500D01*
X13555500Y-10193500D02*
X13495500Y-10253500D01*
X13498040Y-7470620D02*
X13558040Y-7530620D01*
X13558040Y-7470620D02*
X13498040Y-7530620D01*
X13508200Y-10650700D02*
X13568200Y-10710700D01*
X13568200Y-10650700D02*
X13508200Y-10710700D01*
X13520900Y-6205700D02*
X13580900Y-6265700D01*
X13580900Y-6205700D02*
X13520900Y-6265700D01*
X13660600Y-11082500D02*
X13720600Y-11142500D01*
X13720600Y-11082500D02*
X13660600Y-11142500D01*
X13716480Y-6177760D02*
X13776480Y-6237760D01*
X13776480Y-6177760D02*
X13716480Y-6237760D01*
X13825700Y-8072600D02*
X13885700Y-8132600D01*
X13885700Y-8072600D02*
X13825700Y-8132600D01*
X13838400Y-8402800D02*
X13898400Y-8462800D01*
X13898400Y-8402800D02*
X13838400Y-8462800D01*
X13952700Y-9495000D02*
X14012700Y-9555000D01*
X14012700Y-9495000D02*
X13952700Y-9555000D01*
X13971750Y-10898350D02*
X14031750Y-10958350D01*
X14031750Y-10898350D02*
X13971750Y-10958350D01*
X13993340Y-7343620D02*
X14053340Y-7403620D01*
X14053340Y-7343620D02*
X13993340Y-7403620D01*
X14008580Y-7623020D02*
X14068580Y-7683020D01*
X14068580Y-7623020D02*
X14008580Y-7683020D01*
X14067000Y-12022300D02*
X14127000Y-12082300D01*
X14127000Y-12022300D02*
X14067000Y-12082300D01*
X14077160Y-6053300D02*
X14137160Y-6113300D01*
X14137160Y-6053300D02*
X14077160Y-6113300D01*
X14079700Y-8237700D02*
X14139700Y-8297700D01*
X14139700Y-8237700D02*
X14079700Y-8297700D01*
X14079700Y-9355300D02*
X14139700Y-9415300D01*
X14139700Y-9355300D02*
X14079700Y-9415300D01*
X14079700Y-10485600D02*
X14139700Y-10545600D01*
X14139700Y-10485600D02*
X14079700Y-10545600D01*
X14171140Y-5898360D02*
X14231140Y-5958360D01*
X14231140Y-5898360D02*
X14171140Y-5958360D01*
X14206700Y-9837900D02*
X14266700Y-9897900D01*
X14266700Y-9837900D02*
X14206700Y-9897900D01*
X14206700Y-11406350D02*
X14266700Y-11466350D01*
X14266700Y-11406350D02*
X14206700Y-11466350D01*
X14211780Y-4315940D02*
X14271780Y-4375940D01*
X14271780Y-4315940D02*
X14211780Y-4375940D01*
X14254960Y-7620480D02*
X14314960Y-7680480D01*
X14314960Y-7620480D02*
X14254960Y-7680480D01*
X14257500Y-11158700D02*
X14317500Y-11218700D01*
X14317500Y-11158700D02*
X14257500Y-11218700D01*
X14308300Y-5621500D02*
X14368300Y-5681500D01*
X14368300Y-5621500D02*
X14308300Y-5681500D01*
X14308300Y-6675600D02*
X14368300Y-6735600D01*
X14368300Y-6675600D02*
X14308300Y-6735600D01*
X14308300Y-7424900D02*
X14368300Y-7484900D01*
X14368300Y-7424900D02*
X14308300Y-7484900D01*
X14379420Y-5009360D02*
X14439420Y-5069360D01*
X14439420Y-5009360D02*
X14379420Y-5069360D01*
X14409900Y-6967700D02*
X14469900Y-7027700D01*
X14469900Y-6967700D02*
X14409900Y-7027700D01*
X14422600Y-11031700D02*
X14482600Y-11091700D01*
X14482600Y-11031700D02*
X14422600Y-11091700D01*
X14440380Y-5730720D02*
X14500380Y-5790720D01*
X14500380Y-5730720D02*
X14440380Y-5790720D01*
X14549600Y-7475700D02*
X14609600Y-7535700D01*
X14609600Y-7475700D02*
X14549600Y-7535700D01*
X14638500Y-9863300D02*
X14698500Y-9923300D01*
X14698500Y-9863300D02*
X14638500Y-9923300D01*
X14663900Y-8758400D02*
X14723900Y-8818400D01*
X14723900Y-8758400D02*
X14663900Y-8818400D01*
X14752800Y-3957800D02*
X14812800Y-4017800D01*
X14812800Y-3957800D02*
X14752800Y-4017800D01*
X14765500Y-11857200D02*
X14825500Y-11917200D01*
X14825500Y-11857200D02*
X14765500Y-11917200D01*
X14829000Y-7056600D02*
X14889000Y-7116600D01*
X14889000Y-7056600D02*
X14829000Y-7116600D01*
X14892500Y-11107900D02*
X14952500Y-11167900D01*
X14952500Y-11107900D02*
X14892500Y-11167900D01*
X14895040Y-10919940D02*
X14955040Y-10979940D01*
X14955040Y-10919940D02*
X14895040Y-10979940D01*
X15083000Y-10919940D02*
X15143000Y-10979940D01*
X15143000Y-10919940D02*
X15083000Y-10979940D01*
X15085540Y-11107900D02*
X15145540Y-11167900D01*
X15145540Y-11107900D02*
X15085540Y-11167900D01*
X11177900Y-10858500D02*
G75*
G03X11177900Y-10858500I-40000J0D01*
G01*
X11304900Y-11112500D02*
G75*
G03X11304900Y-11112500I-40000J0D01*
G01*
X11431900Y-10858500D02*
G75*
G03X11431900Y-10858500I-40000J0D01*
G01*
X11558900Y-11112500D02*
G75*
G03X11558900Y-11112500I-40000J0D01*
G01*
X11685900Y-10858500D02*
G75*
G03X11685900Y-10858500I-40000J0D01*
G01*
X11812900Y-11112500D02*
G75*
G03X11812900Y-11112500I-40000J0D01*
G01*
X6591300Y-9360700D02*
X6591300Y-9460700D01*
X6541300Y-9410700D02*
X6641300Y-9410700D01*
X6591300Y-10059200D02*
X6591300Y-10159200D01*
X6541300Y-10109200D02*
X6641300Y-10109200D01*
X6591300Y-10757700D02*
X6591300Y-10857700D01*
X6541300Y-10807700D02*
X6641300Y-10807700D01*
X6604000Y-5207800D02*
X6604000Y-5307800D01*
X6554000Y-5257800D02*
X6654000Y-5257800D01*
X6604000Y-5893600D02*
X6604000Y-5993600D01*
X6554000Y-5943600D02*
X6654000Y-5943600D01*
X6604000Y-7290600D02*
X6604000Y-7390600D01*
X6554000Y-7340600D02*
X6654000Y-7340600D01*
X6604000Y-7989100D02*
X6604000Y-8089100D01*
X6554000Y-8039100D02*
X6654000Y-8039100D01*
X6604000Y-8674900D02*
X6604000Y-8774900D01*
X6554000Y-8724900D02*
X6654000Y-8724900D01*
X6616700Y-6592100D02*
X6616700Y-6692100D01*
X6566700Y-6642100D02*
X6666700Y-6642100D01*
X6845300Y-9360700D02*
X6845300Y-9460700D01*
X6795300Y-9410700D02*
X6895300Y-9410700D01*
X6845300Y-10059200D02*
X6845300Y-10159200D01*
X6795300Y-10109200D02*
X6895300Y-10109200D01*
X6845300Y-10757700D02*
X6845300Y-10857700D01*
X6795300Y-10807700D02*
X6895300Y-10807700D01*
X6858000Y-5207800D02*
X6858000Y-5307800D01*
X6808000Y-5257800D02*
X6908000Y-5257800D01*
X6858000Y-5893600D02*
X6858000Y-5993600D01*
X6808000Y-5943600D02*
X6908000Y-5943600D01*
X6858000Y-7290600D02*
X6858000Y-7390600D01*
X6808000Y-7340600D02*
X6908000Y-7340600D01*
X6858000Y-7989100D02*
X6858000Y-8089100D01*
X6808000Y-8039100D02*
X6908000Y-8039100D01*
X6858000Y-8674900D02*
X6858000Y-8774900D01*
X6808000Y-8724900D02*
X6908000Y-8724900D01*
X6870700Y-6592100D02*
X6870700Y-6692100D01*
X6820700Y-6642100D02*
X6920700Y-6642100D01*
X7099300Y-9360700D02*
X7099300Y-9460700D01*
X7049300Y-9410700D02*
X7149300Y-9410700D01*
X7099300Y-10059200D02*
X7099300Y-10159200D01*
X7049300Y-10109200D02*
X7149300Y-10109200D01*
X7099300Y-10757700D02*
X7099300Y-10857700D01*
X7049300Y-10807700D02*
X7149300Y-10807700D01*
X7112000Y-5207800D02*
X7112000Y-5307800D01*
X7062000Y-5257800D02*
X7162000Y-5257800D01*
X7112000Y-5893600D02*
X7112000Y-5993600D01*
X7062000Y-5943600D02*
X7162000Y-5943600D01*
X7112000Y-7290600D02*
X7112000Y-7390600D01*
X7062000Y-7340600D02*
X7162000Y-7340600D01*
X7112000Y-7989100D02*
X7112000Y-8089100D01*
X7062000Y-8039100D02*
X7162000Y-8039100D01*
X7112000Y-8674900D02*
X7112000Y-8774900D01*
X7062000Y-8724900D02*
X7162000Y-8724900D01*
X7124700Y-6592100D02*
X7124700Y-6692100D01*
X7074700Y-6642100D02*
X7174700Y-6642100D01*
X7912100Y-4280700D02*
X7912100Y-4380700D01*
X7862100Y-4330700D02*
X7962100Y-4330700D01*
X7912100Y-4534700D02*
X7912100Y-4634700D01*
X7862100Y-4584700D02*
X7962100Y-4584700D01*
X7950200Y-11507000D02*
X7950200Y-11607000D01*
X7900200Y-11557000D02*
X8000200Y-11557000D01*
X7950200Y-11761000D02*
X7950200Y-11861000D01*
X7900200Y-11811000D02*
X8000200Y-11811000D01*
X8166100Y-4280700D02*
X8166100Y-4380700D01*
X8116100Y-4330700D02*
X8216100Y-4330700D01*
X8166100Y-4534700D02*
X8166100Y-4634700D01*
X8116100Y-4584700D02*
X8216100Y-4584700D01*
X8204200Y-11507000D02*
X8204200Y-11607000D01*
X8154200Y-11557000D02*
X8254200Y-11557000D01*
X8204200Y-11761000D02*
X8204200Y-11861000D01*
X8154200Y-11811000D02*
X8254200Y-11811000D01*
X8420100Y-4280700D02*
X8420100Y-4380700D01*
X8370100Y-4330700D02*
X8470100Y-4330700D01*
X8420100Y-4534700D02*
X8420100Y-4634700D01*
X8370100Y-4584700D02*
X8470100Y-4584700D01*
X8458200Y-11507000D02*
X8458200Y-11607000D01*
X8408200Y-11557000D02*
X8508200Y-11557000D01*
X8458200Y-11761000D02*
X8458200Y-11861000D01*
X8408200Y-11811000D02*
X8508200Y-11811000D01*
X8674100Y-4280700D02*
X8674100Y-4380700D01*
X8624100Y-4330700D02*
X8724100Y-4330700D01*
X8674100Y-4534700D02*
X8674100Y-4634700D01*
X8624100Y-4584700D02*
X8724100Y-4584700D01*
X8712200Y-11507000D02*
X8712200Y-11607000D01*
X8662200Y-11557000D02*
X8762200Y-11557000D01*
X8712200Y-11761000D02*
X8712200Y-11861000D01*
X8662200Y-11811000D02*
X8762200Y-11811000D01*
X8750300Y-7316000D02*
X8750300Y-7416000D01*
X8700300Y-7366000D02*
X8800300Y-7366000D01*
X8750300Y-7570000D02*
X8750300Y-7670000D01*
X8700300Y-7620000D02*
X8800300Y-7620000D01*
X8750300Y-7824000D02*
X8750300Y-7924000D01*
X8700300Y-7874000D02*
X8800300Y-7874000D01*
X8750300Y-8078000D02*
X8750300Y-8178000D01*
X8700300Y-8128000D02*
X8800300Y-8128000D01*
X8750300Y-8332000D02*
X8750300Y-8432000D01*
X8700300Y-8382000D02*
X8800300Y-8382000D01*
X8750300Y-8586000D02*
X8750300Y-8686000D01*
X8700300Y-8636000D02*
X8800300Y-8636000D01*
X8750300Y-8840000D02*
X8750300Y-8940000D01*
X8700300Y-8890000D02*
X8800300Y-8890000D01*
X8750300Y-9094000D02*
X8750300Y-9194000D01*
X8700300Y-9144000D02*
X8800300Y-9144000D01*
X8928100Y-4280700D02*
X8928100Y-4380700D01*
X8878100Y-4330700D02*
X8978100Y-4330700D01*
X8928100Y-4534700D02*
X8928100Y-4634700D01*
X8878100Y-4584700D02*
X8978100Y-4584700D01*
X8966200Y-11507000D02*
X8966200Y-11607000D01*
X8916200Y-11557000D02*
X9016200Y-11557000D01*
X8966200Y-11761000D02*
X8966200Y-11861000D01*
X8916200Y-11811000D02*
X9016200Y-11811000D01*
X9004300Y-7316000D02*
X9004300Y-7416000D01*
X8954300Y-7366000D02*
X9054300Y-7366000D01*
X9004300Y-7570000D02*
X9004300Y-7670000D01*
X8954300Y-7620000D02*
X9054300Y-7620000D01*
X9004300Y-7824000D02*
X9004300Y-7924000D01*
X8954300Y-7874000D02*
X9054300Y-7874000D01*
X9004300Y-8078000D02*
X9004300Y-8178000D01*
X8954300Y-8128000D02*
X9054300Y-8128000D01*
X9004300Y-8332000D02*
X9004300Y-8432000D01*
X8954300Y-8382000D02*
X9054300Y-8382000D01*
X9004300Y-8586000D02*
X9004300Y-8686000D01*
X8954300Y-8636000D02*
X9054300Y-8636000D01*
X9004300Y-8840000D02*
X9004300Y-8940000D01*
X8954300Y-8890000D02*
X9054300Y-8890000D01*
X9004300Y-9094000D02*
X9004300Y-9194000D01*
X8954300Y-9144000D02*
X9054300Y-9144000D01*
X9182100Y-4280700D02*
X9182100Y-4380700D01*
X9132100Y-4330700D02*
X9232100Y-4330700D01*
X9182100Y-4534700D02*
X9182100Y-4634700D01*
X9132100Y-4584700D02*
X9232100Y-4584700D01*
X9220200Y-11507000D02*
X9220200Y-11607000D01*
X9170200Y-11557000D02*
X9270200Y-11557000D01*
X9220200Y-11761000D02*
X9220200Y-11861000D01*
X9170200Y-11811000D02*
X9270200Y-11811000D01*
X9436100Y-4280700D02*
X9436100Y-4380700D01*
X9386100Y-4330700D02*
X9486100Y-4330700D01*
X9436100Y-4534700D02*
X9436100Y-4634700D01*
X9386100Y-4584700D02*
X9486100Y-4584700D01*
X9474200Y-11507000D02*
X9474200Y-11607000D01*
X9424200Y-11557000D02*
X9524200Y-11557000D01*
X9474200Y-11761000D02*
X9474200Y-11861000D01*
X9424200Y-11811000D02*
X9524200Y-11811000D01*
X9690100Y-4280700D02*
X9690100Y-4380700D01*
X9640100Y-4330700D02*
X9740100Y-4330700D01*
X9690100Y-4534700D02*
X9690100Y-4634700D01*
X9640100Y-4584700D02*
X9740100Y-4584700D01*
X9728200Y-11507000D02*
X9728200Y-11607000D01*
X9678200Y-11557000D02*
X9778200Y-11557000D01*
X9728200Y-11761000D02*
X9728200Y-11861000D01*
X9678200Y-11811000D02*
X9778200Y-11811000D01*
X9829800Y-6223800D02*
X9829800Y-6323800D01*
X9779800Y-6273800D02*
X9879800Y-6273800D01*
X9829800Y-6477800D02*
X9829800Y-6577800D01*
X9779800Y-6527800D02*
X9879800Y-6527800D01*
X9829800Y-9944646D02*
X9829800Y-10044646D01*
X9779800Y-9994646D02*
X9879800Y-9994646D01*
X9829800Y-10198646D02*
X9829800Y-10298646D01*
X9779800Y-10248646D02*
X9879800Y-10248646D01*
X10083800Y-6223800D02*
X10083800Y-6323800D01*
X10033800Y-6273800D02*
X10133800Y-6273800D01*
X10083800Y-6477800D02*
X10083800Y-6577800D01*
X10033800Y-6527800D02*
X10133800Y-6527800D01*
X10083800Y-9944646D02*
X10083800Y-10044646D01*
X10033800Y-9994646D02*
X10133800Y-9994646D01*
X10083800Y-10198646D02*
X10083800Y-10298646D01*
X10033800Y-10248646D02*
X10133800Y-10248646D01*
X10337800Y-6223800D02*
X10337800Y-6323800D01*
X10287800Y-6273800D02*
X10387800Y-6273800D01*
X10337800Y-6477800D02*
X10337800Y-6577800D01*
X10287800Y-6527800D02*
X10387800Y-6527800D01*
X10337800Y-9944646D02*
X10337800Y-10044646D01*
X10287800Y-9994646D02*
X10387800Y-9994646D01*
X10337800Y-10198646D02*
X10337800Y-10298646D01*
X10287800Y-10248646D02*
X10387800Y-10248646D01*
X10591800Y-6223800D02*
X10591800Y-6323800D01*
X10541800Y-6273800D02*
X10641800Y-6273800D01*
X10591800Y-6477800D02*
X10591800Y-6577800D01*
X10541800Y-6527800D02*
X10641800Y-6527800D01*
X10591800Y-9944646D02*
X10591800Y-10044646D01*
X10541800Y-9994646D02*
X10641800Y-9994646D01*
X10591800Y-10198646D02*
X10591800Y-10298646D01*
X10541800Y-10248646D02*
X10641800Y-10248646D01*
X10782300Y-4280700D02*
X10782300Y-4380700D01*
X10732300Y-4330700D02*
X10832300Y-4330700D01*
X10782300Y-4534700D02*
X10782300Y-4634700D01*
X10732300Y-4584700D02*
X10832300Y-4584700D01*
X10845800Y-6223800D02*
X10845800Y-6323800D01*
X10795800Y-6273800D02*
X10895800Y-6273800D01*
X10845800Y-6477800D02*
X10845800Y-6577800D01*
X10795800Y-6527800D02*
X10895800Y-6527800D01*
X10845800Y-9944646D02*
X10845800Y-10044646D01*
X10795800Y-9994646D02*
X10895800Y-9994646D01*
X10845800Y-10198646D02*
X10845800Y-10298646D01*
X10795800Y-10248646D02*
X10895800Y-10248646D01*
X11036300Y-4280700D02*
X11036300Y-4380700D01*
X10986300Y-4330700D02*
X11086300Y-4330700D01*
X11036300Y-4534700D02*
X11036300Y-4634700D01*
X10986300Y-4584700D02*
X11086300Y-4584700D01*
X11099800Y-6223800D02*
X11099800Y-6323800D01*
X11049800Y-6273800D02*
X11149800Y-6273800D01*
X11099800Y-6477800D02*
X11099800Y-6577800D01*
X11049800Y-6527800D02*
X11149800Y-6527800D01*
X11099800Y-9944646D02*
X11099800Y-10044646D01*
X11049800Y-9994646D02*
X11149800Y-9994646D01*
X11099800Y-10198646D02*
X11099800Y-10298646D01*
X11049800Y-10248646D02*
X11149800Y-10248646D01*
X11290300Y-4280700D02*
X11290300Y-4380700D01*
X11240300Y-4330700D02*
X11340300Y-4330700D01*
X11290300Y-4534700D02*
X11290300Y-4634700D01*
X11240300Y-4584700D02*
X11340300Y-4584700D01*
X11353800Y-6223800D02*
X11353800Y-6323800D01*
X11303800Y-6273800D02*
X11403800Y-6273800D01*
X11353800Y-6477800D02*
X11353800Y-6577800D01*
X11303800Y-6527800D02*
X11403800Y-6527800D01*
X11353800Y-9944646D02*
X11353800Y-10044646D01*
X11303800Y-9994646D02*
X11403800Y-9994646D01*
X11353800Y-10198646D02*
X11353800Y-10298646D01*
X11303800Y-10248646D02*
X11403800Y-10248646D01*
X11544300Y-4280700D02*
X11544300Y-4380700D01*
X11494300Y-4330700D02*
X11594300Y-4330700D01*
X11544300Y-4534700D02*
X11544300Y-4634700D01*
X11494300Y-4584700D02*
X11594300Y-4584700D01*
X11607800Y-6223800D02*
X11607800Y-6323800D01*
X11557800Y-6273800D02*
X11657800Y-6273800D01*
X11607800Y-6477800D02*
X11607800Y-6577800D01*
X11557800Y-6527800D02*
X11657800Y-6527800D01*
X11607800Y-9944646D02*
X11607800Y-10044646D01*
X11557800Y-9994646D02*
X11657800Y-9994646D01*
X11607800Y-10198646D02*
X11607800Y-10298646D01*
X11557800Y-10248646D02*
X11657800Y-10248646D01*
X11798300Y-4280700D02*
X11798300Y-4380700D01*
X11748300Y-4330700D02*
X11848300Y-4330700D01*
X11798300Y-4534700D02*
X11798300Y-4634700D01*
X11748300Y-4584700D02*
X11848300Y-4584700D01*
X12052300Y-4280700D02*
X12052300Y-4380700D01*
X12002300Y-4330700D02*
X12102300Y-4330700D01*
X12052300Y-4534700D02*
X12052300Y-4634700D01*
X12002300Y-4584700D02*
X12102300Y-4584700D01*
X12090400Y-7316000D02*
X12090400Y-7416000D01*
X12040400Y-7366000D02*
X12140400Y-7366000D01*
X12090400Y-7570000D02*
X12090400Y-7670000D01*
X12040400Y-7620000D02*
X12140400Y-7620000D01*
X12090400Y-7824000D02*
X12090400Y-7924000D01*
X12040400Y-7874000D02*
X12140400Y-7874000D01*
X12090400Y-8078000D02*
X12090400Y-8178000D01*
X12040400Y-8128000D02*
X12140400Y-8128000D01*
X12090400Y-8332000D02*
X12090400Y-8432000D01*
X12040400Y-8382000D02*
X12140400Y-8382000D01*
X12090400Y-8586000D02*
X12090400Y-8686000D01*
X12040400Y-8636000D02*
X12140400Y-8636000D01*
X12090400Y-8840000D02*
X12090400Y-8940000D01*
X12040400Y-8890000D02*
X12140400Y-8890000D01*
X12090400Y-9094000D02*
X12090400Y-9194000D01*
X12040400Y-9144000D02*
X12140400Y-9144000D01*
X12306300Y-4280700D02*
X12306300Y-4380700D01*
X12256300Y-4330700D02*
X12356300Y-4330700D01*
X12306300Y-4534700D02*
X12306300Y-4634700D01*
X12256300Y-4584700D02*
X12356300Y-4584700D01*
X12344400Y-7316000D02*
X12344400Y-7416000D01*
X12294400Y-7366000D02*
X12394400Y-7366000D01*
X12344400Y-7570000D02*
X12344400Y-7670000D01*
X12294400Y-7620000D02*
X12394400Y-7620000D01*
X12344400Y-7824000D02*
X12344400Y-7924000D01*
X12294400Y-7874000D02*
X12394400Y-7874000D01*
X12344400Y-8078000D02*
X12344400Y-8178000D01*
X12294400Y-8128000D02*
X12394400Y-8128000D01*
X12344400Y-8332000D02*
X12344400Y-8432000D01*
X12294400Y-8382000D02*
X12394400Y-8382000D01*
X12344400Y-8586000D02*
X12344400Y-8686000D01*
X12294400Y-8636000D02*
X12394400Y-8636000D01*
X12344400Y-8840000D02*
X12344400Y-8940000D01*
X12294400Y-8890000D02*
X12394400Y-8890000D01*
X12344400Y-9094000D02*
X12344400Y-9194000D01*
X12294400Y-9144000D02*
X12394400Y-9144000D01*
X12560300Y-4280700D02*
X12560300Y-4380700D01*
X12510300Y-4330700D02*
X12610300Y-4330700D01*
X12560300Y-4534700D02*
X12560300Y-4634700D01*
X12510300Y-4584700D02*
X12610300Y-4584700D01*
X12725400Y-11507000D02*
X12725400Y-11607000D01*
X12675400Y-11557000D02*
X12775400Y-11557000D01*
X12725400Y-11761000D02*
X12725400Y-11861000D01*
X12675400Y-11811000D02*
X12775400Y-11811000D01*
X12814300Y-4280700D02*
X12814300Y-4380700D01*
X12764300Y-4330700D02*
X12864300Y-4330700D01*
X12814300Y-4534700D02*
X12814300Y-4634700D01*
X12764300Y-4584700D02*
X12864300Y-4584700D01*
X12979400Y-11507000D02*
X12979400Y-11607000D01*
X12929400Y-11557000D02*
X13029400Y-11557000D01*
X12979400Y-11761000D02*
X12979400Y-11861000D01*
X12929400Y-11811000D02*
X13029400Y-11811000D01*
X13068300Y-4280700D02*
X13068300Y-4380700D01*
X13018300Y-4330700D02*
X13118300Y-4330700D01*
X13068300Y-4534700D02*
X13068300Y-4634700D01*
X13018300Y-4584700D02*
X13118300Y-4584700D01*
X13233400Y-11507000D02*
X13233400Y-11607000D01*
X13183400Y-11557000D02*
X13283400Y-11557000D01*
X13233400Y-11761000D02*
X13233400Y-11861000D01*
X13183400Y-11811000D02*
X13283400Y-11811000D01*
X13322300Y-4280700D02*
X13322300Y-4380700D01*
X13272300Y-4330700D02*
X13372300Y-4330700D01*
X13322300Y-4534700D02*
X13322300Y-4634700D01*
X13272300Y-4584700D02*
X13372300Y-4584700D01*
X13487400Y-11507000D02*
X13487400Y-11607000D01*
X13437400Y-11557000D02*
X13537400Y-11557000D01*
X13487400Y-11761000D02*
X13487400Y-11861000D01*
X13437400Y-11811000D02*
X13537400Y-11811000D01*
X13576300Y-4280700D02*
X13576300Y-4380700D01*
X13526300Y-4330700D02*
X13626300Y-4330700D01*
X13576300Y-4534700D02*
X13576300Y-4634700D01*
X13526300Y-4584700D02*
X13626300Y-4584700D01*
X13741400Y-11507000D02*
X13741400Y-11607000D01*
X13691400Y-11557000D02*
X13791400Y-11557000D01*
X13741400Y-11761000D02*
X13741400Y-11861000D01*
X13691400Y-11811000D02*
X13791400Y-11811000D01*
X13830300Y-4280700D02*
X13830300Y-4380700D01*
X13780300Y-4330700D02*
X13880300Y-4330700D01*
X13830300Y-4534700D02*
X13830300Y-4634700D01*
X13780300Y-4584700D02*
X13880300Y-4584700D01*
X14897100Y-4737900D02*
X14897100Y-4837900D01*
X14847100Y-4787900D02*
X14947100Y-4787900D01*
X14897100Y-4991900D02*
X14897100Y-5091900D01*
X14847100Y-5041900D02*
X14947100Y-5041900D01*
X14897100Y-5245900D02*
X14897100Y-5345900D01*
X14847100Y-5295900D02*
X14947100Y-5295900D01*
X14897100Y-5499900D02*
X14897100Y-5599900D01*
X14847100Y-5549900D02*
X14947100Y-5549900D01*
X14897100Y-5842800D02*
X14897100Y-5942800D01*
X14847100Y-5892800D02*
X14947100Y-5892800D01*
X14897100Y-6096800D02*
X14897100Y-6196800D01*
X14847100Y-6146800D02*
X14947100Y-6146800D01*
X14897100Y-6350800D02*
X14897100Y-6450800D01*
X14847100Y-6400800D02*
X14947100Y-6400800D01*
X14897100Y-6604800D02*
X14897100Y-6704800D01*
X14847100Y-6654800D02*
X14947100Y-6654800D01*
X14922500Y-7455700D02*
X14922500Y-7555700D01*
X14872500Y-7505700D02*
X14972500Y-7505700D01*
X14922500Y-7709700D02*
X14922500Y-7809700D01*
X14872500Y-7759700D02*
X14972500Y-7759700D01*
X14922500Y-7963700D02*
X14922500Y-8063700D01*
X14872500Y-8013700D02*
X14972500Y-8013700D01*
X14922500Y-8217700D02*
X14922500Y-8317700D01*
X14872500Y-8267700D02*
X14972500Y-8267700D01*
X14922500Y-8535200D02*
X14922500Y-8635200D01*
X14872500Y-8585200D02*
X14972500Y-8585200D01*
X14922500Y-8789200D02*
X14922500Y-8889200D01*
X14872500Y-8839200D02*
X14972500Y-8839200D01*
X14922500Y-9043200D02*
X14922500Y-9143200D01*
X14872500Y-9093200D02*
X14972500Y-9093200D01*
X14922500Y-9297200D02*
X14922500Y-9397200D01*
X14872500Y-9347200D02*
X14972500Y-9347200D01*
X14922500Y-9614700D02*
X14922500Y-9714700D01*
X14872500Y-9664700D02*
X14972500Y-9664700D01*
X14922500Y-9868700D02*
X14922500Y-9968700D01*
X14872500Y-9918700D02*
X14972500Y-9918700D01*
X14922500Y-10122700D02*
X14922500Y-10222700D01*
X14872500Y-10172700D02*
X14972500Y-10172700D01*
X14922500Y-10376700D02*
X14922500Y-10476700D01*
X14872500Y-10426700D02*
X14972500Y-10426700D01*
X11053467Y-11853567D02*
X11053467Y-11641433D01*
X10841333Y-11641433D01*
X10841333Y-11853567D01*
X11053467Y-11853567D01*
X12069467Y-11853567D02*
X12069467Y-11641433D01*
X11857333Y-11641433D01*
X11857333Y-11853567D01*
X12069467Y-11853567D01*
X6896100Y-4187825D02*
X7096125Y-3987800D01*
X6896100Y-3787775D01*
X6696075Y-3987800D01*
X6896100Y-4187825D01*
X6896100Y-12087225D02*
X7096125Y-11887200D01*
X6896100Y-11687175D01*
X6696075Y-11887200D01*
X6896100Y-12087225D01*
X14782800Y-4187825D02*
X14982825Y-3987800D01*
X14782800Y-3787775D01*
X14582775Y-3987800D01*
X14782800Y-4187825D01*
X14795500Y-12087225D02*
X14995525Y-11887200D01*
X14795500Y-11687175D01*
X14595475Y-11887200D01*
X14795500Y-12087225D01*
D13*
X6664728Y-12868414D02*
X6664728Y-12568414D01*
X6736157Y-12568414D01*
X6779014Y-12582700D01*
X6807586Y-12611271D01*
X6821871Y-12639843D01*
X6836157Y-12696986D01*
X6836157Y-12739843D01*
X6821871Y-12796986D01*
X6807586Y-12825557D01*
X6779014Y-12854129D01*
X6736157Y-12868414D01*
X6664728Y-12868414D01*
X6964728Y-12868414D02*
X6964728Y-12668414D01*
X6964728Y-12725557D02*
X6979014Y-12696986D01*
X6993300Y-12682700D01*
X7021871Y-12668414D01*
X7050443Y-12668414D01*
X7150443Y-12868414D02*
X7150443Y-12668414D01*
X7150443Y-12568414D02*
X7136157Y-12582700D01*
X7150443Y-12596986D01*
X7164728Y-12582700D01*
X7150443Y-12568414D01*
X7150443Y-12596986D01*
X7336157Y-12868414D02*
X7307586Y-12854129D01*
X7293300Y-12825557D01*
X7293300Y-12568414D01*
X7493300Y-12868414D02*
X7464728Y-12854129D01*
X7450443Y-12825557D01*
X7450443Y-12568414D01*
X7836157Y-12868414D02*
X7836157Y-12568414D01*
X7936157Y-12782700D01*
X8036157Y-12568414D01*
X8036157Y-12868414D01*
X8307586Y-12868414D02*
X8307586Y-12711271D01*
X8293300Y-12682700D01*
X8264728Y-12668414D01*
X8207586Y-12668414D01*
X8179014Y-12682700D01*
X8307586Y-12854129D02*
X8279014Y-12868414D01*
X8207586Y-12868414D01*
X8179014Y-12854129D01*
X8164728Y-12825557D01*
X8164728Y-12796986D01*
X8179014Y-12768414D01*
X8207586Y-12754129D01*
X8279014Y-12754129D01*
X8307586Y-12739843D01*
X8450443Y-12668414D02*
X8450443Y-12968414D01*
X8450443Y-12682700D02*
X8479014Y-12668414D01*
X8536157Y-12668414D01*
X8564729Y-12682700D01*
X8579014Y-12696986D01*
X8593300Y-12725557D01*
X8593300Y-12811271D01*
X8579014Y-12839843D01*
X8564729Y-12854129D01*
X8536157Y-12868414D01*
X8479014Y-12868414D01*
X8450443Y-12854129D01*
X8721871Y-12839843D02*
X8736157Y-12854129D01*
X8721871Y-12868414D01*
X8707586Y-12854129D01*
X8721871Y-12839843D01*
X8721871Y-12868414D01*
X8721871Y-12682700D02*
X8736157Y-12696986D01*
X8721871Y-12711271D01*
X8707586Y-12696986D01*
X8721871Y-12682700D01*
X8721871Y-12711271D01*
X6333300Y-13332700D02*
X6393300Y-13392700D01*
X6393300Y-13332700D02*
X6333300Y-13392700D01*
X6721871Y-13198414D02*
X6750443Y-13198414D01*
X6779014Y-13212700D01*
X6793300Y-13226986D01*
X6807586Y-13255557D01*
X6821871Y-13312700D01*
X6821871Y-13384129D01*
X6807586Y-13441271D01*
X6793300Y-13469843D01*
X6779014Y-13484129D01*
X6750443Y-13498414D01*
X6721871Y-13498414D01*
X6693300Y-13484129D01*
X6679014Y-13469843D01*
X6664728Y-13441271D01*
X6650443Y-13384129D01*
X6650443Y-13312700D01*
X6664728Y-13255557D01*
X6679014Y-13226986D01*
X6693300Y-13212700D01*
X6721871Y-13198414D01*
X6950443Y-13469843D02*
X6964728Y-13484129D01*
X6950443Y-13498414D01*
X6936157Y-13484129D01*
X6950443Y-13469843D01*
X6950443Y-13498414D01*
X7221871Y-13198414D02*
X7164728Y-13198414D01*
X7136157Y-13212700D01*
X7121871Y-13226986D01*
X7093300Y-13269843D01*
X7079014Y-13326986D01*
X7079014Y-13441271D01*
X7093300Y-13469843D01*
X7107586Y-13484129D01*
X7136157Y-13498414D01*
X7193300Y-13498414D01*
X7221871Y-13484129D01*
X7236157Y-13469843D01*
X7250443Y-13441271D01*
X7250443Y-13369843D01*
X7236157Y-13341271D01*
X7221871Y-13326986D01*
X7193300Y-13312700D01*
X7136157Y-13312700D01*
X7107586Y-13326986D01*
X7093300Y-13341271D01*
X7079014Y-13369843D01*
X7436157Y-13198414D02*
X7464728Y-13198414D01*
X7493300Y-13212700D01*
X7507586Y-13226986D01*
X7521871Y-13255557D01*
X7536157Y-13312700D01*
X7536157Y-13384129D01*
X7521871Y-13441271D01*
X7507586Y-13469843D01*
X7493300Y-13484129D01*
X7464728Y-13498414D01*
X7436157Y-13498414D01*
X7407586Y-13484129D01*
X7393300Y-13469843D01*
X7379014Y-13441271D01*
X7364728Y-13384129D01*
X7364728Y-13312700D01*
X7379014Y-13255557D01*
X7393300Y-13226986D01*
X7407586Y-13212700D01*
X7436157Y-13198414D01*
X7664728Y-13498414D02*
X7664728Y-13298414D01*
X7664728Y-13326986D02*
X7679014Y-13312700D01*
X7707586Y-13298414D01*
X7750443Y-13298414D01*
X7779014Y-13312700D01*
X7793300Y-13341271D01*
X7793300Y-13498414D01*
X7793300Y-13341271D02*
X7807586Y-13312700D01*
X7836157Y-13298414D01*
X7879014Y-13298414D01*
X7907586Y-13312700D01*
X7921871Y-13341271D01*
X7921871Y-13498414D01*
X8064728Y-13498414D02*
X8064728Y-13298414D01*
X8064728Y-13326986D02*
X8079014Y-13312700D01*
X8107586Y-13298414D01*
X8150443Y-13298414D01*
X8179014Y-13312700D01*
X8193300Y-13341271D01*
X8193300Y-13498414D01*
X8193300Y-13341271D02*
X8207586Y-13312700D01*
X8236157Y-13298414D01*
X8279014Y-13298414D01*
X8307586Y-13312700D01*
X8321871Y-13341271D01*
X8321871Y-13498414D01*
X8907586Y-13184129D02*
X8650443Y-13569843D01*
X9293300Y-13198414D02*
X9321871Y-13198414D01*
X9350443Y-13212700D01*
X9364728Y-13226986D01*
X9379014Y-13255557D01*
X9393300Y-13312700D01*
X9393300Y-13384129D01*
X9379014Y-13441271D01*
X9364728Y-13469843D01*
X9350443Y-13484129D01*
X9321871Y-13498414D01*
X9293300Y-13498414D01*
X9264728Y-13484129D01*
X9250443Y-13469843D01*
X9236157Y-13441271D01*
X9221871Y-13384129D01*
X9221871Y-13312700D01*
X9236157Y-13255557D01*
X9250443Y-13226986D01*
X9264728Y-13212700D01*
X9293300Y-13198414D01*
X9521871Y-13469843D02*
X9536157Y-13484129D01*
X9521871Y-13498414D01*
X9507586Y-13484129D01*
X9521871Y-13469843D01*
X9521871Y-13498414D01*
X9721871Y-13198414D02*
X9750443Y-13198414D01*
X9779014Y-13212700D01*
X9793300Y-13226986D01*
X9807586Y-13255557D01*
X9821871Y-13312700D01*
X9821871Y-13384129D01*
X9807586Y-13441271D01*
X9793300Y-13469843D01*
X9779014Y-13484129D01*
X9750443Y-13498414D01*
X9721871Y-13498414D01*
X9693300Y-13484129D01*
X9679014Y-13469843D01*
X9664728Y-13441271D01*
X9650443Y-13384129D01*
X9650443Y-13312700D01*
X9664728Y-13255557D01*
X9679014Y-13226986D01*
X9693300Y-13212700D01*
X9721871Y-13198414D01*
X9936157Y-13226986D02*
X9950443Y-13212700D01*
X9979014Y-13198414D01*
X10050443Y-13198414D01*
X10079014Y-13212700D01*
X10093300Y-13226986D01*
X10107586Y-13255557D01*
X10107586Y-13284129D01*
X10093300Y-13326986D01*
X9921871Y-13498414D01*
X10107586Y-13498414D01*
X10364728Y-13298414D02*
X10364728Y-13498414D01*
X10293300Y-13184129D02*
X10221871Y-13398414D01*
X10407586Y-13398414D01*
X10507586Y-13198414D02*
X10507586Y-13255557D01*
X10621871Y-13198414D02*
X10621871Y-13255557D01*
X11064728Y-13612700D02*
X11050443Y-13598414D01*
X11021871Y-13555557D01*
X11007586Y-13526986D01*
X10993300Y-13484129D01*
X10979014Y-13412700D01*
X10979014Y-13355557D01*
X10993300Y-13284129D01*
X11007586Y-13241271D01*
X11021871Y-13212700D01*
X11050443Y-13169843D01*
X11064728Y-13155557D01*
X11336157Y-13498414D02*
X11164728Y-13498414D01*
X11250443Y-13498414D02*
X11250443Y-13198414D01*
X11221871Y-13241271D01*
X11193300Y-13269843D01*
X11164728Y-13284129D01*
X11521871Y-13198414D02*
X11550443Y-13198414D01*
X11579014Y-13212700D01*
X11593300Y-13226986D01*
X11607585Y-13255557D01*
X11621871Y-13312700D01*
X11621871Y-13384129D01*
X11607585Y-13441271D01*
X11593300Y-13469843D01*
X11579014Y-13484129D01*
X11550443Y-13498414D01*
X11521871Y-13498414D01*
X11493300Y-13484129D01*
X11479014Y-13469843D01*
X11464728Y-13441271D01*
X11450443Y-13384129D01*
X11450443Y-13312700D01*
X11464728Y-13255557D01*
X11479014Y-13226986D01*
X11493300Y-13212700D01*
X11521871Y-13198414D01*
X11764728Y-13498414D02*
X11821871Y-13498414D01*
X11850443Y-13484129D01*
X11864728Y-13469843D01*
X11893300Y-13426986D01*
X11907585Y-13369843D01*
X11907585Y-13255557D01*
X11893300Y-13226986D01*
X11879014Y-13212700D01*
X11850443Y-13198414D01*
X11793300Y-13198414D01*
X11764728Y-13212700D01*
X11750443Y-13226986D01*
X11736157Y-13255557D01*
X11736157Y-13326986D01*
X11750443Y-13355557D01*
X11764728Y-13369843D01*
X11793300Y-13384129D01*
X11850443Y-13384129D01*
X11879014Y-13369843D01*
X11893300Y-13355557D01*
X11907585Y-13326986D01*
X12264728Y-13498414D02*
X12264728Y-13198414D01*
X12393300Y-13498414D02*
X12393300Y-13341271D01*
X12379014Y-13312700D01*
X12350443Y-13298414D01*
X12307585Y-13298414D01*
X12279014Y-13312700D01*
X12264728Y-13326986D01*
X12579014Y-13498414D02*
X12550443Y-13484129D01*
X12536157Y-13469843D01*
X12521871Y-13441271D01*
X12521871Y-13355557D01*
X12536157Y-13326986D01*
X12550443Y-13312700D01*
X12579014Y-13298414D01*
X12621871Y-13298414D01*
X12650443Y-13312700D01*
X12664728Y-13326986D01*
X12679014Y-13355557D01*
X12679014Y-13441271D01*
X12664728Y-13469843D01*
X12650443Y-13484129D01*
X12621871Y-13498414D01*
X12579014Y-13498414D01*
X12850443Y-13498414D02*
X12821871Y-13484129D01*
X12807586Y-13455557D01*
X12807586Y-13198414D01*
X13079014Y-13484129D02*
X13050443Y-13498414D01*
X12993300Y-13498414D01*
X12964728Y-13484129D01*
X12950443Y-13455557D01*
X12950443Y-13341271D01*
X12964728Y-13312700D01*
X12993300Y-13298414D01*
X13050443Y-13298414D01*
X13079014Y-13312700D01*
X13093300Y-13341271D01*
X13093300Y-13369843D01*
X12950443Y-13398414D01*
X13207586Y-13484129D02*
X13236157Y-13498414D01*
X13293300Y-13498414D01*
X13321871Y-13484129D01*
X13336157Y-13455557D01*
X13336157Y-13441271D01*
X13321871Y-13412700D01*
X13293300Y-13398414D01*
X13250443Y-13398414D01*
X13221871Y-13384129D01*
X13207586Y-13355557D01*
X13207586Y-13341271D01*
X13221871Y-13312700D01*
X13250443Y-13298414D01*
X13293300Y-13298414D01*
X13321871Y-13312700D01*
X13436157Y-13612700D02*
X13450443Y-13598414D01*
X13479014Y-13555557D01*
X13493300Y-13526986D01*
X13507586Y-13484129D01*
X13521871Y-13412700D01*
X13521871Y-13355557D01*
X13507586Y-13284129D01*
X13493300Y-13241271D01*
X13479014Y-13212700D01*
X13450443Y-13169843D01*
X13436157Y-13155557D01*
X6393300Y-13758700D02*
G75*
G03X6393300Y-13758700I-40000J0D01*
G01*
X6721871Y-13594414D02*
X6750443Y-13594414D01*
X6779014Y-13608700D01*
X6793300Y-13622986D01*
X6807586Y-13651557D01*
X6821871Y-13708700D01*
X6821871Y-13780129D01*
X6807586Y-13837271D01*
X6793300Y-13865843D01*
X6779014Y-13880129D01*
X6750443Y-13894414D01*
X6721871Y-13894414D01*
X6693300Y-13880129D01*
X6679014Y-13865843D01*
X6664728Y-13837271D01*
X6650443Y-13780129D01*
X6650443Y-13708700D01*
X6664728Y-13651557D01*
X6679014Y-13622986D01*
X6693300Y-13608700D01*
X6721871Y-13594414D01*
X6950443Y-13865843D02*
X6964728Y-13880129D01*
X6950443Y-13894414D01*
X6936157Y-13880129D01*
X6950443Y-13865843D01*
X6950443Y-13894414D01*
X7136157Y-13722986D02*
X7107586Y-13708700D01*
X7093300Y-13694414D01*
X7079014Y-13665843D01*
X7079014Y-13651557D01*
X7093300Y-13622986D01*
X7107586Y-13608700D01*
X7136157Y-13594414D01*
X7193300Y-13594414D01*
X7221871Y-13608700D01*
X7236157Y-13622986D01*
X7250443Y-13651557D01*
X7250443Y-13665843D01*
X7236157Y-13694414D01*
X7221871Y-13708700D01*
X7193300Y-13722986D01*
X7136157Y-13722986D01*
X7107586Y-13737271D01*
X7093300Y-13751557D01*
X7079014Y-13780129D01*
X7079014Y-13837271D01*
X7093300Y-13865843D01*
X7107586Y-13880129D01*
X7136157Y-13894414D01*
X7193300Y-13894414D01*
X7221871Y-13880129D01*
X7236157Y-13865843D01*
X7250443Y-13837271D01*
X7250443Y-13780129D01*
X7236157Y-13751557D01*
X7221871Y-13737271D01*
X7193300Y-13722986D01*
X7436157Y-13594414D02*
X7464728Y-13594414D01*
X7493300Y-13608700D01*
X7507586Y-13622986D01*
X7521871Y-13651557D01*
X7536157Y-13708700D01*
X7536157Y-13780129D01*
X7521871Y-13837271D01*
X7507586Y-13865843D01*
X7493300Y-13880129D01*
X7464728Y-13894414D01*
X7436157Y-13894414D01*
X7407586Y-13880129D01*
X7393300Y-13865843D01*
X7379014Y-13837271D01*
X7364728Y-13780129D01*
X7364728Y-13708700D01*
X7379014Y-13651557D01*
X7393300Y-13622986D01*
X7407586Y-13608700D01*
X7436157Y-13594414D01*
X7664728Y-13894414D02*
X7664728Y-13694414D01*
X7664728Y-13722986D02*
X7679014Y-13708700D01*
X7707586Y-13694414D01*
X7750443Y-13694414D01*
X7779014Y-13708700D01*
X7793300Y-13737271D01*
X7793300Y-13894414D01*
X7793300Y-13737271D02*
X7807586Y-13708700D01*
X7836157Y-13694414D01*
X7879014Y-13694414D01*
X7907586Y-13708700D01*
X7921871Y-13737271D01*
X7921871Y-13894414D01*
X8064728Y-13894414D02*
X8064728Y-13694414D01*
X8064728Y-13722986D02*
X8079014Y-13708700D01*
X8107586Y-13694414D01*
X8150443Y-13694414D01*
X8179014Y-13708700D01*
X8193300Y-13737271D01*
X8193300Y-13894414D01*
X8193300Y-13737271D02*
X8207586Y-13708700D01*
X8236157Y-13694414D01*
X8279014Y-13694414D01*
X8307586Y-13708700D01*
X8321871Y-13737271D01*
X8321871Y-13894414D01*
X8907586Y-13580129D02*
X8650443Y-13965843D01*
X9293300Y-13594414D02*
X9321871Y-13594414D01*
X9350443Y-13608700D01*
X9364728Y-13622986D01*
X9379014Y-13651557D01*
X9393300Y-13708700D01*
X9393300Y-13780129D01*
X9379014Y-13837271D01*
X9364728Y-13865843D01*
X9350443Y-13880129D01*
X9321871Y-13894414D01*
X9293300Y-13894414D01*
X9264728Y-13880129D01*
X9250443Y-13865843D01*
X9236157Y-13837271D01*
X9221871Y-13780129D01*
X9221871Y-13708700D01*
X9236157Y-13651557D01*
X9250443Y-13622986D01*
X9264728Y-13608700D01*
X9293300Y-13594414D01*
X9521871Y-13865843D02*
X9536157Y-13880129D01*
X9521871Y-13894414D01*
X9507586Y-13880129D01*
X9521871Y-13865843D01*
X9521871Y-13894414D01*
X9721871Y-13594414D02*
X9750443Y-13594414D01*
X9779014Y-13608700D01*
X9793300Y-13622986D01*
X9807586Y-13651557D01*
X9821871Y-13708700D01*
X9821871Y-13780129D01*
X9807586Y-13837271D01*
X9793300Y-13865843D01*
X9779014Y-13880129D01*
X9750443Y-13894414D01*
X9721871Y-13894414D01*
X9693300Y-13880129D01*
X9679014Y-13865843D01*
X9664728Y-13837271D01*
X9650443Y-13780129D01*
X9650443Y-13708700D01*
X9664728Y-13651557D01*
X9679014Y-13622986D01*
X9693300Y-13608700D01*
X9721871Y-13594414D01*
X9921871Y-13594414D02*
X10107586Y-13594414D01*
X10007586Y-13708700D01*
X10050443Y-13708700D01*
X10079014Y-13722986D01*
X10093300Y-13737271D01*
X10107586Y-13765843D01*
X10107586Y-13837271D01*
X10093300Y-13865843D01*
X10079014Y-13880129D01*
X10050443Y-13894414D01*
X9964728Y-13894414D01*
X9936157Y-13880129D01*
X9921871Y-13865843D01*
X10393300Y-13894414D02*
X10221871Y-13894414D01*
X10307586Y-13894414D02*
X10307586Y-13594414D01*
X10279014Y-13637271D01*
X10250443Y-13665843D01*
X10221871Y-13680129D01*
X10507586Y-13594414D02*
X10507586Y-13651557D01*
X10621871Y-13594414D02*
X10621871Y-13651557D01*
X11064728Y-14008700D02*
X11050443Y-13994414D01*
X11021871Y-13951557D01*
X11007586Y-13922986D01*
X10993300Y-13880129D01*
X10979014Y-13808700D01*
X10979014Y-13751557D01*
X10993300Y-13680129D01*
X11007586Y-13637271D01*
X11021871Y-13608700D01*
X11050443Y-13565843D01*
X11064728Y-13551557D01*
X11307585Y-13594414D02*
X11250443Y-13594414D01*
X11221871Y-13608700D01*
X11207585Y-13622986D01*
X11179014Y-13665843D01*
X11164728Y-13722986D01*
X11164728Y-13837271D01*
X11179014Y-13865843D01*
X11193300Y-13880129D01*
X11221871Y-13894414D01*
X11279014Y-13894414D01*
X11307585Y-13880129D01*
X11321871Y-13865843D01*
X11336157Y-13837271D01*
X11336157Y-13765843D01*
X11321871Y-13737271D01*
X11307585Y-13722986D01*
X11279014Y-13708700D01*
X11221871Y-13708700D01*
X11193300Y-13722986D01*
X11179014Y-13737271D01*
X11164728Y-13765843D01*
X11693300Y-13894414D02*
X11693300Y-13594414D01*
X11821871Y-13894414D02*
X11821871Y-13737271D01*
X11807585Y-13708700D01*
X11779014Y-13694414D01*
X11736157Y-13694414D01*
X11707585Y-13708700D01*
X11693300Y-13722986D01*
X12007585Y-13894414D02*
X11979014Y-13880129D01*
X11964728Y-13865843D01*
X11950443Y-13837271D01*
X11950443Y-13751557D01*
X11964728Y-13722986D01*
X11979014Y-13708700D01*
X12007585Y-13694414D01*
X12050443Y-13694414D01*
X12079014Y-13708700D01*
X12093300Y-13722986D01*
X12107585Y-13751557D01*
X12107585Y-13837271D01*
X12093300Y-13865843D01*
X12079014Y-13880129D01*
X12050443Y-13894414D01*
X12007585Y-13894414D01*
X12279014Y-13894414D02*
X12250443Y-13880129D01*
X12236157Y-13851557D01*
X12236157Y-13594414D01*
X12507586Y-13880129D02*
X12479014Y-13894414D01*
X12421871Y-13894414D01*
X12393300Y-13880129D01*
X12379014Y-13851557D01*
X12379014Y-13737271D01*
X12393300Y-13708700D01*
X12421871Y-13694414D01*
X12479014Y-13694414D01*
X12507586Y-13708700D01*
X12521871Y-13737271D01*
X12521871Y-13765843D01*
X12379014Y-13794414D01*
X12636157Y-13880129D02*
X12664728Y-13894414D01*
X12721871Y-13894414D01*
X12750443Y-13880129D01*
X12764728Y-13851557D01*
X12764728Y-13837271D01*
X12750443Y-13808700D01*
X12721871Y-13794414D01*
X12679014Y-13794414D01*
X12650443Y-13780129D01*
X12636157Y-13751557D01*
X12636157Y-13737271D01*
X12650443Y-13708700D01*
X12679014Y-13694414D01*
X12721871Y-13694414D01*
X12750443Y-13708700D01*
X12864728Y-14008700D02*
X12879014Y-13994414D01*
X12907586Y-13951557D01*
X12921871Y-13922986D01*
X12936157Y-13880129D01*
X12950443Y-13808700D01*
X12950443Y-13751557D01*
X12936157Y-13680129D01*
X12921871Y-13637271D01*
X12907586Y-13608700D01*
X12879014Y-13565843D01*
X12864728Y-13551557D01*
X6343300Y-14104700D02*
X6343300Y-14204700D01*
X6293300Y-14154700D02*
X6393300Y-14154700D01*
X6821871Y-14290414D02*
X6650443Y-14290414D01*
X6736157Y-14290414D02*
X6736157Y-13990414D01*
X6707586Y-14033271D01*
X6679014Y-14061843D01*
X6650443Y-14076129D01*
X6950443Y-14261843D02*
X6964728Y-14276129D01*
X6950443Y-14290414D01*
X6936157Y-14276129D01*
X6950443Y-14261843D01*
X6950443Y-14290414D01*
X7150443Y-13990414D02*
X7179014Y-13990414D01*
X7207586Y-14004700D01*
X7221871Y-14018986D01*
X7236157Y-14047557D01*
X7250443Y-14104700D01*
X7250443Y-14176129D01*
X7236157Y-14233271D01*
X7221871Y-14261843D01*
X7207586Y-14276129D01*
X7179014Y-14290414D01*
X7150443Y-14290414D01*
X7121871Y-14276129D01*
X7107586Y-14261843D01*
X7093300Y-14233271D01*
X7079014Y-14176129D01*
X7079014Y-14104700D01*
X7093300Y-14047557D01*
X7107586Y-14018986D01*
X7121871Y-14004700D01*
X7150443Y-13990414D01*
X7436157Y-13990414D02*
X7464728Y-13990414D01*
X7493300Y-14004700D01*
X7507586Y-14018986D01*
X7521871Y-14047557D01*
X7536157Y-14104700D01*
X7536157Y-14176129D01*
X7521871Y-14233271D01*
X7507586Y-14261843D01*
X7493300Y-14276129D01*
X7464728Y-14290414D01*
X7436157Y-14290414D01*
X7407586Y-14276129D01*
X7393300Y-14261843D01*
X7379014Y-14233271D01*
X7364728Y-14176129D01*
X7364728Y-14104700D01*
X7379014Y-14047557D01*
X7393300Y-14018986D01*
X7407586Y-14004700D01*
X7436157Y-13990414D01*
X7664728Y-14290414D02*
X7664728Y-14090414D01*
X7664728Y-14118986D02*
X7679014Y-14104700D01*
X7707586Y-14090414D01*
X7750443Y-14090414D01*
X7779014Y-14104700D01*
X7793300Y-14133271D01*
X7793300Y-14290414D01*
X7793300Y-14133271D02*
X7807586Y-14104700D01*
X7836157Y-14090414D01*
X7879014Y-14090414D01*
X7907586Y-14104700D01*
X7921871Y-14133271D01*
X7921871Y-14290414D01*
X8064728Y-14290414D02*
X8064728Y-14090414D01*
X8064728Y-14118986D02*
X8079014Y-14104700D01*
X8107586Y-14090414D01*
X8150443Y-14090414D01*
X8179014Y-14104700D01*
X8193300Y-14133271D01*
X8193300Y-14290414D01*
X8193300Y-14133271D02*
X8207586Y-14104700D01*
X8236157Y-14090414D01*
X8279014Y-14090414D01*
X8307586Y-14104700D01*
X8321871Y-14133271D01*
X8321871Y-14290414D01*
X8907586Y-13976129D02*
X8650443Y-14361843D01*
X9293300Y-13990414D02*
X9321871Y-13990414D01*
X9350443Y-14004700D01*
X9364728Y-14018986D01*
X9379014Y-14047557D01*
X9393300Y-14104700D01*
X9393300Y-14176129D01*
X9379014Y-14233271D01*
X9364728Y-14261843D01*
X9350443Y-14276129D01*
X9321871Y-14290414D01*
X9293300Y-14290414D01*
X9264728Y-14276129D01*
X9250443Y-14261843D01*
X9236157Y-14233271D01*
X9221871Y-14176129D01*
X9221871Y-14104700D01*
X9236157Y-14047557D01*
X9250443Y-14018986D01*
X9264728Y-14004700D01*
X9293300Y-13990414D01*
X9521871Y-14261843D02*
X9536157Y-14276129D01*
X9521871Y-14290414D01*
X9507586Y-14276129D01*
X9521871Y-14261843D01*
X9521871Y-14290414D01*
X9721871Y-13990414D02*
X9750443Y-13990414D01*
X9779014Y-14004700D01*
X9793300Y-14018986D01*
X9807586Y-14047557D01*
X9821871Y-14104700D01*
X9821871Y-14176129D01*
X9807586Y-14233271D01*
X9793300Y-14261843D01*
X9779014Y-14276129D01*
X9750443Y-14290414D01*
X9721871Y-14290414D01*
X9693300Y-14276129D01*
X9679014Y-14261843D01*
X9664728Y-14233271D01*
X9650443Y-14176129D01*
X9650443Y-14104700D01*
X9664728Y-14047557D01*
X9679014Y-14018986D01*
X9693300Y-14004700D01*
X9721871Y-13990414D01*
X9921871Y-13990414D02*
X10107586Y-13990414D01*
X10007586Y-14104700D01*
X10050443Y-14104700D01*
X10079014Y-14118986D01*
X10093300Y-14133271D01*
X10107586Y-14161843D01*
X10107586Y-14233271D01*
X10093300Y-14261843D01*
X10079014Y-14276129D01*
X10050443Y-14290414D01*
X9964728Y-14290414D01*
X9936157Y-14276129D01*
X9921871Y-14261843D01*
X10250443Y-14290414D02*
X10307586Y-14290414D01*
X10336157Y-14276129D01*
X10350443Y-14261843D01*
X10379014Y-14218986D01*
X10393300Y-14161843D01*
X10393300Y-14047557D01*
X10379014Y-14018986D01*
X10364728Y-14004700D01*
X10336157Y-13990414D01*
X10279014Y-13990414D01*
X10250443Y-14004700D01*
X10236157Y-14018986D01*
X10221871Y-14047557D01*
X10221871Y-14118986D01*
X10236157Y-14147557D01*
X10250443Y-14161843D01*
X10279014Y-14176129D01*
X10336157Y-14176129D01*
X10364728Y-14161843D01*
X10379014Y-14147557D01*
X10393300Y-14118986D01*
X10507586Y-13990414D02*
X10507586Y-14047557D01*
X10621871Y-13990414D02*
X10621871Y-14047557D01*
X11064728Y-14404700D02*
X11050443Y-14390414D01*
X11021871Y-14347557D01*
X11007586Y-14318986D01*
X10993300Y-14276129D01*
X10979014Y-14204700D01*
X10979014Y-14147557D01*
X10993300Y-14076129D01*
X11007586Y-14033271D01*
X11021871Y-14004700D01*
X11050443Y-13961843D01*
X11064728Y-13947557D01*
X11336157Y-14290414D02*
X11164728Y-14290414D01*
X11250443Y-14290414D02*
X11250443Y-13990414D01*
X11221871Y-14033271D01*
X11193300Y-14061843D01*
X11164728Y-14076129D01*
X11436157Y-13990414D02*
X11636157Y-13990414D01*
X11507585Y-14290414D01*
X11764728Y-14290414D02*
X11821871Y-14290414D01*
X11850443Y-14276129D01*
X11864728Y-14261843D01*
X11893300Y-14218986D01*
X11907585Y-14161843D01*
X11907585Y-14047557D01*
X11893300Y-14018986D01*
X11879014Y-14004700D01*
X11850443Y-13990414D01*
X11793300Y-13990414D01*
X11764728Y-14004700D01*
X11750443Y-14018986D01*
X11736157Y-14047557D01*
X11736157Y-14118986D01*
X11750443Y-14147557D01*
X11764728Y-14161843D01*
X11793300Y-14176129D01*
X11850443Y-14176129D01*
X11879014Y-14161843D01*
X11893300Y-14147557D01*
X11907585Y-14118986D01*
X12264728Y-14290414D02*
X12264728Y-13990414D01*
X12393300Y-14290414D02*
X12393300Y-14133271D01*
X12379014Y-14104700D01*
X12350443Y-14090414D01*
X12307585Y-14090414D01*
X12279014Y-14104700D01*
X12264728Y-14118986D01*
X12579014Y-14290414D02*
X12550443Y-14276129D01*
X12536157Y-14261843D01*
X12521871Y-14233271D01*
X12521871Y-14147557D01*
X12536157Y-14118986D01*
X12550443Y-14104700D01*
X12579014Y-14090414D01*
X12621871Y-14090414D01*
X12650443Y-14104700D01*
X12664728Y-14118986D01*
X12679014Y-14147557D01*
X12679014Y-14233271D01*
X12664728Y-14261843D01*
X12650443Y-14276129D01*
X12621871Y-14290414D01*
X12579014Y-14290414D01*
X12850443Y-14290414D02*
X12821871Y-14276129D01*
X12807586Y-14247557D01*
X12807586Y-13990414D01*
X13079014Y-14276129D02*
X13050443Y-14290414D01*
X12993300Y-14290414D01*
X12964728Y-14276129D01*
X12950443Y-14247557D01*
X12950443Y-14133271D01*
X12964728Y-14104700D01*
X12993300Y-14090414D01*
X13050443Y-14090414D01*
X13079014Y-14104700D01*
X13093300Y-14133271D01*
X13093300Y-14161843D01*
X12950443Y-14190414D01*
X13207586Y-14276129D02*
X13236157Y-14290414D01*
X13293300Y-14290414D01*
X13321871Y-14276129D01*
X13336157Y-14247557D01*
X13336157Y-14233271D01*
X13321871Y-14204700D01*
X13293300Y-14190414D01*
X13250443Y-14190414D01*
X13221871Y-14176129D01*
X13207586Y-14147557D01*
X13207586Y-14133271D01*
X13221871Y-14104700D01*
X13250443Y-14090414D01*
X13293300Y-14090414D01*
X13321871Y-14104700D01*
X13436157Y-14404700D02*
X13450443Y-14390414D01*
X13479014Y-14347557D01*
X13493300Y-14318986D01*
X13507586Y-14276129D01*
X13521871Y-14204700D01*
X13521871Y-14147557D01*
X13507586Y-14076129D01*
X13493300Y-14033271D01*
X13479014Y-14004700D01*
X13450443Y-13961843D01*
X13436157Y-13947557D01*
X6349367Y-14656767D02*
X6349367Y-14444633D01*
X6137233Y-14444633D01*
X6137233Y-14656767D01*
X6349367Y-14656767D01*
X6636157Y-14386414D02*
X6821871Y-14386414D01*
X6721871Y-14500700D01*
X6764728Y-14500700D01*
X6793300Y-14514986D01*
X6807586Y-14529271D01*
X6821871Y-14557843D01*
X6821871Y-14629271D01*
X6807586Y-14657843D01*
X6793300Y-14672129D01*
X6764728Y-14686414D01*
X6679014Y-14686414D01*
X6650443Y-14672129D01*
X6636157Y-14657843D01*
X6950443Y-14657843D02*
X6964728Y-14672129D01*
X6950443Y-14686414D01*
X6936157Y-14672129D01*
X6950443Y-14657843D01*
X6950443Y-14686414D01*
X7150443Y-14386414D02*
X7179014Y-14386414D01*
X7207586Y-14400700D01*
X7221871Y-14414986D01*
X7236157Y-14443557D01*
X7250443Y-14500700D01*
X7250443Y-14572129D01*
X7236157Y-14629271D01*
X7221871Y-14657843D01*
X7207586Y-14672129D01*
X7179014Y-14686414D01*
X7150443Y-14686414D01*
X7121871Y-14672129D01*
X7107586Y-14657843D01*
X7093300Y-14629271D01*
X7079014Y-14572129D01*
X7079014Y-14500700D01*
X7093300Y-14443557D01*
X7107586Y-14414986D01*
X7121871Y-14400700D01*
X7150443Y-14386414D01*
X7436157Y-14386414D02*
X7464728Y-14386414D01*
X7493300Y-14400700D01*
X7507586Y-14414986D01*
X7521871Y-14443557D01*
X7536157Y-14500700D01*
X7536157Y-14572129D01*
X7521871Y-14629271D01*
X7507586Y-14657843D01*
X7493300Y-14672129D01*
X7464728Y-14686414D01*
X7436157Y-14686414D01*
X7407586Y-14672129D01*
X7393300Y-14657843D01*
X7379014Y-14629271D01*
X7364728Y-14572129D01*
X7364728Y-14500700D01*
X7379014Y-14443557D01*
X7393300Y-14414986D01*
X7407586Y-14400700D01*
X7436157Y-14386414D01*
X7664728Y-14686414D02*
X7664728Y-14486414D01*
X7664728Y-14514986D02*
X7679014Y-14500700D01*
X7707586Y-14486414D01*
X7750443Y-14486414D01*
X7779014Y-14500700D01*
X7793300Y-14529271D01*
X7793300Y-14686414D01*
X7793300Y-14529271D02*
X7807586Y-14500700D01*
X7836157Y-14486414D01*
X7879014Y-14486414D01*
X7907586Y-14500700D01*
X7921871Y-14529271D01*
X7921871Y-14686414D01*
X8064728Y-14686414D02*
X8064728Y-14486414D01*
X8064728Y-14514986D02*
X8079014Y-14500700D01*
X8107586Y-14486414D01*
X8150443Y-14486414D01*
X8179014Y-14500700D01*
X8193300Y-14529271D01*
X8193300Y-14686414D01*
X8193300Y-14529271D02*
X8207586Y-14500700D01*
X8236157Y-14486414D01*
X8279014Y-14486414D01*
X8307586Y-14500700D01*
X8321871Y-14529271D01*
X8321871Y-14686414D01*
X8907586Y-14372129D02*
X8650443Y-14757843D01*
X9293300Y-14386414D02*
X9321871Y-14386414D01*
X9350443Y-14400700D01*
X9364728Y-14414986D01*
X9379014Y-14443557D01*
X9393300Y-14500700D01*
X9393300Y-14572129D01*
X9379014Y-14629271D01*
X9364728Y-14657843D01*
X9350443Y-14672129D01*
X9321871Y-14686414D01*
X9293300Y-14686414D01*
X9264728Y-14672129D01*
X9250443Y-14657843D01*
X9236157Y-14629271D01*
X9221871Y-14572129D01*
X9221871Y-14500700D01*
X9236157Y-14443557D01*
X9250443Y-14414986D01*
X9264728Y-14400700D01*
X9293300Y-14386414D01*
X9521871Y-14657843D02*
X9536157Y-14672129D01*
X9521871Y-14686414D01*
X9507586Y-14672129D01*
X9521871Y-14657843D01*
X9521871Y-14686414D01*
X9821871Y-14686414D02*
X9650443Y-14686414D01*
X9736157Y-14686414D02*
X9736157Y-14386414D01*
X9707586Y-14429271D01*
X9679014Y-14457843D01*
X9650443Y-14472129D01*
X10107586Y-14686414D02*
X9936157Y-14686414D01*
X10021871Y-14686414D02*
X10021871Y-14386414D01*
X9993300Y-14429271D01*
X9964728Y-14457843D01*
X9936157Y-14472129D01*
X10279014Y-14514986D02*
X10250443Y-14500700D01*
X10236157Y-14486414D01*
X10221871Y-14457843D01*
X10221871Y-14443557D01*
X10236157Y-14414986D01*
X10250443Y-14400700D01*
X10279014Y-14386414D01*
X10336157Y-14386414D01*
X10364728Y-14400700D01*
X10379014Y-14414986D01*
X10393300Y-14443557D01*
X10393300Y-14457843D01*
X10379014Y-14486414D01*
X10364728Y-14500700D01*
X10336157Y-14514986D01*
X10279014Y-14514986D01*
X10250443Y-14529271D01*
X10236157Y-14543557D01*
X10221871Y-14572129D01*
X10221871Y-14629271D01*
X10236157Y-14657843D01*
X10250443Y-14672129D01*
X10279014Y-14686414D01*
X10336157Y-14686414D01*
X10364728Y-14672129D01*
X10379014Y-14657843D01*
X10393300Y-14629271D01*
X10393300Y-14572129D01*
X10379014Y-14543557D01*
X10364728Y-14529271D01*
X10336157Y-14514986D01*
X10507586Y-14386414D02*
X10507586Y-14443557D01*
X10621871Y-14386414D02*
X10621871Y-14443557D01*
X11064728Y-14800700D02*
X11050443Y-14786414D01*
X11021871Y-14743557D01*
X11007586Y-14714986D01*
X10993300Y-14672129D01*
X10979014Y-14600700D01*
X10979014Y-14543557D01*
X10993300Y-14472129D01*
X11007586Y-14429271D01*
X11021871Y-14400700D01*
X11050443Y-14357843D01*
X11064728Y-14343557D01*
X11164728Y-14414986D02*
X11179014Y-14400700D01*
X11207585Y-14386414D01*
X11279014Y-14386414D01*
X11307585Y-14400700D01*
X11321871Y-14414986D01*
X11336157Y-14443557D01*
X11336157Y-14472129D01*
X11321871Y-14514986D01*
X11150443Y-14686414D01*
X11336157Y-14686414D01*
X11693300Y-14686414D02*
X11693300Y-14386414D01*
X11821871Y-14686414D02*
X11821871Y-14529271D01*
X11807585Y-14500700D01*
X11779014Y-14486414D01*
X11736157Y-14486414D01*
X11707585Y-14500700D01*
X11693300Y-14514986D01*
X12007585Y-14686414D02*
X11979014Y-14672129D01*
X11964728Y-14657843D01*
X11950443Y-14629271D01*
X11950443Y-14543557D01*
X11964728Y-14514986D01*
X11979014Y-14500700D01*
X12007585Y-14486414D01*
X12050443Y-14486414D01*
X12079014Y-14500700D01*
X12093300Y-14514986D01*
X12107585Y-14543557D01*
X12107585Y-14629271D01*
X12093300Y-14657843D01*
X12079014Y-14672129D01*
X12050443Y-14686414D01*
X12007585Y-14686414D01*
X12279014Y-14686414D02*
X12250443Y-14672129D01*
X12236157Y-14643557D01*
X12236157Y-14386414D01*
X12507586Y-14672129D02*
X12479014Y-14686414D01*
X12421871Y-14686414D01*
X12393300Y-14672129D01*
X12379014Y-14643557D01*
X12379014Y-14529271D01*
X12393300Y-14500700D01*
X12421871Y-14486414D01*
X12479014Y-14486414D01*
X12507586Y-14500700D01*
X12521871Y-14529271D01*
X12521871Y-14557843D01*
X12379014Y-14586414D01*
X12636157Y-14672129D02*
X12664728Y-14686414D01*
X12721871Y-14686414D01*
X12750443Y-14672129D01*
X12764728Y-14643557D01*
X12764728Y-14629271D01*
X12750443Y-14600700D01*
X12721871Y-14586414D01*
X12679014Y-14586414D01*
X12650443Y-14572129D01*
X12636157Y-14543557D01*
X12636157Y-14529271D01*
X12650443Y-14500700D01*
X12679014Y-14486414D01*
X12721871Y-14486414D01*
X12750443Y-14500700D01*
X12864728Y-14800700D02*
X12879014Y-14786414D01*
X12907586Y-14743557D01*
X12921871Y-14714986D01*
X12936157Y-14672129D01*
X12950443Y-14600700D01*
X12950443Y-14543557D01*
X12936157Y-14472129D01*
X12921871Y-14429271D01*
X12907586Y-14400700D01*
X12879014Y-14357843D01*
X12864728Y-14343557D01*
X6193275Y-15180725D02*
X6393300Y-14980700D01*
X6193275Y-14780675D01*
X5993250Y-14980700D01*
X6193275Y-15180725D01*
X6793300Y-14916414D02*
X6793300Y-15116414D01*
X6721871Y-14802129D02*
X6650443Y-15016414D01*
X6836157Y-15016414D01*
X6950443Y-15087843D02*
X6964728Y-15102129D01*
X6950443Y-15116414D01*
X6936157Y-15102129D01*
X6950443Y-15087843D01*
X6950443Y-15116414D01*
X7150443Y-14816414D02*
X7179014Y-14816414D01*
X7207586Y-14830700D01*
X7221871Y-14844986D01*
X7236157Y-14873557D01*
X7250443Y-14930700D01*
X7250443Y-15002129D01*
X7236157Y-15059271D01*
X7221871Y-15087843D01*
X7207586Y-15102129D01*
X7179014Y-15116414D01*
X7150443Y-15116414D01*
X7121871Y-15102129D01*
X7107586Y-15087843D01*
X7093300Y-15059271D01*
X7079014Y-15002129D01*
X7079014Y-14930700D01*
X7093300Y-14873557D01*
X7107586Y-14844986D01*
X7121871Y-14830700D01*
X7150443Y-14816414D01*
X7436157Y-14816414D02*
X7464728Y-14816414D01*
X7493300Y-14830700D01*
X7507586Y-14844986D01*
X7521871Y-14873557D01*
X7536157Y-14930700D01*
X7536157Y-15002129D01*
X7521871Y-15059271D01*
X7507586Y-15087843D01*
X7493300Y-15102129D01*
X7464728Y-15116414D01*
X7436157Y-15116414D01*
X7407586Y-15102129D01*
X7393300Y-15087843D01*
X7379014Y-15059271D01*
X7364728Y-15002129D01*
X7364728Y-14930700D01*
X7379014Y-14873557D01*
X7393300Y-14844986D01*
X7407586Y-14830700D01*
X7436157Y-14816414D01*
X7664728Y-15116414D02*
X7664728Y-14916414D01*
X7664728Y-14944986D02*
X7679014Y-14930700D01*
X7707586Y-14916414D01*
X7750443Y-14916414D01*
X7779014Y-14930700D01*
X7793300Y-14959271D01*
X7793300Y-15116414D01*
X7793300Y-14959271D02*
X7807586Y-14930700D01*
X7836157Y-14916414D01*
X7879014Y-14916414D01*
X7907586Y-14930700D01*
X7921871Y-14959271D01*
X7921871Y-15116414D01*
X8064728Y-15116414D02*
X8064728Y-14916414D01*
X8064728Y-14944986D02*
X8079014Y-14930700D01*
X8107586Y-14916414D01*
X8150443Y-14916414D01*
X8179014Y-14930700D01*
X8193300Y-14959271D01*
X8193300Y-15116414D01*
X8193300Y-14959271D02*
X8207586Y-14930700D01*
X8236157Y-14916414D01*
X8279014Y-14916414D01*
X8307586Y-14930700D01*
X8321871Y-14959271D01*
X8321871Y-15116414D01*
X8907586Y-14802129D02*
X8650443Y-15187843D01*
X9293300Y-14816414D02*
X9321871Y-14816414D01*
X9350443Y-14830700D01*
X9364728Y-14844986D01*
X9379014Y-14873557D01*
X9393300Y-14930700D01*
X9393300Y-15002129D01*
X9379014Y-15059271D01*
X9364728Y-15087843D01*
X9350443Y-15102129D01*
X9321871Y-15116414D01*
X9293300Y-15116414D01*
X9264728Y-15102129D01*
X9250443Y-15087843D01*
X9236157Y-15059271D01*
X9221871Y-15002129D01*
X9221871Y-14930700D01*
X9236157Y-14873557D01*
X9250443Y-14844986D01*
X9264728Y-14830700D01*
X9293300Y-14816414D01*
X9521871Y-15087843D02*
X9536157Y-15102129D01*
X9521871Y-15116414D01*
X9507586Y-15102129D01*
X9521871Y-15087843D01*
X9521871Y-15116414D01*
X9821871Y-15116414D02*
X9650443Y-15116414D01*
X9736157Y-15116414D02*
X9736157Y-14816414D01*
X9707586Y-14859271D01*
X9679014Y-14887843D01*
X9650443Y-14902129D01*
X10093300Y-14816414D02*
X9950443Y-14816414D01*
X9936157Y-14959271D01*
X9950443Y-14944986D01*
X9979014Y-14930700D01*
X10050443Y-14930700D01*
X10079014Y-14944986D01*
X10093300Y-14959271D01*
X10107586Y-14987843D01*
X10107586Y-15059271D01*
X10093300Y-15087843D01*
X10079014Y-15102129D01*
X10050443Y-15116414D01*
X9979014Y-15116414D01*
X9950443Y-15102129D01*
X9936157Y-15087843D01*
X10279014Y-14944986D02*
X10250443Y-14930700D01*
X10236157Y-14916414D01*
X10221871Y-14887843D01*
X10221871Y-14873557D01*
X10236157Y-14844986D01*
X10250443Y-14830700D01*
X10279014Y-14816414D01*
X10336157Y-14816414D01*
X10364728Y-14830700D01*
X10379014Y-14844986D01*
X10393300Y-14873557D01*
X10393300Y-14887843D01*
X10379014Y-14916414D01*
X10364728Y-14930700D01*
X10336157Y-14944986D01*
X10279014Y-14944986D01*
X10250443Y-14959271D01*
X10236157Y-14973557D01*
X10221871Y-15002129D01*
X10221871Y-15059271D01*
X10236157Y-15087843D01*
X10250443Y-15102129D01*
X10279014Y-15116414D01*
X10336157Y-15116414D01*
X10364728Y-15102129D01*
X10379014Y-15087843D01*
X10393300Y-15059271D01*
X10393300Y-15002129D01*
X10379014Y-14973557D01*
X10364728Y-14959271D01*
X10336157Y-14944986D01*
X10507586Y-14816414D02*
X10507586Y-14873557D01*
X10621871Y-14816414D02*
X10621871Y-14873557D01*
X11064728Y-15230700D02*
X11050443Y-15216414D01*
X11021871Y-15173557D01*
X11007586Y-15144986D01*
X10993300Y-15102129D01*
X10979014Y-15030700D01*
X10979014Y-14973557D01*
X10993300Y-14902129D01*
X11007586Y-14859271D01*
X11021871Y-14830700D01*
X11050443Y-14787843D01*
X11064728Y-14773557D01*
X11307585Y-14916414D02*
X11307585Y-15116414D01*
X11236157Y-14802129D02*
X11164728Y-15016414D01*
X11350443Y-15016414D01*
X11693300Y-15116414D02*
X11693300Y-14816414D01*
X11821871Y-15116414D02*
X11821871Y-14959271D01*
X11807585Y-14930700D01*
X11779014Y-14916414D01*
X11736157Y-14916414D01*
X11707585Y-14930700D01*
X11693300Y-14944986D01*
X12007585Y-15116414D02*
X11979014Y-15102129D01*
X11964728Y-15087843D01*
X11950443Y-15059271D01*
X11950443Y-14973557D01*
X11964728Y-14944986D01*
X11979014Y-14930700D01*
X12007585Y-14916414D01*
X12050443Y-14916414D01*
X12079014Y-14930700D01*
X12093300Y-14944986D01*
X12107585Y-14973557D01*
X12107585Y-15059271D01*
X12093300Y-15087843D01*
X12079014Y-15102129D01*
X12050443Y-15116414D01*
X12007585Y-15116414D01*
X12279014Y-15116414D02*
X12250443Y-15102129D01*
X12236157Y-15073557D01*
X12236157Y-14816414D01*
X12507586Y-15102129D02*
X12479014Y-15116414D01*
X12421871Y-15116414D01*
X12393300Y-15102129D01*
X12379014Y-15073557D01*
X12379014Y-14959271D01*
X12393300Y-14930700D01*
X12421871Y-14916414D01*
X12479014Y-14916414D01*
X12507586Y-14930700D01*
X12521871Y-14959271D01*
X12521871Y-14987843D01*
X12379014Y-15016414D01*
X12636157Y-15102129D02*
X12664728Y-15116414D01*
X12721871Y-15116414D01*
X12750443Y-15102129D01*
X12764728Y-15073557D01*
X12764728Y-15059271D01*
X12750443Y-15030700D01*
X12721871Y-15016414D01*
X12679014Y-15016414D01*
X12650443Y-15002129D01*
X12636157Y-14973557D01*
X12636157Y-14959271D01*
X12650443Y-14930700D01*
X12679014Y-14916414D01*
X12721871Y-14916414D01*
X12750443Y-14930700D01*
X12864728Y-15230700D02*
X12879014Y-15216414D01*
X12907586Y-15173557D01*
X12921871Y-15144986D01*
X12936157Y-15102129D01*
X12950443Y-15030700D01*
X12950443Y-14973557D01*
X12936157Y-14902129D01*
X12921871Y-14859271D01*
X12907586Y-14830700D01*
X12879014Y-14787843D01*
X12864728Y-14773557D01*
M02*
