M48
;DRILL file {KiCad 4.0.0-rc1-stable} date mer. 14 oct. 2015 22:56:34 CEST
;FORMAT={-:-/ absolute / inch / decimal}
FMAT,2
INCH,TZ
T1C0.024
T2C0.031
T3C0.039
T4C0.118
T5C0.158
%
G90
G05
M72
T1
X2.715Y-1.57
X2.715Y-4.68
X2.889Y-4.494
X2.936Y-4.541
X2.957Y-3.438
X2.961Y-3.956
X2.966Y-3.69
X2.969Y-4.226
X3.024Y-2.688
X3.031Y-2.987
X3.047Y-2.152
X3.14Y-2.314
X3.14Y-3.415
X3.255Y-3.1
X3.359Y-2.504
X3.445Y-2.6325
X3.485Y-4.01
X3.49Y-3.845
X3.534Y-2.632
X3.544Y-2.547
X3.6125Y-2.385
X3.625Y-3.9325
X3.71Y-3.745
X3.725Y-3.129
X3.725Y-3.2
X3.729Y-3.056
X3.752Y-2.306
X3.775Y-3.695
X3.823Y-2.748
X3.85Y-3.25
X3.86Y-2.825
X3.86Y-3.35
X3.92Y-2.879
X3.94Y-3.65
X3.96Y-4.285
X3.964Y-2.308
X3.97Y-4.195
X3.982Y-2.76
X4.029Y-2.828
X4.035Y-2.31
X4.105Y-4.24
X4.125Y-3.169
X4.125Y-3.7625
X4.17Y-2.235
X4.186Y-3.658
X4.19Y-3.53
X4.195Y-3.76
X4.255Y-3.615
X4.46Y-3.55
X4.46Y-3.62
X4.534Y-3.551
X4.534Y-3.62
X4.59Y-3.4
X4.595Y-3.
X4.84Y-2.49
X4.8412Y-4.6174
X4.85Y-2.59
X4.875Y-2.66
X4.879Y-4.5508
X4.88Y-4.33
X4.9056Y-4.22
X4.99Y-4.035
X4.99Y-4.11
X5.0908Y-4.4184
X5.16Y-3.81
X5.19Y-3.95
X5.235Y-2.51
X5.245Y-3.82
X5.322Y-2.832
X5.325Y-4.025
X5.326Y-2.953
X5.33Y-4.205
X5.335Y-2.455
X5.39Y-4.375
X5.412Y-2.444
X5.455Y-3.19
X5.46Y-3.32
X5.505Y-3.75
X5.5125Y-4.3025
X5.521Y-2.903
X5.527Y-3.013
X5.55Y-4.745
X5.554Y-2.395
X5.555Y-3.255
X5.555Y-3.695
X5.555Y-4.14
X5.591Y-2.334
X5.605Y-3.885
X5.605Y-4.5025
X5.607Y-1.711
X5.624Y-3.012
X5.625Y-4.405
X5.645Y-2.225
X5.645Y-2.64
X5.645Y-2.935
X5.673Y-1.984
X5.685Y-2.755
X5.69Y-4.355
X5.697Y-2.268
X5.74Y-2.955
X5.775Y-3.895
X5.785Y-3.46
X5.82Y-1.57
X5.825Y-4.68
X5.85Y-2.79
X5.875Y-4.385
X5.876Y-4.311
X5.95Y-4.311
X5.951Y-4.385
T2
X4.385Y-4.275
X4.435Y-4.375
X4.485Y-4.275
X4.535Y-4.375
X4.585Y-4.275
X4.635Y-4.375
T3
X2.595Y-3.705
X2.595Y-3.98
X2.595Y-4.255
X2.6Y-2.07
X2.6Y-2.34
X2.6Y-2.89
X2.6Y-3.165
X2.6Y-3.435
X2.605Y-2.615
X2.695Y-3.705
X2.695Y-3.98
X2.695Y-4.255
X2.7Y-2.07
X2.7Y-2.34
X2.7Y-2.89
X2.7Y-3.165
X2.7Y-3.435
X2.705Y-2.615
X2.795Y-3.705
X2.795Y-3.98
X2.795Y-4.255
X2.8Y-2.07
X2.8Y-2.34
X2.8Y-2.89
X2.8Y-3.165
X2.8Y-3.435
X2.805Y-2.615
X3.115Y-1.705
X3.115Y-1.805
X3.13Y-4.55
X3.13Y-4.65
X3.215Y-1.705
X3.215Y-1.805
X3.23Y-4.55
X3.23Y-4.65
X3.315Y-1.705
X3.315Y-1.805
X3.33Y-4.55
X3.33Y-4.65
X3.415Y-1.705
X3.415Y-1.805
X3.43Y-4.55
X3.43Y-4.65
X3.445Y-2.9
X3.445Y-3.
X3.445Y-3.1
X3.445Y-3.2
X3.445Y-3.3
X3.445Y-3.4
X3.445Y-3.5
X3.445Y-3.6
X3.515Y-1.705
X3.515Y-1.805
X3.53Y-4.55
X3.53Y-4.65
X3.545Y-2.9
X3.545Y-3.
X3.545Y-3.1
X3.545Y-3.2
X3.545Y-3.3
X3.545Y-3.4
X3.545Y-3.5
X3.545Y-3.6
X3.615Y-1.705
X3.615Y-1.805
X3.63Y-4.55
X3.63Y-4.65
X3.715Y-1.705
X3.715Y-1.805
X3.73Y-4.55
X3.73Y-4.65
X3.815Y-1.705
X3.815Y-1.805
X3.83Y-4.55
X3.83Y-4.65
X3.87Y-2.47
X3.87Y-2.57
X3.87Y-3.9349
X3.87Y-4.0349
X3.97Y-2.47
X3.97Y-2.57
X3.97Y-3.9349
X3.97Y-4.0349
X4.07Y-2.47
X4.07Y-2.57
X4.07Y-3.9349
X4.07Y-4.0349
X4.17Y-2.47
X4.17Y-2.57
X4.17Y-3.9349
X4.17Y-4.0349
X4.245Y-1.705
X4.245Y-1.805
X4.27Y-2.47
X4.27Y-2.57
X4.27Y-3.9349
X4.27Y-4.0349
X4.345Y-1.705
X4.345Y-1.805
X4.37Y-2.47
X4.37Y-2.57
X4.37Y-3.9349
X4.37Y-4.0349
X4.445Y-1.705
X4.445Y-1.805
X4.47Y-2.47
X4.47Y-2.57
X4.47Y-3.9349
X4.47Y-4.0349
X4.545Y-1.705
X4.545Y-1.805
X4.57Y-2.47
X4.57Y-2.57
X4.57Y-3.9349
X4.57Y-4.0349
X4.645Y-1.705
X4.645Y-1.805
X4.745Y-1.705
X4.745Y-1.805
X4.76Y-2.9
X4.76Y-3.
X4.76Y-3.1
X4.76Y-3.2
X4.76Y-3.3
X4.76Y-3.4
X4.76Y-3.5
X4.76Y-3.6
X4.845Y-1.705
X4.845Y-1.805
X4.86Y-2.9
X4.86Y-3.
X4.86Y-3.1
X4.86Y-3.2
X4.86Y-3.3
X4.86Y-3.4
X4.86Y-3.5
X4.86Y-3.6
X4.945Y-1.705
X4.945Y-1.805
X5.01Y-4.55
X5.01Y-4.65
X5.045Y-1.705
X5.045Y-1.805
X5.11Y-4.55
X5.11Y-4.65
X5.145Y-1.705
X5.145Y-1.805
X5.21Y-4.55
X5.21Y-4.65
X5.245Y-1.705
X5.245Y-1.805
X5.31Y-4.55
X5.31Y-4.65
X5.345Y-1.705
X5.345Y-1.805
X5.41Y-4.55
X5.41Y-4.65
X5.445Y-1.705
X5.445Y-1.805
X5.865Y-1.885
X5.865Y-1.985
X5.865Y-2.085
X5.865Y-2.185
X5.865Y-2.32
X5.865Y-2.42
X5.865Y-2.52
X5.865Y-2.62
X5.875Y-2.955
X5.875Y-3.055
X5.875Y-3.155
X5.875Y-3.255
X5.875Y-3.38
X5.875Y-3.48
X5.875Y-3.58
X5.875Y-3.68
X5.875Y-3.805
X5.875Y-3.905
X5.875Y-4.005
X5.875Y-4.105
T4
X4.31Y-4.625
X4.71Y-4.625
T5
X2.715Y-1.57
X2.715Y-4.68
X5.82Y-1.57
X5.825Y-4.68
T0
M30
