G04 #@! TF.FileFunction,Copper,L1,Top,Signal*
%FSLAX46Y46*%
G04 Gerber Fmt 4.6, Leading zero omitted, Abs format (unit mm)*
G04 Created by KiCad (PCBNEW 4.0.5+dfsg1-4) date Tue Nov 20 18:09:02 2018*
%MOMM*%
%LPD*%
G01*
G04 APERTURE LIST*
%ADD10C,0.100000*%
%ADD11C,8.999220*%
%ADD12C,2.000000*%
%ADD13R,1.998980X1.998980*%
%ADD14C,1.998980*%
%ADD15R,1.998980X1.800860*%
%ADD16C,1.800860*%
%ADD17C,1.700000*%
%ADD18C,3.251200*%
%ADD19C,1.300000*%
%ADD20C,1.000000*%
%ADD21C,0.254000*%
G04 APERTURE END LIST*
D10*
D11*
X96520000Y-52070000D03*
D12*
X96520000Y-52070000D03*
D11*
X96520000Y-142113000D03*
D12*
X96520000Y-142113000D03*
D11*
X114300000Y-112077500D03*
D12*
X114300000Y-112077500D03*
D11*
X114300000Y-52070000D03*
D12*
X114300000Y-52070000D03*
D11*
X128905000Y-122110500D03*
D12*
X128905000Y-122110500D03*
D11*
X128905000Y-52070000D03*
D12*
X128905000Y-52070000D03*
D11*
X141605000Y-52070000D03*
D12*
X141605000Y-52070000D03*
D11*
X141605000Y-92075000D03*
D12*
X141605000Y-92075000D03*
D13*
X137858500Y-75565000D03*
D14*
X140398500Y-75565000D03*
X142938500Y-75565000D03*
X145478500Y-75565000D03*
D13*
X137858500Y-61595000D03*
D14*
X140398500Y-61595000D03*
X142938500Y-61595000D03*
X145478500Y-61595000D03*
D13*
X137858500Y-82550000D03*
D14*
X140398500Y-82550000D03*
X142938500Y-82550000D03*
X145478500Y-82550000D03*
D13*
X137858500Y-68580000D03*
D14*
X140398500Y-68580000D03*
X142938500Y-68580000D03*
X145478500Y-68580000D03*
D13*
X125031500Y-111760000D03*
D14*
X127571500Y-111760000D03*
X130111500Y-111760000D03*
X132651500Y-111760000D03*
D13*
X125031500Y-104775000D03*
D14*
X127571500Y-104775000D03*
X130111500Y-104775000D03*
X132651500Y-104775000D03*
D13*
X125031500Y-97790000D03*
D14*
X127571500Y-97790000D03*
X130111500Y-97790000D03*
X132651500Y-97790000D03*
D13*
X125031500Y-62865000D03*
D14*
X127571500Y-62865000D03*
X130111500Y-62865000D03*
X132651500Y-62865000D03*
D13*
X125031500Y-90805000D03*
D14*
X127571500Y-90805000D03*
X130111500Y-90805000D03*
X132651500Y-90805000D03*
D13*
X125031500Y-69850000D03*
D14*
X127571500Y-69850000D03*
X130111500Y-69850000D03*
X132651500Y-69850000D03*
D13*
X125031500Y-83820000D03*
D14*
X127571500Y-83820000D03*
X130111500Y-83820000D03*
X132651500Y-83820000D03*
D13*
X125031500Y-76835000D03*
D14*
X127571500Y-76835000D03*
X130111500Y-76835000D03*
X132651500Y-76835000D03*
D15*
X119253000Y-95504000D03*
D14*
X119253000Y-98044000D03*
X119253000Y-100584000D03*
X119253000Y-103124000D03*
D15*
X119253000Y-84074000D03*
D14*
X119253000Y-86614000D03*
X119253000Y-89154000D03*
X119253000Y-91694000D03*
D15*
X119253000Y-72644000D03*
D14*
X119253000Y-75184000D03*
X119253000Y-77724000D03*
X119253000Y-80264000D03*
D15*
X119253000Y-61214000D03*
D14*
X119253000Y-63754000D03*
X119253000Y-66294000D03*
X119253000Y-68834000D03*
D15*
X101600000Y-93345000D03*
D14*
X101600000Y-95885000D03*
X101600000Y-98425000D03*
X101600000Y-100965000D03*
D15*
X101600000Y-59055000D03*
D14*
X101600000Y-61595000D03*
X101600000Y-64135000D03*
X101600000Y-66675000D03*
D15*
X101600000Y-81915000D03*
D14*
X101600000Y-84455000D03*
X101600000Y-86995000D03*
X101600000Y-89535000D03*
D15*
X101600000Y-70485000D03*
D14*
X101600000Y-73025000D03*
X101600000Y-75565000D03*
X101600000Y-78105000D03*
D15*
X101600000Y-116205000D03*
D14*
X101600000Y-118745000D03*
X101600000Y-121285000D03*
X101600000Y-123825000D03*
D15*
X101600000Y-127635000D03*
D14*
X101600000Y-130175000D03*
X101600000Y-132715000D03*
X101600000Y-135255000D03*
D15*
X101600000Y-104775000D03*
D14*
X101600000Y-107315000D03*
X101600000Y-109855000D03*
X101600000Y-112395000D03*
D11*
X154432000Y-52070000D03*
D12*
X154432000Y-52070000D03*
D11*
X174498000Y-52070000D03*
D12*
X174498000Y-52070000D03*
D11*
X154432000Y-122110500D03*
D12*
X154432000Y-122110500D03*
D11*
X174498000Y-122110500D03*
D12*
X174498000Y-122110500D03*
D16*
X160655000Y-109220000D03*
X160655000Y-106680000D03*
X160655000Y-111760000D03*
X163195000Y-105410000D03*
D17*
X163195000Y-107950000D03*
X163195000Y-110490000D03*
D18*
X154305000Y-113665000D03*
X154305000Y-103505000D03*
D16*
X168275000Y-107950000D03*
X168275000Y-110490000D03*
X168275000Y-105410000D03*
X165735000Y-111760000D03*
D17*
X165735000Y-109220000D03*
X165735000Y-106680000D03*
D18*
X174625000Y-103505000D03*
X174625000Y-113665000D03*
D16*
X160655000Y-94615000D03*
X160655000Y-92075000D03*
X160655000Y-97155000D03*
X163195000Y-90805000D03*
D17*
X163195000Y-93345000D03*
X163195000Y-95885000D03*
D18*
X154305000Y-99060000D03*
X154305000Y-88900000D03*
D16*
X168275000Y-93345000D03*
X168275000Y-95885000D03*
X168275000Y-90805000D03*
X165735000Y-97155000D03*
D17*
X165735000Y-94615000D03*
X165735000Y-92075000D03*
D18*
X174625000Y-88900000D03*
X174625000Y-99060000D03*
D16*
X160655000Y-80010000D03*
X160655000Y-77470000D03*
X160655000Y-82550000D03*
X163195000Y-76200000D03*
D17*
X163195000Y-78740000D03*
X163195000Y-81280000D03*
D18*
X154305000Y-84455000D03*
X154305000Y-74295000D03*
D16*
X168275000Y-78740000D03*
X168275000Y-81280000D03*
X168275000Y-76200000D03*
X165735000Y-82550000D03*
D17*
X165735000Y-80010000D03*
X165735000Y-77470000D03*
D18*
X174625000Y-74295000D03*
X174625000Y-84455000D03*
D16*
X160655000Y-65405000D03*
X160655000Y-62865000D03*
X160655000Y-67945000D03*
X163195000Y-61595000D03*
D17*
X163195000Y-64135000D03*
X163195000Y-66675000D03*
D18*
X154305000Y-69850000D03*
X154305000Y-59690000D03*
D16*
X168275000Y-64135000D03*
X168275000Y-66675000D03*
X168275000Y-61595000D03*
X165735000Y-67945000D03*
D17*
X165735000Y-65405000D03*
X165735000Y-62865000D03*
D18*
X174625000Y-59690000D03*
X174625000Y-69850000D03*
D19*
X98425000Y-70485000D03*
X98425000Y-81915000D03*
X98425000Y-93345000D03*
X98425000Y-104775000D03*
X98425000Y-116205000D03*
X98425000Y-127635000D03*
X98425000Y-59055000D03*
X95885000Y-73025000D03*
X95885000Y-84455000D03*
X95885000Y-95885000D03*
X95885000Y-107315000D03*
X95885000Y-118745000D03*
X95885000Y-61595000D03*
X95885000Y-130175000D03*
X93345000Y-75565000D03*
X93345000Y-86995000D03*
X93345000Y-98425000D03*
X93345000Y-109855000D03*
X93345000Y-121285000D03*
X93345000Y-64135000D03*
X93345000Y-132715000D03*
X90805000Y-78105000D03*
X90805000Y-89535000D03*
X90805000Y-100965000D03*
X90805000Y-112395000D03*
X90805000Y-123825000D03*
X90805000Y-135255000D03*
X90805000Y-66675000D03*
X101600000Y-135255000D03*
X116078000Y-84074000D03*
X116078000Y-72644000D03*
X116078000Y-95504000D03*
X116078000Y-61214000D03*
X113538000Y-86614000D03*
X113538000Y-75184000D03*
X113538000Y-98044000D03*
X113538000Y-63754000D03*
X110998000Y-89154000D03*
X110998000Y-77724000D03*
X110998000Y-66294000D03*
X110998000Y-100584000D03*
X108458000Y-91694000D03*
X108458000Y-80264000D03*
X108458000Y-103124000D03*
X108458000Y-68834000D03*
D20*
X98425000Y-59055000D02*
X98425000Y-70485000D01*
X98425000Y-70485000D02*
X98425000Y-81915000D01*
X98425000Y-81915000D02*
X98425000Y-93345000D01*
X98425000Y-93345000D02*
X98425000Y-104775000D01*
X98425000Y-104775000D02*
X98425000Y-116205000D01*
X98425000Y-116205000D02*
X98425000Y-127635000D01*
X95885000Y-130175000D02*
X95885000Y-118745000D01*
X95885000Y-118745000D02*
X95885000Y-107315000D01*
X95885000Y-107315000D02*
X95885000Y-95885000D01*
X95885000Y-95885000D02*
X95885000Y-84455000D01*
X95885000Y-84455000D02*
X95885000Y-73025000D01*
X95885000Y-73025000D02*
X95885000Y-61595000D01*
X93345000Y-132715000D02*
X93345000Y-121285000D01*
X93345000Y-121285000D02*
X93345000Y-109855000D01*
X93345000Y-109855000D02*
X93345000Y-98425000D01*
X93345000Y-98425000D02*
X93345000Y-86995000D01*
X93345000Y-86995000D02*
X93345000Y-75565000D01*
X93345000Y-75565000D02*
X93345000Y-64135000D01*
X90805000Y-66675000D02*
X90805000Y-78105000D01*
X90805000Y-78105000D02*
X90805000Y-89535000D01*
X90805000Y-89535000D02*
X90805000Y-100965000D01*
X90805000Y-100965000D02*
X90805000Y-112395000D01*
X90805000Y-112395000D02*
X90805000Y-123825000D01*
X90805000Y-123825000D02*
X90805000Y-135255000D01*
X116078000Y-61214000D02*
X116078000Y-72644000D01*
X116078000Y-72644000D02*
X116078000Y-84074000D01*
X116078000Y-84074000D02*
X116078000Y-95504000D01*
X113538000Y-63754000D02*
X113538000Y-75184000D01*
X113538000Y-75184000D02*
X113538000Y-86614000D01*
X113538000Y-86614000D02*
X113538000Y-98044000D01*
X110998000Y-100584000D02*
X110998000Y-89154000D01*
X110998000Y-89154000D02*
X110998000Y-77724000D01*
X110998000Y-77724000D02*
X110998000Y-66294000D01*
X108458000Y-68834000D02*
X108458000Y-80264000D01*
X108458000Y-80264000D02*
X108458000Y-91694000D01*
X108458000Y-91694000D02*
X108458000Y-103124000D01*
D21*
G36*
X93615277Y-47714551D02*
X92169628Y-49157680D01*
X91386283Y-51044182D01*
X91384501Y-53086856D01*
X92164551Y-54974723D01*
X93607680Y-56420372D01*
X95494182Y-57203717D01*
X97536856Y-57205499D01*
X99424723Y-56425449D01*
X100870372Y-54982320D01*
X101653717Y-53095818D01*
X101655499Y-51053144D01*
X100875449Y-49165277D01*
X99432320Y-47719628D01*
X99385051Y-47700000D01*
X111430493Y-47700000D01*
X111395277Y-47714551D01*
X109949628Y-49157680D01*
X109166283Y-51044182D01*
X109164501Y-53086856D01*
X109944551Y-54974723D01*
X111387680Y-56420372D01*
X113274182Y-57203717D01*
X115316856Y-57205499D01*
X117204723Y-56425449D01*
X118650372Y-54982320D01*
X119433717Y-53095818D01*
X119435499Y-51053144D01*
X118655449Y-49165277D01*
X117212320Y-47719628D01*
X117165051Y-47700000D01*
X126035493Y-47700000D01*
X126000277Y-47714551D01*
X124554628Y-49157680D01*
X123771283Y-51044182D01*
X123769501Y-53086856D01*
X124549551Y-54974723D01*
X125992680Y-56420372D01*
X127879182Y-57203717D01*
X129921856Y-57205499D01*
X131809723Y-56425449D01*
X133255372Y-54982320D01*
X134038717Y-53095818D01*
X134040499Y-51053144D01*
X133260449Y-49165277D01*
X131817320Y-47719628D01*
X131770051Y-47700000D01*
X138735493Y-47700000D01*
X138700277Y-47714551D01*
X137254628Y-49157680D01*
X136471283Y-51044182D01*
X136469501Y-53086856D01*
X137249551Y-54974723D01*
X138692680Y-56420372D01*
X140579182Y-57203717D01*
X142621856Y-57205499D01*
X144509723Y-56425449D01*
X145955372Y-54982320D01*
X146738717Y-53095818D01*
X146740499Y-51053144D01*
X145960449Y-49165277D01*
X144517320Y-47719628D01*
X144470051Y-47700000D01*
X151562493Y-47700000D01*
X151527277Y-47714551D01*
X150081628Y-49157680D01*
X149298283Y-51044182D01*
X149296501Y-53086856D01*
X150076551Y-54974723D01*
X151519680Y-56420372D01*
X153406182Y-57203717D01*
X155448856Y-57205499D01*
X157336723Y-56425449D01*
X158782372Y-54982320D01*
X159565717Y-53095818D01*
X159567499Y-51053144D01*
X158787449Y-49165277D01*
X157344320Y-47719628D01*
X157297051Y-47700000D01*
X171628493Y-47700000D01*
X171593277Y-47714551D01*
X170147628Y-49157680D01*
X169364283Y-51044182D01*
X169362501Y-53086856D01*
X170142551Y-54974723D01*
X171585680Y-56420372D01*
X173472182Y-57203717D01*
X175514856Y-57205499D01*
X177402723Y-56425449D01*
X178848372Y-54982320D01*
X179503000Y-53405803D01*
X179503000Y-120777812D01*
X178853449Y-119205777D01*
X177410320Y-117760128D01*
X175523818Y-116976783D01*
X173481144Y-116975001D01*
X171593277Y-117755051D01*
X170147628Y-119198180D01*
X169364283Y-121084682D01*
X169362501Y-123127356D01*
X170142551Y-125015223D01*
X171585680Y-126460872D01*
X172244649Y-126734500D01*
X156686779Y-126734500D01*
X157336723Y-126465949D01*
X158782372Y-125022820D01*
X159565717Y-123136318D01*
X159567499Y-121093644D01*
X158787449Y-119205777D01*
X157344320Y-117760128D01*
X155457818Y-116976783D01*
X153415144Y-116975001D01*
X151527277Y-117755051D01*
X150081628Y-119198180D01*
X149935000Y-119551299D01*
X149935000Y-114112688D01*
X152044008Y-114112688D01*
X152387439Y-114943854D01*
X153022801Y-115580326D01*
X153853366Y-115925207D01*
X154752688Y-115925992D01*
X155583854Y-115582561D01*
X156220326Y-114947199D01*
X156565207Y-114116634D01*
X156565210Y-114112688D01*
X172364008Y-114112688D01*
X172707439Y-114943854D01*
X173342801Y-115580326D01*
X174173366Y-115925207D01*
X175072688Y-115925992D01*
X175903854Y-115582561D01*
X176540326Y-114947199D01*
X176885207Y-114116634D01*
X176885992Y-113217312D01*
X176542561Y-112386146D01*
X175907199Y-111749674D01*
X175076634Y-111404793D01*
X174177312Y-111404008D01*
X173346146Y-111747439D01*
X172709674Y-112382801D01*
X172364793Y-113213366D01*
X172364008Y-114112688D01*
X156565210Y-114112688D01*
X156565992Y-113217312D01*
X156222561Y-112386146D01*
X155587199Y-111749674D01*
X154756634Y-111404793D01*
X153857312Y-111404008D01*
X153026146Y-111747439D01*
X152389674Y-112382801D01*
X152044793Y-113213366D01*
X152044008Y-114112688D01*
X149935000Y-114112688D01*
X149935000Y-106984076D01*
X159119304Y-106984076D01*
X159352567Y-107548615D01*
X159753573Y-107950322D01*
X159354085Y-108349113D01*
X159119837Y-108913244D01*
X159119304Y-109524076D01*
X159352567Y-110088615D01*
X159753573Y-110490322D01*
X159354085Y-110889113D01*
X159119837Y-111453244D01*
X159119304Y-112064076D01*
X159352567Y-112628615D01*
X159784113Y-113060915D01*
X160348244Y-113295163D01*
X160959076Y-113295696D01*
X161523615Y-113062433D01*
X161955915Y-112630887D01*
X162190163Y-112066756D01*
X162190583Y-111585771D01*
X162352717Y-111748188D01*
X162898319Y-111974742D01*
X163489089Y-111975257D01*
X164035086Y-111749656D01*
X164199722Y-111585307D01*
X164199304Y-112064076D01*
X164432567Y-112628615D01*
X164864113Y-113060915D01*
X165428244Y-113295163D01*
X166039076Y-113295696D01*
X166603615Y-113062433D01*
X167035915Y-112630887D01*
X167270163Y-112066756D01*
X167270520Y-111657089D01*
X167404113Y-111790915D01*
X167968244Y-112025163D01*
X168579076Y-112025696D01*
X169143615Y-111792433D01*
X169575915Y-111360887D01*
X169810163Y-110796756D01*
X169810696Y-110185924D01*
X169577433Y-109621385D01*
X169176427Y-109219678D01*
X169575915Y-108820887D01*
X169810163Y-108256756D01*
X169810696Y-107645924D01*
X169577433Y-107081385D01*
X169176427Y-106679678D01*
X169575915Y-106280887D01*
X169810163Y-105716756D01*
X169810696Y-105105924D01*
X169577433Y-104541385D01*
X169145887Y-104109085D01*
X168581756Y-103874837D01*
X167970924Y-103874304D01*
X167406385Y-104107567D01*
X166974085Y-104539113D01*
X166739837Y-105103244D01*
X166739417Y-105584229D01*
X166577283Y-105421812D01*
X166031681Y-105195258D01*
X165440911Y-105194743D01*
X164894914Y-105420344D01*
X164730278Y-105584693D01*
X164730696Y-105105924D01*
X164497433Y-104541385D01*
X164065887Y-104109085D01*
X163501756Y-103874837D01*
X162890924Y-103874304D01*
X162326385Y-104107567D01*
X161894085Y-104539113D01*
X161659837Y-105103244D01*
X161659480Y-105512911D01*
X161525887Y-105379085D01*
X160961756Y-105144837D01*
X160350924Y-105144304D01*
X159786385Y-105377567D01*
X159354085Y-105809113D01*
X159119837Y-106373244D01*
X159119304Y-106984076D01*
X149935000Y-106984076D01*
X149935000Y-99507688D01*
X152044008Y-99507688D01*
X152387439Y-100338854D01*
X153022801Y-100975326D01*
X153763354Y-101282831D01*
X153026146Y-101587439D01*
X152389674Y-102222801D01*
X152044793Y-103053366D01*
X152044008Y-103952688D01*
X152387439Y-104783854D01*
X153022801Y-105420326D01*
X153853366Y-105765207D01*
X154752688Y-105765992D01*
X155583854Y-105422561D01*
X156220326Y-104787199D01*
X156565207Y-103956634D01*
X156565992Y-103057312D01*
X156222561Y-102226146D01*
X155587199Y-101589674D01*
X154846646Y-101282169D01*
X155583854Y-100977561D01*
X156220326Y-100342199D01*
X156565207Y-99511634D01*
X156565210Y-99507688D01*
X172364008Y-99507688D01*
X172707439Y-100338854D01*
X173342801Y-100975326D01*
X174083354Y-101282831D01*
X173346146Y-101587439D01*
X172709674Y-102222801D01*
X172364793Y-103053366D01*
X172364008Y-103952688D01*
X172707439Y-104783854D01*
X173342801Y-105420326D01*
X174173366Y-105765207D01*
X175072688Y-105765992D01*
X175903854Y-105422561D01*
X176540326Y-104787199D01*
X176885207Y-103956634D01*
X176885992Y-103057312D01*
X176542561Y-102226146D01*
X175907199Y-101589674D01*
X175166646Y-101282169D01*
X175903854Y-100977561D01*
X176540326Y-100342199D01*
X176885207Y-99511634D01*
X176885992Y-98612312D01*
X176542561Y-97781146D01*
X175907199Y-97144674D01*
X175076634Y-96799793D01*
X174177312Y-96799008D01*
X173346146Y-97142439D01*
X172709674Y-97777801D01*
X172364793Y-98608366D01*
X172364008Y-99507688D01*
X156565210Y-99507688D01*
X156565992Y-98612312D01*
X156222561Y-97781146D01*
X155587199Y-97144674D01*
X154756634Y-96799793D01*
X153857312Y-96799008D01*
X153026146Y-97142439D01*
X152389674Y-97777801D01*
X152044793Y-98608366D01*
X152044008Y-99507688D01*
X149935000Y-99507688D01*
X149935000Y-97218500D01*
X149880954Y-96946795D01*
X149727046Y-96716454D01*
X149496705Y-96562546D01*
X149225000Y-96508500D01*
X144320825Y-96508500D01*
X144509723Y-96430449D01*
X145955372Y-94987320D01*
X146738717Y-93100818D01*
X146739346Y-92379076D01*
X159119304Y-92379076D01*
X159352567Y-92943615D01*
X159753573Y-93345322D01*
X159354085Y-93744113D01*
X159119837Y-94308244D01*
X159119304Y-94919076D01*
X159352567Y-95483615D01*
X159753573Y-95885322D01*
X159354085Y-96284113D01*
X159119837Y-96848244D01*
X159119304Y-97459076D01*
X159352567Y-98023615D01*
X159784113Y-98455915D01*
X160348244Y-98690163D01*
X160959076Y-98690696D01*
X161523615Y-98457433D01*
X161955915Y-98025887D01*
X162190163Y-97461756D01*
X162190583Y-96980771D01*
X162352717Y-97143188D01*
X162898319Y-97369742D01*
X163489089Y-97370257D01*
X164035086Y-97144656D01*
X164199722Y-96980307D01*
X164199304Y-97459076D01*
X164432567Y-98023615D01*
X164864113Y-98455915D01*
X165428244Y-98690163D01*
X166039076Y-98690696D01*
X166603615Y-98457433D01*
X167035915Y-98025887D01*
X167270163Y-97461756D01*
X167270520Y-97052089D01*
X167404113Y-97185915D01*
X167968244Y-97420163D01*
X168579076Y-97420696D01*
X169143615Y-97187433D01*
X169575915Y-96755887D01*
X169810163Y-96191756D01*
X169810696Y-95580924D01*
X169577433Y-95016385D01*
X169176427Y-94614678D01*
X169575915Y-94215887D01*
X169810163Y-93651756D01*
X169810696Y-93040924D01*
X169577433Y-92476385D01*
X169176427Y-92074678D01*
X169575915Y-91675887D01*
X169810163Y-91111756D01*
X169810696Y-90500924D01*
X169577433Y-89936385D01*
X169145887Y-89504085D01*
X168581756Y-89269837D01*
X167970924Y-89269304D01*
X167406385Y-89502567D01*
X166974085Y-89934113D01*
X166739837Y-90498244D01*
X166739417Y-90979229D01*
X166577283Y-90816812D01*
X166031681Y-90590258D01*
X165440911Y-90589743D01*
X164894914Y-90815344D01*
X164730278Y-90979693D01*
X164730696Y-90500924D01*
X164497433Y-89936385D01*
X164065887Y-89504085D01*
X163501756Y-89269837D01*
X162890924Y-89269304D01*
X162326385Y-89502567D01*
X161894085Y-89934113D01*
X161659837Y-90498244D01*
X161659480Y-90907911D01*
X161525887Y-90774085D01*
X160961756Y-90539837D01*
X160350924Y-90539304D01*
X159786385Y-90772567D01*
X159354085Y-91204113D01*
X159119837Y-91768244D01*
X159119304Y-92379076D01*
X146739346Y-92379076D01*
X146740499Y-91058144D01*
X145960449Y-89170277D01*
X144517320Y-87724628D01*
X142630818Y-86941283D01*
X140588144Y-86939501D01*
X138700277Y-87719551D01*
X137254628Y-89162680D01*
X136471283Y-91049182D01*
X136469501Y-93091856D01*
X137249551Y-94979723D01*
X138692680Y-96425372D01*
X138892874Y-96508500D01*
X135255000Y-96508500D01*
X134983295Y-96562546D01*
X134752954Y-96716454D01*
X134599046Y-96946795D01*
X134545000Y-97218500D01*
X134545000Y-126607500D01*
X131467143Y-126607500D01*
X131809723Y-126465949D01*
X133255372Y-125022820D01*
X134038717Y-123136318D01*
X134040499Y-121093644D01*
X133260449Y-119205777D01*
X131817320Y-117760128D01*
X129930818Y-116976783D01*
X127888144Y-116975001D01*
X126000277Y-117755051D01*
X124554628Y-119198180D01*
X123771283Y-121084682D01*
X123769501Y-123127356D01*
X124549551Y-125015223D01*
X125992680Y-126460872D01*
X126345799Y-126607500D01*
X123328500Y-126607500D01*
X123328500Y-117665500D01*
X123274454Y-117393795D01*
X123120546Y-117163454D01*
X122890205Y-117009546D01*
X122618500Y-116955500D01*
X115940052Y-116955500D01*
X117204723Y-116432949D01*
X118650372Y-114989820D01*
X119433717Y-113103318D01*
X119435499Y-111060644D01*
X119311487Y-110760510D01*
X123384570Y-110760510D01*
X123384570Y-112759490D01*
X123428848Y-112994807D01*
X123567920Y-113210931D01*
X123780120Y-113355921D01*
X124032010Y-113406930D01*
X126030990Y-113406930D01*
X126266307Y-113362652D01*
X126482431Y-113223580D01*
X126580193Y-113080500D01*
X126644427Y-113144846D01*
X127244953Y-113394206D01*
X127895194Y-113394774D01*
X128496155Y-113146462D01*
X128841699Y-112801520D01*
X129184427Y-113144846D01*
X129784953Y-113394206D01*
X130435194Y-113394774D01*
X131036155Y-113146462D01*
X131381699Y-112801520D01*
X131724427Y-113144846D01*
X132324953Y-113394206D01*
X132975194Y-113394774D01*
X133576155Y-113146462D01*
X134036346Y-112687073D01*
X134285706Y-112086547D01*
X134286274Y-111436306D01*
X134037962Y-110835345D01*
X133578573Y-110375154D01*
X132978047Y-110125794D01*
X132327806Y-110125226D01*
X131726845Y-110373538D01*
X131381301Y-110718480D01*
X131038573Y-110375154D01*
X130438047Y-110125794D01*
X129787806Y-110125226D01*
X129186845Y-110373538D01*
X128841301Y-110718480D01*
X128498573Y-110375154D01*
X127898047Y-110125794D01*
X127247806Y-110125226D01*
X126646845Y-110373538D01*
X126579698Y-110440568D01*
X126495080Y-110309069D01*
X126282880Y-110164079D01*
X126030990Y-110113070D01*
X124032010Y-110113070D01*
X123796693Y-110157348D01*
X123580569Y-110296420D01*
X123435579Y-110508620D01*
X123384570Y-110760510D01*
X119311487Y-110760510D01*
X118655449Y-109172777D01*
X117212320Y-107727128D01*
X115325818Y-106943783D01*
X113283144Y-106942001D01*
X111395277Y-107722051D01*
X109949628Y-109165180D01*
X109166283Y-111051682D01*
X109164501Y-113094356D01*
X109944551Y-114982223D01*
X111387680Y-116427872D01*
X112658348Y-116955500D01*
X104140000Y-116955500D01*
X103868295Y-117009546D01*
X103637954Y-117163454D01*
X103484046Y-117393795D01*
X103430000Y-117665500D01*
X103430000Y-145975000D01*
X99919034Y-145975000D01*
X100870372Y-145025320D01*
X101653717Y-143138818D01*
X101655499Y-141096144D01*
X100875449Y-139208277D01*
X99432320Y-137762628D01*
X97545818Y-136979283D01*
X95503144Y-136977501D01*
X93615277Y-137757551D01*
X92169628Y-139200680D01*
X91386283Y-141087182D01*
X91384501Y-143129856D01*
X92164551Y-145017723D01*
X93120159Y-145975000D01*
X87070000Y-145975000D01*
X87070000Y-66929481D01*
X89519777Y-66929481D01*
X89670000Y-67293047D01*
X89670000Y-77487573D01*
X89520223Y-77848276D01*
X89519777Y-78359481D01*
X89670000Y-78723047D01*
X89670000Y-88917573D01*
X89520223Y-89278276D01*
X89519777Y-89789481D01*
X89670000Y-90153047D01*
X89670000Y-100347573D01*
X89520223Y-100708276D01*
X89519777Y-101219481D01*
X89670000Y-101583047D01*
X89670000Y-111777573D01*
X89520223Y-112138276D01*
X89519777Y-112649481D01*
X89670000Y-113013047D01*
X89670000Y-123207573D01*
X89520223Y-123568276D01*
X89519777Y-124079481D01*
X89670000Y-124443047D01*
X89670000Y-134637573D01*
X89520223Y-134998276D01*
X89519777Y-135509481D01*
X89714995Y-135981943D01*
X90076155Y-136343735D01*
X90548276Y-136539777D01*
X91059481Y-136540223D01*
X91531943Y-136345005D01*
X91893735Y-135983845D01*
X92089777Y-135511724D01*
X92090223Y-135000519D01*
X91940000Y-134636953D01*
X91940000Y-124442427D01*
X92089777Y-124081724D01*
X92090223Y-123570519D01*
X91940000Y-123206953D01*
X91940000Y-113012427D01*
X92089777Y-112651724D01*
X92090223Y-112140519D01*
X91940000Y-111776953D01*
X91940000Y-101582427D01*
X92089777Y-101221724D01*
X92090223Y-100710519D01*
X91940000Y-100346953D01*
X91940000Y-90152427D01*
X92089777Y-89791724D01*
X92090223Y-89280519D01*
X91940000Y-88916953D01*
X91940000Y-78722427D01*
X92089777Y-78361724D01*
X92090223Y-77850519D01*
X91940000Y-77486953D01*
X91940000Y-67292427D01*
X92089777Y-66931724D01*
X92090223Y-66420519D01*
X91895005Y-65948057D01*
X91533845Y-65586265D01*
X91061724Y-65390223D01*
X90550519Y-65389777D01*
X90078057Y-65584995D01*
X89716265Y-65946155D01*
X89520223Y-66418276D01*
X89519777Y-66929481D01*
X87070000Y-66929481D01*
X87070000Y-64389481D01*
X92059777Y-64389481D01*
X92210000Y-64753047D01*
X92210000Y-74947573D01*
X92060223Y-75308276D01*
X92059777Y-75819481D01*
X92210000Y-76183047D01*
X92210000Y-86377573D01*
X92060223Y-86738276D01*
X92059777Y-87249481D01*
X92210000Y-87613047D01*
X92210000Y-97807573D01*
X92060223Y-98168276D01*
X92059777Y-98679481D01*
X92210000Y-99043047D01*
X92210000Y-109237573D01*
X92060223Y-109598276D01*
X92059777Y-110109481D01*
X92210000Y-110473047D01*
X92210000Y-120667573D01*
X92060223Y-121028276D01*
X92059777Y-121539481D01*
X92210000Y-121903047D01*
X92210000Y-132097573D01*
X92060223Y-132458276D01*
X92059777Y-132969481D01*
X92254995Y-133441943D01*
X92616155Y-133803735D01*
X93088276Y-133999777D01*
X93599481Y-134000223D01*
X94071943Y-133805005D01*
X94433735Y-133443845D01*
X94629777Y-132971724D01*
X94630223Y-132460519D01*
X94480000Y-132096953D01*
X94480000Y-121902427D01*
X94629777Y-121541724D01*
X94630223Y-121030519D01*
X94480000Y-120666953D01*
X94480000Y-110472427D01*
X94629777Y-110111724D01*
X94630223Y-109600519D01*
X94480000Y-109236953D01*
X94480000Y-99042427D01*
X94629777Y-98681724D01*
X94630223Y-98170519D01*
X94480000Y-97806953D01*
X94480000Y-87612427D01*
X94629777Y-87251724D01*
X94630223Y-86740519D01*
X94480000Y-86376953D01*
X94480000Y-76182427D01*
X94629777Y-75821724D01*
X94630223Y-75310519D01*
X94480000Y-74946953D01*
X94480000Y-64752427D01*
X94629777Y-64391724D01*
X94630223Y-63880519D01*
X94435005Y-63408057D01*
X94073845Y-63046265D01*
X93601724Y-62850223D01*
X93090519Y-62849777D01*
X92618057Y-63044995D01*
X92256265Y-63406155D01*
X92060223Y-63878276D01*
X92059777Y-64389481D01*
X87070000Y-64389481D01*
X87070000Y-61849481D01*
X94599777Y-61849481D01*
X94750000Y-62213047D01*
X94750000Y-72407573D01*
X94600223Y-72768276D01*
X94599777Y-73279481D01*
X94750000Y-73643047D01*
X94750000Y-83837573D01*
X94600223Y-84198276D01*
X94599777Y-84709481D01*
X94750000Y-85073047D01*
X94750000Y-95267573D01*
X94600223Y-95628276D01*
X94599777Y-96139481D01*
X94750000Y-96503047D01*
X94750000Y-106697573D01*
X94600223Y-107058276D01*
X94599777Y-107569481D01*
X94750000Y-107933047D01*
X94750000Y-118127573D01*
X94600223Y-118488276D01*
X94599777Y-118999481D01*
X94750000Y-119363047D01*
X94750000Y-129557573D01*
X94600223Y-129918276D01*
X94599777Y-130429481D01*
X94794995Y-130901943D01*
X95156155Y-131263735D01*
X95628276Y-131459777D01*
X96139481Y-131460223D01*
X96611943Y-131265005D01*
X96973735Y-130903845D01*
X97169777Y-130431724D01*
X97170223Y-129920519D01*
X97020000Y-129556953D01*
X97020000Y-119362427D01*
X97169777Y-119001724D01*
X97170223Y-118490519D01*
X97020000Y-118126953D01*
X97020000Y-107932427D01*
X97169777Y-107571724D01*
X97170223Y-107060519D01*
X97020000Y-106696953D01*
X97020000Y-96502427D01*
X97169777Y-96141724D01*
X97170223Y-95630519D01*
X97020000Y-95266953D01*
X97020000Y-85072427D01*
X97169777Y-84711724D01*
X97170223Y-84200519D01*
X97020000Y-83836953D01*
X97020000Y-73642427D01*
X97169777Y-73281724D01*
X97170223Y-72770519D01*
X97020000Y-72406953D01*
X97020000Y-62212427D01*
X97169777Y-61851724D01*
X97170223Y-61340519D01*
X96975005Y-60868057D01*
X96613845Y-60506265D01*
X96141724Y-60310223D01*
X95630519Y-60309777D01*
X95158057Y-60504995D01*
X94796265Y-60866155D01*
X94600223Y-61338276D01*
X94599777Y-61849481D01*
X87070000Y-61849481D01*
X87070000Y-59309481D01*
X97139777Y-59309481D01*
X97290000Y-59673047D01*
X97290000Y-69867573D01*
X97140223Y-70228276D01*
X97139777Y-70739481D01*
X97290000Y-71103047D01*
X97290000Y-81297573D01*
X97140223Y-81658276D01*
X97139777Y-82169481D01*
X97290000Y-82533047D01*
X97290000Y-92727573D01*
X97140223Y-93088276D01*
X97139777Y-93599481D01*
X97290000Y-93963047D01*
X97290000Y-104157573D01*
X97140223Y-104518276D01*
X97139777Y-105029481D01*
X97290000Y-105393047D01*
X97290000Y-115587573D01*
X97140223Y-115948276D01*
X97139777Y-116459481D01*
X97290000Y-116823047D01*
X97290000Y-127017573D01*
X97140223Y-127378276D01*
X97139777Y-127889481D01*
X97334995Y-128361943D01*
X97696155Y-128723735D01*
X98168276Y-128919777D01*
X98679481Y-128920223D01*
X99151943Y-128725005D01*
X99513735Y-128363845D01*
X99709777Y-127891724D01*
X99710223Y-127380519D01*
X99560000Y-127016953D01*
X99560000Y-126734570D01*
X99953070Y-126734570D01*
X99953070Y-128535430D01*
X99997348Y-128770747D01*
X100136420Y-128986871D01*
X100338411Y-129124885D01*
X100215154Y-129247927D01*
X99965794Y-129848453D01*
X99965226Y-130498694D01*
X100213538Y-131099655D01*
X100558480Y-131445199D01*
X100215154Y-131787927D01*
X99965794Y-132388453D01*
X99965226Y-133038694D01*
X100213538Y-133639655D01*
X100558480Y-133985199D01*
X100215154Y-134327927D01*
X99965794Y-134928453D01*
X99965226Y-135578694D01*
X100213538Y-136179655D01*
X100672927Y-136639846D01*
X101273453Y-136889206D01*
X101923694Y-136889774D01*
X102524655Y-136641462D01*
X102984846Y-136182073D01*
X103234206Y-135581547D01*
X103234774Y-134931306D01*
X102986462Y-134330345D01*
X102641520Y-133984801D01*
X102984846Y-133642073D01*
X103234206Y-133041547D01*
X103234774Y-132391306D01*
X102986462Y-131790345D01*
X102641520Y-131444801D01*
X102984846Y-131102073D01*
X103234206Y-130501547D01*
X103234774Y-129851306D01*
X102986462Y-129250345D01*
X102859221Y-129122882D01*
X103050931Y-128999520D01*
X103195921Y-128787320D01*
X103246930Y-128535430D01*
X103246930Y-126734570D01*
X103202652Y-126499253D01*
X103063580Y-126283129D01*
X102851380Y-126138139D01*
X102599490Y-126087130D01*
X100600510Y-126087130D01*
X100365193Y-126131408D01*
X100149069Y-126270480D01*
X100004079Y-126482680D01*
X99953070Y-126734570D01*
X99560000Y-126734570D01*
X99560000Y-116822427D01*
X99709777Y-116461724D01*
X99710223Y-115950519D01*
X99560000Y-115586953D01*
X99560000Y-115304570D01*
X99953070Y-115304570D01*
X99953070Y-117105430D01*
X99997348Y-117340747D01*
X100136420Y-117556871D01*
X100338411Y-117694885D01*
X100215154Y-117817927D01*
X99965794Y-118418453D01*
X99965226Y-119068694D01*
X100213538Y-119669655D01*
X100558480Y-120015199D01*
X100215154Y-120357927D01*
X99965794Y-120958453D01*
X99965226Y-121608694D01*
X100213538Y-122209655D01*
X100558480Y-122555199D01*
X100215154Y-122897927D01*
X99965794Y-123498453D01*
X99965226Y-124148694D01*
X100213538Y-124749655D01*
X100672927Y-125209846D01*
X101273453Y-125459206D01*
X101923694Y-125459774D01*
X102524655Y-125211462D01*
X102984846Y-124752073D01*
X103234206Y-124151547D01*
X103234774Y-123501306D01*
X102986462Y-122900345D01*
X102641520Y-122554801D01*
X102984846Y-122212073D01*
X103234206Y-121611547D01*
X103234774Y-120961306D01*
X102986462Y-120360345D01*
X102641520Y-120014801D01*
X102984846Y-119672073D01*
X103234206Y-119071547D01*
X103234774Y-118421306D01*
X102986462Y-117820345D01*
X102859221Y-117692882D01*
X103050931Y-117569520D01*
X103195921Y-117357320D01*
X103246930Y-117105430D01*
X103246930Y-115304570D01*
X103202652Y-115069253D01*
X103063580Y-114853129D01*
X102851380Y-114708139D01*
X102599490Y-114657130D01*
X100600510Y-114657130D01*
X100365193Y-114701408D01*
X100149069Y-114840480D01*
X100004079Y-115052680D01*
X99953070Y-115304570D01*
X99560000Y-115304570D01*
X99560000Y-105392427D01*
X99709777Y-105031724D01*
X99710223Y-104520519D01*
X99560000Y-104156953D01*
X99560000Y-103874570D01*
X99953070Y-103874570D01*
X99953070Y-105675430D01*
X99997348Y-105910747D01*
X100136420Y-106126871D01*
X100338411Y-106264885D01*
X100215154Y-106387927D01*
X99965794Y-106988453D01*
X99965226Y-107638694D01*
X100213538Y-108239655D01*
X100558480Y-108585199D01*
X100215154Y-108927927D01*
X99965794Y-109528453D01*
X99965226Y-110178694D01*
X100213538Y-110779655D01*
X100558480Y-111125199D01*
X100215154Y-111467927D01*
X99965794Y-112068453D01*
X99965226Y-112718694D01*
X100213538Y-113319655D01*
X100672927Y-113779846D01*
X101273453Y-114029206D01*
X101923694Y-114029774D01*
X102524655Y-113781462D01*
X102984846Y-113322073D01*
X103234206Y-112721547D01*
X103234774Y-112071306D01*
X102986462Y-111470345D01*
X102641520Y-111124801D01*
X102984846Y-110782073D01*
X103234206Y-110181547D01*
X103234774Y-109531306D01*
X102986462Y-108930345D01*
X102641520Y-108584801D01*
X102984846Y-108242073D01*
X103234206Y-107641547D01*
X103234774Y-106991306D01*
X102986462Y-106390345D01*
X102859221Y-106262882D01*
X103050931Y-106139520D01*
X103195921Y-105927320D01*
X103246930Y-105675430D01*
X103246930Y-103874570D01*
X103202652Y-103639253D01*
X103063580Y-103423129D01*
X102851380Y-103278139D01*
X102599490Y-103227130D01*
X100600510Y-103227130D01*
X100365193Y-103271408D01*
X100149069Y-103410480D01*
X100004079Y-103622680D01*
X99953070Y-103874570D01*
X99560000Y-103874570D01*
X99560000Y-93962427D01*
X99709777Y-93601724D01*
X99710223Y-93090519D01*
X99560000Y-92726953D01*
X99560000Y-92444570D01*
X99953070Y-92444570D01*
X99953070Y-94245430D01*
X99997348Y-94480747D01*
X100136420Y-94696871D01*
X100338411Y-94834885D01*
X100215154Y-94957927D01*
X99965794Y-95558453D01*
X99965226Y-96208694D01*
X100213538Y-96809655D01*
X100558480Y-97155199D01*
X100215154Y-97497927D01*
X99965794Y-98098453D01*
X99965226Y-98748694D01*
X100213538Y-99349655D01*
X100558480Y-99695199D01*
X100215154Y-100037927D01*
X99965794Y-100638453D01*
X99965226Y-101288694D01*
X100213538Y-101889655D01*
X100672927Y-102349846D01*
X101273453Y-102599206D01*
X101923694Y-102599774D01*
X102524655Y-102351462D01*
X102984846Y-101892073D01*
X103234206Y-101291547D01*
X103234774Y-100641306D01*
X102986462Y-100040345D01*
X102641520Y-99694801D01*
X102984846Y-99352073D01*
X103234206Y-98751547D01*
X103234774Y-98101306D01*
X102986462Y-97500345D01*
X102641520Y-97154801D01*
X102984846Y-96812073D01*
X103234206Y-96211547D01*
X103234774Y-95561306D01*
X102986462Y-94960345D01*
X102859221Y-94832882D01*
X103050931Y-94709520D01*
X103195921Y-94497320D01*
X103246930Y-94245430D01*
X103246930Y-92444570D01*
X103202652Y-92209253D01*
X103063580Y-91993129D01*
X102851380Y-91848139D01*
X102599490Y-91797130D01*
X100600510Y-91797130D01*
X100365193Y-91841408D01*
X100149069Y-91980480D01*
X100004079Y-92192680D01*
X99953070Y-92444570D01*
X99560000Y-92444570D01*
X99560000Y-82532427D01*
X99709777Y-82171724D01*
X99710223Y-81660519D01*
X99560000Y-81296953D01*
X99560000Y-81014570D01*
X99953070Y-81014570D01*
X99953070Y-82815430D01*
X99997348Y-83050747D01*
X100136420Y-83266871D01*
X100338411Y-83404885D01*
X100215154Y-83527927D01*
X99965794Y-84128453D01*
X99965226Y-84778694D01*
X100213538Y-85379655D01*
X100558480Y-85725199D01*
X100215154Y-86067927D01*
X99965794Y-86668453D01*
X99965226Y-87318694D01*
X100213538Y-87919655D01*
X100558480Y-88265199D01*
X100215154Y-88607927D01*
X99965794Y-89208453D01*
X99965226Y-89858694D01*
X100213538Y-90459655D01*
X100672927Y-90919846D01*
X101273453Y-91169206D01*
X101923694Y-91169774D01*
X102524655Y-90921462D01*
X102984846Y-90462073D01*
X103234206Y-89861547D01*
X103234774Y-89211306D01*
X102986462Y-88610345D01*
X102641520Y-88264801D01*
X102984846Y-87922073D01*
X103234206Y-87321547D01*
X103234774Y-86671306D01*
X102986462Y-86070345D01*
X102641520Y-85724801D01*
X102984846Y-85382073D01*
X103234206Y-84781547D01*
X103234774Y-84131306D01*
X102986462Y-83530345D01*
X102859221Y-83402882D01*
X103050931Y-83279520D01*
X103195921Y-83067320D01*
X103246930Y-82815430D01*
X103246930Y-81014570D01*
X103202652Y-80779253D01*
X103063580Y-80563129D01*
X102851380Y-80418139D01*
X102599490Y-80367130D01*
X100600510Y-80367130D01*
X100365193Y-80411408D01*
X100149069Y-80550480D01*
X100004079Y-80762680D01*
X99953070Y-81014570D01*
X99560000Y-81014570D01*
X99560000Y-71102427D01*
X99709777Y-70741724D01*
X99710223Y-70230519D01*
X99560000Y-69866953D01*
X99560000Y-69584570D01*
X99953070Y-69584570D01*
X99953070Y-71385430D01*
X99997348Y-71620747D01*
X100136420Y-71836871D01*
X100338411Y-71974885D01*
X100215154Y-72097927D01*
X99965794Y-72698453D01*
X99965226Y-73348694D01*
X100213538Y-73949655D01*
X100558480Y-74295199D01*
X100215154Y-74637927D01*
X99965794Y-75238453D01*
X99965226Y-75888694D01*
X100213538Y-76489655D01*
X100558480Y-76835199D01*
X100215154Y-77177927D01*
X99965794Y-77778453D01*
X99965226Y-78428694D01*
X100213538Y-79029655D01*
X100672927Y-79489846D01*
X101273453Y-79739206D01*
X101923694Y-79739774D01*
X102524655Y-79491462D01*
X102984846Y-79032073D01*
X103234206Y-78431547D01*
X103234774Y-77781306D01*
X102986462Y-77180345D01*
X102641520Y-76834801D01*
X102984846Y-76492073D01*
X103234206Y-75891547D01*
X103234774Y-75241306D01*
X102986462Y-74640345D01*
X102641520Y-74294801D01*
X102984846Y-73952073D01*
X103234206Y-73351547D01*
X103234774Y-72701306D01*
X102986462Y-72100345D01*
X102859221Y-71972882D01*
X103050931Y-71849520D01*
X103195921Y-71637320D01*
X103246930Y-71385430D01*
X103246930Y-69584570D01*
X103202652Y-69349253D01*
X103063580Y-69133129D01*
X102998236Y-69088481D01*
X107172777Y-69088481D01*
X107323000Y-69452047D01*
X107323000Y-79646573D01*
X107173223Y-80007276D01*
X107172777Y-80518481D01*
X107323000Y-80882047D01*
X107323000Y-91076573D01*
X107173223Y-91437276D01*
X107172777Y-91948481D01*
X107323000Y-92312047D01*
X107323000Y-102506573D01*
X107173223Y-102867276D01*
X107172777Y-103378481D01*
X107367995Y-103850943D01*
X107729155Y-104212735D01*
X108201276Y-104408777D01*
X108712481Y-104409223D01*
X109184943Y-104214005D01*
X109546735Y-103852845D01*
X109742777Y-103380724D01*
X109743223Y-102869519D01*
X109593000Y-102505953D01*
X109593000Y-92311427D01*
X109742777Y-91950724D01*
X109743223Y-91439519D01*
X109593000Y-91075953D01*
X109593000Y-80881427D01*
X109742777Y-80520724D01*
X109743223Y-80009519D01*
X109593000Y-79645953D01*
X109593000Y-69451427D01*
X109742777Y-69090724D01*
X109743223Y-68579519D01*
X109548005Y-68107057D01*
X109186845Y-67745265D01*
X108714724Y-67549223D01*
X108203519Y-67548777D01*
X107731057Y-67743995D01*
X107369265Y-68105155D01*
X107173223Y-68577276D01*
X107172777Y-69088481D01*
X102998236Y-69088481D01*
X102851380Y-68988139D01*
X102599490Y-68937130D01*
X100600510Y-68937130D01*
X100365193Y-68981408D01*
X100149069Y-69120480D01*
X100004079Y-69332680D01*
X99953070Y-69584570D01*
X99560000Y-69584570D01*
X99560000Y-59672427D01*
X99709777Y-59311724D01*
X99710223Y-58800519D01*
X99515005Y-58328057D01*
X99341822Y-58154570D01*
X99953070Y-58154570D01*
X99953070Y-59955430D01*
X99997348Y-60190747D01*
X100136420Y-60406871D01*
X100338411Y-60544885D01*
X100215154Y-60667927D01*
X99965794Y-61268453D01*
X99965226Y-61918694D01*
X100213538Y-62519655D01*
X100558480Y-62865199D01*
X100215154Y-63207927D01*
X99965794Y-63808453D01*
X99965226Y-64458694D01*
X100213538Y-65059655D01*
X100558480Y-65405199D01*
X100215154Y-65747927D01*
X99965794Y-66348453D01*
X99965226Y-66998694D01*
X100213538Y-67599655D01*
X100672927Y-68059846D01*
X101273453Y-68309206D01*
X101923694Y-68309774D01*
X102524655Y-68061462D01*
X102984846Y-67602073D01*
X103234206Y-67001547D01*
X103234601Y-66548481D01*
X109712777Y-66548481D01*
X109863000Y-66912047D01*
X109863000Y-77106573D01*
X109713223Y-77467276D01*
X109712777Y-77978481D01*
X109863000Y-78342047D01*
X109863000Y-88536573D01*
X109713223Y-88897276D01*
X109712777Y-89408481D01*
X109863000Y-89772047D01*
X109863000Y-99966573D01*
X109713223Y-100327276D01*
X109712777Y-100838481D01*
X109907995Y-101310943D01*
X110269155Y-101672735D01*
X110741276Y-101868777D01*
X111252481Y-101869223D01*
X111724943Y-101674005D01*
X112086735Y-101312845D01*
X112282777Y-100840724D01*
X112283223Y-100329519D01*
X112133000Y-99965953D01*
X112133000Y-89771427D01*
X112282777Y-89410724D01*
X112283223Y-88899519D01*
X112133000Y-88535953D01*
X112133000Y-78341427D01*
X112282777Y-77980724D01*
X112283223Y-77469519D01*
X112133000Y-77105953D01*
X112133000Y-66911427D01*
X112282777Y-66550724D01*
X112283223Y-66039519D01*
X112088005Y-65567057D01*
X111726845Y-65205265D01*
X111254724Y-65009223D01*
X110743519Y-65008777D01*
X110271057Y-65203995D01*
X109909265Y-65565155D01*
X109713223Y-66037276D01*
X109712777Y-66548481D01*
X103234601Y-66548481D01*
X103234774Y-66351306D01*
X102986462Y-65750345D01*
X102641520Y-65404801D01*
X102984846Y-65062073D01*
X103234206Y-64461547D01*
X103234601Y-64008481D01*
X112252777Y-64008481D01*
X112403000Y-64372047D01*
X112403000Y-74566573D01*
X112253223Y-74927276D01*
X112252777Y-75438481D01*
X112403000Y-75802047D01*
X112403000Y-85996573D01*
X112253223Y-86357276D01*
X112252777Y-86868481D01*
X112403000Y-87232047D01*
X112403000Y-97426573D01*
X112253223Y-97787276D01*
X112252777Y-98298481D01*
X112447995Y-98770943D01*
X112809155Y-99132735D01*
X113281276Y-99328777D01*
X113792481Y-99329223D01*
X114264943Y-99134005D01*
X114626735Y-98772845D01*
X114822777Y-98300724D01*
X114823223Y-97789519D01*
X114673000Y-97425953D01*
X114673000Y-87231427D01*
X114822777Y-86870724D01*
X114823223Y-86359519D01*
X114673000Y-85995953D01*
X114673000Y-75801427D01*
X114822777Y-75440724D01*
X114823223Y-74929519D01*
X114673000Y-74565953D01*
X114673000Y-64371427D01*
X114822777Y-64010724D01*
X114823223Y-63499519D01*
X114628005Y-63027057D01*
X114266845Y-62665265D01*
X113794724Y-62469223D01*
X113283519Y-62468777D01*
X112811057Y-62663995D01*
X112449265Y-63025155D01*
X112253223Y-63497276D01*
X112252777Y-64008481D01*
X103234601Y-64008481D01*
X103234774Y-63811306D01*
X102986462Y-63210345D01*
X102641520Y-62864801D01*
X102984846Y-62522073D01*
X103234206Y-61921547D01*
X103234601Y-61468481D01*
X114792777Y-61468481D01*
X114943000Y-61832047D01*
X114943000Y-72026573D01*
X114793223Y-72387276D01*
X114792777Y-72898481D01*
X114943000Y-73262047D01*
X114943000Y-83456573D01*
X114793223Y-83817276D01*
X114792777Y-84328481D01*
X114943000Y-84692047D01*
X114943000Y-94886573D01*
X114793223Y-95247276D01*
X114792777Y-95758481D01*
X114987995Y-96230943D01*
X115349155Y-96592735D01*
X115821276Y-96788777D01*
X116332481Y-96789223D01*
X116804943Y-96594005D01*
X117166735Y-96232845D01*
X117362777Y-95760724D01*
X117363223Y-95249519D01*
X117213000Y-94885953D01*
X117213000Y-94603570D01*
X117606070Y-94603570D01*
X117606070Y-96404430D01*
X117650348Y-96639747D01*
X117789420Y-96855871D01*
X117991411Y-96993885D01*
X117868154Y-97116927D01*
X117618794Y-97717453D01*
X117618226Y-98367694D01*
X117866538Y-98968655D01*
X118211480Y-99314199D01*
X117868154Y-99656927D01*
X117618794Y-100257453D01*
X117618226Y-100907694D01*
X117866538Y-101508655D01*
X118211480Y-101854199D01*
X117868154Y-102196927D01*
X117618794Y-102797453D01*
X117618226Y-103447694D01*
X117866538Y-104048655D01*
X118325927Y-104508846D01*
X118926453Y-104758206D01*
X119576694Y-104758774D01*
X120177655Y-104510462D01*
X120637846Y-104051073D01*
X120752269Y-103775510D01*
X123384570Y-103775510D01*
X123384570Y-105774490D01*
X123428848Y-106009807D01*
X123567920Y-106225931D01*
X123780120Y-106370921D01*
X124032010Y-106421930D01*
X126030990Y-106421930D01*
X126266307Y-106377652D01*
X126482431Y-106238580D01*
X126580193Y-106095500D01*
X126644427Y-106159846D01*
X127244953Y-106409206D01*
X127895194Y-106409774D01*
X128496155Y-106161462D01*
X128841699Y-105816520D01*
X129184427Y-106159846D01*
X129784953Y-106409206D01*
X130435194Y-106409774D01*
X131036155Y-106161462D01*
X131381699Y-105816520D01*
X131724427Y-106159846D01*
X132324953Y-106409206D01*
X132975194Y-106409774D01*
X133576155Y-106161462D01*
X134036346Y-105702073D01*
X134285706Y-105101547D01*
X134286274Y-104451306D01*
X134037962Y-103850345D01*
X133578573Y-103390154D01*
X132978047Y-103140794D01*
X132327806Y-103140226D01*
X131726845Y-103388538D01*
X131381301Y-103733480D01*
X131038573Y-103390154D01*
X130438047Y-103140794D01*
X129787806Y-103140226D01*
X129186845Y-103388538D01*
X128841301Y-103733480D01*
X128498573Y-103390154D01*
X127898047Y-103140794D01*
X127247806Y-103140226D01*
X126646845Y-103388538D01*
X126579698Y-103455568D01*
X126495080Y-103324069D01*
X126282880Y-103179079D01*
X126030990Y-103128070D01*
X124032010Y-103128070D01*
X123796693Y-103172348D01*
X123580569Y-103311420D01*
X123435579Y-103523620D01*
X123384570Y-103775510D01*
X120752269Y-103775510D01*
X120887206Y-103450547D01*
X120887774Y-102800306D01*
X120639462Y-102199345D01*
X120294520Y-101853801D01*
X120637846Y-101511073D01*
X120887206Y-100910547D01*
X120887774Y-100260306D01*
X120639462Y-99659345D01*
X120294520Y-99313801D01*
X120637846Y-98971073D01*
X120887206Y-98370547D01*
X120887774Y-97720306D01*
X120639462Y-97119345D01*
X120512221Y-96991882D01*
X120703931Y-96868520D01*
X120757232Y-96790510D01*
X123384570Y-96790510D01*
X123384570Y-98789490D01*
X123428848Y-99024807D01*
X123567920Y-99240931D01*
X123780120Y-99385921D01*
X124032010Y-99436930D01*
X126030990Y-99436930D01*
X126266307Y-99392652D01*
X126482431Y-99253580D01*
X126580193Y-99110500D01*
X126644427Y-99174846D01*
X127244953Y-99424206D01*
X127895194Y-99424774D01*
X128496155Y-99176462D01*
X128841699Y-98831520D01*
X129184427Y-99174846D01*
X129784953Y-99424206D01*
X130435194Y-99424774D01*
X131036155Y-99176462D01*
X131381699Y-98831520D01*
X131724427Y-99174846D01*
X132324953Y-99424206D01*
X132975194Y-99424774D01*
X133576155Y-99176462D01*
X134036346Y-98717073D01*
X134285706Y-98116547D01*
X134286274Y-97466306D01*
X134037962Y-96865345D01*
X133578573Y-96405154D01*
X132978047Y-96155794D01*
X132327806Y-96155226D01*
X131726845Y-96403538D01*
X131381301Y-96748480D01*
X131038573Y-96405154D01*
X130438047Y-96155794D01*
X129787806Y-96155226D01*
X129186845Y-96403538D01*
X128841301Y-96748480D01*
X128498573Y-96405154D01*
X127898047Y-96155794D01*
X127247806Y-96155226D01*
X126646845Y-96403538D01*
X126579698Y-96470568D01*
X126495080Y-96339069D01*
X126282880Y-96194079D01*
X126030990Y-96143070D01*
X124032010Y-96143070D01*
X123796693Y-96187348D01*
X123580569Y-96326420D01*
X123435579Y-96538620D01*
X123384570Y-96790510D01*
X120757232Y-96790510D01*
X120848921Y-96656320D01*
X120899930Y-96404430D01*
X120899930Y-94603570D01*
X120855652Y-94368253D01*
X120716580Y-94152129D01*
X120504380Y-94007139D01*
X120252490Y-93956130D01*
X118253510Y-93956130D01*
X118018193Y-94000408D01*
X117802069Y-94139480D01*
X117657079Y-94351680D01*
X117606070Y-94603570D01*
X117213000Y-94603570D01*
X117213000Y-84691427D01*
X117362777Y-84330724D01*
X117363223Y-83819519D01*
X117213000Y-83455953D01*
X117213000Y-83173570D01*
X117606070Y-83173570D01*
X117606070Y-84974430D01*
X117650348Y-85209747D01*
X117789420Y-85425871D01*
X117991411Y-85563885D01*
X117868154Y-85686927D01*
X117618794Y-86287453D01*
X117618226Y-86937694D01*
X117866538Y-87538655D01*
X118211480Y-87884199D01*
X117868154Y-88226927D01*
X117618794Y-88827453D01*
X117618226Y-89477694D01*
X117866538Y-90078655D01*
X118211480Y-90424199D01*
X117868154Y-90766927D01*
X117618794Y-91367453D01*
X117618226Y-92017694D01*
X117866538Y-92618655D01*
X118325927Y-93078846D01*
X118926453Y-93328206D01*
X119576694Y-93328774D01*
X120177655Y-93080462D01*
X120637846Y-92621073D01*
X120887206Y-92020547D01*
X120887774Y-91370306D01*
X120639462Y-90769345D01*
X120294520Y-90423801D01*
X120637846Y-90081073D01*
X120752269Y-89805510D01*
X123384570Y-89805510D01*
X123384570Y-91804490D01*
X123428848Y-92039807D01*
X123567920Y-92255931D01*
X123780120Y-92400921D01*
X124032010Y-92451930D01*
X126030990Y-92451930D01*
X126266307Y-92407652D01*
X126482431Y-92268580D01*
X126580193Y-92125500D01*
X126644427Y-92189846D01*
X127244953Y-92439206D01*
X127895194Y-92439774D01*
X128496155Y-92191462D01*
X128841699Y-91846520D01*
X129184427Y-92189846D01*
X129784953Y-92439206D01*
X130435194Y-92439774D01*
X131036155Y-92191462D01*
X131381699Y-91846520D01*
X131724427Y-92189846D01*
X132324953Y-92439206D01*
X132975194Y-92439774D01*
X133576155Y-92191462D01*
X134036346Y-91732073D01*
X134285706Y-91131547D01*
X134286274Y-90481306D01*
X134037962Y-89880345D01*
X133578573Y-89420154D01*
X132978047Y-89170794D01*
X132327806Y-89170226D01*
X131726845Y-89418538D01*
X131381301Y-89763480D01*
X131038573Y-89420154D01*
X130438047Y-89170794D01*
X129787806Y-89170226D01*
X129186845Y-89418538D01*
X128841301Y-89763480D01*
X128498573Y-89420154D01*
X127898047Y-89170794D01*
X127247806Y-89170226D01*
X126646845Y-89418538D01*
X126579698Y-89485568D01*
X126495080Y-89354069D01*
X126282880Y-89209079D01*
X126030990Y-89158070D01*
X124032010Y-89158070D01*
X123796693Y-89202348D01*
X123580569Y-89341420D01*
X123435579Y-89553620D01*
X123384570Y-89805510D01*
X120752269Y-89805510D01*
X120887206Y-89480547D01*
X120887774Y-88830306D01*
X120639462Y-88229345D01*
X120294520Y-87883801D01*
X120637846Y-87541073D01*
X120887206Y-86940547D01*
X120887774Y-86290306D01*
X120639462Y-85689345D01*
X120512221Y-85561882D01*
X120703931Y-85438520D01*
X120848921Y-85226320D01*
X120899930Y-84974430D01*
X120899930Y-83173570D01*
X120855652Y-82938253D01*
X120779887Y-82820510D01*
X123384570Y-82820510D01*
X123384570Y-84819490D01*
X123428848Y-85054807D01*
X123567920Y-85270931D01*
X123780120Y-85415921D01*
X124032010Y-85466930D01*
X126030990Y-85466930D01*
X126266307Y-85422652D01*
X126482431Y-85283580D01*
X126580193Y-85140500D01*
X126644427Y-85204846D01*
X127244953Y-85454206D01*
X127895194Y-85454774D01*
X128496155Y-85206462D01*
X128841699Y-84861520D01*
X129184427Y-85204846D01*
X129784953Y-85454206D01*
X130435194Y-85454774D01*
X131036155Y-85206462D01*
X131381699Y-84861520D01*
X131724427Y-85204846D01*
X132324953Y-85454206D01*
X132975194Y-85454774D01*
X133576155Y-85206462D01*
X133880459Y-84902688D01*
X152044008Y-84902688D01*
X152387439Y-85733854D01*
X153022801Y-86370326D01*
X153763354Y-86677831D01*
X153026146Y-86982439D01*
X152389674Y-87617801D01*
X152044793Y-88448366D01*
X152044008Y-89347688D01*
X152387439Y-90178854D01*
X153022801Y-90815326D01*
X153853366Y-91160207D01*
X154752688Y-91160992D01*
X155583854Y-90817561D01*
X156220326Y-90182199D01*
X156565207Y-89351634D01*
X156565992Y-88452312D01*
X156222561Y-87621146D01*
X155587199Y-86984674D01*
X154846646Y-86677169D01*
X155583854Y-86372561D01*
X156220326Y-85737199D01*
X156565207Y-84906634D01*
X156565210Y-84902688D01*
X172364008Y-84902688D01*
X172707439Y-85733854D01*
X173342801Y-86370326D01*
X174083354Y-86677831D01*
X173346146Y-86982439D01*
X172709674Y-87617801D01*
X172364793Y-88448366D01*
X172364008Y-89347688D01*
X172707439Y-90178854D01*
X173342801Y-90815326D01*
X174173366Y-91160207D01*
X175072688Y-91160992D01*
X175903854Y-90817561D01*
X176540326Y-90182199D01*
X176885207Y-89351634D01*
X176885992Y-88452312D01*
X176542561Y-87621146D01*
X175907199Y-86984674D01*
X175166646Y-86677169D01*
X175903854Y-86372561D01*
X176540326Y-85737199D01*
X176885207Y-84906634D01*
X176885992Y-84007312D01*
X176542561Y-83176146D01*
X175907199Y-82539674D01*
X175076634Y-82194793D01*
X174177312Y-82194008D01*
X173346146Y-82537439D01*
X172709674Y-83172801D01*
X172364793Y-84003366D01*
X172364008Y-84902688D01*
X156565210Y-84902688D01*
X156565992Y-84007312D01*
X156222561Y-83176146D01*
X155587199Y-82539674D01*
X154756634Y-82194793D01*
X153857312Y-82194008D01*
X153026146Y-82537439D01*
X152389674Y-83172801D01*
X152044793Y-84003366D01*
X152044008Y-84902688D01*
X133880459Y-84902688D01*
X134036346Y-84747073D01*
X134285706Y-84146547D01*
X134286274Y-83496306D01*
X134037962Y-82895345D01*
X133578573Y-82435154D01*
X132978047Y-82185794D01*
X132327806Y-82185226D01*
X131726845Y-82433538D01*
X131381301Y-82778480D01*
X131038573Y-82435154D01*
X130438047Y-82185794D01*
X129787806Y-82185226D01*
X129186845Y-82433538D01*
X128841301Y-82778480D01*
X128498573Y-82435154D01*
X127898047Y-82185794D01*
X127247806Y-82185226D01*
X126646845Y-82433538D01*
X126579698Y-82500568D01*
X126495080Y-82369069D01*
X126282880Y-82224079D01*
X126030990Y-82173070D01*
X124032010Y-82173070D01*
X123796693Y-82217348D01*
X123580569Y-82356420D01*
X123435579Y-82568620D01*
X123384570Y-82820510D01*
X120779887Y-82820510D01*
X120716580Y-82722129D01*
X120504380Y-82577139D01*
X120252490Y-82526130D01*
X118253510Y-82526130D01*
X118018193Y-82570408D01*
X117802069Y-82709480D01*
X117657079Y-82921680D01*
X117606070Y-83173570D01*
X117213000Y-83173570D01*
X117213000Y-73261427D01*
X117362777Y-72900724D01*
X117363223Y-72389519D01*
X117213000Y-72025953D01*
X117213000Y-71743570D01*
X117606070Y-71743570D01*
X117606070Y-73544430D01*
X117650348Y-73779747D01*
X117789420Y-73995871D01*
X117991411Y-74133885D01*
X117868154Y-74256927D01*
X117618794Y-74857453D01*
X117618226Y-75507694D01*
X117866538Y-76108655D01*
X118211480Y-76454199D01*
X117868154Y-76796927D01*
X117618794Y-77397453D01*
X117618226Y-78047694D01*
X117866538Y-78648655D01*
X118211480Y-78994199D01*
X117868154Y-79336927D01*
X117618794Y-79937453D01*
X117618226Y-80587694D01*
X117866538Y-81188655D01*
X118325927Y-81648846D01*
X118926453Y-81898206D01*
X119576694Y-81898774D01*
X120177655Y-81650462D01*
X120277781Y-81550510D01*
X136211570Y-81550510D01*
X136211570Y-83549490D01*
X136255848Y-83784807D01*
X136394920Y-84000931D01*
X136607120Y-84145921D01*
X136859010Y-84196930D01*
X138857990Y-84196930D01*
X139093307Y-84152652D01*
X139309431Y-84013580D01*
X139407193Y-83870500D01*
X139471427Y-83934846D01*
X140071953Y-84184206D01*
X140722194Y-84184774D01*
X141323155Y-83936462D01*
X141668699Y-83591520D01*
X142011427Y-83934846D01*
X142611953Y-84184206D01*
X143262194Y-84184774D01*
X143863155Y-83936462D01*
X144208699Y-83591520D01*
X144551427Y-83934846D01*
X145151953Y-84184206D01*
X145802194Y-84184774D01*
X146403155Y-83936462D01*
X146863346Y-83477073D01*
X147112706Y-82876547D01*
X147113274Y-82226306D01*
X146864962Y-81625345D01*
X146405573Y-81165154D01*
X145805047Y-80915794D01*
X145154806Y-80915226D01*
X144553845Y-81163538D01*
X144208301Y-81508480D01*
X143865573Y-81165154D01*
X143265047Y-80915794D01*
X142614806Y-80915226D01*
X142013845Y-81163538D01*
X141668301Y-81508480D01*
X141325573Y-81165154D01*
X140725047Y-80915794D01*
X140074806Y-80915226D01*
X139473845Y-81163538D01*
X139406698Y-81230568D01*
X139322080Y-81099069D01*
X139109880Y-80954079D01*
X138857990Y-80903070D01*
X136859010Y-80903070D01*
X136623693Y-80947348D01*
X136407569Y-81086420D01*
X136262579Y-81298620D01*
X136211570Y-81550510D01*
X120277781Y-81550510D01*
X120637846Y-81191073D01*
X120887206Y-80590547D01*
X120887774Y-79940306D01*
X120639462Y-79339345D01*
X120294520Y-78993801D01*
X120637846Y-78651073D01*
X120887206Y-78050547D01*
X120887774Y-77400306D01*
X120639462Y-76799345D01*
X120294520Y-76453801D01*
X120637846Y-76111073D01*
X120752269Y-75835510D01*
X123384570Y-75835510D01*
X123384570Y-77834490D01*
X123428848Y-78069807D01*
X123567920Y-78285931D01*
X123780120Y-78430921D01*
X124032010Y-78481930D01*
X126030990Y-78481930D01*
X126266307Y-78437652D01*
X126482431Y-78298580D01*
X126580193Y-78155500D01*
X126644427Y-78219846D01*
X127244953Y-78469206D01*
X127895194Y-78469774D01*
X128496155Y-78221462D01*
X128841699Y-77876520D01*
X129184427Y-78219846D01*
X129784953Y-78469206D01*
X130435194Y-78469774D01*
X131036155Y-78221462D01*
X131381699Y-77876520D01*
X131724427Y-78219846D01*
X132324953Y-78469206D01*
X132975194Y-78469774D01*
X133576155Y-78221462D01*
X134024322Y-77774076D01*
X159119304Y-77774076D01*
X159352567Y-78338615D01*
X159753573Y-78740322D01*
X159354085Y-79139113D01*
X159119837Y-79703244D01*
X159119304Y-80314076D01*
X159352567Y-80878615D01*
X159753573Y-81280322D01*
X159354085Y-81679113D01*
X159119837Y-82243244D01*
X159119304Y-82854076D01*
X159352567Y-83418615D01*
X159784113Y-83850915D01*
X160348244Y-84085163D01*
X160959076Y-84085696D01*
X161523615Y-83852433D01*
X161955915Y-83420887D01*
X162190163Y-82856756D01*
X162190583Y-82375771D01*
X162352717Y-82538188D01*
X162898319Y-82764742D01*
X163489089Y-82765257D01*
X164035086Y-82539656D01*
X164199722Y-82375307D01*
X164199304Y-82854076D01*
X164432567Y-83418615D01*
X164864113Y-83850915D01*
X165428244Y-84085163D01*
X166039076Y-84085696D01*
X166603615Y-83852433D01*
X167035915Y-83420887D01*
X167270163Y-82856756D01*
X167270520Y-82447089D01*
X167404113Y-82580915D01*
X167968244Y-82815163D01*
X168579076Y-82815696D01*
X169143615Y-82582433D01*
X169575915Y-82150887D01*
X169810163Y-81586756D01*
X169810696Y-80975924D01*
X169577433Y-80411385D01*
X169176427Y-80009678D01*
X169575915Y-79610887D01*
X169810163Y-79046756D01*
X169810696Y-78435924D01*
X169577433Y-77871385D01*
X169176427Y-77469678D01*
X169575915Y-77070887D01*
X169810163Y-76506756D01*
X169810696Y-75895924D01*
X169577433Y-75331385D01*
X169145887Y-74899085D01*
X168581756Y-74664837D01*
X167970924Y-74664304D01*
X167406385Y-74897567D01*
X166974085Y-75329113D01*
X166739837Y-75893244D01*
X166739417Y-76374229D01*
X166577283Y-76211812D01*
X166031681Y-75985258D01*
X165440911Y-75984743D01*
X164894914Y-76210344D01*
X164730278Y-76374693D01*
X164730696Y-75895924D01*
X164497433Y-75331385D01*
X164065887Y-74899085D01*
X163501756Y-74664837D01*
X162890924Y-74664304D01*
X162326385Y-74897567D01*
X161894085Y-75329113D01*
X161659837Y-75893244D01*
X161659480Y-76302911D01*
X161525887Y-76169085D01*
X160961756Y-75934837D01*
X160350924Y-75934304D01*
X159786385Y-76167567D01*
X159354085Y-76599113D01*
X159119837Y-77163244D01*
X159119304Y-77774076D01*
X134024322Y-77774076D01*
X134036346Y-77762073D01*
X134285706Y-77161547D01*
X134286274Y-76511306D01*
X134037962Y-75910345D01*
X133578573Y-75450154D01*
X132978047Y-75200794D01*
X132327806Y-75200226D01*
X131726845Y-75448538D01*
X131381301Y-75793480D01*
X131038573Y-75450154D01*
X130438047Y-75200794D01*
X129787806Y-75200226D01*
X129186845Y-75448538D01*
X128841301Y-75793480D01*
X128498573Y-75450154D01*
X127898047Y-75200794D01*
X127247806Y-75200226D01*
X126646845Y-75448538D01*
X126579698Y-75515568D01*
X126495080Y-75384069D01*
X126282880Y-75239079D01*
X126030990Y-75188070D01*
X124032010Y-75188070D01*
X123796693Y-75232348D01*
X123580569Y-75371420D01*
X123435579Y-75583620D01*
X123384570Y-75835510D01*
X120752269Y-75835510D01*
X120887206Y-75510547D01*
X120887774Y-74860306D01*
X120765967Y-74565510D01*
X136211570Y-74565510D01*
X136211570Y-76564490D01*
X136255848Y-76799807D01*
X136394920Y-77015931D01*
X136607120Y-77160921D01*
X136859010Y-77211930D01*
X138857990Y-77211930D01*
X139093307Y-77167652D01*
X139309431Y-77028580D01*
X139407193Y-76885500D01*
X139471427Y-76949846D01*
X140071953Y-77199206D01*
X140722194Y-77199774D01*
X141323155Y-76951462D01*
X141668699Y-76606520D01*
X142011427Y-76949846D01*
X142611953Y-77199206D01*
X143262194Y-77199774D01*
X143863155Y-76951462D01*
X144208699Y-76606520D01*
X144551427Y-76949846D01*
X145151953Y-77199206D01*
X145802194Y-77199774D01*
X146403155Y-76951462D01*
X146863346Y-76492073D01*
X147112706Y-75891547D01*
X147113274Y-75241306D01*
X146864962Y-74640345D01*
X146405573Y-74180154D01*
X145805047Y-73930794D01*
X145154806Y-73930226D01*
X144553845Y-74178538D01*
X144208301Y-74523480D01*
X143865573Y-74180154D01*
X143265047Y-73930794D01*
X142614806Y-73930226D01*
X142013845Y-74178538D01*
X141668301Y-74523480D01*
X141325573Y-74180154D01*
X140725047Y-73930794D01*
X140074806Y-73930226D01*
X139473845Y-74178538D01*
X139406698Y-74245568D01*
X139322080Y-74114069D01*
X139109880Y-73969079D01*
X138857990Y-73918070D01*
X136859010Y-73918070D01*
X136623693Y-73962348D01*
X136407569Y-74101420D01*
X136262579Y-74313620D01*
X136211570Y-74565510D01*
X120765967Y-74565510D01*
X120639462Y-74259345D01*
X120512221Y-74131882D01*
X120703931Y-74008520D01*
X120848921Y-73796320D01*
X120899930Y-73544430D01*
X120899930Y-71743570D01*
X120855652Y-71508253D01*
X120716580Y-71292129D01*
X120504380Y-71147139D01*
X120252490Y-71096130D01*
X118253510Y-71096130D01*
X118018193Y-71140408D01*
X117802069Y-71279480D01*
X117657079Y-71491680D01*
X117606070Y-71743570D01*
X117213000Y-71743570D01*
X117213000Y-61831427D01*
X117362777Y-61470724D01*
X117363223Y-60959519D01*
X117168005Y-60487057D01*
X116994822Y-60313570D01*
X117606070Y-60313570D01*
X117606070Y-62114430D01*
X117650348Y-62349747D01*
X117789420Y-62565871D01*
X117991411Y-62703885D01*
X117868154Y-62826927D01*
X117618794Y-63427453D01*
X117618226Y-64077694D01*
X117866538Y-64678655D01*
X118211480Y-65024199D01*
X117868154Y-65366927D01*
X117618794Y-65967453D01*
X117618226Y-66617694D01*
X117866538Y-67218655D01*
X118211480Y-67564199D01*
X117868154Y-67906927D01*
X117618794Y-68507453D01*
X117618226Y-69157694D01*
X117866538Y-69758655D01*
X118325927Y-70218846D01*
X118926453Y-70468206D01*
X119576694Y-70468774D01*
X120177655Y-70220462D01*
X120637846Y-69761073D01*
X120887206Y-69160547D01*
X120887476Y-68850510D01*
X123384570Y-68850510D01*
X123384570Y-70849490D01*
X123428848Y-71084807D01*
X123567920Y-71300931D01*
X123780120Y-71445921D01*
X124032010Y-71496930D01*
X126030990Y-71496930D01*
X126266307Y-71452652D01*
X126482431Y-71313580D01*
X126580193Y-71170500D01*
X126644427Y-71234846D01*
X127244953Y-71484206D01*
X127895194Y-71484774D01*
X128496155Y-71236462D01*
X128841699Y-70891520D01*
X129184427Y-71234846D01*
X129784953Y-71484206D01*
X130435194Y-71484774D01*
X131036155Y-71236462D01*
X131381699Y-70891520D01*
X131724427Y-71234846D01*
X132324953Y-71484206D01*
X132975194Y-71484774D01*
X133576155Y-71236462D01*
X134036346Y-70777073D01*
X134235403Y-70297688D01*
X152044008Y-70297688D01*
X152387439Y-71128854D01*
X153022801Y-71765326D01*
X153763354Y-72072831D01*
X153026146Y-72377439D01*
X152389674Y-73012801D01*
X152044793Y-73843366D01*
X152044008Y-74742688D01*
X152387439Y-75573854D01*
X153022801Y-76210326D01*
X153853366Y-76555207D01*
X154752688Y-76555992D01*
X155583854Y-76212561D01*
X156220326Y-75577199D01*
X156565207Y-74746634D01*
X156565992Y-73847312D01*
X156222561Y-73016146D01*
X155587199Y-72379674D01*
X154846646Y-72072169D01*
X155583854Y-71767561D01*
X156220326Y-71132199D01*
X156565207Y-70301634D01*
X156565210Y-70297688D01*
X172364008Y-70297688D01*
X172707439Y-71128854D01*
X173342801Y-71765326D01*
X174083354Y-72072831D01*
X173346146Y-72377439D01*
X172709674Y-73012801D01*
X172364793Y-73843366D01*
X172364008Y-74742688D01*
X172707439Y-75573854D01*
X173342801Y-76210326D01*
X174173366Y-76555207D01*
X175072688Y-76555992D01*
X175903854Y-76212561D01*
X176540326Y-75577199D01*
X176885207Y-74746634D01*
X176885992Y-73847312D01*
X176542561Y-73016146D01*
X175907199Y-72379674D01*
X175166646Y-72072169D01*
X175903854Y-71767561D01*
X176540326Y-71132199D01*
X176885207Y-70301634D01*
X176885992Y-69402312D01*
X176542561Y-68571146D01*
X175907199Y-67934674D01*
X175076634Y-67589793D01*
X174177312Y-67589008D01*
X173346146Y-67932439D01*
X172709674Y-68567801D01*
X172364793Y-69398366D01*
X172364008Y-70297688D01*
X156565210Y-70297688D01*
X156565992Y-69402312D01*
X156222561Y-68571146D01*
X155587199Y-67934674D01*
X154756634Y-67589793D01*
X153857312Y-67589008D01*
X153026146Y-67932439D01*
X152389674Y-68567801D01*
X152044793Y-69398366D01*
X152044008Y-70297688D01*
X134235403Y-70297688D01*
X134285706Y-70176547D01*
X134286274Y-69526306D01*
X134037962Y-68925345D01*
X133578573Y-68465154D01*
X132978047Y-68215794D01*
X132327806Y-68215226D01*
X131726845Y-68463538D01*
X131381301Y-68808480D01*
X131038573Y-68465154D01*
X130438047Y-68215794D01*
X129787806Y-68215226D01*
X129186845Y-68463538D01*
X128841301Y-68808480D01*
X128498573Y-68465154D01*
X127898047Y-68215794D01*
X127247806Y-68215226D01*
X126646845Y-68463538D01*
X126579698Y-68530568D01*
X126495080Y-68399069D01*
X126282880Y-68254079D01*
X126030990Y-68203070D01*
X124032010Y-68203070D01*
X123796693Y-68247348D01*
X123580569Y-68386420D01*
X123435579Y-68598620D01*
X123384570Y-68850510D01*
X120887476Y-68850510D01*
X120887774Y-68510306D01*
X120639462Y-67909345D01*
X120311200Y-67580510D01*
X136211570Y-67580510D01*
X136211570Y-69579490D01*
X136255848Y-69814807D01*
X136394920Y-70030931D01*
X136607120Y-70175921D01*
X136859010Y-70226930D01*
X138857990Y-70226930D01*
X139093307Y-70182652D01*
X139309431Y-70043580D01*
X139407193Y-69900500D01*
X139471427Y-69964846D01*
X140071953Y-70214206D01*
X140722194Y-70214774D01*
X141323155Y-69966462D01*
X141668699Y-69621520D01*
X142011427Y-69964846D01*
X142611953Y-70214206D01*
X143262194Y-70214774D01*
X143863155Y-69966462D01*
X144208699Y-69621520D01*
X144551427Y-69964846D01*
X145151953Y-70214206D01*
X145802194Y-70214774D01*
X146403155Y-69966462D01*
X146863346Y-69507073D01*
X147112706Y-68906547D01*
X147113274Y-68256306D01*
X146864962Y-67655345D01*
X146405573Y-67195154D01*
X145805047Y-66945794D01*
X145154806Y-66945226D01*
X144553845Y-67193538D01*
X144208301Y-67538480D01*
X143865573Y-67195154D01*
X143265047Y-66945794D01*
X142614806Y-66945226D01*
X142013845Y-67193538D01*
X141668301Y-67538480D01*
X141325573Y-67195154D01*
X140725047Y-66945794D01*
X140074806Y-66945226D01*
X139473845Y-67193538D01*
X139406698Y-67260568D01*
X139322080Y-67129069D01*
X139109880Y-66984079D01*
X138857990Y-66933070D01*
X136859010Y-66933070D01*
X136623693Y-66977348D01*
X136407569Y-67116420D01*
X136262579Y-67328620D01*
X136211570Y-67580510D01*
X120311200Y-67580510D01*
X120294520Y-67563801D01*
X120637846Y-67221073D01*
X120887206Y-66620547D01*
X120887774Y-65970306D01*
X120639462Y-65369345D01*
X120294520Y-65023801D01*
X120637846Y-64681073D01*
X120887206Y-64080547D01*
X120887774Y-63430306D01*
X120639462Y-62829345D01*
X120512221Y-62701882D01*
X120703931Y-62578520D01*
X120848921Y-62366320D01*
X120899930Y-62114430D01*
X120899930Y-61865510D01*
X123384570Y-61865510D01*
X123384570Y-63864490D01*
X123428848Y-64099807D01*
X123567920Y-64315931D01*
X123780120Y-64460921D01*
X124032010Y-64511930D01*
X126030990Y-64511930D01*
X126266307Y-64467652D01*
X126482431Y-64328580D01*
X126580193Y-64185500D01*
X126644427Y-64249846D01*
X127244953Y-64499206D01*
X127895194Y-64499774D01*
X128496155Y-64251462D01*
X128841699Y-63906520D01*
X129184427Y-64249846D01*
X129784953Y-64499206D01*
X130435194Y-64499774D01*
X131036155Y-64251462D01*
X131381699Y-63906520D01*
X131724427Y-64249846D01*
X132324953Y-64499206D01*
X132975194Y-64499774D01*
X133576155Y-64251462D01*
X134036346Y-63792073D01*
X134285706Y-63191547D01*
X134286274Y-62541306D01*
X134037962Y-61940345D01*
X133578573Y-61480154D01*
X132978047Y-61230794D01*
X132327806Y-61230226D01*
X131726845Y-61478538D01*
X131381301Y-61823480D01*
X131038573Y-61480154D01*
X130438047Y-61230794D01*
X129787806Y-61230226D01*
X129186845Y-61478538D01*
X128841301Y-61823480D01*
X128498573Y-61480154D01*
X127898047Y-61230794D01*
X127247806Y-61230226D01*
X126646845Y-61478538D01*
X126579698Y-61545568D01*
X126495080Y-61414069D01*
X126282880Y-61269079D01*
X126030990Y-61218070D01*
X124032010Y-61218070D01*
X123796693Y-61262348D01*
X123580569Y-61401420D01*
X123435579Y-61613620D01*
X123384570Y-61865510D01*
X120899930Y-61865510D01*
X120899930Y-60595510D01*
X136211570Y-60595510D01*
X136211570Y-62594490D01*
X136255848Y-62829807D01*
X136394920Y-63045931D01*
X136607120Y-63190921D01*
X136859010Y-63241930D01*
X138857990Y-63241930D01*
X139093307Y-63197652D01*
X139309431Y-63058580D01*
X139407193Y-62915500D01*
X139471427Y-62979846D01*
X140071953Y-63229206D01*
X140722194Y-63229774D01*
X141323155Y-62981462D01*
X141668699Y-62636520D01*
X142011427Y-62979846D01*
X142611953Y-63229206D01*
X143262194Y-63229774D01*
X143863155Y-62981462D01*
X144208699Y-62636520D01*
X144551427Y-62979846D01*
X145151953Y-63229206D01*
X145802194Y-63229774D01*
X145949094Y-63169076D01*
X159119304Y-63169076D01*
X159352567Y-63733615D01*
X159753573Y-64135322D01*
X159354085Y-64534113D01*
X159119837Y-65098244D01*
X159119304Y-65709076D01*
X159352567Y-66273615D01*
X159753573Y-66675322D01*
X159354085Y-67074113D01*
X159119837Y-67638244D01*
X159119304Y-68249076D01*
X159352567Y-68813615D01*
X159784113Y-69245915D01*
X160348244Y-69480163D01*
X160959076Y-69480696D01*
X161523615Y-69247433D01*
X161955915Y-68815887D01*
X162190163Y-68251756D01*
X162190583Y-67770771D01*
X162352717Y-67933188D01*
X162898319Y-68159742D01*
X163489089Y-68160257D01*
X164035086Y-67934656D01*
X164199722Y-67770307D01*
X164199304Y-68249076D01*
X164432567Y-68813615D01*
X164864113Y-69245915D01*
X165428244Y-69480163D01*
X166039076Y-69480696D01*
X166603615Y-69247433D01*
X167035915Y-68815887D01*
X167270163Y-68251756D01*
X167270520Y-67842089D01*
X167404113Y-67975915D01*
X167968244Y-68210163D01*
X168579076Y-68210696D01*
X169143615Y-67977433D01*
X169575915Y-67545887D01*
X169810163Y-66981756D01*
X169810696Y-66370924D01*
X169577433Y-65806385D01*
X169176427Y-65404678D01*
X169575915Y-65005887D01*
X169810163Y-64441756D01*
X169810696Y-63830924D01*
X169577433Y-63266385D01*
X169176427Y-62864678D01*
X169575915Y-62465887D01*
X169810163Y-61901756D01*
X169810696Y-61290924D01*
X169577433Y-60726385D01*
X169145887Y-60294085D01*
X168769242Y-60137688D01*
X172364008Y-60137688D01*
X172707439Y-60968854D01*
X173342801Y-61605326D01*
X174173366Y-61950207D01*
X175072688Y-61950992D01*
X175903854Y-61607561D01*
X176540326Y-60972199D01*
X176885207Y-60141634D01*
X176885992Y-59242312D01*
X176542561Y-58411146D01*
X175907199Y-57774674D01*
X175076634Y-57429793D01*
X174177312Y-57429008D01*
X173346146Y-57772439D01*
X172709674Y-58407801D01*
X172364793Y-59238366D01*
X172364008Y-60137688D01*
X168769242Y-60137688D01*
X168581756Y-60059837D01*
X167970924Y-60059304D01*
X167406385Y-60292567D01*
X166974085Y-60724113D01*
X166739837Y-61288244D01*
X166739417Y-61769229D01*
X166577283Y-61606812D01*
X166031681Y-61380258D01*
X165440911Y-61379743D01*
X164894914Y-61605344D01*
X164730278Y-61769693D01*
X164730696Y-61290924D01*
X164497433Y-60726385D01*
X164065887Y-60294085D01*
X163501756Y-60059837D01*
X162890924Y-60059304D01*
X162326385Y-60292567D01*
X161894085Y-60724113D01*
X161659837Y-61288244D01*
X161659480Y-61697911D01*
X161525887Y-61564085D01*
X160961756Y-61329837D01*
X160350924Y-61329304D01*
X159786385Y-61562567D01*
X159354085Y-61994113D01*
X159119837Y-62558244D01*
X159119304Y-63169076D01*
X145949094Y-63169076D01*
X146403155Y-62981462D01*
X146863346Y-62522073D01*
X147112706Y-61921547D01*
X147113274Y-61271306D01*
X146864962Y-60670345D01*
X146405573Y-60210154D01*
X146231056Y-60137688D01*
X152044008Y-60137688D01*
X152387439Y-60968854D01*
X153022801Y-61605326D01*
X153853366Y-61950207D01*
X154752688Y-61950992D01*
X155583854Y-61607561D01*
X156220326Y-60972199D01*
X156565207Y-60141634D01*
X156565992Y-59242312D01*
X156222561Y-58411146D01*
X155587199Y-57774674D01*
X154756634Y-57429793D01*
X153857312Y-57429008D01*
X153026146Y-57772439D01*
X152389674Y-58407801D01*
X152044793Y-59238366D01*
X152044008Y-60137688D01*
X146231056Y-60137688D01*
X145805047Y-59960794D01*
X145154806Y-59960226D01*
X144553845Y-60208538D01*
X144208301Y-60553480D01*
X143865573Y-60210154D01*
X143265047Y-59960794D01*
X142614806Y-59960226D01*
X142013845Y-60208538D01*
X141668301Y-60553480D01*
X141325573Y-60210154D01*
X140725047Y-59960794D01*
X140074806Y-59960226D01*
X139473845Y-60208538D01*
X139406698Y-60275568D01*
X139322080Y-60144069D01*
X139109880Y-59999079D01*
X138857990Y-59948070D01*
X136859010Y-59948070D01*
X136623693Y-59992348D01*
X136407569Y-60131420D01*
X136262579Y-60343620D01*
X136211570Y-60595510D01*
X120899930Y-60595510D01*
X120899930Y-60313570D01*
X120855652Y-60078253D01*
X120716580Y-59862129D01*
X120504380Y-59717139D01*
X120252490Y-59666130D01*
X118253510Y-59666130D01*
X118018193Y-59710408D01*
X117802069Y-59849480D01*
X117657079Y-60061680D01*
X117606070Y-60313570D01*
X116994822Y-60313570D01*
X116806845Y-60125265D01*
X116334724Y-59929223D01*
X115823519Y-59928777D01*
X115351057Y-60123995D01*
X114989265Y-60485155D01*
X114793223Y-60957276D01*
X114792777Y-61468481D01*
X103234601Y-61468481D01*
X103234774Y-61271306D01*
X102986462Y-60670345D01*
X102859221Y-60542882D01*
X103050931Y-60419520D01*
X103195921Y-60207320D01*
X103246930Y-59955430D01*
X103246930Y-58154570D01*
X103202652Y-57919253D01*
X103063580Y-57703129D01*
X102851380Y-57558139D01*
X102599490Y-57507130D01*
X100600510Y-57507130D01*
X100365193Y-57551408D01*
X100149069Y-57690480D01*
X100004079Y-57902680D01*
X99953070Y-58154570D01*
X99341822Y-58154570D01*
X99153845Y-57966265D01*
X98681724Y-57770223D01*
X98170519Y-57769777D01*
X97698057Y-57964995D01*
X97336265Y-58326155D01*
X97140223Y-58798276D01*
X97139777Y-59309481D01*
X87070000Y-59309481D01*
X87070000Y-47700000D01*
X93650493Y-47700000D01*
X93615277Y-47714551D01*
X93615277Y-47714551D01*
G37*
X93615277Y-47714551D02*
X92169628Y-49157680D01*
X91386283Y-51044182D01*
X91384501Y-53086856D01*
X92164551Y-54974723D01*
X93607680Y-56420372D01*
X95494182Y-57203717D01*
X97536856Y-57205499D01*
X99424723Y-56425449D01*
X100870372Y-54982320D01*
X101653717Y-53095818D01*
X101655499Y-51053144D01*
X100875449Y-49165277D01*
X99432320Y-47719628D01*
X99385051Y-47700000D01*
X111430493Y-47700000D01*
X111395277Y-47714551D01*
X109949628Y-49157680D01*
X109166283Y-51044182D01*
X109164501Y-53086856D01*
X109944551Y-54974723D01*
X111387680Y-56420372D01*
X113274182Y-57203717D01*
X115316856Y-57205499D01*
X117204723Y-56425449D01*
X118650372Y-54982320D01*
X119433717Y-53095818D01*
X119435499Y-51053144D01*
X118655449Y-49165277D01*
X117212320Y-47719628D01*
X117165051Y-47700000D01*
X126035493Y-47700000D01*
X126000277Y-47714551D01*
X124554628Y-49157680D01*
X123771283Y-51044182D01*
X123769501Y-53086856D01*
X124549551Y-54974723D01*
X125992680Y-56420372D01*
X127879182Y-57203717D01*
X129921856Y-57205499D01*
X131809723Y-56425449D01*
X133255372Y-54982320D01*
X134038717Y-53095818D01*
X134040499Y-51053144D01*
X133260449Y-49165277D01*
X131817320Y-47719628D01*
X131770051Y-47700000D01*
X138735493Y-47700000D01*
X138700277Y-47714551D01*
X137254628Y-49157680D01*
X136471283Y-51044182D01*
X136469501Y-53086856D01*
X137249551Y-54974723D01*
X138692680Y-56420372D01*
X140579182Y-57203717D01*
X142621856Y-57205499D01*
X144509723Y-56425449D01*
X145955372Y-54982320D01*
X146738717Y-53095818D01*
X146740499Y-51053144D01*
X145960449Y-49165277D01*
X144517320Y-47719628D01*
X144470051Y-47700000D01*
X151562493Y-47700000D01*
X151527277Y-47714551D01*
X150081628Y-49157680D01*
X149298283Y-51044182D01*
X149296501Y-53086856D01*
X150076551Y-54974723D01*
X151519680Y-56420372D01*
X153406182Y-57203717D01*
X155448856Y-57205499D01*
X157336723Y-56425449D01*
X158782372Y-54982320D01*
X159565717Y-53095818D01*
X159567499Y-51053144D01*
X158787449Y-49165277D01*
X157344320Y-47719628D01*
X157297051Y-47700000D01*
X171628493Y-47700000D01*
X171593277Y-47714551D01*
X170147628Y-49157680D01*
X169364283Y-51044182D01*
X169362501Y-53086856D01*
X170142551Y-54974723D01*
X171585680Y-56420372D01*
X173472182Y-57203717D01*
X175514856Y-57205499D01*
X177402723Y-56425449D01*
X178848372Y-54982320D01*
X179503000Y-53405803D01*
X179503000Y-120777812D01*
X178853449Y-119205777D01*
X177410320Y-117760128D01*
X175523818Y-116976783D01*
X173481144Y-116975001D01*
X171593277Y-117755051D01*
X170147628Y-119198180D01*
X169364283Y-121084682D01*
X169362501Y-123127356D01*
X170142551Y-125015223D01*
X171585680Y-126460872D01*
X172244649Y-126734500D01*
X156686779Y-126734500D01*
X157336723Y-126465949D01*
X158782372Y-125022820D01*
X159565717Y-123136318D01*
X159567499Y-121093644D01*
X158787449Y-119205777D01*
X157344320Y-117760128D01*
X155457818Y-116976783D01*
X153415144Y-116975001D01*
X151527277Y-117755051D01*
X150081628Y-119198180D01*
X149935000Y-119551299D01*
X149935000Y-114112688D01*
X152044008Y-114112688D01*
X152387439Y-114943854D01*
X153022801Y-115580326D01*
X153853366Y-115925207D01*
X154752688Y-115925992D01*
X155583854Y-115582561D01*
X156220326Y-114947199D01*
X156565207Y-114116634D01*
X156565210Y-114112688D01*
X172364008Y-114112688D01*
X172707439Y-114943854D01*
X173342801Y-115580326D01*
X174173366Y-115925207D01*
X175072688Y-115925992D01*
X175903854Y-115582561D01*
X176540326Y-114947199D01*
X176885207Y-114116634D01*
X176885992Y-113217312D01*
X176542561Y-112386146D01*
X175907199Y-111749674D01*
X175076634Y-111404793D01*
X174177312Y-111404008D01*
X173346146Y-111747439D01*
X172709674Y-112382801D01*
X172364793Y-113213366D01*
X172364008Y-114112688D01*
X156565210Y-114112688D01*
X156565992Y-113217312D01*
X156222561Y-112386146D01*
X155587199Y-111749674D01*
X154756634Y-111404793D01*
X153857312Y-111404008D01*
X153026146Y-111747439D01*
X152389674Y-112382801D01*
X152044793Y-113213366D01*
X152044008Y-114112688D01*
X149935000Y-114112688D01*
X149935000Y-106984076D01*
X159119304Y-106984076D01*
X159352567Y-107548615D01*
X159753573Y-107950322D01*
X159354085Y-108349113D01*
X159119837Y-108913244D01*
X159119304Y-109524076D01*
X159352567Y-110088615D01*
X159753573Y-110490322D01*
X159354085Y-110889113D01*
X159119837Y-111453244D01*
X159119304Y-112064076D01*
X159352567Y-112628615D01*
X159784113Y-113060915D01*
X160348244Y-113295163D01*
X160959076Y-113295696D01*
X161523615Y-113062433D01*
X161955915Y-112630887D01*
X162190163Y-112066756D01*
X162190583Y-111585771D01*
X162352717Y-111748188D01*
X162898319Y-111974742D01*
X163489089Y-111975257D01*
X164035086Y-111749656D01*
X164199722Y-111585307D01*
X164199304Y-112064076D01*
X164432567Y-112628615D01*
X164864113Y-113060915D01*
X165428244Y-113295163D01*
X166039076Y-113295696D01*
X166603615Y-113062433D01*
X167035915Y-112630887D01*
X167270163Y-112066756D01*
X167270520Y-111657089D01*
X167404113Y-111790915D01*
X167968244Y-112025163D01*
X168579076Y-112025696D01*
X169143615Y-111792433D01*
X169575915Y-111360887D01*
X169810163Y-110796756D01*
X169810696Y-110185924D01*
X169577433Y-109621385D01*
X169176427Y-109219678D01*
X169575915Y-108820887D01*
X169810163Y-108256756D01*
X169810696Y-107645924D01*
X169577433Y-107081385D01*
X169176427Y-106679678D01*
X169575915Y-106280887D01*
X169810163Y-105716756D01*
X169810696Y-105105924D01*
X169577433Y-104541385D01*
X169145887Y-104109085D01*
X168581756Y-103874837D01*
X167970924Y-103874304D01*
X167406385Y-104107567D01*
X166974085Y-104539113D01*
X166739837Y-105103244D01*
X166739417Y-105584229D01*
X166577283Y-105421812D01*
X166031681Y-105195258D01*
X165440911Y-105194743D01*
X164894914Y-105420344D01*
X164730278Y-105584693D01*
X164730696Y-105105924D01*
X164497433Y-104541385D01*
X164065887Y-104109085D01*
X163501756Y-103874837D01*
X162890924Y-103874304D01*
X162326385Y-104107567D01*
X161894085Y-104539113D01*
X161659837Y-105103244D01*
X161659480Y-105512911D01*
X161525887Y-105379085D01*
X160961756Y-105144837D01*
X160350924Y-105144304D01*
X159786385Y-105377567D01*
X159354085Y-105809113D01*
X159119837Y-106373244D01*
X159119304Y-106984076D01*
X149935000Y-106984076D01*
X149935000Y-99507688D01*
X152044008Y-99507688D01*
X152387439Y-100338854D01*
X153022801Y-100975326D01*
X153763354Y-101282831D01*
X153026146Y-101587439D01*
X152389674Y-102222801D01*
X152044793Y-103053366D01*
X152044008Y-103952688D01*
X152387439Y-104783854D01*
X153022801Y-105420326D01*
X153853366Y-105765207D01*
X154752688Y-105765992D01*
X155583854Y-105422561D01*
X156220326Y-104787199D01*
X156565207Y-103956634D01*
X156565992Y-103057312D01*
X156222561Y-102226146D01*
X155587199Y-101589674D01*
X154846646Y-101282169D01*
X155583854Y-100977561D01*
X156220326Y-100342199D01*
X156565207Y-99511634D01*
X156565210Y-99507688D01*
X172364008Y-99507688D01*
X172707439Y-100338854D01*
X173342801Y-100975326D01*
X174083354Y-101282831D01*
X173346146Y-101587439D01*
X172709674Y-102222801D01*
X172364793Y-103053366D01*
X172364008Y-103952688D01*
X172707439Y-104783854D01*
X173342801Y-105420326D01*
X174173366Y-105765207D01*
X175072688Y-105765992D01*
X175903854Y-105422561D01*
X176540326Y-104787199D01*
X176885207Y-103956634D01*
X176885992Y-103057312D01*
X176542561Y-102226146D01*
X175907199Y-101589674D01*
X175166646Y-101282169D01*
X175903854Y-100977561D01*
X176540326Y-100342199D01*
X176885207Y-99511634D01*
X176885992Y-98612312D01*
X176542561Y-97781146D01*
X175907199Y-97144674D01*
X175076634Y-96799793D01*
X174177312Y-96799008D01*
X173346146Y-97142439D01*
X172709674Y-97777801D01*
X172364793Y-98608366D01*
X172364008Y-99507688D01*
X156565210Y-99507688D01*
X156565992Y-98612312D01*
X156222561Y-97781146D01*
X155587199Y-97144674D01*
X154756634Y-96799793D01*
X153857312Y-96799008D01*
X153026146Y-97142439D01*
X152389674Y-97777801D01*
X152044793Y-98608366D01*
X152044008Y-99507688D01*
X149935000Y-99507688D01*
X149935000Y-97218500D01*
X149880954Y-96946795D01*
X149727046Y-96716454D01*
X149496705Y-96562546D01*
X149225000Y-96508500D01*
X144320825Y-96508500D01*
X144509723Y-96430449D01*
X145955372Y-94987320D01*
X146738717Y-93100818D01*
X146739346Y-92379076D01*
X159119304Y-92379076D01*
X159352567Y-92943615D01*
X159753573Y-93345322D01*
X159354085Y-93744113D01*
X159119837Y-94308244D01*
X159119304Y-94919076D01*
X159352567Y-95483615D01*
X159753573Y-95885322D01*
X159354085Y-96284113D01*
X159119837Y-96848244D01*
X159119304Y-97459076D01*
X159352567Y-98023615D01*
X159784113Y-98455915D01*
X160348244Y-98690163D01*
X160959076Y-98690696D01*
X161523615Y-98457433D01*
X161955915Y-98025887D01*
X162190163Y-97461756D01*
X162190583Y-96980771D01*
X162352717Y-97143188D01*
X162898319Y-97369742D01*
X163489089Y-97370257D01*
X164035086Y-97144656D01*
X164199722Y-96980307D01*
X164199304Y-97459076D01*
X164432567Y-98023615D01*
X164864113Y-98455915D01*
X165428244Y-98690163D01*
X166039076Y-98690696D01*
X166603615Y-98457433D01*
X167035915Y-98025887D01*
X167270163Y-97461756D01*
X167270520Y-97052089D01*
X167404113Y-97185915D01*
X167968244Y-97420163D01*
X168579076Y-97420696D01*
X169143615Y-97187433D01*
X169575915Y-96755887D01*
X169810163Y-96191756D01*
X169810696Y-95580924D01*
X169577433Y-95016385D01*
X169176427Y-94614678D01*
X169575915Y-94215887D01*
X169810163Y-93651756D01*
X169810696Y-93040924D01*
X169577433Y-92476385D01*
X169176427Y-92074678D01*
X169575915Y-91675887D01*
X169810163Y-91111756D01*
X169810696Y-90500924D01*
X169577433Y-89936385D01*
X169145887Y-89504085D01*
X168581756Y-89269837D01*
X167970924Y-89269304D01*
X167406385Y-89502567D01*
X166974085Y-89934113D01*
X166739837Y-90498244D01*
X166739417Y-90979229D01*
X166577283Y-90816812D01*
X166031681Y-90590258D01*
X165440911Y-90589743D01*
X164894914Y-90815344D01*
X164730278Y-90979693D01*
X164730696Y-90500924D01*
X164497433Y-89936385D01*
X164065887Y-89504085D01*
X163501756Y-89269837D01*
X162890924Y-89269304D01*
X162326385Y-89502567D01*
X161894085Y-89934113D01*
X161659837Y-90498244D01*
X161659480Y-90907911D01*
X161525887Y-90774085D01*
X160961756Y-90539837D01*
X160350924Y-90539304D01*
X159786385Y-90772567D01*
X159354085Y-91204113D01*
X159119837Y-91768244D01*
X159119304Y-92379076D01*
X146739346Y-92379076D01*
X146740499Y-91058144D01*
X145960449Y-89170277D01*
X144517320Y-87724628D01*
X142630818Y-86941283D01*
X140588144Y-86939501D01*
X138700277Y-87719551D01*
X137254628Y-89162680D01*
X136471283Y-91049182D01*
X136469501Y-93091856D01*
X137249551Y-94979723D01*
X138692680Y-96425372D01*
X138892874Y-96508500D01*
X135255000Y-96508500D01*
X134983295Y-96562546D01*
X134752954Y-96716454D01*
X134599046Y-96946795D01*
X134545000Y-97218500D01*
X134545000Y-126607500D01*
X131467143Y-126607500D01*
X131809723Y-126465949D01*
X133255372Y-125022820D01*
X134038717Y-123136318D01*
X134040499Y-121093644D01*
X133260449Y-119205777D01*
X131817320Y-117760128D01*
X129930818Y-116976783D01*
X127888144Y-116975001D01*
X126000277Y-117755051D01*
X124554628Y-119198180D01*
X123771283Y-121084682D01*
X123769501Y-123127356D01*
X124549551Y-125015223D01*
X125992680Y-126460872D01*
X126345799Y-126607500D01*
X123328500Y-126607500D01*
X123328500Y-117665500D01*
X123274454Y-117393795D01*
X123120546Y-117163454D01*
X122890205Y-117009546D01*
X122618500Y-116955500D01*
X115940052Y-116955500D01*
X117204723Y-116432949D01*
X118650372Y-114989820D01*
X119433717Y-113103318D01*
X119435499Y-111060644D01*
X119311487Y-110760510D01*
X123384570Y-110760510D01*
X123384570Y-112759490D01*
X123428848Y-112994807D01*
X123567920Y-113210931D01*
X123780120Y-113355921D01*
X124032010Y-113406930D01*
X126030990Y-113406930D01*
X126266307Y-113362652D01*
X126482431Y-113223580D01*
X126580193Y-113080500D01*
X126644427Y-113144846D01*
X127244953Y-113394206D01*
X127895194Y-113394774D01*
X128496155Y-113146462D01*
X128841699Y-112801520D01*
X129184427Y-113144846D01*
X129784953Y-113394206D01*
X130435194Y-113394774D01*
X131036155Y-113146462D01*
X131381699Y-112801520D01*
X131724427Y-113144846D01*
X132324953Y-113394206D01*
X132975194Y-113394774D01*
X133576155Y-113146462D01*
X134036346Y-112687073D01*
X134285706Y-112086547D01*
X134286274Y-111436306D01*
X134037962Y-110835345D01*
X133578573Y-110375154D01*
X132978047Y-110125794D01*
X132327806Y-110125226D01*
X131726845Y-110373538D01*
X131381301Y-110718480D01*
X131038573Y-110375154D01*
X130438047Y-110125794D01*
X129787806Y-110125226D01*
X129186845Y-110373538D01*
X128841301Y-110718480D01*
X128498573Y-110375154D01*
X127898047Y-110125794D01*
X127247806Y-110125226D01*
X126646845Y-110373538D01*
X126579698Y-110440568D01*
X126495080Y-110309069D01*
X126282880Y-110164079D01*
X126030990Y-110113070D01*
X124032010Y-110113070D01*
X123796693Y-110157348D01*
X123580569Y-110296420D01*
X123435579Y-110508620D01*
X123384570Y-110760510D01*
X119311487Y-110760510D01*
X118655449Y-109172777D01*
X117212320Y-107727128D01*
X115325818Y-106943783D01*
X113283144Y-106942001D01*
X111395277Y-107722051D01*
X109949628Y-109165180D01*
X109166283Y-111051682D01*
X109164501Y-113094356D01*
X109944551Y-114982223D01*
X111387680Y-116427872D01*
X112658348Y-116955500D01*
X104140000Y-116955500D01*
X103868295Y-117009546D01*
X103637954Y-117163454D01*
X103484046Y-117393795D01*
X103430000Y-117665500D01*
X103430000Y-145975000D01*
X99919034Y-145975000D01*
X100870372Y-145025320D01*
X101653717Y-143138818D01*
X101655499Y-141096144D01*
X100875449Y-139208277D01*
X99432320Y-137762628D01*
X97545818Y-136979283D01*
X95503144Y-136977501D01*
X93615277Y-137757551D01*
X92169628Y-139200680D01*
X91386283Y-141087182D01*
X91384501Y-143129856D01*
X92164551Y-145017723D01*
X93120159Y-145975000D01*
X87070000Y-145975000D01*
X87070000Y-66929481D01*
X89519777Y-66929481D01*
X89670000Y-67293047D01*
X89670000Y-77487573D01*
X89520223Y-77848276D01*
X89519777Y-78359481D01*
X89670000Y-78723047D01*
X89670000Y-88917573D01*
X89520223Y-89278276D01*
X89519777Y-89789481D01*
X89670000Y-90153047D01*
X89670000Y-100347573D01*
X89520223Y-100708276D01*
X89519777Y-101219481D01*
X89670000Y-101583047D01*
X89670000Y-111777573D01*
X89520223Y-112138276D01*
X89519777Y-112649481D01*
X89670000Y-113013047D01*
X89670000Y-123207573D01*
X89520223Y-123568276D01*
X89519777Y-124079481D01*
X89670000Y-124443047D01*
X89670000Y-134637573D01*
X89520223Y-134998276D01*
X89519777Y-135509481D01*
X89714995Y-135981943D01*
X90076155Y-136343735D01*
X90548276Y-136539777D01*
X91059481Y-136540223D01*
X91531943Y-136345005D01*
X91893735Y-135983845D01*
X92089777Y-135511724D01*
X92090223Y-135000519D01*
X91940000Y-134636953D01*
X91940000Y-124442427D01*
X92089777Y-124081724D01*
X92090223Y-123570519D01*
X91940000Y-123206953D01*
X91940000Y-113012427D01*
X92089777Y-112651724D01*
X92090223Y-112140519D01*
X91940000Y-111776953D01*
X91940000Y-101582427D01*
X92089777Y-101221724D01*
X92090223Y-100710519D01*
X91940000Y-100346953D01*
X91940000Y-90152427D01*
X92089777Y-89791724D01*
X92090223Y-89280519D01*
X91940000Y-88916953D01*
X91940000Y-78722427D01*
X92089777Y-78361724D01*
X92090223Y-77850519D01*
X91940000Y-77486953D01*
X91940000Y-67292427D01*
X92089777Y-66931724D01*
X92090223Y-66420519D01*
X91895005Y-65948057D01*
X91533845Y-65586265D01*
X91061724Y-65390223D01*
X90550519Y-65389777D01*
X90078057Y-65584995D01*
X89716265Y-65946155D01*
X89520223Y-66418276D01*
X89519777Y-66929481D01*
X87070000Y-66929481D01*
X87070000Y-64389481D01*
X92059777Y-64389481D01*
X92210000Y-64753047D01*
X92210000Y-74947573D01*
X92060223Y-75308276D01*
X92059777Y-75819481D01*
X92210000Y-76183047D01*
X92210000Y-86377573D01*
X92060223Y-86738276D01*
X92059777Y-87249481D01*
X92210000Y-87613047D01*
X92210000Y-97807573D01*
X92060223Y-98168276D01*
X92059777Y-98679481D01*
X92210000Y-99043047D01*
X92210000Y-109237573D01*
X92060223Y-109598276D01*
X92059777Y-110109481D01*
X92210000Y-110473047D01*
X92210000Y-120667573D01*
X92060223Y-121028276D01*
X92059777Y-121539481D01*
X92210000Y-121903047D01*
X92210000Y-132097573D01*
X92060223Y-132458276D01*
X92059777Y-132969481D01*
X92254995Y-133441943D01*
X92616155Y-133803735D01*
X93088276Y-133999777D01*
X93599481Y-134000223D01*
X94071943Y-133805005D01*
X94433735Y-133443845D01*
X94629777Y-132971724D01*
X94630223Y-132460519D01*
X94480000Y-132096953D01*
X94480000Y-121902427D01*
X94629777Y-121541724D01*
X94630223Y-121030519D01*
X94480000Y-120666953D01*
X94480000Y-110472427D01*
X94629777Y-110111724D01*
X94630223Y-109600519D01*
X94480000Y-109236953D01*
X94480000Y-99042427D01*
X94629777Y-98681724D01*
X94630223Y-98170519D01*
X94480000Y-97806953D01*
X94480000Y-87612427D01*
X94629777Y-87251724D01*
X94630223Y-86740519D01*
X94480000Y-86376953D01*
X94480000Y-76182427D01*
X94629777Y-75821724D01*
X94630223Y-75310519D01*
X94480000Y-74946953D01*
X94480000Y-64752427D01*
X94629777Y-64391724D01*
X94630223Y-63880519D01*
X94435005Y-63408057D01*
X94073845Y-63046265D01*
X93601724Y-62850223D01*
X93090519Y-62849777D01*
X92618057Y-63044995D01*
X92256265Y-63406155D01*
X92060223Y-63878276D01*
X92059777Y-64389481D01*
X87070000Y-64389481D01*
X87070000Y-61849481D01*
X94599777Y-61849481D01*
X94750000Y-62213047D01*
X94750000Y-72407573D01*
X94600223Y-72768276D01*
X94599777Y-73279481D01*
X94750000Y-73643047D01*
X94750000Y-83837573D01*
X94600223Y-84198276D01*
X94599777Y-84709481D01*
X94750000Y-85073047D01*
X94750000Y-95267573D01*
X94600223Y-95628276D01*
X94599777Y-96139481D01*
X94750000Y-96503047D01*
X94750000Y-106697573D01*
X94600223Y-107058276D01*
X94599777Y-107569481D01*
X94750000Y-107933047D01*
X94750000Y-118127573D01*
X94600223Y-118488276D01*
X94599777Y-118999481D01*
X94750000Y-119363047D01*
X94750000Y-129557573D01*
X94600223Y-129918276D01*
X94599777Y-130429481D01*
X94794995Y-130901943D01*
X95156155Y-131263735D01*
X95628276Y-131459777D01*
X96139481Y-131460223D01*
X96611943Y-131265005D01*
X96973735Y-130903845D01*
X97169777Y-130431724D01*
X97170223Y-129920519D01*
X97020000Y-129556953D01*
X97020000Y-119362427D01*
X97169777Y-119001724D01*
X97170223Y-118490519D01*
X97020000Y-118126953D01*
X97020000Y-107932427D01*
X97169777Y-107571724D01*
X97170223Y-107060519D01*
X97020000Y-106696953D01*
X97020000Y-96502427D01*
X97169777Y-96141724D01*
X97170223Y-95630519D01*
X97020000Y-95266953D01*
X97020000Y-85072427D01*
X97169777Y-84711724D01*
X97170223Y-84200519D01*
X97020000Y-83836953D01*
X97020000Y-73642427D01*
X97169777Y-73281724D01*
X97170223Y-72770519D01*
X97020000Y-72406953D01*
X97020000Y-62212427D01*
X97169777Y-61851724D01*
X97170223Y-61340519D01*
X96975005Y-60868057D01*
X96613845Y-60506265D01*
X96141724Y-60310223D01*
X95630519Y-60309777D01*
X95158057Y-60504995D01*
X94796265Y-60866155D01*
X94600223Y-61338276D01*
X94599777Y-61849481D01*
X87070000Y-61849481D01*
X87070000Y-59309481D01*
X97139777Y-59309481D01*
X97290000Y-59673047D01*
X97290000Y-69867573D01*
X97140223Y-70228276D01*
X97139777Y-70739481D01*
X97290000Y-71103047D01*
X97290000Y-81297573D01*
X97140223Y-81658276D01*
X97139777Y-82169481D01*
X97290000Y-82533047D01*
X97290000Y-92727573D01*
X97140223Y-93088276D01*
X97139777Y-93599481D01*
X97290000Y-93963047D01*
X97290000Y-104157573D01*
X97140223Y-104518276D01*
X97139777Y-105029481D01*
X97290000Y-105393047D01*
X97290000Y-115587573D01*
X97140223Y-115948276D01*
X97139777Y-116459481D01*
X97290000Y-116823047D01*
X97290000Y-127017573D01*
X97140223Y-127378276D01*
X97139777Y-127889481D01*
X97334995Y-128361943D01*
X97696155Y-128723735D01*
X98168276Y-128919777D01*
X98679481Y-128920223D01*
X99151943Y-128725005D01*
X99513735Y-128363845D01*
X99709777Y-127891724D01*
X99710223Y-127380519D01*
X99560000Y-127016953D01*
X99560000Y-126734570D01*
X99953070Y-126734570D01*
X99953070Y-128535430D01*
X99997348Y-128770747D01*
X100136420Y-128986871D01*
X100338411Y-129124885D01*
X100215154Y-129247927D01*
X99965794Y-129848453D01*
X99965226Y-130498694D01*
X100213538Y-131099655D01*
X100558480Y-131445199D01*
X100215154Y-131787927D01*
X99965794Y-132388453D01*
X99965226Y-133038694D01*
X100213538Y-133639655D01*
X100558480Y-133985199D01*
X100215154Y-134327927D01*
X99965794Y-134928453D01*
X99965226Y-135578694D01*
X100213538Y-136179655D01*
X100672927Y-136639846D01*
X101273453Y-136889206D01*
X101923694Y-136889774D01*
X102524655Y-136641462D01*
X102984846Y-136182073D01*
X103234206Y-135581547D01*
X103234774Y-134931306D01*
X102986462Y-134330345D01*
X102641520Y-133984801D01*
X102984846Y-133642073D01*
X103234206Y-133041547D01*
X103234774Y-132391306D01*
X102986462Y-131790345D01*
X102641520Y-131444801D01*
X102984846Y-131102073D01*
X103234206Y-130501547D01*
X103234774Y-129851306D01*
X102986462Y-129250345D01*
X102859221Y-129122882D01*
X103050931Y-128999520D01*
X103195921Y-128787320D01*
X103246930Y-128535430D01*
X103246930Y-126734570D01*
X103202652Y-126499253D01*
X103063580Y-126283129D01*
X102851380Y-126138139D01*
X102599490Y-126087130D01*
X100600510Y-126087130D01*
X100365193Y-126131408D01*
X100149069Y-126270480D01*
X100004079Y-126482680D01*
X99953070Y-126734570D01*
X99560000Y-126734570D01*
X99560000Y-116822427D01*
X99709777Y-116461724D01*
X99710223Y-115950519D01*
X99560000Y-115586953D01*
X99560000Y-115304570D01*
X99953070Y-115304570D01*
X99953070Y-117105430D01*
X99997348Y-117340747D01*
X100136420Y-117556871D01*
X100338411Y-117694885D01*
X100215154Y-117817927D01*
X99965794Y-118418453D01*
X99965226Y-119068694D01*
X100213538Y-119669655D01*
X100558480Y-120015199D01*
X100215154Y-120357927D01*
X99965794Y-120958453D01*
X99965226Y-121608694D01*
X100213538Y-122209655D01*
X100558480Y-122555199D01*
X100215154Y-122897927D01*
X99965794Y-123498453D01*
X99965226Y-124148694D01*
X100213538Y-124749655D01*
X100672927Y-125209846D01*
X101273453Y-125459206D01*
X101923694Y-125459774D01*
X102524655Y-125211462D01*
X102984846Y-124752073D01*
X103234206Y-124151547D01*
X103234774Y-123501306D01*
X102986462Y-122900345D01*
X102641520Y-122554801D01*
X102984846Y-122212073D01*
X103234206Y-121611547D01*
X103234774Y-120961306D01*
X102986462Y-120360345D01*
X102641520Y-120014801D01*
X102984846Y-119672073D01*
X103234206Y-119071547D01*
X103234774Y-118421306D01*
X102986462Y-117820345D01*
X102859221Y-117692882D01*
X103050931Y-117569520D01*
X103195921Y-117357320D01*
X103246930Y-117105430D01*
X103246930Y-115304570D01*
X103202652Y-115069253D01*
X103063580Y-114853129D01*
X102851380Y-114708139D01*
X102599490Y-114657130D01*
X100600510Y-114657130D01*
X100365193Y-114701408D01*
X100149069Y-114840480D01*
X100004079Y-115052680D01*
X99953070Y-115304570D01*
X99560000Y-115304570D01*
X99560000Y-105392427D01*
X99709777Y-105031724D01*
X99710223Y-104520519D01*
X99560000Y-104156953D01*
X99560000Y-103874570D01*
X99953070Y-103874570D01*
X99953070Y-105675430D01*
X99997348Y-105910747D01*
X100136420Y-106126871D01*
X100338411Y-106264885D01*
X100215154Y-106387927D01*
X99965794Y-106988453D01*
X99965226Y-107638694D01*
X100213538Y-108239655D01*
X100558480Y-108585199D01*
X100215154Y-108927927D01*
X99965794Y-109528453D01*
X99965226Y-110178694D01*
X100213538Y-110779655D01*
X100558480Y-111125199D01*
X100215154Y-111467927D01*
X99965794Y-112068453D01*
X99965226Y-112718694D01*
X100213538Y-113319655D01*
X100672927Y-113779846D01*
X101273453Y-114029206D01*
X101923694Y-114029774D01*
X102524655Y-113781462D01*
X102984846Y-113322073D01*
X103234206Y-112721547D01*
X103234774Y-112071306D01*
X102986462Y-111470345D01*
X102641520Y-111124801D01*
X102984846Y-110782073D01*
X103234206Y-110181547D01*
X103234774Y-109531306D01*
X102986462Y-108930345D01*
X102641520Y-108584801D01*
X102984846Y-108242073D01*
X103234206Y-107641547D01*
X103234774Y-106991306D01*
X102986462Y-106390345D01*
X102859221Y-106262882D01*
X103050931Y-106139520D01*
X103195921Y-105927320D01*
X103246930Y-105675430D01*
X103246930Y-103874570D01*
X103202652Y-103639253D01*
X103063580Y-103423129D01*
X102851380Y-103278139D01*
X102599490Y-103227130D01*
X100600510Y-103227130D01*
X100365193Y-103271408D01*
X100149069Y-103410480D01*
X100004079Y-103622680D01*
X99953070Y-103874570D01*
X99560000Y-103874570D01*
X99560000Y-93962427D01*
X99709777Y-93601724D01*
X99710223Y-93090519D01*
X99560000Y-92726953D01*
X99560000Y-92444570D01*
X99953070Y-92444570D01*
X99953070Y-94245430D01*
X99997348Y-94480747D01*
X100136420Y-94696871D01*
X100338411Y-94834885D01*
X100215154Y-94957927D01*
X99965794Y-95558453D01*
X99965226Y-96208694D01*
X100213538Y-96809655D01*
X100558480Y-97155199D01*
X100215154Y-97497927D01*
X99965794Y-98098453D01*
X99965226Y-98748694D01*
X100213538Y-99349655D01*
X100558480Y-99695199D01*
X100215154Y-100037927D01*
X99965794Y-100638453D01*
X99965226Y-101288694D01*
X100213538Y-101889655D01*
X100672927Y-102349846D01*
X101273453Y-102599206D01*
X101923694Y-102599774D01*
X102524655Y-102351462D01*
X102984846Y-101892073D01*
X103234206Y-101291547D01*
X103234774Y-100641306D01*
X102986462Y-100040345D01*
X102641520Y-99694801D01*
X102984846Y-99352073D01*
X103234206Y-98751547D01*
X103234774Y-98101306D01*
X102986462Y-97500345D01*
X102641520Y-97154801D01*
X102984846Y-96812073D01*
X103234206Y-96211547D01*
X103234774Y-95561306D01*
X102986462Y-94960345D01*
X102859221Y-94832882D01*
X103050931Y-94709520D01*
X103195921Y-94497320D01*
X103246930Y-94245430D01*
X103246930Y-92444570D01*
X103202652Y-92209253D01*
X103063580Y-91993129D01*
X102851380Y-91848139D01*
X102599490Y-91797130D01*
X100600510Y-91797130D01*
X100365193Y-91841408D01*
X100149069Y-91980480D01*
X100004079Y-92192680D01*
X99953070Y-92444570D01*
X99560000Y-92444570D01*
X99560000Y-82532427D01*
X99709777Y-82171724D01*
X99710223Y-81660519D01*
X99560000Y-81296953D01*
X99560000Y-81014570D01*
X99953070Y-81014570D01*
X99953070Y-82815430D01*
X99997348Y-83050747D01*
X100136420Y-83266871D01*
X100338411Y-83404885D01*
X100215154Y-83527927D01*
X99965794Y-84128453D01*
X99965226Y-84778694D01*
X100213538Y-85379655D01*
X100558480Y-85725199D01*
X100215154Y-86067927D01*
X99965794Y-86668453D01*
X99965226Y-87318694D01*
X100213538Y-87919655D01*
X100558480Y-88265199D01*
X100215154Y-88607927D01*
X99965794Y-89208453D01*
X99965226Y-89858694D01*
X100213538Y-90459655D01*
X100672927Y-90919846D01*
X101273453Y-91169206D01*
X101923694Y-91169774D01*
X102524655Y-90921462D01*
X102984846Y-90462073D01*
X103234206Y-89861547D01*
X103234774Y-89211306D01*
X102986462Y-88610345D01*
X102641520Y-88264801D01*
X102984846Y-87922073D01*
X103234206Y-87321547D01*
X103234774Y-86671306D01*
X102986462Y-86070345D01*
X102641520Y-85724801D01*
X102984846Y-85382073D01*
X103234206Y-84781547D01*
X103234774Y-84131306D01*
X102986462Y-83530345D01*
X102859221Y-83402882D01*
X103050931Y-83279520D01*
X103195921Y-83067320D01*
X103246930Y-82815430D01*
X103246930Y-81014570D01*
X103202652Y-80779253D01*
X103063580Y-80563129D01*
X102851380Y-80418139D01*
X102599490Y-80367130D01*
X100600510Y-80367130D01*
X100365193Y-80411408D01*
X100149069Y-80550480D01*
X100004079Y-80762680D01*
X99953070Y-81014570D01*
X99560000Y-81014570D01*
X99560000Y-71102427D01*
X99709777Y-70741724D01*
X99710223Y-70230519D01*
X99560000Y-69866953D01*
X99560000Y-69584570D01*
X99953070Y-69584570D01*
X99953070Y-71385430D01*
X99997348Y-71620747D01*
X100136420Y-71836871D01*
X100338411Y-71974885D01*
X100215154Y-72097927D01*
X99965794Y-72698453D01*
X99965226Y-73348694D01*
X100213538Y-73949655D01*
X100558480Y-74295199D01*
X100215154Y-74637927D01*
X99965794Y-75238453D01*
X99965226Y-75888694D01*
X100213538Y-76489655D01*
X100558480Y-76835199D01*
X100215154Y-77177927D01*
X99965794Y-77778453D01*
X99965226Y-78428694D01*
X100213538Y-79029655D01*
X100672927Y-79489846D01*
X101273453Y-79739206D01*
X101923694Y-79739774D01*
X102524655Y-79491462D01*
X102984846Y-79032073D01*
X103234206Y-78431547D01*
X103234774Y-77781306D01*
X102986462Y-77180345D01*
X102641520Y-76834801D01*
X102984846Y-76492073D01*
X103234206Y-75891547D01*
X103234774Y-75241306D01*
X102986462Y-74640345D01*
X102641520Y-74294801D01*
X102984846Y-73952073D01*
X103234206Y-73351547D01*
X103234774Y-72701306D01*
X102986462Y-72100345D01*
X102859221Y-71972882D01*
X103050931Y-71849520D01*
X103195921Y-71637320D01*
X103246930Y-71385430D01*
X103246930Y-69584570D01*
X103202652Y-69349253D01*
X103063580Y-69133129D01*
X102998236Y-69088481D01*
X107172777Y-69088481D01*
X107323000Y-69452047D01*
X107323000Y-79646573D01*
X107173223Y-80007276D01*
X107172777Y-80518481D01*
X107323000Y-80882047D01*
X107323000Y-91076573D01*
X107173223Y-91437276D01*
X107172777Y-91948481D01*
X107323000Y-92312047D01*
X107323000Y-102506573D01*
X107173223Y-102867276D01*
X107172777Y-103378481D01*
X107367995Y-103850943D01*
X107729155Y-104212735D01*
X108201276Y-104408777D01*
X108712481Y-104409223D01*
X109184943Y-104214005D01*
X109546735Y-103852845D01*
X109742777Y-103380724D01*
X109743223Y-102869519D01*
X109593000Y-102505953D01*
X109593000Y-92311427D01*
X109742777Y-91950724D01*
X109743223Y-91439519D01*
X109593000Y-91075953D01*
X109593000Y-80881427D01*
X109742777Y-80520724D01*
X109743223Y-80009519D01*
X109593000Y-79645953D01*
X109593000Y-69451427D01*
X109742777Y-69090724D01*
X109743223Y-68579519D01*
X109548005Y-68107057D01*
X109186845Y-67745265D01*
X108714724Y-67549223D01*
X108203519Y-67548777D01*
X107731057Y-67743995D01*
X107369265Y-68105155D01*
X107173223Y-68577276D01*
X107172777Y-69088481D01*
X102998236Y-69088481D01*
X102851380Y-68988139D01*
X102599490Y-68937130D01*
X100600510Y-68937130D01*
X100365193Y-68981408D01*
X100149069Y-69120480D01*
X100004079Y-69332680D01*
X99953070Y-69584570D01*
X99560000Y-69584570D01*
X99560000Y-59672427D01*
X99709777Y-59311724D01*
X99710223Y-58800519D01*
X99515005Y-58328057D01*
X99341822Y-58154570D01*
X99953070Y-58154570D01*
X99953070Y-59955430D01*
X99997348Y-60190747D01*
X100136420Y-60406871D01*
X100338411Y-60544885D01*
X100215154Y-60667927D01*
X99965794Y-61268453D01*
X99965226Y-61918694D01*
X100213538Y-62519655D01*
X100558480Y-62865199D01*
X100215154Y-63207927D01*
X99965794Y-63808453D01*
X99965226Y-64458694D01*
X100213538Y-65059655D01*
X100558480Y-65405199D01*
X100215154Y-65747927D01*
X99965794Y-66348453D01*
X99965226Y-66998694D01*
X100213538Y-67599655D01*
X100672927Y-68059846D01*
X101273453Y-68309206D01*
X101923694Y-68309774D01*
X102524655Y-68061462D01*
X102984846Y-67602073D01*
X103234206Y-67001547D01*
X103234601Y-66548481D01*
X109712777Y-66548481D01*
X109863000Y-66912047D01*
X109863000Y-77106573D01*
X109713223Y-77467276D01*
X109712777Y-77978481D01*
X109863000Y-78342047D01*
X109863000Y-88536573D01*
X109713223Y-88897276D01*
X109712777Y-89408481D01*
X109863000Y-89772047D01*
X109863000Y-99966573D01*
X109713223Y-100327276D01*
X109712777Y-100838481D01*
X109907995Y-101310943D01*
X110269155Y-101672735D01*
X110741276Y-101868777D01*
X111252481Y-101869223D01*
X111724943Y-101674005D01*
X112086735Y-101312845D01*
X112282777Y-100840724D01*
X112283223Y-100329519D01*
X112133000Y-99965953D01*
X112133000Y-89771427D01*
X112282777Y-89410724D01*
X112283223Y-88899519D01*
X112133000Y-88535953D01*
X112133000Y-78341427D01*
X112282777Y-77980724D01*
X112283223Y-77469519D01*
X112133000Y-77105953D01*
X112133000Y-66911427D01*
X112282777Y-66550724D01*
X112283223Y-66039519D01*
X112088005Y-65567057D01*
X111726845Y-65205265D01*
X111254724Y-65009223D01*
X110743519Y-65008777D01*
X110271057Y-65203995D01*
X109909265Y-65565155D01*
X109713223Y-66037276D01*
X109712777Y-66548481D01*
X103234601Y-66548481D01*
X103234774Y-66351306D01*
X102986462Y-65750345D01*
X102641520Y-65404801D01*
X102984846Y-65062073D01*
X103234206Y-64461547D01*
X103234601Y-64008481D01*
X112252777Y-64008481D01*
X112403000Y-64372047D01*
X112403000Y-74566573D01*
X112253223Y-74927276D01*
X112252777Y-75438481D01*
X112403000Y-75802047D01*
X112403000Y-85996573D01*
X112253223Y-86357276D01*
X112252777Y-86868481D01*
X112403000Y-87232047D01*
X112403000Y-97426573D01*
X112253223Y-97787276D01*
X112252777Y-98298481D01*
X112447995Y-98770943D01*
X112809155Y-99132735D01*
X113281276Y-99328777D01*
X113792481Y-99329223D01*
X114264943Y-99134005D01*
X114626735Y-98772845D01*
X114822777Y-98300724D01*
X114823223Y-97789519D01*
X114673000Y-97425953D01*
X114673000Y-87231427D01*
X114822777Y-86870724D01*
X114823223Y-86359519D01*
X114673000Y-85995953D01*
X114673000Y-75801427D01*
X114822777Y-75440724D01*
X114823223Y-74929519D01*
X114673000Y-74565953D01*
X114673000Y-64371427D01*
X114822777Y-64010724D01*
X114823223Y-63499519D01*
X114628005Y-63027057D01*
X114266845Y-62665265D01*
X113794724Y-62469223D01*
X113283519Y-62468777D01*
X112811057Y-62663995D01*
X112449265Y-63025155D01*
X112253223Y-63497276D01*
X112252777Y-64008481D01*
X103234601Y-64008481D01*
X103234774Y-63811306D01*
X102986462Y-63210345D01*
X102641520Y-62864801D01*
X102984846Y-62522073D01*
X103234206Y-61921547D01*
X103234601Y-61468481D01*
X114792777Y-61468481D01*
X114943000Y-61832047D01*
X114943000Y-72026573D01*
X114793223Y-72387276D01*
X114792777Y-72898481D01*
X114943000Y-73262047D01*
X114943000Y-83456573D01*
X114793223Y-83817276D01*
X114792777Y-84328481D01*
X114943000Y-84692047D01*
X114943000Y-94886573D01*
X114793223Y-95247276D01*
X114792777Y-95758481D01*
X114987995Y-96230943D01*
X115349155Y-96592735D01*
X115821276Y-96788777D01*
X116332481Y-96789223D01*
X116804943Y-96594005D01*
X117166735Y-96232845D01*
X117362777Y-95760724D01*
X117363223Y-95249519D01*
X117213000Y-94885953D01*
X117213000Y-94603570D01*
X117606070Y-94603570D01*
X117606070Y-96404430D01*
X117650348Y-96639747D01*
X117789420Y-96855871D01*
X117991411Y-96993885D01*
X117868154Y-97116927D01*
X117618794Y-97717453D01*
X117618226Y-98367694D01*
X117866538Y-98968655D01*
X118211480Y-99314199D01*
X117868154Y-99656927D01*
X117618794Y-100257453D01*
X117618226Y-100907694D01*
X117866538Y-101508655D01*
X118211480Y-101854199D01*
X117868154Y-102196927D01*
X117618794Y-102797453D01*
X117618226Y-103447694D01*
X117866538Y-104048655D01*
X118325927Y-104508846D01*
X118926453Y-104758206D01*
X119576694Y-104758774D01*
X120177655Y-104510462D01*
X120637846Y-104051073D01*
X120752269Y-103775510D01*
X123384570Y-103775510D01*
X123384570Y-105774490D01*
X123428848Y-106009807D01*
X123567920Y-106225931D01*
X123780120Y-106370921D01*
X124032010Y-106421930D01*
X126030990Y-106421930D01*
X126266307Y-106377652D01*
X126482431Y-106238580D01*
X126580193Y-106095500D01*
X126644427Y-106159846D01*
X127244953Y-106409206D01*
X127895194Y-106409774D01*
X128496155Y-106161462D01*
X128841699Y-105816520D01*
X129184427Y-106159846D01*
X129784953Y-106409206D01*
X130435194Y-106409774D01*
X131036155Y-106161462D01*
X131381699Y-105816520D01*
X131724427Y-106159846D01*
X132324953Y-106409206D01*
X132975194Y-106409774D01*
X133576155Y-106161462D01*
X134036346Y-105702073D01*
X134285706Y-105101547D01*
X134286274Y-104451306D01*
X134037962Y-103850345D01*
X133578573Y-103390154D01*
X132978047Y-103140794D01*
X132327806Y-103140226D01*
X131726845Y-103388538D01*
X131381301Y-103733480D01*
X131038573Y-103390154D01*
X130438047Y-103140794D01*
X129787806Y-103140226D01*
X129186845Y-103388538D01*
X128841301Y-103733480D01*
X128498573Y-103390154D01*
X127898047Y-103140794D01*
X127247806Y-103140226D01*
X126646845Y-103388538D01*
X126579698Y-103455568D01*
X126495080Y-103324069D01*
X126282880Y-103179079D01*
X126030990Y-103128070D01*
X124032010Y-103128070D01*
X123796693Y-103172348D01*
X123580569Y-103311420D01*
X123435579Y-103523620D01*
X123384570Y-103775510D01*
X120752269Y-103775510D01*
X120887206Y-103450547D01*
X120887774Y-102800306D01*
X120639462Y-102199345D01*
X120294520Y-101853801D01*
X120637846Y-101511073D01*
X120887206Y-100910547D01*
X120887774Y-100260306D01*
X120639462Y-99659345D01*
X120294520Y-99313801D01*
X120637846Y-98971073D01*
X120887206Y-98370547D01*
X120887774Y-97720306D01*
X120639462Y-97119345D01*
X120512221Y-96991882D01*
X120703931Y-96868520D01*
X120757232Y-96790510D01*
X123384570Y-96790510D01*
X123384570Y-98789490D01*
X123428848Y-99024807D01*
X123567920Y-99240931D01*
X123780120Y-99385921D01*
X124032010Y-99436930D01*
X126030990Y-99436930D01*
X126266307Y-99392652D01*
X126482431Y-99253580D01*
X126580193Y-99110500D01*
X126644427Y-99174846D01*
X127244953Y-99424206D01*
X127895194Y-99424774D01*
X128496155Y-99176462D01*
X128841699Y-98831520D01*
X129184427Y-99174846D01*
X129784953Y-99424206D01*
X130435194Y-99424774D01*
X131036155Y-99176462D01*
X131381699Y-98831520D01*
X131724427Y-99174846D01*
X132324953Y-99424206D01*
X132975194Y-99424774D01*
X133576155Y-99176462D01*
X134036346Y-98717073D01*
X134285706Y-98116547D01*
X134286274Y-97466306D01*
X134037962Y-96865345D01*
X133578573Y-96405154D01*
X132978047Y-96155794D01*
X132327806Y-96155226D01*
X131726845Y-96403538D01*
X131381301Y-96748480D01*
X131038573Y-96405154D01*
X130438047Y-96155794D01*
X129787806Y-96155226D01*
X129186845Y-96403538D01*
X128841301Y-96748480D01*
X128498573Y-96405154D01*
X127898047Y-96155794D01*
X127247806Y-96155226D01*
X126646845Y-96403538D01*
X126579698Y-96470568D01*
X126495080Y-96339069D01*
X126282880Y-96194079D01*
X126030990Y-96143070D01*
X124032010Y-96143070D01*
X123796693Y-96187348D01*
X123580569Y-96326420D01*
X123435579Y-96538620D01*
X123384570Y-96790510D01*
X120757232Y-96790510D01*
X120848921Y-96656320D01*
X120899930Y-96404430D01*
X120899930Y-94603570D01*
X120855652Y-94368253D01*
X120716580Y-94152129D01*
X120504380Y-94007139D01*
X120252490Y-93956130D01*
X118253510Y-93956130D01*
X118018193Y-94000408D01*
X117802069Y-94139480D01*
X117657079Y-94351680D01*
X117606070Y-94603570D01*
X117213000Y-94603570D01*
X117213000Y-84691427D01*
X117362777Y-84330724D01*
X117363223Y-83819519D01*
X117213000Y-83455953D01*
X117213000Y-83173570D01*
X117606070Y-83173570D01*
X117606070Y-84974430D01*
X117650348Y-85209747D01*
X117789420Y-85425871D01*
X117991411Y-85563885D01*
X117868154Y-85686927D01*
X117618794Y-86287453D01*
X117618226Y-86937694D01*
X117866538Y-87538655D01*
X118211480Y-87884199D01*
X117868154Y-88226927D01*
X117618794Y-88827453D01*
X117618226Y-89477694D01*
X117866538Y-90078655D01*
X118211480Y-90424199D01*
X117868154Y-90766927D01*
X117618794Y-91367453D01*
X117618226Y-92017694D01*
X117866538Y-92618655D01*
X118325927Y-93078846D01*
X118926453Y-93328206D01*
X119576694Y-93328774D01*
X120177655Y-93080462D01*
X120637846Y-92621073D01*
X120887206Y-92020547D01*
X120887774Y-91370306D01*
X120639462Y-90769345D01*
X120294520Y-90423801D01*
X120637846Y-90081073D01*
X120752269Y-89805510D01*
X123384570Y-89805510D01*
X123384570Y-91804490D01*
X123428848Y-92039807D01*
X123567920Y-92255931D01*
X123780120Y-92400921D01*
X124032010Y-92451930D01*
X126030990Y-92451930D01*
X126266307Y-92407652D01*
X126482431Y-92268580D01*
X126580193Y-92125500D01*
X126644427Y-92189846D01*
X127244953Y-92439206D01*
X127895194Y-92439774D01*
X128496155Y-92191462D01*
X128841699Y-91846520D01*
X129184427Y-92189846D01*
X129784953Y-92439206D01*
X130435194Y-92439774D01*
X131036155Y-92191462D01*
X131381699Y-91846520D01*
X131724427Y-92189846D01*
X132324953Y-92439206D01*
X132975194Y-92439774D01*
X133576155Y-92191462D01*
X134036346Y-91732073D01*
X134285706Y-91131547D01*
X134286274Y-90481306D01*
X134037962Y-89880345D01*
X133578573Y-89420154D01*
X132978047Y-89170794D01*
X132327806Y-89170226D01*
X131726845Y-89418538D01*
X131381301Y-89763480D01*
X131038573Y-89420154D01*
X130438047Y-89170794D01*
X129787806Y-89170226D01*
X129186845Y-89418538D01*
X128841301Y-89763480D01*
X128498573Y-89420154D01*
X127898047Y-89170794D01*
X127247806Y-89170226D01*
X126646845Y-89418538D01*
X126579698Y-89485568D01*
X126495080Y-89354069D01*
X126282880Y-89209079D01*
X126030990Y-89158070D01*
X124032010Y-89158070D01*
X123796693Y-89202348D01*
X123580569Y-89341420D01*
X123435579Y-89553620D01*
X123384570Y-89805510D01*
X120752269Y-89805510D01*
X120887206Y-89480547D01*
X120887774Y-88830306D01*
X120639462Y-88229345D01*
X120294520Y-87883801D01*
X120637846Y-87541073D01*
X120887206Y-86940547D01*
X120887774Y-86290306D01*
X120639462Y-85689345D01*
X120512221Y-85561882D01*
X120703931Y-85438520D01*
X120848921Y-85226320D01*
X120899930Y-84974430D01*
X120899930Y-83173570D01*
X120855652Y-82938253D01*
X120779887Y-82820510D01*
X123384570Y-82820510D01*
X123384570Y-84819490D01*
X123428848Y-85054807D01*
X123567920Y-85270931D01*
X123780120Y-85415921D01*
X124032010Y-85466930D01*
X126030990Y-85466930D01*
X126266307Y-85422652D01*
X126482431Y-85283580D01*
X126580193Y-85140500D01*
X126644427Y-85204846D01*
X127244953Y-85454206D01*
X127895194Y-85454774D01*
X128496155Y-85206462D01*
X128841699Y-84861520D01*
X129184427Y-85204846D01*
X129784953Y-85454206D01*
X130435194Y-85454774D01*
X131036155Y-85206462D01*
X131381699Y-84861520D01*
X131724427Y-85204846D01*
X132324953Y-85454206D01*
X132975194Y-85454774D01*
X133576155Y-85206462D01*
X133880459Y-84902688D01*
X152044008Y-84902688D01*
X152387439Y-85733854D01*
X153022801Y-86370326D01*
X153763354Y-86677831D01*
X153026146Y-86982439D01*
X152389674Y-87617801D01*
X152044793Y-88448366D01*
X152044008Y-89347688D01*
X152387439Y-90178854D01*
X153022801Y-90815326D01*
X153853366Y-91160207D01*
X154752688Y-91160992D01*
X155583854Y-90817561D01*
X156220326Y-90182199D01*
X156565207Y-89351634D01*
X156565992Y-88452312D01*
X156222561Y-87621146D01*
X155587199Y-86984674D01*
X154846646Y-86677169D01*
X155583854Y-86372561D01*
X156220326Y-85737199D01*
X156565207Y-84906634D01*
X156565210Y-84902688D01*
X172364008Y-84902688D01*
X172707439Y-85733854D01*
X173342801Y-86370326D01*
X174083354Y-86677831D01*
X173346146Y-86982439D01*
X172709674Y-87617801D01*
X172364793Y-88448366D01*
X172364008Y-89347688D01*
X172707439Y-90178854D01*
X173342801Y-90815326D01*
X174173366Y-91160207D01*
X175072688Y-91160992D01*
X175903854Y-90817561D01*
X176540326Y-90182199D01*
X176885207Y-89351634D01*
X176885992Y-88452312D01*
X176542561Y-87621146D01*
X175907199Y-86984674D01*
X175166646Y-86677169D01*
X175903854Y-86372561D01*
X176540326Y-85737199D01*
X176885207Y-84906634D01*
X176885992Y-84007312D01*
X176542561Y-83176146D01*
X175907199Y-82539674D01*
X175076634Y-82194793D01*
X174177312Y-82194008D01*
X173346146Y-82537439D01*
X172709674Y-83172801D01*
X172364793Y-84003366D01*
X172364008Y-84902688D01*
X156565210Y-84902688D01*
X156565992Y-84007312D01*
X156222561Y-83176146D01*
X155587199Y-82539674D01*
X154756634Y-82194793D01*
X153857312Y-82194008D01*
X153026146Y-82537439D01*
X152389674Y-83172801D01*
X152044793Y-84003366D01*
X152044008Y-84902688D01*
X133880459Y-84902688D01*
X134036346Y-84747073D01*
X134285706Y-84146547D01*
X134286274Y-83496306D01*
X134037962Y-82895345D01*
X133578573Y-82435154D01*
X132978047Y-82185794D01*
X132327806Y-82185226D01*
X131726845Y-82433538D01*
X131381301Y-82778480D01*
X131038573Y-82435154D01*
X130438047Y-82185794D01*
X129787806Y-82185226D01*
X129186845Y-82433538D01*
X128841301Y-82778480D01*
X128498573Y-82435154D01*
X127898047Y-82185794D01*
X127247806Y-82185226D01*
X126646845Y-82433538D01*
X126579698Y-82500568D01*
X126495080Y-82369069D01*
X126282880Y-82224079D01*
X126030990Y-82173070D01*
X124032010Y-82173070D01*
X123796693Y-82217348D01*
X123580569Y-82356420D01*
X123435579Y-82568620D01*
X123384570Y-82820510D01*
X120779887Y-82820510D01*
X120716580Y-82722129D01*
X120504380Y-82577139D01*
X120252490Y-82526130D01*
X118253510Y-82526130D01*
X118018193Y-82570408D01*
X117802069Y-82709480D01*
X117657079Y-82921680D01*
X117606070Y-83173570D01*
X117213000Y-83173570D01*
X117213000Y-73261427D01*
X117362777Y-72900724D01*
X117363223Y-72389519D01*
X117213000Y-72025953D01*
X117213000Y-71743570D01*
X117606070Y-71743570D01*
X117606070Y-73544430D01*
X117650348Y-73779747D01*
X117789420Y-73995871D01*
X117991411Y-74133885D01*
X117868154Y-74256927D01*
X117618794Y-74857453D01*
X117618226Y-75507694D01*
X117866538Y-76108655D01*
X118211480Y-76454199D01*
X117868154Y-76796927D01*
X117618794Y-77397453D01*
X117618226Y-78047694D01*
X117866538Y-78648655D01*
X118211480Y-78994199D01*
X117868154Y-79336927D01*
X117618794Y-79937453D01*
X117618226Y-80587694D01*
X117866538Y-81188655D01*
X118325927Y-81648846D01*
X118926453Y-81898206D01*
X119576694Y-81898774D01*
X120177655Y-81650462D01*
X120277781Y-81550510D01*
X136211570Y-81550510D01*
X136211570Y-83549490D01*
X136255848Y-83784807D01*
X136394920Y-84000931D01*
X136607120Y-84145921D01*
X136859010Y-84196930D01*
X138857990Y-84196930D01*
X139093307Y-84152652D01*
X139309431Y-84013580D01*
X139407193Y-83870500D01*
X139471427Y-83934846D01*
X140071953Y-84184206D01*
X140722194Y-84184774D01*
X141323155Y-83936462D01*
X141668699Y-83591520D01*
X142011427Y-83934846D01*
X142611953Y-84184206D01*
X143262194Y-84184774D01*
X143863155Y-83936462D01*
X144208699Y-83591520D01*
X144551427Y-83934846D01*
X145151953Y-84184206D01*
X145802194Y-84184774D01*
X146403155Y-83936462D01*
X146863346Y-83477073D01*
X147112706Y-82876547D01*
X147113274Y-82226306D01*
X146864962Y-81625345D01*
X146405573Y-81165154D01*
X145805047Y-80915794D01*
X145154806Y-80915226D01*
X144553845Y-81163538D01*
X144208301Y-81508480D01*
X143865573Y-81165154D01*
X143265047Y-80915794D01*
X142614806Y-80915226D01*
X142013845Y-81163538D01*
X141668301Y-81508480D01*
X141325573Y-81165154D01*
X140725047Y-80915794D01*
X140074806Y-80915226D01*
X139473845Y-81163538D01*
X139406698Y-81230568D01*
X139322080Y-81099069D01*
X139109880Y-80954079D01*
X138857990Y-80903070D01*
X136859010Y-80903070D01*
X136623693Y-80947348D01*
X136407569Y-81086420D01*
X136262579Y-81298620D01*
X136211570Y-81550510D01*
X120277781Y-81550510D01*
X120637846Y-81191073D01*
X120887206Y-80590547D01*
X120887774Y-79940306D01*
X120639462Y-79339345D01*
X120294520Y-78993801D01*
X120637846Y-78651073D01*
X120887206Y-78050547D01*
X120887774Y-77400306D01*
X120639462Y-76799345D01*
X120294520Y-76453801D01*
X120637846Y-76111073D01*
X120752269Y-75835510D01*
X123384570Y-75835510D01*
X123384570Y-77834490D01*
X123428848Y-78069807D01*
X123567920Y-78285931D01*
X123780120Y-78430921D01*
X124032010Y-78481930D01*
X126030990Y-78481930D01*
X126266307Y-78437652D01*
X126482431Y-78298580D01*
X126580193Y-78155500D01*
X126644427Y-78219846D01*
X127244953Y-78469206D01*
X127895194Y-78469774D01*
X128496155Y-78221462D01*
X128841699Y-77876520D01*
X129184427Y-78219846D01*
X129784953Y-78469206D01*
X130435194Y-78469774D01*
X131036155Y-78221462D01*
X131381699Y-77876520D01*
X131724427Y-78219846D01*
X132324953Y-78469206D01*
X132975194Y-78469774D01*
X133576155Y-78221462D01*
X134024322Y-77774076D01*
X159119304Y-77774076D01*
X159352567Y-78338615D01*
X159753573Y-78740322D01*
X159354085Y-79139113D01*
X159119837Y-79703244D01*
X159119304Y-80314076D01*
X159352567Y-80878615D01*
X159753573Y-81280322D01*
X159354085Y-81679113D01*
X159119837Y-82243244D01*
X159119304Y-82854076D01*
X159352567Y-83418615D01*
X159784113Y-83850915D01*
X160348244Y-84085163D01*
X160959076Y-84085696D01*
X161523615Y-83852433D01*
X161955915Y-83420887D01*
X162190163Y-82856756D01*
X162190583Y-82375771D01*
X162352717Y-82538188D01*
X162898319Y-82764742D01*
X163489089Y-82765257D01*
X164035086Y-82539656D01*
X164199722Y-82375307D01*
X164199304Y-82854076D01*
X164432567Y-83418615D01*
X164864113Y-83850915D01*
X165428244Y-84085163D01*
X166039076Y-84085696D01*
X166603615Y-83852433D01*
X167035915Y-83420887D01*
X167270163Y-82856756D01*
X167270520Y-82447089D01*
X167404113Y-82580915D01*
X167968244Y-82815163D01*
X168579076Y-82815696D01*
X169143615Y-82582433D01*
X169575915Y-82150887D01*
X169810163Y-81586756D01*
X169810696Y-80975924D01*
X169577433Y-80411385D01*
X169176427Y-80009678D01*
X169575915Y-79610887D01*
X169810163Y-79046756D01*
X169810696Y-78435924D01*
X169577433Y-77871385D01*
X169176427Y-77469678D01*
X169575915Y-77070887D01*
X169810163Y-76506756D01*
X169810696Y-75895924D01*
X169577433Y-75331385D01*
X169145887Y-74899085D01*
X168581756Y-74664837D01*
X167970924Y-74664304D01*
X167406385Y-74897567D01*
X166974085Y-75329113D01*
X166739837Y-75893244D01*
X166739417Y-76374229D01*
X166577283Y-76211812D01*
X166031681Y-75985258D01*
X165440911Y-75984743D01*
X164894914Y-76210344D01*
X164730278Y-76374693D01*
X164730696Y-75895924D01*
X164497433Y-75331385D01*
X164065887Y-74899085D01*
X163501756Y-74664837D01*
X162890924Y-74664304D01*
X162326385Y-74897567D01*
X161894085Y-75329113D01*
X161659837Y-75893244D01*
X161659480Y-76302911D01*
X161525887Y-76169085D01*
X160961756Y-75934837D01*
X160350924Y-75934304D01*
X159786385Y-76167567D01*
X159354085Y-76599113D01*
X159119837Y-77163244D01*
X159119304Y-77774076D01*
X134024322Y-77774076D01*
X134036346Y-77762073D01*
X134285706Y-77161547D01*
X134286274Y-76511306D01*
X134037962Y-75910345D01*
X133578573Y-75450154D01*
X132978047Y-75200794D01*
X132327806Y-75200226D01*
X131726845Y-75448538D01*
X131381301Y-75793480D01*
X131038573Y-75450154D01*
X130438047Y-75200794D01*
X129787806Y-75200226D01*
X129186845Y-75448538D01*
X128841301Y-75793480D01*
X128498573Y-75450154D01*
X127898047Y-75200794D01*
X127247806Y-75200226D01*
X126646845Y-75448538D01*
X126579698Y-75515568D01*
X126495080Y-75384069D01*
X126282880Y-75239079D01*
X126030990Y-75188070D01*
X124032010Y-75188070D01*
X123796693Y-75232348D01*
X123580569Y-75371420D01*
X123435579Y-75583620D01*
X123384570Y-75835510D01*
X120752269Y-75835510D01*
X120887206Y-75510547D01*
X120887774Y-74860306D01*
X120765967Y-74565510D01*
X136211570Y-74565510D01*
X136211570Y-76564490D01*
X136255848Y-76799807D01*
X136394920Y-77015931D01*
X136607120Y-77160921D01*
X136859010Y-77211930D01*
X138857990Y-77211930D01*
X139093307Y-77167652D01*
X139309431Y-77028580D01*
X139407193Y-76885500D01*
X139471427Y-76949846D01*
X140071953Y-77199206D01*
X140722194Y-77199774D01*
X141323155Y-76951462D01*
X141668699Y-76606520D01*
X142011427Y-76949846D01*
X142611953Y-77199206D01*
X143262194Y-77199774D01*
X143863155Y-76951462D01*
X144208699Y-76606520D01*
X144551427Y-76949846D01*
X145151953Y-77199206D01*
X145802194Y-77199774D01*
X146403155Y-76951462D01*
X146863346Y-76492073D01*
X147112706Y-75891547D01*
X147113274Y-75241306D01*
X146864962Y-74640345D01*
X146405573Y-74180154D01*
X145805047Y-73930794D01*
X145154806Y-73930226D01*
X144553845Y-74178538D01*
X144208301Y-74523480D01*
X143865573Y-74180154D01*
X143265047Y-73930794D01*
X142614806Y-73930226D01*
X142013845Y-74178538D01*
X141668301Y-74523480D01*
X141325573Y-74180154D01*
X140725047Y-73930794D01*
X140074806Y-73930226D01*
X139473845Y-74178538D01*
X139406698Y-74245568D01*
X139322080Y-74114069D01*
X139109880Y-73969079D01*
X138857990Y-73918070D01*
X136859010Y-73918070D01*
X136623693Y-73962348D01*
X136407569Y-74101420D01*
X136262579Y-74313620D01*
X136211570Y-74565510D01*
X120765967Y-74565510D01*
X120639462Y-74259345D01*
X120512221Y-74131882D01*
X120703931Y-74008520D01*
X120848921Y-73796320D01*
X120899930Y-73544430D01*
X120899930Y-71743570D01*
X120855652Y-71508253D01*
X120716580Y-71292129D01*
X120504380Y-71147139D01*
X120252490Y-71096130D01*
X118253510Y-71096130D01*
X118018193Y-71140408D01*
X117802069Y-71279480D01*
X117657079Y-71491680D01*
X117606070Y-71743570D01*
X117213000Y-71743570D01*
X117213000Y-61831427D01*
X117362777Y-61470724D01*
X117363223Y-60959519D01*
X117168005Y-60487057D01*
X116994822Y-60313570D01*
X117606070Y-60313570D01*
X117606070Y-62114430D01*
X117650348Y-62349747D01*
X117789420Y-62565871D01*
X117991411Y-62703885D01*
X117868154Y-62826927D01*
X117618794Y-63427453D01*
X117618226Y-64077694D01*
X117866538Y-64678655D01*
X118211480Y-65024199D01*
X117868154Y-65366927D01*
X117618794Y-65967453D01*
X117618226Y-66617694D01*
X117866538Y-67218655D01*
X118211480Y-67564199D01*
X117868154Y-67906927D01*
X117618794Y-68507453D01*
X117618226Y-69157694D01*
X117866538Y-69758655D01*
X118325927Y-70218846D01*
X118926453Y-70468206D01*
X119576694Y-70468774D01*
X120177655Y-70220462D01*
X120637846Y-69761073D01*
X120887206Y-69160547D01*
X120887476Y-68850510D01*
X123384570Y-68850510D01*
X123384570Y-70849490D01*
X123428848Y-71084807D01*
X123567920Y-71300931D01*
X123780120Y-71445921D01*
X124032010Y-71496930D01*
X126030990Y-71496930D01*
X126266307Y-71452652D01*
X126482431Y-71313580D01*
X126580193Y-71170500D01*
X126644427Y-71234846D01*
X127244953Y-71484206D01*
X127895194Y-71484774D01*
X128496155Y-71236462D01*
X128841699Y-70891520D01*
X129184427Y-71234846D01*
X129784953Y-71484206D01*
X130435194Y-71484774D01*
X131036155Y-71236462D01*
X131381699Y-70891520D01*
X131724427Y-71234846D01*
X132324953Y-71484206D01*
X132975194Y-71484774D01*
X133576155Y-71236462D01*
X134036346Y-70777073D01*
X134235403Y-70297688D01*
X152044008Y-70297688D01*
X152387439Y-71128854D01*
X153022801Y-71765326D01*
X153763354Y-72072831D01*
X153026146Y-72377439D01*
X152389674Y-73012801D01*
X152044793Y-73843366D01*
X152044008Y-74742688D01*
X152387439Y-75573854D01*
X153022801Y-76210326D01*
X153853366Y-76555207D01*
X154752688Y-76555992D01*
X155583854Y-76212561D01*
X156220326Y-75577199D01*
X156565207Y-74746634D01*
X156565992Y-73847312D01*
X156222561Y-73016146D01*
X155587199Y-72379674D01*
X154846646Y-72072169D01*
X155583854Y-71767561D01*
X156220326Y-71132199D01*
X156565207Y-70301634D01*
X156565210Y-70297688D01*
X172364008Y-70297688D01*
X172707439Y-71128854D01*
X173342801Y-71765326D01*
X174083354Y-72072831D01*
X173346146Y-72377439D01*
X172709674Y-73012801D01*
X172364793Y-73843366D01*
X172364008Y-74742688D01*
X172707439Y-75573854D01*
X173342801Y-76210326D01*
X174173366Y-76555207D01*
X175072688Y-76555992D01*
X175903854Y-76212561D01*
X176540326Y-75577199D01*
X176885207Y-74746634D01*
X176885992Y-73847312D01*
X176542561Y-73016146D01*
X175907199Y-72379674D01*
X175166646Y-72072169D01*
X175903854Y-71767561D01*
X176540326Y-71132199D01*
X176885207Y-70301634D01*
X176885992Y-69402312D01*
X176542561Y-68571146D01*
X175907199Y-67934674D01*
X175076634Y-67589793D01*
X174177312Y-67589008D01*
X173346146Y-67932439D01*
X172709674Y-68567801D01*
X172364793Y-69398366D01*
X172364008Y-70297688D01*
X156565210Y-70297688D01*
X156565992Y-69402312D01*
X156222561Y-68571146D01*
X155587199Y-67934674D01*
X154756634Y-67589793D01*
X153857312Y-67589008D01*
X153026146Y-67932439D01*
X152389674Y-68567801D01*
X152044793Y-69398366D01*
X152044008Y-70297688D01*
X134235403Y-70297688D01*
X134285706Y-70176547D01*
X134286274Y-69526306D01*
X134037962Y-68925345D01*
X133578573Y-68465154D01*
X132978047Y-68215794D01*
X132327806Y-68215226D01*
X131726845Y-68463538D01*
X131381301Y-68808480D01*
X131038573Y-68465154D01*
X130438047Y-68215794D01*
X129787806Y-68215226D01*
X129186845Y-68463538D01*
X128841301Y-68808480D01*
X128498573Y-68465154D01*
X127898047Y-68215794D01*
X127247806Y-68215226D01*
X126646845Y-68463538D01*
X126579698Y-68530568D01*
X126495080Y-68399069D01*
X126282880Y-68254079D01*
X126030990Y-68203070D01*
X124032010Y-68203070D01*
X123796693Y-68247348D01*
X123580569Y-68386420D01*
X123435579Y-68598620D01*
X123384570Y-68850510D01*
X120887476Y-68850510D01*
X120887774Y-68510306D01*
X120639462Y-67909345D01*
X120311200Y-67580510D01*
X136211570Y-67580510D01*
X136211570Y-69579490D01*
X136255848Y-69814807D01*
X136394920Y-70030931D01*
X136607120Y-70175921D01*
X136859010Y-70226930D01*
X138857990Y-70226930D01*
X139093307Y-70182652D01*
X139309431Y-70043580D01*
X139407193Y-69900500D01*
X139471427Y-69964846D01*
X140071953Y-70214206D01*
X140722194Y-70214774D01*
X141323155Y-69966462D01*
X141668699Y-69621520D01*
X142011427Y-69964846D01*
X142611953Y-70214206D01*
X143262194Y-70214774D01*
X143863155Y-69966462D01*
X144208699Y-69621520D01*
X144551427Y-69964846D01*
X145151953Y-70214206D01*
X145802194Y-70214774D01*
X146403155Y-69966462D01*
X146863346Y-69507073D01*
X147112706Y-68906547D01*
X147113274Y-68256306D01*
X146864962Y-67655345D01*
X146405573Y-67195154D01*
X145805047Y-66945794D01*
X145154806Y-66945226D01*
X144553845Y-67193538D01*
X144208301Y-67538480D01*
X143865573Y-67195154D01*
X143265047Y-66945794D01*
X142614806Y-66945226D01*
X142013845Y-67193538D01*
X141668301Y-67538480D01*
X141325573Y-67195154D01*
X140725047Y-66945794D01*
X140074806Y-66945226D01*
X139473845Y-67193538D01*
X139406698Y-67260568D01*
X139322080Y-67129069D01*
X139109880Y-66984079D01*
X138857990Y-66933070D01*
X136859010Y-66933070D01*
X136623693Y-66977348D01*
X136407569Y-67116420D01*
X136262579Y-67328620D01*
X136211570Y-67580510D01*
X120311200Y-67580510D01*
X120294520Y-67563801D01*
X120637846Y-67221073D01*
X120887206Y-66620547D01*
X120887774Y-65970306D01*
X120639462Y-65369345D01*
X120294520Y-65023801D01*
X120637846Y-64681073D01*
X120887206Y-64080547D01*
X120887774Y-63430306D01*
X120639462Y-62829345D01*
X120512221Y-62701882D01*
X120703931Y-62578520D01*
X120848921Y-62366320D01*
X120899930Y-62114430D01*
X120899930Y-61865510D01*
X123384570Y-61865510D01*
X123384570Y-63864490D01*
X123428848Y-64099807D01*
X123567920Y-64315931D01*
X123780120Y-64460921D01*
X124032010Y-64511930D01*
X126030990Y-64511930D01*
X126266307Y-64467652D01*
X126482431Y-64328580D01*
X126580193Y-64185500D01*
X126644427Y-64249846D01*
X127244953Y-64499206D01*
X127895194Y-64499774D01*
X128496155Y-64251462D01*
X128841699Y-63906520D01*
X129184427Y-64249846D01*
X129784953Y-64499206D01*
X130435194Y-64499774D01*
X131036155Y-64251462D01*
X131381699Y-63906520D01*
X131724427Y-64249846D01*
X132324953Y-64499206D01*
X132975194Y-64499774D01*
X133576155Y-64251462D01*
X134036346Y-63792073D01*
X134285706Y-63191547D01*
X134286274Y-62541306D01*
X134037962Y-61940345D01*
X133578573Y-61480154D01*
X132978047Y-61230794D01*
X132327806Y-61230226D01*
X131726845Y-61478538D01*
X131381301Y-61823480D01*
X131038573Y-61480154D01*
X130438047Y-61230794D01*
X129787806Y-61230226D01*
X129186845Y-61478538D01*
X128841301Y-61823480D01*
X128498573Y-61480154D01*
X127898047Y-61230794D01*
X127247806Y-61230226D01*
X126646845Y-61478538D01*
X126579698Y-61545568D01*
X126495080Y-61414069D01*
X126282880Y-61269079D01*
X126030990Y-61218070D01*
X124032010Y-61218070D01*
X123796693Y-61262348D01*
X123580569Y-61401420D01*
X123435579Y-61613620D01*
X123384570Y-61865510D01*
X120899930Y-61865510D01*
X120899930Y-60595510D01*
X136211570Y-60595510D01*
X136211570Y-62594490D01*
X136255848Y-62829807D01*
X136394920Y-63045931D01*
X136607120Y-63190921D01*
X136859010Y-63241930D01*
X138857990Y-63241930D01*
X139093307Y-63197652D01*
X139309431Y-63058580D01*
X139407193Y-62915500D01*
X139471427Y-62979846D01*
X140071953Y-63229206D01*
X140722194Y-63229774D01*
X141323155Y-62981462D01*
X141668699Y-62636520D01*
X142011427Y-62979846D01*
X142611953Y-63229206D01*
X143262194Y-63229774D01*
X143863155Y-62981462D01*
X144208699Y-62636520D01*
X144551427Y-62979846D01*
X145151953Y-63229206D01*
X145802194Y-63229774D01*
X145949094Y-63169076D01*
X159119304Y-63169076D01*
X159352567Y-63733615D01*
X159753573Y-64135322D01*
X159354085Y-64534113D01*
X159119837Y-65098244D01*
X159119304Y-65709076D01*
X159352567Y-66273615D01*
X159753573Y-66675322D01*
X159354085Y-67074113D01*
X159119837Y-67638244D01*
X159119304Y-68249076D01*
X159352567Y-68813615D01*
X159784113Y-69245915D01*
X160348244Y-69480163D01*
X160959076Y-69480696D01*
X161523615Y-69247433D01*
X161955915Y-68815887D01*
X162190163Y-68251756D01*
X162190583Y-67770771D01*
X162352717Y-67933188D01*
X162898319Y-68159742D01*
X163489089Y-68160257D01*
X164035086Y-67934656D01*
X164199722Y-67770307D01*
X164199304Y-68249076D01*
X164432567Y-68813615D01*
X164864113Y-69245915D01*
X165428244Y-69480163D01*
X166039076Y-69480696D01*
X166603615Y-69247433D01*
X167035915Y-68815887D01*
X167270163Y-68251756D01*
X167270520Y-67842089D01*
X167404113Y-67975915D01*
X167968244Y-68210163D01*
X168579076Y-68210696D01*
X169143615Y-67977433D01*
X169575915Y-67545887D01*
X169810163Y-66981756D01*
X169810696Y-66370924D01*
X169577433Y-65806385D01*
X169176427Y-65404678D01*
X169575915Y-65005887D01*
X169810163Y-64441756D01*
X169810696Y-63830924D01*
X169577433Y-63266385D01*
X169176427Y-62864678D01*
X169575915Y-62465887D01*
X169810163Y-61901756D01*
X169810696Y-61290924D01*
X169577433Y-60726385D01*
X169145887Y-60294085D01*
X168769242Y-60137688D01*
X172364008Y-60137688D01*
X172707439Y-60968854D01*
X173342801Y-61605326D01*
X174173366Y-61950207D01*
X175072688Y-61950992D01*
X175903854Y-61607561D01*
X176540326Y-60972199D01*
X176885207Y-60141634D01*
X176885992Y-59242312D01*
X176542561Y-58411146D01*
X175907199Y-57774674D01*
X175076634Y-57429793D01*
X174177312Y-57429008D01*
X173346146Y-57772439D01*
X172709674Y-58407801D01*
X172364793Y-59238366D01*
X172364008Y-60137688D01*
X168769242Y-60137688D01*
X168581756Y-60059837D01*
X167970924Y-60059304D01*
X167406385Y-60292567D01*
X166974085Y-60724113D01*
X166739837Y-61288244D01*
X166739417Y-61769229D01*
X166577283Y-61606812D01*
X166031681Y-61380258D01*
X165440911Y-61379743D01*
X164894914Y-61605344D01*
X164730278Y-61769693D01*
X164730696Y-61290924D01*
X164497433Y-60726385D01*
X164065887Y-60294085D01*
X163501756Y-60059837D01*
X162890924Y-60059304D01*
X162326385Y-60292567D01*
X161894085Y-60724113D01*
X161659837Y-61288244D01*
X161659480Y-61697911D01*
X161525887Y-61564085D01*
X160961756Y-61329837D01*
X160350924Y-61329304D01*
X159786385Y-61562567D01*
X159354085Y-61994113D01*
X159119837Y-62558244D01*
X159119304Y-63169076D01*
X145949094Y-63169076D01*
X146403155Y-62981462D01*
X146863346Y-62522073D01*
X147112706Y-61921547D01*
X147113274Y-61271306D01*
X146864962Y-60670345D01*
X146405573Y-60210154D01*
X146231056Y-60137688D01*
X152044008Y-60137688D01*
X152387439Y-60968854D01*
X153022801Y-61605326D01*
X153853366Y-61950207D01*
X154752688Y-61950992D01*
X155583854Y-61607561D01*
X156220326Y-60972199D01*
X156565207Y-60141634D01*
X156565992Y-59242312D01*
X156222561Y-58411146D01*
X155587199Y-57774674D01*
X154756634Y-57429793D01*
X153857312Y-57429008D01*
X153026146Y-57772439D01*
X152389674Y-58407801D01*
X152044793Y-59238366D01*
X152044008Y-60137688D01*
X146231056Y-60137688D01*
X145805047Y-59960794D01*
X145154806Y-59960226D01*
X144553845Y-60208538D01*
X144208301Y-60553480D01*
X143865573Y-60210154D01*
X143265047Y-59960794D01*
X142614806Y-59960226D01*
X142013845Y-60208538D01*
X141668301Y-60553480D01*
X141325573Y-60210154D01*
X140725047Y-59960794D01*
X140074806Y-59960226D01*
X139473845Y-60208538D01*
X139406698Y-60275568D01*
X139322080Y-60144069D01*
X139109880Y-59999079D01*
X138857990Y-59948070D01*
X136859010Y-59948070D01*
X136623693Y-59992348D01*
X136407569Y-60131420D01*
X136262579Y-60343620D01*
X136211570Y-60595510D01*
X120899930Y-60595510D01*
X120899930Y-60313570D01*
X120855652Y-60078253D01*
X120716580Y-59862129D01*
X120504380Y-59717139D01*
X120252490Y-59666130D01*
X118253510Y-59666130D01*
X118018193Y-59710408D01*
X117802069Y-59849480D01*
X117657079Y-60061680D01*
X117606070Y-60313570D01*
X116994822Y-60313570D01*
X116806845Y-60125265D01*
X116334724Y-59929223D01*
X115823519Y-59928777D01*
X115351057Y-60123995D01*
X114989265Y-60485155D01*
X114793223Y-60957276D01*
X114792777Y-61468481D01*
X103234601Y-61468481D01*
X103234774Y-61271306D01*
X102986462Y-60670345D01*
X102859221Y-60542882D01*
X103050931Y-60419520D01*
X103195921Y-60207320D01*
X103246930Y-59955430D01*
X103246930Y-58154570D01*
X103202652Y-57919253D01*
X103063580Y-57703129D01*
X102851380Y-57558139D01*
X102599490Y-57507130D01*
X100600510Y-57507130D01*
X100365193Y-57551408D01*
X100149069Y-57690480D01*
X100004079Y-57902680D01*
X99953070Y-58154570D01*
X99341822Y-58154570D01*
X99153845Y-57966265D01*
X98681724Y-57770223D01*
X98170519Y-57769777D01*
X97698057Y-57964995D01*
X97336265Y-58326155D01*
X97140223Y-58798276D01*
X97139777Y-59309481D01*
X87070000Y-59309481D01*
X87070000Y-47700000D01*
X93650493Y-47700000D01*
X93615277Y-47714551D01*
G36*
X164870454Y-110455886D02*
X164866385Y-110457567D01*
X164679867Y-110643760D01*
X164680197Y-110265296D01*
X164870454Y-110455886D01*
X164870454Y-110455886D01*
G37*
X164870454Y-110455886D02*
X164866385Y-110457567D01*
X164679867Y-110643760D01*
X164680197Y-110265296D01*
X164870454Y-110455886D01*
G36*
X161709866Y-110643385D02*
X161556427Y-110489678D01*
X161710133Y-110336240D01*
X161709866Y-110643385D01*
X161709866Y-110643385D01*
G37*
X161709866Y-110643385D02*
X161556427Y-110489678D01*
X161710133Y-110336240D01*
X161709866Y-110643385D01*
G36*
X166739480Y-110592911D02*
X166605887Y-110459085D01*
X166598688Y-110456096D01*
X166739722Y-110315307D01*
X166739480Y-110592911D01*
X166739480Y-110592911D01*
G37*
X166739480Y-110592911D02*
X166605887Y-110459085D01*
X166598688Y-110456096D01*
X166739722Y-110315307D01*
X166739480Y-110592911D01*
G36*
X164249803Y-109444704D02*
X164037283Y-109231812D01*
X164009443Y-109220252D01*
X164035086Y-109209656D01*
X164250196Y-108994921D01*
X164249803Y-109444704D01*
X164249803Y-109444704D01*
G37*
X164249803Y-109444704D02*
X164037283Y-109231812D01*
X164009443Y-109220252D01*
X164035086Y-109209656D01*
X164250196Y-108994921D01*
X164249803Y-109444704D01*
G36*
X162352717Y-109208188D02*
X162380557Y-109219748D01*
X162354914Y-109230344D01*
X162190278Y-109394693D01*
X162190583Y-109045771D01*
X162352717Y-109208188D01*
X162352717Y-109208188D01*
G37*
X162352717Y-109208188D02*
X162380557Y-109219748D01*
X162354914Y-109230344D01*
X162190278Y-109394693D01*
X162190583Y-109045771D01*
X162352717Y-109208188D01*
G36*
X167373573Y-109220322D02*
X167219867Y-109373760D01*
X167220134Y-109066615D01*
X167373573Y-109220322D01*
X167373573Y-109220322D01*
G37*
X167373573Y-109220322D02*
X167219867Y-109373760D01*
X167220134Y-109066615D01*
X167373573Y-109220322D01*
G36*
X164892717Y-107938188D02*
X164920557Y-107949748D01*
X164894914Y-107960344D01*
X164679804Y-108175079D01*
X164680197Y-107725296D01*
X164892717Y-107938188D01*
X164892717Y-107938188D01*
G37*
X164892717Y-107938188D02*
X164920557Y-107949748D01*
X164894914Y-107960344D01*
X164679804Y-108175079D01*
X164680197Y-107725296D01*
X164892717Y-107938188D01*
G36*
X166739417Y-108124229D02*
X166577283Y-107961812D01*
X166549443Y-107950252D01*
X166575086Y-107939656D01*
X166739722Y-107775307D01*
X166739417Y-108124229D01*
X166739417Y-108124229D01*
G37*
X166739417Y-108124229D02*
X166577283Y-107961812D01*
X166549443Y-107950252D01*
X166575086Y-107939656D01*
X166739722Y-107775307D01*
X166739417Y-108124229D01*
G36*
X161709866Y-108103385D02*
X161556427Y-107949678D01*
X161710133Y-107796240D01*
X161709866Y-108103385D01*
X161709866Y-108103385D01*
G37*
X161709866Y-108103385D02*
X161556427Y-107949678D01*
X161710133Y-107796240D01*
X161709866Y-108103385D01*
G36*
X164249803Y-106904704D02*
X164059546Y-106714114D01*
X164063615Y-106712433D01*
X164250133Y-106526240D01*
X164249803Y-106904704D01*
X164249803Y-106904704D01*
G37*
X164249803Y-106904704D02*
X164059546Y-106714114D01*
X164063615Y-106712433D01*
X164250133Y-106526240D01*
X164249803Y-106904704D01*
G36*
X162324113Y-106710915D02*
X162331312Y-106713904D01*
X162190278Y-106854693D01*
X162190520Y-106577089D01*
X162324113Y-106710915D01*
X162324113Y-106710915D01*
G37*
X162324113Y-106710915D02*
X162331312Y-106713904D01*
X162190278Y-106854693D01*
X162190520Y-106577089D01*
X162324113Y-106710915D01*
G36*
X167373573Y-106680322D02*
X167219867Y-106833760D01*
X167220134Y-106526615D01*
X167373573Y-106680322D01*
X167373573Y-106680322D01*
G37*
X167373573Y-106680322D02*
X167219867Y-106833760D01*
X167220134Y-106526615D01*
X167373573Y-106680322D01*
G36*
X164870454Y-95850886D02*
X164866385Y-95852567D01*
X164679867Y-96038760D01*
X164680197Y-95660296D01*
X164870454Y-95850886D01*
X164870454Y-95850886D01*
G37*
X164870454Y-95850886D02*
X164866385Y-95852567D01*
X164679867Y-96038760D01*
X164680197Y-95660296D01*
X164870454Y-95850886D01*
G36*
X161709866Y-96038385D02*
X161556427Y-95884678D01*
X161710133Y-95731240D01*
X161709866Y-96038385D01*
X161709866Y-96038385D01*
G37*
X161709866Y-96038385D02*
X161556427Y-95884678D01*
X161710133Y-95731240D01*
X161709866Y-96038385D01*
G36*
X166739480Y-95987911D02*
X166605887Y-95854085D01*
X166598688Y-95851096D01*
X166739722Y-95710307D01*
X166739480Y-95987911D01*
X166739480Y-95987911D01*
G37*
X166739480Y-95987911D02*
X166605887Y-95854085D01*
X166598688Y-95851096D01*
X166739722Y-95710307D01*
X166739480Y-95987911D01*
G36*
X164249803Y-94839704D02*
X164037283Y-94626812D01*
X164009443Y-94615252D01*
X164035086Y-94604656D01*
X164250196Y-94389921D01*
X164249803Y-94839704D01*
X164249803Y-94839704D01*
G37*
X164249803Y-94839704D02*
X164037283Y-94626812D01*
X164009443Y-94615252D01*
X164035086Y-94604656D01*
X164250196Y-94389921D01*
X164249803Y-94839704D01*
G36*
X162352717Y-94603188D02*
X162380557Y-94614748D01*
X162354914Y-94625344D01*
X162190278Y-94789693D01*
X162190583Y-94440771D01*
X162352717Y-94603188D01*
X162352717Y-94603188D01*
G37*
X162352717Y-94603188D02*
X162380557Y-94614748D01*
X162354914Y-94625344D01*
X162190278Y-94789693D01*
X162190583Y-94440771D01*
X162352717Y-94603188D01*
G36*
X167373573Y-94615322D02*
X167219867Y-94768760D01*
X167220134Y-94461615D01*
X167373573Y-94615322D01*
X167373573Y-94615322D01*
G37*
X167373573Y-94615322D02*
X167219867Y-94768760D01*
X167220134Y-94461615D01*
X167373573Y-94615322D01*
G36*
X164892717Y-93333188D02*
X164920557Y-93344748D01*
X164894914Y-93355344D01*
X164679804Y-93570079D01*
X164680197Y-93120296D01*
X164892717Y-93333188D01*
X164892717Y-93333188D01*
G37*
X164892717Y-93333188D02*
X164920557Y-93344748D01*
X164894914Y-93355344D01*
X164679804Y-93570079D01*
X164680197Y-93120296D01*
X164892717Y-93333188D01*
G36*
X166739417Y-93519229D02*
X166577283Y-93356812D01*
X166549443Y-93345252D01*
X166575086Y-93334656D01*
X166739722Y-93170307D01*
X166739417Y-93519229D01*
X166739417Y-93519229D01*
G37*
X166739417Y-93519229D02*
X166577283Y-93356812D01*
X166549443Y-93345252D01*
X166575086Y-93334656D01*
X166739722Y-93170307D01*
X166739417Y-93519229D01*
G36*
X161709866Y-93498385D02*
X161556427Y-93344678D01*
X161710133Y-93191240D01*
X161709866Y-93498385D01*
X161709866Y-93498385D01*
G37*
X161709866Y-93498385D02*
X161556427Y-93344678D01*
X161710133Y-93191240D01*
X161709866Y-93498385D01*
G36*
X164249803Y-92299704D02*
X164059546Y-92109114D01*
X164063615Y-92107433D01*
X164250133Y-91921240D01*
X164249803Y-92299704D01*
X164249803Y-92299704D01*
G37*
X164249803Y-92299704D02*
X164059546Y-92109114D01*
X164063615Y-92107433D01*
X164250133Y-91921240D01*
X164249803Y-92299704D01*
G36*
X162324113Y-92105915D02*
X162331312Y-92108904D01*
X162190278Y-92249693D01*
X162190520Y-91972089D01*
X162324113Y-92105915D01*
X162324113Y-92105915D01*
G37*
X162324113Y-92105915D02*
X162331312Y-92108904D01*
X162190278Y-92249693D01*
X162190520Y-91972089D01*
X162324113Y-92105915D01*
G36*
X167373573Y-92075322D02*
X167219867Y-92228760D01*
X167220134Y-91921615D01*
X167373573Y-92075322D01*
X167373573Y-92075322D01*
G37*
X167373573Y-92075322D02*
X167219867Y-92228760D01*
X167220134Y-91921615D01*
X167373573Y-92075322D01*
G36*
X164870454Y-81245886D02*
X164866385Y-81247567D01*
X164679867Y-81433760D01*
X164680197Y-81055296D01*
X164870454Y-81245886D01*
X164870454Y-81245886D01*
G37*
X164870454Y-81245886D02*
X164866385Y-81247567D01*
X164679867Y-81433760D01*
X164680197Y-81055296D01*
X164870454Y-81245886D01*
G36*
X161709866Y-81433385D02*
X161556427Y-81279678D01*
X161710133Y-81126240D01*
X161709866Y-81433385D01*
X161709866Y-81433385D01*
G37*
X161709866Y-81433385D02*
X161556427Y-81279678D01*
X161710133Y-81126240D01*
X161709866Y-81433385D01*
G36*
X166739480Y-81382911D02*
X166605887Y-81249085D01*
X166598688Y-81246096D01*
X166739722Y-81105307D01*
X166739480Y-81382911D01*
X166739480Y-81382911D01*
G37*
X166739480Y-81382911D02*
X166605887Y-81249085D01*
X166598688Y-81246096D01*
X166739722Y-81105307D01*
X166739480Y-81382911D01*
G36*
X164249803Y-80234704D02*
X164037283Y-80021812D01*
X164009443Y-80010252D01*
X164035086Y-79999656D01*
X164250196Y-79784921D01*
X164249803Y-80234704D01*
X164249803Y-80234704D01*
G37*
X164249803Y-80234704D02*
X164037283Y-80021812D01*
X164009443Y-80010252D01*
X164035086Y-79999656D01*
X164250196Y-79784921D01*
X164249803Y-80234704D01*
G36*
X162352717Y-79998188D02*
X162380557Y-80009748D01*
X162354914Y-80020344D01*
X162190278Y-80184693D01*
X162190583Y-79835771D01*
X162352717Y-79998188D01*
X162352717Y-79998188D01*
G37*
X162352717Y-79998188D02*
X162380557Y-80009748D01*
X162354914Y-80020344D01*
X162190278Y-80184693D01*
X162190583Y-79835771D01*
X162352717Y-79998188D01*
G36*
X167373573Y-80010322D02*
X167219867Y-80163760D01*
X167220134Y-79856615D01*
X167373573Y-80010322D01*
X167373573Y-80010322D01*
G37*
X167373573Y-80010322D02*
X167219867Y-80163760D01*
X167220134Y-79856615D01*
X167373573Y-80010322D01*
G36*
X164892717Y-78728188D02*
X164920557Y-78739748D01*
X164894914Y-78750344D01*
X164679804Y-78965079D01*
X164680197Y-78515296D01*
X164892717Y-78728188D01*
X164892717Y-78728188D01*
G37*
X164892717Y-78728188D02*
X164920557Y-78739748D01*
X164894914Y-78750344D01*
X164679804Y-78965079D01*
X164680197Y-78515296D01*
X164892717Y-78728188D01*
G36*
X166739417Y-78914229D02*
X166577283Y-78751812D01*
X166549443Y-78740252D01*
X166575086Y-78729656D01*
X166739722Y-78565307D01*
X166739417Y-78914229D01*
X166739417Y-78914229D01*
G37*
X166739417Y-78914229D02*
X166577283Y-78751812D01*
X166549443Y-78740252D01*
X166575086Y-78729656D01*
X166739722Y-78565307D01*
X166739417Y-78914229D01*
G36*
X161709866Y-78893385D02*
X161556427Y-78739678D01*
X161710133Y-78586240D01*
X161709866Y-78893385D01*
X161709866Y-78893385D01*
G37*
X161709866Y-78893385D02*
X161556427Y-78739678D01*
X161710133Y-78586240D01*
X161709866Y-78893385D01*
G36*
X164249803Y-77694704D02*
X164059546Y-77504114D01*
X164063615Y-77502433D01*
X164250133Y-77316240D01*
X164249803Y-77694704D01*
X164249803Y-77694704D01*
G37*
X164249803Y-77694704D02*
X164059546Y-77504114D01*
X164063615Y-77502433D01*
X164250133Y-77316240D01*
X164249803Y-77694704D01*
G36*
X162324113Y-77500915D02*
X162331312Y-77503904D01*
X162190278Y-77644693D01*
X162190520Y-77367089D01*
X162324113Y-77500915D01*
X162324113Y-77500915D01*
G37*
X162324113Y-77500915D02*
X162331312Y-77503904D01*
X162190278Y-77644693D01*
X162190520Y-77367089D01*
X162324113Y-77500915D01*
G36*
X167373573Y-77470322D02*
X167219867Y-77623760D01*
X167220134Y-77316615D01*
X167373573Y-77470322D01*
X167373573Y-77470322D01*
G37*
X167373573Y-77470322D02*
X167219867Y-77623760D01*
X167220134Y-77316615D01*
X167373573Y-77470322D01*
G36*
X164870454Y-66640886D02*
X164866385Y-66642567D01*
X164679867Y-66828760D01*
X164680197Y-66450296D01*
X164870454Y-66640886D01*
X164870454Y-66640886D01*
G37*
X164870454Y-66640886D02*
X164866385Y-66642567D01*
X164679867Y-66828760D01*
X164680197Y-66450296D01*
X164870454Y-66640886D01*
G36*
X161709866Y-66828385D02*
X161556427Y-66674678D01*
X161710133Y-66521240D01*
X161709866Y-66828385D01*
X161709866Y-66828385D01*
G37*
X161709866Y-66828385D02*
X161556427Y-66674678D01*
X161710133Y-66521240D01*
X161709866Y-66828385D01*
G36*
X166739480Y-66777911D02*
X166605887Y-66644085D01*
X166598688Y-66641096D01*
X166739722Y-66500307D01*
X166739480Y-66777911D01*
X166739480Y-66777911D01*
G37*
X166739480Y-66777911D02*
X166605887Y-66644085D01*
X166598688Y-66641096D01*
X166739722Y-66500307D01*
X166739480Y-66777911D01*
G36*
X164249803Y-65629704D02*
X164037283Y-65416812D01*
X164009443Y-65405252D01*
X164035086Y-65394656D01*
X164250196Y-65179921D01*
X164249803Y-65629704D01*
X164249803Y-65629704D01*
G37*
X164249803Y-65629704D02*
X164037283Y-65416812D01*
X164009443Y-65405252D01*
X164035086Y-65394656D01*
X164250196Y-65179921D01*
X164249803Y-65629704D01*
G36*
X162352717Y-65393188D02*
X162380557Y-65404748D01*
X162354914Y-65415344D01*
X162190278Y-65579693D01*
X162190583Y-65230771D01*
X162352717Y-65393188D01*
X162352717Y-65393188D01*
G37*
X162352717Y-65393188D02*
X162380557Y-65404748D01*
X162354914Y-65415344D01*
X162190278Y-65579693D01*
X162190583Y-65230771D01*
X162352717Y-65393188D01*
G36*
X167373573Y-65405322D02*
X167219867Y-65558760D01*
X167220134Y-65251615D01*
X167373573Y-65405322D01*
X167373573Y-65405322D01*
G37*
X167373573Y-65405322D02*
X167219867Y-65558760D01*
X167220134Y-65251615D01*
X167373573Y-65405322D01*
G36*
X164892717Y-64123188D02*
X164920557Y-64134748D01*
X164894914Y-64145344D01*
X164679804Y-64360079D01*
X164680197Y-63910296D01*
X164892717Y-64123188D01*
X164892717Y-64123188D01*
G37*
X164892717Y-64123188D02*
X164920557Y-64134748D01*
X164894914Y-64145344D01*
X164679804Y-64360079D01*
X164680197Y-63910296D01*
X164892717Y-64123188D01*
G36*
X166739417Y-64309229D02*
X166577283Y-64146812D01*
X166549443Y-64135252D01*
X166575086Y-64124656D01*
X166739722Y-63960307D01*
X166739417Y-64309229D01*
X166739417Y-64309229D01*
G37*
X166739417Y-64309229D02*
X166577283Y-64146812D01*
X166549443Y-64135252D01*
X166575086Y-64124656D01*
X166739722Y-63960307D01*
X166739417Y-64309229D01*
G36*
X161709866Y-64288385D02*
X161556427Y-64134678D01*
X161710133Y-63981240D01*
X161709866Y-64288385D01*
X161709866Y-64288385D01*
G37*
X161709866Y-64288385D02*
X161556427Y-64134678D01*
X161710133Y-63981240D01*
X161709866Y-64288385D01*
G36*
X164249803Y-63089704D02*
X164059546Y-62899114D01*
X164063615Y-62897433D01*
X164250133Y-62711240D01*
X164249803Y-63089704D01*
X164249803Y-63089704D01*
G37*
X164249803Y-63089704D02*
X164059546Y-62899114D01*
X164063615Y-62897433D01*
X164250133Y-62711240D01*
X164249803Y-63089704D01*
G36*
X162324113Y-62895915D02*
X162331312Y-62898904D01*
X162190278Y-63039693D01*
X162190520Y-62762089D01*
X162324113Y-62895915D01*
X162324113Y-62895915D01*
G37*
X162324113Y-62895915D02*
X162331312Y-62898904D01*
X162190278Y-63039693D01*
X162190520Y-62762089D01*
X162324113Y-62895915D01*
G36*
X167373573Y-62865322D02*
X167219867Y-63018760D01*
X167220134Y-62711615D01*
X167373573Y-62865322D01*
X167373573Y-62865322D01*
G37*
X167373573Y-62865322D02*
X167219867Y-63018760D01*
X167220134Y-62711615D01*
X167373573Y-62865322D01*
G36*
X150076551Y-125015223D02*
X151519680Y-126460872D01*
X152178649Y-126734500D01*
X149935000Y-126734500D01*
X149935000Y-124672643D01*
X150076551Y-125015223D01*
X150076551Y-125015223D01*
G37*
X150076551Y-125015223D02*
X151519680Y-126460872D01*
X152178649Y-126734500D01*
X149935000Y-126734500D01*
X149935000Y-124672643D01*
X150076551Y-125015223D01*
G36*
X179503000Y-126734500D02*
X176752779Y-126734500D01*
X177402723Y-126465949D01*
X178848372Y-125022820D01*
X179503000Y-123446303D01*
X179503000Y-126734500D01*
X179503000Y-126734500D01*
G37*
X179503000Y-126734500D02*
X176752779Y-126734500D01*
X177402723Y-126465949D01*
X178848372Y-125022820D01*
X179503000Y-123446303D01*
X179503000Y-126734500D01*
G36*
X179503000Y-50737312D02*
X178853449Y-49165277D01*
X177410320Y-47719628D01*
X177363051Y-47700000D01*
X179503000Y-47700000D01*
X179503000Y-50737312D01*
X179503000Y-50737312D01*
G37*
X179503000Y-50737312D02*
X178853449Y-49165277D01*
X177410320Y-47719628D01*
X177363051Y-47700000D01*
X179503000Y-47700000D01*
X179503000Y-50737312D01*
M02*
