G04 #@! TF.FileFunction,Soldermask,Top*
%FSLAX46Y46*%
G04 Gerber Fmt 4.6, Leading zero omitted, Abs format (unit mm)*
G04 Created by KiCad (PCBNEW 4.0.5+dfsg1-4) date Mon Jul  9 23:17:01 2018*
%MOMM*%
%LPD*%
G01*
G04 APERTURE LIST*
%ADD10C,0.150000*%
%ADD11R,2.208000X2.208000*%
%ADD12O,2.208000X2.208000*%
%ADD13R,0.756920X2.032000*%
%ADD14O,0.756920X2.032000*%
%ADD15O,2.032000X0.756920*%
%ADD16R,2.032000X2.540000*%
%ADD17R,1.651000X1.143000*%
%ADD18R,1.143000X1.651000*%
G04 APERTURE END LIST*
D10*
D11*
X155905200Y-50165000D03*
D12*
X158445200Y-50165000D03*
X155905200Y-52705000D03*
X158445200Y-52705000D03*
X155905200Y-55245000D03*
X158445200Y-55245000D03*
X155905200Y-57785000D03*
X158445200Y-57785000D03*
X155905200Y-60325000D03*
X158445200Y-60325000D03*
X155905200Y-62865000D03*
X158445200Y-62865000D03*
X155905200Y-65405000D03*
X158445200Y-65405000D03*
X155905200Y-67945000D03*
X158445200Y-67945000D03*
D11*
X166700200Y-78994000D03*
D12*
X166700200Y-76454000D03*
X169240200Y-78994000D03*
X169240200Y-76454000D03*
X171780200Y-78994000D03*
X171780200Y-76454000D03*
X174320200Y-78994000D03*
X174320200Y-76454000D03*
X176860200Y-78994000D03*
X176860200Y-76454000D03*
X179400200Y-78994000D03*
X179400200Y-76454000D03*
X181940200Y-78994000D03*
X181940200Y-76454000D03*
X184480200Y-78994000D03*
X184480200Y-76454000D03*
D11*
X191846200Y-67945000D03*
D12*
X189306200Y-67945000D03*
X191846200Y-65405000D03*
X189306200Y-65405000D03*
X191846200Y-62865000D03*
X189306200Y-62865000D03*
X191846200Y-60325000D03*
X189306200Y-60325000D03*
X191846200Y-57785000D03*
X189306200Y-57785000D03*
X191846200Y-55245000D03*
X189306200Y-55245000D03*
X191846200Y-52705000D03*
X189306200Y-52705000D03*
X191846200Y-50165000D03*
X189306200Y-50165000D03*
D11*
X184480200Y-39243000D03*
D12*
X184480200Y-41783000D03*
X181940200Y-39243000D03*
X181940200Y-41783000D03*
X179400200Y-39243000D03*
X179400200Y-41783000D03*
X176860200Y-39243000D03*
X176860200Y-41783000D03*
X174320200Y-39243000D03*
X174320200Y-41783000D03*
X171780200Y-39243000D03*
X171780200Y-41783000D03*
X169240200Y-39243000D03*
X169240200Y-41783000D03*
X166700200Y-39243000D03*
X166700200Y-41783000D03*
D13*
X170190160Y-64924940D03*
D14*
X170690540Y-64924940D03*
X171190920Y-64924940D03*
X171691300Y-64924940D03*
X172191680Y-64924940D03*
X172689520Y-64924940D03*
X173189900Y-64924940D03*
X173690280Y-64924940D03*
X174190660Y-64924940D03*
X174691040Y-64924940D03*
X175191420Y-64924940D03*
X175689260Y-64924940D03*
X176189640Y-64924940D03*
X176690020Y-64924940D03*
X177190400Y-64924940D03*
X177690780Y-64924940D03*
D15*
X179971700Y-62804040D03*
X179971700Y-62303660D03*
X179971700Y-61803280D03*
X179971700Y-61302900D03*
X179971700Y-60802520D03*
X179971700Y-60304680D03*
X179971700Y-59804300D03*
X179971700Y-59303920D03*
X179971700Y-58803540D03*
X179971700Y-58303160D03*
X179971700Y-57802780D03*
X179971700Y-57304940D03*
X179971700Y-56804560D03*
X179971700Y-56304180D03*
X179971700Y-55803800D03*
X179971700Y-55303420D03*
D14*
X177690780Y-53022500D03*
X177190400Y-53022500D03*
X176690020Y-53022500D03*
X176189640Y-53022500D03*
X175689260Y-53022500D03*
X175191420Y-53022500D03*
X174691040Y-53022500D03*
X174190660Y-53022500D03*
X173690280Y-53022500D03*
X173189900Y-53022500D03*
X172689520Y-53022500D03*
X172191680Y-53022500D03*
X171691300Y-53022500D03*
X171190920Y-53022500D03*
X170690540Y-53022500D03*
X170190160Y-53022500D03*
D15*
X168069260Y-55303420D03*
X168069260Y-55803800D03*
X168069260Y-56804560D03*
X168051480Y-56304180D03*
X168069260Y-57304940D03*
X168069260Y-57802780D03*
X168069260Y-58303160D03*
X168069260Y-58803540D03*
X168069260Y-59303920D03*
X168069260Y-59804300D03*
X168069260Y-60297060D03*
X168069260Y-60797440D03*
X168069260Y-61297820D03*
X168069260Y-61798200D03*
X168069260Y-62296040D03*
X168069260Y-62796420D03*
D16*
X159334200Y-41402000D03*
X156032200Y-41402000D03*
X156032200Y-44958000D03*
X159334200Y-44958000D03*
D17*
X160604200Y-76263500D03*
X160604200Y-74739500D03*
X172986700Y-70040500D03*
X172986700Y-71564500D03*
D18*
X178257200Y-72199500D03*
X176733200Y-72199500D03*
D17*
X187020200Y-56388000D03*
X187020200Y-57912000D03*
X160604200Y-79502000D03*
X160604200Y-77978000D03*
X187147200Y-65532000D03*
X187147200Y-64008000D03*
X187198000Y-113893600D03*
X187198000Y-112369600D03*
X160655000Y-127863600D03*
X160655000Y-126339600D03*
X187071000Y-104749600D03*
X187071000Y-106273600D03*
D18*
X178308000Y-120561100D03*
X176784000Y-120561100D03*
D17*
X173037500Y-118402100D03*
X173037500Y-119926100D03*
X160655000Y-124625100D03*
X160655000Y-123101100D03*
D16*
X156083000Y-93319600D03*
X159385000Y-93319600D03*
X159385000Y-89763600D03*
X156083000Y-89763600D03*
D13*
X170240960Y-113286540D03*
D14*
X170741340Y-113286540D03*
X171241720Y-113286540D03*
X171742100Y-113286540D03*
X172242480Y-113286540D03*
X172740320Y-113286540D03*
X173240700Y-113286540D03*
X173741080Y-113286540D03*
X174241460Y-113286540D03*
X174741840Y-113286540D03*
X175242220Y-113286540D03*
X175740060Y-113286540D03*
X176240440Y-113286540D03*
X176740820Y-113286540D03*
X177241200Y-113286540D03*
X177741580Y-113286540D03*
D15*
X180022500Y-111165640D03*
X180022500Y-110665260D03*
X180022500Y-110164880D03*
X180022500Y-109664500D03*
X180022500Y-109164120D03*
X180022500Y-108666280D03*
X180022500Y-108165900D03*
X180022500Y-107665520D03*
X180022500Y-107165140D03*
X180022500Y-106664760D03*
X180022500Y-106164380D03*
X180022500Y-105666540D03*
X180022500Y-105166160D03*
X180022500Y-104665780D03*
X180022500Y-104165400D03*
X180022500Y-103665020D03*
D14*
X177741580Y-101384100D03*
X177241200Y-101384100D03*
X176740820Y-101384100D03*
X176240440Y-101384100D03*
X175740060Y-101384100D03*
X175242220Y-101384100D03*
X174741840Y-101384100D03*
X174241460Y-101384100D03*
X173741080Y-101384100D03*
X173240700Y-101384100D03*
X172740320Y-101384100D03*
X172242480Y-101384100D03*
X171742100Y-101384100D03*
X171241720Y-101384100D03*
X170741340Y-101384100D03*
X170240960Y-101384100D03*
D15*
X168120060Y-103665020D03*
X168120060Y-104165400D03*
X168120060Y-105166160D03*
X168102280Y-104665780D03*
X168120060Y-105666540D03*
X168120060Y-106164380D03*
X168120060Y-106664760D03*
X168120060Y-107165140D03*
X168120060Y-107665520D03*
X168120060Y-108165900D03*
X168120060Y-108658660D03*
X168120060Y-109159040D03*
X168120060Y-109659420D03*
X168120060Y-110159800D03*
X168120060Y-110657640D03*
X168120060Y-111158020D03*
D11*
X184531000Y-87604600D03*
D12*
X184531000Y-90144600D03*
X181991000Y-87604600D03*
X181991000Y-90144600D03*
X179451000Y-87604600D03*
X179451000Y-90144600D03*
X176911000Y-87604600D03*
X176911000Y-90144600D03*
X174371000Y-87604600D03*
X174371000Y-90144600D03*
X171831000Y-87604600D03*
X171831000Y-90144600D03*
X169291000Y-87604600D03*
X169291000Y-90144600D03*
X166751000Y-87604600D03*
X166751000Y-90144600D03*
D11*
X191897000Y-116306600D03*
D12*
X189357000Y-116306600D03*
X191897000Y-113766600D03*
X189357000Y-113766600D03*
X191897000Y-111226600D03*
X189357000Y-111226600D03*
X191897000Y-108686600D03*
X189357000Y-108686600D03*
X191897000Y-106146600D03*
X189357000Y-106146600D03*
X191897000Y-103606600D03*
X189357000Y-103606600D03*
X191897000Y-101066600D03*
X189357000Y-101066600D03*
X191897000Y-98526600D03*
X189357000Y-98526600D03*
D11*
X166751000Y-127355600D03*
D12*
X166751000Y-124815600D03*
X169291000Y-127355600D03*
X169291000Y-124815600D03*
X171831000Y-127355600D03*
X171831000Y-124815600D03*
X174371000Y-127355600D03*
X174371000Y-124815600D03*
X176911000Y-127355600D03*
X176911000Y-124815600D03*
X179451000Y-127355600D03*
X179451000Y-124815600D03*
X181991000Y-127355600D03*
X181991000Y-124815600D03*
X184531000Y-127355600D03*
X184531000Y-124815600D03*
D11*
X155956000Y-98526600D03*
D12*
X158496000Y-98526600D03*
X155956000Y-101066600D03*
X158496000Y-101066600D03*
X155956000Y-103606600D03*
X158496000Y-103606600D03*
X155956000Y-106146600D03*
X158496000Y-106146600D03*
X155956000Y-108686600D03*
X158496000Y-108686600D03*
X155956000Y-111226600D03*
X158496000Y-111226600D03*
X155956000Y-113766600D03*
X158496000Y-113766600D03*
X155956000Y-116306600D03*
X158496000Y-116306600D03*
D11*
X112318800Y-98526600D03*
D12*
X114858800Y-98526600D03*
X112318800Y-101066600D03*
X114858800Y-101066600D03*
X112318800Y-103606600D03*
X114858800Y-103606600D03*
X112318800Y-106146600D03*
X114858800Y-106146600D03*
X112318800Y-108686600D03*
X114858800Y-108686600D03*
X112318800Y-111226600D03*
X114858800Y-111226600D03*
X112318800Y-113766600D03*
X114858800Y-113766600D03*
X112318800Y-116306600D03*
X114858800Y-116306600D03*
D11*
X123113800Y-127355600D03*
D12*
X123113800Y-124815600D03*
X125653800Y-127355600D03*
X125653800Y-124815600D03*
X128193800Y-127355600D03*
X128193800Y-124815600D03*
X130733800Y-127355600D03*
X130733800Y-124815600D03*
X133273800Y-127355600D03*
X133273800Y-124815600D03*
X135813800Y-127355600D03*
X135813800Y-124815600D03*
X138353800Y-127355600D03*
X138353800Y-124815600D03*
X140893800Y-127355600D03*
X140893800Y-124815600D03*
D11*
X148259800Y-116306600D03*
D12*
X145719800Y-116306600D03*
X148259800Y-113766600D03*
X145719800Y-113766600D03*
X148259800Y-111226600D03*
X145719800Y-111226600D03*
X148259800Y-108686600D03*
X145719800Y-108686600D03*
X148259800Y-106146600D03*
X145719800Y-106146600D03*
X148259800Y-103606600D03*
X145719800Y-103606600D03*
X148259800Y-101066600D03*
X145719800Y-101066600D03*
X148259800Y-98526600D03*
X145719800Y-98526600D03*
D11*
X140893800Y-87604600D03*
D12*
X140893800Y-90144600D03*
X138353800Y-87604600D03*
X138353800Y-90144600D03*
X135813800Y-87604600D03*
X135813800Y-90144600D03*
X133273800Y-87604600D03*
X133273800Y-90144600D03*
X130733800Y-87604600D03*
X130733800Y-90144600D03*
X128193800Y-87604600D03*
X128193800Y-90144600D03*
X125653800Y-87604600D03*
X125653800Y-90144600D03*
X123113800Y-87604600D03*
X123113800Y-90144600D03*
D13*
X126603760Y-113286540D03*
D14*
X127104140Y-113286540D03*
X127604520Y-113286540D03*
X128104900Y-113286540D03*
X128605280Y-113286540D03*
X129103120Y-113286540D03*
X129603500Y-113286540D03*
X130103880Y-113286540D03*
X130604260Y-113286540D03*
X131104640Y-113286540D03*
X131605020Y-113286540D03*
X132102860Y-113286540D03*
X132603240Y-113286540D03*
X133103620Y-113286540D03*
X133604000Y-113286540D03*
X134104380Y-113286540D03*
D15*
X136385300Y-111165640D03*
X136385300Y-110665260D03*
X136385300Y-110164880D03*
X136385300Y-109664500D03*
X136385300Y-109164120D03*
X136385300Y-108666280D03*
X136385300Y-108165900D03*
X136385300Y-107665520D03*
X136385300Y-107165140D03*
X136385300Y-106664760D03*
X136385300Y-106164380D03*
X136385300Y-105666540D03*
X136385300Y-105166160D03*
X136385300Y-104665780D03*
X136385300Y-104165400D03*
X136385300Y-103665020D03*
D14*
X134104380Y-101384100D03*
X133604000Y-101384100D03*
X133103620Y-101384100D03*
X132603240Y-101384100D03*
X132102860Y-101384100D03*
X131605020Y-101384100D03*
X131104640Y-101384100D03*
X130604260Y-101384100D03*
X130103880Y-101384100D03*
X129603500Y-101384100D03*
X129103120Y-101384100D03*
X128605280Y-101384100D03*
X128104900Y-101384100D03*
X127604520Y-101384100D03*
X127104140Y-101384100D03*
X126603760Y-101384100D03*
D15*
X124482860Y-103665020D03*
X124482860Y-104165400D03*
X124482860Y-105166160D03*
X124465080Y-104665780D03*
X124482860Y-105666540D03*
X124482860Y-106164380D03*
X124482860Y-106664760D03*
X124482860Y-107165140D03*
X124482860Y-107665520D03*
X124482860Y-108165900D03*
X124482860Y-108658660D03*
X124482860Y-109159040D03*
X124482860Y-109659420D03*
X124482860Y-110159800D03*
X124482860Y-110657640D03*
X124482860Y-111158020D03*
D16*
X115747800Y-89763600D03*
X112445800Y-89763600D03*
X112445800Y-93319600D03*
X115747800Y-93319600D03*
D17*
X117017800Y-124625100D03*
X117017800Y-123101100D03*
X129400300Y-118402100D03*
X129400300Y-119926100D03*
D18*
X134670800Y-120561100D03*
X133146800Y-120561100D03*
D17*
X143433800Y-104749600D03*
X143433800Y-106273600D03*
X117017800Y-127863600D03*
X117017800Y-126339600D03*
X143560800Y-113893600D03*
X143560800Y-112369600D03*
X143510000Y-65532000D03*
X143510000Y-64008000D03*
X116967000Y-79502000D03*
X116967000Y-77978000D03*
X143383000Y-56388000D03*
X143383000Y-57912000D03*
D18*
X134620000Y-72199500D03*
X133096000Y-72199500D03*
D17*
X129349500Y-70040500D03*
X129349500Y-71564500D03*
X116967000Y-76263500D03*
X116967000Y-74739500D03*
D16*
X112395000Y-44958000D03*
X115697000Y-44958000D03*
X115697000Y-41402000D03*
X112395000Y-41402000D03*
D13*
X126552960Y-64924940D03*
D14*
X127053340Y-64924940D03*
X127553720Y-64924940D03*
X128054100Y-64924940D03*
X128554480Y-64924940D03*
X129052320Y-64924940D03*
X129552700Y-64924940D03*
X130053080Y-64924940D03*
X130553460Y-64924940D03*
X131053840Y-64924940D03*
X131554220Y-64924940D03*
X132052060Y-64924940D03*
X132552440Y-64924940D03*
X133052820Y-64924940D03*
X133553200Y-64924940D03*
X134053580Y-64924940D03*
D15*
X136334500Y-62804040D03*
X136334500Y-62303660D03*
X136334500Y-61803280D03*
X136334500Y-61302900D03*
X136334500Y-60802520D03*
X136334500Y-60304680D03*
X136334500Y-59804300D03*
X136334500Y-59303920D03*
X136334500Y-58803540D03*
X136334500Y-58303160D03*
X136334500Y-57802780D03*
X136334500Y-57304940D03*
X136334500Y-56804560D03*
X136334500Y-56304180D03*
X136334500Y-55803800D03*
X136334500Y-55303420D03*
D14*
X134053580Y-53022500D03*
X133553200Y-53022500D03*
X133052820Y-53022500D03*
X132552440Y-53022500D03*
X132052060Y-53022500D03*
X131554220Y-53022500D03*
X131053840Y-53022500D03*
X130553460Y-53022500D03*
X130053080Y-53022500D03*
X129552700Y-53022500D03*
X129052320Y-53022500D03*
X128554480Y-53022500D03*
X128054100Y-53022500D03*
X127553720Y-53022500D03*
X127053340Y-53022500D03*
X126552960Y-53022500D03*
D15*
X124432060Y-55303420D03*
X124432060Y-55803800D03*
X124432060Y-56804560D03*
X124414280Y-56304180D03*
X124432060Y-57304940D03*
X124432060Y-57802780D03*
X124432060Y-58303160D03*
X124432060Y-58803540D03*
X124432060Y-59303920D03*
X124432060Y-59804300D03*
X124432060Y-60297060D03*
X124432060Y-60797440D03*
X124432060Y-61297820D03*
X124432060Y-61798200D03*
X124432060Y-62296040D03*
X124432060Y-62796420D03*
D11*
X140843000Y-39243000D03*
D12*
X140843000Y-41783000D03*
X138303000Y-39243000D03*
X138303000Y-41783000D03*
X135763000Y-39243000D03*
X135763000Y-41783000D03*
X133223000Y-39243000D03*
X133223000Y-41783000D03*
X130683000Y-39243000D03*
X130683000Y-41783000D03*
X128143000Y-39243000D03*
X128143000Y-41783000D03*
X125603000Y-39243000D03*
X125603000Y-41783000D03*
X123063000Y-39243000D03*
X123063000Y-41783000D03*
D11*
X148209000Y-67945000D03*
D12*
X145669000Y-67945000D03*
X148209000Y-65405000D03*
X145669000Y-65405000D03*
X148209000Y-62865000D03*
X145669000Y-62865000D03*
X148209000Y-60325000D03*
X145669000Y-60325000D03*
X148209000Y-57785000D03*
X145669000Y-57785000D03*
X148209000Y-55245000D03*
X145669000Y-55245000D03*
X148209000Y-52705000D03*
X145669000Y-52705000D03*
X148209000Y-50165000D03*
X145669000Y-50165000D03*
D11*
X123063000Y-78994000D03*
D12*
X123063000Y-76454000D03*
X125603000Y-78994000D03*
X125603000Y-76454000D03*
X128143000Y-78994000D03*
X128143000Y-76454000D03*
X130683000Y-78994000D03*
X130683000Y-76454000D03*
X133223000Y-78994000D03*
X133223000Y-76454000D03*
X135763000Y-78994000D03*
X135763000Y-76454000D03*
X138303000Y-78994000D03*
X138303000Y-76454000D03*
X140843000Y-78994000D03*
X140843000Y-76454000D03*
D11*
X112268000Y-50165000D03*
D12*
X114808000Y-50165000D03*
X112268000Y-52705000D03*
X114808000Y-52705000D03*
X112268000Y-55245000D03*
X114808000Y-55245000D03*
X112268000Y-57785000D03*
X114808000Y-57785000D03*
X112268000Y-60325000D03*
X114808000Y-60325000D03*
X112268000Y-62865000D03*
X114808000Y-62865000D03*
X112268000Y-65405000D03*
X114808000Y-65405000D03*
X112268000Y-67945000D03*
X114808000Y-67945000D03*
M02*
