G04 #@! TF.FileFunction,Soldermask,Top*
%FSLAX46Y46*%
G04 Gerber Fmt 4.6, Leading zero omitted, Abs format (unit mm)*
G04 Created by KiCad (PCBNEW 4.0.7) date 02/13/18 20:48:28*
%MOMM*%
%LPD*%
G01*
G04 APERTURE LIST*
%ADD10C,0.150000*%
%ADD11R,3.048000X3.048000*%
%ADD12R,1.651000X1.143000*%
%ADD13R,1.143000X1.651000*%
%ADD14R,2.032000X2.032000*%
%ADD15C,2.032000*%
G04 APERTURE END LIST*
D10*
D11*
X127635000Y-66421000D03*
X132715000Y-66421000D03*
X132715000Y-71501000D03*
X127635000Y-71501000D03*
D12*
X127635000Y-63627000D03*
X127635000Y-62103000D03*
X132715000Y-63627000D03*
X132715000Y-62103000D03*
D13*
X118427500Y-63182500D03*
X119951500Y-63182500D03*
X131572000Y-81661000D03*
X130048000Y-81661000D03*
X127381000Y-59055000D03*
X125857000Y-59055000D03*
D12*
X140208000Y-68580000D03*
X140208000Y-67056000D03*
D14*
X123063000Y-51181000D03*
D15*
X123063000Y-48641000D03*
X125603000Y-51181000D03*
X125603000Y-48641000D03*
X128143000Y-51181000D03*
X128143000Y-48641000D03*
X130683000Y-51181000D03*
X130683000Y-48641000D03*
X133223000Y-51181000D03*
X133223000Y-48641000D03*
X135763000Y-51181000D03*
X135763000Y-48641000D03*
X138303000Y-51181000D03*
X138303000Y-48641000D03*
X140843000Y-51181000D03*
X140843000Y-48641000D03*
D14*
X140843000Y-85852000D03*
D15*
X140843000Y-88392000D03*
X138303000Y-85852000D03*
X138303000Y-88392000D03*
X135763000Y-85852000D03*
X135763000Y-88392000D03*
X133223000Y-85852000D03*
X133223000Y-88392000D03*
X130683000Y-85852000D03*
X130683000Y-88392000D03*
X128143000Y-85852000D03*
X128143000Y-88392000D03*
X125603000Y-85852000D03*
X125603000Y-88392000D03*
X123063000Y-85852000D03*
X123063000Y-88392000D03*
D14*
X145669000Y-59690000D03*
D15*
X148209000Y-59690000D03*
X145669000Y-62230000D03*
X148209000Y-62230000D03*
X145669000Y-64770000D03*
X148209000Y-64770000D03*
X145669000Y-67310000D03*
X148209000Y-67310000D03*
X145669000Y-69850000D03*
X148209000Y-69850000D03*
X145669000Y-72390000D03*
X148209000Y-72390000D03*
X145669000Y-74930000D03*
X148209000Y-74930000D03*
X145669000Y-77470000D03*
X148209000Y-77470000D03*
D14*
X114808000Y-77470000D03*
D15*
X112268000Y-77470000D03*
X114808000Y-74930000D03*
X112268000Y-74930000D03*
X114808000Y-72390000D03*
X112268000Y-72390000D03*
X114808000Y-69850000D03*
X112268000Y-69850000D03*
X114808000Y-67310000D03*
X112268000Y-67310000D03*
X114808000Y-64770000D03*
X112268000Y-64770000D03*
X114808000Y-62230000D03*
X112268000Y-62230000D03*
X114808000Y-59690000D03*
X112268000Y-59690000D03*
M02*
