M48
;DRILL file {KiCad 4.0.5+dfsg1-4} date Wed May 16 23:13:15 2018
;FORMAT={-:-/ absolute / metric / decimal}
FMAT,2
METRIC,TZ
T1C0.599
T2C0.800
%
G90
G05
M71
T1
X113.538Y-53.404
X114.49Y-47.117
X115.57Y-88.646
X117.602Y-82.677
X118.491Y-67.31
X119.253Y-78.867
X129.032Y-80.772
X130.175Y-55.372
X130.556Y-79.502
X132.588Y-57.15
X132.588Y-79.692
X134.175Y-80.328
X140.843Y-62.23
X141.605Y-71.12
T2
X112.268Y-59.69
X112.268Y-62.23
X112.268Y-64.77
X112.268Y-67.31
X112.268Y-69.85
X112.268Y-72.39
X112.268Y-74.93
X112.268Y-77.47
X114.808Y-59.69
X114.808Y-62.23
X114.808Y-64.77
X114.808Y-67.31
X114.808Y-69.85
X114.808Y-72.39
X114.808Y-74.93
X114.808Y-77.47
X123.063Y-48.641
X123.063Y-51.181
X123.063Y-85.852
X123.063Y-88.392
X125.603Y-48.641
X125.603Y-51.181
X125.603Y-85.852
X125.603Y-88.392
X128.143Y-48.641
X128.143Y-51.181
X128.143Y-85.852
X128.143Y-88.392
X130.683Y-48.641
X130.683Y-51.181
X130.683Y-85.852
X130.683Y-88.392
X133.223Y-48.641
X133.223Y-51.181
X133.223Y-85.852
X133.223Y-88.392
X135.763Y-48.641
X135.763Y-51.181
X135.763Y-85.852
X135.763Y-88.392
X138.303Y-48.641
X138.303Y-51.181
X138.303Y-85.852
X138.303Y-88.392
X140.843Y-48.641
X140.843Y-51.181
X140.843Y-85.852
X140.843Y-88.392
X145.669Y-59.69
X145.669Y-62.23
X145.669Y-64.77
X145.669Y-67.31
X145.669Y-69.85
X145.669Y-72.39
X145.669Y-74.93
X145.669Y-77.47
X148.209Y-59.69
X148.209Y-62.23
X148.209Y-64.77
X148.209Y-67.31
X148.209Y-69.85
X148.209Y-72.39
X148.209Y-74.93
X148.209Y-77.47
T0
M30
