G04 #@! TF.GenerationSoftware,KiCad,Pcbnew,(5.1.5)-3*
G04 #@! TF.CreationDate,2020-04-11T11:45:51+02:00*
G04 #@! TF.ProjectId,CODER-AS5047P,434f4445-522d-4415-9335-303437502e6b,rev?*
G04 #@! TF.SameCoordinates,Original*
G04 #@! TF.FileFunction,Legend,Top*
G04 #@! TF.FilePolarity,Positive*
%FSLAX46Y46*%
G04 Gerber Fmt 4.6, Leading zero omitted, Abs format (unit mm)*
G04 Created by KiCad (PCBNEW (5.1.5)-3) date 2020-04-11 11:45:51*
%MOMM*%
%LPD*%
G04 APERTURE LIST*
%ADD10C,0.150000*%
%ADD11C,0.120000*%
G04 APERTURE END LIST*
D10*
X182435523Y-103084380D02*
X181959333Y-103084380D01*
X181911714Y-103560571D01*
X181959333Y-103512952D01*
X182054571Y-103465333D01*
X182292666Y-103465333D01*
X182387904Y-103512952D01*
X182435523Y-103560571D01*
X182483142Y-103655809D01*
X182483142Y-103893904D01*
X182435523Y-103989142D01*
X182387904Y-104036761D01*
X182292666Y-104084380D01*
X182054571Y-104084380D01*
X181959333Y-104036761D01*
X181911714Y-103989142D01*
X182768857Y-103084380D02*
X183102190Y-104084380D01*
X183435523Y-103084380D01*
X177339809Y-103084380D02*
X177958857Y-103084380D01*
X177625523Y-103465333D01*
X177768380Y-103465333D01*
X177863619Y-103512952D01*
X177911238Y-103560571D01*
X177958857Y-103655809D01*
X177958857Y-103893904D01*
X177911238Y-103989142D01*
X177863619Y-104036761D01*
X177768380Y-104084380D01*
X177482666Y-104084380D01*
X177387428Y-104036761D01*
X177339809Y-103989142D01*
X178387428Y-103989142D02*
X178435047Y-104036761D01*
X178387428Y-104084380D01*
X178339809Y-104036761D01*
X178387428Y-103989142D01*
X178387428Y-104084380D01*
X178768380Y-103084380D02*
X179387428Y-103084380D01*
X179054095Y-103465333D01*
X179196952Y-103465333D01*
X179292190Y-103512952D01*
X179339809Y-103560571D01*
X179387428Y-103655809D01*
X179387428Y-103893904D01*
X179339809Y-103989142D01*
X179292190Y-104036761D01*
X179196952Y-104084380D01*
X178911238Y-104084380D01*
X178816000Y-104036761D01*
X178768380Y-103989142D01*
X179673142Y-103084380D02*
X180006476Y-104084380D01*
X180339809Y-103084380D01*
D11*
X178352000Y-106360000D02*
X178352000Y-104410000D01*
X183852000Y-106360000D02*
X178352000Y-106360000D01*
X183852000Y-104410000D02*
X183852000Y-106360000D01*
X178352000Y-104410000D02*
X183852000Y-104410000D01*
X177240000Y-106155748D02*
X177240000Y-106678252D01*
X175820000Y-106155748D02*
X175820000Y-106678252D01*
X177628733Y-121156000D02*
X177971267Y-121156000D01*
X177628733Y-122176000D02*
X177971267Y-122176000D01*
D10*
X175475000Y-111675000D02*
X175475000Y-111800000D01*
X180125000Y-111675000D02*
X180125000Y-111900000D01*
X180125000Y-116925000D02*
X180125000Y-116700000D01*
X175475000Y-116925000D02*
X175475000Y-116700000D01*
X175475000Y-111675000D02*
X180125000Y-111675000D01*
X175475000Y-116925000D02*
X180125000Y-116925000D01*
X175475000Y-111800000D02*
X174125000Y-111800000D01*
X184349665Y-104862380D02*
X184968713Y-104862380D01*
X184635379Y-105243333D01*
X184778237Y-105243333D01*
X184873475Y-105290952D01*
X184921094Y-105338571D01*
X184968713Y-105433809D01*
X184968713Y-105671904D01*
X184921094Y-105767142D01*
X184873475Y-105814761D01*
X184778237Y-105862380D01*
X184492522Y-105862380D01*
X184397284Y-105814761D01*
X184349665Y-105767142D01*
X178037714Y-105862380D02*
X177466285Y-105862380D01*
X177752000Y-105862380D02*
X177752000Y-104862380D01*
X177656761Y-105005238D01*
X177561523Y-105100476D01*
X177466285Y-105148095D01*
X177038095Y-110202380D02*
X177038095Y-111011904D01*
X177085714Y-111107142D01*
X177133333Y-111154761D01*
X177228571Y-111202380D01*
X177419047Y-111202380D01*
X177514285Y-111154761D01*
X177561904Y-111107142D01*
X177609523Y-111011904D01*
X177609523Y-110202380D01*
X178609523Y-111202380D02*
X178038095Y-111202380D01*
X178323809Y-111202380D02*
X178323809Y-110202380D01*
X178228571Y-110345238D01*
X178133333Y-110440476D01*
X178038095Y-110488095D01*
M02*
