G04 #@! TF.GenerationSoftware,KiCad,Pcbnew,(5.1.5)-3*
G04 #@! TF.CreationDate,2020-04-11T11:45:51+02:00*
G04 #@! TF.ProjectId,CODER-AS5047P,434f4445-522d-4415-9335-303437502e6b,rev?*
G04 #@! TF.SameCoordinates,Original*
G04 #@! TF.FileFunction,Soldermask,Top*
G04 #@! TF.FilePolarity,Negative*
%FSLAX46Y46*%
G04 Gerber Fmt 4.6, Leading zero omitted, Abs format (unit mm)*
G04 Created by KiCad (PCBNEW (5.1.5)-3) date 2020-04-11 11:45:51*
%MOMM*%
%LPD*%
G04 APERTURE LIST*
%ADD10C,0.100000*%
G04 APERTURE END LIST*
D10*
G36*
X179089499Y-121144445D02*
G01*
X179126995Y-121155820D01*
X179161554Y-121174292D01*
X179191847Y-121199153D01*
X179216708Y-121229446D01*
X179235180Y-121264005D01*
X179246555Y-121301501D01*
X179251000Y-121346638D01*
X179251000Y-121985362D01*
X179246555Y-122030499D01*
X179235180Y-122067995D01*
X179216708Y-122102554D01*
X179191847Y-122132847D01*
X179161554Y-122157708D01*
X179126995Y-122176180D01*
X179089499Y-122187555D01*
X179044362Y-122192000D01*
X178305638Y-122192000D01*
X178260501Y-122187555D01*
X178223005Y-122176180D01*
X178188446Y-122157708D01*
X178158153Y-122132847D01*
X178133292Y-122102554D01*
X178114820Y-122067995D01*
X178103445Y-122030499D01*
X178099000Y-121985362D01*
X178099000Y-121346638D01*
X178103445Y-121301501D01*
X178114820Y-121264005D01*
X178133292Y-121229446D01*
X178158153Y-121199153D01*
X178188446Y-121174292D01*
X178223005Y-121155820D01*
X178260501Y-121144445D01*
X178305638Y-121140000D01*
X179044362Y-121140000D01*
X179089499Y-121144445D01*
G37*
G36*
X177339499Y-121144445D02*
G01*
X177376995Y-121155820D01*
X177411554Y-121174292D01*
X177441847Y-121199153D01*
X177466708Y-121229446D01*
X177485180Y-121264005D01*
X177496555Y-121301501D01*
X177501000Y-121346638D01*
X177501000Y-121985362D01*
X177496555Y-122030499D01*
X177485180Y-122067995D01*
X177466708Y-122102554D01*
X177441847Y-122132847D01*
X177411554Y-122157708D01*
X177376995Y-122176180D01*
X177339499Y-122187555D01*
X177294362Y-122192000D01*
X176555638Y-122192000D01*
X176510501Y-122187555D01*
X176473005Y-122176180D01*
X176438446Y-122157708D01*
X176408153Y-122132847D01*
X176383292Y-122102554D01*
X176364820Y-122067995D01*
X176353445Y-122030499D01*
X176349000Y-121985362D01*
X176349000Y-121346638D01*
X176353445Y-121301501D01*
X176364820Y-121264005D01*
X176383292Y-121229446D01*
X176408153Y-121199153D01*
X176438446Y-121174292D01*
X176473005Y-121155820D01*
X176510501Y-121144445D01*
X176555638Y-121140000D01*
X177294362Y-121140000D01*
X177339499Y-121144445D01*
G37*
G36*
X172459561Y-119732966D02*
G01*
X172492383Y-119742923D01*
X172522632Y-119759092D01*
X172549148Y-119780852D01*
X172570908Y-119807368D01*
X172587077Y-119837617D01*
X172597034Y-119870439D01*
X172601000Y-119910713D01*
X172601000Y-121389287D01*
X172597034Y-121429561D01*
X172587077Y-121462383D01*
X172570908Y-121492632D01*
X172549148Y-121519148D01*
X172522632Y-121540908D01*
X172492383Y-121557077D01*
X172459561Y-121567034D01*
X172419287Y-121571000D01*
X170480713Y-121571000D01*
X170440439Y-121567034D01*
X170407617Y-121557077D01*
X170377368Y-121540908D01*
X170350852Y-121519148D01*
X170329092Y-121492632D01*
X170312923Y-121462383D01*
X170302966Y-121429561D01*
X170299000Y-121389287D01*
X170299000Y-119910713D01*
X170302966Y-119870439D01*
X170312923Y-119837617D01*
X170329092Y-119807368D01*
X170350852Y-119780852D01*
X170377368Y-119759092D01*
X170407617Y-119742923D01*
X170440439Y-119732966D01*
X170480713Y-119729000D01*
X172419287Y-119729000D01*
X172459561Y-119732966D01*
G37*
G36*
X185105345Y-118463442D02*
G01*
X185195548Y-118472326D01*
X185369157Y-118524990D01*
X185529156Y-118610511D01*
X185545782Y-118624156D01*
X185669397Y-118725603D01*
X185748729Y-118822271D01*
X185784489Y-118865844D01*
X185870010Y-119025843D01*
X185922674Y-119199452D01*
X185940456Y-119380000D01*
X185922674Y-119560548D01*
X185870010Y-119734157D01*
X185870009Y-119734159D01*
X185861998Y-119749146D01*
X185784489Y-119894156D01*
X185748729Y-119937729D01*
X185669397Y-120034397D01*
X185572729Y-120113729D01*
X185529156Y-120149489D01*
X185369157Y-120235010D01*
X185195548Y-120287674D01*
X185105345Y-120296558D01*
X185060245Y-120301000D01*
X184509755Y-120301000D01*
X184464655Y-120296558D01*
X184374452Y-120287674D01*
X184200843Y-120235010D01*
X184040844Y-120149489D01*
X183997271Y-120113729D01*
X183900603Y-120034397D01*
X183821271Y-119937729D01*
X183785511Y-119894156D01*
X183708002Y-119749146D01*
X183699991Y-119734159D01*
X183699990Y-119734157D01*
X183647326Y-119560548D01*
X183629544Y-119380000D01*
X183647326Y-119199452D01*
X183699990Y-119025843D01*
X183785511Y-118865844D01*
X183821271Y-118822271D01*
X183900603Y-118725603D01*
X184024218Y-118624156D01*
X184040844Y-118610511D01*
X184200843Y-118524990D01*
X184374452Y-118472326D01*
X184464655Y-118463442D01*
X184509755Y-118459000D01*
X185060245Y-118459000D01*
X185105345Y-118463442D01*
G37*
G36*
X171770345Y-117193442D02*
G01*
X171860548Y-117202326D01*
X172034157Y-117254990D01*
X172194156Y-117340511D01*
X172210782Y-117354156D01*
X172334397Y-117455603D01*
X172413729Y-117552271D01*
X172449489Y-117595844D01*
X172535010Y-117755843D01*
X172587674Y-117929452D01*
X172605456Y-118110000D01*
X172587674Y-118290548D01*
X172535010Y-118464157D01*
X172449489Y-118624156D01*
X172413729Y-118667729D01*
X172334397Y-118764397D01*
X172237729Y-118843729D01*
X172194156Y-118879489D01*
X172034157Y-118965010D01*
X171860548Y-119017674D01*
X171777625Y-119025841D01*
X171725245Y-119031000D01*
X171174755Y-119031000D01*
X171122375Y-119025841D01*
X171039452Y-119017674D01*
X170865843Y-118965010D01*
X170705844Y-118879489D01*
X170662271Y-118843729D01*
X170565603Y-118764397D01*
X170486271Y-118667729D01*
X170450511Y-118624156D01*
X170364990Y-118464157D01*
X170312326Y-118290548D01*
X170294544Y-118110000D01*
X170312326Y-117929452D01*
X170364990Y-117755843D01*
X170450511Y-117595844D01*
X170486271Y-117552271D01*
X170565603Y-117455603D01*
X170689218Y-117354156D01*
X170705844Y-117340511D01*
X170865843Y-117254990D01*
X171039452Y-117202326D01*
X171129655Y-117193442D01*
X171174755Y-117189000D01*
X171725245Y-117189000D01*
X171770345Y-117193442D01*
G37*
G36*
X185105345Y-115923442D02*
G01*
X185195548Y-115932326D01*
X185369157Y-115984990D01*
X185529156Y-116070511D01*
X185545782Y-116084156D01*
X185669397Y-116185603D01*
X185748729Y-116282271D01*
X185784489Y-116325844D01*
X185870010Y-116485843D01*
X185922674Y-116659452D01*
X185940456Y-116840000D01*
X185922674Y-117020548D01*
X185870010Y-117194157D01*
X185784489Y-117354156D01*
X185748729Y-117397729D01*
X185669397Y-117494397D01*
X185572729Y-117573729D01*
X185529156Y-117609489D01*
X185369157Y-117695010D01*
X185195548Y-117747674D01*
X185112625Y-117755841D01*
X185060245Y-117761000D01*
X184509755Y-117761000D01*
X184457375Y-117755841D01*
X184374452Y-117747674D01*
X184200843Y-117695010D01*
X184040844Y-117609489D01*
X183997271Y-117573729D01*
X183900603Y-117494397D01*
X183821271Y-117397729D01*
X183785511Y-117354156D01*
X183699990Y-117194157D01*
X183647326Y-117020548D01*
X183629544Y-116840000D01*
X183647326Y-116659452D01*
X183699990Y-116485843D01*
X183785511Y-116325844D01*
X183821271Y-116282271D01*
X183900603Y-116185603D01*
X184024218Y-116084156D01*
X184040844Y-116070511D01*
X184200843Y-115984990D01*
X184374452Y-115932326D01*
X184464655Y-115923442D01*
X184509755Y-115919000D01*
X185060245Y-115919000D01*
X185105345Y-115923442D01*
G37*
G36*
X175626000Y-116526000D02*
G01*
X174074000Y-116526000D01*
X174074000Y-112074000D01*
X175626000Y-112074000D01*
X175626000Y-116526000D01*
G37*
G36*
X181526000Y-116526000D02*
G01*
X179974000Y-116526000D01*
X179974000Y-112074000D01*
X181526000Y-112074000D01*
X181526000Y-116526000D01*
G37*
G36*
X171770345Y-114653442D02*
G01*
X171860548Y-114662326D01*
X172034157Y-114714990D01*
X172194156Y-114800511D01*
X172210782Y-114814156D01*
X172334397Y-114915603D01*
X172413729Y-115012271D01*
X172449489Y-115055844D01*
X172535010Y-115215843D01*
X172587674Y-115389452D01*
X172605456Y-115570000D01*
X172587674Y-115750548D01*
X172535010Y-115924157D01*
X172449489Y-116084156D01*
X172413729Y-116127729D01*
X172334397Y-116224397D01*
X172237729Y-116303729D01*
X172194156Y-116339489D01*
X172034157Y-116425010D01*
X171860548Y-116477674D01*
X171777625Y-116485841D01*
X171725245Y-116491000D01*
X171174755Y-116491000D01*
X171122375Y-116485841D01*
X171039452Y-116477674D01*
X170865843Y-116425010D01*
X170705844Y-116339489D01*
X170662271Y-116303729D01*
X170565603Y-116224397D01*
X170486271Y-116127729D01*
X170450511Y-116084156D01*
X170364990Y-115924157D01*
X170312326Y-115750548D01*
X170294544Y-115570000D01*
X170312326Y-115389452D01*
X170364990Y-115215843D01*
X170450511Y-115055844D01*
X170486271Y-115012271D01*
X170565603Y-114915603D01*
X170689218Y-114814156D01*
X170705844Y-114800511D01*
X170865843Y-114714990D01*
X171039452Y-114662326D01*
X171129655Y-114653442D01*
X171174755Y-114649000D01*
X171725245Y-114649000D01*
X171770345Y-114653442D01*
G37*
G36*
X185105345Y-113383442D02*
G01*
X185195548Y-113392326D01*
X185369157Y-113444990D01*
X185529156Y-113530511D01*
X185545782Y-113544156D01*
X185669397Y-113645603D01*
X185748729Y-113742271D01*
X185784489Y-113785844D01*
X185870010Y-113945843D01*
X185922674Y-114119452D01*
X185940456Y-114300000D01*
X185922674Y-114480548D01*
X185870010Y-114654157D01*
X185784489Y-114814156D01*
X185748729Y-114857729D01*
X185669397Y-114954397D01*
X185572729Y-115033729D01*
X185529156Y-115069489D01*
X185369157Y-115155010D01*
X185195548Y-115207674D01*
X185112625Y-115215841D01*
X185060245Y-115221000D01*
X184509755Y-115221000D01*
X184457375Y-115215841D01*
X184374452Y-115207674D01*
X184200843Y-115155010D01*
X184040844Y-115069489D01*
X183997271Y-115033729D01*
X183900603Y-114954397D01*
X183821271Y-114857729D01*
X183785511Y-114814156D01*
X183699990Y-114654157D01*
X183647326Y-114480548D01*
X183629544Y-114300000D01*
X183647326Y-114119452D01*
X183699990Y-113945843D01*
X183785511Y-113785844D01*
X183821271Y-113742271D01*
X183900603Y-113645603D01*
X184024218Y-113544156D01*
X184040844Y-113530511D01*
X184200843Y-113444990D01*
X184374452Y-113392326D01*
X184464655Y-113383442D01*
X184509755Y-113379000D01*
X185060245Y-113379000D01*
X185105345Y-113383442D01*
G37*
G36*
X171770345Y-112113442D02*
G01*
X171860548Y-112122326D01*
X172034157Y-112174990D01*
X172194156Y-112260511D01*
X172210782Y-112274156D01*
X172334397Y-112375603D01*
X172413729Y-112472271D01*
X172449489Y-112515844D01*
X172535010Y-112675843D01*
X172587674Y-112849452D01*
X172605456Y-113030000D01*
X172587674Y-113210548D01*
X172535010Y-113384157D01*
X172449489Y-113544156D01*
X172413729Y-113587729D01*
X172334397Y-113684397D01*
X172237729Y-113763729D01*
X172194156Y-113799489D01*
X172034157Y-113885010D01*
X171860548Y-113937674D01*
X171777625Y-113945841D01*
X171725245Y-113951000D01*
X171174755Y-113951000D01*
X171122375Y-113945841D01*
X171039452Y-113937674D01*
X170865843Y-113885010D01*
X170705844Y-113799489D01*
X170662271Y-113763729D01*
X170565603Y-113684397D01*
X170486271Y-113587729D01*
X170450511Y-113544156D01*
X170364990Y-113384157D01*
X170312326Y-113210548D01*
X170294544Y-113030000D01*
X170312326Y-112849452D01*
X170364990Y-112675843D01*
X170450511Y-112515844D01*
X170486271Y-112472271D01*
X170565603Y-112375603D01*
X170689218Y-112274156D01*
X170705844Y-112260511D01*
X170865843Y-112174990D01*
X171039452Y-112122326D01*
X171129655Y-112113442D01*
X171174755Y-112109000D01*
X171725245Y-112109000D01*
X171770345Y-112113442D01*
G37*
G36*
X185105345Y-110843442D02*
G01*
X185195548Y-110852326D01*
X185369157Y-110904990D01*
X185529156Y-110990511D01*
X185545782Y-111004156D01*
X185669397Y-111105603D01*
X185748729Y-111202271D01*
X185784489Y-111245844D01*
X185870010Y-111405843D01*
X185922674Y-111579452D01*
X185940456Y-111760000D01*
X185922674Y-111940548D01*
X185870010Y-112114157D01*
X185784489Y-112274156D01*
X185748729Y-112317729D01*
X185669397Y-112414397D01*
X185572729Y-112493729D01*
X185529156Y-112529489D01*
X185369157Y-112615010D01*
X185195548Y-112667674D01*
X185112625Y-112675841D01*
X185060245Y-112681000D01*
X184509755Y-112681000D01*
X184457375Y-112675841D01*
X184374452Y-112667674D01*
X184200843Y-112615010D01*
X184040844Y-112529489D01*
X183997271Y-112493729D01*
X183900603Y-112414397D01*
X183821271Y-112317729D01*
X183785511Y-112274156D01*
X183699990Y-112114157D01*
X183647326Y-111940548D01*
X183629544Y-111760000D01*
X183647326Y-111579452D01*
X183699990Y-111405843D01*
X183785511Y-111245844D01*
X183821271Y-111202271D01*
X183900603Y-111105603D01*
X184024218Y-111004156D01*
X184040844Y-110990511D01*
X184200843Y-110904990D01*
X184374452Y-110852326D01*
X184464655Y-110843442D01*
X184509755Y-110839000D01*
X185060245Y-110839000D01*
X185105345Y-110843442D01*
G37*
G36*
X171770345Y-109573442D02*
G01*
X171860548Y-109582326D01*
X172034157Y-109634990D01*
X172194156Y-109720511D01*
X172237729Y-109756271D01*
X172334397Y-109835603D01*
X172410205Y-109927977D01*
X172449489Y-109975844D01*
X172495878Y-110062632D01*
X172530325Y-110127077D01*
X172535010Y-110135843D01*
X172587674Y-110309452D01*
X172605456Y-110490000D01*
X172587674Y-110670548D01*
X172535010Y-110844157D01*
X172449489Y-111004156D01*
X172413729Y-111047729D01*
X172334397Y-111144397D01*
X172237729Y-111223729D01*
X172194156Y-111259489D01*
X172034157Y-111345010D01*
X171860548Y-111397674D01*
X171777625Y-111405841D01*
X171725245Y-111411000D01*
X171174755Y-111411000D01*
X171122375Y-111405841D01*
X171039452Y-111397674D01*
X170865843Y-111345010D01*
X170705844Y-111259489D01*
X170662271Y-111223729D01*
X170565603Y-111144397D01*
X170486271Y-111047729D01*
X170450511Y-111004156D01*
X170364990Y-110844157D01*
X170312326Y-110670548D01*
X170294544Y-110490000D01*
X170312326Y-110309452D01*
X170364990Y-110135843D01*
X170369676Y-110127077D01*
X170404122Y-110062632D01*
X170450511Y-109975844D01*
X170489795Y-109927977D01*
X170565603Y-109835603D01*
X170662271Y-109756271D01*
X170705844Y-109720511D01*
X170865843Y-109634990D01*
X171039452Y-109582326D01*
X171129655Y-109573442D01*
X171174755Y-109569000D01*
X171725245Y-109569000D01*
X171770345Y-109573442D01*
G37*
G36*
X185794561Y-108302966D02*
G01*
X185827383Y-108312923D01*
X185857632Y-108329092D01*
X185884148Y-108350852D01*
X185905908Y-108377368D01*
X185922077Y-108407617D01*
X185932034Y-108440439D01*
X185936000Y-108480713D01*
X185936000Y-109959287D01*
X185932034Y-109999561D01*
X185922077Y-110032383D01*
X185905908Y-110062632D01*
X185884148Y-110089148D01*
X185857632Y-110110908D01*
X185827383Y-110127077D01*
X185794561Y-110137034D01*
X185754287Y-110141000D01*
X183815713Y-110141000D01*
X183775439Y-110137034D01*
X183742617Y-110127077D01*
X183712368Y-110110908D01*
X183685852Y-110089148D01*
X183664092Y-110062632D01*
X183647923Y-110032383D01*
X183637966Y-109999561D01*
X183634000Y-109959287D01*
X183634000Y-108480713D01*
X183637966Y-108440439D01*
X183647923Y-108407617D01*
X183664092Y-108377368D01*
X183685852Y-108350852D01*
X183712368Y-108329092D01*
X183742617Y-108312923D01*
X183775439Y-108302966D01*
X183815713Y-108299000D01*
X185754287Y-108299000D01*
X185794561Y-108302966D01*
G37*
G36*
X171770345Y-107033442D02*
G01*
X171860548Y-107042326D01*
X172034157Y-107094990D01*
X172194156Y-107180511D01*
X172237729Y-107216271D01*
X172334397Y-107295603D01*
X172413729Y-107392271D01*
X172449489Y-107435844D01*
X172535010Y-107595843D01*
X172587674Y-107769452D01*
X172605456Y-107950000D01*
X172587674Y-108130548D01*
X172535010Y-108304157D01*
X172535009Y-108304159D01*
X172526998Y-108319146D01*
X172449489Y-108464156D01*
X172413729Y-108507729D01*
X172334397Y-108604397D01*
X172237729Y-108683729D01*
X172194156Y-108719489D01*
X172034157Y-108805010D01*
X171860548Y-108857674D01*
X171770345Y-108866558D01*
X171725245Y-108871000D01*
X171174755Y-108871000D01*
X171129655Y-108866558D01*
X171039452Y-108857674D01*
X170865843Y-108805010D01*
X170705844Y-108719489D01*
X170662271Y-108683729D01*
X170565603Y-108604397D01*
X170486271Y-108507729D01*
X170450511Y-108464156D01*
X170373002Y-108319146D01*
X170364991Y-108304159D01*
X170364990Y-108304157D01*
X170312326Y-108130548D01*
X170294544Y-107950000D01*
X170312326Y-107769452D01*
X170364990Y-107595843D01*
X170450511Y-107435844D01*
X170486271Y-107392271D01*
X170565603Y-107295603D01*
X170662271Y-107216271D01*
X170705844Y-107180511D01*
X170865843Y-107094990D01*
X171039452Y-107042326D01*
X171129655Y-107033442D01*
X171174755Y-107029000D01*
X171725245Y-107029000D01*
X171770345Y-107033442D01*
G37*
G36*
X177118674Y-106820465D02*
G01*
X177156367Y-106831899D01*
X177191103Y-106850466D01*
X177221548Y-106875452D01*
X177246534Y-106905897D01*
X177265101Y-106940633D01*
X177276535Y-106978326D01*
X177281000Y-107023661D01*
X177281000Y-107860339D01*
X177276535Y-107905674D01*
X177265101Y-107943367D01*
X177246534Y-107978103D01*
X177221548Y-108008548D01*
X177191103Y-108033534D01*
X177156367Y-108052101D01*
X177118674Y-108063535D01*
X177073339Y-108068000D01*
X175986661Y-108068000D01*
X175941326Y-108063535D01*
X175903633Y-108052101D01*
X175868897Y-108033534D01*
X175838452Y-108008548D01*
X175813466Y-107978103D01*
X175794899Y-107943367D01*
X175783465Y-107905674D01*
X175779000Y-107860339D01*
X175779000Y-107023661D01*
X175783465Y-106978326D01*
X175794899Y-106940633D01*
X175813466Y-106905897D01*
X175838452Y-106875452D01*
X175868897Y-106850466D01*
X175903633Y-106831899D01*
X175941326Y-106820465D01*
X175986661Y-106816000D01*
X177073339Y-106816000D01*
X177118674Y-106820465D01*
G37*
G36*
X179611999Y-104609737D02*
G01*
X179621608Y-104612652D01*
X179630472Y-104617390D01*
X179647370Y-104631258D01*
X179647459Y-104631347D01*
X179647571Y-104631423D01*
X179647757Y-104631575D01*
X179647771Y-104631557D01*
X179667786Y-104645033D01*
X179690392Y-104654489D01*
X179714408Y-104659354D01*
X179727097Y-104660000D01*
X180652000Y-104660000D01*
X180652000Y-106160000D01*
X179727089Y-106160000D01*
X179702703Y-106162402D01*
X179679254Y-106169515D01*
X179657643Y-106181066D01*
X179647690Y-106188456D01*
X179638275Y-106196199D01*
X179630516Y-106202581D01*
X179621661Y-106207326D01*
X179618623Y-106208251D01*
X179612085Y-106210242D01*
X179612082Y-106210242D01*
X179612050Y-106210252D01*
X179602000Y-106211247D01*
X179601935Y-106211247D01*
X179595825Y-106211852D01*
X178608140Y-106211852D01*
X178592001Y-106210263D01*
X178582392Y-106207348D01*
X178573528Y-106202610D01*
X178565763Y-106196237D01*
X178559390Y-106188472D01*
X178554652Y-106179608D01*
X178551737Y-106169999D01*
X178550148Y-106153860D01*
X178550148Y-104666140D01*
X178551737Y-104650001D01*
X178554652Y-104640392D01*
X178559390Y-104631528D01*
X178565763Y-104623763D01*
X178573528Y-104617390D01*
X178582392Y-104612652D01*
X178592001Y-104609737D01*
X178608140Y-104608148D01*
X179595860Y-104608148D01*
X179611999Y-104609737D01*
G37*
G36*
X183611999Y-104609737D02*
G01*
X183621608Y-104612652D01*
X183630472Y-104617390D01*
X183638237Y-104623763D01*
X183644610Y-104631528D01*
X183649348Y-104640392D01*
X183652263Y-104650001D01*
X183653852Y-104666140D01*
X183653852Y-106153860D01*
X183652263Y-106169999D01*
X183649348Y-106179608D01*
X183644610Y-106188472D01*
X183638237Y-106196237D01*
X183630472Y-106202610D01*
X183621608Y-106207348D01*
X183611999Y-106210263D01*
X183595860Y-106211852D01*
X182608140Y-106211852D01*
X182592001Y-106210263D01*
X182582392Y-106207348D01*
X182573528Y-106202610D01*
X182556630Y-106188742D01*
X182556541Y-106188653D01*
X182556429Y-106188577D01*
X182556243Y-106188425D01*
X182556229Y-106188443D01*
X182536214Y-106174967D01*
X182513608Y-106165511D01*
X182489592Y-106160646D01*
X182476903Y-106160000D01*
X181552000Y-106160000D01*
X181552000Y-104660000D01*
X182476911Y-104660000D01*
X182501297Y-104657598D01*
X182524746Y-104650485D01*
X182546357Y-104638934D01*
X182556310Y-104631544D01*
X182566165Y-104623439D01*
X182573484Y-104617419D01*
X182582339Y-104612674D01*
X182585377Y-104611749D01*
X182591915Y-104609758D01*
X182591918Y-104609758D01*
X182591950Y-104609748D01*
X182602000Y-104608753D01*
X182602065Y-104608753D01*
X182608175Y-104608148D01*
X183595860Y-104608148D01*
X183611999Y-104609737D01*
G37*
G36*
X177118674Y-104770465D02*
G01*
X177156367Y-104781899D01*
X177191103Y-104800466D01*
X177221548Y-104825452D01*
X177246534Y-104855897D01*
X177265101Y-104890633D01*
X177276535Y-104928326D01*
X177281000Y-104973661D01*
X177281000Y-105810339D01*
X177276535Y-105855674D01*
X177265101Y-105893367D01*
X177246534Y-105928103D01*
X177221548Y-105958548D01*
X177191103Y-105983534D01*
X177156367Y-106002101D01*
X177118674Y-106013535D01*
X177073339Y-106018000D01*
X175986661Y-106018000D01*
X175941326Y-106013535D01*
X175903633Y-106002101D01*
X175868897Y-105983534D01*
X175838452Y-105958548D01*
X175813466Y-105928103D01*
X175794899Y-105893367D01*
X175783465Y-105855674D01*
X175779000Y-105810339D01*
X175779000Y-104973661D01*
X175783465Y-104928326D01*
X175794899Y-104890633D01*
X175813466Y-104855897D01*
X175838452Y-104825452D01*
X175868897Y-104800466D01*
X175903633Y-104781899D01*
X175941326Y-104770465D01*
X175986661Y-104766000D01*
X177073339Y-104766000D01*
X177118674Y-104770465D01*
G37*
M02*
