G04 #@! TF.FileFunction,Legend,Bot*
%FSLAX46Y46*%
G04 Gerber Fmt 4.6, Leading zero omitted, Abs format (unit mm)*
G04 Created by KiCad (PCBNEW 4.0.7) date 02/20/18 19:55:49*
%MOMM*%
%LPD*%
G01*
G04 APERTURE LIST*
%ADD10C,0.150000*%
%ADD11C,0.250000*%
%ADD12C,0.127000*%
%ADD13C,0.066040*%
%ADD14C,0.101600*%
%ADD15C,0.114300*%
%ADD16C,0.119380*%
G04 APERTURE END LIST*
D10*
D11*
X186650095Y-21550381D02*
X186078666Y-21550381D01*
X186364381Y-22550381D02*
X186364381Y-21550381D01*
X185840571Y-21550381D02*
X185173904Y-22550381D01*
X185173904Y-21550381D02*
X185840571Y-22550381D01*
X184792952Y-22550381D02*
X184792952Y-21550381D01*
X184554857Y-21550381D01*
X184411999Y-21598000D01*
X184316761Y-21693238D01*
X184269142Y-21788476D01*
X184221523Y-21978952D01*
X184221523Y-22121810D01*
X184269142Y-22312286D01*
X184316761Y-22407524D01*
X184411999Y-22502762D01*
X184554857Y-22550381D01*
X184792952Y-22550381D01*
X183602476Y-21550381D02*
X183507237Y-21550381D01*
X183411999Y-21598000D01*
X183364380Y-21645619D01*
X183316761Y-21740857D01*
X183269142Y-21931333D01*
X183269142Y-22169429D01*
X183316761Y-22359905D01*
X183364380Y-22455143D01*
X183411999Y-22502762D01*
X183507237Y-22550381D01*
X183602476Y-22550381D01*
X183697714Y-22502762D01*
X183745333Y-22455143D01*
X183792952Y-22359905D01*
X183840571Y-22169429D01*
X183840571Y-21931333D01*
X183792952Y-21740857D01*
X183745333Y-21645619D01*
X183697714Y-21598000D01*
X183602476Y-21550381D01*
X186031047Y-25090381D02*
X186507238Y-25090381D01*
X186507238Y-24090381D01*
X185697714Y-24566571D02*
X185364380Y-24566571D01*
X185221523Y-25090381D02*
X185697714Y-25090381D01*
X185697714Y-24090381D01*
X185221523Y-24090381D01*
X184792952Y-25090381D02*
X184792952Y-24090381D01*
X184554857Y-24090381D01*
X184411999Y-24138000D01*
X184316761Y-24233238D01*
X184269142Y-24328476D01*
X184221523Y-24518952D01*
X184221523Y-24661810D01*
X184269142Y-24852286D01*
X184316761Y-24947524D01*
X184411999Y-25042762D01*
X184554857Y-25090381D01*
X184792952Y-25090381D01*
X183602476Y-24090381D02*
X183507237Y-24090381D01*
X183411999Y-24138000D01*
X183364380Y-24185619D01*
X183316761Y-24280857D01*
X183269142Y-24471333D01*
X183269142Y-24709429D01*
X183316761Y-24899905D01*
X183364380Y-24995143D01*
X183411999Y-25042762D01*
X183507237Y-25090381D01*
X183602476Y-25090381D01*
X183697714Y-25042762D01*
X183745333Y-24995143D01*
X183792952Y-24899905D01*
X183840571Y-24709429D01*
X183840571Y-24471333D01*
X183792952Y-24280857D01*
X183745333Y-24185619D01*
X183697714Y-24138000D01*
X183602476Y-24090381D01*
X186054857Y-27630381D02*
X186388191Y-27154190D01*
X186626286Y-27630381D02*
X186626286Y-26630381D01*
X186245333Y-26630381D01*
X186150095Y-26678000D01*
X186102476Y-26725619D01*
X186054857Y-26820857D01*
X186054857Y-26963714D01*
X186102476Y-27058952D01*
X186150095Y-27106571D01*
X186245333Y-27154190D01*
X186626286Y-27154190D01*
X185721524Y-26630381D02*
X185054857Y-27630381D01*
X185054857Y-26630381D02*
X185721524Y-27630381D01*
X184673905Y-27630381D02*
X184673905Y-26630381D01*
X184435810Y-26630381D01*
X184292952Y-26678000D01*
X184197714Y-26773238D01*
X184150095Y-26868476D01*
X184102476Y-27058952D01*
X184102476Y-27201810D01*
X184150095Y-27392286D01*
X184197714Y-27487524D01*
X184292952Y-27582762D01*
X184435810Y-27630381D01*
X184673905Y-27630381D01*
X183483429Y-26630381D02*
X183388190Y-26630381D01*
X183292952Y-26678000D01*
X183245333Y-26725619D01*
X183197714Y-26820857D01*
X183150095Y-27011333D01*
X183150095Y-27249429D01*
X183197714Y-27439905D01*
X183245333Y-27535143D01*
X183292952Y-27582762D01*
X183388190Y-27630381D01*
X183483429Y-27630381D01*
X183578667Y-27582762D01*
X183626286Y-27535143D01*
X183673905Y-27439905D01*
X183721524Y-27249429D01*
X183721524Y-27011333D01*
X183673905Y-26820857D01*
X183626286Y-26725619D01*
X183578667Y-26678000D01*
X183483429Y-26630381D01*
X185165904Y-29218000D02*
X185261142Y-29170381D01*
X185403999Y-29170381D01*
X185546857Y-29218000D01*
X185642095Y-29313238D01*
X185689714Y-29408476D01*
X185737333Y-29598952D01*
X185737333Y-29741810D01*
X185689714Y-29932286D01*
X185642095Y-30027524D01*
X185546857Y-30122762D01*
X185403999Y-30170381D01*
X185308761Y-30170381D01*
X185165904Y-30122762D01*
X185118285Y-30075143D01*
X185118285Y-29741810D01*
X185308761Y-29741810D01*
X184689714Y-30170381D02*
X184689714Y-29170381D01*
X184118285Y-30170381D01*
X184118285Y-29170381D01*
X183642095Y-30170381D02*
X183642095Y-29170381D01*
X183404000Y-29170381D01*
X183261142Y-29218000D01*
X183165904Y-29313238D01*
X183118285Y-29408476D01*
X183070666Y-29598952D01*
X183070666Y-29741810D01*
X183118285Y-29932286D01*
X183165904Y-30027524D01*
X183261142Y-30122762D01*
X183404000Y-30170381D01*
X183642095Y-30170381D01*
X186650095Y-33234381D02*
X186078666Y-33234381D01*
X186364381Y-34234381D02*
X186364381Y-33234381D01*
X185840571Y-33234381D02*
X185173904Y-34234381D01*
X185173904Y-33234381D02*
X185840571Y-34234381D01*
X184792952Y-34234381D02*
X184792952Y-33234381D01*
X184554857Y-33234381D01*
X184411999Y-33282000D01*
X184316761Y-33377238D01*
X184269142Y-33472476D01*
X184221523Y-33662952D01*
X184221523Y-33805810D01*
X184269142Y-33996286D01*
X184316761Y-34091524D01*
X184411999Y-34186762D01*
X184554857Y-34234381D01*
X184792952Y-34234381D01*
X183269142Y-34234381D02*
X183840571Y-34234381D01*
X183554857Y-34234381D02*
X183554857Y-33234381D01*
X183650095Y-33377238D01*
X183745333Y-33472476D01*
X183840571Y-33520095D01*
X186031047Y-36774381D02*
X186507238Y-36774381D01*
X186507238Y-35774381D01*
X185697714Y-36250571D02*
X185364380Y-36250571D01*
X185221523Y-36774381D02*
X185697714Y-36774381D01*
X185697714Y-35774381D01*
X185221523Y-35774381D01*
X184792952Y-36774381D02*
X184792952Y-35774381D01*
X184554857Y-35774381D01*
X184411999Y-35822000D01*
X184316761Y-35917238D01*
X184269142Y-36012476D01*
X184221523Y-36202952D01*
X184221523Y-36345810D01*
X184269142Y-36536286D01*
X184316761Y-36631524D01*
X184411999Y-36726762D01*
X184554857Y-36774381D01*
X184792952Y-36774381D01*
X183269142Y-36774381D02*
X183840571Y-36774381D01*
X183554857Y-36774381D02*
X183554857Y-35774381D01*
X183650095Y-35917238D01*
X183745333Y-36012476D01*
X183840571Y-36060095D01*
X186054857Y-39314381D02*
X186388191Y-38838190D01*
X186626286Y-39314381D02*
X186626286Y-38314381D01*
X186245333Y-38314381D01*
X186150095Y-38362000D01*
X186102476Y-38409619D01*
X186054857Y-38504857D01*
X186054857Y-38647714D01*
X186102476Y-38742952D01*
X186150095Y-38790571D01*
X186245333Y-38838190D01*
X186626286Y-38838190D01*
X185721524Y-38314381D02*
X185054857Y-39314381D01*
X185054857Y-38314381D02*
X185721524Y-39314381D01*
X184673905Y-39314381D02*
X184673905Y-38314381D01*
X184435810Y-38314381D01*
X184292952Y-38362000D01*
X184197714Y-38457238D01*
X184150095Y-38552476D01*
X184102476Y-38742952D01*
X184102476Y-38885810D01*
X184150095Y-39076286D01*
X184197714Y-39171524D01*
X184292952Y-39266762D01*
X184435810Y-39314381D01*
X184673905Y-39314381D01*
X183150095Y-39314381D02*
X183721524Y-39314381D01*
X183435810Y-39314381D02*
X183435810Y-38314381D01*
X183531048Y-38457238D01*
X183626286Y-38552476D01*
X183721524Y-38600095D01*
X185165904Y-40902000D02*
X185261142Y-40854381D01*
X185403999Y-40854381D01*
X185546857Y-40902000D01*
X185642095Y-40997238D01*
X185689714Y-41092476D01*
X185737333Y-41282952D01*
X185737333Y-41425810D01*
X185689714Y-41616286D01*
X185642095Y-41711524D01*
X185546857Y-41806762D01*
X185403999Y-41854381D01*
X185308761Y-41854381D01*
X185165904Y-41806762D01*
X185118285Y-41759143D01*
X185118285Y-41425810D01*
X185308761Y-41425810D01*
X184689714Y-41854381D02*
X184689714Y-40854381D01*
X184118285Y-41854381D01*
X184118285Y-40854381D01*
X183642095Y-41854381D02*
X183642095Y-40854381D01*
X183404000Y-40854381D01*
X183261142Y-40902000D01*
X183165904Y-40997238D01*
X183118285Y-41092476D01*
X183070666Y-41282952D01*
X183070666Y-41425810D01*
X183118285Y-41616286D01*
X183165904Y-41711524D01*
X183261142Y-41806762D01*
X183404000Y-41854381D01*
X183642095Y-41854381D01*
X186650095Y-44918381D02*
X186078666Y-44918381D01*
X186364381Y-45918381D02*
X186364381Y-44918381D01*
X185840571Y-44918381D02*
X185173904Y-45918381D01*
X185173904Y-44918381D02*
X185840571Y-45918381D01*
X184792952Y-45918381D02*
X184792952Y-44918381D01*
X184554857Y-44918381D01*
X184411999Y-44966000D01*
X184316761Y-45061238D01*
X184269142Y-45156476D01*
X184221523Y-45346952D01*
X184221523Y-45489810D01*
X184269142Y-45680286D01*
X184316761Y-45775524D01*
X184411999Y-45870762D01*
X184554857Y-45918381D01*
X184792952Y-45918381D01*
X183840571Y-45013619D02*
X183792952Y-44966000D01*
X183697714Y-44918381D01*
X183459618Y-44918381D01*
X183364380Y-44966000D01*
X183316761Y-45013619D01*
X183269142Y-45108857D01*
X183269142Y-45204095D01*
X183316761Y-45346952D01*
X183888190Y-45918381D01*
X183269142Y-45918381D01*
X186031047Y-48458381D02*
X186507238Y-48458381D01*
X186507238Y-47458381D01*
X185697714Y-47934571D02*
X185364380Y-47934571D01*
X185221523Y-48458381D02*
X185697714Y-48458381D01*
X185697714Y-47458381D01*
X185221523Y-47458381D01*
X184792952Y-48458381D02*
X184792952Y-47458381D01*
X184554857Y-47458381D01*
X184411999Y-47506000D01*
X184316761Y-47601238D01*
X184269142Y-47696476D01*
X184221523Y-47886952D01*
X184221523Y-48029810D01*
X184269142Y-48220286D01*
X184316761Y-48315524D01*
X184411999Y-48410762D01*
X184554857Y-48458381D01*
X184792952Y-48458381D01*
X183840571Y-47553619D02*
X183792952Y-47506000D01*
X183697714Y-47458381D01*
X183459618Y-47458381D01*
X183364380Y-47506000D01*
X183316761Y-47553619D01*
X183269142Y-47648857D01*
X183269142Y-47744095D01*
X183316761Y-47886952D01*
X183888190Y-48458381D01*
X183269142Y-48458381D01*
X186054857Y-50998381D02*
X186388191Y-50522190D01*
X186626286Y-50998381D02*
X186626286Y-49998381D01*
X186245333Y-49998381D01*
X186150095Y-50046000D01*
X186102476Y-50093619D01*
X186054857Y-50188857D01*
X186054857Y-50331714D01*
X186102476Y-50426952D01*
X186150095Y-50474571D01*
X186245333Y-50522190D01*
X186626286Y-50522190D01*
X185721524Y-49998381D02*
X185054857Y-50998381D01*
X185054857Y-49998381D02*
X185721524Y-50998381D01*
X184673905Y-50998381D02*
X184673905Y-49998381D01*
X184435810Y-49998381D01*
X184292952Y-50046000D01*
X184197714Y-50141238D01*
X184150095Y-50236476D01*
X184102476Y-50426952D01*
X184102476Y-50569810D01*
X184150095Y-50760286D01*
X184197714Y-50855524D01*
X184292952Y-50950762D01*
X184435810Y-50998381D01*
X184673905Y-50998381D01*
X183721524Y-50093619D02*
X183673905Y-50046000D01*
X183578667Y-49998381D01*
X183340571Y-49998381D01*
X183245333Y-50046000D01*
X183197714Y-50093619D01*
X183150095Y-50188857D01*
X183150095Y-50284095D01*
X183197714Y-50426952D01*
X183769143Y-50998381D01*
X183150095Y-50998381D01*
X185165904Y-52586000D02*
X185261142Y-52538381D01*
X185403999Y-52538381D01*
X185546857Y-52586000D01*
X185642095Y-52681238D01*
X185689714Y-52776476D01*
X185737333Y-52966952D01*
X185737333Y-53109810D01*
X185689714Y-53300286D01*
X185642095Y-53395524D01*
X185546857Y-53490762D01*
X185403999Y-53538381D01*
X185308761Y-53538381D01*
X185165904Y-53490762D01*
X185118285Y-53443143D01*
X185118285Y-53109810D01*
X185308761Y-53109810D01*
X184689714Y-53538381D02*
X184689714Y-52538381D01*
X184118285Y-53538381D01*
X184118285Y-52538381D01*
X183642095Y-53538381D02*
X183642095Y-52538381D01*
X183404000Y-52538381D01*
X183261142Y-52586000D01*
X183165904Y-52681238D01*
X183118285Y-52776476D01*
X183070666Y-52966952D01*
X183070666Y-53109810D01*
X183118285Y-53300286D01*
X183165904Y-53395524D01*
X183261142Y-53490762D01*
X183404000Y-53538381D01*
X183642095Y-53538381D01*
X186650095Y-56602381D02*
X186078666Y-56602381D01*
X186364381Y-57602381D02*
X186364381Y-56602381D01*
X185840571Y-56602381D02*
X185173904Y-57602381D01*
X185173904Y-56602381D02*
X185840571Y-57602381D01*
X184792952Y-57602381D02*
X184792952Y-56602381D01*
X184554857Y-56602381D01*
X184411999Y-56650000D01*
X184316761Y-56745238D01*
X184269142Y-56840476D01*
X184221523Y-57030952D01*
X184221523Y-57173810D01*
X184269142Y-57364286D01*
X184316761Y-57459524D01*
X184411999Y-57554762D01*
X184554857Y-57602381D01*
X184792952Y-57602381D01*
X183888190Y-56602381D02*
X183269142Y-56602381D01*
X183602476Y-56983333D01*
X183459618Y-56983333D01*
X183364380Y-57030952D01*
X183316761Y-57078571D01*
X183269142Y-57173810D01*
X183269142Y-57411905D01*
X183316761Y-57507143D01*
X183364380Y-57554762D01*
X183459618Y-57602381D01*
X183745333Y-57602381D01*
X183840571Y-57554762D01*
X183888190Y-57507143D01*
X186031047Y-60142381D02*
X186507238Y-60142381D01*
X186507238Y-59142381D01*
X185697714Y-59618571D02*
X185364380Y-59618571D01*
X185221523Y-60142381D02*
X185697714Y-60142381D01*
X185697714Y-59142381D01*
X185221523Y-59142381D01*
X184792952Y-60142381D02*
X184792952Y-59142381D01*
X184554857Y-59142381D01*
X184411999Y-59190000D01*
X184316761Y-59285238D01*
X184269142Y-59380476D01*
X184221523Y-59570952D01*
X184221523Y-59713810D01*
X184269142Y-59904286D01*
X184316761Y-59999524D01*
X184411999Y-60094762D01*
X184554857Y-60142381D01*
X184792952Y-60142381D01*
X183888190Y-59142381D02*
X183269142Y-59142381D01*
X183602476Y-59523333D01*
X183459618Y-59523333D01*
X183364380Y-59570952D01*
X183316761Y-59618571D01*
X183269142Y-59713810D01*
X183269142Y-59951905D01*
X183316761Y-60047143D01*
X183364380Y-60094762D01*
X183459618Y-60142381D01*
X183745333Y-60142381D01*
X183840571Y-60094762D01*
X183888190Y-60047143D01*
X186054857Y-62682381D02*
X186388191Y-62206190D01*
X186626286Y-62682381D02*
X186626286Y-61682381D01*
X186245333Y-61682381D01*
X186150095Y-61730000D01*
X186102476Y-61777619D01*
X186054857Y-61872857D01*
X186054857Y-62015714D01*
X186102476Y-62110952D01*
X186150095Y-62158571D01*
X186245333Y-62206190D01*
X186626286Y-62206190D01*
X185721524Y-61682381D02*
X185054857Y-62682381D01*
X185054857Y-61682381D02*
X185721524Y-62682381D01*
X184673905Y-62682381D02*
X184673905Y-61682381D01*
X184435810Y-61682381D01*
X184292952Y-61730000D01*
X184197714Y-61825238D01*
X184150095Y-61920476D01*
X184102476Y-62110952D01*
X184102476Y-62253810D01*
X184150095Y-62444286D01*
X184197714Y-62539524D01*
X184292952Y-62634762D01*
X184435810Y-62682381D01*
X184673905Y-62682381D01*
X183769143Y-61682381D02*
X183150095Y-61682381D01*
X183483429Y-62063333D01*
X183340571Y-62063333D01*
X183245333Y-62110952D01*
X183197714Y-62158571D01*
X183150095Y-62253810D01*
X183150095Y-62491905D01*
X183197714Y-62587143D01*
X183245333Y-62634762D01*
X183340571Y-62682381D01*
X183626286Y-62682381D01*
X183721524Y-62634762D01*
X183769143Y-62587143D01*
X185165904Y-64270000D02*
X185261142Y-64222381D01*
X185403999Y-64222381D01*
X185546857Y-64270000D01*
X185642095Y-64365238D01*
X185689714Y-64460476D01*
X185737333Y-64650952D01*
X185737333Y-64793810D01*
X185689714Y-64984286D01*
X185642095Y-65079524D01*
X185546857Y-65174762D01*
X185403999Y-65222381D01*
X185308761Y-65222381D01*
X185165904Y-65174762D01*
X185118285Y-65127143D01*
X185118285Y-64793810D01*
X185308761Y-64793810D01*
X184689714Y-65222381D02*
X184689714Y-64222381D01*
X184118285Y-65222381D01*
X184118285Y-64222381D01*
X183642095Y-65222381D02*
X183642095Y-64222381D01*
X183404000Y-64222381D01*
X183261142Y-64270000D01*
X183165904Y-64365238D01*
X183118285Y-64460476D01*
X183070666Y-64650952D01*
X183070666Y-64793810D01*
X183118285Y-64984286D01*
X183165904Y-65079524D01*
X183261142Y-65174762D01*
X183404000Y-65222381D01*
X183642095Y-65222381D01*
X176871381Y-21169571D02*
X177680905Y-21169571D01*
X177776143Y-21217190D01*
X177823762Y-21264809D01*
X177871381Y-21360047D01*
X177871381Y-21550524D01*
X177823762Y-21645762D01*
X177776143Y-21693381D01*
X177680905Y-21741000D01*
X176871381Y-21741000D01*
X177585667Y-22169571D02*
X177585667Y-22645762D01*
X177871381Y-22074333D02*
X176871381Y-22407666D01*
X177871381Y-22741000D01*
X177871381Y-23645762D02*
X177395190Y-23312428D01*
X177871381Y-23074333D02*
X176871381Y-23074333D01*
X176871381Y-23455286D01*
X176919000Y-23550524D01*
X176966619Y-23598143D01*
X177061857Y-23645762D01*
X177204714Y-23645762D01*
X177299952Y-23598143D01*
X177347571Y-23550524D01*
X177395190Y-23455286D01*
X177395190Y-23074333D01*
X176871381Y-23931476D02*
X176871381Y-24502905D01*
X177871381Y-24217190D02*
X176871381Y-24217190D01*
X176871381Y-25026714D02*
X176871381Y-25121953D01*
X176919000Y-25217191D01*
X176966619Y-25264810D01*
X177061857Y-25312429D01*
X177252333Y-25360048D01*
X177490429Y-25360048D01*
X177680905Y-25312429D01*
X177776143Y-25264810D01*
X177823762Y-25217191D01*
X177871381Y-25121953D01*
X177871381Y-25026714D01*
X177823762Y-24931476D01*
X177776143Y-24883857D01*
X177680905Y-24836238D01*
X177490429Y-24788619D01*
X177252333Y-24788619D01*
X177061857Y-24836238D01*
X176966619Y-24883857D01*
X176919000Y-24931476D01*
X176871381Y-25026714D01*
X176871381Y-33488571D02*
X177680905Y-33488571D01*
X177776143Y-33536190D01*
X177823762Y-33583809D01*
X177871381Y-33679047D01*
X177871381Y-33869524D01*
X177823762Y-33964762D01*
X177776143Y-34012381D01*
X177680905Y-34060000D01*
X176871381Y-34060000D01*
X177585667Y-34488571D02*
X177585667Y-34964762D01*
X177871381Y-34393333D02*
X176871381Y-34726666D01*
X177871381Y-35060000D01*
X177871381Y-35964762D02*
X177395190Y-35631428D01*
X177871381Y-35393333D02*
X176871381Y-35393333D01*
X176871381Y-35774286D01*
X176919000Y-35869524D01*
X176966619Y-35917143D01*
X177061857Y-35964762D01*
X177204714Y-35964762D01*
X177299952Y-35917143D01*
X177347571Y-35869524D01*
X177395190Y-35774286D01*
X177395190Y-35393333D01*
X176871381Y-36250476D02*
X176871381Y-36821905D01*
X177871381Y-36536190D02*
X176871381Y-36536190D01*
X177871381Y-37679048D02*
X177871381Y-37107619D01*
X177871381Y-37393333D02*
X176871381Y-37393333D01*
X177014238Y-37298095D01*
X177109476Y-37202857D01*
X177157095Y-37107619D01*
X176744381Y-45680571D02*
X177553905Y-45680571D01*
X177649143Y-45728190D01*
X177696762Y-45775809D01*
X177744381Y-45871047D01*
X177744381Y-46061524D01*
X177696762Y-46156762D01*
X177649143Y-46204381D01*
X177553905Y-46252000D01*
X176744381Y-46252000D01*
X177458667Y-46680571D02*
X177458667Y-47156762D01*
X177744381Y-46585333D02*
X176744381Y-46918666D01*
X177744381Y-47252000D01*
X177744381Y-48156762D02*
X177268190Y-47823428D01*
X177744381Y-47585333D02*
X176744381Y-47585333D01*
X176744381Y-47966286D01*
X176792000Y-48061524D01*
X176839619Y-48109143D01*
X176934857Y-48156762D01*
X177077714Y-48156762D01*
X177172952Y-48109143D01*
X177220571Y-48061524D01*
X177268190Y-47966286D01*
X177268190Y-47585333D01*
X176744381Y-48442476D02*
X176744381Y-49013905D01*
X177744381Y-48728190D02*
X176744381Y-48728190D01*
X176839619Y-49299619D02*
X176792000Y-49347238D01*
X176744381Y-49442476D01*
X176744381Y-49680572D01*
X176792000Y-49775810D01*
X176839619Y-49823429D01*
X176934857Y-49871048D01*
X177030095Y-49871048D01*
X177172952Y-49823429D01*
X177744381Y-49252000D01*
X177744381Y-49871048D01*
X176871381Y-56856571D02*
X177680905Y-56856571D01*
X177776143Y-56904190D01*
X177823762Y-56951809D01*
X177871381Y-57047047D01*
X177871381Y-57237524D01*
X177823762Y-57332762D01*
X177776143Y-57380381D01*
X177680905Y-57428000D01*
X176871381Y-57428000D01*
X177585667Y-57856571D02*
X177585667Y-58332762D01*
X177871381Y-57761333D02*
X176871381Y-58094666D01*
X177871381Y-58428000D01*
X177871381Y-59332762D02*
X177395190Y-58999428D01*
X177871381Y-58761333D02*
X176871381Y-58761333D01*
X176871381Y-59142286D01*
X176919000Y-59237524D01*
X176966619Y-59285143D01*
X177061857Y-59332762D01*
X177204714Y-59332762D01*
X177299952Y-59285143D01*
X177347571Y-59237524D01*
X177395190Y-59142286D01*
X177395190Y-58761333D01*
X176871381Y-59618476D02*
X176871381Y-60189905D01*
X177871381Y-59904190D02*
X176871381Y-59904190D01*
X176871381Y-60428000D02*
X176871381Y-61047048D01*
X177252333Y-60713714D01*
X177252333Y-60856572D01*
X177299952Y-60951810D01*
X177347571Y-60999429D01*
X177442810Y-61047048D01*
X177680905Y-61047048D01*
X177776143Y-60999429D01*
X177823762Y-60951810D01*
X177871381Y-60856572D01*
X177871381Y-60570857D01*
X177823762Y-60475619D01*
X177776143Y-60428000D01*
X128337571Y-41033143D02*
X129551857Y-41033143D01*
X129694714Y-41104571D01*
X129766143Y-41176000D01*
X129837571Y-41318857D01*
X129837571Y-41604571D01*
X129766143Y-41747429D01*
X129694714Y-41818857D01*
X129551857Y-41890286D01*
X128337571Y-41890286D01*
X129766143Y-42533143D02*
X129837571Y-42747429D01*
X129837571Y-43104572D01*
X129766143Y-43247429D01*
X129694714Y-43318858D01*
X129551857Y-43390286D01*
X129409000Y-43390286D01*
X129266143Y-43318858D01*
X129194714Y-43247429D01*
X129123286Y-43104572D01*
X129051857Y-42818858D01*
X128980429Y-42676000D01*
X128909000Y-42604572D01*
X128766143Y-42533143D01*
X128623286Y-42533143D01*
X128480429Y-42604572D01*
X128409000Y-42676000D01*
X128337571Y-42818858D01*
X128337571Y-43176000D01*
X128409000Y-43390286D01*
X129051857Y-44533143D02*
X129123286Y-44747429D01*
X129194714Y-44818857D01*
X129337571Y-44890286D01*
X129551857Y-44890286D01*
X129694714Y-44818857D01*
X129766143Y-44747429D01*
X129837571Y-44604571D01*
X129837571Y-44033143D01*
X128337571Y-44033143D01*
X128337571Y-44533143D01*
X128409000Y-44676000D01*
X128480429Y-44747429D01*
X128623286Y-44818857D01*
X128766143Y-44818857D01*
X128909000Y-44747429D01*
X128980429Y-44676000D01*
X129051857Y-44533143D01*
X129051857Y-44033143D01*
X128337571Y-88531143D02*
X129551857Y-88531143D01*
X129694714Y-88602571D01*
X129766143Y-88674000D01*
X129837571Y-88816857D01*
X129837571Y-89102571D01*
X129766143Y-89245429D01*
X129694714Y-89316857D01*
X129551857Y-89388286D01*
X128337571Y-89388286D01*
X129766143Y-90031143D02*
X129837571Y-90245429D01*
X129837571Y-90602572D01*
X129766143Y-90745429D01*
X129694714Y-90816858D01*
X129551857Y-90888286D01*
X129409000Y-90888286D01*
X129266143Y-90816858D01*
X129194714Y-90745429D01*
X129123286Y-90602572D01*
X129051857Y-90316858D01*
X128980429Y-90174000D01*
X128909000Y-90102572D01*
X128766143Y-90031143D01*
X128623286Y-90031143D01*
X128480429Y-90102572D01*
X128409000Y-90174000D01*
X128337571Y-90316858D01*
X128337571Y-90674000D01*
X128409000Y-90888286D01*
X129051857Y-92031143D02*
X129123286Y-92245429D01*
X129194714Y-92316857D01*
X129337571Y-92388286D01*
X129551857Y-92388286D01*
X129694714Y-92316857D01*
X129766143Y-92245429D01*
X129837571Y-92102571D01*
X129837571Y-91531143D01*
X128337571Y-91531143D01*
X128337571Y-92031143D01*
X128409000Y-92174000D01*
X128480429Y-92245429D01*
X128623286Y-92316857D01*
X128766143Y-92316857D01*
X128909000Y-92245429D01*
X128980429Y-92174000D01*
X129051857Y-92031143D01*
X129051857Y-91531143D01*
X176871381Y-104354571D02*
X177680905Y-104354571D01*
X177776143Y-104402190D01*
X177823762Y-104449809D01*
X177871381Y-104545047D01*
X177871381Y-104735524D01*
X177823762Y-104830762D01*
X177776143Y-104878381D01*
X177680905Y-104926000D01*
X176871381Y-104926000D01*
X177585667Y-105354571D02*
X177585667Y-105830762D01*
X177871381Y-105259333D02*
X176871381Y-105592666D01*
X177871381Y-105926000D01*
X177871381Y-106830762D02*
X177395190Y-106497428D01*
X177871381Y-106259333D02*
X176871381Y-106259333D01*
X176871381Y-106640286D01*
X176919000Y-106735524D01*
X176966619Y-106783143D01*
X177061857Y-106830762D01*
X177204714Y-106830762D01*
X177299952Y-106783143D01*
X177347571Y-106735524D01*
X177395190Y-106640286D01*
X177395190Y-106259333D01*
X176871381Y-107116476D02*
X176871381Y-107687905D01*
X177871381Y-107402190D02*
X176871381Y-107402190D01*
X176871381Y-107926000D02*
X176871381Y-108545048D01*
X177252333Y-108211714D01*
X177252333Y-108354572D01*
X177299952Y-108449810D01*
X177347571Y-108497429D01*
X177442810Y-108545048D01*
X177680905Y-108545048D01*
X177776143Y-108497429D01*
X177823762Y-108449810D01*
X177871381Y-108354572D01*
X177871381Y-108068857D01*
X177823762Y-107973619D01*
X177776143Y-107926000D01*
X176744381Y-93178571D02*
X177553905Y-93178571D01*
X177649143Y-93226190D01*
X177696762Y-93273809D01*
X177744381Y-93369047D01*
X177744381Y-93559524D01*
X177696762Y-93654762D01*
X177649143Y-93702381D01*
X177553905Y-93750000D01*
X176744381Y-93750000D01*
X177458667Y-94178571D02*
X177458667Y-94654762D01*
X177744381Y-94083333D02*
X176744381Y-94416666D01*
X177744381Y-94750000D01*
X177744381Y-95654762D02*
X177268190Y-95321428D01*
X177744381Y-95083333D02*
X176744381Y-95083333D01*
X176744381Y-95464286D01*
X176792000Y-95559524D01*
X176839619Y-95607143D01*
X176934857Y-95654762D01*
X177077714Y-95654762D01*
X177172952Y-95607143D01*
X177220571Y-95559524D01*
X177268190Y-95464286D01*
X177268190Y-95083333D01*
X176744381Y-95940476D02*
X176744381Y-96511905D01*
X177744381Y-96226190D02*
X176744381Y-96226190D01*
X176839619Y-96797619D02*
X176792000Y-96845238D01*
X176744381Y-96940476D01*
X176744381Y-97178572D01*
X176792000Y-97273810D01*
X176839619Y-97321429D01*
X176934857Y-97369048D01*
X177030095Y-97369048D01*
X177172952Y-97321429D01*
X177744381Y-96750000D01*
X177744381Y-97369048D01*
X176871381Y-80986571D02*
X177680905Y-80986571D01*
X177776143Y-81034190D01*
X177823762Y-81081809D01*
X177871381Y-81177047D01*
X177871381Y-81367524D01*
X177823762Y-81462762D01*
X177776143Y-81510381D01*
X177680905Y-81558000D01*
X176871381Y-81558000D01*
X177585667Y-81986571D02*
X177585667Y-82462762D01*
X177871381Y-81891333D02*
X176871381Y-82224666D01*
X177871381Y-82558000D01*
X177871381Y-83462762D02*
X177395190Y-83129428D01*
X177871381Y-82891333D02*
X176871381Y-82891333D01*
X176871381Y-83272286D01*
X176919000Y-83367524D01*
X176966619Y-83415143D01*
X177061857Y-83462762D01*
X177204714Y-83462762D01*
X177299952Y-83415143D01*
X177347571Y-83367524D01*
X177395190Y-83272286D01*
X177395190Y-82891333D01*
X176871381Y-83748476D02*
X176871381Y-84319905D01*
X177871381Y-84034190D02*
X176871381Y-84034190D01*
X177871381Y-85177048D02*
X177871381Y-84605619D01*
X177871381Y-84891333D02*
X176871381Y-84891333D01*
X177014238Y-84796095D01*
X177109476Y-84700857D01*
X177157095Y-84605619D01*
X176871381Y-68667571D02*
X177680905Y-68667571D01*
X177776143Y-68715190D01*
X177823762Y-68762809D01*
X177871381Y-68858047D01*
X177871381Y-69048524D01*
X177823762Y-69143762D01*
X177776143Y-69191381D01*
X177680905Y-69239000D01*
X176871381Y-69239000D01*
X177585667Y-69667571D02*
X177585667Y-70143762D01*
X177871381Y-69572333D02*
X176871381Y-69905666D01*
X177871381Y-70239000D01*
X177871381Y-71143762D02*
X177395190Y-70810428D01*
X177871381Y-70572333D02*
X176871381Y-70572333D01*
X176871381Y-70953286D01*
X176919000Y-71048524D01*
X176966619Y-71096143D01*
X177061857Y-71143762D01*
X177204714Y-71143762D01*
X177299952Y-71096143D01*
X177347571Y-71048524D01*
X177395190Y-70953286D01*
X177395190Y-70572333D01*
X176871381Y-71429476D02*
X176871381Y-72000905D01*
X177871381Y-71715190D02*
X176871381Y-71715190D01*
X176871381Y-72524714D02*
X176871381Y-72619953D01*
X176919000Y-72715191D01*
X176966619Y-72762810D01*
X177061857Y-72810429D01*
X177252333Y-72858048D01*
X177490429Y-72858048D01*
X177680905Y-72810429D01*
X177776143Y-72762810D01*
X177823762Y-72715191D01*
X177871381Y-72619953D01*
X177871381Y-72524714D01*
X177823762Y-72429476D01*
X177776143Y-72381857D01*
X177680905Y-72334238D01*
X177490429Y-72286619D01*
X177252333Y-72286619D01*
X177061857Y-72334238D01*
X176966619Y-72381857D01*
X176919000Y-72429476D01*
X176871381Y-72524714D01*
X185165904Y-111768000D02*
X185261142Y-111720381D01*
X185403999Y-111720381D01*
X185546857Y-111768000D01*
X185642095Y-111863238D01*
X185689714Y-111958476D01*
X185737333Y-112148952D01*
X185737333Y-112291810D01*
X185689714Y-112482286D01*
X185642095Y-112577524D01*
X185546857Y-112672762D01*
X185403999Y-112720381D01*
X185308761Y-112720381D01*
X185165904Y-112672762D01*
X185118285Y-112625143D01*
X185118285Y-112291810D01*
X185308761Y-112291810D01*
X184689714Y-112720381D02*
X184689714Y-111720381D01*
X184118285Y-112720381D01*
X184118285Y-111720381D01*
X183642095Y-112720381D02*
X183642095Y-111720381D01*
X183404000Y-111720381D01*
X183261142Y-111768000D01*
X183165904Y-111863238D01*
X183118285Y-111958476D01*
X183070666Y-112148952D01*
X183070666Y-112291810D01*
X183118285Y-112482286D01*
X183165904Y-112577524D01*
X183261142Y-112672762D01*
X183404000Y-112720381D01*
X183642095Y-112720381D01*
X186054857Y-110180381D02*
X186388191Y-109704190D01*
X186626286Y-110180381D02*
X186626286Y-109180381D01*
X186245333Y-109180381D01*
X186150095Y-109228000D01*
X186102476Y-109275619D01*
X186054857Y-109370857D01*
X186054857Y-109513714D01*
X186102476Y-109608952D01*
X186150095Y-109656571D01*
X186245333Y-109704190D01*
X186626286Y-109704190D01*
X185721524Y-109180381D02*
X185054857Y-110180381D01*
X185054857Y-109180381D02*
X185721524Y-110180381D01*
X184673905Y-110180381D02*
X184673905Y-109180381D01*
X184435810Y-109180381D01*
X184292952Y-109228000D01*
X184197714Y-109323238D01*
X184150095Y-109418476D01*
X184102476Y-109608952D01*
X184102476Y-109751810D01*
X184150095Y-109942286D01*
X184197714Y-110037524D01*
X184292952Y-110132762D01*
X184435810Y-110180381D01*
X184673905Y-110180381D01*
X183769143Y-109180381D02*
X183150095Y-109180381D01*
X183483429Y-109561333D01*
X183340571Y-109561333D01*
X183245333Y-109608952D01*
X183197714Y-109656571D01*
X183150095Y-109751810D01*
X183150095Y-109989905D01*
X183197714Y-110085143D01*
X183245333Y-110132762D01*
X183340571Y-110180381D01*
X183626286Y-110180381D01*
X183721524Y-110132762D01*
X183769143Y-110085143D01*
X186031047Y-107640381D02*
X186507238Y-107640381D01*
X186507238Y-106640381D01*
X185697714Y-107116571D02*
X185364380Y-107116571D01*
X185221523Y-107640381D02*
X185697714Y-107640381D01*
X185697714Y-106640381D01*
X185221523Y-106640381D01*
X184792952Y-107640381D02*
X184792952Y-106640381D01*
X184554857Y-106640381D01*
X184411999Y-106688000D01*
X184316761Y-106783238D01*
X184269142Y-106878476D01*
X184221523Y-107068952D01*
X184221523Y-107211810D01*
X184269142Y-107402286D01*
X184316761Y-107497524D01*
X184411999Y-107592762D01*
X184554857Y-107640381D01*
X184792952Y-107640381D01*
X183888190Y-106640381D02*
X183269142Y-106640381D01*
X183602476Y-107021333D01*
X183459618Y-107021333D01*
X183364380Y-107068952D01*
X183316761Y-107116571D01*
X183269142Y-107211810D01*
X183269142Y-107449905D01*
X183316761Y-107545143D01*
X183364380Y-107592762D01*
X183459618Y-107640381D01*
X183745333Y-107640381D01*
X183840571Y-107592762D01*
X183888190Y-107545143D01*
X186650095Y-104100381D02*
X186078666Y-104100381D01*
X186364381Y-105100381D02*
X186364381Y-104100381D01*
X185840571Y-104100381D02*
X185173904Y-105100381D01*
X185173904Y-104100381D02*
X185840571Y-105100381D01*
X184792952Y-105100381D02*
X184792952Y-104100381D01*
X184554857Y-104100381D01*
X184411999Y-104148000D01*
X184316761Y-104243238D01*
X184269142Y-104338476D01*
X184221523Y-104528952D01*
X184221523Y-104671810D01*
X184269142Y-104862286D01*
X184316761Y-104957524D01*
X184411999Y-105052762D01*
X184554857Y-105100381D01*
X184792952Y-105100381D01*
X183888190Y-104100381D02*
X183269142Y-104100381D01*
X183602476Y-104481333D01*
X183459618Y-104481333D01*
X183364380Y-104528952D01*
X183316761Y-104576571D01*
X183269142Y-104671810D01*
X183269142Y-104909905D01*
X183316761Y-105005143D01*
X183364380Y-105052762D01*
X183459618Y-105100381D01*
X183745333Y-105100381D01*
X183840571Y-105052762D01*
X183888190Y-105005143D01*
X185165904Y-100084000D02*
X185261142Y-100036381D01*
X185403999Y-100036381D01*
X185546857Y-100084000D01*
X185642095Y-100179238D01*
X185689714Y-100274476D01*
X185737333Y-100464952D01*
X185737333Y-100607810D01*
X185689714Y-100798286D01*
X185642095Y-100893524D01*
X185546857Y-100988762D01*
X185403999Y-101036381D01*
X185308761Y-101036381D01*
X185165904Y-100988762D01*
X185118285Y-100941143D01*
X185118285Y-100607810D01*
X185308761Y-100607810D01*
X184689714Y-101036381D02*
X184689714Y-100036381D01*
X184118285Y-101036381D01*
X184118285Y-100036381D01*
X183642095Y-101036381D02*
X183642095Y-100036381D01*
X183404000Y-100036381D01*
X183261142Y-100084000D01*
X183165904Y-100179238D01*
X183118285Y-100274476D01*
X183070666Y-100464952D01*
X183070666Y-100607810D01*
X183118285Y-100798286D01*
X183165904Y-100893524D01*
X183261142Y-100988762D01*
X183404000Y-101036381D01*
X183642095Y-101036381D01*
X186054857Y-98496381D02*
X186388191Y-98020190D01*
X186626286Y-98496381D02*
X186626286Y-97496381D01*
X186245333Y-97496381D01*
X186150095Y-97544000D01*
X186102476Y-97591619D01*
X186054857Y-97686857D01*
X186054857Y-97829714D01*
X186102476Y-97924952D01*
X186150095Y-97972571D01*
X186245333Y-98020190D01*
X186626286Y-98020190D01*
X185721524Y-97496381D02*
X185054857Y-98496381D01*
X185054857Y-97496381D02*
X185721524Y-98496381D01*
X184673905Y-98496381D02*
X184673905Y-97496381D01*
X184435810Y-97496381D01*
X184292952Y-97544000D01*
X184197714Y-97639238D01*
X184150095Y-97734476D01*
X184102476Y-97924952D01*
X184102476Y-98067810D01*
X184150095Y-98258286D01*
X184197714Y-98353524D01*
X184292952Y-98448762D01*
X184435810Y-98496381D01*
X184673905Y-98496381D01*
X183721524Y-97591619D02*
X183673905Y-97544000D01*
X183578667Y-97496381D01*
X183340571Y-97496381D01*
X183245333Y-97544000D01*
X183197714Y-97591619D01*
X183150095Y-97686857D01*
X183150095Y-97782095D01*
X183197714Y-97924952D01*
X183769143Y-98496381D01*
X183150095Y-98496381D01*
X186031047Y-95956381D02*
X186507238Y-95956381D01*
X186507238Y-94956381D01*
X185697714Y-95432571D02*
X185364380Y-95432571D01*
X185221523Y-95956381D02*
X185697714Y-95956381D01*
X185697714Y-94956381D01*
X185221523Y-94956381D01*
X184792952Y-95956381D02*
X184792952Y-94956381D01*
X184554857Y-94956381D01*
X184411999Y-95004000D01*
X184316761Y-95099238D01*
X184269142Y-95194476D01*
X184221523Y-95384952D01*
X184221523Y-95527810D01*
X184269142Y-95718286D01*
X184316761Y-95813524D01*
X184411999Y-95908762D01*
X184554857Y-95956381D01*
X184792952Y-95956381D01*
X183840571Y-95051619D02*
X183792952Y-95004000D01*
X183697714Y-94956381D01*
X183459618Y-94956381D01*
X183364380Y-95004000D01*
X183316761Y-95051619D01*
X183269142Y-95146857D01*
X183269142Y-95242095D01*
X183316761Y-95384952D01*
X183888190Y-95956381D01*
X183269142Y-95956381D01*
X186650095Y-92416381D02*
X186078666Y-92416381D01*
X186364381Y-93416381D02*
X186364381Y-92416381D01*
X185840571Y-92416381D02*
X185173904Y-93416381D01*
X185173904Y-92416381D02*
X185840571Y-93416381D01*
X184792952Y-93416381D02*
X184792952Y-92416381D01*
X184554857Y-92416381D01*
X184411999Y-92464000D01*
X184316761Y-92559238D01*
X184269142Y-92654476D01*
X184221523Y-92844952D01*
X184221523Y-92987810D01*
X184269142Y-93178286D01*
X184316761Y-93273524D01*
X184411999Y-93368762D01*
X184554857Y-93416381D01*
X184792952Y-93416381D01*
X183840571Y-92511619D02*
X183792952Y-92464000D01*
X183697714Y-92416381D01*
X183459618Y-92416381D01*
X183364380Y-92464000D01*
X183316761Y-92511619D01*
X183269142Y-92606857D01*
X183269142Y-92702095D01*
X183316761Y-92844952D01*
X183888190Y-93416381D01*
X183269142Y-93416381D01*
X185165904Y-88400000D02*
X185261142Y-88352381D01*
X185403999Y-88352381D01*
X185546857Y-88400000D01*
X185642095Y-88495238D01*
X185689714Y-88590476D01*
X185737333Y-88780952D01*
X185737333Y-88923810D01*
X185689714Y-89114286D01*
X185642095Y-89209524D01*
X185546857Y-89304762D01*
X185403999Y-89352381D01*
X185308761Y-89352381D01*
X185165904Y-89304762D01*
X185118285Y-89257143D01*
X185118285Y-88923810D01*
X185308761Y-88923810D01*
X184689714Y-89352381D02*
X184689714Y-88352381D01*
X184118285Y-89352381D01*
X184118285Y-88352381D01*
X183642095Y-89352381D02*
X183642095Y-88352381D01*
X183404000Y-88352381D01*
X183261142Y-88400000D01*
X183165904Y-88495238D01*
X183118285Y-88590476D01*
X183070666Y-88780952D01*
X183070666Y-88923810D01*
X183118285Y-89114286D01*
X183165904Y-89209524D01*
X183261142Y-89304762D01*
X183404000Y-89352381D01*
X183642095Y-89352381D01*
X186054857Y-86812381D02*
X186388191Y-86336190D01*
X186626286Y-86812381D02*
X186626286Y-85812381D01*
X186245333Y-85812381D01*
X186150095Y-85860000D01*
X186102476Y-85907619D01*
X186054857Y-86002857D01*
X186054857Y-86145714D01*
X186102476Y-86240952D01*
X186150095Y-86288571D01*
X186245333Y-86336190D01*
X186626286Y-86336190D01*
X185721524Y-85812381D02*
X185054857Y-86812381D01*
X185054857Y-85812381D02*
X185721524Y-86812381D01*
X184673905Y-86812381D02*
X184673905Y-85812381D01*
X184435810Y-85812381D01*
X184292952Y-85860000D01*
X184197714Y-85955238D01*
X184150095Y-86050476D01*
X184102476Y-86240952D01*
X184102476Y-86383810D01*
X184150095Y-86574286D01*
X184197714Y-86669524D01*
X184292952Y-86764762D01*
X184435810Y-86812381D01*
X184673905Y-86812381D01*
X183150095Y-86812381D02*
X183721524Y-86812381D01*
X183435810Y-86812381D02*
X183435810Y-85812381D01*
X183531048Y-85955238D01*
X183626286Y-86050476D01*
X183721524Y-86098095D01*
X186031047Y-84272381D02*
X186507238Y-84272381D01*
X186507238Y-83272381D01*
X185697714Y-83748571D02*
X185364380Y-83748571D01*
X185221523Y-84272381D02*
X185697714Y-84272381D01*
X185697714Y-83272381D01*
X185221523Y-83272381D01*
X184792952Y-84272381D02*
X184792952Y-83272381D01*
X184554857Y-83272381D01*
X184411999Y-83320000D01*
X184316761Y-83415238D01*
X184269142Y-83510476D01*
X184221523Y-83700952D01*
X184221523Y-83843810D01*
X184269142Y-84034286D01*
X184316761Y-84129524D01*
X184411999Y-84224762D01*
X184554857Y-84272381D01*
X184792952Y-84272381D01*
X183269142Y-84272381D02*
X183840571Y-84272381D01*
X183554857Y-84272381D02*
X183554857Y-83272381D01*
X183650095Y-83415238D01*
X183745333Y-83510476D01*
X183840571Y-83558095D01*
X186650095Y-80732381D02*
X186078666Y-80732381D01*
X186364381Y-81732381D02*
X186364381Y-80732381D01*
X185840571Y-80732381D02*
X185173904Y-81732381D01*
X185173904Y-80732381D02*
X185840571Y-81732381D01*
X184792952Y-81732381D02*
X184792952Y-80732381D01*
X184554857Y-80732381D01*
X184411999Y-80780000D01*
X184316761Y-80875238D01*
X184269142Y-80970476D01*
X184221523Y-81160952D01*
X184221523Y-81303810D01*
X184269142Y-81494286D01*
X184316761Y-81589524D01*
X184411999Y-81684762D01*
X184554857Y-81732381D01*
X184792952Y-81732381D01*
X183269142Y-81732381D02*
X183840571Y-81732381D01*
X183554857Y-81732381D02*
X183554857Y-80732381D01*
X183650095Y-80875238D01*
X183745333Y-80970476D01*
X183840571Y-81018095D01*
X185165904Y-76716000D02*
X185261142Y-76668381D01*
X185403999Y-76668381D01*
X185546857Y-76716000D01*
X185642095Y-76811238D01*
X185689714Y-76906476D01*
X185737333Y-77096952D01*
X185737333Y-77239810D01*
X185689714Y-77430286D01*
X185642095Y-77525524D01*
X185546857Y-77620762D01*
X185403999Y-77668381D01*
X185308761Y-77668381D01*
X185165904Y-77620762D01*
X185118285Y-77573143D01*
X185118285Y-77239810D01*
X185308761Y-77239810D01*
X184689714Y-77668381D02*
X184689714Y-76668381D01*
X184118285Y-77668381D01*
X184118285Y-76668381D01*
X183642095Y-77668381D02*
X183642095Y-76668381D01*
X183404000Y-76668381D01*
X183261142Y-76716000D01*
X183165904Y-76811238D01*
X183118285Y-76906476D01*
X183070666Y-77096952D01*
X183070666Y-77239810D01*
X183118285Y-77430286D01*
X183165904Y-77525524D01*
X183261142Y-77620762D01*
X183404000Y-77668381D01*
X183642095Y-77668381D01*
X186054857Y-75128381D02*
X186388191Y-74652190D01*
X186626286Y-75128381D02*
X186626286Y-74128381D01*
X186245333Y-74128381D01*
X186150095Y-74176000D01*
X186102476Y-74223619D01*
X186054857Y-74318857D01*
X186054857Y-74461714D01*
X186102476Y-74556952D01*
X186150095Y-74604571D01*
X186245333Y-74652190D01*
X186626286Y-74652190D01*
X185721524Y-74128381D02*
X185054857Y-75128381D01*
X185054857Y-74128381D02*
X185721524Y-75128381D01*
X184673905Y-75128381D02*
X184673905Y-74128381D01*
X184435810Y-74128381D01*
X184292952Y-74176000D01*
X184197714Y-74271238D01*
X184150095Y-74366476D01*
X184102476Y-74556952D01*
X184102476Y-74699810D01*
X184150095Y-74890286D01*
X184197714Y-74985524D01*
X184292952Y-75080762D01*
X184435810Y-75128381D01*
X184673905Y-75128381D01*
X183483429Y-74128381D02*
X183388190Y-74128381D01*
X183292952Y-74176000D01*
X183245333Y-74223619D01*
X183197714Y-74318857D01*
X183150095Y-74509333D01*
X183150095Y-74747429D01*
X183197714Y-74937905D01*
X183245333Y-75033143D01*
X183292952Y-75080762D01*
X183388190Y-75128381D01*
X183483429Y-75128381D01*
X183578667Y-75080762D01*
X183626286Y-75033143D01*
X183673905Y-74937905D01*
X183721524Y-74747429D01*
X183721524Y-74509333D01*
X183673905Y-74318857D01*
X183626286Y-74223619D01*
X183578667Y-74176000D01*
X183483429Y-74128381D01*
X186031047Y-72588381D02*
X186507238Y-72588381D01*
X186507238Y-71588381D01*
X185697714Y-72064571D02*
X185364380Y-72064571D01*
X185221523Y-72588381D02*
X185697714Y-72588381D01*
X185697714Y-71588381D01*
X185221523Y-71588381D01*
X184792952Y-72588381D02*
X184792952Y-71588381D01*
X184554857Y-71588381D01*
X184411999Y-71636000D01*
X184316761Y-71731238D01*
X184269142Y-71826476D01*
X184221523Y-72016952D01*
X184221523Y-72159810D01*
X184269142Y-72350286D01*
X184316761Y-72445524D01*
X184411999Y-72540762D01*
X184554857Y-72588381D01*
X184792952Y-72588381D01*
X183602476Y-71588381D02*
X183507237Y-71588381D01*
X183411999Y-71636000D01*
X183364380Y-71683619D01*
X183316761Y-71778857D01*
X183269142Y-71969333D01*
X183269142Y-72207429D01*
X183316761Y-72397905D01*
X183364380Y-72493143D01*
X183411999Y-72540762D01*
X183507237Y-72588381D01*
X183602476Y-72588381D01*
X183697714Y-72540762D01*
X183745333Y-72493143D01*
X183792952Y-72397905D01*
X183840571Y-72207429D01*
X183840571Y-71969333D01*
X183792952Y-71778857D01*
X183745333Y-71683619D01*
X183697714Y-71636000D01*
X183602476Y-71588381D01*
X186650095Y-69048381D02*
X186078666Y-69048381D01*
X186364381Y-70048381D02*
X186364381Y-69048381D01*
X185840571Y-69048381D02*
X185173904Y-70048381D01*
X185173904Y-69048381D02*
X185840571Y-70048381D01*
X184792952Y-70048381D02*
X184792952Y-69048381D01*
X184554857Y-69048381D01*
X184411999Y-69096000D01*
X184316761Y-69191238D01*
X184269142Y-69286476D01*
X184221523Y-69476952D01*
X184221523Y-69619810D01*
X184269142Y-69810286D01*
X184316761Y-69905524D01*
X184411999Y-70000762D01*
X184554857Y-70048381D01*
X184792952Y-70048381D01*
X183602476Y-69048381D02*
X183507237Y-69048381D01*
X183411999Y-69096000D01*
X183364380Y-69143619D01*
X183316761Y-69238857D01*
X183269142Y-69429333D01*
X183269142Y-69667429D01*
X183316761Y-69857905D01*
X183364380Y-69953143D01*
X183411999Y-70000762D01*
X183507237Y-70048381D01*
X183602476Y-70048381D01*
X183697714Y-70000762D01*
X183745333Y-69953143D01*
X183792952Y-69857905D01*
X183840571Y-69667429D01*
X183840571Y-69429333D01*
X183792952Y-69238857D01*
X183745333Y-69143619D01*
X183697714Y-69096000D01*
X183602476Y-69048381D01*
D12*
X152273000Y-62992000D02*
X149987000Y-62992000D01*
X149987000Y-62992000D02*
X149987000Y-64262000D01*
X149987000Y-64262000D02*
X152273000Y-64262000D01*
X152273000Y-64262000D02*
X152273000Y-62992000D01*
X173736000Y-41275000D02*
X171450000Y-41275000D01*
X171450000Y-41275000D02*
X171450000Y-42545000D01*
X171450000Y-42545000D02*
X173736000Y-42545000D01*
X173736000Y-42545000D02*
X173736000Y-41275000D01*
X146431000Y-21844000D02*
X144145000Y-21844000D01*
X144145000Y-21844000D02*
X144145000Y-23114000D01*
X144145000Y-23114000D02*
X146431000Y-23114000D01*
X146431000Y-23114000D02*
X146431000Y-21844000D01*
X138684000Y-35306000D02*
X140970000Y-35306000D01*
X140970000Y-35306000D02*
X140970000Y-34036000D01*
X140970000Y-34036000D02*
X138684000Y-34036000D01*
X138684000Y-34036000D02*
X138684000Y-35306000D01*
X177927000Y-42926000D02*
X177927000Y-45212000D01*
X177927000Y-45212000D02*
X176276000Y-45212000D01*
X174498000Y-42926000D02*
X172847000Y-42926000D01*
X172847000Y-42926000D02*
X172847000Y-45212000D01*
X172847000Y-45212000D02*
X174498000Y-45212000D01*
X176276000Y-42926000D02*
X177927000Y-42926000D01*
X145923000Y-51054000D02*
X151003000Y-51054000D01*
X145923000Y-46736000D02*
X151003000Y-46736000D01*
X145923000Y-46101000D02*
X145923000Y-51689000D01*
X145923000Y-51689000D02*
X151003000Y-51689000D01*
X151003000Y-51689000D02*
X151003000Y-46101000D01*
X151003000Y-46101000D02*
X145923000Y-46101000D01*
D13*
X178366420Y-59504580D02*
X179265580Y-59504580D01*
X179265580Y-59504580D02*
X179265580Y-59903360D01*
X178366420Y-59903360D02*
X179265580Y-59903360D01*
X178366420Y-59504580D02*
X178366420Y-59903360D01*
X178366420Y-58206640D02*
X179265580Y-58206640D01*
X179265580Y-58206640D02*
X179265580Y-58605420D01*
X178366420Y-58605420D02*
X179265580Y-58605420D01*
X178366420Y-58206640D02*
X178366420Y-58605420D01*
X178366420Y-59055000D02*
X178516280Y-59055000D01*
X178516280Y-59055000D02*
X178516280Y-59354720D01*
X178366420Y-59354720D02*
X178516280Y-59354720D01*
X178366420Y-59055000D02*
X178366420Y-59354720D01*
X179115720Y-59055000D02*
X179265580Y-59055000D01*
X179265580Y-59055000D02*
X179265580Y-59354720D01*
X179115720Y-59354720D02*
X179265580Y-59354720D01*
X179115720Y-59055000D02*
X179115720Y-59354720D01*
X178666140Y-59055000D02*
X178965860Y-59055000D01*
X178965860Y-59055000D02*
X178965860Y-59354720D01*
X178666140Y-59354720D02*
X178965860Y-59354720D01*
X178666140Y-59055000D02*
X178666140Y-59354720D01*
D14*
X178417220Y-59504580D02*
X178417220Y-58605420D01*
X179214780Y-59504580D02*
X179214780Y-58605420D01*
D13*
X178366420Y-47820580D02*
X179265580Y-47820580D01*
X179265580Y-47820580D02*
X179265580Y-48219360D01*
X178366420Y-48219360D02*
X179265580Y-48219360D01*
X178366420Y-47820580D02*
X178366420Y-48219360D01*
X178366420Y-46522640D02*
X179265580Y-46522640D01*
X179265580Y-46522640D02*
X179265580Y-46921420D01*
X178366420Y-46921420D02*
X179265580Y-46921420D01*
X178366420Y-46522640D02*
X178366420Y-46921420D01*
X178366420Y-47371000D02*
X178516280Y-47371000D01*
X178516280Y-47371000D02*
X178516280Y-47670720D01*
X178366420Y-47670720D02*
X178516280Y-47670720D01*
X178366420Y-47371000D02*
X178366420Y-47670720D01*
X179115720Y-47371000D02*
X179265580Y-47371000D01*
X179265580Y-47371000D02*
X179265580Y-47670720D01*
X179115720Y-47670720D02*
X179265580Y-47670720D01*
X179115720Y-47371000D02*
X179115720Y-47670720D01*
X178666140Y-47371000D02*
X178965860Y-47371000D01*
X178965860Y-47371000D02*
X178965860Y-47670720D01*
X178666140Y-47670720D02*
X178965860Y-47670720D01*
X178666140Y-47371000D02*
X178666140Y-47670720D01*
D14*
X178417220Y-47820580D02*
X178417220Y-46921420D01*
X179214780Y-47820580D02*
X179214780Y-46921420D01*
D13*
X178366420Y-36009580D02*
X179265580Y-36009580D01*
X179265580Y-36009580D02*
X179265580Y-36408360D01*
X178366420Y-36408360D02*
X179265580Y-36408360D01*
X178366420Y-36009580D02*
X178366420Y-36408360D01*
X178366420Y-34711640D02*
X179265580Y-34711640D01*
X179265580Y-34711640D02*
X179265580Y-35110420D01*
X178366420Y-35110420D02*
X179265580Y-35110420D01*
X178366420Y-34711640D02*
X178366420Y-35110420D01*
X178366420Y-35560000D02*
X178516280Y-35560000D01*
X178516280Y-35560000D02*
X178516280Y-35859720D01*
X178366420Y-35859720D02*
X178516280Y-35859720D01*
X178366420Y-35560000D02*
X178366420Y-35859720D01*
X179115720Y-35560000D02*
X179265580Y-35560000D01*
X179265580Y-35560000D02*
X179265580Y-35859720D01*
X179115720Y-35859720D02*
X179265580Y-35859720D01*
X179115720Y-35560000D02*
X179115720Y-35859720D01*
X178666140Y-35560000D02*
X178965860Y-35560000D01*
X178965860Y-35560000D02*
X178965860Y-35859720D01*
X178666140Y-35859720D02*
X178965860Y-35859720D01*
X178666140Y-35560000D02*
X178666140Y-35859720D01*
D14*
X178417220Y-36009580D02*
X178417220Y-35110420D01*
X179214780Y-36009580D02*
X179214780Y-35110420D01*
D13*
X178366420Y-23563580D02*
X179265580Y-23563580D01*
X179265580Y-23563580D02*
X179265580Y-23962360D01*
X178366420Y-23962360D02*
X179265580Y-23962360D01*
X178366420Y-23563580D02*
X178366420Y-23962360D01*
X178366420Y-22265640D02*
X179265580Y-22265640D01*
X179265580Y-22265640D02*
X179265580Y-22664420D01*
X178366420Y-22664420D02*
X179265580Y-22664420D01*
X178366420Y-22265640D02*
X178366420Y-22664420D01*
X178366420Y-23114000D02*
X178516280Y-23114000D01*
X178516280Y-23114000D02*
X178516280Y-23413720D01*
X178366420Y-23413720D02*
X178516280Y-23413720D01*
X178366420Y-23114000D02*
X178366420Y-23413720D01*
X179115720Y-23114000D02*
X179265580Y-23114000D01*
X179265580Y-23114000D02*
X179265580Y-23413720D01*
X179115720Y-23413720D02*
X179265580Y-23413720D01*
X179115720Y-23114000D02*
X179115720Y-23413720D01*
X178666140Y-23114000D02*
X178965860Y-23114000D01*
X178965860Y-23114000D02*
X178965860Y-23413720D01*
X178666140Y-23413720D02*
X178965860Y-23413720D01*
X178666140Y-23114000D02*
X178666140Y-23413720D01*
D14*
X178417220Y-23563580D02*
X178417220Y-22664420D01*
X179214780Y-23563580D02*
X179214780Y-22664420D01*
D13*
X149039580Y-26103580D02*
X149039580Y-25204420D01*
X149039580Y-25204420D02*
X149438360Y-25204420D01*
X149438360Y-26103580D02*
X149438360Y-25204420D01*
X149039580Y-26103580D02*
X149438360Y-26103580D01*
X147741640Y-26103580D02*
X147741640Y-25204420D01*
X147741640Y-25204420D02*
X148140420Y-25204420D01*
X148140420Y-26103580D02*
X148140420Y-25204420D01*
X147741640Y-26103580D02*
X148140420Y-26103580D01*
X148590000Y-26103580D02*
X148590000Y-25953720D01*
X148590000Y-25953720D02*
X148889720Y-25953720D01*
X148889720Y-26103580D02*
X148889720Y-25953720D01*
X148590000Y-26103580D02*
X148889720Y-26103580D01*
X148590000Y-25354280D02*
X148590000Y-25204420D01*
X148590000Y-25204420D02*
X148889720Y-25204420D01*
X148889720Y-25354280D02*
X148889720Y-25204420D01*
X148590000Y-25354280D02*
X148889720Y-25354280D01*
X148590000Y-25803860D02*
X148590000Y-25504140D01*
X148590000Y-25504140D02*
X148889720Y-25504140D01*
X148889720Y-25803860D02*
X148889720Y-25504140D01*
X148590000Y-25803860D02*
X148889720Y-25803860D01*
D14*
X149039580Y-26052780D02*
X148140420Y-26052780D01*
X149039580Y-25255220D02*
X148140420Y-25255220D01*
D12*
X178181000Y-63754000D02*
X178181000Y-66040000D01*
X178181000Y-66040000D02*
X179451000Y-66040000D01*
X179451000Y-66040000D02*
X179451000Y-63754000D01*
X179451000Y-63754000D02*
X178181000Y-63754000D01*
X177927000Y-51562000D02*
X177927000Y-53848000D01*
X177927000Y-53848000D02*
X179197000Y-53848000D01*
X179197000Y-53848000D02*
X179197000Y-51562000D01*
X179197000Y-51562000D02*
X177927000Y-51562000D01*
X178181000Y-39624000D02*
X178181000Y-41910000D01*
X178181000Y-41910000D02*
X179451000Y-41910000D01*
X179451000Y-41910000D02*
X179451000Y-39624000D01*
X179451000Y-39624000D02*
X178181000Y-39624000D01*
X178181000Y-27559000D02*
X178181000Y-29845000D01*
X178181000Y-29845000D02*
X179451000Y-29845000D01*
X179451000Y-29845000D02*
X179451000Y-27559000D01*
X179451000Y-27559000D02*
X178181000Y-27559000D01*
X150876000Y-26289000D02*
X153162000Y-26289000D01*
X153162000Y-26289000D02*
X153162000Y-25019000D01*
X153162000Y-25019000D02*
X150876000Y-25019000D01*
X150876000Y-25019000D02*
X150876000Y-26289000D01*
X156057600Y-49606200D02*
X153568400Y-49606200D01*
X153568400Y-46405800D02*
X156057600Y-46405800D01*
X156057600Y-46863000D02*
X153568400Y-46863000D01*
X153568400Y-49149000D02*
X156057600Y-49149000D01*
X153568400Y-49606200D02*
X153568400Y-46405800D01*
X156057600Y-46405800D02*
X156057600Y-49606200D01*
X153695400Y-40563800D02*
X156184600Y-40563800D01*
X156184600Y-43764200D02*
X153695400Y-43764200D01*
X153695400Y-43307000D02*
X156184600Y-43307000D01*
X156184600Y-41021000D02*
X153695400Y-41021000D01*
X156184600Y-40563800D02*
X156184600Y-43764200D01*
X153695400Y-43764200D02*
X153695400Y-40563800D01*
X150876000Y-38989000D02*
X145796000Y-38989000D01*
X150876000Y-43307000D02*
X145796000Y-43307000D01*
X150876000Y-43942000D02*
X150876000Y-38354000D01*
X150876000Y-38354000D02*
X145796000Y-38354000D01*
X145796000Y-38354000D02*
X145796000Y-43942000D01*
X145796000Y-43942000D02*
X150876000Y-43942000D01*
X150876000Y-86487000D02*
X145796000Y-86487000D01*
X150876000Y-90805000D02*
X145796000Y-90805000D01*
X150876000Y-91440000D02*
X150876000Y-85852000D01*
X150876000Y-85852000D02*
X145796000Y-85852000D01*
X145796000Y-85852000D02*
X145796000Y-91440000D01*
X145796000Y-91440000D02*
X150876000Y-91440000D01*
X153695400Y-88061800D02*
X156184600Y-88061800D01*
X156184600Y-91262200D02*
X153695400Y-91262200D01*
X153695400Y-90805000D02*
X156184600Y-90805000D01*
X156184600Y-88519000D02*
X153695400Y-88519000D01*
X156184600Y-88061800D02*
X156184600Y-91262200D01*
X153695400Y-91262200D02*
X153695400Y-88061800D01*
X156057600Y-97104200D02*
X153568400Y-97104200D01*
X153568400Y-93903800D02*
X156057600Y-93903800D01*
X156057600Y-94361000D02*
X153568400Y-94361000D01*
X153568400Y-96647000D02*
X156057600Y-96647000D01*
X153568400Y-97104200D02*
X153568400Y-93903800D01*
X156057600Y-93903800D02*
X156057600Y-97104200D01*
X150876000Y-73787000D02*
X153162000Y-73787000D01*
X153162000Y-73787000D02*
X153162000Y-72517000D01*
X153162000Y-72517000D02*
X150876000Y-72517000D01*
X150876000Y-72517000D02*
X150876000Y-73787000D01*
X178181000Y-75057000D02*
X178181000Y-77343000D01*
X178181000Y-77343000D02*
X179451000Y-77343000D01*
X179451000Y-77343000D02*
X179451000Y-75057000D01*
X179451000Y-75057000D02*
X178181000Y-75057000D01*
X178181000Y-87122000D02*
X178181000Y-89408000D01*
X178181000Y-89408000D02*
X179451000Y-89408000D01*
X179451000Y-89408000D02*
X179451000Y-87122000D01*
X179451000Y-87122000D02*
X178181000Y-87122000D01*
X177927000Y-99060000D02*
X177927000Y-101346000D01*
X177927000Y-101346000D02*
X179197000Y-101346000D01*
X179197000Y-101346000D02*
X179197000Y-99060000D01*
X179197000Y-99060000D02*
X177927000Y-99060000D01*
X178181000Y-111252000D02*
X178181000Y-113538000D01*
X178181000Y-113538000D02*
X179451000Y-113538000D01*
X179451000Y-113538000D02*
X179451000Y-111252000D01*
X179451000Y-111252000D02*
X178181000Y-111252000D01*
D13*
X149039580Y-73601580D02*
X149039580Y-72702420D01*
X149039580Y-72702420D02*
X149438360Y-72702420D01*
X149438360Y-73601580D02*
X149438360Y-72702420D01*
X149039580Y-73601580D02*
X149438360Y-73601580D01*
X147741640Y-73601580D02*
X147741640Y-72702420D01*
X147741640Y-72702420D02*
X148140420Y-72702420D01*
X148140420Y-73601580D02*
X148140420Y-72702420D01*
X147741640Y-73601580D02*
X148140420Y-73601580D01*
X148590000Y-73601580D02*
X148590000Y-73451720D01*
X148590000Y-73451720D02*
X148889720Y-73451720D01*
X148889720Y-73601580D02*
X148889720Y-73451720D01*
X148590000Y-73601580D02*
X148889720Y-73601580D01*
X148590000Y-72852280D02*
X148590000Y-72702420D01*
X148590000Y-72702420D02*
X148889720Y-72702420D01*
X148889720Y-72852280D02*
X148889720Y-72702420D01*
X148590000Y-72852280D02*
X148889720Y-72852280D01*
X148590000Y-73301860D02*
X148590000Y-73002140D01*
X148590000Y-73002140D02*
X148889720Y-73002140D01*
X148889720Y-73301860D02*
X148889720Y-73002140D01*
X148590000Y-73301860D02*
X148889720Y-73301860D01*
D14*
X149039580Y-73550780D02*
X148140420Y-73550780D01*
X149039580Y-72753220D02*
X148140420Y-72753220D01*
D13*
X178366420Y-71061580D02*
X179265580Y-71061580D01*
X179265580Y-71061580D02*
X179265580Y-71460360D01*
X178366420Y-71460360D02*
X179265580Y-71460360D01*
X178366420Y-71061580D02*
X178366420Y-71460360D01*
X178366420Y-69763640D02*
X179265580Y-69763640D01*
X179265580Y-69763640D02*
X179265580Y-70162420D01*
X178366420Y-70162420D02*
X179265580Y-70162420D01*
X178366420Y-69763640D02*
X178366420Y-70162420D01*
X178366420Y-70612000D02*
X178516280Y-70612000D01*
X178516280Y-70612000D02*
X178516280Y-70911720D01*
X178366420Y-70911720D02*
X178516280Y-70911720D01*
X178366420Y-70612000D02*
X178366420Y-70911720D01*
X179115720Y-70612000D02*
X179265580Y-70612000D01*
X179265580Y-70612000D02*
X179265580Y-70911720D01*
X179115720Y-70911720D02*
X179265580Y-70911720D01*
X179115720Y-70612000D02*
X179115720Y-70911720D01*
X178666140Y-70612000D02*
X178965860Y-70612000D01*
X178965860Y-70612000D02*
X178965860Y-70911720D01*
X178666140Y-70911720D02*
X178965860Y-70911720D01*
X178666140Y-70612000D02*
X178666140Y-70911720D01*
D14*
X178417220Y-71061580D02*
X178417220Y-70162420D01*
X179214780Y-71061580D02*
X179214780Y-70162420D01*
D13*
X178366420Y-83507580D02*
X179265580Y-83507580D01*
X179265580Y-83507580D02*
X179265580Y-83906360D01*
X178366420Y-83906360D02*
X179265580Y-83906360D01*
X178366420Y-83507580D02*
X178366420Y-83906360D01*
X178366420Y-82209640D02*
X179265580Y-82209640D01*
X179265580Y-82209640D02*
X179265580Y-82608420D01*
X178366420Y-82608420D02*
X179265580Y-82608420D01*
X178366420Y-82209640D02*
X178366420Y-82608420D01*
X178366420Y-83058000D02*
X178516280Y-83058000D01*
X178516280Y-83058000D02*
X178516280Y-83357720D01*
X178366420Y-83357720D02*
X178516280Y-83357720D01*
X178366420Y-83058000D02*
X178366420Y-83357720D01*
X179115720Y-83058000D02*
X179265580Y-83058000D01*
X179265580Y-83058000D02*
X179265580Y-83357720D01*
X179115720Y-83357720D02*
X179265580Y-83357720D01*
X179115720Y-83058000D02*
X179115720Y-83357720D01*
X178666140Y-83058000D02*
X178965860Y-83058000D01*
X178965860Y-83058000D02*
X178965860Y-83357720D01*
X178666140Y-83357720D02*
X178965860Y-83357720D01*
X178666140Y-83058000D02*
X178666140Y-83357720D01*
D14*
X178417220Y-83507580D02*
X178417220Y-82608420D01*
X179214780Y-83507580D02*
X179214780Y-82608420D01*
D13*
X178366420Y-95318580D02*
X179265580Y-95318580D01*
X179265580Y-95318580D02*
X179265580Y-95717360D01*
X178366420Y-95717360D02*
X179265580Y-95717360D01*
X178366420Y-95318580D02*
X178366420Y-95717360D01*
X178366420Y-94020640D02*
X179265580Y-94020640D01*
X179265580Y-94020640D02*
X179265580Y-94419420D01*
X178366420Y-94419420D02*
X179265580Y-94419420D01*
X178366420Y-94020640D02*
X178366420Y-94419420D01*
X178366420Y-94869000D02*
X178516280Y-94869000D01*
X178516280Y-94869000D02*
X178516280Y-95168720D01*
X178366420Y-95168720D02*
X178516280Y-95168720D01*
X178366420Y-94869000D02*
X178366420Y-95168720D01*
X179115720Y-94869000D02*
X179265580Y-94869000D01*
X179265580Y-94869000D02*
X179265580Y-95168720D01*
X179115720Y-95168720D02*
X179265580Y-95168720D01*
X179115720Y-94869000D02*
X179115720Y-95168720D01*
X178666140Y-94869000D02*
X178965860Y-94869000D01*
X178965860Y-94869000D02*
X178965860Y-95168720D01*
X178666140Y-95168720D02*
X178965860Y-95168720D01*
X178666140Y-94869000D02*
X178666140Y-95168720D01*
D14*
X178417220Y-95318580D02*
X178417220Y-94419420D01*
X179214780Y-95318580D02*
X179214780Y-94419420D01*
D13*
X178366420Y-107002580D02*
X179265580Y-107002580D01*
X179265580Y-107002580D02*
X179265580Y-107401360D01*
X178366420Y-107401360D02*
X179265580Y-107401360D01*
X178366420Y-107002580D02*
X178366420Y-107401360D01*
X178366420Y-105704640D02*
X179265580Y-105704640D01*
X179265580Y-105704640D02*
X179265580Y-106103420D01*
X178366420Y-106103420D02*
X179265580Y-106103420D01*
X178366420Y-105704640D02*
X178366420Y-106103420D01*
X178366420Y-106553000D02*
X178516280Y-106553000D01*
X178516280Y-106553000D02*
X178516280Y-106852720D01*
X178366420Y-106852720D02*
X178516280Y-106852720D01*
X178366420Y-106553000D02*
X178366420Y-106852720D01*
X179115720Y-106553000D02*
X179265580Y-106553000D01*
X179265580Y-106553000D02*
X179265580Y-106852720D01*
X179115720Y-106852720D02*
X179265580Y-106852720D01*
X179115720Y-106553000D02*
X179115720Y-106852720D01*
X178666140Y-106553000D02*
X178965860Y-106553000D01*
X178965860Y-106553000D02*
X178965860Y-106852720D01*
X178666140Y-106852720D02*
X178965860Y-106852720D01*
X178666140Y-106553000D02*
X178666140Y-106852720D01*
D14*
X178417220Y-107002580D02*
X178417220Y-106103420D01*
X179214780Y-107002580D02*
X179214780Y-106103420D01*
D12*
X145923000Y-98552000D02*
X151003000Y-98552000D01*
X145923000Y-94234000D02*
X151003000Y-94234000D01*
X145923000Y-93599000D02*
X145923000Y-99187000D01*
X145923000Y-99187000D02*
X151003000Y-99187000D01*
X151003000Y-99187000D02*
X151003000Y-93599000D01*
X151003000Y-93599000D02*
X145923000Y-93599000D01*
X177927000Y-90424000D02*
X177927000Y-92710000D01*
X177927000Y-92710000D02*
X176276000Y-92710000D01*
X174498000Y-90424000D02*
X172847000Y-90424000D01*
X172847000Y-90424000D02*
X172847000Y-92710000D01*
X172847000Y-92710000D02*
X174498000Y-92710000D01*
X176276000Y-90424000D02*
X177927000Y-90424000D01*
X138684000Y-82804000D02*
X140970000Y-82804000D01*
X140970000Y-82804000D02*
X140970000Y-81534000D01*
X140970000Y-81534000D02*
X138684000Y-81534000D01*
X138684000Y-81534000D02*
X138684000Y-82804000D01*
X146431000Y-69342000D02*
X144145000Y-69342000D01*
X144145000Y-69342000D02*
X144145000Y-70612000D01*
X144145000Y-70612000D02*
X146431000Y-70612000D01*
X146431000Y-70612000D02*
X146431000Y-69342000D01*
X173736000Y-88773000D02*
X171450000Y-88773000D01*
X171450000Y-88773000D02*
X171450000Y-90043000D01*
X171450000Y-90043000D02*
X173736000Y-90043000D01*
X173736000Y-90043000D02*
X173736000Y-88773000D01*
X152273000Y-110490000D02*
X149987000Y-110490000D01*
X149987000Y-110490000D02*
X149987000Y-111760000D01*
X149987000Y-111760000D02*
X152273000Y-111760000D01*
X152273000Y-111760000D02*
X152273000Y-110490000D01*
D15*
X151423915Y-62411429D02*
X151445686Y-62435619D01*
X151511000Y-62459810D01*
X151554543Y-62459810D01*
X151619858Y-62435619D01*
X151663400Y-62387238D01*
X151685172Y-62338857D01*
X151706943Y-62242095D01*
X151706943Y-62169524D01*
X151685172Y-62072762D01*
X151663400Y-62024381D01*
X151619858Y-61976000D01*
X151554543Y-61951810D01*
X151511000Y-61951810D01*
X151445686Y-61976000D01*
X151423915Y-62000190D01*
X150988486Y-62459810D02*
X151249743Y-62459810D01*
X151119115Y-62459810D02*
X151119115Y-61951810D01*
X151162658Y-62024381D01*
X151206200Y-62072762D01*
X151249743Y-62096952D01*
X150596600Y-61951810D02*
X150683686Y-61951810D01*
X150727229Y-61976000D01*
X150749000Y-62000190D01*
X150792543Y-62072762D01*
X150814314Y-62169524D01*
X150814314Y-62363048D01*
X150792543Y-62411429D01*
X150770771Y-62435619D01*
X150727229Y-62459810D01*
X150640143Y-62459810D01*
X150596600Y-62435619D01*
X150574829Y-62411429D01*
X150553057Y-62363048D01*
X150553057Y-62242095D01*
X150574829Y-62193714D01*
X150596600Y-62169524D01*
X150640143Y-62145333D01*
X150727229Y-62145333D01*
X150770771Y-62169524D01*
X150792543Y-62193714D01*
X150814314Y-62242095D01*
X172886915Y-40694429D02*
X172908686Y-40718619D01*
X172974000Y-40742810D01*
X173017543Y-40742810D01*
X173082858Y-40718619D01*
X173126400Y-40670238D01*
X173148172Y-40621857D01*
X173169943Y-40525095D01*
X173169943Y-40452524D01*
X173148172Y-40355762D01*
X173126400Y-40307381D01*
X173082858Y-40259000D01*
X173017543Y-40234810D01*
X172974000Y-40234810D01*
X172908686Y-40259000D01*
X172886915Y-40283190D01*
X172451486Y-40742810D02*
X172712743Y-40742810D01*
X172582115Y-40742810D02*
X172582115Y-40234810D01*
X172625658Y-40307381D01*
X172669200Y-40355762D01*
X172712743Y-40379952D01*
X172037829Y-40234810D02*
X172255543Y-40234810D01*
X172277314Y-40476714D01*
X172255543Y-40452524D01*
X172212000Y-40428333D01*
X172103143Y-40428333D01*
X172059600Y-40452524D01*
X172037829Y-40476714D01*
X172016057Y-40525095D01*
X172016057Y-40646048D01*
X172037829Y-40694429D01*
X172059600Y-40718619D01*
X172103143Y-40742810D01*
X172212000Y-40742810D01*
X172255543Y-40718619D01*
X172277314Y-40694429D01*
X145364200Y-21390429D02*
X145385971Y-21414619D01*
X145451285Y-21438810D01*
X145494828Y-21438810D01*
X145560143Y-21414619D01*
X145603685Y-21366238D01*
X145625457Y-21317857D01*
X145647228Y-21221095D01*
X145647228Y-21148524D01*
X145625457Y-21051762D01*
X145603685Y-21003381D01*
X145560143Y-20955000D01*
X145494828Y-20930810D01*
X145451285Y-20930810D01*
X145385971Y-20955000D01*
X145364200Y-20979190D01*
X145190028Y-20979190D02*
X145168257Y-20955000D01*
X145124714Y-20930810D01*
X145015857Y-20930810D01*
X144972314Y-20955000D01*
X144950543Y-20979190D01*
X144928771Y-21027571D01*
X144928771Y-21075952D01*
X144950543Y-21148524D01*
X145211800Y-21438810D01*
X144928771Y-21438810D01*
X139903200Y-34852429D02*
X139924971Y-34876619D01*
X139990285Y-34900810D01*
X140033828Y-34900810D01*
X140099143Y-34876619D01*
X140142685Y-34828238D01*
X140164457Y-34779857D01*
X140186228Y-34683095D01*
X140186228Y-34610524D01*
X140164457Y-34513762D01*
X140142685Y-34465381D01*
X140099143Y-34417000D01*
X140033828Y-34392810D01*
X139990285Y-34392810D01*
X139924971Y-34417000D01*
X139903200Y-34441190D01*
X139489543Y-34392810D02*
X139707257Y-34392810D01*
X139729028Y-34634714D01*
X139707257Y-34610524D01*
X139663714Y-34586333D01*
X139554857Y-34586333D01*
X139511314Y-34610524D01*
X139489543Y-34634714D01*
X139467771Y-34683095D01*
X139467771Y-34804048D01*
X139489543Y-34852429D01*
X139511314Y-34876619D01*
X139554857Y-34900810D01*
X139663714Y-34900810D01*
X139707257Y-34876619D01*
X139729028Y-34852429D01*
D12*
X175876857Y-42508714D02*
X176130857Y-42145857D01*
X176312285Y-42508714D02*
X176312285Y-41746714D01*
X176022000Y-41746714D01*
X175949428Y-41783000D01*
X175913143Y-41819286D01*
X175876857Y-41891857D01*
X175876857Y-42000714D01*
X175913143Y-42073286D01*
X175949428Y-42109571D01*
X176022000Y-42145857D01*
X176312285Y-42145857D01*
X175151143Y-42508714D02*
X175586571Y-42508714D01*
X175368857Y-42508714D02*
X175368857Y-41746714D01*
X175441428Y-41855571D01*
X175514000Y-41928143D01*
X175586571Y-41964429D01*
X174897143Y-41746714D02*
X174425429Y-41746714D01*
X174679429Y-42037000D01*
X174570571Y-42037000D01*
X174498000Y-42073286D01*
X174461714Y-42109571D01*
X174425429Y-42182143D01*
X174425429Y-42363571D01*
X174461714Y-42436143D01*
X174498000Y-42472429D01*
X174570571Y-42508714D01*
X174788286Y-42508714D01*
X174860857Y-42472429D01*
X174897143Y-42436143D01*
D16*
X145387362Y-48811603D02*
X145387362Y-48573327D01*
X144886982Y-48573327D01*
X145387362Y-49240501D02*
X145387362Y-48954569D01*
X145387362Y-49097535D02*
X144886982Y-49097535D01*
X144958465Y-49049880D01*
X145006120Y-49002225D01*
X145029948Y-48954569D01*
D12*
X148964953Y-26899810D02*
X148964953Y-26391810D01*
X148844000Y-26391810D01*
X148771429Y-26416000D01*
X148723048Y-26464381D01*
X148698857Y-26512762D01*
X148674667Y-26609524D01*
X148674667Y-26682095D01*
X148698857Y-26778857D01*
X148723048Y-26827238D01*
X148771429Y-26875619D01*
X148844000Y-26899810D01*
X148964953Y-26899810D01*
X148190857Y-26899810D02*
X148481143Y-26899810D01*
X148336000Y-26899810D02*
X148336000Y-26391810D01*
X148384381Y-26464381D01*
X148432762Y-26512762D01*
X148481143Y-26536952D01*
D11*
X150590000Y-24328429D02*
X149828095Y-24328429D01*
X150209047Y-24709381D02*
X150209047Y-23947476D01*
X149447143Y-23709381D02*
X148828095Y-23709381D01*
X149161429Y-24090333D01*
X149018571Y-24090333D01*
X148923333Y-24137952D01*
X148875714Y-24185571D01*
X148828095Y-24280810D01*
X148828095Y-24518905D01*
X148875714Y-24614143D01*
X148923333Y-24661762D01*
X149018571Y-24709381D01*
X149304286Y-24709381D01*
X149399524Y-24661762D01*
X149447143Y-24614143D01*
X148399524Y-24614143D02*
X148351905Y-24661762D01*
X148399524Y-24709381D01*
X148447143Y-24661762D01*
X148399524Y-24614143D01*
X148399524Y-24709381D01*
X148018572Y-23709381D02*
X147399524Y-23709381D01*
X147732858Y-24090333D01*
X147590000Y-24090333D01*
X147494762Y-24137952D01*
X147447143Y-24185571D01*
X147399524Y-24280810D01*
X147399524Y-24518905D01*
X147447143Y-24614143D01*
X147494762Y-24661762D01*
X147590000Y-24709381D01*
X147875715Y-24709381D01*
X147970953Y-24661762D01*
X148018572Y-24614143D01*
X147113810Y-23709381D02*
X146780477Y-24709381D01*
X146447143Y-23709381D01*
D15*
X179264733Y-62571085D02*
X178926067Y-62418685D01*
X179264733Y-62309828D02*
X178553533Y-62309828D01*
X178553533Y-62484000D01*
X178587400Y-62527542D01*
X178621267Y-62549314D01*
X178689000Y-62571085D01*
X178790600Y-62571085D01*
X178858333Y-62549314D01*
X178892200Y-62527542D01*
X178926067Y-62484000D01*
X178926067Y-62309828D01*
X179264733Y-63006514D02*
X179264733Y-62745257D01*
X179264733Y-62875885D02*
X178553533Y-62875885D01*
X178655133Y-62832342D01*
X178722867Y-62788800D01*
X178756733Y-62745257D01*
X179264733Y-63441943D02*
X179264733Y-63180686D01*
X179264733Y-63311314D02*
X178553533Y-63311314D01*
X178655133Y-63267771D01*
X178722867Y-63224229D01*
X178756733Y-63180686D01*
X177486733Y-52411085D02*
X177148067Y-52258685D01*
X177486733Y-52149828D02*
X176775533Y-52149828D01*
X176775533Y-52324000D01*
X176809400Y-52367542D01*
X176843267Y-52389314D01*
X176911000Y-52411085D01*
X177012600Y-52411085D01*
X177080333Y-52389314D01*
X177114200Y-52367542D01*
X177148067Y-52324000D01*
X177148067Y-52149828D01*
X177486733Y-52846514D02*
X177486733Y-52585257D01*
X177486733Y-52715885D02*
X176775533Y-52715885D01*
X176877133Y-52672342D01*
X176944867Y-52628800D01*
X176978733Y-52585257D01*
X176775533Y-53129543D02*
X176775533Y-53173086D01*
X176809400Y-53216629D01*
X176843267Y-53238400D01*
X176911000Y-53260171D01*
X177046467Y-53281943D01*
X177215800Y-53281943D01*
X177351267Y-53260171D01*
X177419000Y-53238400D01*
X177452867Y-53216629D01*
X177486733Y-53173086D01*
X177486733Y-53129543D01*
X177452867Y-53086000D01*
X177419000Y-53064229D01*
X177351267Y-53042457D01*
X177215800Y-53020686D01*
X177046467Y-53020686D01*
X176911000Y-53042457D01*
X176843267Y-53064229D01*
X176809400Y-53086000D01*
X176775533Y-53129543D01*
X177740733Y-40690800D02*
X177402067Y-40538400D01*
X177740733Y-40429543D02*
X177029533Y-40429543D01*
X177029533Y-40603715D01*
X177063400Y-40647257D01*
X177097267Y-40669029D01*
X177165000Y-40690800D01*
X177266600Y-40690800D01*
X177334333Y-40669029D01*
X177368200Y-40647257D01*
X177402067Y-40603715D01*
X177402067Y-40429543D01*
X177740733Y-40908515D02*
X177740733Y-40995600D01*
X177706867Y-41039143D01*
X177673000Y-41060915D01*
X177571400Y-41104457D01*
X177435933Y-41126229D01*
X177165000Y-41126229D01*
X177097267Y-41104457D01*
X177063400Y-41082686D01*
X177029533Y-41039143D01*
X177029533Y-40952057D01*
X177063400Y-40908515D01*
X177097267Y-40886743D01*
X177165000Y-40864972D01*
X177334333Y-40864972D01*
X177402067Y-40886743D01*
X177435933Y-40908515D01*
X177469800Y-40952057D01*
X177469800Y-41039143D01*
X177435933Y-41082686D01*
X177402067Y-41104457D01*
X177334333Y-41126229D01*
X177867733Y-28625800D02*
X177529067Y-28473400D01*
X177867733Y-28364543D02*
X177156533Y-28364543D01*
X177156533Y-28538715D01*
X177190400Y-28582257D01*
X177224267Y-28604029D01*
X177292000Y-28625800D01*
X177393600Y-28625800D01*
X177461333Y-28604029D01*
X177495200Y-28582257D01*
X177529067Y-28538715D01*
X177529067Y-28364543D01*
X177461333Y-28887057D02*
X177427467Y-28843515D01*
X177393600Y-28821743D01*
X177325867Y-28799972D01*
X177292000Y-28799972D01*
X177224267Y-28821743D01*
X177190400Y-28843515D01*
X177156533Y-28887057D01*
X177156533Y-28974143D01*
X177190400Y-29017686D01*
X177224267Y-29039457D01*
X177292000Y-29061229D01*
X177325867Y-29061229D01*
X177393600Y-29039457D01*
X177427467Y-29017686D01*
X177461333Y-28974143D01*
X177461333Y-28887057D01*
X177495200Y-28843515D01*
X177529067Y-28821743D01*
X177596800Y-28799972D01*
X177732267Y-28799972D01*
X177800000Y-28821743D01*
X177833867Y-28843515D01*
X177867733Y-28887057D01*
X177867733Y-28974143D01*
X177833867Y-29017686D01*
X177800000Y-29039457D01*
X177732267Y-29061229D01*
X177596800Y-29061229D01*
X177529067Y-29039457D01*
X177495200Y-29017686D01*
X177461333Y-28974143D01*
X152095200Y-24578733D02*
X152247600Y-24240067D01*
X152356457Y-24578733D02*
X152356457Y-23867533D01*
X152182285Y-23867533D01*
X152138743Y-23901400D01*
X152116971Y-23935267D01*
X152095200Y-24003000D01*
X152095200Y-24104600D01*
X152116971Y-24172333D01*
X152138743Y-24206200D01*
X152182285Y-24240067D01*
X152356457Y-24240067D01*
X151942800Y-23867533D02*
X151638000Y-23867533D01*
X151833943Y-24578733D01*
D16*
X156744307Y-47658928D02*
X156768135Y-47635100D01*
X156791962Y-47563617D01*
X156791962Y-47515962D01*
X156768135Y-47444479D01*
X156720480Y-47396824D01*
X156672824Y-47372996D01*
X156577514Y-47349168D01*
X156506031Y-47349168D01*
X156410720Y-47372996D01*
X156363065Y-47396824D01*
X156315410Y-47444479D01*
X156291582Y-47515962D01*
X156291582Y-47563617D01*
X156315410Y-47635100D01*
X156339238Y-47658928D01*
X156791962Y-48135480D02*
X156791962Y-47849548D01*
X156791962Y-47992514D02*
X156291582Y-47992514D01*
X156363065Y-47944859D01*
X156410720Y-47897204D01*
X156434548Y-47849548D01*
X156506031Y-48421411D02*
X156482203Y-48373756D01*
X156458376Y-48349928D01*
X156410720Y-48326100D01*
X156386893Y-48326100D01*
X156339238Y-48349928D01*
X156315410Y-48373756D01*
X156291582Y-48421411D01*
X156291582Y-48516721D01*
X156315410Y-48564377D01*
X156339238Y-48588204D01*
X156386893Y-48612032D01*
X156410720Y-48612032D01*
X156458376Y-48588204D01*
X156482203Y-48564377D01*
X156506031Y-48516721D01*
X156506031Y-48421411D01*
X156529859Y-48373756D01*
X156553686Y-48349928D01*
X156601341Y-48326100D01*
X156696652Y-48326100D01*
X156744307Y-48349928D01*
X156768135Y-48373756D01*
X156791962Y-48421411D01*
X156791962Y-48516721D01*
X156768135Y-48564377D01*
X156744307Y-48588204D01*
X156696652Y-48612032D01*
X156601341Y-48612032D01*
X156553686Y-48588204D01*
X156529859Y-48564377D01*
X156506031Y-48516721D01*
X153366107Y-41867728D02*
X153389935Y-41843900D01*
X153413762Y-41772417D01*
X153413762Y-41724762D01*
X153389935Y-41653279D01*
X153342280Y-41605624D01*
X153294624Y-41581796D01*
X153199314Y-41557968D01*
X153127831Y-41557968D01*
X153032520Y-41581796D01*
X152984865Y-41605624D01*
X152937210Y-41653279D01*
X152913382Y-41724762D01*
X152913382Y-41772417D01*
X152937210Y-41843900D01*
X152961038Y-41867728D01*
X153413762Y-42344280D02*
X153413762Y-42058348D01*
X153413762Y-42201314D02*
X152913382Y-42201314D01*
X152984865Y-42153659D01*
X153032520Y-42106004D01*
X153056348Y-42058348D01*
X152913382Y-42511073D02*
X152913382Y-42844660D01*
X153413762Y-42630211D01*
X151864362Y-41064603D02*
X151864362Y-40826327D01*
X151363982Y-40826327D01*
X151411638Y-41207569D02*
X151387810Y-41231397D01*
X151363982Y-41279052D01*
X151363982Y-41398190D01*
X151387810Y-41445846D01*
X151411638Y-41469673D01*
X151459293Y-41493501D01*
X151506948Y-41493501D01*
X151578431Y-41469673D01*
X151864362Y-41183742D01*
X151864362Y-41493501D01*
X151864362Y-88562603D02*
X151864362Y-88324327D01*
X151363982Y-88324327D01*
X151411638Y-88705569D02*
X151387810Y-88729397D01*
X151363982Y-88777052D01*
X151363982Y-88896190D01*
X151387810Y-88943846D01*
X151411638Y-88967673D01*
X151459293Y-88991501D01*
X151506948Y-88991501D01*
X151578431Y-88967673D01*
X151864362Y-88681742D01*
X151864362Y-88991501D01*
X153366107Y-89365728D02*
X153389935Y-89341900D01*
X153413762Y-89270417D01*
X153413762Y-89222762D01*
X153389935Y-89151279D01*
X153342280Y-89103624D01*
X153294624Y-89079796D01*
X153199314Y-89055968D01*
X153127831Y-89055968D01*
X153032520Y-89079796D01*
X152984865Y-89103624D01*
X152937210Y-89151279D01*
X152913382Y-89222762D01*
X152913382Y-89270417D01*
X152937210Y-89341900D01*
X152961038Y-89365728D01*
X153413762Y-89842280D02*
X153413762Y-89556348D01*
X153413762Y-89699314D02*
X152913382Y-89699314D01*
X152984865Y-89651659D01*
X153032520Y-89604004D01*
X153056348Y-89556348D01*
X152913382Y-90009073D02*
X152913382Y-90342660D01*
X153413762Y-90128211D01*
X156744307Y-95156928D02*
X156768135Y-95133100D01*
X156791962Y-95061617D01*
X156791962Y-95013962D01*
X156768135Y-94942479D01*
X156720480Y-94894824D01*
X156672824Y-94870996D01*
X156577514Y-94847168D01*
X156506031Y-94847168D01*
X156410720Y-94870996D01*
X156363065Y-94894824D01*
X156315410Y-94942479D01*
X156291582Y-95013962D01*
X156291582Y-95061617D01*
X156315410Y-95133100D01*
X156339238Y-95156928D01*
X156791962Y-95633480D02*
X156791962Y-95347548D01*
X156791962Y-95490514D02*
X156291582Y-95490514D01*
X156363065Y-95442859D01*
X156410720Y-95395204D01*
X156434548Y-95347548D01*
X156506031Y-95919411D02*
X156482203Y-95871756D01*
X156458376Y-95847928D01*
X156410720Y-95824100D01*
X156386893Y-95824100D01*
X156339238Y-95847928D01*
X156315410Y-95871756D01*
X156291582Y-95919411D01*
X156291582Y-96014721D01*
X156315410Y-96062377D01*
X156339238Y-96086204D01*
X156386893Y-96110032D01*
X156410720Y-96110032D01*
X156458376Y-96086204D01*
X156482203Y-96062377D01*
X156506031Y-96014721D01*
X156506031Y-95919411D01*
X156529859Y-95871756D01*
X156553686Y-95847928D01*
X156601341Y-95824100D01*
X156696652Y-95824100D01*
X156744307Y-95847928D01*
X156768135Y-95871756D01*
X156791962Y-95919411D01*
X156791962Y-96014721D01*
X156768135Y-96062377D01*
X156744307Y-96086204D01*
X156696652Y-96110032D01*
X156601341Y-96110032D01*
X156553686Y-96086204D01*
X156529859Y-96062377D01*
X156506031Y-96014721D01*
D15*
X152095200Y-72076733D02*
X152247600Y-71738067D01*
X152356457Y-72076733D02*
X152356457Y-71365533D01*
X152182285Y-71365533D01*
X152138743Y-71399400D01*
X152116971Y-71433267D01*
X152095200Y-71501000D01*
X152095200Y-71602600D01*
X152116971Y-71670333D01*
X152138743Y-71704200D01*
X152182285Y-71738067D01*
X152356457Y-71738067D01*
X151942800Y-71365533D02*
X151638000Y-71365533D01*
X151833943Y-72076733D01*
X177867733Y-76123800D02*
X177529067Y-75971400D01*
X177867733Y-75862543D02*
X177156533Y-75862543D01*
X177156533Y-76036715D01*
X177190400Y-76080257D01*
X177224267Y-76102029D01*
X177292000Y-76123800D01*
X177393600Y-76123800D01*
X177461333Y-76102029D01*
X177495200Y-76080257D01*
X177529067Y-76036715D01*
X177529067Y-75862543D01*
X177461333Y-76385057D02*
X177427467Y-76341515D01*
X177393600Y-76319743D01*
X177325867Y-76297972D01*
X177292000Y-76297972D01*
X177224267Y-76319743D01*
X177190400Y-76341515D01*
X177156533Y-76385057D01*
X177156533Y-76472143D01*
X177190400Y-76515686D01*
X177224267Y-76537457D01*
X177292000Y-76559229D01*
X177325867Y-76559229D01*
X177393600Y-76537457D01*
X177427467Y-76515686D01*
X177461333Y-76472143D01*
X177461333Y-76385057D01*
X177495200Y-76341515D01*
X177529067Y-76319743D01*
X177596800Y-76297972D01*
X177732267Y-76297972D01*
X177800000Y-76319743D01*
X177833867Y-76341515D01*
X177867733Y-76385057D01*
X177867733Y-76472143D01*
X177833867Y-76515686D01*
X177800000Y-76537457D01*
X177732267Y-76559229D01*
X177596800Y-76559229D01*
X177529067Y-76537457D01*
X177495200Y-76515686D01*
X177461333Y-76472143D01*
X177740733Y-88188800D02*
X177402067Y-88036400D01*
X177740733Y-87927543D02*
X177029533Y-87927543D01*
X177029533Y-88101715D01*
X177063400Y-88145257D01*
X177097267Y-88167029D01*
X177165000Y-88188800D01*
X177266600Y-88188800D01*
X177334333Y-88167029D01*
X177368200Y-88145257D01*
X177402067Y-88101715D01*
X177402067Y-87927543D01*
X177740733Y-88406515D02*
X177740733Y-88493600D01*
X177706867Y-88537143D01*
X177673000Y-88558915D01*
X177571400Y-88602457D01*
X177435933Y-88624229D01*
X177165000Y-88624229D01*
X177097267Y-88602457D01*
X177063400Y-88580686D01*
X177029533Y-88537143D01*
X177029533Y-88450057D01*
X177063400Y-88406515D01*
X177097267Y-88384743D01*
X177165000Y-88362972D01*
X177334333Y-88362972D01*
X177402067Y-88384743D01*
X177435933Y-88406515D01*
X177469800Y-88450057D01*
X177469800Y-88537143D01*
X177435933Y-88580686D01*
X177402067Y-88602457D01*
X177334333Y-88624229D01*
X177486733Y-99909085D02*
X177148067Y-99756685D01*
X177486733Y-99647828D02*
X176775533Y-99647828D01*
X176775533Y-99822000D01*
X176809400Y-99865542D01*
X176843267Y-99887314D01*
X176911000Y-99909085D01*
X177012600Y-99909085D01*
X177080333Y-99887314D01*
X177114200Y-99865542D01*
X177148067Y-99822000D01*
X177148067Y-99647828D01*
X177486733Y-100344514D02*
X177486733Y-100083257D01*
X177486733Y-100213885D02*
X176775533Y-100213885D01*
X176877133Y-100170342D01*
X176944867Y-100126800D01*
X176978733Y-100083257D01*
X176775533Y-100627543D02*
X176775533Y-100671086D01*
X176809400Y-100714629D01*
X176843267Y-100736400D01*
X176911000Y-100758171D01*
X177046467Y-100779943D01*
X177215800Y-100779943D01*
X177351267Y-100758171D01*
X177419000Y-100736400D01*
X177452867Y-100714629D01*
X177486733Y-100671086D01*
X177486733Y-100627543D01*
X177452867Y-100584000D01*
X177419000Y-100562229D01*
X177351267Y-100540457D01*
X177215800Y-100518686D01*
X177046467Y-100518686D01*
X176911000Y-100540457D01*
X176843267Y-100562229D01*
X176809400Y-100584000D01*
X176775533Y-100627543D01*
X179264733Y-110069085D02*
X178926067Y-109916685D01*
X179264733Y-109807828D02*
X178553533Y-109807828D01*
X178553533Y-109982000D01*
X178587400Y-110025542D01*
X178621267Y-110047314D01*
X178689000Y-110069085D01*
X178790600Y-110069085D01*
X178858333Y-110047314D01*
X178892200Y-110025542D01*
X178926067Y-109982000D01*
X178926067Y-109807828D01*
X179264733Y-110504514D02*
X179264733Y-110243257D01*
X179264733Y-110373885D02*
X178553533Y-110373885D01*
X178655133Y-110330342D01*
X178722867Y-110286800D01*
X178756733Y-110243257D01*
X179264733Y-110939943D02*
X179264733Y-110678686D01*
X179264733Y-110809314D02*
X178553533Y-110809314D01*
X178655133Y-110765771D01*
X178722867Y-110722229D01*
X178756733Y-110678686D01*
D12*
X148964953Y-74397810D02*
X148964953Y-73889810D01*
X148844000Y-73889810D01*
X148771429Y-73914000D01*
X148723048Y-73962381D01*
X148698857Y-74010762D01*
X148674667Y-74107524D01*
X148674667Y-74180095D01*
X148698857Y-74276857D01*
X148723048Y-74325238D01*
X148771429Y-74373619D01*
X148844000Y-74397810D01*
X148964953Y-74397810D01*
X148190857Y-74397810D02*
X148481143Y-74397810D01*
X148336000Y-74397810D02*
X148336000Y-73889810D01*
X148384381Y-73962381D01*
X148432762Y-74010762D01*
X148481143Y-74034952D01*
D11*
X150590000Y-71826429D02*
X149828095Y-71826429D01*
X150209047Y-72207381D02*
X150209047Y-71445476D01*
X149447143Y-71207381D02*
X148828095Y-71207381D01*
X149161429Y-71588333D01*
X149018571Y-71588333D01*
X148923333Y-71635952D01*
X148875714Y-71683571D01*
X148828095Y-71778810D01*
X148828095Y-72016905D01*
X148875714Y-72112143D01*
X148923333Y-72159762D01*
X149018571Y-72207381D01*
X149304286Y-72207381D01*
X149399524Y-72159762D01*
X149447143Y-72112143D01*
X148399524Y-72112143D02*
X148351905Y-72159762D01*
X148399524Y-72207381D01*
X148447143Y-72159762D01*
X148399524Y-72112143D01*
X148399524Y-72207381D01*
X148018572Y-71207381D02*
X147399524Y-71207381D01*
X147732858Y-71588333D01*
X147590000Y-71588333D01*
X147494762Y-71635952D01*
X147447143Y-71683571D01*
X147399524Y-71778810D01*
X147399524Y-72016905D01*
X147447143Y-72112143D01*
X147494762Y-72159762D01*
X147590000Y-72207381D01*
X147875715Y-72207381D01*
X147970953Y-72159762D01*
X148018572Y-72112143D01*
X147113810Y-71207381D02*
X146780477Y-72207381D01*
X146447143Y-71207381D01*
D16*
X145387362Y-96309603D02*
X145387362Y-96071327D01*
X144886982Y-96071327D01*
X145387362Y-96738501D02*
X145387362Y-96452569D01*
X145387362Y-96595535D02*
X144886982Y-96595535D01*
X144958465Y-96547880D01*
X145006120Y-96500225D01*
X145029948Y-96452569D01*
D12*
X175876857Y-90006714D02*
X176130857Y-89643857D01*
X176312285Y-90006714D02*
X176312285Y-89244714D01*
X176022000Y-89244714D01*
X175949428Y-89281000D01*
X175913143Y-89317286D01*
X175876857Y-89389857D01*
X175876857Y-89498714D01*
X175913143Y-89571286D01*
X175949428Y-89607571D01*
X176022000Y-89643857D01*
X176312285Y-89643857D01*
X175151143Y-90006714D02*
X175586571Y-90006714D01*
X175368857Y-90006714D02*
X175368857Y-89244714D01*
X175441428Y-89353571D01*
X175514000Y-89426143D01*
X175586571Y-89462429D01*
X174897143Y-89244714D02*
X174425429Y-89244714D01*
X174679429Y-89535000D01*
X174570571Y-89535000D01*
X174498000Y-89571286D01*
X174461714Y-89607571D01*
X174425429Y-89680143D01*
X174425429Y-89861571D01*
X174461714Y-89934143D01*
X174498000Y-89970429D01*
X174570571Y-90006714D01*
X174788286Y-90006714D01*
X174860857Y-89970429D01*
X174897143Y-89934143D01*
D15*
X139903200Y-82350429D02*
X139924971Y-82374619D01*
X139990285Y-82398810D01*
X140033828Y-82398810D01*
X140099143Y-82374619D01*
X140142685Y-82326238D01*
X140164457Y-82277857D01*
X140186228Y-82181095D01*
X140186228Y-82108524D01*
X140164457Y-82011762D01*
X140142685Y-81963381D01*
X140099143Y-81915000D01*
X140033828Y-81890810D01*
X139990285Y-81890810D01*
X139924971Y-81915000D01*
X139903200Y-81939190D01*
X139489543Y-81890810D02*
X139707257Y-81890810D01*
X139729028Y-82132714D01*
X139707257Y-82108524D01*
X139663714Y-82084333D01*
X139554857Y-82084333D01*
X139511314Y-82108524D01*
X139489543Y-82132714D01*
X139467771Y-82181095D01*
X139467771Y-82302048D01*
X139489543Y-82350429D01*
X139511314Y-82374619D01*
X139554857Y-82398810D01*
X139663714Y-82398810D01*
X139707257Y-82374619D01*
X139729028Y-82350429D01*
X145364200Y-68888429D02*
X145385971Y-68912619D01*
X145451285Y-68936810D01*
X145494828Y-68936810D01*
X145560143Y-68912619D01*
X145603685Y-68864238D01*
X145625457Y-68815857D01*
X145647228Y-68719095D01*
X145647228Y-68646524D01*
X145625457Y-68549762D01*
X145603685Y-68501381D01*
X145560143Y-68453000D01*
X145494828Y-68428810D01*
X145451285Y-68428810D01*
X145385971Y-68453000D01*
X145364200Y-68477190D01*
X145190028Y-68477190D02*
X145168257Y-68453000D01*
X145124714Y-68428810D01*
X145015857Y-68428810D01*
X144972314Y-68453000D01*
X144950543Y-68477190D01*
X144928771Y-68525571D01*
X144928771Y-68573952D01*
X144950543Y-68646524D01*
X145211800Y-68936810D01*
X144928771Y-68936810D01*
X172886915Y-88192429D02*
X172908686Y-88216619D01*
X172974000Y-88240810D01*
X173017543Y-88240810D01*
X173082858Y-88216619D01*
X173126400Y-88168238D01*
X173148172Y-88119857D01*
X173169943Y-88023095D01*
X173169943Y-87950524D01*
X173148172Y-87853762D01*
X173126400Y-87805381D01*
X173082858Y-87757000D01*
X173017543Y-87732810D01*
X172974000Y-87732810D01*
X172908686Y-87757000D01*
X172886915Y-87781190D01*
X172451486Y-88240810D02*
X172712743Y-88240810D01*
X172582115Y-88240810D02*
X172582115Y-87732810D01*
X172625658Y-87805381D01*
X172669200Y-87853762D01*
X172712743Y-87877952D01*
X172037829Y-87732810D02*
X172255543Y-87732810D01*
X172277314Y-87974714D01*
X172255543Y-87950524D01*
X172212000Y-87926333D01*
X172103143Y-87926333D01*
X172059600Y-87950524D01*
X172037829Y-87974714D01*
X172016057Y-88023095D01*
X172016057Y-88144048D01*
X172037829Y-88192429D01*
X172059600Y-88216619D01*
X172103143Y-88240810D01*
X172212000Y-88240810D01*
X172255543Y-88216619D01*
X172277314Y-88192429D01*
X151423915Y-109909429D02*
X151445686Y-109933619D01*
X151511000Y-109957810D01*
X151554543Y-109957810D01*
X151619858Y-109933619D01*
X151663400Y-109885238D01*
X151685172Y-109836857D01*
X151706943Y-109740095D01*
X151706943Y-109667524D01*
X151685172Y-109570762D01*
X151663400Y-109522381D01*
X151619858Y-109474000D01*
X151554543Y-109449810D01*
X151511000Y-109449810D01*
X151445686Y-109474000D01*
X151423915Y-109498190D01*
X150988486Y-109957810D02*
X151249743Y-109957810D01*
X151119115Y-109957810D02*
X151119115Y-109449810D01*
X151162658Y-109522381D01*
X151206200Y-109570762D01*
X151249743Y-109594952D01*
X150596600Y-109449810D02*
X150683686Y-109449810D01*
X150727229Y-109474000D01*
X150749000Y-109498190D01*
X150792543Y-109570762D01*
X150814314Y-109667524D01*
X150814314Y-109861048D01*
X150792543Y-109909429D01*
X150770771Y-109933619D01*
X150727229Y-109957810D01*
X150640143Y-109957810D01*
X150596600Y-109933619D01*
X150574829Y-109909429D01*
X150553057Y-109861048D01*
X150553057Y-109740095D01*
X150574829Y-109691714D01*
X150596600Y-109667524D01*
X150640143Y-109643333D01*
X150727229Y-109643333D01*
X150770771Y-109667524D01*
X150792543Y-109691714D01*
X150814314Y-109740095D01*
M02*
