M48
;DRILL file {KiCad 5.0.2+dfsg1-1~bpo9+1} date dim. 03 nov. 2019 17:20:14 CET
;FORMAT={-:-/ absolute / inch / decimal}
FMAT,2
INCH,TZ
T1C0.0236
T2C0.0472
T3C0.1575
%
G90
G05
T1
X5.09Y-4.45
X5.2Y-4.09
X5.41Y-4.51
X5.6544Y-4.2844
X6.2775Y-4.1025
X6.3651Y-4.27
X6.4075Y-3.9675
X6.5525Y-4.1525
X6.575Y-4.05
X6.6912Y-4.2526
X6.835Y-3.9725
X7.1Y-4.5325
T2
X4.925Y-4.65
X5.025Y-4.65
X5.125Y-4.65
X5.225Y-4.65
X5.325Y-4.65
X6.4725Y-3.755
X6.5725Y-3.755
X6.6725Y-3.755
X6.3325Y-4.6525
X6.4325Y-4.6525
X6.5325Y-4.6525
X6.6325Y-4.6525
X6.7325Y-4.6525
X6.075Y-4.0944
X6.075Y-4.2322
X6.075Y-4.37
X5.05Y-3.75
X5.15Y-3.75
X5.25Y-3.75
X4.65Y-4.0744
X4.65Y-4.2122
X4.65Y-4.35
T3
X4.6525Y-4.735
X5.6425Y-4.7475
X5.635Y-3.75
X7.025Y-3.75
X6.04Y-4.7475
X7.0275Y-4.7475
X6.0425Y-3.76
X4.65Y-3.75
T0
M30
