%FSLAX45Y45*%
G04 Gerber Fmt 4.5, Leading zero omitted, Abs format (unit mm)*
G04 Created by KiCad (PCBNEW 5.0.2+dfsg1-1~bpo9+1) date dim. 03 nov. 2019 17:20:15 CET*
%MOMM*%
%LPD*%
G01*
G04 APERTURE LIST*
%ADD10C,0.200000*%
%ADD11C,0.150000*%
%ADD12C,0.300000*%
G04 APERTURE END LIST*
D10*
X18357850Y-12573000D02*
X14827250Y-12566650D01*
X18351500Y-9017000D02*
X18357850Y-12573000D01*
X14827250Y-9017000D02*
X18351500Y-9017000D01*
D11*
X11303000Y-12566650D02*
X11303000Y-9017000D01*
X14827250Y-12566650D02*
X11303000Y-12566650D01*
X11303000Y-9017000D02*
X14827250Y-9017000D01*
D10*
D12*
X11581928Y-13048714D02*
X11581928Y-12748714D01*
X11653357Y-12748714D01*
X11696214Y-12763000D01*
X11724786Y-12791571D01*
X11739071Y-12820143D01*
X11753357Y-12877286D01*
X11753357Y-12920143D01*
X11739071Y-12977286D01*
X11724786Y-13005857D01*
X11696214Y-13034429D01*
X11653357Y-13048714D01*
X11581928Y-13048714D01*
X11881928Y-13048714D02*
X11881928Y-12848714D01*
X11881928Y-12905857D02*
X11896214Y-12877286D01*
X11910500Y-12863000D01*
X11939071Y-12848714D01*
X11967643Y-12848714D01*
X12067643Y-13048714D02*
X12067643Y-12848714D01*
X12067643Y-12748714D02*
X12053357Y-12763000D01*
X12067643Y-12777286D01*
X12081928Y-12763000D01*
X12067643Y-12748714D01*
X12067643Y-12777286D01*
X12253357Y-13048714D02*
X12224786Y-13034429D01*
X12210500Y-13005857D01*
X12210500Y-12748714D01*
X12410500Y-13048714D02*
X12381928Y-13034429D01*
X12367643Y-13005857D01*
X12367643Y-12748714D01*
X12753357Y-13048714D02*
X12753357Y-12748714D01*
X12853357Y-12963000D01*
X12953357Y-12748714D01*
X12953357Y-13048714D01*
X13224786Y-13048714D02*
X13224786Y-12891571D01*
X13210500Y-12863000D01*
X13181928Y-12848714D01*
X13124786Y-12848714D01*
X13096214Y-12863000D01*
X13224786Y-13034429D02*
X13196214Y-13048714D01*
X13124786Y-13048714D01*
X13096214Y-13034429D01*
X13081928Y-13005857D01*
X13081928Y-12977286D01*
X13096214Y-12948714D01*
X13124786Y-12934429D01*
X13196214Y-12934429D01*
X13224786Y-12920143D01*
X13367643Y-12848714D02*
X13367643Y-13148714D01*
X13367643Y-12863000D02*
X13396214Y-12848714D01*
X13453357Y-12848714D01*
X13481928Y-12863000D01*
X13496214Y-12877286D01*
X13510500Y-12905857D01*
X13510500Y-12991571D01*
X13496214Y-13020143D01*
X13481928Y-13034429D01*
X13453357Y-13048714D01*
X13396214Y-13048714D01*
X13367643Y-13034429D01*
X13639071Y-13020143D02*
X13653357Y-13034429D01*
X13639071Y-13048714D01*
X13624786Y-13034429D01*
X13639071Y-13020143D01*
X13639071Y-13048714D01*
X13639071Y-12863000D02*
X13653357Y-12877286D01*
X13639071Y-12891571D01*
X13624786Y-12877286D01*
X13639071Y-12863000D01*
X13639071Y-12891571D01*
M02*
