G04 #@! TF.GenerationSoftware,KiCad,Pcbnew,5.0.2+dfsg1-1~bpo9+1*
G04 #@! TF.CreationDate,2019-11-03T17:14:50+01:00*
G04 #@! TF.ProjectId,HALF_DUPLEX_UART,48414c46-5f44-4555-904c-45585f554152,rev?*
G04 #@! TF.SameCoordinates,Original*
G04 #@! TF.FileFunction,Soldermask,Bot*
G04 #@! TF.FilePolarity,Negative*
%FSLAX46Y46*%
G04 Gerber Fmt 4.6, Leading zero omitted, Abs format (unit mm)*
G04 Created by KiCad (PCBNEW 5.0.2+dfsg1-1~bpo9+1) date dim. 03 nov. 2019 17:14:50 CET*
%MOMM*%
%LPD*%
G01*
G04 APERTURE LIST*
%ADD10C,0.100000*%
G04 APERTURE END LIST*
D10*
G36*
X144646975Y-116210392D02*
X144646977Y-116210393D01*
X144646978Y-116210393D01*
X145475207Y-116553456D01*
X146180906Y-117024990D01*
X146220596Y-117051510D01*
X146854490Y-117685404D01*
X146854492Y-117685407D01*
X147352544Y-118430793D01*
X147695395Y-119258510D01*
X147695608Y-119259025D01*
X147870500Y-120138264D01*
X147870500Y-121034736D01*
X147758763Y-121596475D01*
X147695607Y-121913978D01*
X147352544Y-122742207D01*
X147066639Y-123170093D01*
X146854490Y-123487596D01*
X146220596Y-124121490D01*
X146220593Y-124121492D01*
X145475207Y-124619544D01*
X144646978Y-124962607D01*
X144646977Y-124962607D01*
X144646975Y-124962608D01*
X143767736Y-125137500D01*
X142871264Y-125137500D01*
X141992025Y-124962608D01*
X141992023Y-124962607D01*
X141992022Y-124962607D01*
X141163793Y-124619544D01*
X140418407Y-124121492D01*
X140418404Y-124121490D01*
X139784510Y-123487596D01*
X139572361Y-123170093D01*
X139286456Y-122742207D01*
X138943393Y-121913978D01*
X138880238Y-121596475D01*
X138768500Y-121034736D01*
X138768500Y-120138264D01*
X138943392Y-119259025D01*
X138943605Y-119258510D01*
X139286456Y-118430793D01*
X139784508Y-117685407D01*
X139784510Y-117685404D01*
X140418404Y-117051510D01*
X140458094Y-117024990D01*
X141163793Y-116553456D01*
X141992022Y-116210393D01*
X141992023Y-116210393D01*
X141992025Y-116210392D01*
X142871264Y-116035500D01*
X143767736Y-116035500D01*
X144646975Y-116210392D01*
X144646975Y-116210392D01*
G37*
G36*
X179825975Y-116210392D02*
X179825977Y-116210393D01*
X179825978Y-116210393D01*
X180654207Y-116553456D01*
X181359906Y-117024990D01*
X181399596Y-117051510D01*
X182033490Y-117685404D01*
X182033492Y-117685407D01*
X182531544Y-118430793D01*
X182874395Y-119258510D01*
X182874608Y-119259025D01*
X183049500Y-120138264D01*
X183049500Y-121034736D01*
X182937763Y-121596475D01*
X182874607Y-121913978D01*
X182531544Y-122742207D01*
X182245639Y-123170093D01*
X182033490Y-123487596D01*
X181399596Y-124121490D01*
X181399593Y-124121492D01*
X180654207Y-124619544D01*
X179825978Y-124962607D01*
X179825977Y-124962607D01*
X179825975Y-124962608D01*
X178946736Y-125137500D01*
X178050264Y-125137500D01*
X177171025Y-124962608D01*
X177171023Y-124962607D01*
X177171022Y-124962607D01*
X176342793Y-124619544D01*
X175597407Y-124121492D01*
X175597404Y-124121490D01*
X174963510Y-123487596D01*
X174751361Y-123170093D01*
X174465456Y-122742207D01*
X174122393Y-121913978D01*
X174059238Y-121596475D01*
X173947500Y-121034736D01*
X173947500Y-120138264D01*
X174122392Y-119259025D01*
X174122605Y-119258510D01*
X174465456Y-118430793D01*
X174963508Y-117685407D01*
X174963510Y-117685404D01*
X175597404Y-117051510D01*
X175637094Y-117024990D01*
X176342793Y-116553456D01*
X177171022Y-116210393D01*
X177171023Y-116210393D01*
X177171025Y-116210392D01*
X178050264Y-116035500D01*
X178946736Y-116035500D01*
X179825975Y-116210392D01*
X179825975Y-116210392D01*
G37*
G36*
X154743475Y-116210392D02*
X154743477Y-116210393D01*
X154743478Y-116210393D01*
X155571707Y-116553456D01*
X156277406Y-117024990D01*
X156317096Y-117051510D01*
X156950990Y-117685404D01*
X156950992Y-117685407D01*
X157449044Y-118430793D01*
X157791895Y-119258510D01*
X157792108Y-119259025D01*
X157967000Y-120138264D01*
X157967000Y-121034736D01*
X157855263Y-121596475D01*
X157792107Y-121913978D01*
X157449044Y-122742207D01*
X157163139Y-123170093D01*
X156950990Y-123487596D01*
X156317096Y-124121490D01*
X156317093Y-124121492D01*
X155571707Y-124619544D01*
X154743478Y-124962607D01*
X154743477Y-124962607D01*
X154743475Y-124962608D01*
X153864236Y-125137500D01*
X152967764Y-125137500D01*
X152088525Y-124962608D01*
X152088523Y-124962607D01*
X152088522Y-124962607D01*
X151260293Y-124619544D01*
X150514907Y-124121492D01*
X150514904Y-124121490D01*
X149881010Y-123487596D01*
X149668861Y-123170093D01*
X149382956Y-122742207D01*
X149039893Y-121913978D01*
X148976738Y-121596475D01*
X148865000Y-121034736D01*
X148865000Y-120138264D01*
X149039892Y-119259025D01*
X149040105Y-119258510D01*
X149382956Y-118430793D01*
X149881008Y-117685407D01*
X149881010Y-117685404D01*
X150514904Y-117051510D01*
X150554594Y-117024990D01*
X151260293Y-116553456D01*
X152088522Y-116210393D01*
X152088523Y-116210393D01*
X152088525Y-116210392D01*
X152967764Y-116035500D01*
X153864236Y-116035500D01*
X154743475Y-116210392D01*
X154743475Y-116210392D01*
G37*
G36*
X119500975Y-115892892D02*
X119500977Y-115892893D01*
X119500978Y-115892893D01*
X120329207Y-116235956D01*
X121071227Y-116731759D01*
X121074596Y-116734010D01*
X121708490Y-117367904D01*
X121708492Y-117367907D01*
X122206544Y-118113293D01*
X122473448Y-118757658D01*
X122549608Y-118941525D01*
X122724500Y-119820764D01*
X122724500Y-120717236D01*
X122661346Y-121034734D01*
X122549607Y-121596478D01*
X122206544Y-122424707D01*
X121710741Y-123166727D01*
X121708490Y-123170096D01*
X121074596Y-123803990D01*
X121074593Y-123803992D01*
X120329207Y-124302044D01*
X119500978Y-124645107D01*
X119500977Y-124645107D01*
X119500975Y-124645108D01*
X118621736Y-124820000D01*
X117725264Y-124820000D01*
X116846025Y-124645108D01*
X116846023Y-124645107D01*
X116846022Y-124645107D01*
X116017793Y-124302044D01*
X115272407Y-123803992D01*
X115272404Y-123803990D01*
X114638510Y-123170096D01*
X114636259Y-123166727D01*
X114140456Y-122424707D01*
X113797393Y-121596478D01*
X113685655Y-121034734D01*
X113622500Y-120717236D01*
X113622500Y-119820764D01*
X113797392Y-118941525D01*
X113873552Y-118757658D01*
X114140456Y-118113293D01*
X114638508Y-117367907D01*
X114638510Y-117367904D01*
X115272404Y-116734010D01*
X115275773Y-116731759D01*
X116017793Y-116235956D01*
X116846022Y-115892893D01*
X116846023Y-115892893D01*
X116846025Y-115892892D01*
X117725264Y-115718000D01*
X118621736Y-115718000D01*
X119500975Y-115892892D01*
X119500975Y-115892892D01*
G37*
G36*
X168646047Y-117035826D02*
X168750847Y-117067617D01*
X168819657Y-117088490D01*
X168878014Y-117119683D01*
X168979655Y-117174011D01*
X169119896Y-117289104D01*
X169234989Y-117429344D01*
X169274798Y-117503821D01*
X169320510Y-117589342D01*
X169338065Y-117647213D01*
X169373174Y-117762952D01*
X169386500Y-117898256D01*
X169386500Y-118448743D01*
X169373174Y-118584048D01*
X169320510Y-118757657D01*
X169234989Y-118917656D01*
X169119896Y-119057896D01*
X168979656Y-119172989D01*
X168961615Y-119182632D01*
X168819658Y-119258510D01*
X168773051Y-119272648D01*
X168646048Y-119311174D01*
X168465500Y-119328956D01*
X168284953Y-119311174D01*
X168157950Y-119272648D01*
X168111343Y-119258510D01*
X167969386Y-119182632D01*
X167951345Y-119172989D01*
X167811105Y-119057896D01*
X167696012Y-118917656D01*
X167656203Y-118843180D01*
X167610490Y-118757658D01*
X167591227Y-118694157D01*
X167557826Y-118584048D01*
X167544500Y-118448744D01*
X167544500Y-117898257D01*
X167557826Y-117762953D01*
X167610490Y-117589344D01*
X167610490Y-117589343D01*
X167644432Y-117525842D01*
X167696011Y-117429345D01*
X167811104Y-117289104D01*
X167951344Y-117174011D01*
X168047948Y-117122375D01*
X168111342Y-117088490D01*
X168180152Y-117067617D01*
X168284952Y-117035826D01*
X168465500Y-117018044D01*
X168646047Y-117035826D01*
X168646047Y-117035826D01*
G37*
G36*
X171186047Y-117035826D02*
X171290847Y-117067617D01*
X171359657Y-117088490D01*
X171418014Y-117119683D01*
X171519655Y-117174011D01*
X171659896Y-117289104D01*
X171774989Y-117429344D01*
X171814798Y-117503821D01*
X171860510Y-117589342D01*
X171878065Y-117647213D01*
X171913174Y-117762952D01*
X171926500Y-117898256D01*
X171926500Y-118448743D01*
X171913174Y-118584048D01*
X171860510Y-118757657D01*
X171774989Y-118917656D01*
X171659896Y-119057896D01*
X171519656Y-119172989D01*
X171501615Y-119182632D01*
X171359658Y-119258510D01*
X171313051Y-119272648D01*
X171186048Y-119311174D01*
X171005500Y-119328956D01*
X170824953Y-119311174D01*
X170697950Y-119272648D01*
X170651343Y-119258510D01*
X170509386Y-119182632D01*
X170491345Y-119172989D01*
X170351105Y-119057896D01*
X170236012Y-118917656D01*
X170196203Y-118843180D01*
X170150490Y-118757658D01*
X170131227Y-118694157D01*
X170097826Y-118584048D01*
X170084500Y-118448744D01*
X170084500Y-117898257D01*
X170097826Y-117762953D01*
X170150490Y-117589344D01*
X170150490Y-117589343D01*
X170184432Y-117525842D01*
X170236011Y-117429345D01*
X170351104Y-117289104D01*
X170491344Y-117174011D01*
X170587948Y-117122375D01*
X170651342Y-117088490D01*
X170720152Y-117067617D01*
X170824952Y-117035826D01*
X171005500Y-117018044D01*
X171186047Y-117035826D01*
X171186047Y-117035826D01*
G37*
G36*
X166106047Y-117035826D02*
X166210847Y-117067617D01*
X166279657Y-117088490D01*
X166338014Y-117119683D01*
X166439655Y-117174011D01*
X166579896Y-117289104D01*
X166694989Y-117429344D01*
X166734798Y-117503821D01*
X166780510Y-117589342D01*
X166798065Y-117647213D01*
X166833174Y-117762952D01*
X166846500Y-117898256D01*
X166846500Y-118448743D01*
X166833174Y-118584048D01*
X166780510Y-118757657D01*
X166694989Y-118917656D01*
X166579896Y-119057896D01*
X166439656Y-119172989D01*
X166421615Y-119182632D01*
X166279658Y-119258510D01*
X166233051Y-119272648D01*
X166106048Y-119311174D01*
X165925500Y-119328956D01*
X165744953Y-119311174D01*
X165617950Y-119272648D01*
X165571343Y-119258510D01*
X165429386Y-119182632D01*
X165411345Y-119172989D01*
X165271105Y-119057896D01*
X165156012Y-118917656D01*
X165116203Y-118843180D01*
X165070490Y-118757658D01*
X165051227Y-118694157D01*
X165017826Y-118584048D01*
X165004500Y-118448744D01*
X165004500Y-117898257D01*
X165017826Y-117762953D01*
X165070490Y-117589344D01*
X165070490Y-117589343D01*
X165104432Y-117525842D01*
X165156011Y-117429345D01*
X165271104Y-117289104D01*
X165411344Y-117174011D01*
X165507948Y-117122375D01*
X165571342Y-117088490D01*
X165640152Y-117067617D01*
X165744952Y-117035826D01*
X165925500Y-117018044D01*
X166106047Y-117035826D01*
X166106047Y-117035826D01*
G37*
G36*
X163566047Y-117035826D02*
X163670847Y-117067617D01*
X163739657Y-117088490D01*
X163798014Y-117119683D01*
X163899655Y-117174011D01*
X164039896Y-117289104D01*
X164154989Y-117429344D01*
X164194798Y-117503821D01*
X164240510Y-117589342D01*
X164258065Y-117647213D01*
X164293174Y-117762952D01*
X164306500Y-117898256D01*
X164306500Y-118448743D01*
X164293174Y-118584048D01*
X164240510Y-118757657D01*
X164154989Y-118917656D01*
X164039896Y-119057896D01*
X163899656Y-119172989D01*
X163881615Y-119182632D01*
X163739658Y-119258510D01*
X163693051Y-119272648D01*
X163566048Y-119311174D01*
X163385500Y-119328956D01*
X163204953Y-119311174D01*
X163077950Y-119272648D01*
X163031343Y-119258510D01*
X162889386Y-119182632D01*
X162871345Y-119172989D01*
X162731105Y-119057896D01*
X162616012Y-118917656D01*
X162576203Y-118843180D01*
X162530490Y-118757658D01*
X162511227Y-118694157D01*
X162477826Y-118584048D01*
X162464500Y-118448744D01*
X162464500Y-117898257D01*
X162477826Y-117762953D01*
X162530490Y-117589344D01*
X162530490Y-117589343D01*
X162564432Y-117525842D01*
X162616011Y-117429345D01*
X162731104Y-117289104D01*
X162871344Y-117174011D01*
X162967948Y-117122375D01*
X163031342Y-117088490D01*
X163100152Y-117067617D01*
X163204952Y-117035826D01*
X163385500Y-117018044D01*
X163566047Y-117035826D01*
X163566047Y-117035826D01*
G37*
G36*
X161625060Y-117026466D02*
X161657883Y-117036423D01*
X161688132Y-117052592D01*
X161714648Y-117074352D01*
X161736408Y-117100868D01*
X161752577Y-117131117D01*
X161762534Y-117163940D01*
X161766500Y-117204212D01*
X161766500Y-119142788D01*
X161762534Y-119183060D01*
X161752577Y-119215883D01*
X161736408Y-119246132D01*
X161714648Y-119272648D01*
X161688132Y-119294408D01*
X161657883Y-119310577D01*
X161625060Y-119320534D01*
X161584788Y-119324500D01*
X160106212Y-119324500D01*
X160065940Y-119320534D01*
X160033117Y-119310577D01*
X160002868Y-119294408D01*
X159976352Y-119272648D01*
X159954592Y-119246132D01*
X159938423Y-119215883D01*
X159928466Y-119183060D01*
X159924500Y-119142788D01*
X159924500Y-117204212D01*
X159928466Y-117163940D01*
X159938423Y-117131117D01*
X159954592Y-117100868D01*
X159976352Y-117074352D01*
X160002868Y-117052592D01*
X160033117Y-117036423D01*
X160065940Y-117026466D01*
X160106212Y-117022500D01*
X161584788Y-117022500D01*
X161625060Y-117026466D01*
X161625060Y-117026466D01*
G37*
G36*
X127815547Y-116972326D02*
X127931286Y-117007435D01*
X127989157Y-117024990D01*
X128038768Y-117051508D01*
X128149155Y-117110511D01*
X128289396Y-117225604D01*
X128404489Y-117365844D01*
X128438430Y-117429343D01*
X128490010Y-117525842D01*
X128507565Y-117583713D01*
X128542674Y-117699452D01*
X128556000Y-117834756D01*
X128556000Y-118385243D01*
X128542674Y-118520548D01*
X128490010Y-118694157D01*
X128404489Y-118854156D01*
X128289396Y-118994396D01*
X128149156Y-119109489D01*
X128130314Y-119119560D01*
X127989158Y-119195010D01*
X127950027Y-119206880D01*
X127815548Y-119247674D01*
X127635000Y-119265456D01*
X127454453Y-119247674D01*
X127319974Y-119206880D01*
X127280843Y-119195010D01*
X127139687Y-119119560D01*
X127120845Y-119109489D01*
X126980605Y-118994396D01*
X126865512Y-118854156D01*
X126813932Y-118757657D01*
X126779990Y-118694158D01*
X126746588Y-118584045D01*
X126727326Y-118520548D01*
X126714000Y-118385244D01*
X126714000Y-117834757D01*
X126727326Y-117699453D01*
X126779990Y-117525844D01*
X126779990Y-117525843D01*
X126831570Y-117429345D01*
X126865511Y-117365845D01*
X126980604Y-117225604D01*
X127120844Y-117110511D01*
X127231231Y-117051508D01*
X127280842Y-117024990D01*
X127338713Y-117007435D01*
X127454452Y-116972326D01*
X127635000Y-116954544D01*
X127815547Y-116972326D01*
X127815547Y-116972326D01*
G37*
G36*
X135435547Y-116972326D02*
X135551286Y-117007435D01*
X135609157Y-117024990D01*
X135658768Y-117051508D01*
X135769155Y-117110511D01*
X135909396Y-117225604D01*
X136024489Y-117365844D01*
X136058430Y-117429343D01*
X136110010Y-117525842D01*
X136127565Y-117583713D01*
X136162674Y-117699452D01*
X136176000Y-117834756D01*
X136176000Y-118385243D01*
X136162674Y-118520548D01*
X136110010Y-118694157D01*
X136024489Y-118854156D01*
X135909396Y-118994396D01*
X135769156Y-119109489D01*
X135750314Y-119119560D01*
X135609158Y-119195010D01*
X135570027Y-119206880D01*
X135435548Y-119247674D01*
X135255000Y-119265456D01*
X135074453Y-119247674D01*
X134939974Y-119206880D01*
X134900843Y-119195010D01*
X134759687Y-119119560D01*
X134740845Y-119109489D01*
X134600605Y-118994396D01*
X134485512Y-118854156D01*
X134433932Y-118757657D01*
X134399990Y-118694158D01*
X134366588Y-118584045D01*
X134347326Y-118520548D01*
X134334000Y-118385244D01*
X134334000Y-117834757D01*
X134347326Y-117699453D01*
X134399990Y-117525844D01*
X134399990Y-117525843D01*
X134451570Y-117429345D01*
X134485511Y-117365845D01*
X134600604Y-117225604D01*
X134740844Y-117110511D01*
X134851231Y-117051508D01*
X134900842Y-117024990D01*
X134958713Y-117007435D01*
X135074452Y-116972326D01*
X135255000Y-116954544D01*
X135435547Y-116972326D01*
X135435547Y-116972326D01*
G37*
G36*
X132895547Y-116972326D02*
X133011286Y-117007435D01*
X133069157Y-117024990D01*
X133118768Y-117051508D01*
X133229155Y-117110511D01*
X133369396Y-117225604D01*
X133484489Y-117365844D01*
X133518430Y-117429343D01*
X133570010Y-117525842D01*
X133587565Y-117583713D01*
X133622674Y-117699452D01*
X133636000Y-117834756D01*
X133636000Y-118385243D01*
X133622674Y-118520548D01*
X133570010Y-118694157D01*
X133484489Y-118854156D01*
X133369396Y-118994396D01*
X133229156Y-119109489D01*
X133210314Y-119119560D01*
X133069158Y-119195010D01*
X133030027Y-119206880D01*
X132895548Y-119247674D01*
X132715000Y-119265456D01*
X132534453Y-119247674D01*
X132399974Y-119206880D01*
X132360843Y-119195010D01*
X132219687Y-119119560D01*
X132200845Y-119109489D01*
X132060605Y-118994396D01*
X131945512Y-118854156D01*
X131893932Y-118757657D01*
X131859990Y-118694158D01*
X131826588Y-118584045D01*
X131807326Y-118520548D01*
X131794000Y-118385244D01*
X131794000Y-117834757D01*
X131807326Y-117699453D01*
X131859990Y-117525844D01*
X131859990Y-117525843D01*
X131911570Y-117429345D01*
X131945511Y-117365845D01*
X132060604Y-117225604D01*
X132200844Y-117110511D01*
X132311231Y-117051508D01*
X132360842Y-117024990D01*
X132418713Y-117007435D01*
X132534452Y-116972326D01*
X132715000Y-116954544D01*
X132895547Y-116972326D01*
X132895547Y-116972326D01*
G37*
G36*
X130355547Y-116972326D02*
X130471286Y-117007435D01*
X130529157Y-117024990D01*
X130578768Y-117051508D01*
X130689155Y-117110511D01*
X130829396Y-117225604D01*
X130944489Y-117365844D01*
X130978430Y-117429343D01*
X131030010Y-117525842D01*
X131047565Y-117583713D01*
X131082674Y-117699452D01*
X131096000Y-117834756D01*
X131096000Y-118385243D01*
X131082674Y-118520548D01*
X131030010Y-118694157D01*
X130944489Y-118854156D01*
X130829396Y-118994396D01*
X130689156Y-119109489D01*
X130670314Y-119119560D01*
X130529158Y-119195010D01*
X130490027Y-119206880D01*
X130355548Y-119247674D01*
X130175000Y-119265456D01*
X129994453Y-119247674D01*
X129859974Y-119206880D01*
X129820843Y-119195010D01*
X129679687Y-119119560D01*
X129660845Y-119109489D01*
X129520605Y-118994396D01*
X129405512Y-118854156D01*
X129353932Y-118757657D01*
X129319990Y-118694158D01*
X129286588Y-118584045D01*
X129267326Y-118520548D01*
X129254000Y-118385244D01*
X129254000Y-117834757D01*
X129267326Y-117699453D01*
X129319990Y-117525844D01*
X129319990Y-117525843D01*
X129371570Y-117429345D01*
X129405511Y-117365845D01*
X129520604Y-117225604D01*
X129660844Y-117110511D01*
X129771231Y-117051508D01*
X129820842Y-117024990D01*
X129878713Y-117007435D01*
X129994452Y-116972326D01*
X130175000Y-116954544D01*
X130355547Y-116972326D01*
X130355547Y-116972326D01*
G37*
G36*
X125874560Y-116962966D02*
X125907383Y-116972923D01*
X125937632Y-116989092D01*
X125964148Y-117010852D01*
X125985908Y-117037368D01*
X126002077Y-117067617D01*
X126012034Y-117100440D01*
X126016000Y-117140712D01*
X126016000Y-119079288D01*
X126012034Y-119119560D01*
X126002077Y-119152383D01*
X125985908Y-119182632D01*
X125964148Y-119209148D01*
X125937632Y-119230908D01*
X125907383Y-119247077D01*
X125874560Y-119257034D01*
X125834288Y-119261000D01*
X124355712Y-119261000D01*
X124315440Y-119257034D01*
X124282617Y-119247077D01*
X124252368Y-119230908D01*
X124225852Y-119209148D01*
X124204092Y-119182632D01*
X124187923Y-119152383D01*
X124177966Y-119119560D01*
X124174000Y-119079288D01*
X124174000Y-117140712D01*
X124177966Y-117100440D01*
X124187923Y-117067617D01*
X124204092Y-117037368D01*
X124225852Y-117010852D01*
X124252368Y-116989092D01*
X124282617Y-116972923D01*
X124315440Y-116962966D01*
X124355712Y-116959000D01*
X125834288Y-116959000D01*
X125874560Y-116962966D01*
X125874560Y-116962966D01*
G37*
G36*
X156015918Y-110050934D02*
X156048424Y-110060795D01*
X156078383Y-110076808D01*
X156104641Y-110098359D01*
X156126192Y-110124617D01*
X156142205Y-110154576D01*
X156152066Y-110187082D01*
X156156000Y-110227029D01*
X156156000Y-111768971D01*
X156152066Y-111808918D01*
X156142205Y-111841424D01*
X156126192Y-111871383D01*
X156104641Y-111897641D01*
X156078383Y-111919192D01*
X156048424Y-111935205D01*
X156015918Y-111945066D01*
X155975971Y-111949000D01*
X152634029Y-111949000D01*
X152594082Y-111945066D01*
X152561576Y-111935205D01*
X152531617Y-111919192D01*
X152505359Y-111897641D01*
X152483808Y-111871383D01*
X152467795Y-111841424D01*
X152457934Y-111808918D01*
X152454000Y-111768971D01*
X152454000Y-110227029D01*
X152457934Y-110187082D01*
X152467795Y-110154576D01*
X152483808Y-110124617D01*
X152505359Y-110098359D01*
X152531617Y-110076808D01*
X152561576Y-110060795D01*
X152594082Y-110050934D01*
X152634029Y-110047000D01*
X155975971Y-110047000D01*
X156015918Y-110050934D01*
X156015918Y-110050934D01*
G37*
G36*
X119820918Y-109542934D02*
X119853424Y-109552795D01*
X119883383Y-109568808D01*
X119909641Y-109590359D01*
X119931192Y-109616617D01*
X119947205Y-109646576D01*
X119957066Y-109679082D01*
X119961000Y-109719029D01*
X119961000Y-111260971D01*
X119957066Y-111300918D01*
X119947205Y-111333424D01*
X119931192Y-111363383D01*
X119909641Y-111389641D01*
X119883383Y-111411192D01*
X119853424Y-111427205D01*
X119820918Y-111437066D01*
X119780971Y-111441000D01*
X116439029Y-111441000D01*
X116399082Y-111437066D01*
X116366576Y-111427205D01*
X116336617Y-111411192D01*
X116310359Y-111389641D01*
X116288808Y-111363383D01*
X116272795Y-111333424D01*
X116262934Y-111300918D01*
X116259000Y-111260971D01*
X116259000Y-109719029D01*
X116262934Y-109679082D01*
X116272795Y-109646576D01*
X116288808Y-109616617D01*
X116310359Y-109590359D01*
X116336617Y-109568808D01*
X116366576Y-109552795D01*
X116399082Y-109542934D01*
X116439029Y-109539000D01*
X119780971Y-109539000D01*
X119820918Y-109542934D01*
X119820918Y-109542934D01*
G37*
G36*
X155391425Y-106560760D02*
X155391428Y-106560761D01*
X155391429Y-106560761D01*
X155570693Y-106615140D01*
X155570695Y-106615141D01*
X155735905Y-106703448D01*
X155880712Y-106822288D01*
X155999552Y-106967095D01*
X156087859Y-107132305D01*
X156142240Y-107311575D01*
X156160601Y-107498000D01*
X156142240Y-107684425D01*
X156142239Y-107684428D01*
X156142239Y-107684429D01*
X156111867Y-107784553D01*
X156087859Y-107863695D01*
X155999552Y-108028905D01*
X155880712Y-108173712D01*
X155735905Y-108292552D01*
X155735903Y-108292553D01*
X155570693Y-108380860D01*
X155391429Y-108435239D01*
X155391428Y-108435239D01*
X155391425Y-108435240D01*
X155251718Y-108449000D01*
X153358282Y-108449000D01*
X153218575Y-108435240D01*
X153218572Y-108435239D01*
X153218571Y-108435239D01*
X153039307Y-108380860D01*
X152874097Y-108292553D01*
X152874095Y-108292552D01*
X152729288Y-108173712D01*
X152610448Y-108028905D01*
X152522141Y-107863695D01*
X152498134Y-107784553D01*
X152467761Y-107684429D01*
X152467761Y-107684428D01*
X152467760Y-107684425D01*
X152449399Y-107498000D01*
X152467760Y-107311575D01*
X152522141Y-107132305D01*
X152610448Y-106967095D01*
X152729288Y-106822288D01*
X152874095Y-106703448D01*
X153039305Y-106615141D01*
X153039307Y-106615140D01*
X153218571Y-106560761D01*
X153218572Y-106560761D01*
X153218575Y-106560760D01*
X153358282Y-106547000D01*
X155251718Y-106547000D01*
X155391425Y-106560760D01*
X155391425Y-106560760D01*
G37*
G36*
X119196425Y-106052760D02*
X119196428Y-106052761D01*
X119196429Y-106052761D01*
X119375693Y-106107140D01*
X119375695Y-106107141D01*
X119540905Y-106195448D01*
X119685712Y-106314288D01*
X119804552Y-106459095D01*
X119804553Y-106459097D01*
X119892860Y-106624307D01*
X119916867Y-106703448D01*
X119947240Y-106803575D01*
X119965601Y-106990000D01*
X119947240Y-107176425D01*
X119892859Y-107355695D01*
X119804552Y-107520905D01*
X119685712Y-107665712D01*
X119540905Y-107784552D01*
X119375695Y-107872859D01*
X119375693Y-107872860D01*
X119196429Y-107927239D01*
X119196428Y-107927239D01*
X119196425Y-107927240D01*
X119056718Y-107941000D01*
X117163282Y-107941000D01*
X117023575Y-107927240D01*
X117023572Y-107927239D01*
X117023571Y-107927239D01*
X116844307Y-107872860D01*
X116844305Y-107872859D01*
X116679095Y-107784552D01*
X116534288Y-107665712D01*
X116415448Y-107520905D01*
X116327141Y-107355695D01*
X116272760Y-107176425D01*
X116254399Y-106990000D01*
X116272760Y-106803575D01*
X116303133Y-106703448D01*
X116327140Y-106624307D01*
X116415447Y-106459097D01*
X116415448Y-106459095D01*
X116534288Y-106314288D01*
X116679095Y-106195448D01*
X116844305Y-106107141D01*
X116844307Y-106107140D01*
X117023571Y-106052761D01*
X117023572Y-106052761D01*
X117023575Y-106052760D01*
X117163282Y-106039000D01*
X119056718Y-106039000D01*
X119196425Y-106052760D01*
X119196425Y-106052760D01*
G37*
G36*
X155391425Y-103060760D02*
X155391428Y-103060761D01*
X155391429Y-103060761D01*
X155570693Y-103115140D01*
X155570695Y-103115141D01*
X155735905Y-103203448D01*
X155880712Y-103322288D01*
X155999552Y-103467095D01*
X156087859Y-103632305D01*
X156142240Y-103811575D01*
X156160601Y-103998000D01*
X156142240Y-104184425D01*
X156142239Y-104184428D01*
X156142239Y-104184429D01*
X156111867Y-104284553D01*
X156087859Y-104363695D01*
X155999552Y-104528905D01*
X155880712Y-104673712D01*
X155735905Y-104792552D01*
X155735903Y-104792553D01*
X155570693Y-104880860D01*
X155391429Y-104935239D01*
X155391428Y-104935239D01*
X155391425Y-104935240D01*
X155251718Y-104949000D01*
X153358282Y-104949000D01*
X153218575Y-104935240D01*
X153218572Y-104935239D01*
X153218571Y-104935239D01*
X153039307Y-104880860D01*
X152874097Y-104792553D01*
X152874095Y-104792552D01*
X152729288Y-104673712D01*
X152610448Y-104528905D01*
X152522141Y-104363695D01*
X152498134Y-104284553D01*
X152467761Y-104184429D01*
X152467761Y-104184428D01*
X152467760Y-104184425D01*
X152449399Y-103998000D01*
X152467760Y-103811575D01*
X152522141Y-103632305D01*
X152610448Y-103467095D01*
X152729288Y-103322288D01*
X152874095Y-103203448D01*
X153039305Y-103115141D01*
X153039307Y-103115140D01*
X153218571Y-103060761D01*
X153218572Y-103060761D01*
X153218575Y-103060760D01*
X153358282Y-103047000D01*
X155251718Y-103047000D01*
X155391425Y-103060760D01*
X155391425Y-103060760D01*
G37*
G36*
X119196425Y-102552760D02*
X119196428Y-102552761D01*
X119196429Y-102552761D01*
X119375693Y-102607140D01*
X119375695Y-102607141D01*
X119540905Y-102695448D01*
X119685712Y-102814288D01*
X119804552Y-102959095D01*
X119804553Y-102959097D01*
X119892860Y-103124307D01*
X119916867Y-103203448D01*
X119947240Y-103303575D01*
X119965601Y-103490000D01*
X119947240Y-103676425D01*
X119892859Y-103855695D01*
X119804552Y-104020905D01*
X119685712Y-104165712D01*
X119540905Y-104284552D01*
X119375695Y-104372859D01*
X119375693Y-104372860D01*
X119196429Y-104427239D01*
X119196428Y-104427239D01*
X119196425Y-104427240D01*
X119056718Y-104441000D01*
X117163282Y-104441000D01*
X117023575Y-104427240D01*
X117023572Y-104427239D01*
X117023571Y-104427239D01*
X116844307Y-104372860D01*
X116844305Y-104372859D01*
X116679095Y-104284552D01*
X116534288Y-104165712D01*
X116415448Y-104020905D01*
X116327141Y-103855695D01*
X116272760Y-103676425D01*
X116254399Y-103490000D01*
X116272760Y-103303575D01*
X116303133Y-103203448D01*
X116327140Y-103124307D01*
X116415447Y-102959097D01*
X116415448Y-102959095D01*
X116534288Y-102814288D01*
X116679095Y-102695448D01*
X116844305Y-102607141D01*
X116844307Y-102607140D01*
X117023571Y-102552761D01*
X117023572Y-102552761D01*
X117023575Y-102552760D01*
X117163282Y-102539000D01*
X119056718Y-102539000D01*
X119196425Y-102552760D01*
X119196425Y-102552760D01*
G37*
G36*
X154806975Y-91127892D02*
X154806977Y-91127893D01*
X154806978Y-91127893D01*
X155635207Y-91470956D01*
X156377227Y-91966759D01*
X156380596Y-91969010D01*
X157014490Y-92602904D01*
X157014492Y-92602907D01*
X157512544Y-93348293D01*
X157829016Y-94112326D01*
X157855608Y-94176525D01*
X158030500Y-95055764D01*
X158030500Y-95952236D01*
X157906132Y-96577475D01*
X157855607Y-96831478D01*
X157512544Y-97659707D01*
X157016741Y-98401727D01*
X157014490Y-98405096D01*
X156380596Y-99038990D01*
X156380593Y-99038992D01*
X155635207Y-99537044D01*
X154806978Y-99880107D01*
X154806977Y-99880107D01*
X154806975Y-99880108D01*
X153927736Y-100055000D01*
X153031264Y-100055000D01*
X152152025Y-99880108D01*
X152152023Y-99880107D01*
X152152022Y-99880107D01*
X151323793Y-99537044D01*
X150578407Y-99038992D01*
X150578404Y-99038990D01*
X149944510Y-98405096D01*
X149942259Y-98401727D01*
X149446456Y-97659707D01*
X149103393Y-96831478D01*
X149052869Y-96577475D01*
X148928500Y-95952236D01*
X148928500Y-95055764D01*
X149103392Y-94176525D01*
X149129984Y-94112326D01*
X149446456Y-93348293D01*
X149944508Y-92602907D01*
X149944510Y-92602904D01*
X150578404Y-91969010D01*
X150581773Y-91966759D01*
X151323793Y-91470956D01*
X152152022Y-91127893D01*
X152152023Y-91127893D01*
X152152025Y-91127892D01*
X153031264Y-90953000D01*
X153927736Y-90953000D01*
X154806975Y-91127892D01*
X154806975Y-91127892D01*
G37*
G36*
X119437475Y-90873892D02*
X119437477Y-90873893D01*
X119437478Y-90873893D01*
X120265707Y-91216956D01*
X121007727Y-91712759D01*
X121011096Y-91715010D01*
X121644990Y-92348904D01*
X121644992Y-92348907D01*
X122143044Y-93094293D01*
X122486107Y-93922522D01*
X122486108Y-93922525D01*
X122661000Y-94801764D01*
X122661000Y-95698236D01*
X122495063Y-96532456D01*
X122486107Y-96577478D01*
X122143044Y-97405707D01*
X121973326Y-97659707D01*
X121644990Y-98151096D01*
X121011096Y-98784990D01*
X121011093Y-98784992D01*
X120265707Y-99283044D01*
X119437478Y-99626107D01*
X119437477Y-99626107D01*
X119437475Y-99626108D01*
X118558236Y-99801000D01*
X117661764Y-99801000D01*
X116782525Y-99626108D01*
X116782523Y-99626107D01*
X116782522Y-99626107D01*
X115954293Y-99283044D01*
X115208907Y-98784992D01*
X115208904Y-98784990D01*
X114575010Y-98151096D01*
X114246674Y-97659707D01*
X114076956Y-97405707D01*
X113733893Y-96577478D01*
X113724938Y-96532456D01*
X113559000Y-95698236D01*
X113559000Y-94801764D01*
X113733892Y-93922525D01*
X113733893Y-93922522D01*
X114076956Y-93094293D01*
X114575008Y-92348907D01*
X114575010Y-92348904D01*
X115208904Y-91715010D01*
X115212273Y-91712759D01*
X115954293Y-91216956D01*
X116782522Y-90873893D01*
X116782523Y-90873893D01*
X116782525Y-90873892D01*
X117661764Y-90699000D01*
X118558236Y-90699000D01*
X119437475Y-90873892D01*
X119437475Y-90873892D01*
G37*
G36*
X179762475Y-90873892D02*
X179762477Y-90873893D01*
X179762478Y-90873893D01*
X180590707Y-91216956D01*
X181332727Y-91712759D01*
X181336096Y-91715010D01*
X181969990Y-92348904D01*
X181969992Y-92348907D01*
X182468044Y-93094293D01*
X182811107Y-93922522D01*
X182811108Y-93922525D01*
X182986000Y-94801764D01*
X182986000Y-95698236D01*
X182820063Y-96532456D01*
X182811107Y-96577478D01*
X182468044Y-97405707D01*
X182298326Y-97659707D01*
X181969990Y-98151096D01*
X181336096Y-98784990D01*
X181336093Y-98784992D01*
X180590707Y-99283044D01*
X179762478Y-99626107D01*
X179762477Y-99626107D01*
X179762475Y-99626108D01*
X178883236Y-99801000D01*
X177986764Y-99801000D01*
X177107525Y-99626108D01*
X177107523Y-99626107D01*
X177107522Y-99626107D01*
X176279293Y-99283044D01*
X175533907Y-98784992D01*
X175533904Y-98784990D01*
X174900010Y-98151096D01*
X174571674Y-97659707D01*
X174401956Y-97405707D01*
X174058893Y-96577478D01*
X174049938Y-96532456D01*
X173884000Y-95698236D01*
X173884000Y-94801764D01*
X174058892Y-93922525D01*
X174058893Y-93922522D01*
X174401956Y-93094293D01*
X174900008Y-92348907D01*
X174900010Y-92348904D01*
X175533904Y-91715010D01*
X175537273Y-91712759D01*
X176279293Y-91216956D01*
X177107522Y-90873893D01*
X177107523Y-90873893D01*
X177107525Y-90873892D01*
X177986764Y-90699000D01*
X178883236Y-90699000D01*
X179762475Y-90873892D01*
X179762475Y-90873892D01*
G37*
G36*
X144456475Y-90873892D02*
X144456477Y-90873893D01*
X144456478Y-90873893D01*
X145284707Y-91216956D01*
X146026727Y-91712759D01*
X146030096Y-91715010D01*
X146663990Y-92348904D01*
X146663992Y-92348907D01*
X147162044Y-93094293D01*
X147505107Y-93922522D01*
X147505108Y-93922525D01*
X147680000Y-94801764D01*
X147680000Y-95698236D01*
X147514063Y-96532456D01*
X147505107Y-96577478D01*
X147162044Y-97405707D01*
X146992326Y-97659707D01*
X146663990Y-98151096D01*
X146030096Y-98784990D01*
X146030093Y-98784992D01*
X145284707Y-99283044D01*
X144456478Y-99626107D01*
X144456477Y-99626107D01*
X144456475Y-99626108D01*
X143577236Y-99801000D01*
X142680764Y-99801000D01*
X141801525Y-99626108D01*
X141801523Y-99626107D01*
X141801522Y-99626107D01*
X140973293Y-99283044D01*
X140227907Y-98784992D01*
X140227904Y-98784990D01*
X139594010Y-98151096D01*
X139265674Y-97659707D01*
X139095956Y-97405707D01*
X138752893Y-96577478D01*
X138743938Y-96532456D01*
X138578000Y-95698236D01*
X138578000Y-94801764D01*
X138752892Y-93922525D01*
X138752893Y-93922522D01*
X139095956Y-93094293D01*
X139594008Y-92348907D01*
X139594010Y-92348904D01*
X140227904Y-91715010D01*
X140231273Y-91712759D01*
X140973293Y-91216956D01*
X141801522Y-90873893D01*
X141801523Y-90873893D01*
X141801525Y-90873892D01*
X142680764Y-90699000D01*
X143577236Y-90699000D01*
X144456475Y-90873892D01*
X144456475Y-90873892D01*
G37*
G36*
X167122048Y-94239326D02*
X167237787Y-94274435D01*
X167295658Y-94291990D01*
X167375407Y-94334617D01*
X167455656Y-94377511D01*
X167595896Y-94492604D01*
X167710989Y-94632844D01*
X167796510Y-94792843D01*
X167849174Y-94966452D01*
X167849992Y-94974756D01*
X167862500Y-95101756D01*
X167862500Y-95652245D01*
X167861682Y-95660546D01*
X167849174Y-95787548D01*
X167835035Y-95834157D01*
X167796510Y-95961158D01*
X167750798Y-96046679D01*
X167710989Y-96121156D01*
X167595896Y-96261396D01*
X167455655Y-96376489D01*
X167354014Y-96430817D01*
X167295657Y-96462010D01*
X167249050Y-96476148D01*
X167122047Y-96514674D01*
X166941500Y-96532456D01*
X166760952Y-96514674D01*
X166633949Y-96476148D01*
X166587342Y-96462010D01*
X166473201Y-96401000D01*
X166427344Y-96376489D01*
X166287104Y-96261396D01*
X166172011Y-96121155D01*
X166086491Y-95961158D01*
X166086490Y-95961157D01*
X166068935Y-95903286D01*
X166033826Y-95787547D01*
X166020500Y-95652243D01*
X166020500Y-95101756D01*
X166033826Y-94966452D01*
X166086490Y-94792843D01*
X166086490Y-94792842D01*
X166172013Y-94632843D01*
X166287105Y-94492604D01*
X166427344Y-94377512D01*
X166427343Y-94377512D01*
X166427345Y-94377511D01*
X166507594Y-94334617D01*
X166587343Y-94291990D01*
X166645214Y-94274435D01*
X166760953Y-94239326D01*
X166941500Y-94221544D01*
X167122048Y-94239326D01*
X167122048Y-94239326D01*
G37*
G36*
X164582048Y-94239326D02*
X164697787Y-94274435D01*
X164755658Y-94291990D01*
X164835407Y-94334617D01*
X164915656Y-94377511D01*
X165055896Y-94492604D01*
X165170989Y-94632844D01*
X165256510Y-94792843D01*
X165309174Y-94966452D01*
X165309992Y-94974756D01*
X165322500Y-95101756D01*
X165322500Y-95652245D01*
X165321682Y-95660546D01*
X165309174Y-95787548D01*
X165295035Y-95834157D01*
X165256510Y-95961158D01*
X165210798Y-96046679D01*
X165170989Y-96121156D01*
X165055896Y-96261396D01*
X164915655Y-96376489D01*
X164814014Y-96430817D01*
X164755657Y-96462010D01*
X164709050Y-96476148D01*
X164582047Y-96514674D01*
X164401500Y-96532456D01*
X164220952Y-96514674D01*
X164093949Y-96476148D01*
X164047342Y-96462010D01*
X163933201Y-96401000D01*
X163887344Y-96376489D01*
X163747104Y-96261396D01*
X163632011Y-96121155D01*
X163546491Y-95961158D01*
X163546490Y-95961157D01*
X163528935Y-95903286D01*
X163493826Y-95787547D01*
X163480500Y-95652243D01*
X163480500Y-95101756D01*
X163493826Y-94966452D01*
X163546490Y-94792843D01*
X163546490Y-94792842D01*
X163632013Y-94632843D01*
X163747105Y-94492604D01*
X163887344Y-94377512D01*
X163887343Y-94377512D01*
X163887345Y-94377511D01*
X163967594Y-94334617D01*
X164047343Y-94291990D01*
X164105214Y-94274435D01*
X164220953Y-94239326D01*
X164401500Y-94221544D01*
X164582048Y-94239326D01*
X164582048Y-94239326D01*
G37*
G36*
X170261060Y-94229966D02*
X170293883Y-94239923D01*
X170324132Y-94256092D01*
X170350648Y-94277852D01*
X170372408Y-94304368D01*
X170388577Y-94334617D01*
X170398534Y-94367440D01*
X170402500Y-94407712D01*
X170402500Y-96346288D01*
X170398534Y-96386560D01*
X170388577Y-96419383D01*
X170372408Y-96449632D01*
X170350648Y-96476148D01*
X170324132Y-96497908D01*
X170293883Y-96514077D01*
X170261060Y-96524034D01*
X170220788Y-96528000D01*
X168742212Y-96528000D01*
X168701940Y-96524034D01*
X168669117Y-96514077D01*
X168638868Y-96497908D01*
X168612352Y-96476148D01*
X168590592Y-96449632D01*
X168574423Y-96419383D01*
X168564466Y-96386560D01*
X168560500Y-96346288D01*
X168560500Y-94407712D01*
X168564466Y-94367440D01*
X168574423Y-94334617D01*
X168590592Y-94304368D01*
X168612352Y-94277852D01*
X168638868Y-94256092D01*
X168669117Y-94239923D01*
X168701940Y-94229966D01*
X168742212Y-94226000D01*
X170220788Y-94226000D01*
X170261060Y-94229966D01*
X170261060Y-94229966D01*
G37*
G36*
X130990548Y-94112326D02*
X131106287Y-94147435D01*
X131164158Y-94164990D01*
X131185738Y-94176525D01*
X131324156Y-94250511D01*
X131464396Y-94365604D01*
X131579489Y-94505844D01*
X131665010Y-94665843D01*
X131717674Y-94839452D01*
X131731000Y-94974757D01*
X131731000Y-95525244D01*
X131717674Y-95660548D01*
X131706242Y-95698234D01*
X131665010Y-95834158D01*
X131619298Y-95919679D01*
X131579489Y-95994156D01*
X131464396Y-96134396D01*
X131324155Y-96249489D01*
X131222514Y-96303817D01*
X131164157Y-96335010D01*
X131126978Y-96346288D01*
X130990547Y-96387674D01*
X130810000Y-96405456D01*
X130629452Y-96387674D01*
X130493021Y-96346288D01*
X130455842Y-96335010D01*
X130321769Y-96263346D01*
X130295844Y-96249489D01*
X130155604Y-96134396D01*
X130040511Y-95994155D01*
X129954991Y-95834158D01*
X129954990Y-95834157D01*
X129913759Y-95698236D01*
X129902326Y-95660547D01*
X129889000Y-95525243D01*
X129889000Y-94974756D01*
X129889818Y-94966455D01*
X129902326Y-94839454D01*
X129902326Y-94839452D01*
X129954990Y-94665843D01*
X129954990Y-94665842D01*
X130040513Y-94505843D01*
X130136097Y-94389375D01*
X130155605Y-94365604D01*
X130295845Y-94250511D01*
X130434263Y-94176525D01*
X130455843Y-94164990D01*
X130513714Y-94147435D01*
X130629453Y-94112326D01*
X130810000Y-94094544D01*
X130990548Y-94112326D01*
X130990548Y-94112326D01*
G37*
G36*
X128450548Y-94112326D02*
X128566287Y-94147435D01*
X128624158Y-94164990D01*
X128645738Y-94176525D01*
X128784156Y-94250511D01*
X128924396Y-94365604D01*
X129039489Y-94505844D01*
X129125010Y-94665843D01*
X129177674Y-94839452D01*
X129191000Y-94974757D01*
X129191000Y-95525244D01*
X129177674Y-95660548D01*
X129166242Y-95698234D01*
X129125010Y-95834158D01*
X129079298Y-95919679D01*
X129039489Y-95994156D01*
X128924396Y-96134396D01*
X128784155Y-96249489D01*
X128682514Y-96303817D01*
X128624157Y-96335010D01*
X128586978Y-96346288D01*
X128450547Y-96387674D01*
X128270000Y-96405456D01*
X128089452Y-96387674D01*
X127953021Y-96346288D01*
X127915842Y-96335010D01*
X127781769Y-96263346D01*
X127755844Y-96249489D01*
X127615604Y-96134396D01*
X127500511Y-95994155D01*
X127414991Y-95834158D01*
X127414990Y-95834157D01*
X127373759Y-95698236D01*
X127362326Y-95660547D01*
X127349000Y-95525243D01*
X127349000Y-94974756D01*
X127349818Y-94966455D01*
X127362326Y-94839454D01*
X127362326Y-94839452D01*
X127414990Y-94665843D01*
X127414990Y-94665842D01*
X127500513Y-94505843D01*
X127596097Y-94389375D01*
X127615605Y-94365604D01*
X127755845Y-94250511D01*
X127894263Y-94176525D01*
X127915843Y-94164990D01*
X127973714Y-94147435D01*
X128089453Y-94112326D01*
X128270000Y-94094544D01*
X128450548Y-94112326D01*
X128450548Y-94112326D01*
G37*
G36*
X134129560Y-94102966D02*
X134162383Y-94112923D01*
X134192632Y-94129092D01*
X134219148Y-94150852D01*
X134240908Y-94177368D01*
X134257077Y-94207617D01*
X134267034Y-94240440D01*
X134271000Y-94280712D01*
X134271000Y-96219288D01*
X134267034Y-96259560D01*
X134257077Y-96292383D01*
X134240908Y-96322632D01*
X134219148Y-96349148D01*
X134192632Y-96370908D01*
X134162383Y-96387077D01*
X134129560Y-96397034D01*
X134089288Y-96401000D01*
X132610712Y-96401000D01*
X132570440Y-96397034D01*
X132537617Y-96387077D01*
X132507368Y-96370908D01*
X132480852Y-96349148D01*
X132459092Y-96322632D01*
X132442923Y-96292383D01*
X132432966Y-96259560D01*
X132429000Y-96219288D01*
X132429000Y-94280712D01*
X132432966Y-94240440D01*
X132442923Y-94207617D01*
X132459092Y-94177368D01*
X132480852Y-94150852D01*
X132507368Y-94129092D01*
X132537617Y-94112923D01*
X132570440Y-94102966D01*
X132610712Y-94099000D01*
X134089288Y-94099000D01*
X134129560Y-94102966D01*
X134129560Y-94102966D01*
G37*
M02*
