M48
; DRILL file {KiCad (5.1.5)-3} date 27/03/2020 07:44:43
; FORMAT={-:-/ absolute / inch / decimal}
; #@! TF.CreationDate,2020-03-27T07:44:43+01:00
; #@! TF.GenerationSoftware,Kicad,Pcbnew,(5.1.5)-3
; #@! TF.FileFunction,Plated,1,2,PTH
FMAT,2
INCH
T1C0.0157
T2C0.0197
T3C0.0472
T4C0.1969
%
G90
G05
T1
X1.49Y-3.4451
X1.49Y-4.6051
X1.49Y-5.7751
X1.57Y-3.56
X1.57Y-4.72
X1.57Y-5.89
X1.65Y-3.66
X1.65Y-4.82
X1.65Y-5.99
X1.78Y-3.5
X1.78Y-4.66
X1.78Y-5.83
X3.14Y-3.4451
X3.14Y-4.6051
X3.14Y-5.7751
X3.22Y-3.56
X3.22Y-4.72
X3.22Y-5.89
X3.3Y-3.66
X3.3Y-4.82
X3.3Y-5.99
X3.43Y-3.5
X3.43Y-4.66
X3.43Y-5.83
T2
X1.82Y-3.86
X1.82Y-5.02
X1.82Y-6.19
X1.865Y-3.625
X1.865Y-4.785
X1.865Y-5.955
X2.05Y-3.45
X2.05Y-4.61
X2.05Y-5.78
X2.53Y-3.625
X2.53Y-4.785
X2.53Y-5.955
X3.47Y-3.86
X3.47Y-5.02
X3.47Y-6.19
X3.515Y-3.625
X3.515Y-4.785
X3.515Y-5.955
X3.7Y-3.45
X3.7Y-4.61
X3.7Y-5.78
X4.18Y-3.625
X4.18Y-4.785
X4.18Y-5.955
T3
X4.305Y-4.71
X4.305Y-4.81
X4.305Y-4.91
X4.305Y-5.01
X2.655Y-5.88
X2.655Y-5.98
X2.655Y-6.08
X2.655Y-6.18
X1.39Y-4.55
X1.39Y-4.65
X1.39Y-4.75
X1.39Y-4.85
X1.39Y-4.95
X1.39Y-5.05
X3.58Y-5.47
X3.7178Y-5.47
X3.04Y-4.55
X3.04Y-4.65
X3.04Y-4.75
X3.04Y-4.85
X3.04Y-4.95
X3.04Y-5.05
X1.93Y-3.14
X2.0678Y-3.14
X1.93Y-5.47
X2.0678Y-5.47
X1.39Y-5.72
X1.39Y-5.82
X1.39Y-5.92
X1.39Y-6.02
X1.39Y-6.12
X1.39Y-6.22
X3.04Y-3.39
X3.04Y-3.49
X3.04Y-3.59
X3.04Y-3.69
X3.04Y-3.79
X3.04Y-3.89
X4.305Y-5.88
X4.305Y-5.98
X4.305Y-6.08
X4.305Y-6.18
X3.04Y-5.72
X3.04Y-5.82
X3.04Y-5.92
X3.04Y-6.02
X3.04Y-6.12
X3.04Y-6.22
X4.305Y-3.55
X4.305Y-3.65
X4.305Y-3.75
X4.305Y-3.85
X2.655Y-4.71
X2.655Y-4.81
X2.655Y-4.91
X2.655Y-5.01
X2.655Y-3.55
X2.655Y-3.65
X2.655Y-3.75
X2.655Y-3.85
X3.58Y-3.14
X3.7178Y-3.14
X1.93Y-4.3
X2.0678Y-4.3
X3.58Y-4.3
X3.7178Y-4.3
X1.39Y-3.39
X1.39Y-3.49
X1.39Y-3.59
X1.39Y-3.69
X1.39Y-3.79
X1.39Y-3.89
T4
X1.41Y-3.1
X1.41Y-4.26
X1.41Y-5.43
X2.59Y-3.1
X2.59Y-4.26
X2.59Y-5.43
X3.06Y-3.1
X3.06Y-4.26
X3.06Y-5.43
X4.24Y-3.1
X4.24Y-4.26
X4.24Y-5.43
T0
M30
