M48
METRIC,TZ
T1C0.600
T2C0.800
T3C1.000
T4C3.000
T5C4.000
%
G90
G05
T1
X68961Y-39878
X68961Y-118872
X73381Y-114148
X74574Y-115341
X75108Y-87325
X75209Y-100482
X75336Y-93726
X75413Y-107340
X76810Y-68275
X76987Y-75870
X77394Y-54661
X79756Y-58776
X79756Y-86741
X82677Y-78740
X85319Y-63602
X87503Y-66866
X88519Y-101854
X88646Y-97663
X89764Y-66853
X90018Y-64694
X91758Y-60579
X92075Y-99886
X94234Y-95123
X94615Y-79477
X94615Y-81280
X94717Y-77622
X95301Y-58572
X95885Y-93853
X97104Y-69799
X97790Y-82550
X98044Y-71755
X98044Y-85090
X99568Y-73127
X100076Y-92710
X100584Y-108839
X100686Y-58623
X100838Y-106553
X101143Y-70104
X102337Y-71831
X102489Y-58674
X104267Y-107696
X104775Y-80493
X104775Y-95568
X105918Y-56769
X106324Y-92913
X106426Y-89662
X106553Y-95504
X108077Y-91821
X113284Y-90170
X113284Y-91948
X115164Y-90195
X115164Y-91948
X116586Y-86360
X116713Y-76200
X122936Y-63246
X122966Y-117282
X123190Y-65786
X123825Y-67564
X123927Y-115590
X123952Y-109982
X124602Y-107188
X126746Y-102489
X126746Y-104394
X129306Y-112227
X131064Y-96774
X131826Y-100330
X132969Y-63754
X133223Y-97028
X135179Y-71933
X135255Y-102235
X135280Y-75006
X135382Y-106807
X135509Y-62357
X136906Y-111125
X137465Y-62078
X138557Y-81026
X138684Y-84328
X139827Y-95250
X140017Y-109283
X140233Y-73736
X140272Y-118961
X140386Y-76530
X141072Y-60833
X141097Y-82677
X141097Y-93853
X141097Y-105156
X142011Y-59284
X142367Y-98679
X142367Y-114363
X142850Y-76505
X142875Y-111887
X143383Y-56515
X143383Y-67056
X143383Y-74549
X144094Y-50394
X144399Y-69977
X144526Y-110617
X144704Y-57607
X145796Y-75057
X146685Y-98933
X146939Y-87884
X147396Y-112903
X147828Y-39878
X147955Y-118872
X148590Y-70866
X149225Y-111379
X149250Y-109499
X151130Y-109499
X151155Y-111379
T2
X111379Y-108585
X112649Y-111125
X113919Y-108585
X115189Y-111125
X116459Y-108585
X117729Y-111125
T3
X65913Y-94107
X65913Y-101092
X65913Y-108077
X66040Y-52578
X66040Y-59436
X66040Y-73406
X66040Y-80391
X66040Y-87249
X66167Y-66421
X68453Y-94107
X68453Y-101092
X68453Y-108077
X68580Y-52578
X68580Y-59436
X68580Y-73406
X68580Y-80391
X68580Y-87249
X68707Y-66421
X70993Y-94107
X70993Y-101092
X70993Y-108077
X71120Y-52578
X71120Y-59436
X71120Y-73406
X71120Y-80391
X71120Y-87249
X71247Y-66421
X79121Y-43307
X79121Y-45847
X79502Y-115570
X79502Y-118110
X81661Y-43307
X81661Y-45847
X82042Y-115570
X82042Y-118110
X84201Y-43307
X84201Y-45847
X84582Y-115570
X84582Y-118110
X86741Y-43307
X86741Y-45847
X87122Y-115570
X87122Y-118110
X87503Y-73660
X87503Y-76200
X87503Y-78740
X87503Y-81280
X87503Y-83820
X87503Y-86360
X87503Y-88900
X87503Y-91440
X89281Y-43307
X89281Y-45847
X89662Y-115570
X89662Y-118110
X90043Y-73660
X90043Y-76200
X90043Y-78740
X90043Y-81280
X90043Y-83820
X90043Y-86360
X90043Y-88900
X90043Y-91440
X91821Y-43307
X91821Y-45847
X92202Y-115570
X92202Y-118110
X94361Y-43307
X94361Y-45847
X94742Y-115570
X94742Y-118110
X96901Y-43307
X96901Y-45847
X97282Y-115570
X97282Y-118110
X98298Y-62738
X98298Y-65278
X98298Y-99946
X98298Y-102486
X100838Y-62738
X100838Y-65278
X100838Y-99946
X100838Y-102486
X103378Y-62738
X103378Y-65278
X103378Y-99946
X103378Y-102486
X105918Y-62738
X105918Y-65278
X105918Y-99946
X105918Y-102486
X107823Y-43307
X107823Y-45847
X108458Y-62738
X108458Y-65278
X108458Y-99946
X108458Y-102486
X110363Y-43307
X110363Y-45847
X110998Y-62738
X110998Y-65278
X110998Y-99946
X110998Y-102486
X112903Y-43307
X112903Y-45847
X113538Y-62738
X113538Y-65278
X113538Y-99946
X113538Y-102486
X115443Y-43307
X115443Y-45847
X116078Y-62738
X116078Y-65278
X116078Y-99946
X116078Y-102486
X117983Y-43307
X117983Y-45847
X120523Y-43307
X120523Y-45847
X120904Y-73660
X120904Y-76200
X120904Y-78740
X120904Y-81280
X120904Y-83820
X120904Y-86360
X120904Y-88900
X120904Y-91440
X123063Y-43307
X123063Y-45847
X123444Y-73660
X123444Y-76200
X123444Y-78740
X123444Y-81280
X123444Y-83820
X123444Y-86360
X123444Y-88900
X123444Y-91440
X125603Y-43307
X125603Y-45847
X127254Y-115570
X127254Y-118110
X128143Y-43307
X128143Y-45847
X129794Y-115570
X129794Y-118110
X130683Y-43307
X130683Y-45847
X132334Y-115570
X132334Y-118110
X133223Y-43307
X133223Y-45847
X134874Y-115570
X134874Y-118110
X135763Y-43307
X135763Y-45847
X137414Y-115570
X137414Y-118110
X138303Y-43307
X138303Y-45847
X148971Y-47879
X148971Y-50419
X148971Y-52959
X148971Y-55499
X148971Y-58928
X148971Y-61468
X148971Y-64008
X148971Y-66548
X149225Y-75057
X149225Y-77597
X149225Y-80137
X149225Y-82677
X149225Y-85852
X149225Y-88392
X149225Y-90932
X149225Y-93472
X149225Y-96647
X149225Y-99187
X149225Y-101727
X149225Y-104267
T4
X109474Y-117475
X119634Y-117475
T5
X68961Y-39878
X68961Y-118872
X147828Y-39878
X147955Y-118872
T0
M30
