G04 #@! TF.FileFunction,Soldermask,Bot*
%FSLAX46Y46*%
G04 Gerber Fmt 4.6, Leading zero omitted, Abs format (unit mm)*
G04 Created by KiCad (PCBNEW 4.0.6) date 01/14/18 21:20:21*
%MOMM*%
%LPD*%
G01*
G04 APERTURE LIST*
%ADD10C,0.150000*%
%ADD11O,2.080000X2.600000*%
%ADD12R,1.900000X2.400000*%
%ADD13R,1.200000X4.400000*%
%ADD14R,2.400000X1.900000*%
%ADD15R,2.400000X1.924000*%
%ADD16O,2.200000X2.600000*%
%ADD17R,2.200000X2.600000*%
%ADD18C,2.400000*%
%ADD19R,2.299920X2.500580*%
%ADD20C,2.500580*%
%ADD21R,2.398980X2.398980*%
%ADD22C,2.398980*%
%ADD23R,2.100000X2.299920*%
%ADD24R,0.900000X1.300000*%
%ADD25R,1.300000X0.900000*%
%ADD26R,1.200000X1.150000*%
%ADD27R,0.648920X1.400760*%
%ADD28C,2.100000*%
%ADD29C,5.400000*%
%ADD30R,2.100000X2.600000*%
%ADD31R,2.080000X2.600000*%
%ADD32R,2.630000X2.200000*%
%ADD33R,1.200100X1.200100*%
G04 APERTURE END LIST*
D10*
D11*
X138303000Y-45847000D03*
X138303000Y-43307000D03*
X135763000Y-43307000D03*
X135763000Y-45847000D03*
X133223000Y-45847000D03*
X133223000Y-43307000D03*
X130683000Y-43307000D03*
X130683000Y-45847000D03*
X128143000Y-45847000D03*
X128143000Y-43307000D03*
X125603000Y-43307000D03*
X125603000Y-45847000D03*
X123063000Y-45847000D03*
X123063000Y-43307000D03*
X120523000Y-43307000D03*
X120523000Y-45847000D03*
X117983000Y-45847000D03*
X117983000Y-43307000D03*
X115443000Y-43307000D03*
X115443000Y-45847000D03*
D12*
X107823000Y-45847000D03*
D11*
X107823000Y-43307000D03*
X110363000Y-45847000D03*
X110363000Y-43307000D03*
X112903000Y-45847000D03*
X112903000Y-43307000D03*
D13*
X107823000Y-49281000D03*
X107823000Y-55621000D03*
X110363000Y-49281000D03*
X110363000Y-55621000D03*
X112903000Y-49281000D03*
X112903000Y-55621000D03*
X115443000Y-49281000D03*
X115443000Y-55621000D03*
X117983000Y-49281000D03*
X117983000Y-55621000D03*
X120523000Y-49281000D03*
X120523000Y-55621000D03*
X123063000Y-49281000D03*
X123063000Y-55621000D03*
X125603000Y-49281000D03*
X125603000Y-55621000D03*
X128143000Y-49281000D03*
X128143000Y-55621000D03*
X130683000Y-49281000D03*
X130683000Y-55621000D03*
X133223000Y-49281000D03*
X133223000Y-55621000D03*
X135763000Y-49281000D03*
X135763000Y-55621000D03*
X138303000Y-49281000D03*
X138303000Y-55621000D03*
D14*
X108458000Y-72390000D03*
X105410000Y-72390000D03*
D15*
X108458000Y-77978000D03*
X105410000Y-77978000D03*
D16*
X96901000Y-43307000D03*
X96901000Y-45847000D03*
X94361000Y-45847000D03*
X94361000Y-43307000D03*
X91821000Y-43307000D03*
X91821000Y-45847000D03*
X89281000Y-45847000D03*
X89281000Y-43307000D03*
X86741000Y-43307000D03*
X86741000Y-45847000D03*
D17*
X79121000Y-45847000D03*
D16*
X79121000Y-43307000D03*
X81661000Y-45847000D03*
X81661000Y-43307000D03*
X84201000Y-45847000D03*
X84201000Y-43307000D03*
D18*
X147828000Y-39878000D03*
X68961000Y-118872000D03*
X147955000Y-118872000D03*
X68961000Y-39878000D03*
D19*
X66040000Y-52578000D03*
D20*
X68580000Y-52578000D03*
X71120000Y-52578000D03*
D19*
X66040000Y-59436000D03*
D20*
X68580000Y-59436000D03*
X71120000Y-59436000D03*
D19*
X66167000Y-66421000D03*
D20*
X68707000Y-66421000D03*
X71247000Y-66421000D03*
D19*
X66040000Y-73406000D03*
D20*
X68580000Y-73406000D03*
X71120000Y-73406000D03*
D19*
X66040000Y-80391000D03*
D20*
X68580000Y-80391000D03*
X71120000Y-80391000D03*
D19*
X66040000Y-87249000D03*
D20*
X68580000Y-87249000D03*
X71120000Y-87249000D03*
D19*
X65913000Y-94107000D03*
D20*
X68453000Y-94107000D03*
X70993000Y-94107000D03*
D19*
X65913000Y-101092000D03*
D20*
X68453000Y-101092000D03*
X70993000Y-101092000D03*
D19*
X65913000Y-108077000D03*
D20*
X68453000Y-108077000D03*
X70993000Y-108077000D03*
D21*
X148971000Y-55499000D03*
D22*
X148971000Y-52959000D03*
X148971000Y-50419000D03*
X148971000Y-47879000D03*
D21*
X149225000Y-82677000D03*
D22*
X149225000Y-80137000D03*
X149225000Y-77597000D03*
X149225000Y-75057000D03*
D21*
X149225000Y-104267000D03*
D22*
X149225000Y-101727000D03*
X149225000Y-99187000D03*
X149225000Y-96647000D03*
D21*
X148971000Y-66548000D03*
D22*
X148971000Y-64008000D03*
X148971000Y-61468000D03*
X148971000Y-58928000D03*
D21*
X149225000Y-93472000D03*
D22*
X149225000Y-90932000D03*
X149225000Y-88392000D03*
X149225000Y-85852000D03*
D23*
X116078000Y-99946460D03*
X116078000Y-102486460D03*
X113538000Y-99946460D03*
X113538000Y-102486460D03*
X110998000Y-99946460D03*
X110998000Y-102486460D03*
X108458000Y-99946460D03*
X108458000Y-102486460D03*
X105918000Y-99946460D03*
X105918000Y-102486460D03*
X103378000Y-99946460D03*
X103378000Y-102486460D03*
X100838000Y-99946460D03*
X100838000Y-102486460D03*
X98298000Y-99946460D03*
X98298000Y-102486460D03*
X116078000Y-62738000D03*
X116078000Y-65278000D03*
X113538000Y-62738000D03*
X113538000Y-65278000D03*
X110998000Y-62738000D03*
X110998000Y-65278000D03*
X108458000Y-62738000D03*
X108458000Y-65278000D03*
X105918000Y-62738000D03*
X105918000Y-65278000D03*
X103378000Y-62738000D03*
X103378000Y-65278000D03*
X100838000Y-62738000D03*
X100838000Y-65278000D03*
X98298000Y-62738000D03*
X98298000Y-65278000D03*
X120904000Y-73660000D03*
X123444000Y-73660000D03*
X120904000Y-76200000D03*
X123444000Y-76200000D03*
X120904000Y-78740000D03*
X123444000Y-78740000D03*
X120904000Y-81280000D03*
X123444000Y-81280000D03*
X120904000Y-83820000D03*
X123444000Y-83820000D03*
X120904000Y-86360000D03*
X123444000Y-86360000D03*
X120904000Y-88900000D03*
X123444000Y-88900000D03*
X120904000Y-91440000D03*
X123444000Y-91440000D03*
X87503000Y-91440000D03*
X90043000Y-91440000D03*
X87503000Y-88900000D03*
X90043000Y-88900000D03*
X87503000Y-86360000D03*
X90043000Y-86360000D03*
X87503000Y-83820000D03*
X90043000Y-83820000D03*
X87503000Y-81280000D03*
X90043000Y-81280000D03*
X87503000Y-78740000D03*
X90043000Y-78740000D03*
X87503000Y-76200000D03*
X90043000Y-76200000D03*
X87503000Y-73660000D03*
X90043000Y-73660000D03*
D24*
X71132000Y-54991000D03*
X72632000Y-54991000D03*
X144133000Y-93853000D03*
X142633000Y-93853000D03*
X146038000Y-98679000D03*
X144538000Y-98679000D03*
X144133000Y-105156000D03*
X142633000Y-105156000D03*
X143117000Y-96647000D03*
X141617000Y-96647000D03*
X146038000Y-96647000D03*
X144538000Y-96647000D03*
X146038000Y-87884000D03*
X144538000Y-87884000D03*
X146038000Y-77089000D03*
X144538000Y-77089000D03*
X142609000Y-82677000D03*
X141109000Y-82677000D03*
X143117000Y-72771000D03*
X141617000Y-72771000D03*
X70092000Y-90297000D03*
X68592000Y-90297000D03*
X69965000Y-97282000D03*
X68465000Y-97282000D03*
X73926000Y-54991000D03*
X75426000Y-54991000D03*
X146038000Y-72771000D03*
X144538000Y-72771000D03*
D25*
X135204200Y-67120200D03*
X135204200Y-65620200D03*
X136804400Y-67120200D03*
X136804400Y-65620200D03*
D24*
X145784000Y-54102000D03*
X144284000Y-54102000D03*
D25*
X145796000Y-46367000D03*
X145796000Y-47867000D03*
X145796000Y-51931000D03*
X145796000Y-50431000D03*
D24*
X70473000Y-110617000D03*
X68973000Y-110617000D03*
X69965000Y-104267000D03*
X68465000Y-104267000D03*
X70092000Y-83439000D03*
X68592000Y-83439000D03*
D25*
X75311000Y-111367000D03*
X75311000Y-109867000D03*
X75311000Y-105017000D03*
X75311000Y-103517000D03*
X75311000Y-98032000D03*
X75311000Y-96532000D03*
X75311000Y-91047000D03*
X75311000Y-89547000D03*
D24*
X136537000Y-73558400D03*
X138037000Y-73558400D03*
D25*
X75311000Y-84189000D03*
X75311000Y-82689000D03*
X140284200Y-71311200D03*
X140284200Y-69811200D03*
D24*
X73926000Y-75819000D03*
X75426000Y-75819000D03*
X71132000Y-75819000D03*
X72632000Y-75819000D03*
D25*
X142621000Y-85840000D03*
X142621000Y-84340000D03*
D24*
X73926000Y-68961000D03*
X75426000Y-68961000D03*
X71132000Y-68961000D03*
X72632000Y-68961000D03*
X145784000Y-65024000D03*
X144284000Y-65024000D03*
X144284000Y-83820000D03*
X145784000Y-83820000D03*
X73926000Y-62992000D03*
X75426000Y-62992000D03*
X71132000Y-62992000D03*
X72632000Y-62992000D03*
D25*
X146786600Y-57441400D03*
X146786600Y-58941400D03*
X145796000Y-62980000D03*
X145796000Y-61480000D03*
D26*
X108065000Y-80518000D03*
X106565000Y-80518000D03*
X106160000Y-69773800D03*
X104660000Y-69773800D03*
D27*
X140411200Y-52247800D03*
X140919200Y-52247800D03*
X141427200Y-52247800D03*
X141935200Y-52247800D03*
X140411200Y-49352200D03*
X140919200Y-49352200D03*
X141427200Y-49352200D03*
X141935200Y-49352200D03*
X139827000Y-66294000D03*
X140335000Y-66294000D03*
X140843000Y-66294000D03*
X141351000Y-66294000D03*
X139827000Y-63398400D03*
X140335000Y-63398400D03*
X140843000Y-63398400D03*
X141351000Y-63398400D03*
D28*
X115189000Y-111125000D03*
X112649000Y-111125000D03*
X117729000Y-111125000D03*
X111379000Y-108585000D03*
X113919000Y-108585000D03*
X116459000Y-108585000D03*
D29*
X119634000Y-117475000D03*
X109474000Y-117475000D03*
D11*
X97282000Y-115570000D03*
X97282000Y-118110000D03*
X94742000Y-115570000D03*
X94742000Y-118110000D03*
X92202000Y-115570000D03*
X92202000Y-118110000D03*
X89662000Y-115570000D03*
X89662000Y-118110000D03*
X87122000Y-115570000D03*
X87122000Y-118110000D03*
X84582000Y-115570000D03*
X84582000Y-118110000D03*
X82042000Y-115570000D03*
X82042000Y-118110000D03*
D30*
X79502000Y-115570000D03*
D11*
X79502000Y-118110000D03*
X137414000Y-115570000D03*
X137414000Y-118110000D03*
X134874000Y-115570000D03*
X134874000Y-118110000D03*
X132334000Y-115570000D03*
X132334000Y-118110000D03*
X129794000Y-115570000D03*
X129794000Y-118110000D03*
D31*
X127254000Y-115570000D03*
D11*
X127254000Y-118110000D03*
D32*
X82550000Y-84137000D03*
X82550000Y-81217000D03*
D13*
X79095600Y-49230200D03*
X79095600Y-55570200D03*
X81635600Y-49230200D03*
X81635600Y-55570200D03*
X84175600Y-49230200D03*
X84175600Y-55570200D03*
X86715600Y-49230200D03*
X86715600Y-55570200D03*
X89255600Y-49230200D03*
X89255600Y-55570200D03*
X91795600Y-49230200D03*
X91795600Y-55570200D03*
X94335600Y-49230200D03*
X94335600Y-55570200D03*
X96875600Y-49230200D03*
X96875600Y-55570200D03*
D33*
X73517760Y-96332000D03*
X73517760Y-98232000D03*
X71518780Y-97282000D03*
X73517760Y-89347000D03*
X73517760Y-91247000D03*
X71518780Y-90297000D03*
X73390760Y-103317000D03*
X73390760Y-105217000D03*
X71391780Y-104267000D03*
X73644760Y-82489000D03*
X73644760Y-84389000D03*
X71645780Y-83439000D03*
X73517760Y-109667000D03*
X73517760Y-111567000D03*
X71518780Y-110617000D03*
X139842240Y-81087000D03*
X139842240Y-79187000D03*
X141841220Y-80137000D03*
X144033240Y-81087000D03*
X144033240Y-79187000D03*
X146032220Y-80137000D03*
X139842240Y-102677000D03*
X139842240Y-100777000D03*
X141841220Y-101727000D03*
X144160240Y-102677000D03*
X144160240Y-100777000D03*
X146159220Y-101727000D03*
X144033240Y-91882000D03*
X144033240Y-89982000D03*
X146032220Y-90932000D03*
X139842240Y-91882000D03*
X139842240Y-89982000D03*
X141841220Y-90932000D03*
X129347000Y-110220760D03*
X127447000Y-110220760D03*
X128397000Y-108221780D03*
M02*
