G04 #@! TF.FileFunction,Copper,L1,Top,Signal*
%FSLAX46Y46*%
G04 Gerber Fmt 4.6, Leading zero omitted, Abs format (unit mm)*
G04 Created by KiCad (PCBNEW 4.0.6) date 01/14/18 21:20:21*
%MOMM*%
%LPD*%
G01*
G04 APERTURE LIST*
%ADD10C,0.150000*%
%ADD11C,0.300000*%
%ADD12O,1.680000X2.200000*%
%ADD13R,1.500000X2.000000*%
%ADD14O,1.800000X2.200000*%
%ADD15R,1.800000X2.200000*%
%ADD16C,8.999220*%
%ADD17C,2.000000*%
%ADD18R,1.899920X2.100580*%
%ADD19C,2.100580*%
%ADD20R,1.998980X1.998980*%
%ADD21C,1.998980*%
%ADD22R,1.700000X1.899920*%
%ADD23R,0.406400X1.270000*%
%ADD24C,1.700000*%
%ADD25C,5.000000*%
%ADD26R,1.700000X2.200000*%
%ADD27R,1.680000X2.200000*%
%ADD28R,1.300480X2.301240*%
%ADD29R,3.599180X1.600200*%
%ADD30R,1.600200X3.599180*%
%ADD31C,1.300000*%
%ADD32C,1.000000*%
%ADD33C,0.700000*%
%ADD34C,0.350000*%
%ADD35C,0.254000*%
%ADD36C,0.500000*%
G04 APERTURE END LIST*
D10*
D11*
X128191001Y-86036571D02*
X128333858Y-86036571D01*
X128476715Y-86108000D01*
X128548144Y-86179429D01*
X128619573Y-86322286D01*
X128691001Y-86608000D01*
X128691001Y-86965143D01*
X128619573Y-87250857D01*
X128548144Y-87393714D01*
X128476715Y-87465143D01*
X128333858Y-87536571D01*
X128191001Y-87536571D01*
X128048144Y-87465143D01*
X127976715Y-87393714D01*
X127905287Y-87250857D01*
X127833858Y-86965143D01*
X127833858Y-86608000D01*
X127905287Y-86322286D01*
X127976715Y-86179429D01*
X128048144Y-86108000D01*
X128191001Y-86036571D01*
X130119572Y-87536571D02*
X129262429Y-87536571D01*
X129691001Y-87536571D02*
X129691001Y-86036571D01*
X129548144Y-86250857D01*
X129405286Y-86393714D01*
X129262429Y-86465143D01*
X131833857Y-85965143D02*
X130548143Y-87893714D01*
X133119572Y-87536571D02*
X132262429Y-87536571D01*
X132691001Y-87536571D02*
X132691001Y-86036571D01*
X132548144Y-86250857D01*
X132405286Y-86393714D01*
X132262429Y-86465143D01*
X133976715Y-86679429D02*
X133833857Y-86608000D01*
X133762429Y-86536571D01*
X133691000Y-86393714D01*
X133691000Y-86322286D01*
X133762429Y-86179429D01*
X133833857Y-86108000D01*
X133976715Y-86036571D01*
X134262429Y-86036571D01*
X134405286Y-86108000D01*
X134476715Y-86179429D01*
X134548143Y-86322286D01*
X134548143Y-86393714D01*
X134476715Y-86536571D01*
X134405286Y-86608000D01*
X134262429Y-86679429D01*
X133976715Y-86679429D01*
X133833857Y-86750857D01*
X133762429Y-86822286D01*
X133691000Y-86965143D01*
X133691000Y-87250857D01*
X133762429Y-87393714D01*
X133833857Y-87465143D01*
X133976715Y-87536571D01*
X134262429Y-87536571D01*
X134405286Y-87465143D01*
X134476715Y-87393714D01*
X134548143Y-87250857D01*
X134548143Y-86965143D01*
X134476715Y-86822286D01*
X134405286Y-86750857D01*
X134262429Y-86679429D01*
X128512429Y-89300857D02*
X128012429Y-89300857D01*
X128012429Y-90086571D02*
X128012429Y-88586571D01*
X128726715Y-88586571D01*
X129941000Y-89086571D02*
X129941000Y-90086571D01*
X129583857Y-88515143D02*
X129226714Y-89586571D01*
X130155286Y-89586571D01*
X130726714Y-90086571D02*
X130726714Y-88586571D01*
X131083857Y-88586571D01*
X131298142Y-88658000D01*
X131441000Y-88800857D01*
X131512428Y-88943714D01*
X131583857Y-89229429D01*
X131583857Y-89443714D01*
X131512428Y-89729429D01*
X131441000Y-89872286D01*
X131298142Y-90015143D01*
X131083857Y-90086571D01*
X130726714Y-90086571D01*
X132226714Y-89300857D02*
X132726714Y-89300857D01*
X132941000Y-90086571D02*
X132226714Y-90086571D01*
X132226714Y-88586571D01*
X132941000Y-88586571D01*
X134083857Y-89300857D02*
X134298143Y-89372286D01*
X134369571Y-89443714D01*
X134441000Y-89586571D01*
X134441000Y-89800857D01*
X134369571Y-89943714D01*
X134298143Y-90015143D01*
X134155285Y-90086571D01*
X133583857Y-90086571D01*
X133583857Y-88586571D01*
X134083857Y-88586571D01*
X134226714Y-88658000D01*
X134298143Y-88729429D01*
X134369571Y-88872286D01*
X134369571Y-89015143D01*
X134298143Y-89158000D01*
X134226714Y-89229429D01*
X134083857Y-89300857D01*
X133583857Y-89300857D01*
X127619572Y-91136571D02*
X128119572Y-92636571D01*
X128619572Y-91136571D01*
X129905286Y-92636571D02*
X129048143Y-92636571D01*
X129476715Y-92636571D02*
X129476715Y-91136571D01*
X129333858Y-91350857D01*
X129191000Y-91493714D01*
X129048143Y-91565143D01*
X130548143Y-92065143D02*
X131691000Y-92065143D01*
X132691000Y-91136571D02*
X132833857Y-91136571D01*
X132976714Y-91208000D01*
X133048143Y-91279429D01*
X133119572Y-91422286D01*
X133191000Y-91708000D01*
X133191000Y-92065143D01*
X133119572Y-92350857D01*
X133048143Y-92493714D01*
X132976714Y-92565143D01*
X132833857Y-92636571D01*
X132691000Y-92636571D01*
X132548143Y-92565143D01*
X132476714Y-92493714D01*
X132405286Y-92350857D01*
X132333857Y-92065143D01*
X132333857Y-91708000D01*
X132405286Y-91422286D01*
X132476714Y-91279429D01*
X132548143Y-91208000D01*
X132691000Y-91136571D01*
X134619571Y-92636571D02*
X133762428Y-92636571D01*
X134191000Y-92636571D02*
X134191000Y-91136571D01*
X134048143Y-91350857D01*
X133905285Y-91493714D01*
X133762428Y-91565143D01*
X98973571Y-84239571D02*
X98973571Y-82739571D01*
X99473571Y-83811000D01*
X99973571Y-82739571D01*
X99973571Y-84239571D01*
X100687857Y-83453857D02*
X101187857Y-83453857D01*
X101402143Y-84239571D02*
X100687857Y-84239571D01*
X100687857Y-82739571D01*
X101402143Y-82739571D01*
X102902143Y-84096714D02*
X102830714Y-84168143D01*
X102616428Y-84239571D01*
X102473571Y-84239571D01*
X102259286Y-84168143D01*
X102116428Y-84025286D01*
X102045000Y-83882429D01*
X101973571Y-83596714D01*
X101973571Y-83382429D01*
X102045000Y-83096714D01*
X102116428Y-82953857D01*
X102259286Y-82811000D01*
X102473571Y-82739571D01*
X102616428Y-82739571D01*
X102830714Y-82811000D01*
X102902143Y-82882429D01*
X103545000Y-84239571D02*
X103545000Y-82739571D01*
X103545000Y-83453857D02*
X104402143Y-83453857D01*
X104402143Y-84239571D02*
X104402143Y-82739571D01*
X105045000Y-83811000D02*
X105759286Y-83811000D01*
X104902143Y-84239571D02*
X105402143Y-82739571D01*
X105902143Y-84239571D01*
X106402143Y-84239571D02*
X106402143Y-82739571D01*
X107259286Y-84239571D01*
X107259286Y-82739571D01*
X107973572Y-84239571D02*
X107973572Y-82739571D01*
X109545001Y-84096714D02*
X109473572Y-84168143D01*
X109259286Y-84239571D01*
X109116429Y-84239571D01*
X108902144Y-84168143D01*
X108759286Y-84025286D01*
X108687858Y-83882429D01*
X108616429Y-83596714D01*
X108616429Y-83382429D01*
X108687858Y-83096714D01*
X108759286Y-82953857D01*
X108902144Y-82811000D01*
X109116429Y-82739571D01*
X109259286Y-82739571D01*
X109473572Y-82811000D01*
X109545001Y-82882429D01*
X110116429Y-83811000D02*
X110830715Y-83811000D01*
X109973572Y-84239571D02*
X110473572Y-82739571D01*
X110973572Y-84239571D01*
X112187858Y-84239571D02*
X111473572Y-84239571D01*
X111473572Y-82739571D01*
X99509286Y-86789571D02*
X99509286Y-85289571D01*
X100009286Y-86361000D01*
X100509286Y-85289571D01*
X100509286Y-86789571D01*
X101152143Y-86361000D02*
X101866429Y-86361000D01*
X101009286Y-86789571D02*
X101509286Y-85289571D01*
X102009286Y-86789571D01*
X102509286Y-86789571D02*
X102509286Y-85289571D01*
X103223572Y-86789571D02*
X103223572Y-85289571D01*
X104080715Y-86789571D01*
X104080715Y-85289571D01*
X104437858Y-86932429D02*
X105580715Y-86932429D01*
X106437858Y-86003857D02*
X106652144Y-86075286D01*
X106723572Y-86146714D01*
X106795001Y-86289571D01*
X106795001Y-86503857D01*
X106723572Y-86646714D01*
X106652144Y-86718143D01*
X106509286Y-86789571D01*
X105937858Y-86789571D01*
X105937858Y-85289571D01*
X106437858Y-85289571D01*
X106580715Y-85361000D01*
X106652144Y-85432429D01*
X106723572Y-85575286D01*
X106723572Y-85718143D01*
X106652144Y-85861000D01*
X106580715Y-85932429D01*
X106437858Y-86003857D01*
X105937858Y-86003857D01*
X107723572Y-85289571D02*
X108009286Y-85289571D01*
X108152144Y-85361000D01*
X108295001Y-85503857D01*
X108366429Y-85789571D01*
X108366429Y-86289571D01*
X108295001Y-86575286D01*
X108152144Y-86718143D01*
X108009286Y-86789571D01*
X107723572Y-86789571D01*
X107580715Y-86718143D01*
X107437858Y-86575286D01*
X107366429Y-86289571D01*
X107366429Y-85789571D01*
X107437858Y-85503857D01*
X107580715Y-85361000D01*
X107723572Y-85289571D01*
X108937858Y-86361000D02*
X109652144Y-86361000D01*
X108795001Y-86789571D02*
X109295001Y-85289571D01*
X109795001Y-86789571D01*
X111152144Y-86789571D02*
X110652144Y-86075286D01*
X110295001Y-86789571D02*
X110295001Y-85289571D01*
X110866429Y-85289571D01*
X111009287Y-85361000D01*
X111080715Y-85432429D01*
X111152144Y-85575286D01*
X111152144Y-85789571D01*
X111080715Y-85932429D01*
X111009287Y-86003857D01*
X110866429Y-86075286D01*
X110295001Y-86075286D01*
X111795001Y-86789571D02*
X111795001Y-85289571D01*
X112152144Y-85289571D01*
X112366429Y-85361000D01*
X112509287Y-85503857D01*
X112580715Y-85646714D01*
X112652144Y-85932429D01*
X112652144Y-86146714D01*
X112580715Y-86432429D01*
X112509287Y-86575286D01*
X112366429Y-86718143D01*
X112152144Y-86789571D01*
X111795001Y-86789571D01*
D12*
X138303000Y-45847000D03*
X138303000Y-43307000D03*
X135763000Y-43307000D03*
X135763000Y-45847000D03*
X133223000Y-45847000D03*
X133223000Y-43307000D03*
X130683000Y-43307000D03*
X130683000Y-45847000D03*
X128143000Y-45847000D03*
X128143000Y-43307000D03*
X125603000Y-43307000D03*
X125603000Y-45847000D03*
X123063000Y-45847000D03*
X123063000Y-43307000D03*
X120523000Y-43307000D03*
X120523000Y-45847000D03*
X117983000Y-45847000D03*
X117983000Y-43307000D03*
X115443000Y-43307000D03*
X115443000Y-45847000D03*
D13*
X107823000Y-45847000D03*
D12*
X107823000Y-43307000D03*
X110363000Y-45847000D03*
X110363000Y-43307000D03*
X112903000Y-45847000D03*
X112903000Y-43307000D03*
D14*
X96901000Y-43307000D03*
X96901000Y-45847000D03*
X94361000Y-45847000D03*
X94361000Y-43307000D03*
X91821000Y-43307000D03*
X91821000Y-45847000D03*
X89281000Y-45847000D03*
X89281000Y-43307000D03*
X86741000Y-43307000D03*
X86741000Y-45847000D03*
D15*
X79121000Y-45847000D03*
D14*
X79121000Y-43307000D03*
X81661000Y-45847000D03*
X81661000Y-43307000D03*
X84201000Y-45847000D03*
X84201000Y-43307000D03*
D16*
X147828000Y-39878000D03*
D17*
X147828000Y-39878000D03*
D16*
X68961000Y-118872000D03*
D17*
X68961000Y-118872000D03*
D16*
X147955000Y-118872000D03*
D17*
X147955000Y-118872000D03*
D16*
X68961000Y-39878000D03*
D17*
X68961000Y-39878000D03*
D18*
X66040000Y-52578000D03*
D19*
X68580000Y-52578000D03*
X71120000Y-52578000D03*
D18*
X66040000Y-59436000D03*
D19*
X68580000Y-59436000D03*
X71120000Y-59436000D03*
D18*
X66167000Y-66421000D03*
D19*
X68707000Y-66421000D03*
X71247000Y-66421000D03*
D18*
X66040000Y-73406000D03*
D19*
X68580000Y-73406000D03*
X71120000Y-73406000D03*
D18*
X66040000Y-80391000D03*
D19*
X68580000Y-80391000D03*
X71120000Y-80391000D03*
D18*
X66040000Y-87249000D03*
D19*
X68580000Y-87249000D03*
X71120000Y-87249000D03*
D18*
X65913000Y-94107000D03*
D19*
X68453000Y-94107000D03*
X70993000Y-94107000D03*
D18*
X65913000Y-101092000D03*
D19*
X68453000Y-101092000D03*
X70993000Y-101092000D03*
D18*
X65913000Y-108077000D03*
D19*
X68453000Y-108077000D03*
X70993000Y-108077000D03*
D20*
X148971000Y-55499000D03*
D21*
X148971000Y-52959000D03*
X148971000Y-50419000D03*
X148971000Y-47879000D03*
D20*
X149225000Y-82677000D03*
D21*
X149225000Y-80137000D03*
X149225000Y-77597000D03*
X149225000Y-75057000D03*
D20*
X149225000Y-104267000D03*
D21*
X149225000Y-101727000D03*
X149225000Y-99187000D03*
X149225000Y-96647000D03*
D20*
X148971000Y-66548000D03*
D21*
X148971000Y-64008000D03*
X148971000Y-61468000D03*
X148971000Y-58928000D03*
D20*
X149225000Y-93472000D03*
D21*
X149225000Y-90932000D03*
X149225000Y-88392000D03*
X149225000Y-85852000D03*
D22*
X116078000Y-99946460D03*
X116078000Y-102486460D03*
X113538000Y-99946460D03*
X113538000Y-102486460D03*
X110998000Y-99946460D03*
X110998000Y-102486460D03*
X108458000Y-99946460D03*
X108458000Y-102486460D03*
X105918000Y-99946460D03*
X105918000Y-102486460D03*
X103378000Y-99946460D03*
X103378000Y-102486460D03*
X100838000Y-99946460D03*
X100838000Y-102486460D03*
X98298000Y-99946460D03*
X98298000Y-102486460D03*
X116078000Y-62738000D03*
X116078000Y-65278000D03*
X113538000Y-62738000D03*
X113538000Y-65278000D03*
X110998000Y-62738000D03*
X110998000Y-65278000D03*
X108458000Y-62738000D03*
X108458000Y-65278000D03*
X105918000Y-62738000D03*
X105918000Y-65278000D03*
X103378000Y-62738000D03*
X103378000Y-65278000D03*
X100838000Y-62738000D03*
X100838000Y-65278000D03*
X98298000Y-62738000D03*
X98298000Y-65278000D03*
X120904000Y-73660000D03*
X123444000Y-73660000D03*
X120904000Y-76200000D03*
X123444000Y-76200000D03*
X120904000Y-78740000D03*
X123444000Y-78740000D03*
X120904000Y-81280000D03*
X123444000Y-81280000D03*
X120904000Y-83820000D03*
X123444000Y-83820000D03*
X120904000Y-86360000D03*
X123444000Y-86360000D03*
X120904000Y-88900000D03*
X123444000Y-88900000D03*
X120904000Y-91440000D03*
X123444000Y-91440000D03*
X87503000Y-91440000D03*
X90043000Y-91440000D03*
X87503000Y-88900000D03*
X90043000Y-88900000D03*
X87503000Y-86360000D03*
X90043000Y-86360000D03*
X87503000Y-83820000D03*
X90043000Y-83820000D03*
X87503000Y-81280000D03*
X90043000Y-81280000D03*
X87503000Y-78740000D03*
X90043000Y-78740000D03*
X87503000Y-76200000D03*
X90043000Y-76200000D03*
X87503000Y-73660000D03*
X90043000Y-73660000D03*
D23*
X139357100Y-68770500D03*
X140004800Y-68770500D03*
X140665200Y-68770500D03*
X141312900Y-68770500D03*
X141312900Y-64325500D03*
X140665200Y-64325500D03*
X140004800Y-64325500D03*
X139357100Y-64325500D03*
D24*
X115189000Y-111125000D03*
X112649000Y-111125000D03*
X117729000Y-111125000D03*
X111379000Y-108585000D03*
X113919000Y-108585000D03*
X116459000Y-108585000D03*
D25*
X119634000Y-117475000D03*
X109474000Y-117475000D03*
D12*
X97282000Y-115570000D03*
X97282000Y-118110000D03*
X94742000Y-115570000D03*
X94742000Y-118110000D03*
X92202000Y-115570000D03*
X92202000Y-118110000D03*
X89662000Y-115570000D03*
X89662000Y-118110000D03*
X87122000Y-115570000D03*
X87122000Y-118110000D03*
X84582000Y-115570000D03*
X84582000Y-118110000D03*
X82042000Y-115570000D03*
X82042000Y-118110000D03*
D26*
X79502000Y-115570000D03*
D12*
X79502000Y-118110000D03*
X137414000Y-115570000D03*
X137414000Y-118110000D03*
X134874000Y-115570000D03*
X134874000Y-118110000D03*
X132334000Y-115570000D03*
X132334000Y-118110000D03*
X129794000Y-115570000D03*
X129794000Y-118110000D03*
D27*
X127254000Y-115570000D03*
D12*
X127254000Y-118110000D03*
D28*
X102743000Y-110934500D03*
X102743000Y-118554500D03*
D29*
X91737180Y-110363000D03*
X97238820Y-110363000D03*
D30*
X94488000Y-55328820D03*
X94488000Y-49827180D03*
X101346000Y-53550820D03*
X101346000Y-48049180D03*
X108204000Y-55328820D03*
X108204000Y-49827180D03*
X115062000Y-55328820D03*
X115062000Y-49827180D03*
X121920000Y-55328820D03*
X121920000Y-49827180D03*
X128778000Y-55328820D03*
X128778000Y-49827180D03*
X135636000Y-55328820D03*
X135636000Y-49827180D03*
D31*
X85318600Y-63601600D03*
X82677000Y-78740000D03*
X147396200Y-112903000D03*
X141097000Y-105156000D03*
X146685000Y-98933000D03*
X141097000Y-82677000D03*
X146939000Y-87884000D03*
X145796000Y-75057000D03*
X144399000Y-69977000D03*
X141097000Y-93853000D03*
X135280400Y-75006200D03*
X102336600Y-71831200D03*
X131826000Y-100330000D03*
X136906000Y-111125000D03*
X101142800Y-70104000D03*
X122936000Y-63246000D03*
X98044000Y-71755000D03*
X90017600Y-64693800D03*
X97104200Y-69799200D03*
X89763600Y-66852800D03*
X95300800Y-58572400D03*
X105918000Y-56769000D03*
X99568000Y-73126600D03*
X97790000Y-82550000D03*
X94716600Y-77622400D03*
X95885000Y-93853000D03*
X88646000Y-97663000D03*
X87503000Y-66865500D03*
X94615000Y-81280000D03*
X94234000Y-95123000D03*
X106324400Y-92913200D03*
X88519000Y-101854000D03*
X94615000Y-79476600D03*
X92075000Y-99885500D03*
X100076000Y-92710000D03*
X106426000Y-89662000D03*
X123952000Y-109982000D03*
X100584000Y-108839000D03*
X123190000Y-65786000D03*
X143383000Y-74549000D03*
X135382000Y-106807000D03*
X148590000Y-70866000D03*
X116586000Y-86360000D03*
X138684000Y-84328000D03*
X124602240Y-107188000D03*
X135255000Y-102235000D03*
X142367000Y-98679000D03*
X104267000Y-107696000D03*
X137464800Y-62077600D03*
X102489000Y-58674000D03*
X131064000Y-96774000D03*
X144526000Y-110617000D03*
X132969000Y-63754000D03*
X144094200Y-50393600D03*
X106553000Y-95504000D03*
X126746000Y-104394000D03*
X141071600Y-60833000D03*
X135509000Y-62357000D03*
X100685600Y-58623200D03*
X133223000Y-97028000D03*
X140017500Y-109283500D03*
X104775000Y-95567500D03*
X126746000Y-102489000D03*
X142011400Y-59283600D03*
X142849600Y-76504800D03*
X140385800Y-76530200D03*
X104775000Y-80492600D03*
X123926600Y-115590320D03*
X122966480Y-117281960D03*
X75412600Y-107340400D03*
X75209400Y-100482400D03*
X75336400Y-93726000D03*
X75107800Y-87325200D03*
X76987400Y-75869800D03*
X76809600Y-68275200D03*
X77393800Y-54660800D03*
X73380600Y-114147600D03*
X74574400Y-115341400D03*
X151155400Y-111379000D03*
X151130000Y-109499400D03*
X149250400Y-109499400D03*
X115163600Y-91948000D03*
X115163600Y-90195400D03*
X113284000Y-91948000D03*
X113284000Y-90170000D03*
X142367000Y-114363500D03*
X149225000Y-111379000D03*
X143383000Y-67056000D03*
X143383000Y-56515000D03*
X144703800Y-57607200D03*
X79756000Y-58775600D03*
X91757500Y-60579000D03*
X79756000Y-86741000D03*
X140233400Y-73736200D03*
X135178800Y-71932800D03*
X108077000Y-91821000D03*
X98044000Y-85090000D03*
X140271500Y-118960900D03*
X129306320Y-112227360D03*
X142875000Y-111887000D03*
X100838000Y-106553000D03*
X123825000Y-67564000D03*
X138557000Y-81026000D03*
X116713000Y-76200000D03*
X139827000Y-95250000D03*
D32*
X85318600Y-63601600D02*
X85318600Y-63677800D01*
X85318600Y-63677800D02*
X84137500Y-64858900D01*
X89281000Y-45847000D02*
X89281000Y-53975000D01*
X85318600Y-57937400D02*
X85318600Y-63601600D01*
X89281000Y-53975000D02*
X85318600Y-57937400D01*
X89662000Y-116459000D02*
X89662000Y-112572800D01*
X84137500Y-64858900D02*
X84137500Y-95211900D01*
X84658200Y-105537000D02*
X84658200Y-95732600D01*
X84658200Y-95732600D02*
X84137500Y-95211900D01*
X89662000Y-112572800D02*
X84658200Y-107569000D01*
X84658200Y-107569000D02*
X84658200Y-105537000D01*
X94488000Y-55328820D02*
X92920820Y-55328820D01*
X92920820Y-55328820D02*
X91821000Y-54229000D01*
X101346000Y-53550820D02*
X99230180Y-53550820D01*
X97452180Y-55328820D02*
X94488000Y-55328820D01*
X99230180Y-53550820D02*
X97452180Y-55328820D01*
X108204000Y-55328820D02*
X107652820Y-55328820D01*
X107652820Y-55328820D02*
X105874820Y-53550820D01*
X105874820Y-53550820D02*
X101346000Y-53550820D01*
X115062000Y-55328820D02*
X108204000Y-55328820D01*
X121920000Y-55328820D02*
X115062000Y-55328820D01*
X128778000Y-55328820D02*
X121920000Y-55328820D01*
X135636000Y-55328820D02*
X128778000Y-55328820D01*
X86334600Y-102616000D02*
X86334600Y-106781600D01*
X85471000Y-93421200D02*
X85471000Y-67945000D01*
X85471000Y-67945000D02*
X85471000Y-67716400D01*
X86334600Y-102616000D02*
X86334600Y-94284800D01*
X86334600Y-94284800D02*
X85471000Y-93421200D01*
X85471000Y-66344800D02*
X87630000Y-64185800D01*
X87630000Y-64185800D02*
X87630000Y-58623200D01*
X87630000Y-58623200D02*
X91821000Y-54432200D01*
X91821000Y-54432200D02*
X91821000Y-54229000D01*
X85471000Y-67716400D02*
X85471000Y-66344800D01*
X86334600Y-106781600D02*
X89916000Y-110363000D01*
X89916000Y-110363000D02*
X91737180Y-110363000D01*
X92202000Y-115570000D02*
X92202000Y-110827820D01*
X92202000Y-110827820D02*
X91737180Y-110363000D01*
X91821000Y-54229000D02*
X91821000Y-45847000D01*
X91821000Y-45847000D02*
X94361000Y-45847000D01*
X86741000Y-49733200D02*
X86741000Y-53136800D01*
X83261200Y-62280800D02*
X82804000Y-62738000D01*
X83261200Y-56616600D02*
X83261200Y-62280800D01*
X86741000Y-53136800D02*
X83261200Y-56616600D01*
X87122000Y-116459000D02*
X87122000Y-112750600D01*
X82804000Y-108432600D02*
X82804000Y-89204800D01*
X87122000Y-112750600D02*
X82804000Y-108432600D01*
X82677000Y-78740000D02*
X82804000Y-78740000D01*
X82804000Y-78740000D02*
X82677000Y-78740000D01*
X82677000Y-78740000D02*
X82804000Y-78740000D01*
X86741000Y-49733200D02*
X86741000Y-45847000D01*
X82804000Y-89204800D02*
X82804000Y-78740000D01*
X82804000Y-78740000D02*
X82804000Y-62738000D01*
D33*
X146939000Y-87884000D02*
X146939000Y-76200000D01*
X146939000Y-76200000D02*
X145796000Y-75057000D01*
X146685000Y-98933000D02*
X146685000Y-88138000D01*
X146685000Y-88138000D02*
X146939000Y-87884000D01*
X141097000Y-105156000D02*
X144780000Y-105156000D01*
X144780000Y-105156000D02*
X146685000Y-103251000D01*
X146685000Y-103251000D02*
X146685000Y-98933000D01*
X141935200Y-121640600D02*
X141935200Y-121564400D01*
X100203000Y-121031000D02*
X101727000Y-122555000D01*
X101727000Y-122555000D02*
X141020800Y-122555000D01*
X141020800Y-122555000D02*
X141935200Y-121640600D01*
X98120200Y-121031000D02*
X100203000Y-121031000D01*
X145897600Y-112903000D02*
X147396200Y-112903000D01*
X142443200Y-116357400D02*
X145897600Y-112903000D01*
X142443200Y-121056400D02*
X142443200Y-116357400D01*
X141935200Y-121564400D02*
X142443200Y-121056400D01*
X84582000Y-118110000D02*
X84582000Y-119837200D01*
X85775800Y-121031000D02*
X98120200Y-121031000D01*
X84582000Y-119837200D02*
X85775800Y-121031000D01*
X84582000Y-115570000D02*
X84582000Y-118110000D01*
D34*
X141097000Y-93853000D02*
X146939000Y-93853000D01*
X146939000Y-93853000D02*
X146939000Y-93878400D01*
X146939000Y-87884000D02*
X146939000Y-93878400D01*
X146939000Y-93878400D02*
X146939000Y-98679000D01*
X146939000Y-98679000D02*
X146685000Y-98933000D01*
D32*
X84201000Y-45847000D02*
X84201000Y-50165000D01*
D34*
X139357100Y-64325500D02*
X139357100Y-65824100D01*
X143357600Y-71018400D02*
X144399000Y-69977000D01*
X139115800Y-71018400D02*
X143357600Y-71018400D01*
X138277600Y-70180200D02*
X139115800Y-71018400D01*
X138277600Y-66903600D02*
X138277600Y-70180200D01*
X139357100Y-65824100D02*
X138277600Y-66903600D01*
D32*
X84582000Y-116459000D02*
X84582000Y-113665000D01*
X84582000Y-113665000D02*
X81229200Y-110312200D01*
D34*
X146685000Y-103251000D02*
X146685000Y-98933000D01*
X144780000Y-105156000D02*
X146685000Y-103251000D01*
X146939000Y-82550000D02*
X141224000Y-82550000D01*
X141224000Y-82550000D02*
X141097000Y-82677000D01*
X146939000Y-76200000D02*
X146939000Y-82550000D01*
X146939000Y-82550000D02*
X146939000Y-87884000D01*
X145796000Y-75057000D02*
X146939000Y-76200000D01*
D32*
X81229200Y-58369200D02*
X81229200Y-54635400D01*
X82804000Y-53060600D02*
X82804000Y-51562000D01*
X81229200Y-54635400D02*
X82804000Y-53060600D01*
X81229200Y-110312200D02*
X81229200Y-58369200D01*
X82804000Y-51562000D02*
X84201000Y-50165000D01*
D34*
X124917200Y-64643000D02*
X123825000Y-64643000D01*
X135280400Y-75006200D02*
X124917200Y-64643000D01*
X109804200Y-70408800D02*
X109804200Y-70459600D01*
X109753400Y-70459600D02*
X109804200Y-70408800D01*
X103708200Y-70459600D02*
X109753400Y-70459600D01*
X102336600Y-71831200D02*
X103708200Y-70459600D01*
X132715000Y-111125000D02*
X131826000Y-110236000D01*
X131826000Y-110236000D02*
X131826000Y-100330000D01*
X136906000Y-111125000D02*
X132715000Y-111125000D01*
X122605800Y-64643000D02*
X123825000Y-64643000D01*
X121564400Y-65684400D02*
X122605800Y-64643000D01*
X121564400Y-67513200D02*
X121564400Y-65684400D01*
X118618000Y-70459600D02*
X121564400Y-67513200D01*
X109804200Y-70459600D02*
X118618000Y-70459600D01*
X105994200Y-69748400D02*
X105994200Y-69596000D01*
X105841800Y-69596000D02*
X105994200Y-69748400D01*
X101650800Y-69596000D02*
X105841800Y-69596000D01*
X101142800Y-70104000D02*
X101650800Y-69596000D01*
X122936000Y-63246000D02*
X116586000Y-69596000D01*
X116586000Y-69596000D02*
X105994200Y-69596000D01*
X90017600Y-64897000D02*
X90017600Y-64693800D01*
X96824800Y-71704200D02*
X90017600Y-64897000D01*
X97993200Y-71704200D02*
X96824800Y-71704200D01*
X98044000Y-71755000D02*
X97993200Y-71704200D01*
X89331800Y-63347600D02*
X88747600Y-63931800D01*
X90652600Y-63347600D02*
X89331800Y-63347600D01*
X97104200Y-69799200D02*
X90652600Y-63347600D01*
X88747600Y-65836800D02*
X89763600Y-66852800D01*
X88747600Y-63931800D02*
X88747600Y-65836800D01*
X95300800Y-58572400D02*
X98653600Y-58572400D01*
X100457000Y-56769000D02*
X105918000Y-56769000D01*
X98653600Y-58572400D02*
X100457000Y-56769000D01*
X97790000Y-82550000D02*
X97790000Y-74904600D01*
X97790000Y-74904600D02*
X99568000Y-73126600D01*
X99568000Y-73126600D02*
X97790000Y-74904600D01*
X95758000Y-79654400D02*
X95758000Y-78663800D01*
X95758000Y-78663800D02*
X94716600Y-77622400D01*
X94716600Y-77622400D02*
X95758000Y-78663800D01*
X95758000Y-93726000D02*
X95885000Y-93853000D01*
X95758000Y-79654400D02*
X95758000Y-93726000D01*
X96583500Y-80873600D02*
X96583500Y-75946000D01*
X96583500Y-75946000D02*
X87503000Y-66865500D01*
X97536000Y-94869000D02*
X95377000Y-97028000D01*
X96583500Y-91567000D02*
X97536000Y-92519500D01*
X96583500Y-80873600D02*
X96583500Y-91567000D01*
X97536000Y-92519500D02*
X97536000Y-94869000D01*
X94297500Y-101790500D02*
X93789500Y-101790500D01*
X95377000Y-100711000D02*
X94297500Y-101790500D01*
X95377000Y-97028000D02*
X95377000Y-100711000D01*
X88646000Y-97663000D02*
X90551000Y-99568000D01*
X90551000Y-99568000D02*
X90551000Y-100838000D01*
X90551000Y-100838000D02*
X91503500Y-101790500D01*
X91503500Y-101790500D02*
X93789500Y-101790500D01*
X94615000Y-94742000D02*
X94615000Y-89916000D01*
X94234000Y-95123000D02*
X94615000Y-94742000D01*
X94615000Y-89916000D02*
X94615000Y-81280000D01*
X98869500Y-97155000D02*
X100609400Y-97155000D01*
X104851200Y-92913200D02*
X106324400Y-92913200D01*
X100609400Y-97155000D02*
X104851200Y-92913200D01*
X95504000Y-102743000D02*
X96266000Y-101981000D01*
X89408000Y-102743000D02*
X95504000Y-102743000D01*
X88519000Y-101854000D02*
X89408000Y-102743000D01*
X96266000Y-101981000D02*
X96266000Y-98552000D01*
X96266000Y-98552000D02*
X97663000Y-97155000D01*
X97663000Y-97155000D02*
X98869500Y-97155000D01*
X98869500Y-97155000D02*
X97663000Y-97155000D01*
X92735400Y-83261200D02*
X92710000Y-83261200D01*
X92710000Y-83235800D02*
X92735400Y-83261200D01*
X92710000Y-81381600D02*
X92710000Y-83235800D01*
X94615000Y-79476600D02*
X92710000Y-81381600D01*
X92710000Y-95567500D02*
X92710000Y-99250500D01*
X92710000Y-99250500D02*
X92075000Y-99885500D01*
X92710000Y-92583000D02*
X92710000Y-95567500D01*
X92710000Y-83261200D02*
X92710000Y-92583000D01*
X92710000Y-92583000D02*
X92710000Y-92773500D01*
X103124000Y-89662000D02*
X106426000Y-89662000D01*
X100076000Y-92710000D02*
X103124000Y-89662000D01*
D33*
X102743000Y-110934500D02*
X108292900Y-110934500D01*
X122783600Y-109982000D02*
X123952000Y-109982000D01*
X119608600Y-113157000D02*
X122783600Y-109982000D01*
X110515400Y-113157000D02*
X119608600Y-113157000D01*
X108292900Y-110934500D02*
X110515400Y-113157000D01*
D32*
X102743000Y-110934500D02*
X102743000Y-109982000D01*
X102743000Y-109982000D02*
X101600000Y-108839000D01*
X101600000Y-108839000D02*
X100584000Y-108839000D01*
X102743000Y-110934500D02*
X102743000Y-109918500D01*
X102743000Y-109918500D02*
X101663500Y-108839000D01*
X101663500Y-108839000D02*
X100584000Y-108839000D01*
X100584000Y-108839000D02*
X101663500Y-108839000D01*
X101663500Y-108839000D02*
X102743000Y-109918500D01*
D34*
X143383000Y-74549000D02*
X141122400Y-74549000D01*
X138912600Y-75158600D02*
X137287000Y-76784200D01*
X140512800Y-75158600D02*
X138912600Y-75158600D01*
X141122400Y-74549000D02*
X140512800Y-75158600D01*
X123190000Y-65786000D02*
X123926600Y-65786000D01*
X123926600Y-65786000D02*
X134924800Y-76784200D01*
X134924800Y-76784200D02*
X137287000Y-76784200D01*
X152273000Y-102235000D02*
X152273000Y-104521000D01*
X149987000Y-106807000D02*
X135382000Y-106807000D01*
X152273000Y-104521000D02*
X149987000Y-106807000D01*
X152273000Y-76962000D02*
X152273000Y-73660000D01*
X149479000Y-70866000D02*
X148590000Y-70866000D01*
X152273000Y-73660000D02*
X149479000Y-70866000D01*
X152273000Y-102235000D02*
X152273000Y-76962000D01*
X137922000Y-85090000D02*
X138684000Y-84328000D01*
X117856000Y-85090000D02*
X137922000Y-85090000D01*
X116586000Y-86360000D02*
X117856000Y-85090000D01*
X122539760Y-107188000D02*
X124602240Y-107188000D01*
X118526560Y-107188000D02*
X122539760Y-107188000D01*
X118364000Y-107188000D02*
X118526560Y-107188000D01*
X135255000Y-102235000D02*
X135255000Y-99441000D01*
X135255000Y-99441000D02*
X136017000Y-98679000D01*
X136017000Y-98679000D02*
X142367000Y-98679000D01*
X117094000Y-107188000D02*
X118364000Y-107188000D01*
X104775000Y-107188000D02*
X117094000Y-107188000D01*
X104267000Y-107696000D02*
X104775000Y-107188000D01*
X137464800Y-62077600D02*
X136525000Y-61137800D01*
X136525000Y-61137800D02*
X125907800Y-61137800D01*
X123444000Y-58674000D02*
X102489000Y-58674000D01*
X125907800Y-61137800D02*
X123444000Y-58674000D01*
X121539000Y-58674000D02*
X123560670Y-58674000D01*
X121234200Y-58674000D02*
X110109000Y-58674000D01*
X110109000Y-58674000D02*
X105308400Y-58674000D01*
X136525000Y-61137800D02*
X128016000Y-61137800D01*
X121539000Y-58674000D02*
X121234200Y-58674000D01*
X123560670Y-58674000D02*
X125973670Y-61087000D01*
X125973670Y-61087000D02*
X128016000Y-61087000D01*
X128016000Y-61087000D02*
X128016000Y-61137800D01*
X102489000Y-58674000D02*
X105308400Y-58674000D01*
X105308400Y-58674000D02*
X105308400Y-58724800D01*
X105308400Y-58724800D02*
X105308400Y-58674000D01*
X105308400Y-58674000D02*
X103378000Y-58674000D01*
X137858500Y-109601000D02*
X138239500Y-109601000D01*
X132969000Y-98679000D02*
X132969000Y-106553000D01*
X131064000Y-96774000D02*
X132969000Y-98679000D01*
X133858000Y-109601000D02*
X132969000Y-108712000D01*
X132969000Y-108712000D02*
X132969000Y-106553000D01*
X137858500Y-109601000D02*
X133858000Y-109601000D01*
X138239500Y-109601000D02*
X139255500Y-110617000D01*
X139255500Y-110617000D02*
X144526000Y-110617000D01*
X138938000Y-61722000D02*
X138938000Y-62433200D01*
X138938000Y-62433200D02*
X137617200Y-63754000D01*
X137617200Y-63754000D02*
X132969000Y-63754000D01*
X138938000Y-59004200D02*
X144018000Y-53924200D01*
X138938000Y-61722000D02*
X138938000Y-59004200D01*
X144018000Y-50469800D02*
X144018000Y-53924200D01*
X144094200Y-50393600D02*
X144018000Y-50469800D01*
X112649000Y-95504000D02*
X116205000Y-95504000D01*
X125095000Y-104394000D02*
X126746000Y-104394000D01*
X116205000Y-95504000D02*
X125095000Y-104394000D01*
X106553000Y-95504000D02*
X112649000Y-95504000D01*
X140665200Y-64325500D02*
X140665200Y-61239400D01*
X140665200Y-61239400D02*
X141071600Y-60833000D01*
D35*
X141071600Y-60833000D02*
X140957300Y-60718700D01*
X140957300Y-60718700D02*
X141071600Y-60833000D01*
D34*
X100685600Y-58623200D02*
X100685600Y-59029600D01*
X125730000Y-62357000D02*
X135509000Y-62357000D01*
X123317000Y-59944000D02*
X125730000Y-62357000D01*
X101600000Y-59944000D02*
X123317000Y-59944000D01*
X100685600Y-59029600D02*
X101600000Y-59944000D01*
X133223000Y-97028000D02*
X133223000Y-97104200D01*
X133883400Y-107213400D02*
X134747000Y-108077000D01*
X133883400Y-97764600D02*
X133883400Y-107213400D01*
X133223000Y-97104200D02*
X133883400Y-97764600D01*
X134747000Y-108077000D02*
X135699500Y-108077000D01*
X135699500Y-108077000D02*
X138811000Y-108077000D01*
X138811000Y-108077000D02*
X140017500Y-109283500D01*
X106456480Y-94234000D02*
X116459000Y-94234000D01*
X116459000Y-94234000D02*
X124714000Y-102489000D01*
X106108500Y-94234000D02*
X106456480Y-94234000D01*
X104775000Y-95567500D02*
X106108500Y-94234000D01*
X125349000Y-102489000D02*
X126746000Y-102489000D01*
X124714000Y-102489000D02*
X125349000Y-102489000D01*
X116459000Y-94234000D02*
X124714000Y-102489000D01*
X142392400Y-62077600D02*
X141935200Y-62534800D01*
X142392400Y-59664600D02*
X142392400Y-62077600D01*
X142011400Y-59283600D02*
X142392400Y-59664600D01*
X141312900Y-63157100D02*
X141312900Y-64325500D01*
X141935200Y-62534800D02*
X141312900Y-63157100D01*
X142849600Y-76504800D02*
X142824200Y-76530200D01*
X142824200Y-76530200D02*
X140385800Y-76530200D01*
X142367000Y-114363500D02*
X143090900Y-114363500D01*
X146075400Y-111379000D02*
X149225000Y-111379000D01*
X143090900Y-114363500D02*
X146075400Y-111379000D01*
X122966480Y-117281960D02*
X122966480Y-118851680D01*
X122966480Y-118851680D02*
X124434600Y-120319800D01*
X141528800Y-115201700D02*
X142367000Y-114363500D01*
X141528800Y-119837200D02*
X141528800Y-115201700D01*
X141046200Y-120319800D02*
X141528800Y-119837200D01*
X124434600Y-120319800D02*
X141046200Y-120319800D01*
D33*
X102743000Y-118554500D02*
X102743000Y-120650000D01*
X103327200Y-121234200D02*
X121285000Y-121234200D01*
X121285000Y-121234200D02*
X122966480Y-119552720D01*
X122966480Y-119552720D02*
X122966480Y-117281960D01*
X102743000Y-120650000D02*
X103327200Y-121234200D01*
D32*
X104775000Y-80492600D02*
X112547400Y-80492600D01*
X112547400Y-80492600D02*
X112649000Y-80391000D01*
X112649000Y-80391000D02*
X113919000Y-81661000D01*
X113919000Y-89535000D02*
X113284000Y-90170000D01*
X113919000Y-81661000D02*
X113919000Y-89535000D01*
D34*
X104775000Y-80492600D02*
X104775000Y-80518000D01*
D32*
X135636000Y-49827180D02*
X137116820Y-49827180D01*
X138303000Y-48641000D02*
X138303000Y-45847000D01*
X137116820Y-49827180D02*
X138303000Y-48641000D01*
X128778000Y-49827180D02*
X135636000Y-49827180D01*
X121920000Y-49827180D02*
X128778000Y-49827180D01*
X115062000Y-49827180D02*
X121920000Y-49827180D01*
X108204000Y-49827180D02*
X115062000Y-49827180D01*
X101346000Y-48049180D02*
X104818180Y-48049180D01*
X106596180Y-49827180D02*
X108204000Y-49827180D01*
X104818180Y-48049180D02*
X106596180Y-49827180D01*
X96901000Y-45847000D02*
X96901000Y-49827180D01*
X96901000Y-49827180D02*
X96901000Y-49657000D01*
X96901000Y-49657000D02*
X96901000Y-49827180D01*
X94488000Y-49827180D02*
X96901000Y-49827180D01*
X96901000Y-49827180D02*
X99568000Y-49827180D01*
X99568000Y-49827180D02*
X101346000Y-48049180D01*
X97238820Y-110363000D02*
X97238820Y-115526820D01*
X97238820Y-115526820D02*
X97282000Y-115570000D01*
D34*
X143383000Y-56515000D02*
X143383000Y-58140600D01*
X145262600Y-60020200D02*
X145262600Y-60731400D01*
X143383000Y-58140600D02*
X145262600Y-60020200D01*
X143383000Y-67056000D02*
X144678400Y-67056000D01*
X144678400Y-67056000D02*
X145262600Y-66471800D01*
X145262600Y-66471800D02*
X145262600Y-60731400D01*
X75361800Y-107289600D02*
X73380600Y-107289600D01*
X75412600Y-107340400D02*
X75361800Y-107289600D01*
X75158600Y-100533200D02*
X73380600Y-100533200D01*
X75209400Y-100482400D02*
X75158600Y-100533200D01*
X75285600Y-93675200D02*
X73380600Y-93675200D01*
X75336400Y-93726000D02*
X75285600Y-93675200D01*
X75107800Y-87325200D02*
X73380600Y-87325200D01*
X73380600Y-87325200D02*
X73685400Y-87325200D01*
X73685400Y-87325200D02*
X73380600Y-87325200D01*
X76860400Y-75742800D02*
X73380600Y-75742800D01*
X76987400Y-75869800D02*
X76860400Y-75742800D01*
X76784200Y-68249800D02*
X73380600Y-68249800D01*
X76809600Y-68275200D02*
X76784200Y-68249800D01*
X73380600Y-61391800D02*
X73583800Y-61391800D01*
X73583800Y-61391800D02*
X73380600Y-61391800D01*
X77393800Y-54660800D02*
X73380600Y-54660800D01*
X73380600Y-54660800D02*
X73558400Y-54660800D01*
X73558400Y-54660800D02*
X73380600Y-54660800D01*
D32*
X73444100Y-114211100D02*
X73380600Y-114147600D01*
X79121000Y-45847000D02*
X75082400Y-45847000D01*
X75082400Y-45847000D02*
X73380600Y-47548800D01*
X73380600Y-47548800D02*
X73380600Y-54660800D01*
X73444100Y-114211100D02*
X74574400Y-115341400D01*
X73380600Y-54660800D02*
X73380600Y-61391800D01*
X73380600Y-61391800D02*
X73380600Y-68249800D01*
X73380600Y-68249800D02*
X73380600Y-75742800D01*
X73380600Y-75742800D02*
X73380600Y-87325200D01*
X73380600Y-87325200D02*
X73380600Y-93675200D01*
X73380600Y-93675200D02*
X73380600Y-100533200D01*
X73380600Y-100533200D02*
X73380600Y-107289600D01*
X73380600Y-107289600D02*
X73380600Y-114147600D01*
D34*
X115163600Y-91948000D02*
X115163600Y-90195400D01*
X115138200Y-90170000D02*
X113284000Y-90170000D01*
X115138200Y-90170000D02*
X115163600Y-90195400D01*
X113284000Y-90170000D02*
X113284000Y-91948000D01*
D32*
X138303000Y-45847000D02*
X142113000Y-45847000D01*
X142113000Y-45847000D02*
X143510000Y-47244000D01*
X143510000Y-47244000D02*
X145542000Y-47244000D01*
X145542000Y-47244000D02*
X146304000Y-48006000D01*
X146304000Y-48006000D02*
X146304000Y-53594000D01*
X146304000Y-53594000D02*
X143383000Y-56515000D01*
D34*
X140004800Y-64325500D02*
X140004800Y-68770500D01*
X141312900Y-68770500D02*
X142811500Y-68770500D01*
X142811500Y-68770500D02*
X143383000Y-68199000D01*
X143383000Y-68199000D02*
X143383000Y-67056000D01*
X140665200Y-68770500D02*
X141312900Y-68770500D01*
X140004800Y-68770500D02*
X140665200Y-68770500D01*
X139357100Y-68770500D02*
X140004800Y-68770500D01*
D32*
X82042000Y-113944400D02*
X79756000Y-111658400D01*
X79756000Y-111658400D02*
X79756000Y-86741000D01*
X82042000Y-116459000D02*
X82042000Y-113944400D01*
X82042000Y-113944400D02*
X79832200Y-111734600D01*
X79832200Y-111734600D02*
X79832200Y-59613800D01*
D34*
X120904000Y-60579000D02*
X122174000Y-60579000D01*
X126746000Y-65151000D02*
X128397000Y-65151000D01*
X122174000Y-60579000D02*
X126746000Y-65151000D01*
X128397000Y-65151000D02*
X128397000Y-65278000D01*
X128397000Y-65278000D02*
X128397000Y-65151000D01*
D36*
X108077000Y-91821000D02*
X108077000Y-88412320D01*
X98044000Y-87431880D02*
X98044000Y-85090000D01*
X98633280Y-88021160D02*
X98044000Y-87431880D01*
X107685840Y-88021160D02*
X98633280Y-88021160D01*
X108077000Y-88412320D02*
X107685840Y-88021160D01*
D32*
X81661000Y-45847000D02*
X81661000Y-50038000D01*
D34*
X141198600Y-72771000D02*
X140233400Y-73736200D01*
X145161000Y-72771000D02*
X141198600Y-72771000D01*
X146608800Y-71323200D02*
X145161000Y-72771000D01*
X146608800Y-59512200D02*
X146608800Y-71323200D01*
X144703800Y-57607200D02*
X146608800Y-59512200D01*
D32*
X79756000Y-58775600D02*
X79832200Y-58775600D01*
D34*
X120523000Y-60579000D02*
X91757500Y-60579000D01*
X120904000Y-60579000D02*
X120523000Y-60579000D01*
D32*
X79832200Y-51993800D02*
X79883000Y-51943000D01*
X79832200Y-58775600D02*
X79832200Y-51993800D01*
D34*
X79819500Y-51943000D02*
X79819500Y-51879500D01*
X79883000Y-51943000D02*
X79819500Y-51943000D01*
D36*
X79756000Y-86741000D02*
X79819500Y-86741000D01*
X79819500Y-86741000D02*
X79756000Y-86741000D01*
X79756000Y-86741000D02*
X79819500Y-86741000D01*
D32*
X81661000Y-50038000D02*
X79819500Y-51879500D01*
X79819500Y-51879500D02*
X79819500Y-56515000D01*
X79819500Y-56515000D02*
X79819500Y-86741000D01*
D34*
X136982200Y-73736200D02*
X135178800Y-71932800D01*
X140233400Y-73736200D02*
X136982200Y-73736200D01*
X135178800Y-71932800D02*
X128397000Y-65151000D01*
X140271500Y-117322600D02*
X140271500Y-118960900D01*
X134183120Y-113792000D02*
X130870960Y-113792000D01*
X140271500Y-114236500D02*
X139827000Y-113792000D01*
X139827000Y-113792000D02*
X134183120Y-113792000D01*
X140271500Y-115379500D02*
X140271500Y-114236500D01*
X140271500Y-115379500D02*
X140271500Y-117322600D01*
X130870960Y-113792000D02*
X129306320Y-112227360D01*
X100838000Y-106553000D02*
X102057200Y-106553000D01*
X125755400Y-105918000D02*
X132359400Y-112522000D01*
X102692200Y-105918000D02*
X125755400Y-105918000D01*
X102057200Y-106553000D02*
X102692200Y-105918000D01*
X140843000Y-112522000D02*
X132359400Y-112522000D01*
X142875000Y-111887000D02*
X142240000Y-112522000D01*
X142240000Y-112522000D02*
X140843000Y-112522000D01*
X137287000Y-81026000D02*
X138557000Y-81026000D01*
X123825000Y-67564000D02*
X137287000Y-81026000D01*
X115138200Y-86233000D02*
X115138200Y-77774800D01*
X115138200Y-77774800D02*
X116713000Y-76200000D01*
X138201400Y-93624400D02*
X139827000Y-95250000D01*
X119481600Y-93624400D02*
X138201400Y-93624400D01*
X118059200Y-92202000D02*
X119481600Y-93624400D01*
X118059200Y-90068400D02*
X118059200Y-92202000D01*
X115138200Y-87147400D02*
X118059200Y-90068400D01*
X115138200Y-86233000D02*
X115138200Y-87147400D01*
D35*
G36*
X73837800Y-42188200D02*
X77920544Y-42188200D01*
X77771487Y-42365634D01*
X77590504Y-42938503D01*
X77741738Y-43180000D01*
X78994000Y-43180000D01*
X78994000Y-43160000D01*
X79248000Y-43160000D01*
X79248000Y-43180000D01*
X79268000Y-43180000D01*
X79268000Y-43434000D01*
X79248000Y-43434000D01*
X79248000Y-45720000D01*
X79268000Y-45720000D01*
X79268000Y-45974000D01*
X79248000Y-45974000D01*
X79248000Y-47423250D01*
X79406750Y-47582000D01*
X80147309Y-47582000D01*
X80380698Y-47485327D01*
X80526000Y-47340026D01*
X80526000Y-49567868D01*
X79016934Y-51076934D01*
X78770897Y-51445154D01*
X78684500Y-51879500D01*
X78684500Y-58029550D01*
X78667265Y-58046755D01*
X78471223Y-58518876D01*
X78470777Y-59030081D01*
X78665995Y-59502543D01*
X78684500Y-59521080D01*
X78684500Y-85994950D01*
X78667265Y-86012155D01*
X78471223Y-86484276D01*
X78470777Y-86995481D01*
X78621000Y-87359047D01*
X78621000Y-111658400D01*
X78707397Y-112092746D01*
X78870609Y-112337010D01*
X78953434Y-112460966D01*
X80327468Y-113835000D01*
X79787750Y-113835000D01*
X79629000Y-113993750D01*
X79629000Y-115443000D01*
X79649000Y-115443000D01*
X79649000Y-115697000D01*
X79629000Y-115697000D01*
X79629000Y-117983000D01*
X79649000Y-117983000D01*
X79649000Y-118237000D01*
X79629000Y-118237000D01*
X79629000Y-119680109D01*
X79857320Y-119801563D01*
X79949125Y-119781323D01*
X80455180Y-119502785D01*
X80771892Y-119107056D01*
X80999017Y-119446974D01*
X81477542Y-119766713D01*
X82042000Y-119878991D01*
X82606458Y-119766713D01*
X83084983Y-119446974D01*
X83312000Y-119107218D01*
X83539017Y-119446974D01*
X83597000Y-119485717D01*
X83597000Y-119837200D01*
X83671979Y-120214143D01*
X83885500Y-120533700D01*
X85079300Y-121727500D01*
X85398857Y-121941021D01*
X85775800Y-122016000D01*
X99795000Y-122016000D01*
X101030499Y-123251500D01*
X101168337Y-123343600D01*
X71584616Y-123343600D01*
X71865723Y-123227449D01*
X73311372Y-121784320D01*
X74094717Y-119897818D01*
X74096165Y-118237000D01*
X78027000Y-118237000D01*
X78027000Y-118497000D01*
X78187878Y-119051791D01*
X78548820Y-119502785D01*
X79054875Y-119781323D01*
X79146680Y-119801563D01*
X79375000Y-119680109D01*
X79375000Y-118237000D01*
X78027000Y-118237000D01*
X74096165Y-118237000D01*
X74096499Y-117855144D01*
X73316449Y-115967277D01*
X73205117Y-115855750D01*
X78017000Y-115855750D01*
X78017000Y-116796310D01*
X78113673Y-117029699D01*
X78216465Y-117132490D01*
X78187878Y-117168209D01*
X78027000Y-117723000D01*
X78027000Y-117983000D01*
X79375000Y-117983000D01*
X79375000Y-115697000D01*
X78175750Y-115697000D01*
X78017000Y-115855750D01*
X73205117Y-115855750D01*
X71873320Y-114521628D01*
X71444799Y-114343690D01*
X78017000Y-114343690D01*
X78017000Y-115284250D01*
X78175750Y-115443000D01*
X79375000Y-115443000D01*
X79375000Y-113993750D01*
X79216250Y-113835000D01*
X78525691Y-113835000D01*
X78292302Y-113931673D01*
X78113673Y-114110301D01*
X78017000Y-114343690D01*
X71444799Y-114343690D01*
X69986818Y-113738283D01*
X67944144Y-113736501D01*
X66056277Y-114516551D01*
X64718000Y-115852495D01*
X64718000Y-109713110D01*
X64836731Y-109762290D01*
X65627250Y-109762290D01*
X65786000Y-109603540D01*
X65786000Y-108204000D01*
X65766000Y-108204000D01*
X65766000Y-107950000D01*
X65786000Y-107950000D01*
X65786000Y-106550460D01*
X66040000Y-106550460D01*
X66040000Y-107950000D01*
X66060000Y-107950000D01*
X66060000Y-108204000D01*
X66040000Y-108204000D01*
X66040000Y-109603540D01*
X66198750Y-109762290D01*
X66989269Y-109762290D01*
X67222658Y-109665617D01*
X67401287Y-109486989D01*
X67424149Y-109431795D01*
X67497113Y-109504886D01*
X68116304Y-109761997D01*
X68786754Y-109762582D01*
X69406393Y-109506553D01*
X69723137Y-109190361D01*
X70037113Y-109504886D01*
X70656304Y-109761997D01*
X71326754Y-109762582D01*
X71946393Y-109506553D01*
X72420886Y-109032887D01*
X72677997Y-108413696D01*
X72678582Y-107743246D01*
X72422553Y-107123607D01*
X71948887Y-106649114D01*
X71329696Y-106392003D01*
X70659246Y-106391418D01*
X70039607Y-106647447D01*
X69722863Y-106963639D01*
X69408887Y-106649114D01*
X68789696Y-106392003D01*
X68119246Y-106391418D01*
X67499607Y-106647447D01*
X67424316Y-106722607D01*
X67401287Y-106667011D01*
X67222658Y-106488383D01*
X66989269Y-106391710D01*
X66198750Y-106391710D01*
X66040000Y-106550460D01*
X65786000Y-106550460D01*
X65627250Y-106391710D01*
X64836731Y-106391710D01*
X64718000Y-106440890D01*
X64718000Y-102728110D01*
X64836731Y-102777290D01*
X65627250Y-102777290D01*
X65786000Y-102618540D01*
X65786000Y-101219000D01*
X65766000Y-101219000D01*
X65766000Y-100965000D01*
X65786000Y-100965000D01*
X65786000Y-99565460D01*
X66040000Y-99565460D01*
X66040000Y-100965000D01*
X66060000Y-100965000D01*
X66060000Y-101219000D01*
X66040000Y-101219000D01*
X66040000Y-102618540D01*
X66198750Y-102777290D01*
X66989269Y-102777290D01*
X67222658Y-102680617D01*
X67401287Y-102501989D01*
X67424149Y-102446795D01*
X67497113Y-102519886D01*
X68116304Y-102776997D01*
X68786754Y-102777582D01*
X69406393Y-102521553D01*
X69723137Y-102205361D01*
X70037113Y-102519886D01*
X70656304Y-102776997D01*
X71326754Y-102777582D01*
X71946393Y-102521553D01*
X72420886Y-102047887D01*
X72677997Y-101428696D01*
X72678582Y-100758246D01*
X72422553Y-100138607D01*
X71948887Y-99664114D01*
X71329696Y-99407003D01*
X70659246Y-99406418D01*
X70039607Y-99662447D01*
X69722863Y-99978639D01*
X69408887Y-99664114D01*
X68789696Y-99407003D01*
X68119246Y-99406418D01*
X67499607Y-99662447D01*
X67424316Y-99737607D01*
X67401287Y-99682011D01*
X67222658Y-99503383D01*
X66989269Y-99406710D01*
X66198750Y-99406710D01*
X66040000Y-99565460D01*
X65786000Y-99565460D01*
X65627250Y-99406710D01*
X64836731Y-99406710D01*
X64718000Y-99455890D01*
X64718000Y-95743110D01*
X64836731Y-95792290D01*
X65627250Y-95792290D01*
X65786000Y-95633540D01*
X65786000Y-94234000D01*
X65766000Y-94234000D01*
X65766000Y-93980000D01*
X65786000Y-93980000D01*
X65786000Y-92580460D01*
X66040000Y-92580460D01*
X66040000Y-93980000D01*
X66060000Y-93980000D01*
X66060000Y-94234000D01*
X66040000Y-94234000D01*
X66040000Y-95633540D01*
X66198750Y-95792290D01*
X66989269Y-95792290D01*
X67222658Y-95695617D01*
X67401287Y-95516989D01*
X67424149Y-95461795D01*
X67497113Y-95534886D01*
X68116304Y-95791997D01*
X68786754Y-95792582D01*
X69406393Y-95536553D01*
X69723137Y-95220361D01*
X70037113Y-95534886D01*
X70656304Y-95791997D01*
X71326754Y-95792582D01*
X71946393Y-95536553D01*
X72420886Y-95062887D01*
X72677997Y-94443696D01*
X72678582Y-93773246D01*
X72422553Y-93153607D01*
X71948887Y-92679114D01*
X71329696Y-92422003D01*
X70659246Y-92421418D01*
X70039607Y-92677447D01*
X69722863Y-92993639D01*
X69408887Y-92679114D01*
X68789696Y-92422003D01*
X68119246Y-92421418D01*
X67499607Y-92677447D01*
X67424316Y-92752607D01*
X67401287Y-92697011D01*
X67222658Y-92518383D01*
X66989269Y-92421710D01*
X66198750Y-92421710D01*
X66040000Y-92580460D01*
X65786000Y-92580460D01*
X65627250Y-92421710D01*
X64836731Y-92421710D01*
X64718000Y-92470890D01*
X64718000Y-88825275D01*
X64730342Y-88837617D01*
X64963731Y-88934290D01*
X65754250Y-88934290D01*
X65913000Y-88775540D01*
X65913000Y-87376000D01*
X65893000Y-87376000D01*
X65893000Y-87122000D01*
X65913000Y-87122000D01*
X65913000Y-85722460D01*
X66167000Y-85722460D01*
X66167000Y-87122000D01*
X66187000Y-87122000D01*
X66187000Y-87376000D01*
X66167000Y-87376000D01*
X66167000Y-88775540D01*
X66325750Y-88934290D01*
X67116269Y-88934290D01*
X67349658Y-88837617D01*
X67528287Y-88658989D01*
X67551149Y-88603795D01*
X67624113Y-88676886D01*
X68243304Y-88933997D01*
X68913754Y-88934582D01*
X69533393Y-88678553D01*
X69850137Y-88362361D01*
X70164113Y-88676886D01*
X70783304Y-88933997D01*
X71453754Y-88934582D01*
X72073393Y-88678553D01*
X72547886Y-88204887D01*
X72804997Y-87585696D01*
X72805582Y-86915246D01*
X72549553Y-86295607D01*
X72075887Y-85821114D01*
X71456696Y-85564003D01*
X70786246Y-85563418D01*
X70166607Y-85819447D01*
X69849863Y-86135639D01*
X69535887Y-85821114D01*
X68916696Y-85564003D01*
X68246246Y-85563418D01*
X67626607Y-85819447D01*
X67551316Y-85894607D01*
X67528287Y-85839011D01*
X67349658Y-85660383D01*
X67116269Y-85563710D01*
X66325750Y-85563710D01*
X66167000Y-85722460D01*
X65913000Y-85722460D01*
X65754250Y-85563710D01*
X64963731Y-85563710D01*
X64730342Y-85660383D01*
X64718000Y-85672725D01*
X64718000Y-81967275D01*
X64730342Y-81979617D01*
X64963731Y-82076290D01*
X65754250Y-82076290D01*
X65913000Y-81917540D01*
X65913000Y-80518000D01*
X65893000Y-80518000D01*
X65893000Y-80264000D01*
X65913000Y-80264000D01*
X65913000Y-78864460D01*
X66167000Y-78864460D01*
X66167000Y-80264000D01*
X66187000Y-80264000D01*
X66187000Y-80518000D01*
X66167000Y-80518000D01*
X66167000Y-81917540D01*
X66325750Y-82076290D01*
X67116269Y-82076290D01*
X67349658Y-81979617D01*
X67528287Y-81800989D01*
X67551149Y-81745795D01*
X67624113Y-81818886D01*
X68243304Y-82075997D01*
X68913754Y-82076582D01*
X69533393Y-81820553D01*
X69850137Y-81504361D01*
X70164113Y-81818886D01*
X70783304Y-82075997D01*
X71453754Y-82076582D01*
X72073393Y-81820553D01*
X72547886Y-81346887D01*
X72804997Y-80727696D01*
X72805582Y-80057246D01*
X72549553Y-79437607D01*
X72075887Y-78963114D01*
X71456696Y-78706003D01*
X70786246Y-78705418D01*
X70166607Y-78961447D01*
X69849863Y-79277639D01*
X69535887Y-78963114D01*
X68916696Y-78706003D01*
X68246246Y-78705418D01*
X67626607Y-78961447D01*
X67551316Y-79036607D01*
X67528287Y-78981011D01*
X67349658Y-78802383D01*
X67116269Y-78705710D01*
X66325750Y-78705710D01*
X66167000Y-78864460D01*
X65913000Y-78864460D01*
X65754250Y-78705710D01*
X64963731Y-78705710D01*
X64730342Y-78802383D01*
X64718000Y-78814725D01*
X64718000Y-74982275D01*
X64730342Y-74994617D01*
X64963731Y-75091290D01*
X65754250Y-75091290D01*
X65913000Y-74932540D01*
X65913000Y-73533000D01*
X65893000Y-73533000D01*
X65893000Y-73279000D01*
X65913000Y-73279000D01*
X65913000Y-71879460D01*
X66167000Y-71879460D01*
X66167000Y-73279000D01*
X66187000Y-73279000D01*
X66187000Y-73533000D01*
X66167000Y-73533000D01*
X66167000Y-74932540D01*
X66325750Y-75091290D01*
X67116269Y-75091290D01*
X67349658Y-74994617D01*
X67528287Y-74815989D01*
X67551149Y-74760795D01*
X67624113Y-74833886D01*
X68243304Y-75090997D01*
X68913754Y-75091582D01*
X69533393Y-74835553D01*
X69850137Y-74519361D01*
X70164113Y-74833886D01*
X70783304Y-75090997D01*
X71453754Y-75091582D01*
X72073393Y-74835553D01*
X72547886Y-74361887D01*
X72804997Y-73742696D01*
X72805582Y-73072246D01*
X72549553Y-72452607D01*
X72075887Y-71978114D01*
X71456696Y-71721003D01*
X70786246Y-71720418D01*
X70166607Y-71976447D01*
X69849863Y-72292639D01*
X69535887Y-71978114D01*
X68916696Y-71721003D01*
X68246246Y-71720418D01*
X67626607Y-71976447D01*
X67551316Y-72051607D01*
X67528287Y-71996011D01*
X67349658Y-71817383D01*
X67116269Y-71720710D01*
X66325750Y-71720710D01*
X66167000Y-71879460D01*
X65913000Y-71879460D01*
X65754250Y-71720710D01*
X64963731Y-71720710D01*
X64730342Y-71817383D01*
X64718000Y-71829725D01*
X64718000Y-67870276D01*
X64857342Y-68009617D01*
X65090731Y-68106290D01*
X65881250Y-68106290D01*
X66040000Y-67947540D01*
X66040000Y-66548000D01*
X66020000Y-66548000D01*
X66020000Y-66294000D01*
X66040000Y-66294000D01*
X66040000Y-64894460D01*
X66294000Y-64894460D01*
X66294000Y-66294000D01*
X66314000Y-66294000D01*
X66314000Y-66548000D01*
X66294000Y-66548000D01*
X66294000Y-67947540D01*
X66452750Y-68106290D01*
X67243269Y-68106290D01*
X67476658Y-68009617D01*
X67655287Y-67830989D01*
X67678149Y-67775795D01*
X67751113Y-67848886D01*
X68370304Y-68105997D01*
X69040754Y-68106582D01*
X69660393Y-67850553D01*
X69977137Y-67534361D01*
X70291113Y-67848886D01*
X70910304Y-68105997D01*
X71580754Y-68106582D01*
X72200393Y-67850553D01*
X72674886Y-67376887D01*
X72931997Y-66757696D01*
X72932582Y-66087246D01*
X72676553Y-65467607D01*
X72202887Y-64993114D01*
X71583696Y-64736003D01*
X70913246Y-64735418D01*
X70293607Y-64991447D01*
X69976863Y-65307639D01*
X69662887Y-64993114D01*
X69043696Y-64736003D01*
X68373246Y-64735418D01*
X67753607Y-64991447D01*
X67678316Y-65066607D01*
X67655287Y-65011011D01*
X67476658Y-64832383D01*
X67243269Y-64735710D01*
X66452750Y-64735710D01*
X66294000Y-64894460D01*
X66040000Y-64894460D01*
X65881250Y-64735710D01*
X65090731Y-64735710D01*
X64857342Y-64832383D01*
X64718000Y-64971724D01*
X64718000Y-61012275D01*
X64730342Y-61024617D01*
X64963731Y-61121290D01*
X65754250Y-61121290D01*
X65913000Y-60962540D01*
X65913000Y-59563000D01*
X65893000Y-59563000D01*
X65893000Y-59309000D01*
X65913000Y-59309000D01*
X65913000Y-57909460D01*
X66167000Y-57909460D01*
X66167000Y-59309000D01*
X66187000Y-59309000D01*
X66187000Y-59563000D01*
X66167000Y-59563000D01*
X66167000Y-60962540D01*
X66325750Y-61121290D01*
X67116269Y-61121290D01*
X67349658Y-61024617D01*
X67528287Y-60845989D01*
X67551149Y-60790795D01*
X67624113Y-60863886D01*
X68243304Y-61120997D01*
X68913754Y-61121582D01*
X69533393Y-60865553D01*
X69850137Y-60549361D01*
X70164113Y-60863886D01*
X70783304Y-61120997D01*
X71453754Y-61121582D01*
X72073393Y-60865553D01*
X72547886Y-60391887D01*
X72804997Y-59772696D01*
X72805582Y-59102246D01*
X72549553Y-58482607D01*
X72075887Y-58008114D01*
X71456696Y-57751003D01*
X70786246Y-57750418D01*
X70166607Y-58006447D01*
X69849863Y-58322639D01*
X69535887Y-58008114D01*
X68916696Y-57751003D01*
X68246246Y-57750418D01*
X67626607Y-58006447D01*
X67551316Y-58081607D01*
X67528287Y-58026011D01*
X67349658Y-57847383D01*
X67116269Y-57750710D01*
X66325750Y-57750710D01*
X66167000Y-57909460D01*
X65913000Y-57909460D01*
X65754250Y-57750710D01*
X64963731Y-57750710D01*
X64730342Y-57847383D01*
X64718000Y-57859725D01*
X64718000Y-54154275D01*
X64730342Y-54166617D01*
X64963731Y-54263290D01*
X65754250Y-54263290D01*
X65913000Y-54104540D01*
X65913000Y-52705000D01*
X65893000Y-52705000D01*
X65893000Y-52451000D01*
X65913000Y-52451000D01*
X65913000Y-51051460D01*
X66167000Y-51051460D01*
X66167000Y-52451000D01*
X66187000Y-52451000D01*
X66187000Y-52705000D01*
X66167000Y-52705000D01*
X66167000Y-54104540D01*
X66325750Y-54263290D01*
X67116269Y-54263290D01*
X67349658Y-54166617D01*
X67528287Y-53987989D01*
X67551149Y-53932795D01*
X67624113Y-54005886D01*
X68243304Y-54262997D01*
X68913754Y-54263582D01*
X69533393Y-54007553D01*
X69850137Y-53691361D01*
X70164113Y-54005886D01*
X70783304Y-54262997D01*
X71453754Y-54263582D01*
X72073393Y-54007553D01*
X72547886Y-53533887D01*
X72804997Y-52914696D01*
X72805582Y-52244246D01*
X72549553Y-51624607D01*
X72075887Y-51150114D01*
X71456696Y-50893003D01*
X70786246Y-50892418D01*
X70166607Y-51148447D01*
X69849863Y-51464639D01*
X69535887Y-51150114D01*
X68916696Y-50893003D01*
X68246246Y-50892418D01*
X67626607Y-51148447D01*
X67551316Y-51223607D01*
X67528287Y-51168011D01*
X67349658Y-50989383D01*
X67116269Y-50892710D01*
X66325750Y-50892710D01*
X66167000Y-51051460D01*
X65913000Y-51051460D01*
X65754250Y-50892710D01*
X64963731Y-50892710D01*
X64730342Y-50989383D01*
X64718000Y-51001725D01*
X64718000Y-46132750D01*
X77586000Y-46132750D01*
X77586000Y-47073310D01*
X77682673Y-47306699D01*
X77861302Y-47485327D01*
X78094691Y-47582000D01*
X78835250Y-47582000D01*
X78994000Y-47423250D01*
X78994000Y-45974000D01*
X77744750Y-45974000D01*
X77586000Y-46132750D01*
X64718000Y-46132750D01*
X64718000Y-42895368D01*
X66048680Y-44228372D01*
X67935182Y-45011717D01*
X69977856Y-45013499D01*
X70928527Y-44620690D01*
X77586000Y-44620690D01*
X77586000Y-45561250D01*
X77744750Y-45720000D01*
X78994000Y-45720000D01*
X78994000Y-43434000D01*
X77741738Y-43434000D01*
X77590504Y-43675497D01*
X77771487Y-44248366D01*
X77794370Y-44275605D01*
X77682673Y-44387301D01*
X77586000Y-44620690D01*
X70928527Y-44620690D01*
X71865723Y-44233449D01*
X73311372Y-42790320D01*
X73582483Y-42137414D01*
X73837800Y-42188200D01*
X73837800Y-42188200D01*
G37*
X73837800Y-42188200D02*
X77920544Y-42188200D01*
X77771487Y-42365634D01*
X77590504Y-42938503D01*
X77741738Y-43180000D01*
X78994000Y-43180000D01*
X78994000Y-43160000D01*
X79248000Y-43160000D01*
X79248000Y-43180000D01*
X79268000Y-43180000D01*
X79268000Y-43434000D01*
X79248000Y-43434000D01*
X79248000Y-45720000D01*
X79268000Y-45720000D01*
X79268000Y-45974000D01*
X79248000Y-45974000D01*
X79248000Y-47423250D01*
X79406750Y-47582000D01*
X80147309Y-47582000D01*
X80380698Y-47485327D01*
X80526000Y-47340026D01*
X80526000Y-49567868D01*
X79016934Y-51076934D01*
X78770897Y-51445154D01*
X78684500Y-51879500D01*
X78684500Y-58029550D01*
X78667265Y-58046755D01*
X78471223Y-58518876D01*
X78470777Y-59030081D01*
X78665995Y-59502543D01*
X78684500Y-59521080D01*
X78684500Y-85994950D01*
X78667265Y-86012155D01*
X78471223Y-86484276D01*
X78470777Y-86995481D01*
X78621000Y-87359047D01*
X78621000Y-111658400D01*
X78707397Y-112092746D01*
X78870609Y-112337010D01*
X78953434Y-112460966D01*
X80327468Y-113835000D01*
X79787750Y-113835000D01*
X79629000Y-113993750D01*
X79629000Y-115443000D01*
X79649000Y-115443000D01*
X79649000Y-115697000D01*
X79629000Y-115697000D01*
X79629000Y-117983000D01*
X79649000Y-117983000D01*
X79649000Y-118237000D01*
X79629000Y-118237000D01*
X79629000Y-119680109D01*
X79857320Y-119801563D01*
X79949125Y-119781323D01*
X80455180Y-119502785D01*
X80771892Y-119107056D01*
X80999017Y-119446974D01*
X81477542Y-119766713D01*
X82042000Y-119878991D01*
X82606458Y-119766713D01*
X83084983Y-119446974D01*
X83312000Y-119107218D01*
X83539017Y-119446974D01*
X83597000Y-119485717D01*
X83597000Y-119837200D01*
X83671979Y-120214143D01*
X83885500Y-120533700D01*
X85079300Y-121727500D01*
X85398857Y-121941021D01*
X85775800Y-122016000D01*
X99795000Y-122016000D01*
X101030499Y-123251500D01*
X101168337Y-123343600D01*
X71584616Y-123343600D01*
X71865723Y-123227449D01*
X73311372Y-121784320D01*
X74094717Y-119897818D01*
X74096165Y-118237000D01*
X78027000Y-118237000D01*
X78027000Y-118497000D01*
X78187878Y-119051791D01*
X78548820Y-119502785D01*
X79054875Y-119781323D01*
X79146680Y-119801563D01*
X79375000Y-119680109D01*
X79375000Y-118237000D01*
X78027000Y-118237000D01*
X74096165Y-118237000D01*
X74096499Y-117855144D01*
X73316449Y-115967277D01*
X73205117Y-115855750D01*
X78017000Y-115855750D01*
X78017000Y-116796310D01*
X78113673Y-117029699D01*
X78216465Y-117132490D01*
X78187878Y-117168209D01*
X78027000Y-117723000D01*
X78027000Y-117983000D01*
X79375000Y-117983000D01*
X79375000Y-115697000D01*
X78175750Y-115697000D01*
X78017000Y-115855750D01*
X73205117Y-115855750D01*
X71873320Y-114521628D01*
X71444799Y-114343690D01*
X78017000Y-114343690D01*
X78017000Y-115284250D01*
X78175750Y-115443000D01*
X79375000Y-115443000D01*
X79375000Y-113993750D01*
X79216250Y-113835000D01*
X78525691Y-113835000D01*
X78292302Y-113931673D01*
X78113673Y-114110301D01*
X78017000Y-114343690D01*
X71444799Y-114343690D01*
X69986818Y-113738283D01*
X67944144Y-113736501D01*
X66056277Y-114516551D01*
X64718000Y-115852495D01*
X64718000Y-109713110D01*
X64836731Y-109762290D01*
X65627250Y-109762290D01*
X65786000Y-109603540D01*
X65786000Y-108204000D01*
X65766000Y-108204000D01*
X65766000Y-107950000D01*
X65786000Y-107950000D01*
X65786000Y-106550460D01*
X66040000Y-106550460D01*
X66040000Y-107950000D01*
X66060000Y-107950000D01*
X66060000Y-108204000D01*
X66040000Y-108204000D01*
X66040000Y-109603540D01*
X66198750Y-109762290D01*
X66989269Y-109762290D01*
X67222658Y-109665617D01*
X67401287Y-109486989D01*
X67424149Y-109431795D01*
X67497113Y-109504886D01*
X68116304Y-109761997D01*
X68786754Y-109762582D01*
X69406393Y-109506553D01*
X69723137Y-109190361D01*
X70037113Y-109504886D01*
X70656304Y-109761997D01*
X71326754Y-109762582D01*
X71946393Y-109506553D01*
X72420886Y-109032887D01*
X72677997Y-108413696D01*
X72678582Y-107743246D01*
X72422553Y-107123607D01*
X71948887Y-106649114D01*
X71329696Y-106392003D01*
X70659246Y-106391418D01*
X70039607Y-106647447D01*
X69722863Y-106963639D01*
X69408887Y-106649114D01*
X68789696Y-106392003D01*
X68119246Y-106391418D01*
X67499607Y-106647447D01*
X67424316Y-106722607D01*
X67401287Y-106667011D01*
X67222658Y-106488383D01*
X66989269Y-106391710D01*
X66198750Y-106391710D01*
X66040000Y-106550460D01*
X65786000Y-106550460D01*
X65627250Y-106391710D01*
X64836731Y-106391710D01*
X64718000Y-106440890D01*
X64718000Y-102728110D01*
X64836731Y-102777290D01*
X65627250Y-102777290D01*
X65786000Y-102618540D01*
X65786000Y-101219000D01*
X65766000Y-101219000D01*
X65766000Y-100965000D01*
X65786000Y-100965000D01*
X65786000Y-99565460D01*
X66040000Y-99565460D01*
X66040000Y-100965000D01*
X66060000Y-100965000D01*
X66060000Y-101219000D01*
X66040000Y-101219000D01*
X66040000Y-102618540D01*
X66198750Y-102777290D01*
X66989269Y-102777290D01*
X67222658Y-102680617D01*
X67401287Y-102501989D01*
X67424149Y-102446795D01*
X67497113Y-102519886D01*
X68116304Y-102776997D01*
X68786754Y-102777582D01*
X69406393Y-102521553D01*
X69723137Y-102205361D01*
X70037113Y-102519886D01*
X70656304Y-102776997D01*
X71326754Y-102777582D01*
X71946393Y-102521553D01*
X72420886Y-102047887D01*
X72677997Y-101428696D01*
X72678582Y-100758246D01*
X72422553Y-100138607D01*
X71948887Y-99664114D01*
X71329696Y-99407003D01*
X70659246Y-99406418D01*
X70039607Y-99662447D01*
X69722863Y-99978639D01*
X69408887Y-99664114D01*
X68789696Y-99407003D01*
X68119246Y-99406418D01*
X67499607Y-99662447D01*
X67424316Y-99737607D01*
X67401287Y-99682011D01*
X67222658Y-99503383D01*
X66989269Y-99406710D01*
X66198750Y-99406710D01*
X66040000Y-99565460D01*
X65786000Y-99565460D01*
X65627250Y-99406710D01*
X64836731Y-99406710D01*
X64718000Y-99455890D01*
X64718000Y-95743110D01*
X64836731Y-95792290D01*
X65627250Y-95792290D01*
X65786000Y-95633540D01*
X65786000Y-94234000D01*
X65766000Y-94234000D01*
X65766000Y-93980000D01*
X65786000Y-93980000D01*
X65786000Y-92580460D01*
X66040000Y-92580460D01*
X66040000Y-93980000D01*
X66060000Y-93980000D01*
X66060000Y-94234000D01*
X66040000Y-94234000D01*
X66040000Y-95633540D01*
X66198750Y-95792290D01*
X66989269Y-95792290D01*
X67222658Y-95695617D01*
X67401287Y-95516989D01*
X67424149Y-95461795D01*
X67497113Y-95534886D01*
X68116304Y-95791997D01*
X68786754Y-95792582D01*
X69406393Y-95536553D01*
X69723137Y-95220361D01*
X70037113Y-95534886D01*
X70656304Y-95791997D01*
X71326754Y-95792582D01*
X71946393Y-95536553D01*
X72420886Y-95062887D01*
X72677997Y-94443696D01*
X72678582Y-93773246D01*
X72422553Y-93153607D01*
X71948887Y-92679114D01*
X71329696Y-92422003D01*
X70659246Y-92421418D01*
X70039607Y-92677447D01*
X69722863Y-92993639D01*
X69408887Y-92679114D01*
X68789696Y-92422003D01*
X68119246Y-92421418D01*
X67499607Y-92677447D01*
X67424316Y-92752607D01*
X67401287Y-92697011D01*
X67222658Y-92518383D01*
X66989269Y-92421710D01*
X66198750Y-92421710D01*
X66040000Y-92580460D01*
X65786000Y-92580460D01*
X65627250Y-92421710D01*
X64836731Y-92421710D01*
X64718000Y-92470890D01*
X64718000Y-88825275D01*
X64730342Y-88837617D01*
X64963731Y-88934290D01*
X65754250Y-88934290D01*
X65913000Y-88775540D01*
X65913000Y-87376000D01*
X65893000Y-87376000D01*
X65893000Y-87122000D01*
X65913000Y-87122000D01*
X65913000Y-85722460D01*
X66167000Y-85722460D01*
X66167000Y-87122000D01*
X66187000Y-87122000D01*
X66187000Y-87376000D01*
X66167000Y-87376000D01*
X66167000Y-88775540D01*
X66325750Y-88934290D01*
X67116269Y-88934290D01*
X67349658Y-88837617D01*
X67528287Y-88658989D01*
X67551149Y-88603795D01*
X67624113Y-88676886D01*
X68243304Y-88933997D01*
X68913754Y-88934582D01*
X69533393Y-88678553D01*
X69850137Y-88362361D01*
X70164113Y-88676886D01*
X70783304Y-88933997D01*
X71453754Y-88934582D01*
X72073393Y-88678553D01*
X72547886Y-88204887D01*
X72804997Y-87585696D01*
X72805582Y-86915246D01*
X72549553Y-86295607D01*
X72075887Y-85821114D01*
X71456696Y-85564003D01*
X70786246Y-85563418D01*
X70166607Y-85819447D01*
X69849863Y-86135639D01*
X69535887Y-85821114D01*
X68916696Y-85564003D01*
X68246246Y-85563418D01*
X67626607Y-85819447D01*
X67551316Y-85894607D01*
X67528287Y-85839011D01*
X67349658Y-85660383D01*
X67116269Y-85563710D01*
X66325750Y-85563710D01*
X66167000Y-85722460D01*
X65913000Y-85722460D01*
X65754250Y-85563710D01*
X64963731Y-85563710D01*
X64730342Y-85660383D01*
X64718000Y-85672725D01*
X64718000Y-81967275D01*
X64730342Y-81979617D01*
X64963731Y-82076290D01*
X65754250Y-82076290D01*
X65913000Y-81917540D01*
X65913000Y-80518000D01*
X65893000Y-80518000D01*
X65893000Y-80264000D01*
X65913000Y-80264000D01*
X65913000Y-78864460D01*
X66167000Y-78864460D01*
X66167000Y-80264000D01*
X66187000Y-80264000D01*
X66187000Y-80518000D01*
X66167000Y-80518000D01*
X66167000Y-81917540D01*
X66325750Y-82076290D01*
X67116269Y-82076290D01*
X67349658Y-81979617D01*
X67528287Y-81800989D01*
X67551149Y-81745795D01*
X67624113Y-81818886D01*
X68243304Y-82075997D01*
X68913754Y-82076582D01*
X69533393Y-81820553D01*
X69850137Y-81504361D01*
X70164113Y-81818886D01*
X70783304Y-82075997D01*
X71453754Y-82076582D01*
X72073393Y-81820553D01*
X72547886Y-81346887D01*
X72804997Y-80727696D01*
X72805582Y-80057246D01*
X72549553Y-79437607D01*
X72075887Y-78963114D01*
X71456696Y-78706003D01*
X70786246Y-78705418D01*
X70166607Y-78961447D01*
X69849863Y-79277639D01*
X69535887Y-78963114D01*
X68916696Y-78706003D01*
X68246246Y-78705418D01*
X67626607Y-78961447D01*
X67551316Y-79036607D01*
X67528287Y-78981011D01*
X67349658Y-78802383D01*
X67116269Y-78705710D01*
X66325750Y-78705710D01*
X66167000Y-78864460D01*
X65913000Y-78864460D01*
X65754250Y-78705710D01*
X64963731Y-78705710D01*
X64730342Y-78802383D01*
X64718000Y-78814725D01*
X64718000Y-74982275D01*
X64730342Y-74994617D01*
X64963731Y-75091290D01*
X65754250Y-75091290D01*
X65913000Y-74932540D01*
X65913000Y-73533000D01*
X65893000Y-73533000D01*
X65893000Y-73279000D01*
X65913000Y-73279000D01*
X65913000Y-71879460D01*
X66167000Y-71879460D01*
X66167000Y-73279000D01*
X66187000Y-73279000D01*
X66187000Y-73533000D01*
X66167000Y-73533000D01*
X66167000Y-74932540D01*
X66325750Y-75091290D01*
X67116269Y-75091290D01*
X67349658Y-74994617D01*
X67528287Y-74815989D01*
X67551149Y-74760795D01*
X67624113Y-74833886D01*
X68243304Y-75090997D01*
X68913754Y-75091582D01*
X69533393Y-74835553D01*
X69850137Y-74519361D01*
X70164113Y-74833886D01*
X70783304Y-75090997D01*
X71453754Y-75091582D01*
X72073393Y-74835553D01*
X72547886Y-74361887D01*
X72804997Y-73742696D01*
X72805582Y-73072246D01*
X72549553Y-72452607D01*
X72075887Y-71978114D01*
X71456696Y-71721003D01*
X70786246Y-71720418D01*
X70166607Y-71976447D01*
X69849863Y-72292639D01*
X69535887Y-71978114D01*
X68916696Y-71721003D01*
X68246246Y-71720418D01*
X67626607Y-71976447D01*
X67551316Y-72051607D01*
X67528287Y-71996011D01*
X67349658Y-71817383D01*
X67116269Y-71720710D01*
X66325750Y-71720710D01*
X66167000Y-71879460D01*
X65913000Y-71879460D01*
X65754250Y-71720710D01*
X64963731Y-71720710D01*
X64730342Y-71817383D01*
X64718000Y-71829725D01*
X64718000Y-67870276D01*
X64857342Y-68009617D01*
X65090731Y-68106290D01*
X65881250Y-68106290D01*
X66040000Y-67947540D01*
X66040000Y-66548000D01*
X66020000Y-66548000D01*
X66020000Y-66294000D01*
X66040000Y-66294000D01*
X66040000Y-64894460D01*
X66294000Y-64894460D01*
X66294000Y-66294000D01*
X66314000Y-66294000D01*
X66314000Y-66548000D01*
X66294000Y-66548000D01*
X66294000Y-67947540D01*
X66452750Y-68106290D01*
X67243269Y-68106290D01*
X67476658Y-68009617D01*
X67655287Y-67830989D01*
X67678149Y-67775795D01*
X67751113Y-67848886D01*
X68370304Y-68105997D01*
X69040754Y-68106582D01*
X69660393Y-67850553D01*
X69977137Y-67534361D01*
X70291113Y-67848886D01*
X70910304Y-68105997D01*
X71580754Y-68106582D01*
X72200393Y-67850553D01*
X72674886Y-67376887D01*
X72931997Y-66757696D01*
X72932582Y-66087246D01*
X72676553Y-65467607D01*
X72202887Y-64993114D01*
X71583696Y-64736003D01*
X70913246Y-64735418D01*
X70293607Y-64991447D01*
X69976863Y-65307639D01*
X69662887Y-64993114D01*
X69043696Y-64736003D01*
X68373246Y-64735418D01*
X67753607Y-64991447D01*
X67678316Y-65066607D01*
X67655287Y-65011011D01*
X67476658Y-64832383D01*
X67243269Y-64735710D01*
X66452750Y-64735710D01*
X66294000Y-64894460D01*
X66040000Y-64894460D01*
X65881250Y-64735710D01*
X65090731Y-64735710D01*
X64857342Y-64832383D01*
X64718000Y-64971724D01*
X64718000Y-61012275D01*
X64730342Y-61024617D01*
X64963731Y-61121290D01*
X65754250Y-61121290D01*
X65913000Y-60962540D01*
X65913000Y-59563000D01*
X65893000Y-59563000D01*
X65893000Y-59309000D01*
X65913000Y-59309000D01*
X65913000Y-57909460D01*
X66167000Y-57909460D01*
X66167000Y-59309000D01*
X66187000Y-59309000D01*
X66187000Y-59563000D01*
X66167000Y-59563000D01*
X66167000Y-60962540D01*
X66325750Y-61121290D01*
X67116269Y-61121290D01*
X67349658Y-61024617D01*
X67528287Y-60845989D01*
X67551149Y-60790795D01*
X67624113Y-60863886D01*
X68243304Y-61120997D01*
X68913754Y-61121582D01*
X69533393Y-60865553D01*
X69850137Y-60549361D01*
X70164113Y-60863886D01*
X70783304Y-61120997D01*
X71453754Y-61121582D01*
X72073393Y-60865553D01*
X72547886Y-60391887D01*
X72804997Y-59772696D01*
X72805582Y-59102246D01*
X72549553Y-58482607D01*
X72075887Y-58008114D01*
X71456696Y-57751003D01*
X70786246Y-57750418D01*
X70166607Y-58006447D01*
X69849863Y-58322639D01*
X69535887Y-58008114D01*
X68916696Y-57751003D01*
X68246246Y-57750418D01*
X67626607Y-58006447D01*
X67551316Y-58081607D01*
X67528287Y-58026011D01*
X67349658Y-57847383D01*
X67116269Y-57750710D01*
X66325750Y-57750710D01*
X66167000Y-57909460D01*
X65913000Y-57909460D01*
X65754250Y-57750710D01*
X64963731Y-57750710D01*
X64730342Y-57847383D01*
X64718000Y-57859725D01*
X64718000Y-54154275D01*
X64730342Y-54166617D01*
X64963731Y-54263290D01*
X65754250Y-54263290D01*
X65913000Y-54104540D01*
X65913000Y-52705000D01*
X65893000Y-52705000D01*
X65893000Y-52451000D01*
X65913000Y-52451000D01*
X65913000Y-51051460D01*
X66167000Y-51051460D01*
X66167000Y-52451000D01*
X66187000Y-52451000D01*
X66187000Y-52705000D01*
X66167000Y-52705000D01*
X66167000Y-54104540D01*
X66325750Y-54263290D01*
X67116269Y-54263290D01*
X67349658Y-54166617D01*
X67528287Y-53987989D01*
X67551149Y-53932795D01*
X67624113Y-54005886D01*
X68243304Y-54262997D01*
X68913754Y-54263582D01*
X69533393Y-54007553D01*
X69850137Y-53691361D01*
X70164113Y-54005886D01*
X70783304Y-54262997D01*
X71453754Y-54263582D01*
X72073393Y-54007553D01*
X72547886Y-53533887D01*
X72804997Y-52914696D01*
X72805582Y-52244246D01*
X72549553Y-51624607D01*
X72075887Y-51150114D01*
X71456696Y-50893003D01*
X70786246Y-50892418D01*
X70166607Y-51148447D01*
X69849863Y-51464639D01*
X69535887Y-51150114D01*
X68916696Y-50893003D01*
X68246246Y-50892418D01*
X67626607Y-51148447D01*
X67551316Y-51223607D01*
X67528287Y-51168011D01*
X67349658Y-50989383D01*
X67116269Y-50892710D01*
X66325750Y-50892710D01*
X66167000Y-51051460D01*
X65913000Y-51051460D01*
X65754250Y-50892710D01*
X64963731Y-50892710D01*
X64730342Y-50989383D01*
X64718000Y-51001725D01*
X64718000Y-46132750D01*
X77586000Y-46132750D01*
X77586000Y-47073310D01*
X77682673Y-47306699D01*
X77861302Y-47485327D01*
X78094691Y-47582000D01*
X78835250Y-47582000D01*
X78994000Y-47423250D01*
X78994000Y-45974000D01*
X77744750Y-45974000D01*
X77586000Y-46132750D01*
X64718000Y-46132750D01*
X64718000Y-42895368D01*
X66048680Y-44228372D01*
X67935182Y-45011717D01*
X69977856Y-45013499D01*
X70928527Y-44620690D01*
X77586000Y-44620690D01*
X77586000Y-45561250D01*
X77744750Y-45720000D01*
X78994000Y-45720000D01*
X78994000Y-43434000D01*
X77741738Y-43434000D01*
X77590504Y-43675497D01*
X77771487Y-44248366D01*
X77794370Y-44275605D01*
X77682673Y-44387301D01*
X77586000Y-44620690D01*
X70928527Y-44620690D01*
X71865723Y-44233449D01*
X73311372Y-42790320D01*
X73582483Y-42137414D01*
X73837800Y-42188200D01*
G36*
X103489777Y-95821981D02*
X103684995Y-96294443D01*
X104046155Y-96656235D01*
X104518276Y-96852277D01*
X105029481Y-96852723D01*
X105501943Y-96657505D01*
X105695716Y-96464071D01*
X105824155Y-96592735D01*
X106296276Y-96788777D01*
X106807481Y-96789223D01*
X107279943Y-96594005D01*
X107560438Y-96314000D01*
X115869488Y-96314000D01*
X124522244Y-104966757D01*
X124733629Y-105108000D01*
X102692200Y-105108000D01*
X102382227Y-105169657D01*
X102119444Y-105345243D01*
X101783444Y-105681243D01*
X101566845Y-105464265D01*
X101094724Y-105268223D01*
X100583519Y-105267777D01*
X100111057Y-105462995D01*
X99749265Y-105824155D01*
X99553223Y-106296276D01*
X99552777Y-106807481D01*
X99747995Y-107279943D01*
X100109155Y-107641735D01*
X100112891Y-107643286D01*
X99857057Y-107748995D01*
X99495265Y-108110155D01*
X99299223Y-108582276D01*
X99298873Y-108983468D01*
X99164719Y-108927900D01*
X97524570Y-108927900D01*
X97365820Y-109086650D01*
X97365820Y-110236000D01*
X99514660Y-110236000D01*
X99673410Y-110077250D01*
X99673410Y-109745672D01*
X99855155Y-109927735D01*
X100327276Y-110123777D01*
X100838481Y-110124223D01*
X101150972Y-109995104D01*
X101445320Y-110289452D01*
X101445320Y-112085120D01*
X101489598Y-112320437D01*
X101628670Y-112536561D01*
X101840870Y-112681551D01*
X102092760Y-112732560D01*
X103393240Y-112732560D01*
X103628557Y-112688282D01*
X103844681Y-112549210D01*
X103989671Y-112337010D01*
X104040680Y-112085120D01*
X104040680Y-111919500D01*
X107884900Y-111919500D01*
X109818900Y-113853500D01*
X110138457Y-114067021D01*
X110515400Y-114142000D01*
X119608600Y-114142000D01*
X119985543Y-114067021D01*
X120305100Y-113853500D01*
X123155569Y-111003031D01*
X123223155Y-111070735D01*
X123695276Y-111266777D01*
X124206481Y-111267223D01*
X124678943Y-111072005D01*
X125040735Y-110710845D01*
X125236777Y-110238724D01*
X125237223Y-109727519D01*
X125042005Y-109255057D01*
X124680845Y-108893265D01*
X124208724Y-108697223D01*
X123697519Y-108696777D01*
X123225057Y-108891995D01*
X123119868Y-108997000D01*
X122783600Y-108997000D01*
X122406657Y-109071979D01*
X122087100Y-109285500D01*
X119200600Y-112172000D01*
X118782113Y-112172000D01*
X118987188Y-111967283D01*
X119213742Y-111421681D01*
X119214257Y-110830911D01*
X118988656Y-110284914D01*
X118571283Y-109866812D01*
X118025681Y-109640258D01*
X117504296Y-109639803D01*
X117717188Y-109427283D01*
X117943742Y-108881681D01*
X117944257Y-108290911D01*
X117823229Y-107998000D01*
X123595147Y-107998000D01*
X123873395Y-108276735D01*
X124345516Y-108472777D01*
X124856721Y-108473223D01*
X125329183Y-108278005D01*
X125690975Y-107916845D01*
X125887017Y-107444724D01*
X125887235Y-107195347D01*
X129685190Y-110993302D01*
X129563044Y-110942583D01*
X129051839Y-110942137D01*
X128579377Y-111137355D01*
X128217585Y-111498515D01*
X128021543Y-111970636D01*
X128021097Y-112481841D01*
X128216315Y-112954303D01*
X128577475Y-113316095D01*
X129049596Y-113512137D01*
X129445930Y-113512483D01*
X129744335Y-113810888D01*
X129229542Y-113913287D01*
X128751017Y-114233026D01*
X128709129Y-114295716D01*
X128632327Y-114110301D01*
X128453698Y-113931673D01*
X128220309Y-113835000D01*
X127539750Y-113835000D01*
X127381000Y-113993750D01*
X127381000Y-115443000D01*
X127401000Y-115443000D01*
X127401000Y-115697000D01*
X127381000Y-115697000D01*
X127381000Y-117983000D01*
X127401000Y-117983000D01*
X127401000Y-118237000D01*
X127381000Y-118237000D01*
X127381000Y-119680109D01*
X127609320Y-119801563D01*
X127701125Y-119781323D01*
X128207180Y-119502785D01*
X128523892Y-119107056D01*
X128751017Y-119446974D01*
X129229542Y-119766713D01*
X129794000Y-119878991D01*
X130358458Y-119766713D01*
X130836983Y-119446974D01*
X131064000Y-119107218D01*
X131291017Y-119446974D01*
X131769542Y-119766713D01*
X132334000Y-119878991D01*
X132898458Y-119766713D01*
X133376983Y-119446974D01*
X133604000Y-119107218D01*
X133831017Y-119446974D01*
X134309542Y-119766713D01*
X134874000Y-119878991D01*
X135438458Y-119766713D01*
X135916983Y-119446974D01*
X136144000Y-119107218D01*
X136371017Y-119446974D01*
X136849542Y-119766713D01*
X137414000Y-119878991D01*
X137978458Y-119766713D01*
X138456983Y-119446974D01*
X138776722Y-118968449D01*
X138889000Y-118403991D01*
X138889000Y-117816009D01*
X138776722Y-117251551D01*
X138501733Y-116840000D01*
X138776722Y-116428449D01*
X138889000Y-115863991D01*
X138889000Y-115276009D01*
X138776722Y-114711551D01*
X138703523Y-114602000D01*
X139461500Y-114602000D01*
X139461500Y-117953807D01*
X139182765Y-118232055D01*
X138986723Y-118704176D01*
X138986277Y-119215381D01*
X139181495Y-119687843D01*
X139542655Y-120049635D01*
X140014776Y-120245677D01*
X140525981Y-120246123D01*
X140998443Y-120050905D01*
X141360235Y-119689745D01*
X141458200Y-119453819D01*
X141458200Y-120648400D01*
X141238700Y-120867900D01*
X141085259Y-121097541D01*
X140612800Y-121570000D01*
X102135001Y-121570000D01*
X100899500Y-120334500D01*
X100579943Y-120120979D01*
X100203000Y-120046000D01*
X86183800Y-120046000D01*
X85600879Y-119463079D01*
X85624983Y-119446974D01*
X85852000Y-119107218D01*
X86079017Y-119446974D01*
X86557542Y-119766713D01*
X87122000Y-119878991D01*
X87686458Y-119766713D01*
X88164983Y-119446974D01*
X88392000Y-119107218D01*
X88619017Y-119446974D01*
X89097542Y-119766713D01*
X89662000Y-119878991D01*
X90226458Y-119766713D01*
X90704983Y-119446974D01*
X90932000Y-119107218D01*
X91159017Y-119446974D01*
X91637542Y-119766713D01*
X92202000Y-119878991D01*
X92766458Y-119766713D01*
X93244983Y-119446974D01*
X93472000Y-119107218D01*
X93699017Y-119446974D01*
X94177542Y-119766713D01*
X94742000Y-119878991D01*
X95306458Y-119766713D01*
X95784983Y-119446974D01*
X96012108Y-119107056D01*
X96328820Y-119502785D01*
X96834875Y-119781323D01*
X96926680Y-119801563D01*
X97155000Y-119680109D01*
X97155000Y-118237000D01*
X97409000Y-118237000D01*
X97409000Y-119680109D01*
X97637320Y-119801563D01*
X97729125Y-119781323D01*
X98235180Y-119502785D01*
X98596122Y-119051791D01*
X98657464Y-118840250D01*
X101457760Y-118840250D01*
X101457760Y-119831429D01*
X101554433Y-120064818D01*
X101733061Y-120243447D01*
X101966450Y-120340120D01*
X102457250Y-120340120D01*
X102616000Y-120181370D01*
X102616000Y-118681500D01*
X102870000Y-118681500D01*
X102870000Y-120181370D01*
X103028750Y-120340120D01*
X103519550Y-120340120D01*
X103752939Y-120243447D01*
X103931567Y-120064818D01*
X104028240Y-119831429D01*
X104028240Y-118840250D01*
X103869490Y-118681500D01*
X102870000Y-118681500D01*
X102616000Y-118681500D01*
X101616510Y-118681500D01*
X101457760Y-118840250D01*
X98657464Y-118840250D01*
X98757000Y-118497000D01*
X98757000Y-118237000D01*
X97409000Y-118237000D01*
X97155000Y-118237000D01*
X97135000Y-118237000D01*
X97135000Y-117983000D01*
X97155000Y-117983000D01*
X97155000Y-115697000D01*
X97409000Y-115697000D01*
X97409000Y-117983000D01*
X98757000Y-117983000D01*
X98757000Y-117723000D01*
X98627835Y-117277571D01*
X101457760Y-117277571D01*
X101457760Y-118268750D01*
X101616510Y-118427500D01*
X102616000Y-118427500D01*
X102616000Y-116927630D01*
X102870000Y-116927630D01*
X102870000Y-118427500D01*
X103869490Y-118427500D01*
X104028240Y-118268750D01*
X104028240Y-118095854D01*
X106338457Y-118095854D01*
X106814727Y-119248515D01*
X107695847Y-120131174D01*
X108847674Y-120609454D01*
X110094854Y-120610543D01*
X111247515Y-120134273D01*
X112130174Y-119253153D01*
X112608454Y-118101326D01*
X112608458Y-118095854D01*
X116498457Y-118095854D01*
X116974727Y-119248515D01*
X117855847Y-120131174D01*
X119007674Y-120609454D01*
X120254854Y-120610543D01*
X121407515Y-120134273D01*
X122290174Y-119253153D01*
X122712117Y-118237000D01*
X125779000Y-118237000D01*
X125779000Y-118497000D01*
X125939878Y-119051791D01*
X126300820Y-119502785D01*
X126806875Y-119781323D01*
X126898680Y-119801563D01*
X127127000Y-119680109D01*
X127127000Y-118237000D01*
X125779000Y-118237000D01*
X122712117Y-118237000D01*
X122768454Y-118101326D01*
X122769543Y-116854146D01*
X122357015Y-115855750D01*
X125779000Y-115855750D01*
X125779000Y-116796310D01*
X125875673Y-117029699D01*
X125972910Y-117126936D01*
X125939878Y-117168209D01*
X125779000Y-117723000D01*
X125779000Y-117983000D01*
X127127000Y-117983000D01*
X127127000Y-115697000D01*
X125937750Y-115697000D01*
X125779000Y-115855750D01*
X122357015Y-115855750D01*
X122293273Y-115701485D01*
X121412153Y-114818826D01*
X120267898Y-114343690D01*
X125779000Y-114343690D01*
X125779000Y-115284250D01*
X125937750Y-115443000D01*
X127127000Y-115443000D01*
X127127000Y-113993750D01*
X126968250Y-113835000D01*
X126287691Y-113835000D01*
X126054302Y-113931673D01*
X125875673Y-114110301D01*
X125779000Y-114343690D01*
X120267898Y-114343690D01*
X120260326Y-114340546D01*
X119013146Y-114339457D01*
X117860485Y-114815727D01*
X116977826Y-115696847D01*
X116499546Y-116848674D01*
X116498457Y-118095854D01*
X112608458Y-118095854D01*
X112609543Y-116854146D01*
X112133273Y-115701485D01*
X111252153Y-114818826D01*
X110100326Y-114340546D01*
X108853146Y-114339457D01*
X107700485Y-114815727D01*
X106817826Y-115696847D01*
X106339546Y-116848674D01*
X106338457Y-118095854D01*
X104028240Y-118095854D01*
X104028240Y-117277571D01*
X103931567Y-117044182D01*
X103752939Y-116865553D01*
X103519550Y-116768880D01*
X103028750Y-116768880D01*
X102870000Y-116927630D01*
X102616000Y-116927630D01*
X102457250Y-116768880D01*
X101966450Y-116768880D01*
X101733061Y-116865553D01*
X101554433Y-117044182D01*
X101457760Y-117277571D01*
X98627835Y-117277571D01*
X98596122Y-117168209D01*
X98333448Y-116840000D01*
X98596122Y-116511791D01*
X98757000Y-115957000D01*
X98757000Y-115697000D01*
X97409000Y-115697000D01*
X97155000Y-115697000D01*
X97135000Y-115697000D01*
X97135000Y-115443000D01*
X97155000Y-115443000D01*
X97155000Y-113999891D01*
X97409000Y-113999891D01*
X97409000Y-115443000D01*
X98757000Y-115443000D01*
X98757000Y-115183000D01*
X98596122Y-114628209D01*
X98235180Y-114177215D01*
X97729125Y-113898677D01*
X97637320Y-113878437D01*
X97409000Y-113999891D01*
X97155000Y-113999891D01*
X96926680Y-113878437D01*
X96834875Y-113898677D01*
X96328820Y-114177215D01*
X96012108Y-114572944D01*
X95784983Y-114233026D01*
X95306458Y-113913287D01*
X94742000Y-113801009D01*
X94177542Y-113913287D01*
X93699017Y-114233026D01*
X93472000Y-114572782D01*
X93337000Y-114370740D01*
X93337000Y-111810540D01*
X93536770Y-111810540D01*
X93772087Y-111766262D01*
X93988211Y-111627190D01*
X94133201Y-111414990D01*
X94184210Y-111163100D01*
X94184210Y-110648750D01*
X94804230Y-110648750D01*
X94804230Y-111289410D01*
X94900903Y-111522799D01*
X95079532Y-111701427D01*
X95312921Y-111798100D01*
X96953070Y-111798100D01*
X97111820Y-111639350D01*
X97111820Y-110490000D01*
X97365820Y-110490000D01*
X97365820Y-111639350D01*
X97524570Y-111798100D01*
X99164719Y-111798100D01*
X99398108Y-111701427D01*
X99576737Y-111522799D01*
X99673410Y-111289410D01*
X99673410Y-110648750D01*
X99514660Y-110490000D01*
X97365820Y-110490000D01*
X97111820Y-110490000D01*
X94962980Y-110490000D01*
X94804230Y-110648750D01*
X94184210Y-110648750D01*
X94184210Y-109562900D01*
X94160444Y-109436590D01*
X94804230Y-109436590D01*
X94804230Y-110077250D01*
X94962980Y-110236000D01*
X97111820Y-110236000D01*
X97111820Y-109086650D01*
X96953070Y-108927900D01*
X95312921Y-108927900D01*
X95079532Y-109024573D01*
X94900903Y-109203201D01*
X94804230Y-109436590D01*
X94160444Y-109436590D01*
X94139932Y-109327583D01*
X94000860Y-109111459D01*
X93788660Y-108966469D01*
X93536770Y-108915460D01*
X90073593Y-108915460D01*
X87469600Y-106311468D01*
X87469600Y-102621619D01*
X87790155Y-102942735D01*
X88262276Y-103138777D01*
X88658610Y-103139123D01*
X88835244Y-103315757D01*
X89098027Y-103491343D01*
X89235897Y-103518766D01*
X89408000Y-103553000D01*
X95504000Y-103553000D01*
X95813974Y-103491342D01*
X96076756Y-103315756D01*
X96800560Y-102591953D01*
X96800560Y-103436420D01*
X96844838Y-103671737D01*
X96983910Y-103887861D01*
X97196110Y-104032851D01*
X97448000Y-104083860D01*
X99148000Y-104083860D01*
X99383317Y-104039582D01*
X99570077Y-103919405D01*
X99736110Y-104032851D01*
X99988000Y-104083860D01*
X101688000Y-104083860D01*
X101923317Y-104039582D01*
X102110077Y-103919405D01*
X102276110Y-104032851D01*
X102528000Y-104083860D01*
X104228000Y-104083860D01*
X104463317Y-104039582D01*
X104650077Y-103919405D01*
X104816110Y-104032851D01*
X105068000Y-104083860D01*
X106768000Y-104083860D01*
X107003317Y-104039582D01*
X107190077Y-103919405D01*
X107356110Y-104032851D01*
X107608000Y-104083860D01*
X109308000Y-104083860D01*
X109543317Y-104039582D01*
X109730077Y-103919405D01*
X109896110Y-104032851D01*
X110148000Y-104083860D01*
X111848000Y-104083860D01*
X112083317Y-104039582D01*
X112270077Y-103919405D01*
X112436110Y-104032851D01*
X112688000Y-104083860D01*
X114388000Y-104083860D01*
X114623317Y-104039582D01*
X114810077Y-103919405D01*
X114976110Y-104032851D01*
X115228000Y-104083860D01*
X116928000Y-104083860D01*
X117163317Y-104039582D01*
X117379441Y-103900510D01*
X117524431Y-103688310D01*
X117575440Y-103436420D01*
X117575440Y-101536500D01*
X117531162Y-101301183D01*
X117477237Y-101217381D01*
X117524431Y-101148310D01*
X117575440Y-100896420D01*
X117575440Y-98996500D01*
X117531162Y-98761183D01*
X117392090Y-98545059D01*
X117179890Y-98400069D01*
X116928000Y-98349060D01*
X115228000Y-98349060D01*
X114992683Y-98393338D01*
X114805923Y-98513515D01*
X114639890Y-98400069D01*
X114388000Y-98349060D01*
X112688000Y-98349060D01*
X112452683Y-98393338D01*
X112265923Y-98513515D01*
X112099890Y-98400069D01*
X111848000Y-98349060D01*
X110148000Y-98349060D01*
X109912683Y-98393338D01*
X109724169Y-98514643D01*
X109667699Y-98458173D01*
X109434310Y-98361500D01*
X108743750Y-98361500D01*
X108585000Y-98520250D01*
X108585000Y-99819460D01*
X108605000Y-99819460D01*
X108605000Y-100073460D01*
X108585000Y-100073460D01*
X108585000Y-100093460D01*
X108331000Y-100093460D01*
X108331000Y-100073460D01*
X108311000Y-100073460D01*
X108311000Y-99819460D01*
X108331000Y-99819460D01*
X108331000Y-98520250D01*
X108172250Y-98361500D01*
X107481690Y-98361500D01*
X107248301Y-98458173D01*
X107190103Y-98516371D01*
X107019890Y-98400069D01*
X106768000Y-98349060D01*
X105068000Y-98349060D01*
X104832683Y-98393338D01*
X104645923Y-98513515D01*
X104479890Y-98400069D01*
X104228000Y-98349060D01*
X102528000Y-98349060D01*
X102292683Y-98393338D01*
X102105923Y-98513515D01*
X101939890Y-98400069D01*
X101688000Y-98349060D01*
X99988000Y-98349060D01*
X99752683Y-98393338D01*
X99565923Y-98513515D01*
X99399890Y-98400069D01*
X99148000Y-98349060D01*
X97614453Y-98349060D01*
X97998513Y-97965000D01*
X100609400Y-97965000D01*
X100919374Y-97903342D01*
X101182156Y-97727756D01*
X103490128Y-95419785D01*
X103489777Y-95821981D01*
X103489777Y-95821981D01*
G37*
X103489777Y-95821981D02*
X103684995Y-96294443D01*
X104046155Y-96656235D01*
X104518276Y-96852277D01*
X105029481Y-96852723D01*
X105501943Y-96657505D01*
X105695716Y-96464071D01*
X105824155Y-96592735D01*
X106296276Y-96788777D01*
X106807481Y-96789223D01*
X107279943Y-96594005D01*
X107560438Y-96314000D01*
X115869488Y-96314000D01*
X124522244Y-104966757D01*
X124733629Y-105108000D01*
X102692200Y-105108000D01*
X102382227Y-105169657D01*
X102119444Y-105345243D01*
X101783444Y-105681243D01*
X101566845Y-105464265D01*
X101094724Y-105268223D01*
X100583519Y-105267777D01*
X100111057Y-105462995D01*
X99749265Y-105824155D01*
X99553223Y-106296276D01*
X99552777Y-106807481D01*
X99747995Y-107279943D01*
X100109155Y-107641735D01*
X100112891Y-107643286D01*
X99857057Y-107748995D01*
X99495265Y-108110155D01*
X99299223Y-108582276D01*
X99298873Y-108983468D01*
X99164719Y-108927900D01*
X97524570Y-108927900D01*
X97365820Y-109086650D01*
X97365820Y-110236000D01*
X99514660Y-110236000D01*
X99673410Y-110077250D01*
X99673410Y-109745672D01*
X99855155Y-109927735D01*
X100327276Y-110123777D01*
X100838481Y-110124223D01*
X101150972Y-109995104D01*
X101445320Y-110289452D01*
X101445320Y-112085120D01*
X101489598Y-112320437D01*
X101628670Y-112536561D01*
X101840870Y-112681551D01*
X102092760Y-112732560D01*
X103393240Y-112732560D01*
X103628557Y-112688282D01*
X103844681Y-112549210D01*
X103989671Y-112337010D01*
X104040680Y-112085120D01*
X104040680Y-111919500D01*
X107884900Y-111919500D01*
X109818900Y-113853500D01*
X110138457Y-114067021D01*
X110515400Y-114142000D01*
X119608600Y-114142000D01*
X119985543Y-114067021D01*
X120305100Y-113853500D01*
X123155569Y-111003031D01*
X123223155Y-111070735D01*
X123695276Y-111266777D01*
X124206481Y-111267223D01*
X124678943Y-111072005D01*
X125040735Y-110710845D01*
X125236777Y-110238724D01*
X125237223Y-109727519D01*
X125042005Y-109255057D01*
X124680845Y-108893265D01*
X124208724Y-108697223D01*
X123697519Y-108696777D01*
X123225057Y-108891995D01*
X123119868Y-108997000D01*
X122783600Y-108997000D01*
X122406657Y-109071979D01*
X122087100Y-109285500D01*
X119200600Y-112172000D01*
X118782113Y-112172000D01*
X118987188Y-111967283D01*
X119213742Y-111421681D01*
X119214257Y-110830911D01*
X118988656Y-110284914D01*
X118571283Y-109866812D01*
X118025681Y-109640258D01*
X117504296Y-109639803D01*
X117717188Y-109427283D01*
X117943742Y-108881681D01*
X117944257Y-108290911D01*
X117823229Y-107998000D01*
X123595147Y-107998000D01*
X123873395Y-108276735D01*
X124345516Y-108472777D01*
X124856721Y-108473223D01*
X125329183Y-108278005D01*
X125690975Y-107916845D01*
X125887017Y-107444724D01*
X125887235Y-107195347D01*
X129685190Y-110993302D01*
X129563044Y-110942583D01*
X129051839Y-110942137D01*
X128579377Y-111137355D01*
X128217585Y-111498515D01*
X128021543Y-111970636D01*
X128021097Y-112481841D01*
X128216315Y-112954303D01*
X128577475Y-113316095D01*
X129049596Y-113512137D01*
X129445930Y-113512483D01*
X129744335Y-113810888D01*
X129229542Y-113913287D01*
X128751017Y-114233026D01*
X128709129Y-114295716D01*
X128632327Y-114110301D01*
X128453698Y-113931673D01*
X128220309Y-113835000D01*
X127539750Y-113835000D01*
X127381000Y-113993750D01*
X127381000Y-115443000D01*
X127401000Y-115443000D01*
X127401000Y-115697000D01*
X127381000Y-115697000D01*
X127381000Y-117983000D01*
X127401000Y-117983000D01*
X127401000Y-118237000D01*
X127381000Y-118237000D01*
X127381000Y-119680109D01*
X127609320Y-119801563D01*
X127701125Y-119781323D01*
X128207180Y-119502785D01*
X128523892Y-119107056D01*
X128751017Y-119446974D01*
X129229542Y-119766713D01*
X129794000Y-119878991D01*
X130358458Y-119766713D01*
X130836983Y-119446974D01*
X131064000Y-119107218D01*
X131291017Y-119446974D01*
X131769542Y-119766713D01*
X132334000Y-119878991D01*
X132898458Y-119766713D01*
X133376983Y-119446974D01*
X133604000Y-119107218D01*
X133831017Y-119446974D01*
X134309542Y-119766713D01*
X134874000Y-119878991D01*
X135438458Y-119766713D01*
X135916983Y-119446974D01*
X136144000Y-119107218D01*
X136371017Y-119446974D01*
X136849542Y-119766713D01*
X137414000Y-119878991D01*
X137978458Y-119766713D01*
X138456983Y-119446974D01*
X138776722Y-118968449D01*
X138889000Y-118403991D01*
X138889000Y-117816009D01*
X138776722Y-117251551D01*
X138501733Y-116840000D01*
X138776722Y-116428449D01*
X138889000Y-115863991D01*
X138889000Y-115276009D01*
X138776722Y-114711551D01*
X138703523Y-114602000D01*
X139461500Y-114602000D01*
X139461500Y-117953807D01*
X139182765Y-118232055D01*
X138986723Y-118704176D01*
X138986277Y-119215381D01*
X139181495Y-119687843D01*
X139542655Y-120049635D01*
X140014776Y-120245677D01*
X140525981Y-120246123D01*
X140998443Y-120050905D01*
X141360235Y-119689745D01*
X141458200Y-119453819D01*
X141458200Y-120648400D01*
X141238700Y-120867900D01*
X141085259Y-121097541D01*
X140612800Y-121570000D01*
X102135001Y-121570000D01*
X100899500Y-120334500D01*
X100579943Y-120120979D01*
X100203000Y-120046000D01*
X86183800Y-120046000D01*
X85600879Y-119463079D01*
X85624983Y-119446974D01*
X85852000Y-119107218D01*
X86079017Y-119446974D01*
X86557542Y-119766713D01*
X87122000Y-119878991D01*
X87686458Y-119766713D01*
X88164983Y-119446974D01*
X88392000Y-119107218D01*
X88619017Y-119446974D01*
X89097542Y-119766713D01*
X89662000Y-119878991D01*
X90226458Y-119766713D01*
X90704983Y-119446974D01*
X90932000Y-119107218D01*
X91159017Y-119446974D01*
X91637542Y-119766713D01*
X92202000Y-119878991D01*
X92766458Y-119766713D01*
X93244983Y-119446974D01*
X93472000Y-119107218D01*
X93699017Y-119446974D01*
X94177542Y-119766713D01*
X94742000Y-119878991D01*
X95306458Y-119766713D01*
X95784983Y-119446974D01*
X96012108Y-119107056D01*
X96328820Y-119502785D01*
X96834875Y-119781323D01*
X96926680Y-119801563D01*
X97155000Y-119680109D01*
X97155000Y-118237000D01*
X97409000Y-118237000D01*
X97409000Y-119680109D01*
X97637320Y-119801563D01*
X97729125Y-119781323D01*
X98235180Y-119502785D01*
X98596122Y-119051791D01*
X98657464Y-118840250D01*
X101457760Y-118840250D01*
X101457760Y-119831429D01*
X101554433Y-120064818D01*
X101733061Y-120243447D01*
X101966450Y-120340120D01*
X102457250Y-120340120D01*
X102616000Y-120181370D01*
X102616000Y-118681500D01*
X102870000Y-118681500D01*
X102870000Y-120181370D01*
X103028750Y-120340120D01*
X103519550Y-120340120D01*
X103752939Y-120243447D01*
X103931567Y-120064818D01*
X104028240Y-119831429D01*
X104028240Y-118840250D01*
X103869490Y-118681500D01*
X102870000Y-118681500D01*
X102616000Y-118681500D01*
X101616510Y-118681500D01*
X101457760Y-118840250D01*
X98657464Y-118840250D01*
X98757000Y-118497000D01*
X98757000Y-118237000D01*
X97409000Y-118237000D01*
X97155000Y-118237000D01*
X97135000Y-118237000D01*
X97135000Y-117983000D01*
X97155000Y-117983000D01*
X97155000Y-115697000D01*
X97409000Y-115697000D01*
X97409000Y-117983000D01*
X98757000Y-117983000D01*
X98757000Y-117723000D01*
X98627835Y-117277571D01*
X101457760Y-117277571D01*
X101457760Y-118268750D01*
X101616510Y-118427500D01*
X102616000Y-118427500D01*
X102616000Y-116927630D01*
X102870000Y-116927630D01*
X102870000Y-118427500D01*
X103869490Y-118427500D01*
X104028240Y-118268750D01*
X104028240Y-118095854D01*
X106338457Y-118095854D01*
X106814727Y-119248515D01*
X107695847Y-120131174D01*
X108847674Y-120609454D01*
X110094854Y-120610543D01*
X111247515Y-120134273D01*
X112130174Y-119253153D01*
X112608454Y-118101326D01*
X112608458Y-118095854D01*
X116498457Y-118095854D01*
X116974727Y-119248515D01*
X117855847Y-120131174D01*
X119007674Y-120609454D01*
X120254854Y-120610543D01*
X121407515Y-120134273D01*
X122290174Y-119253153D01*
X122712117Y-118237000D01*
X125779000Y-118237000D01*
X125779000Y-118497000D01*
X125939878Y-119051791D01*
X126300820Y-119502785D01*
X126806875Y-119781323D01*
X126898680Y-119801563D01*
X127127000Y-119680109D01*
X127127000Y-118237000D01*
X125779000Y-118237000D01*
X122712117Y-118237000D01*
X122768454Y-118101326D01*
X122769543Y-116854146D01*
X122357015Y-115855750D01*
X125779000Y-115855750D01*
X125779000Y-116796310D01*
X125875673Y-117029699D01*
X125972910Y-117126936D01*
X125939878Y-117168209D01*
X125779000Y-117723000D01*
X125779000Y-117983000D01*
X127127000Y-117983000D01*
X127127000Y-115697000D01*
X125937750Y-115697000D01*
X125779000Y-115855750D01*
X122357015Y-115855750D01*
X122293273Y-115701485D01*
X121412153Y-114818826D01*
X120267898Y-114343690D01*
X125779000Y-114343690D01*
X125779000Y-115284250D01*
X125937750Y-115443000D01*
X127127000Y-115443000D01*
X127127000Y-113993750D01*
X126968250Y-113835000D01*
X126287691Y-113835000D01*
X126054302Y-113931673D01*
X125875673Y-114110301D01*
X125779000Y-114343690D01*
X120267898Y-114343690D01*
X120260326Y-114340546D01*
X119013146Y-114339457D01*
X117860485Y-114815727D01*
X116977826Y-115696847D01*
X116499546Y-116848674D01*
X116498457Y-118095854D01*
X112608458Y-118095854D01*
X112609543Y-116854146D01*
X112133273Y-115701485D01*
X111252153Y-114818826D01*
X110100326Y-114340546D01*
X108853146Y-114339457D01*
X107700485Y-114815727D01*
X106817826Y-115696847D01*
X106339546Y-116848674D01*
X106338457Y-118095854D01*
X104028240Y-118095854D01*
X104028240Y-117277571D01*
X103931567Y-117044182D01*
X103752939Y-116865553D01*
X103519550Y-116768880D01*
X103028750Y-116768880D01*
X102870000Y-116927630D01*
X102616000Y-116927630D01*
X102457250Y-116768880D01*
X101966450Y-116768880D01*
X101733061Y-116865553D01*
X101554433Y-117044182D01*
X101457760Y-117277571D01*
X98627835Y-117277571D01*
X98596122Y-117168209D01*
X98333448Y-116840000D01*
X98596122Y-116511791D01*
X98757000Y-115957000D01*
X98757000Y-115697000D01*
X97409000Y-115697000D01*
X97155000Y-115697000D01*
X97135000Y-115697000D01*
X97135000Y-115443000D01*
X97155000Y-115443000D01*
X97155000Y-113999891D01*
X97409000Y-113999891D01*
X97409000Y-115443000D01*
X98757000Y-115443000D01*
X98757000Y-115183000D01*
X98596122Y-114628209D01*
X98235180Y-114177215D01*
X97729125Y-113898677D01*
X97637320Y-113878437D01*
X97409000Y-113999891D01*
X97155000Y-113999891D01*
X96926680Y-113878437D01*
X96834875Y-113898677D01*
X96328820Y-114177215D01*
X96012108Y-114572944D01*
X95784983Y-114233026D01*
X95306458Y-113913287D01*
X94742000Y-113801009D01*
X94177542Y-113913287D01*
X93699017Y-114233026D01*
X93472000Y-114572782D01*
X93337000Y-114370740D01*
X93337000Y-111810540D01*
X93536770Y-111810540D01*
X93772087Y-111766262D01*
X93988211Y-111627190D01*
X94133201Y-111414990D01*
X94184210Y-111163100D01*
X94184210Y-110648750D01*
X94804230Y-110648750D01*
X94804230Y-111289410D01*
X94900903Y-111522799D01*
X95079532Y-111701427D01*
X95312921Y-111798100D01*
X96953070Y-111798100D01*
X97111820Y-111639350D01*
X97111820Y-110490000D01*
X97365820Y-110490000D01*
X97365820Y-111639350D01*
X97524570Y-111798100D01*
X99164719Y-111798100D01*
X99398108Y-111701427D01*
X99576737Y-111522799D01*
X99673410Y-111289410D01*
X99673410Y-110648750D01*
X99514660Y-110490000D01*
X97365820Y-110490000D01*
X97111820Y-110490000D01*
X94962980Y-110490000D01*
X94804230Y-110648750D01*
X94184210Y-110648750D01*
X94184210Y-109562900D01*
X94160444Y-109436590D01*
X94804230Y-109436590D01*
X94804230Y-110077250D01*
X94962980Y-110236000D01*
X97111820Y-110236000D01*
X97111820Y-109086650D01*
X96953070Y-108927900D01*
X95312921Y-108927900D01*
X95079532Y-109024573D01*
X94900903Y-109203201D01*
X94804230Y-109436590D01*
X94160444Y-109436590D01*
X94139932Y-109327583D01*
X94000860Y-109111459D01*
X93788660Y-108966469D01*
X93536770Y-108915460D01*
X90073593Y-108915460D01*
X87469600Y-106311468D01*
X87469600Y-102621619D01*
X87790155Y-102942735D01*
X88262276Y-103138777D01*
X88658610Y-103139123D01*
X88835244Y-103315757D01*
X89098027Y-103491343D01*
X89235897Y-103518766D01*
X89408000Y-103553000D01*
X95504000Y-103553000D01*
X95813974Y-103491342D01*
X96076756Y-103315756D01*
X96800560Y-102591953D01*
X96800560Y-103436420D01*
X96844838Y-103671737D01*
X96983910Y-103887861D01*
X97196110Y-104032851D01*
X97448000Y-104083860D01*
X99148000Y-104083860D01*
X99383317Y-104039582D01*
X99570077Y-103919405D01*
X99736110Y-104032851D01*
X99988000Y-104083860D01*
X101688000Y-104083860D01*
X101923317Y-104039582D01*
X102110077Y-103919405D01*
X102276110Y-104032851D01*
X102528000Y-104083860D01*
X104228000Y-104083860D01*
X104463317Y-104039582D01*
X104650077Y-103919405D01*
X104816110Y-104032851D01*
X105068000Y-104083860D01*
X106768000Y-104083860D01*
X107003317Y-104039582D01*
X107190077Y-103919405D01*
X107356110Y-104032851D01*
X107608000Y-104083860D01*
X109308000Y-104083860D01*
X109543317Y-104039582D01*
X109730077Y-103919405D01*
X109896110Y-104032851D01*
X110148000Y-104083860D01*
X111848000Y-104083860D01*
X112083317Y-104039582D01*
X112270077Y-103919405D01*
X112436110Y-104032851D01*
X112688000Y-104083860D01*
X114388000Y-104083860D01*
X114623317Y-104039582D01*
X114810077Y-103919405D01*
X114976110Y-104032851D01*
X115228000Y-104083860D01*
X116928000Y-104083860D01*
X117163317Y-104039582D01*
X117379441Y-103900510D01*
X117524431Y-103688310D01*
X117575440Y-103436420D01*
X117575440Y-101536500D01*
X117531162Y-101301183D01*
X117477237Y-101217381D01*
X117524431Y-101148310D01*
X117575440Y-100896420D01*
X117575440Y-98996500D01*
X117531162Y-98761183D01*
X117392090Y-98545059D01*
X117179890Y-98400069D01*
X116928000Y-98349060D01*
X115228000Y-98349060D01*
X114992683Y-98393338D01*
X114805923Y-98513515D01*
X114639890Y-98400069D01*
X114388000Y-98349060D01*
X112688000Y-98349060D01*
X112452683Y-98393338D01*
X112265923Y-98513515D01*
X112099890Y-98400069D01*
X111848000Y-98349060D01*
X110148000Y-98349060D01*
X109912683Y-98393338D01*
X109724169Y-98514643D01*
X109667699Y-98458173D01*
X109434310Y-98361500D01*
X108743750Y-98361500D01*
X108585000Y-98520250D01*
X108585000Y-99819460D01*
X108605000Y-99819460D01*
X108605000Y-100073460D01*
X108585000Y-100073460D01*
X108585000Y-100093460D01*
X108331000Y-100093460D01*
X108331000Y-100073460D01*
X108311000Y-100073460D01*
X108311000Y-99819460D01*
X108331000Y-99819460D01*
X108331000Y-98520250D01*
X108172250Y-98361500D01*
X107481690Y-98361500D01*
X107248301Y-98458173D01*
X107190103Y-98516371D01*
X107019890Y-98400069D01*
X106768000Y-98349060D01*
X105068000Y-98349060D01*
X104832683Y-98393338D01*
X104645923Y-98513515D01*
X104479890Y-98400069D01*
X104228000Y-98349060D01*
X102528000Y-98349060D01*
X102292683Y-98393338D01*
X102105923Y-98513515D01*
X101939890Y-98400069D01*
X101688000Y-98349060D01*
X99988000Y-98349060D01*
X99752683Y-98393338D01*
X99565923Y-98513515D01*
X99399890Y-98400069D01*
X99148000Y-98349060D01*
X97614453Y-98349060D01*
X97998513Y-97965000D01*
X100609400Y-97965000D01*
X100919374Y-97903342D01*
X101182156Y-97727756D01*
X103490128Y-95419785D01*
X103489777Y-95821981D01*
G36*
X152299600Y-115956409D02*
X150867320Y-114521628D01*
X148980818Y-113738283D01*
X148378837Y-113737758D01*
X148484935Y-113631845D01*
X148680977Y-113159724D01*
X148681423Y-112648519D01*
X148486205Y-112176057D01*
X148125045Y-111814265D01*
X147652924Y-111618223D01*
X147141719Y-111617777D01*
X146669257Y-111812995D01*
X146564068Y-111918000D01*
X145897600Y-111918000D01*
X145520657Y-111992979D01*
X145201100Y-112206500D01*
X141746700Y-115660900D01*
X141533179Y-115980457D01*
X141458200Y-116357400D01*
X141458200Y-118467976D01*
X141361505Y-118233957D01*
X141081500Y-117953462D01*
X141081500Y-114236500D01*
X141019842Y-113926526D01*
X140892871Y-113736501D01*
X140844257Y-113663744D01*
X140512512Y-113332000D01*
X142240000Y-113332000D01*
X142549974Y-113270342D01*
X142697383Y-113171846D01*
X143129481Y-113172223D01*
X143601943Y-112977005D01*
X143963735Y-112615845D01*
X144159777Y-112143724D01*
X144160028Y-111856413D01*
X144269276Y-111901777D01*
X144780481Y-111902223D01*
X145252943Y-111707005D01*
X145614735Y-111345845D01*
X145810777Y-110873724D01*
X145811223Y-110362519D01*
X145616005Y-109890057D01*
X145254845Y-109528265D01*
X144782724Y-109332223D01*
X144271519Y-109331777D01*
X143799057Y-109526995D01*
X143518562Y-109807000D01*
X141191502Y-109807000D01*
X141302277Y-109540224D01*
X141302723Y-109029019D01*
X141107505Y-108556557D01*
X140746345Y-108194765D01*
X140274224Y-107998723D01*
X139877890Y-107998377D01*
X139496512Y-107617000D01*
X149987000Y-107617000D01*
X150296974Y-107555342D01*
X150559756Y-107379756D01*
X152299600Y-105639913D01*
X152299600Y-115956409D01*
X152299600Y-115956409D01*
G37*
X152299600Y-115956409D02*
X150867320Y-114521628D01*
X148980818Y-113738283D01*
X148378837Y-113737758D01*
X148484935Y-113631845D01*
X148680977Y-113159724D01*
X148681423Y-112648519D01*
X148486205Y-112176057D01*
X148125045Y-111814265D01*
X147652924Y-111618223D01*
X147141719Y-111617777D01*
X146669257Y-111812995D01*
X146564068Y-111918000D01*
X145897600Y-111918000D01*
X145520657Y-111992979D01*
X145201100Y-112206500D01*
X141746700Y-115660900D01*
X141533179Y-115980457D01*
X141458200Y-116357400D01*
X141458200Y-118467976D01*
X141361505Y-118233957D01*
X141081500Y-117953462D01*
X141081500Y-114236500D01*
X141019842Y-113926526D01*
X140892871Y-113736501D01*
X140844257Y-113663744D01*
X140512512Y-113332000D01*
X142240000Y-113332000D01*
X142549974Y-113270342D01*
X142697383Y-113171846D01*
X143129481Y-113172223D01*
X143601943Y-112977005D01*
X143963735Y-112615845D01*
X144159777Y-112143724D01*
X144160028Y-111856413D01*
X144269276Y-111901777D01*
X144780481Y-111902223D01*
X145252943Y-111707005D01*
X145614735Y-111345845D01*
X145810777Y-110873724D01*
X145811223Y-110362519D01*
X145616005Y-109890057D01*
X145254845Y-109528265D01*
X144782724Y-109332223D01*
X144271519Y-109331777D01*
X143799057Y-109526995D01*
X143518562Y-109807000D01*
X141191502Y-109807000D01*
X141302277Y-109540224D01*
X141302723Y-109029019D01*
X141107505Y-108556557D01*
X140746345Y-108194765D01*
X140274224Y-107998723D01*
X139877890Y-107998377D01*
X139496512Y-107617000D01*
X149987000Y-107617000D01*
X150296974Y-107555342D01*
X150559756Y-107379756D01*
X152299600Y-105639913D01*
X152299600Y-115956409D01*
G36*
X92118254Y-56131386D02*
X92486474Y-56377423D01*
X92920820Y-56463820D01*
X93040460Y-56463820D01*
X93040460Y-57128410D01*
X93084738Y-57363727D01*
X93223810Y-57579851D01*
X93436010Y-57724841D01*
X93687900Y-57775850D01*
X94279888Y-57775850D01*
X94212065Y-57843555D01*
X94016023Y-58315676D01*
X94015577Y-58826881D01*
X94210795Y-59299343D01*
X94571955Y-59661135D01*
X94831722Y-59769000D01*
X92764593Y-59769000D01*
X92486345Y-59490265D01*
X92014224Y-59294223D01*
X91503019Y-59293777D01*
X91030557Y-59488995D01*
X90668765Y-59850155D01*
X90472723Y-60322276D01*
X90472277Y-60833481D01*
X90667495Y-61305943D01*
X91028655Y-61667735D01*
X91500776Y-61863777D01*
X92011981Y-61864223D01*
X92484443Y-61669005D01*
X92764938Y-61389000D01*
X96952112Y-61389000D01*
X96851569Y-61536150D01*
X96800560Y-61788040D01*
X96800560Y-63687960D01*
X96844838Y-63923277D01*
X96898763Y-64007079D01*
X96851569Y-64076150D01*
X96800560Y-64328040D01*
X96800560Y-66227960D01*
X96844838Y-66463277D01*
X96983910Y-66679401D01*
X97196110Y-66824391D01*
X97448000Y-66875400D01*
X99148000Y-66875400D01*
X99383317Y-66831122D01*
X99570077Y-66710945D01*
X99736110Y-66824391D01*
X99988000Y-66875400D01*
X101688000Y-66875400D01*
X101923317Y-66831122D01*
X102110077Y-66710945D01*
X102276110Y-66824391D01*
X102528000Y-66875400D01*
X104228000Y-66875400D01*
X104463317Y-66831122D01*
X104651831Y-66709817D01*
X104708301Y-66766287D01*
X104941690Y-66862960D01*
X105632250Y-66862960D01*
X105791000Y-66704210D01*
X105791000Y-65405000D01*
X105771000Y-65405000D01*
X105771000Y-65151000D01*
X105791000Y-65151000D01*
X105791000Y-65131000D01*
X106045000Y-65131000D01*
X106045000Y-65151000D01*
X106065000Y-65151000D01*
X106065000Y-65405000D01*
X106045000Y-65405000D01*
X106045000Y-66704210D01*
X106203750Y-66862960D01*
X106894310Y-66862960D01*
X107127699Y-66766287D01*
X107185897Y-66708089D01*
X107356110Y-66824391D01*
X107608000Y-66875400D01*
X109308000Y-66875400D01*
X109543317Y-66831122D01*
X109730077Y-66710945D01*
X109896110Y-66824391D01*
X110148000Y-66875400D01*
X111848000Y-66875400D01*
X112083317Y-66831122D01*
X112270077Y-66710945D01*
X112436110Y-66824391D01*
X112688000Y-66875400D01*
X114388000Y-66875400D01*
X114623317Y-66831122D01*
X114810077Y-66710945D01*
X114976110Y-66824391D01*
X115228000Y-66875400D01*
X116928000Y-66875400D01*
X117163317Y-66831122D01*
X117379441Y-66692050D01*
X117524431Y-66479850D01*
X117575440Y-66227960D01*
X117575440Y-64328040D01*
X117531162Y-64092723D01*
X117477237Y-64008921D01*
X117524431Y-63939850D01*
X117575440Y-63687960D01*
X117575440Y-61788040D01*
X117531162Y-61552723D01*
X117425809Y-61389000D01*
X121838488Y-61389000D01*
X122489575Y-62040087D01*
X122209057Y-62155995D01*
X121847265Y-62517155D01*
X121651223Y-62989276D01*
X121650877Y-63385610D01*
X116250488Y-68786000D01*
X105994200Y-68786000D01*
X105918000Y-68801157D01*
X105841800Y-68786000D01*
X101650800Y-68786000D01*
X101426812Y-68830554D01*
X101399524Y-68819223D01*
X100888319Y-68818777D01*
X100415857Y-69013995D01*
X100054065Y-69375155D01*
X99858023Y-69847276D01*
X99857577Y-70358481D01*
X100052795Y-70830943D01*
X100413955Y-71192735D01*
X100886076Y-71388777D01*
X101128844Y-71388989D01*
X101051823Y-71574476D01*
X101051377Y-72085681D01*
X101246595Y-72558143D01*
X101607755Y-72919935D01*
X102079876Y-73115977D01*
X102591081Y-73116423D01*
X103063543Y-72921205D01*
X103425335Y-72560045D01*
X103621377Y-72087924D01*
X103621723Y-71691590D01*
X104043713Y-71269600D01*
X109753400Y-71269600D01*
X109778800Y-71264548D01*
X109804200Y-71269600D01*
X118618000Y-71269600D01*
X118927974Y-71207942D01*
X119190756Y-71032356D01*
X122137157Y-68085956D01*
X122312743Y-67823173D01*
X122356907Y-67601142D01*
X122374400Y-67513200D01*
X122374400Y-66787828D01*
X122461155Y-66874735D01*
X122681788Y-66966350D01*
X122540223Y-67307276D01*
X122539777Y-67818481D01*
X122734995Y-68290943D01*
X123096155Y-68652735D01*
X123568276Y-68848777D01*
X123964611Y-68849123D01*
X136714244Y-81598757D01*
X136853154Y-81691573D01*
X136977026Y-81774342D01*
X137287000Y-81836000D01*
X137549907Y-81836000D01*
X137828155Y-82114735D01*
X138300276Y-82310777D01*
X138811481Y-82311223D01*
X139283943Y-82116005D01*
X139645735Y-81754845D01*
X139841777Y-81282724D01*
X139842223Y-80771519D01*
X139647005Y-80299057D01*
X139285845Y-79937265D01*
X138813724Y-79741223D01*
X138302519Y-79740777D01*
X137830057Y-79935995D01*
X137586069Y-80179556D01*
X135000713Y-77594200D01*
X137287000Y-77594200D01*
X137596974Y-77532542D01*
X137859756Y-77356956D01*
X139213066Y-76003647D01*
X139101023Y-76273476D01*
X139100577Y-76784681D01*
X139295795Y-77257143D01*
X139656955Y-77618935D01*
X140129076Y-77814977D01*
X140640281Y-77815423D01*
X141112743Y-77620205D01*
X141393238Y-77340200D01*
X141867863Y-77340200D01*
X142120755Y-77593535D01*
X142592876Y-77789577D01*
X143104081Y-77790023D01*
X143576543Y-77594805D01*
X143938335Y-77233645D01*
X144134377Y-76761524D01*
X144134823Y-76250319D01*
X143939605Y-75777857D01*
X143891215Y-75729382D01*
X144109943Y-75639005D01*
X144471735Y-75277845D01*
X144510889Y-75183553D01*
X144510777Y-75311481D01*
X144705995Y-75783943D01*
X145067155Y-76145735D01*
X145539276Y-76341777D01*
X145687907Y-76341907D01*
X145954000Y-76608000D01*
X145954000Y-81740000D01*
X141977315Y-81740000D01*
X141825845Y-81588265D01*
X141353724Y-81392223D01*
X140842519Y-81391777D01*
X140370057Y-81586995D01*
X140008265Y-81948155D01*
X139812223Y-82420276D01*
X139811777Y-82931481D01*
X140006995Y-83403943D01*
X140368155Y-83765735D01*
X140840276Y-83961777D01*
X141351481Y-83962223D01*
X141823943Y-83767005D01*
X142185735Y-83405845D01*
X142204772Y-83360000D01*
X145954000Y-83360000D01*
X145954000Y-87051601D01*
X145850265Y-87155155D01*
X145654223Y-87627276D01*
X145653777Y-88138481D01*
X145700000Y-88250349D01*
X145700000Y-93043000D01*
X142104093Y-93043000D01*
X141825845Y-92764265D01*
X141353724Y-92568223D01*
X140842519Y-92567777D01*
X140370057Y-92762995D01*
X140008265Y-93124155D01*
X139812223Y-93596276D01*
X139811901Y-93964986D01*
X139687390Y-93964877D01*
X138774156Y-93051644D01*
X138686572Y-92993122D01*
X138511374Y-92876058D01*
X138201400Y-92814400D01*
X135540285Y-92814400D01*
X135540285Y-85900000D01*
X137922000Y-85900000D01*
X138231974Y-85838342D01*
X138494756Y-85662756D01*
X138544633Y-85612879D01*
X138938481Y-85613223D01*
X139410943Y-85418005D01*
X139772735Y-85056845D01*
X139968777Y-84584724D01*
X139969223Y-84073519D01*
X139774005Y-83601057D01*
X139412845Y-83239265D01*
X138940724Y-83043223D01*
X138429519Y-83042777D01*
X137957057Y-83237995D01*
X137595265Y-83599155D01*
X137399223Y-84071276D01*
X137399041Y-84280000D01*
X124941440Y-84280000D01*
X124941440Y-82870040D01*
X124897162Y-82634723D01*
X124843237Y-82550921D01*
X124890431Y-82481850D01*
X124941440Y-82229960D01*
X124941440Y-80330040D01*
X124897162Y-80094723D01*
X124843237Y-80010921D01*
X124890431Y-79941850D01*
X124941440Y-79689960D01*
X124941440Y-77790040D01*
X124897162Y-77554723D01*
X124843237Y-77470921D01*
X124890431Y-77401850D01*
X124941440Y-77149960D01*
X124941440Y-75250040D01*
X124897162Y-75014723D01*
X124843237Y-74930921D01*
X124890431Y-74861850D01*
X124941440Y-74609960D01*
X124941440Y-72710040D01*
X124897162Y-72474723D01*
X124758090Y-72258599D01*
X124545890Y-72113609D01*
X124294000Y-72062600D01*
X122594000Y-72062600D01*
X122358683Y-72106878D01*
X122171923Y-72227055D01*
X122005890Y-72113609D01*
X121754000Y-72062600D01*
X120054000Y-72062600D01*
X119818683Y-72106878D01*
X119602559Y-72245950D01*
X119457569Y-72458150D01*
X119406560Y-72710040D01*
X119406560Y-74609960D01*
X119450838Y-74845277D01*
X119504763Y-74929079D01*
X119457569Y-74998150D01*
X119406560Y-75250040D01*
X119406560Y-77149960D01*
X119450838Y-77385277D01*
X119504763Y-77469079D01*
X119457569Y-77538150D01*
X119406560Y-77790040D01*
X119406560Y-79689960D01*
X119450838Y-79925277D01*
X119504763Y-80009079D01*
X119457569Y-80078150D01*
X119406560Y-80330040D01*
X119406560Y-82229960D01*
X119450838Y-82465277D01*
X119504763Y-82549079D01*
X119457569Y-82618150D01*
X119406560Y-82870040D01*
X119406560Y-84280000D01*
X117856000Y-84280000D01*
X117546026Y-84341658D01*
X117414635Y-84429451D01*
X117283243Y-84517244D01*
X116725367Y-85075121D01*
X116331519Y-85074777D01*
X115948200Y-85233162D01*
X115948200Y-78110312D01*
X116573633Y-77484879D01*
X116967481Y-77485223D01*
X117439943Y-77290005D01*
X117801735Y-76928845D01*
X117997777Y-76456724D01*
X117998223Y-75945519D01*
X117803005Y-75473057D01*
X117441845Y-75111265D01*
X116969724Y-74915223D01*
X116458519Y-74914777D01*
X115986057Y-75109995D01*
X115624265Y-75471155D01*
X115428223Y-75943276D01*
X115427877Y-76339610D01*
X114565444Y-77202044D01*
X114389858Y-77464826D01*
X114328200Y-77774800D01*
X114328200Y-87147400D01*
X114389858Y-87457374D01*
X114504882Y-87629519D01*
X114565444Y-87720156D01*
X117249200Y-90403913D01*
X117249200Y-92202000D01*
X117310858Y-92511974D01*
X117421424Y-92677447D01*
X117486444Y-92774756D01*
X118908843Y-94197156D01*
X119036236Y-94282277D01*
X119171626Y-94372742D01*
X119481600Y-94434400D01*
X137865888Y-94434400D01*
X138542121Y-95110633D01*
X138541777Y-95504481D01*
X138736995Y-95976943D01*
X139098155Y-96338735D01*
X139570276Y-96534777D01*
X140081481Y-96535223D01*
X140553943Y-96340005D01*
X140915735Y-95978845D01*
X141111777Y-95506724D01*
X141112099Y-95138014D01*
X141351481Y-95138223D01*
X141823943Y-94943005D01*
X142104438Y-94663000D01*
X145700000Y-94663000D01*
X145700000Y-98100601D01*
X145596265Y-98204155D01*
X145400223Y-98676276D01*
X145399777Y-99187481D01*
X145594995Y-99659943D01*
X145700000Y-99765132D01*
X145700000Y-102843000D01*
X144372000Y-104171000D01*
X141929399Y-104171000D01*
X141825845Y-104067265D01*
X141353724Y-103871223D01*
X140842519Y-103870777D01*
X140370057Y-104065995D01*
X140008265Y-104427155D01*
X139812223Y-104899276D01*
X139811777Y-105410481D01*
X140006995Y-105882943D01*
X140120853Y-105997000D01*
X136389093Y-105997000D01*
X136110845Y-105718265D01*
X135638724Y-105522223D01*
X135127519Y-105521777D01*
X134693400Y-105701152D01*
X134693400Y-103393181D01*
X134998276Y-103519777D01*
X135509481Y-103520223D01*
X135981943Y-103325005D01*
X136343735Y-102963845D01*
X136539777Y-102491724D01*
X136540223Y-101980519D01*
X136345005Y-101508057D01*
X136065000Y-101227562D01*
X136065000Y-99776512D01*
X136352513Y-99489000D01*
X141359907Y-99489000D01*
X141638155Y-99767735D01*
X142110276Y-99963777D01*
X142621481Y-99964223D01*
X143093943Y-99769005D01*
X143455735Y-99407845D01*
X143651777Y-98935724D01*
X143652223Y-98424519D01*
X143457005Y-97952057D01*
X143095845Y-97590265D01*
X142623724Y-97394223D01*
X142112519Y-97393777D01*
X141640057Y-97588995D01*
X141359562Y-97869000D01*
X136017000Y-97869000D01*
X135844897Y-97903234D01*
X135707027Y-97930657D01*
X135444244Y-98106243D01*
X134693400Y-98857088D01*
X134693400Y-97764600D01*
X134688905Y-97742000D01*
X134631743Y-97454627D01*
X134507791Y-97269119D01*
X134508223Y-96773519D01*
X134313005Y-96301057D01*
X133951845Y-95939265D01*
X133479724Y-95743223D01*
X132968519Y-95742777D01*
X132496057Y-95937995D01*
X132221987Y-96211586D01*
X132154005Y-96047057D01*
X131792845Y-95685265D01*
X131320724Y-95489223D01*
X130809519Y-95488777D01*
X130337057Y-95683995D01*
X129975265Y-96045155D01*
X129779223Y-96517276D01*
X129778777Y-97028481D01*
X129973995Y-97500943D01*
X130335155Y-97862735D01*
X130807276Y-98058777D01*
X131203610Y-98059123D01*
X132159000Y-99014513D01*
X132159000Y-99076896D01*
X132082724Y-99045223D01*
X131571519Y-99044777D01*
X131099057Y-99239995D01*
X130737265Y-99601155D01*
X130541223Y-100073276D01*
X130540777Y-100584481D01*
X130735995Y-101056943D01*
X131016000Y-101337438D01*
X131016000Y-110033087D01*
X126661840Y-105678928D01*
X127000481Y-105679223D01*
X127472943Y-105484005D01*
X127834735Y-105122845D01*
X128030777Y-104650724D01*
X128031223Y-104139519D01*
X127836005Y-103667057D01*
X127610765Y-103441423D01*
X127834735Y-103217845D01*
X128030777Y-102745724D01*
X128031223Y-102234519D01*
X127836005Y-101762057D01*
X127474845Y-101400265D01*
X127002724Y-101204223D01*
X126491519Y-101203777D01*
X126019057Y-101398995D01*
X125738562Y-101679000D01*
X125049513Y-101679000D01*
X117031756Y-93661244D01*
X116976615Y-93624400D01*
X116768974Y-93485658D01*
X116459000Y-93424000D01*
X107503675Y-93424000D01*
X107609177Y-93169924D01*
X107609309Y-93018176D01*
X107820276Y-93105777D01*
X108331481Y-93106223D01*
X108803943Y-92911005D01*
X109165735Y-92549845D01*
X109361777Y-92077724D01*
X109362223Y-91566519D01*
X109167005Y-91094057D01*
X108962000Y-90888693D01*
X108962000Y-88412325D01*
X108962001Y-88412320D01*
X108899080Y-88096000D01*
X114108572Y-88096000D01*
X114108572Y-81726000D01*
X98783118Y-81726000D01*
X98600000Y-81542562D01*
X98600000Y-75240112D01*
X99428633Y-74411479D01*
X99822481Y-74411823D01*
X100294943Y-74216605D01*
X100656735Y-73855445D01*
X100852777Y-73383324D01*
X100853223Y-72872119D01*
X100658005Y-72399657D01*
X100296845Y-72037865D01*
X99824724Y-71841823D01*
X99328926Y-71841390D01*
X99329223Y-71500519D01*
X99134005Y-71028057D01*
X98772845Y-70666265D01*
X98300724Y-70470223D01*
X98216975Y-70470150D01*
X98388977Y-70055924D01*
X98389423Y-69544719D01*
X98194205Y-69072257D01*
X97833045Y-68710465D01*
X97360924Y-68514423D01*
X96964590Y-68514077D01*
X91225356Y-62774844D01*
X91225355Y-62774843D01*
X90962574Y-62599258D01*
X90652600Y-62537600D01*
X89331800Y-62537600D01*
X89021827Y-62599257D01*
X88765000Y-62770863D01*
X88765000Y-59093332D01*
X91922600Y-55935732D01*
X92118254Y-56131386D01*
X92118254Y-56131386D01*
G37*
X92118254Y-56131386D02*
X92486474Y-56377423D01*
X92920820Y-56463820D01*
X93040460Y-56463820D01*
X93040460Y-57128410D01*
X93084738Y-57363727D01*
X93223810Y-57579851D01*
X93436010Y-57724841D01*
X93687900Y-57775850D01*
X94279888Y-57775850D01*
X94212065Y-57843555D01*
X94016023Y-58315676D01*
X94015577Y-58826881D01*
X94210795Y-59299343D01*
X94571955Y-59661135D01*
X94831722Y-59769000D01*
X92764593Y-59769000D01*
X92486345Y-59490265D01*
X92014224Y-59294223D01*
X91503019Y-59293777D01*
X91030557Y-59488995D01*
X90668765Y-59850155D01*
X90472723Y-60322276D01*
X90472277Y-60833481D01*
X90667495Y-61305943D01*
X91028655Y-61667735D01*
X91500776Y-61863777D01*
X92011981Y-61864223D01*
X92484443Y-61669005D01*
X92764938Y-61389000D01*
X96952112Y-61389000D01*
X96851569Y-61536150D01*
X96800560Y-61788040D01*
X96800560Y-63687960D01*
X96844838Y-63923277D01*
X96898763Y-64007079D01*
X96851569Y-64076150D01*
X96800560Y-64328040D01*
X96800560Y-66227960D01*
X96844838Y-66463277D01*
X96983910Y-66679401D01*
X97196110Y-66824391D01*
X97448000Y-66875400D01*
X99148000Y-66875400D01*
X99383317Y-66831122D01*
X99570077Y-66710945D01*
X99736110Y-66824391D01*
X99988000Y-66875400D01*
X101688000Y-66875400D01*
X101923317Y-66831122D01*
X102110077Y-66710945D01*
X102276110Y-66824391D01*
X102528000Y-66875400D01*
X104228000Y-66875400D01*
X104463317Y-66831122D01*
X104651831Y-66709817D01*
X104708301Y-66766287D01*
X104941690Y-66862960D01*
X105632250Y-66862960D01*
X105791000Y-66704210D01*
X105791000Y-65405000D01*
X105771000Y-65405000D01*
X105771000Y-65151000D01*
X105791000Y-65151000D01*
X105791000Y-65131000D01*
X106045000Y-65131000D01*
X106045000Y-65151000D01*
X106065000Y-65151000D01*
X106065000Y-65405000D01*
X106045000Y-65405000D01*
X106045000Y-66704210D01*
X106203750Y-66862960D01*
X106894310Y-66862960D01*
X107127699Y-66766287D01*
X107185897Y-66708089D01*
X107356110Y-66824391D01*
X107608000Y-66875400D01*
X109308000Y-66875400D01*
X109543317Y-66831122D01*
X109730077Y-66710945D01*
X109896110Y-66824391D01*
X110148000Y-66875400D01*
X111848000Y-66875400D01*
X112083317Y-66831122D01*
X112270077Y-66710945D01*
X112436110Y-66824391D01*
X112688000Y-66875400D01*
X114388000Y-66875400D01*
X114623317Y-66831122D01*
X114810077Y-66710945D01*
X114976110Y-66824391D01*
X115228000Y-66875400D01*
X116928000Y-66875400D01*
X117163317Y-66831122D01*
X117379441Y-66692050D01*
X117524431Y-66479850D01*
X117575440Y-66227960D01*
X117575440Y-64328040D01*
X117531162Y-64092723D01*
X117477237Y-64008921D01*
X117524431Y-63939850D01*
X117575440Y-63687960D01*
X117575440Y-61788040D01*
X117531162Y-61552723D01*
X117425809Y-61389000D01*
X121838488Y-61389000D01*
X122489575Y-62040087D01*
X122209057Y-62155995D01*
X121847265Y-62517155D01*
X121651223Y-62989276D01*
X121650877Y-63385610D01*
X116250488Y-68786000D01*
X105994200Y-68786000D01*
X105918000Y-68801157D01*
X105841800Y-68786000D01*
X101650800Y-68786000D01*
X101426812Y-68830554D01*
X101399524Y-68819223D01*
X100888319Y-68818777D01*
X100415857Y-69013995D01*
X100054065Y-69375155D01*
X99858023Y-69847276D01*
X99857577Y-70358481D01*
X100052795Y-70830943D01*
X100413955Y-71192735D01*
X100886076Y-71388777D01*
X101128844Y-71388989D01*
X101051823Y-71574476D01*
X101051377Y-72085681D01*
X101246595Y-72558143D01*
X101607755Y-72919935D01*
X102079876Y-73115977D01*
X102591081Y-73116423D01*
X103063543Y-72921205D01*
X103425335Y-72560045D01*
X103621377Y-72087924D01*
X103621723Y-71691590D01*
X104043713Y-71269600D01*
X109753400Y-71269600D01*
X109778800Y-71264548D01*
X109804200Y-71269600D01*
X118618000Y-71269600D01*
X118927974Y-71207942D01*
X119190756Y-71032356D01*
X122137157Y-68085956D01*
X122312743Y-67823173D01*
X122356907Y-67601142D01*
X122374400Y-67513200D01*
X122374400Y-66787828D01*
X122461155Y-66874735D01*
X122681788Y-66966350D01*
X122540223Y-67307276D01*
X122539777Y-67818481D01*
X122734995Y-68290943D01*
X123096155Y-68652735D01*
X123568276Y-68848777D01*
X123964611Y-68849123D01*
X136714244Y-81598757D01*
X136853154Y-81691573D01*
X136977026Y-81774342D01*
X137287000Y-81836000D01*
X137549907Y-81836000D01*
X137828155Y-82114735D01*
X138300276Y-82310777D01*
X138811481Y-82311223D01*
X139283943Y-82116005D01*
X139645735Y-81754845D01*
X139841777Y-81282724D01*
X139842223Y-80771519D01*
X139647005Y-80299057D01*
X139285845Y-79937265D01*
X138813724Y-79741223D01*
X138302519Y-79740777D01*
X137830057Y-79935995D01*
X137586069Y-80179556D01*
X135000713Y-77594200D01*
X137287000Y-77594200D01*
X137596974Y-77532542D01*
X137859756Y-77356956D01*
X139213066Y-76003647D01*
X139101023Y-76273476D01*
X139100577Y-76784681D01*
X139295795Y-77257143D01*
X139656955Y-77618935D01*
X140129076Y-77814977D01*
X140640281Y-77815423D01*
X141112743Y-77620205D01*
X141393238Y-77340200D01*
X141867863Y-77340200D01*
X142120755Y-77593535D01*
X142592876Y-77789577D01*
X143104081Y-77790023D01*
X143576543Y-77594805D01*
X143938335Y-77233645D01*
X144134377Y-76761524D01*
X144134823Y-76250319D01*
X143939605Y-75777857D01*
X143891215Y-75729382D01*
X144109943Y-75639005D01*
X144471735Y-75277845D01*
X144510889Y-75183553D01*
X144510777Y-75311481D01*
X144705995Y-75783943D01*
X145067155Y-76145735D01*
X145539276Y-76341777D01*
X145687907Y-76341907D01*
X145954000Y-76608000D01*
X145954000Y-81740000D01*
X141977315Y-81740000D01*
X141825845Y-81588265D01*
X141353724Y-81392223D01*
X140842519Y-81391777D01*
X140370057Y-81586995D01*
X140008265Y-81948155D01*
X139812223Y-82420276D01*
X139811777Y-82931481D01*
X140006995Y-83403943D01*
X140368155Y-83765735D01*
X140840276Y-83961777D01*
X141351481Y-83962223D01*
X141823943Y-83767005D01*
X142185735Y-83405845D01*
X142204772Y-83360000D01*
X145954000Y-83360000D01*
X145954000Y-87051601D01*
X145850265Y-87155155D01*
X145654223Y-87627276D01*
X145653777Y-88138481D01*
X145700000Y-88250349D01*
X145700000Y-93043000D01*
X142104093Y-93043000D01*
X141825845Y-92764265D01*
X141353724Y-92568223D01*
X140842519Y-92567777D01*
X140370057Y-92762995D01*
X140008265Y-93124155D01*
X139812223Y-93596276D01*
X139811901Y-93964986D01*
X139687390Y-93964877D01*
X138774156Y-93051644D01*
X138686572Y-92993122D01*
X138511374Y-92876058D01*
X138201400Y-92814400D01*
X135540285Y-92814400D01*
X135540285Y-85900000D01*
X137922000Y-85900000D01*
X138231974Y-85838342D01*
X138494756Y-85662756D01*
X138544633Y-85612879D01*
X138938481Y-85613223D01*
X139410943Y-85418005D01*
X139772735Y-85056845D01*
X139968777Y-84584724D01*
X139969223Y-84073519D01*
X139774005Y-83601057D01*
X139412845Y-83239265D01*
X138940724Y-83043223D01*
X138429519Y-83042777D01*
X137957057Y-83237995D01*
X137595265Y-83599155D01*
X137399223Y-84071276D01*
X137399041Y-84280000D01*
X124941440Y-84280000D01*
X124941440Y-82870040D01*
X124897162Y-82634723D01*
X124843237Y-82550921D01*
X124890431Y-82481850D01*
X124941440Y-82229960D01*
X124941440Y-80330040D01*
X124897162Y-80094723D01*
X124843237Y-80010921D01*
X124890431Y-79941850D01*
X124941440Y-79689960D01*
X124941440Y-77790040D01*
X124897162Y-77554723D01*
X124843237Y-77470921D01*
X124890431Y-77401850D01*
X124941440Y-77149960D01*
X124941440Y-75250040D01*
X124897162Y-75014723D01*
X124843237Y-74930921D01*
X124890431Y-74861850D01*
X124941440Y-74609960D01*
X124941440Y-72710040D01*
X124897162Y-72474723D01*
X124758090Y-72258599D01*
X124545890Y-72113609D01*
X124294000Y-72062600D01*
X122594000Y-72062600D01*
X122358683Y-72106878D01*
X122171923Y-72227055D01*
X122005890Y-72113609D01*
X121754000Y-72062600D01*
X120054000Y-72062600D01*
X119818683Y-72106878D01*
X119602559Y-72245950D01*
X119457569Y-72458150D01*
X119406560Y-72710040D01*
X119406560Y-74609960D01*
X119450838Y-74845277D01*
X119504763Y-74929079D01*
X119457569Y-74998150D01*
X119406560Y-75250040D01*
X119406560Y-77149960D01*
X119450838Y-77385277D01*
X119504763Y-77469079D01*
X119457569Y-77538150D01*
X119406560Y-77790040D01*
X119406560Y-79689960D01*
X119450838Y-79925277D01*
X119504763Y-80009079D01*
X119457569Y-80078150D01*
X119406560Y-80330040D01*
X119406560Y-82229960D01*
X119450838Y-82465277D01*
X119504763Y-82549079D01*
X119457569Y-82618150D01*
X119406560Y-82870040D01*
X119406560Y-84280000D01*
X117856000Y-84280000D01*
X117546026Y-84341658D01*
X117414635Y-84429451D01*
X117283243Y-84517244D01*
X116725367Y-85075121D01*
X116331519Y-85074777D01*
X115948200Y-85233162D01*
X115948200Y-78110312D01*
X116573633Y-77484879D01*
X116967481Y-77485223D01*
X117439943Y-77290005D01*
X117801735Y-76928845D01*
X117997777Y-76456724D01*
X117998223Y-75945519D01*
X117803005Y-75473057D01*
X117441845Y-75111265D01*
X116969724Y-74915223D01*
X116458519Y-74914777D01*
X115986057Y-75109995D01*
X115624265Y-75471155D01*
X115428223Y-75943276D01*
X115427877Y-76339610D01*
X114565444Y-77202044D01*
X114389858Y-77464826D01*
X114328200Y-77774800D01*
X114328200Y-87147400D01*
X114389858Y-87457374D01*
X114504882Y-87629519D01*
X114565444Y-87720156D01*
X117249200Y-90403913D01*
X117249200Y-92202000D01*
X117310858Y-92511974D01*
X117421424Y-92677447D01*
X117486444Y-92774756D01*
X118908843Y-94197156D01*
X119036236Y-94282277D01*
X119171626Y-94372742D01*
X119481600Y-94434400D01*
X137865888Y-94434400D01*
X138542121Y-95110633D01*
X138541777Y-95504481D01*
X138736995Y-95976943D01*
X139098155Y-96338735D01*
X139570276Y-96534777D01*
X140081481Y-96535223D01*
X140553943Y-96340005D01*
X140915735Y-95978845D01*
X141111777Y-95506724D01*
X141112099Y-95138014D01*
X141351481Y-95138223D01*
X141823943Y-94943005D01*
X142104438Y-94663000D01*
X145700000Y-94663000D01*
X145700000Y-98100601D01*
X145596265Y-98204155D01*
X145400223Y-98676276D01*
X145399777Y-99187481D01*
X145594995Y-99659943D01*
X145700000Y-99765132D01*
X145700000Y-102843000D01*
X144372000Y-104171000D01*
X141929399Y-104171000D01*
X141825845Y-104067265D01*
X141353724Y-103871223D01*
X140842519Y-103870777D01*
X140370057Y-104065995D01*
X140008265Y-104427155D01*
X139812223Y-104899276D01*
X139811777Y-105410481D01*
X140006995Y-105882943D01*
X140120853Y-105997000D01*
X136389093Y-105997000D01*
X136110845Y-105718265D01*
X135638724Y-105522223D01*
X135127519Y-105521777D01*
X134693400Y-105701152D01*
X134693400Y-103393181D01*
X134998276Y-103519777D01*
X135509481Y-103520223D01*
X135981943Y-103325005D01*
X136343735Y-102963845D01*
X136539777Y-102491724D01*
X136540223Y-101980519D01*
X136345005Y-101508057D01*
X136065000Y-101227562D01*
X136065000Y-99776512D01*
X136352513Y-99489000D01*
X141359907Y-99489000D01*
X141638155Y-99767735D01*
X142110276Y-99963777D01*
X142621481Y-99964223D01*
X143093943Y-99769005D01*
X143455735Y-99407845D01*
X143651777Y-98935724D01*
X143652223Y-98424519D01*
X143457005Y-97952057D01*
X143095845Y-97590265D01*
X142623724Y-97394223D01*
X142112519Y-97393777D01*
X141640057Y-97588995D01*
X141359562Y-97869000D01*
X136017000Y-97869000D01*
X135844897Y-97903234D01*
X135707027Y-97930657D01*
X135444244Y-98106243D01*
X134693400Y-98857088D01*
X134693400Y-97764600D01*
X134688905Y-97742000D01*
X134631743Y-97454627D01*
X134507791Y-97269119D01*
X134508223Y-96773519D01*
X134313005Y-96301057D01*
X133951845Y-95939265D01*
X133479724Y-95743223D01*
X132968519Y-95742777D01*
X132496057Y-95937995D01*
X132221987Y-96211586D01*
X132154005Y-96047057D01*
X131792845Y-95685265D01*
X131320724Y-95489223D01*
X130809519Y-95488777D01*
X130337057Y-95683995D01*
X129975265Y-96045155D01*
X129779223Y-96517276D01*
X129778777Y-97028481D01*
X129973995Y-97500943D01*
X130335155Y-97862735D01*
X130807276Y-98058777D01*
X131203610Y-98059123D01*
X132159000Y-99014513D01*
X132159000Y-99076896D01*
X132082724Y-99045223D01*
X131571519Y-99044777D01*
X131099057Y-99239995D01*
X130737265Y-99601155D01*
X130541223Y-100073276D01*
X130540777Y-100584481D01*
X130735995Y-101056943D01*
X131016000Y-101337438D01*
X131016000Y-110033087D01*
X126661840Y-105678928D01*
X127000481Y-105679223D01*
X127472943Y-105484005D01*
X127834735Y-105122845D01*
X128030777Y-104650724D01*
X128031223Y-104139519D01*
X127836005Y-103667057D01*
X127610765Y-103441423D01*
X127834735Y-103217845D01*
X128030777Y-102745724D01*
X128031223Y-102234519D01*
X127836005Y-101762057D01*
X127474845Y-101400265D01*
X127002724Y-101204223D01*
X126491519Y-101203777D01*
X126019057Y-101398995D01*
X125738562Y-101679000D01*
X125049513Y-101679000D01*
X117031756Y-93661244D01*
X116976615Y-93624400D01*
X116768974Y-93485658D01*
X116459000Y-93424000D01*
X107503675Y-93424000D01*
X107609177Y-93169924D01*
X107609309Y-93018176D01*
X107820276Y-93105777D01*
X108331481Y-93106223D01*
X108803943Y-92911005D01*
X109165735Y-92549845D01*
X109361777Y-92077724D01*
X109362223Y-91566519D01*
X109167005Y-91094057D01*
X108962000Y-90888693D01*
X108962000Y-88412325D01*
X108962001Y-88412320D01*
X108899080Y-88096000D01*
X114108572Y-88096000D01*
X114108572Y-81726000D01*
X98783118Y-81726000D01*
X98600000Y-81542562D01*
X98600000Y-75240112D01*
X99428633Y-74411479D01*
X99822481Y-74411823D01*
X100294943Y-74216605D01*
X100656735Y-73855445D01*
X100852777Y-73383324D01*
X100853223Y-72872119D01*
X100658005Y-72399657D01*
X100296845Y-72037865D01*
X99824724Y-71841823D01*
X99328926Y-71841390D01*
X99329223Y-71500519D01*
X99134005Y-71028057D01*
X98772845Y-70666265D01*
X98300724Y-70470223D01*
X98216975Y-70470150D01*
X98388977Y-70055924D01*
X98389423Y-69544719D01*
X98194205Y-69072257D01*
X97833045Y-68710465D01*
X97360924Y-68514423D01*
X96964590Y-68514077D01*
X91225356Y-62774844D01*
X91225355Y-62774843D01*
X90962574Y-62599258D01*
X90652600Y-62537600D01*
X89331800Y-62537600D01*
X89021827Y-62599257D01*
X88765000Y-62770863D01*
X88765000Y-59093332D01*
X91922600Y-55935732D01*
X92118254Y-56131386D01*
G36*
X114112748Y-108570858D02*
X114098605Y-108585000D01*
X114112748Y-108599143D01*
X113933143Y-108778748D01*
X113919000Y-108764605D01*
X113904858Y-108778748D01*
X113725253Y-108599143D01*
X113739395Y-108585000D01*
X113725253Y-108570858D01*
X113904858Y-108391253D01*
X113919000Y-108405395D01*
X113933143Y-108391253D01*
X114112748Y-108570858D01*
X114112748Y-108570858D01*
G37*
X114112748Y-108570858D02*
X114098605Y-108585000D01*
X114112748Y-108599143D01*
X113933143Y-108778748D01*
X113919000Y-108764605D01*
X113904858Y-108778748D01*
X113725253Y-108599143D01*
X113739395Y-108585000D01*
X113725253Y-108570858D01*
X113904858Y-108391253D01*
X113919000Y-108405395D01*
X113933143Y-108391253D01*
X114112748Y-108570858D01*
G36*
X147499995Y-71592943D02*
X147861155Y-71954735D01*
X148333276Y-72150777D01*
X148844481Y-72151223D01*
X149316943Y-71956005D01*
X149370264Y-71902777D01*
X151463000Y-73995513D01*
X151463000Y-104185487D01*
X150859490Y-104788997D01*
X150859490Y-104552750D01*
X150700740Y-104394000D01*
X149352000Y-104394000D01*
X149352000Y-105742740D01*
X149510750Y-105901490D01*
X149746998Y-105901490D01*
X149651488Y-105997000D01*
X145260240Y-105997000D01*
X145476500Y-105852500D01*
X146776250Y-104552750D01*
X147590510Y-104552750D01*
X147590510Y-105392799D01*
X147687183Y-105626188D01*
X147865811Y-105804817D01*
X148099200Y-105901490D01*
X148939250Y-105901490D01*
X149098000Y-105742740D01*
X149098000Y-104394000D01*
X147749260Y-104394000D01*
X147590510Y-104552750D01*
X146776250Y-104552750D01*
X147381500Y-103947500D01*
X147590510Y-103634694D01*
X147590510Y-103981250D01*
X147749260Y-104140000D01*
X149098000Y-104140000D01*
X149098000Y-104120000D01*
X149352000Y-104120000D01*
X149352000Y-104140000D01*
X150700740Y-104140000D01*
X150859490Y-103981250D01*
X150859490Y-103141201D01*
X150762817Y-102907812D01*
X150584189Y-102729183D01*
X150549146Y-102714668D01*
X150609846Y-102654073D01*
X150859206Y-102053547D01*
X150859774Y-101403306D01*
X150611462Y-100802345D01*
X150266520Y-100456801D01*
X150609846Y-100114073D01*
X150859206Y-99513547D01*
X150859774Y-98863306D01*
X150611462Y-98262345D01*
X150266520Y-97916801D01*
X150609846Y-97574073D01*
X150859206Y-96973547D01*
X150859774Y-96323306D01*
X150611462Y-95722345D01*
X150152073Y-95262154D01*
X149777192Y-95106490D01*
X150350800Y-95106490D01*
X150584189Y-95009817D01*
X150762817Y-94831188D01*
X150859490Y-94597799D01*
X150859490Y-93757750D01*
X150700740Y-93599000D01*
X149352000Y-93599000D01*
X149352000Y-93619000D01*
X149098000Y-93619000D01*
X149098000Y-93599000D01*
X149078000Y-93599000D01*
X149078000Y-93345000D01*
X149098000Y-93345000D01*
X149098000Y-93325000D01*
X149352000Y-93325000D01*
X149352000Y-93345000D01*
X150700740Y-93345000D01*
X150859490Y-93186250D01*
X150859490Y-92346201D01*
X150762817Y-92112812D01*
X150584189Y-91934183D01*
X150549146Y-91919668D01*
X150609846Y-91859073D01*
X150859206Y-91258547D01*
X150859774Y-90608306D01*
X150611462Y-90007345D01*
X150266520Y-89661801D01*
X150609846Y-89319073D01*
X150859206Y-88718547D01*
X150859774Y-88068306D01*
X150611462Y-87467345D01*
X150266520Y-87121801D01*
X150609846Y-86779073D01*
X150859206Y-86178547D01*
X150859774Y-85528306D01*
X150611462Y-84927345D01*
X150152073Y-84467154D01*
X149777192Y-84311490D01*
X150350800Y-84311490D01*
X150584189Y-84214817D01*
X150762817Y-84036188D01*
X150859490Y-83802799D01*
X150859490Y-82962750D01*
X150700740Y-82804000D01*
X149352000Y-82804000D01*
X149352000Y-82824000D01*
X149098000Y-82824000D01*
X149098000Y-82804000D01*
X149078000Y-82804000D01*
X149078000Y-82550000D01*
X149098000Y-82550000D01*
X149098000Y-82530000D01*
X149352000Y-82530000D01*
X149352000Y-82550000D01*
X150700740Y-82550000D01*
X150859490Y-82391250D01*
X150859490Y-81551201D01*
X150762817Y-81317812D01*
X150584189Y-81139183D01*
X150549146Y-81124668D01*
X150609846Y-81064073D01*
X150859206Y-80463547D01*
X150859774Y-79813306D01*
X150611462Y-79212345D01*
X150266520Y-78866801D01*
X150609846Y-78524073D01*
X150859206Y-77923547D01*
X150859774Y-77273306D01*
X150611462Y-76672345D01*
X150266520Y-76326801D01*
X150609846Y-75984073D01*
X150859206Y-75383547D01*
X150859774Y-74733306D01*
X150611462Y-74132345D01*
X150152073Y-73672154D01*
X149551547Y-73422794D01*
X148901306Y-73422226D01*
X148300345Y-73670538D01*
X147840154Y-74129927D01*
X147590794Y-74730453D01*
X147590226Y-75380694D01*
X147649830Y-75524946D01*
X147635500Y-75503500D01*
X147081095Y-74949095D01*
X147081223Y-74802519D01*
X146886005Y-74330057D01*
X146524845Y-73968265D01*
X146052724Y-73772223D01*
X145541519Y-73771777D01*
X145069057Y-73966995D01*
X144707265Y-74328155D01*
X144668111Y-74422447D01*
X144668223Y-74294519D01*
X144473005Y-73822057D01*
X144232369Y-73581000D01*
X145161000Y-73581000D01*
X145470974Y-73519342D01*
X145733756Y-73343756D01*
X147181556Y-71895957D01*
X147298847Y-71720418D01*
X147357142Y-71633174D01*
X147408966Y-71372637D01*
X147499995Y-71592943D01*
X147499995Y-71592943D01*
G37*
X147499995Y-71592943D02*
X147861155Y-71954735D01*
X148333276Y-72150777D01*
X148844481Y-72151223D01*
X149316943Y-71956005D01*
X149370264Y-71902777D01*
X151463000Y-73995513D01*
X151463000Y-104185487D01*
X150859490Y-104788997D01*
X150859490Y-104552750D01*
X150700740Y-104394000D01*
X149352000Y-104394000D01*
X149352000Y-105742740D01*
X149510750Y-105901490D01*
X149746998Y-105901490D01*
X149651488Y-105997000D01*
X145260240Y-105997000D01*
X145476500Y-105852500D01*
X146776250Y-104552750D01*
X147590510Y-104552750D01*
X147590510Y-105392799D01*
X147687183Y-105626188D01*
X147865811Y-105804817D01*
X148099200Y-105901490D01*
X148939250Y-105901490D01*
X149098000Y-105742740D01*
X149098000Y-104394000D01*
X147749260Y-104394000D01*
X147590510Y-104552750D01*
X146776250Y-104552750D01*
X147381500Y-103947500D01*
X147590510Y-103634694D01*
X147590510Y-103981250D01*
X147749260Y-104140000D01*
X149098000Y-104140000D01*
X149098000Y-104120000D01*
X149352000Y-104120000D01*
X149352000Y-104140000D01*
X150700740Y-104140000D01*
X150859490Y-103981250D01*
X150859490Y-103141201D01*
X150762817Y-102907812D01*
X150584189Y-102729183D01*
X150549146Y-102714668D01*
X150609846Y-102654073D01*
X150859206Y-102053547D01*
X150859774Y-101403306D01*
X150611462Y-100802345D01*
X150266520Y-100456801D01*
X150609846Y-100114073D01*
X150859206Y-99513547D01*
X150859774Y-98863306D01*
X150611462Y-98262345D01*
X150266520Y-97916801D01*
X150609846Y-97574073D01*
X150859206Y-96973547D01*
X150859774Y-96323306D01*
X150611462Y-95722345D01*
X150152073Y-95262154D01*
X149777192Y-95106490D01*
X150350800Y-95106490D01*
X150584189Y-95009817D01*
X150762817Y-94831188D01*
X150859490Y-94597799D01*
X150859490Y-93757750D01*
X150700740Y-93599000D01*
X149352000Y-93599000D01*
X149352000Y-93619000D01*
X149098000Y-93619000D01*
X149098000Y-93599000D01*
X149078000Y-93599000D01*
X149078000Y-93345000D01*
X149098000Y-93345000D01*
X149098000Y-93325000D01*
X149352000Y-93325000D01*
X149352000Y-93345000D01*
X150700740Y-93345000D01*
X150859490Y-93186250D01*
X150859490Y-92346201D01*
X150762817Y-92112812D01*
X150584189Y-91934183D01*
X150549146Y-91919668D01*
X150609846Y-91859073D01*
X150859206Y-91258547D01*
X150859774Y-90608306D01*
X150611462Y-90007345D01*
X150266520Y-89661801D01*
X150609846Y-89319073D01*
X150859206Y-88718547D01*
X150859774Y-88068306D01*
X150611462Y-87467345D01*
X150266520Y-87121801D01*
X150609846Y-86779073D01*
X150859206Y-86178547D01*
X150859774Y-85528306D01*
X150611462Y-84927345D01*
X150152073Y-84467154D01*
X149777192Y-84311490D01*
X150350800Y-84311490D01*
X150584189Y-84214817D01*
X150762817Y-84036188D01*
X150859490Y-83802799D01*
X150859490Y-82962750D01*
X150700740Y-82804000D01*
X149352000Y-82804000D01*
X149352000Y-82824000D01*
X149098000Y-82824000D01*
X149098000Y-82804000D01*
X149078000Y-82804000D01*
X149078000Y-82550000D01*
X149098000Y-82550000D01*
X149098000Y-82530000D01*
X149352000Y-82530000D01*
X149352000Y-82550000D01*
X150700740Y-82550000D01*
X150859490Y-82391250D01*
X150859490Y-81551201D01*
X150762817Y-81317812D01*
X150584189Y-81139183D01*
X150549146Y-81124668D01*
X150609846Y-81064073D01*
X150859206Y-80463547D01*
X150859774Y-79813306D01*
X150611462Y-79212345D01*
X150266520Y-78866801D01*
X150609846Y-78524073D01*
X150859206Y-77923547D01*
X150859774Y-77273306D01*
X150611462Y-76672345D01*
X150266520Y-76326801D01*
X150609846Y-75984073D01*
X150859206Y-75383547D01*
X150859774Y-74733306D01*
X150611462Y-74132345D01*
X150152073Y-73672154D01*
X149551547Y-73422794D01*
X148901306Y-73422226D01*
X148300345Y-73670538D01*
X147840154Y-74129927D01*
X147590794Y-74730453D01*
X147590226Y-75380694D01*
X147649830Y-75524946D01*
X147635500Y-75503500D01*
X147081095Y-74949095D01*
X147081223Y-74802519D01*
X146886005Y-74330057D01*
X146524845Y-73968265D01*
X146052724Y-73772223D01*
X145541519Y-73771777D01*
X145069057Y-73966995D01*
X144707265Y-74328155D01*
X144668111Y-74422447D01*
X144668223Y-74294519D01*
X144473005Y-73822057D01*
X144232369Y-73581000D01*
X145161000Y-73581000D01*
X145470974Y-73519342D01*
X145733756Y-73343756D01*
X147181556Y-71895957D01*
X147298847Y-71720418D01*
X147357142Y-71633174D01*
X147408966Y-71372637D01*
X147499995Y-71592943D01*
G36*
X143472551Y-42782723D02*
X144915680Y-44228372D01*
X146802182Y-45011717D01*
X148844856Y-45013499D01*
X150732723Y-44233449D01*
X152178372Y-42790320D01*
X152299600Y-42498371D01*
X152299600Y-72541087D01*
X150051756Y-70293244D01*
X149882574Y-70180200D01*
X149788974Y-70117658D01*
X149626352Y-70085310D01*
X149318845Y-69777265D01*
X148846724Y-69581223D01*
X148335519Y-69580777D01*
X147863057Y-69775995D01*
X147501265Y-70137155D01*
X147418800Y-70335753D01*
X147418800Y-67872464D01*
X147433183Y-67907188D01*
X147611811Y-68085817D01*
X147845200Y-68182490D01*
X148685250Y-68182490D01*
X148844000Y-68023740D01*
X148844000Y-66675000D01*
X149098000Y-66675000D01*
X149098000Y-68023740D01*
X149256750Y-68182490D01*
X150096800Y-68182490D01*
X150330189Y-68085817D01*
X150508817Y-67907188D01*
X150605490Y-67673799D01*
X150605490Y-66833750D01*
X150446740Y-66675000D01*
X149098000Y-66675000D01*
X148844000Y-66675000D01*
X148824000Y-66675000D01*
X148824000Y-66421000D01*
X148844000Y-66421000D01*
X148844000Y-66401000D01*
X149098000Y-66401000D01*
X149098000Y-66421000D01*
X150446740Y-66421000D01*
X150605490Y-66262250D01*
X150605490Y-65422201D01*
X150508817Y-65188812D01*
X150330189Y-65010183D01*
X150295146Y-64995668D01*
X150355846Y-64935073D01*
X150605206Y-64334547D01*
X150605774Y-63684306D01*
X150357462Y-63083345D01*
X150012520Y-62737801D01*
X150355846Y-62395073D01*
X150605206Y-61794547D01*
X150605774Y-61144306D01*
X150357462Y-60543345D01*
X150012520Y-60197801D01*
X150355846Y-59855073D01*
X150605206Y-59254547D01*
X150605774Y-58604306D01*
X150357462Y-58003345D01*
X149898073Y-57543154D01*
X149297547Y-57293794D01*
X148647306Y-57293226D01*
X148046345Y-57541538D01*
X147586154Y-58000927D01*
X147336794Y-58601453D01*
X147336296Y-59171028D01*
X147181557Y-58939444D01*
X145988679Y-57746567D01*
X145989023Y-57352719D01*
X145793805Y-56880257D01*
X145432645Y-56518465D01*
X144960524Y-56322423D01*
X144449319Y-56321977D01*
X143976857Y-56517195D01*
X143615065Y-56878355D01*
X143419023Y-57350476D01*
X143418577Y-57861681D01*
X143613795Y-58334143D01*
X143974955Y-58695935D01*
X144447076Y-58891977D01*
X144843410Y-58892323D01*
X145798800Y-59847713D01*
X145798800Y-70987687D01*
X144825488Y-71961000D01*
X141198600Y-71961000D01*
X140888626Y-72022658D01*
X140794306Y-72085681D01*
X140625844Y-72198243D01*
X140372767Y-72451321D01*
X139978919Y-72450977D01*
X139506457Y-72646195D01*
X139225962Y-72926200D01*
X137317713Y-72926200D01*
X136463679Y-72072167D01*
X136464023Y-71678319D01*
X136268805Y-71205857D01*
X135907645Y-70844065D01*
X135435524Y-70648023D01*
X135039190Y-70647677D01*
X128969756Y-64578244D01*
X128898717Y-64530777D01*
X128706974Y-64402658D01*
X128397000Y-64341000D01*
X127081513Y-64341000D01*
X125907513Y-63167000D01*
X131821366Y-63167000D01*
X131684223Y-63497276D01*
X131683777Y-64008481D01*
X131878995Y-64480943D01*
X132240155Y-64842735D01*
X132712276Y-65038777D01*
X133223481Y-65039223D01*
X133695943Y-64844005D01*
X133976438Y-64564000D01*
X137617200Y-64564000D01*
X137927174Y-64502342D01*
X138189956Y-64326756D01*
X138506460Y-64010252D01*
X138506460Y-64960500D01*
X138547100Y-65176483D01*
X138547100Y-65488587D01*
X137704844Y-66330844D01*
X137529258Y-66593626D01*
X137467600Y-66903600D01*
X137467600Y-70180200D01*
X137529258Y-70490174D01*
X137673365Y-70705845D01*
X137704844Y-70752956D01*
X138543044Y-71591157D01*
X138805827Y-71766743D01*
X138943697Y-71794166D01*
X139115800Y-71828400D01*
X143357600Y-71828400D01*
X143667574Y-71766742D01*
X143930356Y-71591156D01*
X144259633Y-71261879D01*
X144653481Y-71262223D01*
X145125943Y-71067005D01*
X145487735Y-70705845D01*
X145683777Y-70233724D01*
X145684223Y-69722519D01*
X145489005Y-69250057D01*
X145127845Y-68888265D01*
X144655724Y-68692223D01*
X144144519Y-68691777D01*
X143672057Y-68886995D01*
X143310265Y-69248155D01*
X143114223Y-69720276D01*
X143113877Y-70116611D01*
X143022088Y-70208400D01*
X139451313Y-70208400D01*
X139190081Y-69947169D01*
X139255500Y-69881750D01*
X139255500Y-69746433D01*
X139263273Y-69765199D01*
X139441902Y-69943827D01*
X139576550Y-69999600D01*
X139617450Y-70040500D01*
X139744450Y-70040500D01*
X139785350Y-69999600D01*
X139919998Y-69943827D01*
X140011150Y-69852676D01*
X140102302Y-69943827D01*
X140215270Y-69990620D01*
X140265150Y-70040500D01*
X140334309Y-70040500D01*
X140335000Y-70040214D01*
X140335691Y-70040500D01*
X140404850Y-70040500D01*
X140454730Y-69990620D01*
X140567698Y-69943827D01*
X140658850Y-69852676D01*
X140750002Y-69943827D01*
X140884650Y-69999600D01*
X140925550Y-70040500D01*
X141052550Y-70040500D01*
X141093450Y-69999600D01*
X141228098Y-69943827D01*
X141406727Y-69765199D01*
X141414500Y-69746433D01*
X141414500Y-69881750D01*
X141573250Y-70040500D01*
X141642409Y-70040500D01*
X141875798Y-69943827D01*
X142054427Y-69765199D01*
X142151100Y-69531810D01*
X142151100Y-69056250D01*
X141992350Y-68897500D01*
X141414500Y-68897500D01*
X141414500Y-68967350D01*
X141344650Y-68897500D01*
X139325350Y-68897500D01*
X139255500Y-68967350D01*
X139255500Y-68897500D01*
X139210100Y-68897500D01*
X139210100Y-68643500D01*
X139255500Y-68643500D01*
X139255500Y-68573650D01*
X139325350Y-68643500D01*
X141344650Y-68643500D01*
X141414500Y-68573650D01*
X141414500Y-68643500D01*
X141992350Y-68643500D01*
X142151100Y-68484750D01*
X142151100Y-68009190D01*
X142054427Y-67775801D01*
X141875798Y-67597173D01*
X141642409Y-67500500D01*
X141573250Y-67500500D01*
X141414500Y-67659250D01*
X141414500Y-67794567D01*
X141406727Y-67775801D01*
X141228098Y-67597173D01*
X141093450Y-67541400D01*
X141052550Y-67500500D01*
X140925550Y-67500500D01*
X140884650Y-67541400D01*
X140750002Y-67597173D01*
X140658850Y-67688324D01*
X140567698Y-67597173D01*
X140454730Y-67550380D01*
X140404850Y-67500500D01*
X140335691Y-67500500D01*
X140335000Y-67500786D01*
X140334309Y-67500500D01*
X140265150Y-67500500D01*
X140215270Y-67550380D01*
X140102302Y-67597173D01*
X140011150Y-67688324D01*
X139919998Y-67597173D01*
X139785350Y-67541400D01*
X139744450Y-67500500D01*
X139617450Y-67500500D01*
X139576550Y-67541400D01*
X139441902Y-67597173D01*
X139263273Y-67775801D01*
X139255500Y-67794567D01*
X139255500Y-67659250D01*
X139096750Y-67500500D01*
X139087600Y-67500500D01*
X139087600Y-67239112D01*
X139929857Y-66396856D01*
X140105443Y-66134073D01*
X140167100Y-65824100D01*
X140167100Y-65527544D01*
X140210110Y-65556931D01*
X140230763Y-65561113D01*
X140265150Y-65595500D01*
X140334309Y-65595500D01*
X140356066Y-65586488D01*
X140462000Y-65607940D01*
X140868400Y-65607940D01*
X140993479Y-65584405D01*
X141109700Y-65607940D01*
X141516100Y-65607940D01*
X141751417Y-65563662D01*
X141967541Y-65424590D01*
X142112531Y-65212390D01*
X142163540Y-64960500D01*
X142163540Y-63690500D01*
X142125766Y-63489747D01*
X142507956Y-63107557D01*
X142507958Y-63107554D01*
X142965156Y-62650357D01*
X143085438Y-62470342D01*
X143140742Y-62387574D01*
X143202400Y-62077600D01*
X143202400Y-59766164D01*
X143296177Y-59540324D01*
X143296623Y-59029119D01*
X143101405Y-58556657D01*
X142740245Y-58194865D01*
X142268124Y-57998823D01*
X141756919Y-57998377D01*
X141284457Y-58193595D01*
X140922665Y-58554755D01*
X140726623Y-59026876D01*
X140726177Y-59538081D01*
X140742861Y-59578460D01*
X140344657Y-59742995D01*
X139982865Y-60104155D01*
X139786823Y-60576276D01*
X139786377Y-61087481D01*
X139855200Y-61254045D01*
X139855200Y-63123456D01*
X139812190Y-63094069D01*
X139775612Y-63086662D01*
X139744450Y-63055500D01*
X139675291Y-63055500D01*
X139657704Y-63062785D01*
X139560300Y-63043060D01*
X139473653Y-63043060D01*
X139510756Y-63005957D01*
X139613061Y-62852846D01*
X139686342Y-62743174D01*
X139748000Y-62433200D01*
X139748000Y-59339712D01*
X143302962Y-55784750D01*
X147336510Y-55784750D01*
X147336510Y-56624799D01*
X147433183Y-56858188D01*
X147611811Y-57036817D01*
X147845200Y-57133490D01*
X148685250Y-57133490D01*
X148844000Y-56974740D01*
X148844000Y-55626000D01*
X149098000Y-55626000D01*
X149098000Y-56974740D01*
X149256750Y-57133490D01*
X150096800Y-57133490D01*
X150330189Y-57036817D01*
X150508817Y-56858188D01*
X150605490Y-56624799D01*
X150605490Y-55784750D01*
X150446740Y-55626000D01*
X149098000Y-55626000D01*
X148844000Y-55626000D01*
X147495260Y-55626000D01*
X147336510Y-55784750D01*
X143302962Y-55784750D01*
X144590757Y-54496956D01*
X144747083Y-54262997D01*
X144766342Y-54234174D01*
X144828000Y-53924200D01*
X144828000Y-51476760D01*
X145182935Y-51122445D01*
X145378977Y-50650324D01*
X145379423Y-50139119D01*
X145184205Y-49666657D01*
X144823045Y-49304865D01*
X144350924Y-49108823D01*
X143839719Y-49108377D01*
X143367257Y-49303595D01*
X143005465Y-49664755D01*
X142809423Y-50136876D01*
X142808977Y-50648081D01*
X143004195Y-51120543D01*
X143208000Y-51324705D01*
X143208000Y-53588687D01*
X138365244Y-58431444D01*
X138189658Y-58694226D01*
X138128000Y-59004200D01*
X138128000Y-60961607D01*
X137721524Y-60792823D01*
X137325189Y-60792477D01*
X137097756Y-60565044D01*
X137034873Y-60523027D01*
X136834974Y-60389458D01*
X136525000Y-60327800D01*
X128271387Y-60327800D01*
X128016000Y-60277000D01*
X126309183Y-60277000D01*
X124133426Y-58101244D01*
X124062387Y-58053777D01*
X123870644Y-57925658D01*
X123560670Y-57864000D01*
X106632854Y-57864000D01*
X106644943Y-57859005D01*
X106933855Y-57570597D01*
X106939810Y-57579851D01*
X107152010Y-57724841D01*
X107403900Y-57775850D01*
X109004100Y-57775850D01*
X109239417Y-57731572D01*
X109455541Y-57592500D01*
X109600531Y-57380300D01*
X109651540Y-57128410D01*
X109651540Y-56463820D01*
X113614460Y-56463820D01*
X113614460Y-57128410D01*
X113658738Y-57363727D01*
X113797810Y-57579851D01*
X114010010Y-57724841D01*
X114261900Y-57775850D01*
X115862100Y-57775850D01*
X116097417Y-57731572D01*
X116313541Y-57592500D01*
X116458531Y-57380300D01*
X116509540Y-57128410D01*
X116509540Y-56463820D01*
X120472460Y-56463820D01*
X120472460Y-57128410D01*
X120516738Y-57363727D01*
X120655810Y-57579851D01*
X120868010Y-57724841D01*
X121119900Y-57775850D01*
X122720100Y-57775850D01*
X122955417Y-57731572D01*
X123171541Y-57592500D01*
X123316531Y-57380300D01*
X123367540Y-57128410D01*
X123367540Y-56463820D01*
X127330460Y-56463820D01*
X127330460Y-57128410D01*
X127374738Y-57363727D01*
X127513810Y-57579851D01*
X127726010Y-57724841D01*
X127977900Y-57775850D01*
X129578100Y-57775850D01*
X129813417Y-57731572D01*
X130029541Y-57592500D01*
X130174531Y-57380300D01*
X130225540Y-57128410D01*
X130225540Y-56463820D01*
X134188460Y-56463820D01*
X134188460Y-57128410D01*
X134232738Y-57363727D01*
X134371810Y-57579851D01*
X134584010Y-57724841D01*
X134835900Y-57775850D01*
X136436100Y-57775850D01*
X136671417Y-57731572D01*
X136887541Y-57592500D01*
X137032531Y-57380300D01*
X137083540Y-57128410D01*
X137083540Y-53529230D01*
X137039262Y-53293913D01*
X136900190Y-53077789D01*
X136687990Y-52932799D01*
X136436100Y-52881790D01*
X134835900Y-52881790D01*
X134600583Y-52926068D01*
X134384459Y-53065140D01*
X134239469Y-53277340D01*
X134188460Y-53529230D01*
X134188460Y-54193820D01*
X130225540Y-54193820D01*
X130225540Y-53529230D01*
X130181262Y-53293913D01*
X130042190Y-53077789D01*
X129829990Y-52932799D01*
X129578100Y-52881790D01*
X127977900Y-52881790D01*
X127742583Y-52926068D01*
X127526459Y-53065140D01*
X127381469Y-53277340D01*
X127330460Y-53529230D01*
X127330460Y-54193820D01*
X123367540Y-54193820D01*
X123367540Y-53529230D01*
X123323262Y-53293913D01*
X123184190Y-53077789D01*
X122971990Y-52932799D01*
X122720100Y-52881790D01*
X121119900Y-52881790D01*
X120884583Y-52926068D01*
X120668459Y-53065140D01*
X120523469Y-53277340D01*
X120472460Y-53529230D01*
X120472460Y-54193820D01*
X116509540Y-54193820D01*
X116509540Y-53529230D01*
X116465262Y-53293913D01*
X116326190Y-53077789D01*
X116113990Y-52932799D01*
X115862100Y-52881790D01*
X114261900Y-52881790D01*
X114026583Y-52926068D01*
X113810459Y-53065140D01*
X113665469Y-53277340D01*
X113614460Y-53529230D01*
X113614460Y-54193820D01*
X109651540Y-54193820D01*
X109651540Y-53529230D01*
X109607262Y-53293913D01*
X109468190Y-53077789D01*
X109255990Y-52932799D01*
X109004100Y-52881790D01*
X107403900Y-52881790D01*
X107168583Y-52926068D01*
X106977901Y-53048769D01*
X106677386Y-52748254D01*
X106592211Y-52691342D01*
X106309166Y-52502217D01*
X105874820Y-52415820D01*
X102793540Y-52415820D01*
X102793540Y-51751230D01*
X102749262Y-51515913D01*
X102610190Y-51299789D01*
X102397990Y-51154799D01*
X102146100Y-51103790D01*
X100545900Y-51103790D01*
X100310583Y-51148068D01*
X100094459Y-51287140D01*
X99949469Y-51499340D01*
X99898460Y-51751230D01*
X99898460Y-52415820D01*
X99230180Y-52415820D01*
X98795834Y-52502217D01*
X98512789Y-52691342D01*
X98427614Y-52748254D01*
X96982048Y-54193820D01*
X95935540Y-54193820D01*
X95935540Y-53529230D01*
X95891262Y-53293913D01*
X95752190Y-53077789D01*
X95539990Y-52932799D01*
X95288100Y-52881790D01*
X93687900Y-52881790D01*
X93452583Y-52926068D01*
X93236459Y-53065140D01*
X93091469Y-53277340D01*
X93040460Y-53529230D01*
X93040460Y-53843328D01*
X92956000Y-53758868D01*
X92956000Y-50112930D01*
X93052900Y-50112930D01*
X93052900Y-51753079D01*
X93149573Y-51986468D01*
X93328201Y-52165097D01*
X93561590Y-52261770D01*
X94202250Y-52261770D01*
X94361000Y-52103020D01*
X94361000Y-49954180D01*
X94615000Y-49954180D01*
X94615000Y-52103020D01*
X94773750Y-52261770D01*
X95414410Y-52261770D01*
X95647799Y-52165097D01*
X95826427Y-51986468D01*
X95923100Y-51753079D01*
X95923100Y-50112930D01*
X95764350Y-49954180D01*
X94615000Y-49954180D01*
X94361000Y-49954180D01*
X93211650Y-49954180D01*
X93052900Y-50112930D01*
X92956000Y-50112930D01*
X92956000Y-47092182D01*
X93029621Y-46982000D01*
X93152379Y-46982000D01*
X93275591Y-47166400D01*
X93614109Y-47392590D01*
X93561590Y-47392590D01*
X93328201Y-47489263D01*
X93149573Y-47667892D01*
X93052900Y-47901281D01*
X93052900Y-49541430D01*
X93211650Y-49700180D01*
X94361000Y-49700180D01*
X94361000Y-49680180D01*
X94615000Y-49680180D01*
X94615000Y-49700180D01*
X95764350Y-49700180D01*
X95923100Y-49541430D01*
X95923100Y-48334930D01*
X99910900Y-48334930D01*
X99910900Y-49975079D01*
X100007573Y-50208468D01*
X100186201Y-50387097D01*
X100419590Y-50483770D01*
X101060250Y-50483770D01*
X101219000Y-50325020D01*
X101219000Y-48176180D01*
X101473000Y-48176180D01*
X101473000Y-50325020D01*
X101631750Y-50483770D01*
X102272410Y-50483770D01*
X102505799Y-50387097D01*
X102684427Y-50208468D01*
X102724000Y-50112930D01*
X106768900Y-50112930D01*
X106768900Y-51753079D01*
X106865573Y-51986468D01*
X107044201Y-52165097D01*
X107277590Y-52261770D01*
X107918250Y-52261770D01*
X108077000Y-52103020D01*
X108077000Y-49954180D01*
X108331000Y-49954180D01*
X108331000Y-52103020D01*
X108489750Y-52261770D01*
X109130410Y-52261770D01*
X109363799Y-52165097D01*
X109542427Y-51986468D01*
X109639100Y-51753079D01*
X109639100Y-50112930D01*
X113626900Y-50112930D01*
X113626900Y-51753079D01*
X113723573Y-51986468D01*
X113902201Y-52165097D01*
X114135590Y-52261770D01*
X114776250Y-52261770D01*
X114935000Y-52103020D01*
X114935000Y-49954180D01*
X115189000Y-49954180D01*
X115189000Y-52103020D01*
X115347750Y-52261770D01*
X115988410Y-52261770D01*
X116221799Y-52165097D01*
X116400427Y-51986468D01*
X116497100Y-51753079D01*
X116497100Y-50112930D01*
X120484900Y-50112930D01*
X120484900Y-51753079D01*
X120581573Y-51986468D01*
X120760201Y-52165097D01*
X120993590Y-52261770D01*
X121634250Y-52261770D01*
X121793000Y-52103020D01*
X121793000Y-49954180D01*
X122047000Y-49954180D01*
X122047000Y-52103020D01*
X122205750Y-52261770D01*
X122846410Y-52261770D01*
X123079799Y-52165097D01*
X123258427Y-51986468D01*
X123355100Y-51753079D01*
X123355100Y-50112930D01*
X127342900Y-50112930D01*
X127342900Y-51753079D01*
X127439573Y-51986468D01*
X127618201Y-52165097D01*
X127851590Y-52261770D01*
X128492250Y-52261770D01*
X128651000Y-52103020D01*
X128651000Y-49954180D01*
X128905000Y-49954180D01*
X128905000Y-52103020D01*
X129063750Y-52261770D01*
X129704410Y-52261770D01*
X129937799Y-52165097D01*
X130116427Y-51986468D01*
X130213100Y-51753079D01*
X130213100Y-50112930D01*
X134200900Y-50112930D01*
X134200900Y-51753079D01*
X134297573Y-51986468D01*
X134476201Y-52165097D01*
X134709590Y-52261770D01*
X135350250Y-52261770D01*
X135509000Y-52103020D01*
X135509000Y-49954180D01*
X135763000Y-49954180D01*
X135763000Y-52103020D01*
X135921750Y-52261770D01*
X136562410Y-52261770D01*
X136795799Y-52165097D01*
X136974427Y-51986468D01*
X137071100Y-51753079D01*
X137071100Y-50112930D01*
X136912350Y-49954180D01*
X135763000Y-49954180D01*
X135509000Y-49954180D01*
X134359650Y-49954180D01*
X134200900Y-50112930D01*
X130213100Y-50112930D01*
X130054350Y-49954180D01*
X128905000Y-49954180D01*
X128651000Y-49954180D01*
X127501650Y-49954180D01*
X127342900Y-50112930D01*
X123355100Y-50112930D01*
X123196350Y-49954180D01*
X122047000Y-49954180D01*
X121793000Y-49954180D01*
X120643650Y-49954180D01*
X120484900Y-50112930D01*
X116497100Y-50112930D01*
X116338350Y-49954180D01*
X115189000Y-49954180D01*
X114935000Y-49954180D01*
X113785650Y-49954180D01*
X113626900Y-50112930D01*
X109639100Y-50112930D01*
X109480350Y-49954180D01*
X108331000Y-49954180D01*
X108077000Y-49954180D01*
X106927650Y-49954180D01*
X106768900Y-50112930D01*
X102724000Y-50112930D01*
X102781100Y-49975079D01*
X102781100Y-48334930D01*
X102622350Y-48176180D01*
X101473000Y-48176180D01*
X101219000Y-48176180D01*
X100069650Y-48176180D01*
X99910900Y-48334930D01*
X95923100Y-48334930D01*
X95923100Y-47901281D01*
X95826427Y-47667892D01*
X95647799Y-47489263D01*
X95414410Y-47392590D01*
X95107891Y-47392590D01*
X95446409Y-47166400D01*
X95633651Y-46886172D01*
X95937921Y-47248369D01*
X96470975Y-47525475D01*
X96536260Y-47538036D01*
X96774000Y-47417378D01*
X96774000Y-45974000D01*
X97028000Y-45974000D01*
X97028000Y-47417378D01*
X97265740Y-47538036D01*
X97331025Y-47525475D01*
X97864079Y-47248369D01*
X98250513Y-46788366D01*
X98431496Y-46215497D01*
X98373748Y-46123281D01*
X99910900Y-46123281D01*
X99910900Y-47763430D01*
X100069650Y-47922180D01*
X101219000Y-47922180D01*
X101219000Y-45773340D01*
X101473000Y-45773340D01*
X101473000Y-47922180D01*
X102622350Y-47922180D01*
X102781100Y-47763430D01*
X102781100Y-46123281D01*
X102684427Y-45889892D01*
X102505799Y-45711263D01*
X102272410Y-45614590D01*
X101631750Y-45614590D01*
X101473000Y-45773340D01*
X101219000Y-45773340D01*
X101060250Y-45614590D01*
X100419590Y-45614590D01*
X100186201Y-45711263D01*
X100007573Y-45889892D01*
X99910900Y-46123281D01*
X98373748Y-46123281D01*
X98280262Y-45974000D01*
X97028000Y-45974000D01*
X96774000Y-45974000D01*
X96754000Y-45974000D01*
X96754000Y-45720000D01*
X96774000Y-45720000D01*
X96774000Y-43434000D01*
X97028000Y-43434000D01*
X97028000Y-45720000D01*
X98280262Y-45720000D01*
X98431496Y-45478503D01*
X98250513Y-44905634D01*
X97974438Y-44577000D01*
X98250513Y-44248366D01*
X98431496Y-43675497D01*
X98280262Y-43434000D01*
X106348000Y-43434000D01*
X106348000Y-43694000D01*
X106508878Y-44248791D01*
X106626374Y-44395601D01*
X106534673Y-44487301D01*
X106438000Y-44720690D01*
X106438000Y-45561250D01*
X106596750Y-45720000D01*
X107696000Y-45720000D01*
X107696000Y-43434000D01*
X106348000Y-43434000D01*
X98280262Y-43434000D01*
X97028000Y-43434000D01*
X96774000Y-43434000D01*
X96754000Y-43434000D01*
X96754000Y-43180000D01*
X96774000Y-43180000D01*
X96774000Y-43160000D01*
X97028000Y-43160000D01*
X97028000Y-43180000D01*
X98280262Y-43180000D01*
X98431496Y-42938503D01*
X98250513Y-42365634D01*
X98101456Y-42188200D01*
X106650543Y-42188200D01*
X106508878Y-42365209D01*
X106348000Y-42920000D01*
X106348000Y-43180000D01*
X107696000Y-43180000D01*
X107696000Y-43160000D01*
X107950000Y-43160000D01*
X107950000Y-43180000D01*
X107970000Y-43180000D01*
X107970000Y-43434000D01*
X107950000Y-43434000D01*
X107950000Y-45720000D01*
X107970000Y-45720000D01*
X107970000Y-45974000D01*
X107950000Y-45974000D01*
X107950000Y-45994000D01*
X107696000Y-45994000D01*
X107696000Y-45974000D01*
X106596750Y-45974000D01*
X106438000Y-46132750D01*
X106438000Y-46973310D01*
X106534673Y-47206699D01*
X106713302Y-47385327D01*
X106946691Y-47482000D01*
X107061735Y-47482000D01*
X107044201Y-47489263D01*
X106865573Y-47667892D01*
X106768900Y-47901281D01*
X106768900Y-49541430D01*
X106927650Y-49700180D01*
X108077000Y-49700180D01*
X108077000Y-49680180D01*
X108331000Y-49680180D01*
X108331000Y-49700180D01*
X109480350Y-49700180D01*
X109639100Y-49541430D01*
X109639100Y-47901281D01*
X109542427Y-47667892D01*
X109363799Y-47489263D01*
X109130410Y-47392590D01*
X108915164Y-47392590D01*
X108932698Y-47385327D01*
X109111327Y-47206699D01*
X109197000Y-46999866D01*
X109320017Y-47183974D01*
X109798542Y-47503713D01*
X110363000Y-47615991D01*
X110927458Y-47503713D01*
X111405983Y-47183974D01*
X111633000Y-46844218D01*
X111860017Y-47183974D01*
X112338542Y-47503713D01*
X112903000Y-47615991D01*
X113467458Y-47503713D01*
X113945983Y-47183974D01*
X114173000Y-46844218D01*
X114400017Y-47183974D01*
X114712234Y-47392590D01*
X114135590Y-47392590D01*
X113902201Y-47489263D01*
X113723573Y-47667892D01*
X113626900Y-47901281D01*
X113626900Y-49541430D01*
X113785650Y-49700180D01*
X114935000Y-49700180D01*
X114935000Y-49680180D01*
X115189000Y-49680180D01*
X115189000Y-49700180D01*
X116338350Y-49700180D01*
X116497100Y-49541430D01*
X116497100Y-47901281D01*
X116400427Y-47667892D01*
X116221799Y-47489263D01*
X116102833Y-47439986D01*
X116485983Y-47183974D01*
X116713000Y-46844218D01*
X116940017Y-47183974D01*
X117418542Y-47503713D01*
X117983000Y-47615991D01*
X118547458Y-47503713D01*
X119025983Y-47183974D01*
X119253000Y-46844218D01*
X119480017Y-47183974D01*
X119958542Y-47503713D01*
X120523000Y-47615991D01*
X120660905Y-47588560D01*
X120581573Y-47667892D01*
X120484900Y-47901281D01*
X120484900Y-49541430D01*
X120643650Y-49700180D01*
X121793000Y-49700180D01*
X121793000Y-47551340D01*
X121634250Y-47392590D01*
X121253766Y-47392590D01*
X121565983Y-47183974D01*
X121793000Y-46844218D01*
X122020017Y-47183974D01*
X122332234Y-47392590D01*
X122205750Y-47392590D01*
X122047000Y-47551340D01*
X122047000Y-49700180D01*
X123196350Y-49700180D01*
X123355100Y-49541430D01*
X123355100Y-47901281D01*
X123258427Y-47667892D01*
X123182714Y-47592178D01*
X123627458Y-47503713D01*
X124105983Y-47183974D01*
X124333000Y-46844218D01*
X124560017Y-47183974D01*
X125038542Y-47503713D01*
X125603000Y-47615991D01*
X126167458Y-47503713D01*
X126645983Y-47183974D01*
X126873000Y-46844218D01*
X127100017Y-47183974D01*
X127578542Y-47503713D01*
X127599569Y-47507895D01*
X127439573Y-47667892D01*
X127342900Y-47901281D01*
X127342900Y-49541430D01*
X127501650Y-49700180D01*
X128651000Y-49700180D01*
X128651000Y-49680180D01*
X128905000Y-49680180D01*
X128905000Y-49700180D01*
X130054350Y-49700180D01*
X130213100Y-49541430D01*
X130213100Y-47901281D01*
X130116427Y-47667892D01*
X129937799Y-47489263D01*
X129704410Y-47392590D01*
X129063750Y-47392590D01*
X128905002Y-47551338D01*
X128905002Y-47392590D01*
X128873766Y-47392590D01*
X129185983Y-47183974D01*
X129413000Y-46844218D01*
X129640017Y-47183974D01*
X130118542Y-47503713D01*
X130683000Y-47615991D01*
X131247458Y-47503713D01*
X131725983Y-47183974D01*
X131953000Y-46844218D01*
X132180017Y-47183974D01*
X132658542Y-47503713D01*
X133223000Y-47615991D01*
X133787458Y-47503713D01*
X134265983Y-47183974D01*
X134493000Y-46844218D01*
X134720017Y-47183974D01*
X135032234Y-47392590D01*
X134709590Y-47392590D01*
X134476201Y-47489263D01*
X134297573Y-47667892D01*
X134200900Y-47901281D01*
X134200900Y-49541430D01*
X134359650Y-49700180D01*
X135509000Y-49700180D01*
X135509000Y-49680180D01*
X135763000Y-49680180D01*
X135763000Y-49700180D01*
X136912350Y-49700180D01*
X137071100Y-49541430D01*
X137071100Y-48202694D01*
X147336226Y-48202694D01*
X147584538Y-48803655D01*
X147929480Y-49149199D01*
X147586154Y-49491927D01*
X147336794Y-50092453D01*
X147336226Y-50742694D01*
X147584538Y-51343655D01*
X147929480Y-51689199D01*
X147586154Y-52031927D01*
X147336794Y-52632453D01*
X147336226Y-53282694D01*
X147584538Y-53883655D01*
X147647269Y-53946496D01*
X147611811Y-53961183D01*
X147433183Y-54139812D01*
X147336510Y-54373201D01*
X147336510Y-55213250D01*
X147495260Y-55372000D01*
X148844000Y-55372000D01*
X148844000Y-55352000D01*
X149098000Y-55352000D01*
X149098000Y-55372000D01*
X150446740Y-55372000D01*
X150605490Y-55213250D01*
X150605490Y-54373201D01*
X150508817Y-54139812D01*
X150330189Y-53961183D01*
X150295146Y-53946668D01*
X150355846Y-53886073D01*
X150605206Y-53285547D01*
X150605774Y-52635306D01*
X150357462Y-52034345D01*
X150012520Y-51688801D01*
X150355846Y-51346073D01*
X150605206Y-50745547D01*
X150605774Y-50095306D01*
X150357462Y-49494345D01*
X150012520Y-49148801D01*
X150355846Y-48806073D01*
X150605206Y-48205547D01*
X150605774Y-47555306D01*
X150357462Y-46954345D01*
X149898073Y-46494154D01*
X149297547Y-46244794D01*
X148647306Y-46244226D01*
X148046345Y-46492538D01*
X147586154Y-46951927D01*
X147336794Y-47552453D01*
X147336226Y-48202694D01*
X137071100Y-48202694D01*
X137071100Y-47901281D01*
X136974427Y-47667892D01*
X136795799Y-47489263D01*
X136562410Y-47392590D01*
X136493766Y-47392590D01*
X136805983Y-47183974D01*
X137033108Y-46844056D01*
X137349820Y-47239785D01*
X137855875Y-47518323D01*
X137947680Y-47538563D01*
X138176000Y-47417109D01*
X138176000Y-45974000D01*
X138430000Y-45974000D01*
X138430000Y-47417109D01*
X138658320Y-47538563D01*
X138750125Y-47518323D01*
X139256180Y-47239785D01*
X139617122Y-46788791D01*
X139778000Y-46234000D01*
X139778000Y-45974000D01*
X138430000Y-45974000D01*
X138176000Y-45974000D01*
X138156000Y-45974000D01*
X138156000Y-45720000D01*
X138176000Y-45720000D01*
X138176000Y-43434000D01*
X138430000Y-43434000D01*
X138430000Y-45720000D01*
X139778000Y-45720000D01*
X139778000Y-45460000D01*
X139617122Y-44905209D01*
X139354448Y-44577000D01*
X139617122Y-44248791D01*
X139778000Y-43694000D01*
X139778000Y-43434000D01*
X138430000Y-43434000D01*
X138176000Y-43434000D01*
X138156000Y-43434000D01*
X138156000Y-43180000D01*
X138176000Y-43180000D01*
X138176000Y-43160000D01*
X138430000Y-43160000D01*
X138430000Y-43180000D01*
X139778000Y-43180000D01*
X139778000Y-42920000D01*
X139617122Y-42365209D01*
X139475457Y-42188200D01*
X142722600Y-42188200D01*
X142994305Y-42134154D01*
X143159077Y-42024057D01*
X143472551Y-42782723D01*
X143472551Y-42782723D01*
G37*
X143472551Y-42782723D02*
X144915680Y-44228372D01*
X146802182Y-45011717D01*
X148844856Y-45013499D01*
X150732723Y-44233449D01*
X152178372Y-42790320D01*
X152299600Y-42498371D01*
X152299600Y-72541087D01*
X150051756Y-70293244D01*
X149882574Y-70180200D01*
X149788974Y-70117658D01*
X149626352Y-70085310D01*
X149318845Y-69777265D01*
X148846724Y-69581223D01*
X148335519Y-69580777D01*
X147863057Y-69775995D01*
X147501265Y-70137155D01*
X147418800Y-70335753D01*
X147418800Y-67872464D01*
X147433183Y-67907188D01*
X147611811Y-68085817D01*
X147845200Y-68182490D01*
X148685250Y-68182490D01*
X148844000Y-68023740D01*
X148844000Y-66675000D01*
X149098000Y-66675000D01*
X149098000Y-68023740D01*
X149256750Y-68182490D01*
X150096800Y-68182490D01*
X150330189Y-68085817D01*
X150508817Y-67907188D01*
X150605490Y-67673799D01*
X150605490Y-66833750D01*
X150446740Y-66675000D01*
X149098000Y-66675000D01*
X148844000Y-66675000D01*
X148824000Y-66675000D01*
X148824000Y-66421000D01*
X148844000Y-66421000D01*
X148844000Y-66401000D01*
X149098000Y-66401000D01*
X149098000Y-66421000D01*
X150446740Y-66421000D01*
X150605490Y-66262250D01*
X150605490Y-65422201D01*
X150508817Y-65188812D01*
X150330189Y-65010183D01*
X150295146Y-64995668D01*
X150355846Y-64935073D01*
X150605206Y-64334547D01*
X150605774Y-63684306D01*
X150357462Y-63083345D01*
X150012520Y-62737801D01*
X150355846Y-62395073D01*
X150605206Y-61794547D01*
X150605774Y-61144306D01*
X150357462Y-60543345D01*
X150012520Y-60197801D01*
X150355846Y-59855073D01*
X150605206Y-59254547D01*
X150605774Y-58604306D01*
X150357462Y-58003345D01*
X149898073Y-57543154D01*
X149297547Y-57293794D01*
X148647306Y-57293226D01*
X148046345Y-57541538D01*
X147586154Y-58000927D01*
X147336794Y-58601453D01*
X147336296Y-59171028D01*
X147181557Y-58939444D01*
X145988679Y-57746567D01*
X145989023Y-57352719D01*
X145793805Y-56880257D01*
X145432645Y-56518465D01*
X144960524Y-56322423D01*
X144449319Y-56321977D01*
X143976857Y-56517195D01*
X143615065Y-56878355D01*
X143419023Y-57350476D01*
X143418577Y-57861681D01*
X143613795Y-58334143D01*
X143974955Y-58695935D01*
X144447076Y-58891977D01*
X144843410Y-58892323D01*
X145798800Y-59847713D01*
X145798800Y-70987687D01*
X144825488Y-71961000D01*
X141198600Y-71961000D01*
X140888626Y-72022658D01*
X140794306Y-72085681D01*
X140625844Y-72198243D01*
X140372767Y-72451321D01*
X139978919Y-72450977D01*
X139506457Y-72646195D01*
X139225962Y-72926200D01*
X137317713Y-72926200D01*
X136463679Y-72072167D01*
X136464023Y-71678319D01*
X136268805Y-71205857D01*
X135907645Y-70844065D01*
X135435524Y-70648023D01*
X135039190Y-70647677D01*
X128969756Y-64578244D01*
X128898717Y-64530777D01*
X128706974Y-64402658D01*
X128397000Y-64341000D01*
X127081513Y-64341000D01*
X125907513Y-63167000D01*
X131821366Y-63167000D01*
X131684223Y-63497276D01*
X131683777Y-64008481D01*
X131878995Y-64480943D01*
X132240155Y-64842735D01*
X132712276Y-65038777D01*
X133223481Y-65039223D01*
X133695943Y-64844005D01*
X133976438Y-64564000D01*
X137617200Y-64564000D01*
X137927174Y-64502342D01*
X138189956Y-64326756D01*
X138506460Y-64010252D01*
X138506460Y-64960500D01*
X138547100Y-65176483D01*
X138547100Y-65488587D01*
X137704844Y-66330844D01*
X137529258Y-66593626D01*
X137467600Y-66903600D01*
X137467600Y-70180200D01*
X137529258Y-70490174D01*
X137673365Y-70705845D01*
X137704844Y-70752956D01*
X138543044Y-71591157D01*
X138805827Y-71766743D01*
X138943697Y-71794166D01*
X139115800Y-71828400D01*
X143357600Y-71828400D01*
X143667574Y-71766742D01*
X143930356Y-71591156D01*
X144259633Y-71261879D01*
X144653481Y-71262223D01*
X145125943Y-71067005D01*
X145487735Y-70705845D01*
X145683777Y-70233724D01*
X145684223Y-69722519D01*
X145489005Y-69250057D01*
X145127845Y-68888265D01*
X144655724Y-68692223D01*
X144144519Y-68691777D01*
X143672057Y-68886995D01*
X143310265Y-69248155D01*
X143114223Y-69720276D01*
X143113877Y-70116611D01*
X143022088Y-70208400D01*
X139451313Y-70208400D01*
X139190081Y-69947169D01*
X139255500Y-69881750D01*
X139255500Y-69746433D01*
X139263273Y-69765199D01*
X139441902Y-69943827D01*
X139576550Y-69999600D01*
X139617450Y-70040500D01*
X139744450Y-70040500D01*
X139785350Y-69999600D01*
X139919998Y-69943827D01*
X140011150Y-69852676D01*
X140102302Y-69943827D01*
X140215270Y-69990620D01*
X140265150Y-70040500D01*
X140334309Y-70040500D01*
X140335000Y-70040214D01*
X140335691Y-70040500D01*
X140404850Y-70040500D01*
X140454730Y-69990620D01*
X140567698Y-69943827D01*
X140658850Y-69852676D01*
X140750002Y-69943827D01*
X140884650Y-69999600D01*
X140925550Y-70040500D01*
X141052550Y-70040500D01*
X141093450Y-69999600D01*
X141228098Y-69943827D01*
X141406727Y-69765199D01*
X141414500Y-69746433D01*
X141414500Y-69881750D01*
X141573250Y-70040500D01*
X141642409Y-70040500D01*
X141875798Y-69943827D01*
X142054427Y-69765199D01*
X142151100Y-69531810D01*
X142151100Y-69056250D01*
X141992350Y-68897500D01*
X141414500Y-68897500D01*
X141414500Y-68967350D01*
X141344650Y-68897500D01*
X139325350Y-68897500D01*
X139255500Y-68967350D01*
X139255500Y-68897500D01*
X139210100Y-68897500D01*
X139210100Y-68643500D01*
X139255500Y-68643500D01*
X139255500Y-68573650D01*
X139325350Y-68643500D01*
X141344650Y-68643500D01*
X141414500Y-68573650D01*
X141414500Y-68643500D01*
X141992350Y-68643500D01*
X142151100Y-68484750D01*
X142151100Y-68009190D01*
X142054427Y-67775801D01*
X141875798Y-67597173D01*
X141642409Y-67500500D01*
X141573250Y-67500500D01*
X141414500Y-67659250D01*
X141414500Y-67794567D01*
X141406727Y-67775801D01*
X141228098Y-67597173D01*
X141093450Y-67541400D01*
X141052550Y-67500500D01*
X140925550Y-67500500D01*
X140884650Y-67541400D01*
X140750002Y-67597173D01*
X140658850Y-67688324D01*
X140567698Y-67597173D01*
X140454730Y-67550380D01*
X140404850Y-67500500D01*
X140335691Y-67500500D01*
X140335000Y-67500786D01*
X140334309Y-67500500D01*
X140265150Y-67500500D01*
X140215270Y-67550380D01*
X140102302Y-67597173D01*
X140011150Y-67688324D01*
X139919998Y-67597173D01*
X139785350Y-67541400D01*
X139744450Y-67500500D01*
X139617450Y-67500500D01*
X139576550Y-67541400D01*
X139441902Y-67597173D01*
X139263273Y-67775801D01*
X139255500Y-67794567D01*
X139255500Y-67659250D01*
X139096750Y-67500500D01*
X139087600Y-67500500D01*
X139087600Y-67239112D01*
X139929857Y-66396856D01*
X140105443Y-66134073D01*
X140167100Y-65824100D01*
X140167100Y-65527544D01*
X140210110Y-65556931D01*
X140230763Y-65561113D01*
X140265150Y-65595500D01*
X140334309Y-65595500D01*
X140356066Y-65586488D01*
X140462000Y-65607940D01*
X140868400Y-65607940D01*
X140993479Y-65584405D01*
X141109700Y-65607940D01*
X141516100Y-65607940D01*
X141751417Y-65563662D01*
X141967541Y-65424590D01*
X142112531Y-65212390D01*
X142163540Y-64960500D01*
X142163540Y-63690500D01*
X142125766Y-63489747D01*
X142507956Y-63107557D01*
X142507958Y-63107554D01*
X142965156Y-62650357D01*
X143085438Y-62470342D01*
X143140742Y-62387574D01*
X143202400Y-62077600D01*
X143202400Y-59766164D01*
X143296177Y-59540324D01*
X143296623Y-59029119D01*
X143101405Y-58556657D01*
X142740245Y-58194865D01*
X142268124Y-57998823D01*
X141756919Y-57998377D01*
X141284457Y-58193595D01*
X140922665Y-58554755D01*
X140726623Y-59026876D01*
X140726177Y-59538081D01*
X140742861Y-59578460D01*
X140344657Y-59742995D01*
X139982865Y-60104155D01*
X139786823Y-60576276D01*
X139786377Y-61087481D01*
X139855200Y-61254045D01*
X139855200Y-63123456D01*
X139812190Y-63094069D01*
X139775612Y-63086662D01*
X139744450Y-63055500D01*
X139675291Y-63055500D01*
X139657704Y-63062785D01*
X139560300Y-63043060D01*
X139473653Y-63043060D01*
X139510756Y-63005957D01*
X139613061Y-62852846D01*
X139686342Y-62743174D01*
X139748000Y-62433200D01*
X139748000Y-59339712D01*
X143302962Y-55784750D01*
X147336510Y-55784750D01*
X147336510Y-56624799D01*
X147433183Y-56858188D01*
X147611811Y-57036817D01*
X147845200Y-57133490D01*
X148685250Y-57133490D01*
X148844000Y-56974740D01*
X148844000Y-55626000D01*
X149098000Y-55626000D01*
X149098000Y-56974740D01*
X149256750Y-57133490D01*
X150096800Y-57133490D01*
X150330189Y-57036817D01*
X150508817Y-56858188D01*
X150605490Y-56624799D01*
X150605490Y-55784750D01*
X150446740Y-55626000D01*
X149098000Y-55626000D01*
X148844000Y-55626000D01*
X147495260Y-55626000D01*
X147336510Y-55784750D01*
X143302962Y-55784750D01*
X144590757Y-54496956D01*
X144747083Y-54262997D01*
X144766342Y-54234174D01*
X144828000Y-53924200D01*
X144828000Y-51476760D01*
X145182935Y-51122445D01*
X145378977Y-50650324D01*
X145379423Y-50139119D01*
X145184205Y-49666657D01*
X144823045Y-49304865D01*
X144350924Y-49108823D01*
X143839719Y-49108377D01*
X143367257Y-49303595D01*
X143005465Y-49664755D01*
X142809423Y-50136876D01*
X142808977Y-50648081D01*
X143004195Y-51120543D01*
X143208000Y-51324705D01*
X143208000Y-53588687D01*
X138365244Y-58431444D01*
X138189658Y-58694226D01*
X138128000Y-59004200D01*
X138128000Y-60961607D01*
X137721524Y-60792823D01*
X137325189Y-60792477D01*
X137097756Y-60565044D01*
X137034873Y-60523027D01*
X136834974Y-60389458D01*
X136525000Y-60327800D01*
X128271387Y-60327800D01*
X128016000Y-60277000D01*
X126309183Y-60277000D01*
X124133426Y-58101244D01*
X124062387Y-58053777D01*
X123870644Y-57925658D01*
X123560670Y-57864000D01*
X106632854Y-57864000D01*
X106644943Y-57859005D01*
X106933855Y-57570597D01*
X106939810Y-57579851D01*
X107152010Y-57724841D01*
X107403900Y-57775850D01*
X109004100Y-57775850D01*
X109239417Y-57731572D01*
X109455541Y-57592500D01*
X109600531Y-57380300D01*
X109651540Y-57128410D01*
X109651540Y-56463820D01*
X113614460Y-56463820D01*
X113614460Y-57128410D01*
X113658738Y-57363727D01*
X113797810Y-57579851D01*
X114010010Y-57724841D01*
X114261900Y-57775850D01*
X115862100Y-57775850D01*
X116097417Y-57731572D01*
X116313541Y-57592500D01*
X116458531Y-57380300D01*
X116509540Y-57128410D01*
X116509540Y-56463820D01*
X120472460Y-56463820D01*
X120472460Y-57128410D01*
X120516738Y-57363727D01*
X120655810Y-57579851D01*
X120868010Y-57724841D01*
X121119900Y-57775850D01*
X122720100Y-57775850D01*
X122955417Y-57731572D01*
X123171541Y-57592500D01*
X123316531Y-57380300D01*
X123367540Y-57128410D01*
X123367540Y-56463820D01*
X127330460Y-56463820D01*
X127330460Y-57128410D01*
X127374738Y-57363727D01*
X127513810Y-57579851D01*
X127726010Y-57724841D01*
X127977900Y-57775850D01*
X129578100Y-57775850D01*
X129813417Y-57731572D01*
X130029541Y-57592500D01*
X130174531Y-57380300D01*
X130225540Y-57128410D01*
X130225540Y-56463820D01*
X134188460Y-56463820D01*
X134188460Y-57128410D01*
X134232738Y-57363727D01*
X134371810Y-57579851D01*
X134584010Y-57724841D01*
X134835900Y-57775850D01*
X136436100Y-57775850D01*
X136671417Y-57731572D01*
X136887541Y-57592500D01*
X137032531Y-57380300D01*
X137083540Y-57128410D01*
X137083540Y-53529230D01*
X137039262Y-53293913D01*
X136900190Y-53077789D01*
X136687990Y-52932799D01*
X136436100Y-52881790D01*
X134835900Y-52881790D01*
X134600583Y-52926068D01*
X134384459Y-53065140D01*
X134239469Y-53277340D01*
X134188460Y-53529230D01*
X134188460Y-54193820D01*
X130225540Y-54193820D01*
X130225540Y-53529230D01*
X130181262Y-53293913D01*
X130042190Y-53077789D01*
X129829990Y-52932799D01*
X129578100Y-52881790D01*
X127977900Y-52881790D01*
X127742583Y-52926068D01*
X127526459Y-53065140D01*
X127381469Y-53277340D01*
X127330460Y-53529230D01*
X127330460Y-54193820D01*
X123367540Y-54193820D01*
X123367540Y-53529230D01*
X123323262Y-53293913D01*
X123184190Y-53077789D01*
X122971990Y-52932799D01*
X122720100Y-52881790D01*
X121119900Y-52881790D01*
X120884583Y-52926068D01*
X120668459Y-53065140D01*
X120523469Y-53277340D01*
X120472460Y-53529230D01*
X120472460Y-54193820D01*
X116509540Y-54193820D01*
X116509540Y-53529230D01*
X116465262Y-53293913D01*
X116326190Y-53077789D01*
X116113990Y-52932799D01*
X115862100Y-52881790D01*
X114261900Y-52881790D01*
X114026583Y-52926068D01*
X113810459Y-53065140D01*
X113665469Y-53277340D01*
X113614460Y-53529230D01*
X113614460Y-54193820D01*
X109651540Y-54193820D01*
X109651540Y-53529230D01*
X109607262Y-53293913D01*
X109468190Y-53077789D01*
X109255990Y-52932799D01*
X109004100Y-52881790D01*
X107403900Y-52881790D01*
X107168583Y-52926068D01*
X106977901Y-53048769D01*
X106677386Y-52748254D01*
X106592211Y-52691342D01*
X106309166Y-52502217D01*
X105874820Y-52415820D01*
X102793540Y-52415820D01*
X102793540Y-51751230D01*
X102749262Y-51515913D01*
X102610190Y-51299789D01*
X102397990Y-51154799D01*
X102146100Y-51103790D01*
X100545900Y-51103790D01*
X100310583Y-51148068D01*
X100094459Y-51287140D01*
X99949469Y-51499340D01*
X99898460Y-51751230D01*
X99898460Y-52415820D01*
X99230180Y-52415820D01*
X98795834Y-52502217D01*
X98512789Y-52691342D01*
X98427614Y-52748254D01*
X96982048Y-54193820D01*
X95935540Y-54193820D01*
X95935540Y-53529230D01*
X95891262Y-53293913D01*
X95752190Y-53077789D01*
X95539990Y-52932799D01*
X95288100Y-52881790D01*
X93687900Y-52881790D01*
X93452583Y-52926068D01*
X93236459Y-53065140D01*
X93091469Y-53277340D01*
X93040460Y-53529230D01*
X93040460Y-53843328D01*
X92956000Y-53758868D01*
X92956000Y-50112930D01*
X93052900Y-50112930D01*
X93052900Y-51753079D01*
X93149573Y-51986468D01*
X93328201Y-52165097D01*
X93561590Y-52261770D01*
X94202250Y-52261770D01*
X94361000Y-52103020D01*
X94361000Y-49954180D01*
X94615000Y-49954180D01*
X94615000Y-52103020D01*
X94773750Y-52261770D01*
X95414410Y-52261770D01*
X95647799Y-52165097D01*
X95826427Y-51986468D01*
X95923100Y-51753079D01*
X95923100Y-50112930D01*
X95764350Y-49954180D01*
X94615000Y-49954180D01*
X94361000Y-49954180D01*
X93211650Y-49954180D01*
X93052900Y-50112930D01*
X92956000Y-50112930D01*
X92956000Y-47092182D01*
X93029621Y-46982000D01*
X93152379Y-46982000D01*
X93275591Y-47166400D01*
X93614109Y-47392590D01*
X93561590Y-47392590D01*
X93328201Y-47489263D01*
X93149573Y-47667892D01*
X93052900Y-47901281D01*
X93052900Y-49541430D01*
X93211650Y-49700180D01*
X94361000Y-49700180D01*
X94361000Y-49680180D01*
X94615000Y-49680180D01*
X94615000Y-49700180D01*
X95764350Y-49700180D01*
X95923100Y-49541430D01*
X95923100Y-48334930D01*
X99910900Y-48334930D01*
X99910900Y-49975079D01*
X100007573Y-50208468D01*
X100186201Y-50387097D01*
X100419590Y-50483770D01*
X101060250Y-50483770D01*
X101219000Y-50325020D01*
X101219000Y-48176180D01*
X101473000Y-48176180D01*
X101473000Y-50325020D01*
X101631750Y-50483770D01*
X102272410Y-50483770D01*
X102505799Y-50387097D01*
X102684427Y-50208468D01*
X102724000Y-50112930D01*
X106768900Y-50112930D01*
X106768900Y-51753079D01*
X106865573Y-51986468D01*
X107044201Y-52165097D01*
X107277590Y-52261770D01*
X107918250Y-52261770D01*
X108077000Y-52103020D01*
X108077000Y-49954180D01*
X108331000Y-49954180D01*
X108331000Y-52103020D01*
X108489750Y-52261770D01*
X109130410Y-52261770D01*
X109363799Y-52165097D01*
X109542427Y-51986468D01*
X109639100Y-51753079D01*
X109639100Y-50112930D01*
X113626900Y-50112930D01*
X113626900Y-51753079D01*
X113723573Y-51986468D01*
X113902201Y-52165097D01*
X114135590Y-52261770D01*
X114776250Y-52261770D01*
X114935000Y-52103020D01*
X114935000Y-49954180D01*
X115189000Y-49954180D01*
X115189000Y-52103020D01*
X115347750Y-52261770D01*
X115988410Y-52261770D01*
X116221799Y-52165097D01*
X116400427Y-51986468D01*
X116497100Y-51753079D01*
X116497100Y-50112930D01*
X120484900Y-50112930D01*
X120484900Y-51753079D01*
X120581573Y-51986468D01*
X120760201Y-52165097D01*
X120993590Y-52261770D01*
X121634250Y-52261770D01*
X121793000Y-52103020D01*
X121793000Y-49954180D01*
X122047000Y-49954180D01*
X122047000Y-52103020D01*
X122205750Y-52261770D01*
X122846410Y-52261770D01*
X123079799Y-52165097D01*
X123258427Y-51986468D01*
X123355100Y-51753079D01*
X123355100Y-50112930D01*
X127342900Y-50112930D01*
X127342900Y-51753079D01*
X127439573Y-51986468D01*
X127618201Y-52165097D01*
X127851590Y-52261770D01*
X128492250Y-52261770D01*
X128651000Y-52103020D01*
X128651000Y-49954180D01*
X128905000Y-49954180D01*
X128905000Y-52103020D01*
X129063750Y-52261770D01*
X129704410Y-52261770D01*
X129937799Y-52165097D01*
X130116427Y-51986468D01*
X130213100Y-51753079D01*
X130213100Y-50112930D01*
X134200900Y-50112930D01*
X134200900Y-51753079D01*
X134297573Y-51986468D01*
X134476201Y-52165097D01*
X134709590Y-52261770D01*
X135350250Y-52261770D01*
X135509000Y-52103020D01*
X135509000Y-49954180D01*
X135763000Y-49954180D01*
X135763000Y-52103020D01*
X135921750Y-52261770D01*
X136562410Y-52261770D01*
X136795799Y-52165097D01*
X136974427Y-51986468D01*
X137071100Y-51753079D01*
X137071100Y-50112930D01*
X136912350Y-49954180D01*
X135763000Y-49954180D01*
X135509000Y-49954180D01*
X134359650Y-49954180D01*
X134200900Y-50112930D01*
X130213100Y-50112930D01*
X130054350Y-49954180D01*
X128905000Y-49954180D01*
X128651000Y-49954180D01*
X127501650Y-49954180D01*
X127342900Y-50112930D01*
X123355100Y-50112930D01*
X123196350Y-49954180D01*
X122047000Y-49954180D01*
X121793000Y-49954180D01*
X120643650Y-49954180D01*
X120484900Y-50112930D01*
X116497100Y-50112930D01*
X116338350Y-49954180D01*
X115189000Y-49954180D01*
X114935000Y-49954180D01*
X113785650Y-49954180D01*
X113626900Y-50112930D01*
X109639100Y-50112930D01*
X109480350Y-49954180D01*
X108331000Y-49954180D01*
X108077000Y-49954180D01*
X106927650Y-49954180D01*
X106768900Y-50112930D01*
X102724000Y-50112930D01*
X102781100Y-49975079D01*
X102781100Y-48334930D01*
X102622350Y-48176180D01*
X101473000Y-48176180D01*
X101219000Y-48176180D01*
X100069650Y-48176180D01*
X99910900Y-48334930D01*
X95923100Y-48334930D01*
X95923100Y-47901281D01*
X95826427Y-47667892D01*
X95647799Y-47489263D01*
X95414410Y-47392590D01*
X95107891Y-47392590D01*
X95446409Y-47166400D01*
X95633651Y-46886172D01*
X95937921Y-47248369D01*
X96470975Y-47525475D01*
X96536260Y-47538036D01*
X96774000Y-47417378D01*
X96774000Y-45974000D01*
X97028000Y-45974000D01*
X97028000Y-47417378D01*
X97265740Y-47538036D01*
X97331025Y-47525475D01*
X97864079Y-47248369D01*
X98250513Y-46788366D01*
X98431496Y-46215497D01*
X98373748Y-46123281D01*
X99910900Y-46123281D01*
X99910900Y-47763430D01*
X100069650Y-47922180D01*
X101219000Y-47922180D01*
X101219000Y-45773340D01*
X101473000Y-45773340D01*
X101473000Y-47922180D01*
X102622350Y-47922180D01*
X102781100Y-47763430D01*
X102781100Y-46123281D01*
X102684427Y-45889892D01*
X102505799Y-45711263D01*
X102272410Y-45614590D01*
X101631750Y-45614590D01*
X101473000Y-45773340D01*
X101219000Y-45773340D01*
X101060250Y-45614590D01*
X100419590Y-45614590D01*
X100186201Y-45711263D01*
X100007573Y-45889892D01*
X99910900Y-46123281D01*
X98373748Y-46123281D01*
X98280262Y-45974000D01*
X97028000Y-45974000D01*
X96774000Y-45974000D01*
X96754000Y-45974000D01*
X96754000Y-45720000D01*
X96774000Y-45720000D01*
X96774000Y-43434000D01*
X97028000Y-43434000D01*
X97028000Y-45720000D01*
X98280262Y-45720000D01*
X98431496Y-45478503D01*
X98250513Y-44905634D01*
X97974438Y-44577000D01*
X98250513Y-44248366D01*
X98431496Y-43675497D01*
X98280262Y-43434000D01*
X106348000Y-43434000D01*
X106348000Y-43694000D01*
X106508878Y-44248791D01*
X106626374Y-44395601D01*
X106534673Y-44487301D01*
X106438000Y-44720690D01*
X106438000Y-45561250D01*
X106596750Y-45720000D01*
X107696000Y-45720000D01*
X107696000Y-43434000D01*
X106348000Y-43434000D01*
X98280262Y-43434000D01*
X97028000Y-43434000D01*
X96774000Y-43434000D01*
X96754000Y-43434000D01*
X96754000Y-43180000D01*
X96774000Y-43180000D01*
X96774000Y-43160000D01*
X97028000Y-43160000D01*
X97028000Y-43180000D01*
X98280262Y-43180000D01*
X98431496Y-42938503D01*
X98250513Y-42365634D01*
X98101456Y-42188200D01*
X106650543Y-42188200D01*
X106508878Y-42365209D01*
X106348000Y-42920000D01*
X106348000Y-43180000D01*
X107696000Y-43180000D01*
X107696000Y-43160000D01*
X107950000Y-43160000D01*
X107950000Y-43180000D01*
X107970000Y-43180000D01*
X107970000Y-43434000D01*
X107950000Y-43434000D01*
X107950000Y-45720000D01*
X107970000Y-45720000D01*
X107970000Y-45974000D01*
X107950000Y-45974000D01*
X107950000Y-45994000D01*
X107696000Y-45994000D01*
X107696000Y-45974000D01*
X106596750Y-45974000D01*
X106438000Y-46132750D01*
X106438000Y-46973310D01*
X106534673Y-47206699D01*
X106713302Y-47385327D01*
X106946691Y-47482000D01*
X107061735Y-47482000D01*
X107044201Y-47489263D01*
X106865573Y-47667892D01*
X106768900Y-47901281D01*
X106768900Y-49541430D01*
X106927650Y-49700180D01*
X108077000Y-49700180D01*
X108077000Y-49680180D01*
X108331000Y-49680180D01*
X108331000Y-49700180D01*
X109480350Y-49700180D01*
X109639100Y-49541430D01*
X109639100Y-47901281D01*
X109542427Y-47667892D01*
X109363799Y-47489263D01*
X109130410Y-47392590D01*
X108915164Y-47392590D01*
X108932698Y-47385327D01*
X109111327Y-47206699D01*
X109197000Y-46999866D01*
X109320017Y-47183974D01*
X109798542Y-47503713D01*
X110363000Y-47615991D01*
X110927458Y-47503713D01*
X111405983Y-47183974D01*
X111633000Y-46844218D01*
X111860017Y-47183974D01*
X112338542Y-47503713D01*
X112903000Y-47615991D01*
X113467458Y-47503713D01*
X113945983Y-47183974D01*
X114173000Y-46844218D01*
X114400017Y-47183974D01*
X114712234Y-47392590D01*
X114135590Y-47392590D01*
X113902201Y-47489263D01*
X113723573Y-47667892D01*
X113626900Y-47901281D01*
X113626900Y-49541430D01*
X113785650Y-49700180D01*
X114935000Y-49700180D01*
X114935000Y-49680180D01*
X115189000Y-49680180D01*
X115189000Y-49700180D01*
X116338350Y-49700180D01*
X116497100Y-49541430D01*
X116497100Y-47901281D01*
X116400427Y-47667892D01*
X116221799Y-47489263D01*
X116102833Y-47439986D01*
X116485983Y-47183974D01*
X116713000Y-46844218D01*
X116940017Y-47183974D01*
X117418542Y-47503713D01*
X117983000Y-47615991D01*
X118547458Y-47503713D01*
X119025983Y-47183974D01*
X119253000Y-46844218D01*
X119480017Y-47183974D01*
X119958542Y-47503713D01*
X120523000Y-47615991D01*
X120660905Y-47588560D01*
X120581573Y-47667892D01*
X120484900Y-47901281D01*
X120484900Y-49541430D01*
X120643650Y-49700180D01*
X121793000Y-49700180D01*
X121793000Y-47551340D01*
X121634250Y-47392590D01*
X121253766Y-47392590D01*
X121565983Y-47183974D01*
X121793000Y-46844218D01*
X122020017Y-47183974D01*
X122332234Y-47392590D01*
X122205750Y-47392590D01*
X122047000Y-47551340D01*
X122047000Y-49700180D01*
X123196350Y-49700180D01*
X123355100Y-49541430D01*
X123355100Y-47901281D01*
X123258427Y-47667892D01*
X123182714Y-47592178D01*
X123627458Y-47503713D01*
X124105983Y-47183974D01*
X124333000Y-46844218D01*
X124560017Y-47183974D01*
X125038542Y-47503713D01*
X125603000Y-47615991D01*
X126167458Y-47503713D01*
X126645983Y-47183974D01*
X126873000Y-46844218D01*
X127100017Y-47183974D01*
X127578542Y-47503713D01*
X127599569Y-47507895D01*
X127439573Y-47667892D01*
X127342900Y-47901281D01*
X127342900Y-49541430D01*
X127501650Y-49700180D01*
X128651000Y-49700180D01*
X128651000Y-49680180D01*
X128905000Y-49680180D01*
X128905000Y-49700180D01*
X130054350Y-49700180D01*
X130213100Y-49541430D01*
X130213100Y-47901281D01*
X130116427Y-47667892D01*
X129937799Y-47489263D01*
X129704410Y-47392590D01*
X129063750Y-47392590D01*
X128905002Y-47551338D01*
X128905002Y-47392590D01*
X128873766Y-47392590D01*
X129185983Y-47183974D01*
X129413000Y-46844218D01*
X129640017Y-47183974D01*
X130118542Y-47503713D01*
X130683000Y-47615991D01*
X131247458Y-47503713D01*
X131725983Y-47183974D01*
X131953000Y-46844218D01*
X132180017Y-47183974D01*
X132658542Y-47503713D01*
X133223000Y-47615991D01*
X133787458Y-47503713D01*
X134265983Y-47183974D01*
X134493000Y-46844218D01*
X134720017Y-47183974D01*
X135032234Y-47392590D01*
X134709590Y-47392590D01*
X134476201Y-47489263D01*
X134297573Y-47667892D01*
X134200900Y-47901281D01*
X134200900Y-49541430D01*
X134359650Y-49700180D01*
X135509000Y-49700180D01*
X135509000Y-49680180D01*
X135763000Y-49680180D01*
X135763000Y-49700180D01*
X136912350Y-49700180D01*
X137071100Y-49541430D01*
X137071100Y-48202694D01*
X147336226Y-48202694D01*
X147584538Y-48803655D01*
X147929480Y-49149199D01*
X147586154Y-49491927D01*
X147336794Y-50092453D01*
X147336226Y-50742694D01*
X147584538Y-51343655D01*
X147929480Y-51689199D01*
X147586154Y-52031927D01*
X147336794Y-52632453D01*
X147336226Y-53282694D01*
X147584538Y-53883655D01*
X147647269Y-53946496D01*
X147611811Y-53961183D01*
X147433183Y-54139812D01*
X147336510Y-54373201D01*
X147336510Y-55213250D01*
X147495260Y-55372000D01*
X148844000Y-55372000D01*
X148844000Y-55352000D01*
X149098000Y-55352000D01*
X149098000Y-55372000D01*
X150446740Y-55372000D01*
X150605490Y-55213250D01*
X150605490Y-54373201D01*
X150508817Y-54139812D01*
X150330189Y-53961183D01*
X150295146Y-53946668D01*
X150355846Y-53886073D01*
X150605206Y-53285547D01*
X150605774Y-52635306D01*
X150357462Y-52034345D01*
X150012520Y-51688801D01*
X150355846Y-51346073D01*
X150605206Y-50745547D01*
X150605774Y-50095306D01*
X150357462Y-49494345D01*
X150012520Y-49148801D01*
X150355846Y-48806073D01*
X150605206Y-48205547D01*
X150605774Y-47555306D01*
X150357462Y-46954345D01*
X149898073Y-46494154D01*
X149297547Y-46244794D01*
X148647306Y-46244226D01*
X148046345Y-46492538D01*
X147586154Y-46951927D01*
X147336794Y-47552453D01*
X147336226Y-48202694D01*
X137071100Y-48202694D01*
X137071100Y-47901281D01*
X136974427Y-47667892D01*
X136795799Y-47489263D01*
X136562410Y-47392590D01*
X136493766Y-47392590D01*
X136805983Y-47183974D01*
X137033108Y-46844056D01*
X137349820Y-47239785D01*
X137855875Y-47518323D01*
X137947680Y-47538563D01*
X138176000Y-47417109D01*
X138176000Y-45974000D01*
X138430000Y-45974000D01*
X138430000Y-47417109D01*
X138658320Y-47538563D01*
X138750125Y-47518323D01*
X139256180Y-47239785D01*
X139617122Y-46788791D01*
X139778000Y-46234000D01*
X139778000Y-45974000D01*
X138430000Y-45974000D01*
X138176000Y-45974000D01*
X138156000Y-45974000D01*
X138156000Y-45720000D01*
X138176000Y-45720000D01*
X138176000Y-43434000D01*
X138430000Y-43434000D01*
X138430000Y-45720000D01*
X139778000Y-45720000D01*
X139778000Y-45460000D01*
X139617122Y-44905209D01*
X139354448Y-44577000D01*
X139617122Y-44248791D01*
X139778000Y-43694000D01*
X139778000Y-43434000D01*
X138430000Y-43434000D01*
X138176000Y-43434000D01*
X138156000Y-43434000D01*
X138156000Y-43180000D01*
X138176000Y-43180000D01*
X138176000Y-43160000D01*
X138430000Y-43160000D01*
X138430000Y-43180000D01*
X139778000Y-43180000D01*
X139778000Y-42920000D01*
X139617122Y-42365209D01*
X139475457Y-42188200D01*
X142722600Y-42188200D01*
X142994305Y-42134154D01*
X143159077Y-42024057D01*
X143472551Y-42782723D01*
M02*
