M48
;DRILL file {KiCad 5.0.2+dfsg1-1~bpo9+1} date mer. 22 janv. 2020 15:14:49 CET
;FORMAT={-:-/ absolute / inch / decimal}
FMAT,2
INCH,TZ
T1C0.0157
T2C0.0236
T3C0.0295
T4C0.0472
T5C0.0551
T6C0.1575
%
G90
G05
T1
X6.9225Y-3.33
X6.94Y-2.81
X6.995Y-3.26
X7.Y-2.23
X7.0945Y-2.868
X7.0945Y-2.9316
X7.097Y-2.9966
X7.097Y-3.0641
X7.097Y-3.128
X7.097Y-3.1941
X7.1025Y-2.4875
X7.1096Y-2.5379
X7.11Y-2.195
X7.11Y-2.68
X7.11Y-2.7475
X7.1125Y-2.62
X7.1675Y-3.2725
X7.2425Y-3.3919
X7.292Y-2.9541
X7.3025Y-3.3975
X7.3059Y-2.1891
X7.325Y-2.135
X7.3375Y-3.225
X7.3407Y-3.1432
X7.3425Y-2.7
X7.355Y-2.6275
X7.367Y-3.1766
X7.3705Y-2.3238
X7.378Y-2.67
X7.3953Y-2.7799
X7.4Y-3.43
X7.4087Y-3.1939
X7.4125Y-3.3525
X7.4295Y-2.358
X7.4311Y-2.7636
X7.4355Y-3.0075
X7.45Y-1.3
X7.45Y-1.4
X7.45Y-1.5
X7.46Y-2.7125
X7.46Y-3.6325
X7.49Y-2.36
X7.5Y-1.35
X7.5175Y-2.2725
X7.5345Y-2.9348
X7.55Y-1.3
X7.55Y-1.4171
X7.55Y-1.5
X7.5545Y-3.0318
X7.5595Y-2.47
X7.5675Y-2.41
X7.5686Y-2.5696
X7.57Y-2.13
X7.5739Y-2.6133
X7.5775Y-2.3675
X7.5775Y-2.3675
X7.5903Y-2.4455
X7.6Y-1.35
X7.6013Y-2.9813
X7.6169Y-2.5708
X7.625Y-2.2875
X7.625Y-2.3575
X7.65Y-1.3
X7.65Y-1.4
X7.65Y-1.5
X7.6575Y-2.7125
X7.6825Y-2.51
X7.69Y-3.145
X7.6904Y-2.5888
X7.735Y-3.2575
X7.7375Y-2.7225
X7.765Y-2.4925
X7.798Y-2.7154
X7.81Y-2.125
X7.8725Y-2.5725
X7.8925Y-2.955
X7.8965Y-2.7578
X7.9425Y-3.67
X7.9475Y-2.37
X7.9705Y-2.9515
X7.972Y-2.7379
X8.05Y-1.3
X8.05Y-1.4
X8.05Y-1.5
X8.0556Y-2.4525
X8.0676Y-2.725
X8.1Y-1.35
X8.105Y-3.2575
X8.135Y-2.19
X8.135Y-2.24
X8.15Y-1.3
X8.15Y-1.4171
X8.15Y-1.5
X8.2Y-1.35
X8.25Y-1.3
X8.25Y-1.4
X8.25Y-1.5
X8.255Y-2.8234
X8.295Y-3.22
X8.3025Y-3.135
X8.31Y-2.4525
X8.3305Y-2.9025
X8.36Y-3.3125
X8.4Y-2.935
X8.4031Y-2.5994
X8.485Y-2.035
X8.53Y-1.8944
X8.585Y-2.7375
T2
X7.28Y-1.37
X7.29Y-1.86
X7.36Y-0.91
X7.43Y-2.13
X7.725Y-1.9244
X7.76Y-3.48
X7.85Y-1.16
X7.85Y-2.24
X7.86Y-1.86
X8.1115Y-2.1359
X8.14Y-2.3
X8.325Y-1.925
X8.33Y-0.91
X8.42Y-2.2951
X8.43Y-1.34
X8.47Y-2.11
X8.48Y-2.23
X8.53Y-1.8944
X8.55Y-1.2644
T3
X8.59Y-2.83
X8.6687Y-2.83
X8.7475Y-2.83
X8.59Y-3.285
X8.6687Y-3.285
X8.7475Y-3.285
X8.59Y-2.15
X8.6687Y-2.15
X8.7475Y-2.15
X8.59Y-2.6
X8.6687Y-2.6
X8.7475Y-2.6
X8.59Y-2.375
X8.6687Y-2.375
X8.7475Y-2.375
X8.59Y-3.06
X8.6687Y-3.06
X8.7475Y-3.06
T4
X7.045Y-1.35
X7.045Y-1.5
X7.045Y-1.65
X7.97Y-3.515
X8.07Y-3.515
X8.17Y-3.515
X8.27Y-3.515
T5
X7.75Y-0.9
X7.95Y-0.9
T6
X6.985Y-3.6025
X6.9875Y-0.8775
X8.78Y-0.8775
X8.78Y-3.6
T0
M30
