%FSLAX45Y45*%
G04 Gerber Fmt 4.5, Leading zero omitted, Abs format (unit mm)*
G04 Created by KiCad (PCBNEW 5.0.2+dfsg1-1~bpo9+1) date mer. 22 janv. 2020 15:14:50 CET*
%MOMM*%
%LPD*%
G01*
G04 APERTURE LIST*
%ADD10C,0.150000*%
%ADD11C,0.200000*%
%ADD12C,0.300000*%
G04 APERTURE END LIST*
D10*
X17259300Y-1752600D02*
X17272000Y-1752600D01*
X17259300Y-9626600D02*
X17259300Y-1752600D01*
X22771100Y-9626600D02*
X17259300Y-9626600D01*
X22771100Y-1752600D02*
X22771100Y-9626600D01*
X17272000Y-1752600D02*
X22771100Y-1752600D01*
D11*
D12*
X17538228Y-10099814D02*
X17538228Y-9799814D01*
X17609657Y-9799814D01*
X17652514Y-9814100D01*
X17681086Y-9842672D01*
X17695371Y-9871243D01*
X17709657Y-9928386D01*
X17709657Y-9971243D01*
X17695371Y-10028386D01*
X17681086Y-10056957D01*
X17652514Y-10085529D01*
X17609657Y-10099814D01*
X17538228Y-10099814D01*
X17838228Y-10099814D02*
X17838228Y-9899814D01*
X17838228Y-9956957D02*
X17852514Y-9928386D01*
X17866800Y-9914100D01*
X17895371Y-9899814D01*
X17923943Y-9899814D01*
X18023943Y-10099814D02*
X18023943Y-9899814D01*
X18023943Y-9799814D02*
X18009657Y-9814100D01*
X18023943Y-9828386D01*
X18038228Y-9814100D01*
X18023943Y-9799814D01*
X18023943Y-9828386D01*
X18209657Y-10099814D02*
X18181086Y-10085529D01*
X18166800Y-10056957D01*
X18166800Y-9799814D01*
X18366800Y-10099814D02*
X18338228Y-10085529D01*
X18323943Y-10056957D01*
X18323943Y-9799814D01*
X18709657Y-10099814D02*
X18709657Y-9799814D01*
X18809657Y-10014100D01*
X18909657Y-9799814D01*
X18909657Y-10099814D01*
X19181086Y-10099814D02*
X19181086Y-9942672D01*
X19166800Y-9914100D01*
X19138228Y-9899814D01*
X19081086Y-9899814D01*
X19052514Y-9914100D01*
X19181086Y-10085529D02*
X19152514Y-10099814D01*
X19081086Y-10099814D01*
X19052514Y-10085529D01*
X19038228Y-10056957D01*
X19038228Y-10028386D01*
X19052514Y-9999814D01*
X19081086Y-9985529D01*
X19152514Y-9985529D01*
X19181086Y-9971243D01*
X19323943Y-9899814D02*
X19323943Y-10199814D01*
X19323943Y-9914100D02*
X19352514Y-9899814D01*
X19409657Y-9899814D01*
X19438228Y-9914100D01*
X19452514Y-9928386D01*
X19466800Y-9956957D01*
X19466800Y-10042672D01*
X19452514Y-10071243D01*
X19438228Y-10085529D01*
X19409657Y-10099814D01*
X19352514Y-10099814D01*
X19323943Y-10085529D01*
X19595371Y-10071243D02*
X19609657Y-10085529D01*
X19595371Y-10099814D01*
X19581086Y-10085529D01*
X19595371Y-10071243D01*
X19595371Y-10099814D01*
X19595371Y-9914100D02*
X19609657Y-9928386D01*
X19595371Y-9942672D01*
X19581086Y-9928386D01*
X19595371Y-9914100D01*
X19595371Y-9942672D01*
M02*
