G04 #@! TF.GenerationSoftware,KiCad,Pcbnew,5.0.2+dfsg1-1~bpo9+1*
G04 #@! TF.CreationDate,2020-01-22T15:14:46+01:00*
G04 #@! TF.ProjectId,MOTOR_BOARD_I2C,4d4f544f-525f-4424-9f41-52445f493243,rev?*
G04 #@! TF.SameCoordinates,Original*
G04 #@! TF.FileFunction,Legend,Bot*
G04 #@! TF.FilePolarity,Positive*
%FSLAX46Y46*%
G04 Gerber Fmt 4.6, Leading zero omitted, Abs format (unit mm)*
G04 Created by KiCad (PCBNEW 5.0.2+dfsg1-1~bpo9+1) date mer. 22 janv. 2020 15:14:46 CET*
%MOMM*%
%LPD*%
G01*
G04 APERTURE LIST*
%ADD10C,0.150000*%
%ADD11C,0.120000*%
G04 APERTURE END LIST*
D10*
G04 #@! TO.C,U502*
X202354500Y-77195500D02*
X202354500Y-78570500D01*
X193479500Y-77195500D02*
X193479500Y-73045500D01*
X202379500Y-77195500D02*
X202379500Y-73045500D01*
X193479500Y-77195500D02*
X193594500Y-77195500D01*
X193479500Y-73045500D02*
X193594500Y-73045500D01*
X202379500Y-73045500D02*
X202264500Y-73045500D01*
X202379500Y-77195500D02*
X202354500Y-77195500D01*
D11*
G04 #@! TO.C,R125*
X184706706Y-77228665D02*
X184706706Y-76903107D01*
X185726706Y-77228665D02*
X185726706Y-76903107D01*
G04 #@! TO.C,D501*
X209024000Y-72056500D02*
X204724000Y-72056500D01*
X209024000Y-70056500D02*
X209024000Y-72056500D01*
X204724000Y-70056500D02*
X209024000Y-70056500D01*
G04 #@! TO.C,R501*
X186607267Y-72388000D02*
X186264733Y-72388000D01*
X186607267Y-73408000D02*
X186264733Y-73408000D01*
D10*
G04 #@! TO.C,U501*
X202443000Y-66718000D02*
X202418000Y-66718000D01*
X202443000Y-62568000D02*
X202328000Y-62568000D01*
X193543000Y-62568000D02*
X193658000Y-62568000D01*
X193543000Y-66718000D02*
X193658000Y-66718000D01*
X202443000Y-66718000D02*
X202443000Y-62568000D01*
X193543000Y-66718000D02*
X193543000Y-62568000D01*
X202418000Y-66718000D02*
X202418000Y-68093000D01*
D11*
G04 #@! TO.C,D504*
X208988500Y-65960500D02*
X204688500Y-65960500D01*
X208988500Y-63960500D02*
X208988500Y-65960500D01*
X204688500Y-63960500D02*
X208988500Y-63960500D01*
G04 #@! TO.C,D503*
X208988500Y-68437000D02*
X204688500Y-68437000D01*
X208988500Y-66437000D02*
X208988500Y-68437000D01*
X204688500Y-66437000D02*
X208988500Y-66437000D01*
G04 #@! TO.C,D505*
X209052000Y-78724000D02*
X204752000Y-78724000D01*
X209052000Y-76724000D02*
X209052000Y-78724000D01*
X204752000Y-76724000D02*
X209052000Y-76724000D01*
G04 #@! TO.C,D506*
X209087500Y-81645000D02*
X204787500Y-81645000D01*
X209087500Y-79645000D02*
X209087500Y-81645000D01*
X204787500Y-79645000D02*
X209087500Y-79645000D01*
G04 #@! TO.C,D502*
X209024000Y-74850500D02*
X204724000Y-74850500D01*
X209024000Y-72850500D02*
X209024000Y-74850500D01*
X204724000Y-72850500D02*
X209024000Y-72850500D01*
G04 #@! TO.C,R117*
X185993500Y-88309267D02*
X185993500Y-87966733D01*
X184973500Y-88309267D02*
X184973500Y-87966733D01*
G04 #@! TO.C,R118*
X185993500Y-84499267D02*
X185993500Y-84156733D01*
X184973500Y-84499267D02*
X184973500Y-84156733D01*
G04 #@! TO.C,R119*
X184342500Y-88309267D02*
X184342500Y-87966733D01*
X183322500Y-88309267D02*
X183322500Y-87966733D01*
G04 #@! TO.C,R120*
X183322500Y-84499267D02*
X183322500Y-84156733D01*
X184342500Y-84499267D02*
X184342500Y-84156733D01*
G04 #@! TO.C,R121*
X210568000Y-92754267D02*
X210568000Y-92411733D01*
X209548000Y-92754267D02*
X209548000Y-92411733D01*
G04 #@! TO.C,R122*
X207008000Y-92754267D02*
X207008000Y-92411733D01*
X208028000Y-92754267D02*
X208028000Y-92411733D01*
D10*
G04 #@! TO.C,U102*
X183850000Y-59572000D02*
X183850000Y-60147000D01*
X178100000Y-59572000D02*
X178100000Y-60222000D01*
X178100000Y-70222000D02*
X178100000Y-69572000D01*
X183850000Y-70222000D02*
X183850000Y-69572000D01*
X183850000Y-59572000D02*
X178100000Y-59572000D01*
X183850000Y-70222000D02*
X178100000Y-70222000D01*
X183850000Y-60147000D02*
X185450000Y-60147000D01*
G04 #@! TO.C,U104*
X178299799Y-81886506D02*
X178299799Y-81661506D01*
X182949799Y-81886506D02*
X182949799Y-81561506D01*
X182949799Y-71936506D02*
X182949799Y-72261506D01*
X178299799Y-71936506D02*
X178299799Y-72261506D01*
X178299799Y-81886506D02*
X182949799Y-81886506D01*
X178299799Y-71936506D02*
X182949799Y-71936506D01*
X178299799Y-81661506D02*
X177224799Y-81661506D01*
G04 #@! TO.C,U502*
X202756880Y-73406214D02*
X203566404Y-73406214D01*
X203661642Y-73453833D01*
X203709261Y-73501452D01*
X203756880Y-73596690D01*
X203756880Y-73787166D01*
X203709261Y-73882404D01*
X203661642Y-73930023D01*
X203566404Y-73977642D01*
X202756880Y-73977642D01*
X202756880Y-74930023D02*
X202756880Y-74453833D01*
X203233071Y-74406214D01*
X203185452Y-74453833D01*
X203137833Y-74549071D01*
X203137833Y-74787166D01*
X203185452Y-74882404D01*
X203233071Y-74930023D01*
X203328309Y-74977642D01*
X203566404Y-74977642D01*
X203661642Y-74930023D01*
X203709261Y-74882404D01*
X203756880Y-74787166D01*
X203756880Y-74549071D01*
X203709261Y-74453833D01*
X203661642Y-74406214D01*
X202756880Y-75596690D02*
X202756880Y-75691928D01*
X202804500Y-75787166D01*
X202852119Y-75834785D01*
X202947357Y-75882404D01*
X203137833Y-75930023D01*
X203375928Y-75930023D01*
X203566404Y-75882404D01*
X203661642Y-75834785D01*
X203709261Y-75787166D01*
X203756880Y-75691928D01*
X203756880Y-75596690D01*
X203709261Y-75501452D01*
X203661642Y-75453833D01*
X203566404Y-75406214D01*
X203375928Y-75358595D01*
X203137833Y-75358595D01*
X202947357Y-75406214D01*
X202852119Y-75453833D01*
X202804500Y-75501452D01*
X202756880Y-75596690D01*
X202852119Y-76310976D02*
X202804500Y-76358595D01*
X202756880Y-76453833D01*
X202756880Y-76691928D01*
X202804500Y-76787166D01*
X202852119Y-76834785D01*
X202947357Y-76882404D01*
X203042595Y-76882404D01*
X203185452Y-76834785D01*
X203756880Y-76263357D01*
X203756880Y-76882404D01*
G04 #@! TO.C,R125*
X187099086Y-75946838D02*
X186622896Y-75613505D01*
X187099086Y-75375409D02*
X186099086Y-75375409D01*
X186099086Y-75756362D01*
X186146706Y-75851600D01*
X186194325Y-75899219D01*
X186289563Y-75946838D01*
X186432420Y-75946838D01*
X186527658Y-75899219D01*
X186575277Y-75851600D01*
X186622896Y-75756362D01*
X186622896Y-75375409D01*
X187099086Y-76899219D02*
X187099086Y-76327790D01*
X187099086Y-76613505D02*
X186099086Y-76613505D01*
X186241944Y-76518266D01*
X186337182Y-76423028D01*
X186384801Y-76327790D01*
X186194325Y-77280171D02*
X186146706Y-77327790D01*
X186099086Y-77423028D01*
X186099086Y-77661124D01*
X186146706Y-77756362D01*
X186194325Y-77803981D01*
X186289563Y-77851600D01*
X186384801Y-77851600D01*
X186527658Y-77803981D01*
X187099086Y-77232552D01*
X187099086Y-77851600D01*
X186099086Y-78756362D02*
X186099086Y-78280171D01*
X186575277Y-78232552D01*
X186527658Y-78280171D01*
X186480039Y-78375409D01*
X186480039Y-78613505D01*
X186527658Y-78708743D01*
X186575277Y-78756362D01*
X186670515Y-78803981D01*
X186908610Y-78803981D01*
X187003848Y-78756362D01*
X187051467Y-78708743D01*
X187099086Y-78613505D01*
X187099086Y-78375409D01*
X187051467Y-78280171D01*
X187003848Y-78232552D01*
G04 #@! TO.C,D501*
X208164476Y-69508880D02*
X208164476Y-68508880D01*
X207926380Y-68508880D01*
X207783523Y-68556500D01*
X207688285Y-68651738D01*
X207640666Y-68746976D01*
X207593047Y-68937452D01*
X207593047Y-69080309D01*
X207640666Y-69270785D01*
X207688285Y-69366023D01*
X207783523Y-69461261D01*
X207926380Y-69508880D01*
X208164476Y-69508880D01*
X206688285Y-68508880D02*
X207164476Y-68508880D01*
X207212095Y-68985071D01*
X207164476Y-68937452D01*
X207069238Y-68889833D01*
X206831142Y-68889833D01*
X206735904Y-68937452D01*
X206688285Y-68985071D01*
X206640666Y-69080309D01*
X206640666Y-69318404D01*
X206688285Y-69413642D01*
X206735904Y-69461261D01*
X206831142Y-69508880D01*
X207069238Y-69508880D01*
X207164476Y-69461261D01*
X207212095Y-69413642D01*
X206021619Y-68508880D02*
X205926380Y-68508880D01*
X205831142Y-68556500D01*
X205783523Y-68604119D01*
X205735904Y-68699357D01*
X205688285Y-68889833D01*
X205688285Y-69127928D01*
X205735904Y-69318404D01*
X205783523Y-69413642D01*
X205831142Y-69461261D01*
X205926380Y-69508880D01*
X206021619Y-69508880D01*
X206116857Y-69461261D01*
X206164476Y-69413642D01*
X206212095Y-69318404D01*
X206259714Y-69127928D01*
X206259714Y-68889833D01*
X206212095Y-68699357D01*
X206164476Y-68604119D01*
X206116857Y-68556500D01*
X206021619Y-68508880D01*
X204735904Y-69508880D02*
X205307333Y-69508880D01*
X205021619Y-69508880D02*
X205021619Y-68508880D01*
X205116857Y-68651738D01*
X205212095Y-68746976D01*
X205307333Y-68794595D01*
G04 #@! TO.C,R501*
X187555047Y-71920380D02*
X187888380Y-71444190D01*
X188126476Y-71920380D02*
X188126476Y-70920380D01*
X187745523Y-70920380D01*
X187650285Y-70968000D01*
X187602666Y-71015619D01*
X187555047Y-71110857D01*
X187555047Y-71253714D01*
X187602666Y-71348952D01*
X187650285Y-71396571D01*
X187745523Y-71444190D01*
X188126476Y-71444190D01*
X186650285Y-70920380D02*
X187126476Y-70920380D01*
X187174095Y-71396571D01*
X187126476Y-71348952D01*
X187031238Y-71301333D01*
X186793142Y-71301333D01*
X186697904Y-71348952D01*
X186650285Y-71396571D01*
X186602666Y-71491809D01*
X186602666Y-71729904D01*
X186650285Y-71825142D01*
X186697904Y-71872761D01*
X186793142Y-71920380D01*
X187031238Y-71920380D01*
X187126476Y-71872761D01*
X187174095Y-71825142D01*
X185983619Y-70920380D02*
X185888380Y-70920380D01*
X185793142Y-70968000D01*
X185745523Y-71015619D01*
X185697904Y-71110857D01*
X185650285Y-71301333D01*
X185650285Y-71539428D01*
X185697904Y-71729904D01*
X185745523Y-71825142D01*
X185793142Y-71872761D01*
X185888380Y-71920380D01*
X185983619Y-71920380D01*
X186078857Y-71872761D01*
X186126476Y-71825142D01*
X186174095Y-71729904D01*
X186221714Y-71539428D01*
X186221714Y-71301333D01*
X186174095Y-71110857D01*
X186126476Y-71015619D01*
X186078857Y-70968000D01*
X185983619Y-70920380D01*
X184697904Y-71920380D02*
X185269333Y-71920380D01*
X184983619Y-71920380D02*
X184983619Y-70920380D01*
X185078857Y-71063238D01*
X185174095Y-71158476D01*
X185269333Y-71206095D01*
G04 #@! TO.C,U501*
X202820380Y-62928714D02*
X203629904Y-62928714D01*
X203725142Y-62976333D01*
X203772761Y-63023952D01*
X203820380Y-63119190D01*
X203820380Y-63309666D01*
X203772761Y-63404904D01*
X203725142Y-63452523D01*
X203629904Y-63500142D01*
X202820380Y-63500142D01*
X202820380Y-64452523D02*
X202820380Y-63976333D01*
X203296571Y-63928714D01*
X203248952Y-63976333D01*
X203201333Y-64071571D01*
X203201333Y-64309666D01*
X203248952Y-64404904D01*
X203296571Y-64452523D01*
X203391809Y-64500142D01*
X203629904Y-64500142D01*
X203725142Y-64452523D01*
X203772761Y-64404904D01*
X203820380Y-64309666D01*
X203820380Y-64071571D01*
X203772761Y-63976333D01*
X203725142Y-63928714D01*
X202820380Y-65119190D02*
X202820380Y-65214428D01*
X202868000Y-65309666D01*
X202915619Y-65357285D01*
X203010857Y-65404904D01*
X203201333Y-65452523D01*
X203439428Y-65452523D01*
X203629904Y-65404904D01*
X203725142Y-65357285D01*
X203772761Y-65309666D01*
X203820380Y-65214428D01*
X203820380Y-65119190D01*
X203772761Y-65023952D01*
X203725142Y-64976333D01*
X203629904Y-64928714D01*
X203439428Y-64881095D01*
X203201333Y-64881095D01*
X203010857Y-64928714D01*
X202915619Y-64976333D01*
X202868000Y-65023952D01*
X202820380Y-65119190D01*
X203820380Y-66404904D02*
X203820380Y-65833476D01*
X203820380Y-66119190D02*
X202820380Y-66119190D01*
X202963238Y-66023952D01*
X203058476Y-65928714D01*
X203106095Y-65833476D01*
G04 #@! TO.C,D504*
X208128976Y-63412880D02*
X208128976Y-62412880D01*
X207890880Y-62412880D01*
X207748023Y-62460500D01*
X207652785Y-62555738D01*
X207605166Y-62650976D01*
X207557547Y-62841452D01*
X207557547Y-62984309D01*
X207605166Y-63174785D01*
X207652785Y-63270023D01*
X207748023Y-63365261D01*
X207890880Y-63412880D01*
X208128976Y-63412880D01*
X206652785Y-62412880D02*
X207128976Y-62412880D01*
X207176595Y-62889071D01*
X207128976Y-62841452D01*
X207033738Y-62793833D01*
X206795642Y-62793833D01*
X206700404Y-62841452D01*
X206652785Y-62889071D01*
X206605166Y-62984309D01*
X206605166Y-63222404D01*
X206652785Y-63317642D01*
X206700404Y-63365261D01*
X206795642Y-63412880D01*
X207033738Y-63412880D01*
X207128976Y-63365261D01*
X207176595Y-63317642D01*
X205986119Y-62412880D02*
X205890880Y-62412880D01*
X205795642Y-62460500D01*
X205748023Y-62508119D01*
X205700404Y-62603357D01*
X205652785Y-62793833D01*
X205652785Y-63031928D01*
X205700404Y-63222404D01*
X205748023Y-63317642D01*
X205795642Y-63365261D01*
X205890880Y-63412880D01*
X205986119Y-63412880D01*
X206081357Y-63365261D01*
X206128976Y-63317642D01*
X206176595Y-63222404D01*
X206224214Y-63031928D01*
X206224214Y-62793833D01*
X206176595Y-62603357D01*
X206128976Y-62508119D01*
X206081357Y-62460500D01*
X205986119Y-62412880D01*
X204795642Y-62746214D02*
X204795642Y-63412880D01*
X205033738Y-62365261D02*
X205271833Y-63079547D01*
X204652785Y-63079547D01*
G04 #@! TO.C,D503*
X208128976Y-65889380D02*
X208128976Y-64889380D01*
X207890880Y-64889380D01*
X207748023Y-64937000D01*
X207652785Y-65032238D01*
X207605166Y-65127476D01*
X207557547Y-65317952D01*
X207557547Y-65460809D01*
X207605166Y-65651285D01*
X207652785Y-65746523D01*
X207748023Y-65841761D01*
X207890880Y-65889380D01*
X208128976Y-65889380D01*
X206652785Y-64889380D02*
X207128976Y-64889380D01*
X207176595Y-65365571D01*
X207128976Y-65317952D01*
X207033738Y-65270333D01*
X206795642Y-65270333D01*
X206700404Y-65317952D01*
X206652785Y-65365571D01*
X206605166Y-65460809D01*
X206605166Y-65698904D01*
X206652785Y-65794142D01*
X206700404Y-65841761D01*
X206795642Y-65889380D01*
X207033738Y-65889380D01*
X207128976Y-65841761D01*
X207176595Y-65794142D01*
X205986119Y-64889380D02*
X205890880Y-64889380D01*
X205795642Y-64937000D01*
X205748023Y-64984619D01*
X205700404Y-65079857D01*
X205652785Y-65270333D01*
X205652785Y-65508428D01*
X205700404Y-65698904D01*
X205748023Y-65794142D01*
X205795642Y-65841761D01*
X205890880Y-65889380D01*
X205986119Y-65889380D01*
X206081357Y-65841761D01*
X206128976Y-65794142D01*
X206176595Y-65698904D01*
X206224214Y-65508428D01*
X206224214Y-65270333D01*
X206176595Y-65079857D01*
X206128976Y-64984619D01*
X206081357Y-64937000D01*
X205986119Y-64889380D01*
X205319452Y-64889380D02*
X204700404Y-64889380D01*
X205033738Y-65270333D01*
X204890880Y-65270333D01*
X204795642Y-65317952D01*
X204748023Y-65365571D01*
X204700404Y-65460809D01*
X204700404Y-65698904D01*
X204748023Y-65794142D01*
X204795642Y-65841761D01*
X204890880Y-65889380D01*
X205176595Y-65889380D01*
X205271833Y-65841761D01*
X205319452Y-65794142D01*
G04 #@! TO.C,D505*
X208192476Y-76176380D02*
X208192476Y-75176380D01*
X207954380Y-75176380D01*
X207811523Y-75224000D01*
X207716285Y-75319238D01*
X207668666Y-75414476D01*
X207621047Y-75604952D01*
X207621047Y-75747809D01*
X207668666Y-75938285D01*
X207716285Y-76033523D01*
X207811523Y-76128761D01*
X207954380Y-76176380D01*
X208192476Y-76176380D01*
X206716285Y-75176380D02*
X207192476Y-75176380D01*
X207240095Y-75652571D01*
X207192476Y-75604952D01*
X207097238Y-75557333D01*
X206859142Y-75557333D01*
X206763904Y-75604952D01*
X206716285Y-75652571D01*
X206668666Y-75747809D01*
X206668666Y-75985904D01*
X206716285Y-76081142D01*
X206763904Y-76128761D01*
X206859142Y-76176380D01*
X207097238Y-76176380D01*
X207192476Y-76128761D01*
X207240095Y-76081142D01*
X206049619Y-75176380D02*
X205954380Y-75176380D01*
X205859142Y-75224000D01*
X205811523Y-75271619D01*
X205763904Y-75366857D01*
X205716285Y-75557333D01*
X205716285Y-75795428D01*
X205763904Y-75985904D01*
X205811523Y-76081142D01*
X205859142Y-76128761D01*
X205954380Y-76176380D01*
X206049619Y-76176380D01*
X206144857Y-76128761D01*
X206192476Y-76081142D01*
X206240095Y-75985904D01*
X206287714Y-75795428D01*
X206287714Y-75557333D01*
X206240095Y-75366857D01*
X206192476Y-75271619D01*
X206144857Y-75224000D01*
X206049619Y-75176380D01*
X204811523Y-75176380D02*
X205287714Y-75176380D01*
X205335333Y-75652571D01*
X205287714Y-75604952D01*
X205192476Y-75557333D01*
X204954380Y-75557333D01*
X204859142Y-75604952D01*
X204811523Y-75652571D01*
X204763904Y-75747809D01*
X204763904Y-75985904D01*
X204811523Y-76081142D01*
X204859142Y-76128761D01*
X204954380Y-76176380D01*
X205192476Y-76176380D01*
X205287714Y-76128761D01*
X205335333Y-76081142D01*
G04 #@! TO.C,D506*
X208227976Y-79097380D02*
X208227976Y-78097380D01*
X207989880Y-78097380D01*
X207847023Y-78145000D01*
X207751785Y-78240238D01*
X207704166Y-78335476D01*
X207656547Y-78525952D01*
X207656547Y-78668809D01*
X207704166Y-78859285D01*
X207751785Y-78954523D01*
X207847023Y-79049761D01*
X207989880Y-79097380D01*
X208227976Y-79097380D01*
X206751785Y-78097380D02*
X207227976Y-78097380D01*
X207275595Y-78573571D01*
X207227976Y-78525952D01*
X207132738Y-78478333D01*
X206894642Y-78478333D01*
X206799404Y-78525952D01*
X206751785Y-78573571D01*
X206704166Y-78668809D01*
X206704166Y-78906904D01*
X206751785Y-79002142D01*
X206799404Y-79049761D01*
X206894642Y-79097380D01*
X207132738Y-79097380D01*
X207227976Y-79049761D01*
X207275595Y-79002142D01*
X206085119Y-78097380D02*
X205989880Y-78097380D01*
X205894642Y-78145000D01*
X205847023Y-78192619D01*
X205799404Y-78287857D01*
X205751785Y-78478333D01*
X205751785Y-78716428D01*
X205799404Y-78906904D01*
X205847023Y-79002142D01*
X205894642Y-79049761D01*
X205989880Y-79097380D01*
X206085119Y-79097380D01*
X206180357Y-79049761D01*
X206227976Y-79002142D01*
X206275595Y-78906904D01*
X206323214Y-78716428D01*
X206323214Y-78478333D01*
X206275595Y-78287857D01*
X206227976Y-78192619D01*
X206180357Y-78145000D01*
X206085119Y-78097380D01*
X204894642Y-78097380D02*
X205085119Y-78097380D01*
X205180357Y-78145000D01*
X205227976Y-78192619D01*
X205323214Y-78335476D01*
X205370833Y-78525952D01*
X205370833Y-78906904D01*
X205323214Y-79002142D01*
X205275595Y-79049761D01*
X205180357Y-79097380D01*
X204989880Y-79097380D01*
X204894642Y-79049761D01*
X204847023Y-79002142D01*
X204799404Y-78906904D01*
X204799404Y-78668809D01*
X204847023Y-78573571D01*
X204894642Y-78525952D01*
X204989880Y-78478333D01*
X205180357Y-78478333D01*
X205275595Y-78525952D01*
X205323214Y-78573571D01*
X205370833Y-78668809D01*
G04 #@! TO.C,R117*
X187365880Y-87018952D02*
X186889690Y-86685619D01*
X187365880Y-86447523D02*
X186365880Y-86447523D01*
X186365880Y-86828476D01*
X186413500Y-86923714D01*
X186461119Y-86971333D01*
X186556357Y-87018952D01*
X186699214Y-87018952D01*
X186794452Y-86971333D01*
X186842071Y-86923714D01*
X186889690Y-86828476D01*
X186889690Y-86447523D01*
X187365880Y-87971333D02*
X187365880Y-87399904D01*
X187365880Y-87685619D02*
X186365880Y-87685619D01*
X186508738Y-87590380D01*
X186603976Y-87495142D01*
X186651595Y-87399904D01*
X187365880Y-88923714D02*
X187365880Y-88352285D01*
X187365880Y-88638000D02*
X186365880Y-88638000D01*
X186508738Y-88542761D01*
X186603976Y-88447523D01*
X186651595Y-88352285D01*
X186365880Y-89257047D02*
X186365880Y-89923714D01*
X187365880Y-89495142D01*
G04 #@! TO.C,R118*
X187365880Y-83208952D02*
X186889690Y-82875619D01*
X187365880Y-82637523D02*
X186365880Y-82637523D01*
X186365880Y-83018476D01*
X186413500Y-83113714D01*
X186461119Y-83161333D01*
X186556357Y-83208952D01*
X186699214Y-83208952D01*
X186794452Y-83161333D01*
X186842071Y-83113714D01*
X186889690Y-83018476D01*
X186889690Y-82637523D01*
X187365880Y-84161333D02*
X187365880Y-83589904D01*
X187365880Y-83875619D02*
X186365880Y-83875619D01*
X186508738Y-83780380D01*
X186603976Y-83685142D01*
X186651595Y-83589904D01*
X187365880Y-85113714D02*
X187365880Y-84542285D01*
X187365880Y-84828000D02*
X186365880Y-84828000D01*
X186508738Y-84732761D01*
X186603976Y-84637523D01*
X186651595Y-84542285D01*
X186794452Y-85685142D02*
X186746833Y-85589904D01*
X186699214Y-85542285D01*
X186603976Y-85494666D01*
X186556357Y-85494666D01*
X186461119Y-85542285D01*
X186413500Y-85589904D01*
X186365880Y-85685142D01*
X186365880Y-85875619D01*
X186413500Y-85970857D01*
X186461119Y-86018476D01*
X186556357Y-86066095D01*
X186603976Y-86066095D01*
X186699214Y-86018476D01*
X186746833Y-85970857D01*
X186794452Y-85875619D01*
X186794452Y-85685142D01*
X186842071Y-85589904D01*
X186889690Y-85542285D01*
X186984928Y-85494666D01*
X187175404Y-85494666D01*
X187270642Y-85542285D01*
X187318261Y-85589904D01*
X187365880Y-85685142D01*
X187365880Y-85875619D01*
X187318261Y-85970857D01*
X187270642Y-86018476D01*
X187175404Y-86066095D01*
X186984928Y-86066095D01*
X186889690Y-86018476D01*
X186842071Y-85970857D01*
X186794452Y-85875619D01*
G04 #@! TO.C,R119*
X185714880Y-87018952D02*
X185238690Y-86685619D01*
X185714880Y-86447523D02*
X184714880Y-86447523D01*
X184714880Y-86828476D01*
X184762500Y-86923714D01*
X184810119Y-86971333D01*
X184905357Y-87018952D01*
X185048214Y-87018952D01*
X185143452Y-86971333D01*
X185191071Y-86923714D01*
X185238690Y-86828476D01*
X185238690Y-86447523D01*
X185714880Y-87971333D02*
X185714880Y-87399904D01*
X185714880Y-87685619D02*
X184714880Y-87685619D01*
X184857738Y-87590380D01*
X184952976Y-87495142D01*
X185000595Y-87399904D01*
X185714880Y-88923714D02*
X185714880Y-88352285D01*
X185714880Y-88638000D02*
X184714880Y-88638000D01*
X184857738Y-88542761D01*
X184952976Y-88447523D01*
X185000595Y-88352285D01*
X185714880Y-89399904D02*
X185714880Y-89590380D01*
X185667261Y-89685619D01*
X185619642Y-89733238D01*
X185476785Y-89828476D01*
X185286309Y-89876095D01*
X184905357Y-89876095D01*
X184810119Y-89828476D01*
X184762500Y-89780857D01*
X184714880Y-89685619D01*
X184714880Y-89495142D01*
X184762500Y-89399904D01*
X184810119Y-89352285D01*
X184905357Y-89304666D01*
X185143452Y-89304666D01*
X185238690Y-89352285D01*
X185286309Y-89399904D01*
X185333928Y-89495142D01*
X185333928Y-89685619D01*
X185286309Y-89780857D01*
X185238690Y-89828476D01*
X185143452Y-89876095D01*
G04 #@! TO.C,R120*
X185714880Y-83208952D02*
X185238690Y-82875619D01*
X185714880Y-82637523D02*
X184714880Y-82637523D01*
X184714880Y-83018476D01*
X184762500Y-83113714D01*
X184810119Y-83161333D01*
X184905357Y-83208952D01*
X185048214Y-83208952D01*
X185143452Y-83161333D01*
X185191071Y-83113714D01*
X185238690Y-83018476D01*
X185238690Y-82637523D01*
X185714880Y-84161333D02*
X185714880Y-83589904D01*
X185714880Y-83875619D02*
X184714880Y-83875619D01*
X184857738Y-83780380D01*
X184952976Y-83685142D01*
X185000595Y-83589904D01*
X184810119Y-84542285D02*
X184762500Y-84589904D01*
X184714880Y-84685142D01*
X184714880Y-84923238D01*
X184762500Y-85018476D01*
X184810119Y-85066095D01*
X184905357Y-85113714D01*
X185000595Y-85113714D01*
X185143452Y-85066095D01*
X185714880Y-84494666D01*
X185714880Y-85113714D01*
X184714880Y-85732761D02*
X184714880Y-85828000D01*
X184762500Y-85923238D01*
X184810119Y-85970857D01*
X184905357Y-86018476D01*
X185095833Y-86066095D01*
X185333928Y-86066095D01*
X185524404Y-86018476D01*
X185619642Y-85970857D01*
X185667261Y-85923238D01*
X185714880Y-85828000D01*
X185714880Y-85732761D01*
X185667261Y-85637523D01*
X185619642Y-85589904D01*
X185524404Y-85542285D01*
X185333928Y-85494666D01*
X185095833Y-85494666D01*
X184905357Y-85542285D01*
X184810119Y-85589904D01*
X184762500Y-85637523D01*
X184714880Y-85732761D01*
G04 #@! TO.C,R121*
X211940380Y-91463952D02*
X211464190Y-91130619D01*
X211940380Y-90892523D02*
X210940380Y-90892523D01*
X210940380Y-91273476D01*
X210988000Y-91368714D01*
X211035619Y-91416333D01*
X211130857Y-91463952D01*
X211273714Y-91463952D01*
X211368952Y-91416333D01*
X211416571Y-91368714D01*
X211464190Y-91273476D01*
X211464190Y-90892523D01*
X211940380Y-92416333D02*
X211940380Y-91844904D01*
X211940380Y-92130619D02*
X210940380Y-92130619D01*
X211083238Y-92035380D01*
X211178476Y-91940142D01*
X211226095Y-91844904D01*
X211035619Y-92797285D02*
X210988000Y-92844904D01*
X210940380Y-92940142D01*
X210940380Y-93178238D01*
X210988000Y-93273476D01*
X211035619Y-93321095D01*
X211130857Y-93368714D01*
X211226095Y-93368714D01*
X211368952Y-93321095D01*
X211940380Y-92749666D01*
X211940380Y-93368714D01*
X211940380Y-94321095D02*
X211940380Y-93749666D01*
X211940380Y-94035380D02*
X210940380Y-94035380D01*
X211083238Y-93940142D01*
X211178476Y-93844904D01*
X211226095Y-93749666D01*
G04 #@! TO.C,R122*
X209400380Y-91463952D02*
X208924190Y-91130619D01*
X209400380Y-90892523D02*
X208400380Y-90892523D01*
X208400380Y-91273476D01*
X208448000Y-91368714D01*
X208495619Y-91416333D01*
X208590857Y-91463952D01*
X208733714Y-91463952D01*
X208828952Y-91416333D01*
X208876571Y-91368714D01*
X208924190Y-91273476D01*
X208924190Y-90892523D01*
X209400380Y-92416333D02*
X209400380Y-91844904D01*
X209400380Y-92130619D02*
X208400380Y-92130619D01*
X208543238Y-92035380D01*
X208638476Y-91940142D01*
X208686095Y-91844904D01*
X208495619Y-92797285D02*
X208448000Y-92844904D01*
X208400380Y-92940142D01*
X208400380Y-93178238D01*
X208448000Y-93273476D01*
X208495619Y-93321095D01*
X208590857Y-93368714D01*
X208686095Y-93368714D01*
X208828952Y-93321095D01*
X209400380Y-92749666D01*
X209400380Y-93368714D01*
X208495619Y-93749666D02*
X208448000Y-93797285D01*
X208400380Y-93892523D01*
X208400380Y-94130619D01*
X208448000Y-94225857D01*
X208495619Y-94273476D01*
X208590857Y-94321095D01*
X208686095Y-94321095D01*
X208828952Y-94273476D01*
X209400380Y-93702047D01*
X209400380Y-94321095D01*
G04 #@! TO.C,U104*
X182339084Y-82263886D02*
X182339084Y-83073410D01*
X182291465Y-83168648D01*
X182243846Y-83216267D01*
X182148608Y-83263886D01*
X181958132Y-83263886D01*
X181862894Y-83216267D01*
X181815275Y-83168648D01*
X181767656Y-83073410D01*
X181767656Y-82263886D01*
X180767656Y-83263886D02*
X181339084Y-83263886D01*
X181053370Y-83263886D02*
X181053370Y-82263886D01*
X181148608Y-82406744D01*
X181243846Y-82501982D01*
X181339084Y-82549601D01*
X180148608Y-82263886D02*
X180053370Y-82263886D01*
X179958132Y-82311506D01*
X179910513Y-82359125D01*
X179862894Y-82454363D01*
X179815275Y-82644839D01*
X179815275Y-82882934D01*
X179862894Y-83073410D01*
X179910513Y-83168648D01*
X179958132Y-83216267D01*
X180053370Y-83263886D01*
X180148608Y-83263886D01*
X180243846Y-83216267D01*
X180291465Y-83168648D01*
X180339084Y-83073410D01*
X180386703Y-82882934D01*
X180386703Y-82644839D01*
X180339084Y-82454363D01*
X180291465Y-82359125D01*
X180243846Y-82311506D01*
X180148608Y-82263886D01*
X178958132Y-82597220D02*
X178958132Y-83263886D01*
X179196227Y-82216267D02*
X179434322Y-82930553D01*
X178815275Y-82930553D01*
G04 #@! TD*
M02*
