G04 #@! TF.GenerationSoftware,KiCad,Pcbnew,5.0.2+dfsg1-1~bpo9+1*
G04 #@! TF.CreationDate,2020-01-22T15:14:46+01:00*
G04 #@! TF.ProjectId,MOTOR_BOARD_I2C,4d4f544f-525f-4424-9f41-52445f493243,rev?*
G04 #@! TF.SameCoordinates,Original*
G04 #@! TF.FileFunction,Copper,L2,Bot*
G04 #@! TF.FilePolarity,Positive*
%FSLAX46Y46*%
G04 Gerber Fmt 4.6, Leading zero omitted, Abs format (unit mm)*
G04 Created by KiCad (PCBNEW 5.0.2+dfsg1-1~bpo9+1) date mer. 22 janv. 2020 15:14:46 CET*
%MOMM*%
%LPD*%
G01*
G04 APERTURE LIST*
G04 #@! TA.AperFunction,SMDPad,CuDef*
%ADD10R,0.600000X1.500000*%
G04 #@! TD*
G04 #@! TA.AperFunction,Conductor*
%ADD11C,0.100000*%
G04 #@! TD*
G04 #@! TA.AperFunction,SMDPad,CuDef*
%ADD12C,0.875000*%
G04 #@! TD*
G04 #@! TA.AperFunction,SMDPad,CuDef*
%ADD13R,1.300000X1.700000*%
G04 #@! TD*
G04 #@! TA.AperFunction,SMDPad,CuDef*
%ADD14C,0.950000*%
G04 #@! TD*
G04 #@! TA.AperFunction,ComponentPad*
%ADD15O,1.200000X1.750000*%
G04 #@! TD*
G04 #@! TA.AperFunction,ComponentPad*
%ADD16C,1.200000*%
G04 #@! TD*
G04 #@! TA.AperFunction,ComponentPad*
%ADD17C,1.740000*%
G04 #@! TD*
G04 #@! TA.AperFunction,ComponentPad*
%ADD18O,1.740000X2.200000*%
G04 #@! TD*
G04 #@! TA.AperFunction,ComponentPad*
%ADD19C,2.080000*%
G04 #@! TD*
G04 #@! TA.AperFunction,ComponentPad*
%ADD20O,2.080000X3.600000*%
G04 #@! TD*
G04 #@! TA.AperFunction,SMDPad,CuDef*
%ADD21R,1.750000X0.450000*%
G04 #@! TD*
G04 #@! TA.AperFunction,SMDPad,CuDef*
%ADD22R,1.100000X0.400000*%
G04 #@! TD*
G04 #@! TA.AperFunction,ComponentPad*
%ADD23C,1.800000*%
G04 #@! TD*
G04 #@! TA.AperFunction,ComponentPad*
%ADD24O,3.600000X1.800000*%
G04 #@! TD*
G04 #@! TA.AperFunction,ViaPad*
%ADD25C,9.000000*%
G04 #@! TD*
G04 #@! TA.AperFunction,ViaPad*
%ADD26C,0.800000*%
G04 #@! TD*
G04 #@! TA.AperFunction,ViaPad*
%ADD27C,1.200000*%
G04 #@! TD*
G04 #@! TA.AperFunction,Conductor*
%ADD28C,0.800000*%
G04 #@! TD*
G04 #@! TA.AperFunction,Conductor*
%ADD29C,0.300000*%
G04 #@! TD*
G04 #@! TA.AperFunction,Conductor*
%ADD30C,0.500000*%
G04 #@! TD*
G04 #@! TA.AperFunction,Conductor*
%ADD31C,1.500000*%
G04 #@! TD*
G04 #@! TA.AperFunction,Conductor*
%ADD32C,0.254000*%
G04 #@! TD*
G04 APERTURE END LIST*
D10*
G04 #@! TO.P,U502,14*
G04 #@! TO.N,+5VD*
X201739500Y-72420500D03*
G04 #@! TO.P,U502,13*
G04 #@! TO.N,/STOPMOTOR*
X200469500Y-72420500D03*
G04 #@! TO.P,U502,12*
G04 #@! TO.N,Net-(D501-Pad1)*
X199199500Y-72420500D03*
G04 #@! TO.P,U502,11*
X197929500Y-72420500D03*
G04 #@! TO.P,U502,10*
G04 #@! TO.N,N/C*
X196659500Y-72420500D03*
G04 #@! TO.P,U502,9*
X195389500Y-72420500D03*
G04 #@! TO.P,U502,8*
X194119500Y-72420500D03*
G04 #@! TO.P,U502,7*
G04 #@! TO.N,GND*
X194119500Y-77820500D03*
G04 #@! TO.P,U502,6*
G04 #@! TO.N,/RSTIN5*
X195389500Y-77820500D03*
G04 #@! TO.P,U502,5*
G04 #@! TO.N,/IN5*
X196659500Y-77820500D03*
G04 #@! TO.P,U502,4*
G04 #@! TO.N,/Sheet5DBEC701/S5*
X197929500Y-77820500D03*
G04 #@! TO.P,U502,3*
G04 #@! TO.N,/RSTIN4*
X199199500Y-77820500D03*
G04 #@! TO.P,U502,2*
G04 #@! TO.N,/IN4*
X200469500Y-77820500D03*
G04 #@! TO.P,U502,1*
G04 #@! TO.N,/Sheet5DBEC701/S4*
X201739500Y-77820500D03*
G04 #@! TD*
D11*
G04 #@! TO.N,GND*
G04 #@! TO.C,R125*
G36*
X185494397Y-75841939D02*
X185515632Y-75845089D01*
X185536456Y-75850305D01*
X185556668Y-75857537D01*
X185576074Y-75866716D01*
X185594487Y-75877752D01*
X185611730Y-75890540D01*
X185627636Y-75904956D01*
X185642052Y-75920862D01*
X185654840Y-75938105D01*
X185665876Y-75956518D01*
X185675055Y-75975924D01*
X185682287Y-75996136D01*
X185687503Y-76016960D01*
X185690653Y-76038195D01*
X185691706Y-76059636D01*
X185691706Y-76497136D01*
X185690653Y-76518577D01*
X185687503Y-76539812D01*
X185682287Y-76560636D01*
X185675055Y-76580848D01*
X185665876Y-76600254D01*
X185654840Y-76618667D01*
X185642052Y-76635910D01*
X185627636Y-76651816D01*
X185611730Y-76666232D01*
X185594487Y-76679020D01*
X185576074Y-76690056D01*
X185556668Y-76699235D01*
X185536456Y-76706467D01*
X185515632Y-76711683D01*
X185494397Y-76714833D01*
X185472956Y-76715886D01*
X184960456Y-76715886D01*
X184939015Y-76714833D01*
X184917780Y-76711683D01*
X184896956Y-76706467D01*
X184876744Y-76699235D01*
X184857338Y-76690056D01*
X184838925Y-76679020D01*
X184821682Y-76666232D01*
X184805776Y-76651816D01*
X184791360Y-76635910D01*
X184778572Y-76618667D01*
X184767536Y-76600254D01*
X184758357Y-76580848D01*
X184751125Y-76560636D01*
X184745909Y-76539812D01*
X184742759Y-76518577D01*
X184741706Y-76497136D01*
X184741706Y-76059636D01*
X184742759Y-76038195D01*
X184745909Y-76016960D01*
X184751125Y-75996136D01*
X184758357Y-75975924D01*
X184767536Y-75956518D01*
X184778572Y-75938105D01*
X184791360Y-75920862D01*
X184805776Y-75904956D01*
X184821682Y-75890540D01*
X184838925Y-75877752D01*
X184857338Y-75866716D01*
X184876744Y-75857537D01*
X184896956Y-75850305D01*
X184917780Y-75845089D01*
X184939015Y-75841939D01*
X184960456Y-75840886D01*
X185472956Y-75840886D01*
X185494397Y-75841939D01*
X185494397Y-75841939D01*
G37*
D12*
G04 #@! TD*
G04 #@! TO.P,R125,2*
G04 #@! TO.N,GND*
X185216706Y-76278386D03*
D11*
G04 #@! TO.N,Net-(R125-Pad1)*
G04 #@! TO.C,R125*
G36*
X185494397Y-77416939D02*
X185515632Y-77420089D01*
X185536456Y-77425305D01*
X185556668Y-77432537D01*
X185576074Y-77441716D01*
X185594487Y-77452752D01*
X185611730Y-77465540D01*
X185627636Y-77479956D01*
X185642052Y-77495862D01*
X185654840Y-77513105D01*
X185665876Y-77531518D01*
X185675055Y-77550924D01*
X185682287Y-77571136D01*
X185687503Y-77591960D01*
X185690653Y-77613195D01*
X185691706Y-77634636D01*
X185691706Y-78072136D01*
X185690653Y-78093577D01*
X185687503Y-78114812D01*
X185682287Y-78135636D01*
X185675055Y-78155848D01*
X185665876Y-78175254D01*
X185654840Y-78193667D01*
X185642052Y-78210910D01*
X185627636Y-78226816D01*
X185611730Y-78241232D01*
X185594487Y-78254020D01*
X185576074Y-78265056D01*
X185556668Y-78274235D01*
X185536456Y-78281467D01*
X185515632Y-78286683D01*
X185494397Y-78289833D01*
X185472956Y-78290886D01*
X184960456Y-78290886D01*
X184939015Y-78289833D01*
X184917780Y-78286683D01*
X184896956Y-78281467D01*
X184876744Y-78274235D01*
X184857338Y-78265056D01*
X184838925Y-78254020D01*
X184821682Y-78241232D01*
X184805776Y-78226816D01*
X184791360Y-78210910D01*
X184778572Y-78193667D01*
X184767536Y-78175254D01*
X184758357Y-78155848D01*
X184751125Y-78135636D01*
X184745909Y-78114812D01*
X184742759Y-78093577D01*
X184741706Y-78072136D01*
X184741706Y-77634636D01*
X184742759Y-77613195D01*
X184745909Y-77591960D01*
X184751125Y-77571136D01*
X184758357Y-77550924D01*
X184767536Y-77531518D01*
X184778572Y-77513105D01*
X184791360Y-77495862D01*
X184805776Y-77479956D01*
X184821682Y-77465540D01*
X184838925Y-77452752D01*
X184857338Y-77441716D01*
X184876744Y-77432537D01*
X184896956Y-77425305D01*
X184917780Y-77420089D01*
X184939015Y-77416939D01*
X184960456Y-77415886D01*
X185472956Y-77415886D01*
X185494397Y-77416939D01*
X185494397Y-77416939D01*
G37*
D12*
G04 #@! TD*
G04 #@! TO.P,R125,1*
G04 #@! TO.N,Net-(R125-Pad1)*
X185216706Y-77853386D03*
D13*
G04 #@! TO.P,D501,2*
G04 #@! TO.N,/Sheet5DBEC701/S0*
X204724000Y-71056500D03*
G04 #@! TO.P,D501,1*
G04 #@! TO.N,Net-(D501-Pad1)*
X208224000Y-71056500D03*
G04 #@! TD*
D11*
G04 #@! TO.N,Net-(D501-Pad1)*
G04 #@! TO.C,R501*
G36*
X187621779Y-72424144D02*
X187644834Y-72427563D01*
X187667443Y-72433227D01*
X187689387Y-72441079D01*
X187710457Y-72451044D01*
X187730448Y-72463026D01*
X187749168Y-72476910D01*
X187766438Y-72492562D01*
X187782090Y-72509832D01*
X187795974Y-72528552D01*
X187807956Y-72548543D01*
X187817921Y-72569613D01*
X187825773Y-72591557D01*
X187831437Y-72614166D01*
X187834856Y-72637221D01*
X187836000Y-72660500D01*
X187836000Y-73135500D01*
X187834856Y-73158779D01*
X187831437Y-73181834D01*
X187825773Y-73204443D01*
X187817921Y-73226387D01*
X187807956Y-73247457D01*
X187795974Y-73267448D01*
X187782090Y-73286168D01*
X187766438Y-73303438D01*
X187749168Y-73319090D01*
X187730448Y-73332974D01*
X187710457Y-73344956D01*
X187689387Y-73354921D01*
X187667443Y-73362773D01*
X187644834Y-73368437D01*
X187621779Y-73371856D01*
X187598500Y-73373000D01*
X187023500Y-73373000D01*
X187000221Y-73371856D01*
X186977166Y-73368437D01*
X186954557Y-73362773D01*
X186932613Y-73354921D01*
X186911543Y-73344956D01*
X186891552Y-73332974D01*
X186872832Y-73319090D01*
X186855562Y-73303438D01*
X186839910Y-73286168D01*
X186826026Y-73267448D01*
X186814044Y-73247457D01*
X186804079Y-73226387D01*
X186796227Y-73204443D01*
X186790563Y-73181834D01*
X186787144Y-73158779D01*
X186786000Y-73135500D01*
X186786000Y-72660500D01*
X186787144Y-72637221D01*
X186790563Y-72614166D01*
X186796227Y-72591557D01*
X186804079Y-72569613D01*
X186814044Y-72548543D01*
X186826026Y-72528552D01*
X186839910Y-72509832D01*
X186855562Y-72492562D01*
X186872832Y-72476910D01*
X186891552Y-72463026D01*
X186911543Y-72451044D01*
X186932613Y-72441079D01*
X186954557Y-72433227D01*
X186977166Y-72427563D01*
X187000221Y-72424144D01*
X187023500Y-72423000D01*
X187598500Y-72423000D01*
X187621779Y-72424144D01*
X187621779Y-72424144D01*
G37*
D14*
G04 #@! TD*
G04 #@! TO.P,R501,1*
G04 #@! TO.N,Net-(D501-Pad1)*
X187311000Y-72898000D03*
D11*
G04 #@! TO.N,GND*
G04 #@! TO.C,R501*
G36*
X185871779Y-72424144D02*
X185894834Y-72427563D01*
X185917443Y-72433227D01*
X185939387Y-72441079D01*
X185960457Y-72451044D01*
X185980448Y-72463026D01*
X185999168Y-72476910D01*
X186016438Y-72492562D01*
X186032090Y-72509832D01*
X186045974Y-72528552D01*
X186057956Y-72548543D01*
X186067921Y-72569613D01*
X186075773Y-72591557D01*
X186081437Y-72614166D01*
X186084856Y-72637221D01*
X186086000Y-72660500D01*
X186086000Y-73135500D01*
X186084856Y-73158779D01*
X186081437Y-73181834D01*
X186075773Y-73204443D01*
X186067921Y-73226387D01*
X186057956Y-73247457D01*
X186045974Y-73267448D01*
X186032090Y-73286168D01*
X186016438Y-73303438D01*
X185999168Y-73319090D01*
X185980448Y-73332974D01*
X185960457Y-73344956D01*
X185939387Y-73354921D01*
X185917443Y-73362773D01*
X185894834Y-73368437D01*
X185871779Y-73371856D01*
X185848500Y-73373000D01*
X185273500Y-73373000D01*
X185250221Y-73371856D01*
X185227166Y-73368437D01*
X185204557Y-73362773D01*
X185182613Y-73354921D01*
X185161543Y-73344956D01*
X185141552Y-73332974D01*
X185122832Y-73319090D01*
X185105562Y-73303438D01*
X185089910Y-73286168D01*
X185076026Y-73267448D01*
X185064044Y-73247457D01*
X185054079Y-73226387D01*
X185046227Y-73204443D01*
X185040563Y-73181834D01*
X185037144Y-73158779D01*
X185036000Y-73135500D01*
X185036000Y-72660500D01*
X185037144Y-72637221D01*
X185040563Y-72614166D01*
X185046227Y-72591557D01*
X185054079Y-72569613D01*
X185064044Y-72548543D01*
X185076026Y-72528552D01*
X185089910Y-72509832D01*
X185105562Y-72492562D01*
X185122832Y-72476910D01*
X185141552Y-72463026D01*
X185161543Y-72451044D01*
X185182613Y-72441079D01*
X185204557Y-72433227D01*
X185227166Y-72427563D01*
X185250221Y-72424144D01*
X185273500Y-72423000D01*
X185848500Y-72423000D01*
X185871779Y-72424144D01*
X185871779Y-72424144D01*
G37*
D14*
G04 #@! TD*
G04 #@! TO.P,R501,2*
G04 #@! TO.N,GND*
X185561000Y-72898000D03*
D10*
G04 #@! TO.P,U501,1*
G04 #@! TO.N,/Sheet5DBEC701/S0*
X201803000Y-67343000D03*
G04 #@! TO.P,U501,2*
G04 #@! TO.N,/IN0*
X200533000Y-67343000D03*
G04 #@! TO.P,U501,3*
G04 #@! TO.N,/RSTIN0*
X199263000Y-67343000D03*
G04 #@! TO.P,U501,4*
G04 #@! TO.N,/Sheet5DBEC701/S1*
X197993000Y-67343000D03*
G04 #@! TO.P,U501,5*
G04 #@! TO.N,/IN1*
X196723000Y-67343000D03*
G04 #@! TO.P,U501,6*
G04 #@! TO.N,/RSTIN1*
X195453000Y-67343000D03*
G04 #@! TO.P,U501,7*
G04 #@! TO.N,GND*
X194183000Y-67343000D03*
G04 #@! TO.P,U501,8*
G04 #@! TO.N,/IN2*
X194183000Y-61943000D03*
G04 #@! TO.P,U501,9*
G04 #@! TO.N,/RSTIN2*
X195453000Y-61943000D03*
G04 #@! TO.P,U501,10*
G04 #@! TO.N,/Sheet5DBEC701/S2*
X196723000Y-61943000D03*
G04 #@! TO.P,U501,11*
G04 #@! TO.N,/IN3*
X197993000Y-61943000D03*
G04 #@! TO.P,U501,12*
G04 #@! TO.N,/RSTIN3*
X199263000Y-61943000D03*
G04 #@! TO.P,U501,13*
G04 #@! TO.N,/Sheet5DBEC701/S3*
X200533000Y-61943000D03*
G04 #@! TO.P,U501,14*
G04 #@! TO.N,+5VD*
X201803000Y-61943000D03*
G04 #@! TD*
D13*
G04 #@! TO.P,D504,2*
G04 #@! TO.N,/Sheet5DBEC701/S3*
X204688500Y-64960500D03*
G04 #@! TO.P,D504,1*
G04 #@! TO.N,Net-(D501-Pad1)*
X208188500Y-64960500D03*
G04 #@! TD*
G04 #@! TO.P,D503,2*
G04 #@! TO.N,/Sheet5DBEC701/S2*
X204688500Y-67437000D03*
G04 #@! TO.P,D503,1*
G04 #@! TO.N,Net-(D501-Pad1)*
X208188500Y-67437000D03*
G04 #@! TD*
G04 #@! TO.P,D505,2*
G04 #@! TO.N,/Sheet5DBEC701/S4*
X204752000Y-77724000D03*
G04 #@! TO.P,D505,1*
G04 #@! TO.N,Net-(D501-Pad1)*
X208252000Y-77724000D03*
G04 #@! TD*
G04 #@! TO.P,D506,2*
G04 #@! TO.N,/Sheet5DBEC701/S5*
X204787500Y-80645000D03*
G04 #@! TO.P,D506,1*
G04 #@! TO.N,Net-(D501-Pad1)*
X208287500Y-80645000D03*
G04 #@! TD*
G04 #@! TO.P,D502,2*
G04 #@! TO.N,/Sheet5DBEC701/S1*
X204724000Y-73850500D03*
G04 #@! TO.P,D502,1*
G04 #@! TO.N,Net-(D501-Pad1)*
X208224000Y-73850500D03*
G04 #@! TD*
D15*
G04 #@! TO.P,J405,3*
G04 #@! TO.N,GND*
X222186000Y-77724000D03*
G04 #@! TO.P,J405,2*
G04 #@! TO.N,+5VD*
X220186000Y-77724000D03*
D11*
G04 #@! TD*
G04 #@! TO.N,Net-(J405-Pad1)*
G04 #@! TO.C,J405*
G36*
X218560505Y-76850204D02*
X218584773Y-76853804D01*
X218608572Y-76859765D01*
X218631671Y-76868030D01*
X218653850Y-76878520D01*
X218674893Y-76891132D01*
X218694599Y-76905747D01*
X218712777Y-76922223D01*
X218729253Y-76940401D01*
X218743868Y-76960107D01*
X218756480Y-76981150D01*
X218766970Y-77003329D01*
X218775235Y-77026428D01*
X218781196Y-77050227D01*
X218784796Y-77074495D01*
X218786000Y-77098999D01*
X218786000Y-78349001D01*
X218784796Y-78373505D01*
X218781196Y-78397773D01*
X218775235Y-78421572D01*
X218766970Y-78444671D01*
X218756480Y-78466850D01*
X218743868Y-78487893D01*
X218729253Y-78507599D01*
X218712777Y-78525777D01*
X218694599Y-78542253D01*
X218674893Y-78556868D01*
X218653850Y-78569480D01*
X218631671Y-78579970D01*
X218608572Y-78588235D01*
X218584773Y-78594196D01*
X218560505Y-78597796D01*
X218536001Y-78599000D01*
X217835999Y-78599000D01*
X217811495Y-78597796D01*
X217787227Y-78594196D01*
X217763428Y-78588235D01*
X217740329Y-78579970D01*
X217718150Y-78569480D01*
X217697107Y-78556868D01*
X217677401Y-78542253D01*
X217659223Y-78525777D01*
X217642747Y-78507599D01*
X217628132Y-78487893D01*
X217615520Y-78466850D01*
X217605030Y-78444671D01*
X217596765Y-78421572D01*
X217590804Y-78397773D01*
X217587204Y-78373505D01*
X217586000Y-78349001D01*
X217586000Y-77098999D01*
X217587204Y-77074495D01*
X217590804Y-77050227D01*
X217596765Y-77026428D01*
X217605030Y-77003329D01*
X217615520Y-76981150D01*
X217628132Y-76960107D01*
X217642747Y-76940401D01*
X217659223Y-76922223D01*
X217677401Y-76905747D01*
X217697107Y-76891132D01*
X217718150Y-76878520D01*
X217740329Y-76868030D01*
X217763428Y-76859765D01*
X217787227Y-76853804D01*
X217811495Y-76850204D01*
X217835999Y-76849000D01*
X218536001Y-76849000D01*
X218560505Y-76850204D01*
X218560505Y-76850204D01*
G37*
D16*
G04 #@! TO.P,J405,1*
G04 #@! TO.N,Net-(J405-Pad1)*
X218186000Y-77724000D03*
G04 #@! TD*
D15*
G04 #@! TO.P,J401,3*
G04 #@! TO.N,GND*
X222186000Y-54610000D03*
G04 #@! TO.P,J401,2*
G04 #@! TO.N,+5VD*
X220186000Y-54610000D03*
D11*
G04 #@! TD*
G04 #@! TO.N,Net-(J401-Pad1)*
G04 #@! TO.C,J401*
G36*
X218560505Y-53736204D02*
X218584773Y-53739804D01*
X218608572Y-53745765D01*
X218631671Y-53754030D01*
X218653850Y-53764520D01*
X218674893Y-53777132D01*
X218694599Y-53791747D01*
X218712777Y-53808223D01*
X218729253Y-53826401D01*
X218743868Y-53846107D01*
X218756480Y-53867150D01*
X218766970Y-53889329D01*
X218775235Y-53912428D01*
X218781196Y-53936227D01*
X218784796Y-53960495D01*
X218786000Y-53984999D01*
X218786000Y-55235001D01*
X218784796Y-55259505D01*
X218781196Y-55283773D01*
X218775235Y-55307572D01*
X218766970Y-55330671D01*
X218756480Y-55352850D01*
X218743868Y-55373893D01*
X218729253Y-55393599D01*
X218712777Y-55411777D01*
X218694599Y-55428253D01*
X218674893Y-55442868D01*
X218653850Y-55455480D01*
X218631671Y-55465970D01*
X218608572Y-55474235D01*
X218584773Y-55480196D01*
X218560505Y-55483796D01*
X218536001Y-55485000D01*
X217835999Y-55485000D01*
X217811495Y-55483796D01*
X217787227Y-55480196D01*
X217763428Y-55474235D01*
X217740329Y-55465970D01*
X217718150Y-55455480D01*
X217697107Y-55442868D01*
X217677401Y-55428253D01*
X217659223Y-55411777D01*
X217642747Y-55393599D01*
X217628132Y-55373893D01*
X217615520Y-55352850D01*
X217605030Y-55330671D01*
X217596765Y-55307572D01*
X217590804Y-55283773D01*
X217587204Y-55259505D01*
X217586000Y-55235001D01*
X217586000Y-53984999D01*
X217587204Y-53960495D01*
X217590804Y-53936227D01*
X217596765Y-53912428D01*
X217605030Y-53889329D01*
X217615520Y-53867150D01*
X217628132Y-53846107D01*
X217642747Y-53826401D01*
X217659223Y-53808223D01*
X217677401Y-53791747D01*
X217697107Y-53777132D01*
X217718150Y-53764520D01*
X217740329Y-53754030D01*
X217763428Y-53745765D01*
X217787227Y-53739804D01*
X217811495Y-53736204D01*
X217835999Y-53735000D01*
X218536001Y-53735000D01*
X218560505Y-53736204D01*
X218560505Y-53736204D01*
G37*
D16*
G04 #@! TO.P,J401,1*
G04 #@! TO.N,Net-(J401-Pad1)*
X218186000Y-54610000D03*
G04 #@! TD*
D15*
G04 #@! TO.P,J402,3*
G04 #@! TO.N,GND*
X222186000Y-60325000D03*
G04 #@! TO.P,J402,2*
G04 #@! TO.N,+5VD*
X220186000Y-60325000D03*
D11*
G04 #@! TD*
G04 #@! TO.N,Net-(J402-Pad1)*
G04 #@! TO.C,J402*
G36*
X218560505Y-59451204D02*
X218584773Y-59454804D01*
X218608572Y-59460765D01*
X218631671Y-59469030D01*
X218653850Y-59479520D01*
X218674893Y-59492132D01*
X218694599Y-59506747D01*
X218712777Y-59523223D01*
X218729253Y-59541401D01*
X218743868Y-59561107D01*
X218756480Y-59582150D01*
X218766970Y-59604329D01*
X218775235Y-59627428D01*
X218781196Y-59651227D01*
X218784796Y-59675495D01*
X218786000Y-59699999D01*
X218786000Y-60950001D01*
X218784796Y-60974505D01*
X218781196Y-60998773D01*
X218775235Y-61022572D01*
X218766970Y-61045671D01*
X218756480Y-61067850D01*
X218743868Y-61088893D01*
X218729253Y-61108599D01*
X218712777Y-61126777D01*
X218694599Y-61143253D01*
X218674893Y-61157868D01*
X218653850Y-61170480D01*
X218631671Y-61180970D01*
X218608572Y-61189235D01*
X218584773Y-61195196D01*
X218560505Y-61198796D01*
X218536001Y-61200000D01*
X217835999Y-61200000D01*
X217811495Y-61198796D01*
X217787227Y-61195196D01*
X217763428Y-61189235D01*
X217740329Y-61180970D01*
X217718150Y-61170480D01*
X217697107Y-61157868D01*
X217677401Y-61143253D01*
X217659223Y-61126777D01*
X217642747Y-61108599D01*
X217628132Y-61088893D01*
X217615520Y-61067850D01*
X217605030Y-61045671D01*
X217596765Y-61022572D01*
X217590804Y-60998773D01*
X217587204Y-60974505D01*
X217586000Y-60950001D01*
X217586000Y-59699999D01*
X217587204Y-59675495D01*
X217590804Y-59651227D01*
X217596765Y-59627428D01*
X217605030Y-59604329D01*
X217615520Y-59582150D01*
X217628132Y-59561107D01*
X217642747Y-59541401D01*
X217659223Y-59523223D01*
X217677401Y-59506747D01*
X217697107Y-59492132D01*
X217718150Y-59479520D01*
X217740329Y-59469030D01*
X217763428Y-59460765D01*
X217787227Y-59454804D01*
X217811495Y-59451204D01*
X217835999Y-59450000D01*
X218536001Y-59450000D01*
X218560505Y-59451204D01*
X218560505Y-59451204D01*
G37*
D16*
G04 #@! TO.P,J402,1*
G04 #@! TO.N,Net-(J402-Pad1)*
X218186000Y-60325000D03*
G04 #@! TD*
D15*
G04 #@! TO.P,J403,3*
G04 #@! TO.N,GND*
X222186000Y-66040000D03*
G04 #@! TO.P,J403,2*
G04 #@! TO.N,+5VD*
X220186000Y-66040000D03*
D11*
G04 #@! TD*
G04 #@! TO.N,Net-(J403-Pad1)*
G04 #@! TO.C,J403*
G36*
X218560505Y-65166204D02*
X218584773Y-65169804D01*
X218608572Y-65175765D01*
X218631671Y-65184030D01*
X218653850Y-65194520D01*
X218674893Y-65207132D01*
X218694599Y-65221747D01*
X218712777Y-65238223D01*
X218729253Y-65256401D01*
X218743868Y-65276107D01*
X218756480Y-65297150D01*
X218766970Y-65319329D01*
X218775235Y-65342428D01*
X218781196Y-65366227D01*
X218784796Y-65390495D01*
X218786000Y-65414999D01*
X218786000Y-66665001D01*
X218784796Y-66689505D01*
X218781196Y-66713773D01*
X218775235Y-66737572D01*
X218766970Y-66760671D01*
X218756480Y-66782850D01*
X218743868Y-66803893D01*
X218729253Y-66823599D01*
X218712777Y-66841777D01*
X218694599Y-66858253D01*
X218674893Y-66872868D01*
X218653850Y-66885480D01*
X218631671Y-66895970D01*
X218608572Y-66904235D01*
X218584773Y-66910196D01*
X218560505Y-66913796D01*
X218536001Y-66915000D01*
X217835999Y-66915000D01*
X217811495Y-66913796D01*
X217787227Y-66910196D01*
X217763428Y-66904235D01*
X217740329Y-66895970D01*
X217718150Y-66885480D01*
X217697107Y-66872868D01*
X217677401Y-66858253D01*
X217659223Y-66841777D01*
X217642747Y-66823599D01*
X217628132Y-66803893D01*
X217615520Y-66782850D01*
X217605030Y-66760671D01*
X217596765Y-66737572D01*
X217590804Y-66713773D01*
X217587204Y-66689505D01*
X217586000Y-66665001D01*
X217586000Y-65414999D01*
X217587204Y-65390495D01*
X217590804Y-65366227D01*
X217596765Y-65342428D01*
X217605030Y-65319329D01*
X217615520Y-65297150D01*
X217628132Y-65276107D01*
X217642747Y-65256401D01*
X217659223Y-65238223D01*
X217677401Y-65221747D01*
X217697107Y-65207132D01*
X217718150Y-65194520D01*
X217740329Y-65184030D01*
X217763428Y-65175765D01*
X217787227Y-65169804D01*
X217811495Y-65166204D01*
X217835999Y-65165000D01*
X218536001Y-65165000D01*
X218560505Y-65166204D01*
X218560505Y-65166204D01*
G37*
D16*
G04 #@! TO.P,J403,1*
G04 #@! TO.N,Net-(J403-Pad1)*
X218186000Y-66040000D03*
G04 #@! TD*
D15*
G04 #@! TO.P,J404,3*
G04 #@! TO.N,GND*
X222186000Y-71882000D03*
G04 #@! TO.P,J404,2*
G04 #@! TO.N,+5VD*
X220186000Y-71882000D03*
D11*
G04 #@! TD*
G04 #@! TO.N,Net-(J404-Pad1)*
G04 #@! TO.C,J404*
G36*
X218560505Y-71008204D02*
X218584773Y-71011804D01*
X218608572Y-71017765D01*
X218631671Y-71026030D01*
X218653850Y-71036520D01*
X218674893Y-71049132D01*
X218694599Y-71063747D01*
X218712777Y-71080223D01*
X218729253Y-71098401D01*
X218743868Y-71118107D01*
X218756480Y-71139150D01*
X218766970Y-71161329D01*
X218775235Y-71184428D01*
X218781196Y-71208227D01*
X218784796Y-71232495D01*
X218786000Y-71256999D01*
X218786000Y-72507001D01*
X218784796Y-72531505D01*
X218781196Y-72555773D01*
X218775235Y-72579572D01*
X218766970Y-72602671D01*
X218756480Y-72624850D01*
X218743868Y-72645893D01*
X218729253Y-72665599D01*
X218712777Y-72683777D01*
X218694599Y-72700253D01*
X218674893Y-72714868D01*
X218653850Y-72727480D01*
X218631671Y-72737970D01*
X218608572Y-72746235D01*
X218584773Y-72752196D01*
X218560505Y-72755796D01*
X218536001Y-72757000D01*
X217835999Y-72757000D01*
X217811495Y-72755796D01*
X217787227Y-72752196D01*
X217763428Y-72746235D01*
X217740329Y-72737970D01*
X217718150Y-72727480D01*
X217697107Y-72714868D01*
X217677401Y-72700253D01*
X217659223Y-72683777D01*
X217642747Y-72665599D01*
X217628132Y-72645893D01*
X217615520Y-72624850D01*
X217605030Y-72602671D01*
X217596765Y-72579572D01*
X217590804Y-72555773D01*
X217587204Y-72531505D01*
X217586000Y-72507001D01*
X217586000Y-71256999D01*
X217587204Y-71232495D01*
X217590804Y-71208227D01*
X217596765Y-71184428D01*
X217605030Y-71161329D01*
X217615520Y-71139150D01*
X217628132Y-71118107D01*
X217642747Y-71098401D01*
X217659223Y-71080223D01*
X217677401Y-71063747D01*
X217697107Y-71049132D01*
X217718150Y-71036520D01*
X217740329Y-71026030D01*
X217763428Y-71017765D01*
X217787227Y-71011804D01*
X217811495Y-71008204D01*
X217835999Y-71007000D01*
X218536001Y-71007000D01*
X218560505Y-71008204D01*
X218560505Y-71008204D01*
G37*
D16*
G04 #@! TO.P,J404,1*
G04 #@! TO.N,Net-(J404-Pad1)*
X218186000Y-71882000D03*
G04 #@! TD*
D15*
G04 #@! TO.P,J406,3*
G04 #@! TO.N,GND*
X222186000Y-83439000D03*
G04 #@! TO.P,J406,2*
G04 #@! TO.N,+5VD*
X220186000Y-83439000D03*
D11*
G04 #@! TD*
G04 #@! TO.N,Net-(J406-Pad1)*
G04 #@! TO.C,J406*
G36*
X218560505Y-82565204D02*
X218584773Y-82568804D01*
X218608572Y-82574765D01*
X218631671Y-82583030D01*
X218653850Y-82593520D01*
X218674893Y-82606132D01*
X218694599Y-82620747D01*
X218712777Y-82637223D01*
X218729253Y-82655401D01*
X218743868Y-82675107D01*
X218756480Y-82696150D01*
X218766970Y-82718329D01*
X218775235Y-82741428D01*
X218781196Y-82765227D01*
X218784796Y-82789495D01*
X218786000Y-82813999D01*
X218786000Y-84064001D01*
X218784796Y-84088505D01*
X218781196Y-84112773D01*
X218775235Y-84136572D01*
X218766970Y-84159671D01*
X218756480Y-84181850D01*
X218743868Y-84202893D01*
X218729253Y-84222599D01*
X218712777Y-84240777D01*
X218694599Y-84257253D01*
X218674893Y-84271868D01*
X218653850Y-84284480D01*
X218631671Y-84294970D01*
X218608572Y-84303235D01*
X218584773Y-84309196D01*
X218560505Y-84312796D01*
X218536001Y-84314000D01*
X217835999Y-84314000D01*
X217811495Y-84312796D01*
X217787227Y-84309196D01*
X217763428Y-84303235D01*
X217740329Y-84294970D01*
X217718150Y-84284480D01*
X217697107Y-84271868D01*
X217677401Y-84257253D01*
X217659223Y-84240777D01*
X217642747Y-84222599D01*
X217628132Y-84202893D01*
X217615520Y-84181850D01*
X217605030Y-84159671D01*
X217596765Y-84136572D01*
X217590804Y-84112773D01*
X217587204Y-84088505D01*
X217586000Y-84064001D01*
X217586000Y-82813999D01*
X217587204Y-82789495D01*
X217590804Y-82765227D01*
X217596765Y-82741428D01*
X217605030Y-82718329D01*
X217615520Y-82696150D01*
X217628132Y-82675107D01*
X217642747Y-82655401D01*
X217659223Y-82637223D01*
X217677401Y-82620747D01*
X217697107Y-82606132D01*
X217718150Y-82593520D01*
X217740329Y-82583030D01*
X217763428Y-82574765D01*
X217787227Y-82568804D01*
X217811495Y-82565204D01*
X217835999Y-82564000D01*
X218536001Y-82564000D01*
X218560505Y-82565204D01*
X218560505Y-82565204D01*
G37*
D16*
G04 #@! TO.P,J406,1*
G04 #@! TO.N,Net-(J406-Pad1)*
X218186000Y-83439000D03*
G04 #@! TD*
D11*
G04 #@! TO.N,+5VD*
G04 #@! TO.C,R117*
G36*
X185744279Y-88489144D02*
X185767334Y-88492563D01*
X185789943Y-88498227D01*
X185811887Y-88506079D01*
X185832957Y-88516044D01*
X185852948Y-88528026D01*
X185871668Y-88541910D01*
X185888938Y-88557562D01*
X185904590Y-88574832D01*
X185918474Y-88593552D01*
X185930456Y-88613543D01*
X185940421Y-88634613D01*
X185948273Y-88656557D01*
X185953937Y-88679166D01*
X185957356Y-88702221D01*
X185958500Y-88725500D01*
X185958500Y-89300500D01*
X185957356Y-89323779D01*
X185953937Y-89346834D01*
X185948273Y-89369443D01*
X185940421Y-89391387D01*
X185930456Y-89412457D01*
X185918474Y-89432448D01*
X185904590Y-89451168D01*
X185888938Y-89468438D01*
X185871668Y-89484090D01*
X185852948Y-89497974D01*
X185832957Y-89509956D01*
X185811887Y-89519921D01*
X185789943Y-89527773D01*
X185767334Y-89533437D01*
X185744279Y-89536856D01*
X185721000Y-89538000D01*
X185246000Y-89538000D01*
X185222721Y-89536856D01*
X185199666Y-89533437D01*
X185177057Y-89527773D01*
X185155113Y-89519921D01*
X185134043Y-89509956D01*
X185114052Y-89497974D01*
X185095332Y-89484090D01*
X185078062Y-89468438D01*
X185062410Y-89451168D01*
X185048526Y-89432448D01*
X185036544Y-89412457D01*
X185026579Y-89391387D01*
X185018727Y-89369443D01*
X185013063Y-89346834D01*
X185009644Y-89323779D01*
X185008500Y-89300500D01*
X185008500Y-88725500D01*
X185009644Y-88702221D01*
X185013063Y-88679166D01*
X185018727Y-88656557D01*
X185026579Y-88634613D01*
X185036544Y-88613543D01*
X185048526Y-88593552D01*
X185062410Y-88574832D01*
X185078062Y-88557562D01*
X185095332Y-88541910D01*
X185114052Y-88528026D01*
X185134043Y-88516044D01*
X185155113Y-88506079D01*
X185177057Y-88498227D01*
X185199666Y-88492563D01*
X185222721Y-88489144D01*
X185246000Y-88488000D01*
X185721000Y-88488000D01*
X185744279Y-88489144D01*
X185744279Y-88489144D01*
G37*
D14*
G04 #@! TD*
G04 #@! TO.P,R117,1*
G04 #@! TO.N,+5VD*
X185483500Y-89013000D03*
D11*
G04 #@! TO.N,Net-(R117-Pad2)*
G04 #@! TO.C,R117*
G36*
X185744279Y-86739144D02*
X185767334Y-86742563D01*
X185789943Y-86748227D01*
X185811887Y-86756079D01*
X185832957Y-86766044D01*
X185852948Y-86778026D01*
X185871668Y-86791910D01*
X185888938Y-86807562D01*
X185904590Y-86824832D01*
X185918474Y-86843552D01*
X185930456Y-86863543D01*
X185940421Y-86884613D01*
X185948273Y-86906557D01*
X185953937Y-86929166D01*
X185957356Y-86952221D01*
X185958500Y-86975500D01*
X185958500Y-87550500D01*
X185957356Y-87573779D01*
X185953937Y-87596834D01*
X185948273Y-87619443D01*
X185940421Y-87641387D01*
X185930456Y-87662457D01*
X185918474Y-87682448D01*
X185904590Y-87701168D01*
X185888938Y-87718438D01*
X185871668Y-87734090D01*
X185852948Y-87747974D01*
X185832957Y-87759956D01*
X185811887Y-87769921D01*
X185789943Y-87777773D01*
X185767334Y-87783437D01*
X185744279Y-87786856D01*
X185721000Y-87788000D01*
X185246000Y-87788000D01*
X185222721Y-87786856D01*
X185199666Y-87783437D01*
X185177057Y-87777773D01*
X185155113Y-87769921D01*
X185134043Y-87759956D01*
X185114052Y-87747974D01*
X185095332Y-87734090D01*
X185078062Y-87718438D01*
X185062410Y-87701168D01*
X185048526Y-87682448D01*
X185036544Y-87662457D01*
X185026579Y-87641387D01*
X185018727Y-87619443D01*
X185013063Y-87596834D01*
X185009644Y-87573779D01*
X185008500Y-87550500D01*
X185008500Y-86975500D01*
X185009644Y-86952221D01*
X185013063Y-86929166D01*
X185018727Y-86906557D01*
X185026579Y-86884613D01*
X185036544Y-86863543D01*
X185048526Y-86843552D01*
X185062410Y-86824832D01*
X185078062Y-86807562D01*
X185095332Y-86791910D01*
X185114052Y-86778026D01*
X185134043Y-86766044D01*
X185155113Y-86756079D01*
X185177057Y-86748227D01*
X185199666Y-86742563D01*
X185222721Y-86739144D01*
X185246000Y-86738000D01*
X185721000Y-86738000D01*
X185744279Y-86739144D01*
X185744279Y-86739144D01*
G37*
D14*
G04 #@! TD*
G04 #@! TO.P,R117,2*
G04 #@! TO.N,Net-(R117-Pad2)*
X185483500Y-87263000D03*
D11*
G04 #@! TO.N,Net-(R117-Pad2)*
G04 #@! TO.C,R118*
G36*
X185744279Y-84679144D02*
X185767334Y-84682563D01*
X185789943Y-84688227D01*
X185811887Y-84696079D01*
X185832957Y-84706044D01*
X185852948Y-84718026D01*
X185871668Y-84731910D01*
X185888938Y-84747562D01*
X185904590Y-84764832D01*
X185918474Y-84783552D01*
X185930456Y-84803543D01*
X185940421Y-84824613D01*
X185948273Y-84846557D01*
X185953937Y-84869166D01*
X185957356Y-84892221D01*
X185958500Y-84915500D01*
X185958500Y-85490500D01*
X185957356Y-85513779D01*
X185953937Y-85536834D01*
X185948273Y-85559443D01*
X185940421Y-85581387D01*
X185930456Y-85602457D01*
X185918474Y-85622448D01*
X185904590Y-85641168D01*
X185888938Y-85658438D01*
X185871668Y-85674090D01*
X185852948Y-85687974D01*
X185832957Y-85699956D01*
X185811887Y-85709921D01*
X185789943Y-85717773D01*
X185767334Y-85723437D01*
X185744279Y-85726856D01*
X185721000Y-85728000D01*
X185246000Y-85728000D01*
X185222721Y-85726856D01*
X185199666Y-85723437D01*
X185177057Y-85717773D01*
X185155113Y-85709921D01*
X185134043Y-85699956D01*
X185114052Y-85687974D01*
X185095332Y-85674090D01*
X185078062Y-85658438D01*
X185062410Y-85641168D01*
X185048526Y-85622448D01*
X185036544Y-85602457D01*
X185026579Y-85581387D01*
X185018727Y-85559443D01*
X185013063Y-85536834D01*
X185009644Y-85513779D01*
X185008500Y-85490500D01*
X185008500Y-84915500D01*
X185009644Y-84892221D01*
X185013063Y-84869166D01*
X185018727Y-84846557D01*
X185026579Y-84824613D01*
X185036544Y-84803543D01*
X185048526Y-84783552D01*
X185062410Y-84764832D01*
X185078062Y-84747562D01*
X185095332Y-84731910D01*
X185114052Y-84718026D01*
X185134043Y-84706044D01*
X185155113Y-84696079D01*
X185177057Y-84688227D01*
X185199666Y-84682563D01*
X185222721Y-84679144D01*
X185246000Y-84678000D01*
X185721000Y-84678000D01*
X185744279Y-84679144D01*
X185744279Y-84679144D01*
G37*
D14*
G04 #@! TD*
G04 #@! TO.P,R118,1*
G04 #@! TO.N,Net-(R117-Pad2)*
X185483500Y-85203000D03*
D11*
G04 #@! TO.N,GND*
G04 #@! TO.C,R118*
G36*
X185744279Y-82929144D02*
X185767334Y-82932563D01*
X185789943Y-82938227D01*
X185811887Y-82946079D01*
X185832957Y-82956044D01*
X185852948Y-82968026D01*
X185871668Y-82981910D01*
X185888938Y-82997562D01*
X185904590Y-83014832D01*
X185918474Y-83033552D01*
X185930456Y-83053543D01*
X185940421Y-83074613D01*
X185948273Y-83096557D01*
X185953937Y-83119166D01*
X185957356Y-83142221D01*
X185958500Y-83165500D01*
X185958500Y-83740500D01*
X185957356Y-83763779D01*
X185953937Y-83786834D01*
X185948273Y-83809443D01*
X185940421Y-83831387D01*
X185930456Y-83852457D01*
X185918474Y-83872448D01*
X185904590Y-83891168D01*
X185888938Y-83908438D01*
X185871668Y-83924090D01*
X185852948Y-83937974D01*
X185832957Y-83949956D01*
X185811887Y-83959921D01*
X185789943Y-83967773D01*
X185767334Y-83973437D01*
X185744279Y-83976856D01*
X185721000Y-83978000D01*
X185246000Y-83978000D01*
X185222721Y-83976856D01*
X185199666Y-83973437D01*
X185177057Y-83967773D01*
X185155113Y-83959921D01*
X185134043Y-83949956D01*
X185114052Y-83937974D01*
X185095332Y-83924090D01*
X185078062Y-83908438D01*
X185062410Y-83891168D01*
X185048526Y-83872448D01*
X185036544Y-83852457D01*
X185026579Y-83831387D01*
X185018727Y-83809443D01*
X185013063Y-83786834D01*
X185009644Y-83763779D01*
X185008500Y-83740500D01*
X185008500Y-83165500D01*
X185009644Y-83142221D01*
X185013063Y-83119166D01*
X185018727Y-83096557D01*
X185026579Y-83074613D01*
X185036544Y-83053543D01*
X185048526Y-83033552D01*
X185062410Y-83014832D01*
X185078062Y-82997562D01*
X185095332Y-82981910D01*
X185114052Y-82968026D01*
X185134043Y-82956044D01*
X185155113Y-82946079D01*
X185177057Y-82938227D01*
X185199666Y-82932563D01*
X185222721Y-82929144D01*
X185246000Y-82928000D01*
X185721000Y-82928000D01*
X185744279Y-82929144D01*
X185744279Y-82929144D01*
G37*
D14*
G04 #@! TD*
G04 #@! TO.P,R118,2*
G04 #@! TO.N,GND*
X185483500Y-83453000D03*
D11*
G04 #@! TO.N,+5VD*
G04 #@! TO.C,R119*
G36*
X184093279Y-88489144D02*
X184116334Y-88492563D01*
X184138943Y-88498227D01*
X184160887Y-88506079D01*
X184181957Y-88516044D01*
X184201948Y-88528026D01*
X184220668Y-88541910D01*
X184237938Y-88557562D01*
X184253590Y-88574832D01*
X184267474Y-88593552D01*
X184279456Y-88613543D01*
X184289421Y-88634613D01*
X184297273Y-88656557D01*
X184302937Y-88679166D01*
X184306356Y-88702221D01*
X184307500Y-88725500D01*
X184307500Y-89300500D01*
X184306356Y-89323779D01*
X184302937Y-89346834D01*
X184297273Y-89369443D01*
X184289421Y-89391387D01*
X184279456Y-89412457D01*
X184267474Y-89432448D01*
X184253590Y-89451168D01*
X184237938Y-89468438D01*
X184220668Y-89484090D01*
X184201948Y-89497974D01*
X184181957Y-89509956D01*
X184160887Y-89519921D01*
X184138943Y-89527773D01*
X184116334Y-89533437D01*
X184093279Y-89536856D01*
X184070000Y-89538000D01*
X183595000Y-89538000D01*
X183571721Y-89536856D01*
X183548666Y-89533437D01*
X183526057Y-89527773D01*
X183504113Y-89519921D01*
X183483043Y-89509956D01*
X183463052Y-89497974D01*
X183444332Y-89484090D01*
X183427062Y-89468438D01*
X183411410Y-89451168D01*
X183397526Y-89432448D01*
X183385544Y-89412457D01*
X183375579Y-89391387D01*
X183367727Y-89369443D01*
X183362063Y-89346834D01*
X183358644Y-89323779D01*
X183357500Y-89300500D01*
X183357500Y-88725500D01*
X183358644Y-88702221D01*
X183362063Y-88679166D01*
X183367727Y-88656557D01*
X183375579Y-88634613D01*
X183385544Y-88613543D01*
X183397526Y-88593552D01*
X183411410Y-88574832D01*
X183427062Y-88557562D01*
X183444332Y-88541910D01*
X183463052Y-88528026D01*
X183483043Y-88516044D01*
X183504113Y-88506079D01*
X183526057Y-88498227D01*
X183548666Y-88492563D01*
X183571721Y-88489144D01*
X183595000Y-88488000D01*
X184070000Y-88488000D01*
X184093279Y-88489144D01*
X184093279Y-88489144D01*
G37*
D14*
G04 #@! TD*
G04 #@! TO.P,R119,1*
G04 #@! TO.N,+5VD*
X183832500Y-89013000D03*
D11*
G04 #@! TO.N,Net-(R119-Pad2)*
G04 #@! TO.C,R119*
G36*
X184093279Y-86739144D02*
X184116334Y-86742563D01*
X184138943Y-86748227D01*
X184160887Y-86756079D01*
X184181957Y-86766044D01*
X184201948Y-86778026D01*
X184220668Y-86791910D01*
X184237938Y-86807562D01*
X184253590Y-86824832D01*
X184267474Y-86843552D01*
X184279456Y-86863543D01*
X184289421Y-86884613D01*
X184297273Y-86906557D01*
X184302937Y-86929166D01*
X184306356Y-86952221D01*
X184307500Y-86975500D01*
X184307500Y-87550500D01*
X184306356Y-87573779D01*
X184302937Y-87596834D01*
X184297273Y-87619443D01*
X184289421Y-87641387D01*
X184279456Y-87662457D01*
X184267474Y-87682448D01*
X184253590Y-87701168D01*
X184237938Y-87718438D01*
X184220668Y-87734090D01*
X184201948Y-87747974D01*
X184181957Y-87759956D01*
X184160887Y-87769921D01*
X184138943Y-87777773D01*
X184116334Y-87783437D01*
X184093279Y-87786856D01*
X184070000Y-87788000D01*
X183595000Y-87788000D01*
X183571721Y-87786856D01*
X183548666Y-87783437D01*
X183526057Y-87777773D01*
X183504113Y-87769921D01*
X183483043Y-87759956D01*
X183463052Y-87747974D01*
X183444332Y-87734090D01*
X183427062Y-87718438D01*
X183411410Y-87701168D01*
X183397526Y-87682448D01*
X183385544Y-87662457D01*
X183375579Y-87641387D01*
X183367727Y-87619443D01*
X183362063Y-87596834D01*
X183358644Y-87573779D01*
X183357500Y-87550500D01*
X183357500Y-86975500D01*
X183358644Y-86952221D01*
X183362063Y-86929166D01*
X183367727Y-86906557D01*
X183375579Y-86884613D01*
X183385544Y-86863543D01*
X183397526Y-86843552D01*
X183411410Y-86824832D01*
X183427062Y-86807562D01*
X183444332Y-86791910D01*
X183463052Y-86778026D01*
X183483043Y-86766044D01*
X183504113Y-86756079D01*
X183526057Y-86748227D01*
X183548666Y-86742563D01*
X183571721Y-86739144D01*
X183595000Y-86738000D01*
X184070000Y-86738000D01*
X184093279Y-86739144D01*
X184093279Y-86739144D01*
G37*
D14*
G04 #@! TD*
G04 #@! TO.P,R119,2*
G04 #@! TO.N,Net-(R119-Pad2)*
X183832500Y-87263000D03*
D11*
G04 #@! TO.N,GND*
G04 #@! TO.C,R120*
G36*
X184093279Y-82929144D02*
X184116334Y-82932563D01*
X184138943Y-82938227D01*
X184160887Y-82946079D01*
X184181957Y-82956044D01*
X184201948Y-82968026D01*
X184220668Y-82981910D01*
X184237938Y-82997562D01*
X184253590Y-83014832D01*
X184267474Y-83033552D01*
X184279456Y-83053543D01*
X184289421Y-83074613D01*
X184297273Y-83096557D01*
X184302937Y-83119166D01*
X184306356Y-83142221D01*
X184307500Y-83165500D01*
X184307500Y-83740500D01*
X184306356Y-83763779D01*
X184302937Y-83786834D01*
X184297273Y-83809443D01*
X184289421Y-83831387D01*
X184279456Y-83852457D01*
X184267474Y-83872448D01*
X184253590Y-83891168D01*
X184237938Y-83908438D01*
X184220668Y-83924090D01*
X184201948Y-83937974D01*
X184181957Y-83949956D01*
X184160887Y-83959921D01*
X184138943Y-83967773D01*
X184116334Y-83973437D01*
X184093279Y-83976856D01*
X184070000Y-83978000D01*
X183595000Y-83978000D01*
X183571721Y-83976856D01*
X183548666Y-83973437D01*
X183526057Y-83967773D01*
X183504113Y-83959921D01*
X183483043Y-83949956D01*
X183463052Y-83937974D01*
X183444332Y-83924090D01*
X183427062Y-83908438D01*
X183411410Y-83891168D01*
X183397526Y-83872448D01*
X183385544Y-83852457D01*
X183375579Y-83831387D01*
X183367727Y-83809443D01*
X183362063Y-83786834D01*
X183358644Y-83763779D01*
X183357500Y-83740500D01*
X183357500Y-83165500D01*
X183358644Y-83142221D01*
X183362063Y-83119166D01*
X183367727Y-83096557D01*
X183375579Y-83074613D01*
X183385544Y-83053543D01*
X183397526Y-83033552D01*
X183411410Y-83014832D01*
X183427062Y-82997562D01*
X183444332Y-82981910D01*
X183463052Y-82968026D01*
X183483043Y-82956044D01*
X183504113Y-82946079D01*
X183526057Y-82938227D01*
X183548666Y-82932563D01*
X183571721Y-82929144D01*
X183595000Y-82928000D01*
X184070000Y-82928000D01*
X184093279Y-82929144D01*
X184093279Y-82929144D01*
G37*
D14*
G04 #@! TD*
G04 #@! TO.P,R120,2*
G04 #@! TO.N,GND*
X183832500Y-83453000D03*
D11*
G04 #@! TO.N,Net-(R119-Pad2)*
G04 #@! TO.C,R120*
G36*
X184093279Y-84679144D02*
X184116334Y-84682563D01*
X184138943Y-84688227D01*
X184160887Y-84696079D01*
X184181957Y-84706044D01*
X184201948Y-84718026D01*
X184220668Y-84731910D01*
X184237938Y-84747562D01*
X184253590Y-84764832D01*
X184267474Y-84783552D01*
X184279456Y-84803543D01*
X184289421Y-84824613D01*
X184297273Y-84846557D01*
X184302937Y-84869166D01*
X184306356Y-84892221D01*
X184307500Y-84915500D01*
X184307500Y-85490500D01*
X184306356Y-85513779D01*
X184302937Y-85536834D01*
X184297273Y-85559443D01*
X184289421Y-85581387D01*
X184279456Y-85602457D01*
X184267474Y-85622448D01*
X184253590Y-85641168D01*
X184237938Y-85658438D01*
X184220668Y-85674090D01*
X184201948Y-85687974D01*
X184181957Y-85699956D01*
X184160887Y-85709921D01*
X184138943Y-85717773D01*
X184116334Y-85723437D01*
X184093279Y-85726856D01*
X184070000Y-85728000D01*
X183595000Y-85728000D01*
X183571721Y-85726856D01*
X183548666Y-85723437D01*
X183526057Y-85717773D01*
X183504113Y-85709921D01*
X183483043Y-85699956D01*
X183463052Y-85687974D01*
X183444332Y-85674090D01*
X183427062Y-85658438D01*
X183411410Y-85641168D01*
X183397526Y-85622448D01*
X183385544Y-85602457D01*
X183375579Y-85581387D01*
X183367727Y-85559443D01*
X183362063Y-85536834D01*
X183358644Y-85513779D01*
X183357500Y-85490500D01*
X183357500Y-84915500D01*
X183358644Y-84892221D01*
X183362063Y-84869166D01*
X183367727Y-84846557D01*
X183375579Y-84824613D01*
X183385544Y-84803543D01*
X183397526Y-84783552D01*
X183411410Y-84764832D01*
X183427062Y-84747562D01*
X183444332Y-84731910D01*
X183463052Y-84718026D01*
X183483043Y-84706044D01*
X183504113Y-84696079D01*
X183526057Y-84688227D01*
X183548666Y-84682563D01*
X183571721Y-84679144D01*
X183595000Y-84678000D01*
X184070000Y-84678000D01*
X184093279Y-84679144D01*
X184093279Y-84679144D01*
G37*
D14*
G04 #@! TD*
G04 #@! TO.P,R120,1*
G04 #@! TO.N,Net-(R119-Pad2)*
X183832500Y-85203000D03*
D11*
G04 #@! TO.N,+5VD*
G04 #@! TO.C,R121*
G36*
X210318779Y-92934144D02*
X210341834Y-92937563D01*
X210364443Y-92943227D01*
X210386387Y-92951079D01*
X210407457Y-92961044D01*
X210427448Y-92973026D01*
X210446168Y-92986910D01*
X210463438Y-93002562D01*
X210479090Y-93019832D01*
X210492974Y-93038552D01*
X210504956Y-93058543D01*
X210514921Y-93079613D01*
X210522773Y-93101557D01*
X210528437Y-93124166D01*
X210531856Y-93147221D01*
X210533000Y-93170500D01*
X210533000Y-93745500D01*
X210531856Y-93768779D01*
X210528437Y-93791834D01*
X210522773Y-93814443D01*
X210514921Y-93836387D01*
X210504956Y-93857457D01*
X210492974Y-93877448D01*
X210479090Y-93896168D01*
X210463438Y-93913438D01*
X210446168Y-93929090D01*
X210427448Y-93942974D01*
X210407457Y-93954956D01*
X210386387Y-93964921D01*
X210364443Y-93972773D01*
X210341834Y-93978437D01*
X210318779Y-93981856D01*
X210295500Y-93983000D01*
X209820500Y-93983000D01*
X209797221Y-93981856D01*
X209774166Y-93978437D01*
X209751557Y-93972773D01*
X209729613Y-93964921D01*
X209708543Y-93954956D01*
X209688552Y-93942974D01*
X209669832Y-93929090D01*
X209652562Y-93913438D01*
X209636910Y-93896168D01*
X209623026Y-93877448D01*
X209611044Y-93857457D01*
X209601079Y-93836387D01*
X209593227Y-93814443D01*
X209587563Y-93791834D01*
X209584144Y-93768779D01*
X209583000Y-93745500D01*
X209583000Y-93170500D01*
X209584144Y-93147221D01*
X209587563Y-93124166D01*
X209593227Y-93101557D01*
X209601079Y-93079613D01*
X209611044Y-93058543D01*
X209623026Y-93038552D01*
X209636910Y-93019832D01*
X209652562Y-93002562D01*
X209669832Y-92986910D01*
X209688552Y-92973026D01*
X209708543Y-92961044D01*
X209729613Y-92951079D01*
X209751557Y-92943227D01*
X209774166Y-92937563D01*
X209797221Y-92934144D01*
X209820500Y-92933000D01*
X210295500Y-92933000D01*
X210318779Y-92934144D01*
X210318779Y-92934144D01*
G37*
D14*
G04 #@! TD*
G04 #@! TO.P,R121,1*
G04 #@! TO.N,+5VD*
X210058000Y-93458000D03*
D11*
G04 #@! TO.N,/SDA*
G04 #@! TO.C,R121*
G36*
X210318779Y-91184144D02*
X210341834Y-91187563D01*
X210364443Y-91193227D01*
X210386387Y-91201079D01*
X210407457Y-91211044D01*
X210427448Y-91223026D01*
X210446168Y-91236910D01*
X210463438Y-91252562D01*
X210479090Y-91269832D01*
X210492974Y-91288552D01*
X210504956Y-91308543D01*
X210514921Y-91329613D01*
X210522773Y-91351557D01*
X210528437Y-91374166D01*
X210531856Y-91397221D01*
X210533000Y-91420500D01*
X210533000Y-91995500D01*
X210531856Y-92018779D01*
X210528437Y-92041834D01*
X210522773Y-92064443D01*
X210514921Y-92086387D01*
X210504956Y-92107457D01*
X210492974Y-92127448D01*
X210479090Y-92146168D01*
X210463438Y-92163438D01*
X210446168Y-92179090D01*
X210427448Y-92192974D01*
X210407457Y-92204956D01*
X210386387Y-92214921D01*
X210364443Y-92222773D01*
X210341834Y-92228437D01*
X210318779Y-92231856D01*
X210295500Y-92233000D01*
X209820500Y-92233000D01*
X209797221Y-92231856D01*
X209774166Y-92228437D01*
X209751557Y-92222773D01*
X209729613Y-92214921D01*
X209708543Y-92204956D01*
X209688552Y-92192974D01*
X209669832Y-92179090D01*
X209652562Y-92163438D01*
X209636910Y-92146168D01*
X209623026Y-92127448D01*
X209611044Y-92107457D01*
X209601079Y-92086387D01*
X209593227Y-92064443D01*
X209587563Y-92041834D01*
X209584144Y-92018779D01*
X209583000Y-91995500D01*
X209583000Y-91420500D01*
X209584144Y-91397221D01*
X209587563Y-91374166D01*
X209593227Y-91351557D01*
X209601079Y-91329613D01*
X209611044Y-91308543D01*
X209623026Y-91288552D01*
X209636910Y-91269832D01*
X209652562Y-91252562D01*
X209669832Y-91236910D01*
X209688552Y-91223026D01*
X209708543Y-91211044D01*
X209729613Y-91201079D01*
X209751557Y-91193227D01*
X209774166Y-91187563D01*
X209797221Y-91184144D01*
X209820500Y-91183000D01*
X210295500Y-91183000D01*
X210318779Y-91184144D01*
X210318779Y-91184144D01*
G37*
D14*
G04 #@! TD*
G04 #@! TO.P,R121,2*
G04 #@! TO.N,/SDA*
X210058000Y-91708000D03*
D11*
G04 #@! TO.N,/SCL*
G04 #@! TO.C,R122*
G36*
X207778779Y-91184144D02*
X207801834Y-91187563D01*
X207824443Y-91193227D01*
X207846387Y-91201079D01*
X207867457Y-91211044D01*
X207887448Y-91223026D01*
X207906168Y-91236910D01*
X207923438Y-91252562D01*
X207939090Y-91269832D01*
X207952974Y-91288552D01*
X207964956Y-91308543D01*
X207974921Y-91329613D01*
X207982773Y-91351557D01*
X207988437Y-91374166D01*
X207991856Y-91397221D01*
X207993000Y-91420500D01*
X207993000Y-91995500D01*
X207991856Y-92018779D01*
X207988437Y-92041834D01*
X207982773Y-92064443D01*
X207974921Y-92086387D01*
X207964956Y-92107457D01*
X207952974Y-92127448D01*
X207939090Y-92146168D01*
X207923438Y-92163438D01*
X207906168Y-92179090D01*
X207887448Y-92192974D01*
X207867457Y-92204956D01*
X207846387Y-92214921D01*
X207824443Y-92222773D01*
X207801834Y-92228437D01*
X207778779Y-92231856D01*
X207755500Y-92233000D01*
X207280500Y-92233000D01*
X207257221Y-92231856D01*
X207234166Y-92228437D01*
X207211557Y-92222773D01*
X207189613Y-92214921D01*
X207168543Y-92204956D01*
X207148552Y-92192974D01*
X207129832Y-92179090D01*
X207112562Y-92163438D01*
X207096910Y-92146168D01*
X207083026Y-92127448D01*
X207071044Y-92107457D01*
X207061079Y-92086387D01*
X207053227Y-92064443D01*
X207047563Y-92041834D01*
X207044144Y-92018779D01*
X207043000Y-91995500D01*
X207043000Y-91420500D01*
X207044144Y-91397221D01*
X207047563Y-91374166D01*
X207053227Y-91351557D01*
X207061079Y-91329613D01*
X207071044Y-91308543D01*
X207083026Y-91288552D01*
X207096910Y-91269832D01*
X207112562Y-91252562D01*
X207129832Y-91236910D01*
X207148552Y-91223026D01*
X207168543Y-91211044D01*
X207189613Y-91201079D01*
X207211557Y-91193227D01*
X207234166Y-91187563D01*
X207257221Y-91184144D01*
X207280500Y-91183000D01*
X207755500Y-91183000D01*
X207778779Y-91184144D01*
X207778779Y-91184144D01*
G37*
D14*
G04 #@! TD*
G04 #@! TO.P,R122,2*
G04 #@! TO.N,/SCL*
X207518000Y-91708000D03*
D11*
G04 #@! TO.N,+5VD*
G04 #@! TO.C,R122*
G36*
X207778779Y-92934144D02*
X207801834Y-92937563D01*
X207824443Y-92943227D01*
X207846387Y-92951079D01*
X207867457Y-92961044D01*
X207887448Y-92973026D01*
X207906168Y-92986910D01*
X207923438Y-93002562D01*
X207939090Y-93019832D01*
X207952974Y-93038552D01*
X207964956Y-93058543D01*
X207974921Y-93079613D01*
X207982773Y-93101557D01*
X207988437Y-93124166D01*
X207991856Y-93147221D01*
X207993000Y-93170500D01*
X207993000Y-93745500D01*
X207991856Y-93768779D01*
X207988437Y-93791834D01*
X207982773Y-93814443D01*
X207974921Y-93836387D01*
X207964956Y-93857457D01*
X207952974Y-93877448D01*
X207939090Y-93896168D01*
X207923438Y-93913438D01*
X207906168Y-93929090D01*
X207887448Y-93942974D01*
X207867457Y-93954956D01*
X207846387Y-93964921D01*
X207824443Y-93972773D01*
X207801834Y-93978437D01*
X207778779Y-93981856D01*
X207755500Y-93983000D01*
X207280500Y-93983000D01*
X207257221Y-93981856D01*
X207234166Y-93978437D01*
X207211557Y-93972773D01*
X207189613Y-93964921D01*
X207168543Y-93954956D01*
X207148552Y-93942974D01*
X207129832Y-93929090D01*
X207112562Y-93913438D01*
X207096910Y-93896168D01*
X207083026Y-93877448D01*
X207071044Y-93857457D01*
X207061079Y-93836387D01*
X207053227Y-93814443D01*
X207047563Y-93791834D01*
X207044144Y-93768779D01*
X207043000Y-93745500D01*
X207043000Y-93170500D01*
X207044144Y-93147221D01*
X207047563Y-93124166D01*
X207053227Y-93101557D01*
X207061079Y-93079613D01*
X207071044Y-93058543D01*
X207083026Y-93038552D01*
X207096910Y-93019832D01*
X207112562Y-93002562D01*
X207129832Y-92986910D01*
X207148552Y-92973026D01*
X207168543Y-92961044D01*
X207189613Y-92951079D01*
X207211557Y-92943227D01*
X207234166Y-92937563D01*
X207257221Y-92934144D01*
X207280500Y-92933000D01*
X207755500Y-92933000D01*
X207778779Y-92934144D01*
X207778779Y-92934144D01*
G37*
D14*
G04 #@! TD*
G04 #@! TO.P,R122,1*
G04 #@! TO.N,+5VD*
X207518000Y-93458000D03*
D11*
G04 #@! TO.N,GND*
G04 #@! TO.C,J102*
G36*
X203082505Y-88182204D02*
X203106773Y-88185804D01*
X203130572Y-88191765D01*
X203153671Y-88200030D01*
X203175850Y-88210520D01*
X203196893Y-88223132D01*
X203216599Y-88237747D01*
X203234777Y-88254223D01*
X203251253Y-88272401D01*
X203265868Y-88292107D01*
X203278480Y-88313150D01*
X203288970Y-88335329D01*
X203297235Y-88358428D01*
X203303196Y-88382227D01*
X203306796Y-88406495D01*
X203308000Y-88430999D01*
X203308000Y-90131001D01*
X203306796Y-90155505D01*
X203303196Y-90179773D01*
X203297235Y-90203572D01*
X203288970Y-90226671D01*
X203278480Y-90248850D01*
X203265868Y-90269893D01*
X203251253Y-90289599D01*
X203234777Y-90307777D01*
X203216599Y-90324253D01*
X203196893Y-90338868D01*
X203175850Y-90351480D01*
X203153671Y-90361970D01*
X203130572Y-90370235D01*
X203106773Y-90376196D01*
X203082505Y-90379796D01*
X203058001Y-90381000D01*
X201817999Y-90381000D01*
X201793495Y-90379796D01*
X201769227Y-90376196D01*
X201745428Y-90370235D01*
X201722329Y-90361970D01*
X201700150Y-90351480D01*
X201679107Y-90338868D01*
X201659401Y-90324253D01*
X201641223Y-90307777D01*
X201624747Y-90289599D01*
X201610132Y-90269893D01*
X201597520Y-90248850D01*
X201587030Y-90226671D01*
X201578765Y-90203572D01*
X201572804Y-90179773D01*
X201569204Y-90155505D01*
X201568000Y-90131001D01*
X201568000Y-88430999D01*
X201569204Y-88406495D01*
X201572804Y-88382227D01*
X201578765Y-88358428D01*
X201587030Y-88335329D01*
X201597520Y-88313150D01*
X201610132Y-88292107D01*
X201624747Y-88272401D01*
X201641223Y-88254223D01*
X201659401Y-88237747D01*
X201679107Y-88223132D01*
X201700150Y-88210520D01*
X201722329Y-88200030D01*
X201745428Y-88191765D01*
X201769227Y-88185804D01*
X201793495Y-88182204D01*
X201817999Y-88181000D01*
X203058001Y-88181000D01*
X203082505Y-88182204D01*
X203082505Y-88182204D01*
G37*
D17*
G04 #@! TD*
G04 #@! TO.P,J102,1*
G04 #@! TO.N,GND*
X202438000Y-89281000D03*
D18*
G04 #@! TO.P,J102,2*
G04 #@! TO.N,+5VD*
X204978000Y-89281000D03*
G04 #@! TO.P,J102,3*
G04 #@! TO.N,/SCL*
X207518000Y-89281000D03*
G04 #@! TO.P,J102,4*
G04 #@! TO.N,/SDA*
X210058000Y-89281000D03*
G04 #@! TD*
D11*
G04 #@! TO.N,/M1A*
G04 #@! TO.C,J1*
G36*
X202744505Y-21061204D02*
X202768773Y-21064804D01*
X202792572Y-21070765D01*
X202815671Y-21079030D01*
X202837850Y-21089520D01*
X202858893Y-21102132D01*
X202878599Y-21116747D01*
X202896777Y-21133223D01*
X202913253Y-21151401D01*
X202927868Y-21171107D01*
X202940480Y-21192150D01*
X202950970Y-21214329D01*
X202959235Y-21237428D01*
X202965196Y-21261227D01*
X202968796Y-21285495D01*
X202970000Y-21309999D01*
X202970000Y-24410001D01*
X202968796Y-24434505D01*
X202965196Y-24458773D01*
X202959235Y-24482572D01*
X202950970Y-24505671D01*
X202940480Y-24527850D01*
X202927868Y-24548893D01*
X202913253Y-24568599D01*
X202896777Y-24586777D01*
X202878599Y-24603253D01*
X202858893Y-24617868D01*
X202837850Y-24630480D01*
X202815671Y-24640970D01*
X202792572Y-24649235D01*
X202768773Y-24655196D01*
X202744505Y-24658796D01*
X202720001Y-24660000D01*
X201139999Y-24660000D01*
X201115495Y-24658796D01*
X201091227Y-24655196D01*
X201067428Y-24649235D01*
X201044329Y-24640970D01*
X201022150Y-24630480D01*
X201001107Y-24617868D01*
X200981401Y-24603253D01*
X200963223Y-24586777D01*
X200946747Y-24568599D01*
X200932132Y-24548893D01*
X200919520Y-24527850D01*
X200909030Y-24505671D01*
X200900765Y-24482572D01*
X200894804Y-24458773D01*
X200891204Y-24434505D01*
X200890000Y-24410001D01*
X200890000Y-21309999D01*
X200891204Y-21285495D01*
X200894804Y-21261227D01*
X200900765Y-21237428D01*
X200909030Y-21214329D01*
X200919520Y-21192150D01*
X200932132Y-21171107D01*
X200946747Y-21151401D01*
X200963223Y-21133223D01*
X200981401Y-21116747D01*
X201001107Y-21102132D01*
X201022150Y-21089520D01*
X201044329Y-21079030D01*
X201067428Y-21070765D01*
X201091227Y-21064804D01*
X201115495Y-21061204D01*
X201139999Y-21060000D01*
X202720001Y-21060000D01*
X202744505Y-21061204D01*
X202744505Y-21061204D01*
G37*
D19*
G04 #@! TD*
G04 #@! TO.P,J1,1*
G04 #@! TO.N,/M1A*
X201930000Y-22860000D03*
D20*
G04 #@! TO.P,J1,2*
G04 #@! TO.N,/M1B*
X196850000Y-22860000D03*
G04 #@! TD*
D21*
G04 #@! TO.P,U102,1*
G04 #@! TO.N,Net-(U102-Pad1)*
X184575000Y-60672000D03*
G04 #@! TO.P,U102,2*
G04 #@! TO.N,/Sheet5DC0EE77/DIR1*
X184575000Y-61322000D03*
G04 #@! TO.P,U102,3*
G04 #@! TO.N,/RSTIN0*
X184575000Y-61972000D03*
G04 #@! TO.P,U102,4*
G04 #@! TO.N,/RSTIN1*
X184575000Y-62622000D03*
G04 #@! TO.P,U102,5*
G04 #@! TO.N,/RSTIN2*
X184575000Y-63272000D03*
G04 #@! TO.P,U102,6*
G04 #@! TO.N,/RSTIN3*
X184575000Y-63922000D03*
G04 #@! TO.P,U102,7*
G04 #@! TO.N,/RSTIN4*
X184575000Y-64572000D03*
G04 #@! TO.P,U102,8*
G04 #@! TO.N,/RSTIN5*
X184575000Y-65222000D03*
G04 #@! TO.P,U102,9*
G04 #@! TO.N,+5VD*
X184575000Y-65872000D03*
G04 #@! TO.P,U102,10*
G04 #@! TO.N,GND*
X184575000Y-66522000D03*
G04 #@! TO.P,U102,11*
G04 #@! TO.N,N/C*
X184575000Y-67172000D03*
G04 #@! TO.P,U102,12*
G04 #@! TO.N,/SDA*
X184575000Y-67822000D03*
G04 #@! TO.P,U102,13*
G04 #@! TO.N,/SCL*
X184575000Y-68472000D03*
G04 #@! TO.P,U102,14*
G04 #@! TO.N,N/C*
X184575000Y-69122000D03*
G04 #@! TO.P,U102,15*
G04 #@! TO.N,Net-(R111-Pad2)*
X177375000Y-69122000D03*
G04 #@! TO.P,U102,16*
G04 #@! TO.N,Net-(R107-Pad2)*
X177375000Y-68472000D03*
G04 #@! TO.P,U102,17*
G04 #@! TO.N,Net-(R103-Pad2)*
X177375000Y-67822000D03*
G04 #@! TO.P,U102,18*
G04 #@! TO.N,N/C*
X177375000Y-67172000D03*
G04 #@! TO.P,U102,19*
X177375000Y-66522000D03*
G04 #@! TO.P,U102,20*
X177375000Y-65872000D03*
G04 #@! TO.P,U102,21*
X177375000Y-65222000D03*
G04 #@! TO.P,U102,22*
X177375000Y-64572000D03*
G04 #@! TO.P,U102,23*
G04 #@! TO.N,/IN0*
X177375000Y-63922000D03*
G04 #@! TO.P,U102,24*
G04 #@! TO.N,/IN1*
X177375000Y-63272000D03*
G04 #@! TO.P,U102,25*
G04 #@! TO.N,/IN2*
X177375000Y-62622000D03*
G04 #@! TO.P,U102,26*
G04 #@! TO.N,/IN3*
X177375000Y-61972000D03*
G04 #@! TO.P,U102,27*
G04 #@! TO.N,/IN4*
X177375000Y-61322000D03*
G04 #@! TO.P,U102,28*
G04 #@! TO.N,/IN5*
X177375000Y-60672000D03*
G04 #@! TD*
D22*
G04 #@! TO.P,U104,1*
G04 #@! TO.N,Net-(R101-Pad2)*
X177774799Y-81136506D03*
G04 #@! TO.P,U104,2*
G04 #@! TO.N,Net-(R105-Pad2)*
X177774799Y-80486506D03*
G04 #@! TO.P,U104,3*
G04 #@! TO.N,Net-(R109-Pad2)*
X177774799Y-79836506D03*
G04 #@! TO.P,U104,4*
G04 #@! TO.N,Net-(R113-Pad2)*
X177774799Y-79186506D03*
G04 #@! TO.P,U104,5*
G04 #@! TO.N,Net-(R115-Pad2)*
X177774799Y-78536506D03*
G04 #@! TO.P,U104,6*
G04 #@! TO.N,N/C*
X177774799Y-77886506D03*
G04 #@! TO.P,U104,7*
X177774799Y-77236506D03*
G04 #@! TO.P,U104,8*
X177774799Y-76586506D03*
G04 #@! TO.P,U104,9*
X177774799Y-75936506D03*
G04 #@! TO.P,U104,10*
X177774799Y-75286506D03*
G04 #@! TO.P,U104,11*
X177774799Y-74636506D03*
G04 #@! TO.P,U104,12*
X177774799Y-73986506D03*
G04 #@! TO.P,U104,13*
X177774799Y-73336506D03*
G04 #@! TO.P,U104,14*
G04 #@! TO.N,GND*
X177774799Y-72686506D03*
G04 #@! TO.P,U104,15*
G04 #@! TO.N,N/C*
X183474799Y-72686506D03*
G04 #@! TO.P,U104,16*
X183474799Y-73336506D03*
G04 #@! TO.P,U104,17*
X183474799Y-73986506D03*
G04 #@! TO.P,U104,18*
X183474799Y-74636506D03*
G04 #@! TO.P,U104,19*
X183474799Y-75286506D03*
G04 #@! TO.P,U104,20*
X183474799Y-75936506D03*
G04 #@! TO.P,U104,21*
X183474799Y-76586506D03*
G04 #@! TO.P,U104,22*
X183474799Y-77236506D03*
G04 #@! TO.P,U104,23*
G04 #@! TO.N,Net-(R125-Pad1)*
X183474799Y-77886506D03*
G04 #@! TO.P,U104,24*
G04 #@! TO.N,Net-(R123-Pad2)*
X183474799Y-78536506D03*
G04 #@! TO.P,U104,25*
G04 #@! TO.N,N/C*
X183474799Y-79186506D03*
G04 #@! TO.P,U104,26*
G04 #@! TO.N,/SCL*
X183474799Y-79836506D03*
G04 #@! TO.P,U104,27*
G04 #@! TO.N,/SDA*
X183474799Y-80486506D03*
G04 #@! TO.P,U104,28*
G04 #@! TO.N,N/C*
X183474799Y-81136506D03*
G04 #@! TD*
D11*
G04 #@! TO.N,GND*
G04 #@! TO.C,J101*
G36*
X180517504Y-33391204D02*
X180541773Y-33394804D01*
X180565571Y-33400765D01*
X180588671Y-33409030D01*
X180610849Y-33419520D01*
X180631893Y-33432133D01*
X180651598Y-33446747D01*
X180669777Y-33463223D01*
X180686253Y-33481402D01*
X180700867Y-33501107D01*
X180713480Y-33522151D01*
X180723970Y-33544329D01*
X180732235Y-33567429D01*
X180738196Y-33591227D01*
X180741796Y-33615496D01*
X180743000Y-33640000D01*
X180743000Y-34940000D01*
X180741796Y-34964504D01*
X180738196Y-34988773D01*
X180732235Y-35012571D01*
X180723970Y-35035671D01*
X180713480Y-35057849D01*
X180700867Y-35078893D01*
X180686253Y-35098598D01*
X180669777Y-35116777D01*
X180651598Y-35133253D01*
X180631893Y-35147867D01*
X180610849Y-35160480D01*
X180588671Y-35170970D01*
X180565571Y-35179235D01*
X180541773Y-35185196D01*
X180517504Y-35188796D01*
X180493000Y-35190000D01*
X177393000Y-35190000D01*
X177368496Y-35188796D01*
X177344227Y-35185196D01*
X177320429Y-35179235D01*
X177297329Y-35170970D01*
X177275151Y-35160480D01*
X177254107Y-35147867D01*
X177234402Y-35133253D01*
X177216223Y-35116777D01*
X177199747Y-35098598D01*
X177185133Y-35078893D01*
X177172520Y-35057849D01*
X177162030Y-35035671D01*
X177153765Y-35012571D01*
X177147804Y-34988773D01*
X177144204Y-34964504D01*
X177143000Y-34940000D01*
X177143000Y-33640000D01*
X177144204Y-33615496D01*
X177147804Y-33591227D01*
X177153765Y-33567429D01*
X177162030Y-33544329D01*
X177172520Y-33522151D01*
X177185133Y-33501107D01*
X177199747Y-33481402D01*
X177216223Y-33463223D01*
X177234402Y-33446747D01*
X177254107Y-33432133D01*
X177275151Y-33419520D01*
X177297329Y-33409030D01*
X177320429Y-33400765D01*
X177344227Y-33394804D01*
X177368496Y-33391204D01*
X177393000Y-33390000D01*
X180493000Y-33390000D01*
X180517504Y-33391204D01*
X180517504Y-33391204D01*
G37*
D23*
G04 #@! TD*
G04 #@! TO.P,J101,1*
G04 #@! TO.N,GND*
X178943000Y-34290000D03*
D24*
G04 #@! TO.P,J101,2*
G04 #@! TO.N,+5VD*
X178943000Y-38100000D03*
G04 #@! TO.P,J101,3*
G04 #@! TO.N,+15V*
X178943000Y-41910000D03*
G04 #@! TD*
D25*
G04 #@! TO.N,*
X177482500Y-22288500D03*
X177419000Y-91503500D03*
X223012000Y-91440000D03*
X223012000Y-22288500D03*
D26*
G04 #@! TO.N,Net-(C205-Pad2)*
X204470000Y-38100000D03*
X209550000Y-38100000D03*
X209550000Y-35560000D03*
X204470000Y-35560000D03*
X205740000Y-34290000D03*
X208280000Y-34290000D03*
X209550000Y-33020000D03*
X204470000Y-33020000D03*
X207010000Y-33020000D03*
D27*
G04 #@! TO.N,GND*
X206756000Y-58420000D03*
X215138000Y-53594000D03*
X199644000Y-47244000D03*
X185166000Y-47244000D03*
X211582000Y-23114000D03*
X217170000Y-32117000D03*
X186944000Y-23114000D03*
X184912000Y-34798000D03*
X216662000Y-48119000D03*
D26*
X192278000Y-54102000D03*
X198374000Y-53975000D03*
X216662000Y-48119000D03*
X185216706Y-75033886D03*
X204611000Y-62293500D03*
X204917000Y-69215000D03*
D27*
X213868000Y-58295490D03*
D26*
X188277500Y-85153500D03*
X212344000Y-84137500D03*
X210883500Y-79629000D03*
X176276000Y-71374000D03*
X182054500Y-83121500D03*
X194500500Y-68897500D03*
X195326000Y-79883000D03*
X213360000Y-74549000D03*
X211074000Y-62293500D03*
X189484000Y-68897500D03*
D27*
G04 #@! TO.N,+5VD*
X199390000Y-56896000D03*
X215392000Y-56642000D03*
D26*
X186817000Y-66738500D03*
X177800000Y-56642000D03*
X201866500Y-60198000D03*
X206629000Y-56896000D03*
X177673000Y-82804000D03*
X201739500Y-93218000D03*
X187960000Y-87122000D03*
X200469500Y-75057000D03*
X202450913Y-74967212D03*
G04 #@! TO.N,Net-(D403-Pad1)*
X218059000Y-69532500D03*
X209677000Y-71715020D03*
G04 #@! TO.N,/Sheet5DBEC701/S1*
X200571568Y-70047892D03*
X198068509Y-68971672D03*
G04 #@! TO.N,/Sheet5DBEC701/S2*
X197231000Y-63309500D03*
X199961500Y-65341500D03*
G04 #@! TO.N,/Sheet5DC0EE77/PWM1*
X206629000Y-55626000D03*
X185569338Y-55603662D03*
D27*
G04 #@! TO.N,Net-(Q201-Pad3)*
X188722000Y-54102000D03*
X206030928Y-54251928D03*
D26*
G04 #@! TO.N,/Sheet5DC0EE77/DIR1*
X192214500Y-61214000D03*
G04 #@! TO.N,Net-(C205-Pad2)*
X207010000Y-35995000D03*
X207010000Y-38100000D03*
D27*
G04 #@! TO.N,+15V*
X196215000Y-48880000D03*
X211455000Y-48895000D03*
X199390000Y-29464000D03*
X214122000Y-34036000D03*
D26*
X180594000Y-55753000D03*
G04 #@! TO.N,Net-(C207-Pad2)*
X189230000Y-38100000D03*
X194310000Y-38100000D03*
X194310000Y-35560000D03*
X189230000Y-35560000D03*
X193040000Y-34290000D03*
X190500000Y-34290000D03*
X189230000Y-33020000D03*
X194310000Y-33020000D03*
X191770000Y-33020000D03*
X191770000Y-35995000D03*
X191770000Y-38100000D03*
G04 #@! TO.N,/IN0*
X180584588Y-64461912D03*
X202489510Y-69541572D03*
X187840515Y-70610586D03*
G04 #@! TO.N,/IN3*
X213440002Y-66026000D03*
G04 #@! TO.N,/IN1*
X180403500Y-63182500D03*
X196532500Y-69151500D03*
X188749968Y-70194751D03*
G04 #@! TO.N,/IN4*
X191377010Y-74543468D03*
X188710010Y-59892769D03*
X211593990Y-73723500D03*
G04 #@! TO.N,/IN2*
X192468500Y-60134500D03*
X205867000Y-82740500D03*
X195135500Y-63755265D03*
X192468500Y-60134500D03*
X193675000Y-59880500D03*
X193675000Y-58102500D03*
X196469000Y-82740500D03*
G04 #@! TO.N,/IN5*
X188180349Y-81125200D03*
X210693000Y-81788000D03*
X187209990Y-59024497D03*
G04 #@! TO.N,Net-(R101-Pad2)*
X180263706Y-81129886D03*
G04 #@! TO.N,Net-(R103-Pad2)*
X180657500Y-66548000D03*
G04 #@! TO.N,Net-(R105-Pad2)*
X180263706Y-79451506D03*
G04 #@! TO.N,Net-(R107-Pad2)*
X180594000Y-68072000D03*
G04 #@! TO.N,Net-(R109-Pad2)*
X180263706Y-77827886D03*
G04 #@! TO.N,Net-(R111-Pad2)*
X180594000Y-69786500D03*
G04 #@! TO.N,Net-(R113-Pad2)*
X180263706Y-76113386D03*
G04 #@! TO.N,Net-(R115-Pad2)*
X180200206Y-74462386D03*
G04 #@! TO.N,Net-(R117-Pad2)*
X185483500Y-86296500D03*
G04 #@! TO.N,Net-(R119-Pad2)*
X183960508Y-86152995D03*
G04 #@! TO.N,/SDA*
X187400490Y-67818000D03*
X187122510Y-80685366D03*
G04 #@! TO.N,/SCL*
X186499500Y-68580000D03*
X186453006Y-79836506D03*
X186372500Y-81915000D03*
G04 #@! TO.N,Net-(D201-Pad1)*
X215519000Y-51689000D03*
X186055000Y-54229000D03*
G04 #@! TO.N,/IS2*
X175831500Y-84582000D03*
X190944500Y-57721500D03*
G04 #@! TO.N,/RSTIN5*
X191885010Y-77008400D03*
X192377032Y-66377439D03*
G04 #@! TO.N,/RSTIN4*
X192242890Y-65268517D03*
X193073031Y-75725248D03*
G04 #@! TO.N,/RSTIN1*
X192012010Y-62738000D03*
X193468717Y-65298444D03*
G04 #@! TO.N,/RSTIN0*
X195335965Y-65755288D03*
X192794153Y-62114882D03*
D27*
G04 #@! TO.N,Net-(U103-Pad1)*
X197104000Y-88392000D03*
D26*
X189484000Y-92265500D03*
G04 #@! TO.N,/STOPMOTOR*
X188860990Y-76390500D03*
G04 #@! TO.N,Net-(R123-Pad2)*
X180200206Y-72847506D03*
G04 #@! TO.N,Net-(U102-Pad1)*
X190246000Y-59944000D03*
G04 #@! TD*
D28*
G04 #@! TO.N,GND*
X199644000Y-47244000D02*
X185166000Y-47244000D01*
D29*
X211582000Y-23114000D02*
X211582000Y-26529000D01*
X211582000Y-26529000D02*
X217170000Y-32117000D01*
D30*
X216662000Y-54102000D02*
X216662000Y-57540004D01*
X215138000Y-53594000D02*
X216154000Y-53594000D01*
X216154000Y-53594000D02*
X216662000Y-54102000D01*
D29*
X216662000Y-57540004D02*
X216544004Y-57658000D01*
D31*
X184912000Y-46990000D02*
X185166000Y-47244000D01*
X184912000Y-34798000D02*
X184912000Y-46990000D01*
D29*
X198247000Y-54102000D02*
X198374000Y-53975000D01*
X192278000Y-54102000D02*
X198247000Y-54102000D01*
X184912000Y-34798000D02*
X184912000Y-25146000D01*
X184912000Y-25146000D02*
X186944000Y-23114000D01*
X185216706Y-76278386D02*
X185216706Y-75033886D01*
X204611000Y-62293500D02*
X211074000Y-62293500D01*
X222186000Y-55785000D02*
X222186000Y-60325000D01*
X222186000Y-54610000D02*
X222186000Y-55785000D01*
X222186000Y-60325000D02*
X222186000Y-66040000D01*
X222186000Y-66040000D02*
X222186000Y-67215000D01*
X222186000Y-71882000D02*
X222186000Y-77724000D01*
X222186000Y-78899000D02*
X222186000Y-83439000D01*
X222186000Y-77724000D02*
X222186000Y-78899000D01*
X222186000Y-69215000D02*
X222186000Y-71882000D01*
X222186000Y-67215000D02*
X222186000Y-69215000D01*
D30*
X216544004Y-57658000D02*
X215906514Y-58295490D01*
X215906514Y-58295490D02*
X214716528Y-58295490D01*
D29*
X213743490Y-58420000D02*
X213868000Y-58295490D01*
D30*
X214716528Y-58295490D02*
X213868000Y-58295490D01*
D29*
X206756000Y-58420000D02*
X213743490Y-58420000D01*
X183832500Y-83453000D02*
X185483500Y-83453000D01*
X186577000Y-83453000D02*
X188277500Y-85153500D01*
X185483500Y-83453000D02*
X186577000Y-83453000D01*
X185216706Y-73242294D02*
X185561000Y-72898000D01*
X185216706Y-75033886D02*
X185216706Y-73242294D01*
X183400000Y-66522000D02*
X184575000Y-66522000D01*
X183070500Y-66851500D02*
X183400000Y-66522000D01*
X183070500Y-70231000D02*
X183070500Y-66851500D01*
X185561000Y-72898000D02*
X185561000Y-71896000D01*
X185561000Y-71896000D02*
X184531000Y-70866000D01*
X184531000Y-70866000D02*
X183705500Y-70866000D01*
X183705500Y-70866000D02*
X183070500Y-70231000D01*
X222186000Y-53339500D02*
X222186000Y-54610000D01*
X221840501Y-52994001D02*
X222186000Y-53339500D01*
X188569005Y-77820500D02*
X193519500Y-77820500D01*
X185782391Y-75033886D02*
X188569005Y-77820500D01*
X193519500Y-77820500D02*
X194119500Y-77820500D01*
X185216706Y-75033886D02*
X185782391Y-75033886D01*
X212344000Y-84137500D02*
X213487000Y-85280500D01*
X222186000Y-83714000D02*
X222186000Y-83439000D01*
X220619500Y-85280500D02*
X222186000Y-83714000D01*
X213487000Y-85280500D02*
X220619500Y-85280500D01*
X212344000Y-81089500D02*
X210883500Y-79629000D01*
X212344000Y-84137500D02*
X212344000Y-81089500D01*
X177588506Y-72686506D02*
X176276000Y-71374000D01*
X177774799Y-72686506D02*
X177588506Y-72686506D01*
X183197500Y-71374000D02*
X183705500Y-70866000D01*
X176276000Y-71374000D02*
X183197500Y-71374000D01*
X182386000Y-83453000D02*
X182054500Y-83121500D01*
X183832500Y-83453000D02*
X182386000Y-83453000D01*
X194183000Y-68580000D02*
X194500500Y-68897500D01*
X194183000Y-67343000D02*
X194183000Y-68580000D01*
X194500500Y-68897500D02*
X193934815Y-68897500D01*
X185561000Y-72323000D02*
X185561000Y-72898000D01*
X188456322Y-68897500D02*
X185561000Y-71792822D01*
X185561000Y-71792822D02*
X185561000Y-72323000D01*
X193934815Y-68897500D02*
X188456322Y-68897500D01*
X194119500Y-78676500D02*
X194119500Y-77820500D01*
X195326000Y-79883000D02*
X194119500Y-78676500D01*
X213360000Y-77152500D02*
X210883500Y-79629000D01*
X213360000Y-74549000D02*
X213360000Y-77152500D01*
X216789000Y-49094528D02*
X216789000Y-52994001D01*
X216662000Y-48119000D02*
X216662000Y-48967528D01*
X216662000Y-48967528D02*
X216789000Y-49094528D01*
X216789000Y-52994001D02*
X221840501Y-52994001D01*
D28*
X213219000Y-48119000D02*
X212344000Y-47244000D01*
X216662000Y-48119000D02*
X213219000Y-48119000D01*
X212344000Y-47244000D02*
X199644000Y-47244000D01*
D29*
X206756000Y-60148500D02*
X206756000Y-58420000D01*
X204611000Y-62293500D02*
X206756000Y-60148500D01*
X211074000Y-62357000D02*
X211074000Y-62293500D01*
X216753999Y-52994001D02*
X216154000Y-53594000D01*
X216789000Y-52994001D02*
X216753999Y-52994001D01*
D30*
G04 #@! TO.N,+5VD*
X213360000Y-56642000D02*
X215392000Y-56642000D01*
X213106000Y-56896000D02*
X213360000Y-56642000D01*
X177800000Y-56642000D02*
X199136000Y-56642000D01*
X199136000Y-56642000D02*
X199390000Y-56896000D01*
X179070000Y-38100000D02*
X175260000Y-38100000D01*
X175260000Y-38100000D02*
X174498000Y-38862000D01*
X174498000Y-38862000D02*
X174498000Y-53340000D01*
X174498000Y-53340000D02*
X177800000Y-56642000D01*
X210058000Y-93458000D02*
X207518000Y-93458000D01*
X207518000Y-93458000D02*
X205599000Y-93458000D01*
X204978000Y-92837000D02*
X204978000Y-89281000D01*
X205599000Y-93458000D02*
X204978000Y-92837000D01*
D29*
X220186000Y-55785000D02*
X220186000Y-60325000D01*
X220186000Y-54610000D02*
X220186000Y-55785000D01*
X220186000Y-61500000D02*
X220186000Y-66040000D01*
X220186000Y-60325000D02*
X220186000Y-61500000D01*
X220186000Y-66040000D02*
X220186000Y-71882000D01*
X220186000Y-73057000D02*
X220186000Y-77724000D01*
X220186000Y-71882000D02*
X220186000Y-73057000D01*
X220186000Y-77724000D02*
X220186000Y-83439000D01*
X185950500Y-65872000D02*
X184575000Y-65872000D01*
X186817000Y-66738500D02*
X185950500Y-65872000D01*
X201803000Y-60261500D02*
X201866500Y-60198000D01*
X201803000Y-61943000D02*
X201803000Y-60261500D01*
D30*
X213106000Y-56896000D02*
X206629000Y-56896000D01*
X206629000Y-56896000D02*
X199390000Y-56896000D01*
D29*
X183832500Y-89013000D02*
X185483500Y-89013000D01*
X177673000Y-82853500D02*
X177673000Y-82804000D01*
X183832500Y-89013000D02*
X177673000Y-82853500D01*
X204597000Y-93218000D02*
X204978000Y-92837000D01*
X201739500Y-93218000D02*
X204597000Y-93218000D01*
X185483500Y-89013000D02*
X186069000Y-89013000D01*
X186069000Y-89013000D02*
X187960000Y-87122000D01*
X187960000Y-87122000D02*
X187960000Y-92519500D01*
X188658500Y-93218000D02*
X201739500Y-93218000D01*
X187960000Y-92519500D02*
X188658500Y-93218000D01*
X201739500Y-72420500D02*
X201739500Y-74255799D01*
X202050914Y-74567213D02*
X202450913Y-74967212D01*
X202361125Y-75057000D02*
X202450913Y-74967212D01*
X201739500Y-74255799D02*
X202050914Y-74567213D01*
X200469500Y-75057000D02*
X202361125Y-75057000D01*
G04 #@! TO.N,Net-(D403-Pad1)*
X211859520Y-69532500D02*
X209677000Y-71715020D01*
X218059000Y-69532500D02*
X211859520Y-69532500D01*
G04 #@! TO.N,Net-(D501-Pad1)*
X199199500Y-72420500D02*
X197929500Y-72420500D01*
X208188500Y-64960500D02*
X208188500Y-67437000D01*
X208188500Y-71021000D02*
X208224000Y-71056500D01*
X208188500Y-67437000D02*
X208188500Y-71021000D01*
X208252000Y-80609500D02*
X208287500Y-80645000D01*
X208252000Y-77724000D02*
X208252000Y-80609500D01*
X208224000Y-72517000D02*
X208224000Y-73850500D01*
X208224000Y-71056500D02*
X208224000Y-72517000D01*
X187311000Y-72898000D02*
X190881000Y-72898000D01*
X197798113Y-70973011D02*
X197929500Y-71104398D01*
X192805985Y-70973015D02*
X197798113Y-70973011D01*
X197929500Y-71370500D02*
X197929500Y-72420500D01*
X197929500Y-71104398D02*
X197929500Y-71370500D01*
X190881000Y-72898000D02*
X192805985Y-70973015D01*
X202692000Y-70993000D02*
X199577000Y-70993000D01*
X203200000Y-71501000D02*
X202692000Y-70993000D01*
X203200000Y-74456502D02*
X203200000Y-71501000D01*
X204308498Y-75565000D02*
X203200000Y-74456502D01*
X199199500Y-71370500D02*
X199199500Y-72420500D01*
X207659500Y-75565000D02*
X204308498Y-75565000D01*
X199577000Y-70993000D02*
X199199500Y-71370500D01*
X208224000Y-75000500D02*
X207659500Y-75565000D01*
X208224000Y-73850500D02*
X208224000Y-75000500D01*
X211963000Y-72517000D02*
X208224000Y-72517000D01*
X212344000Y-72898000D02*
X211963000Y-72517000D01*
X212344000Y-74582000D02*
X212344000Y-72898000D01*
X209202000Y-77724000D02*
X212344000Y-74582000D01*
X208252000Y-77724000D02*
X209202000Y-77724000D01*
G04 #@! TO.N,/Sheet5DBEC701/S0*
X201803000Y-67793000D02*
X204724000Y-70714000D01*
X201803000Y-67343000D02*
X201803000Y-67793000D01*
X204724000Y-70714000D02*
X204724000Y-71056500D01*
G04 #@! TO.N,/Sheet5DBEC701/S1*
X197993000Y-67343000D02*
X197993000Y-68896163D01*
X197993000Y-68896163D02*
X198068509Y-68971672D01*
X201016665Y-70492989D02*
X200971567Y-70447891D01*
X200971567Y-70447891D02*
X200571568Y-70047892D01*
X204724000Y-73850500D02*
X204724000Y-73650500D01*
X203700011Y-71293889D02*
X202899111Y-70492989D01*
X204724000Y-73650500D02*
X203700011Y-72626511D01*
X202899111Y-70492989D02*
X201016665Y-70492989D01*
X203700011Y-72626511D02*
X203700011Y-71293889D01*
G04 #@! TO.N,/Sheet5DBEC701/S2*
X203738500Y-67437000D02*
X204688500Y-67437000D01*
X203327000Y-67025500D02*
X203738500Y-67437000D01*
X196723000Y-62801500D02*
X197231000Y-63309500D01*
X196723000Y-61943000D02*
X196723000Y-62801500D01*
X199961500Y-65341500D02*
X202120500Y-65341500D01*
X203327000Y-66548000D02*
X203327000Y-67025500D01*
X202120500Y-65341500D02*
X203327000Y-66548000D01*
G04 #@! TO.N,/Sheet5DBEC701/S3*
X200533000Y-62393000D02*
X203100500Y-64960500D01*
X200533000Y-61943000D02*
X200533000Y-62393000D01*
X203100500Y-64960500D02*
X204688500Y-64960500D01*
G04 #@! TO.N,/Sheet5DBEC701/S4*
X204655500Y-77820500D02*
X204752000Y-77724000D01*
X201739500Y-77820500D02*
X204655500Y-77820500D01*
G04 #@! TO.N,/Sheet5DBEC701/S5*
X203837500Y-80645000D02*
X204787500Y-80645000D01*
X199704000Y-80645000D02*
X203837500Y-80645000D01*
X197929500Y-78870500D02*
X199704000Y-80645000D01*
X197929500Y-77820500D02*
X197929500Y-78870500D01*
G04 #@! TO.N,/Sheet5DC0EE77/PWM1*
X206229001Y-55226001D02*
X185946999Y-55226001D01*
X206629000Y-55626000D02*
X206229001Y-55226001D01*
X185946999Y-55226001D02*
X185569338Y-55603662D01*
G04 #@! TO.N,Net-(Q201-Pad3)*
X204930999Y-53151999D02*
X205430929Y-53651929D01*
X189672001Y-53151999D02*
X204930999Y-53151999D01*
X188722000Y-54102000D02*
X189672001Y-53151999D01*
X205430929Y-53651929D02*
X206030928Y-54251928D01*
G04 #@! TO.N,/Sheet5DC0EE77/DIR1*
X185750000Y-61322000D02*
X184575000Y-61322000D01*
X191648815Y-61214000D02*
X191540815Y-61322000D01*
X191540815Y-61322000D02*
X185750000Y-61322000D01*
X192214500Y-61214000D02*
X191648815Y-61214000D01*
D28*
G04 #@! TO.N,+15V*
X211440000Y-48880000D02*
X211455000Y-48895000D01*
X196215000Y-48880000D02*
X211440000Y-48880000D01*
D31*
X195366472Y-48880000D02*
X196215000Y-48880000D01*
X195052462Y-49194010D02*
X195366472Y-48880000D01*
D29*
X199390000Y-29464000D02*
X212217000Y-29464000D01*
X214122000Y-31369000D02*
X214122000Y-34036000D01*
X212217000Y-29464000D02*
X214122000Y-31369000D01*
D31*
X183827010Y-49194010D02*
X184785000Y-49194010D01*
X178943000Y-44310000D02*
X183827010Y-49194010D01*
X178943000Y-41910000D02*
X178943000Y-44310000D01*
X184785000Y-49194010D02*
X195052462Y-49194010D01*
D29*
X180594000Y-52427020D02*
X183827010Y-49194010D01*
X180594000Y-55753000D02*
X180594000Y-52427020D01*
G04 #@! TO.N,/IN0*
X177375000Y-63922000D02*
X180044676Y-63922000D01*
X180184589Y-64061913D02*
X180584588Y-64461912D01*
X180044676Y-63922000D02*
X180184589Y-64061913D01*
X200533000Y-68516500D02*
X200533000Y-67343000D01*
X200533000Y-67343000D02*
X200533000Y-68199000D01*
X200533000Y-68516500D02*
X201558072Y-69541572D01*
X201558072Y-69541572D02*
X201923825Y-69541572D01*
X201923825Y-69541572D02*
X202489510Y-69541572D01*
X189158580Y-71010585D02*
X188240514Y-71010585D01*
X189696164Y-70473001D02*
X189158580Y-71010585D01*
X198576499Y-70473001D02*
X189696164Y-70473001D01*
X188240514Y-71010585D02*
X187840515Y-70610586D01*
X200533000Y-68516500D02*
X198576499Y-70473001D01*
G04 #@! TO.N,/IN3*
X213440002Y-64151502D02*
X213440002Y-66026000D01*
X212661500Y-63373000D02*
X213440002Y-64151502D01*
X203898500Y-63373000D02*
X212661500Y-63373000D01*
X203517500Y-62992000D02*
X203898500Y-63373000D01*
X203517500Y-59944000D02*
X203517500Y-62992000D01*
X197993000Y-60893000D02*
X197993000Y-59096976D01*
X197993000Y-61943000D02*
X197993000Y-60893000D01*
X202670476Y-59096976D02*
X203517500Y-59944000D01*
X197993000Y-59096976D02*
X202670476Y-59096976D01*
X187682775Y-58274496D02*
X188505255Y-59096976D01*
X188505255Y-59096976D02*
X197993000Y-59096976D01*
X175831500Y-59317622D02*
X176726418Y-58422704D01*
X176200000Y-61972000D02*
X175831500Y-61603500D01*
X186906044Y-58274496D02*
X187682775Y-58274496D01*
X175831500Y-61603500D02*
X175831500Y-59317622D01*
X177375000Y-61972000D02*
X176200000Y-61972000D01*
X186757836Y-58422704D02*
X186906044Y-58274496D01*
X176726418Y-58422704D02*
X186757836Y-58422704D01*
G04 #@! TO.N,/IN1*
X180314000Y-63272000D02*
X180403500Y-63182500D01*
X177375000Y-63272000D02*
X180314000Y-63272000D01*
X196723000Y-68393000D02*
X196723000Y-67343000D01*
X196723000Y-68961000D02*
X196723000Y-68393000D01*
X196532500Y-69151500D02*
X196723000Y-68961000D01*
X196532500Y-69151500D02*
X195749960Y-69934040D01*
X189010679Y-69934040D02*
X188749968Y-70194751D01*
X195749960Y-69934040D02*
X189010679Y-69934040D01*
G04 #@! TO.N,/IN4*
X200469500Y-77820500D02*
X200469500Y-76581000D01*
X200469500Y-76581000D02*
X198431968Y-74543468D01*
X198431968Y-74543468D02*
X191942695Y-74543468D01*
X191942695Y-74543468D02*
X191377010Y-74543468D01*
X177375000Y-61322000D02*
X182194998Y-61322000D01*
X183624229Y-59892769D02*
X188144325Y-59892769D01*
X182194998Y-61322000D02*
X183624229Y-59892769D01*
X188144325Y-59892769D02*
X188710010Y-59892769D01*
X200858489Y-76065011D02*
X209252479Y-76065011D01*
X209252479Y-76065011D02*
X211193991Y-74123499D01*
X211193991Y-74123499D02*
X211593990Y-73723500D01*
X200469500Y-76581000D02*
X200469500Y-76454000D01*
X200469500Y-76454000D02*
X200858489Y-76065011D01*
G04 #@! TO.N,/IN2*
X192468500Y-60228500D02*
X194183000Y-61943000D01*
X192468500Y-60134500D02*
X192468500Y-60228500D01*
X194183000Y-62802765D02*
X194183000Y-61943000D01*
X195135500Y-63755265D02*
X194183000Y-62802765D01*
X194183000Y-60388500D02*
X193675000Y-59880500D01*
X194183000Y-61943000D02*
X194183000Y-60388500D01*
X205867000Y-82740500D02*
X196469000Y-82740500D01*
X187889888Y-57774487D02*
X188617900Y-58502499D01*
X175842500Y-62622000D02*
X175196500Y-61976000D01*
X175196500Y-61976000D02*
X175196500Y-59245500D01*
X193275001Y-58502499D02*
X193675000Y-58102500D01*
X177375000Y-62622000D02*
X175842500Y-62622000D01*
X176519307Y-57922693D02*
X186550725Y-57922693D01*
X175196500Y-59245500D02*
X176519307Y-57922693D01*
X186550725Y-57922693D02*
X186698933Y-57774485D01*
X188617900Y-58502499D02*
X193275001Y-58502499D01*
X186698933Y-57774485D02*
X187889888Y-57774487D01*
G04 #@! TO.N,/IN5*
X210070314Y-81845001D02*
X197224501Y-81845001D01*
X210127315Y-81788000D02*
X210070314Y-81845001D01*
X210693000Y-81788000D02*
X210127315Y-81788000D01*
X197224501Y-81845001D02*
X196659500Y-81280000D01*
X188746034Y-81125200D02*
X188781734Y-81089500D01*
X188180349Y-81125200D02*
X188746034Y-81125200D01*
X188781734Y-81089500D02*
X196659500Y-81089500D01*
X196659500Y-81280000D02*
X196659500Y-81089500D01*
X196659500Y-81089500D02*
X196659500Y-77820500D01*
X177375000Y-60672000D02*
X178550000Y-60672000D01*
X178550000Y-60672000D02*
X180197503Y-59024497D01*
X180197503Y-59024497D02*
X186644305Y-59024497D01*
X186644305Y-59024497D02*
X187209990Y-59024497D01*
G04 #@! TO.N,Net-(R101-Pad2)*
X180257086Y-81136506D02*
X180263706Y-81129886D01*
X177774799Y-81136506D02*
X180257086Y-81136506D01*
G04 #@! TO.N,Net-(R103-Pad2)*
X179383500Y-67822000D02*
X180657500Y-66548000D01*
X177375000Y-67822000D02*
X179383500Y-67822000D01*
G04 #@! TO.N,Net-(R105-Pad2)*
X177774799Y-80486506D02*
X179228706Y-80486506D01*
X179228706Y-80486506D02*
X180263706Y-79451506D01*
G04 #@! TO.N,Net-(R107-Pad2)*
X178550000Y-68472000D02*
X178569000Y-68453000D01*
X177375000Y-68472000D02*
X178550000Y-68472000D01*
X180213000Y-68453000D02*
X180594000Y-68072000D01*
X178569000Y-68453000D02*
X180213000Y-68453000D01*
G04 #@! TO.N,Net-(R109-Pad2)*
X177774799Y-79836506D02*
X178699586Y-79836506D01*
X180263706Y-78272386D02*
X180263706Y-77827886D01*
X178699586Y-79836506D02*
X180263706Y-78272386D01*
G04 #@! TO.N,Net-(R111-Pad2)*
X179929500Y-69122000D02*
X180594000Y-69786500D01*
X177375000Y-69122000D02*
X179929500Y-69122000D01*
G04 #@! TO.N,Net-(R113-Pad2)*
X178624799Y-79186506D02*
X179311206Y-78500099D01*
X177774799Y-79186506D02*
X178624799Y-79186506D01*
X179311206Y-78500099D02*
X179311206Y-77065886D01*
X179311206Y-77065886D02*
X180263706Y-76113386D01*
G04 #@! TO.N,Net-(R115-Pad2)*
X178504801Y-78536506D02*
X178803206Y-78238101D01*
X177774799Y-78536506D02*
X178504801Y-78536506D01*
X178803206Y-75859386D02*
X180200206Y-74462386D01*
X178803206Y-78238101D02*
X178803206Y-75859386D01*
G04 #@! TO.N,Net-(R117-Pad2)*
X185483500Y-86296500D02*
X185483500Y-85203000D01*
X185483500Y-86296500D02*
X185483500Y-87263000D01*
G04 #@! TO.N,Net-(R119-Pad2)*
X183832500Y-85203000D02*
X183832500Y-86024987D01*
X183832500Y-87263000D02*
X183832500Y-86281003D01*
X183832500Y-86024987D02*
X183960508Y-86152995D01*
X183832500Y-86281003D02*
X183960508Y-86152995D01*
D30*
G04 #@! TO.N,/SDA*
X210058000Y-91708000D02*
X210058000Y-89281000D01*
D29*
X187396490Y-67822000D02*
X187400490Y-67818000D01*
X184575000Y-67822000D02*
X187396490Y-67822000D01*
X185756496Y-80486506D02*
X185955356Y-80685366D01*
X185955356Y-80685366D02*
X186556825Y-80685366D01*
X183474799Y-80486506D02*
X185756496Y-80486506D01*
X186556825Y-80685366D02*
X187122510Y-80685366D01*
X210058000Y-87881000D02*
X210058000Y-89281000D01*
X210058000Y-85153500D02*
X210058000Y-87881000D01*
X187122510Y-80685366D02*
X187122510Y-81585510D01*
X187122510Y-81585510D02*
X189865000Y-84328000D01*
X209232500Y-84328000D02*
X210058000Y-85153500D01*
X189865000Y-84328000D02*
X209232500Y-84328000D01*
D30*
G04 #@! TO.N,/SCL*
X207518000Y-91708000D02*
X207518000Y-89281000D01*
D29*
X186453006Y-79836506D02*
X183474799Y-79836506D01*
X186391500Y-68472000D02*
X186499500Y-68580000D01*
X184575000Y-68472000D02*
X186391500Y-68472000D01*
X207518000Y-85915500D02*
X207518000Y-89281000D01*
X206629000Y-85026500D02*
X207518000Y-85915500D01*
X189484000Y-85026500D02*
X206629000Y-85026500D01*
X186372500Y-81915000D02*
X189484000Y-85026500D01*
G04 #@! TO.N,Net-(D201-Pad1)*
X215519000Y-51689000D02*
X187833000Y-51689000D01*
X186055000Y-53467000D02*
X186055000Y-54229000D01*
X187833000Y-51689000D02*
X186055000Y-53467000D01*
G04 #@! TO.N,/IS2*
X175050828Y-57422676D02*
X186343614Y-57422682D01*
X190497478Y-57274478D02*
X190544501Y-57321501D01*
X186491823Y-57274475D02*
X190497478Y-57274478D01*
X174053500Y-58420000D02*
X175050828Y-57422676D01*
X190544501Y-57321501D02*
X190944500Y-57721500D01*
X186343614Y-57422682D02*
X186491823Y-57274475D01*
X174053500Y-82804000D02*
X174053500Y-58420000D01*
X175831500Y-84582000D02*
X174053500Y-82804000D01*
G04 #@! TO.N,/RSTIN5*
X187767709Y-66377439D02*
X191811347Y-66377439D01*
X184575000Y-65222000D02*
X186612270Y-65222000D01*
X195389500Y-77370500D02*
X194494250Y-76475250D01*
X195389500Y-77820500D02*
X195389500Y-77370500D01*
X186612270Y-65222000D02*
X187767709Y-66377439D01*
X191811347Y-66377439D02*
X192377032Y-66377439D01*
X192285009Y-76608401D02*
X191885010Y-77008400D01*
X192418160Y-76475250D02*
X192285009Y-76608401D01*
X194494250Y-76475250D02*
X192418160Y-76475250D01*
G04 #@! TO.N,/RSTIN4*
X199199500Y-77370500D02*
X196953013Y-75124013D01*
X184575000Y-64572000D02*
X186669392Y-64572000D01*
X196953013Y-75124013D02*
X193674266Y-75124013D01*
X199199500Y-77820500D02*
X199199500Y-77370500D01*
X191677205Y-65268517D02*
X192242890Y-65268517D01*
X193473030Y-75325249D02*
X193073031Y-75725248D01*
X186669392Y-64572000D02*
X187365909Y-65268517D01*
X187365909Y-65268517D02*
X191677205Y-65268517D01*
X193674266Y-75124013D02*
X193473030Y-75325249D01*
G04 #@! TO.N,/RSTIN3*
X196650714Y-65005286D02*
X194285561Y-65005286D01*
X187962517Y-64518516D02*
X187366000Y-63922000D01*
X187366000Y-63922000D02*
X185750000Y-63922000D01*
X193798791Y-64518516D02*
X187962517Y-64518516D01*
X185750000Y-63922000D02*
X184575000Y-63922000D01*
X199263000Y-62393000D02*
X196650714Y-65005286D01*
X199263000Y-61943000D02*
X199263000Y-62393000D01*
X194285561Y-65005286D02*
X193798791Y-64518516D01*
G04 #@! TO.N,/RSTIN2*
X195453000Y-62393000D02*
X195453000Y-61943000D01*
X188351505Y-64018505D02*
X194226503Y-64018505D01*
X196053000Y-62993000D02*
X195453000Y-62393000D01*
X184575000Y-63272000D02*
X187605000Y-63272000D01*
X195494227Y-64505275D02*
X196053000Y-63946502D01*
X196053000Y-63946502D02*
X196053000Y-62993000D01*
X194713273Y-64505275D02*
X195494227Y-64505275D01*
X194226503Y-64018505D02*
X194713273Y-64505275D01*
X187605000Y-63272000D02*
X188351505Y-64018505D01*
G04 #@! TO.N,/RSTIN1*
X184575000Y-62622000D02*
X191896010Y-62622000D01*
X191896010Y-62622000D02*
X192012010Y-62738000D01*
X194140590Y-65741499D02*
X193911772Y-65741499D01*
X195453000Y-67053909D02*
X194140590Y-65741499D01*
X193868716Y-65698443D02*
X193468717Y-65298444D01*
X195453000Y-67343000D02*
X195453000Y-67053909D01*
X193911772Y-65741499D02*
X193868716Y-65698443D01*
G04 #@! TO.N,/RSTIN0*
X184575000Y-61972000D02*
X191457122Y-61972000D01*
X198125288Y-65755288D02*
X195901650Y-65755288D01*
X199263000Y-66893000D02*
X198125288Y-65755288D01*
X195901650Y-65755288D02*
X195335965Y-65755288D01*
X199263000Y-67343000D02*
X199263000Y-66893000D01*
X192651271Y-61972000D02*
X192794153Y-62114882D01*
X184575000Y-61972000D02*
X192651271Y-61972000D01*
G04 #@! TO.N,Net-(U103-Pad1)*
X189484000Y-92265500D02*
X193230500Y-92265500D01*
X196088000Y-89408000D02*
X197104000Y-88392000D01*
X193230500Y-92265500D02*
X196088000Y-89408000D01*
G04 #@! TO.N,/STOPMOTOR*
X188860990Y-75824815D02*
X188860990Y-76390500D01*
X200469500Y-72420500D02*
X200469500Y-72870500D01*
X199546533Y-73793467D02*
X190116207Y-73793467D01*
X190116207Y-73793467D02*
X188860990Y-75048684D01*
X188860990Y-75048684D02*
X188860990Y-75824815D01*
X200469500Y-72870500D02*
X199546533Y-73793467D01*
G04 #@! TO.N,Net-(R123-Pad2)*
X180765891Y-72847506D02*
X181152706Y-73234321D01*
X180200206Y-72847506D02*
X180765891Y-72847506D01*
X181152706Y-73234321D02*
X181152706Y-78272386D01*
X181416826Y-78536506D02*
X183474799Y-78536506D01*
X181152706Y-78272386D02*
X181416826Y-78536506D01*
G04 #@! TO.N,Net-(R125-Pad1)*
X185183586Y-77886506D02*
X185216706Y-77853386D01*
X183474799Y-77886506D02*
X185183586Y-77886506D01*
G04 #@! TO.N,Net-(U102-Pad1)*
X189518000Y-60672000D02*
X190246000Y-59944000D01*
X184575000Y-60672000D02*
X189518000Y-60672000D01*
G04 #@! TD*
D32*
G04 #@! TO.N,GND*
G36*
X218658757Y-19379756D02*
X217877000Y-21267085D01*
X217877000Y-23309915D01*
X218658757Y-25197244D01*
X220103256Y-26641743D01*
X221990585Y-27423500D01*
X224033415Y-27423500D01*
X225920744Y-26641743D01*
X227001000Y-25561487D01*
X227001001Y-88167014D01*
X225920744Y-87086757D01*
X224033415Y-86305000D01*
X221990585Y-86305000D01*
X220103256Y-87086757D01*
X218658757Y-88531256D01*
X217877000Y-90418585D01*
X217877000Y-92461415D01*
X218658757Y-94348744D01*
X219866013Y-95556000D01*
X180628487Y-95556000D01*
X181772243Y-94412244D01*
X182554000Y-92524915D01*
X182554000Y-90482085D01*
X181772243Y-88594756D01*
X180327744Y-87150257D01*
X178440415Y-86368500D01*
X176397585Y-86368500D01*
X174510256Y-87150257D01*
X173303000Y-88357513D01*
X173303000Y-83054759D01*
X173314046Y-83110291D01*
X173487547Y-83369953D01*
X173553092Y-83413749D01*
X174796500Y-84657157D01*
X174796500Y-84787874D01*
X174954069Y-85168280D01*
X175245220Y-85459431D01*
X175625626Y-85617000D01*
X176037374Y-85617000D01*
X176417780Y-85459431D01*
X176708931Y-85168280D01*
X176866500Y-84787874D01*
X176866500Y-84376126D01*
X176708931Y-83995720D01*
X176417780Y-83704569D01*
X176037374Y-83547000D01*
X175906657Y-83547000D01*
X174838500Y-82478843D01*
X174838500Y-62728157D01*
X175232753Y-63122410D01*
X175276547Y-63187953D01*
X175342089Y-63231747D01*
X175342091Y-63231749D01*
X175515697Y-63347749D01*
X175536208Y-63361454D01*
X175765184Y-63407000D01*
X175765188Y-63407000D01*
X175842500Y-63422378D01*
X175852560Y-63420377D01*
X175852560Y-63497000D01*
X175872451Y-63597000D01*
X175852560Y-63697000D01*
X175852560Y-64147000D01*
X175872451Y-64247000D01*
X175852560Y-64347000D01*
X175852560Y-64797000D01*
X175872451Y-64897000D01*
X175852560Y-64997000D01*
X175852560Y-65447000D01*
X175872451Y-65547000D01*
X175852560Y-65647000D01*
X175852560Y-66097000D01*
X175872451Y-66197000D01*
X175852560Y-66297000D01*
X175852560Y-66747000D01*
X175872451Y-66847000D01*
X175852560Y-66947000D01*
X175852560Y-67397000D01*
X175872451Y-67497000D01*
X175852560Y-67597000D01*
X175852560Y-68047000D01*
X175872451Y-68147000D01*
X175852560Y-68247000D01*
X175852560Y-68697000D01*
X175872451Y-68797000D01*
X175852560Y-68897000D01*
X175852560Y-69347000D01*
X175901843Y-69594765D01*
X176042191Y-69804809D01*
X176252235Y-69945157D01*
X176500000Y-69994440D01*
X178250000Y-69994440D01*
X178497765Y-69945157D01*
X178554871Y-69907000D01*
X179559000Y-69907000D01*
X179559000Y-69992374D01*
X179716569Y-70372780D01*
X180007720Y-70663931D01*
X180388126Y-70821500D01*
X180799874Y-70821500D01*
X181180280Y-70663931D01*
X181471431Y-70372780D01*
X181629000Y-69992374D01*
X181629000Y-69580626D01*
X181471431Y-69200220D01*
X181200461Y-68929250D01*
X181471431Y-68658280D01*
X181629000Y-68277874D01*
X181629000Y-67866126D01*
X181471431Y-67485720D01*
X181327461Y-67341750D01*
X181534931Y-67134280D01*
X181692500Y-66753874D01*
X181692500Y-66342126D01*
X181534931Y-65961720D01*
X181243780Y-65670569D01*
X180863374Y-65513000D01*
X180451626Y-65513000D01*
X180071220Y-65670569D01*
X179780069Y-65961720D01*
X179622500Y-66342126D01*
X179622500Y-66472842D01*
X179058343Y-67037000D01*
X178897440Y-67037000D01*
X178897440Y-66947000D01*
X178877549Y-66847000D01*
X178897440Y-66747000D01*
X178897440Y-66297000D01*
X178877549Y-66197000D01*
X178897440Y-66097000D01*
X178897440Y-65647000D01*
X178877549Y-65547000D01*
X178897440Y-65447000D01*
X178897440Y-64997000D01*
X178877549Y-64897000D01*
X178897440Y-64797000D01*
X178897440Y-64707000D01*
X179565831Y-64707000D01*
X179707157Y-65048192D01*
X179998308Y-65339343D01*
X180378714Y-65496912D01*
X180790462Y-65496912D01*
X181170868Y-65339343D01*
X181462019Y-65048192D01*
X181619588Y-64667786D01*
X181619588Y-64256038D01*
X181462019Y-63875632D01*
X181302674Y-63716287D01*
X181438500Y-63388374D01*
X181438500Y-62976626D01*
X181280931Y-62596220D01*
X180989780Y-62305069D01*
X180609374Y-62147500D01*
X180197626Y-62147500D01*
X179817220Y-62305069D01*
X179635289Y-62487000D01*
X178897440Y-62487000D01*
X178897440Y-62397000D01*
X178877549Y-62297000D01*
X178897440Y-62197000D01*
X178897440Y-62107000D01*
X182117686Y-62107000D01*
X182194998Y-62122378D01*
X182272310Y-62107000D01*
X182272314Y-62107000D01*
X182501290Y-62061454D01*
X182760951Y-61887953D01*
X182804747Y-61822408D01*
X183057138Y-61570017D01*
X183072451Y-61647000D01*
X183052560Y-61747000D01*
X183052560Y-62197000D01*
X183072451Y-62297000D01*
X183052560Y-62397000D01*
X183052560Y-62847000D01*
X183072451Y-62947000D01*
X183052560Y-63047000D01*
X183052560Y-63497000D01*
X183072451Y-63597000D01*
X183052560Y-63697000D01*
X183052560Y-64147000D01*
X183072451Y-64247000D01*
X183052560Y-64347000D01*
X183052560Y-64797000D01*
X183072451Y-64897000D01*
X183052560Y-64997000D01*
X183052560Y-65447000D01*
X183072451Y-65547000D01*
X183052560Y-65647000D01*
X183052560Y-66097000D01*
X183066498Y-66167073D01*
X183065000Y-66170690D01*
X183065000Y-66250750D01*
X183087647Y-66273397D01*
X183101843Y-66344765D01*
X183220269Y-66522000D01*
X183101843Y-66699235D01*
X183087647Y-66770603D01*
X183065000Y-66793250D01*
X183065000Y-66873310D01*
X183066498Y-66876927D01*
X183052560Y-66947000D01*
X183052560Y-67397000D01*
X183072451Y-67497000D01*
X183052560Y-67597000D01*
X183052560Y-68047000D01*
X183072451Y-68147000D01*
X183052560Y-68247000D01*
X183052560Y-68697000D01*
X183072451Y-68797000D01*
X183052560Y-68897000D01*
X183052560Y-69347000D01*
X183101843Y-69594765D01*
X183242191Y-69804809D01*
X183452235Y-69945157D01*
X183700000Y-69994440D01*
X185450000Y-69994440D01*
X185697765Y-69945157D01*
X185907809Y-69804809D01*
X186048157Y-69594765D01*
X186063123Y-69519523D01*
X186293626Y-69615000D01*
X186705374Y-69615000D01*
X187085780Y-69457431D01*
X187376931Y-69166280D01*
X187506696Y-68853000D01*
X187606364Y-68853000D01*
X187986770Y-68695431D01*
X188277921Y-68404280D01*
X188435490Y-68023874D01*
X188435490Y-67628750D01*
X193248000Y-67628750D01*
X193248000Y-68219309D01*
X193344673Y-68452698D01*
X193523301Y-68631327D01*
X193756690Y-68728000D01*
X193897250Y-68728000D01*
X194056000Y-68569250D01*
X194056000Y-67470000D01*
X193406750Y-67470000D01*
X193248000Y-67628750D01*
X188435490Y-67628750D01*
X188435490Y-67612126D01*
X188277921Y-67231720D01*
X188208640Y-67162439D01*
X191698321Y-67162439D01*
X191790752Y-67254870D01*
X192171158Y-67412439D01*
X192582906Y-67412439D01*
X192963312Y-67254870D01*
X193248000Y-66970182D01*
X193248000Y-67057250D01*
X193406750Y-67216000D01*
X194056000Y-67216000D01*
X194056000Y-67196000D01*
X194310000Y-67196000D01*
X194310000Y-67216000D01*
X194330000Y-67216000D01*
X194330000Y-67470000D01*
X194310000Y-67470000D01*
X194310000Y-68569250D01*
X194468750Y-68728000D01*
X194609310Y-68728000D01*
X194826028Y-68638232D01*
X194905235Y-68691157D01*
X195153000Y-68740440D01*
X195582491Y-68740440D01*
X195497500Y-68945626D01*
X195497500Y-69076343D01*
X195424803Y-69149040D01*
X189087990Y-69149040D01*
X189010678Y-69133662D01*
X188933366Y-69149040D01*
X188933363Y-69149040D01*
X188879515Y-69159751D01*
X188544094Y-69159751D01*
X188163688Y-69317320D01*
X187905422Y-69575586D01*
X187634641Y-69575586D01*
X187254235Y-69733155D01*
X186963084Y-70024306D01*
X186805515Y-70404712D01*
X186805515Y-70816460D01*
X186963084Y-71196866D01*
X187254235Y-71488017D01*
X187634641Y-71645586D01*
X187777898Y-71645586D01*
X187934222Y-71750039D01*
X188163198Y-71795585D01*
X188163201Y-71795585D01*
X188240513Y-71810963D01*
X188317825Y-71795585D01*
X189081268Y-71795585D01*
X189158580Y-71810963D01*
X189235892Y-71795585D01*
X189235896Y-71795585D01*
X189464872Y-71750039D01*
X189724533Y-71576538D01*
X189768329Y-71510993D01*
X190021321Y-71258001D01*
X191410841Y-71258001D01*
X190555843Y-72113000D01*
X188276530Y-72113000D01*
X188224247Y-72034753D01*
X187937152Y-71842922D01*
X187598500Y-71775560D01*
X187023500Y-71775560D01*
X186684848Y-71842922D01*
X186516460Y-71955435D01*
X186445698Y-71884673D01*
X186212309Y-71788000D01*
X185846750Y-71788000D01*
X185688000Y-71946750D01*
X185688000Y-72771000D01*
X185708000Y-72771000D01*
X185708000Y-73025000D01*
X185688000Y-73025000D01*
X185688000Y-73849250D01*
X185846750Y-74008000D01*
X186212309Y-74008000D01*
X186445698Y-73911327D01*
X186516460Y-73840565D01*
X186684848Y-73953078D01*
X187023500Y-74020440D01*
X187598500Y-74020440D01*
X187937152Y-73953078D01*
X188224247Y-73761247D01*
X188276530Y-73683000D01*
X189116516Y-73683000D01*
X188360582Y-74438935D01*
X188295037Y-74482731D01*
X188251241Y-74548276D01*
X188244704Y-74558060D01*
X188121536Y-74742393D01*
X188075990Y-74971369D01*
X188075990Y-74971372D01*
X188060612Y-75048684D01*
X188075990Y-75125996D01*
X188075990Y-75711789D01*
X187983559Y-75804220D01*
X187825990Y-76184626D01*
X187825990Y-76596374D01*
X187983559Y-76976780D01*
X188274710Y-77267931D01*
X188655116Y-77425500D01*
X189066864Y-77425500D01*
X189447270Y-77267931D01*
X189738421Y-76976780D01*
X189895990Y-76596374D01*
X189895990Y-76184626D01*
X189738421Y-75804220D01*
X189645990Y-75711789D01*
X189645990Y-75373841D01*
X190342010Y-74677822D01*
X190342010Y-74749342D01*
X190499579Y-75129748D01*
X190790730Y-75420899D01*
X191171136Y-75578468D01*
X191582884Y-75578468D01*
X191963290Y-75420899D01*
X192055721Y-75328468D01*
X192117107Y-75328468D01*
X192038031Y-75519374D01*
X192038031Y-75785133D01*
X191852207Y-75909297D01*
X191809374Y-75973400D01*
X191679136Y-75973400D01*
X191298730Y-76130969D01*
X191007579Y-76422120D01*
X190850010Y-76802526D01*
X190850010Y-77214274D01*
X191007579Y-77594680D01*
X191298730Y-77885831D01*
X191679136Y-78043400D01*
X192090884Y-78043400D01*
X192471290Y-77885831D01*
X192762441Y-77594680D01*
X192900966Y-77260250D01*
X193184500Y-77260250D01*
X193184500Y-77534750D01*
X193343250Y-77693500D01*
X193992500Y-77693500D01*
X193992500Y-77673500D01*
X194246500Y-77673500D01*
X194246500Y-77693500D01*
X194266500Y-77693500D01*
X194266500Y-77947500D01*
X194246500Y-77947500D01*
X194246500Y-79046750D01*
X194405250Y-79205500D01*
X194545810Y-79205500D01*
X194762528Y-79115732D01*
X194841735Y-79168657D01*
X195089500Y-79217940D01*
X195689500Y-79217940D01*
X195874501Y-79181141D01*
X195874500Y-80304500D01*
X188859044Y-80304500D01*
X188814500Y-80295640D01*
X188766629Y-80247769D01*
X188386223Y-80090200D01*
X187991055Y-80090200D01*
X187708790Y-79807935D01*
X187488006Y-79716483D01*
X187488006Y-79630632D01*
X187330437Y-79250226D01*
X187039286Y-78959075D01*
X186658880Y-78801506D01*
X186247132Y-78801506D01*
X185866726Y-78959075D01*
X185774295Y-79051506D01*
X184672239Y-79051506D01*
X184672239Y-78986506D01*
X184650387Y-78876649D01*
X184960456Y-78938326D01*
X185472956Y-78938326D01*
X185804433Y-78872391D01*
X186085445Y-78684625D01*
X186273211Y-78403613D01*
X186332360Y-78106250D01*
X193184500Y-78106250D01*
X193184500Y-78696809D01*
X193281173Y-78930198D01*
X193459801Y-79108827D01*
X193693190Y-79205500D01*
X193833750Y-79205500D01*
X193992500Y-79046750D01*
X193992500Y-77947500D01*
X193343250Y-77947500D01*
X193184500Y-78106250D01*
X186332360Y-78106250D01*
X186339146Y-78072136D01*
X186339146Y-77634636D01*
X186273211Y-77303159D01*
X186164763Y-77140855D01*
X186230033Y-77075584D01*
X186326706Y-76842195D01*
X186326706Y-76564136D01*
X186167956Y-76405386D01*
X185343706Y-76405386D01*
X185343706Y-76425386D01*
X185089706Y-76425386D01*
X185089706Y-76405386D01*
X185069706Y-76405386D01*
X185069706Y-76151386D01*
X185089706Y-76151386D01*
X185089706Y-75364636D01*
X185343706Y-75364636D01*
X185343706Y-76151386D01*
X186167956Y-76151386D01*
X186326706Y-75992636D01*
X186326706Y-75714577D01*
X186230033Y-75481188D01*
X186051405Y-75302559D01*
X185818016Y-75205886D01*
X185502456Y-75205886D01*
X185343706Y-75364636D01*
X185089706Y-75364636D01*
X184930956Y-75205886D01*
X184672239Y-75205886D01*
X184672239Y-75086506D01*
X184647375Y-74961506D01*
X184672239Y-74836506D01*
X184672239Y-74436506D01*
X184647375Y-74311506D01*
X184672239Y-74186506D01*
X184672239Y-73907264D01*
X184676302Y-73911327D01*
X184909691Y-74008000D01*
X185275250Y-74008000D01*
X185434000Y-73849250D01*
X185434000Y-73025000D01*
X185414000Y-73025000D01*
X185414000Y-72771000D01*
X185434000Y-72771000D01*
X185434000Y-71946750D01*
X185275250Y-71788000D01*
X184909691Y-71788000D01*
X184676302Y-71884673D01*
X184502503Y-72058471D01*
X184482608Y-72028697D01*
X184272564Y-71888349D01*
X184024799Y-71839066D01*
X182924799Y-71839066D01*
X182677034Y-71888349D01*
X182466990Y-72028697D01*
X182326642Y-72238741D01*
X182277359Y-72486506D01*
X182277359Y-72886506D01*
X182302223Y-73011506D01*
X182277359Y-73136506D01*
X182277359Y-73536506D01*
X182302223Y-73661506D01*
X182277359Y-73786506D01*
X182277359Y-74186506D01*
X182302223Y-74311506D01*
X182277359Y-74436506D01*
X182277359Y-74836506D01*
X182302223Y-74961506D01*
X182277359Y-75086506D01*
X182277359Y-75486506D01*
X182302223Y-75611506D01*
X182277359Y-75736506D01*
X182277359Y-76136506D01*
X182302223Y-76261506D01*
X182277359Y-76386506D01*
X182277359Y-76786506D01*
X182302223Y-76911506D01*
X182277359Y-77036506D01*
X182277359Y-77436506D01*
X182302223Y-77561506D01*
X182277359Y-77686506D01*
X182277359Y-77751506D01*
X181937706Y-77751506D01*
X181937706Y-73311632D01*
X181953084Y-73234320D01*
X181937706Y-73157006D01*
X181937706Y-73157005D01*
X181892160Y-72928029D01*
X181718659Y-72668368D01*
X181653114Y-72624572D01*
X181375640Y-72347098D01*
X181331844Y-72281553D01*
X181072183Y-72108052D01*
X180887784Y-72071373D01*
X180786486Y-71970075D01*
X180406080Y-71812506D01*
X179994332Y-71812506D01*
X179613926Y-71970075D01*
X179322775Y-72261226D01*
X179165206Y-72641632D01*
X179165206Y-73053380D01*
X179322775Y-73433786D01*
X179543935Y-73654946D01*
X179322775Y-73876106D01*
X179165206Y-74256512D01*
X179165206Y-74387228D01*
X178972239Y-74580195D01*
X178972239Y-74436506D01*
X178947375Y-74311506D01*
X178972239Y-74186506D01*
X178972239Y-73786506D01*
X178947375Y-73661506D01*
X178972239Y-73536506D01*
X178972239Y-73136506D01*
X178951582Y-73032654D01*
X178959799Y-73012816D01*
X178959799Y-72945256D01*
X178927841Y-72913298D01*
X178922956Y-72888741D01*
X178782608Y-72678697D01*
X178644635Y-72586506D01*
X178801049Y-72586506D01*
X178959799Y-72427756D01*
X178959799Y-72360196D01*
X178863126Y-72126807D01*
X178684497Y-71948179D01*
X178451108Y-71851506D01*
X178060549Y-71851506D01*
X177901799Y-72010256D01*
X177901799Y-72489066D01*
X177647799Y-72489066D01*
X177647799Y-72010256D01*
X177489049Y-71851506D01*
X177098490Y-71851506D01*
X176865101Y-71948179D01*
X176686472Y-72126807D01*
X176589799Y-72360196D01*
X176589799Y-72427756D01*
X176748549Y-72586506D01*
X176904963Y-72586506D01*
X176766990Y-72678697D01*
X176626642Y-72888741D01*
X176621757Y-72913298D01*
X176589799Y-72945256D01*
X176589799Y-73012816D01*
X176598016Y-73032654D01*
X176577359Y-73136506D01*
X176577359Y-73536506D01*
X176602223Y-73661506D01*
X176577359Y-73786506D01*
X176577359Y-74186506D01*
X176602223Y-74311506D01*
X176577359Y-74436506D01*
X176577359Y-74836506D01*
X176602223Y-74961506D01*
X176577359Y-75086506D01*
X176577359Y-75486506D01*
X176602223Y-75611506D01*
X176577359Y-75736506D01*
X176577359Y-76136506D01*
X176602223Y-76261506D01*
X176577359Y-76386506D01*
X176577359Y-76786506D01*
X176602223Y-76911506D01*
X176577359Y-77036506D01*
X176577359Y-77436506D01*
X176602223Y-77561506D01*
X176577359Y-77686506D01*
X176577359Y-78086506D01*
X176602223Y-78211506D01*
X176577359Y-78336506D01*
X176577359Y-78736506D01*
X176602223Y-78861506D01*
X176577359Y-78986506D01*
X176577359Y-79386506D01*
X176602223Y-79511506D01*
X176577359Y-79636506D01*
X176577359Y-80036506D01*
X176602223Y-80161506D01*
X176577359Y-80286506D01*
X176577359Y-80686506D01*
X176602223Y-80811506D01*
X176577359Y-80936506D01*
X176577359Y-81336506D01*
X176626642Y-81584271D01*
X176766990Y-81794315D01*
X176977034Y-81934663D01*
X177061771Y-81951518D01*
X176795569Y-82217720D01*
X176638000Y-82598126D01*
X176638000Y-83009874D01*
X176795569Y-83390280D01*
X177086720Y-83681431D01*
X177467126Y-83839000D01*
X177548343Y-83839000D01*
X182710060Y-89000718D01*
X182710060Y-89300500D01*
X182777422Y-89639152D01*
X182969253Y-89926247D01*
X183256348Y-90118078D01*
X183595000Y-90185440D01*
X184070000Y-90185440D01*
X184408652Y-90118078D01*
X184658000Y-89951469D01*
X184907348Y-90118078D01*
X185246000Y-90185440D01*
X185721000Y-90185440D01*
X186059652Y-90118078D01*
X186346747Y-89926247D01*
X186533512Y-89646734D01*
X186634953Y-89578953D01*
X186678749Y-89513408D01*
X187175000Y-89017157D01*
X187175001Y-92442183D01*
X187159622Y-92519500D01*
X187220546Y-92825791D01*
X187350251Y-93019908D01*
X187350254Y-93019911D01*
X187394048Y-93085453D01*
X187459590Y-93129247D01*
X188048753Y-93718410D01*
X188092547Y-93783953D01*
X188158089Y-93827747D01*
X188158091Y-93827749D01*
X188233125Y-93877885D01*
X188352208Y-93957454D01*
X188581184Y-94003000D01*
X188581188Y-94003000D01*
X188658499Y-94018378D01*
X188735810Y-94003000D01*
X201060789Y-94003000D01*
X201153220Y-94095431D01*
X201533626Y-94253000D01*
X201945374Y-94253000D01*
X202325780Y-94095431D01*
X202418211Y-94003000D01*
X204519688Y-94003000D01*
X204597000Y-94018378D01*
X204674312Y-94003000D01*
X204674316Y-94003000D01*
X204856235Y-93966814D01*
X204911577Y-94022156D01*
X204960951Y-94096049D01*
X205034844Y-94145423D01*
X205034845Y-94145424D01*
X205253690Y-94291652D01*
X205511835Y-94343000D01*
X205511839Y-94343000D01*
X205599000Y-94360337D01*
X205686161Y-94343000D01*
X206635879Y-94343000D01*
X206654753Y-94371247D01*
X206941848Y-94563078D01*
X207280500Y-94630440D01*
X207755500Y-94630440D01*
X208094152Y-94563078D01*
X208381247Y-94371247D01*
X208400121Y-94343000D01*
X209175879Y-94343000D01*
X209194753Y-94371247D01*
X209481848Y-94563078D01*
X209820500Y-94630440D01*
X210295500Y-94630440D01*
X210634152Y-94563078D01*
X210921247Y-94371247D01*
X211113078Y-94084152D01*
X211180440Y-93745500D01*
X211180440Y-93170500D01*
X211113078Y-92831848D01*
X210946803Y-92583000D01*
X211113078Y-92334152D01*
X211180440Y-91995500D01*
X211180440Y-91420500D01*
X211113078Y-91081848D01*
X210943000Y-90827309D01*
X210943000Y-90729709D01*
X211143044Y-90596044D01*
X211475678Y-90098221D01*
X211563000Y-89659225D01*
X211563000Y-88902774D01*
X211475678Y-88463778D01*
X211143044Y-87965956D01*
X210843000Y-87765473D01*
X210843000Y-85230810D01*
X210858378Y-85153499D01*
X210843000Y-85076188D01*
X210843000Y-85076184D01*
X210797454Y-84847208D01*
X210717885Y-84728125D01*
X210667749Y-84653091D01*
X210667747Y-84653089D01*
X210623953Y-84587547D01*
X210558411Y-84543753D01*
X209842249Y-83827592D01*
X209798453Y-83762047D01*
X209538792Y-83588546D01*
X209309816Y-83543000D01*
X209309812Y-83543000D01*
X209232500Y-83527622D01*
X209155188Y-83543000D01*
X206528211Y-83543000D01*
X206744431Y-83326780D01*
X206902000Y-82946374D01*
X206902000Y-82630001D01*
X209993002Y-82630001D01*
X210070314Y-82645379D01*
X210083955Y-82642666D01*
X210106720Y-82665431D01*
X210487126Y-82823000D01*
X210898874Y-82823000D01*
X211279280Y-82665431D01*
X211570431Y-82374280D01*
X211728000Y-81993874D01*
X211728000Y-81582126D01*
X211570431Y-81201720D01*
X211279280Y-80910569D01*
X210898874Y-80753000D01*
X210487126Y-80753000D01*
X210106720Y-80910569D01*
X210005422Y-81011867D01*
X209821023Y-81048546D01*
X209803879Y-81060001D01*
X209584940Y-81060001D01*
X209584940Y-79795000D01*
X209535657Y-79547235D01*
X209395309Y-79337191D01*
X209185265Y-79196843D01*
X209105462Y-79180969D01*
X209149765Y-79172157D01*
X209359809Y-79031809D01*
X209500157Y-78821765D01*
X209549440Y-78574000D01*
X209549440Y-78435960D01*
X209767953Y-78289953D01*
X209811750Y-78224407D01*
X212844411Y-75191747D01*
X212909953Y-75147953D01*
X212953747Y-75082411D01*
X212953749Y-75082409D01*
X213083454Y-74888292D01*
X213083454Y-74888291D01*
X213129000Y-74659316D01*
X213129000Y-74659313D01*
X213144378Y-74582001D01*
X213129000Y-74504689D01*
X213129000Y-72975310D01*
X213144378Y-72897999D01*
X213129000Y-72820688D01*
X213129000Y-72820684D01*
X213083454Y-72591708D01*
X212909953Y-72332047D01*
X212844408Y-72288251D01*
X212572749Y-72016592D01*
X212528953Y-71951047D01*
X212269292Y-71777546D01*
X212040316Y-71732000D01*
X212040312Y-71732000D01*
X211963000Y-71716622D01*
X211885688Y-71732000D01*
X210770177Y-71732000D01*
X212184678Y-70317500D01*
X217380289Y-70317500D01*
X217472720Y-70409931D01*
X217508421Y-70424719D01*
X217492564Y-70427873D01*
X217201414Y-70622414D01*
X217006873Y-70913564D01*
X216938560Y-71256999D01*
X216938560Y-72507001D01*
X217006873Y-72850436D01*
X217201414Y-73141586D01*
X217492564Y-73336127D01*
X217835999Y-73404440D01*
X218536001Y-73404440D01*
X218879436Y-73336127D01*
X219170586Y-73141586D01*
X219264573Y-73000926D01*
X219295616Y-73047385D01*
X219401000Y-73117800D01*
X219401001Y-76488199D01*
X219295615Y-76558615D01*
X219264572Y-76605074D01*
X219170586Y-76464414D01*
X218879436Y-76269873D01*
X218536001Y-76201560D01*
X217835999Y-76201560D01*
X217492564Y-76269873D01*
X217201414Y-76464414D01*
X217006873Y-76755564D01*
X216938560Y-77098999D01*
X216938560Y-78349001D01*
X217006873Y-78692436D01*
X217201414Y-78983586D01*
X217492564Y-79178127D01*
X217835999Y-79246440D01*
X218536001Y-79246440D01*
X218879436Y-79178127D01*
X219170586Y-78983586D01*
X219264573Y-78842926D01*
X219295616Y-78889385D01*
X219401000Y-78959800D01*
X219401001Y-82203198D01*
X219295615Y-82273615D01*
X219264572Y-82320074D01*
X219170586Y-82179414D01*
X218879436Y-81984873D01*
X218536001Y-81916560D01*
X217835999Y-81916560D01*
X217492564Y-81984873D01*
X217201414Y-82179414D01*
X217006873Y-82470564D01*
X216938560Y-82813999D01*
X216938560Y-84064001D01*
X217006873Y-84407436D01*
X217201414Y-84698586D01*
X217492564Y-84893127D01*
X217835999Y-84961440D01*
X218536001Y-84961440D01*
X218879436Y-84893127D01*
X219170586Y-84698586D01*
X219264573Y-84557926D01*
X219295616Y-84604385D01*
X219704128Y-84877344D01*
X220186000Y-84973195D01*
X220667873Y-84877344D01*
X221076385Y-84604385D01*
X221195167Y-84426615D01*
X221402526Y-84677080D01*
X221830719Y-84903592D01*
X221868391Y-84907462D01*
X222059000Y-84782731D01*
X222059000Y-83566000D01*
X222313000Y-83566000D01*
X222313000Y-84782731D01*
X222503609Y-84907462D01*
X222541281Y-84903592D01*
X222969474Y-84677080D01*
X223278390Y-84303947D01*
X223421000Y-83841000D01*
X223421000Y-83566000D01*
X222313000Y-83566000D01*
X222059000Y-83566000D01*
X222039000Y-83566000D01*
X222039000Y-83312000D01*
X222059000Y-83312000D01*
X222059000Y-82095269D01*
X222313000Y-82095269D01*
X222313000Y-83312000D01*
X223421000Y-83312000D01*
X223421000Y-83037000D01*
X223278390Y-82574053D01*
X222969474Y-82200920D01*
X222541281Y-81974408D01*
X222503609Y-81970538D01*
X222313000Y-82095269D01*
X222059000Y-82095269D01*
X221868391Y-81970538D01*
X221830719Y-81974408D01*
X221402526Y-82200920D01*
X221195167Y-82451385D01*
X221076385Y-82273615D01*
X220971000Y-82203199D01*
X220971000Y-78959801D01*
X221076385Y-78889385D01*
X221195167Y-78711615D01*
X221402526Y-78962080D01*
X221830719Y-79188592D01*
X221868391Y-79192462D01*
X222059000Y-79067731D01*
X222059000Y-77851000D01*
X222313000Y-77851000D01*
X222313000Y-79067731D01*
X222503609Y-79192462D01*
X222541281Y-79188592D01*
X222969474Y-78962080D01*
X223278390Y-78588947D01*
X223421000Y-78126000D01*
X223421000Y-77851000D01*
X222313000Y-77851000D01*
X222059000Y-77851000D01*
X222039000Y-77851000D01*
X222039000Y-77597000D01*
X222059000Y-77597000D01*
X222059000Y-76380269D01*
X222313000Y-76380269D01*
X222313000Y-77597000D01*
X223421000Y-77597000D01*
X223421000Y-77322000D01*
X223278390Y-76859053D01*
X222969474Y-76485920D01*
X222541281Y-76259408D01*
X222503609Y-76255538D01*
X222313000Y-76380269D01*
X222059000Y-76380269D01*
X221868391Y-76255538D01*
X221830719Y-76259408D01*
X221402526Y-76485920D01*
X221195167Y-76736385D01*
X221076385Y-76558615D01*
X220971000Y-76488199D01*
X220971000Y-73117801D01*
X221076385Y-73047385D01*
X221195167Y-72869615D01*
X221402526Y-73120080D01*
X221830719Y-73346592D01*
X221868391Y-73350462D01*
X222059000Y-73225731D01*
X222059000Y-72009000D01*
X222313000Y-72009000D01*
X222313000Y-73225731D01*
X222503609Y-73350462D01*
X222541281Y-73346592D01*
X222969474Y-73120080D01*
X223278390Y-72746947D01*
X223421000Y-72284000D01*
X223421000Y-72009000D01*
X222313000Y-72009000D01*
X222059000Y-72009000D01*
X222039000Y-72009000D01*
X222039000Y-71755000D01*
X222059000Y-71755000D01*
X222059000Y-70538269D01*
X222313000Y-70538269D01*
X222313000Y-71755000D01*
X223421000Y-71755000D01*
X223421000Y-71480000D01*
X223278390Y-71017053D01*
X222969474Y-70643920D01*
X222541281Y-70417408D01*
X222503609Y-70413538D01*
X222313000Y-70538269D01*
X222059000Y-70538269D01*
X221868391Y-70413538D01*
X221830719Y-70417408D01*
X221402526Y-70643920D01*
X221195167Y-70894385D01*
X221076385Y-70716615D01*
X220971000Y-70646199D01*
X220971000Y-67275801D01*
X221076385Y-67205385D01*
X221195167Y-67027615D01*
X221402526Y-67278080D01*
X221830719Y-67504592D01*
X221868391Y-67508462D01*
X222059000Y-67383731D01*
X222059000Y-66167000D01*
X222313000Y-66167000D01*
X222313000Y-67383731D01*
X222503609Y-67508462D01*
X222541281Y-67504592D01*
X222969474Y-67278080D01*
X223278390Y-66904947D01*
X223421000Y-66442000D01*
X223421000Y-66167000D01*
X222313000Y-66167000D01*
X222059000Y-66167000D01*
X222039000Y-66167000D01*
X222039000Y-65913000D01*
X222059000Y-65913000D01*
X222059000Y-64696269D01*
X222313000Y-64696269D01*
X222313000Y-65913000D01*
X223421000Y-65913000D01*
X223421000Y-65638000D01*
X223278390Y-65175053D01*
X222969474Y-64801920D01*
X222541281Y-64575408D01*
X222503609Y-64571538D01*
X222313000Y-64696269D01*
X222059000Y-64696269D01*
X221868391Y-64571538D01*
X221830719Y-64575408D01*
X221402526Y-64801920D01*
X221195167Y-65052385D01*
X221076385Y-64874615D01*
X220971000Y-64804199D01*
X220971000Y-61560801D01*
X221076385Y-61490385D01*
X221195167Y-61312615D01*
X221402526Y-61563080D01*
X221830719Y-61789592D01*
X221868391Y-61793462D01*
X222059000Y-61668731D01*
X222059000Y-60452000D01*
X222313000Y-60452000D01*
X222313000Y-61668731D01*
X222503609Y-61793462D01*
X222541281Y-61789592D01*
X222969474Y-61563080D01*
X223278390Y-61189947D01*
X223421000Y-60727000D01*
X223421000Y-60452000D01*
X222313000Y-60452000D01*
X222059000Y-60452000D01*
X222039000Y-60452000D01*
X222039000Y-60198000D01*
X222059000Y-60198000D01*
X222059000Y-58981269D01*
X222313000Y-58981269D01*
X222313000Y-60198000D01*
X223421000Y-60198000D01*
X223421000Y-59923000D01*
X223278390Y-59460053D01*
X222969474Y-59086920D01*
X222541281Y-58860408D01*
X222503609Y-58856538D01*
X222313000Y-58981269D01*
X222059000Y-58981269D01*
X221868391Y-58856538D01*
X221830719Y-58860408D01*
X221402526Y-59086920D01*
X221195167Y-59337385D01*
X221076385Y-59159615D01*
X220971000Y-59089199D01*
X220971000Y-55845801D01*
X221076385Y-55775385D01*
X221195167Y-55597615D01*
X221402526Y-55848080D01*
X221830719Y-56074592D01*
X221868391Y-56078462D01*
X222059000Y-55953731D01*
X222059000Y-54737000D01*
X222313000Y-54737000D01*
X222313000Y-55953731D01*
X222503609Y-56078462D01*
X222541281Y-56074592D01*
X222969474Y-55848080D01*
X223278390Y-55474947D01*
X223421000Y-55012000D01*
X223421000Y-54737000D01*
X222313000Y-54737000D01*
X222059000Y-54737000D01*
X222039000Y-54737000D01*
X222039000Y-54483000D01*
X222059000Y-54483000D01*
X222059000Y-53266269D01*
X222313000Y-53266269D01*
X222313000Y-54483000D01*
X223421000Y-54483000D01*
X223421000Y-54208000D01*
X223278390Y-53745053D01*
X222969474Y-53371920D01*
X222541281Y-53145408D01*
X222503609Y-53141538D01*
X222313000Y-53266269D01*
X222059000Y-53266269D01*
X221868391Y-53141538D01*
X221830719Y-53145408D01*
X221402526Y-53371920D01*
X221195167Y-53622385D01*
X221076385Y-53444615D01*
X220667872Y-53171656D01*
X220186000Y-53075805D01*
X219704127Y-53171656D01*
X219295615Y-53444615D01*
X219264572Y-53491074D01*
X219170586Y-53350414D01*
X218879436Y-53155873D01*
X218536001Y-53087560D01*
X217835999Y-53087560D01*
X217492564Y-53155873D01*
X217201414Y-53350414D01*
X217006873Y-53641564D01*
X216938560Y-53984999D01*
X216938560Y-55235001D01*
X217006873Y-55578436D01*
X217201414Y-55869586D01*
X217492564Y-56064127D01*
X217835999Y-56132440D01*
X218536001Y-56132440D01*
X218879436Y-56064127D01*
X219170586Y-55869586D01*
X219264573Y-55728926D01*
X219295616Y-55775385D01*
X219401000Y-55845800D01*
X219401001Y-59089199D01*
X219295615Y-59159615D01*
X219264572Y-59206074D01*
X219170586Y-59065414D01*
X218879436Y-58870873D01*
X218536001Y-58802560D01*
X217835999Y-58802560D01*
X217492564Y-58870873D01*
X217201414Y-59065414D01*
X217006873Y-59356564D01*
X216938560Y-59699999D01*
X216938560Y-60950001D01*
X217006873Y-61293436D01*
X217201414Y-61584586D01*
X217492564Y-61779127D01*
X217835999Y-61847440D01*
X218536001Y-61847440D01*
X218879436Y-61779127D01*
X219170586Y-61584586D01*
X219264573Y-61443926D01*
X219295616Y-61490385D01*
X219401000Y-61560800D01*
X219401001Y-64804199D01*
X219295615Y-64874615D01*
X219264572Y-64921074D01*
X219170586Y-64780414D01*
X218879436Y-64585873D01*
X218536001Y-64517560D01*
X217835999Y-64517560D01*
X217492564Y-64585873D01*
X217201414Y-64780414D01*
X217006873Y-65071564D01*
X216938560Y-65414999D01*
X216938560Y-66665001D01*
X217006873Y-67008436D01*
X217201414Y-67299586D01*
X217492564Y-67494127D01*
X217835999Y-67562440D01*
X218536001Y-67562440D01*
X218879436Y-67494127D01*
X219170586Y-67299586D01*
X219264573Y-67158926D01*
X219295616Y-67205385D01*
X219401000Y-67275800D01*
X219401001Y-70646198D01*
X219295615Y-70716615D01*
X219264572Y-70763074D01*
X219170586Y-70622414D01*
X218879436Y-70427873D01*
X218669164Y-70386047D01*
X218936431Y-70118780D01*
X219094000Y-69738374D01*
X219094000Y-69326626D01*
X218936431Y-68946220D01*
X218645280Y-68655069D01*
X218264874Y-68497500D01*
X217853126Y-68497500D01*
X217472720Y-68655069D01*
X217380289Y-68747500D01*
X211936830Y-68747500D01*
X211859519Y-68732122D01*
X211782208Y-68747500D01*
X211782204Y-68747500D01*
X211553228Y-68793046D01*
X211553226Y-68793047D01*
X211553227Y-68793047D01*
X211359111Y-68922751D01*
X211359109Y-68922753D01*
X211293567Y-68966547D01*
X211249773Y-69032089D01*
X209601843Y-70680020D01*
X209521440Y-70680020D01*
X209521440Y-70206500D01*
X209472157Y-69958735D01*
X209331809Y-69748691D01*
X209121765Y-69608343D01*
X208973500Y-69578852D01*
X208973500Y-68907587D01*
X209086265Y-68885157D01*
X209296309Y-68744809D01*
X209436657Y-68534765D01*
X209485940Y-68287000D01*
X209485940Y-66587000D01*
X209436657Y-66339235D01*
X209342787Y-66198750D01*
X209436657Y-66058265D01*
X209485940Y-65810500D01*
X209485940Y-64158000D01*
X212336343Y-64158000D01*
X212655002Y-64476660D01*
X212655003Y-65347288D01*
X212562571Y-65439720D01*
X212405002Y-65820126D01*
X212405002Y-66231874D01*
X212562571Y-66612280D01*
X212853722Y-66903431D01*
X213234128Y-67061000D01*
X213645876Y-67061000D01*
X214026282Y-66903431D01*
X214317433Y-66612280D01*
X214475002Y-66231874D01*
X214475002Y-65820126D01*
X214317433Y-65439720D01*
X214225002Y-65347289D01*
X214225002Y-64228813D01*
X214240380Y-64151501D01*
X214225002Y-64074187D01*
X214225002Y-64074186D01*
X214179456Y-63845210D01*
X214119356Y-63755264D01*
X214049751Y-63651093D01*
X214049749Y-63651091D01*
X214005955Y-63585549D01*
X213940413Y-63541755D01*
X213271249Y-62872592D01*
X213227453Y-62807047D01*
X212967792Y-62633546D01*
X212738816Y-62588000D01*
X212738812Y-62588000D01*
X212661500Y-62572622D01*
X212584188Y-62588000D01*
X204302500Y-62588000D01*
X204302500Y-60021312D01*
X204317878Y-59944000D01*
X204302500Y-59866688D01*
X204302500Y-59866684D01*
X204256954Y-59637708D01*
X204181582Y-59524906D01*
X204127249Y-59443591D01*
X204127247Y-59443589D01*
X204083453Y-59378047D01*
X204017911Y-59334253D01*
X203280224Y-58596567D01*
X203236429Y-58531023D01*
X202976768Y-58357522D01*
X202747792Y-58311976D01*
X202747788Y-58311976D01*
X202670476Y-58296598D01*
X202593164Y-58311976D01*
X198070316Y-58311976D01*
X197993000Y-58296597D01*
X197915684Y-58311976D01*
X194708508Y-58311976D01*
X194710000Y-58308374D01*
X194710000Y-57896626D01*
X194556896Y-57527000D01*
X198314615Y-57527000D01*
X198343018Y-57595571D01*
X198690429Y-57942982D01*
X199144343Y-58131000D01*
X199635657Y-58131000D01*
X200089571Y-57942982D01*
X200251553Y-57781000D01*
X206060993Y-57781000D01*
X206423126Y-57931000D01*
X206834874Y-57931000D01*
X207197007Y-57781000D01*
X213018839Y-57781000D01*
X213106000Y-57798337D01*
X213193161Y-57781000D01*
X213193165Y-57781000D01*
X213451310Y-57729652D01*
X213744049Y-57534049D01*
X213748759Y-57527000D01*
X214530447Y-57527000D01*
X214692429Y-57688982D01*
X215146343Y-57877000D01*
X215637657Y-57877000D01*
X216091571Y-57688982D01*
X216438982Y-57341571D01*
X216627000Y-56887657D01*
X216627000Y-56396343D01*
X216438982Y-55942429D01*
X216091571Y-55595018D01*
X215637657Y-55407000D01*
X215146343Y-55407000D01*
X214692429Y-55595018D01*
X214530447Y-55757000D01*
X213447159Y-55757000D01*
X213359999Y-55739663D01*
X213272840Y-55757000D01*
X213272835Y-55757000D01*
X213014690Y-55808348D01*
X212721951Y-56003951D01*
X212717241Y-56011000D01*
X207589804Y-56011000D01*
X207664000Y-55831874D01*
X207664000Y-55420126D01*
X207506431Y-55039720D01*
X207215280Y-54748569D01*
X207169774Y-54729720D01*
X207265928Y-54497585D01*
X207265928Y-54006271D01*
X207077910Y-53552357D01*
X206730499Y-53204946D01*
X206276585Y-53016928D01*
X205906085Y-53016928D01*
X205540748Y-52651591D01*
X205496952Y-52586046D01*
X205329264Y-52474000D01*
X214840289Y-52474000D01*
X214932720Y-52566431D01*
X215313126Y-52724000D01*
X215724874Y-52724000D01*
X216105280Y-52566431D01*
X216396431Y-52275280D01*
X216554000Y-51894874D01*
X216554000Y-51483126D01*
X216396431Y-51102720D01*
X216105280Y-50811569D01*
X215724874Y-50654000D01*
X215313126Y-50654000D01*
X214932720Y-50811569D01*
X214840289Y-50904000D01*
X187910312Y-50904000D01*
X187833000Y-50888622D01*
X187755688Y-50904000D01*
X187755684Y-50904000D01*
X187526708Y-50949546D01*
X187267047Y-51123047D01*
X187223251Y-51188592D01*
X185554592Y-52857251D01*
X185489047Y-52901047D01*
X185315546Y-53160709D01*
X185270000Y-53389685D01*
X185270000Y-53389688D01*
X185254622Y-53467000D01*
X185270000Y-53544312D01*
X185270000Y-53550289D01*
X185177569Y-53642720D01*
X185020000Y-54023126D01*
X185020000Y-54434874D01*
X185117600Y-54670502D01*
X184983058Y-54726231D01*
X184691907Y-55017382D01*
X184534338Y-55397788D01*
X184534338Y-55757000D01*
X181629000Y-55757000D01*
X181629000Y-55547126D01*
X181471431Y-55166720D01*
X181379000Y-55074289D01*
X181379000Y-52752177D01*
X183575135Y-50556042D01*
X183690603Y-50579010D01*
X183827009Y-50606143D01*
X183963415Y-50579010D01*
X194916055Y-50579010D01*
X195052462Y-50606143D01*
X195188869Y-50579010D01*
X195592862Y-50498651D01*
X195942545Y-50265000D01*
X196351407Y-50265000D01*
X196755400Y-50184641D01*
X197158946Y-49915000D01*
X210728447Y-49915000D01*
X210755429Y-49941982D01*
X211209343Y-50130000D01*
X211700657Y-50130000D01*
X212154571Y-49941982D01*
X212501982Y-49594571D01*
X212690000Y-49140657D01*
X212690000Y-48649343D01*
X212501982Y-48195429D01*
X212154571Y-47848018D01*
X211700657Y-47660000D01*
X211209343Y-47660000D01*
X210762715Y-47845000D01*
X197158946Y-47845000D01*
X196755400Y-47575359D01*
X196351407Y-47495000D01*
X195502877Y-47495000D01*
X195366471Y-47467867D01*
X195230065Y-47495000D01*
X194826072Y-47575359D01*
X194476389Y-47809010D01*
X184400696Y-47809010D01*
X180328000Y-43736315D01*
X180328000Y-43378599D01*
X180441927Y-43355938D01*
X180949673Y-43016673D01*
X181288938Y-42508927D01*
X181408072Y-41910000D01*
X181288938Y-41311073D01*
X180949673Y-40803327D01*
X180441927Y-40464062D01*
X179994182Y-40375000D01*
X177891818Y-40375000D01*
X177444073Y-40464062D01*
X176936327Y-40803327D01*
X176597062Y-41311073D01*
X176477928Y-41910000D01*
X176597062Y-42508927D01*
X176936327Y-43016673D01*
X177444073Y-43355938D01*
X177558001Y-43378600D01*
X177558001Y-44173589D01*
X177530867Y-44310000D01*
X177638359Y-44850399D01*
X177638360Y-44850400D01*
X177944472Y-45308529D01*
X178060112Y-45385797D01*
X182292589Y-49618274D01*
X180093590Y-51817273D01*
X180028048Y-51861067D01*
X179984254Y-51926609D01*
X179984251Y-51926612D01*
X179854546Y-52120729D01*
X179793622Y-52427020D01*
X179809001Y-52504337D01*
X179809000Y-55074289D01*
X179716569Y-55166720D01*
X179559000Y-55547126D01*
X179559000Y-55757000D01*
X178368007Y-55757000D01*
X178024148Y-55614569D01*
X175383000Y-52973422D01*
X175383000Y-39228578D01*
X175626579Y-38985000D01*
X176788210Y-38985000D01*
X176936327Y-39206673D01*
X177444073Y-39545938D01*
X177891818Y-39635000D01*
X179994182Y-39635000D01*
X180441927Y-39545938D01*
X180949673Y-39206673D01*
X181288938Y-38698927D01*
X181408072Y-38100000D01*
X181288938Y-37501073D01*
X180949673Y-36993327D01*
X180441927Y-36654062D01*
X179994182Y-36565000D01*
X177891818Y-36565000D01*
X177444073Y-36654062D01*
X176936327Y-36993327D01*
X176788210Y-37215000D01*
X175347161Y-37215000D01*
X175260000Y-37197663D01*
X175172839Y-37215000D01*
X175172835Y-37215000D01*
X174914690Y-37266348D01*
X174695845Y-37412576D01*
X174695844Y-37412577D01*
X174621951Y-37461951D01*
X174572577Y-37535844D01*
X173933847Y-38174575D01*
X173859951Y-38223951D01*
X173664348Y-38516691D01*
X173613000Y-38774836D01*
X173613000Y-38774839D01*
X173595663Y-38862000D01*
X173613000Y-38949161D01*
X173613001Y-53252834D01*
X173595663Y-53340000D01*
X173664348Y-53685309D01*
X173810576Y-53904154D01*
X173810578Y-53904156D01*
X173859952Y-53978049D01*
X173933845Y-54027423D01*
X176544098Y-56637677D01*
X175128140Y-56637676D01*
X175050829Y-56622298D01*
X174973517Y-56637676D01*
X174973513Y-56637676D01*
X174744537Y-56683222D01*
X174550421Y-56812926D01*
X174550418Y-56812929D01*
X174484876Y-56856723D01*
X174441083Y-56922264D01*
X173553091Y-57810252D01*
X173487548Y-57854047D01*
X173443754Y-57919589D01*
X173443752Y-57919591D01*
X173314047Y-58113707D01*
X173303000Y-58169244D01*
X173303000Y-34575750D01*
X176508000Y-34575750D01*
X176508000Y-35316309D01*
X176604673Y-35549698D01*
X176783301Y-35728327D01*
X177016690Y-35825000D01*
X178657250Y-35825000D01*
X178816000Y-35666250D01*
X178816000Y-34417000D01*
X179070000Y-34417000D01*
X179070000Y-35666250D01*
X179228750Y-35825000D01*
X180869310Y-35825000D01*
X181102699Y-35728327D01*
X181281327Y-35549698D01*
X181378000Y-35316309D01*
X181378000Y-34575750D01*
X181219250Y-34417000D01*
X179070000Y-34417000D01*
X178816000Y-34417000D01*
X176666750Y-34417000D01*
X176508000Y-34575750D01*
X173303000Y-34575750D01*
X173303000Y-33263691D01*
X176508000Y-33263691D01*
X176508000Y-34004250D01*
X176666750Y-34163000D01*
X178816000Y-34163000D01*
X178816000Y-32913750D01*
X179070000Y-32913750D01*
X179070000Y-34163000D01*
X181219250Y-34163000D01*
X181378000Y-34004250D01*
X181378000Y-33263691D01*
X181281327Y-33030302D01*
X181102699Y-32851673D01*
X180869310Y-32755000D01*
X179228750Y-32755000D01*
X179070000Y-32913750D01*
X178816000Y-32913750D01*
X178657250Y-32755000D01*
X177016690Y-32755000D01*
X176783301Y-32851673D01*
X176604673Y-33030302D01*
X176508000Y-33263691D01*
X173303000Y-33263691D01*
X173303000Y-25370987D01*
X174573756Y-26641743D01*
X176461085Y-27423500D01*
X178503915Y-27423500D01*
X180391244Y-26641743D01*
X181124987Y-25908000D01*
X185420000Y-25908000D01*
X185420000Y-45593000D01*
X185468336Y-45836004D01*
X185605987Y-46042013D01*
X185811996Y-46179664D01*
X186055000Y-46228000D01*
X198247000Y-46228000D01*
X198490004Y-46179664D01*
X198696013Y-46042013D01*
X198833664Y-45836004D01*
X198882000Y-45593000D01*
X198882000Y-30590334D01*
X199144343Y-30699000D01*
X199469070Y-30699000D01*
X199438336Y-30744996D01*
X199390000Y-30988000D01*
X199390000Y-45593000D01*
X199438336Y-45836004D01*
X199575987Y-46042013D01*
X199781996Y-46179664D01*
X200025000Y-46228000D01*
X212852000Y-46228000D01*
X213095004Y-46179664D01*
X213301013Y-46042013D01*
X213438664Y-45836004D01*
X213487000Y-45593000D01*
X213487000Y-35109728D01*
X213876343Y-35271000D01*
X214367657Y-35271000D01*
X214821571Y-35082982D01*
X215168982Y-34735571D01*
X215357000Y-34281657D01*
X215357000Y-33790343D01*
X215168982Y-33336429D01*
X214907000Y-33074447D01*
X214907000Y-31446312D01*
X214922378Y-31369000D01*
X214907000Y-31291688D01*
X214907000Y-31291684D01*
X214861454Y-31062708D01*
X214731749Y-30868591D01*
X214731747Y-30868589D01*
X214687953Y-30803047D01*
X214622411Y-30759253D01*
X212826749Y-28963592D01*
X212782953Y-28898047D01*
X212523292Y-28724546D01*
X212294316Y-28679000D01*
X212294312Y-28679000D01*
X212217000Y-28663622D01*
X212139688Y-28679000D01*
X200351553Y-28679000D01*
X200089571Y-28417018D01*
X199635657Y-28229000D01*
X199144343Y-28229000D01*
X198882000Y-28337666D01*
X198882000Y-25908000D01*
X198833664Y-25664996D01*
X198696013Y-25458987D01*
X198490004Y-25321336D01*
X198247000Y-25273000D01*
X197125573Y-25273000D01*
X197503552Y-25197815D01*
X198057608Y-24827608D01*
X198427815Y-24273553D01*
X198525000Y-23784972D01*
X198525000Y-21935028D01*
X198427815Y-21446447D01*
X198336644Y-21309999D01*
X200242560Y-21309999D01*
X200242560Y-24410001D01*
X200310873Y-24753436D01*
X200505414Y-25044586D01*
X200796564Y-25239127D01*
X201139999Y-25307440D01*
X202720001Y-25307440D01*
X203063436Y-25239127D01*
X203354586Y-25044586D01*
X203549127Y-24753436D01*
X203617440Y-24410001D01*
X203617440Y-21309999D01*
X203549127Y-20966564D01*
X203354586Y-20675414D01*
X203063436Y-20480873D01*
X202720001Y-20412560D01*
X201139999Y-20412560D01*
X200796564Y-20480873D01*
X200505414Y-20675414D01*
X200310873Y-20966564D01*
X200242560Y-21309999D01*
X198336644Y-21309999D01*
X198057608Y-20892392D01*
X197503553Y-20522185D01*
X196850000Y-20392185D01*
X196196448Y-20522185D01*
X195642393Y-20892392D01*
X195272186Y-21446447D01*
X195175000Y-21935028D01*
X195175000Y-23784971D01*
X195272185Y-24273552D01*
X195642392Y-24827608D01*
X196196447Y-25197815D01*
X196574427Y-25273000D01*
X186055000Y-25273000D01*
X185811996Y-25321336D01*
X185605987Y-25458987D01*
X185468336Y-25664996D01*
X185420000Y-25908000D01*
X181124987Y-25908000D01*
X181835743Y-25197244D01*
X182617500Y-23309915D01*
X182617500Y-21267085D01*
X181835743Y-19379756D01*
X180691987Y-18236000D01*
X219802513Y-18236000D01*
X218658757Y-19379756D01*
X218658757Y-19379756D01*
G37*
X218658757Y-19379756D02*
X217877000Y-21267085D01*
X217877000Y-23309915D01*
X218658757Y-25197244D01*
X220103256Y-26641743D01*
X221990585Y-27423500D01*
X224033415Y-27423500D01*
X225920744Y-26641743D01*
X227001000Y-25561487D01*
X227001001Y-88167014D01*
X225920744Y-87086757D01*
X224033415Y-86305000D01*
X221990585Y-86305000D01*
X220103256Y-87086757D01*
X218658757Y-88531256D01*
X217877000Y-90418585D01*
X217877000Y-92461415D01*
X218658757Y-94348744D01*
X219866013Y-95556000D01*
X180628487Y-95556000D01*
X181772243Y-94412244D01*
X182554000Y-92524915D01*
X182554000Y-90482085D01*
X181772243Y-88594756D01*
X180327744Y-87150257D01*
X178440415Y-86368500D01*
X176397585Y-86368500D01*
X174510256Y-87150257D01*
X173303000Y-88357513D01*
X173303000Y-83054759D01*
X173314046Y-83110291D01*
X173487547Y-83369953D01*
X173553092Y-83413749D01*
X174796500Y-84657157D01*
X174796500Y-84787874D01*
X174954069Y-85168280D01*
X175245220Y-85459431D01*
X175625626Y-85617000D01*
X176037374Y-85617000D01*
X176417780Y-85459431D01*
X176708931Y-85168280D01*
X176866500Y-84787874D01*
X176866500Y-84376126D01*
X176708931Y-83995720D01*
X176417780Y-83704569D01*
X176037374Y-83547000D01*
X175906657Y-83547000D01*
X174838500Y-82478843D01*
X174838500Y-62728157D01*
X175232753Y-63122410D01*
X175276547Y-63187953D01*
X175342089Y-63231747D01*
X175342091Y-63231749D01*
X175515697Y-63347749D01*
X175536208Y-63361454D01*
X175765184Y-63407000D01*
X175765188Y-63407000D01*
X175842500Y-63422378D01*
X175852560Y-63420377D01*
X175852560Y-63497000D01*
X175872451Y-63597000D01*
X175852560Y-63697000D01*
X175852560Y-64147000D01*
X175872451Y-64247000D01*
X175852560Y-64347000D01*
X175852560Y-64797000D01*
X175872451Y-64897000D01*
X175852560Y-64997000D01*
X175852560Y-65447000D01*
X175872451Y-65547000D01*
X175852560Y-65647000D01*
X175852560Y-66097000D01*
X175872451Y-66197000D01*
X175852560Y-66297000D01*
X175852560Y-66747000D01*
X175872451Y-66847000D01*
X175852560Y-66947000D01*
X175852560Y-67397000D01*
X175872451Y-67497000D01*
X175852560Y-67597000D01*
X175852560Y-68047000D01*
X175872451Y-68147000D01*
X175852560Y-68247000D01*
X175852560Y-68697000D01*
X175872451Y-68797000D01*
X175852560Y-68897000D01*
X175852560Y-69347000D01*
X175901843Y-69594765D01*
X176042191Y-69804809D01*
X176252235Y-69945157D01*
X176500000Y-69994440D01*
X178250000Y-69994440D01*
X178497765Y-69945157D01*
X178554871Y-69907000D01*
X179559000Y-69907000D01*
X179559000Y-69992374D01*
X179716569Y-70372780D01*
X180007720Y-70663931D01*
X180388126Y-70821500D01*
X180799874Y-70821500D01*
X181180280Y-70663931D01*
X181471431Y-70372780D01*
X181629000Y-69992374D01*
X181629000Y-69580626D01*
X181471431Y-69200220D01*
X181200461Y-68929250D01*
X181471431Y-68658280D01*
X181629000Y-68277874D01*
X181629000Y-67866126D01*
X181471431Y-67485720D01*
X181327461Y-67341750D01*
X181534931Y-67134280D01*
X181692500Y-66753874D01*
X181692500Y-66342126D01*
X181534931Y-65961720D01*
X181243780Y-65670569D01*
X180863374Y-65513000D01*
X180451626Y-65513000D01*
X180071220Y-65670569D01*
X179780069Y-65961720D01*
X179622500Y-66342126D01*
X179622500Y-66472842D01*
X179058343Y-67037000D01*
X178897440Y-67037000D01*
X178897440Y-66947000D01*
X178877549Y-66847000D01*
X178897440Y-66747000D01*
X178897440Y-66297000D01*
X178877549Y-66197000D01*
X178897440Y-66097000D01*
X178897440Y-65647000D01*
X178877549Y-65547000D01*
X178897440Y-65447000D01*
X178897440Y-64997000D01*
X178877549Y-64897000D01*
X178897440Y-64797000D01*
X178897440Y-64707000D01*
X179565831Y-64707000D01*
X179707157Y-65048192D01*
X179998308Y-65339343D01*
X180378714Y-65496912D01*
X180790462Y-65496912D01*
X181170868Y-65339343D01*
X181462019Y-65048192D01*
X181619588Y-64667786D01*
X181619588Y-64256038D01*
X181462019Y-63875632D01*
X181302674Y-63716287D01*
X181438500Y-63388374D01*
X181438500Y-62976626D01*
X181280931Y-62596220D01*
X180989780Y-62305069D01*
X180609374Y-62147500D01*
X180197626Y-62147500D01*
X179817220Y-62305069D01*
X179635289Y-62487000D01*
X178897440Y-62487000D01*
X178897440Y-62397000D01*
X178877549Y-62297000D01*
X178897440Y-62197000D01*
X178897440Y-62107000D01*
X182117686Y-62107000D01*
X182194998Y-62122378D01*
X182272310Y-62107000D01*
X182272314Y-62107000D01*
X182501290Y-62061454D01*
X182760951Y-61887953D01*
X182804747Y-61822408D01*
X183057138Y-61570017D01*
X183072451Y-61647000D01*
X183052560Y-61747000D01*
X183052560Y-62197000D01*
X183072451Y-62297000D01*
X183052560Y-62397000D01*
X183052560Y-62847000D01*
X183072451Y-62947000D01*
X183052560Y-63047000D01*
X183052560Y-63497000D01*
X183072451Y-63597000D01*
X183052560Y-63697000D01*
X183052560Y-64147000D01*
X183072451Y-64247000D01*
X183052560Y-64347000D01*
X183052560Y-64797000D01*
X183072451Y-64897000D01*
X183052560Y-64997000D01*
X183052560Y-65447000D01*
X183072451Y-65547000D01*
X183052560Y-65647000D01*
X183052560Y-66097000D01*
X183066498Y-66167073D01*
X183065000Y-66170690D01*
X183065000Y-66250750D01*
X183087647Y-66273397D01*
X183101843Y-66344765D01*
X183220269Y-66522000D01*
X183101843Y-66699235D01*
X183087647Y-66770603D01*
X183065000Y-66793250D01*
X183065000Y-66873310D01*
X183066498Y-66876927D01*
X183052560Y-66947000D01*
X183052560Y-67397000D01*
X183072451Y-67497000D01*
X183052560Y-67597000D01*
X183052560Y-68047000D01*
X183072451Y-68147000D01*
X183052560Y-68247000D01*
X183052560Y-68697000D01*
X183072451Y-68797000D01*
X183052560Y-68897000D01*
X183052560Y-69347000D01*
X183101843Y-69594765D01*
X183242191Y-69804809D01*
X183452235Y-69945157D01*
X183700000Y-69994440D01*
X185450000Y-69994440D01*
X185697765Y-69945157D01*
X185907809Y-69804809D01*
X186048157Y-69594765D01*
X186063123Y-69519523D01*
X186293626Y-69615000D01*
X186705374Y-69615000D01*
X187085780Y-69457431D01*
X187376931Y-69166280D01*
X187506696Y-68853000D01*
X187606364Y-68853000D01*
X187986770Y-68695431D01*
X188277921Y-68404280D01*
X188435490Y-68023874D01*
X188435490Y-67628750D01*
X193248000Y-67628750D01*
X193248000Y-68219309D01*
X193344673Y-68452698D01*
X193523301Y-68631327D01*
X193756690Y-68728000D01*
X193897250Y-68728000D01*
X194056000Y-68569250D01*
X194056000Y-67470000D01*
X193406750Y-67470000D01*
X193248000Y-67628750D01*
X188435490Y-67628750D01*
X188435490Y-67612126D01*
X188277921Y-67231720D01*
X188208640Y-67162439D01*
X191698321Y-67162439D01*
X191790752Y-67254870D01*
X192171158Y-67412439D01*
X192582906Y-67412439D01*
X192963312Y-67254870D01*
X193248000Y-66970182D01*
X193248000Y-67057250D01*
X193406750Y-67216000D01*
X194056000Y-67216000D01*
X194056000Y-67196000D01*
X194310000Y-67196000D01*
X194310000Y-67216000D01*
X194330000Y-67216000D01*
X194330000Y-67470000D01*
X194310000Y-67470000D01*
X194310000Y-68569250D01*
X194468750Y-68728000D01*
X194609310Y-68728000D01*
X194826028Y-68638232D01*
X194905235Y-68691157D01*
X195153000Y-68740440D01*
X195582491Y-68740440D01*
X195497500Y-68945626D01*
X195497500Y-69076343D01*
X195424803Y-69149040D01*
X189087990Y-69149040D01*
X189010678Y-69133662D01*
X188933366Y-69149040D01*
X188933363Y-69149040D01*
X188879515Y-69159751D01*
X188544094Y-69159751D01*
X188163688Y-69317320D01*
X187905422Y-69575586D01*
X187634641Y-69575586D01*
X187254235Y-69733155D01*
X186963084Y-70024306D01*
X186805515Y-70404712D01*
X186805515Y-70816460D01*
X186963084Y-71196866D01*
X187254235Y-71488017D01*
X187634641Y-71645586D01*
X187777898Y-71645586D01*
X187934222Y-71750039D01*
X188163198Y-71795585D01*
X188163201Y-71795585D01*
X188240513Y-71810963D01*
X188317825Y-71795585D01*
X189081268Y-71795585D01*
X189158580Y-71810963D01*
X189235892Y-71795585D01*
X189235896Y-71795585D01*
X189464872Y-71750039D01*
X189724533Y-71576538D01*
X189768329Y-71510993D01*
X190021321Y-71258001D01*
X191410841Y-71258001D01*
X190555843Y-72113000D01*
X188276530Y-72113000D01*
X188224247Y-72034753D01*
X187937152Y-71842922D01*
X187598500Y-71775560D01*
X187023500Y-71775560D01*
X186684848Y-71842922D01*
X186516460Y-71955435D01*
X186445698Y-71884673D01*
X186212309Y-71788000D01*
X185846750Y-71788000D01*
X185688000Y-71946750D01*
X185688000Y-72771000D01*
X185708000Y-72771000D01*
X185708000Y-73025000D01*
X185688000Y-73025000D01*
X185688000Y-73849250D01*
X185846750Y-74008000D01*
X186212309Y-74008000D01*
X186445698Y-73911327D01*
X186516460Y-73840565D01*
X186684848Y-73953078D01*
X187023500Y-74020440D01*
X187598500Y-74020440D01*
X187937152Y-73953078D01*
X188224247Y-73761247D01*
X188276530Y-73683000D01*
X189116516Y-73683000D01*
X188360582Y-74438935D01*
X188295037Y-74482731D01*
X188251241Y-74548276D01*
X188244704Y-74558060D01*
X188121536Y-74742393D01*
X188075990Y-74971369D01*
X188075990Y-74971372D01*
X188060612Y-75048684D01*
X188075990Y-75125996D01*
X188075990Y-75711789D01*
X187983559Y-75804220D01*
X187825990Y-76184626D01*
X187825990Y-76596374D01*
X187983559Y-76976780D01*
X188274710Y-77267931D01*
X188655116Y-77425500D01*
X189066864Y-77425500D01*
X189447270Y-77267931D01*
X189738421Y-76976780D01*
X189895990Y-76596374D01*
X189895990Y-76184626D01*
X189738421Y-75804220D01*
X189645990Y-75711789D01*
X189645990Y-75373841D01*
X190342010Y-74677822D01*
X190342010Y-74749342D01*
X190499579Y-75129748D01*
X190790730Y-75420899D01*
X191171136Y-75578468D01*
X191582884Y-75578468D01*
X191963290Y-75420899D01*
X192055721Y-75328468D01*
X192117107Y-75328468D01*
X192038031Y-75519374D01*
X192038031Y-75785133D01*
X191852207Y-75909297D01*
X191809374Y-75973400D01*
X191679136Y-75973400D01*
X191298730Y-76130969D01*
X191007579Y-76422120D01*
X190850010Y-76802526D01*
X190850010Y-77214274D01*
X191007579Y-77594680D01*
X191298730Y-77885831D01*
X191679136Y-78043400D01*
X192090884Y-78043400D01*
X192471290Y-77885831D01*
X192762441Y-77594680D01*
X192900966Y-77260250D01*
X193184500Y-77260250D01*
X193184500Y-77534750D01*
X193343250Y-77693500D01*
X193992500Y-77693500D01*
X193992500Y-77673500D01*
X194246500Y-77673500D01*
X194246500Y-77693500D01*
X194266500Y-77693500D01*
X194266500Y-77947500D01*
X194246500Y-77947500D01*
X194246500Y-79046750D01*
X194405250Y-79205500D01*
X194545810Y-79205500D01*
X194762528Y-79115732D01*
X194841735Y-79168657D01*
X195089500Y-79217940D01*
X195689500Y-79217940D01*
X195874501Y-79181141D01*
X195874500Y-80304500D01*
X188859044Y-80304500D01*
X188814500Y-80295640D01*
X188766629Y-80247769D01*
X188386223Y-80090200D01*
X187991055Y-80090200D01*
X187708790Y-79807935D01*
X187488006Y-79716483D01*
X187488006Y-79630632D01*
X187330437Y-79250226D01*
X187039286Y-78959075D01*
X186658880Y-78801506D01*
X186247132Y-78801506D01*
X185866726Y-78959075D01*
X185774295Y-79051506D01*
X184672239Y-79051506D01*
X184672239Y-78986506D01*
X184650387Y-78876649D01*
X184960456Y-78938326D01*
X185472956Y-78938326D01*
X185804433Y-78872391D01*
X186085445Y-78684625D01*
X186273211Y-78403613D01*
X186332360Y-78106250D01*
X193184500Y-78106250D01*
X193184500Y-78696809D01*
X193281173Y-78930198D01*
X193459801Y-79108827D01*
X193693190Y-79205500D01*
X193833750Y-79205500D01*
X193992500Y-79046750D01*
X193992500Y-77947500D01*
X193343250Y-77947500D01*
X193184500Y-78106250D01*
X186332360Y-78106250D01*
X186339146Y-78072136D01*
X186339146Y-77634636D01*
X186273211Y-77303159D01*
X186164763Y-77140855D01*
X186230033Y-77075584D01*
X186326706Y-76842195D01*
X186326706Y-76564136D01*
X186167956Y-76405386D01*
X185343706Y-76405386D01*
X185343706Y-76425386D01*
X185089706Y-76425386D01*
X185089706Y-76405386D01*
X185069706Y-76405386D01*
X185069706Y-76151386D01*
X185089706Y-76151386D01*
X185089706Y-75364636D01*
X185343706Y-75364636D01*
X185343706Y-76151386D01*
X186167956Y-76151386D01*
X186326706Y-75992636D01*
X186326706Y-75714577D01*
X186230033Y-75481188D01*
X186051405Y-75302559D01*
X185818016Y-75205886D01*
X185502456Y-75205886D01*
X185343706Y-75364636D01*
X185089706Y-75364636D01*
X184930956Y-75205886D01*
X184672239Y-75205886D01*
X184672239Y-75086506D01*
X184647375Y-74961506D01*
X184672239Y-74836506D01*
X184672239Y-74436506D01*
X184647375Y-74311506D01*
X184672239Y-74186506D01*
X184672239Y-73907264D01*
X184676302Y-73911327D01*
X184909691Y-74008000D01*
X185275250Y-74008000D01*
X185434000Y-73849250D01*
X185434000Y-73025000D01*
X185414000Y-73025000D01*
X185414000Y-72771000D01*
X185434000Y-72771000D01*
X185434000Y-71946750D01*
X185275250Y-71788000D01*
X184909691Y-71788000D01*
X184676302Y-71884673D01*
X184502503Y-72058471D01*
X184482608Y-72028697D01*
X184272564Y-71888349D01*
X184024799Y-71839066D01*
X182924799Y-71839066D01*
X182677034Y-71888349D01*
X182466990Y-72028697D01*
X182326642Y-72238741D01*
X182277359Y-72486506D01*
X182277359Y-72886506D01*
X182302223Y-73011506D01*
X182277359Y-73136506D01*
X182277359Y-73536506D01*
X182302223Y-73661506D01*
X182277359Y-73786506D01*
X182277359Y-74186506D01*
X182302223Y-74311506D01*
X182277359Y-74436506D01*
X182277359Y-74836506D01*
X182302223Y-74961506D01*
X182277359Y-75086506D01*
X182277359Y-75486506D01*
X182302223Y-75611506D01*
X182277359Y-75736506D01*
X182277359Y-76136506D01*
X182302223Y-76261506D01*
X182277359Y-76386506D01*
X182277359Y-76786506D01*
X182302223Y-76911506D01*
X182277359Y-77036506D01*
X182277359Y-77436506D01*
X182302223Y-77561506D01*
X182277359Y-77686506D01*
X182277359Y-77751506D01*
X181937706Y-77751506D01*
X181937706Y-73311632D01*
X181953084Y-73234320D01*
X181937706Y-73157006D01*
X181937706Y-73157005D01*
X181892160Y-72928029D01*
X181718659Y-72668368D01*
X181653114Y-72624572D01*
X181375640Y-72347098D01*
X181331844Y-72281553D01*
X181072183Y-72108052D01*
X180887784Y-72071373D01*
X180786486Y-71970075D01*
X180406080Y-71812506D01*
X179994332Y-71812506D01*
X179613926Y-71970075D01*
X179322775Y-72261226D01*
X179165206Y-72641632D01*
X179165206Y-73053380D01*
X179322775Y-73433786D01*
X179543935Y-73654946D01*
X179322775Y-73876106D01*
X179165206Y-74256512D01*
X179165206Y-74387228D01*
X178972239Y-74580195D01*
X178972239Y-74436506D01*
X178947375Y-74311506D01*
X178972239Y-74186506D01*
X178972239Y-73786506D01*
X178947375Y-73661506D01*
X178972239Y-73536506D01*
X178972239Y-73136506D01*
X178951582Y-73032654D01*
X178959799Y-73012816D01*
X178959799Y-72945256D01*
X178927841Y-72913298D01*
X178922956Y-72888741D01*
X178782608Y-72678697D01*
X178644635Y-72586506D01*
X178801049Y-72586506D01*
X178959799Y-72427756D01*
X178959799Y-72360196D01*
X178863126Y-72126807D01*
X178684497Y-71948179D01*
X178451108Y-71851506D01*
X178060549Y-71851506D01*
X177901799Y-72010256D01*
X177901799Y-72489066D01*
X177647799Y-72489066D01*
X177647799Y-72010256D01*
X177489049Y-71851506D01*
X177098490Y-71851506D01*
X176865101Y-71948179D01*
X176686472Y-72126807D01*
X176589799Y-72360196D01*
X176589799Y-72427756D01*
X176748549Y-72586506D01*
X176904963Y-72586506D01*
X176766990Y-72678697D01*
X176626642Y-72888741D01*
X176621757Y-72913298D01*
X176589799Y-72945256D01*
X176589799Y-73012816D01*
X176598016Y-73032654D01*
X176577359Y-73136506D01*
X176577359Y-73536506D01*
X176602223Y-73661506D01*
X176577359Y-73786506D01*
X176577359Y-74186506D01*
X176602223Y-74311506D01*
X176577359Y-74436506D01*
X176577359Y-74836506D01*
X176602223Y-74961506D01*
X176577359Y-75086506D01*
X176577359Y-75486506D01*
X176602223Y-75611506D01*
X176577359Y-75736506D01*
X176577359Y-76136506D01*
X176602223Y-76261506D01*
X176577359Y-76386506D01*
X176577359Y-76786506D01*
X176602223Y-76911506D01*
X176577359Y-77036506D01*
X176577359Y-77436506D01*
X176602223Y-77561506D01*
X176577359Y-77686506D01*
X176577359Y-78086506D01*
X176602223Y-78211506D01*
X176577359Y-78336506D01*
X176577359Y-78736506D01*
X176602223Y-78861506D01*
X176577359Y-78986506D01*
X176577359Y-79386506D01*
X176602223Y-79511506D01*
X176577359Y-79636506D01*
X176577359Y-80036506D01*
X176602223Y-80161506D01*
X176577359Y-80286506D01*
X176577359Y-80686506D01*
X176602223Y-80811506D01*
X176577359Y-80936506D01*
X176577359Y-81336506D01*
X176626642Y-81584271D01*
X176766990Y-81794315D01*
X176977034Y-81934663D01*
X177061771Y-81951518D01*
X176795569Y-82217720D01*
X176638000Y-82598126D01*
X176638000Y-83009874D01*
X176795569Y-83390280D01*
X177086720Y-83681431D01*
X177467126Y-83839000D01*
X177548343Y-83839000D01*
X182710060Y-89000718D01*
X182710060Y-89300500D01*
X182777422Y-89639152D01*
X182969253Y-89926247D01*
X183256348Y-90118078D01*
X183595000Y-90185440D01*
X184070000Y-90185440D01*
X184408652Y-90118078D01*
X184658000Y-89951469D01*
X184907348Y-90118078D01*
X185246000Y-90185440D01*
X185721000Y-90185440D01*
X186059652Y-90118078D01*
X186346747Y-89926247D01*
X186533512Y-89646734D01*
X186634953Y-89578953D01*
X186678749Y-89513408D01*
X187175000Y-89017157D01*
X187175001Y-92442183D01*
X187159622Y-92519500D01*
X187220546Y-92825791D01*
X187350251Y-93019908D01*
X187350254Y-93019911D01*
X187394048Y-93085453D01*
X187459590Y-93129247D01*
X188048753Y-93718410D01*
X188092547Y-93783953D01*
X188158089Y-93827747D01*
X188158091Y-93827749D01*
X188233125Y-93877885D01*
X188352208Y-93957454D01*
X188581184Y-94003000D01*
X188581188Y-94003000D01*
X188658499Y-94018378D01*
X188735810Y-94003000D01*
X201060789Y-94003000D01*
X201153220Y-94095431D01*
X201533626Y-94253000D01*
X201945374Y-94253000D01*
X202325780Y-94095431D01*
X202418211Y-94003000D01*
X204519688Y-94003000D01*
X204597000Y-94018378D01*
X204674312Y-94003000D01*
X204674316Y-94003000D01*
X204856235Y-93966814D01*
X204911577Y-94022156D01*
X204960951Y-94096049D01*
X205034844Y-94145423D01*
X205034845Y-94145424D01*
X205253690Y-94291652D01*
X205511835Y-94343000D01*
X205511839Y-94343000D01*
X205599000Y-94360337D01*
X205686161Y-94343000D01*
X206635879Y-94343000D01*
X206654753Y-94371247D01*
X206941848Y-94563078D01*
X207280500Y-94630440D01*
X207755500Y-94630440D01*
X208094152Y-94563078D01*
X208381247Y-94371247D01*
X208400121Y-94343000D01*
X209175879Y-94343000D01*
X209194753Y-94371247D01*
X209481848Y-94563078D01*
X209820500Y-94630440D01*
X210295500Y-94630440D01*
X210634152Y-94563078D01*
X210921247Y-94371247D01*
X211113078Y-94084152D01*
X211180440Y-93745500D01*
X211180440Y-93170500D01*
X211113078Y-92831848D01*
X210946803Y-92583000D01*
X211113078Y-92334152D01*
X211180440Y-91995500D01*
X211180440Y-91420500D01*
X211113078Y-91081848D01*
X210943000Y-90827309D01*
X210943000Y-90729709D01*
X211143044Y-90596044D01*
X211475678Y-90098221D01*
X211563000Y-89659225D01*
X211563000Y-88902774D01*
X211475678Y-88463778D01*
X211143044Y-87965956D01*
X210843000Y-87765473D01*
X210843000Y-85230810D01*
X210858378Y-85153499D01*
X210843000Y-85076188D01*
X210843000Y-85076184D01*
X210797454Y-84847208D01*
X210717885Y-84728125D01*
X210667749Y-84653091D01*
X210667747Y-84653089D01*
X210623953Y-84587547D01*
X210558411Y-84543753D01*
X209842249Y-83827592D01*
X209798453Y-83762047D01*
X209538792Y-83588546D01*
X209309816Y-83543000D01*
X209309812Y-83543000D01*
X209232500Y-83527622D01*
X209155188Y-83543000D01*
X206528211Y-83543000D01*
X206744431Y-83326780D01*
X206902000Y-82946374D01*
X206902000Y-82630001D01*
X209993002Y-82630001D01*
X210070314Y-82645379D01*
X210083955Y-82642666D01*
X210106720Y-82665431D01*
X210487126Y-82823000D01*
X210898874Y-82823000D01*
X211279280Y-82665431D01*
X211570431Y-82374280D01*
X211728000Y-81993874D01*
X211728000Y-81582126D01*
X211570431Y-81201720D01*
X211279280Y-80910569D01*
X210898874Y-80753000D01*
X210487126Y-80753000D01*
X210106720Y-80910569D01*
X210005422Y-81011867D01*
X209821023Y-81048546D01*
X209803879Y-81060001D01*
X209584940Y-81060001D01*
X209584940Y-79795000D01*
X209535657Y-79547235D01*
X209395309Y-79337191D01*
X209185265Y-79196843D01*
X209105462Y-79180969D01*
X209149765Y-79172157D01*
X209359809Y-79031809D01*
X209500157Y-78821765D01*
X209549440Y-78574000D01*
X209549440Y-78435960D01*
X209767953Y-78289953D01*
X209811750Y-78224407D01*
X212844411Y-75191747D01*
X212909953Y-75147953D01*
X212953747Y-75082411D01*
X212953749Y-75082409D01*
X213083454Y-74888292D01*
X213083454Y-74888291D01*
X213129000Y-74659316D01*
X213129000Y-74659313D01*
X213144378Y-74582001D01*
X213129000Y-74504689D01*
X213129000Y-72975310D01*
X213144378Y-72897999D01*
X213129000Y-72820688D01*
X213129000Y-72820684D01*
X213083454Y-72591708D01*
X212909953Y-72332047D01*
X212844408Y-72288251D01*
X212572749Y-72016592D01*
X212528953Y-71951047D01*
X212269292Y-71777546D01*
X212040316Y-71732000D01*
X212040312Y-71732000D01*
X211963000Y-71716622D01*
X211885688Y-71732000D01*
X210770177Y-71732000D01*
X212184678Y-70317500D01*
X217380289Y-70317500D01*
X217472720Y-70409931D01*
X217508421Y-70424719D01*
X217492564Y-70427873D01*
X217201414Y-70622414D01*
X217006873Y-70913564D01*
X216938560Y-71256999D01*
X216938560Y-72507001D01*
X217006873Y-72850436D01*
X217201414Y-73141586D01*
X217492564Y-73336127D01*
X217835999Y-73404440D01*
X218536001Y-73404440D01*
X218879436Y-73336127D01*
X219170586Y-73141586D01*
X219264573Y-73000926D01*
X219295616Y-73047385D01*
X219401000Y-73117800D01*
X219401001Y-76488199D01*
X219295615Y-76558615D01*
X219264572Y-76605074D01*
X219170586Y-76464414D01*
X218879436Y-76269873D01*
X218536001Y-76201560D01*
X217835999Y-76201560D01*
X217492564Y-76269873D01*
X217201414Y-76464414D01*
X217006873Y-76755564D01*
X216938560Y-77098999D01*
X216938560Y-78349001D01*
X217006873Y-78692436D01*
X217201414Y-78983586D01*
X217492564Y-79178127D01*
X217835999Y-79246440D01*
X218536001Y-79246440D01*
X218879436Y-79178127D01*
X219170586Y-78983586D01*
X219264573Y-78842926D01*
X219295616Y-78889385D01*
X219401000Y-78959800D01*
X219401001Y-82203198D01*
X219295615Y-82273615D01*
X219264572Y-82320074D01*
X219170586Y-82179414D01*
X218879436Y-81984873D01*
X218536001Y-81916560D01*
X217835999Y-81916560D01*
X217492564Y-81984873D01*
X217201414Y-82179414D01*
X217006873Y-82470564D01*
X216938560Y-82813999D01*
X216938560Y-84064001D01*
X217006873Y-84407436D01*
X217201414Y-84698586D01*
X217492564Y-84893127D01*
X217835999Y-84961440D01*
X218536001Y-84961440D01*
X218879436Y-84893127D01*
X219170586Y-84698586D01*
X219264573Y-84557926D01*
X219295616Y-84604385D01*
X219704128Y-84877344D01*
X220186000Y-84973195D01*
X220667873Y-84877344D01*
X221076385Y-84604385D01*
X221195167Y-84426615D01*
X221402526Y-84677080D01*
X221830719Y-84903592D01*
X221868391Y-84907462D01*
X222059000Y-84782731D01*
X222059000Y-83566000D01*
X222313000Y-83566000D01*
X222313000Y-84782731D01*
X222503609Y-84907462D01*
X222541281Y-84903592D01*
X222969474Y-84677080D01*
X223278390Y-84303947D01*
X223421000Y-83841000D01*
X223421000Y-83566000D01*
X222313000Y-83566000D01*
X222059000Y-83566000D01*
X222039000Y-83566000D01*
X222039000Y-83312000D01*
X222059000Y-83312000D01*
X222059000Y-82095269D01*
X222313000Y-82095269D01*
X222313000Y-83312000D01*
X223421000Y-83312000D01*
X223421000Y-83037000D01*
X223278390Y-82574053D01*
X222969474Y-82200920D01*
X222541281Y-81974408D01*
X222503609Y-81970538D01*
X222313000Y-82095269D01*
X222059000Y-82095269D01*
X221868391Y-81970538D01*
X221830719Y-81974408D01*
X221402526Y-82200920D01*
X221195167Y-82451385D01*
X221076385Y-82273615D01*
X220971000Y-82203199D01*
X220971000Y-78959801D01*
X221076385Y-78889385D01*
X221195167Y-78711615D01*
X221402526Y-78962080D01*
X221830719Y-79188592D01*
X221868391Y-79192462D01*
X222059000Y-79067731D01*
X222059000Y-77851000D01*
X222313000Y-77851000D01*
X222313000Y-79067731D01*
X222503609Y-79192462D01*
X222541281Y-79188592D01*
X222969474Y-78962080D01*
X223278390Y-78588947D01*
X223421000Y-78126000D01*
X223421000Y-77851000D01*
X222313000Y-77851000D01*
X222059000Y-77851000D01*
X222039000Y-77851000D01*
X222039000Y-77597000D01*
X222059000Y-77597000D01*
X222059000Y-76380269D01*
X222313000Y-76380269D01*
X222313000Y-77597000D01*
X223421000Y-77597000D01*
X223421000Y-77322000D01*
X223278390Y-76859053D01*
X222969474Y-76485920D01*
X222541281Y-76259408D01*
X222503609Y-76255538D01*
X222313000Y-76380269D01*
X222059000Y-76380269D01*
X221868391Y-76255538D01*
X221830719Y-76259408D01*
X221402526Y-76485920D01*
X221195167Y-76736385D01*
X221076385Y-76558615D01*
X220971000Y-76488199D01*
X220971000Y-73117801D01*
X221076385Y-73047385D01*
X221195167Y-72869615D01*
X221402526Y-73120080D01*
X221830719Y-73346592D01*
X221868391Y-73350462D01*
X222059000Y-73225731D01*
X222059000Y-72009000D01*
X222313000Y-72009000D01*
X222313000Y-73225731D01*
X222503609Y-73350462D01*
X222541281Y-73346592D01*
X222969474Y-73120080D01*
X223278390Y-72746947D01*
X223421000Y-72284000D01*
X223421000Y-72009000D01*
X222313000Y-72009000D01*
X222059000Y-72009000D01*
X222039000Y-72009000D01*
X222039000Y-71755000D01*
X222059000Y-71755000D01*
X222059000Y-70538269D01*
X222313000Y-70538269D01*
X222313000Y-71755000D01*
X223421000Y-71755000D01*
X223421000Y-71480000D01*
X223278390Y-71017053D01*
X222969474Y-70643920D01*
X222541281Y-70417408D01*
X222503609Y-70413538D01*
X222313000Y-70538269D01*
X222059000Y-70538269D01*
X221868391Y-70413538D01*
X221830719Y-70417408D01*
X221402526Y-70643920D01*
X221195167Y-70894385D01*
X221076385Y-70716615D01*
X220971000Y-70646199D01*
X220971000Y-67275801D01*
X221076385Y-67205385D01*
X221195167Y-67027615D01*
X221402526Y-67278080D01*
X221830719Y-67504592D01*
X221868391Y-67508462D01*
X222059000Y-67383731D01*
X222059000Y-66167000D01*
X222313000Y-66167000D01*
X222313000Y-67383731D01*
X222503609Y-67508462D01*
X222541281Y-67504592D01*
X222969474Y-67278080D01*
X223278390Y-66904947D01*
X223421000Y-66442000D01*
X223421000Y-66167000D01*
X222313000Y-66167000D01*
X222059000Y-66167000D01*
X222039000Y-66167000D01*
X222039000Y-65913000D01*
X222059000Y-65913000D01*
X222059000Y-64696269D01*
X222313000Y-64696269D01*
X222313000Y-65913000D01*
X223421000Y-65913000D01*
X223421000Y-65638000D01*
X223278390Y-65175053D01*
X222969474Y-64801920D01*
X222541281Y-64575408D01*
X222503609Y-64571538D01*
X222313000Y-64696269D01*
X222059000Y-64696269D01*
X221868391Y-64571538D01*
X221830719Y-64575408D01*
X221402526Y-64801920D01*
X221195167Y-65052385D01*
X221076385Y-64874615D01*
X220971000Y-64804199D01*
X220971000Y-61560801D01*
X221076385Y-61490385D01*
X221195167Y-61312615D01*
X221402526Y-61563080D01*
X221830719Y-61789592D01*
X221868391Y-61793462D01*
X222059000Y-61668731D01*
X222059000Y-60452000D01*
X222313000Y-60452000D01*
X222313000Y-61668731D01*
X222503609Y-61793462D01*
X222541281Y-61789592D01*
X222969474Y-61563080D01*
X223278390Y-61189947D01*
X223421000Y-60727000D01*
X223421000Y-60452000D01*
X222313000Y-60452000D01*
X222059000Y-60452000D01*
X222039000Y-60452000D01*
X222039000Y-60198000D01*
X222059000Y-60198000D01*
X222059000Y-58981269D01*
X222313000Y-58981269D01*
X222313000Y-60198000D01*
X223421000Y-60198000D01*
X223421000Y-59923000D01*
X223278390Y-59460053D01*
X222969474Y-59086920D01*
X222541281Y-58860408D01*
X222503609Y-58856538D01*
X222313000Y-58981269D01*
X222059000Y-58981269D01*
X221868391Y-58856538D01*
X221830719Y-58860408D01*
X221402526Y-59086920D01*
X221195167Y-59337385D01*
X221076385Y-59159615D01*
X220971000Y-59089199D01*
X220971000Y-55845801D01*
X221076385Y-55775385D01*
X221195167Y-55597615D01*
X221402526Y-55848080D01*
X221830719Y-56074592D01*
X221868391Y-56078462D01*
X222059000Y-55953731D01*
X222059000Y-54737000D01*
X222313000Y-54737000D01*
X222313000Y-55953731D01*
X222503609Y-56078462D01*
X222541281Y-56074592D01*
X222969474Y-55848080D01*
X223278390Y-55474947D01*
X223421000Y-55012000D01*
X223421000Y-54737000D01*
X222313000Y-54737000D01*
X222059000Y-54737000D01*
X222039000Y-54737000D01*
X222039000Y-54483000D01*
X222059000Y-54483000D01*
X222059000Y-53266269D01*
X222313000Y-53266269D01*
X222313000Y-54483000D01*
X223421000Y-54483000D01*
X223421000Y-54208000D01*
X223278390Y-53745053D01*
X222969474Y-53371920D01*
X222541281Y-53145408D01*
X222503609Y-53141538D01*
X222313000Y-53266269D01*
X222059000Y-53266269D01*
X221868391Y-53141538D01*
X221830719Y-53145408D01*
X221402526Y-53371920D01*
X221195167Y-53622385D01*
X221076385Y-53444615D01*
X220667872Y-53171656D01*
X220186000Y-53075805D01*
X219704127Y-53171656D01*
X219295615Y-53444615D01*
X219264572Y-53491074D01*
X219170586Y-53350414D01*
X218879436Y-53155873D01*
X218536001Y-53087560D01*
X217835999Y-53087560D01*
X217492564Y-53155873D01*
X217201414Y-53350414D01*
X217006873Y-53641564D01*
X216938560Y-53984999D01*
X216938560Y-55235001D01*
X217006873Y-55578436D01*
X217201414Y-55869586D01*
X217492564Y-56064127D01*
X217835999Y-56132440D01*
X218536001Y-56132440D01*
X218879436Y-56064127D01*
X219170586Y-55869586D01*
X219264573Y-55728926D01*
X219295616Y-55775385D01*
X219401000Y-55845800D01*
X219401001Y-59089199D01*
X219295615Y-59159615D01*
X219264572Y-59206074D01*
X219170586Y-59065414D01*
X218879436Y-58870873D01*
X218536001Y-58802560D01*
X217835999Y-58802560D01*
X217492564Y-58870873D01*
X217201414Y-59065414D01*
X217006873Y-59356564D01*
X216938560Y-59699999D01*
X216938560Y-60950001D01*
X217006873Y-61293436D01*
X217201414Y-61584586D01*
X217492564Y-61779127D01*
X217835999Y-61847440D01*
X218536001Y-61847440D01*
X218879436Y-61779127D01*
X219170586Y-61584586D01*
X219264573Y-61443926D01*
X219295616Y-61490385D01*
X219401000Y-61560800D01*
X219401001Y-64804199D01*
X219295615Y-64874615D01*
X219264572Y-64921074D01*
X219170586Y-64780414D01*
X218879436Y-64585873D01*
X218536001Y-64517560D01*
X217835999Y-64517560D01*
X217492564Y-64585873D01*
X217201414Y-64780414D01*
X217006873Y-65071564D01*
X216938560Y-65414999D01*
X216938560Y-66665001D01*
X217006873Y-67008436D01*
X217201414Y-67299586D01*
X217492564Y-67494127D01*
X217835999Y-67562440D01*
X218536001Y-67562440D01*
X218879436Y-67494127D01*
X219170586Y-67299586D01*
X219264573Y-67158926D01*
X219295616Y-67205385D01*
X219401000Y-67275800D01*
X219401001Y-70646198D01*
X219295615Y-70716615D01*
X219264572Y-70763074D01*
X219170586Y-70622414D01*
X218879436Y-70427873D01*
X218669164Y-70386047D01*
X218936431Y-70118780D01*
X219094000Y-69738374D01*
X219094000Y-69326626D01*
X218936431Y-68946220D01*
X218645280Y-68655069D01*
X218264874Y-68497500D01*
X217853126Y-68497500D01*
X217472720Y-68655069D01*
X217380289Y-68747500D01*
X211936830Y-68747500D01*
X211859519Y-68732122D01*
X211782208Y-68747500D01*
X211782204Y-68747500D01*
X211553228Y-68793046D01*
X211553226Y-68793047D01*
X211553227Y-68793047D01*
X211359111Y-68922751D01*
X211359109Y-68922753D01*
X211293567Y-68966547D01*
X211249773Y-69032089D01*
X209601843Y-70680020D01*
X209521440Y-70680020D01*
X209521440Y-70206500D01*
X209472157Y-69958735D01*
X209331809Y-69748691D01*
X209121765Y-69608343D01*
X208973500Y-69578852D01*
X208973500Y-68907587D01*
X209086265Y-68885157D01*
X209296309Y-68744809D01*
X209436657Y-68534765D01*
X209485940Y-68287000D01*
X209485940Y-66587000D01*
X209436657Y-66339235D01*
X209342787Y-66198750D01*
X209436657Y-66058265D01*
X209485940Y-65810500D01*
X209485940Y-64158000D01*
X212336343Y-64158000D01*
X212655002Y-64476660D01*
X212655003Y-65347288D01*
X212562571Y-65439720D01*
X212405002Y-65820126D01*
X212405002Y-66231874D01*
X212562571Y-66612280D01*
X212853722Y-66903431D01*
X213234128Y-67061000D01*
X213645876Y-67061000D01*
X214026282Y-66903431D01*
X214317433Y-66612280D01*
X214475002Y-66231874D01*
X214475002Y-65820126D01*
X214317433Y-65439720D01*
X214225002Y-65347289D01*
X214225002Y-64228813D01*
X214240380Y-64151501D01*
X214225002Y-64074187D01*
X214225002Y-64074186D01*
X214179456Y-63845210D01*
X214119356Y-63755264D01*
X214049751Y-63651093D01*
X214049749Y-63651091D01*
X214005955Y-63585549D01*
X213940413Y-63541755D01*
X213271249Y-62872592D01*
X213227453Y-62807047D01*
X212967792Y-62633546D01*
X212738816Y-62588000D01*
X212738812Y-62588000D01*
X212661500Y-62572622D01*
X212584188Y-62588000D01*
X204302500Y-62588000D01*
X204302500Y-60021312D01*
X204317878Y-59944000D01*
X204302500Y-59866688D01*
X204302500Y-59866684D01*
X204256954Y-59637708D01*
X204181582Y-59524906D01*
X204127249Y-59443591D01*
X204127247Y-59443589D01*
X204083453Y-59378047D01*
X204017911Y-59334253D01*
X203280224Y-58596567D01*
X203236429Y-58531023D01*
X202976768Y-58357522D01*
X202747792Y-58311976D01*
X202747788Y-58311976D01*
X202670476Y-58296598D01*
X202593164Y-58311976D01*
X198070316Y-58311976D01*
X197993000Y-58296597D01*
X197915684Y-58311976D01*
X194708508Y-58311976D01*
X194710000Y-58308374D01*
X194710000Y-57896626D01*
X194556896Y-57527000D01*
X198314615Y-57527000D01*
X198343018Y-57595571D01*
X198690429Y-57942982D01*
X199144343Y-58131000D01*
X199635657Y-58131000D01*
X200089571Y-57942982D01*
X200251553Y-57781000D01*
X206060993Y-57781000D01*
X206423126Y-57931000D01*
X206834874Y-57931000D01*
X207197007Y-57781000D01*
X213018839Y-57781000D01*
X213106000Y-57798337D01*
X213193161Y-57781000D01*
X213193165Y-57781000D01*
X213451310Y-57729652D01*
X213744049Y-57534049D01*
X213748759Y-57527000D01*
X214530447Y-57527000D01*
X214692429Y-57688982D01*
X215146343Y-57877000D01*
X215637657Y-57877000D01*
X216091571Y-57688982D01*
X216438982Y-57341571D01*
X216627000Y-56887657D01*
X216627000Y-56396343D01*
X216438982Y-55942429D01*
X216091571Y-55595018D01*
X215637657Y-55407000D01*
X215146343Y-55407000D01*
X214692429Y-55595018D01*
X214530447Y-55757000D01*
X213447159Y-55757000D01*
X213359999Y-55739663D01*
X213272840Y-55757000D01*
X213272835Y-55757000D01*
X213014690Y-55808348D01*
X212721951Y-56003951D01*
X212717241Y-56011000D01*
X207589804Y-56011000D01*
X207664000Y-55831874D01*
X207664000Y-55420126D01*
X207506431Y-55039720D01*
X207215280Y-54748569D01*
X207169774Y-54729720D01*
X207265928Y-54497585D01*
X207265928Y-54006271D01*
X207077910Y-53552357D01*
X206730499Y-53204946D01*
X206276585Y-53016928D01*
X205906085Y-53016928D01*
X205540748Y-52651591D01*
X205496952Y-52586046D01*
X205329264Y-52474000D01*
X214840289Y-52474000D01*
X214932720Y-52566431D01*
X215313126Y-52724000D01*
X215724874Y-52724000D01*
X216105280Y-52566431D01*
X216396431Y-52275280D01*
X216554000Y-51894874D01*
X216554000Y-51483126D01*
X216396431Y-51102720D01*
X216105280Y-50811569D01*
X215724874Y-50654000D01*
X215313126Y-50654000D01*
X214932720Y-50811569D01*
X214840289Y-50904000D01*
X187910312Y-50904000D01*
X187833000Y-50888622D01*
X187755688Y-50904000D01*
X187755684Y-50904000D01*
X187526708Y-50949546D01*
X187267047Y-51123047D01*
X187223251Y-51188592D01*
X185554592Y-52857251D01*
X185489047Y-52901047D01*
X185315546Y-53160709D01*
X185270000Y-53389685D01*
X185270000Y-53389688D01*
X185254622Y-53467000D01*
X185270000Y-53544312D01*
X185270000Y-53550289D01*
X185177569Y-53642720D01*
X185020000Y-54023126D01*
X185020000Y-54434874D01*
X185117600Y-54670502D01*
X184983058Y-54726231D01*
X184691907Y-55017382D01*
X184534338Y-55397788D01*
X184534338Y-55757000D01*
X181629000Y-55757000D01*
X181629000Y-55547126D01*
X181471431Y-55166720D01*
X181379000Y-55074289D01*
X181379000Y-52752177D01*
X183575135Y-50556042D01*
X183690603Y-50579010D01*
X183827009Y-50606143D01*
X183963415Y-50579010D01*
X194916055Y-50579010D01*
X195052462Y-50606143D01*
X195188869Y-50579010D01*
X195592862Y-50498651D01*
X195942545Y-50265000D01*
X196351407Y-50265000D01*
X196755400Y-50184641D01*
X197158946Y-49915000D01*
X210728447Y-49915000D01*
X210755429Y-49941982D01*
X211209343Y-50130000D01*
X211700657Y-50130000D01*
X212154571Y-49941982D01*
X212501982Y-49594571D01*
X212690000Y-49140657D01*
X212690000Y-48649343D01*
X212501982Y-48195429D01*
X212154571Y-47848018D01*
X211700657Y-47660000D01*
X211209343Y-47660000D01*
X210762715Y-47845000D01*
X197158946Y-47845000D01*
X196755400Y-47575359D01*
X196351407Y-47495000D01*
X195502877Y-47495000D01*
X195366471Y-47467867D01*
X195230065Y-47495000D01*
X194826072Y-47575359D01*
X194476389Y-47809010D01*
X184400696Y-47809010D01*
X180328000Y-43736315D01*
X180328000Y-43378599D01*
X180441927Y-43355938D01*
X180949673Y-43016673D01*
X181288938Y-42508927D01*
X181408072Y-41910000D01*
X181288938Y-41311073D01*
X180949673Y-40803327D01*
X180441927Y-40464062D01*
X179994182Y-40375000D01*
X177891818Y-40375000D01*
X177444073Y-40464062D01*
X176936327Y-40803327D01*
X176597062Y-41311073D01*
X176477928Y-41910000D01*
X176597062Y-42508927D01*
X176936327Y-43016673D01*
X177444073Y-43355938D01*
X177558001Y-43378600D01*
X177558001Y-44173589D01*
X177530867Y-44310000D01*
X177638359Y-44850399D01*
X177638360Y-44850400D01*
X177944472Y-45308529D01*
X178060112Y-45385797D01*
X182292589Y-49618274D01*
X180093590Y-51817273D01*
X180028048Y-51861067D01*
X179984254Y-51926609D01*
X179984251Y-51926612D01*
X179854546Y-52120729D01*
X179793622Y-52427020D01*
X179809001Y-52504337D01*
X179809000Y-55074289D01*
X179716569Y-55166720D01*
X179559000Y-55547126D01*
X179559000Y-55757000D01*
X178368007Y-55757000D01*
X178024148Y-55614569D01*
X175383000Y-52973422D01*
X175383000Y-39228578D01*
X175626579Y-38985000D01*
X176788210Y-38985000D01*
X176936327Y-39206673D01*
X177444073Y-39545938D01*
X177891818Y-39635000D01*
X179994182Y-39635000D01*
X180441927Y-39545938D01*
X180949673Y-39206673D01*
X181288938Y-38698927D01*
X181408072Y-38100000D01*
X181288938Y-37501073D01*
X180949673Y-36993327D01*
X180441927Y-36654062D01*
X179994182Y-36565000D01*
X177891818Y-36565000D01*
X177444073Y-36654062D01*
X176936327Y-36993327D01*
X176788210Y-37215000D01*
X175347161Y-37215000D01*
X175260000Y-37197663D01*
X175172839Y-37215000D01*
X175172835Y-37215000D01*
X174914690Y-37266348D01*
X174695845Y-37412576D01*
X174695844Y-37412577D01*
X174621951Y-37461951D01*
X174572577Y-37535844D01*
X173933847Y-38174575D01*
X173859951Y-38223951D01*
X173664348Y-38516691D01*
X173613000Y-38774836D01*
X173613000Y-38774839D01*
X173595663Y-38862000D01*
X173613000Y-38949161D01*
X173613001Y-53252834D01*
X173595663Y-53340000D01*
X173664348Y-53685309D01*
X173810576Y-53904154D01*
X173810578Y-53904156D01*
X173859952Y-53978049D01*
X173933845Y-54027423D01*
X176544098Y-56637677D01*
X175128140Y-56637676D01*
X175050829Y-56622298D01*
X174973517Y-56637676D01*
X174973513Y-56637676D01*
X174744537Y-56683222D01*
X174550421Y-56812926D01*
X174550418Y-56812929D01*
X174484876Y-56856723D01*
X174441083Y-56922264D01*
X173553091Y-57810252D01*
X173487548Y-57854047D01*
X173443754Y-57919589D01*
X173443752Y-57919591D01*
X173314047Y-58113707D01*
X173303000Y-58169244D01*
X173303000Y-34575750D01*
X176508000Y-34575750D01*
X176508000Y-35316309D01*
X176604673Y-35549698D01*
X176783301Y-35728327D01*
X177016690Y-35825000D01*
X178657250Y-35825000D01*
X178816000Y-35666250D01*
X178816000Y-34417000D01*
X179070000Y-34417000D01*
X179070000Y-35666250D01*
X179228750Y-35825000D01*
X180869310Y-35825000D01*
X181102699Y-35728327D01*
X181281327Y-35549698D01*
X181378000Y-35316309D01*
X181378000Y-34575750D01*
X181219250Y-34417000D01*
X179070000Y-34417000D01*
X178816000Y-34417000D01*
X176666750Y-34417000D01*
X176508000Y-34575750D01*
X173303000Y-34575750D01*
X173303000Y-33263691D01*
X176508000Y-33263691D01*
X176508000Y-34004250D01*
X176666750Y-34163000D01*
X178816000Y-34163000D01*
X178816000Y-32913750D01*
X179070000Y-32913750D01*
X179070000Y-34163000D01*
X181219250Y-34163000D01*
X181378000Y-34004250D01*
X181378000Y-33263691D01*
X181281327Y-33030302D01*
X181102699Y-32851673D01*
X180869310Y-32755000D01*
X179228750Y-32755000D01*
X179070000Y-32913750D01*
X178816000Y-32913750D01*
X178657250Y-32755000D01*
X177016690Y-32755000D01*
X176783301Y-32851673D01*
X176604673Y-33030302D01*
X176508000Y-33263691D01*
X173303000Y-33263691D01*
X173303000Y-25370987D01*
X174573756Y-26641743D01*
X176461085Y-27423500D01*
X178503915Y-27423500D01*
X180391244Y-26641743D01*
X181124987Y-25908000D01*
X185420000Y-25908000D01*
X185420000Y-45593000D01*
X185468336Y-45836004D01*
X185605987Y-46042013D01*
X185811996Y-46179664D01*
X186055000Y-46228000D01*
X198247000Y-46228000D01*
X198490004Y-46179664D01*
X198696013Y-46042013D01*
X198833664Y-45836004D01*
X198882000Y-45593000D01*
X198882000Y-30590334D01*
X199144343Y-30699000D01*
X199469070Y-30699000D01*
X199438336Y-30744996D01*
X199390000Y-30988000D01*
X199390000Y-45593000D01*
X199438336Y-45836004D01*
X199575987Y-46042013D01*
X199781996Y-46179664D01*
X200025000Y-46228000D01*
X212852000Y-46228000D01*
X213095004Y-46179664D01*
X213301013Y-46042013D01*
X213438664Y-45836004D01*
X213487000Y-45593000D01*
X213487000Y-35109728D01*
X213876343Y-35271000D01*
X214367657Y-35271000D01*
X214821571Y-35082982D01*
X215168982Y-34735571D01*
X215357000Y-34281657D01*
X215357000Y-33790343D01*
X215168982Y-33336429D01*
X214907000Y-33074447D01*
X214907000Y-31446312D01*
X214922378Y-31369000D01*
X214907000Y-31291688D01*
X214907000Y-31291684D01*
X214861454Y-31062708D01*
X214731749Y-30868591D01*
X214731747Y-30868589D01*
X214687953Y-30803047D01*
X214622411Y-30759253D01*
X212826749Y-28963592D01*
X212782953Y-28898047D01*
X212523292Y-28724546D01*
X212294316Y-28679000D01*
X212294312Y-28679000D01*
X212217000Y-28663622D01*
X212139688Y-28679000D01*
X200351553Y-28679000D01*
X200089571Y-28417018D01*
X199635657Y-28229000D01*
X199144343Y-28229000D01*
X198882000Y-28337666D01*
X198882000Y-25908000D01*
X198833664Y-25664996D01*
X198696013Y-25458987D01*
X198490004Y-25321336D01*
X198247000Y-25273000D01*
X197125573Y-25273000D01*
X197503552Y-25197815D01*
X198057608Y-24827608D01*
X198427815Y-24273553D01*
X198525000Y-23784972D01*
X198525000Y-21935028D01*
X198427815Y-21446447D01*
X198336644Y-21309999D01*
X200242560Y-21309999D01*
X200242560Y-24410001D01*
X200310873Y-24753436D01*
X200505414Y-25044586D01*
X200796564Y-25239127D01*
X201139999Y-25307440D01*
X202720001Y-25307440D01*
X203063436Y-25239127D01*
X203354586Y-25044586D01*
X203549127Y-24753436D01*
X203617440Y-24410001D01*
X203617440Y-21309999D01*
X203549127Y-20966564D01*
X203354586Y-20675414D01*
X203063436Y-20480873D01*
X202720001Y-20412560D01*
X201139999Y-20412560D01*
X200796564Y-20480873D01*
X200505414Y-20675414D01*
X200310873Y-20966564D01*
X200242560Y-21309999D01*
X198336644Y-21309999D01*
X198057608Y-20892392D01*
X197503553Y-20522185D01*
X196850000Y-20392185D01*
X196196448Y-20522185D01*
X195642393Y-20892392D01*
X195272186Y-21446447D01*
X195175000Y-21935028D01*
X195175000Y-23784971D01*
X195272185Y-24273552D01*
X195642392Y-24827608D01*
X196196447Y-25197815D01*
X196574427Y-25273000D01*
X186055000Y-25273000D01*
X185811996Y-25321336D01*
X185605987Y-25458987D01*
X185468336Y-25664996D01*
X185420000Y-25908000D01*
X181124987Y-25908000D01*
X181835743Y-25197244D01*
X182617500Y-23309915D01*
X182617500Y-21267085D01*
X181835743Y-19379756D01*
X180691987Y-18236000D01*
X219802513Y-18236000D01*
X218658757Y-19379756D01*
G36*
X181339510Y-79321506D02*
X181339513Y-79321506D01*
X181416825Y-79336884D01*
X181494137Y-79321506D01*
X182277359Y-79321506D01*
X182277359Y-79386506D01*
X182302223Y-79511506D01*
X182277359Y-79636506D01*
X182277359Y-80036506D01*
X182302223Y-80161506D01*
X182277359Y-80286506D01*
X182277359Y-80686506D01*
X182302223Y-80811506D01*
X182277359Y-80936506D01*
X182277359Y-81336506D01*
X182326642Y-81584271D01*
X182466990Y-81794315D01*
X182677034Y-81934663D01*
X182924799Y-81983946D01*
X184024799Y-81983946D01*
X184272564Y-81934663D01*
X184482608Y-81794315D01*
X184622956Y-81584271D01*
X184672239Y-81336506D01*
X184672239Y-81271506D01*
X185419615Y-81271506D01*
X185499143Y-81324646D01*
X185495069Y-81328720D01*
X185337500Y-81709126D01*
X185337500Y-82120874D01*
X185408797Y-82293000D01*
X185356498Y-82293000D01*
X185356498Y-82451748D01*
X185197750Y-82293000D01*
X184882190Y-82293000D01*
X184658000Y-82385863D01*
X184433810Y-82293000D01*
X184118250Y-82293000D01*
X183959500Y-82451750D01*
X183959500Y-83326000D01*
X185356500Y-83326000D01*
X185356500Y-83306000D01*
X185610500Y-83306000D01*
X185610500Y-83326000D01*
X186434750Y-83326000D01*
X186554046Y-83206704D01*
X188874253Y-85526911D01*
X188918047Y-85592453D01*
X188983589Y-85636247D01*
X188983591Y-85636249D01*
X189094297Y-85710220D01*
X189177708Y-85765954D01*
X189406684Y-85811500D01*
X189406688Y-85811500D01*
X189483999Y-85826878D01*
X189561310Y-85811500D01*
X206303843Y-85811500D01*
X206733000Y-86240658D01*
X206733001Y-87765473D01*
X206432956Y-87965956D01*
X206248000Y-88242763D01*
X206063044Y-87965956D01*
X205565221Y-87633322D01*
X204978000Y-87516516D01*
X204390778Y-87633322D01*
X203903364Y-87959001D01*
X203846327Y-87821301D01*
X203667698Y-87642673D01*
X203434309Y-87546000D01*
X202723750Y-87546000D01*
X202565000Y-87704750D01*
X202565000Y-89154000D01*
X202585000Y-89154000D01*
X202585000Y-89408000D01*
X202565000Y-89408000D01*
X202565000Y-90857250D01*
X202723750Y-91016000D01*
X203434309Y-91016000D01*
X203667698Y-90919327D01*
X203846327Y-90740699D01*
X203903364Y-90602999D01*
X204093001Y-90729709D01*
X204093000Y-92433000D01*
X202418211Y-92433000D01*
X202325780Y-92340569D01*
X201945374Y-92183000D01*
X201533626Y-92183000D01*
X201153220Y-92340569D01*
X201060789Y-92433000D01*
X194173157Y-92433000D01*
X196697749Y-89908409D01*
X196697751Y-89908406D01*
X196979157Y-89627000D01*
X197349657Y-89627000D01*
X197495112Y-89566750D01*
X200933000Y-89566750D01*
X200933000Y-90507310D01*
X201029673Y-90740699D01*
X201208302Y-90919327D01*
X201441691Y-91016000D01*
X202152250Y-91016000D01*
X202311000Y-90857250D01*
X202311000Y-89408000D01*
X201091750Y-89408000D01*
X200933000Y-89566750D01*
X197495112Y-89566750D01*
X197803571Y-89438982D01*
X198150982Y-89091571D01*
X198339000Y-88637657D01*
X198339000Y-88146343D01*
X198301036Y-88054690D01*
X200933000Y-88054690D01*
X200933000Y-88995250D01*
X201091750Y-89154000D01*
X202311000Y-89154000D01*
X202311000Y-87704750D01*
X202152250Y-87546000D01*
X201441691Y-87546000D01*
X201208302Y-87642673D01*
X201029673Y-87821301D01*
X200933000Y-88054690D01*
X198301036Y-88054690D01*
X198150982Y-87692429D01*
X197803571Y-87345018D01*
X197349657Y-87157000D01*
X196858343Y-87157000D01*
X196404429Y-87345018D01*
X196057018Y-87692429D01*
X195869000Y-88146343D01*
X195869000Y-88516843D01*
X195587594Y-88798249D01*
X195587591Y-88798251D01*
X192905343Y-91480500D01*
X190162711Y-91480500D01*
X190070280Y-91388069D01*
X189689874Y-91230500D01*
X189278126Y-91230500D01*
X188897720Y-91388069D01*
X188745000Y-91540789D01*
X188745000Y-87800711D01*
X188837431Y-87708280D01*
X188995000Y-87327874D01*
X188995000Y-86916126D01*
X188837431Y-86535720D01*
X188546280Y-86244569D01*
X188165874Y-86087000D01*
X187754126Y-86087000D01*
X187373720Y-86244569D01*
X187082569Y-86535720D01*
X186925000Y-86916126D01*
X186925000Y-87046842D01*
X186605940Y-87365902D01*
X186605940Y-86975500D01*
X186538578Y-86636848D01*
X186491798Y-86566837D01*
X186518500Y-86502374D01*
X186518500Y-86090626D01*
X186459324Y-85947763D01*
X186538578Y-85829152D01*
X186605940Y-85490500D01*
X186605940Y-84915500D01*
X186538578Y-84576848D01*
X186426065Y-84408460D01*
X186496827Y-84337698D01*
X186593500Y-84104309D01*
X186593500Y-83738750D01*
X186434750Y-83580000D01*
X185610500Y-83580000D01*
X185610500Y-83600000D01*
X185356500Y-83600000D01*
X185356500Y-83580000D01*
X183959500Y-83580000D01*
X183959500Y-83600000D01*
X183705500Y-83600000D01*
X183705500Y-83580000D01*
X182881250Y-83580000D01*
X182722500Y-83738750D01*
X182722500Y-84104309D01*
X182819173Y-84337698D01*
X182889935Y-84408460D01*
X182777422Y-84576848D01*
X182710060Y-84915500D01*
X182710060Y-85490500D01*
X182777422Y-85829152D01*
X182925508Y-86050778D01*
X182925508Y-86358869D01*
X182939917Y-86393657D01*
X182777422Y-86636848D01*
X182742429Y-86812771D01*
X178731349Y-82801691D01*
X182722500Y-82801691D01*
X182722500Y-83167250D01*
X182881250Y-83326000D01*
X183705500Y-83326000D01*
X183705500Y-82451750D01*
X183546750Y-82293000D01*
X183231190Y-82293000D01*
X182997801Y-82389673D01*
X182819173Y-82568302D01*
X182722500Y-82801691D01*
X178731349Y-82801691D01*
X178708000Y-82778343D01*
X178708000Y-82598126D01*
X178550431Y-82217720D01*
X178316657Y-81983946D01*
X178324799Y-81983946D01*
X178572564Y-81934663D01*
X178592255Y-81921506D01*
X179591615Y-81921506D01*
X179677426Y-82007317D01*
X180057832Y-82164886D01*
X180469580Y-82164886D01*
X180849986Y-82007317D01*
X181141137Y-81716166D01*
X181298706Y-81335760D01*
X181298706Y-80924012D01*
X181141137Y-80543606D01*
X180888227Y-80290696D01*
X181141137Y-80037786D01*
X181298706Y-79657380D01*
X181298706Y-79313390D01*
X181339510Y-79321506D01*
X181339510Y-79321506D01*
G37*
X181339510Y-79321506D02*
X181339513Y-79321506D01*
X181416825Y-79336884D01*
X181494137Y-79321506D01*
X182277359Y-79321506D01*
X182277359Y-79386506D01*
X182302223Y-79511506D01*
X182277359Y-79636506D01*
X182277359Y-80036506D01*
X182302223Y-80161506D01*
X182277359Y-80286506D01*
X182277359Y-80686506D01*
X182302223Y-80811506D01*
X182277359Y-80936506D01*
X182277359Y-81336506D01*
X182326642Y-81584271D01*
X182466990Y-81794315D01*
X182677034Y-81934663D01*
X182924799Y-81983946D01*
X184024799Y-81983946D01*
X184272564Y-81934663D01*
X184482608Y-81794315D01*
X184622956Y-81584271D01*
X184672239Y-81336506D01*
X184672239Y-81271506D01*
X185419615Y-81271506D01*
X185499143Y-81324646D01*
X185495069Y-81328720D01*
X185337500Y-81709126D01*
X185337500Y-82120874D01*
X185408797Y-82293000D01*
X185356498Y-82293000D01*
X185356498Y-82451748D01*
X185197750Y-82293000D01*
X184882190Y-82293000D01*
X184658000Y-82385863D01*
X184433810Y-82293000D01*
X184118250Y-82293000D01*
X183959500Y-82451750D01*
X183959500Y-83326000D01*
X185356500Y-83326000D01*
X185356500Y-83306000D01*
X185610500Y-83306000D01*
X185610500Y-83326000D01*
X186434750Y-83326000D01*
X186554046Y-83206704D01*
X188874253Y-85526911D01*
X188918047Y-85592453D01*
X188983589Y-85636247D01*
X188983591Y-85636249D01*
X189094297Y-85710220D01*
X189177708Y-85765954D01*
X189406684Y-85811500D01*
X189406688Y-85811500D01*
X189483999Y-85826878D01*
X189561310Y-85811500D01*
X206303843Y-85811500D01*
X206733000Y-86240658D01*
X206733001Y-87765473D01*
X206432956Y-87965956D01*
X206248000Y-88242763D01*
X206063044Y-87965956D01*
X205565221Y-87633322D01*
X204978000Y-87516516D01*
X204390778Y-87633322D01*
X203903364Y-87959001D01*
X203846327Y-87821301D01*
X203667698Y-87642673D01*
X203434309Y-87546000D01*
X202723750Y-87546000D01*
X202565000Y-87704750D01*
X202565000Y-89154000D01*
X202585000Y-89154000D01*
X202585000Y-89408000D01*
X202565000Y-89408000D01*
X202565000Y-90857250D01*
X202723750Y-91016000D01*
X203434309Y-91016000D01*
X203667698Y-90919327D01*
X203846327Y-90740699D01*
X203903364Y-90602999D01*
X204093001Y-90729709D01*
X204093000Y-92433000D01*
X202418211Y-92433000D01*
X202325780Y-92340569D01*
X201945374Y-92183000D01*
X201533626Y-92183000D01*
X201153220Y-92340569D01*
X201060789Y-92433000D01*
X194173157Y-92433000D01*
X196697749Y-89908409D01*
X196697751Y-89908406D01*
X196979157Y-89627000D01*
X197349657Y-89627000D01*
X197495112Y-89566750D01*
X200933000Y-89566750D01*
X200933000Y-90507310D01*
X201029673Y-90740699D01*
X201208302Y-90919327D01*
X201441691Y-91016000D01*
X202152250Y-91016000D01*
X202311000Y-90857250D01*
X202311000Y-89408000D01*
X201091750Y-89408000D01*
X200933000Y-89566750D01*
X197495112Y-89566750D01*
X197803571Y-89438982D01*
X198150982Y-89091571D01*
X198339000Y-88637657D01*
X198339000Y-88146343D01*
X198301036Y-88054690D01*
X200933000Y-88054690D01*
X200933000Y-88995250D01*
X201091750Y-89154000D01*
X202311000Y-89154000D01*
X202311000Y-87704750D01*
X202152250Y-87546000D01*
X201441691Y-87546000D01*
X201208302Y-87642673D01*
X201029673Y-87821301D01*
X200933000Y-88054690D01*
X198301036Y-88054690D01*
X198150982Y-87692429D01*
X197803571Y-87345018D01*
X197349657Y-87157000D01*
X196858343Y-87157000D01*
X196404429Y-87345018D01*
X196057018Y-87692429D01*
X195869000Y-88146343D01*
X195869000Y-88516843D01*
X195587594Y-88798249D01*
X195587591Y-88798251D01*
X192905343Y-91480500D01*
X190162711Y-91480500D01*
X190070280Y-91388069D01*
X189689874Y-91230500D01*
X189278126Y-91230500D01*
X188897720Y-91388069D01*
X188745000Y-91540789D01*
X188745000Y-87800711D01*
X188837431Y-87708280D01*
X188995000Y-87327874D01*
X188995000Y-86916126D01*
X188837431Y-86535720D01*
X188546280Y-86244569D01*
X188165874Y-86087000D01*
X187754126Y-86087000D01*
X187373720Y-86244569D01*
X187082569Y-86535720D01*
X186925000Y-86916126D01*
X186925000Y-87046842D01*
X186605940Y-87365902D01*
X186605940Y-86975500D01*
X186538578Y-86636848D01*
X186491798Y-86566837D01*
X186518500Y-86502374D01*
X186518500Y-86090626D01*
X186459324Y-85947763D01*
X186538578Y-85829152D01*
X186605940Y-85490500D01*
X186605940Y-84915500D01*
X186538578Y-84576848D01*
X186426065Y-84408460D01*
X186496827Y-84337698D01*
X186593500Y-84104309D01*
X186593500Y-83738750D01*
X186434750Y-83580000D01*
X185610500Y-83580000D01*
X185610500Y-83600000D01*
X185356500Y-83600000D01*
X185356500Y-83580000D01*
X183959500Y-83580000D01*
X183959500Y-83600000D01*
X183705500Y-83600000D01*
X183705500Y-83580000D01*
X182881250Y-83580000D01*
X182722500Y-83738750D01*
X182722500Y-84104309D01*
X182819173Y-84337698D01*
X182889935Y-84408460D01*
X182777422Y-84576848D01*
X182710060Y-84915500D01*
X182710060Y-85490500D01*
X182777422Y-85829152D01*
X182925508Y-86050778D01*
X182925508Y-86358869D01*
X182939917Y-86393657D01*
X182777422Y-86636848D01*
X182742429Y-86812771D01*
X178731349Y-82801691D01*
X182722500Y-82801691D01*
X182722500Y-83167250D01*
X182881250Y-83326000D01*
X183705500Y-83326000D01*
X183705500Y-82451750D01*
X183546750Y-82293000D01*
X183231190Y-82293000D01*
X182997801Y-82389673D01*
X182819173Y-82568302D01*
X182722500Y-82801691D01*
X178731349Y-82801691D01*
X178708000Y-82778343D01*
X178708000Y-82598126D01*
X178550431Y-82217720D01*
X178316657Y-81983946D01*
X178324799Y-81983946D01*
X178572564Y-81934663D01*
X178592255Y-81921506D01*
X179591615Y-81921506D01*
X179677426Y-82007317D01*
X180057832Y-82164886D01*
X180469580Y-82164886D01*
X180849986Y-82007317D01*
X181141137Y-81716166D01*
X181298706Y-81335760D01*
X181298706Y-80924012D01*
X181141137Y-80543606D01*
X180888227Y-80290696D01*
X181141137Y-80037786D01*
X181298706Y-79657380D01*
X181298706Y-79313390D01*
X181339510Y-79321506D01*
G36*
X206891060Y-65810500D02*
X206940343Y-66058265D01*
X207034213Y-66198750D01*
X206940343Y-66339235D01*
X206891060Y-66587000D01*
X206891060Y-68287000D01*
X206940343Y-68534765D01*
X207080691Y-68744809D01*
X207290735Y-68885157D01*
X207403500Y-68907587D01*
X207403501Y-69592974D01*
X207326235Y-69608343D01*
X207116191Y-69748691D01*
X206975843Y-69958735D01*
X206926560Y-70206500D01*
X206926560Y-71906500D01*
X206975843Y-72154265D01*
X207116191Y-72364309D01*
X207249674Y-72453500D01*
X207116191Y-72542691D01*
X206975843Y-72752735D01*
X206926560Y-73000500D01*
X206926560Y-74700500D01*
X206942373Y-74780000D01*
X206005627Y-74780000D01*
X206021440Y-74700500D01*
X206021440Y-73000500D01*
X205972157Y-72752735D01*
X205831809Y-72542691D01*
X205698326Y-72453500D01*
X205831809Y-72364309D01*
X205972157Y-72154265D01*
X206021440Y-71906500D01*
X206021440Y-70206500D01*
X205972157Y-69958735D01*
X205831809Y-69748691D01*
X205621765Y-69608343D01*
X205374000Y-69559060D01*
X204679218Y-69559060D01*
X204054598Y-68934440D01*
X205338500Y-68934440D01*
X205586265Y-68885157D01*
X205796309Y-68744809D01*
X205936657Y-68534765D01*
X205985940Y-68287000D01*
X205985940Y-66587000D01*
X205936657Y-66339235D01*
X205842787Y-66198750D01*
X205936657Y-66058265D01*
X205985940Y-65810500D01*
X205985940Y-64158000D01*
X206891060Y-64158000D01*
X206891060Y-65810500D01*
X206891060Y-65810500D01*
G37*
X206891060Y-65810500D02*
X206940343Y-66058265D01*
X207034213Y-66198750D01*
X206940343Y-66339235D01*
X206891060Y-66587000D01*
X206891060Y-68287000D01*
X206940343Y-68534765D01*
X207080691Y-68744809D01*
X207290735Y-68885157D01*
X207403500Y-68907587D01*
X207403501Y-69592974D01*
X207326235Y-69608343D01*
X207116191Y-69748691D01*
X206975843Y-69958735D01*
X206926560Y-70206500D01*
X206926560Y-71906500D01*
X206975843Y-72154265D01*
X207116191Y-72364309D01*
X207249674Y-72453500D01*
X207116191Y-72542691D01*
X206975843Y-72752735D01*
X206926560Y-73000500D01*
X206926560Y-74700500D01*
X206942373Y-74780000D01*
X206005627Y-74780000D01*
X206021440Y-74700500D01*
X206021440Y-73000500D01*
X205972157Y-72752735D01*
X205831809Y-72542691D01*
X205698326Y-72453500D01*
X205831809Y-72364309D01*
X205972157Y-72154265D01*
X206021440Y-71906500D01*
X206021440Y-70206500D01*
X205972157Y-69958735D01*
X205831809Y-69748691D01*
X205621765Y-69608343D01*
X205374000Y-69559060D01*
X204679218Y-69559060D01*
X204054598Y-68934440D01*
X205338500Y-68934440D01*
X205586265Y-68885157D01*
X205796309Y-68744809D01*
X205936657Y-68534765D01*
X205985940Y-68287000D01*
X205985940Y-66587000D01*
X205936657Y-66339235D01*
X205842787Y-66198750D01*
X205936657Y-66058265D01*
X205985940Y-65810500D01*
X205985940Y-64158000D01*
X206891060Y-64158000D01*
X206891060Y-65810500D01*
G36*
X204795928Y-54127085D02*
X204795928Y-54441001D01*
X189918336Y-54441001D01*
X189957000Y-54347657D01*
X189957000Y-53977158D01*
X189997159Y-53936999D01*
X204605842Y-53936999D01*
X204795928Y-54127085D01*
X204795928Y-54127085D01*
G37*
X204795928Y-54127085D02*
X204795928Y-54441001D01*
X189918336Y-54441001D01*
X189957000Y-54347657D01*
X189957000Y-53977158D01*
X189997159Y-53936999D01*
X204605842Y-53936999D01*
X204795928Y-54127085D01*
G04 #@! TO.N,Net-(C205-Pad2)*
G36*
X212725000Y-45466000D02*
X200152000Y-45466000D01*
X200152000Y-31115000D01*
X212725000Y-31115000D01*
X212725000Y-45466000D01*
X212725000Y-45466000D01*
G37*
X212725000Y-45466000D02*
X200152000Y-45466000D01*
X200152000Y-31115000D01*
X212725000Y-31115000D01*
X212725000Y-45466000D01*
G04 #@! TO.N,Net-(C207-Pad2)*
G36*
X198120000Y-45466000D02*
X186297000Y-45466000D01*
X186297000Y-34661593D01*
X186216641Y-34257600D01*
X186182000Y-34205756D01*
X186182000Y-26035000D01*
X198120000Y-26035000D01*
X198120000Y-45466000D01*
X198120000Y-45466000D01*
G37*
X198120000Y-45466000D02*
X186297000Y-45466000D01*
X186297000Y-34661593D01*
X186216641Y-34257600D01*
X186182000Y-34205756D01*
X186182000Y-26035000D01*
X198120000Y-26035000D01*
X198120000Y-45466000D01*
G04 #@! TD*
M02*
