G04 #@! TF.GenerationSoftware,KiCad,Pcbnew,5.0.2+dfsg1-1~bpo9+1*
G04 #@! TF.CreationDate,2020-01-22T15:14:46+01:00*
G04 #@! TF.ProjectId,MOTOR_BOARD_I2C,4d4f544f-525f-4424-9f41-52445f493243,rev?*
G04 #@! TF.SameCoordinates,Original*
G04 #@! TF.FileFunction,Paste,Bot*
G04 #@! TF.FilePolarity,Positive*
%FSLAX46Y46*%
G04 Gerber Fmt 4.6, Leading zero omitted, Abs format (unit mm)*
G04 Created by KiCad (PCBNEW 5.0.2+dfsg1-1~bpo9+1) date mer. 22 janv. 2020 15:14:46 CET*
%MOMM*%
%LPD*%
G01*
G04 APERTURE LIST*
%ADD10R,0.600000X1.500000*%
%ADD11C,0.100000*%
%ADD12C,0.875000*%
%ADD13R,1.300000X1.700000*%
%ADD14C,0.950000*%
%ADD15R,1.750000X0.450000*%
%ADD16R,1.100000X0.400000*%
G04 APERTURE END LIST*
D10*
G04 #@! TO.C,U502*
X201739500Y-72420500D03*
X200469500Y-72420500D03*
X199199500Y-72420500D03*
X197929500Y-72420500D03*
X196659500Y-72420500D03*
X195389500Y-72420500D03*
X194119500Y-72420500D03*
X194119500Y-77820500D03*
X195389500Y-77820500D03*
X196659500Y-77820500D03*
X197929500Y-77820500D03*
X199199500Y-77820500D03*
X200469500Y-77820500D03*
X201739500Y-77820500D03*
G04 #@! TD*
D11*
G04 #@! TO.C,R125*
G36*
X185494397Y-75841939D02*
X185515632Y-75845089D01*
X185536456Y-75850305D01*
X185556668Y-75857537D01*
X185576074Y-75866716D01*
X185594487Y-75877752D01*
X185611730Y-75890540D01*
X185627636Y-75904956D01*
X185642052Y-75920862D01*
X185654840Y-75938105D01*
X185665876Y-75956518D01*
X185675055Y-75975924D01*
X185682287Y-75996136D01*
X185687503Y-76016960D01*
X185690653Y-76038195D01*
X185691706Y-76059636D01*
X185691706Y-76497136D01*
X185690653Y-76518577D01*
X185687503Y-76539812D01*
X185682287Y-76560636D01*
X185675055Y-76580848D01*
X185665876Y-76600254D01*
X185654840Y-76618667D01*
X185642052Y-76635910D01*
X185627636Y-76651816D01*
X185611730Y-76666232D01*
X185594487Y-76679020D01*
X185576074Y-76690056D01*
X185556668Y-76699235D01*
X185536456Y-76706467D01*
X185515632Y-76711683D01*
X185494397Y-76714833D01*
X185472956Y-76715886D01*
X184960456Y-76715886D01*
X184939015Y-76714833D01*
X184917780Y-76711683D01*
X184896956Y-76706467D01*
X184876744Y-76699235D01*
X184857338Y-76690056D01*
X184838925Y-76679020D01*
X184821682Y-76666232D01*
X184805776Y-76651816D01*
X184791360Y-76635910D01*
X184778572Y-76618667D01*
X184767536Y-76600254D01*
X184758357Y-76580848D01*
X184751125Y-76560636D01*
X184745909Y-76539812D01*
X184742759Y-76518577D01*
X184741706Y-76497136D01*
X184741706Y-76059636D01*
X184742759Y-76038195D01*
X184745909Y-76016960D01*
X184751125Y-75996136D01*
X184758357Y-75975924D01*
X184767536Y-75956518D01*
X184778572Y-75938105D01*
X184791360Y-75920862D01*
X184805776Y-75904956D01*
X184821682Y-75890540D01*
X184838925Y-75877752D01*
X184857338Y-75866716D01*
X184876744Y-75857537D01*
X184896956Y-75850305D01*
X184917780Y-75845089D01*
X184939015Y-75841939D01*
X184960456Y-75840886D01*
X185472956Y-75840886D01*
X185494397Y-75841939D01*
X185494397Y-75841939D01*
G37*
D12*
X185216706Y-76278386D03*
D11*
G36*
X185494397Y-77416939D02*
X185515632Y-77420089D01*
X185536456Y-77425305D01*
X185556668Y-77432537D01*
X185576074Y-77441716D01*
X185594487Y-77452752D01*
X185611730Y-77465540D01*
X185627636Y-77479956D01*
X185642052Y-77495862D01*
X185654840Y-77513105D01*
X185665876Y-77531518D01*
X185675055Y-77550924D01*
X185682287Y-77571136D01*
X185687503Y-77591960D01*
X185690653Y-77613195D01*
X185691706Y-77634636D01*
X185691706Y-78072136D01*
X185690653Y-78093577D01*
X185687503Y-78114812D01*
X185682287Y-78135636D01*
X185675055Y-78155848D01*
X185665876Y-78175254D01*
X185654840Y-78193667D01*
X185642052Y-78210910D01*
X185627636Y-78226816D01*
X185611730Y-78241232D01*
X185594487Y-78254020D01*
X185576074Y-78265056D01*
X185556668Y-78274235D01*
X185536456Y-78281467D01*
X185515632Y-78286683D01*
X185494397Y-78289833D01*
X185472956Y-78290886D01*
X184960456Y-78290886D01*
X184939015Y-78289833D01*
X184917780Y-78286683D01*
X184896956Y-78281467D01*
X184876744Y-78274235D01*
X184857338Y-78265056D01*
X184838925Y-78254020D01*
X184821682Y-78241232D01*
X184805776Y-78226816D01*
X184791360Y-78210910D01*
X184778572Y-78193667D01*
X184767536Y-78175254D01*
X184758357Y-78155848D01*
X184751125Y-78135636D01*
X184745909Y-78114812D01*
X184742759Y-78093577D01*
X184741706Y-78072136D01*
X184741706Y-77634636D01*
X184742759Y-77613195D01*
X184745909Y-77591960D01*
X184751125Y-77571136D01*
X184758357Y-77550924D01*
X184767536Y-77531518D01*
X184778572Y-77513105D01*
X184791360Y-77495862D01*
X184805776Y-77479956D01*
X184821682Y-77465540D01*
X184838925Y-77452752D01*
X184857338Y-77441716D01*
X184876744Y-77432537D01*
X184896956Y-77425305D01*
X184917780Y-77420089D01*
X184939015Y-77416939D01*
X184960456Y-77415886D01*
X185472956Y-77415886D01*
X185494397Y-77416939D01*
X185494397Y-77416939D01*
G37*
D12*
X185216706Y-77853386D03*
G04 #@! TD*
D13*
G04 #@! TO.C,D501*
X204724000Y-71056500D03*
X208224000Y-71056500D03*
G04 #@! TD*
D11*
G04 #@! TO.C,R501*
G36*
X187621779Y-72424144D02*
X187644834Y-72427563D01*
X187667443Y-72433227D01*
X187689387Y-72441079D01*
X187710457Y-72451044D01*
X187730448Y-72463026D01*
X187749168Y-72476910D01*
X187766438Y-72492562D01*
X187782090Y-72509832D01*
X187795974Y-72528552D01*
X187807956Y-72548543D01*
X187817921Y-72569613D01*
X187825773Y-72591557D01*
X187831437Y-72614166D01*
X187834856Y-72637221D01*
X187836000Y-72660500D01*
X187836000Y-73135500D01*
X187834856Y-73158779D01*
X187831437Y-73181834D01*
X187825773Y-73204443D01*
X187817921Y-73226387D01*
X187807956Y-73247457D01*
X187795974Y-73267448D01*
X187782090Y-73286168D01*
X187766438Y-73303438D01*
X187749168Y-73319090D01*
X187730448Y-73332974D01*
X187710457Y-73344956D01*
X187689387Y-73354921D01*
X187667443Y-73362773D01*
X187644834Y-73368437D01*
X187621779Y-73371856D01*
X187598500Y-73373000D01*
X187023500Y-73373000D01*
X187000221Y-73371856D01*
X186977166Y-73368437D01*
X186954557Y-73362773D01*
X186932613Y-73354921D01*
X186911543Y-73344956D01*
X186891552Y-73332974D01*
X186872832Y-73319090D01*
X186855562Y-73303438D01*
X186839910Y-73286168D01*
X186826026Y-73267448D01*
X186814044Y-73247457D01*
X186804079Y-73226387D01*
X186796227Y-73204443D01*
X186790563Y-73181834D01*
X186787144Y-73158779D01*
X186786000Y-73135500D01*
X186786000Y-72660500D01*
X186787144Y-72637221D01*
X186790563Y-72614166D01*
X186796227Y-72591557D01*
X186804079Y-72569613D01*
X186814044Y-72548543D01*
X186826026Y-72528552D01*
X186839910Y-72509832D01*
X186855562Y-72492562D01*
X186872832Y-72476910D01*
X186891552Y-72463026D01*
X186911543Y-72451044D01*
X186932613Y-72441079D01*
X186954557Y-72433227D01*
X186977166Y-72427563D01*
X187000221Y-72424144D01*
X187023500Y-72423000D01*
X187598500Y-72423000D01*
X187621779Y-72424144D01*
X187621779Y-72424144D01*
G37*
D14*
X187311000Y-72898000D03*
D11*
G36*
X185871779Y-72424144D02*
X185894834Y-72427563D01*
X185917443Y-72433227D01*
X185939387Y-72441079D01*
X185960457Y-72451044D01*
X185980448Y-72463026D01*
X185999168Y-72476910D01*
X186016438Y-72492562D01*
X186032090Y-72509832D01*
X186045974Y-72528552D01*
X186057956Y-72548543D01*
X186067921Y-72569613D01*
X186075773Y-72591557D01*
X186081437Y-72614166D01*
X186084856Y-72637221D01*
X186086000Y-72660500D01*
X186086000Y-73135500D01*
X186084856Y-73158779D01*
X186081437Y-73181834D01*
X186075773Y-73204443D01*
X186067921Y-73226387D01*
X186057956Y-73247457D01*
X186045974Y-73267448D01*
X186032090Y-73286168D01*
X186016438Y-73303438D01*
X185999168Y-73319090D01*
X185980448Y-73332974D01*
X185960457Y-73344956D01*
X185939387Y-73354921D01*
X185917443Y-73362773D01*
X185894834Y-73368437D01*
X185871779Y-73371856D01*
X185848500Y-73373000D01*
X185273500Y-73373000D01*
X185250221Y-73371856D01*
X185227166Y-73368437D01*
X185204557Y-73362773D01*
X185182613Y-73354921D01*
X185161543Y-73344956D01*
X185141552Y-73332974D01*
X185122832Y-73319090D01*
X185105562Y-73303438D01*
X185089910Y-73286168D01*
X185076026Y-73267448D01*
X185064044Y-73247457D01*
X185054079Y-73226387D01*
X185046227Y-73204443D01*
X185040563Y-73181834D01*
X185037144Y-73158779D01*
X185036000Y-73135500D01*
X185036000Y-72660500D01*
X185037144Y-72637221D01*
X185040563Y-72614166D01*
X185046227Y-72591557D01*
X185054079Y-72569613D01*
X185064044Y-72548543D01*
X185076026Y-72528552D01*
X185089910Y-72509832D01*
X185105562Y-72492562D01*
X185122832Y-72476910D01*
X185141552Y-72463026D01*
X185161543Y-72451044D01*
X185182613Y-72441079D01*
X185204557Y-72433227D01*
X185227166Y-72427563D01*
X185250221Y-72424144D01*
X185273500Y-72423000D01*
X185848500Y-72423000D01*
X185871779Y-72424144D01*
X185871779Y-72424144D01*
G37*
D14*
X185561000Y-72898000D03*
G04 #@! TD*
D10*
G04 #@! TO.C,U501*
X201803000Y-67343000D03*
X200533000Y-67343000D03*
X199263000Y-67343000D03*
X197993000Y-67343000D03*
X196723000Y-67343000D03*
X195453000Y-67343000D03*
X194183000Y-67343000D03*
X194183000Y-61943000D03*
X195453000Y-61943000D03*
X196723000Y-61943000D03*
X197993000Y-61943000D03*
X199263000Y-61943000D03*
X200533000Y-61943000D03*
X201803000Y-61943000D03*
G04 #@! TD*
D13*
G04 #@! TO.C,D504*
X204688500Y-64960500D03*
X208188500Y-64960500D03*
G04 #@! TD*
G04 #@! TO.C,D503*
X204688500Y-67437000D03*
X208188500Y-67437000D03*
G04 #@! TD*
G04 #@! TO.C,D505*
X204752000Y-77724000D03*
X208252000Y-77724000D03*
G04 #@! TD*
G04 #@! TO.C,D506*
X204787500Y-80645000D03*
X208287500Y-80645000D03*
G04 #@! TD*
G04 #@! TO.C,D502*
X204724000Y-73850500D03*
X208224000Y-73850500D03*
G04 #@! TD*
D11*
G04 #@! TO.C,R117*
G36*
X185744279Y-88489144D02*
X185767334Y-88492563D01*
X185789943Y-88498227D01*
X185811887Y-88506079D01*
X185832957Y-88516044D01*
X185852948Y-88528026D01*
X185871668Y-88541910D01*
X185888938Y-88557562D01*
X185904590Y-88574832D01*
X185918474Y-88593552D01*
X185930456Y-88613543D01*
X185940421Y-88634613D01*
X185948273Y-88656557D01*
X185953937Y-88679166D01*
X185957356Y-88702221D01*
X185958500Y-88725500D01*
X185958500Y-89300500D01*
X185957356Y-89323779D01*
X185953937Y-89346834D01*
X185948273Y-89369443D01*
X185940421Y-89391387D01*
X185930456Y-89412457D01*
X185918474Y-89432448D01*
X185904590Y-89451168D01*
X185888938Y-89468438D01*
X185871668Y-89484090D01*
X185852948Y-89497974D01*
X185832957Y-89509956D01*
X185811887Y-89519921D01*
X185789943Y-89527773D01*
X185767334Y-89533437D01*
X185744279Y-89536856D01*
X185721000Y-89538000D01*
X185246000Y-89538000D01*
X185222721Y-89536856D01*
X185199666Y-89533437D01*
X185177057Y-89527773D01*
X185155113Y-89519921D01*
X185134043Y-89509956D01*
X185114052Y-89497974D01*
X185095332Y-89484090D01*
X185078062Y-89468438D01*
X185062410Y-89451168D01*
X185048526Y-89432448D01*
X185036544Y-89412457D01*
X185026579Y-89391387D01*
X185018727Y-89369443D01*
X185013063Y-89346834D01*
X185009644Y-89323779D01*
X185008500Y-89300500D01*
X185008500Y-88725500D01*
X185009644Y-88702221D01*
X185013063Y-88679166D01*
X185018727Y-88656557D01*
X185026579Y-88634613D01*
X185036544Y-88613543D01*
X185048526Y-88593552D01*
X185062410Y-88574832D01*
X185078062Y-88557562D01*
X185095332Y-88541910D01*
X185114052Y-88528026D01*
X185134043Y-88516044D01*
X185155113Y-88506079D01*
X185177057Y-88498227D01*
X185199666Y-88492563D01*
X185222721Y-88489144D01*
X185246000Y-88488000D01*
X185721000Y-88488000D01*
X185744279Y-88489144D01*
X185744279Y-88489144D01*
G37*
D14*
X185483500Y-89013000D03*
D11*
G36*
X185744279Y-86739144D02*
X185767334Y-86742563D01*
X185789943Y-86748227D01*
X185811887Y-86756079D01*
X185832957Y-86766044D01*
X185852948Y-86778026D01*
X185871668Y-86791910D01*
X185888938Y-86807562D01*
X185904590Y-86824832D01*
X185918474Y-86843552D01*
X185930456Y-86863543D01*
X185940421Y-86884613D01*
X185948273Y-86906557D01*
X185953937Y-86929166D01*
X185957356Y-86952221D01*
X185958500Y-86975500D01*
X185958500Y-87550500D01*
X185957356Y-87573779D01*
X185953937Y-87596834D01*
X185948273Y-87619443D01*
X185940421Y-87641387D01*
X185930456Y-87662457D01*
X185918474Y-87682448D01*
X185904590Y-87701168D01*
X185888938Y-87718438D01*
X185871668Y-87734090D01*
X185852948Y-87747974D01*
X185832957Y-87759956D01*
X185811887Y-87769921D01*
X185789943Y-87777773D01*
X185767334Y-87783437D01*
X185744279Y-87786856D01*
X185721000Y-87788000D01*
X185246000Y-87788000D01*
X185222721Y-87786856D01*
X185199666Y-87783437D01*
X185177057Y-87777773D01*
X185155113Y-87769921D01*
X185134043Y-87759956D01*
X185114052Y-87747974D01*
X185095332Y-87734090D01*
X185078062Y-87718438D01*
X185062410Y-87701168D01*
X185048526Y-87682448D01*
X185036544Y-87662457D01*
X185026579Y-87641387D01*
X185018727Y-87619443D01*
X185013063Y-87596834D01*
X185009644Y-87573779D01*
X185008500Y-87550500D01*
X185008500Y-86975500D01*
X185009644Y-86952221D01*
X185013063Y-86929166D01*
X185018727Y-86906557D01*
X185026579Y-86884613D01*
X185036544Y-86863543D01*
X185048526Y-86843552D01*
X185062410Y-86824832D01*
X185078062Y-86807562D01*
X185095332Y-86791910D01*
X185114052Y-86778026D01*
X185134043Y-86766044D01*
X185155113Y-86756079D01*
X185177057Y-86748227D01*
X185199666Y-86742563D01*
X185222721Y-86739144D01*
X185246000Y-86738000D01*
X185721000Y-86738000D01*
X185744279Y-86739144D01*
X185744279Y-86739144D01*
G37*
D14*
X185483500Y-87263000D03*
G04 #@! TD*
D11*
G04 #@! TO.C,R118*
G36*
X185744279Y-84679144D02*
X185767334Y-84682563D01*
X185789943Y-84688227D01*
X185811887Y-84696079D01*
X185832957Y-84706044D01*
X185852948Y-84718026D01*
X185871668Y-84731910D01*
X185888938Y-84747562D01*
X185904590Y-84764832D01*
X185918474Y-84783552D01*
X185930456Y-84803543D01*
X185940421Y-84824613D01*
X185948273Y-84846557D01*
X185953937Y-84869166D01*
X185957356Y-84892221D01*
X185958500Y-84915500D01*
X185958500Y-85490500D01*
X185957356Y-85513779D01*
X185953937Y-85536834D01*
X185948273Y-85559443D01*
X185940421Y-85581387D01*
X185930456Y-85602457D01*
X185918474Y-85622448D01*
X185904590Y-85641168D01*
X185888938Y-85658438D01*
X185871668Y-85674090D01*
X185852948Y-85687974D01*
X185832957Y-85699956D01*
X185811887Y-85709921D01*
X185789943Y-85717773D01*
X185767334Y-85723437D01*
X185744279Y-85726856D01*
X185721000Y-85728000D01*
X185246000Y-85728000D01*
X185222721Y-85726856D01*
X185199666Y-85723437D01*
X185177057Y-85717773D01*
X185155113Y-85709921D01*
X185134043Y-85699956D01*
X185114052Y-85687974D01*
X185095332Y-85674090D01*
X185078062Y-85658438D01*
X185062410Y-85641168D01*
X185048526Y-85622448D01*
X185036544Y-85602457D01*
X185026579Y-85581387D01*
X185018727Y-85559443D01*
X185013063Y-85536834D01*
X185009644Y-85513779D01*
X185008500Y-85490500D01*
X185008500Y-84915500D01*
X185009644Y-84892221D01*
X185013063Y-84869166D01*
X185018727Y-84846557D01*
X185026579Y-84824613D01*
X185036544Y-84803543D01*
X185048526Y-84783552D01*
X185062410Y-84764832D01*
X185078062Y-84747562D01*
X185095332Y-84731910D01*
X185114052Y-84718026D01*
X185134043Y-84706044D01*
X185155113Y-84696079D01*
X185177057Y-84688227D01*
X185199666Y-84682563D01*
X185222721Y-84679144D01*
X185246000Y-84678000D01*
X185721000Y-84678000D01*
X185744279Y-84679144D01*
X185744279Y-84679144D01*
G37*
D14*
X185483500Y-85203000D03*
D11*
G36*
X185744279Y-82929144D02*
X185767334Y-82932563D01*
X185789943Y-82938227D01*
X185811887Y-82946079D01*
X185832957Y-82956044D01*
X185852948Y-82968026D01*
X185871668Y-82981910D01*
X185888938Y-82997562D01*
X185904590Y-83014832D01*
X185918474Y-83033552D01*
X185930456Y-83053543D01*
X185940421Y-83074613D01*
X185948273Y-83096557D01*
X185953937Y-83119166D01*
X185957356Y-83142221D01*
X185958500Y-83165500D01*
X185958500Y-83740500D01*
X185957356Y-83763779D01*
X185953937Y-83786834D01*
X185948273Y-83809443D01*
X185940421Y-83831387D01*
X185930456Y-83852457D01*
X185918474Y-83872448D01*
X185904590Y-83891168D01*
X185888938Y-83908438D01*
X185871668Y-83924090D01*
X185852948Y-83937974D01*
X185832957Y-83949956D01*
X185811887Y-83959921D01*
X185789943Y-83967773D01*
X185767334Y-83973437D01*
X185744279Y-83976856D01*
X185721000Y-83978000D01*
X185246000Y-83978000D01*
X185222721Y-83976856D01*
X185199666Y-83973437D01*
X185177057Y-83967773D01*
X185155113Y-83959921D01*
X185134043Y-83949956D01*
X185114052Y-83937974D01*
X185095332Y-83924090D01*
X185078062Y-83908438D01*
X185062410Y-83891168D01*
X185048526Y-83872448D01*
X185036544Y-83852457D01*
X185026579Y-83831387D01*
X185018727Y-83809443D01*
X185013063Y-83786834D01*
X185009644Y-83763779D01*
X185008500Y-83740500D01*
X185008500Y-83165500D01*
X185009644Y-83142221D01*
X185013063Y-83119166D01*
X185018727Y-83096557D01*
X185026579Y-83074613D01*
X185036544Y-83053543D01*
X185048526Y-83033552D01*
X185062410Y-83014832D01*
X185078062Y-82997562D01*
X185095332Y-82981910D01*
X185114052Y-82968026D01*
X185134043Y-82956044D01*
X185155113Y-82946079D01*
X185177057Y-82938227D01*
X185199666Y-82932563D01*
X185222721Y-82929144D01*
X185246000Y-82928000D01*
X185721000Y-82928000D01*
X185744279Y-82929144D01*
X185744279Y-82929144D01*
G37*
D14*
X185483500Y-83453000D03*
G04 #@! TD*
D11*
G04 #@! TO.C,R119*
G36*
X184093279Y-88489144D02*
X184116334Y-88492563D01*
X184138943Y-88498227D01*
X184160887Y-88506079D01*
X184181957Y-88516044D01*
X184201948Y-88528026D01*
X184220668Y-88541910D01*
X184237938Y-88557562D01*
X184253590Y-88574832D01*
X184267474Y-88593552D01*
X184279456Y-88613543D01*
X184289421Y-88634613D01*
X184297273Y-88656557D01*
X184302937Y-88679166D01*
X184306356Y-88702221D01*
X184307500Y-88725500D01*
X184307500Y-89300500D01*
X184306356Y-89323779D01*
X184302937Y-89346834D01*
X184297273Y-89369443D01*
X184289421Y-89391387D01*
X184279456Y-89412457D01*
X184267474Y-89432448D01*
X184253590Y-89451168D01*
X184237938Y-89468438D01*
X184220668Y-89484090D01*
X184201948Y-89497974D01*
X184181957Y-89509956D01*
X184160887Y-89519921D01*
X184138943Y-89527773D01*
X184116334Y-89533437D01*
X184093279Y-89536856D01*
X184070000Y-89538000D01*
X183595000Y-89538000D01*
X183571721Y-89536856D01*
X183548666Y-89533437D01*
X183526057Y-89527773D01*
X183504113Y-89519921D01*
X183483043Y-89509956D01*
X183463052Y-89497974D01*
X183444332Y-89484090D01*
X183427062Y-89468438D01*
X183411410Y-89451168D01*
X183397526Y-89432448D01*
X183385544Y-89412457D01*
X183375579Y-89391387D01*
X183367727Y-89369443D01*
X183362063Y-89346834D01*
X183358644Y-89323779D01*
X183357500Y-89300500D01*
X183357500Y-88725500D01*
X183358644Y-88702221D01*
X183362063Y-88679166D01*
X183367727Y-88656557D01*
X183375579Y-88634613D01*
X183385544Y-88613543D01*
X183397526Y-88593552D01*
X183411410Y-88574832D01*
X183427062Y-88557562D01*
X183444332Y-88541910D01*
X183463052Y-88528026D01*
X183483043Y-88516044D01*
X183504113Y-88506079D01*
X183526057Y-88498227D01*
X183548666Y-88492563D01*
X183571721Y-88489144D01*
X183595000Y-88488000D01*
X184070000Y-88488000D01*
X184093279Y-88489144D01*
X184093279Y-88489144D01*
G37*
D14*
X183832500Y-89013000D03*
D11*
G36*
X184093279Y-86739144D02*
X184116334Y-86742563D01*
X184138943Y-86748227D01*
X184160887Y-86756079D01*
X184181957Y-86766044D01*
X184201948Y-86778026D01*
X184220668Y-86791910D01*
X184237938Y-86807562D01*
X184253590Y-86824832D01*
X184267474Y-86843552D01*
X184279456Y-86863543D01*
X184289421Y-86884613D01*
X184297273Y-86906557D01*
X184302937Y-86929166D01*
X184306356Y-86952221D01*
X184307500Y-86975500D01*
X184307500Y-87550500D01*
X184306356Y-87573779D01*
X184302937Y-87596834D01*
X184297273Y-87619443D01*
X184289421Y-87641387D01*
X184279456Y-87662457D01*
X184267474Y-87682448D01*
X184253590Y-87701168D01*
X184237938Y-87718438D01*
X184220668Y-87734090D01*
X184201948Y-87747974D01*
X184181957Y-87759956D01*
X184160887Y-87769921D01*
X184138943Y-87777773D01*
X184116334Y-87783437D01*
X184093279Y-87786856D01*
X184070000Y-87788000D01*
X183595000Y-87788000D01*
X183571721Y-87786856D01*
X183548666Y-87783437D01*
X183526057Y-87777773D01*
X183504113Y-87769921D01*
X183483043Y-87759956D01*
X183463052Y-87747974D01*
X183444332Y-87734090D01*
X183427062Y-87718438D01*
X183411410Y-87701168D01*
X183397526Y-87682448D01*
X183385544Y-87662457D01*
X183375579Y-87641387D01*
X183367727Y-87619443D01*
X183362063Y-87596834D01*
X183358644Y-87573779D01*
X183357500Y-87550500D01*
X183357500Y-86975500D01*
X183358644Y-86952221D01*
X183362063Y-86929166D01*
X183367727Y-86906557D01*
X183375579Y-86884613D01*
X183385544Y-86863543D01*
X183397526Y-86843552D01*
X183411410Y-86824832D01*
X183427062Y-86807562D01*
X183444332Y-86791910D01*
X183463052Y-86778026D01*
X183483043Y-86766044D01*
X183504113Y-86756079D01*
X183526057Y-86748227D01*
X183548666Y-86742563D01*
X183571721Y-86739144D01*
X183595000Y-86738000D01*
X184070000Y-86738000D01*
X184093279Y-86739144D01*
X184093279Y-86739144D01*
G37*
D14*
X183832500Y-87263000D03*
G04 #@! TD*
D11*
G04 #@! TO.C,R120*
G36*
X184093279Y-82929144D02*
X184116334Y-82932563D01*
X184138943Y-82938227D01*
X184160887Y-82946079D01*
X184181957Y-82956044D01*
X184201948Y-82968026D01*
X184220668Y-82981910D01*
X184237938Y-82997562D01*
X184253590Y-83014832D01*
X184267474Y-83033552D01*
X184279456Y-83053543D01*
X184289421Y-83074613D01*
X184297273Y-83096557D01*
X184302937Y-83119166D01*
X184306356Y-83142221D01*
X184307500Y-83165500D01*
X184307500Y-83740500D01*
X184306356Y-83763779D01*
X184302937Y-83786834D01*
X184297273Y-83809443D01*
X184289421Y-83831387D01*
X184279456Y-83852457D01*
X184267474Y-83872448D01*
X184253590Y-83891168D01*
X184237938Y-83908438D01*
X184220668Y-83924090D01*
X184201948Y-83937974D01*
X184181957Y-83949956D01*
X184160887Y-83959921D01*
X184138943Y-83967773D01*
X184116334Y-83973437D01*
X184093279Y-83976856D01*
X184070000Y-83978000D01*
X183595000Y-83978000D01*
X183571721Y-83976856D01*
X183548666Y-83973437D01*
X183526057Y-83967773D01*
X183504113Y-83959921D01*
X183483043Y-83949956D01*
X183463052Y-83937974D01*
X183444332Y-83924090D01*
X183427062Y-83908438D01*
X183411410Y-83891168D01*
X183397526Y-83872448D01*
X183385544Y-83852457D01*
X183375579Y-83831387D01*
X183367727Y-83809443D01*
X183362063Y-83786834D01*
X183358644Y-83763779D01*
X183357500Y-83740500D01*
X183357500Y-83165500D01*
X183358644Y-83142221D01*
X183362063Y-83119166D01*
X183367727Y-83096557D01*
X183375579Y-83074613D01*
X183385544Y-83053543D01*
X183397526Y-83033552D01*
X183411410Y-83014832D01*
X183427062Y-82997562D01*
X183444332Y-82981910D01*
X183463052Y-82968026D01*
X183483043Y-82956044D01*
X183504113Y-82946079D01*
X183526057Y-82938227D01*
X183548666Y-82932563D01*
X183571721Y-82929144D01*
X183595000Y-82928000D01*
X184070000Y-82928000D01*
X184093279Y-82929144D01*
X184093279Y-82929144D01*
G37*
D14*
X183832500Y-83453000D03*
D11*
G36*
X184093279Y-84679144D02*
X184116334Y-84682563D01*
X184138943Y-84688227D01*
X184160887Y-84696079D01*
X184181957Y-84706044D01*
X184201948Y-84718026D01*
X184220668Y-84731910D01*
X184237938Y-84747562D01*
X184253590Y-84764832D01*
X184267474Y-84783552D01*
X184279456Y-84803543D01*
X184289421Y-84824613D01*
X184297273Y-84846557D01*
X184302937Y-84869166D01*
X184306356Y-84892221D01*
X184307500Y-84915500D01*
X184307500Y-85490500D01*
X184306356Y-85513779D01*
X184302937Y-85536834D01*
X184297273Y-85559443D01*
X184289421Y-85581387D01*
X184279456Y-85602457D01*
X184267474Y-85622448D01*
X184253590Y-85641168D01*
X184237938Y-85658438D01*
X184220668Y-85674090D01*
X184201948Y-85687974D01*
X184181957Y-85699956D01*
X184160887Y-85709921D01*
X184138943Y-85717773D01*
X184116334Y-85723437D01*
X184093279Y-85726856D01*
X184070000Y-85728000D01*
X183595000Y-85728000D01*
X183571721Y-85726856D01*
X183548666Y-85723437D01*
X183526057Y-85717773D01*
X183504113Y-85709921D01*
X183483043Y-85699956D01*
X183463052Y-85687974D01*
X183444332Y-85674090D01*
X183427062Y-85658438D01*
X183411410Y-85641168D01*
X183397526Y-85622448D01*
X183385544Y-85602457D01*
X183375579Y-85581387D01*
X183367727Y-85559443D01*
X183362063Y-85536834D01*
X183358644Y-85513779D01*
X183357500Y-85490500D01*
X183357500Y-84915500D01*
X183358644Y-84892221D01*
X183362063Y-84869166D01*
X183367727Y-84846557D01*
X183375579Y-84824613D01*
X183385544Y-84803543D01*
X183397526Y-84783552D01*
X183411410Y-84764832D01*
X183427062Y-84747562D01*
X183444332Y-84731910D01*
X183463052Y-84718026D01*
X183483043Y-84706044D01*
X183504113Y-84696079D01*
X183526057Y-84688227D01*
X183548666Y-84682563D01*
X183571721Y-84679144D01*
X183595000Y-84678000D01*
X184070000Y-84678000D01*
X184093279Y-84679144D01*
X184093279Y-84679144D01*
G37*
D14*
X183832500Y-85203000D03*
G04 #@! TD*
D11*
G04 #@! TO.C,R121*
G36*
X210318779Y-92934144D02*
X210341834Y-92937563D01*
X210364443Y-92943227D01*
X210386387Y-92951079D01*
X210407457Y-92961044D01*
X210427448Y-92973026D01*
X210446168Y-92986910D01*
X210463438Y-93002562D01*
X210479090Y-93019832D01*
X210492974Y-93038552D01*
X210504956Y-93058543D01*
X210514921Y-93079613D01*
X210522773Y-93101557D01*
X210528437Y-93124166D01*
X210531856Y-93147221D01*
X210533000Y-93170500D01*
X210533000Y-93745500D01*
X210531856Y-93768779D01*
X210528437Y-93791834D01*
X210522773Y-93814443D01*
X210514921Y-93836387D01*
X210504956Y-93857457D01*
X210492974Y-93877448D01*
X210479090Y-93896168D01*
X210463438Y-93913438D01*
X210446168Y-93929090D01*
X210427448Y-93942974D01*
X210407457Y-93954956D01*
X210386387Y-93964921D01*
X210364443Y-93972773D01*
X210341834Y-93978437D01*
X210318779Y-93981856D01*
X210295500Y-93983000D01*
X209820500Y-93983000D01*
X209797221Y-93981856D01*
X209774166Y-93978437D01*
X209751557Y-93972773D01*
X209729613Y-93964921D01*
X209708543Y-93954956D01*
X209688552Y-93942974D01*
X209669832Y-93929090D01*
X209652562Y-93913438D01*
X209636910Y-93896168D01*
X209623026Y-93877448D01*
X209611044Y-93857457D01*
X209601079Y-93836387D01*
X209593227Y-93814443D01*
X209587563Y-93791834D01*
X209584144Y-93768779D01*
X209583000Y-93745500D01*
X209583000Y-93170500D01*
X209584144Y-93147221D01*
X209587563Y-93124166D01*
X209593227Y-93101557D01*
X209601079Y-93079613D01*
X209611044Y-93058543D01*
X209623026Y-93038552D01*
X209636910Y-93019832D01*
X209652562Y-93002562D01*
X209669832Y-92986910D01*
X209688552Y-92973026D01*
X209708543Y-92961044D01*
X209729613Y-92951079D01*
X209751557Y-92943227D01*
X209774166Y-92937563D01*
X209797221Y-92934144D01*
X209820500Y-92933000D01*
X210295500Y-92933000D01*
X210318779Y-92934144D01*
X210318779Y-92934144D01*
G37*
D14*
X210058000Y-93458000D03*
D11*
G36*
X210318779Y-91184144D02*
X210341834Y-91187563D01*
X210364443Y-91193227D01*
X210386387Y-91201079D01*
X210407457Y-91211044D01*
X210427448Y-91223026D01*
X210446168Y-91236910D01*
X210463438Y-91252562D01*
X210479090Y-91269832D01*
X210492974Y-91288552D01*
X210504956Y-91308543D01*
X210514921Y-91329613D01*
X210522773Y-91351557D01*
X210528437Y-91374166D01*
X210531856Y-91397221D01*
X210533000Y-91420500D01*
X210533000Y-91995500D01*
X210531856Y-92018779D01*
X210528437Y-92041834D01*
X210522773Y-92064443D01*
X210514921Y-92086387D01*
X210504956Y-92107457D01*
X210492974Y-92127448D01*
X210479090Y-92146168D01*
X210463438Y-92163438D01*
X210446168Y-92179090D01*
X210427448Y-92192974D01*
X210407457Y-92204956D01*
X210386387Y-92214921D01*
X210364443Y-92222773D01*
X210341834Y-92228437D01*
X210318779Y-92231856D01*
X210295500Y-92233000D01*
X209820500Y-92233000D01*
X209797221Y-92231856D01*
X209774166Y-92228437D01*
X209751557Y-92222773D01*
X209729613Y-92214921D01*
X209708543Y-92204956D01*
X209688552Y-92192974D01*
X209669832Y-92179090D01*
X209652562Y-92163438D01*
X209636910Y-92146168D01*
X209623026Y-92127448D01*
X209611044Y-92107457D01*
X209601079Y-92086387D01*
X209593227Y-92064443D01*
X209587563Y-92041834D01*
X209584144Y-92018779D01*
X209583000Y-91995500D01*
X209583000Y-91420500D01*
X209584144Y-91397221D01*
X209587563Y-91374166D01*
X209593227Y-91351557D01*
X209601079Y-91329613D01*
X209611044Y-91308543D01*
X209623026Y-91288552D01*
X209636910Y-91269832D01*
X209652562Y-91252562D01*
X209669832Y-91236910D01*
X209688552Y-91223026D01*
X209708543Y-91211044D01*
X209729613Y-91201079D01*
X209751557Y-91193227D01*
X209774166Y-91187563D01*
X209797221Y-91184144D01*
X209820500Y-91183000D01*
X210295500Y-91183000D01*
X210318779Y-91184144D01*
X210318779Y-91184144D01*
G37*
D14*
X210058000Y-91708000D03*
G04 #@! TD*
D11*
G04 #@! TO.C,R122*
G36*
X207778779Y-91184144D02*
X207801834Y-91187563D01*
X207824443Y-91193227D01*
X207846387Y-91201079D01*
X207867457Y-91211044D01*
X207887448Y-91223026D01*
X207906168Y-91236910D01*
X207923438Y-91252562D01*
X207939090Y-91269832D01*
X207952974Y-91288552D01*
X207964956Y-91308543D01*
X207974921Y-91329613D01*
X207982773Y-91351557D01*
X207988437Y-91374166D01*
X207991856Y-91397221D01*
X207993000Y-91420500D01*
X207993000Y-91995500D01*
X207991856Y-92018779D01*
X207988437Y-92041834D01*
X207982773Y-92064443D01*
X207974921Y-92086387D01*
X207964956Y-92107457D01*
X207952974Y-92127448D01*
X207939090Y-92146168D01*
X207923438Y-92163438D01*
X207906168Y-92179090D01*
X207887448Y-92192974D01*
X207867457Y-92204956D01*
X207846387Y-92214921D01*
X207824443Y-92222773D01*
X207801834Y-92228437D01*
X207778779Y-92231856D01*
X207755500Y-92233000D01*
X207280500Y-92233000D01*
X207257221Y-92231856D01*
X207234166Y-92228437D01*
X207211557Y-92222773D01*
X207189613Y-92214921D01*
X207168543Y-92204956D01*
X207148552Y-92192974D01*
X207129832Y-92179090D01*
X207112562Y-92163438D01*
X207096910Y-92146168D01*
X207083026Y-92127448D01*
X207071044Y-92107457D01*
X207061079Y-92086387D01*
X207053227Y-92064443D01*
X207047563Y-92041834D01*
X207044144Y-92018779D01*
X207043000Y-91995500D01*
X207043000Y-91420500D01*
X207044144Y-91397221D01*
X207047563Y-91374166D01*
X207053227Y-91351557D01*
X207061079Y-91329613D01*
X207071044Y-91308543D01*
X207083026Y-91288552D01*
X207096910Y-91269832D01*
X207112562Y-91252562D01*
X207129832Y-91236910D01*
X207148552Y-91223026D01*
X207168543Y-91211044D01*
X207189613Y-91201079D01*
X207211557Y-91193227D01*
X207234166Y-91187563D01*
X207257221Y-91184144D01*
X207280500Y-91183000D01*
X207755500Y-91183000D01*
X207778779Y-91184144D01*
X207778779Y-91184144D01*
G37*
D14*
X207518000Y-91708000D03*
D11*
G36*
X207778779Y-92934144D02*
X207801834Y-92937563D01*
X207824443Y-92943227D01*
X207846387Y-92951079D01*
X207867457Y-92961044D01*
X207887448Y-92973026D01*
X207906168Y-92986910D01*
X207923438Y-93002562D01*
X207939090Y-93019832D01*
X207952974Y-93038552D01*
X207964956Y-93058543D01*
X207974921Y-93079613D01*
X207982773Y-93101557D01*
X207988437Y-93124166D01*
X207991856Y-93147221D01*
X207993000Y-93170500D01*
X207993000Y-93745500D01*
X207991856Y-93768779D01*
X207988437Y-93791834D01*
X207982773Y-93814443D01*
X207974921Y-93836387D01*
X207964956Y-93857457D01*
X207952974Y-93877448D01*
X207939090Y-93896168D01*
X207923438Y-93913438D01*
X207906168Y-93929090D01*
X207887448Y-93942974D01*
X207867457Y-93954956D01*
X207846387Y-93964921D01*
X207824443Y-93972773D01*
X207801834Y-93978437D01*
X207778779Y-93981856D01*
X207755500Y-93983000D01*
X207280500Y-93983000D01*
X207257221Y-93981856D01*
X207234166Y-93978437D01*
X207211557Y-93972773D01*
X207189613Y-93964921D01*
X207168543Y-93954956D01*
X207148552Y-93942974D01*
X207129832Y-93929090D01*
X207112562Y-93913438D01*
X207096910Y-93896168D01*
X207083026Y-93877448D01*
X207071044Y-93857457D01*
X207061079Y-93836387D01*
X207053227Y-93814443D01*
X207047563Y-93791834D01*
X207044144Y-93768779D01*
X207043000Y-93745500D01*
X207043000Y-93170500D01*
X207044144Y-93147221D01*
X207047563Y-93124166D01*
X207053227Y-93101557D01*
X207061079Y-93079613D01*
X207071044Y-93058543D01*
X207083026Y-93038552D01*
X207096910Y-93019832D01*
X207112562Y-93002562D01*
X207129832Y-92986910D01*
X207148552Y-92973026D01*
X207168543Y-92961044D01*
X207189613Y-92951079D01*
X207211557Y-92943227D01*
X207234166Y-92937563D01*
X207257221Y-92934144D01*
X207280500Y-92933000D01*
X207755500Y-92933000D01*
X207778779Y-92934144D01*
X207778779Y-92934144D01*
G37*
D14*
X207518000Y-93458000D03*
G04 #@! TD*
D15*
G04 #@! TO.C,U102*
X184575000Y-60672000D03*
X184575000Y-61322000D03*
X184575000Y-61972000D03*
X184575000Y-62622000D03*
X184575000Y-63272000D03*
X184575000Y-63922000D03*
X184575000Y-64572000D03*
X184575000Y-65222000D03*
X184575000Y-65872000D03*
X184575000Y-66522000D03*
X184575000Y-67172000D03*
X184575000Y-67822000D03*
X184575000Y-68472000D03*
X184575000Y-69122000D03*
X177375000Y-69122000D03*
X177375000Y-68472000D03*
X177375000Y-67822000D03*
X177375000Y-67172000D03*
X177375000Y-66522000D03*
X177375000Y-65872000D03*
X177375000Y-65222000D03*
X177375000Y-64572000D03*
X177375000Y-63922000D03*
X177375000Y-63272000D03*
X177375000Y-62622000D03*
X177375000Y-61972000D03*
X177375000Y-61322000D03*
X177375000Y-60672000D03*
G04 #@! TD*
D16*
G04 #@! TO.C,U104*
X177774799Y-81136506D03*
X177774799Y-80486506D03*
X177774799Y-79836506D03*
X177774799Y-79186506D03*
X177774799Y-78536506D03*
X177774799Y-77886506D03*
X177774799Y-77236506D03*
X177774799Y-76586506D03*
X177774799Y-75936506D03*
X177774799Y-75286506D03*
X177774799Y-74636506D03*
X177774799Y-73986506D03*
X177774799Y-73336506D03*
X177774799Y-72686506D03*
X183474799Y-72686506D03*
X183474799Y-73336506D03*
X183474799Y-73986506D03*
X183474799Y-74636506D03*
X183474799Y-75286506D03*
X183474799Y-75936506D03*
X183474799Y-76586506D03*
X183474799Y-77236506D03*
X183474799Y-77886506D03*
X183474799Y-78536506D03*
X183474799Y-79186506D03*
X183474799Y-79836506D03*
X183474799Y-80486506D03*
X183474799Y-81136506D03*
G04 #@! TD*
M02*
