%FSLAX45Y45*%
G04 Gerber Fmt 4.5, Leading zero omitted, Abs format (unit mm)*
G04 Created by KiCad (PCBNEW 4.0.5+dfsg1-4) date Mon Jul  9 23:17:05 2018*
%MOMM*%
%LPD*%
G01*
G04 APERTURE LIST*
%ADD10C,0.127000*%
%ADD11C,0.381000*%
%ADD12C,0.200000*%
%ADD13C,0.300000*%
G04 APERTURE END LIST*
D10*
D11*
X10901680Y-3594100D02*
X10916920Y-3594100D01*
X10901680Y-13073380D02*
X10901680Y-3594100D01*
X19517360Y-13073380D02*
X10901680Y-13073380D01*
X19517360Y-3594100D02*
X19517360Y-13073380D01*
X10916920Y-3594100D02*
X19517360Y-3594100D01*
D12*
X11323800Y-7393150D02*
X11383800Y-7453150D01*
X11383800Y-7393150D02*
X11323800Y-7453150D01*
X11328880Y-12229310D02*
X11388880Y-12289310D01*
X11388880Y-12229310D02*
X11328880Y-12289310D01*
X11419050Y-8021800D02*
X11479050Y-8081800D01*
X11479050Y-8021800D02*
X11419050Y-8081800D01*
X11424130Y-12857960D02*
X11484130Y-12917960D01*
X11484130Y-12857960D02*
X11424130Y-12917960D01*
X11527000Y-3868900D02*
X11587000Y-3928900D01*
X11587000Y-3868900D02*
X11527000Y-3928900D01*
X11532080Y-8705060D02*
X11592080Y-8765060D01*
X11592080Y-8705060D02*
X11532080Y-8765060D01*
X11730200Y-4465800D02*
X11790200Y-4525800D01*
X11790200Y-4465800D02*
X11730200Y-4525800D01*
X11735280Y-9301960D02*
X11795280Y-9361960D01*
X11795280Y-9301960D02*
X11735280Y-9361960D01*
X11819100Y-6002500D02*
X11879100Y-6062500D01*
X11879100Y-6002500D02*
X11819100Y-6062500D01*
X11824180Y-10838660D02*
X11884180Y-10898660D01*
X11884180Y-10838660D02*
X11824180Y-10898660D01*
X11895300Y-4846800D02*
X11955300Y-4906800D01*
X11955300Y-4846800D02*
X11895300Y-4906800D01*
X11900380Y-9682960D02*
X11960380Y-9742960D01*
X11960380Y-9682960D02*
X11900380Y-9742960D01*
X12873200Y-4656300D02*
X12933200Y-4716300D01*
X12933200Y-4656300D02*
X12873200Y-4716300D01*
X12878280Y-9492460D02*
X12938280Y-9552460D01*
X12938280Y-9492460D02*
X12878280Y-9552460D01*
X12987500Y-7196300D02*
X13047500Y-7256300D01*
X13047500Y-7196300D02*
X12987500Y-7256300D01*
X12992580Y-12032460D02*
X13052580Y-12092460D01*
X13052580Y-12032460D02*
X12992580Y-12092460D01*
X13025600Y-4783300D02*
X13085600Y-4843300D01*
X13085600Y-4783300D02*
X13025600Y-4843300D01*
X13030680Y-9619460D02*
X13090680Y-9679460D01*
X13090680Y-9619460D02*
X13030680Y-9679460D01*
X13228800Y-4764250D02*
X13288800Y-4824250D01*
X13288800Y-4764250D02*
X13228800Y-4824250D01*
X13228800Y-7018500D02*
X13288800Y-7078500D01*
X13288800Y-7018500D02*
X13228800Y-7078500D01*
X13233880Y-9600410D02*
X13293880Y-9660410D01*
X13293880Y-9600410D02*
X13233880Y-9660410D01*
X13233880Y-11854660D02*
X13293880Y-11914660D01*
X13293880Y-11854660D02*
X13233880Y-11914660D01*
X13387550Y-4700750D02*
X13447550Y-4760750D01*
X13447550Y-4700750D02*
X13387550Y-4760750D01*
X13392630Y-9536910D02*
X13452630Y-9596910D01*
X13452630Y-9536910D02*
X13392630Y-9596910D01*
X14054300Y-6510500D02*
X14114300Y-6570500D01*
X14114300Y-6510500D02*
X14054300Y-6570500D01*
X14059380Y-11346660D02*
X14119380Y-11406660D01*
X14119380Y-11346660D02*
X14059380Y-11406660D01*
X14130500Y-5621500D02*
X14190500Y-5681500D01*
X14190500Y-5621500D02*
X14130500Y-5681500D01*
X14135580Y-10457660D02*
X14195580Y-10517660D01*
X14195580Y-10457660D02*
X14135580Y-10517660D01*
X15687520Y-7393150D02*
X15747520Y-7453150D01*
X15747520Y-7393150D02*
X15687520Y-7453150D01*
X15692600Y-12229310D02*
X15752600Y-12289310D01*
X15752600Y-12229310D02*
X15692600Y-12289310D01*
X15782770Y-8021800D02*
X15842770Y-8081800D01*
X15842770Y-8021800D02*
X15782770Y-8081800D01*
X15787850Y-12857960D02*
X15847850Y-12917960D01*
X15847850Y-12857960D02*
X15787850Y-12917960D01*
X15890720Y-3868900D02*
X15950720Y-3928900D01*
X15950720Y-3868900D02*
X15890720Y-3928900D01*
X15895800Y-8705060D02*
X15955800Y-8765060D01*
X15955800Y-8705060D02*
X15895800Y-8765060D01*
X16093920Y-4465800D02*
X16153920Y-4525800D01*
X16153920Y-4465800D02*
X16093920Y-4525800D01*
X16099000Y-9301960D02*
X16159000Y-9361960D01*
X16159000Y-9301960D02*
X16099000Y-9361960D01*
X16182820Y-6002500D02*
X16242820Y-6062500D01*
X16242820Y-6002500D02*
X16182820Y-6062500D01*
X16187900Y-10838660D02*
X16247900Y-10898660D01*
X16247900Y-10838660D02*
X16187900Y-10898660D01*
X16259020Y-4846800D02*
X16319020Y-4906800D01*
X16319020Y-4846800D02*
X16259020Y-4906800D01*
X16264100Y-9682960D02*
X16324100Y-9742960D01*
X16324100Y-9682960D02*
X16264100Y-9742960D01*
X17236920Y-4656300D02*
X17296920Y-4716300D01*
X17296920Y-4656300D02*
X17236920Y-4716300D01*
X17242000Y-9492460D02*
X17302000Y-9552460D01*
X17302000Y-9492460D02*
X17242000Y-9552460D01*
X17351220Y-7196300D02*
X17411220Y-7256300D01*
X17411220Y-7196300D02*
X17351220Y-7256300D01*
X17356300Y-12032460D02*
X17416300Y-12092460D01*
X17416300Y-12032460D02*
X17356300Y-12092460D01*
X17389320Y-4783300D02*
X17449320Y-4843300D01*
X17449320Y-4783300D02*
X17389320Y-4843300D01*
X17394400Y-9619460D02*
X17454400Y-9679460D01*
X17454400Y-9619460D02*
X17394400Y-9679460D01*
X17592520Y-4764250D02*
X17652520Y-4824250D01*
X17652520Y-4764250D02*
X17592520Y-4824250D01*
X17592520Y-7018500D02*
X17652520Y-7078500D01*
X17652520Y-7018500D02*
X17592520Y-7078500D01*
X17597600Y-9600410D02*
X17657600Y-9660410D01*
X17657600Y-9600410D02*
X17597600Y-9660410D01*
X17597600Y-11854660D02*
X17657600Y-11914660D01*
X17657600Y-11854660D02*
X17597600Y-11914660D01*
X17751270Y-4700750D02*
X17811270Y-4760750D01*
X17811270Y-4700750D02*
X17751270Y-4760750D01*
X17756350Y-9536910D02*
X17816350Y-9596910D01*
X17816350Y-9536910D02*
X17756350Y-9596910D01*
X18418020Y-6510500D02*
X18478020Y-6570500D01*
X18478020Y-6510500D02*
X18418020Y-6570500D01*
X18423100Y-11346660D02*
X18483100Y-11406660D01*
X18483100Y-11346660D02*
X18423100Y-11406660D01*
X18494220Y-5621500D02*
X18554220Y-5681500D01*
X18554220Y-5621500D02*
X18494220Y-5681500D01*
X18499300Y-10457660D02*
X18559300Y-10517660D01*
X18559300Y-10457660D02*
X18499300Y-10517660D01*
X11276800Y-5016500D02*
G75*
G03X11276800Y-5016500I-50000J0D01*
G01*
X11276800Y-5270500D02*
G75*
G03X11276800Y-5270500I-50000J0D01*
G01*
X11276800Y-5524500D02*
G75*
G03X11276800Y-5524500I-50000J0D01*
G01*
X11276800Y-5778500D02*
G75*
G03X11276800Y-5778500I-50000J0D01*
G01*
X11276800Y-6032500D02*
G75*
G03X11276800Y-6032500I-50000J0D01*
G01*
X11276800Y-6286500D02*
G75*
G03X11276800Y-6286500I-50000J0D01*
G01*
X11276800Y-6540500D02*
G75*
G03X11276800Y-6540500I-50000J0D01*
G01*
X11276800Y-6794500D02*
G75*
G03X11276800Y-6794500I-50000J0D01*
G01*
X11281880Y-9852660D02*
G75*
G03X11281880Y-9852660I-50000J0D01*
G01*
X11281880Y-10106660D02*
G75*
G03X11281880Y-10106660I-50000J0D01*
G01*
X11281880Y-10360660D02*
G75*
G03X11281880Y-10360660I-50000J0D01*
G01*
X11281880Y-10614660D02*
G75*
G03X11281880Y-10614660I-50000J0D01*
G01*
X11281880Y-10868660D02*
G75*
G03X11281880Y-10868660I-50000J0D01*
G01*
X11281880Y-11122660D02*
G75*
G03X11281880Y-11122660I-50000J0D01*
G01*
X11281880Y-11376660D02*
G75*
G03X11281880Y-11376660I-50000J0D01*
G01*
X11281880Y-11630660D02*
G75*
G03X11281880Y-11630660I-50000J0D01*
G01*
X11530800Y-5016500D02*
G75*
G03X11530800Y-5016500I-50000J0D01*
G01*
X11530800Y-5270500D02*
G75*
G03X11530800Y-5270500I-50000J0D01*
G01*
X11530800Y-5524500D02*
G75*
G03X11530800Y-5524500I-50000J0D01*
G01*
X11530800Y-5778500D02*
G75*
G03X11530800Y-5778500I-50000J0D01*
G01*
X11530800Y-6032500D02*
G75*
G03X11530800Y-6032500I-50000J0D01*
G01*
X11530800Y-6286500D02*
G75*
G03X11530800Y-6286500I-50000J0D01*
G01*
X11530800Y-6540500D02*
G75*
G03X11530800Y-6540500I-50000J0D01*
G01*
X11530800Y-6794500D02*
G75*
G03X11530800Y-6794500I-50000J0D01*
G01*
X11535880Y-9852660D02*
G75*
G03X11535880Y-9852660I-50000J0D01*
G01*
X11535880Y-10106660D02*
G75*
G03X11535880Y-10106660I-50000J0D01*
G01*
X11535880Y-10360660D02*
G75*
G03X11535880Y-10360660I-50000J0D01*
G01*
X11535880Y-10614660D02*
G75*
G03X11535880Y-10614660I-50000J0D01*
G01*
X11535880Y-10868660D02*
G75*
G03X11535880Y-10868660I-50000J0D01*
G01*
X11535880Y-11122660D02*
G75*
G03X11535880Y-11122660I-50000J0D01*
G01*
X11535880Y-11376660D02*
G75*
G03X11535880Y-11376660I-50000J0D01*
G01*
X11535880Y-11630660D02*
G75*
G03X11535880Y-11630660I-50000J0D01*
G01*
X12356300Y-3924300D02*
G75*
G03X12356300Y-3924300I-50000J0D01*
G01*
X12356300Y-4178300D02*
G75*
G03X12356300Y-4178300I-50000J0D01*
G01*
X12356300Y-7645400D02*
G75*
G03X12356300Y-7645400I-50000J0D01*
G01*
X12356300Y-7899400D02*
G75*
G03X12356300Y-7899400I-50000J0D01*
G01*
X12361380Y-8760460D02*
G75*
G03X12361380Y-8760460I-50000J0D01*
G01*
X12361380Y-9014460D02*
G75*
G03X12361380Y-9014460I-50000J0D01*
G01*
X12361380Y-12481560D02*
G75*
G03X12361380Y-12481560I-50000J0D01*
G01*
X12361380Y-12735560D02*
G75*
G03X12361380Y-12735560I-50000J0D01*
G01*
X12610300Y-3924300D02*
G75*
G03X12610300Y-3924300I-50000J0D01*
G01*
X12610300Y-4178300D02*
G75*
G03X12610300Y-4178300I-50000J0D01*
G01*
X12610300Y-7645400D02*
G75*
G03X12610300Y-7645400I-50000J0D01*
G01*
X12610300Y-7899400D02*
G75*
G03X12610300Y-7899400I-50000J0D01*
G01*
X12615380Y-8760460D02*
G75*
G03X12615380Y-8760460I-50000J0D01*
G01*
X12615380Y-9014460D02*
G75*
G03X12615380Y-9014460I-50000J0D01*
G01*
X12615380Y-12481560D02*
G75*
G03X12615380Y-12481560I-50000J0D01*
G01*
X12615380Y-12735560D02*
G75*
G03X12615380Y-12735560I-50000J0D01*
G01*
X12864300Y-3924300D02*
G75*
G03X12864300Y-3924300I-50000J0D01*
G01*
X12864300Y-4178300D02*
G75*
G03X12864300Y-4178300I-50000J0D01*
G01*
X12864300Y-7645400D02*
G75*
G03X12864300Y-7645400I-50000J0D01*
G01*
X12864300Y-7899400D02*
G75*
G03X12864300Y-7899400I-50000J0D01*
G01*
X12869380Y-8760460D02*
G75*
G03X12869380Y-8760460I-50000J0D01*
G01*
X12869380Y-9014460D02*
G75*
G03X12869380Y-9014460I-50000J0D01*
G01*
X12869380Y-12481560D02*
G75*
G03X12869380Y-12481560I-50000J0D01*
G01*
X12869380Y-12735560D02*
G75*
G03X12869380Y-12735560I-50000J0D01*
G01*
X13118300Y-3924300D02*
G75*
G03X13118300Y-3924300I-50000J0D01*
G01*
X13118300Y-4178300D02*
G75*
G03X13118300Y-4178300I-50000J0D01*
G01*
X13118300Y-7645400D02*
G75*
G03X13118300Y-7645400I-50000J0D01*
G01*
X13118300Y-7899400D02*
G75*
G03X13118300Y-7899400I-50000J0D01*
G01*
X13123380Y-8760460D02*
G75*
G03X13123380Y-8760460I-50000J0D01*
G01*
X13123380Y-9014460D02*
G75*
G03X13123380Y-9014460I-50000J0D01*
G01*
X13123380Y-12481560D02*
G75*
G03X13123380Y-12481560I-50000J0D01*
G01*
X13123380Y-12735560D02*
G75*
G03X13123380Y-12735560I-50000J0D01*
G01*
X13372300Y-3924300D02*
G75*
G03X13372300Y-3924300I-50000J0D01*
G01*
X13372300Y-4178300D02*
G75*
G03X13372300Y-4178300I-50000J0D01*
G01*
X13372300Y-7645400D02*
G75*
G03X13372300Y-7645400I-50000J0D01*
G01*
X13372300Y-7899400D02*
G75*
G03X13372300Y-7899400I-50000J0D01*
G01*
X13377380Y-8760460D02*
G75*
G03X13377380Y-8760460I-50000J0D01*
G01*
X13377380Y-9014460D02*
G75*
G03X13377380Y-9014460I-50000J0D01*
G01*
X13377380Y-12481560D02*
G75*
G03X13377380Y-12481560I-50000J0D01*
G01*
X13377380Y-12735560D02*
G75*
G03X13377380Y-12735560I-50000J0D01*
G01*
X13626300Y-3924300D02*
G75*
G03X13626300Y-3924300I-50000J0D01*
G01*
X13626300Y-4178300D02*
G75*
G03X13626300Y-4178300I-50000J0D01*
G01*
X13626300Y-7645400D02*
G75*
G03X13626300Y-7645400I-50000J0D01*
G01*
X13626300Y-7899400D02*
G75*
G03X13626300Y-7899400I-50000J0D01*
G01*
X13631380Y-8760460D02*
G75*
G03X13631380Y-8760460I-50000J0D01*
G01*
X13631380Y-9014460D02*
G75*
G03X13631380Y-9014460I-50000J0D01*
G01*
X13631380Y-12481560D02*
G75*
G03X13631380Y-12481560I-50000J0D01*
G01*
X13631380Y-12735560D02*
G75*
G03X13631380Y-12735560I-50000J0D01*
G01*
X13880300Y-3924300D02*
G75*
G03X13880300Y-3924300I-50000J0D01*
G01*
X13880300Y-4178300D02*
G75*
G03X13880300Y-4178300I-50000J0D01*
G01*
X13880300Y-7645400D02*
G75*
G03X13880300Y-7645400I-50000J0D01*
G01*
X13880300Y-7899400D02*
G75*
G03X13880300Y-7899400I-50000J0D01*
G01*
X13885380Y-8760460D02*
G75*
G03X13885380Y-8760460I-50000J0D01*
G01*
X13885380Y-9014460D02*
G75*
G03X13885380Y-9014460I-50000J0D01*
G01*
X13885380Y-12481560D02*
G75*
G03X13885380Y-12481560I-50000J0D01*
G01*
X13885380Y-12735560D02*
G75*
G03X13885380Y-12735560I-50000J0D01*
G01*
X14134300Y-3924300D02*
G75*
G03X14134300Y-3924300I-50000J0D01*
G01*
X14134300Y-4178300D02*
G75*
G03X14134300Y-4178300I-50000J0D01*
G01*
X14134300Y-7645400D02*
G75*
G03X14134300Y-7645400I-50000J0D01*
G01*
X14134300Y-7899400D02*
G75*
G03X14134300Y-7899400I-50000J0D01*
G01*
X14139380Y-8760460D02*
G75*
G03X14139380Y-8760460I-50000J0D01*
G01*
X14139380Y-9014460D02*
G75*
G03X14139380Y-9014460I-50000J0D01*
G01*
X14139380Y-12481560D02*
G75*
G03X14139380Y-12481560I-50000J0D01*
G01*
X14139380Y-12735560D02*
G75*
G03X14139380Y-12735560I-50000J0D01*
G01*
X14616900Y-5016500D02*
G75*
G03X14616900Y-5016500I-50000J0D01*
G01*
X14616900Y-5270500D02*
G75*
G03X14616900Y-5270500I-50000J0D01*
G01*
X14616900Y-5524500D02*
G75*
G03X14616900Y-5524500I-50000J0D01*
G01*
X14616900Y-5778500D02*
G75*
G03X14616900Y-5778500I-50000J0D01*
G01*
X14616900Y-6032500D02*
G75*
G03X14616900Y-6032500I-50000J0D01*
G01*
X14616900Y-6286500D02*
G75*
G03X14616900Y-6286500I-50000J0D01*
G01*
X14616900Y-6540500D02*
G75*
G03X14616900Y-6540500I-50000J0D01*
G01*
X14616900Y-6794500D02*
G75*
G03X14616900Y-6794500I-50000J0D01*
G01*
X14621980Y-9852660D02*
G75*
G03X14621980Y-9852660I-50000J0D01*
G01*
X14621980Y-10106660D02*
G75*
G03X14621980Y-10106660I-50000J0D01*
G01*
X14621980Y-10360660D02*
G75*
G03X14621980Y-10360660I-50000J0D01*
G01*
X14621980Y-10614660D02*
G75*
G03X14621980Y-10614660I-50000J0D01*
G01*
X14621980Y-10868660D02*
G75*
G03X14621980Y-10868660I-50000J0D01*
G01*
X14621980Y-11122660D02*
G75*
G03X14621980Y-11122660I-50000J0D01*
G01*
X14621980Y-11376660D02*
G75*
G03X14621980Y-11376660I-50000J0D01*
G01*
X14621980Y-11630660D02*
G75*
G03X14621980Y-11630660I-50000J0D01*
G01*
X14870900Y-5016500D02*
G75*
G03X14870900Y-5016500I-50000J0D01*
G01*
X14870900Y-5270500D02*
G75*
G03X14870900Y-5270500I-50000J0D01*
G01*
X14870900Y-5524500D02*
G75*
G03X14870900Y-5524500I-50000J0D01*
G01*
X14870900Y-5778500D02*
G75*
G03X14870900Y-5778500I-50000J0D01*
G01*
X14870900Y-6032500D02*
G75*
G03X14870900Y-6032500I-50000J0D01*
G01*
X14870900Y-6286500D02*
G75*
G03X14870900Y-6286500I-50000J0D01*
G01*
X14870900Y-6540500D02*
G75*
G03X14870900Y-6540500I-50000J0D01*
G01*
X14870900Y-6794500D02*
G75*
G03X14870900Y-6794500I-50000J0D01*
G01*
X14875980Y-9852660D02*
G75*
G03X14875980Y-9852660I-50000J0D01*
G01*
X14875980Y-10106660D02*
G75*
G03X14875980Y-10106660I-50000J0D01*
G01*
X14875980Y-10360660D02*
G75*
G03X14875980Y-10360660I-50000J0D01*
G01*
X14875980Y-10614660D02*
G75*
G03X14875980Y-10614660I-50000J0D01*
G01*
X14875980Y-10868660D02*
G75*
G03X14875980Y-10868660I-50000J0D01*
G01*
X14875980Y-11122660D02*
G75*
G03X14875980Y-11122660I-50000J0D01*
G01*
X14875980Y-11376660D02*
G75*
G03X14875980Y-11376660I-50000J0D01*
G01*
X14875980Y-11630660D02*
G75*
G03X14875980Y-11630660I-50000J0D01*
G01*
X15640520Y-5016500D02*
G75*
G03X15640520Y-5016500I-50000J0D01*
G01*
X15640520Y-5270500D02*
G75*
G03X15640520Y-5270500I-50000J0D01*
G01*
X15640520Y-5524500D02*
G75*
G03X15640520Y-5524500I-50000J0D01*
G01*
X15640520Y-5778500D02*
G75*
G03X15640520Y-5778500I-50000J0D01*
G01*
X15640520Y-6032500D02*
G75*
G03X15640520Y-6032500I-50000J0D01*
G01*
X15640520Y-6286500D02*
G75*
G03X15640520Y-6286500I-50000J0D01*
G01*
X15640520Y-6540500D02*
G75*
G03X15640520Y-6540500I-50000J0D01*
G01*
X15640520Y-6794500D02*
G75*
G03X15640520Y-6794500I-50000J0D01*
G01*
X15645600Y-9852660D02*
G75*
G03X15645600Y-9852660I-50000J0D01*
G01*
X15645600Y-10106660D02*
G75*
G03X15645600Y-10106660I-50000J0D01*
G01*
X15645600Y-10360660D02*
G75*
G03X15645600Y-10360660I-50000J0D01*
G01*
X15645600Y-10614660D02*
G75*
G03X15645600Y-10614660I-50000J0D01*
G01*
X15645600Y-10868660D02*
G75*
G03X15645600Y-10868660I-50000J0D01*
G01*
X15645600Y-11122660D02*
G75*
G03X15645600Y-11122660I-50000J0D01*
G01*
X15645600Y-11376660D02*
G75*
G03X15645600Y-11376660I-50000J0D01*
G01*
X15645600Y-11630660D02*
G75*
G03X15645600Y-11630660I-50000J0D01*
G01*
X15894520Y-5016500D02*
G75*
G03X15894520Y-5016500I-50000J0D01*
G01*
X15894520Y-5270500D02*
G75*
G03X15894520Y-5270500I-50000J0D01*
G01*
X15894520Y-5524500D02*
G75*
G03X15894520Y-5524500I-50000J0D01*
G01*
X15894520Y-5778500D02*
G75*
G03X15894520Y-5778500I-50000J0D01*
G01*
X15894520Y-6032500D02*
G75*
G03X15894520Y-6032500I-50000J0D01*
G01*
X15894520Y-6286500D02*
G75*
G03X15894520Y-6286500I-50000J0D01*
G01*
X15894520Y-6540500D02*
G75*
G03X15894520Y-6540500I-50000J0D01*
G01*
X15894520Y-6794500D02*
G75*
G03X15894520Y-6794500I-50000J0D01*
G01*
X15899600Y-9852660D02*
G75*
G03X15899600Y-9852660I-50000J0D01*
G01*
X15899600Y-10106660D02*
G75*
G03X15899600Y-10106660I-50000J0D01*
G01*
X15899600Y-10360660D02*
G75*
G03X15899600Y-10360660I-50000J0D01*
G01*
X15899600Y-10614660D02*
G75*
G03X15899600Y-10614660I-50000J0D01*
G01*
X15899600Y-10868660D02*
G75*
G03X15899600Y-10868660I-50000J0D01*
G01*
X15899600Y-11122660D02*
G75*
G03X15899600Y-11122660I-50000J0D01*
G01*
X15899600Y-11376660D02*
G75*
G03X15899600Y-11376660I-50000J0D01*
G01*
X15899600Y-11630660D02*
G75*
G03X15899600Y-11630660I-50000J0D01*
G01*
X16720020Y-3924300D02*
G75*
G03X16720020Y-3924300I-50000J0D01*
G01*
X16720020Y-4178300D02*
G75*
G03X16720020Y-4178300I-50000J0D01*
G01*
X16720020Y-7645400D02*
G75*
G03X16720020Y-7645400I-50000J0D01*
G01*
X16720020Y-7899400D02*
G75*
G03X16720020Y-7899400I-50000J0D01*
G01*
X16725100Y-8760460D02*
G75*
G03X16725100Y-8760460I-50000J0D01*
G01*
X16725100Y-9014460D02*
G75*
G03X16725100Y-9014460I-50000J0D01*
G01*
X16725100Y-12481560D02*
G75*
G03X16725100Y-12481560I-50000J0D01*
G01*
X16725100Y-12735560D02*
G75*
G03X16725100Y-12735560I-50000J0D01*
G01*
X16974020Y-3924300D02*
G75*
G03X16974020Y-3924300I-50000J0D01*
G01*
X16974020Y-4178300D02*
G75*
G03X16974020Y-4178300I-50000J0D01*
G01*
X16974020Y-7645400D02*
G75*
G03X16974020Y-7645400I-50000J0D01*
G01*
X16974020Y-7899400D02*
G75*
G03X16974020Y-7899400I-50000J0D01*
G01*
X16979100Y-8760460D02*
G75*
G03X16979100Y-8760460I-50000J0D01*
G01*
X16979100Y-9014460D02*
G75*
G03X16979100Y-9014460I-50000J0D01*
G01*
X16979100Y-12481560D02*
G75*
G03X16979100Y-12481560I-50000J0D01*
G01*
X16979100Y-12735560D02*
G75*
G03X16979100Y-12735560I-50000J0D01*
G01*
X17228020Y-3924300D02*
G75*
G03X17228020Y-3924300I-50000J0D01*
G01*
X17228020Y-4178300D02*
G75*
G03X17228020Y-4178300I-50000J0D01*
G01*
X17228020Y-7645400D02*
G75*
G03X17228020Y-7645400I-50000J0D01*
G01*
X17228020Y-7899400D02*
G75*
G03X17228020Y-7899400I-50000J0D01*
G01*
X17233100Y-8760460D02*
G75*
G03X17233100Y-8760460I-50000J0D01*
G01*
X17233100Y-9014460D02*
G75*
G03X17233100Y-9014460I-50000J0D01*
G01*
X17233100Y-12481560D02*
G75*
G03X17233100Y-12481560I-50000J0D01*
G01*
X17233100Y-12735560D02*
G75*
G03X17233100Y-12735560I-50000J0D01*
G01*
X17482020Y-3924300D02*
G75*
G03X17482020Y-3924300I-50000J0D01*
G01*
X17482020Y-4178300D02*
G75*
G03X17482020Y-4178300I-50000J0D01*
G01*
X17482020Y-7645400D02*
G75*
G03X17482020Y-7645400I-50000J0D01*
G01*
X17482020Y-7899400D02*
G75*
G03X17482020Y-7899400I-50000J0D01*
G01*
X17487100Y-8760460D02*
G75*
G03X17487100Y-8760460I-50000J0D01*
G01*
X17487100Y-9014460D02*
G75*
G03X17487100Y-9014460I-50000J0D01*
G01*
X17487100Y-12481560D02*
G75*
G03X17487100Y-12481560I-50000J0D01*
G01*
X17487100Y-12735560D02*
G75*
G03X17487100Y-12735560I-50000J0D01*
G01*
X17736020Y-3924300D02*
G75*
G03X17736020Y-3924300I-50000J0D01*
G01*
X17736020Y-4178300D02*
G75*
G03X17736020Y-4178300I-50000J0D01*
G01*
X17736020Y-7645400D02*
G75*
G03X17736020Y-7645400I-50000J0D01*
G01*
X17736020Y-7899400D02*
G75*
G03X17736020Y-7899400I-50000J0D01*
G01*
X17741100Y-8760460D02*
G75*
G03X17741100Y-8760460I-50000J0D01*
G01*
X17741100Y-9014460D02*
G75*
G03X17741100Y-9014460I-50000J0D01*
G01*
X17741100Y-12481560D02*
G75*
G03X17741100Y-12481560I-50000J0D01*
G01*
X17741100Y-12735560D02*
G75*
G03X17741100Y-12735560I-50000J0D01*
G01*
X17990020Y-3924300D02*
G75*
G03X17990020Y-3924300I-50000J0D01*
G01*
X17990020Y-4178300D02*
G75*
G03X17990020Y-4178300I-50000J0D01*
G01*
X17990020Y-7645400D02*
G75*
G03X17990020Y-7645400I-50000J0D01*
G01*
X17990020Y-7899400D02*
G75*
G03X17990020Y-7899400I-50000J0D01*
G01*
X17995100Y-8760460D02*
G75*
G03X17995100Y-8760460I-50000J0D01*
G01*
X17995100Y-9014460D02*
G75*
G03X17995100Y-9014460I-50000J0D01*
G01*
X17995100Y-12481560D02*
G75*
G03X17995100Y-12481560I-50000J0D01*
G01*
X17995100Y-12735560D02*
G75*
G03X17995100Y-12735560I-50000J0D01*
G01*
X18244020Y-3924300D02*
G75*
G03X18244020Y-3924300I-50000J0D01*
G01*
X18244020Y-4178300D02*
G75*
G03X18244020Y-4178300I-50000J0D01*
G01*
X18244020Y-7645400D02*
G75*
G03X18244020Y-7645400I-50000J0D01*
G01*
X18244020Y-7899400D02*
G75*
G03X18244020Y-7899400I-50000J0D01*
G01*
X18249100Y-8760460D02*
G75*
G03X18249100Y-8760460I-50000J0D01*
G01*
X18249100Y-9014460D02*
G75*
G03X18249100Y-9014460I-50000J0D01*
G01*
X18249100Y-12481560D02*
G75*
G03X18249100Y-12481560I-50000J0D01*
G01*
X18249100Y-12735560D02*
G75*
G03X18249100Y-12735560I-50000J0D01*
G01*
X18498020Y-3924300D02*
G75*
G03X18498020Y-3924300I-50000J0D01*
G01*
X18498020Y-4178300D02*
G75*
G03X18498020Y-4178300I-50000J0D01*
G01*
X18498020Y-7645400D02*
G75*
G03X18498020Y-7645400I-50000J0D01*
G01*
X18498020Y-7899400D02*
G75*
G03X18498020Y-7899400I-50000J0D01*
G01*
X18503100Y-8760460D02*
G75*
G03X18503100Y-8760460I-50000J0D01*
G01*
X18503100Y-9014460D02*
G75*
G03X18503100Y-9014460I-50000J0D01*
G01*
X18503100Y-12481560D02*
G75*
G03X18503100Y-12481560I-50000J0D01*
G01*
X18503100Y-12735560D02*
G75*
G03X18503100Y-12735560I-50000J0D01*
G01*
X18980620Y-5016500D02*
G75*
G03X18980620Y-5016500I-50000J0D01*
G01*
X18980620Y-5270500D02*
G75*
G03X18980620Y-5270500I-50000J0D01*
G01*
X18980620Y-5524500D02*
G75*
G03X18980620Y-5524500I-50000J0D01*
G01*
X18980620Y-5778500D02*
G75*
G03X18980620Y-5778500I-50000J0D01*
G01*
X18980620Y-6032500D02*
G75*
G03X18980620Y-6032500I-50000J0D01*
G01*
X18980620Y-6286500D02*
G75*
G03X18980620Y-6286500I-50000J0D01*
G01*
X18980620Y-6540500D02*
G75*
G03X18980620Y-6540500I-50000J0D01*
G01*
X18980620Y-6794500D02*
G75*
G03X18980620Y-6794500I-50000J0D01*
G01*
X18985700Y-9852660D02*
G75*
G03X18985700Y-9852660I-50000J0D01*
G01*
X18985700Y-10106660D02*
G75*
G03X18985700Y-10106660I-50000J0D01*
G01*
X18985700Y-10360660D02*
G75*
G03X18985700Y-10360660I-50000J0D01*
G01*
X18985700Y-10614660D02*
G75*
G03X18985700Y-10614660I-50000J0D01*
G01*
X18985700Y-10868660D02*
G75*
G03X18985700Y-10868660I-50000J0D01*
G01*
X18985700Y-11122660D02*
G75*
G03X18985700Y-11122660I-50000J0D01*
G01*
X18985700Y-11376660D02*
G75*
G03X18985700Y-11376660I-50000J0D01*
G01*
X18985700Y-11630660D02*
G75*
G03X18985700Y-11630660I-50000J0D01*
G01*
X19234620Y-5016500D02*
G75*
G03X19234620Y-5016500I-50000J0D01*
G01*
X19234620Y-5270500D02*
G75*
G03X19234620Y-5270500I-50000J0D01*
G01*
X19234620Y-5524500D02*
G75*
G03X19234620Y-5524500I-50000J0D01*
G01*
X19234620Y-5778500D02*
G75*
G03X19234620Y-5778500I-50000J0D01*
G01*
X19234620Y-6032500D02*
G75*
G03X19234620Y-6032500I-50000J0D01*
G01*
X19234620Y-6286500D02*
G75*
G03X19234620Y-6286500I-50000J0D01*
G01*
X19234620Y-6540500D02*
G75*
G03X19234620Y-6540500I-50000J0D01*
G01*
X19234620Y-6794500D02*
G75*
G03X19234620Y-6794500I-50000J0D01*
G01*
X19239700Y-9852660D02*
G75*
G03X19239700Y-9852660I-50000J0D01*
G01*
X19239700Y-10106660D02*
G75*
G03X19239700Y-10106660I-50000J0D01*
G01*
X19239700Y-10360660D02*
G75*
G03X19239700Y-10360660I-50000J0D01*
G01*
X19239700Y-10614660D02*
G75*
G03X19239700Y-10614660I-50000J0D01*
G01*
X19239700Y-10868660D02*
G75*
G03X19239700Y-10868660I-50000J0D01*
G01*
X19239700Y-11122660D02*
G75*
G03X19239700Y-11122660I-50000J0D01*
G01*
X19239700Y-11376660D02*
G75*
G03X19239700Y-11376660I-50000J0D01*
G01*
X19239700Y-11630660D02*
G75*
G03X19239700Y-11630660I-50000J0D01*
G01*
D13*
X11154059Y-13558144D02*
X11154059Y-13258144D01*
X11225487Y-13258144D01*
X11268344Y-13272430D01*
X11296916Y-13301001D01*
X11311201Y-13329573D01*
X11325487Y-13386716D01*
X11325487Y-13429573D01*
X11311201Y-13486716D01*
X11296916Y-13515287D01*
X11268344Y-13543859D01*
X11225487Y-13558144D01*
X11154059Y-13558144D01*
X11454058Y-13558144D02*
X11454058Y-13358144D01*
X11454058Y-13415287D02*
X11468344Y-13386716D01*
X11482630Y-13372430D01*
X11511201Y-13358144D01*
X11539773Y-13358144D01*
X11639773Y-13558144D02*
X11639773Y-13358144D01*
X11639773Y-13258144D02*
X11625487Y-13272430D01*
X11639773Y-13286716D01*
X11654058Y-13272430D01*
X11639773Y-13258144D01*
X11639773Y-13286716D01*
X11825487Y-13558144D02*
X11796916Y-13543859D01*
X11782630Y-13515287D01*
X11782630Y-13258144D01*
X11982630Y-13558144D02*
X11954058Y-13543859D01*
X11939773Y-13515287D01*
X11939773Y-13258144D01*
X12325487Y-13558144D02*
X12325487Y-13258144D01*
X12425487Y-13472430D01*
X12525487Y-13258144D01*
X12525487Y-13558144D01*
X12796916Y-13558144D02*
X12796916Y-13401001D01*
X12782630Y-13372430D01*
X12754058Y-13358144D01*
X12696916Y-13358144D01*
X12668344Y-13372430D01*
X12796916Y-13543859D02*
X12768344Y-13558144D01*
X12696916Y-13558144D01*
X12668344Y-13543859D01*
X12654058Y-13515287D01*
X12654058Y-13486716D01*
X12668344Y-13458144D01*
X12696916Y-13443859D01*
X12768344Y-13443859D01*
X12796916Y-13429573D01*
X12939773Y-13358144D02*
X12939773Y-13658144D01*
X12939773Y-13372430D02*
X12968344Y-13358144D01*
X13025487Y-13358144D01*
X13054058Y-13372430D01*
X13068344Y-13386716D01*
X13082630Y-13415287D01*
X13082630Y-13501001D01*
X13068344Y-13529573D01*
X13054058Y-13543859D01*
X13025487Y-13558144D01*
X12968344Y-13558144D01*
X12939773Y-13543859D01*
X13211201Y-13529573D02*
X13225487Y-13543859D01*
X13211201Y-13558144D01*
X13196916Y-13543859D01*
X13211201Y-13529573D01*
X13211201Y-13558144D01*
X13211201Y-13372430D02*
X13225487Y-13386716D01*
X13211201Y-13401001D01*
X13196916Y-13386716D01*
X13211201Y-13372430D01*
X13211201Y-13401001D01*
X10822630Y-14022430D02*
X10882630Y-14082430D01*
X10882630Y-14022430D02*
X10822630Y-14082430D01*
X11211201Y-13888144D02*
X11239773Y-13888144D01*
X11268344Y-13902430D01*
X11282630Y-13916716D01*
X11296916Y-13945287D01*
X11311201Y-14002430D01*
X11311201Y-14073859D01*
X11296916Y-14131001D01*
X11282630Y-14159573D01*
X11268344Y-14173859D01*
X11239773Y-14188144D01*
X11211201Y-14188144D01*
X11182630Y-14173859D01*
X11168344Y-14159573D01*
X11154059Y-14131001D01*
X11139773Y-14073859D01*
X11139773Y-14002430D01*
X11154059Y-13945287D01*
X11168344Y-13916716D01*
X11182630Y-13902430D01*
X11211201Y-13888144D01*
X11439773Y-14159573D02*
X11454058Y-14173859D01*
X11439773Y-14188144D01*
X11425487Y-14173859D01*
X11439773Y-14159573D01*
X11439773Y-14188144D01*
X11711201Y-13888144D02*
X11654058Y-13888144D01*
X11625487Y-13902430D01*
X11611201Y-13916716D01*
X11582630Y-13959573D01*
X11568344Y-14016716D01*
X11568344Y-14131001D01*
X11582630Y-14159573D01*
X11596916Y-14173859D01*
X11625487Y-14188144D01*
X11682630Y-14188144D01*
X11711201Y-14173859D01*
X11725487Y-14159573D01*
X11739773Y-14131001D01*
X11739773Y-14059573D01*
X11725487Y-14031001D01*
X11711201Y-14016716D01*
X11682630Y-14002430D01*
X11625487Y-14002430D01*
X11596916Y-14016716D01*
X11582630Y-14031001D01*
X11568344Y-14059573D01*
X11925487Y-13888144D02*
X11954058Y-13888144D01*
X11982630Y-13902430D01*
X11996916Y-13916716D01*
X12011201Y-13945287D01*
X12025487Y-14002430D01*
X12025487Y-14073859D01*
X12011201Y-14131001D01*
X11996916Y-14159573D01*
X11982630Y-14173859D01*
X11954058Y-14188144D01*
X11925487Y-14188144D01*
X11896916Y-14173859D01*
X11882630Y-14159573D01*
X11868344Y-14131001D01*
X11854058Y-14073859D01*
X11854058Y-14002430D01*
X11868344Y-13945287D01*
X11882630Y-13916716D01*
X11896916Y-13902430D01*
X11925487Y-13888144D01*
X12154058Y-14188144D02*
X12154058Y-13988144D01*
X12154058Y-14016716D02*
X12168344Y-14002430D01*
X12196916Y-13988144D01*
X12239773Y-13988144D01*
X12268344Y-14002430D01*
X12282630Y-14031001D01*
X12282630Y-14188144D01*
X12282630Y-14031001D02*
X12296916Y-14002430D01*
X12325487Y-13988144D01*
X12368344Y-13988144D01*
X12396916Y-14002430D01*
X12411201Y-14031001D01*
X12411201Y-14188144D01*
X12554058Y-14188144D02*
X12554058Y-13988144D01*
X12554058Y-14016716D02*
X12568344Y-14002430D01*
X12596916Y-13988144D01*
X12639773Y-13988144D01*
X12668344Y-14002430D01*
X12682630Y-14031001D01*
X12682630Y-14188144D01*
X12682630Y-14031001D02*
X12696916Y-14002430D01*
X12725487Y-13988144D01*
X12768344Y-13988144D01*
X12796916Y-14002430D01*
X12811201Y-14031001D01*
X12811201Y-14188144D01*
X13396916Y-13873859D02*
X13139773Y-14259573D01*
X13782630Y-13888144D02*
X13811201Y-13888144D01*
X13839773Y-13902430D01*
X13854058Y-13916716D01*
X13868344Y-13945287D01*
X13882630Y-14002430D01*
X13882630Y-14073859D01*
X13868344Y-14131001D01*
X13854058Y-14159573D01*
X13839773Y-14173859D01*
X13811201Y-14188144D01*
X13782630Y-14188144D01*
X13754058Y-14173859D01*
X13739773Y-14159573D01*
X13725487Y-14131001D01*
X13711201Y-14073859D01*
X13711201Y-14002430D01*
X13725487Y-13945287D01*
X13739773Y-13916716D01*
X13754058Y-13902430D01*
X13782630Y-13888144D01*
X14011201Y-14159573D02*
X14025487Y-14173859D01*
X14011201Y-14188144D01*
X13996916Y-14173859D01*
X14011201Y-14159573D01*
X14011201Y-14188144D01*
X14211201Y-13888144D02*
X14239773Y-13888144D01*
X14268344Y-13902430D01*
X14282630Y-13916716D01*
X14296915Y-13945287D01*
X14311201Y-14002430D01*
X14311201Y-14073859D01*
X14296915Y-14131001D01*
X14282630Y-14159573D01*
X14268344Y-14173859D01*
X14239773Y-14188144D01*
X14211201Y-14188144D01*
X14182630Y-14173859D01*
X14168344Y-14159573D01*
X14154058Y-14131001D01*
X14139773Y-14073859D01*
X14139773Y-14002430D01*
X14154058Y-13945287D01*
X14168344Y-13916716D01*
X14182630Y-13902430D01*
X14211201Y-13888144D01*
X14425487Y-13916716D02*
X14439773Y-13902430D01*
X14468344Y-13888144D01*
X14539773Y-13888144D01*
X14568344Y-13902430D01*
X14582630Y-13916716D01*
X14596915Y-13945287D01*
X14596915Y-13973859D01*
X14582630Y-14016716D01*
X14411201Y-14188144D01*
X14596915Y-14188144D01*
X14854058Y-13988144D02*
X14854058Y-14188144D01*
X14782630Y-13873859D02*
X14711201Y-14088144D01*
X14896915Y-14088144D01*
X14996916Y-13888144D02*
X14996916Y-13945287D01*
X15111201Y-13888144D02*
X15111201Y-13945287D01*
X15554058Y-14302430D02*
X15539773Y-14288144D01*
X15511201Y-14245287D01*
X15496915Y-14216716D01*
X15482630Y-14173859D01*
X15468344Y-14102430D01*
X15468344Y-14045287D01*
X15482630Y-13973859D01*
X15496915Y-13931001D01*
X15511201Y-13902430D01*
X15539773Y-13859573D01*
X15554058Y-13845287D01*
X15811201Y-13888144D02*
X15668344Y-13888144D01*
X15654058Y-14031001D01*
X15668344Y-14016716D01*
X15696915Y-14002430D01*
X15768344Y-14002430D01*
X15796915Y-14016716D01*
X15811201Y-14031001D01*
X15825487Y-14059573D01*
X15825487Y-14131001D01*
X15811201Y-14159573D01*
X15796915Y-14173859D01*
X15768344Y-14188144D01*
X15696915Y-14188144D01*
X15668344Y-14173859D01*
X15654058Y-14159573D01*
X16082630Y-13888144D02*
X16025487Y-13888144D01*
X15996915Y-13902430D01*
X15982630Y-13916716D01*
X15954058Y-13959573D01*
X15939773Y-14016716D01*
X15939773Y-14131001D01*
X15954058Y-14159573D01*
X15968344Y-14173859D01*
X15996915Y-14188144D01*
X16054058Y-14188144D01*
X16082630Y-14173859D01*
X16096915Y-14159573D01*
X16111201Y-14131001D01*
X16111201Y-14059573D01*
X16096915Y-14031001D01*
X16082630Y-14016716D01*
X16054058Y-14002430D01*
X15996915Y-14002430D01*
X15968344Y-14016716D01*
X15954058Y-14031001D01*
X15939773Y-14059573D01*
X16468344Y-14188144D02*
X16468344Y-13888144D01*
X16596915Y-14188144D02*
X16596915Y-14031001D01*
X16582630Y-14002430D01*
X16554058Y-13988144D01*
X16511201Y-13988144D01*
X16482630Y-14002430D01*
X16468344Y-14016716D01*
X16782630Y-14188144D02*
X16754058Y-14173859D01*
X16739773Y-14159573D01*
X16725487Y-14131001D01*
X16725487Y-14045287D01*
X16739773Y-14016716D01*
X16754058Y-14002430D01*
X16782630Y-13988144D01*
X16825487Y-13988144D01*
X16854058Y-14002430D01*
X16868344Y-14016716D01*
X16882630Y-14045287D01*
X16882630Y-14131001D01*
X16868344Y-14159573D01*
X16854058Y-14173859D01*
X16825487Y-14188144D01*
X16782630Y-14188144D01*
X17054058Y-14188144D02*
X17025487Y-14173859D01*
X17011201Y-14145287D01*
X17011201Y-13888144D01*
X17282630Y-14173859D02*
X17254059Y-14188144D01*
X17196916Y-14188144D01*
X17168344Y-14173859D01*
X17154059Y-14145287D01*
X17154059Y-14031001D01*
X17168344Y-14002430D01*
X17196916Y-13988144D01*
X17254059Y-13988144D01*
X17282630Y-14002430D01*
X17296916Y-14031001D01*
X17296916Y-14059573D01*
X17154059Y-14088144D01*
X17411201Y-14173859D02*
X17439773Y-14188144D01*
X17496916Y-14188144D01*
X17525487Y-14173859D01*
X17539773Y-14145287D01*
X17539773Y-14131001D01*
X17525487Y-14102430D01*
X17496916Y-14088144D01*
X17454059Y-14088144D01*
X17425487Y-14073859D01*
X17411201Y-14045287D01*
X17411201Y-14031001D01*
X17425487Y-14002430D01*
X17454059Y-13988144D01*
X17496916Y-13988144D01*
X17525487Y-14002430D01*
X17639773Y-14302430D02*
X17654059Y-14288144D01*
X17682630Y-14245287D01*
X17696916Y-14216716D01*
X17711201Y-14173859D01*
X17725487Y-14102430D01*
X17725487Y-14045287D01*
X17711201Y-13973859D01*
X17696916Y-13931001D01*
X17682630Y-13902430D01*
X17654059Y-13859573D01*
X17639773Y-13845287D01*
X10882630Y-14448430D02*
G75*
G03X10882630Y-14448430I-50000J0D01*
G01*
X11311201Y-14584144D02*
X11139773Y-14584144D01*
X11225487Y-14584144D02*
X11225487Y-14284144D01*
X11196916Y-14327001D01*
X11168344Y-14355573D01*
X11139773Y-14369859D01*
X11439773Y-14555573D02*
X11454058Y-14569859D01*
X11439773Y-14584144D01*
X11425487Y-14569859D01*
X11439773Y-14555573D01*
X11439773Y-14584144D01*
X11639773Y-14284144D02*
X11668344Y-14284144D01*
X11696916Y-14298430D01*
X11711201Y-14312716D01*
X11725487Y-14341287D01*
X11739773Y-14398430D01*
X11739773Y-14469859D01*
X11725487Y-14527001D01*
X11711201Y-14555573D01*
X11696916Y-14569859D01*
X11668344Y-14584144D01*
X11639773Y-14584144D01*
X11611201Y-14569859D01*
X11596916Y-14555573D01*
X11582630Y-14527001D01*
X11568344Y-14469859D01*
X11568344Y-14398430D01*
X11582630Y-14341287D01*
X11596916Y-14312716D01*
X11611201Y-14298430D01*
X11639773Y-14284144D01*
X11925487Y-14284144D02*
X11954058Y-14284144D01*
X11982630Y-14298430D01*
X11996916Y-14312716D01*
X12011201Y-14341287D01*
X12025487Y-14398430D01*
X12025487Y-14469859D01*
X12011201Y-14527001D01*
X11996916Y-14555573D01*
X11982630Y-14569859D01*
X11954058Y-14584144D01*
X11925487Y-14584144D01*
X11896916Y-14569859D01*
X11882630Y-14555573D01*
X11868344Y-14527001D01*
X11854058Y-14469859D01*
X11854058Y-14398430D01*
X11868344Y-14341287D01*
X11882630Y-14312716D01*
X11896916Y-14298430D01*
X11925487Y-14284144D01*
X12154058Y-14584144D02*
X12154058Y-14384144D01*
X12154058Y-14412716D02*
X12168344Y-14398430D01*
X12196916Y-14384144D01*
X12239773Y-14384144D01*
X12268344Y-14398430D01*
X12282630Y-14427001D01*
X12282630Y-14584144D01*
X12282630Y-14427001D02*
X12296916Y-14398430D01*
X12325487Y-14384144D01*
X12368344Y-14384144D01*
X12396916Y-14398430D01*
X12411201Y-14427001D01*
X12411201Y-14584144D01*
X12554058Y-14584144D02*
X12554058Y-14384144D01*
X12554058Y-14412716D02*
X12568344Y-14398430D01*
X12596916Y-14384144D01*
X12639773Y-14384144D01*
X12668344Y-14398430D01*
X12682630Y-14427001D01*
X12682630Y-14584144D01*
X12682630Y-14427001D02*
X12696916Y-14398430D01*
X12725487Y-14384144D01*
X12768344Y-14384144D01*
X12796916Y-14398430D01*
X12811201Y-14427001D01*
X12811201Y-14584144D01*
X13396916Y-14269859D02*
X13139773Y-14655573D01*
X13782630Y-14284144D02*
X13811201Y-14284144D01*
X13839773Y-14298430D01*
X13854058Y-14312716D01*
X13868344Y-14341287D01*
X13882630Y-14398430D01*
X13882630Y-14469859D01*
X13868344Y-14527001D01*
X13854058Y-14555573D01*
X13839773Y-14569859D01*
X13811201Y-14584144D01*
X13782630Y-14584144D01*
X13754058Y-14569859D01*
X13739773Y-14555573D01*
X13725487Y-14527001D01*
X13711201Y-14469859D01*
X13711201Y-14398430D01*
X13725487Y-14341287D01*
X13739773Y-14312716D01*
X13754058Y-14298430D01*
X13782630Y-14284144D01*
X14011201Y-14555573D02*
X14025487Y-14569859D01*
X14011201Y-14584144D01*
X13996916Y-14569859D01*
X14011201Y-14555573D01*
X14011201Y-14584144D01*
X14211201Y-14284144D02*
X14239773Y-14284144D01*
X14268344Y-14298430D01*
X14282630Y-14312716D01*
X14296915Y-14341287D01*
X14311201Y-14398430D01*
X14311201Y-14469859D01*
X14296915Y-14527001D01*
X14282630Y-14555573D01*
X14268344Y-14569859D01*
X14239773Y-14584144D01*
X14211201Y-14584144D01*
X14182630Y-14569859D01*
X14168344Y-14555573D01*
X14154058Y-14527001D01*
X14139773Y-14469859D01*
X14139773Y-14398430D01*
X14154058Y-14341287D01*
X14168344Y-14312716D01*
X14182630Y-14298430D01*
X14211201Y-14284144D01*
X14411201Y-14284144D02*
X14596915Y-14284144D01*
X14496915Y-14398430D01*
X14539773Y-14398430D01*
X14568344Y-14412716D01*
X14582630Y-14427001D01*
X14596915Y-14455573D01*
X14596915Y-14527001D01*
X14582630Y-14555573D01*
X14568344Y-14569859D01*
X14539773Y-14584144D01*
X14454058Y-14584144D01*
X14425487Y-14569859D01*
X14411201Y-14555573D01*
X14739773Y-14584144D02*
X14796915Y-14584144D01*
X14825487Y-14569859D01*
X14839773Y-14555573D01*
X14868344Y-14512716D01*
X14882630Y-14455573D01*
X14882630Y-14341287D01*
X14868344Y-14312716D01*
X14854058Y-14298430D01*
X14825487Y-14284144D01*
X14768344Y-14284144D01*
X14739773Y-14298430D01*
X14725487Y-14312716D01*
X14711201Y-14341287D01*
X14711201Y-14412716D01*
X14725487Y-14441287D01*
X14739773Y-14455573D01*
X14768344Y-14469859D01*
X14825487Y-14469859D01*
X14854058Y-14455573D01*
X14868344Y-14441287D01*
X14882630Y-14412716D01*
X14996916Y-14284144D02*
X14996916Y-14341287D01*
X15111201Y-14284144D02*
X15111201Y-14341287D01*
X15554058Y-14698430D02*
X15539773Y-14684144D01*
X15511201Y-14641287D01*
X15496915Y-14612716D01*
X15482630Y-14569859D01*
X15468344Y-14498430D01*
X15468344Y-14441287D01*
X15482630Y-14369859D01*
X15496915Y-14327001D01*
X15511201Y-14298430D01*
X15539773Y-14255573D01*
X15554058Y-14241287D01*
X15654058Y-14312716D02*
X15668344Y-14298430D01*
X15696915Y-14284144D01*
X15768344Y-14284144D01*
X15796915Y-14298430D01*
X15811201Y-14312716D01*
X15825487Y-14341287D01*
X15825487Y-14369859D01*
X15811201Y-14412716D01*
X15639773Y-14584144D01*
X15825487Y-14584144D01*
X16096915Y-14284144D02*
X15954058Y-14284144D01*
X15939773Y-14427001D01*
X15954058Y-14412716D01*
X15982630Y-14398430D01*
X16054058Y-14398430D01*
X16082630Y-14412716D01*
X16096915Y-14427001D01*
X16111201Y-14455573D01*
X16111201Y-14527001D01*
X16096915Y-14555573D01*
X16082630Y-14569859D01*
X16054058Y-14584144D01*
X15982630Y-14584144D01*
X15954058Y-14569859D01*
X15939773Y-14555573D01*
X16368344Y-14284144D02*
X16311201Y-14284144D01*
X16282630Y-14298430D01*
X16268344Y-14312716D01*
X16239773Y-14355573D01*
X16225487Y-14412716D01*
X16225487Y-14527001D01*
X16239773Y-14555573D01*
X16254058Y-14569859D01*
X16282630Y-14584144D01*
X16339773Y-14584144D01*
X16368344Y-14569859D01*
X16382630Y-14555573D01*
X16396915Y-14527001D01*
X16396915Y-14455573D01*
X16382630Y-14427001D01*
X16368344Y-14412716D01*
X16339773Y-14398430D01*
X16282630Y-14398430D01*
X16254058Y-14412716D01*
X16239773Y-14427001D01*
X16225487Y-14455573D01*
X16754058Y-14584144D02*
X16754058Y-14284144D01*
X16882630Y-14584144D02*
X16882630Y-14427001D01*
X16868344Y-14398430D01*
X16839773Y-14384144D01*
X16796916Y-14384144D01*
X16768344Y-14398430D01*
X16754058Y-14412716D01*
X17068344Y-14584144D02*
X17039773Y-14569859D01*
X17025487Y-14555573D01*
X17011201Y-14527001D01*
X17011201Y-14441287D01*
X17025487Y-14412716D01*
X17039773Y-14398430D01*
X17068344Y-14384144D01*
X17111201Y-14384144D01*
X17139773Y-14398430D01*
X17154058Y-14412716D01*
X17168344Y-14441287D01*
X17168344Y-14527001D01*
X17154058Y-14555573D01*
X17139773Y-14569859D01*
X17111201Y-14584144D01*
X17068344Y-14584144D01*
X17339773Y-14584144D02*
X17311201Y-14569859D01*
X17296916Y-14541287D01*
X17296916Y-14284144D01*
X17568344Y-14569859D02*
X17539773Y-14584144D01*
X17482630Y-14584144D01*
X17454059Y-14569859D01*
X17439773Y-14541287D01*
X17439773Y-14427001D01*
X17454059Y-14398430D01*
X17482630Y-14384144D01*
X17539773Y-14384144D01*
X17568344Y-14398430D01*
X17582630Y-14427001D01*
X17582630Y-14455573D01*
X17439773Y-14484144D01*
X17696916Y-14569859D02*
X17725487Y-14584144D01*
X17782630Y-14584144D01*
X17811201Y-14569859D01*
X17825487Y-14541287D01*
X17825487Y-14527001D01*
X17811201Y-14498430D01*
X17782630Y-14484144D01*
X17739773Y-14484144D01*
X17711201Y-14469859D01*
X17696916Y-14441287D01*
X17696916Y-14427001D01*
X17711201Y-14398430D01*
X17739773Y-14384144D01*
X17782630Y-14384144D01*
X17811201Y-14398430D01*
X17925487Y-14698430D02*
X17939773Y-14684144D01*
X17968344Y-14641287D01*
X17982630Y-14612716D01*
X17996916Y-14569859D01*
X18011201Y-14498430D01*
X18011201Y-14441287D01*
X17996916Y-14369859D01*
X17982630Y-14327001D01*
X17968344Y-14298430D01*
X17939773Y-14255573D01*
X17925487Y-14241287D01*
M02*
