G04 #@! TF.GenerationSoftware,KiCad,Pcbnew,5.0.2+dfsg1-1~bpo9+1*
G04 #@! TF.CreationDate,2019-06-29T23:35:38+02:00*
G04 #@! TF.ProjectId,PCB_I2C,5043425f-4932-4432-9e6b-696361645f70,rev?*
G04 #@! TF.SameCoordinates,Original*
G04 #@! TF.FileFunction,Legend,Bot*
G04 #@! TF.FilePolarity,Positive*
%FSLAX46Y46*%
G04 Gerber Fmt 4.6, Leading zero omitted, Abs format (unit mm)*
G04 Created by KiCad (PCBNEW 5.0.2+dfsg1-1~bpo9+1) date sam. 29 juin 2019 23:35:38 CEST*
%MOMM*%
%LPD*%
G01*
G04 APERTURE LIST*
%ADD10C,0.300000*%
%ADD11C,0.250000*%
%ADD12C,0.120000*%
%ADD13C,0.150000*%
G04 APERTURE END LIST*
D10*
X168659142Y-57828571D02*
X168659142Y-56328571D01*
X168016285Y-56471428D02*
X167944857Y-56400000D01*
X167802000Y-56328571D01*
X167444857Y-56328571D01*
X167302000Y-56400000D01*
X167230571Y-56471428D01*
X167159142Y-56614285D01*
X167159142Y-56757142D01*
X167230571Y-56971428D01*
X168087714Y-57828571D01*
X167159142Y-57828571D01*
X165659142Y-57685714D02*
X165730571Y-57757142D01*
X165944857Y-57828571D01*
X166087714Y-57828571D01*
X166302000Y-57757142D01*
X166444857Y-57614285D01*
X166516285Y-57471428D01*
X166587714Y-57185714D01*
X166587714Y-56971428D01*
X166516285Y-56685714D01*
X166444857Y-56542857D01*
X166302000Y-56400000D01*
X166087714Y-56328571D01*
X165944857Y-56328571D01*
X165730571Y-56400000D01*
X165659142Y-56471428D01*
X165016285Y-57257142D02*
X163873428Y-57257142D01*
X163159142Y-57828571D02*
X163159142Y-56328571D01*
X162659142Y-57400000D01*
X162159142Y-56328571D01*
X162159142Y-57828571D01*
X161516285Y-57400000D02*
X160802000Y-57400000D01*
X161659142Y-57828571D02*
X161159142Y-56328571D01*
X160659142Y-57828571D01*
X160230571Y-57757142D02*
X160016285Y-57828571D01*
X159659142Y-57828571D01*
X159516285Y-57757142D01*
X159444857Y-57685714D01*
X159373428Y-57542857D01*
X159373428Y-57400000D01*
X159444857Y-57257142D01*
X159516285Y-57185714D01*
X159659142Y-57114285D01*
X159944857Y-57042857D01*
X160087714Y-56971428D01*
X160159142Y-56900000D01*
X160230571Y-56757142D01*
X160230571Y-56614285D01*
X160159142Y-56471428D01*
X160087714Y-56400000D01*
X159944857Y-56328571D01*
X159587714Y-56328571D01*
X159373428Y-56400000D01*
X158944857Y-56328571D02*
X158087714Y-56328571D01*
X158516285Y-57828571D02*
X158516285Y-56328571D01*
X157587714Y-57042857D02*
X157087714Y-57042857D01*
X156873428Y-57828571D02*
X157587714Y-57828571D01*
X157587714Y-56328571D01*
X156873428Y-56328571D01*
X155373428Y-57828571D02*
X155873428Y-57114285D01*
X156230571Y-57828571D02*
X156230571Y-56328571D01*
X155659142Y-56328571D01*
X155516285Y-56400000D01*
X155444857Y-56471428D01*
X155373428Y-56614285D01*
X155373428Y-56828571D01*
X155444857Y-56971428D01*
X155516285Y-57042857D01*
X155659142Y-57114285D01*
X156230571Y-57114285D01*
X154999142Y-61892571D02*
X154999142Y-60392571D01*
X154356285Y-60535428D02*
X154284857Y-60464000D01*
X154142000Y-60392571D01*
X153784857Y-60392571D01*
X153642000Y-60464000D01*
X153570571Y-60535428D01*
X153499142Y-60678285D01*
X153499142Y-60821142D01*
X153570571Y-61035428D01*
X154427714Y-61892571D01*
X153499142Y-61892571D01*
X151999142Y-61749714D02*
X152070571Y-61821142D01*
X152284857Y-61892571D01*
X152427714Y-61892571D01*
X152642000Y-61821142D01*
X152784857Y-61678285D01*
X152856285Y-61535428D01*
X152927714Y-61249714D01*
X152927714Y-61035428D01*
X152856285Y-60749714D01*
X152784857Y-60606857D01*
X152642000Y-60464000D01*
X152427714Y-60392571D01*
X152284857Y-60392571D01*
X152070571Y-60464000D01*
X151999142Y-60535428D01*
X151356285Y-61321142D02*
X150213428Y-61321142D01*
X149642000Y-60392571D02*
X148713428Y-60392571D01*
X149213428Y-60964000D01*
X148999142Y-60964000D01*
X148856285Y-61035428D01*
X148784857Y-61106857D01*
X148713428Y-61249714D01*
X148713428Y-61606857D01*
X148784857Y-61749714D01*
X148856285Y-61821142D01*
X148999142Y-61892571D01*
X149427714Y-61892571D01*
X149570571Y-61821142D01*
X149642000Y-61749714D01*
X154999142Y-68750571D02*
X154999142Y-67250571D01*
X154356285Y-67393428D02*
X154284857Y-67322000D01*
X154142000Y-67250571D01*
X153784857Y-67250571D01*
X153642000Y-67322000D01*
X153570571Y-67393428D01*
X153499142Y-67536285D01*
X153499142Y-67679142D01*
X153570571Y-67893428D01*
X154427714Y-68750571D01*
X153499142Y-68750571D01*
X151999142Y-68607714D02*
X152070571Y-68679142D01*
X152284857Y-68750571D01*
X152427714Y-68750571D01*
X152642000Y-68679142D01*
X152784857Y-68536285D01*
X152856285Y-68393428D01*
X152927714Y-68107714D01*
X152927714Y-67893428D01*
X152856285Y-67607714D01*
X152784857Y-67464857D01*
X152642000Y-67322000D01*
X152427714Y-67250571D01*
X152284857Y-67250571D01*
X152070571Y-67322000D01*
X151999142Y-67393428D01*
X151356285Y-68179142D02*
X150213428Y-68179142D01*
X149570571Y-67393428D02*
X149499142Y-67322000D01*
X149356285Y-67250571D01*
X148999142Y-67250571D01*
X148856285Y-67322000D01*
X148784857Y-67393428D01*
X148713428Y-67536285D01*
X148713428Y-67679142D01*
X148784857Y-67893428D01*
X149642000Y-68750571D01*
X148713428Y-68750571D01*
X154999142Y-75608571D02*
X154999142Y-74108571D01*
X154356285Y-74251428D02*
X154284857Y-74180000D01*
X154142000Y-74108571D01*
X153784857Y-74108571D01*
X153642000Y-74180000D01*
X153570571Y-74251428D01*
X153499142Y-74394285D01*
X153499142Y-74537142D01*
X153570571Y-74751428D01*
X154427714Y-75608571D01*
X153499142Y-75608571D01*
X151999142Y-75465714D02*
X152070571Y-75537142D01*
X152284857Y-75608571D01*
X152427714Y-75608571D01*
X152642000Y-75537142D01*
X152784857Y-75394285D01*
X152856285Y-75251428D01*
X152927714Y-74965714D01*
X152927714Y-74751428D01*
X152856285Y-74465714D01*
X152784857Y-74322857D01*
X152642000Y-74180000D01*
X152427714Y-74108571D01*
X152284857Y-74108571D01*
X152070571Y-74180000D01*
X151999142Y-74251428D01*
X151356285Y-75037142D02*
X150213428Y-75037142D01*
X148713428Y-75608571D02*
X149570571Y-75608571D01*
X149142000Y-75608571D02*
X149142000Y-74108571D01*
X149284857Y-74322857D01*
X149427714Y-74465714D01*
X149570571Y-74537142D01*
X154999142Y-82466571D02*
X154999142Y-80966571D01*
X154356285Y-81109428D02*
X154284857Y-81038000D01*
X154142000Y-80966571D01*
X153784857Y-80966571D01*
X153642000Y-81038000D01*
X153570571Y-81109428D01*
X153499142Y-81252285D01*
X153499142Y-81395142D01*
X153570571Y-81609428D01*
X154427714Y-82466571D01*
X153499142Y-82466571D01*
X151999142Y-82323714D02*
X152070571Y-82395142D01*
X152284857Y-82466571D01*
X152427714Y-82466571D01*
X152642000Y-82395142D01*
X152784857Y-82252285D01*
X152856285Y-82109428D01*
X152927714Y-81823714D01*
X152927714Y-81609428D01*
X152856285Y-81323714D01*
X152784857Y-81180857D01*
X152642000Y-81038000D01*
X152427714Y-80966571D01*
X152284857Y-80966571D01*
X152070571Y-81038000D01*
X151999142Y-81109428D01*
X151356285Y-81895142D02*
X150213428Y-81895142D01*
X149213428Y-80966571D02*
X149070571Y-80966571D01*
X148927714Y-81038000D01*
X148856285Y-81109428D01*
X148784857Y-81252285D01*
X148713428Y-81538000D01*
X148713428Y-81895142D01*
X148784857Y-82180857D01*
X148856285Y-82323714D01*
X148927714Y-82395142D01*
X149070571Y-82466571D01*
X149213428Y-82466571D01*
X149356285Y-82395142D01*
X149427714Y-82323714D01*
X149499142Y-82180857D01*
X149570571Y-81895142D01*
X149570571Y-81538000D01*
X149499142Y-81252285D01*
X149427714Y-81109428D01*
X149356285Y-81038000D01*
X149213428Y-80966571D01*
D11*
X103838285Y-115990666D02*
X103362095Y-115990666D01*
X103933523Y-116276380D02*
X103600190Y-115276380D01*
X103266857Y-116276380D01*
X102981142Y-115371619D02*
X102933523Y-115324000D01*
X102838285Y-115276380D01*
X102600190Y-115276380D01*
X102504952Y-115324000D01*
X102457333Y-115371619D01*
X102409714Y-115466857D01*
X102409714Y-115562095D01*
X102457333Y-115704952D01*
X103028761Y-116276380D01*
X102409714Y-116276380D01*
X103838285Y-118022666D02*
X103362095Y-118022666D01*
X103933523Y-118308380D02*
X103600190Y-117308380D01*
X103266857Y-118308380D01*
X102409714Y-118308380D02*
X102981142Y-118308380D01*
X102695428Y-118308380D02*
X102695428Y-117308380D01*
X102790666Y-117451238D01*
X102885904Y-117546476D01*
X102981142Y-117594095D01*
X103838285Y-120054666D02*
X103362095Y-120054666D01*
X103933523Y-120340380D02*
X103600190Y-119340380D01*
X103266857Y-120340380D01*
X102743047Y-119340380D02*
X102647809Y-119340380D01*
X102552571Y-119388000D01*
X102504952Y-119435619D01*
X102457333Y-119530857D01*
X102409714Y-119721333D01*
X102409714Y-119959428D01*
X102457333Y-120149904D01*
X102504952Y-120245142D01*
X102552571Y-120292761D01*
X102647809Y-120340380D01*
X102743047Y-120340380D01*
X102838285Y-120292761D01*
X102885904Y-120245142D01*
X102933523Y-120149904D01*
X102981142Y-119959428D01*
X102981142Y-119721333D01*
X102933523Y-119530857D01*
X102885904Y-119435619D01*
X102838285Y-119388000D01*
X102743047Y-119340380D01*
D10*
X105012571Y-97730571D02*
X104869714Y-97730571D01*
X104726857Y-97802000D01*
X104655428Y-97873428D01*
X104584000Y-98016285D01*
X104512571Y-98302000D01*
X104512571Y-98659142D01*
X104584000Y-98944857D01*
X104655428Y-99087714D01*
X104726857Y-99159142D01*
X104869714Y-99230571D01*
X105012571Y-99230571D01*
X105155428Y-99159142D01*
X105226857Y-99087714D01*
X105298285Y-98944857D01*
X105369714Y-98659142D01*
X105369714Y-98302000D01*
X105298285Y-98016285D01*
X105226857Y-97873428D01*
X105155428Y-97802000D01*
X105012571Y-97730571D01*
X103226857Y-97730571D02*
X103512571Y-97730571D01*
X103655428Y-97802000D01*
X103726857Y-97873428D01*
X103869714Y-98087714D01*
X103941142Y-98373428D01*
X103941142Y-98944857D01*
X103869714Y-99087714D01*
X103798285Y-99159142D01*
X103655428Y-99230571D01*
X103369714Y-99230571D01*
X103226857Y-99159142D01*
X103155428Y-99087714D01*
X103084000Y-98944857D01*
X103084000Y-98587714D01*
X103155428Y-98444857D01*
X103226857Y-98373428D01*
X103369714Y-98302000D01*
X103655428Y-98302000D01*
X103798285Y-98373428D01*
X103869714Y-98444857D01*
X103941142Y-98587714D01*
X101369714Y-97659142D02*
X102655428Y-99587714D01*
X100941142Y-97873428D02*
X100869714Y-97802000D01*
X100726857Y-97730571D01*
X100369714Y-97730571D01*
X100226857Y-97802000D01*
X100155428Y-97873428D01*
X100084000Y-98016285D01*
X100084000Y-98159142D01*
X100155428Y-98373428D01*
X101012571Y-99230571D01*
X100084000Y-99230571D01*
X99155428Y-97730571D02*
X99012571Y-97730571D01*
X98869714Y-97802000D01*
X98798285Y-97873428D01*
X98726857Y-98016285D01*
X98655428Y-98302000D01*
X98655428Y-98659142D01*
X98726857Y-98944857D01*
X98798285Y-99087714D01*
X98869714Y-99159142D01*
X99012571Y-99230571D01*
X99155428Y-99230571D01*
X99298285Y-99159142D01*
X99369714Y-99087714D01*
X99441142Y-98944857D01*
X99512571Y-98659142D01*
X99512571Y-98302000D01*
X99441142Y-98016285D01*
X99369714Y-97873428D01*
X99298285Y-97802000D01*
X99155428Y-97730571D01*
X97226857Y-99230571D02*
X98084000Y-99230571D01*
X97655428Y-99230571D02*
X97655428Y-97730571D01*
X97798285Y-97944857D01*
X97941142Y-98087714D01*
X98084000Y-98159142D01*
X96512571Y-99230571D02*
X96226857Y-99230571D01*
X96084000Y-99159142D01*
X96012571Y-99087714D01*
X95869714Y-98873428D01*
X95798285Y-98587714D01*
X95798285Y-98016285D01*
X95869714Y-97873428D01*
X95941142Y-97802000D01*
X96084000Y-97730571D01*
X96369714Y-97730571D01*
X96512571Y-97802000D01*
X96584000Y-97873428D01*
X96655428Y-98016285D01*
X96655428Y-98373428D01*
X96584000Y-98516285D01*
X96512571Y-98587714D01*
X96369714Y-98659142D01*
X96084000Y-98659142D01*
X95941142Y-98587714D01*
X95869714Y-98516285D01*
X95798285Y-98373428D01*
D11*
X130642761Y-59888380D02*
X130642761Y-58888380D01*
X130214190Y-58983619D02*
X130166571Y-58936000D01*
X130071333Y-58888380D01*
X129833238Y-58888380D01*
X129738000Y-58936000D01*
X129690380Y-58983619D01*
X129642761Y-59078857D01*
X129642761Y-59174095D01*
X129690380Y-59316952D01*
X130261809Y-59888380D01*
X129642761Y-59888380D01*
X128642761Y-59793142D02*
X128690380Y-59840761D01*
X128833238Y-59888380D01*
X128928476Y-59888380D01*
X129071333Y-59840761D01*
X129166571Y-59745523D01*
X129214190Y-59650285D01*
X129261809Y-59459809D01*
X129261809Y-59316952D01*
X129214190Y-59126476D01*
X129166571Y-59031238D01*
X129071333Y-58936000D01*
X128928476Y-58888380D01*
X128833238Y-58888380D01*
X128690380Y-58936000D01*
X128642761Y-58983619D01*
X128214190Y-59507428D02*
X127452285Y-59507428D01*
X126976095Y-59888380D02*
X126976095Y-58888380D01*
X126642761Y-59602666D01*
X126309428Y-58888380D01*
X126309428Y-59888380D01*
X125880857Y-59602666D02*
X125404666Y-59602666D01*
X125976095Y-59888380D02*
X125642761Y-58888380D01*
X125309428Y-59888380D01*
X125023714Y-59840761D02*
X124880857Y-59888380D01*
X124642761Y-59888380D01*
X124547523Y-59840761D01*
X124499904Y-59793142D01*
X124452285Y-59697904D01*
X124452285Y-59602666D01*
X124499904Y-59507428D01*
X124547523Y-59459809D01*
X124642761Y-59412190D01*
X124833238Y-59364571D01*
X124928476Y-59316952D01*
X124976095Y-59269333D01*
X125023714Y-59174095D01*
X125023714Y-59078857D01*
X124976095Y-58983619D01*
X124928476Y-58936000D01*
X124833238Y-58888380D01*
X124595142Y-58888380D01*
X124452285Y-58936000D01*
X124166571Y-58888380D02*
X123595142Y-58888380D01*
X123880857Y-59888380D02*
X123880857Y-58888380D01*
X123261809Y-59364571D02*
X122928476Y-59364571D01*
X122785619Y-59888380D02*
X123261809Y-59888380D01*
X123261809Y-58888380D01*
X122785619Y-58888380D01*
X121785619Y-59888380D02*
X122118952Y-59412190D01*
X122357047Y-59888380D02*
X122357047Y-58888380D01*
X121976095Y-58888380D01*
X121880857Y-58936000D01*
X121833238Y-58983619D01*
X121785619Y-59078857D01*
X121785619Y-59221714D01*
X121833238Y-59316952D01*
X121880857Y-59364571D01*
X121976095Y-59412190D01*
X122357047Y-59412190D01*
X142787428Y-65476380D02*
X142787428Y-64476380D01*
X142358857Y-64571619D02*
X142311238Y-64524000D01*
X142216000Y-64476380D01*
X141977904Y-64476380D01*
X141882666Y-64524000D01*
X141835047Y-64571619D01*
X141787428Y-64666857D01*
X141787428Y-64762095D01*
X141835047Y-64904952D01*
X142406476Y-65476380D01*
X141787428Y-65476380D01*
X140787428Y-65381142D02*
X140835047Y-65428761D01*
X140977904Y-65476380D01*
X141073142Y-65476380D01*
X141216000Y-65428761D01*
X141311238Y-65333523D01*
X141358857Y-65238285D01*
X141406476Y-65047809D01*
X141406476Y-64904952D01*
X141358857Y-64714476D01*
X141311238Y-64619238D01*
X141216000Y-64524000D01*
X141073142Y-64476380D01*
X140977904Y-64476380D01*
X140835047Y-64524000D01*
X140787428Y-64571619D01*
X140358857Y-65095428D02*
X139596952Y-65095428D01*
X139216000Y-64476380D02*
X138549333Y-64476380D01*
X138977904Y-65476380D01*
X142787428Y-72334380D02*
X142787428Y-71334380D01*
X142358857Y-71429619D02*
X142311238Y-71382000D01*
X142216000Y-71334380D01*
X141977904Y-71334380D01*
X141882666Y-71382000D01*
X141835047Y-71429619D01*
X141787428Y-71524857D01*
X141787428Y-71620095D01*
X141835047Y-71762952D01*
X142406476Y-72334380D01*
X141787428Y-72334380D01*
X140787428Y-72239142D02*
X140835047Y-72286761D01*
X140977904Y-72334380D01*
X141073142Y-72334380D01*
X141216000Y-72286761D01*
X141311238Y-72191523D01*
X141358857Y-72096285D01*
X141406476Y-71905809D01*
X141406476Y-71762952D01*
X141358857Y-71572476D01*
X141311238Y-71477238D01*
X141216000Y-71382000D01*
X141073142Y-71334380D01*
X140977904Y-71334380D01*
X140835047Y-71382000D01*
X140787428Y-71429619D01*
X140358857Y-71953428D02*
X139596952Y-71953428D01*
X138692190Y-71334380D02*
X138882666Y-71334380D01*
X138977904Y-71382000D01*
X139025523Y-71429619D01*
X139120761Y-71572476D01*
X139168380Y-71762952D01*
X139168380Y-72143904D01*
X139120761Y-72239142D01*
X139073142Y-72286761D01*
X138977904Y-72334380D01*
X138787428Y-72334380D01*
X138692190Y-72286761D01*
X138644571Y-72239142D01*
X138596952Y-72143904D01*
X138596952Y-71905809D01*
X138644571Y-71810571D01*
X138692190Y-71762952D01*
X138787428Y-71715333D01*
X138977904Y-71715333D01*
X139073142Y-71762952D01*
X139120761Y-71810571D01*
X139168380Y-71905809D01*
X142787428Y-79192380D02*
X142787428Y-78192380D01*
X142358857Y-78287619D02*
X142311238Y-78240000D01*
X142216000Y-78192380D01*
X141977904Y-78192380D01*
X141882666Y-78240000D01*
X141835047Y-78287619D01*
X141787428Y-78382857D01*
X141787428Y-78478095D01*
X141835047Y-78620952D01*
X142406476Y-79192380D01*
X141787428Y-79192380D01*
X140787428Y-79097142D02*
X140835047Y-79144761D01*
X140977904Y-79192380D01*
X141073142Y-79192380D01*
X141216000Y-79144761D01*
X141311238Y-79049523D01*
X141358857Y-78954285D01*
X141406476Y-78763809D01*
X141406476Y-78620952D01*
X141358857Y-78430476D01*
X141311238Y-78335238D01*
X141216000Y-78240000D01*
X141073142Y-78192380D01*
X140977904Y-78192380D01*
X140835047Y-78240000D01*
X140787428Y-78287619D01*
X140358857Y-78811428D02*
X139596952Y-78811428D01*
X138644571Y-78192380D02*
X139120761Y-78192380D01*
X139168380Y-78668571D01*
X139120761Y-78620952D01*
X139025523Y-78573333D01*
X138787428Y-78573333D01*
X138692190Y-78620952D01*
X138644571Y-78668571D01*
X138596952Y-78763809D01*
X138596952Y-79001904D01*
X138644571Y-79097142D01*
X138692190Y-79144761D01*
X138787428Y-79192380D01*
X139025523Y-79192380D01*
X139120761Y-79144761D01*
X139168380Y-79097142D01*
X142787428Y-86050380D02*
X142787428Y-85050380D01*
X142358857Y-85145619D02*
X142311238Y-85098000D01*
X142216000Y-85050380D01*
X141977904Y-85050380D01*
X141882666Y-85098000D01*
X141835047Y-85145619D01*
X141787428Y-85240857D01*
X141787428Y-85336095D01*
X141835047Y-85478952D01*
X142406476Y-86050380D01*
X141787428Y-86050380D01*
X140787428Y-85955142D02*
X140835047Y-86002761D01*
X140977904Y-86050380D01*
X141073142Y-86050380D01*
X141216000Y-86002761D01*
X141311238Y-85907523D01*
X141358857Y-85812285D01*
X141406476Y-85621809D01*
X141406476Y-85478952D01*
X141358857Y-85288476D01*
X141311238Y-85193238D01*
X141216000Y-85098000D01*
X141073142Y-85050380D01*
X140977904Y-85050380D01*
X140835047Y-85098000D01*
X140787428Y-85145619D01*
X140358857Y-85669428D02*
X139596952Y-85669428D01*
X138692190Y-85383714D02*
X138692190Y-86050380D01*
X138930285Y-85002761D02*
X139168380Y-85717047D01*
X138549333Y-85717047D01*
X114339428Y-86304380D02*
X114339428Y-85304380D01*
X113910857Y-85399619D02*
X113863238Y-85352000D01*
X113768000Y-85304380D01*
X113529904Y-85304380D01*
X113434666Y-85352000D01*
X113387047Y-85399619D01*
X113339428Y-85494857D01*
X113339428Y-85590095D01*
X113387047Y-85732952D01*
X113958476Y-86304380D01*
X113339428Y-86304380D01*
X112339428Y-86209142D02*
X112387047Y-86256761D01*
X112529904Y-86304380D01*
X112625142Y-86304380D01*
X112768000Y-86256761D01*
X112863238Y-86161523D01*
X112910857Y-86066285D01*
X112958476Y-85875809D01*
X112958476Y-85732952D01*
X112910857Y-85542476D01*
X112863238Y-85447238D01*
X112768000Y-85352000D01*
X112625142Y-85304380D01*
X112529904Y-85304380D01*
X112387047Y-85352000D01*
X112339428Y-85399619D01*
X111910857Y-85923428D02*
X111148952Y-85923428D01*
X110768000Y-85304380D02*
X110148952Y-85304380D01*
X110482285Y-85685333D01*
X110339428Y-85685333D01*
X110244190Y-85732952D01*
X110196571Y-85780571D01*
X110148952Y-85875809D01*
X110148952Y-86113904D01*
X110196571Y-86209142D01*
X110244190Y-86256761D01*
X110339428Y-86304380D01*
X110625142Y-86304380D01*
X110720380Y-86256761D01*
X110768000Y-86209142D01*
X114339428Y-79446380D02*
X114339428Y-78446380D01*
X113910857Y-78541619D02*
X113863238Y-78494000D01*
X113768000Y-78446380D01*
X113529904Y-78446380D01*
X113434666Y-78494000D01*
X113387047Y-78541619D01*
X113339428Y-78636857D01*
X113339428Y-78732095D01*
X113387047Y-78874952D01*
X113958476Y-79446380D01*
X113339428Y-79446380D01*
X112339428Y-79351142D02*
X112387047Y-79398761D01*
X112529904Y-79446380D01*
X112625142Y-79446380D01*
X112768000Y-79398761D01*
X112863238Y-79303523D01*
X112910857Y-79208285D01*
X112958476Y-79017809D01*
X112958476Y-78874952D01*
X112910857Y-78684476D01*
X112863238Y-78589238D01*
X112768000Y-78494000D01*
X112625142Y-78446380D01*
X112529904Y-78446380D01*
X112387047Y-78494000D01*
X112339428Y-78541619D01*
X111910857Y-79065428D02*
X111148952Y-79065428D01*
X110720380Y-78541619D02*
X110672761Y-78494000D01*
X110577523Y-78446380D01*
X110339428Y-78446380D01*
X110244190Y-78494000D01*
X110196571Y-78541619D01*
X110148952Y-78636857D01*
X110148952Y-78732095D01*
X110196571Y-78874952D01*
X110768000Y-79446380D01*
X110148952Y-79446380D01*
X114339428Y-72588380D02*
X114339428Y-71588380D01*
X113910857Y-71683619D02*
X113863238Y-71636000D01*
X113768000Y-71588380D01*
X113529904Y-71588380D01*
X113434666Y-71636000D01*
X113387047Y-71683619D01*
X113339428Y-71778857D01*
X113339428Y-71874095D01*
X113387047Y-72016952D01*
X113958476Y-72588380D01*
X113339428Y-72588380D01*
X112339428Y-72493142D02*
X112387047Y-72540761D01*
X112529904Y-72588380D01*
X112625142Y-72588380D01*
X112768000Y-72540761D01*
X112863238Y-72445523D01*
X112910857Y-72350285D01*
X112958476Y-72159809D01*
X112958476Y-72016952D01*
X112910857Y-71826476D01*
X112863238Y-71731238D01*
X112768000Y-71636000D01*
X112625142Y-71588380D01*
X112529904Y-71588380D01*
X112387047Y-71636000D01*
X112339428Y-71683619D01*
X111910857Y-72207428D02*
X111148952Y-72207428D01*
X110148952Y-72588380D02*
X110720380Y-72588380D01*
X110434666Y-72588380D02*
X110434666Y-71588380D01*
X110529904Y-71731238D01*
X110625142Y-71826476D01*
X110720380Y-71874095D01*
X114339428Y-65730380D02*
X114339428Y-64730380D01*
X113910857Y-64825619D02*
X113863238Y-64778000D01*
X113768000Y-64730380D01*
X113529904Y-64730380D01*
X113434666Y-64778000D01*
X113387047Y-64825619D01*
X113339428Y-64920857D01*
X113339428Y-65016095D01*
X113387047Y-65158952D01*
X113958476Y-65730380D01*
X113339428Y-65730380D01*
X112339428Y-65635142D02*
X112387047Y-65682761D01*
X112529904Y-65730380D01*
X112625142Y-65730380D01*
X112768000Y-65682761D01*
X112863238Y-65587523D01*
X112910857Y-65492285D01*
X112958476Y-65301809D01*
X112958476Y-65158952D01*
X112910857Y-64968476D01*
X112863238Y-64873238D01*
X112768000Y-64778000D01*
X112625142Y-64730380D01*
X112529904Y-64730380D01*
X112387047Y-64778000D01*
X112339428Y-64825619D01*
X111910857Y-65349428D02*
X111148952Y-65349428D01*
X110482285Y-64730380D02*
X110387047Y-64730380D01*
X110291809Y-64778000D01*
X110244190Y-64825619D01*
X110196571Y-64920857D01*
X110148952Y-65111333D01*
X110148952Y-65349428D01*
X110196571Y-65539904D01*
X110244190Y-65635142D01*
X110291809Y-65682761D01*
X110387047Y-65730380D01*
X110482285Y-65730380D01*
X110577523Y-65682761D01*
X110625142Y-65635142D01*
X110672761Y-65539904D01*
X110720380Y-65349428D01*
X110720380Y-65111333D01*
X110672761Y-64920857D01*
X110625142Y-64825619D01*
X110577523Y-64778000D01*
X110482285Y-64730380D01*
D10*
X103262571Y-100984857D02*
X103762571Y-100984857D01*
X103762571Y-101770571D02*
X103762571Y-100270571D01*
X103048285Y-100270571D01*
X101834000Y-100770571D02*
X101834000Y-101770571D01*
X102191142Y-100199142D02*
X102548285Y-101270571D01*
X101619714Y-101270571D01*
X101048285Y-101770571D02*
X101048285Y-100270571D01*
X100691142Y-100270571D01*
X100476857Y-100342000D01*
X100334000Y-100484857D01*
X100262571Y-100627714D01*
X100191142Y-100913428D01*
X100191142Y-101127714D01*
X100262571Y-101413428D01*
X100334000Y-101556285D01*
X100476857Y-101699142D01*
X100691142Y-101770571D01*
X101048285Y-101770571D01*
X99548285Y-100984857D02*
X99048285Y-100984857D01*
X98834000Y-101770571D02*
X99548285Y-101770571D01*
X99548285Y-100270571D01*
X98834000Y-100270571D01*
X97691142Y-100984857D02*
X97476857Y-101056285D01*
X97405428Y-101127714D01*
X97334000Y-101270571D01*
X97334000Y-101484857D01*
X97405428Y-101627714D01*
X97476857Y-101699142D01*
X97619714Y-101770571D01*
X98191142Y-101770571D01*
X98191142Y-100270571D01*
X97691142Y-100270571D01*
X97548285Y-100342000D01*
X97476857Y-100413428D01*
X97405428Y-100556285D01*
X97405428Y-100699142D01*
X97476857Y-100842000D01*
X97548285Y-100913428D01*
X97691142Y-100984857D01*
X98191142Y-100984857D01*
X103901428Y-102810571D02*
X103401428Y-104310571D01*
X102901428Y-102810571D01*
X102115714Y-102810571D02*
X101972857Y-102810571D01*
X101830000Y-102882000D01*
X101758571Y-102953428D01*
X101687142Y-103096285D01*
X101615714Y-103382000D01*
X101615714Y-103739142D01*
X101687142Y-104024857D01*
X101758571Y-104167714D01*
X101830000Y-104239142D01*
X101972857Y-104310571D01*
X102115714Y-104310571D01*
X102258571Y-104239142D01*
X102330000Y-104167714D01*
X102401428Y-104024857D01*
X102472857Y-103739142D01*
X102472857Y-103382000D01*
X102401428Y-103096285D01*
X102330000Y-102953428D01*
X102258571Y-102882000D01*
X102115714Y-102810571D01*
X100972857Y-103739142D02*
X99830000Y-103739142D01*
X99187142Y-102953428D02*
X99115714Y-102882000D01*
X98972857Y-102810571D01*
X98615714Y-102810571D01*
X98472857Y-102882000D01*
X98401428Y-102953428D01*
X98330000Y-103096285D01*
X98330000Y-103239142D01*
X98401428Y-103453428D01*
X99258571Y-104310571D01*
X98330000Y-104310571D01*
X97401428Y-102810571D02*
X97258571Y-102810571D01*
X97115714Y-102882000D01*
X97044285Y-102953428D01*
X96972857Y-103096285D01*
X96901428Y-103382000D01*
X96901428Y-103739142D01*
X96972857Y-104024857D01*
X97044285Y-104167714D01*
X97115714Y-104239142D01*
X97258571Y-104310571D01*
X97401428Y-104310571D01*
X97544285Y-104239142D01*
X97615714Y-104167714D01*
X97687142Y-104024857D01*
X97758571Y-103739142D01*
X97758571Y-103382000D01*
X97687142Y-103096285D01*
X97615714Y-102953428D01*
X97544285Y-102882000D01*
X97401428Y-102810571D01*
X105222857Y-106453714D02*
X105294285Y-106525142D01*
X105508571Y-106596571D01*
X105651428Y-106596571D01*
X105865714Y-106525142D01*
X106008571Y-106382285D01*
X106080000Y-106239428D01*
X106151428Y-105953714D01*
X106151428Y-105739428D01*
X106080000Y-105453714D01*
X106008571Y-105310857D01*
X105865714Y-105168000D01*
X105651428Y-105096571D01*
X105508571Y-105096571D01*
X105294285Y-105168000D01*
X105222857Y-105239428D01*
X104294285Y-105096571D02*
X104008571Y-105096571D01*
X103865714Y-105168000D01*
X103722857Y-105310857D01*
X103651428Y-105596571D01*
X103651428Y-106096571D01*
X103722857Y-106382285D01*
X103865714Y-106525142D01*
X104008571Y-106596571D01*
X104294285Y-106596571D01*
X104437142Y-106525142D01*
X104580000Y-106382285D01*
X104651428Y-106096571D01*
X104651428Y-105596571D01*
X104580000Y-105310857D01*
X104437142Y-105168000D01*
X104294285Y-105096571D01*
X103008571Y-106596571D02*
X103008571Y-105096571D01*
X102651428Y-105096571D01*
X102437142Y-105168000D01*
X102294285Y-105310857D01*
X102222857Y-105453714D01*
X102151428Y-105739428D01*
X102151428Y-105953714D01*
X102222857Y-106239428D01*
X102294285Y-106382285D01*
X102437142Y-106525142D01*
X102651428Y-106596571D01*
X103008571Y-106596571D01*
X101508571Y-105810857D02*
X101008571Y-105810857D01*
X100794285Y-106596571D02*
X101508571Y-106596571D01*
X101508571Y-105096571D01*
X100794285Y-105096571D01*
X99294285Y-106596571D02*
X99794285Y-105882285D01*
X100151428Y-106596571D02*
X100151428Y-105096571D01*
X99580000Y-105096571D01*
X99437142Y-105168000D01*
X99365714Y-105239428D01*
X99294285Y-105382285D01*
X99294285Y-105596571D01*
X99365714Y-105739428D01*
X99437142Y-105810857D01*
X99580000Y-105882285D01*
X100151428Y-105882285D01*
X99008571Y-106739428D02*
X97865714Y-106739428D01*
X97508571Y-106596571D02*
X97508571Y-105096571D01*
X96865714Y-105239428D02*
X96794285Y-105168000D01*
X96651428Y-105096571D01*
X96294285Y-105096571D01*
X96151428Y-105168000D01*
X96080000Y-105239428D01*
X96008571Y-105382285D01*
X96008571Y-105525142D01*
X96080000Y-105739428D01*
X96937142Y-106596571D01*
X96008571Y-106596571D01*
X94508571Y-106453714D02*
X94580000Y-106525142D01*
X94794285Y-106596571D01*
X94937142Y-106596571D01*
X95151428Y-106525142D01*
X95294285Y-106382285D01*
X95365714Y-106239428D01*
X95437142Y-105953714D01*
X95437142Y-105739428D01*
X95365714Y-105453714D01*
X95294285Y-105310857D01*
X95151428Y-105168000D01*
X94937142Y-105096571D01*
X94794285Y-105096571D01*
X94580000Y-105168000D01*
X94508571Y-105239428D01*
X176533000Y-117474857D02*
X176604428Y-117617714D01*
X176604428Y-117832000D01*
X176533000Y-118046285D01*
X176390142Y-118189142D01*
X176247285Y-118260571D01*
X175961571Y-118332000D01*
X175747285Y-118332000D01*
X175461571Y-118260571D01*
X175318714Y-118189142D01*
X175175857Y-118046285D01*
X175104428Y-117832000D01*
X175104428Y-117689142D01*
X175175857Y-117474857D01*
X175247285Y-117403428D01*
X175747285Y-117403428D01*
X175747285Y-117689142D01*
X175104428Y-116760571D02*
X176604428Y-116760571D01*
X175104428Y-115903428D01*
X176604428Y-115903428D01*
X175104428Y-115189142D02*
X176604428Y-115189142D01*
X176604428Y-114832000D01*
X176533000Y-114617714D01*
X176390142Y-114474857D01*
X176247285Y-114403428D01*
X175961571Y-114332000D01*
X175747285Y-114332000D01*
X175461571Y-114403428D01*
X175318714Y-114474857D01*
X175175857Y-114617714D01*
X175104428Y-114832000D01*
X175104428Y-115189142D01*
X174054428Y-118332000D02*
X172554428Y-117832000D01*
X174054428Y-117332000D01*
X172697285Y-115974857D02*
X172625857Y-116046285D01*
X172554428Y-116260571D01*
X172554428Y-116403428D01*
X172625857Y-116617714D01*
X172768714Y-116760571D01*
X172911571Y-116832000D01*
X173197285Y-116903428D01*
X173411571Y-116903428D01*
X173697285Y-116832000D01*
X173840142Y-116760571D01*
X173983000Y-116617714D01*
X174054428Y-116403428D01*
X174054428Y-116260571D01*
X173983000Y-116046285D01*
X173911571Y-115974857D01*
X172697285Y-114474857D02*
X172625857Y-114546285D01*
X172554428Y-114760571D01*
X172554428Y-114903428D01*
X172625857Y-115117714D01*
X172768714Y-115260571D01*
X172911571Y-115332000D01*
X173197285Y-115403428D01*
X173411571Y-115403428D01*
X173697285Y-115332000D01*
X173840142Y-115260571D01*
X173983000Y-115117714D01*
X174054428Y-114903428D01*
X174054428Y-114760571D01*
X173983000Y-114546285D01*
X173911571Y-114474857D01*
X170075857Y-118117714D02*
X170004428Y-117903428D01*
X170004428Y-117546285D01*
X170075857Y-117403428D01*
X170147285Y-117332000D01*
X170290142Y-117260571D01*
X170433000Y-117260571D01*
X170575857Y-117332000D01*
X170647285Y-117403428D01*
X170718714Y-117546285D01*
X170790142Y-117832000D01*
X170861571Y-117974857D01*
X170933000Y-118046285D01*
X171075857Y-118117714D01*
X171218714Y-118117714D01*
X171361571Y-118046285D01*
X171433000Y-117974857D01*
X171504428Y-117832000D01*
X171504428Y-117474857D01*
X171433000Y-117260571D01*
X170147285Y-115760571D02*
X170075857Y-115832000D01*
X170004428Y-116046285D01*
X170004428Y-116189142D01*
X170075857Y-116403428D01*
X170218714Y-116546285D01*
X170361571Y-116617714D01*
X170647285Y-116689142D01*
X170861571Y-116689142D01*
X171147285Y-116617714D01*
X171290142Y-116546285D01*
X171433000Y-116403428D01*
X171504428Y-116189142D01*
X171504428Y-116046285D01*
X171433000Y-115832000D01*
X171361571Y-115760571D01*
X170004428Y-114403428D02*
X170004428Y-115117714D01*
X171504428Y-115117714D01*
X167525857Y-118153428D02*
X167454428Y-117939142D01*
X167454428Y-117582000D01*
X167525857Y-117439142D01*
X167597285Y-117367714D01*
X167740142Y-117296285D01*
X167883000Y-117296285D01*
X168025857Y-117367714D01*
X168097285Y-117439142D01*
X168168714Y-117582000D01*
X168240142Y-117867714D01*
X168311571Y-118010571D01*
X168383000Y-118082000D01*
X168525857Y-118153428D01*
X168668714Y-118153428D01*
X168811571Y-118082000D01*
X168883000Y-118010571D01*
X168954428Y-117867714D01*
X168954428Y-117510571D01*
X168883000Y-117296285D01*
X167454428Y-116653428D02*
X168954428Y-116653428D01*
X168954428Y-116296285D01*
X168883000Y-116082000D01*
X168740142Y-115939142D01*
X168597285Y-115867714D01*
X168311571Y-115796285D01*
X168097285Y-115796285D01*
X167811571Y-115867714D01*
X167668714Y-115939142D01*
X167525857Y-116082000D01*
X167454428Y-116296285D01*
X167454428Y-116653428D01*
X167883000Y-115224857D02*
X167883000Y-114510571D01*
X167454428Y-115367714D02*
X168954428Y-114867714D01*
X167454428Y-114367714D01*
X176533000Y-131190857D02*
X176604428Y-131333714D01*
X176604428Y-131548000D01*
X176533000Y-131762285D01*
X176390142Y-131905142D01*
X176247285Y-131976571D01*
X175961571Y-132048000D01*
X175747285Y-132048000D01*
X175461571Y-131976571D01*
X175318714Y-131905142D01*
X175175857Y-131762285D01*
X175104428Y-131548000D01*
X175104428Y-131405142D01*
X175175857Y-131190857D01*
X175247285Y-131119428D01*
X175747285Y-131119428D01*
X175747285Y-131405142D01*
X175104428Y-130476571D02*
X176604428Y-130476571D01*
X175104428Y-129619428D01*
X176604428Y-129619428D01*
X175104428Y-128905142D02*
X176604428Y-128905142D01*
X176604428Y-128548000D01*
X176533000Y-128333714D01*
X176390142Y-128190857D01*
X176247285Y-128119428D01*
X175961571Y-128048000D01*
X175747285Y-128048000D01*
X175461571Y-128119428D01*
X175318714Y-128190857D01*
X175175857Y-128333714D01*
X175104428Y-128548000D01*
X175104428Y-128905142D01*
X174054428Y-132048000D02*
X172554428Y-131548000D01*
X174054428Y-131048000D01*
X172697285Y-129690857D02*
X172625857Y-129762285D01*
X172554428Y-129976571D01*
X172554428Y-130119428D01*
X172625857Y-130333714D01*
X172768714Y-130476571D01*
X172911571Y-130548000D01*
X173197285Y-130619428D01*
X173411571Y-130619428D01*
X173697285Y-130548000D01*
X173840142Y-130476571D01*
X173983000Y-130333714D01*
X174054428Y-130119428D01*
X174054428Y-129976571D01*
X173983000Y-129762285D01*
X173911571Y-129690857D01*
X172697285Y-128190857D02*
X172625857Y-128262285D01*
X172554428Y-128476571D01*
X172554428Y-128619428D01*
X172625857Y-128833714D01*
X172768714Y-128976571D01*
X172911571Y-129048000D01*
X173197285Y-129119428D01*
X173411571Y-129119428D01*
X173697285Y-129048000D01*
X173840142Y-128976571D01*
X173983000Y-128833714D01*
X174054428Y-128619428D01*
X174054428Y-128476571D01*
X173983000Y-128262285D01*
X173911571Y-128190857D01*
X170075857Y-131833714D02*
X170004428Y-131619428D01*
X170004428Y-131262285D01*
X170075857Y-131119428D01*
X170147285Y-131048000D01*
X170290142Y-130976571D01*
X170433000Y-130976571D01*
X170575857Y-131048000D01*
X170647285Y-131119428D01*
X170718714Y-131262285D01*
X170790142Y-131548000D01*
X170861571Y-131690857D01*
X170933000Y-131762285D01*
X171075857Y-131833714D01*
X171218714Y-131833714D01*
X171361571Y-131762285D01*
X171433000Y-131690857D01*
X171504428Y-131548000D01*
X171504428Y-131190857D01*
X171433000Y-130976571D01*
X170147285Y-129476571D02*
X170075857Y-129548000D01*
X170004428Y-129762285D01*
X170004428Y-129905142D01*
X170075857Y-130119428D01*
X170218714Y-130262285D01*
X170361571Y-130333714D01*
X170647285Y-130405142D01*
X170861571Y-130405142D01*
X171147285Y-130333714D01*
X171290142Y-130262285D01*
X171433000Y-130119428D01*
X171504428Y-129905142D01*
X171504428Y-129762285D01*
X171433000Y-129548000D01*
X171361571Y-129476571D01*
X170004428Y-128119428D02*
X170004428Y-128833714D01*
X171504428Y-128833714D01*
X167525857Y-131869428D02*
X167454428Y-131655142D01*
X167454428Y-131298000D01*
X167525857Y-131155142D01*
X167597285Y-131083714D01*
X167740142Y-131012285D01*
X167883000Y-131012285D01*
X168025857Y-131083714D01*
X168097285Y-131155142D01*
X168168714Y-131298000D01*
X168240142Y-131583714D01*
X168311571Y-131726571D01*
X168383000Y-131798000D01*
X168525857Y-131869428D01*
X168668714Y-131869428D01*
X168811571Y-131798000D01*
X168883000Y-131726571D01*
X168954428Y-131583714D01*
X168954428Y-131226571D01*
X168883000Y-131012285D01*
X167454428Y-130369428D02*
X168954428Y-130369428D01*
X168954428Y-130012285D01*
X168883000Y-129798000D01*
X168740142Y-129655142D01*
X168597285Y-129583714D01*
X168311571Y-129512285D01*
X168097285Y-129512285D01*
X167811571Y-129583714D01*
X167668714Y-129655142D01*
X167525857Y-129798000D01*
X167454428Y-130012285D01*
X167454428Y-130369428D01*
X167883000Y-128940857D02*
X167883000Y-128226571D01*
X167454428Y-129083714D02*
X168954428Y-128583714D01*
X167454428Y-128083714D01*
X164167428Y-142900571D02*
X165667428Y-142900571D01*
X165524571Y-142257714D02*
X165596000Y-142186285D01*
X165667428Y-142043428D01*
X165667428Y-141686285D01*
X165596000Y-141543428D01*
X165524571Y-141472000D01*
X165381714Y-141400571D01*
X165238857Y-141400571D01*
X165024571Y-141472000D01*
X164167428Y-142329142D01*
X164167428Y-141400571D01*
X164310285Y-139900571D02*
X164238857Y-139972000D01*
X164167428Y-140186285D01*
X164167428Y-140329142D01*
X164238857Y-140543428D01*
X164381714Y-140686285D01*
X164524571Y-140757714D01*
X164810285Y-140829142D01*
X165024571Y-140829142D01*
X165310285Y-140757714D01*
X165453142Y-140686285D01*
X165596000Y-140543428D01*
X165667428Y-140329142D01*
X165667428Y-140186285D01*
X165596000Y-139972000D01*
X165524571Y-139900571D01*
X164024571Y-139614857D02*
X164024571Y-138472000D01*
X164953142Y-137614857D02*
X164881714Y-137400571D01*
X164810285Y-137329142D01*
X164667428Y-137257714D01*
X164453142Y-137257714D01*
X164310285Y-137329142D01*
X164238857Y-137400571D01*
X164167428Y-137543428D01*
X164167428Y-138114857D01*
X165667428Y-138114857D01*
X165667428Y-137614857D01*
X165596000Y-137472000D01*
X165524571Y-137400571D01*
X165381714Y-137329142D01*
X165238857Y-137329142D01*
X165096000Y-137400571D01*
X165024571Y-137472000D01*
X164953142Y-137614857D01*
X164953142Y-138114857D01*
X165667428Y-136614857D02*
X164453142Y-136614857D01*
X164310285Y-136543428D01*
X164238857Y-136472000D01*
X164167428Y-136329142D01*
X164167428Y-136043428D01*
X164238857Y-135900571D01*
X164310285Y-135829142D01*
X164453142Y-135757714D01*
X165667428Y-135757714D01*
X164953142Y-134543428D02*
X164953142Y-135043428D01*
X164167428Y-135043428D02*
X165667428Y-135043428D01*
X165667428Y-134329142D01*
X164953142Y-133257714D02*
X164953142Y-133757714D01*
X164167428Y-133757714D02*
X165667428Y-133757714D01*
X165667428Y-133043428D01*
X164953142Y-132472000D02*
X164953142Y-131972000D01*
X164167428Y-131757714D02*
X164167428Y-132472000D01*
X165667428Y-132472000D01*
X165667428Y-131757714D01*
X164167428Y-130257714D02*
X164881714Y-130757714D01*
X164167428Y-131114857D02*
X165667428Y-131114857D01*
X165667428Y-130543428D01*
X165596000Y-130400571D01*
X165524571Y-130329142D01*
X165381714Y-130257714D01*
X165167428Y-130257714D01*
X165024571Y-130329142D01*
X164953142Y-130400571D01*
X164881714Y-130543428D01*
X164881714Y-131114857D01*
X164024571Y-129972000D02*
X164024571Y-128829142D01*
X164953142Y-127972000D02*
X164881714Y-127757714D01*
X164810285Y-127686285D01*
X164667428Y-127614857D01*
X164453142Y-127614857D01*
X164310285Y-127686285D01*
X164238857Y-127757714D01*
X164167428Y-127900571D01*
X164167428Y-128472000D01*
X165667428Y-128472000D01*
X165667428Y-127972000D01*
X165596000Y-127829142D01*
X165524571Y-127757714D01*
X165381714Y-127686285D01*
X165238857Y-127686285D01*
X165096000Y-127757714D01*
X165024571Y-127829142D01*
X164953142Y-127972000D01*
X164953142Y-128472000D01*
X165667428Y-126686285D02*
X165667428Y-126400571D01*
X165596000Y-126257714D01*
X165453142Y-126114857D01*
X165167428Y-126043428D01*
X164667428Y-126043428D01*
X164381714Y-126114857D01*
X164238857Y-126257714D01*
X164167428Y-126400571D01*
X164167428Y-126686285D01*
X164238857Y-126829142D01*
X164381714Y-126972000D01*
X164667428Y-127043428D01*
X165167428Y-127043428D01*
X165453142Y-126972000D01*
X165596000Y-126829142D01*
X165667428Y-126686285D01*
X164596000Y-125472000D02*
X164596000Y-124757714D01*
X164167428Y-125614857D02*
X165667428Y-125114857D01*
X164167428Y-124614857D01*
X164167428Y-123257714D02*
X164881714Y-123757714D01*
X164167428Y-124114857D02*
X165667428Y-124114857D01*
X165667428Y-123543428D01*
X165596000Y-123400571D01*
X165524571Y-123329142D01*
X165381714Y-123257714D01*
X165167428Y-123257714D01*
X165024571Y-123329142D01*
X164953142Y-123400571D01*
X164881714Y-123543428D01*
X164881714Y-124114857D01*
X164167428Y-122614857D02*
X165667428Y-122614857D01*
X165667428Y-122257714D01*
X165596000Y-122043428D01*
X165453142Y-121900571D01*
X165310285Y-121829142D01*
X165024571Y-121757714D01*
X164810285Y-121757714D01*
X164524571Y-121829142D01*
X164381714Y-121900571D01*
X164238857Y-122043428D01*
X164167428Y-122257714D01*
X164167428Y-122614857D01*
X165667428Y-114472000D02*
X164167428Y-113972000D01*
X165667428Y-113472000D01*
X165667428Y-112686285D02*
X165667428Y-112543428D01*
X165596000Y-112400571D01*
X165524571Y-112329142D01*
X165381714Y-112257714D01*
X165096000Y-112186285D01*
X164738857Y-112186285D01*
X164453142Y-112257714D01*
X164310285Y-112329142D01*
X164238857Y-112400571D01*
X164167428Y-112543428D01*
X164167428Y-112686285D01*
X164238857Y-112829142D01*
X164310285Y-112900571D01*
X164453142Y-112972000D01*
X164738857Y-113043428D01*
X165096000Y-113043428D01*
X165381714Y-112972000D01*
X165524571Y-112900571D01*
X165596000Y-112829142D01*
X165667428Y-112686285D01*
X164738857Y-111543428D02*
X164738857Y-110400571D01*
X164167428Y-108900571D02*
X164167428Y-109757714D01*
X164167428Y-109329142D02*
X165667428Y-109329142D01*
X165453142Y-109472000D01*
X165310285Y-109614857D01*
X165238857Y-109757714D01*
X165667428Y-107972000D02*
X165667428Y-107829142D01*
X165596000Y-107686285D01*
X165524571Y-107614857D01*
X165381714Y-107543428D01*
X165096000Y-107472000D01*
X164738857Y-107472000D01*
X164453142Y-107543428D01*
X164310285Y-107614857D01*
X164238857Y-107686285D01*
X164167428Y-107829142D01*
X164167428Y-107972000D01*
X164238857Y-108114857D01*
X164310285Y-108186285D01*
X164453142Y-108257714D01*
X164738857Y-108329142D01*
X165096000Y-108329142D01*
X165381714Y-108257714D01*
X165524571Y-108186285D01*
X165596000Y-108114857D01*
X165667428Y-107972000D01*
D12*
G04 #@! TO.C,R302*
X121972000Y-91193252D02*
X121972000Y-90670748D01*
X123392000Y-91193252D02*
X123392000Y-90670748D01*
G04 #@! TO.C,R303*
X126484748Y-65584000D02*
X127007252Y-65584000D01*
X126484748Y-67004000D02*
X127007252Y-67004000D01*
G04 #@! TO.C,R616*
X133772637Y-126820904D02*
X133772637Y-126495346D01*
X134792637Y-126820904D02*
X134792637Y-126495346D01*
G04 #@! TO.C,C302*
X125967748Y-76402000D02*
X126490252Y-76402000D01*
X125967748Y-74982000D02*
X126490252Y-74982000D01*
G04 #@! TO.C,R313*
X119328000Y-73135748D02*
X119328000Y-73658252D01*
X117908000Y-73135748D02*
X117908000Y-73658252D01*
G04 #@! TO.C,D602*
X131248637Y-129309625D02*
X131248637Y-133009625D01*
X134268637Y-130009625D02*
X134268637Y-133009625D01*
G04 #@! TO.C,R517*
X105221721Y-116334000D02*
X105547279Y-116334000D01*
X105221721Y-115314000D02*
X105547279Y-115314000D01*
G04 #@! TO.C,C301*
X125976748Y-72188000D02*
X126499252Y-72188000D01*
X125976748Y-73608000D02*
X126499252Y-73608000D01*
G04 #@! TO.C,R323*
X129786748Y-62790000D02*
X130309252Y-62790000D01*
X129786748Y-64210000D02*
X130309252Y-64210000D01*
G04 #@! TO.C,R315*
X117908000Y-79993748D02*
X117908000Y-80516252D01*
X119328000Y-79993748D02*
X119328000Y-80516252D01*
G04 #@! TO.C,R316*
X135688000Y-79993748D02*
X135688000Y-80516252D01*
X137108000Y-79993748D02*
X137108000Y-80516252D01*
G04 #@! TO.C,R319*
X134568000Y-72890748D02*
X134568000Y-73413252D01*
X133148000Y-72890748D02*
X133148000Y-73413252D01*
G04 #@! TO.C,R320*
X135688000Y-66023748D02*
X135688000Y-66546252D01*
X137108000Y-66023748D02*
X137108000Y-66546252D01*
G04 #@! TO.C,R611*
X134532226Y-106658177D02*
X134532226Y-106983735D01*
X133512226Y-106658177D02*
X133512226Y-106983735D01*
G04 #@! TO.C,R509*
X100845252Y-110692000D02*
X100322748Y-110692000D01*
X100845252Y-109272000D02*
X100322748Y-109272000D01*
G04 #@! TO.C,R504*
X100845252Y-117146000D02*
X100322748Y-117146000D01*
X100845252Y-118566000D02*
X100322748Y-118566000D01*
G04 #@! TO.C,R615*
X131484226Y-106607177D02*
X131484226Y-106932735D01*
X130464226Y-106607177D02*
X130464226Y-106932735D01*
G04 #@! TO.C,R321*
X134568000Y-66032748D02*
X134568000Y-66555252D01*
X133148000Y-66032748D02*
X133148000Y-66555252D01*
G04 #@! TO.C,R318*
X137108000Y-72890748D02*
X137108000Y-73413252D01*
X135688000Y-72890748D02*
X135688000Y-73413252D01*
G04 #@! TO.C,R502*
X100836252Y-115114000D02*
X100313748Y-115114000D01*
X100836252Y-116534000D02*
X100313748Y-116534000D01*
G04 #@! TO.C,R503*
X100845252Y-126694000D02*
X100322748Y-126694000D01*
X100845252Y-125274000D02*
X100322748Y-125274000D01*
G04 #@! TO.C,R317*
X134368000Y-79951733D02*
X134368000Y-80294267D01*
X133348000Y-79951733D02*
X133348000Y-80294267D01*
G04 #@! TO.C,D601*
X134008226Y-104169456D02*
X134008226Y-100469456D01*
X130988226Y-103469456D02*
X130988226Y-100469456D01*
G04 #@! TO.C,R322*
X129786748Y-62178000D02*
X130309252Y-62178000D01*
X129786748Y-60758000D02*
X130309252Y-60758000D01*
G04 #@! TO.C,R506*
X100845252Y-120598000D02*
X100322748Y-120598000D01*
X100845252Y-119178000D02*
X100322748Y-119178000D01*
G04 #@! TO.C,R507*
X100854252Y-108406000D02*
X100331748Y-108406000D01*
X100854252Y-106986000D02*
X100331748Y-106986000D01*
G04 #@! TO.C,R311*
X117908000Y-66295748D02*
X117908000Y-66818252D01*
X119328000Y-66295748D02*
X119328000Y-66818252D01*
G04 #@! TO.C,R312*
X115368000Y-73144748D02*
X115368000Y-73667252D01*
X116788000Y-73144748D02*
X116788000Y-73667252D01*
G04 #@! TO.C,R314*
X116788000Y-80002748D02*
X116788000Y-80525252D01*
X115368000Y-80002748D02*
X115368000Y-80525252D01*
G04 #@! TO.C,R305*
X125932000Y-91202252D02*
X125932000Y-90679748D01*
X124512000Y-91202252D02*
X124512000Y-90679748D01*
G04 #@! TO.C,R306*
X123138000Y-52570748D02*
X123138000Y-53093252D01*
X121718000Y-52570748D02*
X121718000Y-53093252D01*
G04 #@! TO.C,R307*
X128472000Y-91193252D02*
X128472000Y-90670748D01*
X127052000Y-91193252D02*
X127052000Y-90670748D01*
G04 #@! TO.C,C601*
X140464000Y-124068721D02*
X140464000Y-124394279D01*
X139444000Y-124068721D02*
X139444000Y-124394279D01*
G04 #@! TO.C,R612*
X130724637Y-126846404D02*
X130724637Y-126520846D01*
X131744637Y-126846404D02*
X131744637Y-126520846D01*
G04 #@! TO.C,R310*
X116788000Y-66277748D02*
X116788000Y-66800252D01*
X115368000Y-66277748D02*
X115368000Y-66800252D01*
G04 #@! TO.C,R613*
X133008226Y-106632677D02*
X133008226Y-106958235D01*
X131988226Y-106632677D02*
X131988226Y-106958235D01*
G04 #@! TO.C,R614*
X132248637Y-126846404D02*
X132248637Y-126520846D01*
X133268637Y-126846404D02*
X133268637Y-126520846D01*
G04 #@! TO.C,R511*
X100836252Y-111050000D02*
X100313748Y-111050000D01*
X100836252Y-112470000D02*
X100313748Y-112470000D01*
G04 #@! TO.C,R513*
X100854252Y-113082000D02*
X100331748Y-113082000D01*
X100854252Y-114502000D02*
X100331748Y-114502000D01*
G04 #@! TO.C,R301*
X124258000Y-52561748D02*
X124258000Y-53084252D01*
X125678000Y-52561748D02*
X125678000Y-53084252D01*
D13*
G04 #@! TO.C,U601*
X139595000Y-118911000D02*
X139370000Y-118911000D01*
X139595000Y-114261000D02*
X139270000Y-114261000D01*
X129645000Y-114261000D02*
X129970000Y-114261000D01*
X129645000Y-118911000D02*
X129970000Y-118911000D01*
X139595000Y-118911000D02*
X139595000Y-114261000D01*
X129645000Y-118911000D02*
X129645000Y-114261000D01*
X139370000Y-118911000D02*
X139370000Y-119986000D01*
D12*
G04 #@! TO.C,R308*
X114382733Y-60196000D02*
X114725267Y-60196000D01*
X114382733Y-61216000D02*
X114725267Y-61216000D01*
G04 #@! TO.C,R516*
X105247221Y-117346000D02*
X105572779Y-117346000D01*
X105247221Y-118366000D02*
X105572779Y-118366000D01*
G04 #@! TO.C,R309*
X119805267Y-61216000D02*
X119462733Y-61216000D01*
X119805267Y-60196000D02*
X119462733Y-60196000D01*
G04 #@! TO.C,R515*
X105247221Y-120398000D02*
X105572779Y-120398000D01*
X105247221Y-119378000D02*
X105572779Y-119378000D01*
G04 #@! TO.C,R505*
X98051252Y-130100000D02*
X97528748Y-130100000D01*
X98051252Y-131520000D02*
X97528748Y-131520000D01*
G04 #@! TO.C,R401*
X162562000Y-51136733D02*
X162562000Y-51479267D01*
X161542000Y-51136733D02*
X161542000Y-51479267D01*
G04 #@! TO.C,R404*
X165102000Y-51136733D02*
X165102000Y-51479267D01*
X164082000Y-51136733D02*
X164082000Y-51479267D01*
G04 #@! TO.C,R407*
X167642000Y-51136733D02*
X167642000Y-51479267D01*
X166622000Y-51136733D02*
X166622000Y-51479267D01*
G04 #@! TO.C,C201*
X174493422Y-137362000D02*
X175010578Y-137362000D01*
X174493422Y-135942000D02*
X175010578Y-135942000D01*
G04 #@! TO.C,C202*
X174493422Y-109018000D02*
X175010578Y-109018000D01*
X174493422Y-110438000D02*
X175010578Y-110438000D01*
G04 #@! TO.C,C401*
X177748000Y-68587252D02*
X177748000Y-68064748D01*
X176328000Y-68587252D02*
X176328000Y-68064748D01*
G04 #@! TO.C,C402*
X175208000Y-68587252D02*
X175208000Y-68064748D01*
X173788000Y-68587252D02*
X173788000Y-68064748D01*
G04 #@! TO.C,R402*
X168454000Y-84852252D02*
X168454000Y-84329748D01*
X169874000Y-84852252D02*
X169874000Y-84329748D01*
G04 #@! TO.C,R405*
X172160000Y-84843252D02*
X172160000Y-84320748D01*
X170740000Y-84843252D02*
X170740000Y-84320748D01*
G04 #@! TO.C,R406*
X173026000Y-84843252D02*
X173026000Y-84320748D01*
X174446000Y-84843252D02*
X174446000Y-84320748D01*
D13*
G04 #@! TO.C,U401*
X165460000Y-70297000D02*
X165460000Y-65847000D01*
X172360000Y-71822000D02*
X172360000Y-65847000D01*
G04 #@! TO.C,R302*
X124784380Y-89812952D02*
X124308190Y-89479619D01*
X124784380Y-89241523D02*
X123784380Y-89241523D01*
X123784380Y-89622476D01*
X123832000Y-89717714D01*
X123879619Y-89765333D01*
X123974857Y-89812952D01*
X124117714Y-89812952D01*
X124212952Y-89765333D01*
X124260571Y-89717714D01*
X124308190Y-89622476D01*
X124308190Y-89241523D01*
X123784380Y-90146285D02*
X123784380Y-90765333D01*
X124165333Y-90432000D01*
X124165333Y-90574857D01*
X124212952Y-90670095D01*
X124260571Y-90717714D01*
X124355809Y-90765333D01*
X124593904Y-90765333D01*
X124689142Y-90717714D01*
X124736761Y-90670095D01*
X124784380Y-90574857D01*
X124784380Y-90289142D01*
X124736761Y-90193904D01*
X124689142Y-90146285D01*
X123784380Y-91384380D02*
X123784380Y-91479619D01*
X123832000Y-91574857D01*
X123879619Y-91622476D01*
X123974857Y-91670095D01*
X124165333Y-91717714D01*
X124403428Y-91717714D01*
X124593904Y-91670095D01*
X124689142Y-91622476D01*
X124736761Y-91574857D01*
X124784380Y-91479619D01*
X124784380Y-91384380D01*
X124736761Y-91289142D01*
X124689142Y-91241523D01*
X124593904Y-91193904D01*
X124403428Y-91146285D01*
X124165333Y-91146285D01*
X123974857Y-91193904D01*
X123879619Y-91241523D01*
X123832000Y-91289142D01*
X123784380Y-91384380D01*
X123879619Y-92098666D02*
X123832000Y-92146285D01*
X123784380Y-92241523D01*
X123784380Y-92479619D01*
X123832000Y-92574857D01*
X123879619Y-92622476D01*
X123974857Y-92670095D01*
X124070095Y-92670095D01*
X124212952Y-92622476D01*
X124784380Y-92051047D01*
X124784380Y-92670095D01*
G04 #@! TO.C,R303*
X127865047Y-68396380D02*
X128198380Y-67920190D01*
X128436476Y-68396380D02*
X128436476Y-67396380D01*
X128055523Y-67396380D01*
X127960285Y-67444000D01*
X127912666Y-67491619D01*
X127865047Y-67586857D01*
X127865047Y-67729714D01*
X127912666Y-67824952D01*
X127960285Y-67872571D01*
X128055523Y-67920190D01*
X128436476Y-67920190D01*
X127531714Y-67396380D02*
X126912666Y-67396380D01*
X127246000Y-67777333D01*
X127103142Y-67777333D01*
X127007904Y-67824952D01*
X126960285Y-67872571D01*
X126912666Y-67967809D01*
X126912666Y-68205904D01*
X126960285Y-68301142D01*
X127007904Y-68348761D01*
X127103142Y-68396380D01*
X127388857Y-68396380D01*
X127484095Y-68348761D01*
X127531714Y-68301142D01*
X126293619Y-67396380D02*
X126198380Y-67396380D01*
X126103142Y-67444000D01*
X126055523Y-67491619D01*
X126007904Y-67586857D01*
X125960285Y-67777333D01*
X125960285Y-68015428D01*
X126007904Y-68205904D01*
X126055523Y-68301142D01*
X126103142Y-68348761D01*
X126198380Y-68396380D01*
X126293619Y-68396380D01*
X126388857Y-68348761D01*
X126436476Y-68301142D01*
X126484095Y-68205904D01*
X126531714Y-68015428D01*
X126531714Y-67777333D01*
X126484095Y-67586857D01*
X126436476Y-67491619D01*
X126388857Y-67444000D01*
X126293619Y-67396380D01*
X125626952Y-67396380D02*
X125007904Y-67396380D01*
X125341238Y-67777333D01*
X125198380Y-67777333D01*
X125103142Y-67824952D01*
X125055523Y-67872571D01*
X125007904Y-67967809D01*
X125007904Y-68205904D01*
X125055523Y-68301142D01*
X125103142Y-68348761D01*
X125198380Y-68396380D01*
X125484095Y-68396380D01*
X125579333Y-68348761D01*
X125626952Y-68301142D01*
G04 #@! TO.C,C302*
X127348047Y-77699142D02*
X127395666Y-77746761D01*
X127538523Y-77794380D01*
X127633761Y-77794380D01*
X127776619Y-77746761D01*
X127871857Y-77651523D01*
X127919476Y-77556285D01*
X127967095Y-77365809D01*
X127967095Y-77222952D01*
X127919476Y-77032476D01*
X127871857Y-76937238D01*
X127776619Y-76842000D01*
X127633761Y-76794380D01*
X127538523Y-76794380D01*
X127395666Y-76842000D01*
X127348047Y-76889619D01*
X127014714Y-76794380D02*
X126395666Y-76794380D01*
X126729000Y-77175333D01*
X126586142Y-77175333D01*
X126490904Y-77222952D01*
X126443285Y-77270571D01*
X126395666Y-77365809D01*
X126395666Y-77603904D01*
X126443285Y-77699142D01*
X126490904Y-77746761D01*
X126586142Y-77794380D01*
X126871857Y-77794380D01*
X126967095Y-77746761D01*
X127014714Y-77699142D01*
X125776619Y-76794380D02*
X125681380Y-76794380D01*
X125586142Y-76842000D01*
X125538523Y-76889619D01*
X125490904Y-76984857D01*
X125443285Y-77175333D01*
X125443285Y-77413428D01*
X125490904Y-77603904D01*
X125538523Y-77699142D01*
X125586142Y-77746761D01*
X125681380Y-77794380D01*
X125776619Y-77794380D01*
X125871857Y-77746761D01*
X125919476Y-77699142D01*
X125967095Y-77603904D01*
X126014714Y-77413428D01*
X126014714Y-77175333D01*
X125967095Y-76984857D01*
X125919476Y-76889619D01*
X125871857Y-76842000D01*
X125776619Y-76794380D01*
X125062333Y-76889619D02*
X125014714Y-76842000D01*
X124919476Y-76794380D01*
X124681380Y-76794380D01*
X124586142Y-76842000D01*
X124538523Y-76889619D01*
X124490904Y-76984857D01*
X124490904Y-77080095D01*
X124538523Y-77222952D01*
X125109952Y-77794380D01*
X124490904Y-77794380D01*
G04 #@! TO.C,C301*
X127357047Y-74905142D02*
X127404666Y-74952761D01*
X127547523Y-75000380D01*
X127642761Y-75000380D01*
X127785619Y-74952761D01*
X127880857Y-74857523D01*
X127928476Y-74762285D01*
X127976095Y-74571809D01*
X127976095Y-74428952D01*
X127928476Y-74238476D01*
X127880857Y-74143238D01*
X127785619Y-74048000D01*
X127642761Y-74000380D01*
X127547523Y-74000380D01*
X127404666Y-74048000D01*
X127357047Y-74095619D01*
X127023714Y-74000380D02*
X126404666Y-74000380D01*
X126738000Y-74381333D01*
X126595142Y-74381333D01*
X126499904Y-74428952D01*
X126452285Y-74476571D01*
X126404666Y-74571809D01*
X126404666Y-74809904D01*
X126452285Y-74905142D01*
X126499904Y-74952761D01*
X126595142Y-75000380D01*
X126880857Y-75000380D01*
X126976095Y-74952761D01*
X127023714Y-74905142D01*
X125785619Y-74000380D02*
X125690380Y-74000380D01*
X125595142Y-74048000D01*
X125547523Y-74095619D01*
X125499904Y-74190857D01*
X125452285Y-74381333D01*
X125452285Y-74619428D01*
X125499904Y-74809904D01*
X125547523Y-74905142D01*
X125595142Y-74952761D01*
X125690380Y-75000380D01*
X125785619Y-75000380D01*
X125880857Y-74952761D01*
X125928476Y-74905142D01*
X125976095Y-74809904D01*
X126023714Y-74619428D01*
X126023714Y-74381333D01*
X125976095Y-74190857D01*
X125928476Y-74095619D01*
X125880857Y-74048000D01*
X125785619Y-74000380D01*
X124499904Y-75000380D02*
X125071333Y-75000380D01*
X124785619Y-75000380D02*
X124785619Y-74000380D01*
X124880857Y-74143238D01*
X124976095Y-74238476D01*
X125071333Y-74286095D01*
G04 #@! TO.C,R305*
X127324380Y-89821952D02*
X126848190Y-89488619D01*
X127324380Y-89250523D02*
X126324380Y-89250523D01*
X126324380Y-89631476D01*
X126372000Y-89726714D01*
X126419619Y-89774333D01*
X126514857Y-89821952D01*
X126657714Y-89821952D01*
X126752952Y-89774333D01*
X126800571Y-89726714D01*
X126848190Y-89631476D01*
X126848190Y-89250523D01*
X126324380Y-90155285D02*
X126324380Y-90774333D01*
X126705333Y-90441000D01*
X126705333Y-90583857D01*
X126752952Y-90679095D01*
X126800571Y-90726714D01*
X126895809Y-90774333D01*
X127133904Y-90774333D01*
X127229142Y-90726714D01*
X127276761Y-90679095D01*
X127324380Y-90583857D01*
X127324380Y-90298142D01*
X127276761Y-90202904D01*
X127229142Y-90155285D01*
X126324380Y-91393380D02*
X126324380Y-91488619D01*
X126372000Y-91583857D01*
X126419619Y-91631476D01*
X126514857Y-91679095D01*
X126705333Y-91726714D01*
X126943428Y-91726714D01*
X127133904Y-91679095D01*
X127229142Y-91631476D01*
X127276761Y-91583857D01*
X127324380Y-91488619D01*
X127324380Y-91393380D01*
X127276761Y-91298142D01*
X127229142Y-91250523D01*
X127133904Y-91202904D01*
X126943428Y-91155285D01*
X126705333Y-91155285D01*
X126514857Y-91202904D01*
X126419619Y-91250523D01*
X126372000Y-91298142D01*
X126324380Y-91393380D01*
X126324380Y-92631476D02*
X126324380Y-92155285D01*
X126800571Y-92107666D01*
X126752952Y-92155285D01*
X126705333Y-92250523D01*
X126705333Y-92488619D01*
X126752952Y-92583857D01*
X126800571Y-92631476D01*
X126895809Y-92679095D01*
X127133904Y-92679095D01*
X127229142Y-92631476D01*
X127276761Y-92583857D01*
X127324380Y-92488619D01*
X127324380Y-92250523D01*
X127276761Y-92155285D01*
X127229142Y-92107666D01*
G04 #@! TO.C,R307*
X129864380Y-89812952D02*
X129388190Y-89479619D01*
X129864380Y-89241523D02*
X128864380Y-89241523D01*
X128864380Y-89622476D01*
X128912000Y-89717714D01*
X128959619Y-89765333D01*
X129054857Y-89812952D01*
X129197714Y-89812952D01*
X129292952Y-89765333D01*
X129340571Y-89717714D01*
X129388190Y-89622476D01*
X129388190Y-89241523D01*
X128864380Y-90146285D02*
X128864380Y-90765333D01*
X129245333Y-90432000D01*
X129245333Y-90574857D01*
X129292952Y-90670095D01*
X129340571Y-90717714D01*
X129435809Y-90765333D01*
X129673904Y-90765333D01*
X129769142Y-90717714D01*
X129816761Y-90670095D01*
X129864380Y-90574857D01*
X129864380Y-90289142D01*
X129816761Y-90193904D01*
X129769142Y-90146285D01*
X128864380Y-91384380D02*
X128864380Y-91479619D01*
X128912000Y-91574857D01*
X128959619Y-91622476D01*
X129054857Y-91670095D01*
X129245333Y-91717714D01*
X129483428Y-91717714D01*
X129673904Y-91670095D01*
X129769142Y-91622476D01*
X129816761Y-91574857D01*
X129864380Y-91479619D01*
X129864380Y-91384380D01*
X129816761Y-91289142D01*
X129769142Y-91241523D01*
X129673904Y-91193904D01*
X129483428Y-91146285D01*
X129245333Y-91146285D01*
X129054857Y-91193904D01*
X128959619Y-91241523D01*
X128912000Y-91289142D01*
X128864380Y-91384380D01*
X128864380Y-92051047D02*
X128864380Y-92717714D01*
X129864380Y-92289142D01*
G04 #@! TO.C,C201*
X175871047Y-138659142D02*
X175918666Y-138706761D01*
X176061523Y-138754380D01*
X176156761Y-138754380D01*
X176299619Y-138706761D01*
X176394857Y-138611523D01*
X176442476Y-138516285D01*
X176490095Y-138325809D01*
X176490095Y-138182952D01*
X176442476Y-137992476D01*
X176394857Y-137897238D01*
X176299619Y-137802000D01*
X176156761Y-137754380D01*
X176061523Y-137754380D01*
X175918666Y-137802000D01*
X175871047Y-137849619D01*
X175490095Y-137849619D02*
X175442476Y-137802000D01*
X175347238Y-137754380D01*
X175109142Y-137754380D01*
X175013904Y-137802000D01*
X174966285Y-137849619D01*
X174918666Y-137944857D01*
X174918666Y-138040095D01*
X174966285Y-138182952D01*
X175537714Y-138754380D01*
X174918666Y-138754380D01*
X174299619Y-137754380D02*
X174204380Y-137754380D01*
X174109142Y-137802000D01*
X174061523Y-137849619D01*
X174013904Y-137944857D01*
X173966285Y-138135333D01*
X173966285Y-138373428D01*
X174013904Y-138563904D01*
X174061523Y-138659142D01*
X174109142Y-138706761D01*
X174204380Y-138754380D01*
X174299619Y-138754380D01*
X174394857Y-138706761D01*
X174442476Y-138659142D01*
X174490095Y-138563904D01*
X174537714Y-138373428D01*
X174537714Y-138135333D01*
X174490095Y-137944857D01*
X174442476Y-137849619D01*
X174394857Y-137802000D01*
X174299619Y-137754380D01*
X173013904Y-138754380D02*
X173585333Y-138754380D01*
X173299619Y-138754380D02*
X173299619Y-137754380D01*
X173394857Y-137897238D01*
X173490095Y-137992476D01*
X173585333Y-138040095D01*
G04 #@! TO.C,C202*
X175871047Y-111735142D02*
X175918666Y-111782761D01*
X176061523Y-111830380D01*
X176156761Y-111830380D01*
X176299619Y-111782761D01*
X176394857Y-111687523D01*
X176442476Y-111592285D01*
X176490095Y-111401809D01*
X176490095Y-111258952D01*
X176442476Y-111068476D01*
X176394857Y-110973238D01*
X176299619Y-110878000D01*
X176156761Y-110830380D01*
X176061523Y-110830380D01*
X175918666Y-110878000D01*
X175871047Y-110925619D01*
X175490095Y-110925619D02*
X175442476Y-110878000D01*
X175347238Y-110830380D01*
X175109142Y-110830380D01*
X175013904Y-110878000D01*
X174966285Y-110925619D01*
X174918666Y-111020857D01*
X174918666Y-111116095D01*
X174966285Y-111258952D01*
X175537714Y-111830380D01*
X174918666Y-111830380D01*
X174299619Y-110830380D02*
X174204380Y-110830380D01*
X174109142Y-110878000D01*
X174061523Y-110925619D01*
X174013904Y-111020857D01*
X173966285Y-111211333D01*
X173966285Y-111449428D01*
X174013904Y-111639904D01*
X174061523Y-111735142D01*
X174109142Y-111782761D01*
X174204380Y-111830380D01*
X174299619Y-111830380D01*
X174394857Y-111782761D01*
X174442476Y-111735142D01*
X174490095Y-111639904D01*
X174537714Y-111449428D01*
X174537714Y-111211333D01*
X174490095Y-111020857D01*
X174442476Y-110925619D01*
X174394857Y-110878000D01*
X174299619Y-110830380D01*
X173585333Y-110925619D02*
X173537714Y-110878000D01*
X173442476Y-110830380D01*
X173204380Y-110830380D01*
X173109142Y-110878000D01*
X173061523Y-110925619D01*
X173013904Y-111020857D01*
X173013904Y-111116095D01*
X173061523Y-111258952D01*
X173632952Y-111830380D01*
X173013904Y-111830380D01*
G04 #@! TD*
M02*
