G04 #@! TF.GenerationSoftware,KiCad,Pcbnew,5.0.2+dfsg1-1~bpo9+1*
G04 #@! TF.CreationDate,2019-06-29T23:35:38+02:00*
G04 #@! TF.ProjectId,PCB_I2C,5043425f-4932-4432-9e6b-696361645f70,rev?*
G04 #@! TF.SameCoordinates,Original*
G04 #@! TF.FileFunction,Legend,Top*
G04 #@! TF.FilePolarity,Positive*
%FSLAX46Y46*%
G04 Gerber Fmt 4.6, Leading zero omitted, Abs format (unit mm)*
G04 Created by KiCad (PCBNEW 5.0.2+dfsg1-1~bpo9+1) date sam. 29 juin 2019 23:35:38 CEST*
%MOMM*%
%LPD*%
G01*
G04 APERTURE LIST*
%ADD10C,0.300000*%
%ADD11C,0.250000*%
%ADD12C,0.150000*%
%ADD13C,0.200000*%
%ADD14C,0.120000*%
G04 APERTURE END LIST*
D10*
X158690857Y-66210571D02*
X158690857Y-64710571D01*
X159333714Y-64853428D02*
X159405142Y-64782000D01*
X159548000Y-64710571D01*
X159905142Y-64710571D01*
X160048000Y-64782000D01*
X160119428Y-64853428D01*
X160190857Y-64996285D01*
X160190857Y-65139142D01*
X160119428Y-65353428D01*
X159262285Y-66210571D01*
X160190857Y-66210571D01*
X161690857Y-66067714D02*
X161619428Y-66139142D01*
X161405142Y-66210571D01*
X161262285Y-66210571D01*
X161048000Y-66139142D01*
X160905142Y-65996285D01*
X160833714Y-65853428D01*
X160762285Y-65567714D01*
X160762285Y-65353428D01*
X160833714Y-65067714D01*
X160905142Y-64924857D01*
X161048000Y-64782000D01*
X161262285Y-64710571D01*
X161405142Y-64710571D01*
X161619428Y-64782000D01*
X161690857Y-64853428D01*
X162333714Y-65639142D02*
X163476571Y-65639142D01*
X164048000Y-64710571D02*
X164976571Y-64710571D01*
X164476571Y-65282000D01*
X164690857Y-65282000D01*
X164833714Y-65353428D01*
X164905142Y-65424857D01*
X164976571Y-65567714D01*
X164976571Y-65924857D01*
X164905142Y-66067714D01*
X164833714Y-66139142D01*
X164690857Y-66210571D01*
X164262285Y-66210571D01*
X164119428Y-66139142D01*
X164048000Y-66067714D01*
X158690857Y-72306571D02*
X158690857Y-70806571D01*
X159333714Y-70949428D02*
X159405142Y-70878000D01*
X159548000Y-70806571D01*
X159905142Y-70806571D01*
X160048000Y-70878000D01*
X160119428Y-70949428D01*
X160190857Y-71092285D01*
X160190857Y-71235142D01*
X160119428Y-71449428D01*
X159262285Y-72306571D01*
X160190857Y-72306571D01*
X161690857Y-72163714D02*
X161619428Y-72235142D01*
X161405142Y-72306571D01*
X161262285Y-72306571D01*
X161048000Y-72235142D01*
X160905142Y-72092285D01*
X160833714Y-71949428D01*
X160762285Y-71663714D01*
X160762285Y-71449428D01*
X160833714Y-71163714D01*
X160905142Y-71020857D01*
X161048000Y-70878000D01*
X161262285Y-70806571D01*
X161405142Y-70806571D01*
X161619428Y-70878000D01*
X161690857Y-70949428D01*
X162333714Y-71735142D02*
X163476571Y-71735142D01*
X164119428Y-70949428D02*
X164190857Y-70878000D01*
X164333714Y-70806571D01*
X164690857Y-70806571D01*
X164833714Y-70878000D01*
X164905142Y-70949428D01*
X164976571Y-71092285D01*
X164976571Y-71235142D01*
X164905142Y-71449428D01*
X164048000Y-72306571D01*
X164976571Y-72306571D01*
X159198857Y-79926571D02*
X159198857Y-78426571D01*
X159841714Y-78569428D02*
X159913142Y-78498000D01*
X160056000Y-78426571D01*
X160413142Y-78426571D01*
X160556000Y-78498000D01*
X160627428Y-78569428D01*
X160698857Y-78712285D01*
X160698857Y-78855142D01*
X160627428Y-79069428D01*
X159770285Y-79926571D01*
X160698857Y-79926571D01*
X162198857Y-79783714D02*
X162127428Y-79855142D01*
X161913142Y-79926571D01*
X161770285Y-79926571D01*
X161556000Y-79855142D01*
X161413142Y-79712285D01*
X161341714Y-79569428D01*
X161270285Y-79283714D01*
X161270285Y-79069428D01*
X161341714Y-78783714D01*
X161413142Y-78640857D01*
X161556000Y-78498000D01*
X161770285Y-78426571D01*
X161913142Y-78426571D01*
X162127428Y-78498000D01*
X162198857Y-78569428D01*
X162841714Y-79355142D02*
X163984571Y-79355142D01*
X165484571Y-79926571D02*
X164627428Y-79926571D01*
X165056000Y-79926571D02*
X165056000Y-78426571D01*
X164913142Y-78640857D01*
X164770285Y-78783714D01*
X164627428Y-78855142D01*
X158690857Y-83736571D02*
X158690857Y-82236571D01*
X159333714Y-82379428D02*
X159405142Y-82308000D01*
X159548000Y-82236571D01*
X159905142Y-82236571D01*
X160048000Y-82308000D01*
X160119428Y-82379428D01*
X160190857Y-82522285D01*
X160190857Y-82665142D01*
X160119428Y-82879428D01*
X159262285Y-83736571D01*
X160190857Y-83736571D01*
X161690857Y-83593714D02*
X161619428Y-83665142D01*
X161405142Y-83736571D01*
X161262285Y-83736571D01*
X161048000Y-83665142D01*
X160905142Y-83522285D01*
X160833714Y-83379428D01*
X160762285Y-83093714D01*
X160762285Y-82879428D01*
X160833714Y-82593714D01*
X160905142Y-82450857D01*
X161048000Y-82308000D01*
X161262285Y-82236571D01*
X161405142Y-82236571D01*
X161619428Y-82308000D01*
X161690857Y-82379428D01*
X162333714Y-83165142D02*
X163476571Y-83165142D01*
X164476571Y-82236571D02*
X164619428Y-82236571D01*
X164762285Y-82308000D01*
X164833714Y-82379428D01*
X164905142Y-82522285D01*
X164976571Y-82808000D01*
X164976571Y-83165142D01*
X164905142Y-83450857D01*
X164833714Y-83593714D01*
X164762285Y-83665142D01*
X164619428Y-83736571D01*
X164476571Y-83736571D01*
X164333714Y-83665142D01*
X164262285Y-83593714D01*
X164190857Y-83450857D01*
X164119428Y-83165142D01*
X164119428Y-82808000D01*
X164190857Y-82522285D01*
X164262285Y-82379428D01*
X164333714Y-82308000D01*
X164476571Y-82236571D01*
X155444857Y-59606571D02*
X155444857Y-58106571D01*
X156087714Y-58249428D02*
X156159142Y-58178000D01*
X156302000Y-58106571D01*
X156659142Y-58106571D01*
X156802000Y-58178000D01*
X156873428Y-58249428D01*
X156944857Y-58392285D01*
X156944857Y-58535142D01*
X156873428Y-58749428D01*
X156016285Y-59606571D01*
X156944857Y-59606571D01*
X158444857Y-59463714D02*
X158373428Y-59535142D01*
X158159142Y-59606571D01*
X158016285Y-59606571D01*
X157802000Y-59535142D01*
X157659142Y-59392285D01*
X157587714Y-59249428D01*
X157516285Y-58963714D01*
X157516285Y-58749428D01*
X157587714Y-58463714D01*
X157659142Y-58320857D01*
X157802000Y-58178000D01*
X158016285Y-58106571D01*
X158159142Y-58106571D01*
X158373428Y-58178000D01*
X158444857Y-58249428D01*
X159087714Y-59035142D02*
X160230571Y-59035142D01*
X160944857Y-59606571D02*
X160944857Y-58106571D01*
X161444857Y-59178000D01*
X161944857Y-58106571D01*
X161944857Y-59606571D01*
X162587714Y-59178000D02*
X163302000Y-59178000D01*
X162444857Y-59606571D02*
X162944857Y-58106571D01*
X163444857Y-59606571D01*
X163873428Y-59535142D02*
X164087714Y-59606571D01*
X164444857Y-59606571D01*
X164587714Y-59535142D01*
X164659142Y-59463714D01*
X164730571Y-59320857D01*
X164730571Y-59178000D01*
X164659142Y-59035142D01*
X164587714Y-58963714D01*
X164444857Y-58892285D01*
X164159142Y-58820857D01*
X164016285Y-58749428D01*
X163944857Y-58678000D01*
X163873428Y-58535142D01*
X163873428Y-58392285D01*
X163944857Y-58249428D01*
X164016285Y-58178000D01*
X164159142Y-58106571D01*
X164516285Y-58106571D01*
X164730571Y-58178000D01*
X165159142Y-58106571D02*
X166016285Y-58106571D01*
X165587714Y-59606571D02*
X165587714Y-58106571D01*
X166516285Y-58820857D02*
X167016285Y-58820857D01*
X167230571Y-59606571D02*
X166516285Y-59606571D01*
X166516285Y-58106571D01*
X167230571Y-58106571D01*
X168730571Y-59606571D02*
X168230571Y-58892285D01*
X167873428Y-59606571D02*
X167873428Y-58106571D01*
X168444857Y-58106571D01*
X168587714Y-58178000D01*
X168659142Y-58249428D01*
X168730571Y-58392285D01*
X168730571Y-58606571D01*
X168659142Y-58749428D01*
X168587714Y-58820857D01*
X168444857Y-58892285D01*
X167873428Y-58892285D01*
D11*
X131810380Y-95972380D02*
X132000857Y-95972380D01*
X132096095Y-96020000D01*
X132191333Y-96115238D01*
X132238952Y-96305714D01*
X132238952Y-96639047D01*
X132191333Y-96829523D01*
X132096095Y-96924761D01*
X132000857Y-96972380D01*
X131810380Y-96972380D01*
X131715142Y-96924761D01*
X131619904Y-96829523D01*
X131572285Y-96639047D01*
X131572285Y-96305714D01*
X131619904Y-96115238D01*
X131715142Y-96020000D01*
X131810380Y-95972380D01*
X133000857Y-96448571D02*
X132667523Y-96448571D01*
X132667523Y-96972380D02*
X132667523Y-95972380D01*
X133143714Y-95972380D01*
X133858000Y-96448571D02*
X133524666Y-96448571D01*
X133524666Y-96972380D02*
X133524666Y-95972380D01*
X134000857Y-95972380D01*
X134381809Y-96448571D02*
X135143714Y-96448571D01*
X135143714Y-96734285D02*
X134381809Y-96734285D01*
X135810380Y-95972380D02*
X135905619Y-95972380D01*
X136000857Y-96020000D01*
X136048476Y-96067619D01*
X136096095Y-96162857D01*
X136143714Y-96353333D01*
X136143714Y-96591428D01*
X136096095Y-96781904D01*
X136048476Y-96877142D01*
X136000857Y-96924761D01*
X135905619Y-96972380D01*
X135810380Y-96972380D01*
X135715142Y-96924761D01*
X135667523Y-96877142D01*
X135619904Y-96781904D01*
X135572285Y-96591428D01*
X135572285Y-96353333D01*
X135619904Y-96162857D01*
X135667523Y-96067619D01*
X135715142Y-96020000D01*
X135810380Y-95972380D01*
X132397714Y-86574380D02*
X132588190Y-86574380D01*
X132683428Y-86622000D01*
X132778666Y-86717238D01*
X132826285Y-86907714D01*
X132826285Y-87241047D01*
X132778666Y-87431523D01*
X132683428Y-87526761D01*
X132588190Y-87574380D01*
X132397714Y-87574380D01*
X132302476Y-87526761D01*
X132207238Y-87431523D01*
X132159619Y-87241047D01*
X132159619Y-86907714D01*
X132207238Y-86717238D01*
X132302476Y-86622000D01*
X132397714Y-86574380D01*
X133254857Y-87574380D02*
X133254857Y-86574380D01*
X133826285Y-87574380D01*
X133826285Y-86574380D01*
X134302476Y-87050571D02*
X135064380Y-87050571D01*
X135064380Y-87336285D02*
X134302476Y-87336285D01*
X136064380Y-87574380D02*
X135492952Y-87574380D01*
X135778666Y-87574380D02*
X135778666Y-86574380D01*
X135683428Y-86717238D01*
X135588190Y-86812476D01*
X135492952Y-86860095D01*
X120515428Y-78805761D02*
X120658285Y-78853380D01*
X120896380Y-78853380D01*
X120991619Y-78805761D01*
X121039238Y-78758142D01*
X121086857Y-78662904D01*
X121086857Y-78567666D01*
X121039238Y-78472428D01*
X120991619Y-78424809D01*
X120896380Y-78377190D01*
X120705904Y-78329571D01*
X120610666Y-78281952D01*
X120563047Y-78234333D01*
X120515428Y-78139095D01*
X120515428Y-78043857D01*
X120563047Y-77948619D01*
X120610666Y-77901000D01*
X120705904Y-77853380D01*
X120944000Y-77853380D01*
X121086857Y-77901000D01*
X121420190Y-77853380D02*
X121658285Y-78853380D01*
X121848761Y-78139095D01*
X122039238Y-78853380D01*
X122277333Y-77853380D01*
X123086857Y-78186714D02*
X123086857Y-78853380D01*
X122848761Y-77805761D02*
X122610666Y-78520047D01*
X123229714Y-78520047D01*
X123610666Y-78758142D02*
X123658285Y-78805761D01*
X123610666Y-78853380D01*
X123563047Y-78805761D01*
X123610666Y-78758142D01*
X123610666Y-78853380D01*
X123610666Y-78234333D02*
X123658285Y-78281952D01*
X123610666Y-78329571D01*
X123563047Y-78281952D01*
X123610666Y-78234333D01*
X123610666Y-78329571D01*
X124563047Y-78853380D02*
X124086857Y-78853380D01*
X124086857Y-77853380D01*
X124896380Y-78329571D02*
X125229714Y-78329571D01*
X125372571Y-78853380D02*
X124896380Y-78853380D01*
X124896380Y-77853380D01*
X125372571Y-77853380D01*
X125801142Y-78853380D02*
X125801142Y-77853380D01*
X126039238Y-77853380D01*
X126182095Y-77901000D01*
X126277333Y-77996238D01*
X126324952Y-78091476D01*
X126372571Y-78281952D01*
X126372571Y-78424809D01*
X126324952Y-78615285D01*
X126277333Y-78710523D01*
X126182095Y-78805761D01*
X126039238Y-78853380D01*
X125801142Y-78853380D01*
X120967809Y-80555761D02*
X121110666Y-80603380D01*
X121348761Y-80603380D01*
X121444000Y-80555761D01*
X121491619Y-80508142D01*
X121539238Y-80412904D01*
X121539238Y-80317666D01*
X121491619Y-80222428D01*
X121444000Y-80174809D01*
X121348761Y-80127190D01*
X121158285Y-80079571D01*
X121063047Y-80031952D01*
X121015428Y-79984333D01*
X120967809Y-79889095D01*
X120967809Y-79793857D01*
X121015428Y-79698619D01*
X121063047Y-79651000D01*
X121158285Y-79603380D01*
X121396380Y-79603380D01*
X121539238Y-79651000D01*
X121872571Y-79603380D02*
X122110666Y-80603380D01*
X122301142Y-79889095D01*
X122491619Y-80603380D01*
X122729714Y-79603380D01*
X123015428Y-79603380D02*
X123634476Y-79603380D01*
X123301142Y-79984333D01*
X123444000Y-79984333D01*
X123539238Y-80031952D01*
X123586857Y-80079571D01*
X123634476Y-80174809D01*
X123634476Y-80412904D01*
X123586857Y-80508142D01*
X123539238Y-80555761D01*
X123444000Y-80603380D01*
X123158285Y-80603380D01*
X123063047Y-80555761D01*
X123015428Y-80508142D01*
X124063047Y-80508142D02*
X124110666Y-80555761D01*
X124063047Y-80603380D01*
X124015428Y-80555761D01*
X124063047Y-80508142D01*
X124063047Y-80603380D01*
X124063047Y-79984333D02*
X124110666Y-80031952D01*
X124063047Y-80079571D01*
X124015428Y-80031952D01*
X124063047Y-79984333D01*
X124063047Y-80079571D01*
X124491619Y-80317666D02*
X124967809Y-80317666D01*
X124396380Y-80603380D02*
X124729714Y-79603380D01*
X125063047Y-80603380D01*
X125348761Y-79698619D02*
X125396380Y-79651000D01*
X125491619Y-79603380D01*
X125729714Y-79603380D01*
X125824952Y-79651000D01*
X125872571Y-79698619D01*
X125920190Y-79793857D01*
X125920190Y-79889095D01*
X125872571Y-80031952D01*
X125301142Y-80603380D01*
X125920190Y-80603380D01*
X120967809Y-82305761D02*
X121110666Y-82353380D01*
X121348761Y-82353380D01*
X121444000Y-82305761D01*
X121491619Y-82258142D01*
X121539238Y-82162904D01*
X121539238Y-82067666D01*
X121491619Y-81972428D01*
X121444000Y-81924809D01*
X121348761Y-81877190D01*
X121158285Y-81829571D01*
X121063047Y-81781952D01*
X121015428Y-81734333D01*
X120967809Y-81639095D01*
X120967809Y-81543857D01*
X121015428Y-81448619D01*
X121063047Y-81401000D01*
X121158285Y-81353380D01*
X121396380Y-81353380D01*
X121539238Y-81401000D01*
X121872571Y-81353380D02*
X122110666Y-82353380D01*
X122301142Y-81639095D01*
X122491619Y-82353380D01*
X122729714Y-81353380D01*
X123063047Y-81448619D02*
X123110666Y-81401000D01*
X123205904Y-81353380D01*
X123444000Y-81353380D01*
X123539238Y-81401000D01*
X123586857Y-81448619D01*
X123634476Y-81543857D01*
X123634476Y-81639095D01*
X123586857Y-81781952D01*
X123015428Y-82353380D01*
X123634476Y-82353380D01*
X124063047Y-82258142D02*
X124110666Y-82305761D01*
X124063047Y-82353380D01*
X124015428Y-82305761D01*
X124063047Y-82258142D01*
X124063047Y-82353380D01*
X124063047Y-81734333D02*
X124110666Y-81781952D01*
X124063047Y-81829571D01*
X124015428Y-81781952D01*
X124063047Y-81734333D01*
X124063047Y-81829571D01*
X124491619Y-82067666D02*
X124967809Y-82067666D01*
X124396380Y-82353380D02*
X124729714Y-81353380D01*
X125063047Y-82353380D01*
X125920190Y-82353380D02*
X125348761Y-82353380D01*
X125634476Y-82353380D02*
X125634476Y-81353380D01*
X125539238Y-81496238D01*
X125444000Y-81591476D01*
X125348761Y-81639095D01*
X120967809Y-84055761D02*
X121110666Y-84103380D01*
X121348761Y-84103380D01*
X121444000Y-84055761D01*
X121491619Y-84008142D01*
X121539238Y-83912904D01*
X121539238Y-83817666D01*
X121491619Y-83722428D01*
X121444000Y-83674809D01*
X121348761Y-83627190D01*
X121158285Y-83579571D01*
X121063047Y-83531952D01*
X121015428Y-83484333D01*
X120967809Y-83389095D01*
X120967809Y-83293857D01*
X121015428Y-83198619D01*
X121063047Y-83151000D01*
X121158285Y-83103380D01*
X121396380Y-83103380D01*
X121539238Y-83151000D01*
X121872571Y-83103380D02*
X122110666Y-84103380D01*
X122301142Y-83389095D01*
X122491619Y-84103380D01*
X122729714Y-83103380D01*
X123634476Y-84103380D02*
X123063047Y-84103380D01*
X123348761Y-84103380D02*
X123348761Y-83103380D01*
X123253523Y-83246238D01*
X123158285Y-83341476D01*
X123063047Y-83389095D01*
X124063047Y-84008142D02*
X124110666Y-84055761D01*
X124063047Y-84103380D01*
X124015428Y-84055761D01*
X124063047Y-84008142D01*
X124063047Y-84103380D01*
X124063047Y-83484333D02*
X124110666Y-83531952D01*
X124063047Y-83579571D01*
X124015428Y-83531952D01*
X124063047Y-83484333D01*
X124063047Y-83579571D01*
X124491619Y-83817666D02*
X124967809Y-83817666D01*
X124396380Y-84103380D02*
X124729714Y-83103380D01*
X125063047Y-84103380D01*
X125586857Y-83103380D02*
X125682095Y-83103380D01*
X125777333Y-83151000D01*
X125824952Y-83198619D01*
X125872571Y-83293857D01*
X125920190Y-83484333D01*
X125920190Y-83722428D01*
X125872571Y-83912904D01*
X125824952Y-84008142D01*
X125777333Y-84055761D01*
X125682095Y-84103380D01*
X125586857Y-84103380D01*
X125491619Y-84055761D01*
X125444000Y-84008142D01*
X125396380Y-83912904D01*
X125348761Y-83722428D01*
X125348761Y-83484333D01*
X125396380Y-83293857D01*
X125444000Y-83198619D01*
X125491619Y-83151000D01*
X125586857Y-83103380D01*
X136818666Y-116284285D02*
X136818666Y-115808095D01*
X137104380Y-116379523D02*
X136104380Y-116046190D01*
X137104380Y-115712857D01*
X136199619Y-115427142D02*
X136152000Y-115379523D01*
X136104380Y-115284285D01*
X136104380Y-115046190D01*
X136152000Y-114950952D01*
X136199619Y-114903333D01*
X136294857Y-114855714D01*
X136390095Y-114855714D01*
X136532952Y-114903333D01*
X137104380Y-115474761D01*
X137104380Y-114855714D01*
X138596666Y-116284285D02*
X138596666Y-115808095D01*
X138882380Y-116379523D02*
X137882380Y-116046190D01*
X138882380Y-115712857D01*
X138882380Y-114855714D02*
X138882380Y-115427142D01*
X138882380Y-115141428D02*
X137882380Y-115141428D01*
X138025238Y-115236666D01*
X138120476Y-115331904D01*
X138168095Y-115427142D01*
X140374666Y-116284285D02*
X140374666Y-115808095D01*
X140660380Y-116379523D02*
X139660380Y-116046190D01*
X140660380Y-115712857D01*
X139660380Y-115189047D02*
X139660380Y-115093809D01*
X139708000Y-114998571D01*
X139755619Y-114950952D01*
X139850857Y-114903333D01*
X140041333Y-114855714D01*
X140279428Y-114855714D01*
X140469904Y-114903333D01*
X140565142Y-114950952D01*
X140612761Y-114998571D01*
X140660380Y-115093809D01*
X140660380Y-115189047D01*
X140612761Y-115284285D01*
X140565142Y-115331904D01*
X140469904Y-115379523D01*
X140279428Y-115427142D01*
X140041333Y-115427142D01*
X139850857Y-115379523D01*
X139755619Y-115331904D01*
X139708000Y-115284285D01*
X139660380Y-115189047D01*
D12*
X119634000Y-97790000D02*
X149860000Y-97790000D01*
D10*
X117943428Y-87443571D02*
X118229142Y-87443571D01*
X118372000Y-87515000D01*
X118514857Y-87657857D01*
X118586285Y-87943571D01*
X118586285Y-88443571D01*
X118514857Y-88729285D01*
X118372000Y-88872142D01*
X118229142Y-88943571D01*
X117943428Y-88943571D01*
X117800571Y-88872142D01*
X117657714Y-88729285D01*
X117586285Y-88443571D01*
X117586285Y-87943571D01*
X117657714Y-87657857D01*
X117800571Y-87515000D01*
X117943428Y-87443571D01*
X119229142Y-88943571D02*
X119229142Y-87443571D01*
X120086285Y-88943571D01*
X120086285Y-87443571D01*
X122234000Y-62319142D02*
X122448285Y-62390571D01*
X122805428Y-62390571D01*
X122948285Y-62319142D01*
X123019714Y-62247714D01*
X123091142Y-62104857D01*
X123091142Y-61962000D01*
X123019714Y-61819142D01*
X122948285Y-61747714D01*
X122805428Y-61676285D01*
X122519714Y-61604857D01*
X122376857Y-61533428D01*
X122305428Y-61462000D01*
X122234000Y-61319142D01*
X122234000Y-61176285D01*
X122305428Y-61033428D01*
X122376857Y-60962000D01*
X122519714Y-60890571D01*
X122876857Y-60890571D01*
X123091142Y-60962000D01*
X123591142Y-60890571D02*
X123948285Y-62390571D01*
X124234000Y-61319142D01*
X124519714Y-62390571D01*
X124876857Y-60890571D01*
X125448285Y-62390571D02*
X125448285Y-60890571D01*
X125948285Y-60890571D02*
X126805428Y-60890571D01*
X126376857Y-62390571D02*
X126376857Y-60890571D01*
X128162571Y-62247714D02*
X128091142Y-62319142D01*
X127876857Y-62390571D01*
X127734000Y-62390571D01*
X127519714Y-62319142D01*
X127376857Y-62176285D01*
X127305428Y-62033428D01*
X127234000Y-61747714D01*
X127234000Y-61533428D01*
X127305428Y-61247714D01*
X127376857Y-61104857D01*
X127519714Y-60962000D01*
X127734000Y-60890571D01*
X127876857Y-60890571D01*
X128091142Y-60962000D01*
X128162571Y-61033428D01*
X128805428Y-62390571D02*
X128805428Y-60890571D01*
X128805428Y-61604857D02*
X129662571Y-61604857D01*
X129662571Y-62390571D02*
X129662571Y-60890571D01*
X124519714Y-64940571D02*
X124519714Y-63440571D01*
X125162571Y-63583428D02*
X125234000Y-63512000D01*
X125376857Y-63440571D01*
X125734000Y-63440571D01*
X125876857Y-63512000D01*
X125948285Y-63583428D01*
X126019714Y-63726285D01*
X126019714Y-63869142D01*
X125948285Y-64083428D01*
X125091142Y-64940571D01*
X126019714Y-64940571D01*
X127519714Y-64797714D02*
X127448285Y-64869142D01*
X127234000Y-64940571D01*
X127091142Y-64940571D01*
X126876857Y-64869142D01*
X126734000Y-64726285D01*
X126662571Y-64583428D01*
X126591142Y-64297714D01*
X126591142Y-64083428D01*
X126662571Y-63797714D01*
X126734000Y-63654857D01*
X126876857Y-63512000D01*
X127091142Y-63440571D01*
X127234000Y-63440571D01*
X127448285Y-63512000D01*
X127519714Y-63583428D01*
X122412571Y-65990571D02*
X122912571Y-67490571D01*
X123412571Y-65990571D01*
X124198285Y-65990571D02*
X124341142Y-65990571D01*
X124484000Y-66062000D01*
X124555428Y-66133428D01*
X124626857Y-66276285D01*
X124698285Y-66562000D01*
X124698285Y-66919142D01*
X124626857Y-67204857D01*
X124555428Y-67347714D01*
X124484000Y-67419142D01*
X124341142Y-67490571D01*
X124198285Y-67490571D01*
X124055428Y-67419142D01*
X123984000Y-67347714D01*
X123912571Y-67204857D01*
X123841142Y-66919142D01*
X123841142Y-66562000D01*
X123912571Y-66276285D01*
X123984000Y-66133428D01*
X124055428Y-66062000D01*
X124198285Y-65990571D01*
X125341142Y-66919142D02*
X126484000Y-66919142D01*
X127984000Y-67490571D02*
X127126857Y-67490571D01*
X127555428Y-67490571D02*
X127555428Y-65990571D01*
X127412571Y-66204857D01*
X127269714Y-66347714D01*
X127126857Y-66419142D01*
X128912571Y-65990571D02*
X129055428Y-65990571D01*
X129198285Y-66062000D01*
X129269714Y-66133428D01*
X129341142Y-66276285D01*
X129412571Y-66562000D01*
X129412571Y-66919142D01*
X129341142Y-67204857D01*
X129269714Y-67347714D01*
X129198285Y-67419142D01*
X129055428Y-67490571D01*
X128912571Y-67490571D01*
X128769714Y-67419142D01*
X128698285Y-67347714D01*
X128626857Y-67204857D01*
X128555428Y-66919142D01*
X128555428Y-66562000D01*
X128626857Y-66276285D01*
X128698285Y-66133428D01*
X128769714Y-66062000D01*
X128912571Y-65990571D01*
X119345142Y-50692857D02*
X118845142Y-50692857D01*
X118845142Y-51478571D02*
X118845142Y-49978571D01*
X119559428Y-49978571D01*
X120773714Y-50478571D02*
X120773714Y-51478571D01*
X120416571Y-49907142D02*
X120059428Y-50978571D01*
X120988000Y-50978571D01*
X121559428Y-51478571D02*
X121559428Y-49978571D01*
X121916571Y-49978571D01*
X122130857Y-50050000D01*
X122273714Y-50192857D01*
X122345142Y-50335714D01*
X122416571Y-50621428D01*
X122416571Y-50835714D01*
X122345142Y-51121428D01*
X122273714Y-51264285D01*
X122130857Y-51407142D01*
X121916571Y-51478571D01*
X121559428Y-51478571D01*
X123059428Y-50692857D02*
X123559428Y-50692857D01*
X123773714Y-51478571D02*
X123059428Y-51478571D01*
X123059428Y-49978571D01*
X123773714Y-49978571D01*
X124916571Y-50692857D02*
X125130857Y-50764285D01*
X125202285Y-50835714D01*
X125273714Y-50978571D01*
X125273714Y-51192857D01*
X125202285Y-51335714D01*
X125130857Y-51407142D01*
X124988000Y-51478571D01*
X124416571Y-51478571D01*
X124416571Y-49978571D01*
X124916571Y-49978571D01*
X125059428Y-50050000D01*
X125130857Y-50121428D01*
X125202285Y-50264285D01*
X125202285Y-50407142D01*
X125130857Y-50550000D01*
X125059428Y-50621428D01*
X124916571Y-50692857D01*
X124416571Y-50692857D01*
X127345142Y-49978571D02*
X127488000Y-49978571D01*
X127630857Y-50050000D01*
X127702285Y-50121428D01*
X127773714Y-50264285D01*
X127845142Y-50550000D01*
X127845142Y-50907142D01*
X127773714Y-51192857D01*
X127702285Y-51335714D01*
X127630857Y-51407142D01*
X127488000Y-51478571D01*
X127345142Y-51478571D01*
X127202285Y-51407142D01*
X127130857Y-51335714D01*
X127059428Y-51192857D01*
X126988000Y-50907142D01*
X126988000Y-50550000D01*
X127059428Y-50264285D01*
X127130857Y-50121428D01*
X127202285Y-50050000D01*
X127345142Y-49978571D01*
X129130857Y-49978571D02*
X128845142Y-49978571D01*
X128702285Y-50050000D01*
X128630857Y-50121428D01*
X128488000Y-50335714D01*
X128416571Y-50621428D01*
X128416571Y-51192857D01*
X128488000Y-51335714D01*
X128559428Y-51407142D01*
X128702285Y-51478571D01*
X128988000Y-51478571D01*
X129130857Y-51407142D01*
X129202285Y-51335714D01*
X129273714Y-51192857D01*
X129273714Y-50835714D01*
X129202285Y-50692857D01*
X129130857Y-50621428D01*
X128988000Y-50550000D01*
X128702285Y-50550000D01*
X128559428Y-50621428D01*
X128488000Y-50692857D01*
X128416571Y-50835714D01*
X130988000Y-49907142D02*
X129702285Y-51835714D01*
X132273714Y-51478571D02*
X131416571Y-51478571D01*
X131845142Y-51478571D02*
X131845142Y-49978571D01*
X131702285Y-50192857D01*
X131559428Y-50335714D01*
X131416571Y-50407142D01*
X132988000Y-51478571D02*
X133273714Y-51478571D01*
X133416571Y-51407142D01*
X133488000Y-51335714D01*
X133630857Y-51121428D01*
X133702285Y-50835714D01*
X133702285Y-50264285D01*
X133630857Y-50121428D01*
X133559428Y-50050000D01*
X133416571Y-49978571D01*
X133130857Y-49978571D01*
X132988000Y-50050000D01*
X132916571Y-50121428D01*
X132845142Y-50264285D01*
X132845142Y-50621428D01*
X132916571Y-50764285D01*
X132988000Y-50835714D01*
X133130857Y-50907142D01*
X133416571Y-50907142D01*
X133559428Y-50835714D01*
X133630857Y-50764285D01*
X133702285Y-50621428D01*
X121688714Y-121443142D02*
X121760142Y-121514571D01*
X121831571Y-121728857D01*
X121831571Y-121871714D01*
X121760142Y-122086000D01*
X121617285Y-122228857D01*
X121474428Y-122300285D01*
X121188714Y-122371714D01*
X120974428Y-122371714D01*
X120688714Y-122300285D01*
X120545857Y-122228857D01*
X120403000Y-122086000D01*
X120331571Y-121871714D01*
X120331571Y-121728857D01*
X120403000Y-121514571D01*
X120474428Y-121443142D01*
X120331571Y-120514571D02*
X120331571Y-120228857D01*
X120403000Y-120086000D01*
X120545857Y-119943142D01*
X120831571Y-119871714D01*
X121331571Y-119871714D01*
X121617285Y-119943142D01*
X121760142Y-120086000D01*
X121831571Y-120228857D01*
X121831571Y-120514571D01*
X121760142Y-120657428D01*
X121617285Y-120800285D01*
X121331571Y-120871714D01*
X120831571Y-120871714D01*
X120545857Y-120800285D01*
X120403000Y-120657428D01*
X120331571Y-120514571D01*
X121831571Y-118514571D02*
X121831571Y-119228857D01*
X120331571Y-119228857D01*
X120331571Y-117728857D02*
X120331571Y-117443142D01*
X120403000Y-117300285D01*
X120545857Y-117157428D01*
X120831571Y-117086000D01*
X121331571Y-117086000D01*
X121617285Y-117157428D01*
X121760142Y-117300285D01*
X121831571Y-117443142D01*
X121831571Y-117728857D01*
X121760142Y-117871714D01*
X121617285Y-118014571D01*
X121331571Y-118086000D01*
X120831571Y-118086000D01*
X120545857Y-118014571D01*
X120403000Y-117871714D01*
X120331571Y-117728857D01*
X121831571Y-115586000D02*
X121117285Y-116086000D01*
X121831571Y-116443142D02*
X120331571Y-116443142D01*
X120331571Y-115871714D01*
X120403000Y-115728857D01*
X120474428Y-115657428D01*
X120617285Y-115586000D01*
X120831571Y-115586000D01*
X120974428Y-115657428D01*
X121045857Y-115728857D01*
X121117285Y-115871714D01*
X121117285Y-116443142D01*
X121974428Y-115300285D02*
X121974428Y-114157428D01*
X121831571Y-113800285D02*
X120331571Y-113800285D01*
X120474428Y-113157428D02*
X120403000Y-113086000D01*
X120331571Y-112943142D01*
X120331571Y-112586000D01*
X120403000Y-112443142D01*
X120474428Y-112371714D01*
X120617285Y-112300285D01*
X120760142Y-112300285D01*
X120974428Y-112371714D01*
X121831571Y-113228857D01*
X121831571Y-112300285D01*
X121688714Y-110800285D02*
X121760142Y-110871714D01*
X121831571Y-111086000D01*
X121831571Y-111228857D01*
X121760142Y-111443142D01*
X121617285Y-111586000D01*
X121474428Y-111657428D01*
X121188714Y-111728857D01*
X120974428Y-111728857D01*
X120688714Y-111657428D01*
X120545857Y-111586000D01*
X120403000Y-111443142D01*
X120331571Y-111228857D01*
X120331571Y-111086000D01*
X120403000Y-110871714D01*
X120474428Y-110800285D01*
X122881571Y-120157428D02*
X124381571Y-119657428D01*
X122881571Y-119157428D01*
X122881571Y-118371714D02*
X122881571Y-118228857D01*
X122953000Y-118086000D01*
X123024428Y-118014571D01*
X123167285Y-117943142D01*
X123453000Y-117871714D01*
X123810142Y-117871714D01*
X124095857Y-117943142D01*
X124238714Y-118014571D01*
X124310142Y-118086000D01*
X124381571Y-118228857D01*
X124381571Y-118371714D01*
X124310142Y-118514571D01*
X124238714Y-118586000D01*
X124095857Y-118657428D01*
X123810142Y-118728857D01*
X123453000Y-118728857D01*
X123167285Y-118657428D01*
X123024428Y-118586000D01*
X122953000Y-118514571D01*
X122881571Y-118371714D01*
X123810142Y-117228857D02*
X123810142Y-116086000D01*
X123024428Y-115443142D02*
X122953000Y-115371714D01*
X122881571Y-115228857D01*
X122881571Y-114871714D01*
X122953000Y-114728857D01*
X123024428Y-114657428D01*
X123167285Y-114586000D01*
X123310142Y-114586000D01*
X123524428Y-114657428D01*
X124381571Y-115514571D01*
X124381571Y-114586000D01*
X122881571Y-113657428D02*
X122881571Y-113514571D01*
X122953000Y-113371714D01*
X123024428Y-113300285D01*
X123167285Y-113228857D01*
X123453000Y-113157428D01*
X123810142Y-113157428D01*
X124095857Y-113228857D01*
X124238714Y-113300285D01*
X124310142Y-113371714D01*
X124381571Y-113514571D01*
X124381571Y-113657428D01*
X124310142Y-113800285D01*
X124238714Y-113871714D01*
X124095857Y-113943142D01*
X123810142Y-114014571D01*
X123453000Y-114014571D01*
X123167285Y-113943142D01*
X123024428Y-113871714D01*
X122953000Y-113800285D01*
X122881571Y-113657428D01*
D11*
X136245380Y-133000380D02*
X136245380Y-132905142D01*
X136293000Y-132809904D01*
X136340619Y-132762285D01*
X136435857Y-132714666D01*
X136626333Y-132667047D01*
X136864428Y-132667047D01*
X137054904Y-132714666D01*
X137150142Y-132762285D01*
X137197761Y-132809904D01*
X137245380Y-132905142D01*
X137245380Y-133000380D01*
X137197761Y-133095619D01*
X137150142Y-133143238D01*
X137054904Y-133190857D01*
X136864428Y-133238476D01*
X136626333Y-133238476D01*
X136435857Y-133190857D01*
X136340619Y-133143238D01*
X136293000Y-133095619D01*
X136245380Y-133000380D01*
X136245380Y-131809904D02*
X136245380Y-132000380D01*
X136293000Y-132095619D01*
X136340619Y-132143238D01*
X136483476Y-132238476D01*
X136673952Y-132286095D01*
X137054904Y-132286095D01*
X137150142Y-132238476D01*
X137197761Y-132190857D01*
X137245380Y-132095619D01*
X137245380Y-131905142D01*
X137197761Y-131809904D01*
X137150142Y-131762285D01*
X137054904Y-131714666D01*
X136816809Y-131714666D01*
X136721571Y-131762285D01*
X136673952Y-131809904D01*
X136626333Y-131905142D01*
X136626333Y-132095619D01*
X136673952Y-132190857D01*
X136721571Y-132238476D01*
X136816809Y-132286095D01*
X136197761Y-130571809D02*
X137483476Y-131428952D01*
X136340619Y-130286095D02*
X136293000Y-130238476D01*
X136245380Y-130143238D01*
X136245380Y-129905142D01*
X136293000Y-129809904D01*
X136340619Y-129762285D01*
X136435857Y-129714666D01*
X136531095Y-129714666D01*
X136673952Y-129762285D01*
X137245380Y-130333714D01*
X137245380Y-129714666D01*
X136245380Y-129095619D02*
X136245380Y-129000380D01*
X136293000Y-128905142D01*
X136340619Y-128857523D01*
X136435857Y-128809904D01*
X136626333Y-128762285D01*
X136864428Y-128762285D01*
X137054904Y-128809904D01*
X137150142Y-128857523D01*
X137197761Y-128905142D01*
X137245380Y-129000380D01*
X137245380Y-129095619D01*
X137197761Y-129190857D01*
X137150142Y-129238476D01*
X137054904Y-129286095D01*
X136864428Y-129333714D01*
X136626333Y-129333714D01*
X136435857Y-129286095D01*
X136340619Y-129238476D01*
X136293000Y-129190857D01*
X136245380Y-129095619D01*
X137245380Y-127809904D02*
X137245380Y-128381333D01*
X137245380Y-128095619D02*
X136245380Y-128095619D01*
X136388238Y-128190857D01*
X136483476Y-128286095D01*
X136531095Y-128381333D01*
X137245380Y-127333714D02*
X137245380Y-127143238D01*
X137197761Y-127048000D01*
X137150142Y-127000380D01*
X137007285Y-126905142D01*
X136816809Y-126857523D01*
X136435857Y-126857523D01*
X136340619Y-126905142D01*
X136293000Y-126952761D01*
X136245380Y-127048000D01*
X136245380Y-127238476D01*
X136293000Y-127333714D01*
X136340619Y-127381333D01*
X136435857Y-127428952D01*
X136673952Y-127428952D01*
X136769190Y-127381333D01*
X136816809Y-127333714D01*
X136864428Y-127238476D01*
X136864428Y-127048000D01*
X136816809Y-126952761D01*
X136769190Y-126905142D01*
X136673952Y-126857523D01*
X138471571Y-131833714D02*
X138471571Y-132167047D01*
X138995380Y-132167047D02*
X137995380Y-132167047D01*
X137995380Y-131690857D01*
X138328714Y-130881333D02*
X138995380Y-130881333D01*
X137947761Y-131119428D02*
X138662047Y-131357523D01*
X138662047Y-130738476D01*
X138995380Y-130357523D02*
X137995380Y-130357523D01*
X137995380Y-130119428D01*
X138043000Y-129976571D01*
X138138238Y-129881333D01*
X138233476Y-129833714D01*
X138423952Y-129786095D01*
X138566809Y-129786095D01*
X138757285Y-129833714D01*
X138852523Y-129881333D01*
X138947761Y-129976571D01*
X138995380Y-130119428D01*
X138995380Y-130357523D01*
X138471571Y-129357523D02*
X138471571Y-129024190D01*
X138995380Y-128881333D02*
X138995380Y-129357523D01*
X137995380Y-129357523D01*
X137995380Y-128881333D01*
X138471571Y-128119428D02*
X138519190Y-127976571D01*
X138566809Y-127928952D01*
X138662047Y-127881333D01*
X138804904Y-127881333D01*
X138900142Y-127928952D01*
X138947761Y-127976571D01*
X138995380Y-128071809D01*
X138995380Y-128452761D01*
X137995380Y-128452761D01*
X137995380Y-128119428D01*
X138043000Y-128024190D01*
X138090619Y-127976571D01*
X138185857Y-127928952D01*
X138281095Y-127928952D01*
X138376333Y-127976571D01*
X138423952Y-128024190D01*
X138471571Y-128119428D01*
X138471571Y-128452761D01*
D13*
X108204000Y-70866000D02*
X108204000Y-71628000D01*
X108204000Y-71628000D02*
X108204000Y-141986000D01*
D11*
X167366761Y-74175523D02*
X167414380Y-74032666D01*
X167414380Y-73794571D01*
X167366761Y-73699333D01*
X167319142Y-73651714D01*
X167223904Y-73604095D01*
X167128666Y-73604095D01*
X167033428Y-73651714D01*
X166985809Y-73699333D01*
X166938190Y-73794571D01*
X166890571Y-73985047D01*
X166842952Y-74080285D01*
X166795333Y-74127904D01*
X166700095Y-74175523D01*
X166604857Y-74175523D01*
X166509619Y-74127904D01*
X166462000Y-74080285D01*
X166414380Y-73985047D01*
X166414380Y-73746952D01*
X166462000Y-73604095D01*
X166414380Y-73270761D02*
X167414380Y-73032666D01*
X166700095Y-72842190D01*
X167414380Y-72651714D01*
X166414380Y-72413619D01*
X167414380Y-71508857D02*
X167414380Y-72080285D01*
X167414380Y-71794571D02*
X166414380Y-71794571D01*
X166557238Y-71889809D01*
X166652476Y-71985047D01*
X166700095Y-72080285D01*
X167033428Y-71080285D02*
X167033428Y-70318380D01*
X167414380Y-69366000D02*
X167414380Y-69842190D01*
X166414380Y-69842190D01*
X166890571Y-69032666D02*
X166890571Y-68699333D01*
X167414380Y-68556476D02*
X167414380Y-69032666D01*
X166414380Y-69032666D01*
X166414380Y-68556476D01*
X167414380Y-68127904D02*
X166414380Y-68127904D01*
X166414380Y-67889809D01*
X166462000Y-67746952D01*
X166557238Y-67651714D01*
X166652476Y-67604095D01*
X166842952Y-67556476D01*
X166985809Y-67556476D01*
X167176285Y-67604095D01*
X167271523Y-67651714D01*
X167366761Y-67746952D01*
X167414380Y-67889809D01*
X167414380Y-68127904D01*
X169116761Y-73723142D02*
X169164380Y-73580285D01*
X169164380Y-73342190D01*
X169116761Y-73246952D01*
X169069142Y-73199333D01*
X168973904Y-73151714D01*
X168878666Y-73151714D01*
X168783428Y-73199333D01*
X168735809Y-73246952D01*
X168688190Y-73342190D01*
X168640571Y-73532666D01*
X168592952Y-73627904D01*
X168545333Y-73675523D01*
X168450095Y-73723142D01*
X168354857Y-73723142D01*
X168259619Y-73675523D01*
X168212000Y-73627904D01*
X168164380Y-73532666D01*
X168164380Y-73294571D01*
X168212000Y-73151714D01*
X168164380Y-72818380D02*
X169164380Y-72580285D01*
X168450095Y-72389809D01*
X169164380Y-72199333D01*
X168164380Y-71961238D01*
X168259619Y-71627904D02*
X168212000Y-71580285D01*
X168164380Y-71485047D01*
X168164380Y-71246952D01*
X168212000Y-71151714D01*
X168259619Y-71104095D01*
X168354857Y-71056476D01*
X168450095Y-71056476D01*
X168592952Y-71104095D01*
X169164380Y-71675523D01*
X169164380Y-71056476D01*
X168783428Y-70627904D02*
X168783428Y-69866000D01*
X168878666Y-69437428D02*
X168878666Y-68961238D01*
X169164380Y-69532666D02*
X168164380Y-69199333D01*
X169164380Y-68866000D01*
X168164380Y-68342190D02*
X168164380Y-68246952D01*
X168212000Y-68151714D01*
X168259619Y-68104095D01*
X168354857Y-68056476D01*
X168545333Y-68008857D01*
X168783428Y-68008857D01*
X168973904Y-68056476D01*
X169069142Y-68104095D01*
X169116761Y-68151714D01*
X169164380Y-68246952D01*
X169164380Y-68342190D01*
X169116761Y-68437428D01*
X169069142Y-68485047D01*
X168973904Y-68532666D01*
X168783428Y-68580285D01*
X168545333Y-68580285D01*
X168354857Y-68532666D01*
X168259619Y-68485047D01*
X168212000Y-68437428D01*
X168164380Y-68342190D01*
X170866761Y-73723142D02*
X170914380Y-73580285D01*
X170914380Y-73342190D01*
X170866761Y-73246952D01*
X170819142Y-73199333D01*
X170723904Y-73151714D01*
X170628666Y-73151714D01*
X170533428Y-73199333D01*
X170485809Y-73246952D01*
X170438190Y-73342190D01*
X170390571Y-73532666D01*
X170342952Y-73627904D01*
X170295333Y-73675523D01*
X170200095Y-73723142D01*
X170104857Y-73723142D01*
X170009619Y-73675523D01*
X169962000Y-73627904D01*
X169914380Y-73532666D01*
X169914380Y-73294571D01*
X169962000Y-73151714D01*
X169914380Y-72818380D02*
X170914380Y-72580285D01*
X170200095Y-72389809D01*
X170914380Y-72199333D01*
X169914380Y-71961238D01*
X169914380Y-71675523D02*
X169914380Y-71056476D01*
X170295333Y-71389809D01*
X170295333Y-71246952D01*
X170342952Y-71151714D01*
X170390571Y-71104095D01*
X170485809Y-71056476D01*
X170723904Y-71056476D01*
X170819142Y-71104095D01*
X170866761Y-71151714D01*
X170914380Y-71246952D01*
X170914380Y-71532666D01*
X170866761Y-71627904D01*
X170819142Y-71675523D01*
X170533428Y-70627904D02*
X170533428Y-69866000D01*
X170628666Y-69437428D02*
X170628666Y-68961238D01*
X170914380Y-69532666D02*
X169914380Y-69199333D01*
X170914380Y-68866000D01*
X170914380Y-68008857D02*
X170914380Y-68580285D01*
X170914380Y-68294571D02*
X169914380Y-68294571D01*
X170057238Y-68389809D01*
X170152476Y-68485047D01*
X170200095Y-68580285D01*
X172616761Y-73723142D02*
X172664380Y-73580285D01*
X172664380Y-73342190D01*
X172616761Y-73246952D01*
X172569142Y-73199333D01*
X172473904Y-73151714D01*
X172378666Y-73151714D01*
X172283428Y-73199333D01*
X172235809Y-73246952D01*
X172188190Y-73342190D01*
X172140571Y-73532666D01*
X172092952Y-73627904D01*
X172045333Y-73675523D01*
X171950095Y-73723142D01*
X171854857Y-73723142D01*
X171759619Y-73675523D01*
X171712000Y-73627904D01*
X171664380Y-73532666D01*
X171664380Y-73294571D01*
X171712000Y-73151714D01*
X171664380Y-72818380D02*
X172664380Y-72580285D01*
X171950095Y-72389809D01*
X172664380Y-72199333D01*
X171664380Y-71961238D01*
X171997714Y-71151714D02*
X172664380Y-71151714D01*
X171616761Y-71389809D02*
X172331047Y-71627904D01*
X172331047Y-71008857D01*
X172283428Y-70627904D02*
X172283428Y-69866000D01*
X172378666Y-69437428D02*
X172378666Y-68961238D01*
X172664380Y-69532666D02*
X171664380Y-69199333D01*
X172664380Y-68866000D01*
X171759619Y-68580285D02*
X171712000Y-68532666D01*
X171664380Y-68437428D01*
X171664380Y-68199333D01*
X171712000Y-68104095D01*
X171759619Y-68056476D01*
X171854857Y-68008857D01*
X171950095Y-68008857D01*
X172092952Y-68056476D01*
X172664380Y-68627904D01*
X172664380Y-68008857D01*
X175164380Y-73723142D02*
X175164380Y-73532666D01*
X175212000Y-73437428D01*
X175307238Y-73342190D01*
X175497714Y-73294571D01*
X175831047Y-73294571D01*
X176021523Y-73342190D01*
X176116761Y-73437428D01*
X176164380Y-73532666D01*
X176164380Y-73723142D01*
X176116761Y-73818380D01*
X176021523Y-73913619D01*
X175831047Y-73961238D01*
X175497714Y-73961238D01*
X175307238Y-73913619D01*
X175212000Y-73818380D01*
X175164380Y-73723142D01*
X176164380Y-72866000D02*
X175164380Y-72866000D01*
X176164380Y-72294571D01*
X175164380Y-72294571D01*
X175640571Y-70294571D02*
X175640571Y-69532666D01*
X175926285Y-69532666D02*
X175926285Y-70294571D01*
X176164380Y-67770761D02*
X176164380Y-68342190D01*
X176164380Y-68056476D02*
X175164380Y-68056476D01*
X175307238Y-68151714D01*
X175402476Y-68246952D01*
X175450095Y-68342190D01*
X176914380Y-73675523D02*
X176914380Y-73485047D01*
X176962000Y-73389809D01*
X177057238Y-73294571D01*
X177247714Y-73246952D01*
X177581047Y-73246952D01*
X177771523Y-73294571D01*
X177866761Y-73389809D01*
X177914380Y-73485047D01*
X177914380Y-73675523D01*
X177866761Y-73770761D01*
X177771523Y-73866000D01*
X177581047Y-73913619D01*
X177247714Y-73913619D01*
X177057238Y-73866000D01*
X176962000Y-73770761D01*
X176914380Y-73675523D01*
X177390571Y-72485047D02*
X177390571Y-72818380D01*
X177914380Y-72818380D02*
X176914380Y-72818380D01*
X176914380Y-72342190D01*
X177390571Y-71627904D02*
X177390571Y-71961238D01*
X177914380Y-71961238D02*
X176914380Y-71961238D01*
X176914380Y-71485047D01*
X177390571Y-70342190D02*
X177390571Y-69580285D01*
X177676285Y-69580285D02*
X177676285Y-70342190D01*
X176914380Y-68151714D02*
X176914380Y-68056476D01*
X176962000Y-67961238D01*
X177009619Y-67913619D01*
X177104857Y-67866000D01*
X177295333Y-67818380D01*
X177533428Y-67818380D01*
X177723904Y-67866000D01*
X177819142Y-67913619D01*
X177866761Y-67961238D01*
X177914380Y-68056476D01*
X177914380Y-68151714D01*
X177866761Y-68246952D01*
X177819142Y-68294571D01*
X177723904Y-68342190D01*
X177533428Y-68389809D01*
X177295333Y-68389809D01*
X177104857Y-68342190D01*
X177009619Y-68294571D01*
X176962000Y-68246952D01*
X176914380Y-68151714D01*
D10*
X165802571Y-89193571D02*
X165802571Y-88907857D01*
X165874000Y-88765000D01*
X166016857Y-88622142D01*
X166302571Y-88550714D01*
X166802571Y-88550714D01*
X167088285Y-88622142D01*
X167231142Y-88765000D01*
X167302571Y-88907857D01*
X167302571Y-89193571D01*
X167231142Y-89336428D01*
X167088285Y-89479285D01*
X166802571Y-89550714D01*
X166302571Y-89550714D01*
X166016857Y-89479285D01*
X165874000Y-89336428D01*
X165802571Y-89193571D01*
X167302571Y-87907857D02*
X165802571Y-87907857D01*
X167302571Y-87050714D01*
X165802571Y-87050714D01*
D11*
X167102571Y-65285666D02*
X167102571Y-65619000D01*
X167626380Y-65619000D02*
X166626380Y-65619000D01*
X166626380Y-65142809D01*
X166959714Y-64333285D02*
X167626380Y-64333285D01*
X166578761Y-64571380D02*
X167293047Y-64809476D01*
X167293047Y-64190428D01*
X167626380Y-63809476D02*
X166626380Y-63809476D01*
X166626380Y-63571380D01*
X166674000Y-63428523D01*
X166769238Y-63333285D01*
X166864476Y-63285666D01*
X167054952Y-63238047D01*
X167197809Y-63238047D01*
X167388285Y-63285666D01*
X167483523Y-63333285D01*
X167578761Y-63428523D01*
X167626380Y-63571380D01*
X167626380Y-63809476D01*
X167102571Y-62809476D02*
X167102571Y-62476142D01*
X167626380Y-62333285D02*
X167626380Y-62809476D01*
X166626380Y-62809476D01*
X166626380Y-62333285D01*
X167102571Y-61571380D02*
X167150190Y-61428523D01*
X167197809Y-61380904D01*
X167293047Y-61333285D01*
X167435904Y-61333285D01*
X167531142Y-61380904D01*
X167578761Y-61428523D01*
X167626380Y-61523761D01*
X167626380Y-61904714D01*
X166626380Y-61904714D01*
X166626380Y-61571380D01*
X166674000Y-61476142D01*
X166721619Y-61428523D01*
X166816857Y-61380904D01*
X166912095Y-61380904D01*
X167007333Y-61428523D01*
X167054952Y-61476142D01*
X167102571Y-61571380D01*
X167102571Y-61904714D01*
X168376380Y-65119000D02*
X168376380Y-65023761D01*
X168424000Y-64928523D01*
X168471619Y-64880904D01*
X168566857Y-64833285D01*
X168757333Y-64785666D01*
X168995428Y-64785666D01*
X169185904Y-64833285D01*
X169281142Y-64880904D01*
X169328761Y-64928523D01*
X169376380Y-65023761D01*
X169376380Y-65119000D01*
X169328761Y-65214238D01*
X169281142Y-65261857D01*
X169185904Y-65309476D01*
X168995428Y-65357095D01*
X168757333Y-65357095D01*
X168566857Y-65309476D01*
X168471619Y-65261857D01*
X168424000Y-65214238D01*
X168376380Y-65119000D01*
X168376380Y-63928523D02*
X168376380Y-64119000D01*
X168424000Y-64214238D01*
X168471619Y-64261857D01*
X168614476Y-64357095D01*
X168804952Y-64404714D01*
X169185904Y-64404714D01*
X169281142Y-64357095D01*
X169328761Y-64309476D01*
X169376380Y-64214238D01*
X169376380Y-64023761D01*
X169328761Y-63928523D01*
X169281142Y-63880904D01*
X169185904Y-63833285D01*
X168947809Y-63833285D01*
X168852571Y-63880904D01*
X168804952Y-63928523D01*
X168757333Y-64023761D01*
X168757333Y-64214238D01*
X168804952Y-64309476D01*
X168852571Y-64357095D01*
X168947809Y-64404714D01*
X168328761Y-62690428D02*
X169614476Y-63547571D01*
X169376380Y-61833285D02*
X169376380Y-62404714D01*
X169376380Y-62119000D02*
X168376380Y-62119000D01*
X168519238Y-62214238D01*
X168614476Y-62309476D01*
X168662095Y-62404714D01*
X169376380Y-61357095D02*
X169376380Y-61166619D01*
X169328761Y-61071380D01*
X169281142Y-61023761D01*
X169138285Y-60928523D01*
X168947809Y-60880904D01*
X168566857Y-60880904D01*
X168471619Y-60928523D01*
X168424000Y-60976142D01*
X168376380Y-61071380D01*
X168376380Y-61261857D01*
X168424000Y-61357095D01*
X168471619Y-61404714D01*
X168566857Y-61452333D01*
X168804952Y-61452333D01*
X168900190Y-61404714D01*
X168947809Y-61357095D01*
X168995428Y-61261857D01*
X168995428Y-61071380D01*
X168947809Y-60976142D01*
X168900190Y-60928523D01*
X168804952Y-60880904D01*
X171126380Y-66404714D02*
X170126380Y-66404714D01*
X170602571Y-66404714D02*
X170602571Y-65833285D01*
X171126380Y-65833285D02*
X170126380Y-65833285D01*
X170126380Y-65357095D02*
X170935904Y-65357095D01*
X171031142Y-65309476D01*
X171078761Y-65261857D01*
X171126380Y-65166619D01*
X171126380Y-64976142D01*
X171078761Y-64880904D01*
X171031142Y-64833285D01*
X170935904Y-64785666D01*
X170126380Y-64785666D01*
X170602571Y-63976142D02*
X170650190Y-63833285D01*
X170697809Y-63785666D01*
X170793047Y-63738047D01*
X170935904Y-63738047D01*
X171031142Y-63785666D01*
X171078761Y-63833285D01*
X171126380Y-63928523D01*
X171126380Y-64309476D01*
X170126380Y-64309476D01*
X170126380Y-63976142D01*
X170174000Y-63880904D01*
X170221619Y-63833285D01*
X170316857Y-63785666D01*
X170412095Y-63785666D01*
X170507333Y-63833285D01*
X170554952Y-63880904D01*
X170602571Y-63976142D01*
X170602571Y-64309476D01*
X171221619Y-63547571D02*
X171221619Y-62785666D01*
X171126380Y-62547571D02*
X170126380Y-62547571D01*
X170221619Y-62119000D02*
X170174000Y-62071380D01*
X170126380Y-61976142D01*
X170126380Y-61738047D01*
X170174000Y-61642809D01*
X170221619Y-61595190D01*
X170316857Y-61547571D01*
X170412095Y-61547571D01*
X170554952Y-61595190D01*
X171126380Y-62166619D01*
X171126380Y-61547571D01*
X171031142Y-60547571D02*
X171078761Y-60595190D01*
X171126380Y-60738047D01*
X171126380Y-60833285D01*
X171078761Y-60976142D01*
X170983523Y-61071380D01*
X170888285Y-61119000D01*
X170697809Y-61166619D01*
X170554952Y-61166619D01*
X170364476Y-61119000D01*
X170269238Y-61071380D01*
X170174000Y-60976142D01*
X170126380Y-60833285D01*
X170126380Y-60738047D01*
X170174000Y-60595190D01*
X170221619Y-60547571D01*
X171876380Y-65499952D02*
X172876380Y-65166619D01*
X171876380Y-64833285D01*
X171876380Y-64309476D02*
X171876380Y-64214238D01*
X171924000Y-64119000D01*
X171971619Y-64071380D01*
X172066857Y-64023761D01*
X172257333Y-63976142D01*
X172495428Y-63976142D01*
X172685904Y-64023761D01*
X172781142Y-64071380D01*
X172828761Y-64119000D01*
X172876380Y-64214238D01*
X172876380Y-64309476D01*
X172828761Y-64404714D01*
X172781142Y-64452333D01*
X172685904Y-64499952D01*
X172495428Y-64547571D01*
X172257333Y-64547571D01*
X172066857Y-64499952D01*
X171971619Y-64452333D01*
X171924000Y-64404714D01*
X171876380Y-64309476D01*
X172495428Y-63547571D02*
X172495428Y-62785666D01*
X171971619Y-62357095D02*
X171924000Y-62309476D01*
X171876380Y-62214238D01*
X171876380Y-61976142D01*
X171924000Y-61880904D01*
X171971619Y-61833285D01*
X172066857Y-61785666D01*
X172162095Y-61785666D01*
X172304952Y-61833285D01*
X172876380Y-62404714D01*
X172876380Y-61785666D01*
X171876380Y-61166619D02*
X171876380Y-61071380D01*
X171924000Y-60976142D01*
X171971619Y-60928523D01*
X172066857Y-60880904D01*
X172257333Y-60833285D01*
X172495428Y-60833285D01*
X172685904Y-60880904D01*
X172781142Y-60928523D01*
X172828761Y-60976142D01*
X172876380Y-61071380D01*
X172876380Y-61166619D01*
X172828761Y-61261857D01*
X172781142Y-61309476D01*
X172685904Y-61357095D01*
X172495428Y-61404714D01*
X172257333Y-61404714D01*
X172066857Y-61357095D01*
X171971619Y-61309476D01*
X171924000Y-61261857D01*
X171876380Y-61166619D01*
D13*
X144272000Y-55626000D02*
X144272000Y-49530000D01*
X163506380Y-140569904D02*
X163506380Y-139769904D01*
X163811142Y-139769904D01*
X163887333Y-139808000D01*
X163925428Y-139846095D01*
X163963523Y-139922285D01*
X163963523Y-140036571D01*
X163925428Y-140112761D01*
X163887333Y-140150857D01*
X163811142Y-140188952D01*
X163506380Y-140188952D01*
X164458761Y-139769904D02*
X164611142Y-139769904D01*
X164687333Y-139808000D01*
X164763523Y-139884190D01*
X164801619Y-140036571D01*
X164801619Y-140303238D01*
X164763523Y-140455619D01*
X164687333Y-140531809D01*
X164611142Y-140569904D01*
X164458761Y-140569904D01*
X164382571Y-140531809D01*
X164306380Y-140455619D01*
X164268285Y-140303238D01*
X164268285Y-140036571D01*
X164306380Y-139884190D01*
X164382571Y-139808000D01*
X164458761Y-139769904D01*
X165068285Y-139769904D02*
X165258761Y-140569904D01*
X165411142Y-139998476D01*
X165563523Y-140569904D01*
X165754000Y-139769904D01*
X166058761Y-140150857D02*
X166325428Y-140150857D01*
X166439714Y-140569904D02*
X166058761Y-140569904D01*
X166058761Y-139769904D01*
X166439714Y-139769904D01*
X167239714Y-140569904D02*
X166973047Y-140188952D01*
X166782571Y-140569904D02*
X166782571Y-139769904D01*
X167087333Y-139769904D01*
X167163523Y-139808000D01*
X167201619Y-139846095D01*
X167239714Y-139922285D01*
X167239714Y-140036571D01*
X167201619Y-140112761D01*
X167163523Y-140150857D01*
X167087333Y-140188952D01*
X166782571Y-140188952D01*
D10*
X165778571Y-135449285D02*
X164278571Y-135449285D01*
X164421428Y-134806428D02*
X164350000Y-134735000D01*
X164278571Y-134592142D01*
X164278571Y-134235000D01*
X164350000Y-134092142D01*
X164421428Y-134020714D01*
X164564285Y-133949285D01*
X164707142Y-133949285D01*
X164921428Y-134020714D01*
X165778571Y-134877857D01*
X165778571Y-133949285D01*
X165635714Y-132449285D02*
X165707142Y-132520714D01*
X165778571Y-132735000D01*
X165778571Y-132877857D01*
X165707142Y-133092142D01*
X165564285Y-133235000D01*
X165421428Y-133306428D01*
X165135714Y-133377857D01*
X164921428Y-133377857D01*
X164635714Y-133306428D01*
X164492857Y-133235000D01*
X164350000Y-133092142D01*
X164278571Y-132877857D01*
X164278571Y-132735000D01*
X164350000Y-132520714D01*
X164421428Y-132449285D01*
X164992857Y-113882857D02*
X165064285Y-113668571D01*
X165135714Y-113597142D01*
X165278571Y-113525714D01*
X165492857Y-113525714D01*
X165635714Y-113597142D01*
X165707142Y-113668571D01*
X165778571Y-113811428D01*
X165778571Y-114382857D01*
X164278571Y-114382857D01*
X164278571Y-113882857D01*
X164350000Y-113740000D01*
X164421428Y-113668571D01*
X164564285Y-113597142D01*
X164707142Y-113597142D01*
X164850000Y-113668571D01*
X164921428Y-113740000D01*
X164992857Y-113882857D01*
X164992857Y-114382857D01*
X164278571Y-112882857D02*
X165492857Y-112882857D01*
X165635714Y-112811428D01*
X165707142Y-112740000D01*
X165778571Y-112597142D01*
X165778571Y-112311428D01*
X165707142Y-112168571D01*
X165635714Y-112097142D01*
X165492857Y-112025714D01*
X164278571Y-112025714D01*
X164992857Y-110811428D02*
X164992857Y-111311428D01*
X165778571Y-111311428D02*
X164278571Y-111311428D01*
X164278571Y-110597142D01*
X164992857Y-109525714D02*
X164992857Y-110025714D01*
X165778571Y-110025714D02*
X164278571Y-110025714D01*
X164278571Y-109311428D01*
X164992857Y-108740000D02*
X164992857Y-108240000D01*
X165778571Y-108025714D02*
X165778571Y-108740000D01*
X164278571Y-108740000D01*
X164278571Y-108025714D01*
X165778571Y-106525714D02*
X165064285Y-107025714D01*
X165778571Y-107382857D02*
X164278571Y-107382857D01*
X164278571Y-106811428D01*
X164350000Y-106668571D01*
X164421428Y-106597142D01*
X164564285Y-106525714D01*
X164778571Y-106525714D01*
X164921428Y-106597142D01*
X164992857Y-106668571D01*
X165064285Y-106811428D01*
X165064285Y-107382857D01*
D13*
X162560000Y-97790000D02*
X179070000Y-97790000D01*
D12*
G04 #@! TO.C,U201*
X170010000Y-120030000D02*
X168610000Y-120030000D01*
X170010000Y-125130000D02*
X174160000Y-125130000D01*
X170010000Y-119980000D02*
X174160000Y-119980000D01*
X170010000Y-125130000D02*
X170010000Y-124985000D01*
X174160000Y-125130000D02*
X174160000Y-124985000D01*
X174160000Y-119980000D02*
X174160000Y-120125000D01*
X170010000Y-119980000D02*
X170010000Y-120030000D01*
D14*
G04 #@! TO.C,R610*
X139698000Y-123789221D02*
X139698000Y-124114779D01*
X140718000Y-123789221D02*
X140718000Y-124114779D01*
G04 #@! TO.C,R604*
X136146000Y-105090279D02*
X136146000Y-104764721D01*
X135126000Y-105090279D02*
X135126000Y-104764721D01*
G04 #@! TO.C,R609*
X138936000Y-107533221D02*
X138936000Y-107858779D01*
X139956000Y-107533221D02*
X139956000Y-107858779D01*
G04 #@! TO.C,R603*
X136400000Y-112938779D02*
X136400000Y-112613221D01*
X135380000Y-112938779D02*
X135380000Y-112613221D01*
G04 #@! TO.C,R628*
X137162000Y-118526779D02*
X137162000Y-118201221D01*
X136142000Y-118526779D02*
X136142000Y-118201221D01*
G04 #@! TO.C,J305*
X119418000Y-67420000D02*
X119418000Y-66820000D01*
X117818000Y-67420000D02*
X119418000Y-67420000D01*
X117818000Y-66820000D02*
X117818000Y-67420000D01*
X116878000Y-67420000D02*
X116878000Y-66820000D01*
X115278000Y-67420000D02*
X116878000Y-67420000D01*
X115278000Y-66820000D02*
X115278000Y-67420000D01*
X114338000Y-67420000D02*
X114338000Y-66820000D01*
X112738000Y-67420000D02*
X114338000Y-67420000D01*
X112738000Y-66820000D02*
X112738000Y-67420000D01*
X111798000Y-67420000D02*
X111798000Y-66820000D01*
X110198000Y-67420000D02*
X111798000Y-67420000D01*
X110198000Y-66820000D02*
X110198000Y-67420000D01*
X118368000Y-72840000D02*
X118368000Y-71840000D01*
X111248000Y-72840000D02*
X111248000Y-71840000D01*
X118368000Y-71310000D02*
X118618000Y-71840000D01*
X111248000Y-71310000D02*
X118368000Y-71310000D01*
X110998000Y-71840000D02*
X111248000Y-71310000D01*
X118618000Y-71840000D02*
X118618000Y-72840000D01*
X110998000Y-71840000D02*
X118618000Y-71840000D01*
X110998000Y-72840000D02*
X110998000Y-71840000D01*
X109328000Y-67850000D02*
X109328000Y-71850000D01*
X119998000Y-66820000D02*
X109618000Y-66820000D01*
X119998000Y-72840000D02*
X119998000Y-66820000D01*
X109618000Y-72840000D02*
X119998000Y-72840000D01*
X109618000Y-66820000D02*
X109618000Y-72840000D01*
G04 #@! TO.C,J302*
X119418000Y-60562000D02*
X119418000Y-59962000D01*
X117818000Y-60562000D02*
X119418000Y-60562000D01*
X117818000Y-59962000D02*
X117818000Y-60562000D01*
X116878000Y-60562000D02*
X116878000Y-59962000D01*
X115278000Y-60562000D02*
X116878000Y-60562000D01*
X115278000Y-59962000D02*
X115278000Y-60562000D01*
X114338000Y-60562000D02*
X114338000Y-59962000D01*
X112738000Y-60562000D02*
X114338000Y-60562000D01*
X112738000Y-59962000D02*
X112738000Y-60562000D01*
X111798000Y-60562000D02*
X111798000Y-59962000D01*
X110198000Y-60562000D02*
X111798000Y-60562000D01*
X110198000Y-59962000D02*
X110198000Y-60562000D01*
X118368000Y-65982000D02*
X118368000Y-64982000D01*
X111248000Y-65982000D02*
X111248000Y-64982000D01*
X118368000Y-64452000D02*
X118618000Y-64982000D01*
X111248000Y-64452000D02*
X118368000Y-64452000D01*
X110998000Y-64982000D02*
X111248000Y-64452000D01*
X118618000Y-64982000D02*
X118618000Y-65982000D01*
X110998000Y-64982000D02*
X118618000Y-64982000D01*
X110998000Y-65982000D02*
X110998000Y-64982000D01*
X109328000Y-60992000D02*
X109328000Y-64992000D01*
X119998000Y-59962000D02*
X109618000Y-59962000D01*
X119998000Y-65982000D02*
X119998000Y-59962000D01*
X109618000Y-65982000D02*
X119998000Y-65982000D01*
X109618000Y-59962000D02*
X109618000Y-65982000D01*
G04 #@! TO.C,R617*
X130464226Y-106632677D02*
X130464226Y-106958235D01*
X131484226Y-106632677D02*
X131484226Y-106958235D01*
G04 #@! TO.C,R623*
X133512226Y-106632677D02*
X133512226Y-106958235D01*
X134532226Y-106632677D02*
X134532226Y-106958235D01*
G04 #@! TO.C,R304*
X129293252Y-80316000D02*
X128770748Y-80316000D01*
X129293252Y-81736000D02*
X128770748Y-81736000D01*
G04 #@! TO.C,C501*
X101090252Y-119940000D02*
X100567748Y-119940000D01*
X101090252Y-121360000D02*
X100567748Y-121360000D01*
G04 #@! TO.C,J311*
X142858000Y-65768000D02*
X142858000Y-59748000D01*
X142858000Y-59748000D02*
X132478000Y-59748000D01*
X132478000Y-59748000D02*
X132478000Y-65768000D01*
X132478000Y-65768000D02*
X142858000Y-65768000D01*
X143148000Y-64738000D02*
X143148000Y-60738000D01*
X141478000Y-59748000D02*
X141478000Y-60748000D01*
X141478000Y-60748000D02*
X133858000Y-60748000D01*
X133858000Y-60748000D02*
X133858000Y-59748000D01*
X141478000Y-60748000D02*
X141228000Y-61278000D01*
X141228000Y-61278000D02*
X134108000Y-61278000D01*
X134108000Y-61278000D02*
X133858000Y-60748000D01*
X141228000Y-59748000D02*
X141228000Y-60748000D01*
X134108000Y-59748000D02*
X134108000Y-60748000D01*
X142278000Y-65768000D02*
X142278000Y-65168000D01*
X142278000Y-65168000D02*
X140678000Y-65168000D01*
X140678000Y-65168000D02*
X140678000Y-65768000D01*
X139738000Y-65768000D02*
X139738000Y-65168000D01*
X139738000Y-65168000D02*
X138138000Y-65168000D01*
X138138000Y-65168000D02*
X138138000Y-65768000D01*
X137198000Y-65768000D02*
X137198000Y-65168000D01*
X137198000Y-65168000D02*
X135598000Y-65168000D01*
X135598000Y-65168000D02*
X135598000Y-65768000D01*
X134658000Y-65768000D02*
X134658000Y-65168000D01*
X134658000Y-65168000D02*
X133058000Y-65168000D01*
X133058000Y-65168000D02*
X133058000Y-65768000D01*
G04 #@! TO.C,D605*
X131248637Y-130009625D02*
X131248637Y-133009625D01*
X134268637Y-129309625D02*
X134268637Y-133009625D01*
D12*
G04 #@! TO.C,U301*
X123913000Y-76669000D02*
X128563000Y-76669000D01*
X122838000Y-68569000D02*
X128563000Y-68569000D01*
X123913000Y-76669000D02*
X123913000Y-76644000D01*
X128563000Y-76669000D02*
X128563000Y-76644000D01*
X128563000Y-68619000D02*
X128563000Y-68644000D01*
D14*
G04 #@! TO.C,J601*
X141750000Y-125078000D02*
X147770000Y-125078000D01*
X147770000Y-125078000D02*
X147770000Y-109618000D01*
X147770000Y-109618000D02*
X141750000Y-109618000D01*
X141750000Y-109618000D02*
X141750000Y-125078000D01*
X142780000Y-125368000D02*
X146780000Y-125368000D01*
X147770000Y-123698000D02*
X146770000Y-123698000D01*
X146770000Y-123698000D02*
X146770000Y-110998000D01*
X146770000Y-110998000D02*
X147770000Y-110998000D01*
X146770000Y-123698000D02*
X146240000Y-123448000D01*
X146240000Y-123448000D02*
X146240000Y-111248000D01*
X146240000Y-111248000D02*
X146770000Y-110998000D01*
X147770000Y-123448000D02*
X146770000Y-123448000D01*
X147770000Y-111248000D02*
X146770000Y-111248000D01*
X141750000Y-124498000D02*
X142350000Y-124498000D01*
X142350000Y-124498000D02*
X142350000Y-122898000D01*
X142350000Y-122898000D02*
X141750000Y-122898000D01*
X141750000Y-121958000D02*
X142350000Y-121958000D01*
X142350000Y-121958000D02*
X142350000Y-120358000D01*
X142350000Y-120358000D02*
X141750000Y-120358000D01*
X141750000Y-119418000D02*
X142350000Y-119418000D01*
X142350000Y-119418000D02*
X142350000Y-117818000D01*
X142350000Y-117818000D02*
X141750000Y-117818000D01*
X141750000Y-116878000D02*
X142350000Y-116878000D01*
X142350000Y-116878000D02*
X142350000Y-115278000D01*
X142350000Y-115278000D02*
X141750000Y-115278000D01*
X141750000Y-114338000D02*
X142350000Y-114338000D01*
X142350000Y-114338000D02*
X142350000Y-112738000D01*
X142350000Y-112738000D02*
X141750000Y-112738000D01*
X141750000Y-111798000D02*
X142350000Y-111798000D01*
X142350000Y-111798000D02*
X142350000Y-110198000D01*
X142350000Y-110198000D02*
X141750000Y-110198000D01*
D12*
G04 #@! TO.C,U501*
X104967000Y-119371000D02*
X104967000Y-119096000D01*
X97217000Y-119371000D02*
X97217000Y-119016000D01*
X97217000Y-108721000D02*
X97217000Y-109076000D01*
X104967000Y-108721000D02*
X104967000Y-109076000D01*
X104967000Y-119371000D02*
X97217000Y-119371000D01*
X104967000Y-108721000D02*
X97217000Y-108721000D01*
X104967000Y-119096000D02*
X106492000Y-119096000D01*
D14*
G04 #@! TO.C,J306*
X109618000Y-73678000D02*
X109618000Y-79698000D01*
X109618000Y-79698000D02*
X119998000Y-79698000D01*
X119998000Y-79698000D02*
X119998000Y-73678000D01*
X119998000Y-73678000D02*
X109618000Y-73678000D01*
X109328000Y-74708000D02*
X109328000Y-78708000D01*
X110998000Y-79698000D02*
X110998000Y-78698000D01*
X110998000Y-78698000D02*
X118618000Y-78698000D01*
X118618000Y-78698000D02*
X118618000Y-79698000D01*
X110998000Y-78698000D02*
X111248000Y-78168000D01*
X111248000Y-78168000D02*
X118368000Y-78168000D01*
X118368000Y-78168000D02*
X118618000Y-78698000D01*
X111248000Y-79698000D02*
X111248000Y-78698000D01*
X118368000Y-79698000D02*
X118368000Y-78698000D01*
X110198000Y-73678000D02*
X110198000Y-74278000D01*
X110198000Y-74278000D02*
X111798000Y-74278000D01*
X111798000Y-74278000D02*
X111798000Y-73678000D01*
X112738000Y-73678000D02*
X112738000Y-74278000D01*
X112738000Y-74278000D02*
X114338000Y-74278000D01*
X114338000Y-74278000D02*
X114338000Y-73678000D01*
X115278000Y-73678000D02*
X115278000Y-74278000D01*
X115278000Y-74278000D02*
X116878000Y-74278000D01*
X116878000Y-74278000D02*
X116878000Y-73678000D01*
X117818000Y-73678000D02*
X117818000Y-74278000D01*
X117818000Y-74278000D02*
X119418000Y-74278000D01*
X119418000Y-74278000D02*
X119418000Y-73678000D01*
G04 #@! TO.C,J501*
X96228000Y-130954000D02*
X96228000Y-131554000D01*
X97828000Y-130954000D02*
X96228000Y-130954000D01*
X97828000Y-131554000D02*
X97828000Y-130954000D01*
X98768000Y-130954000D02*
X98768000Y-131554000D01*
X100368000Y-130954000D02*
X98768000Y-130954000D01*
X100368000Y-131554000D02*
X100368000Y-130954000D01*
X101308000Y-130954000D02*
X101308000Y-131554000D01*
X102908000Y-130954000D02*
X101308000Y-130954000D01*
X102908000Y-131554000D02*
X102908000Y-130954000D01*
X103848000Y-130954000D02*
X103848000Y-131554000D01*
X105448000Y-130954000D02*
X103848000Y-130954000D01*
X105448000Y-131554000D02*
X105448000Y-130954000D01*
X97278000Y-125534000D02*
X97278000Y-126534000D01*
X104398000Y-125534000D02*
X104398000Y-126534000D01*
X97278000Y-127064000D02*
X97028000Y-126534000D01*
X104398000Y-127064000D02*
X97278000Y-127064000D01*
X104648000Y-126534000D02*
X104398000Y-127064000D01*
X97028000Y-126534000D02*
X97028000Y-125534000D01*
X104648000Y-126534000D02*
X97028000Y-126534000D01*
X104648000Y-125534000D02*
X104648000Y-126534000D01*
X106318000Y-130524000D02*
X106318000Y-126524000D01*
X95648000Y-131554000D02*
X106028000Y-131554000D01*
X95648000Y-125534000D02*
X95648000Y-131554000D01*
X106028000Y-125534000D02*
X95648000Y-125534000D01*
X106028000Y-131554000D02*
X106028000Y-125534000D01*
G04 #@! TO.C,R618*
X128178779Y-114806000D02*
X127853221Y-114806000D01*
X128178779Y-115826000D02*
X127853221Y-115826000D01*
G04 #@! TO.C,J310*
X133058000Y-72026000D02*
X133058000Y-72626000D01*
X134658000Y-72026000D02*
X133058000Y-72026000D01*
X134658000Y-72626000D02*
X134658000Y-72026000D01*
X135598000Y-72026000D02*
X135598000Y-72626000D01*
X137198000Y-72026000D02*
X135598000Y-72026000D01*
X137198000Y-72626000D02*
X137198000Y-72026000D01*
X138138000Y-72026000D02*
X138138000Y-72626000D01*
X139738000Y-72026000D02*
X138138000Y-72026000D01*
X139738000Y-72626000D02*
X139738000Y-72026000D01*
X140678000Y-72026000D02*
X140678000Y-72626000D01*
X142278000Y-72026000D02*
X140678000Y-72026000D01*
X142278000Y-72626000D02*
X142278000Y-72026000D01*
X134108000Y-66606000D02*
X134108000Y-67606000D01*
X141228000Y-66606000D02*
X141228000Y-67606000D01*
X134108000Y-68136000D02*
X133858000Y-67606000D01*
X141228000Y-68136000D02*
X134108000Y-68136000D01*
X141478000Y-67606000D02*
X141228000Y-68136000D01*
X133858000Y-67606000D02*
X133858000Y-66606000D01*
X141478000Y-67606000D02*
X133858000Y-67606000D01*
X141478000Y-66606000D02*
X141478000Y-67606000D01*
X143148000Y-71596000D02*
X143148000Y-67596000D01*
X132478000Y-72626000D02*
X142858000Y-72626000D01*
X132478000Y-66606000D02*
X132478000Y-72626000D01*
X142858000Y-66606000D02*
X132478000Y-66606000D01*
X142858000Y-72626000D02*
X142858000Y-66606000D01*
G04 #@! TO.C,SW301*
X120572000Y-94342000D02*
X120572000Y-87522000D01*
X132412000Y-94342000D02*
X132412000Y-87522000D01*
X120572000Y-94342000D02*
X121882000Y-94342000D01*
X123482000Y-94342000D02*
X124422000Y-94342000D01*
X126022000Y-94342000D02*
X126962000Y-94342000D01*
X128562000Y-94342000D02*
X129502000Y-94342000D01*
X131102000Y-94342000D02*
X132412000Y-94342000D01*
X131102000Y-87522000D02*
X132412000Y-87522000D01*
X128562000Y-87522000D02*
X129502000Y-87522000D01*
X126022000Y-87522000D02*
X126962000Y-87522000D01*
X120572000Y-87522000D02*
X121882000Y-87522000D01*
X123482000Y-87522000D02*
X124422000Y-87522000D01*
X120332000Y-94582000D02*
X120332000Y-93199000D01*
X120332000Y-94582000D02*
X121715000Y-94582000D01*
X122047000Y-92742000D02*
X123317000Y-92742000D01*
X123317000Y-92742000D02*
X123317000Y-89122000D01*
X123317000Y-89122000D02*
X122047000Y-89122000D01*
X122047000Y-89122000D02*
X122047000Y-92742000D01*
X122167000Y-92742000D02*
X122167000Y-91535333D01*
X122287000Y-92742000D02*
X122287000Y-91535333D01*
X122407000Y-92742000D02*
X122407000Y-91535333D01*
X122527000Y-92742000D02*
X122527000Y-91535333D01*
X122647000Y-92742000D02*
X122647000Y-91535333D01*
X122767000Y-92742000D02*
X122767000Y-91535333D01*
X122887000Y-92742000D02*
X122887000Y-91535333D01*
X123007000Y-92742000D02*
X123007000Y-91535333D01*
X123127000Y-92742000D02*
X123127000Y-91535333D01*
X123247000Y-92742000D02*
X123247000Y-91535333D01*
X122047000Y-91535333D02*
X123317000Y-91535333D01*
X124587000Y-92742000D02*
X125857000Y-92742000D01*
X125857000Y-92742000D02*
X125857000Y-89122000D01*
X125857000Y-89122000D02*
X124587000Y-89122000D01*
X124587000Y-89122000D02*
X124587000Y-92742000D01*
X124707000Y-92742000D02*
X124707000Y-91535333D01*
X124827000Y-92742000D02*
X124827000Y-91535333D01*
X124947000Y-92742000D02*
X124947000Y-91535333D01*
X125067000Y-92742000D02*
X125067000Y-91535333D01*
X125187000Y-92742000D02*
X125187000Y-91535333D01*
X125307000Y-92742000D02*
X125307000Y-91535333D01*
X125427000Y-92742000D02*
X125427000Y-91535333D01*
X125547000Y-92742000D02*
X125547000Y-91535333D01*
X125667000Y-92742000D02*
X125667000Y-91535333D01*
X125787000Y-92742000D02*
X125787000Y-91535333D01*
X124587000Y-91535333D02*
X125857000Y-91535333D01*
X127127000Y-92742000D02*
X128397000Y-92742000D01*
X128397000Y-92742000D02*
X128397000Y-89122000D01*
X128397000Y-89122000D02*
X127127000Y-89122000D01*
X127127000Y-89122000D02*
X127127000Y-92742000D01*
X127247000Y-92742000D02*
X127247000Y-91535333D01*
X127367000Y-92742000D02*
X127367000Y-91535333D01*
X127487000Y-92742000D02*
X127487000Y-91535333D01*
X127607000Y-92742000D02*
X127607000Y-91535333D01*
X127727000Y-92742000D02*
X127727000Y-91535333D01*
X127847000Y-92742000D02*
X127847000Y-91535333D01*
X127967000Y-92742000D02*
X127967000Y-91535333D01*
X128087000Y-92742000D02*
X128087000Y-91535333D01*
X128207000Y-92742000D02*
X128207000Y-91535333D01*
X128327000Y-92742000D02*
X128327000Y-91535333D01*
X127127000Y-91535333D02*
X128397000Y-91535333D01*
X129667000Y-92742000D02*
X130937000Y-92742000D01*
X130937000Y-92742000D02*
X130937000Y-89122000D01*
X130937000Y-89122000D02*
X129667000Y-89122000D01*
X129667000Y-89122000D02*
X129667000Y-92742000D01*
X129787000Y-92742000D02*
X129787000Y-91535333D01*
X129907000Y-92742000D02*
X129907000Y-91535333D01*
X130027000Y-92742000D02*
X130027000Y-91535333D01*
X130147000Y-92742000D02*
X130147000Y-91535333D01*
X130267000Y-92742000D02*
X130267000Y-91535333D01*
X130387000Y-92742000D02*
X130387000Y-91535333D01*
X130507000Y-92742000D02*
X130507000Y-91535333D01*
X130627000Y-92742000D02*
X130627000Y-91535333D01*
X130747000Y-92742000D02*
X130747000Y-91535333D01*
X130867000Y-92742000D02*
X130867000Y-91535333D01*
X129667000Y-91535333D02*
X130937000Y-91535333D01*
G04 #@! TO.C,J301*
X131428000Y-59672000D02*
X131428000Y-53652000D01*
X131428000Y-53652000D02*
X121048000Y-53652000D01*
X121048000Y-53652000D02*
X121048000Y-59672000D01*
X121048000Y-59672000D02*
X131428000Y-59672000D01*
X131718000Y-58642000D02*
X131718000Y-54642000D01*
X130048000Y-53652000D02*
X130048000Y-54652000D01*
X130048000Y-54652000D02*
X122428000Y-54652000D01*
X122428000Y-54652000D02*
X122428000Y-53652000D01*
X130048000Y-54652000D02*
X129798000Y-55182000D01*
X129798000Y-55182000D02*
X122678000Y-55182000D01*
X122678000Y-55182000D02*
X122428000Y-54652000D01*
X129798000Y-53652000D02*
X129798000Y-54652000D01*
X122678000Y-53652000D02*
X122678000Y-54652000D01*
X130848000Y-59672000D02*
X130848000Y-59072000D01*
X130848000Y-59072000D02*
X129248000Y-59072000D01*
X129248000Y-59072000D02*
X129248000Y-59672000D01*
X128308000Y-59672000D02*
X128308000Y-59072000D01*
X128308000Y-59072000D02*
X126708000Y-59072000D01*
X126708000Y-59072000D02*
X126708000Y-59672000D01*
X125768000Y-59672000D02*
X125768000Y-59072000D01*
X125768000Y-59072000D02*
X124168000Y-59072000D01*
X124168000Y-59072000D02*
X124168000Y-59672000D01*
X123228000Y-59672000D02*
X123228000Y-59072000D01*
X123228000Y-59072000D02*
X121628000Y-59072000D01*
X121628000Y-59072000D02*
X121628000Y-59672000D01*
G04 #@! TO.C,SW502*
X94968000Y-97834000D02*
X96338000Y-97834000D01*
X94968000Y-99204000D02*
X94968000Y-97834000D01*
X104508000Y-102554000D02*
X104508000Y-103694000D01*
X104508000Y-100014000D02*
X104508000Y-101154000D01*
X97168000Y-102554000D02*
X97168000Y-103694000D01*
X97168000Y-100014000D02*
X97168000Y-101154000D01*
X104508000Y-105624000D02*
X104508000Y-105094000D01*
X97168000Y-105624000D02*
X104508000Y-105624000D01*
X97168000Y-105094000D02*
X97168000Y-105624000D01*
X104508000Y-98084000D02*
X104508000Y-98614000D01*
X97168000Y-98084000D02*
X104508000Y-98084000D01*
X97168000Y-98614000D02*
X97168000Y-98084000D01*
G04 #@! TO.C,R626*
X139698000Y-118552279D02*
X139698000Y-118226721D01*
X140718000Y-118552279D02*
X140718000Y-118226721D01*
G04 #@! TO.C,D603*
X130988226Y-104169456D02*
X130988226Y-100469456D01*
X134008226Y-103469456D02*
X134008226Y-100469456D01*
G04 #@! TO.C,R627*
X138940000Y-118526779D02*
X138940000Y-118201221D01*
X137920000Y-118526779D02*
X137920000Y-118201221D01*
G04 #@! TO.C,J308*
X133058000Y-85742000D02*
X133058000Y-86342000D01*
X134658000Y-85742000D02*
X133058000Y-85742000D01*
X134658000Y-86342000D02*
X134658000Y-85742000D01*
X135598000Y-85742000D02*
X135598000Y-86342000D01*
X137198000Y-85742000D02*
X135598000Y-85742000D01*
X137198000Y-86342000D02*
X137198000Y-85742000D01*
X138138000Y-85742000D02*
X138138000Y-86342000D01*
X139738000Y-85742000D02*
X138138000Y-85742000D01*
X139738000Y-86342000D02*
X139738000Y-85742000D01*
X140678000Y-85742000D02*
X140678000Y-86342000D01*
X142278000Y-85742000D02*
X140678000Y-85742000D01*
X142278000Y-86342000D02*
X142278000Y-85742000D01*
X134108000Y-80322000D02*
X134108000Y-81322000D01*
X141228000Y-80322000D02*
X141228000Y-81322000D01*
X134108000Y-81852000D02*
X133858000Y-81322000D01*
X141228000Y-81852000D02*
X134108000Y-81852000D01*
X141478000Y-81322000D02*
X141228000Y-81852000D01*
X133858000Y-81322000D02*
X133858000Y-80322000D01*
X141478000Y-81322000D02*
X133858000Y-81322000D01*
X141478000Y-80322000D02*
X141478000Y-81322000D01*
X143148000Y-85312000D02*
X143148000Y-81312000D01*
X132478000Y-86342000D02*
X142858000Y-86342000D01*
X132478000Y-80322000D02*
X132478000Y-86342000D01*
X142858000Y-80322000D02*
X132478000Y-80322000D01*
X142858000Y-86342000D02*
X142858000Y-80322000D01*
G04 #@! TO.C,J307*
X119418000Y-81136000D02*
X119418000Y-80536000D01*
X117818000Y-81136000D02*
X119418000Y-81136000D01*
X117818000Y-80536000D02*
X117818000Y-81136000D01*
X116878000Y-81136000D02*
X116878000Y-80536000D01*
X115278000Y-81136000D02*
X116878000Y-81136000D01*
X115278000Y-80536000D02*
X115278000Y-81136000D01*
X114338000Y-81136000D02*
X114338000Y-80536000D01*
X112738000Y-81136000D02*
X114338000Y-81136000D01*
X112738000Y-80536000D02*
X112738000Y-81136000D01*
X111798000Y-81136000D02*
X111798000Y-80536000D01*
X110198000Y-81136000D02*
X111798000Y-81136000D01*
X110198000Y-80536000D02*
X110198000Y-81136000D01*
X118368000Y-86556000D02*
X118368000Y-85556000D01*
X111248000Y-86556000D02*
X111248000Y-85556000D01*
X118368000Y-85026000D02*
X118618000Y-85556000D01*
X111248000Y-85026000D02*
X118368000Y-85026000D01*
X110998000Y-85556000D02*
X111248000Y-85026000D01*
X118618000Y-85556000D02*
X118618000Y-86556000D01*
X110998000Y-85556000D02*
X118618000Y-85556000D01*
X110998000Y-86556000D02*
X110998000Y-85556000D01*
X109328000Y-81566000D02*
X109328000Y-85566000D01*
X119998000Y-80536000D02*
X109618000Y-80536000D01*
X119998000Y-86556000D02*
X119998000Y-80536000D01*
X109618000Y-86556000D02*
X119998000Y-86556000D01*
X109618000Y-80536000D02*
X109618000Y-86556000D01*
G04 #@! TO.C,R501*
X97791748Y-122988000D02*
X98314252Y-122988000D01*
X97791748Y-124408000D02*
X98314252Y-124408000D01*
G04 #@! TO.C,J309*
X142858000Y-79484000D02*
X142858000Y-73464000D01*
X142858000Y-73464000D02*
X132478000Y-73464000D01*
X132478000Y-73464000D02*
X132478000Y-79484000D01*
X132478000Y-79484000D02*
X142858000Y-79484000D01*
X143148000Y-78454000D02*
X143148000Y-74454000D01*
X141478000Y-73464000D02*
X141478000Y-74464000D01*
X141478000Y-74464000D02*
X133858000Y-74464000D01*
X133858000Y-74464000D02*
X133858000Y-73464000D01*
X141478000Y-74464000D02*
X141228000Y-74994000D01*
X141228000Y-74994000D02*
X134108000Y-74994000D01*
X134108000Y-74994000D02*
X133858000Y-74464000D01*
X141228000Y-73464000D02*
X141228000Y-74464000D01*
X134108000Y-73464000D02*
X134108000Y-74464000D01*
X142278000Y-79484000D02*
X142278000Y-78884000D01*
X142278000Y-78884000D02*
X140678000Y-78884000D01*
X140678000Y-78884000D02*
X140678000Y-79484000D01*
X139738000Y-79484000D02*
X139738000Y-78884000D01*
X139738000Y-78884000D02*
X138138000Y-78884000D01*
X138138000Y-78884000D02*
X138138000Y-79484000D01*
X137198000Y-79484000D02*
X137198000Y-78884000D01*
X137198000Y-78884000D02*
X135598000Y-78884000D01*
X135598000Y-78884000D02*
X135598000Y-79484000D01*
X134658000Y-79484000D02*
X134658000Y-78884000D01*
X134658000Y-78884000D02*
X133058000Y-78884000D01*
X133058000Y-78884000D02*
X133058000Y-79484000D01*
G04 #@! TO.C,R619*
X134792637Y-126846404D02*
X134792637Y-126520846D01*
X133772637Y-126846404D02*
X133772637Y-126520846D01*
G04 #@! TO.C,D301*
X127172000Y-79954000D02*
X130032000Y-79954000D01*
X127172000Y-78034000D02*
X127172000Y-79954000D01*
X130032000Y-78034000D02*
X127172000Y-78034000D01*
G04 #@! TO.C,R625*
X131744637Y-126846404D02*
X131744637Y-126520846D01*
X130724637Y-126846404D02*
X130724637Y-126520846D01*
G04 #@! TO.C,R624*
X128153279Y-117854000D02*
X127827721Y-117854000D01*
X128153279Y-118874000D02*
X127827721Y-118874000D01*
G04 #@! TO.C,R622*
X133268637Y-126846404D02*
X133268637Y-126520846D01*
X132248637Y-126846404D02*
X132248637Y-126520846D01*
G04 #@! TO.C,J304*
X139468694Y-92456000D02*
G75*
G03X139468694Y-92456000I-1800694J0D01*
G01*
G04 #@! TO.C,J303*
X116862694Y-92456000D02*
G75*
G03X116862694Y-92456000I-1800694J0D01*
G01*
G04 #@! TO.C,J304*
X139468694Y-54610000D02*
G75*
G03X139468694Y-54610000I-1800694J0D01*
G01*
G04 #@! TO.C,J303*
X116354694Y-54610000D02*
G75*
G03X116354694Y-54610000I-1800694J0D01*
G01*
G04 #@! TO.C,R621*
X128153279Y-116330000D02*
X127827721Y-116330000D01*
X128153279Y-117350000D02*
X127827721Y-117350000D01*
G04 #@! TO.C,R620*
X131988226Y-106632677D02*
X131988226Y-106958235D01*
X133008226Y-106632677D02*
X133008226Y-106958235D01*
G04 #@! TO.C,D501*
X103108000Y-122788000D02*
X100223000Y-122788000D01*
X100223000Y-122788000D02*
X100223000Y-124608000D01*
X100223000Y-124608000D02*
X103108000Y-124608000D01*
G04 #@! TO.C,D604*
X131342000Y-118350000D02*
X134342000Y-118350000D01*
X130642000Y-115330000D02*
X134342000Y-115330000D01*
G04 #@! TO.C,R606*
X136142000Y-123789221D02*
X136142000Y-124114779D01*
X137162000Y-123789221D02*
X137162000Y-124114779D01*
G04 #@! TO.C,R607*
X137158000Y-107533221D02*
X137158000Y-107858779D01*
X138178000Y-107533221D02*
X138178000Y-107858779D01*
G04 #@! TO.C,R608*
X137920000Y-123789221D02*
X137920000Y-124114779D01*
X138940000Y-123789221D02*
X138940000Y-124114779D01*
G04 #@! TO.C,SW401*
X172307333Y-77343000D02*
X172307333Y-76073000D01*
X173514000Y-76143000D02*
X172307333Y-76143000D01*
X173514000Y-76263000D02*
X172307333Y-76263000D01*
X173514000Y-76383000D02*
X172307333Y-76383000D01*
X173514000Y-76503000D02*
X172307333Y-76503000D01*
X173514000Y-76623000D02*
X172307333Y-76623000D01*
X173514000Y-76743000D02*
X172307333Y-76743000D01*
X173514000Y-76863000D02*
X172307333Y-76863000D01*
X173514000Y-76983000D02*
X172307333Y-76983000D01*
X173514000Y-77103000D02*
X172307333Y-77103000D01*
X173514000Y-77223000D02*
X172307333Y-77223000D01*
X169894000Y-77343000D02*
X173514000Y-77343000D01*
X169894000Y-76073000D02*
X169894000Y-77343000D01*
X173514000Y-76073000D02*
X169894000Y-76073000D01*
X173514000Y-77343000D02*
X173514000Y-76073000D01*
X172307333Y-79883000D02*
X172307333Y-78613000D01*
X173514000Y-78683000D02*
X172307333Y-78683000D01*
X173514000Y-78803000D02*
X172307333Y-78803000D01*
X173514000Y-78923000D02*
X172307333Y-78923000D01*
X173514000Y-79043000D02*
X172307333Y-79043000D01*
X173514000Y-79163000D02*
X172307333Y-79163000D01*
X173514000Y-79283000D02*
X172307333Y-79283000D01*
X173514000Y-79403000D02*
X172307333Y-79403000D01*
X173514000Y-79523000D02*
X172307333Y-79523000D01*
X173514000Y-79643000D02*
X172307333Y-79643000D01*
X173514000Y-79763000D02*
X172307333Y-79763000D01*
X169894000Y-79883000D02*
X173514000Y-79883000D01*
X169894000Y-78613000D02*
X169894000Y-79883000D01*
X173514000Y-78613000D02*
X169894000Y-78613000D01*
X173514000Y-79883000D02*
X173514000Y-78613000D01*
X172307333Y-82423000D02*
X172307333Y-81153000D01*
X173514000Y-81223000D02*
X172307333Y-81223000D01*
X173514000Y-81343000D02*
X172307333Y-81343000D01*
X173514000Y-81463000D02*
X172307333Y-81463000D01*
X173514000Y-81583000D02*
X172307333Y-81583000D01*
X173514000Y-81703000D02*
X172307333Y-81703000D01*
X173514000Y-81823000D02*
X172307333Y-81823000D01*
X173514000Y-81943000D02*
X172307333Y-81943000D01*
X173514000Y-82063000D02*
X172307333Y-82063000D01*
X173514000Y-82183000D02*
X172307333Y-82183000D01*
X173514000Y-82303000D02*
X172307333Y-82303000D01*
X169894000Y-82423000D02*
X173514000Y-82423000D01*
X169894000Y-81153000D02*
X169894000Y-82423000D01*
X173514000Y-81153000D02*
X169894000Y-81153000D01*
X173514000Y-82423000D02*
X173514000Y-81153000D01*
X172307333Y-84963000D02*
X172307333Y-83693000D01*
X173514000Y-83763000D02*
X172307333Y-83763000D01*
X173514000Y-83883000D02*
X172307333Y-83883000D01*
X173514000Y-84003000D02*
X172307333Y-84003000D01*
X173514000Y-84123000D02*
X172307333Y-84123000D01*
X173514000Y-84243000D02*
X172307333Y-84243000D01*
X173514000Y-84363000D02*
X172307333Y-84363000D01*
X173514000Y-84483000D02*
X172307333Y-84483000D01*
X173514000Y-84603000D02*
X172307333Y-84603000D01*
X173514000Y-84723000D02*
X172307333Y-84723000D01*
X173514000Y-84843000D02*
X172307333Y-84843000D01*
X169894000Y-84963000D02*
X173514000Y-84963000D01*
X169894000Y-83693000D02*
X169894000Y-84963000D01*
X173514000Y-83693000D02*
X169894000Y-83693000D01*
X173514000Y-84963000D02*
X173514000Y-83693000D01*
X175354000Y-86678000D02*
X175354000Y-85295000D01*
X175354000Y-86678000D02*
X173971000Y-86678000D01*
X168294000Y-83528000D02*
X168294000Y-82588000D01*
X168294000Y-86438000D02*
X168294000Y-85128000D01*
X168294000Y-80988000D02*
X168294000Y-80048000D01*
X168294000Y-78448000D02*
X168294000Y-77508000D01*
X168294000Y-75908000D02*
X168294000Y-74598000D01*
X175114000Y-75908000D02*
X175114000Y-74598000D01*
X175114000Y-78448000D02*
X175114000Y-77508000D01*
X175114000Y-80988000D02*
X175114000Y-80048000D01*
X175114000Y-83528000D02*
X175114000Y-82588000D01*
X175114000Y-86438000D02*
X175114000Y-85128000D01*
X175114000Y-74598000D02*
X168294000Y-74598000D01*
X175114000Y-86438000D02*
X168294000Y-86438000D01*
G04 #@! TO.C,J403*
X151406694Y-54610000D02*
G75*
G03X151406694Y-54610000I-1800694J0D01*
G01*
X175790694Y-91948000D02*
G75*
G03X175790694Y-91948000I-1800694J0D01*
G01*
G04 #@! TO.C,R418*
X164594000Y-63163267D02*
X164594000Y-62820733D01*
X163574000Y-63163267D02*
X163574000Y-62820733D01*
G04 #@! TO.C,R419*
X162562000Y-63163267D02*
X162562000Y-62820733D01*
X161542000Y-63163267D02*
X161542000Y-62820733D01*
G04 #@! TO.C,R417*
X160530000Y-63163267D02*
X160530000Y-62820733D01*
X159510000Y-63163267D02*
X159510000Y-62820733D01*
G04 #@! TO.C,R415*
X160530000Y-69259267D02*
X160530000Y-68916733D01*
X159510000Y-69259267D02*
X159510000Y-68916733D01*
G04 #@! TO.C,R414*
X164594000Y-69259267D02*
X164594000Y-68916733D01*
X163574000Y-69259267D02*
X163574000Y-68916733D01*
G04 #@! TO.C,R416*
X162562000Y-69259267D02*
X162562000Y-68916733D01*
X161542000Y-69259267D02*
X161542000Y-68916733D01*
G04 #@! TO.C,R413*
X162562000Y-77020267D02*
X162562000Y-76677733D01*
X161542000Y-77020267D02*
X161542000Y-76677733D01*
G04 #@! TO.C,R408*
X164594000Y-86023267D02*
X164594000Y-85680733D01*
X163574000Y-86023267D02*
X163574000Y-85680733D01*
G04 #@! TO.C,R411*
X164594000Y-77020267D02*
X164594000Y-76677733D01*
X163574000Y-77020267D02*
X163574000Y-76677733D01*
G04 #@! TO.C,R410*
X162562000Y-86023267D02*
X162562000Y-85680733D01*
X161542000Y-86023267D02*
X161542000Y-85680733D01*
G04 #@! TO.C,R409*
X160530000Y-86023267D02*
X160530000Y-85680733D01*
X159510000Y-86023267D02*
X159510000Y-85680733D01*
G04 #@! TO.C,R412*
X160530000Y-77020267D02*
X160530000Y-76677733D01*
X159510000Y-77020267D02*
X159510000Y-76677733D01*
G04 #@! TO.C,J403*
X175790694Y-54610000D02*
G75*
G03X175790694Y-54610000I-1800694J0D01*
G01*
X151406694Y-91948000D02*
G75*
G03X151406694Y-91948000I-1800694J0D01*
G01*
G04 #@! TO.C,D201*
X168865000Y-137470000D02*
X166005000Y-137470000D01*
X168865000Y-139390000D02*
X168865000Y-137470000D01*
X166005000Y-139390000D02*
X168865000Y-139390000D01*
G04 #@! TO.C,D401*
X158734000Y-90226000D02*
X155874000Y-90226000D01*
X155874000Y-90226000D02*
X155874000Y-92146000D01*
X155874000Y-92146000D02*
X158734000Y-92146000D01*
G04 #@! TO.C,J201*
X167475000Y-114825000D02*
X167475000Y-115425000D01*
X169075000Y-114825000D02*
X167475000Y-114825000D01*
X169075000Y-115425000D02*
X169075000Y-114825000D01*
X170015000Y-114825000D02*
X170015000Y-115425000D01*
X171615000Y-114825000D02*
X170015000Y-114825000D01*
X171615000Y-115425000D02*
X171615000Y-114825000D01*
X172555000Y-114825000D02*
X172555000Y-115425000D01*
X174155000Y-114825000D02*
X172555000Y-114825000D01*
X174155000Y-115425000D02*
X174155000Y-114825000D01*
X175095000Y-114825000D02*
X175095000Y-115425000D01*
X176695000Y-114825000D02*
X175095000Y-114825000D01*
X176695000Y-115425000D02*
X176695000Y-114825000D01*
X168525000Y-109405000D02*
X168525000Y-110405000D01*
X175645000Y-109405000D02*
X175645000Y-110405000D01*
X168525000Y-110935000D02*
X168275000Y-110405000D01*
X175645000Y-110935000D02*
X168525000Y-110935000D01*
X175895000Y-110405000D02*
X175645000Y-110935000D01*
X168275000Y-110405000D02*
X168275000Y-109405000D01*
X175895000Y-110405000D02*
X168275000Y-110405000D01*
X175895000Y-109405000D02*
X175895000Y-110405000D01*
X177565000Y-114395000D02*
X177565000Y-110395000D01*
X166895000Y-115425000D02*
X177275000Y-115425000D01*
X166895000Y-109405000D02*
X166895000Y-115425000D01*
X177275000Y-109405000D02*
X166895000Y-109405000D01*
X177275000Y-115425000D02*
X177275000Y-109405000D01*
G04 #@! TO.C,J202*
X177275000Y-137015000D02*
X177275000Y-130995000D01*
X177275000Y-130995000D02*
X166895000Y-130995000D01*
X166895000Y-130995000D02*
X166895000Y-137015000D01*
X166895000Y-137015000D02*
X177275000Y-137015000D01*
X177565000Y-135985000D02*
X177565000Y-131985000D01*
X175895000Y-130995000D02*
X175895000Y-131995000D01*
X175895000Y-131995000D02*
X168275000Y-131995000D01*
X168275000Y-131995000D02*
X168275000Y-130995000D01*
X175895000Y-131995000D02*
X175645000Y-132525000D01*
X175645000Y-132525000D02*
X168525000Y-132525000D01*
X168525000Y-132525000D02*
X168275000Y-131995000D01*
X175645000Y-130995000D02*
X175645000Y-131995000D01*
X168525000Y-130995000D02*
X168525000Y-131995000D01*
X176695000Y-137015000D02*
X176695000Y-136415000D01*
X176695000Y-136415000D02*
X175095000Y-136415000D01*
X175095000Y-136415000D02*
X175095000Y-137015000D01*
X174155000Y-137015000D02*
X174155000Y-136415000D01*
X174155000Y-136415000D02*
X172555000Y-136415000D01*
X172555000Y-136415000D02*
X172555000Y-137015000D01*
X171615000Y-137015000D02*
X171615000Y-136415000D01*
X171615000Y-136415000D02*
X170015000Y-136415000D01*
X170015000Y-136415000D02*
X170015000Y-137015000D01*
X169075000Y-137015000D02*
X169075000Y-136415000D01*
X169075000Y-136415000D02*
X167475000Y-136415000D01*
X167475000Y-136415000D02*
X167475000Y-137015000D01*
G04 #@! TO.C,J401*
X155592000Y-51580000D02*
X155592000Y-57600000D01*
X155592000Y-57600000D02*
X168512000Y-57600000D01*
X168512000Y-57600000D02*
X168512000Y-51580000D01*
X168512000Y-51580000D02*
X155592000Y-51580000D01*
X155302000Y-52610000D02*
X155302000Y-56610000D01*
X156972000Y-57600000D02*
X156972000Y-56600000D01*
X156972000Y-56600000D02*
X167132000Y-56600000D01*
X167132000Y-56600000D02*
X167132000Y-57600000D01*
X156972000Y-56600000D02*
X157222000Y-56070000D01*
X157222000Y-56070000D02*
X166882000Y-56070000D01*
X166882000Y-56070000D02*
X167132000Y-56600000D01*
X157222000Y-57600000D02*
X157222000Y-56600000D01*
X166882000Y-57600000D02*
X166882000Y-56600000D01*
X156172000Y-51580000D02*
X156172000Y-52180000D01*
X156172000Y-52180000D02*
X157772000Y-52180000D01*
X157772000Y-52180000D02*
X157772000Y-51580000D01*
X158712000Y-51580000D02*
X158712000Y-52180000D01*
X158712000Y-52180000D02*
X160312000Y-52180000D01*
X160312000Y-52180000D02*
X160312000Y-51580000D01*
X161252000Y-51580000D02*
X161252000Y-52180000D01*
X161252000Y-52180000D02*
X162852000Y-52180000D01*
X162852000Y-52180000D02*
X162852000Y-51580000D01*
X163792000Y-51580000D02*
X163792000Y-52180000D01*
X163792000Y-52180000D02*
X165392000Y-52180000D01*
X165392000Y-52180000D02*
X165392000Y-51580000D01*
X166332000Y-51580000D02*
X166332000Y-52180000D01*
X166332000Y-52180000D02*
X167932000Y-52180000D01*
X167932000Y-52180000D02*
X167932000Y-51580000D01*
G04 #@! TO.C,J404*
X157772000Y-81390000D02*
X157772000Y-80790000D01*
X156172000Y-81390000D02*
X157772000Y-81390000D01*
X156172000Y-80790000D02*
X156172000Y-81390000D01*
X155232000Y-81390000D02*
X155232000Y-80790000D01*
X153632000Y-81390000D02*
X155232000Y-81390000D01*
X153632000Y-80790000D02*
X153632000Y-81390000D01*
X152692000Y-81390000D02*
X152692000Y-80790000D01*
X151092000Y-81390000D02*
X152692000Y-81390000D01*
X151092000Y-80790000D02*
X151092000Y-81390000D01*
X150152000Y-81390000D02*
X150152000Y-80790000D01*
X148552000Y-81390000D02*
X150152000Y-81390000D01*
X148552000Y-80790000D02*
X148552000Y-81390000D01*
X147612000Y-81390000D02*
X147612000Y-80790000D01*
X146012000Y-81390000D02*
X147612000Y-81390000D01*
X146012000Y-80790000D02*
X146012000Y-81390000D01*
X156722000Y-86810000D02*
X156722000Y-85810000D01*
X147062000Y-86810000D02*
X147062000Y-85810000D01*
X156722000Y-85280000D02*
X156972000Y-85810000D01*
X147062000Y-85280000D02*
X156722000Y-85280000D01*
X146812000Y-85810000D02*
X147062000Y-85280000D01*
X156972000Y-85810000D02*
X156972000Y-86810000D01*
X146812000Y-85810000D02*
X156972000Y-85810000D01*
X146812000Y-86810000D02*
X146812000Y-85810000D01*
X145142000Y-81820000D02*
X145142000Y-85820000D01*
X158352000Y-80790000D02*
X145432000Y-80790000D01*
X158352000Y-86810000D02*
X158352000Y-80790000D01*
X145432000Y-86810000D02*
X158352000Y-86810000D01*
X145432000Y-80790000D02*
X145432000Y-86810000D01*
G04 #@! TO.C,J405*
X145432000Y-73932000D02*
X145432000Y-79952000D01*
X145432000Y-79952000D02*
X158352000Y-79952000D01*
X158352000Y-79952000D02*
X158352000Y-73932000D01*
X158352000Y-73932000D02*
X145432000Y-73932000D01*
X145142000Y-74962000D02*
X145142000Y-78962000D01*
X146812000Y-79952000D02*
X146812000Y-78952000D01*
X146812000Y-78952000D02*
X156972000Y-78952000D01*
X156972000Y-78952000D02*
X156972000Y-79952000D01*
X146812000Y-78952000D02*
X147062000Y-78422000D01*
X147062000Y-78422000D02*
X156722000Y-78422000D01*
X156722000Y-78422000D02*
X156972000Y-78952000D01*
X147062000Y-79952000D02*
X147062000Y-78952000D01*
X156722000Y-79952000D02*
X156722000Y-78952000D01*
X146012000Y-73932000D02*
X146012000Y-74532000D01*
X146012000Y-74532000D02*
X147612000Y-74532000D01*
X147612000Y-74532000D02*
X147612000Y-73932000D01*
X148552000Y-73932000D02*
X148552000Y-74532000D01*
X148552000Y-74532000D02*
X150152000Y-74532000D01*
X150152000Y-74532000D02*
X150152000Y-73932000D01*
X151092000Y-73932000D02*
X151092000Y-74532000D01*
X151092000Y-74532000D02*
X152692000Y-74532000D01*
X152692000Y-74532000D02*
X152692000Y-73932000D01*
X153632000Y-73932000D02*
X153632000Y-74532000D01*
X153632000Y-74532000D02*
X155232000Y-74532000D01*
X155232000Y-74532000D02*
X155232000Y-73932000D01*
X156172000Y-73932000D02*
X156172000Y-74532000D01*
X156172000Y-74532000D02*
X157772000Y-74532000D01*
X157772000Y-74532000D02*
X157772000Y-73932000D01*
G04 #@! TO.C,J406*
X157772000Y-67674000D02*
X157772000Y-67074000D01*
X156172000Y-67674000D02*
X157772000Y-67674000D01*
X156172000Y-67074000D02*
X156172000Y-67674000D01*
X155232000Y-67674000D02*
X155232000Y-67074000D01*
X153632000Y-67674000D02*
X155232000Y-67674000D01*
X153632000Y-67074000D02*
X153632000Y-67674000D01*
X152692000Y-67674000D02*
X152692000Y-67074000D01*
X151092000Y-67674000D02*
X152692000Y-67674000D01*
X151092000Y-67074000D02*
X151092000Y-67674000D01*
X150152000Y-67674000D02*
X150152000Y-67074000D01*
X148552000Y-67674000D02*
X150152000Y-67674000D01*
X148552000Y-67074000D02*
X148552000Y-67674000D01*
X147612000Y-67674000D02*
X147612000Y-67074000D01*
X146012000Y-67674000D02*
X147612000Y-67674000D01*
X146012000Y-67074000D02*
X146012000Y-67674000D01*
X156722000Y-73094000D02*
X156722000Y-72094000D01*
X147062000Y-73094000D02*
X147062000Y-72094000D01*
X156722000Y-71564000D02*
X156972000Y-72094000D01*
X147062000Y-71564000D02*
X156722000Y-71564000D01*
X146812000Y-72094000D02*
X147062000Y-71564000D01*
X156972000Y-72094000D02*
X156972000Y-73094000D01*
X146812000Y-72094000D02*
X156972000Y-72094000D01*
X146812000Y-73094000D02*
X146812000Y-72094000D01*
X145142000Y-68104000D02*
X145142000Y-72104000D01*
X158352000Y-67074000D02*
X145432000Y-67074000D01*
X158352000Y-73094000D02*
X158352000Y-67074000D01*
X145432000Y-73094000D02*
X158352000Y-73094000D01*
X145432000Y-67074000D02*
X145432000Y-73094000D01*
G04 #@! TO.C,J407*
X145432000Y-60216000D02*
X145432000Y-66236000D01*
X145432000Y-66236000D02*
X158352000Y-66236000D01*
X158352000Y-66236000D02*
X158352000Y-60216000D01*
X158352000Y-60216000D02*
X145432000Y-60216000D01*
X145142000Y-61246000D02*
X145142000Y-65246000D01*
X146812000Y-66236000D02*
X146812000Y-65236000D01*
X146812000Y-65236000D02*
X156972000Y-65236000D01*
X156972000Y-65236000D02*
X156972000Y-66236000D01*
X146812000Y-65236000D02*
X147062000Y-64706000D01*
X147062000Y-64706000D02*
X156722000Y-64706000D01*
X156722000Y-64706000D02*
X156972000Y-65236000D01*
X147062000Y-66236000D02*
X147062000Y-65236000D01*
X156722000Y-66236000D02*
X156722000Y-65236000D01*
X146012000Y-60216000D02*
X146012000Y-60816000D01*
X146012000Y-60816000D02*
X147612000Y-60816000D01*
X147612000Y-60816000D02*
X147612000Y-60216000D01*
X148552000Y-60216000D02*
X148552000Y-60816000D01*
X148552000Y-60816000D02*
X150152000Y-60816000D01*
X150152000Y-60816000D02*
X150152000Y-60216000D01*
X151092000Y-60216000D02*
X151092000Y-60816000D01*
X151092000Y-60816000D02*
X152692000Y-60816000D01*
X152692000Y-60816000D02*
X152692000Y-60216000D01*
X153632000Y-60216000D02*
X153632000Y-60816000D01*
X153632000Y-60816000D02*
X155232000Y-60816000D01*
X155232000Y-60816000D02*
X155232000Y-60216000D01*
X156172000Y-60216000D02*
X156172000Y-60816000D01*
X156172000Y-60816000D02*
X157772000Y-60816000D01*
X157772000Y-60816000D02*
X157772000Y-60216000D01*
G04 #@! TO.C,R201*
X165173922Y-118185000D02*
X165691078Y-118185000D01*
X165173922Y-116765000D02*
X165691078Y-116765000D01*
G04 #@! TO.C,R202*
X168953922Y-118185000D02*
X169471078Y-118185000D01*
X168953922Y-116765000D02*
X169471078Y-116765000D01*
G04 #@! TO.C,R203*
X176513748Y-139140000D02*
X177036252Y-139140000D01*
X176513748Y-137720000D02*
X177036252Y-137720000D01*
G04 #@! TO.C,R204*
X177423578Y-118185000D02*
X176906422Y-118185000D01*
X177423578Y-116765000D02*
X176906422Y-116765000D01*
G04 #@! TO.C,R205*
X173281078Y-118185000D02*
X172763922Y-118185000D01*
X173281078Y-116765000D02*
X172763922Y-116765000D01*
G04 #@! TO.C,R206*
X165143922Y-126925000D02*
X165661078Y-126925000D01*
X165143922Y-128345000D02*
X165661078Y-128345000D01*
G04 #@! TO.C,R207*
X168953922Y-128345000D02*
X169471078Y-128345000D01*
X168953922Y-126925000D02*
X169471078Y-126925000D01*
G04 #@! TO.C,R208*
X177121078Y-126925000D02*
X176603922Y-126925000D01*
X177121078Y-128345000D02*
X176603922Y-128345000D01*
G04 #@! TO.C,R209*
X173281078Y-128345000D02*
X172763922Y-128345000D01*
X173281078Y-126925000D02*
X172763922Y-126925000D01*
G04 #@! TO.C,R403*
X161781748Y-91896000D02*
X162304252Y-91896000D01*
X161781748Y-90476000D02*
X162304252Y-90476000D01*
G04 #@! TO.C,U201*
D12*
X170370714Y-118507380D02*
X170370714Y-119316904D01*
X170418333Y-119412142D01*
X170465952Y-119459761D01*
X170561190Y-119507380D01*
X170751666Y-119507380D01*
X170846904Y-119459761D01*
X170894523Y-119412142D01*
X170942142Y-119316904D01*
X170942142Y-118507380D01*
X171370714Y-118602619D02*
X171418333Y-118555000D01*
X171513571Y-118507380D01*
X171751666Y-118507380D01*
X171846904Y-118555000D01*
X171894523Y-118602619D01*
X171942142Y-118697857D01*
X171942142Y-118793095D01*
X171894523Y-118935952D01*
X171323095Y-119507380D01*
X171942142Y-119507380D01*
X172561190Y-118507380D02*
X172656428Y-118507380D01*
X172751666Y-118555000D01*
X172799285Y-118602619D01*
X172846904Y-118697857D01*
X172894523Y-118888333D01*
X172894523Y-119126428D01*
X172846904Y-119316904D01*
X172799285Y-119412142D01*
X172751666Y-119459761D01*
X172656428Y-119507380D01*
X172561190Y-119507380D01*
X172465952Y-119459761D01*
X172418333Y-119412142D01*
X172370714Y-119316904D01*
X172323095Y-119126428D01*
X172323095Y-118888333D01*
X172370714Y-118697857D01*
X172418333Y-118602619D01*
X172465952Y-118555000D01*
X172561190Y-118507380D01*
X173846904Y-119507380D02*
X173275476Y-119507380D01*
X173561190Y-119507380D02*
X173561190Y-118507380D01*
X173465952Y-118650238D01*
X173370714Y-118745476D01*
X173275476Y-118793095D01*
G04 #@! TO.C,R304*
X127912952Y-83128380D02*
X127579619Y-82652190D01*
X127341523Y-83128380D02*
X127341523Y-82128380D01*
X127722476Y-82128380D01*
X127817714Y-82176000D01*
X127865333Y-82223619D01*
X127912952Y-82318857D01*
X127912952Y-82461714D01*
X127865333Y-82556952D01*
X127817714Y-82604571D01*
X127722476Y-82652190D01*
X127341523Y-82652190D01*
X128246285Y-82128380D02*
X128865333Y-82128380D01*
X128532000Y-82509333D01*
X128674857Y-82509333D01*
X128770095Y-82556952D01*
X128817714Y-82604571D01*
X128865333Y-82699809D01*
X128865333Y-82937904D01*
X128817714Y-83033142D01*
X128770095Y-83080761D01*
X128674857Y-83128380D01*
X128389142Y-83128380D01*
X128293904Y-83080761D01*
X128246285Y-83033142D01*
X129484380Y-82128380D02*
X129579619Y-82128380D01*
X129674857Y-82176000D01*
X129722476Y-82223619D01*
X129770095Y-82318857D01*
X129817714Y-82509333D01*
X129817714Y-82747428D01*
X129770095Y-82937904D01*
X129722476Y-83033142D01*
X129674857Y-83080761D01*
X129579619Y-83128380D01*
X129484380Y-83128380D01*
X129389142Y-83080761D01*
X129341523Y-83033142D01*
X129293904Y-82937904D01*
X129246285Y-82747428D01*
X129246285Y-82509333D01*
X129293904Y-82318857D01*
X129341523Y-82223619D01*
X129389142Y-82176000D01*
X129484380Y-82128380D01*
X130674857Y-82461714D02*
X130674857Y-83128380D01*
X130436761Y-82080761D02*
X130198666Y-82795047D01*
X130817714Y-82795047D01*
G04 #@! TO.C,U501*
X99377714Y-119748380D02*
X99377714Y-120557904D01*
X99425333Y-120653142D01*
X99472952Y-120700761D01*
X99568190Y-120748380D01*
X99758666Y-120748380D01*
X99853904Y-120700761D01*
X99901523Y-120653142D01*
X99949142Y-120557904D01*
X99949142Y-119748380D01*
X100901523Y-119748380D02*
X100425333Y-119748380D01*
X100377714Y-120224571D01*
X100425333Y-120176952D01*
X100520571Y-120129333D01*
X100758666Y-120129333D01*
X100853904Y-120176952D01*
X100901523Y-120224571D01*
X100949142Y-120319809D01*
X100949142Y-120557904D01*
X100901523Y-120653142D01*
X100853904Y-120700761D01*
X100758666Y-120748380D01*
X100520571Y-120748380D01*
X100425333Y-120700761D01*
X100377714Y-120653142D01*
X101568190Y-119748380D02*
X101663428Y-119748380D01*
X101758666Y-119796000D01*
X101806285Y-119843619D01*
X101853904Y-119938857D01*
X101901523Y-120129333D01*
X101901523Y-120367428D01*
X101853904Y-120557904D01*
X101806285Y-120653142D01*
X101758666Y-120700761D01*
X101663428Y-120748380D01*
X101568190Y-120748380D01*
X101472952Y-120700761D01*
X101425333Y-120653142D01*
X101377714Y-120557904D01*
X101330095Y-120367428D01*
X101330095Y-120129333D01*
X101377714Y-119938857D01*
X101425333Y-119843619D01*
X101472952Y-119796000D01*
X101568190Y-119748380D01*
X102853904Y-120748380D02*
X102282476Y-120748380D01*
X102568190Y-120748380D02*
X102568190Y-119748380D01*
X102472952Y-119891238D01*
X102377714Y-119986476D01*
X102282476Y-120034095D01*
G04 #@! TO.C,D301*
X127341523Y-77796380D02*
X127341523Y-76796380D01*
X127579619Y-76796380D01*
X127722476Y-76844000D01*
X127817714Y-76939238D01*
X127865333Y-77034476D01*
X127912952Y-77224952D01*
X127912952Y-77367809D01*
X127865333Y-77558285D01*
X127817714Y-77653523D01*
X127722476Y-77748761D01*
X127579619Y-77796380D01*
X127341523Y-77796380D01*
X128246285Y-76796380D02*
X128865333Y-76796380D01*
X128532000Y-77177333D01*
X128674857Y-77177333D01*
X128770095Y-77224952D01*
X128817714Y-77272571D01*
X128865333Y-77367809D01*
X128865333Y-77605904D01*
X128817714Y-77701142D01*
X128770095Y-77748761D01*
X128674857Y-77796380D01*
X128389142Y-77796380D01*
X128293904Y-77748761D01*
X128246285Y-77701142D01*
X129484380Y-76796380D02*
X129579619Y-76796380D01*
X129674857Y-76844000D01*
X129722476Y-76891619D01*
X129770095Y-76986857D01*
X129817714Y-77177333D01*
X129817714Y-77415428D01*
X129770095Y-77605904D01*
X129722476Y-77701142D01*
X129674857Y-77748761D01*
X129579619Y-77796380D01*
X129484380Y-77796380D01*
X129389142Y-77748761D01*
X129341523Y-77701142D01*
X129293904Y-77605904D01*
X129246285Y-77415428D01*
X129246285Y-77177333D01*
X129293904Y-76986857D01*
X129341523Y-76891619D01*
X129389142Y-76844000D01*
X129484380Y-76796380D01*
X130770095Y-77796380D02*
X130198666Y-77796380D01*
X130484380Y-77796380D02*
X130484380Y-76796380D01*
X130389142Y-76939238D01*
X130293904Y-77034476D01*
X130198666Y-77082095D01*
G04 #@! TO.C,J403*
X148320285Y-56612380D02*
X148320285Y-57326666D01*
X148272666Y-57469523D01*
X148177428Y-57564761D01*
X148034571Y-57612380D01*
X147939333Y-57612380D01*
X149225047Y-56945714D02*
X149225047Y-57612380D01*
X148986952Y-56564761D02*
X148748857Y-57279047D01*
X149367904Y-57279047D01*
X149939333Y-56612380D02*
X150034571Y-56612380D01*
X150129809Y-56660000D01*
X150177428Y-56707619D01*
X150225047Y-56802857D01*
X150272666Y-56993333D01*
X150272666Y-57231428D01*
X150225047Y-57421904D01*
X150177428Y-57517142D01*
X150129809Y-57564761D01*
X150034571Y-57612380D01*
X149939333Y-57612380D01*
X149844095Y-57564761D01*
X149796476Y-57517142D01*
X149748857Y-57421904D01*
X149701238Y-57231428D01*
X149701238Y-56993333D01*
X149748857Y-56802857D01*
X149796476Y-56707619D01*
X149844095Y-56660000D01*
X149939333Y-56612380D01*
X150606000Y-56612380D02*
X151225047Y-56612380D01*
X150891714Y-56993333D01*
X151034571Y-56993333D01*
X151129809Y-57040952D01*
X151177428Y-57088571D01*
X151225047Y-57183809D01*
X151225047Y-57421904D01*
X151177428Y-57517142D01*
X151129809Y-57564761D01*
X151034571Y-57612380D01*
X150748857Y-57612380D01*
X150653619Y-57564761D01*
X150606000Y-57517142D01*
X172704285Y-93950380D02*
X172704285Y-94664666D01*
X172656666Y-94807523D01*
X172561428Y-94902761D01*
X172418571Y-94950380D01*
X172323333Y-94950380D01*
X173609047Y-94283714D02*
X173609047Y-94950380D01*
X173370952Y-93902761D02*
X173132857Y-94617047D01*
X173751904Y-94617047D01*
X174323333Y-93950380D02*
X174418571Y-93950380D01*
X174513809Y-93998000D01*
X174561428Y-94045619D01*
X174609047Y-94140857D01*
X174656666Y-94331333D01*
X174656666Y-94569428D01*
X174609047Y-94759904D01*
X174561428Y-94855142D01*
X174513809Y-94902761D01*
X174418571Y-94950380D01*
X174323333Y-94950380D01*
X174228095Y-94902761D01*
X174180476Y-94855142D01*
X174132857Y-94759904D01*
X174085238Y-94569428D01*
X174085238Y-94331333D01*
X174132857Y-94140857D01*
X174180476Y-94045619D01*
X174228095Y-93998000D01*
X174323333Y-93950380D01*
X174990000Y-93950380D02*
X175609047Y-93950380D01*
X175275714Y-94331333D01*
X175418571Y-94331333D01*
X175513809Y-94378952D01*
X175561428Y-94426571D01*
X175609047Y-94521809D01*
X175609047Y-94759904D01*
X175561428Y-94855142D01*
X175513809Y-94902761D01*
X175418571Y-94950380D01*
X175132857Y-94950380D01*
X175037619Y-94902761D01*
X174990000Y-94855142D01*
X172704285Y-56612380D02*
X172704285Y-57326666D01*
X172656666Y-57469523D01*
X172561428Y-57564761D01*
X172418571Y-57612380D01*
X172323333Y-57612380D01*
X173609047Y-56945714D02*
X173609047Y-57612380D01*
X173370952Y-56564761D02*
X173132857Y-57279047D01*
X173751904Y-57279047D01*
X174323333Y-56612380D02*
X174418571Y-56612380D01*
X174513809Y-56660000D01*
X174561428Y-56707619D01*
X174609047Y-56802857D01*
X174656666Y-56993333D01*
X174656666Y-57231428D01*
X174609047Y-57421904D01*
X174561428Y-57517142D01*
X174513809Y-57564761D01*
X174418571Y-57612380D01*
X174323333Y-57612380D01*
X174228095Y-57564761D01*
X174180476Y-57517142D01*
X174132857Y-57421904D01*
X174085238Y-57231428D01*
X174085238Y-56993333D01*
X174132857Y-56802857D01*
X174180476Y-56707619D01*
X174228095Y-56660000D01*
X174323333Y-56612380D01*
X174990000Y-56612380D02*
X175609047Y-56612380D01*
X175275714Y-56993333D01*
X175418571Y-56993333D01*
X175513809Y-57040952D01*
X175561428Y-57088571D01*
X175609047Y-57183809D01*
X175609047Y-57421904D01*
X175561428Y-57517142D01*
X175513809Y-57564761D01*
X175418571Y-57612380D01*
X175132857Y-57612380D01*
X175037619Y-57564761D01*
X174990000Y-57517142D01*
X151608380Y-93233714D02*
X152322666Y-93233714D01*
X152465523Y-93281333D01*
X152560761Y-93376571D01*
X152608380Y-93519428D01*
X152608380Y-93614666D01*
X151941714Y-92328952D02*
X152608380Y-92328952D01*
X151560761Y-92567047D02*
X152275047Y-92805142D01*
X152275047Y-92186095D01*
X151608380Y-91614666D02*
X151608380Y-91519428D01*
X151656000Y-91424190D01*
X151703619Y-91376571D01*
X151798857Y-91328952D01*
X151989333Y-91281333D01*
X152227428Y-91281333D01*
X152417904Y-91328952D01*
X152513142Y-91376571D01*
X152560761Y-91424190D01*
X152608380Y-91519428D01*
X152608380Y-91614666D01*
X152560761Y-91709904D01*
X152513142Y-91757523D01*
X152417904Y-91805142D01*
X152227428Y-91852761D01*
X151989333Y-91852761D01*
X151798857Y-91805142D01*
X151703619Y-91757523D01*
X151656000Y-91709904D01*
X151608380Y-91614666D01*
X151608380Y-90948000D02*
X151608380Y-90328952D01*
X151989333Y-90662285D01*
X151989333Y-90519428D01*
X152036952Y-90424190D01*
X152084571Y-90376571D01*
X152179809Y-90328952D01*
X152417904Y-90328952D01*
X152513142Y-90376571D01*
X152560761Y-90424190D01*
X152608380Y-90519428D01*
X152608380Y-90805142D01*
X152560761Y-90900380D01*
X152513142Y-90948000D01*
G04 #@! TO.C,D401*
X156043523Y-89988380D02*
X156043523Y-88988380D01*
X156281619Y-88988380D01*
X156424476Y-89036000D01*
X156519714Y-89131238D01*
X156567333Y-89226476D01*
X156614952Y-89416952D01*
X156614952Y-89559809D01*
X156567333Y-89750285D01*
X156519714Y-89845523D01*
X156424476Y-89940761D01*
X156281619Y-89988380D01*
X156043523Y-89988380D01*
X157472095Y-89321714D02*
X157472095Y-89988380D01*
X157234000Y-88940761D02*
X156995904Y-89655047D01*
X157614952Y-89655047D01*
X158186380Y-88988380D02*
X158281619Y-88988380D01*
X158376857Y-89036000D01*
X158424476Y-89083619D01*
X158472095Y-89178857D01*
X158519714Y-89369333D01*
X158519714Y-89607428D01*
X158472095Y-89797904D01*
X158424476Y-89893142D01*
X158376857Y-89940761D01*
X158281619Y-89988380D01*
X158186380Y-89988380D01*
X158091142Y-89940761D01*
X158043523Y-89893142D01*
X157995904Y-89797904D01*
X157948285Y-89607428D01*
X157948285Y-89369333D01*
X157995904Y-89178857D01*
X158043523Y-89083619D01*
X158091142Y-89036000D01*
X158186380Y-88988380D01*
X159472095Y-89988380D02*
X158900666Y-89988380D01*
X159186380Y-89988380D02*
X159186380Y-88988380D01*
X159091142Y-89131238D01*
X158995904Y-89226476D01*
X158900666Y-89274095D01*
G04 #@! TO.C,J204*
X170164285Y-97877380D02*
X170164285Y-98591666D01*
X170116666Y-98734523D01*
X170021428Y-98829761D01*
X169878571Y-98877380D01*
X169783333Y-98877380D01*
X170592857Y-97972619D02*
X170640476Y-97925000D01*
X170735714Y-97877380D01*
X170973809Y-97877380D01*
X171069047Y-97925000D01*
X171116666Y-97972619D01*
X171164285Y-98067857D01*
X171164285Y-98163095D01*
X171116666Y-98305952D01*
X170545238Y-98877380D01*
X171164285Y-98877380D01*
X171783333Y-97877380D02*
X171878571Y-97877380D01*
X171973809Y-97925000D01*
X172021428Y-97972619D01*
X172069047Y-98067857D01*
X172116666Y-98258333D01*
X172116666Y-98496428D01*
X172069047Y-98686904D01*
X172021428Y-98782142D01*
X171973809Y-98829761D01*
X171878571Y-98877380D01*
X171783333Y-98877380D01*
X171688095Y-98829761D01*
X171640476Y-98782142D01*
X171592857Y-98686904D01*
X171545238Y-98496428D01*
X171545238Y-98258333D01*
X171592857Y-98067857D01*
X171640476Y-97972619D01*
X171688095Y-97925000D01*
X171783333Y-97877380D01*
X172973809Y-98210714D02*
X172973809Y-98877380D01*
X172735714Y-97829761D02*
X172497619Y-98544047D01*
X173116666Y-98544047D01*
G04 #@! TO.C,R201*
X164313452Y-116277380D02*
X163980119Y-115801190D01*
X163742023Y-116277380D02*
X163742023Y-115277380D01*
X164122976Y-115277380D01*
X164218214Y-115325000D01*
X164265833Y-115372619D01*
X164313452Y-115467857D01*
X164313452Y-115610714D01*
X164265833Y-115705952D01*
X164218214Y-115753571D01*
X164122976Y-115801190D01*
X163742023Y-115801190D01*
X164694404Y-115372619D02*
X164742023Y-115325000D01*
X164837261Y-115277380D01*
X165075357Y-115277380D01*
X165170595Y-115325000D01*
X165218214Y-115372619D01*
X165265833Y-115467857D01*
X165265833Y-115563095D01*
X165218214Y-115705952D01*
X164646785Y-116277380D01*
X165265833Y-116277380D01*
X165884880Y-115277380D02*
X165980119Y-115277380D01*
X166075357Y-115325000D01*
X166122976Y-115372619D01*
X166170595Y-115467857D01*
X166218214Y-115658333D01*
X166218214Y-115896428D01*
X166170595Y-116086904D01*
X166122976Y-116182142D01*
X166075357Y-116229761D01*
X165980119Y-116277380D01*
X165884880Y-116277380D01*
X165789642Y-116229761D01*
X165742023Y-116182142D01*
X165694404Y-116086904D01*
X165646785Y-115896428D01*
X165646785Y-115658333D01*
X165694404Y-115467857D01*
X165742023Y-115372619D01*
X165789642Y-115325000D01*
X165884880Y-115277380D01*
X167170595Y-116277380D02*
X166599166Y-116277380D01*
X166884880Y-116277380D02*
X166884880Y-115277380D01*
X166789642Y-115420238D01*
X166694404Y-115515476D01*
X166599166Y-115563095D01*
G04 #@! TO.C,R202*
X168093452Y-116277380D02*
X167760119Y-115801190D01*
X167522023Y-116277380D02*
X167522023Y-115277380D01*
X167902976Y-115277380D01*
X167998214Y-115325000D01*
X168045833Y-115372619D01*
X168093452Y-115467857D01*
X168093452Y-115610714D01*
X168045833Y-115705952D01*
X167998214Y-115753571D01*
X167902976Y-115801190D01*
X167522023Y-115801190D01*
X168474404Y-115372619D02*
X168522023Y-115325000D01*
X168617261Y-115277380D01*
X168855357Y-115277380D01*
X168950595Y-115325000D01*
X168998214Y-115372619D01*
X169045833Y-115467857D01*
X169045833Y-115563095D01*
X168998214Y-115705952D01*
X168426785Y-116277380D01*
X169045833Y-116277380D01*
X169664880Y-115277380D02*
X169760119Y-115277380D01*
X169855357Y-115325000D01*
X169902976Y-115372619D01*
X169950595Y-115467857D01*
X169998214Y-115658333D01*
X169998214Y-115896428D01*
X169950595Y-116086904D01*
X169902976Y-116182142D01*
X169855357Y-116229761D01*
X169760119Y-116277380D01*
X169664880Y-116277380D01*
X169569642Y-116229761D01*
X169522023Y-116182142D01*
X169474404Y-116086904D01*
X169426785Y-115896428D01*
X169426785Y-115658333D01*
X169474404Y-115467857D01*
X169522023Y-115372619D01*
X169569642Y-115325000D01*
X169664880Y-115277380D01*
X170379166Y-115372619D02*
X170426785Y-115325000D01*
X170522023Y-115277380D01*
X170760119Y-115277380D01*
X170855357Y-115325000D01*
X170902976Y-115372619D01*
X170950595Y-115467857D01*
X170950595Y-115563095D01*
X170902976Y-115705952D01*
X170331547Y-116277380D01*
X170950595Y-116277380D01*
G04 #@! TO.C,R203*
X175655952Y-140660380D02*
X175322619Y-140184190D01*
X175084523Y-140660380D02*
X175084523Y-139660380D01*
X175465476Y-139660380D01*
X175560714Y-139708000D01*
X175608333Y-139755619D01*
X175655952Y-139850857D01*
X175655952Y-139993714D01*
X175608333Y-140088952D01*
X175560714Y-140136571D01*
X175465476Y-140184190D01*
X175084523Y-140184190D01*
X176036904Y-139755619D02*
X176084523Y-139708000D01*
X176179761Y-139660380D01*
X176417857Y-139660380D01*
X176513095Y-139708000D01*
X176560714Y-139755619D01*
X176608333Y-139850857D01*
X176608333Y-139946095D01*
X176560714Y-140088952D01*
X175989285Y-140660380D01*
X176608333Y-140660380D01*
X177227380Y-139660380D02*
X177322619Y-139660380D01*
X177417857Y-139708000D01*
X177465476Y-139755619D01*
X177513095Y-139850857D01*
X177560714Y-140041333D01*
X177560714Y-140279428D01*
X177513095Y-140469904D01*
X177465476Y-140565142D01*
X177417857Y-140612761D01*
X177322619Y-140660380D01*
X177227380Y-140660380D01*
X177132142Y-140612761D01*
X177084523Y-140565142D01*
X177036904Y-140469904D01*
X176989285Y-140279428D01*
X176989285Y-140041333D01*
X177036904Y-139850857D01*
X177084523Y-139755619D01*
X177132142Y-139708000D01*
X177227380Y-139660380D01*
X177894047Y-139660380D02*
X178513095Y-139660380D01*
X178179761Y-140041333D01*
X178322619Y-140041333D01*
X178417857Y-140088952D01*
X178465476Y-140136571D01*
X178513095Y-140231809D01*
X178513095Y-140469904D01*
X178465476Y-140565142D01*
X178417857Y-140612761D01*
X178322619Y-140660380D01*
X178036904Y-140660380D01*
X177941666Y-140612761D01*
X177894047Y-140565142D01*
G04 #@! TO.C,R204*
X176045952Y-116276380D02*
X175712619Y-115800190D01*
X175474523Y-116276380D02*
X175474523Y-115276380D01*
X175855476Y-115276380D01*
X175950714Y-115324000D01*
X175998333Y-115371619D01*
X176045952Y-115466857D01*
X176045952Y-115609714D01*
X175998333Y-115704952D01*
X175950714Y-115752571D01*
X175855476Y-115800190D01*
X175474523Y-115800190D01*
X176426904Y-115371619D02*
X176474523Y-115324000D01*
X176569761Y-115276380D01*
X176807857Y-115276380D01*
X176903095Y-115324000D01*
X176950714Y-115371619D01*
X176998333Y-115466857D01*
X176998333Y-115562095D01*
X176950714Y-115704952D01*
X176379285Y-116276380D01*
X176998333Y-116276380D01*
X177617380Y-115276380D02*
X177712619Y-115276380D01*
X177807857Y-115324000D01*
X177855476Y-115371619D01*
X177903095Y-115466857D01*
X177950714Y-115657333D01*
X177950714Y-115895428D01*
X177903095Y-116085904D01*
X177855476Y-116181142D01*
X177807857Y-116228761D01*
X177712619Y-116276380D01*
X177617380Y-116276380D01*
X177522142Y-116228761D01*
X177474523Y-116181142D01*
X177426904Y-116085904D01*
X177379285Y-115895428D01*
X177379285Y-115657333D01*
X177426904Y-115466857D01*
X177474523Y-115371619D01*
X177522142Y-115324000D01*
X177617380Y-115276380D01*
X178807857Y-115609714D02*
X178807857Y-116276380D01*
X178569761Y-115228761D02*
X178331666Y-115943047D01*
X178950714Y-115943047D01*
G04 #@! TO.C,R205*
X172108952Y-116276380D02*
X171775619Y-115800190D01*
X171537523Y-116276380D02*
X171537523Y-115276380D01*
X171918476Y-115276380D01*
X172013714Y-115324000D01*
X172061333Y-115371619D01*
X172108952Y-115466857D01*
X172108952Y-115609714D01*
X172061333Y-115704952D01*
X172013714Y-115752571D01*
X171918476Y-115800190D01*
X171537523Y-115800190D01*
X172489904Y-115371619D02*
X172537523Y-115324000D01*
X172632761Y-115276380D01*
X172870857Y-115276380D01*
X172966095Y-115324000D01*
X173013714Y-115371619D01*
X173061333Y-115466857D01*
X173061333Y-115562095D01*
X173013714Y-115704952D01*
X172442285Y-116276380D01*
X173061333Y-116276380D01*
X173680380Y-115276380D02*
X173775619Y-115276380D01*
X173870857Y-115324000D01*
X173918476Y-115371619D01*
X173966095Y-115466857D01*
X174013714Y-115657333D01*
X174013714Y-115895428D01*
X173966095Y-116085904D01*
X173918476Y-116181142D01*
X173870857Y-116228761D01*
X173775619Y-116276380D01*
X173680380Y-116276380D01*
X173585142Y-116228761D01*
X173537523Y-116181142D01*
X173489904Y-116085904D01*
X173442285Y-115895428D01*
X173442285Y-115657333D01*
X173489904Y-115466857D01*
X173537523Y-115371619D01*
X173585142Y-115324000D01*
X173680380Y-115276380D01*
X174918476Y-115276380D02*
X174442285Y-115276380D01*
X174394666Y-115752571D01*
X174442285Y-115704952D01*
X174537523Y-115657333D01*
X174775619Y-115657333D01*
X174870857Y-115704952D01*
X174918476Y-115752571D01*
X174966095Y-115847809D01*
X174966095Y-116085904D01*
X174918476Y-116181142D01*
X174870857Y-116228761D01*
X174775619Y-116276380D01*
X174537523Y-116276380D01*
X174442285Y-116228761D01*
X174394666Y-116181142D01*
G04 #@! TO.C,R206*
X164234952Y-129738380D02*
X163901619Y-129262190D01*
X163663523Y-129738380D02*
X163663523Y-128738380D01*
X164044476Y-128738380D01*
X164139714Y-128786000D01*
X164187333Y-128833619D01*
X164234952Y-128928857D01*
X164234952Y-129071714D01*
X164187333Y-129166952D01*
X164139714Y-129214571D01*
X164044476Y-129262190D01*
X163663523Y-129262190D01*
X164615904Y-128833619D02*
X164663523Y-128786000D01*
X164758761Y-128738380D01*
X164996857Y-128738380D01*
X165092095Y-128786000D01*
X165139714Y-128833619D01*
X165187333Y-128928857D01*
X165187333Y-129024095D01*
X165139714Y-129166952D01*
X164568285Y-129738380D01*
X165187333Y-129738380D01*
X165806380Y-128738380D02*
X165901619Y-128738380D01*
X165996857Y-128786000D01*
X166044476Y-128833619D01*
X166092095Y-128928857D01*
X166139714Y-129119333D01*
X166139714Y-129357428D01*
X166092095Y-129547904D01*
X166044476Y-129643142D01*
X165996857Y-129690761D01*
X165901619Y-129738380D01*
X165806380Y-129738380D01*
X165711142Y-129690761D01*
X165663523Y-129643142D01*
X165615904Y-129547904D01*
X165568285Y-129357428D01*
X165568285Y-129119333D01*
X165615904Y-128928857D01*
X165663523Y-128833619D01*
X165711142Y-128786000D01*
X165806380Y-128738380D01*
X166996857Y-128738380D02*
X166806380Y-128738380D01*
X166711142Y-128786000D01*
X166663523Y-128833619D01*
X166568285Y-128976476D01*
X166520666Y-129166952D01*
X166520666Y-129547904D01*
X166568285Y-129643142D01*
X166615904Y-129690761D01*
X166711142Y-129738380D01*
X166901619Y-129738380D01*
X166996857Y-129690761D01*
X167044476Y-129643142D01*
X167092095Y-129547904D01*
X167092095Y-129309809D01*
X167044476Y-129214571D01*
X166996857Y-129166952D01*
X166901619Y-129119333D01*
X166711142Y-129119333D01*
X166615904Y-129166952D01*
X166568285Y-129214571D01*
X166520666Y-129309809D01*
G04 #@! TO.C,R207*
X168044952Y-129738380D02*
X167711619Y-129262190D01*
X167473523Y-129738380D02*
X167473523Y-128738380D01*
X167854476Y-128738380D01*
X167949714Y-128786000D01*
X167997333Y-128833619D01*
X168044952Y-128928857D01*
X168044952Y-129071714D01*
X167997333Y-129166952D01*
X167949714Y-129214571D01*
X167854476Y-129262190D01*
X167473523Y-129262190D01*
X168425904Y-128833619D02*
X168473523Y-128786000D01*
X168568761Y-128738380D01*
X168806857Y-128738380D01*
X168902095Y-128786000D01*
X168949714Y-128833619D01*
X168997333Y-128928857D01*
X168997333Y-129024095D01*
X168949714Y-129166952D01*
X168378285Y-129738380D01*
X168997333Y-129738380D01*
X169616380Y-128738380D02*
X169711619Y-128738380D01*
X169806857Y-128786000D01*
X169854476Y-128833619D01*
X169902095Y-128928857D01*
X169949714Y-129119333D01*
X169949714Y-129357428D01*
X169902095Y-129547904D01*
X169854476Y-129643142D01*
X169806857Y-129690761D01*
X169711619Y-129738380D01*
X169616380Y-129738380D01*
X169521142Y-129690761D01*
X169473523Y-129643142D01*
X169425904Y-129547904D01*
X169378285Y-129357428D01*
X169378285Y-129119333D01*
X169425904Y-128928857D01*
X169473523Y-128833619D01*
X169521142Y-128786000D01*
X169616380Y-128738380D01*
X170283047Y-128738380D02*
X170949714Y-128738380D01*
X170521142Y-129738380D01*
G04 #@! TO.C,R208*
X175743452Y-129737380D02*
X175410119Y-129261190D01*
X175172023Y-129737380D02*
X175172023Y-128737380D01*
X175552976Y-128737380D01*
X175648214Y-128785000D01*
X175695833Y-128832619D01*
X175743452Y-128927857D01*
X175743452Y-129070714D01*
X175695833Y-129165952D01*
X175648214Y-129213571D01*
X175552976Y-129261190D01*
X175172023Y-129261190D01*
X176124404Y-128832619D02*
X176172023Y-128785000D01*
X176267261Y-128737380D01*
X176505357Y-128737380D01*
X176600595Y-128785000D01*
X176648214Y-128832619D01*
X176695833Y-128927857D01*
X176695833Y-129023095D01*
X176648214Y-129165952D01*
X176076785Y-129737380D01*
X176695833Y-129737380D01*
X177314880Y-128737380D02*
X177410119Y-128737380D01*
X177505357Y-128785000D01*
X177552976Y-128832619D01*
X177600595Y-128927857D01*
X177648214Y-129118333D01*
X177648214Y-129356428D01*
X177600595Y-129546904D01*
X177552976Y-129642142D01*
X177505357Y-129689761D01*
X177410119Y-129737380D01*
X177314880Y-129737380D01*
X177219642Y-129689761D01*
X177172023Y-129642142D01*
X177124404Y-129546904D01*
X177076785Y-129356428D01*
X177076785Y-129118333D01*
X177124404Y-128927857D01*
X177172023Y-128832619D01*
X177219642Y-128785000D01*
X177314880Y-128737380D01*
X178219642Y-129165952D02*
X178124404Y-129118333D01*
X178076785Y-129070714D01*
X178029166Y-128975476D01*
X178029166Y-128927857D01*
X178076785Y-128832619D01*
X178124404Y-128785000D01*
X178219642Y-128737380D01*
X178410119Y-128737380D01*
X178505357Y-128785000D01*
X178552976Y-128832619D01*
X178600595Y-128927857D01*
X178600595Y-128975476D01*
X178552976Y-129070714D01*
X178505357Y-129118333D01*
X178410119Y-129165952D01*
X178219642Y-129165952D01*
X178124404Y-129213571D01*
X178076785Y-129261190D01*
X178029166Y-129356428D01*
X178029166Y-129546904D01*
X178076785Y-129642142D01*
X178124404Y-129689761D01*
X178219642Y-129737380D01*
X178410119Y-129737380D01*
X178505357Y-129689761D01*
X178552976Y-129642142D01*
X178600595Y-129546904D01*
X178600595Y-129356428D01*
X178552976Y-129261190D01*
X178505357Y-129213571D01*
X178410119Y-129165952D01*
G04 #@! TO.C,R209*
X171903452Y-129737380D02*
X171570119Y-129261190D01*
X171332023Y-129737380D02*
X171332023Y-128737380D01*
X171712976Y-128737380D01*
X171808214Y-128785000D01*
X171855833Y-128832619D01*
X171903452Y-128927857D01*
X171903452Y-129070714D01*
X171855833Y-129165952D01*
X171808214Y-129213571D01*
X171712976Y-129261190D01*
X171332023Y-129261190D01*
X172284404Y-128832619D02*
X172332023Y-128785000D01*
X172427261Y-128737380D01*
X172665357Y-128737380D01*
X172760595Y-128785000D01*
X172808214Y-128832619D01*
X172855833Y-128927857D01*
X172855833Y-129023095D01*
X172808214Y-129165952D01*
X172236785Y-129737380D01*
X172855833Y-129737380D01*
X173474880Y-128737380D02*
X173570119Y-128737380D01*
X173665357Y-128785000D01*
X173712976Y-128832619D01*
X173760595Y-128927857D01*
X173808214Y-129118333D01*
X173808214Y-129356428D01*
X173760595Y-129546904D01*
X173712976Y-129642142D01*
X173665357Y-129689761D01*
X173570119Y-129737380D01*
X173474880Y-129737380D01*
X173379642Y-129689761D01*
X173332023Y-129642142D01*
X173284404Y-129546904D01*
X173236785Y-129356428D01*
X173236785Y-129118333D01*
X173284404Y-128927857D01*
X173332023Y-128832619D01*
X173379642Y-128785000D01*
X173474880Y-128737380D01*
X174284404Y-129737380D02*
X174474880Y-129737380D01*
X174570119Y-129689761D01*
X174617738Y-129642142D01*
X174712976Y-129499285D01*
X174760595Y-129308809D01*
X174760595Y-128927857D01*
X174712976Y-128832619D01*
X174665357Y-128785000D01*
X174570119Y-128737380D01*
X174379642Y-128737380D01*
X174284404Y-128785000D01*
X174236785Y-128832619D01*
X174189166Y-128927857D01*
X174189166Y-129165952D01*
X174236785Y-129261190D01*
X174284404Y-129308809D01*
X174379642Y-129356428D01*
X174570119Y-129356428D01*
X174665357Y-129308809D01*
X174712976Y-129261190D01*
X174760595Y-129165952D01*
G04 #@! TO.C,R403*
X160923952Y-89988380D02*
X160590619Y-89512190D01*
X160352523Y-89988380D02*
X160352523Y-88988380D01*
X160733476Y-88988380D01*
X160828714Y-89036000D01*
X160876333Y-89083619D01*
X160923952Y-89178857D01*
X160923952Y-89321714D01*
X160876333Y-89416952D01*
X160828714Y-89464571D01*
X160733476Y-89512190D01*
X160352523Y-89512190D01*
X161781095Y-89321714D02*
X161781095Y-89988380D01*
X161543000Y-88940761D02*
X161304904Y-89655047D01*
X161923952Y-89655047D01*
X162495380Y-88988380D02*
X162590619Y-88988380D01*
X162685857Y-89036000D01*
X162733476Y-89083619D01*
X162781095Y-89178857D01*
X162828714Y-89369333D01*
X162828714Y-89607428D01*
X162781095Y-89797904D01*
X162733476Y-89893142D01*
X162685857Y-89940761D01*
X162590619Y-89988380D01*
X162495380Y-89988380D01*
X162400142Y-89940761D01*
X162352523Y-89893142D01*
X162304904Y-89797904D01*
X162257285Y-89607428D01*
X162257285Y-89369333D01*
X162304904Y-89178857D01*
X162352523Y-89083619D01*
X162400142Y-89036000D01*
X162495380Y-88988380D01*
X163162047Y-88988380D02*
X163781095Y-88988380D01*
X163447761Y-89369333D01*
X163590619Y-89369333D01*
X163685857Y-89416952D01*
X163733476Y-89464571D01*
X163781095Y-89559809D01*
X163781095Y-89797904D01*
X163733476Y-89893142D01*
X163685857Y-89940761D01*
X163590619Y-89988380D01*
X163304904Y-89988380D01*
X163209666Y-89940761D01*
X163162047Y-89893142D01*
G04 #@! TD*
M02*
