%FSLAX45Y45*%
G04 Gerber Fmt 4.5, Leading zero omitted, Abs format (unit mm)*
G04 Created by KiCad (PCBNEW 5.0.2+dfsg1-1~bpo9+1) date sam. 29 juin 2019 23:36:13 CEST*
%MOMM*%
%LPD*%
G01*
G04 APERTURE LIST*
%ADD10C,0.200000*%
%ADD11C,0.150000*%
%ADD12C,0.300000*%
G04 APERTURE END LIST*
D10*
X14986000Y-13563600D02*
X14986000Y-9779000D01*
X16256000Y-9779000D02*
X16256000Y-14859000D01*
X16256000Y-9779000D02*
X14986000Y-9779000D01*
D11*
X10820400Y-4953000D02*
X10820400Y-7086600D01*
X14427200Y-4953000D02*
X10820400Y-4953000D01*
D10*
X9347200Y-14224000D02*
X9347200Y-14198600D01*
X10820400Y-14224000D02*
X9347200Y-14224000D01*
X10820400Y-9779000D02*
X10820400Y-14224000D01*
X11963400Y-9779000D02*
X10820400Y-9779000D01*
X11963400Y-13563600D02*
X11963400Y-9779000D01*
X14986000Y-13563600D02*
X11963400Y-13563600D01*
X10820400Y-8763000D02*
X10820400Y-7086600D01*
X9347200Y-8763000D02*
X10820400Y-8763000D01*
X9347200Y-14198600D02*
X9347200Y-8763000D01*
D11*
X17907000Y-4953000D02*
X14427200Y-4953000D01*
D10*
X17907000Y-14859000D02*
X16256000Y-14859000D01*
X17907000Y-4953000D02*
X17907000Y-14859000D01*
D10*
X9454200Y-11587800D02*
X9494200Y-11627800D01*
X9494200Y-11587800D02*
X9454200Y-11627800D01*
X9657400Y-10673400D02*
X9697400Y-10713400D01*
X9697400Y-10673400D02*
X9657400Y-10713400D01*
X9759000Y-11994200D02*
X9799000Y-12034200D01*
X9799000Y-11994200D02*
X9759000Y-12034200D01*
X9936800Y-9911400D02*
X9976800Y-9951400D01*
X9976800Y-9911400D02*
X9936800Y-9951400D01*
X9936800Y-10317800D02*
X9976800Y-10357800D01*
X9976800Y-10317800D02*
X9936800Y-10357800D01*
X10140000Y-9911400D02*
X10180000Y-9951400D01*
X10180000Y-9911400D02*
X10140000Y-9951400D01*
X10241600Y-10165400D02*
X10281600Y-10205400D01*
X10281600Y-10165400D02*
X10241600Y-10205400D01*
X10316500Y-10978200D02*
X10356500Y-11018200D01*
X10356500Y-10978200D02*
X10316500Y-11018200D01*
X10317800Y-10749600D02*
X10357800Y-10789600D01*
X10357800Y-10749600D02*
X10317800Y-10789600D01*
X10317800Y-11181400D02*
X10357800Y-11221400D01*
X10357800Y-11181400D02*
X10317800Y-11221400D01*
X10317800Y-11359200D02*
X10357800Y-11399200D01*
X10357800Y-11359200D02*
X10317800Y-11399200D01*
X10317800Y-11359200D02*
X10357800Y-11399200D01*
X10357800Y-11359200D02*
X10317800Y-11399200D01*
X10317800Y-11562400D02*
X10357800Y-11602400D01*
X10357800Y-11562400D02*
X10317800Y-11602400D01*
X10317800Y-11765600D02*
X10357800Y-11805600D01*
X10357800Y-11765600D02*
X10317800Y-11805600D01*
X10317800Y-11968800D02*
X10357800Y-12008800D01*
X10357800Y-11968800D02*
X10317800Y-12008800D01*
X10495600Y-10622600D02*
X10535600Y-10662600D01*
X10535600Y-10622600D02*
X10495600Y-10662600D01*
X10546400Y-12172000D02*
X10586400Y-12212000D01*
X10586400Y-12172000D02*
X10546400Y-12212000D01*
X12248200Y-8285800D02*
X12288200Y-8325800D01*
X12288200Y-8285800D02*
X12248200Y-8325800D01*
X12248200Y-8844600D02*
X12288200Y-8884600D01*
X12288200Y-8844600D02*
X12248200Y-8884600D01*
X12299000Y-6609400D02*
X12339000Y-6649400D01*
X12339000Y-6609400D02*
X12299000Y-6649400D01*
X12324400Y-8082600D02*
X12364400Y-8122600D01*
X12364400Y-8082600D02*
X12324400Y-8122600D01*
X12502200Y-8844600D02*
X12542200Y-8884600D01*
X12542200Y-8844600D02*
X12502200Y-8884600D01*
X12553000Y-11511600D02*
X12593000Y-11551600D01*
X12593000Y-11511600D02*
X12553000Y-11551600D01*
X12553000Y-11664000D02*
X12593000Y-11704000D01*
X12593000Y-11664000D02*
X12553000Y-11704000D01*
X12554300Y-5949000D02*
X12594300Y-5989000D01*
X12594300Y-5949000D02*
X12554300Y-5989000D01*
X12705400Y-12146600D02*
X12745400Y-12186600D01*
X12745400Y-12146600D02*
X12705400Y-12186600D01*
X12756200Y-8285800D02*
X12796200Y-8325800D01*
X12796200Y-8285800D02*
X12756200Y-8325800D01*
X12756200Y-8844600D02*
X12796200Y-8884600D01*
X12796200Y-8844600D02*
X12756200Y-8884600D01*
X12781600Y-7727000D02*
X12821600Y-7767000D01*
X12821600Y-7727000D02*
X12781600Y-7767000D01*
X12857800Y-12019600D02*
X12897800Y-12059600D01*
X12897800Y-12019600D02*
X12857800Y-12059600D01*
X12883200Y-6609400D02*
X12923200Y-6649400D01*
X12923200Y-6609400D02*
X12883200Y-6649400D01*
X12934000Y-12299000D02*
X12974000Y-12339000D01*
X12974000Y-12299000D02*
X12934000Y-12339000D01*
X12934000Y-12426000D02*
X12974000Y-12466000D01*
X12974000Y-12426000D02*
X12934000Y-12466000D01*
X12934000Y-12553000D02*
X12974000Y-12593000D01*
X12974000Y-12553000D02*
X12934000Y-12593000D01*
X12959400Y-11105200D02*
X12999400Y-11145200D01*
X12999400Y-11105200D02*
X12959400Y-11145200D01*
X13010200Y-11003600D02*
X13050200Y-11043600D01*
X13050200Y-11003600D02*
X13010200Y-11043600D01*
X13010200Y-11003600D02*
X13050200Y-11043600D01*
X13050200Y-11003600D02*
X13010200Y-11043600D01*
X13061000Y-10902000D02*
X13101000Y-10942000D01*
X13101000Y-10902000D02*
X13061000Y-10942000D01*
X13492800Y-11105200D02*
X13532800Y-11145200D01*
X13532800Y-11105200D02*
X13492800Y-11145200D01*
X13543600Y-10267000D02*
X13583600Y-10307000D01*
X13583600Y-10267000D02*
X13543600Y-10307000D01*
X13543600Y-11613200D02*
X13583600Y-11653200D01*
X13583600Y-11613200D02*
X13543600Y-11653200D01*
X13543600Y-13340400D02*
X13583600Y-13380400D01*
X13583600Y-13340400D02*
X13543600Y-13380400D01*
X13645200Y-12172000D02*
X13685200Y-12212000D01*
X13685200Y-12172000D02*
X13645200Y-12212000D01*
X13746800Y-10495600D02*
X13786800Y-10535600D01*
X13786800Y-10495600D02*
X13746800Y-10535600D01*
X13746800Y-10952800D02*
X13786800Y-10992800D01*
X13786800Y-10952800D02*
X13746800Y-10992800D01*
X13823000Y-11613200D02*
X13863000Y-11653200D01*
X13863000Y-11613200D02*
X13823000Y-11653200D01*
X13823000Y-12172000D02*
X13863000Y-12212000D01*
X13863000Y-12172000D02*
X13823000Y-12212000D01*
X13924600Y-10952800D02*
X13964600Y-10992800D01*
X13964600Y-10952800D02*
X13924600Y-10992800D01*
X14000800Y-12172000D02*
X14040800Y-12212000D01*
X14040800Y-12172000D02*
X14000800Y-12212000D01*
X14026200Y-11105200D02*
X14066200Y-11145200D01*
X14066200Y-11105200D02*
X14026200Y-11145200D01*
X15651800Y-8870000D02*
X15691800Y-8910000D01*
X15691800Y-8870000D02*
X15651800Y-8910000D01*
X15677200Y-6304600D02*
X15717200Y-6344600D01*
X15717200Y-6304600D02*
X15677200Y-6344600D01*
X15778800Y-8666800D02*
X15818800Y-8706800D01*
X15818800Y-8666800D02*
X15778800Y-8706800D01*
X15982000Y-6584000D02*
X16022000Y-6624000D01*
X16022000Y-6584000D02*
X15982000Y-6624000D01*
X15982000Y-7244400D02*
X16022000Y-7284400D01*
X16022000Y-7244400D02*
X15982000Y-7284400D01*
X15982000Y-8057200D02*
X16022000Y-8097200D01*
X16022000Y-8057200D02*
X15982000Y-8097200D01*
X16185200Y-6101400D02*
X16225200Y-6141400D01*
X16225200Y-6101400D02*
X16185200Y-6141400D01*
X16185200Y-6533200D02*
X16225200Y-6573200D01*
X16225200Y-6533200D02*
X16185200Y-6573200D01*
X16185200Y-7371400D02*
X16225200Y-7411400D01*
X16225200Y-7371400D02*
X16185200Y-7411400D01*
X16185200Y-8158800D02*
X16225200Y-8198800D01*
X16225200Y-8158800D02*
X16185200Y-8198800D01*
X16363000Y-8285800D02*
X16403000Y-8325800D01*
X16403000Y-8285800D02*
X16363000Y-8325800D01*
X16388400Y-5999800D02*
X16428400Y-6039800D01*
X16428400Y-5999800D02*
X16388400Y-6039800D01*
X16388400Y-6492200D02*
X16428400Y-6532200D01*
X16428400Y-6492200D02*
X16388400Y-6532200D01*
X16388400Y-7498400D02*
X16428400Y-7538400D01*
X16428400Y-7498400D02*
X16388400Y-7538400D01*
X16591600Y-12426000D02*
X16631600Y-12466000D01*
X16631600Y-12426000D02*
X16591600Y-12466000D01*
X16921800Y-6025200D02*
X16961800Y-6065200D01*
X16961800Y-6025200D02*
X16921800Y-6065200D01*
X17033500Y-7640700D02*
X17073500Y-7680700D01*
X17073500Y-7640700D02*
X17033500Y-7680700D01*
X17125000Y-7904800D02*
X17165000Y-7944800D01*
X17165000Y-7904800D02*
X17125000Y-7944800D01*
X17226600Y-8158800D02*
X17266600Y-8198800D01*
X17266600Y-8158800D02*
X17226600Y-8198800D01*
X17277400Y-6711000D02*
X17317400Y-6751000D01*
X17317400Y-6711000D02*
X17277400Y-6751000D01*
X11159800Y-6299200D02*
G75*
G03X11159800Y-6299200I-60000J0D01*
G01*
X11413800Y-6299200D02*
G75*
G03X11413800Y-6299200I-60000J0D01*
G01*
X11667800Y-6299200D02*
G75*
G03X11667800Y-6299200I-60000J0D01*
G01*
X11921800Y-6299200D02*
G75*
G03X11921800Y-6299200I-60000J0D01*
G01*
X16887500Y-13398500D02*
G75*
G03X16887500Y-13398500I-60000J0D01*
G01*
X17141500Y-13398500D02*
G75*
G03X17141500Y-13398500I-60000J0D01*
G01*
X17395500Y-13398500D02*
G75*
G03X17395500Y-13398500I-60000J0D01*
G01*
X17649500Y-13398500D02*
G75*
G03X17649500Y-13398500I-60000J0D01*
G01*
X12302800Y-5664200D02*
G75*
G03X12302800Y-5664200I-60000J0D01*
G01*
X12556800Y-5664200D02*
G75*
G03X12556800Y-5664200I-60000J0D01*
G01*
X12810800Y-5664200D02*
G75*
G03X12810800Y-5664200I-60000J0D01*
G01*
X13064800Y-5664200D02*
G75*
G03X13064800Y-5664200I-60000J0D01*
G01*
X14741200Y-8382000D02*
G75*
G03X14741200Y-8382000I-60000J0D01*
G01*
X14995200Y-8382000D02*
G75*
G03X14995200Y-8382000I-60000J0D01*
G01*
X15249200Y-8382000D02*
G75*
G03X15249200Y-8382000I-60000J0D01*
G01*
X15503200Y-8382000D02*
G75*
G03X15503200Y-8382000I-60000J0D01*
G01*
X15757200Y-8382000D02*
G75*
G03X15757200Y-8382000I-60000J0D01*
G01*
X15757200Y-5461000D02*
G75*
G03X15757200Y-5461000I-60000J0D01*
G01*
X16011200Y-5461000D02*
G75*
G03X16011200Y-5461000I-60000J0D01*
G01*
X16265200Y-5461000D02*
G75*
G03X16265200Y-5461000I-60000J0D01*
G01*
X16519200Y-5461000D02*
G75*
G03X16519200Y-5461000I-60000J0D01*
G01*
X16773200Y-5461000D02*
G75*
G03X16773200Y-5461000I-60000J0D01*
G01*
X14741200Y-7696200D02*
G75*
G03X14741200Y-7696200I-60000J0D01*
G01*
X14995200Y-7696200D02*
G75*
G03X14995200Y-7696200I-60000J0D01*
G01*
X15249200Y-7696200D02*
G75*
G03X15249200Y-7696200I-60000J0D01*
G01*
X15503200Y-7696200D02*
G75*
G03X15503200Y-7696200I-60000J0D01*
G01*
X15757200Y-7696200D02*
G75*
G03X15757200Y-7696200I-60000J0D01*
G01*
X13445800Y-8331200D02*
G75*
G03X13445800Y-8331200I-60000J0D01*
G01*
X13699800Y-8331200D02*
G75*
G03X13699800Y-8331200I-60000J0D01*
G01*
X13953800Y-8331200D02*
G75*
G03X13953800Y-8331200I-60000J0D01*
G01*
X14207800Y-8331200D02*
G75*
G03X14207800Y-8331200I-60000J0D01*
G01*
X14741200Y-6324600D02*
G75*
G03X14741200Y-6324600I-60000J0D01*
G01*
X14995200Y-6324600D02*
G75*
G03X14995200Y-6324600I-60000J0D01*
G01*
X15249200Y-6324600D02*
G75*
G03X15249200Y-6324600I-60000J0D01*
G01*
X15503200Y-6324600D02*
G75*
G03X15503200Y-6324600I-60000J0D01*
G01*
X15757200Y-6324600D02*
G75*
G03X15757200Y-6324600I-60000J0D01*
G01*
X9762800Y-12852400D02*
G75*
G03X9762800Y-12852400I-60000J0D01*
G01*
X10016800Y-12852400D02*
G75*
G03X10016800Y-12852400I-60000J0D01*
G01*
X10270800Y-12852400D02*
G75*
G03X10270800Y-12852400I-60000J0D01*
G01*
X10524800Y-12852400D02*
G75*
G03X10524800Y-12852400I-60000J0D01*
G01*
X11159800Y-6985000D02*
G75*
G03X11159800Y-6985000I-60000J0D01*
G01*
X11413800Y-6985000D02*
G75*
G03X11413800Y-6985000I-60000J0D01*
G01*
X11667800Y-6985000D02*
G75*
G03X11667800Y-6985000I-60000J0D01*
G01*
X11921800Y-6985000D02*
G75*
G03X11921800Y-6985000I-60000J0D01*
G01*
X16887500Y-11239500D02*
G75*
G03X16887500Y-11239500I-60000J0D01*
G01*
X17141500Y-11239500D02*
G75*
G03X17141500Y-11239500I-60000J0D01*
G01*
X17395500Y-11239500D02*
G75*
G03X17395500Y-11239500I-60000J0D01*
G01*
X17649500Y-11239500D02*
G75*
G03X17649500Y-11239500I-60000J0D01*
G01*
X13445800Y-7645400D02*
G75*
G03X13445800Y-7645400I-60000J0D01*
G01*
X13699800Y-7645400D02*
G75*
G03X13699800Y-7645400I-60000J0D01*
G01*
X13953800Y-7645400D02*
G75*
G03X13953800Y-7645400I-60000J0D01*
G01*
X14207800Y-7645400D02*
G75*
G03X14207800Y-7645400I-60000J0D01*
G01*
X14538000Y-11099800D02*
G75*
G03X14538000Y-11099800I-60000J0D01*
G01*
X14538000Y-11353800D02*
G75*
G03X14538000Y-11353800I-60000J0D01*
G01*
X14538000Y-11607800D02*
G75*
G03X14538000Y-11607800I-60000J0D01*
G01*
X14538000Y-11861800D02*
G75*
G03X14538000Y-11861800I-60000J0D01*
G01*
X14538000Y-12115800D02*
G75*
G03X14538000Y-12115800I-60000J0D01*
G01*
X14538000Y-12369800D02*
G75*
G03X14538000Y-12369800I-60000J0D01*
G01*
X13445800Y-6273800D02*
G75*
G03X13445800Y-6273800I-60000J0D01*
G01*
X13699800Y-6273800D02*
G75*
G03X13699800Y-6273800I-60000J0D01*
G01*
X13953800Y-6273800D02*
G75*
G03X13953800Y-6273800I-60000J0D01*
G01*
X14207800Y-6273800D02*
G75*
G03X14207800Y-6273800I-60000J0D01*
G01*
X11159800Y-7670800D02*
G75*
G03X11159800Y-7670800I-60000J0D01*
G01*
X11413800Y-7670800D02*
G75*
G03X11413800Y-7670800I-60000J0D01*
G01*
X11667800Y-7670800D02*
G75*
G03X11667800Y-7670800I-60000J0D01*
G01*
X11921800Y-7670800D02*
G75*
G03X11921800Y-7670800I-60000J0D01*
G01*
X11159800Y-8356600D02*
G75*
G03X11159800Y-8356600I-60000J0D01*
G01*
X11413800Y-8356600D02*
G75*
G03X11413800Y-8356600I-60000J0D01*
G01*
X11667800Y-8356600D02*
G75*
G03X11667800Y-8356600I-60000J0D01*
G01*
X11921800Y-8356600D02*
G75*
G03X11921800Y-8356600I-60000J0D01*
G01*
X14741200Y-7010400D02*
G75*
G03X14741200Y-7010400I-60000J0D01*
G01*
X14995200Y-7010400D02*
G75*
G03X14995200Y-7010400I-60000J0D01*
G01*
X15249200Y-7010400D02*
G75*
G03X15249200Y-7010400I-60000J0D01*
G01*
X15503200Y-7010400D02*
G75*
G03X15503200Y-7010400I-60000J0D01*
G01*
X15757200Y-7010400D02*
G75*
G03X15757200Y-7010400I-60000J0D01*
G01*
X13445800Y-6959600D02*
G75*
G03X13445800Y-6959600I-60000J0D01*
G01*
X13699800Y-6959600D02*
G75*
G03X13699800Y-6959600I-60000J0D01*
G01*
X13953800Y-6959600D02*
G75*
G03X13953800Y-6959600I-60000J0D01*
G01*
X14207800Y-6959600D02*
G75*
G03X14207800Y-6959600I-60000J0D01*
G01*
X12496800Y-10188600D02*
X12496800Y-10588600D01*
X12296800Y-10388600D02*
X12696800Y-10388600D01*
X17399000Y-5261000D02*
X17399000Y-5661000D01*
X17199000Y-5461000D02*
X17599000Y-5461000D01*
X14452600Y-12830200D02*
X14452600Y-13230200D01*
X14252600Y-13030200D02*
X14652600Y-13030200D01*
X14960600Y-8994800D02*
X14960600Y-9394800D01*
X14760600Y-9194800D02*
X15160600Y-9194800D01*
X17145000Y-10150500D02*
X17145000Y-10550500D01*
X16945000Y-10350500D02*
X17345000Y-10350500D01*
X10083800Y-9071000D02*
X10083800Y-9471000D01*
X9883800Y-9271000D02*
X10283800Y-9271000D01*
X17145000Y-14151000D02*
X17145000Y-14551000D01*
X16945000Y-14351000D02*
X17345000Y-14351000D01*
X17399000Y-8994800D02*
X17399000Y-9394800D01*
X17199000Y-9194800D02*
X17599000Y-9194800D01*
X14960600Y-5261000D02*
X14960600Y-5661000D01*
X14760600Y-5461000D02*
X15160600Y-5461000D01*
X12496800Y-12830200D02*
X12496800Y-13230200D01*
X12296800Y-13030200D02*
X12696800Y-13030200D01*
X13766800Y-5261000D02*
X13766800Y-5661000D01*
X13566800Y-5461000D02*
X13966800Y-5461000D01*
X11455400Y-5261000D02*
X11455400Y-5661000D01*
X11255400Y-5461000D02*
X11655400Y-5461000D01*
X11506200Y-9045600D02*
X11506200Y-9445600D01*
X11306200Y-9245600D02*
X11706200Y-9245600D01*
X10083800Y-13516000D02*
X10083800Y-13916000D01*
X9883800Y-13716000D02*
X10283800Y-13716000D01*
X14452600Y-10188600D02*
X14452600Y-10588600D01*
X14252600Y-10388600D02*
X14652600Y-10388600D01*
X13766800Y-9045600D02*
X13766800Y-9445600D01*
X13566800Y-9245600D02*
X13966800Y-9245600D01*
D12*
X9623628Y-15334714D02*
X9623628Y-15034714D01*
X9695057Y-15034714D01*
X9737914Y-15049000D01*
X9766486Y-15077571D01*
X9780771Y-15106143D01*
X9795057Y-15163286D01*
X9795057Y-15206143D01*
X9780771Y-15263286D01*
X9766486Y-15291857D01*
X9737914Y-15320429D01*
X9695057Y-15334714D01*
X9623628Y-15334714D01*
X9923628Y-15334714D02*
X9923628Y-15134714D01*
X9923628Y-15191857D02*
X9937914Y-15163286D01*
X9952200Y-15149000D01*
X9980771Y-15134714D01*
X10009343Y-15134714D01*
X10109343Y-15334714D02*
X10109343Y-15134714D01*
X10109343Y-15034714D02*
X10095057Y-15049000D01*
X10109343Y-15063286D01*
X10123628Y-15049000D01*
X10109343Y-15034714D01*
X10109343Y-15063286D01*
X10295057Y-15334714D02*
X10266486Y-15320429D01*
X10252200Y-15291857D01*
X10252200Y-15034714D01*
X10452200Y-15334714D02*
X10423628Y-15320429D01*
X10409343Y-15291857D01*
X10409343Y-15034714D01*
X10795057Y-15334714D02*
X10795057Y-15034714D01*
X10895057Y-15249000D01*
X10995057Y-15034714D01*
X10995057Y-15334714D01*
X11266486Y-15334714D02*
X11266486Y-15177571D01*
X11252200Y-15149000D01*
X11223628Y-15134714D01*
X11166486Y-15134714D01*
X11137914Y-15149000D01*
X11266486Y-15320429D02*
X11237914Y-15334714D01*
X11166486Y-15334714D01*
X11137914Y-15320429D01*
X11123628Y-15291857D01*
X11123628Y-15263286D01*
X11137914Y-15234714D01*
X11166486Y-15220429D01*
X11237914Y-15220429D01*
X11266486Y-15206143D01*
X11409343Y-15134714D02*
X11409343Y-15434714D01*
X11409343Y-15149000D02*
X11437914Y-15134714D01*
X11495057Y-15134714D01*
X11523628Y-15149000D01*
X11537914Y-15163286D01*
X11552200Y-15191857D01*
X11552200Y-15277571D01*
X11537914Y-15306143D01*
X11523628Y-15320429D01*
X11495057Y-15334714D01*
X11437914Y-15334714D01*
X11409343Y-15320429D01*
X11680771Y-15306143D02*
X11695057Y-15320429D01*
X11680771Y-15334714D01*
X11666486Y-15320429D01*
X11680771Y-15306143D01*
X11680771Y-15334714D01*
X11680771Y-15149000D02*
X11695057Y-15163286D01*
X11680771Y-15177571D01*
X11666486Y-15163286D01*
X11680771Y-15149000D01*
X11680771Y-15177571D01*
X9297200Y-15809000D02*
X9337200Y-15849000D01*
X9337200Y-15809000D02*
X9297200Y-15849000D01*
X9680771Y-15664714D02*
X9709343Y-15664714D01*
X9737914Y-15679000D01*
X9752200Y-15693286D01*
X9766486Y-15721857D01*
X9780771Y-15779000D01*
X9780771Y-15850429D01*
X9766486Y-15907571D01*
X9752200Y-15936143D01*
X9737914Y-15950429D01*
X9709343Y-15964714D01*
X9680771Y-15964714D01*
X9652200Y-15950429D01*
X9637914Y-15936143D01*
X9623628Y-15907571D01*
X9609343Y-15850429D01*
X9609343Y-15779000D01*
X9623628Y-15721857D01*
X9637914Y-15693286D01*
X9652200Y-15679000D01*
X9680771Y-15664714D01*
X9909343Y-15936143D02*
X9923628Y-15950429D01*
X9909343Y-15964714D01*
X9895057Y-15950429D01*
X9909343Y-15936143D01*
X9909343Y-15964714D01*
X10180771Y-15764714D02*
X10180771Y-15964714D01*
X10109343Y-15650429D02*
X10037914Y-15864714D01*
X10223628Y-15864714D01*
X10395057Y-15664714D02*
X10423628Y-15664714D01*
X10452200Y-15679000D01*
X10466486Y-15693286D01*
X10480771Y-15721857D01*
X10495057Y-15779000D01*
X10495057Y-15850429D01*
X10480771Y-15907571D01*
X10466486Y-15936143D01*
X10452200Y-15950429D01*
X10423628Y-15964714D01*
X10395057Y-15964714D01*
X10366486Y-15950429D01*
X10352200Y-15936143D01*
X10337914Y-15907571D01*
X10323628Y-15850429D01*
X10323628Y-15779000D01*
X10337914Y-15721857D01*
X10352200Y-15693286D01*
X10366486Y-15679000D01*
X10395057Y-15664714D01*
X10623628Y-15964714D02*
X10623628Y-15764714D01*
X10623628Y-15793286D02*
X10637914Y-15779000D01*
X10666486Y-15764714D01*
X10709343Y-15764714D01*
X10737914Y-15779000D01*
X10752200Y-15807571D01*
X10752200Y-15964714D01*
X10752200Y-15807571D02*
X10766486Y-15779000D01*
X10795057Y-15764714D01*
X10837914Y-15764714D01*
X10866486Y-15779000D01*
X10880771Y-15807571D01*
X10880771Y-15964714D01*
X11023628Y-15964714D02*
X11023628Y-15764714D01*
X11023628Y-15793286D02*
X11037914Y-15779000D01*
X11066486Y-15764714D01*
X11109343Y-15764714D01*
X11137914Y-15779000D01*
X11152200Y-15807571D01*
X11152200Y-15964714D01*
X11152200Y-15807571D02*
X11166486Y-15779000D01*
X11195057Y-15764714D01*
X11237914Y-15764714D01*
X11266486Y-15779000D01*
X11280771Y-15807571D01*
X11280771Y-15964714D01*
X11866486Y-15650429D02*
X11609343Y-16036143D01*
X12252200Y-15664714D02*
X12280771Y-15664714D01*
X12309343Y-15679000D01*
X12323628Y-15693286D01*
X12337914Y-15721857D01*
X12352200Y-15779000D01*
X12352200Y-15850429D01*
X12337914Y-15907571D01*
X12323628Y-15936143D01*
X12309343Y-15950429D01*
X12280771Y-15964714D01*
X12252200Y-15964714D01*
X12223628Y-15950429D01*
X12209343Y-15936143D01*
X12195057Y-15907571D01*
X12180771Y-15850429D01*
X12180771Y-15779000D01*
X12195057Y-15721857D01*
X12209343Y-15693286D01*
X12223628Y-15679000D01*
X12252200Y-15664714D01*
X12480771Y-15936143D02*
X12495057Y-15950429D01*
X12480771Y-15964714D01*
X12466486Y-15950429D01*
X12480771Y-15936143D01*
X12480771Y-15964714D01*
X12680771Y-15664714D02*
X12709343Y-15664714D01*
X12737914Y-15679000D01*
X12752200Y-15693286D01*
X12766486Y-15721857D01*
X12780771Y-15779000D01*
X12780771Y-15850429D01*
X12766486Y-15907571D01*
X12752200Y-15936143D01*
X12737914Y-15950429D01*
X12709343Y-15964714D01*
X12680771Y-15964714D01*
X12652200Y-15950429D01*
X12637914Y-15936143D01*
X12623628Y-15907571D01*
X12609343Y-15850429D01*
X12609343Y-15779000D01*
X12623628Y-15721857D01*
X12637914Y-15693286D01*
X12652200Y-15679000D01*
X12680771Y-15664714D01*
X13066486Y-15964714D02*
X12895057Y-15964714D01*
X12980771Y-15964714D02*
X12980771Y-15664714D01*
X12952200Y-15707571D01*
X12923628Y-15736143D01*
X12895057Y-15750429D01*
X13323628Y-15664714D02*
X13266486Y-15664714D01*
X13237914Y-15679000D01*
X13223628Y-15693286D01*
X13195057Y-15736143D01*
X13180771Y-15793286D01*
X13180771Y-15907571D01*
X13195057Y-15936143D01*
X13209343Y-15950429D01*
X13237914Y-15964714D01*
X13295057Y-15964714D01*
X13323628Y-15950429D01*
X13337914Y-15936143D01*
X13352200Y-15907571D01*
X13352200Y-15836143D01*
X13337914Y-15807571D01*
X13323628Y-15793286D01*
X13295057Y-15779000D01*
X13237914Y-15779000D01*
X13209343Y-15793286D01*
X13195057Y-15807571D01*
X13180771Y-15836143D01*
X13466486Y-15664714D02*
X13466486Y-15721857D01*
X13580771Y-15664714D02*
X13580771Y-15721857D01*
X14023628Y-16079000D02*
X14009343Y-16064714D01*
X13980771Y-16021857D01*
X13966486Y-15993286D01*
X13952200Y-15950429D01*
X13937914Y-15879000D01*
X13937914Y-15821857D01*
X13952200Y-15750429D01*
X13966486Y-15707571D01*
X13980771Y-15679000D01*
X14009343Y-15636143D01*
X14023628Y-15621857D01*
X14109343Y-15664714D02*
X14309343Y-15664714D01*
X14180771Y-15964714D01*
X14480771Y-15664714D02*
X14509343Y-15664714D01*
X14537914Y-15679000D01*
X14552200Y-15693286D01*
X14566486Y-15721857D01*
X14580771Y-15779000D01*
X14580771Y-15850429D01*
X14566486Y-15907571D01*
X14552200Y-15936143D01*
X14537914Y-15950429D01*
X14509343Y-15964714D01*
X14480771Y-15964714D01*
X14452200Y-15950429D01*
X14437914Y-15936143D01*
X14423628Y-15907571D01*
X14409343Y-15850429D01*
X14409343Y-15779000D01*
X14423628Y-15721857D01*
X14437914Y-15693286D01*
X14452200Y-15679000D01*
X14480771Y-15664714D01*
X14937914Y-15964714D02*
X14937914Y-15664714D01*
X15066486Y-15964714D02*
X15066486Y-15807571D01*
X15052200Y-15779000D01*
X15023628Y-15764714D01*
X14980771Y-15764714D01*
X14952200Y-15779000D01*
X14937914Y-15793286D01*
X15252200Y-15964714D02*
X15223628Y-15950429D01*
X15209343Y-15936143D01*
X15195057Y-15907571D01*
X15195057Y-15821857D01*
X15209343Y-15793286D01*
X15223628Y-15779000D01*
X15252200Y-15764714D01*
X15295057Y-15764714D01*
X15323628Y-15779000D01*
X15337914Y-15793286D01*
X15352200Y-15821857D01*
X15352200Y-15907571D01*
X15337914Y-15936143D01*
X15323628Y-15950429D01*
X15295057Y-15964714D01*
X15252200Y-15964714D01*
X15523628Y-15964714D02*
X15495057Y-15950429D01*
X15480771Y-15921857D01*
X15480771Y-15664714D01*
X15752200Y-15950429D02*
X15723628Y-15964714D01*
X15666486Y-15964714D01*
X15637914Y-15950429D01*
X15623628Y-15921857D01*
X15623628Y-15807571D01*
X15637914Y-15779000D01*
X15666486Y-15764714D01*
X15723628Y-15764714D01*
X15752200Y-15779000D01*
X15766486Y-15807571D01*
X15766486Y-15836143D01*
X15623628Y-15864714D01*
X15880771Y-15950429D02*
X15909343Y-15964714D01*
X15966486Y-15964714D01*
X15995057Y-15950429D01*
X16009343Y-15921857D01*
X16009343Y-15907571D01*
X15995057Y-15879000D01*
X15966486Y-15864714D01*
X15923628Y-15864714D01*
X15895057Y-15850429D01*
X15880771Y-15821857D01*
X15880771Y-15807571D01*
X15895057Y-15779000D01*
X15923628Y-15764714D01*
X15966486Y-15764714D01*
X15995057Y-15779000D01*
X16109343Y-16079000D02*
X16123628Y-16064714D01*
X16152200Y-16021857D01*
X16166486Y-15993286D01*
X16180771Y-15950429D01*
X16195057Y-15879000D01*
X16195057Y-15821857D01*
X16180771Y-15750429D01*
X16166486Y-15707571D01*
X16152200Y-15679000D01*
X16123628Y-15636143D01*
X16109343Y-15621857D01*
X9337200Y-16225000D02*
G75*
G03X9337200Y-16225000I-60000J0D01*
G01*
X9780771Y-16360714D02*
X9609343Y-16360714D01*
X9695057Y-16360714D02*
X9695057Y-16060714D01*
X9666486Y-16103571D01*
X9637914Y-16132143D01*
X9609343Y-16146429D01*
X9909343Y-16332143D02*
X9923628Y-16346429D01*
X9909343Y-16360714D01*
X9895057Y-16346429D01*
X9909343Y-16332143D01*
X9909343Y-16360714D01*
X10037914Y-16089286D02*
X10052200Y-16075000D01*
X10080771Y-16060714D01*
X10152200Y-16060714D01*
X10180771Y-16075000D01*
X10195057Y-16089286D01*
X10209343Y-16117857D01*
X10209343Y-16146429D01*
X10195057Y-16189286D01*
X10023628Y-16360714D01*
X10209343Y-16360714D01*
X10395057Y-16060714D02*
X10423628Y-16060714D01*
X10452200Y-16075000D01*
X10466486Y-16089286D01*
X10480771Y-16117857D01*
X10495057Y-16175000D01*
X10495057Y-16246429D01*
X10480771Y-16303571D01*
X10466486Y-16332143D01*
X10452200Y-16346429D01*
X10423628Y-16360714D01*
X10395057Y-16360714D01*
X10366486Y-16346429D01*
X10352200Y-16332143D01*
X10337914Y-16303571D01*
X10323628Y-16246429D01*
X10323628Y-16175000D01*
X10337914Y-16117857D01*
X10352200Y-16089286D01*
X10366486Y-16075000D01*
X10395057Y-16060714D01*
X10623628Y-16360714D02*
X10623628Y-16160714D01*
X10623628Y-16189286D02*
X10637914Y-16175000D01*
X10666486Y-16160714D01*
X10709343Y-16160714D01*
X10737914Y-16175000D01*
X10752200Y-16203571D01*
X10752200Y-16360714D01*
X10752200Y-16203571D02*
X10766486Y-16175000D01*
X10795057Y-16160714D01*
X10837914Y-16160714D01*
X10866486Y-16175000D01*
X10880771Y-16203571D01*
X10880771Y-16360714D01*
X11023628Y-16360714D02*
X11023628Y-16160714D01*
X11023628Y-16189286D02*
X11037914Y-16175000D01*
X11066486Y-16160714D01*
X11109343Y-16160714D01*
X11137914Y-16175000D01*
X11152200Y-16203571D01*
X11152200Y-16360714D01*
X11152200Y-16203571D02*
X11166486Y-16175000D01*
X11195057Y-16160714D01*
X11237914Y-16160714D01*
X11266486Y-16175000D01*
X11280771Y-16203571D01*
X11280771Y-16360714D01*
X11866486Y-16046429D02*
X11609343Y-16432143D01*
X12252200Y-16060714D02*
X12280771Y-16060714D01*
X12309343Y-16075000D01*
X12323628Y-16089286D01*
X12337914Y-16117857D01*
X12352200Y-16175000D01*
X12352200Y-16246429D01*
X12337914Y-16303571D01*
X12323628Y-16332143D01*
X12309343Y-16346429D01*
X12280771Y-16360714D01*
X12252200Y-16360714D01*
X12223628Y-16346429D01*
X12209343Y-16332143D01*
X12195057Y-16303571D01*
X12180771Y-16246429D01*
X12180771Y-16175000D01*
X12195057Y-16117857D01*
X12209343Y-16089286D01*
X12223628Y-16075000D01*
X12252200Y-16060714D01*
X12480771Y-16332143D02*
X12495057Y-16346429D01*
X12480771Y-16360714D01*
X12466486Y-16346429D01*
X12480771Y-16332143D01*
X12480771Y-16360714D01*
X12680771Y-16060714D02*
X12709343Y-16060714D01*
X12737914Y-16075000D01*
X12752200Y-16089286D01*
X12766486Y-16117857D01*
X12780771Y-16175000D01*
X12780771Y-16246429D01*
X12766486Y-16303571D01*
X12752200Y-16332143D01*
X12737914Y-16346429D01*
X12709343Y-16360714D01*
X12680771Y-16360714D01*
X12652200Y-16346429D01*
X12637914Y-16332143D01*
X12623628Y-16303571D01*
X12609343Y-16246429D01*
X12609343Y-16175000D01*
X12623628Y-16117857D01*
X12637914Y-16089286D01*
X12652200Y-16075000D01*
X12680771Y-16060714D01*
X13037914Y-16160714D02*
X13037914Y-16360714D01*
X12966486Y-16046429D02*
X12895057Y-16260714D01*
X13080771Y-16260714D01*
X13166486Y-16060714D02*
X13366486Y-16060714D01*
X13237914Y-16360714D01*
X13466486Y-16060714D02*
X13466486Y-16117857D01*
X13580771Y-16060714D02*
X13580771Y-16117857D01*
X14023628Y-16475000D02*
X14009343Y-16460714D01*
X13980771Y-16417857D01*
X13966486Y-16389286D01*
X13952200Y-16346429D01*
X13937914Y-16275000D01*
X13937914Y-16217857D01*
X13952200Y-16146429D01*
X13966486Y-16103571D01*
X13980771Y-16075000D01*
X14009343Y-16032143D01*
X14023628Y-16017857D01*
X14109343Y-16060714D02*
X14309343Y-16060714D01*
X14180771Y-16360714D01*
X14437914Y-16360714D02*
X14495057Y-16360714D01*
X14523628Y-16346429D01*
X14537914Y-16332143D01*
X14566486Y-16289286D01*
X14580771Y-16232143D01*
X14580771Y-16117857D01*
X14566486Y-16089286D01*
X14552200Y-16075000D01*
X14523628Y-16060714D01*
X14466486Y-16060714D01*
X14437914Y-16075000D01*
X14423628Y-16089286D01*
X14409343Y-16117857D01*
X14409343Y-16189286D01*
X14423628Y-16217857D01*
X14437914Y-16232143D01*
X14466486Y-16246429D01*
X14523628Y-16246429D01*
X14552200Y-16232143D01*
X14566486Y-16217857D01*
X14580771Y-16189286D01*
X14937914Y-16360714D02*
X14937914Y-16060714D01*
X15066486Y-16360714D02*
X15066486Y-16203571D01*
X15052200Y-16175000D01*
X15023628Y-16160714D01*
X14980771Y-16160714D01*
X14952200Y-16175000D01*
X14937914Y-16189286D01*
X15252200Y-16360714D02*
X15223628Y-16346429D01*
X15209343Y-16332143D01*
X15195057Y-16303571D01*
X15195057Y-16217857D01*
X15209343Y-16189286D01*
X15223628Y-16175000D01*
X15252200Y-16160714D01*
X15295057Y-16160714D01*
X15323628Y-16175000D01*
X15337914Y-16189286D01*
X15352200Y-16217857D01*
X15352200Y-16303571D01*
X15337914Y-16332143D01*
X15323628Y-16346429D01*
X15295057Y-16360714D01*
X15252200Y-16360714D01*
X15523628Y-16360714D02*
X15495057Y-16346429D01*
X15480771Y-16317857D01*
X15480771Y-16060714D01*
X15752200Y-16346429D02*
X15723628Y-16360714D01*
X15666486Y-16360714D01*
X15637914Y-16346429D01*
X15623628Y-16317857D01*
X15623628Y-16203571D01*
X15637914Y-16175000D01*
X15666486Y-16160714D01*
X15723628Y-16160714D01*
X15752200Y-16175000D01*
X15766486Y-16203571D01*
X15766486Y-16232143D01*
X15623628Y-16260714D01*
X15880771Y-16346429D02*
X15909343Y-16360714D01*
X15966486Y-16360714D01*
X15995057Y-16346429D01*
X16009343Y-16317857D01*
X16009343Y-16303571D01*
X15995057Y-16275000D01*
X15966486Y-16260714D01*
X15923628Y-16260714D01*
X15895057Y-16246429D01*
X15880771Y-16217857D01*
X15880771Y-16203571D01*
X15895057Y-16175000D01*
X15923628Y-16160714D01*
X15966486Y-16160714D01*
X15995057Y-16175000D01*
X16109343Y-16475000D02*
X16123628Y-16460714D01*
X16152200Y-16417857D01*
X16166486Y-16389286D01*
X16180771Y-16346429D01*
X16195057Y-16275000D01*
X16195057Y-16217857D01*
X16180771Y-16146429D01*
X16166486Y-16103571D01*
X16152200Y-16075000D01*
X16123628Y-16032143D01*
X16109343Y-16017857D01*
X9137200Y-16421000D02*
X9137200Y-16821000D01*
X8937200Y-16621000D02*
X9337200Y-16621000D01*
X9752200Y-16556714D02*
X9752200Y-16756714D01*
X9680771Y-16442429D02*
X9609343Y-16656714D01*
X9795057Y-16656714D01*
X9909343Y-16728143D02*
X9923628Y-16742429D01*
X9909343Y-16756714D01*
X9895057Y-16742429D01*
X9909343Y-16728143D01*
X9909343Y-16756714D01*
X10109343Y-16456714D02*
X10137914Y-16456714D01*
X10166486Y-16471000D01*
X10180771Y-16485286D01*
X10195057Y-16513857D01*
X10209343Y-16571000D01*
X10209343Y-16642429D01*
X10195057Y-16699571D01*
X10180771Y-16728143D01*
X10166486Y-16742429D01*
X10137914Y-16756714D01*
X10109343Y-16756714D01*
X10080771Y-16742429D01*
X10066486Y-16728143D01*
X10052200Y-16699571D01*
X10037914Y-16642429D01*
X10037914Y-16571000D01*
X10052200Y-16513857D01*
X10066486Y-16485286D01*
X10080771Y-16471000D01*
X10109343Y-16456714D01*
X10395057Y-16456714D02*
X10423628Y-16456714D01*
X10452200Y-16471000D01*
X10466486Y-16485286D01*
X10480771Y-16513857D01*
X10495057Y-16571000D01*
X10495057Y-16642429D01*
X10480771Y-16699571D01*
X10466486Y-16728143D01*
X10452200Y-16742429D01*
X10423628Y-16756714D01*
X10395057Y-16756714D01*
X10366486Y-16742429D01*
X10352200Y-16728143D01*
X10337914Y-16699571D01*
X10323628Y-16642429D01*
X10323628Y-16571000D01*
X10337914Y-16513857D01*
X10352200Y-16485286D01*
X10366486Y-16471000D01*
X10395057Y-16456714D01*
X10623628Y-16756714D02*
X10623628Y-16556714D01*
X10623628Y-16585286D02*
X10637914Y-16571000D01*
X10666486Y-16556714D01*
X10709343Y-16556714D01*
X10737914Y-16571000D01*
X10752200Y-16599571D01*
X10752200Y-16756714D01*
X10752200Y-16599571D02*
X10766486Y-16571000D01*
X10795057Y-16556714D01*
X10837914Y-16556714D01*
X10866486Y-16571000D01*
X10880771Y-16599571D01*
X10880771Y-16756714D01*
X11023628Y-16756714D02*
X11023628Y-16556714D01*
X11023628Y-16585286D02*
X11037914Y-16571000D01*
X11066486Y-16556714D01*
X11109343Y-16556714D01*
X11137914Y-16571000D01*
X11152200Y-16599571D01*
X11152200Y-16756714D01*
X11152200Y-16599571D02*
X11166486Y-16571000D01*
X11195057Y-16556714D01*
X11237914Y-16556714D01*
X11266486Y-16571000D01*
X11280771Y-16599571D01*
X11280771Y-16756714D01*
X11866486Y-16442429D02*
X11609343Y-16828143D01*
X12252200Y-16456714D02*
X12280771Y-16456714D01*
X12309343Y-16471000D01*
X12323628Y-16485286D01*
X12337914Y-16513857D01*
X12352200Y-16571000D01*
X12352200Y-16642429D01*
X12337914Y-16699571D01*
X12323628Y-16728143D01*
X12309343Y-16742429D01*
X12280771Y-16756714D01*
X12252200Y-16756714D01*
X12223628Y-16742429D01*
X12209343Y-16728143D01*
X12195057Y-16699571D01*
X12180771Y-16642429D01*
X12180771Y-16571000D01*
X12195057Y-16513857D01*
X12209343Y-16485286D01*
X12223628Y-16471000D01*
X12252200Y-16456714D01*
X12480771Y-16728143D02*
X12495057Y-16742429D01*
X12480771Y-16756714D01*
X12466486Y-16742429D01*
X12480771Y-16728143D01*
X12480771Y-16756714D01*
X12780771Y-16756714D02*
X12609343Y-16756714D01*
X12695057Y-16756714D02*
X12695057Y-16456714D01*
X12666486Y-16499571D01*
X12637914Y-16528143D01*
X12609343Y-16542429D01*
X13052200Y-16456714D02*
X12909343Y-16456714D01*
X12895057Y-16599571D01*
X12909343Y-16585286D01*
X12937914Y-16571000D01*
X13009343Y-16571000D01*
X13037914Y-16585286D01*
X13052200Y-16599571D01*
X13066486Y-16628143D01*
X13066486Y-16699571D01*
X13052200Y-16728143D01*
X13037914Y-16742429D01*
X13009343Y-16756714D01*
X12937914Y-16756714D01*
X12909343Y-16742429D01*
X12895057Y-16728143D01*
X13166486Y-16456714D02*
X13366486Y-16456714D01*
X13237914Y-16756714D01*
X13466486Y-16456714D02*
X13466486Y-16513857D01*
X13580771Y-16456714D02*
X13580771Y-16513857D01*
X14023628Y-16871000D02*
X14009343Y-16856714D01*
X13980771Y-16813857D01*
X13966486Y-16785286D01*
X13952200Y-16742429D01*
X13937914Y-16671000D01*
X13937914Y-16613857D01*
X13952200Y-16542429D01*
X13966486Y-16499571D01*
X13980771Y-16471000D01*
X14009343Y-16428143D01*
X14023628Y-16413857D01*
X14295057Y-16756714D02*
X14123628Y-16756714D01*
X14209343Y-16756714D02*
X14209343Y-16456714D01*
X14180771Y-16499571D01*
X14152200Y-16528143D01*
X14123628Y-16542429D01*
X14552200Y-16456714D02*
X14495057Y-16456714D01*
X14466486Y-16471000D01*
X14452200Y-16485286D01*
X14423628Y-16528143D01*
X14409343Y-16585286D01*
X14409343Y-16699571D01*
X14423628Y-16728143D01*
X14437914Y-16742429D01*
X14466486Y-16756714D01*
X14523628Y-16756714D01*
X14552200Y-16742429D01*
X14566486Y-16728143D01*
X14580771Y-16699571D01*
X14580771Y-16628143D01*
X14566486Y-16599571D01*
X14552200Y-16585286D01*
X14523628Y-16571000D01*
X14466486Y-16571000D01*
X14437914Y-16585286D01*
X14423628Y-16599571D01*
X14409343Y-16628143D01*
X14937914Y-16756714D02*
X14937914Y-16456714D01*
X15066486Y-16756714D02*
X15066486Y-16599571D01*
X15052200Y-16571000D01*
X15023628Y-16556714D01*
X14980771Y-16556714D01*
X14952200Y-16571000D01*
X14937914Y-16585286D01*
X15252200Y-16756714D02*
X15223628Y-16742429D01*
X15209343Y-16728143D01*
X15195057Y-16699571D01*
X15195057Y-16613857D01*
X15209343Y-16585286D01*
X15223628Y-16571000D01*
X15252200Y-16556714D01*
X15295057Y-16556714D01*
X15323628Y-16571000D01*
X15337914Y-16585286D01*
X15352200Y-16613857D01*
X15352200Y-16699571D01*
X15337914Y-16728143D01*
X15323628Y-16742429D01*
X15295057Y-16756714D01*
X15252200Y-16756714D01*
X15523628Y-16756714D02*
X15495057Y-16742429D01*
X15480771Y-16713857D01*
X15480771Y-16456714D01*
X15752200Y-16742429D02*
X15723628Y-16756714D01*
X15666486Y-16756714D01*
X15637914Y-16742429D01*
X15623628Y-16713857D01*
X15623628Y-16599571D01*
X15637914Y-16571000D01*
X15666486Y-16556714D01*
X15723628Y-16556714D01*
X15752200Y-16571000D01*
X15766486Y-16599571D01*
X15766486Y-16628143D01*
X15623628Y-16656714D01*
X15880771Y-16742429D02*
X15909343Y-16756714D01*
X15966486Y-16756714D01*
X15995057Y-16742429D01*
X16009343Y-16713857D01*
X16009343Y-16699571D01*
X15995057Y-16671000D01*
X15966486Y-16656714D01*
X15923628Y-16656714D01*
X15895057Y-16642429D01*
X15880771Y-16613857D01*
X15880771Y-16599571D01*
X15895057Y-16571000D01*
X15923628Y-16556714D01*
X15966486Y-16556714D01*
X15995057Y-16571000D01*
X16109343Y-16871000D02*
X16123628Y-16856714D01*
X16152200Y-16813857D01*
X16166486Y-16785286D01*
X16180771Y-16742429D01*
X16195057Y-16671000D01*
X16195057Y-16613857D01*
X16180771Y-16542429D01*
X16166486Y-16499571D01*
X16152200Y-16471000D01*
X16123628Y-16428143D01*
X16109343Y-16413857D01*
M02*
