M48
METRIC,TZ
T1C0.551
T2C0.600
T3C0.800
T4C0.813
T5C0.899
T6C1.000
T7C1.001
T8C1.200
T9C3.251
T10C4.000
T11C4.000
%
G90
G05
T1
X37109Y-146507
X38405Y-148590
X38862Y-139776
X42164Y-109372
X44196Y-135128
X46203Y-107874
X46279Y-77241
X46558Y-145669
X47244Y-82550
X47371Y-78359
X47371Y-88900
X47574Y-143332
X47879Y-131445
X48006Y-109372
X49657Y-102108
X50013Y-144526
X50419Y-130251
X50800Y-103505
X51587Y-126975
X51613Y-128676
X51867Y-136449
X51918Y-146456
X52121Y-140437
X52197Y-94742
X52451Y-69088
X52451Y-70993
X52705Y-138938
X53848Y-115570
X53848Y-119888
X54356Y-73533
X54356Y-76073
X54356Y-117983
X55626Y-121920
X55753Y-78740
X56388Y-72136
X56642Y-76327
X57023Y-121031
X57048Y-116840
X57404Y-109093
X58547Y-115595
X58547Y-122174
X59055Y-75692
X59563Y-110363
X60198Y-121285
X60427Y-117297
X61341Y-75565
X62103Y-78867
X62611Y-130175
X62713Y-139675
X62738Y-119380
X63246Y-125197
X63424Y-144145
X63627Y-120777
X63754Y-105029
X63881Y-128270
X64338Y-140767
X64414Y-88951
X64795Y-103708
X65151Y-69977
X65278Y-118999
X65532Y-96139
X66319Y-84303
X66548Y-102616
X66675Y-98044
X66929Y-107975
X68072Y-70739
X68072Y-140589
X68148Y-84252
X68301Y-102616
X68402Y-106883
X68478Y-97307
X69748Y-87732
X70002Y-126619
X70764Y-84277
X70764Y-106909
X70866Y-94234
X70968Y-149987
X70993Y-122936
X70993Y-148006
X71374Y-72263
X73076Y-100025
X73279Y-73279
X73304Y-119050
X73482Y-106782
X73939Y-87478
X74041Y-134620
X74651Y-120269
X75692Y-73533
X75692Y-98679
X75743Y-122885
X75895Y-117805
X77318Y-133045
X77470Y-92583
X77648Y-118339
X78181Y-121691
X78359Y-95377
X78410Y-73609
X78867Y-67564
X79172Y-120320
X79273Y-136779
X79832Y-118720
X80137Y-71247
X80924Y-84328
X80950Y-106883
X80950Y-135103
X81001Y-136779
X81382Y-99949
X83007Y-90805
X83972Y-148717
X84150Y-135585
X84201Y-133909
X84963Y-121666
X85090Y-90932
X85522Y-136779
X85598Y-94615
X85725Y-86995
X86868Y-104394
X87554Y-135788
X87960Y-127457
X88036Y-118694
X88036Y-120345
X88113Y-124409
X88392Y-93980
X89789Y-84836
X89789Y-92583
X90043Y-99238
X90094Y-135585
X90780Y-122885
X91084Y-119837
X93091Y-117856
X93243Y-119888
X93777Y-107848
X94056Y-136703
X94259Y-116459
X95453Y-78537
X95682Y-111862
X96495Y-136017
X97485Y-111735
X97790Y-140716
X97866Y-108356
X97942Y-122936
X98120Y-121209
X99695Y-140716
X100427Y-78359
X100584Y-130429
X101473Y-92685
X101473Y-140716
X101498Y-110998
X101600Y-99035
X101727Y-148717
X101981Y-61849
X102692Y-126086
X102718Y-97765
X102972Y-63729
X102997Y-101346
X103251Y-81229
X103886Y-138760
X103962Y-136754
X103988Y-132944
X104089Y-123571
X105410Y-95758
X105537Y-63627
X105562Y-118339
X106705Y-145542
X107188Y-97155
X108331Y-141986
X108814Y-105639
X110160Y-116078
X110236Y-74295
X110236Y-82423
X110236Y-89789
X110515Y-118643
X110744Y-142113
X112141Y-146050
X112243Y-103962
X112319Y-118999
X112598Y-130175
X112649Y-122479
X113284Y-112141
X113424Y-123863
X113665Y-109093
X113792Y-63627
X114325Y-106807
X114351Y-98704
X114402Y-117373
X114706Y-124816
X115011Y-104318
X115494Y-66269
X115570Y-131699
X115595Y-102718
X115748Y-119228
X115799Y-127711
X115824Y-141224
T2
X50165Y-87503
X50165Y-90932
X50165Y-93472
X50165Y-96012
X50259Y-82517
X50259Y-85057
X50292Y-63373
X50292Y-65913
X50292Y-68453
X50292Y-70993
X50292Y-73533
X50292Y-76073
X50292Y-80010
X67615Y-128041
X67615Y-133883
X67666Y-118339
X67666Y-124435
T3
X39467Y-103853
X39467Y-106393
X40292Y-132174
X40292Y-135984
X65913Y-148133
X65964Y-151892
X68453Y-148133
X68504Y-151892
X83757Y-67247
X86297Y-67247
X88837Y-67247
X91376Y-67247
T4
X37752Y-56609
X37752Y-59149
X37752Y-61689
X37752Y-64229
X37752Y-66769
X37752Y-69309
X37752Y-71849
X37752Y-74389
X37752Y-79977
X37752Y-82517
X37752Y-85057
X37752Y-87597
X37752Y-90137
X37752Y-92677
X37752Y-95217
X37752Y-97757
X45372Y-56609
X45372Y-59149
X45372Y-61689
X45372Y-64229
X45372Y-66769
X45372Y-69309
X45372Y-71849
X45372Y-74389
X45372Y-79977
X45372Y-82517
X45372Y-85057
X45372Y-87597
X45372Y-90137
X45372Y-92677
X45372Y-95217
X45372Y-97757
X48547Y-116045
X48547Y-118585
X48547Y-121125
X51087Y-114775
X51087Y-117315
X51087Y-119855
T5
X119985Y-106837
X119985Y-109377
X120015Y-66167
X120015Y-68707
X120015Y-74295
X120015Y-76835
X120015Y-82423
X120015Y-84963
X120015Y-90551
X120015Y-93091
X120015Y-98679
X120015Y-101219
X120015Y-114935
X120015Y-117475
T6
X57310Y-85057
X57310Y-87597
X57310Y-90137
X57310Y-92677
X57310Y-95217
X57310Y-97757
X57310Y-100297
X57310Y-102837
X59850Y-85057
X59850Y-87597
X59850Y-90137
X59850Y-92677
X59850Y-95217
X59850Y-97757
X59850Y-100297
X59850Y-102837
X68232Y-77691
X68232Y-80231
X68232Y-111092
X68232Y-113632
X70772Y-77691
X70772Y-80231
X70772Y-111092
X70772Y-113632
X73312Y-77691
X73312Y-80231
X73312Y-111092
X73312Y-113632
X74011Y-140873
X74011Y-143413
X75852Y-77691
X75852Y-80231
X75852Y-111092
X75852Y-113632
X76551Y-140873
X76551Y-143413
X78392Y-77691
X78392Y-80231
X78392Y-111092
X78392Y-113632
X79091Y-140873
X79091Y-143413
X80932Y-77691
X80932Y-80231
X80932Y-111092
X80932Y-113632
X81631Y-140873
X81631Y-143413
X83472Y-77691
X83472Y-80231
X83472Y-111092
X83472Y-113632
X84171Y-140873
X84171Y-143413
X86012Y-77691
X86012Y-80231
X86012Y-111092
X86012Y-113632
X86711Y-140873
X86711Y-143413
X89251Y-140873
X89251Y-143413
X91791Y-140873
X91791Y-143413
X94518Y-85057
X94518Y-87597
X94518Y-90137
X94518Y-92677
X94518Y-95217
X94518Y-97757
X94518Y-100297
X94518Y-102837
X97058Y-85057
X97058Y-87597
X97058Y-90137
X97058Y-92677
X97058Y-95217
X97058Y-97757
X97058Y-100297
X97058Y-102837
T7
X42832Y-130269
X42832Y-137889
X54453Y-135158
X54453Y-148620
X56993Y-135158
X56993Y-148620
X59533Y-135158
X59533Y-148620
X62073Y-135158
X62073Y-148620
X95347Y-68293
X97887Y-68293
X100427Y-68293
X102967Y-68293
X105507Y-68293
X108331Y-121031
X108331Y-123571
X108331Y-126111
X108331Y-128651
X108331Y-131699
X108331Y-134239
X108331Y-136779
X108331Y-139319
X119985Y-104297
X120015Y-63627
X120015Y-71755
X120015Y-79883
X120015Y-88011
X120015Y-96139
X120015Y-112395
X120015Y-121031
X120015Y-123571
X120015Y-126111
X120015Y-128651
X120015Y-131699
X120015Y-134239
X120015Y-136779
X120015Y-139319
T8
X55626Y-65913
X58166Y-65913
T9
X42197Y-112870
X42197Y-123030
T10
X92837Y-150495
X120620Y-145572
T11
X46990Y-150495
X53564Y-57053
X92934Y-57307
X120726Y-57048
T0
M30
