G04 #@! TF.FileFunction,Legend,Bot*
%FSLAX46Y46*%
G04 Gerber Fmt 4.6, Leading zero omitted, Abs format (unit mm)*
G04 Created by KiCad (PCBNEW 4.0.5+dfsg1-4) date Tue Nov 20 18:09:02 2018*
%MOMM*%
%LPD*%
G01*
G04 APERTURE LIST*
%ADD10C,0.100000*%
%ADD11C,0.300000*%
G04 APERTURE END LIST*
D10*
D11*
X145343070Y-78651571D02*
X146200213Y-78651571D01*
X145771641Y-78651571D02*
X145771641Y-77151571D01*
X145914498Y-77365857D01*
X146057356Y-77508714D01*
X146200213Y-77580143D01*
X144771642Y-77294429D02*
X144700213Y-77223000D01*
X144557356Y-77151571D01*
X144200213Y-77151571D01*
X144057356Y-77223000D01*
X143985927Y-77294429D01*
X143914499Y-77437286D01*
X143914499Y-77580143D01*
X143985927Y-77794429D01*
X144843070Y-78651571D01*
X143914499Y-78651571D01*
X142200214Y-77080143D02*
X143485928Y-79008714D01*
X141771642Y-77294429D02*
X141700213Y-77223000D01*
X141557356Y-77151571D01*
X141200213Y-77151571D01*
X141057356Y-77223000D01*
X140985927Y-77294429D01*
X140914499Y-77437286D01*
X140914499Y-77580143D01*
X140985927Y-77794429D01*
X141843070Y-78651571D01*
X140914499Y-78651571D01*
X139985928Y-77151571D02*
X139843071Y-77151571D01*
X139700214Y-77223000D01*
X139628785Y-77294429D01*
X139557356Y-77437286D01*
X139485928Y-77723000D01*
X139485928Y-78080143D01*
X139557356Y-78365857D01*
X139628785Y-78508714D01*
X139700214Y-78580143D01*
X139843071Y-78651571D01*
X139985928Y-78651571D01*
X140128785Y-78580143D01*
X140200214Y-78508714D01*
X140271642Y-78365857D01*
X140343071Y-78080143D01*
X140343071Y-77723000D01*
X140271642Y-77437286D01*
X140200214Y-77294429D01*
X140128785Y-77223000D01*
X139985928Y-77151571D01*
X138057357Y-78651571D02*
X138914500Y-78651571D01*
X138485928Y-78651571D02*
X138485928Y-77151571D01*
X138628785Y-77365857D01*
X138771643Y-77508714D01*
X138914500Y-77580143D01*
X137200214Y-77794429D02*
X137343072Y-77723000D01*
X137414500Y-77651571D01*
X137485929Y-77508714D01*
X137485929Y-77437286D01*
X137414500Y-77294429D01*
X137343072Y-77223000D01*
X137200214Y-77151571D01*
X136914500Y-77151571D01*
X136771643Y-77223000D01*
X136700214Y-77294429D01*
X136628786Y-77437286D01*
X136628786Y-77508714D01*
X136700214Y-77651571D01*
X136771643Y-77723000D01*
X136914500Y-77794429D01*
X137200214Y-77794429D01*
X137343072Y-77865857D01*
X137414500Y-77937286D01*
X137485929Y-78080143D01*
X137485929Y-78365857D01*
X137414500Y-78508714D01*
X137343072Y-78580143D01*
X137200214Y-78651571D01*
X136914500Y-78651571D01*
X136771643Y-78580143D01*
X136700214Y-78508714D01*
X136628786Y-78365857D01*
X136628786Y-78080143D01*
X136700214Y-77937286D01*
X136771643Y-77865857D01*
X136914500Y-77794429D01*
X144093071Y-80415857D02*
X144593071Y-80415857D01*
X144593071Y-81201571D02*
X144593071Y-79701571D01*
X143878785Y-79701571D01*
X142664500Y-80201571D02*
X142664500Y-81201571D01*
X143021643Y-79630143D02*
X143378786Y-80701571D01*
X142450214Y-80701571D01*
X141878786Y-81201571D02*
X141878786Y-79701571D01*
X141521643Y-79701571D01*
X141307358Y-79773000D01*
X141164500Y-79915857D01*
X141093072Y-80058714D01*
X141021643Y-80344429D01*
X141021643Y-80558714D01*
X141093072Y-80844429D01*
X141164500Y-80987286D01*
X141307358Y-81130143D01*
X141521643Y-81201571D01*
X141878786Y-81201571D01*
X140378786Y-80415857D02*
X139878786Y-80415857D01*
X139664500Y-81201571D02*
X140378786Y-81201571D01*
X140378786Y-79701571D01*
X139664500Y-79701571D01*
X138521643Y-80415857D02*
X138307357Y-80487286D01*
X138235929Y-80558714D01*
X138164500Y-80701571D01*
X138164500Y-80915857D01*
X138235929Y-81058714D01*
X138307357Y-81130143D01*
X138450215Y-81201571D01*
X139021643Y-81201571D01*
X139021643Y-79701571D01*
X138521643Y-79701571D01*
X138378786Y-79773000D01*
X138307357Y-79844429D01*
X138235929Y-79987286D01*
X138235929Y-80130143D01*
X138307357Y-80273000D01*
X138378786Y-80344429D01*
X138521643Y-80415857D01*
X139021643Y-80415857D01*
X145327143Y-71539571D02*
X145327143Y-70039571D01*
X144684286Y-70182429D02*
X144612857Y-70111000D01*
X144470000Y-70039571D01*
X144112857Y-70039571D01*
X143970000Y-70111000D01*
X143898571Y-70182429D01*
X143827143Y-70325286D01*
X143827143Y-70468143D01*
X143898571Y-70682429D01*
X144755714Y-71539571D01*
X143827143Y-71539571D01*
X142327143Y-71396714D02*
X142398572Y-71468143D01*
X142612858Y-71539571D01*
X142755715Y-71539571D01*
X142970000Y-71468143D01*
X143112858Y-71325286D01*
X143184286Y-71182429D01*
X143255715Y-70896714D01*
X143255715Y-70682429D01*
X143184286Y-70396714D01*
X143112858Y-70253857D01*
X142970000Y-70111000D01*
X142755715Y-70039571D01*
X142612858Y-70039571D01*
X142398572Y-70111000D01*
X142327143Y-70182429D01*
X142041429Y-71682429D02*
X140898572Y-71682429D01*
X140541429Y-71539571D02*
X140541429Y-70039571D01*
X140541429Y-70753857D02*
X139684286Y-70753857D01*
X139684286Y-71539571D02*
X139684286Y-70039571D01*
X138970000Y-70039571D02*
X138970000Y-71253857D01*
X138898572Y-71396714D01*
X138827143Y-71468143D01*
X138684286Y-71539571D01*
X138398572Y-71539571D01*
X138255714Y-71468143D01*
X138184286Y-71396714D01*
X138112857Y-71253857D01*
X138112857Y-70039571D01*
X136898571Y-70753857D02*
X136684285Y-70825286D01*
X136612857Y-70896714D01*
X136541428Y-71039571D01*
X136541428Y-71253857D01*
X136612857Y-71396714D01*
X136684285Y-71468143D01*
X136827143Y-71539571D01*
X137398571Y-71539571D01*
X137398571Y-70039571D01*
X136898571Y-70039571D01*
X136755714Y-70111000D01*
X136684285Y-70182429D01*
X136612857Y-70325286D01*
X136612857Y-70468143D01*
X136684285Y-70611000D01*
X136755714Y-70682429D01*
X136898571Y-70753857D01*
X137398571Y-70753857D01*
X147005714Y-72589571D02*
X146505714Y-74089571D01*
X146005714Y-72589571D01*
X145862857Y-74232429D02*
X144720000Y-74232429D01*
X143720000Y-73089571D02*
X143720000Y-74089571D01*
X144077143Y-72518143D02*
X144434286Y-73589571D01*
X143505714Y-73589571D01*
X143291429Y-74232429D02*
X142148572Y-74232429D01*
X141291429Y-73303857D02*
X141077143Y-73375286D01*
X141005715Y-73446714D01*
X140934286Y-73589571D01*
X140934286Y-73803857D01*
X141005715Y-73946714D01*
X141077143Y-74018143D01*
X141220001Y-74089571D01*
X141791429Y-74089571D01*
X141791429Y-72589571D01*
X141291429Y-72589571D01*
X141148572Y-72661000D01*
X141077143Y-72732429D01*
X141005715Y-72875286D01*
X141005715Y-73018143D01*
X141077143Y-73161000D01*
X141148572Y-73232429D01*
X141291429Y-73303857D01*
X141791429Y-73303857D01*
X140005715Y-72589571D02*
X139720001Y-72589571D01*
X139577143Y-72661000D01*
X139434286Y-72803857D01*
X139362858Y-73089571D01*
X139362858Y-73589571D01*
X139434286Y-73875286D01*
X139577143Y-74018143D01*
X139720001Y-74089571D01*
X140005715Y-74089571D01*
X140148572Y-74018143D01*
X140291429Y-73875286D01*
X140362858Y-73589571D01*
X140362858Y-73089571D01*
X140291429Y-72803857D01*
X140148572Y-72661000D01*
X140005715Y-72589571D01*
X138791429Y-73661000D02*
X138077143Y-73661000D01*
X138934286Y-74089571D02*
X138434286Y-72589571D01*
X137934286Y-74089571D01*
X136577143Y-74089571D02*
X137077143Y-73375286D01*
X137434286Y-74089571D02*
X137434286Y-72589571D01*
X136862858Y-72589571D01*
X136720000Y-72661000D01*
X136648572Y-72732429D01*
X136577143Y-72875286D01*
X136577143Y-73089571D01*
X136648572Y-73232429D01*
X136720000Y-73303857D01*
X136862858Y-73375286D01*
X137434286Y-73375286D01*
X135934286Y-74089571D02*
X135934286Y-72589571D01*
X135577143Y-72589571D01*
X135362858Y-72661000D01*
X135220000Y-72803857D01*
X135148572Y-72946714D01*
X135077143Y-73232429D01*
X135077143Y-73446714D01*
X135148572Y-73732429D01*
X135220000Y-73875286D01*
X135362858Y-74018143D01*
X135577143Y-74089571D01*
X135934286Y-74089571D01*
X166635571Y-88030857D02*
X167135571Y-88030857D01*
X167135571Y-88816571D02*
X167135571Y-87316571D01*
X166421285Y-87316571D01*
X165207000Y-87816571D02*
X165207000Y-88816571D01*
X165564143Y-87245143D02*
X165921286Y-88316571D01*
X164992714Y-88316571D01*
X164421286Y-88816571D02*
X164421286Y-87316571D01*
X164064143Y-87316571D01*
X163849858Y-87388000D01*
X163707000Y-87530857D01*
X163635572Y-87673714D01*
X163564143Y-87959429D01*
X163564143Y-88173714D01*
X163635572Y-88459429D01*
X163707000Y-88602286D01*
X163849858Y-88745143D01*
X164064143Y-88816571D01*
X164421286Y-88816571D01*
X162921286Y-88030857D02*
X162421286Y-88030857D01*
X162207000Y-88816571D02*
X162921286Y-88816571D01*
X162921286Y-87316571D01*
X162207000Y-87316571D01*
X161064143Y-88030857D02*
X160849857Y-88102286D01*
X160778429Y-88173714D01*
X160707000Y-88316571D01*
X160707000Y-88530857D01*
X160778429Y-88673714D01*
X160849857Y-88745143D01*
X160992715Y-88816571D01*
X161564143Y-88816571D01*
X161564143Y-87316571D01*
X161064143Y-87316571D01*
X160921286Y-87388000D01*
X160849857Y-87459429D01*
X160778429Y-87602286D01*
X160778429Y-87745143D01*
X160849857Y-87888000D01*
X160921286Y-87959429D01*
X161064143Y-88030857D01*
X161564143Y-88030857D01*
X168203070Y-86022571D02*
X169060213Y-86022571D01*
X168631641Y-86022571D02*
X168631641Y-84522571D01*
X168774498Y-84736857D01*
X168917356Y-84879714D01*
X169060213Y-84951143D01*
X167631642Y-84665429D02*
X167560213Y-84594000D01*
X167417356Y-84522571D01*
X167060213Y-84522571D01*
X166917356Y-84594000D01*
X166845927Y-84665429D01*
X166774499Y-84808286D01*
X166774499Y-84951143D01*
X166845927Y-85165429D01*
X167703070Y-86022571D01*
X166774499Y-86022571D01*
X165060214Y-84451143D02*
X166345928Y-86379714D01*
X164631642Y-84665429D02*
X164560213Y-84594000D01*
X164417356Y-84522571D01*
X164060213Y-84522571D01*
X163917356Y-84594000D01*
X163845927Y-84665429D01*
X163774499Y-84808286D01*
X163774499Y-84951143D01*
X163845927Y-85165429D01*
X164703070Y-86022571D01*
X163774499Y-86022571D01*
X162845928Y-84522571D02*
X162703071Y-84522571D01*
X162560214Y-84594000D01*
X162488785Y-84665429D01*
X162417356Y-84808286D01*
X162345928Y-85094000D01*
X162345928Y-85451143D01*
X162417356Y-85736857D01*
X162488785Y-85879714D01*
X162560214Y-85951143D01*
X162703071Y-86022571D01*
X162845928Y-86022571D01*
X162988785Y-85951143D01*
X163060214Y-85879714D01*
X163131642Y-85736857D01*
X163203071Y-85451143D01*
X163203071Y-85094000D01*
X163131642Y-84808286D01*
X163060214Y-84665429D01*
X162988785Y-84594000D01*
X162845928Y-84522571D01*
X160917357Y-86022571D02*
X161774500Y-86022571D01*
X161345928Y-86022571D02*
X161345928Y-84522571D01*
X161488785Y-84736857D01*
X161631643Y-84879714D01*
X161774500Y-84951143D01*
X160060214Y-85165429D02*
X160203072Y-85094000D01*
X160274500Y-85022571D01*
X160345929Y-84879714D01*
X160345929Y-84808286D01*
X160274500Y-84665429D01*
X160203072Y-84594000D01*
X160060214Y-84522571D01*
X159774500Y-84522571D01*
X159631643Y-84594000D01*
X159560214Y-84665429D01*
X159488786Y-84808286D01*
X159488786Y-84879714D01*
X159560214Y-85022571D01*
X159631643Y-85094000D01*
X159774500Y-85165429D01*
X160060214Y-85165429D01*
X160203072Y-85236857D01*
X160274500Y-85308286D01*
X160345929Y-85451143D01*
X160345929Y-85736857D01*
X160274500Y-85879714D01*
X160203072Y-85951143D01*
X160060214Y-86022571D01*
X159774500Y-86022571D01*
X159631643Y-85951143D01*
X159560214Y-85879714D01*
X159488786Y-85736857D01*
X159488786Y-85451143D01*
X159560214Y-85308286D01*
X159631643Y-85236857D01*
X159774500Y-85165429D01*
X171310214Y-72306571D02*
X171310214Y-70806571D01*
X169738785Y-72163714D02*
X169810214Y-72235143D01*
X170024500Y-72306571D01*
X170167357Y-72306571D01*
X170381642Y-72235143D01*
X170524500Y-72092286D01*
X170595928Y-71949429D01*
X170667357Y-71663714D01*
X170667357Y-71449429D01*
X170595928Y-71163714D01*
X170524500Y-71020857D01*
X170381642Y-70878000D01*
X170167357Y-70806571D01*
X170024500Y-70806571D01*
X169810214Y-70878000D01*
X169738785Y-70949429D01*
X169095928Y-72306571D02*
X169095928Y-70806571D01*
X168738785Y-70806571D01*
X168524500Y-70878000D01*
X168381642Y-71020857D01*
X168310214Y-71163714D01*
X168238785Y-71449429D01*
X168238785Y-71663714D01*
X168310214Y-71949429D01*
X168381642Y-72092286D01*
X168524500Y-72235143D01*
X168738785Y-72306571D01*
X169095928Y-72306571D01*
X167953071Y-72449429D02*
X166810214Y-72449429D01*
X165810214Y-71306571D02*
X165810214Y-72306571D01*
X166167357Y-70735143D02*
X166524500Y-71806571D01*
X165595928Y-71806571D01*
X165381643Y-72449429D02*
X164238786Y-72449429D01*
X163381643Y-71520857D02*
X163167357Y-71592286D01*
X163095929Y-71663714D01*
X163024500Y-71806571D01*
X163024500Y-72020857D01*
X163095929Y-72163714D01*
X163167357Y-72235143D01*
X163310215Y-72306571D01*
X163881643Y-72306571D01*
X163881643Y-70806571D01*
X163381643Y-70806571D01*
X163238786Y-70878000D01*
X163167357Y-70949429D01*
X163095929Y-71092286D01*
X163095929Y-71235143D01*
X163167357Y-71378000D01*
X163238786Y-71449429D01*
X163381643Y-71520857D01*
X163881643Y-71520857D01*
X162095929Y-70806571D02*
X161810215Y-70806571D01*
X161667357Y-70878000D01*
X161524500Y-71020857D01*
X161453072Y-71306571D01*
X161453072Y-71806571D01*
X161524500Y-72092286D01*
X161667357Y-72235143D01*
X161810215Y-72306571D01*
X162095929Y-72306571D01*
X162238786Y-72235143D01*
X162381643Y-72092286D01*
X162453072Y-71806571D01*
X162453072Y-71306571D01*
X162381643Y-71020857D01*
X162238786Y-70878000D01*
X162095929Y-70806571D01*
X160881643Y-71878000D02*
X160167357Y-71878000D01*
X161024500Y-72306571D02*
X160524500Y-70806571D01*
X160024500Y-72306571D01*
X158667357Y-72306571D02*
X159167357Y-71592286D01*
X159524500Y-72306571D02*
X159524500Y-70806571D01*
X158953072Y-70806571D01*
X158810214Y-70878000D01*
X158738786Y-70949429D01*
X158667357Y-71092286D01*
X158667357Y-71306571D01*
X158738786Y-71449429D01*
X158810214Y-71520857D01*
X158953072Y-71592286D01*
X159524500Y-71592286D01*
X158024500Y-72306571D02*
X158024500Y-70806571D01*
X157667357Y-70806571D01*
X157453072Y-70878000D01*
X157310214Y-71020857D01*
X157238786Y-71163714D01*
X157167357Y-71449429D01*
X157167357Y-71663714D01*
X157238786Y-71949429D01*
X157310214Y-72092286D01*
X157453072Y-72235143D01*
X157667357Y-72306571D01*
X158024500Y-72306571D01*
X137093500Y-85026643D02*
X137022071Y-84883786D01*
X137022071Y-84669500D01*
X137093500Y-84455215D01*
X137236357Y-84312357D01*
X137379214Y-84240929D01*
X137664929Y-84169500D01*
X137879214Y-84169500D01*
X138164929Y-84240929D01*
X138307786Y-84312357D01*
X138450643Y-84455215D01*
X138522071Y-84669500D01*
X138522071Y-84812357D01*
X138450643Y-85026643D01*
X138379214Y-85098072D01*
X137879214Y-85098072D01*
X137879214Y-84812357D01*
X138522071Y-85740929D02*
X137022071Y-85740929D01*
X138522071Y-86598072D01*
X137022071Y-86598072D01*
X138522071Y-87312358D02*
X137022071Y-87312358D01*
X137022071Y-87669501D01*
X137093500Y-87883786D01*
X137236357Y-88026644D01*
X137379214Y-88098072D01*
X137664929Y-88169501D01*
X137879214Y-88169501D01*
X138164929Y-88098072D01*
X138307786Y-88026644D01*
X138450643Y-87883786D01*
X138522071Y-87669501D01*
X138522071Y-87312358D01*
X140500643Y-83490929D02*
X140500643Y-84633786D01*
X141072071Y-84062357D02*
X139929214Y-84062357D01*
X139572071Y-86062358D02*
X139572071Y-85348072D01*
X140286357Y-85276643D01*
X140214929Y-85348072D01*
X140143500Y-85490929D01*
X140143500Y-85848072D01*
X140214929Y-85990929D01*
X140286357Y-86062358D01*
X140429214Y-86133786D01*
X140786357Y-86133786D01*
X140929214Y-86062358D01*
X141000643Y-85990929D01*
X141072071Y-85848072D01*
X141072071Y-85490929D01*
X141000643Y-85348072D01*
X140929214Y-85276643D01*
X139572071Y-86562357D02*
X141072071Y-87062357D01*
X139572071Y-87562357D01*
X141072071Y-88062357D02*
X139572071Y-88062357D01*
X139572071Y-88419500D01*
X139643500Y-88633785D01*
X139786357Y-88776643D01*
X139929214Y-88848071D01*
X140214929Y-88919500D01*
X140429214Y-88919500D01*
X140714929Y-88848071D01*
X140857786Y-88776643D01*
X141000643Y-88633785D01*
X141072071Y-88419500D01*
X141072071Y-88062357D01*
X143550643Y-84383786D02*
X143622071Y-84598072D01*
X143622071Y-84955215D01*
X143550643Y-85098072D01*
X143479214Y-85169501D01*
X143336357Y-85240929D01*
X143193500Y-85240929D01*
X143050643Y-85169501D01*
X142979214Y-85098072D01*
X142907786Y-84955215D01*
X142836357Y-84669501D01*
X142764929Y-84526643D01*
X142693500Y-84455215D01*
X142550643Y-84383786D01*
X142407786Y-84383786D01*
X142264929Y-84455215D01*
X142193500Y-84526643D01*
X142122071Y-84669501D01*
X142122071Y-85026643D01*
X142193500Y-85240929D01*
X143479214Y-86740929D02*
X143550643Y-86669500D01*
X143622071Y-86455214D01*
X143622071Y-86312357D01*
X143550643Y-86098072D01*
X143407786Y-85955214D01*
X143264929Y-85883786D01*
X142979214Y-85812357D01*
X142764929Y-85812357D01*
X142479214Y-85883786D01*
X142336357Y-85955214D01*
X142193500Y-86098072D01*
X142122071Y-86312357D01*
X142122071Y-86455214D01*
X142193500Y-86669500D01*
X142264929Y-86740929D01*
X143622071Y-88098072D02*
X143622071Y-87383786D01*
X142122071Y-87383786D01*
X146100643Y-84348072D02*
X146172071Y-84562358D01*
X146172071Y-84919501D01*
X146100643Y-85062358D01*
X146029214Y-85133787D01*
X145886357Y-85205215D01*
X145743500Y-85205215D01*
X145600643Y-85133787D01*
X145529214Y-85062358D01*
X145457786Y-84919501D01*
X145386357Y-84633787D01*
X145314929Y-84490929D01*
X145243500Y-84419501D01*
X145100643Y-84348072D01*
X144957786Y-84348072D01*
X144814929Y-84419501D01*
X144743500Y-84490929D01*
X144672071Y-84633787D01*
X144672071Y-84990929D01*
X144743500Y-85205215D01*
X146172071Y-85848072D02*
X144672071Y-85848072D01*
X144672071Y-86205215D01*
X144743500Y-86419500D01*
X144886357Y-86562358D01*
X145029214Y-86633786D01*
X145314929Y-86705215D01*
X145529214Y-86705215D01*
X145814929Y-86633786D01*
X145957786Y-86562358D01*
X146100643Y-86419500D01*
X146172071Y-86205215D01*
X146172071Y-85848072D01*
X145743500Y-87276643D02*
X145743500Y-87990929D01*
X146172071Y-87133786D02*
X144672071Y-87633786D01*
X146172071Y-88133786D01*
X137093500Y-56705643D02*
X137022071Y-56562786D01*
X137022071Y-56348500D01*
X137093500Y-56134215D01*
X137236357Y-55991357D01*
X137379214Y-55919929D01*
X137664929Y-55848500D01*
X137879214Y-55848500D01*
X138164929Y-55919929D01*
X138307786Y-55991357D01*
X138450643Y-56134215D01*
X138522071Y-56348500D01*
X138522071Y-56491357D01*
X138450643Y-56705643D01*
X138379214Y-56777072D01*
X137879214Y-56777072D01*
X137879214Y-56491357D01*
X138522071Y-57419929D02*
X137022071Y-57419929D01*
X138522071Y-58277072D01*
X137022071Y-58277072D01*
X138522071Y-58991358D02*
X137022071Y-58991358D01*
X137022071Y-59348501D01*
X137093500Y-59562786D01*
X137236357Y-59705644D01*
X137379214Y-59777072D01*
X137664929Y-59848501D01*
X137879214Y-59848501D01*
X138164929Y-59777072D01*
X138307786Y-59705644D01*
X138450643Y-59562786D01*
X138522071Y-59348501D01*
X138522071Y-58991358D01*
X140500643Y-55169929D02*
X140500643Y-56312786D01*
X141072071Y-55741357D02*
X139929214Y-55741357D01*
X139572071Y-57741358D02*
X139572071Y-57027072D01*
X140286357Y-56955643D01*
X140214929Y-57027072D01*
X140143500Y-57169929D01*
X140143500Y-57527072D01*
X140214929Y-57669929D01*
X140286357Y-57741358D01*
X140429214Y-57812786D01*
X140786357Y-57812786D01*
X140929214Y-57741358D01*
X141000643Y-57669929D01*
X141072071Y-57527072D01*
X141072071Y-57169929D01*
X141000643Y-57027072D01*
X140929214Y-56955643D01*
X139572071Y-58241357D02*
X141072071Y-58741357D01*
X139572071Y-59241357D01*
X141072071Y-59741357D02*
X139572071Y-59741357D01*
X139572071Y-60098500D01*
X139643500Y-60312785D01*
X139786357Y-60455643D01*
X139929214Y-60527071D01*
X140214929Y-60598500D01*
X140429214Y-60598500D01*
X140714929Y-60527071D01*
X140857786Y-60455643D01*
X141000643Y-60312785D01*
X141072071Y-60098500D01*
X141072071Y-59741357D01*
X143550643Y-56062786D02*
X143622071Y-56277072D01*
X143622071Y-56634215D01*
X143550643Y-56777072D01*
X143479214Y-56848501D01*
X143336357Y-56919929D01*
X143193500Y-56919929D01*
X143050643Y-56848501D01*
X142979214Y-56777072D01*
X142907786Y-56634215D01*
X142836357Y-56348501D01*
X142764929Y-56205643D01*
X142693500Y-56134215D01*
X142550643Y-56062786D01*
X142407786Y-56062786D01*
X142264929Y-56134215D01*
X142193500Y-56205643D01*
X142122071Y-56348501D01*
X142122071Y-56705643D01*
X142193500Y-56919929D01*
X143479214Y-58419929D02*
X143550643Y-58348500D01*
X143622071Y-58134214D01*
X143622071Y-57991357D01*
X143550643Y-57777072D01*
X143407786Y-57634214D01*
X143264929Y-57562786D01*
X142979214Y-57491357D01*
X142764929Y-57491357D01*
X142479214Y-57562786D01*
X142336357Y-57634214D01*
X142193500Y-57777072D01*
X142122071Y-57991357D01*
X142122071Y-58134214D01*
X142193500Y-58348500D01*
X142264929Y-58419929D01*
X143622071Y-59777072D02*
X143622071Y-59062786D01*
X142122071Y-59062786D01*
X146100643Y-56027072D02*
X146172071Y-56241358D01*
X146172071Y-56598501D01*
X146100643Y-56741358D01*
X146029214Y-56812787D01*
X145886357Y-56884215D01*
X145743500Y-56884215D01*
X145600643Y-56812787D01*
X145529214Y-56741358D01*
X145457786Y-56598501D01*
X145386357Y-56312787D01*
X145314929Y-56169929D01*
X145243500Y-56098501D01*
X145100643Y-56027072D01*
X144957786Y-56027072D01*
X144814929Y-56098501D01*
X144743500Y-56169929D01*
X144672071Y-56312787D01*
X144672071Y-56669929D01*
X144743500Y-56884215D01*
X146172071Y-57527072D02*
X144672071Y-57527072D01*
X144672071Y-57884215D01*
X144743500Y-58098500D01*
X144886357Y-58241358D01*
X145029214Y-58312786D01*
X145314929Y-58384215D01*
X145529214Y-58384215D01*
X145814929Y-58312786D01*
X145957786Y-58241358D01*
X146100643Y-58098500D01*
X146172071Y-57884215D01*
X146172071Y-57527072D01*
X145743500Y-58955643D02*
X145743500Y-59669929D01*
X146172071Y-58812786D02*
X144672071Y-59312786D01*
X146172071Y-59812786D01*
X124393500Y-57277143D02*
X124322071Y-57134286D01*
X124322071Y-56920000D01*
X124393500Y-56705715D01*
X124536357Y-56562857D01*
X124679214Y-56491429D01*
X124964929Y-56420000D01*
X125179214Y-56420000D01*
X125464929Y-56491429D01*
X125607786Y-56562857D01*
X125750643Y-56705715D01*
X125822071Y-56920000D01*
X125822071Y-57062857D01*
X125750643Y-57277143D01*
X125679214Y-57348572D01*
X125179214Y-57348572D01*
X125179214Y-57062857D01*
X125822071Y-57991429D02*
X124322071Y-57991429D01*
X125822071Y-58848572D01*
X124322071Y-58848572D01*
X125822071Y-59562858D02*
X124322071Y-59562858D01*
X124322071Y-59920001D01*
X124393500Y-60134286D01*
X124536357Y-60277144D01*
X124679214Y-60348572D01*
X124964929Y-60420001D01*
X125179214Y-60420001D01*
X125464929Y-60348572D01*
X125607786Y-60277144D01*
X125750643Y-60134286D01*
X125822071Y-59920001D01*
X125822071Y-59562858D01*
X127800643Y-55741429D02*
X127800643Y-56884286D01*
X128372071Y-56312857D02*
X127229214Y-56312857D01*
X126872071Y-58312858D02*
X126872071Y-57598572D01*
X127586357Y-57527143D01*
X127514929Y-57598572D01*
X127443500Y-57741429D01*
X127443500Y-58098572D01*
X127514929Y-58241429D01*
X127586357Y-58312858D01*
X127729214Y-58384286D01*
X128086357Y-58384286D01*
X128229214Y-58312858D01*
X128300643Y-58241429D01*
X128372071Y-58098572D01*
X128372071Y-57741429D01*
X128300643Y-57598572D01*
X128229214Y-57527143D01*
X126872071Y-58812857D02*
X128372071Y-59312857D01*
X126872071Y-59812857D01*
X128372071Y-60312857D02*
X126872071Y-60312857D01*
X126872071Y-60670000D01*
X126943500Y-60884285D01*
X127086357Y-61027143D01*
X127229214Y-61098571D01*
X127514929Y-61170000D01*
X127729214Y-61170000D01*
X128014929Y-61098571D01*
X128157786Y-61027143D01*
X128300643Y-60884285D01*
X128372071Y-60670000D01*
X128372071Y-60312857D01*
X130850643Y-56634286D02*
X130922071Y-56848572D01*
X130922071Y-57205715D01*
X130850643Y-57348572D01*
X130779214Y-57420001D01*
X130636357Y-57491429D01*
X130493500Y-57491429D01*
X130350643Y-57420001D01*
X130279214Y-57348572D01*
X130207786Y-57205715D01*
X130136357Y-56920001D01*
X130064929Y-56777143D01*
X129993500Y-56705715D01*
X129850643Y-56634286D01*
X129707786Y-56634286D01*
X129564929Y-56705715D01*
X129493500Y-56777143D01*
X129422071Y-56920001D01*
X129422071Y-57277143D01*
X129493500Y-57491429D01*
X130779214Y-58991429D02*
X130850643Y-58920000D01*
X130922071Y-58705714D01*
X130922071Y-58562857D01*
X130850643Y-58348572D01*
X130707786Y-58205714D01*
X130564929Y-58134286D01*
X130279214Y-58062857D01*
X130064929Y-58062857D01*
X129779214Y-58134286D01*
X129636357Y-58205714D01*
X129493500Y-58348572D01*
X129422071Y-58562857D01*
X129422071Y-58705714D01*
X129493500Y-58920000D01*
X129564929Y-58991429D01*
X130922071Y-60348572D02*
X130922071Y-59634286D01*
X129422071Y-59634286D01*
X133400643Y-56598572D02*
X133472071Y-56812858D01*
X133472071Y-57170001D01*
X133400643Y-57312858D01*
X133329214Y-57384287D01*
X133186357Y-57455715D01*
X133043500Y-57455715D01*
X132900643Y-57384287D01*
X132829214Y-57312858D01*
X132757786Y-57170001D01*
X132686357Y-56884287D01*
X132614929Y-56741429D01*
X132543500Y-56670001D01*
X132400643Y-56598572D01*
X132257786Y-56598572D01*
X132114929Y-56670001D01*
X132043500Y-56741429D01*
X131972071Y-56884287D01*
X131972071Y-57241429D01*
X132043500Y-57455715D01*
X133472071Y-58098572D02*
X131972071Y-58098572D01*
X131972071Y-58455715D01*
X132043500Y-58670000D01*
X132186357Y-58812858D01*
X132329214Y-58884286D01*
X132614929Y-58955715D01*
X132829214Y-58955715D01*
X133114929Y-58884286D01*
X133257786Y-58812858D01*
X133400643Y-58670000D01*
X133472071Y-58455715D01*
X133472071Y-58098572D01*
X133043500Y-59527143D02*
X133043500Y-60241429D01*
X133472071Y-59384286D02*
X131972071Y-59884286D01*
X133472071Y-60384286D01*
X124203000Y-114363643D02*
X124131571Y-114220786D01*
X124131571Y-114006500D01*
X124203000Y-113792215D01*
X124345857Y-113649357D01*
X124488714Y-113577929D01*
X124774429Y-113506500D01*
X124988714Y-113506500D01*
X125274429Y-113577929D01*
X125417286Y-113649357D01*
X125560143Y-113792215D01*
X125631571Y-114006500D01*
X125631571Y-114149357D01*
X125560143Y-114363643D01*
X125488714Y-114435072D01*
X124988714Y-114435072D01*
X124988714Y-114149357D01*
X125631571Y-115077929D02*
X124131571Y-115077929D01*
X125631571Y-115935072D01*
X124131571Y-115935072D01*
X125631571Y-116649358D02*
X124131571Y-116649358D01*
X124131571Y-117006501D01*
X124203000Y-117220786D01*
X124345857Y-117363644D01*
X124488714Y-117435072D01*
X124774429Y-117506501D01*
X124988714Y-117506501D01*
X125274429Y-117435072D01*
X125417286Y-117363644D01*
X125560143Y-117220786D01*
X125631571Y-117006501D01*
X125631571Y-116649358D01*
X127610143Y-112827929D02*
X127610143Y-113970786D01*
X128181571Y-113399357D02*
X127038714Y-113399357D01*
X126681571Y-115399358D02*
X126681571Y-114685072D01*
X127395857Y-114613643D01*
X127324429Y-114685072D01*
X127253000Y-114827929D01*
X127253000Y-115185072D01*
X127324429Y-115327929D01*
X127395857Y-115399358D01*
X127538714Y-115470786D01*
X127895857Y-115470786D01*
X128038714Y-115399358D01*
X128110143Y-115327929D01*
X128181571Y-115185072D01*
X128181571Y-114827929D01*
X128110143Y-114685072D01*
X128038714Y-114613643D01*
X126681571Y-115899357D02*
X128181571Y-116399357D01*
X126681571Y-116899357D01*
X128181571Y-117399357D02*
X126681571Y-117399357D01*
X126681571Y-117756500D01*
X126753000Y-117970785D01*
X126895857Y-118113643D01*
X127038714Y-118185071D01*
X127324429Y-118256500D01*
X127538714Y-118256500D01*
X127824429Y-118185071D01*
X127967286Y-118113643D01*
X128110143Y-117970785D01*
X128181571Y-117756500D01*
X128181571Y-117399357D01*
X130660143Y-113720786D02*
X130731571Y-113935072D01*
X130731571Y-114292215D01*
X130660143Y-114435072D01*
X130588714Y-114506501D01*
X130445857Y-114577929D01*
X130303000Y-114577929D01*
X130160143Y-114506501D01*
X130088714Y-114435072D01*
X130017286Y-114292215D01*
X129945857Y-114006501D01*
X129874429Y-113863643D01*
X129803000Y-113792215D01*
X129660143Y-113720786D01*
X129517286Y-113720786D01*
X129374429Y-113792215D01*
X129303000Y-113863643D01*
X129231571Y-114006501D01*
X129231571Y-114363643D01*
X129303000Y-114577929D01*
X130588714Y-116077929D02*
X130660143Y-116006500D01*
X130731571Y-115792214D01*
X130731571Y-115649357D01*
X130660143Y-115435072D01*
X130517286Y-115292214D01*
X130374429Y-115220786D01*
X130088714Y-115149357D01*
X129874429Y-115149357D01*
X129588714Y-115220786D01*
X129445857Y-115292214D01*
X129303000Y-115435072D01*
X129231571Y-115649357D01*
X129231571Y-115792214D01*
X129303000Y-116006500D01*
X129374429Y-116077929D01*
X130731571Y-117435072D02*
X130731571Y-116720786D01*
X129231571Y-116720786D01*
X133210143Y-113685072D02*
X133281571Y-113899358D01*
X133281571Y-114256501D01*
X133210143Y-114399358D01*
X133138714Y-114470787D01*
X132995857Y-114542215D01*
X132853000Y-114542215D01*
X132710143Y-114470787D01*
X132638714Y-114399358D01*
X132567286Y-114256501D01*
X132495857Y-113970787D01*
X132424429Y-113827929D01*
X132353000Y-113756501D01*
X132210143Y-113685072D01*
X132067286Y-113685072D01*
X131924429Y-113756501D01*
X131853000Y-113827929D01*
X131781571Y-113970787D01*
X131781571Y-114327929D01*
X131853000Y-114542215D01*
X133281571Y-115185072D02*
X131781571Y-115185072D01*
X131781571Y-115542215D01*
X131853000Y-115756500D01*
X131995857Y-115899358D01*
X132138714Y-115970786D01*
X132424429Y-116042215D01*
X132638714Y-116042215D01*
X132924429Y-115970786D01*
X133067286Y-115899358D01*
X133210143Y-115756500D01*
X133281571Y-115542215D01*
X133281571Y-115185072D01*
X132853000Y-116613643D02*
X132853000Y-117327929D01*
X133281571Y-116470786D02*
X131781571Y-116970786D01*
X133281571Y-117470786D01*
X115760357Y-94612000D02*
X115903214Y-94540571D01*
X116117500Y-94540571D01*
X116331785Y-94612000D01*
X116474643Y-94754857D01*
X116546071Y-94897714D01*
X116617500Y-95183429D01*
X116617500Y-95397714D01*
X116546071Y-95683429D01*
X116474643Y-95826286D01*
X116331785Y-95969143D01*
X116117500Y-96040571D01*
X115974643Y-96040571D01*
X115760357Y-95969143D01*
X115688928Y-95897714D01*
X115688928Y-95397714D01*
X115974643Y-95397714D01*
X115046071Y-96040571D02*
X115046071Y-94540571D01*
X114188928Y-96040571D01*
X114188928Y-94540571D01*
X113474642Y-96040571D02*
X113474642Y-94540571D01*
X113117499Y-94540571D01*
X112903214Y-94612000D01*
X112760356Y-94754857D01*
X112688928Y-94897714D01*
X112617499Y-95183429D01*
X112617499Y-95397714D01*
X112688928Y-95683429D01*
X112760356Y-95826286D01*
X112903214Y-95969143D01*
X113117499Y-96040571D01*
X113474642Y-96040571D01*
X117296071Y-98019143D02*
X116153214Y-98019143D01*
X116724643Y-98590571D02*
X116724643Y-97447714D01*
X114724642Y-97090571D02*
X115438928Y-97090571D01*
X115510357Y-97804857D01*
X115438928Y-97733429D01*
X115296071Y-97662000D01*
X114938928Y-97662000D01*
X114796071Y-97733429D01*
X114724642Y-97804857D01*
X114653214Y-97947714D01*
X114653214Y-98304857D01*
X114724642Y-98447714D01*
X114796071Y-98519143D01*
X114938928Y-98590571D01*
X115296071Y-98590571D01*
X115438928Y-98519143D01*
X115510357Y-98447714D01*
X114224643Y-97090571D02*
X113724643Y-98590571D01*
X113224643Y-97090571D01*
X112724643Y-98590571D02*
X112724643Y-97090571D01*
X112367500Y-97090571D01*
X112153215Y-97162000D01*
X112010357Y-97304857D01*
X111938929Y-97447714D01*
X111867500Y-97733429D01*
X111867500Y-97947714D01*
X111938929Y-98233429D01*
X112010357Y-98376286D01*
X112153215Y-98519143D01*
X112367500Y-98590571D01*
X112724643Y-98590571D01*
X116403214Y-101069143D02*
X116188928Y-101140571D01*
X115831785Y-101140571D01*
X115688928Y-101069143D01*
X115617499Y-100997714D01*
X115546071Y-100854857D01*
X115546071Y-100712000D01*
X115617499Y-100569143D01*
X115688928Y-100497714D01*
X115831785Y-100426286D01*
X116117499Y-100354857D01*
X116260357Y-100283429D01*
X116331785Y-100212000D01*
X116403214Y-100069143D01*
X116403214Y-99926286D01*
X116331785Y-99783429D01*
X116260357Y-99712000D01*
X116117499Y-99640571D01*
X115760357Y-99640571D01*
X115546071Y-99712000D01*
X114046071Y-100997714D02*
X114117500Y-101069143D01*
X114331786Y-101140571D01*
X114474643Y-101140571D01*
X114688928Y-101069143D01*
X114831786Y-100926286D01*
X114903214Y-100783429D01*
X114974643Y-100497714D01*
X114974643Y-100283429D01*
X114903214Y-99997714D01*
X114831786Y-99854857D01*
X114688928Y-99712000D01*
X114474643Y-99640571D01*
X114331786Y-99640571D01*
X114117500Y-99712000D01*
X114046071Y-99783429D01*
X112688928Y-101140571D02*
X113403214Y-101140571D01*
X113403214Y-99640571D01*
X116438928Y-103619143D02*
X116224642Y-103690571D01*
X115867499Y-103690571D01*
X115724642Y-103619143D01*
X115653213Y-103547714D01*
X115581785Y-103404857D01*
X115581785Y-103262000D01*
X115653213Y-103119143D01*
X115724642Y-103047714D01*
X115867499Y-102976286D01*
X116153213Y-102904857D01*
X116296071Y-102833429D01*
X116367499Y-102762000D01*
X116438928Y-102619143D01*
X116438928Y-102476286D01*
X116367499Y-102333429D01*
X116296071Y-102262000D01*
X116153213Y-102190571D01*
X115796071Y-102190571D01*
X115581785Y-102262000D01*
X114938928Y-103690571D02*
X114938928Y-102190571D01*
X114581785Y-102190571D01*
X114367500Y-102262000D01*
X114224642Y-102404857D01*
X114153214Y-102547714D01*
X114081785Y-102833429D01*
X114081785Y-103047714D01*
X114153214Y-103333429D01*
X114224642Y-103476286D01*
X114367500Y-103619143D01*
X114581785Y-103690571D01*
X114938928Y-103690571D01*
X113510357Y-103262000D02*
X112796071Y-103262000D01*
X113653214Y-103690571D02*
X113153214Y-102190571D01*
X112653214Y-103690571D01*
X115633357Y-83182000D02*
X115776214Y-83110571D01*
X115990500Y-83110571D01*
X116204785Y-83182000D01*
X116347643Y-83324857D01*
X116419071Y-83467714D01*
X116490500Y-83753429D01*
X116490500Y-83967714D01*
X116419071Y-84253429D01*
X116347643Y-84396286D01*
X116204785Y-84539143D01*
X115990500Y-84610571D01*
X115847643Y-84610571D01*
X115633357Y-84539143D01*
X115561928Y-84467714D01*
X115561928Y-83967714D01*
X115847643Y-83967714D01*
X114919071Y-84610571D02*
X114919071Y-83110571D01*
X114061928Y-84610571D01*
X114061928Y-83110571D01*
X113347642Y-84610571D02*
X113347642Y-83110571D01*
X112990499Y-83110571D01*
X112776214Y-83182000D01*
X112633356Y-83324857D01*
X112561928Y-83467714D01*
X112490499Y-83753429D01*
X112490499Y-83967714D01*
X112561928Y-84253429D01*
X112633356Y-84396286D01*
X112776214Y-84539143D01*
X112990499Y-84610571D01*
X113347642Y-84610571D01*
X117169071Y-86589143D02*
X116026214Y-86589143D01*
X116597643Y-87160571D02*
X116597643Y-86017714D01*
X114597642Y-85660571D02*
X115311928Y-85660571D01*
X115383357Y-86374857D01*
X115311928Y-86303429D01*
X115169071Y-86232000D01*
X114811928Y-86232000D01*
X114669071Y-86303429D01*
X114597642Y-86374857D01*
X114526214Y-86517714D01*
X114526214Y-86874857D01*
X114597642Y-87017714D01*
X114669071Y-87089143D01*
X114811928Y-87160571D01*
X115169071Y-87160571D01*
X115311928Y-87089143D01*
X115383357Y-87017714D01*
X114097643Y-85660571D02*
X113597643Y-87160571D01*
X113097643Y-85660571D01*
X112597643Y-87160571D02*
X112597643Y-85660571D01*
X112240500Y-85660571D01*
X112026215Y-85732000D01*
X111883357Y-85874857D01*
X111811929Y-86017714D01*
X111740500Y-86303429D01*
X111740500Y-86517714D01*
X111811929Y-86803429D01*
X111883357Y-86946286D01*
X112026215Y-87089143D01*
X112240500Y-87160571D01*
X112597643Y-87160571D01*
X116276214Y-89639143D02*
X116061928Y-89710571D01*
X115704785Y-89710571D01*
X115561928Y-89639143D01*
X115490499Y-89567714D01*
X115419071Y-89424857D01*
X115419071Y-89282000D01*
X115490499Y-89139143D01*
X115561928Y-89067714D01*
X115704785Y-88996286D01*
X115990499Y-88924857D01*
X116133357Y-88853429D01*
X116204785Y-88782000D01*
X116276214Y-88639143D01*
X116276214Y-88496286D01*
X116204785Y-88353429D01*
X116133357Y-88282000D01*
X115990499Y-88210571D01*
X115633357Y-88210571D01*
X115419071Y-88282000D01*
X113919071Y-89567714D02*
X113990500Y-89639143D01*
X114204786Y-89710571D01*
X114347643Y-89710571D01*
X114561928Y-89639143D01*
X114704786Y-89496286D01*
X114776214Y-89353429D01*
X114847643Y-89067714D01*
X114847643Y-88853429D01*
X114776214Y-88567714D01*
X114704786Y-88424857D01*
X114561928Y-88282000D01*
X114347643Y-88210571D01*
X114204786Y-88210571D01*
X113990500Y-88282000D01*
X113919071Y-88353429D01*
X112561928Y-89710571D02*
X113276214Y-89710571D01*
X113276214Y-88210571D01*
X116311928Y-92189143D02*
X116097642Y-92260571D01*
X115740499Y-92260571D01*
X115597642Y-92189143D01*
X115526213Y-92117714D01*
X115454785Y-91974857D01*
X115454785Y-91832000D01*
X115526213Y-91689143D01*
X115597642Y-91617714D01*
X115740499Y-91546286D01*
X116026213Y-91474857D01*
X116169071Y-91403429D01*
X116240499Y-91332000D01*
X116311928Y-91189143D01*
X116311928Y-91046286D01*
X116240499Y-90903429D01*
X116169071Y-90832000D01*
X116026213Y-90760571D01*
X115669071Y-90760571D01*
X115454785Y-90832000D01*
X114811928Y-92260571D02*
X114811928Y-90760571D01*
X114454785Y-90760571D01*
X114240500Y-90832000D01*
X114097642Y-90974857D01*
X114026214Y-91117714D01*
X113954785Y-91403429D01*
X113954785Y-91617714D01*
X114026214Y-91903429D01*
X114097642Y-92046286D01*
X114240500Y-92189143D01*
X114454785Y-92260571D01*
X114811928Y-92260571D01*
X113383357Y-91832000D02*
X112669071Y-91832000D01*
X113526214Y-92260571D02*
X113026214Y-90760571D01*
X112526214Y-92260571D01*
X115633357Y-72006000D02*
X115776214Y-71934571D01*
X115990500Y-71934571D01*
X116204785Y-72006000D01*
X116347643Y-72148857D01*
X116419071Y-72291714D01*
X116490500Y-72577429D01*
X116490500Y-72791714D01*
X116419071Y-73077429D01*
X116347643Y-73220286D01*
X116204785Y-73363143D01*
X115990500Y-73434571D01*
X115847643Y-73434571D01*
X115633357Y-73363143D01*
X115561928Y-73291714D01*
X115561928Y-72791714D01*
X115847643Y-72791714D01*
X114919071Y-73434571D02*
X114919071Y-71934571D01*
X114061928Y-73434571D01*
X114061928Y-71934571D01*
X113347642Y-73434571D02*
X113347642Y-71934571D01*
X112990499Y-71934571D01*
X112776214Y-72006000D01*
X112633356Y-72148857D01*
X112561928Y-72291714D01*
X112490499Y-72577429D01*
X112490499Y-72791714D01*
X112561928Y-73077429D01*
X112633356Y-73220286D01*
X112776214Y-73363143D01*
X112990499Y-73434571D01*
X113347642Y-73434571D01*
X117169071Y-75413143D02*
X116026214Y-75413143D01*
X116597643Y-75984571D02*
X116597643Y-74841714D01*
X114597642Y-74484571D02*
X115311928Y-74484571D01*
X115383357Y-75198857D01*
X115311928Y-75127429D01*
X115169071Y-75056000D01*
X114811928Y-75056000D01*
X114669071Y-75127429D01*
X114597642Y-75198857D01*
X114526214Y-75341714D01*
X114526214Y-75698857D01*
X114597642Y-75841714D01*
X114669071Y-75913143D01*
X114811928Y-75984571D01*
X115169071Y-75984571D01*
X115311928Y-75913143D01*
X115383357Y-75841714D01*
X114097643Y-74484571D02*
X113597643Y-75984571D01*
X113097643Y-74484571D01*
X112597643Y-75984571D02*
X112597643Y-74484571D01*
X112240500Y-74484571D01*
X112026215Y-74556000D01*
X111883357Y-74698857D01*
X111811929Y-74841714D01*
X111740500Y-75127429D01*
X111740500Y-75341714D01*
X111811929Y-75627429D01*
X111883357Y-75770286D01*
X112026215Y-75913143D01*
X112240500Y-75984571D01*
X112597643Y-75984571D01*
X116276214Y-78463143D02*
X116061928Y-78534571D01*
X115704785Y-78534571D01*
X115561928Y-78463143D01*
X115490499Y-78391714D01*
X115419071Y-78248857D01*
X115419071Y-78106000D01*
X115490499Y-77963143D01*
X115561928Y-77891714D01*
X115704785Y-77820286D01*
X115990499Y-77748857D01*
X116133357Y-77677429D01*
X116204785Y-77606000D01*
X116276214Y-77463143D01*
X116276214Y-77320286D01*
X116204785Y-77177429D01*
X116133357Y-77106000D01*
X115990499Y-77034571D01*
X115633357Y-77034571D01*
X115419071Y-77106000D01*
X113919071Y-78391714D02*
X113990500Y-78463143D01*
X114204786Y-78534571D01*
X114347643Y-78534571D01*
X114561928Y-78463143D01*
X114704786Y-78320286D01*
X114776214Y-78177429D01*
X114847643Y-77891714D01*
X114847643Y-77677429D01*
X114776214Y-77391714D01*
X114704786Y-77248857D01*
X114561928Y-77106000D01*
X114347643Y-77034571D01*
X114204786Y-77034571D01*
X113990500Y-77106000D01*
X113919071Y-77177429D01*
X112561928Y-78534571D02*
X113276214Y-78534571D01*
X113276214Y-77034571D01*
X116311928Y-81013143D02*
X116097642Y-81084571D01*
X115740499Y-81084571D01*
X115597642Y-81013143D01*
X115526213Y-80941714D01*
X115454785Y-80798857D01*
X115454785Y-80656000D01*
X115526213Y-80513143D01*
X115597642Y-80441714D01*
X115740499Y-80370286D01*
X116026213Y-80298857D01*
X116169071Y-80227429D01*
X116240499Y-80156000D01*
X116311928Y-80013143D01*
X116311928Y-79870286D01*
X116240499Y-79727429D01*
X116169071Y-79656000D01*
X116026213Y-79584571D01*
X115669071Y-79584571D01*
X115454785Y-79656000D01*
X114811928Y-81084571D02*
X114811928Y-79584571D01*
X114454785Y-79584571D01*
X114240500Y-79656000D01*
X114097642Y-79798857D01*
X114026214Y-79941714D01*
X113954785Y-80227429D01*
X113954785Y-80441714D01*
X114026214Y-80727429D01*
X114097642Y-80870286D01*
X114240500Y-81013143D01*
X114454785Y-81084571D01*
X114811928Y-81084571D01*
X113383357Y-80656000D02*
X112669071Y-80656000D01*
X113526214Y-81084571D02*
X113026214Y-79584571D01*
X112526214Y-81084571D01*
X115633357Y-60322000D02*
X115776214Y-60250571D01*
X115990500Y-60250571D01*
X116204785Y-60322000D01*
X116347643Y-60464857D01*
X116419071Y-60607714D01*
X116490500Y-60893429D01*
X116490500Y-61107714D01*
X116419071Y-61393429D01*
X116347643Y-61536286D01*
X116204785Y-61679143D01*
X115990500Y-61750571D01*
X115847643Y-61750571D01*
X115633357Y-61679143D01*
X115561928Y-61607714D01*
X115561928Y-61107714D01*
X115847643Y-61107714D01*
X114919071Y-61750571D02*
X114919071Y-60250571D01*
X114061928Y-61750571D01*
X114061928Y-60250571D01*
X113347642Y-61750571D02*
X113347642Y-60250571D01*
X112990499Y-60250571D01*
X112776214Y-60322000D01*
X112633356Y-60464857D01*
X112561928Y-60607714D01*
X112490499Y-60893429D01*
X112490499Y-61107714D01*
X112561928Y-61393429D01*
X112633356Y-61536286D01*
X112776214Y-61679143D01*
X112990499Y-61750571D01*
X113347642Y-61750571D01*
X117169071Y-63729143D02*
X116026214Y-63729143D01*
X116597643Y-64300571D02*
X116597643Y-63157714D01*
X114597642Y-62800571D02*
X115311928Y-62800571D01*
X115383357Y-63514857D01*
X115311928Y-63443429D01*
X115169071Y-63372000D01*
X114811928Y-63372000D01*
X114669071Y-63443429D01*
X114597642Y-63514857D01*
X114526214Y-63657714D01*
X114526214Y-64014857D01*
X114597642Y-64157714D01*
X114669071Y-64229143D01*
X114811928Y-64300571D01*
X115169071Y-64300571D01*
X115311928Y-64229143D01*
X115383357Y-64157714D01*
X114097643Y-62800571D02*
X113597643Y-64300571D01*
X113097643Y-62800571D01*
X112597643Y-64300571D02*
X112597643Y-62800571D01*
X112240500Y-62800571D01*
X112026215Y-62872000D01*
X111883357Y-63014857D01*
X111811929Y-63157714D01*
X111740500Y-63443429D01*
X111740500Y-63657714D01*
X111811929Y-63943429D01*
X111883357Y-64086286D01*
X112026215Y-64229143D01*
X112240500Y-64300571D01*
X112597643Y-64300571D01*
X116276214Y-66779143D02*
X116061928Y-66850571D01*
X115704785Y-66850571D01*
X115561928Y-66779143D01*
X115490499Y-66707714D01*
X115419071Y-66564857D01*
X115419071Y-66422000D01*
X115490499Y-66279143D01*
X115561928Y-66207714D01*
X115704785Y-66136286D01*
X115990499Y-66064857D01*
X116133357Y-65993429D01*
X116204785Y-65922000D01*
X116276214Y-65779143D01*
X116276214Y-65636286D01*
X116204785Y-65493429D01*
X116133357Y-65422000D01*
X115990499Y-65350571D01*
X115633357Y-65350571D01*
X115419071Y-65422000D01*
X113919071Y-66707714D02*
X113990500Y-66779143D01*
X114204786Y-66850571D01*
X114347643Y-66850571D01*
X114561928Y-66779143D01*
X114704786Y-66636286D01*
X114776214Y-66493429D01*
X114847643Y-66207714D01*
X114847643Y-65993429D01*
X114776214Y-65707714D01*
X114704786Y-65564857D01*
X114561928Y-65422000D01*
X114347643Y-65350571D01*
X114204786Y-65350571D01*
X113990500Y-65422000D01*
X113919071Y-65493429D01*
X112561928Y-66850571D02*
X113276214Y-66850571D01*
X113276214Y-65350571D01*
X116311928Y-69329143D02*
X116097642Y-69400571D01*
X115740499Y-69400571D01*
X115597642Y-69329143D01*
X115526213Y-69257714D01*
X115454785Y-69114857D01*
X115454785Y-68972000D01*
X115526213Y-68829143D01*
X115597642Y-68757714D01*
X115740499Y-68686286D01*
X116026213Y-68614857D01*
X116169071Y-68543429D01*
X116240499Y-68472000D01*
X116311928Y-68329143D01*
X116311928Y-68186286D01*
X116240499Y-68043429D01*
X116169071Y-67972000D01*
X116026213Y-67900571D01*
X115669071Y-67900571D01*
X115454785Y-67972000D01*
X114811928Y-69400571D02*
X114811928Y-67900571D01*
X114454785Y-67900571D01*
X114240500Y-67972000D01*
X114097642Y-68114857D01*
X114026214Y-68257714D01*
X113954785Y-68543429D01*
X113954785Y-68757714D01*
X114026214Y-69043429D01*
X114097642Y-69186286D01*
X114240500Y-69329143D01*
X114454785Y-69400571D01*
X114811928Y-69400571D01*
X113383357Y-68972000D02*
X112669071Y-68972000D01*
X113526214Y-69400571D02*
X113026214Y-67900571D01*
X112526214Y-69400571D01*
X98043857Y-126806500D02*
X98186714Y-126735071D01*
X98401000Y-126735071D01*
X98615285Y-126806500D01*
X98758143Y-126949357D01*
X98829571Y-127092214D01*
X98901000Y-127377929D01*
X98901000Y-127592214D01*
X98829571Y-127877929D01*
X98758143Y-128020786D01*
X98615285Y-128163643D01*
X98401000Y-128235071D01*
X98258143Y-128235071D01*
X98043857Y-128163643D01*
X97972428Y-128092214D01*
X97972428Y-127592214D01*
X98258143Y-127592214D01*
X97329571Y-128235071D02*
X97329571Y-126735071D01*
X96472428Y-128235071D01*
X96472428Y-126735071D01*
X95758142Y-128235071D02*
X95758142Y-126735071D01*
X95400999Y-126735071D01*
X95186714Y-126806500D01*
X95043856Y-126949357D01*
X94972428Y-127092214D01*
X94900999Y-127377929D01*
X94900999Y-127592214D01*
X94972428Y-127877929D01*
X95043856Y-128020786D01*
X95186714Y-128163643D01*
X95400999Y-128235071D01*
X95758142Y-128235071D01*
X99579571Y-130213643D02*
X98436714Y-130213643D01*
X99008143Y-130785071D02*
X99008143Y-129642214D01*
X97008142Y-129285071D02*
X97722428Y-129285071D01*
X97793857Y-129999357D01*
X97722428Y-129927929D01*
X97579571Y-129856500D01*
X97222428Y-129856500D01*
X97079571Y-129927929D01*
X97008142Y-129999357D01*
X96936714Y-130142214D01*
X96936714Y-130499357D01*
X97008142Y-130642214D01*
X97079571Y-130713643D01*
X97222428Y-130785071D01*
X97579571Y-130785071D01*
X97722428Y-130713643D01*
X97793857Y-130642214D01*
X96508143Y-129285071D02*
X96008143Y-130785071D01*
X95508143Y-129285071D01*
X95008143Y-130785071D02*
X95008143Y-129285071D01*
X94651000Y-129285071D01*
X94436715Y-129356500D01*
X94293857Y-129499357D01*
X94222429Y-129642214D01*
X94151000Y-129927929D01*
X94151000Y-130142214D01*
X94222429Y-130427929D01*
X94293857Y-130570786D01*
X94436715Y-130713643D01*
X94651000Y-130785071D01*
X95008143Y-130785071D01*
X98686714Y-133263643D02*
X98472428Y-133335071D01*
X98115285Y-133335071D01*
X97972428Y-133263643D01*
X97900999Y-133192214D01*
X97829571Y-133049357D01*
X97829571Y-132906500D01*
X97900999Y-132763643D01*
X97972428Y-132692214D01*
X98115285Y-132620786D01*
X98400999Y-132549357D01*
X98543857Y-132477929D01*
X98615285Y-132406500D01*
X98686714Y-132263643D01*
X98686714Y-132120786D01*
X98615285Y-131977929D01*
X98543857Y-131906500D01*
X98400999Y-131835071D01*
X98043857Y-131835071D01*
X97829571Y-131906500D01*
X96329571Y-133192214D02*
X96401000Y-133263643D01*
X96615286Y-133335071D01*
X96758143Y-133335071D01*
X96972428Y-133263643D01*
X97115286Y-133120786D01*
X97186714Y-132977929D01*
X97258143Y-132692214D01*
X97258143Y-132477929D01*
X97186714Y-132192214D01*
X97115286Y-132049357D01*
X96972428Y-131906500D01*
X96758143Y-131835071D01*
X96615286Y-131835071D01*
X96401000Y-131906500D01*
X96329571Y-131977929D01*
X94972428Y-133335071D02*
X95686714Y-133335071D01*
X95686714Y-131835071D01*
X98722428Y-135813643D02*
X98508142Y-135885071D01*
X98150999Y-135885071D01*
X98008142Y-135813643D01*
X97936713Y-135742214D01*
X97865285Y-135599357D01*
X97865285Y-135456500D01*
X97936713Y-135313643D01*
X98008142Y-135242214D01*
X98150999Y-135170786D01*
X98436713Y-135099357D01*
X98579571Y-135027929D01*
X98650999Y-134956500D01*
X98722428Y-134813643D01*
X98722428Y-134670786D01*
X98650999Y-134527929D01*
X98579571Y-134456500D01*
X98436713Y-134385071D01*
X98079571Y-134385071D01*
X97865285Y-134456500D01*
X97222428Y-135885071D02*
X97222428Y-134385071D01*
X96865285Y-134385071D01*
X96651000Y-134456500D01*
X96508142Y-134599357D01*
X96436714Y-134742214D01*
X96365285Y-135027929D01*
X96365285Y-135242214D01*
X96436714Y-135527929D01*
X96508142Y-135670786D01*
X96651000Y-135813643D01*
X96865285Y-135885071D01*
X97222428Y-135885071D01*
X95793857Y-135456500D02*
X95079571Y-135456500D01*
X95936714Y-135885071D02*
X95436714Y-134385071D01*
X94936714Y-135885071D01*
X97980357Y-115313000D02*
X98123214Y-115241571D01*
X98337500Y-115241571D01*
X98551785Y-115313000D01*
X98694643Y-115455857D01*
X98766071Y-115598714D01*
X98837500Y-115884429D01*
X98837500Y-116098714D01*
X98766071Y-116384429D01*
X98694643Y-116527286D01*
X98551785Y-116670143D01*
X98337500Y-116741571D01*
X98194643Y-116741571D01*
X97980357Y-116670143D01*
X97908928Y-116598714D01*
X97908928Y-116098714D01*
X98194643Y-116098714D01*
X97266071Y-116741571D02*
X97266071Y-115241571D01*
X96408928Y-116741571D01*
X96408928Y-115241571D01*
X95694642Y-116741571D02*
X95694642Y-115241571D01*
X95337499Y-115241571D01*
X95123214Y-115313000D01*
X94980356Y-115455857D01*
X94908928Y-115598714D01*
X94837499Y-115884429D01*
X94837499Y-116098714D01*
X94908928Y-116384429D01*
X94980356Y-116527286D01*
X95123214Y-116670143D01*
X95337499Y-116741571D01*
X95694642Y-116741571D01*
X99516071Y-118720143D02*
X98373214Y-118720143D01*
X98944643Y-119291571D02*
X98944643Y-118148714D01*
X96944642Y-117791571D02*
X97658928Y-117791571D01*
X97730357Y-118505857D01*
X97658928Y-118434429D01*
X97516071Y-118363000D01*
X97158928Y-118363000D01*
X97016071Y-118434429D01*
X96944642Y-118505857D01*
X96873214Y-118648714D01*
X96873214Y-119005857D01*
X96944642Y-119148714D01*
X97016071Y-119220143D01*
X97158928Y-119291571D01*
X97516071Y-119291571D01*
X97658928Y-119220143D01*
X97730357Y-119148714D01*
X96444643Y-117791571D02*
X95944643Y-119291571D01*
X95444643Y-117791571D01*
X94944643Y-119291571D02*
X94944643Y-117791571D01*
X94587500Y-117791571D01*
X94373215Y-117863000D01*
X94230357Y-118005857D01*
X94158929Y-118148714D01*
X94087500Y-118434429D01*
X94087500Y-118648714D01*
X94158929Y-118934429D01*
X94230357Y-119077286D01*
X94373215Y-119220143D01*
X94587500Y-119291571D01*
X94944643Y-119291571D01*
X98623214Y-121770143D02*
X98408928Y-121841571D01*
X98051785Y-121841571D01*
X97908928Y-121770143D01*
X97837499Y-121698714D01*
X97766071Y-121555857D01*
X97766071Y-121413000D01*
X97837499Y-121270143D01*
X97908928Y-121198714D01*
X98051785Y-121127286D01*
X98337499Y-121055857D01*
X98480357Y-120984429D01*
X98551785Y-120913000D01*
X98623214Y-120770143D01*
X98623214Y-120627286D01*
X98551785Y-120484429D01*
X98480357Y-120413000D01*
X98337499Y-120341571D01*
X97980357Y-120341571D01*
X97766071Y-120413000D01*
X96266071Y-121698714D02*
X96337500Y-121770143D01*
X96551786Y-121841571D01*
X96694643Y-121841571D01*
X96908928Y-121770143D01*
X97051786Y-121627286D01*
X97123214Y-121484429D01*
X97194643Y-121198714D01*
X97194643Y-120984429D01*
X97123214Y-120698714D01*
X97051786Y-120555857D01*
X96908928Y-120413000D01*
X96694643Y-120341571D01*
X96551786Y-120341571D01*
X96337500Y-120413000D01*
X96266071Y-120484429D01*
X94908928Y-121841571D02*
X95623214Y-121841571D01*
X95623214Y-120341571D01*
X98658928Y-124320143D02*
X98444642Y-124391571D01*
X98087499Y-124391571D01*
X97944642Y-124320143D01*
X97873213Y-124248714D01*
X97801785Y-124105857D01*
X97801785Y-123963000D01*
X97873213Y-123820143D01*
X97944642Y-123748714D01*
X98087499Y-123677286D01*
X98373213Y-123605857D01*
X98516071Y-123534429D01*
X98587499Y-123463000D01*
X98658928Y-123320143D01*
X98658928Y-123177286D01*
X98587499Y-123034429D01*
X98516071Y-122963000D01*
X98373213Y-122891571D01*
X98016071Y-122891571D01*
X97801785Y-122963000D01*
X97158928Y-124391571D02*
X97158928Y-122891571D01*
X96801785Y-122891571D01*
X96587500Y-122963000D01*
X96444642Y-123105857D01*
X96373214Y-123248714D01*
X96301785Y-123534429D01*
X96301785Y-123748714D01*
X96373214Y-124034429D01*
X96444642Y-124177286D01*
X96587500Y-124320143D01*
X96801785Y-124391571D01*
X97158928Y-124391571D01*
X95730357Y-123963000D02*
X95016071Y-123963000D01*
X95873214Y-124391571D02*
X95373214Y-122891571D01*
X94873214Y-124391571D01*
X97916857Y-103883000D02*
X98059714Y-103811571D01*
X98274000Y-103811571D01*
X98488285Y-103883000D01*
X98631143Y-104025857D01*
X98702571Y-104168714D01*
X98774000Y-104454429D01*
X98774000Y-104668714D01*
X98702571Y-104954429D01*
X98631143Y-105097286D01*
X98488285Y-105240143D01*
X98274000Y-105311571D01*
X98131143Y-105311571D01*
X97916857Y-105240143D01*
X97845428Y-105168714D01*
X97845428Y-104668714D01*
X98131143Y-104668714D01*
X97202571Y-105311571D02*
X97202571Y-103811571D01*
X96345428Y-105311571D01*
X96345428Y-103811571D01*
X95631142Y-105311571D02*
X95631142Y-103811571D01*
X95273999Y-103811571D01*
X95059714Y-103883000D01*
X94916856Y-104025857D01*
X94845428Y-104168714D01*
X94773999Y-104454429D01*
X94773999Y-104668714D01*
X94845428Y-104954429D01*
X94916856Y-105097286D01*
X95059714Y-105240143D01*
X95273999Y-105311571D01*
X95631142Y-105311571D01*
X99452571Y-107290143D02*
X98309714Y-107290143D01*
X98881143Y-107861571D02*
X98881143Y-106718714D01*
X96881142Y-106361571D02*
X97595428Y-106361571D01*
X97666857Y-107075857D01*
X97595428Y-107004429D01*
X97452571Y-106933000D01*
X97095428Y-106933000D01*
X96952571Y-107004429D01*
X96881142Y-107075857D01*
X96809714Y-107218714D01*
X96809714Y-107575857D01*
X96881142Y-107718714D01*
X96952571Y-107790143D01*
X97095428Y-107861571D01*
X97452571Y-107861571D01*
X97595428Y-107790143D01*
X97666857Y-107718714D01*
X96381143Y-106361571D02*
X95881143Y-107861571D01*
X95381143Y-106361571D01*
X94881143Y-107861571D02*
X94881143Y-106361571D01*
X94524000Y-106361571D01*
X94309715Y-106433000D01*
X94166857Y-106575857D01*
X94095429Y-106718714D01*
X94024000Y-107004429D01*
X94024000Y-107218714D01*
X94095429Y-107504429D01*
X94166857Y-107647286D01*
X94309715Y-107790143D01*
X94524000Y-107861571D01*
X94881143Y-107861571D01*
X98559714Y-110340143D02*
X98345428Y-110411571D01*
X97988285Y-110411571D01*
X97845428Y-110340143D01*
X97773999Y-110268714D01*
X97702571Y-110125857D01*
X97702571Y-109983000D01*
X97773999Y-109840143D01*
X97845428Y-109768714D01*
X97988285Y-109697286D01*
X98273999Y-109625857D01*
X98416857Y-109554429D01*
X98488285Y-109483000D01*
X98559714Y-109340143D01*
X98559714Y-109197286D01*
X98488285Y-109054429D01*
X98416857Y-108983000D01*
X98273999Y-108911571D01*
X97916857Y-108911571D01*
X97702571Y-108983000D01*
X96202571Y-110268714D02*
X96274000Y-110340143D01*
X96488286Y-110411571D01*
X96631143Y-110411571D01*
X96845428Y-110340143D01*
X96988286Y-110197286D01*
X97059714Y-110054429D01*
X97131143Y-109768714D01*
X97131143Y-109554429D01*
X97059714Y-109268714D01*
X96988286Y-109125857D01*
X96845428Y-108983000D01*
X96631143Y-108911571D01*
X96488286Y-108911571D01*
X96274000Y-108983000D01*
X96202571Y-109054429D01*
X94845428Y-110411571D02*
X95559714Y-110411571D01*
X95559714Y-108911571D01*
X98595428Y-112890143D02*
X98381142Y-112961571D01*
X98023999Y-112961571D01*
X97881142Y-112890143D01*
X97809713Y-112818714D01*
X97738285Y-112675857D01*
X97738285Y-112533000D01*
X97809713Y-112390143D01*
X97881142Y-112318714D01*
X98023999Y-112247286D01*
X98309713Y-112175857D01*
X98452571Y-112104429D01*
X98523999Y-112033000D01*
X98595428Y-111890143D01*
X98595428Y-111747286D01*
X98523999Y-111604429D01*
X98452571Y-111533000D01*
X98309713Y-111461571D01*
X97952571Y-111461571D01*
X97738285Y-111533000D01*
X97095428Y-112961571D02*
X97095428Y-111461571D01*
X96738285Y-111461571D01*
X96524000Y-111533000D01*
X96381142Y-111675857D01*
X96309714Y-111818714D01*
X96238285Y-112104429D01*
X96238285Y-112318714D01*
X96309714Y-112604429D01*
X96381142Y-112747286D01*
X96524000Y-112890143D01*
X96738285Y-112961571D01*
X97095428Y-112961571D01*
X95666857Y-112533000D02*
X94952571Y-112533000D01*
X95809714Y-112961571D02*
X95309714Y-111461571D01*
X94809714Y-112961571D01*
X98043857Y-92516500D02*
X98186714Y-92445071D01*
X98401000Y-92445071D01*
X98615285Y-92516500D01*
X98758143Y-92659357D01*
X98829571Y-92802214D01*
X98901000Y-93087929D01*
X98901000Y-93302214D01*
X98829571Y-93587929D01*
X98758143Y-93730786D01*
X98615285Y-93873643D01*
X98401000Y-93945071D01*
X98258143Y-93945071D01*
X98043857Y-93873643D01*
X97972428Y-93802214D01*
X97972428Y-93302214D01*
X98258143Y-93302214D01*
X97329571Y-93945071D02*
X97329571Y-92445071D01*
X96472428Y-93945071D01*
X96472428Y-92445071D01*
X95758142Y-93945071D02*
X95758142Y-92445071D01*
X95400999Y-92445071D01*
X95186714Y-92516500D01*
X95043856Y-92659357D01*
X94972428Y-92802214D01*
X94900999Y-93087929D01*
X94900999Y-93302214D01*
X94972428Y-93587929D01*
X95043856Y-93730786D01*
X95186714Y-93873643D01*
X95400999Y-93945071D01*
X95758142Y-93945071D01*
X99579571Y-95923643D02*
X98436714Y-95923643D01*
X99008143Y-96495071D02*
X99008143Y-95352214D01*
X97008142Y-94995071D02*
X97722428Y-94995071D01*
X97793857Y-95709357D01*
X97722428Y-95637929D01*
X97579571Y-95566500D01*
X97222428Y-95566500D01*
X97079571Y-95637929D01*
X97008142Y-95709357D01*
X96936714Y-95852214D01*
X96936714Y-96209357D01*
X97008142Y-96352214D01*
X97079571Y-96423643D01*
X97222428Y-96495071D01*
X97579571Y-96495071D01*
X97722428Y-96423643D01*
X97793857Y-96352214D01*
X96508143Y-94995071D02*
X96008143Y-96495071D01*
X95508143Y-94995071D01*
X95008143Y-96495071D02*
X95008143Y-94995071D01*
X94651000Y-94995071D01*
X94436715Y-95066500D01*
X94293857Y-95209357D01*
X94222429Y-95352214D01*
X94151000Y-95637929D01*
X94151000Y-95852214D01*
X94222429Y-96137929D01*
X94293857Y-96280786D01*
X94436715Y-96423643D01*
X94651000Y-96495071D01*
X95008143Y-96495071D01*
X98686714Y-98973643D02*
X98472428Y-99045071D01*
X98115285Y-99045071D01*
X97972428Y-98973643D01*
X97900999Y-98902214D01*
X97829571Y-98759357D01*
X97829571Y-98616500D01*
X97900999Y-98473643D01*
X97972428Y-98402214D01*
X98115285Y-98330786D01*
X98400999Y-98259357D01*
X98543857Y-98187929D01*
X98615285Y-98116500D01*
X98686714Y-97973643D01*
X98686714Y-97830786D01*
X98615285Y-97687929D01*
X98543857Y-97616500D01*
X98400999Y-97545071D01*
X98043857Y-97545071D01*
X97829571Y-97616500D01*
X96329571Y-98902214D02*
X96401000Y-98973643D01*
X96615286Y-99045071D01*
X96758143Y-99045071D01*
X96972428Y-98973643D01*
X97115286Y-98830786D01*
X97186714Y-98687929D01*
X97258143Y-98402214D01*
X97258143Y-98187929D01*
X97186714Y-97902214D01*
X97115286Y-97759357D01*
X96972428Y-97616500D01*
X96758143Y-97545071D01*
X96615286Y-97545071D01*
X96401000Y-97616500D01*
X96329571Y-97687929D01*
X94972428Y-99045071D02*
X95686714Y-99045071D01*
X95686714Y-97545071D01*
X98722428Y-101523643D02*
X98508142Y-101595071D01*
X98150999Y-101595071D01*
X98008142Y-101523643D01*
X97936713Y-101452214D01*
X97865285Y-101309357D01*
X97865285Y-101166500D01*
X97936713Y-101023643D01*
X98008142Y-100952214D01*
X98150999Y-100880786D01*
X98436713Y-100809357D01*
X98579571Y-100737929D01*
X98650999Y-100666500D01*
X98722428Y-100523643D01*
X98722428Y-100380786D01*
X98650999Y-100237929D01*
X98579571Y-100166500D01*
X98436713Y-100095071D01*
X98079571Y-100095071D01*
X97865285Y-100166500D01*
X97222428Y-101595071D02*
X97222428Y-100095071D01*
X96865285Y-100095071D01*
X96651000Y-100166500D01*
X96508142Y-100309357D01*
X96436714Y-100452214D01*
X96365285Y-100737929D01*
X96365285Y-100952214D01*
X96436714Y-101237929D01*
X96508142Y-101380786D01*
X96651000Y-101523643D01*
X96865285Y-101595071D01*
X97222428Y-101595071D01*
X95793857Y-101166500D02*
X95079571Y-101166500D01*
X95936714Y-101595071D02*
X95436714Y-100095071D01*
X94936714Y-101595071D01*
X98107357Y-81086500D02*
X98250214Y-81015071D01*
X98464500Y-81015071D01*
X98678785Y-81086500D01*
X98821643Y-81229357D01*
X98893071Y-81372214D01*
X98964500Y-81657929D01*
X98964500Y-81872214D01*
X98893071Y-82157929D01*
X98821643Y-82300786D01*
X98678785Y-82443643D01*
X98464500Y-82515071D01*
X98321643Y-82515071D01*
X98107357Y-82443643D01*
X98035928Y-82372214D01*
X98035928Y-81872214D01*
X98321643Y-81872214D01*
X97393071Y-82515071D02*
X97393071Y-81015071D01*
X96535928Y-82515071D01*
X96535928Y-81015071D01*
X95821642Y-82515071D02*
X95821642Y-81015071D01*
X95464499Y-81015071D01*
X95250214Y-81086500D01*
X95107356Y-81229357D01*
X95035928Y-81372214D01*
X94964499Y-81657929D01*
X94964499Y-81872214D01*
X95035928Y-82157929D01*
X95107356Y-82300786D01*
X95250214Y-82443643D01*
X95464499Y-82515071D01*
X95821642Y-82515071D01*
X99643071Y-84493643D02*
X98500214Y-84493643D01*
X99071643Y-85065071D02*
X99071643Y-83922214D01*
X97071642Y-83565071D02*
X97785928Y-83565071D01*
X97857357Y-84279357D01*
X97785928Y-84207929D01*
X97643071Y-84136500D01*
X97285928Y-84136500D01*
X97143071Y-84207929D01*
X97071642Y-84279357D01*
X97000214Y-84422214D01*
X97000214Y-84779357D01*
X97071642Y-84922214D01*
X97143071Y-84993643D01*
X97285928Y-85065071D01*
X97643071Y-85065071D01*
X97785928Y-84993643D01*
X97857357Y-84922214D01*
X96571643Y-83565071D02*
X96071643Y-85065071D01*
X95571643Y-83565071D01*
X95071643Y-85065071D02*
X95071643Y-83565071D01*
X94714500Y-83565071D01*
X94500215Y-83636500D01*
X94357357Y-83779357D01*
X94285929Y-83922214D01*
X94214500Y-84207929D01*
X94214500Y-84422214D01*
X94285929Y-84707929D01*
X94357357Y-84850786D01*
X94500215Y-84993643D01*
X94714500Y-85065071D01*
X95071643Y-85065071D01*
X98750214Y-87543643D02*
X98535928Y-87615071D01*
X98178785Y-87615071D01*
X98035928Y-87543643D01*
X97964499Y-87472214D01*
X97893071Y-87329357D01*
X97893071Y-87186500D01*
X97964499Y-87043643D01*
X98035928Y-86972214D01*
X98178785Y-86900786D01*
X98464499Y-86829357D01*
X98607357Y-86757929D01*
X98678785Y-86686500D01*
X98750214Y-86543643D01*
X98750214Y-86400786D01*
X98678785Y-86257929D01*
X98607357Y-86186500D01*
X98464499Y-86115071D01*
X98107357Y-86115071D01*
X97893071Y-86186500D01*
X96393071Y-87472214D02*
X96464500Y-87543643D01*
X96678786Y-87615071D01*
X96821643Y-87615071D01*
X97035928Y-87543643D01*
X97178786Y-87400786D01*
X97250214Y-87257929D01*
X97321643Y-86972214D01*
X97321643Y-86757929D01*
X97250214Y-86472214D01*
X97178786Y-86329357D01*
X97035928Y-86186500D01*
X96821643Y-86115071D01*
X96678786Y-86115071D01*
X96464500Y-86186500D01*
X96393071Y-86257929D01*
X95035928Y-87615071D02*
X95750214Y-87615071D01*
X95750214Y-86115071D01*
X98785928Y-90093643D02*
X98571642Y-90165071D01*
X98214499Y-90165071D01*
X98071642Y-90093643D01*
X98000213Y-90022214D01*
X97928785Y-89879357D01*
X97928785Y-89736500D01*
X98000213Y-89593643D01*
X98071642Y-89522214D01*
X98214499Y-89450786D01*
X98500213Y-89379357D01*
X98643071Y-89307929D01*
X98714499Y-89236500D01*
X98785928Y-89093643D01*
X98785928Y-88950786D01*
X98714499Y-88807929D01*
X98643071Y-88736500D01*
X98500213Y-88665071D01*
X98143071Y-88665071D01*
X97928785Y-88736500D01*
X97285928Y-90165071D02*
X97285928Y-88665071D01*
X96928785Y-88665071D01*
X96714500Y-88736500D01*
X96571642Y-88879357D01*
X96500214Y-89022214D01*
X96428785Y-89307929D01*
X96428785Y-89522214D01*
X96500214Y-89807929D01*
X96571642Y-89950786D01*
X96714500Y-90093643D01*
X96928785Y-90165071D01*
X97285928Y-90165071D01*
X95857357Y-89736500D02*
X95143071Y-89736500D01*
X96000214Y-90165071D02*
X95500214Y-88665071D01*
X95000214Y-90165071D01*
X97980357Y-69720000D02*
X98123214Y-69648571D01*
X98337500Y-69648571D01*
X98551785Y-69720000D01*
X98694643Y-69862857D01*
X98766071Y-70005714D01*
X98837500Y-70291429D01*
X98837500Y-70505714D01*
X98766071Y-70791429D01*
X98694643Y-70934286D01*
X98551785Y-71077143D01*
X98337500Y-71148571D01*
X98194643Y-71148571D01*
X97980357Y-71077143D01*
X97908928Y-71005714D01*
X97908928Y-70505714D01*
X98194643Y-70505714D01*
X97266071Y-71148571D02*
X97266071Y-69648571D01*
X96408928Y-71148571D01*
X96408928Y-69648571D01*
X95694642Y-71148571D02*
X95694642Y-69648571D01*
X95337499Y-69648571D01*
X95123214Y-69720000D01*
X94980356Y-69862857D01*
X94908928Y-70005714D01*
X94837499Y-70291429D01*
X94837499Y-70505714D01*
X94908928Y-70791429D01*
X94980356Y-70934286D01*
X95123214Y-71077143D01*
X95337499Y-71148571D01*
X95694642Y-71148571D01*
X99516071Y-73127143D02*
X98373214Y-73127143D01*
X98944643Y-73698571D02*
X98944643Y-72555714D01*
X96944642Y-72198571D02*
X97658928Y-72198571D01*
X97730357Y-72912857D01*
X97658928Y-72841429D01*
X97516071Y-72770000D01*
X97158928Y-72770000D01*
X97016071Y-72841429D01*
X96944642Y-72912857D01*
X96873214Y-73055714D01*
X96873214Y-73412857D01*
X96944642Y-73555714D01*
X97016071Y-73627143D01*
X97158928Y-73698571D01*
X97516071Y-73698571D01*
X97658928Y-73627143D01*
X97730357Y-73555714D01*
X96444643Y-72198571D02*
X95944643Y-73698571D01*
X95444643Y-72198571D01*
X94944643Y-73698571D02*
X94944643Y-72198571D01*
X94587500Y-72198571D01*
X94373215Y-72270000D01*
X94230357Y-72412857D01*
X94158929Y-72555714D01*
X94087500Y-72841429D01*
X94087500Y-73055714D01*
X94158929Y-73341429D01*
X94230357Y-73484286D01*
X94373215Y-73627143D01*
X94587500Y-73698571D01*
X94944643Y-73698571D01*
X98623214Y-76177143D02*
X98408928Y-76248571D01*
X98051785Y-76248571D01*
X97908928Y-76177143D01*
X97837499Y-76105714D01*
X97766071Y-75962857D01*
X97766071Y-75820000D01*
X97837499Y-75677143D01*
X97908928Y-75605714D01*
X98051785Y-75534286D01*
X98337499Y-75462857D01*
X98480357Y-75391429D01*
X98551785Y-75320000D01*
X98623214Y-75177143D01*
X98623214Y-75034286D01*
X98551785Y-74891429D01*
X98480357Y-74820000D01*
X98337499Y-74748571D01*
X97980357Y-74748571D01*
X97766071Y-74820000D01*
X96266071Y-76105714D02*
X96337500Y-76177143D01*
X96551786Y-76248571D01*
X96694643Y-76248571D01*
X96908928Y-76177143D01*
X97051786Y-76034286D01*
X97123214Y-75891429D01*
X97194643Y-75605714D01*
X97194643Y-75391429D01*
X97123214Y-75105714D01*
X97051786Y-74962857D01*
X96908928Y-74820000D01*
X96694643Y-74748571D01*
X96551786Y-74748571D01*
X96337500Y-74820000D01*
X96266071Y-74891429D01*
X94908928Y-76248571D02*
X95623214Y-76248571D01*
X95623214Y-74748571D01*
X98658928Y-78727143D02*
X98444642Y-78798571D01*
X98087499Y-78798571D01*
X97944642Y-78727143D01*
X97873213Y-78655714D01*
X97801785Y-78512857D01*
X97801785Y-78370000D01*
X97873213Y-78227143D01*
X97944642Y-78155714D01*
X98087499Y-78084286D01*
X98373213Y-78012857D01*
X98516071Y-77941429D01*
X98587499Y-77870000D01*
X98658928Y-77727143D01*
X98658928Y-77584286D01*
X98587499Y-77441429D01*
X98516071Y-77370000D01*
X98373213Y-77298571D01*
X98016071Y-77298571D01*
X97801785Y-77370000D01*
X97158928Y-78798571D02*
X97158928Y-77298571D01*
X96801785Y-77298571D01*
X96587500Y-77370000D01*
X96444642Y-77512857D01*
X96373214Y-77655714D01*
X96301785Y-77941429D01*
X96301785Y-78155714D01*
X96373214Y-78441429D01*
X96444642Y-78584286D01*
X96587500Y-78727143D01*
X96801785Y-78798571D01*
X97158928Y-78798571D01*
X95730357Y-78370000D02*
X95016071Y-78370000D01*
X95873214Y-78798571D02*
X95373214Y-77298571D01*
X94873214Y-78798571D01*
X97789857Y-58353500D02*
X97932714Y-58282071D01*
X98147000Y-58282071D01*
X98361285Y-58353500D01*
X98504143Y-58496357D01*
X98575571Y-58639214D01*
X98647000Y-58924929D01*
X98647000Y-59139214D01*
X98575571Y-59424929D01*
X98504143Y-59567786D01*
X98361285Y-59710643D01*
X98147000Y-59782071D01*
X98004143Y-59782071D01*
X97789857Y-59710643D01*
X97718428Y-59639214D01*
X97718428Y-59139214D01*
X98004143Y-59139214D01*
X97075571Y-59782071D02*
X97075571Y-58282071D01*
X96218428Y-59782071D01*
X96218428Y-58282071D01*
X95504142Y-59782071D02*
X95504142Y-58282071D01*
X95146999Y-58282071D01*
X94932714Y-58353500D01*
X94789856Y-58496357D01*
X94718428Y-58639214D01*
X94646999Y-58924929D01*
X94646999Y-59139214D01*
X94718428Y-59424929D01*
X94789856Y-59567786D01*
X94932714Y-59710643D01*
X95146999Y-59782071D01*
X95504142Y-59782071D01*
X99325571Y-61760643D02*
X98182714Y-61760643D01*
X98754143Y-62332071D02*
X98754143Y-61189214D01*
X96754142Y-60832071D02*
X97468428Y-60832071D01*
X97539857Y-61546357D01*
X97468428Y-61474929D01*
X97325571Y-61403500D01*
X96968428Y-61403500D01*
X96825571Y-61474929D01*
X96754142Y-61546357D01*
X96682714Y-61689214D01*
X96682714Y-62046357D01*
X96754142Y-62189214D01*
X96825571Y-62260643D01*
X96968428Y-62332071D01*
X97325571Y-62332071D01*
X97468428Y-62260643D01*
X97539857Y-62189214D01*
X96254143Y-60832071D02*
X95754143Y-62332071D01*
X95254143Y-60832071D01*
X94754143Y-62332071D02*
X94754143Y-60832071D01*
X94397000Y-60832071D01*
X94182715Y-60903500D01*
X94039857Y-61046357D01*
X93968429Y-61189214D01*
X93897000Y-61474929D01*
X93897000Y-61689214D01*
X93968429Y-61974929D01*
X94039857Y-62117786D01*
X94182715Y-62260643D01*
X94397000Y-62332071D01*
X94754143Y-62332071D01*
X98432714Y-64810643D02*
X98218428Y-64882071D01*
X97861285Y-64882071D01*
X97718428Y-64810643D01*
X97646999Y-64739214D01*
X97575571Y-64596357D01*
X97575571Y-64453500D01*
X97646999Y-64310643D01*
X97718428Y-64239214D01*
X97861285Y-64167786D01*
X98146999Y-64096357D01*
X98289857Y-64024929D01*
X98361285Y-63953500D01*
X98432714Y-63810643D01*
X98432714Y-63667786D01*
X98361285Y-63524929D01*
X98289857Y-63453500D01*
X98146999Y-63382071D01*
X97789857Y-63382071D01*
X97575571Y-63453500D01*
X96075571Y-64739214D02*
X96147000Y-64810643D01*
X96361286Y-64882071D01*
X96504143Y-64882071D01*
X96718428Y-64810643D01*
X96861286Y-64667786D01*
X96932714Y-64524929D01*
X97004143Y-64239214D01*
X97004143Y-64024929D01*
X96932714Y-63739214D01*
X96861286Y-63596357D01*
X96718428Y-63453500D01*
X96504143Y-63382071D01*
X96361286Y-63382071D01*
X96147000Y-63453500D01*
X96075571Y-63524929D01*
X94718428Y-64882071D02*
X95432714Y-64882071D01*
X95432714Y-63382071D01*
X98468428Y-67360643D02*
X98254142Y-67432071D01*
X97896999Y-67432071D01*
X97754142Y-67360643D01*
X97682713Y-67289214D01*
X97611285Y-67146357D01*
X97611285Y-67003500D01*
X97682713Y-66860643D01*
X97754142Y-66789214D01*
X97896999Y-66717786D01*
X98182713Y-66646357D01*
X98325571Y-66574929D01*
X98396999Y-66503500D01*
X98468428Y-66360643D01*
X98468428Y-66217786D01*
X98396999Y-66074929D01*
X98325571Y-66003500D01*
X98182713Y-65932071D01*
X97825571Y-65932071D01*
X97611285Y-66003500D01*
X96968428Y-67432071D02*
X96968428Y-65932071D01*
X96611285Y-65932071D01*
X96397000Y-66003500D01*
X96254142Y-66146357D01*
X96182714Y-66289214D01*
X96111285Y-66574929D01*
X96111285Y-66789214D01*
X96182714Y-67074929D01*
X96254142Y-67217786D01*
X96397000Y-67360643D01*
X96611285Y-67432071D01*
X96968428Y-67432071D01*
X95539857Y-67003500D02*
X94825571Y-67003500D01*
X95682714Y-67432071D02*
X95182714Y-65932071D01*
X94682714Y-67432071D01*
X131266071Y-87649857D02*
X131766071Y-87649857D01*
X131766071Y-88435571D02*
X131766071Y-86935571D01*
X131051785Y-86935571D01*
X129837500Y-87435571D02*
X129837500Y-88435571D01*
X130194643Y-86864143D02*
X130551786Y-87935571D01*
X129623214Y-87935571D01*
X129051786Y-88435571D02*
X129051786Y-86935571D01*
X128694643Y-86935571D01*
X128480358Y-87007000D01*
X128337500Y-87149857D01*
X128266072Y-87292714D01*
X128194643Y-87578429D01*
X128194643Y-87792714D01*
X128266072Y-88078429D01*
X128337500Y-88221286D01*
X128480358Y-88364143D01*
X128694643Y-88435571D01*
X129051786Y-88435571D01*
X127551786Y-87649857D02*
X127051786Y-87649857D01*
X126837500Y-88435571D02*
X127551786Y-88435571D01*
X127551786Y-86935571D01*
X126837500Y-86935571D01*
X125694643Y-87649857D02*
X125480357Y-87721286D01*
X125408929Y-87792714D01*
X125337500Y-87935571D01*
X125337500Y-88149857D01*
X125408929Y-88292714D01*
X125480357Y-88364143D01*
X125623215Y-88435571D01*
X126194643Y-88435571D01*
X126194643Y-86935571D01*
X125694643Y-86935571D01*
X125551786Y-87007000D01*
X125480357Y-87078429D01*
X125408929Y-87221286D01*
X125408929Y-87364143D01*
X125480357Y-87507000D01*
X125551786Y-87578429D01*
X125694643Y-87649857D01*
X126194643Y-87649857D01*
X132770070Y-81133071D02*
X133627213Y-81133071D01*
X133198641Y-81133071D02*
X133198641Y-79633071D01*
X133341498Y-79847357D01*
X133484356Y-79990214D01*
X133627213Y-80061643D01*
X132198642Y-79775929D02*
X132127213Y-79704500D01*
X131984356Y-79633071D01*
X131627213Y-79633071D01*
X131484356Y-79704500D01*
X131412927Y-79775929D01*
X131341499Y-79918786D01*
X131341499Y-80061643D01*
X131412927Y-80275929D01*
X132270070Y-81133071D01*
X131341499Y-81133071D01*
X129627214Y-79561643D02*
X130912928Y-81490214D01*
X129198642Y-79775929D02*
X129127213Y-79704500D01*
X128984356Y-79633071D01*
X128627213Y-79633071D01*
X128484356Y-79704500D01*
X128412927Y-79775929D01*
X128341499Y-79918786D01*
X128341499Y-80061643D01*
X128412927Y-80275929D01*
X129270070Y-81133071D01*
X128341499Y-81133071D01*
X127412928Y-79633071D02*
X127270071Y-79633071D01*
X127127214Y-79704500D01*
X127055785Y-79775929D01*
X126984356Y-79918786D01*
X126912928Y-80204500D01*
X126912928Y-80561643D01*
X126984356Y-80847357D01*
X127055785Y-80990214D01*
X127127214Y-81061643D01*
X127270071Y-81133071D01*
X127412928Y-81133071D01*
X127555785Y-81061643D01*
X127627214Y-80990214D01*
X127698642Y-80847357D01*
X127770071Y-80561643D01*
X127770071Y-80204500D01*
X127698642Y-79918786D01*
X127627214Y-79775929D01*
X127555785Y-79704500D01*
X127412928Y-79633071D01*
X125484357Y-81133071D02*
X126341500Y-81133071D01*
X125912928Y-81133071D02*
X125912928Y-79633071D01*
X126055785Y-79847357D01*
X126198643Y-79990214D01*
X126341500Y-80061643D01*
X124627214Y-80275929D02*
X124770072Y-80204500D01*
X124841500Y-80133071D01*
X124912929Y-79990214D01*
X124912929Y-79918786D01*
X124841500Y-79775929D01*
X124770072Y-79704500D01*
X124627214Y-79633071D01*
X124341500Y-79633071D01*
X124198643Y-79704500D01*
X124127214Y-79775929D01*
X124055786Y-79918786D01*
X124055786Y-79990214D01*
X124127214Y-80133071D01*
X124198643Y-80204500D01*
X124341500Y-80275929D01*
X124627214Y-80275929D01*
X124770072Y-80347357D01*
X124841500Y-80418786D01*
X124912929Y-80561643D01*
X124912929Y-80847357D01*
X124841500Y-80990214D01*
X124770072Y-81061643D01*
X124627214Y-81133071D01*
X124341500Y-81133071D01*
X124198643Y-81061643D01*
X124127214Y-80990214D01*
X124055786Y-80847357D01*
X124055786Y-80561643D01*
X124127214Y-80418786D01*
X124198643Y-80347357D01*
X124341500Y-80275929D01*
X133797714Y-72071571D02*
X133297714Y-73571571D01*
X132797714Y-72071571D01*
X132654857Y-73714429D02*
X131512000Y-73714429D01*
X130940571Y-72714429D02*
X131083429Y-72643000D01*
X131154857Y-72571571D01*
X131226286Y-72428714D01*
X131226286Y-72357286D01*
X131154857Y-72214429D01*
X131083429Y-72143000D01*
X130940571Y-72071571D01*
X130654857Y-72071571D01*
X130512000Y-72143000D01*
X130440571Y-72214429D01*
X130369143Y-72357286D01*
X130369143Y-72428714D01*
X130440571Y-72571571D01*
X130512000Y-72643000D01*
X130654857Y-72714429D01*
X130940571Y-72714429D01*
X131083429Y-72785857D01*
X131154857Y-72857286D01*
X131226286Y-73000143D01*
X131226286Y-73285857D01*
X131154857Y-73428714D01*
X131083429Y-73500143D01*
X130940571Y-73571571D01*
X130654857Y-73571571D01*
X130512000Y-73500143D01*
X130440571Y-73428714D01*
X130369143Y-73285857D01*
X130369143Y-73000143D01*
X130440571Y-72857286D01*
X130512000Y-72785857D01*
X130654857Y-72714429D01*
X130083429Y-73714429D02*
X128940572Y-73714429D01*
X128083429Y-72785857D02*
X127869143Y-72857286D01*
X127797715Y-72928714D01*
X127726286Y-73071571D01*
X127726286Y-73285857D01*
X127797715Y-73428714D01*
X127869143Y-73500143D01*
X128012001Y-73571571D01*
X128583429Y-73571571D01*
X128583429Y-72071571D01*
X128083429Y-72071571D01*
X127940572Y-72143000D01*
X127869143Y-72214429D01*
X127797715Y-72357286D01*
X127797715Y-72500143D01*
X127869143Y-72643000D01*
X127940572Y-72714429D01*
X128083429Y-72785857D01*
X128583429Y-72785857D01*
X126797715Y-72071571D02*
X126512001Y-72071571D01*
X126369143Y-72143000D01*
X126226286Y-72285857D01*
X126154858Y-72571571D01*
X126154858Y-73071571D01*
X126226286Y-73357286D01*
X126369143Y-73500143D01*
X126512001Y-73571571D01*
X126797715Y-73571571D01*
X126940572Y-73500143D01*
X127083429Y-73357286D01*
X127154858Y-73071571D01*
X127154858Y-72571571D01*
X127083429Y-72285857D01*
X126940572Y-72143000D01*
X126797715Y-72071571D01*
X125583429Y-73143000D02*
X124869143Y-73143000D01*
X125726286Y-73571571D02*
X125226286Y-72071571D01*
X124726286Y-73571571D01*
X123369143Y-73571571D02*
X123869143Y-72857286D01*
X124226286Y-73571571D02*
X124226286Y-72071571D01*
X123654858Y-72071571D01*
X123512000Y-72143000D01*
X123440572Y-72214429D01*
X123369143Y-72357286D01*
X123369143Y-72571571D01*
X123440572Y-72714429D01*
X123512000Y-72785857D01*
X123654858Y-72857286D01*
X124226286Y-72857286D01*
X122726286Y-73571571D02*
X122726286Y-72071571D01*
X122369143Y-72071571D01*
X122154858Y-72143000D01*
X122012000Y-72285857D01*
X121940572Y-72428714D01*
X121869143Y-72714429D01*
X121869143Y-72928714D01*
X121940572Y-73214429D01*
X122012000Y-73357286D01*
X122154858Y-73500143D01*
X122369143Y-73571571D01*
X122726286Y-73571571D01*
X132754143Y-67163071D02*
X132754143Y-65663071D01*
X132111286Y-65805929D02*
X132039857Y-65734500D01*
X131897000Y-65663071D01*
X131539857Y-65663071D01*
X131397000Y-65734500D01*
X131325571Y-65805929D01*
X131254143Y-65948786D01*
X131254143Y-66091643D01*
X131325571Y-66305929D01*
X132182714Y-67163071D01*
X131254143Y-67163071D01*
X129754143Y-67020214D02*
X129825572Y-67091643D01*
X130039858Y-67163071D01*
X130182715Y-67163071D01*
X130397000Y-67091643D01*
X130539858Y-66948786D01*
X130611286Y-66805929D01*
X130682715Y-66520214D01*
X130682715Y-66305929D01*
X130611286Y-66020214D01*
X130539858Y-65877357D01*
X130397000Y-65734500D01*
X130182715Y-65663071D01*
X130039858Y-65663071D01*
X129825572Y-65734500D01*
X129754143Y-65805929D01*
X129468429Y-67305929D02*
X128325572Y-67305929D01*
X127968429Y-67163071D02*
X127968429Y-65663071D01*
X127968429Y-66377357D02*
X127111286Y-66377357D01*
X127111286Y-67163071D02*
X127111286Y-65663071D01*
X126397000Y-65663071D02*
X126397000Y-66877357D01*
X126325572Y-67020214D01*
X126254143Y-67091643D01*
X126111286Y-67163071D01*
X125825572Y-67163071D01*
X125682714Y-67091643D01*
X125611286Y-67020214D01*
X125539857Y-66877357D01*
X125539857Y-65663071D01*
X124325571Y-66377357D02*
X124111285Y-66448786D01*
X124039857Y-66520214D01*
X123968428Y-66663071D01*
X123968428Y-66877357D01*
X124039857Y-67020214D01*
X124111285Y-67091643D01*
X124254143Y-67163071D01*
X124825571Y-67163071D01*
X124825571Y-65663071D01*
X124325571Y-65663071D01*
X124182714Y-65734500D01*
X124111285Y-65805929D01*
X124039857Y-65948786D01*
X124039857Y-66091643D01*
X124111285Y-66234500D01*
X124182714Y-66305929D01*
X124325571Y-66377357D01*
X124825571Y-66377357D01*
X110533571Y-60343716D02*
X109033571Y-60343716D01*
X109176429Y-60986573D02*
X109105000Y-61058002D01*
X109033571Y-61200859D01*
X109033571Y-61558002D01*
X109105000Y-61700859D01*
X109176429Y-61772288D01*
X109319286Y-61843716D01*
X109462143Y-61843716D01*
X109676429Y-61772288D01*
X110533571Y-60915145D01*
X110533571Y-61843716D01*
X110390714Y-63343716D02*
X110462143Y-63272287D01*
X110533571Y-63058001D01*
X110533571Y-62915144D01*
X110462143Y-62700859D01*
X110319286Y-62558001D01*
X110176429Y-62486573D01*
X109890714Y-62415144D01*
X109676429Y-62415144D01*
X109390714Y-62486573D01*
X109247857Y-62558001D01*
X109105000Y-62700859D01*
X109033571Y-62915144D01*
X109033571Y-63058001D01*
X109105000Y-63272287D01*
X109176429Y-63343716D01*
X110676429Y-63629430D02*
X110676429Y-64772287D01*
X110533571Y-65129430D02*
X109033571Y-65129430D01*
X109747857Y-65129430D02*
X109747857Y-65986573D01*
X110533571Y-65986573D02*
X109033571Y-65986573D01*
X109033571Y-66700859D02*
X110247857Y-66700859D01*
X110390714Y-66772287D01*
X110462143Y-66843716D01*
X110533571Y-66986573D01*
X110533571Y-67272287D01*
X110462143Y-67415145D01*
X110390714Y-67486573D01*
X110247857Y-67558002D01*
X109033571Y-67558002D01*
X109747857Y-68772288D02*
X109819286Y-68986574D01*
X109890714Y-69058002D01*
X110033571Y-69129431D01*
X110247857Y-69129431D01*
X110390714Y-69058002D01*
X110462143Y-68986574D01*
X110533571Y-68843716D01*
X110533571Y-68272288D01*
X109033571Y-68272288D01*
X109033571Y-68772288D01*
X109105000Y-68915145D01*
X109176429Y-68986574D01*
X109319286Y-69058002D01*
X109462143Y-69058002D01*
X109605000Y-68986574D01*
X109676429Y-68915145D01*
X109747857Y-68772288D01*
X109747857Y-68272288D01*
X110676429Y-69415145D02*
X110676429Y-70558002D01*
X110533571Y-70915145D02*
X109033571Y-70915145D01*
X109747857Y-70915145D02*
X109747857Y-71772288D01*
X110533571Y-71772288D02*
X109033571Y-71772288D01*
X110676429Y-72129431D02*
X110676429Y-73272288D01*
X109533571Y-74272288D02*
X110533571Y-74272288D01*
X108962143Y-73915145D02*
X110033571Y-73558002D01*
X110033571Y-74486574D01*
X110676429Y-74700859D02*
X110676429Y-75843716D01*
X109747857Y-76700859D02*
X109819286Y-76915145D01*
X109890714Y-76986573D01*
X110033571Y-77058002D01*
X110247857Y-77058002D01*
X110390714Y-76986573D01*
X110462143Y-76915145D01*
X110533571Y-76772287D01*
X110533571Y-76200859D01*
X109033571Y-76200859D01*
X109033571Y-76700859D01*
X109105000Y-76843716D01*
X109176429Y-76915145D01*
X109319286Y-76986573D01*
X109462143Y-76986573D01*
X109605000Y-76915145D01*
X109676429Y-76843716D01*
X109747857Y-76700859D01*
X109747857Y-76200859D01*
X109033571Y-77986573D02*
X109033571Y-78272287D01*
X109105000Y-78415145D01*
X109247857Y-78558002D01*
X109533571Y-78629430D01*
X110033571Y-78629430D01*
X110319286Y-78558002D01*
X110462143Y-78415145D01*
X110533571Y-78272287D01*
X110533571Y-77986573D01*
X110462143Y-77843716D01*
X110319286Y-77700859D01*
X110033571Y-77629430D01*
X109533571Y-77629430D01*
X109247857Y-77700859D01*
X109105000Y-77843716D01*
X109033571Y-77986573D01*
X110105000Y-79200859D02*
X110105000Y-79915145D01*
X110533571Y-79058002D02*
X109033571Y-79558002D01*
X110533571Y-80058002D01*
X110533571Y-81415145D02*
X109819286Y-80915145D01*
X110533571Y-80558002D02*
X109033571Y-80558002D01*
X109033571Y-81129430D01*
X109105000Y-81272288D01*
X109176429Y-81343716D01*
X109319286Y-81415145D01*
X109533571Y-81415145D01*
X109676429Y-81343716D01*
X109747857Y-81272288D01*
X109819286Y-81129430D01*
X109819286Y-80558002D01*
X110533571Y-82058002D02*
X109033571Y-82058002D01*
X109033571Y-82415145D01*
X109105000Y-82629430D01*
X109247857Y-82772288D01*
X109390714Y-82843716D01*
X109676429Y-82915145D01*
X109890714Y-82915145D01*
X110176429Y-82843716D01*
X110319286Y-82772288D01*
X110462143Y-82629430D01*
X110533571Y-82415145D01*
X110533571Y-82058002D01*
X110533571Y-87772287D02*
X110533571Y-86915144D01*
X110533571Y-87343716D02*
X109033571Y-87343716D01*
X109247857Y-87200859D01*
X109390714Y-87058001D01*
X109462143Y-86915144D01*
X109176429Y-88343715D02*
X109105000Y-88415144D01*
X109033571Y-88558001D01*
X109033571Y-88915144D01*
X109105000Y-89058001D01*
X109176429Y-89129430D01*
X109319286Y-89200858D01*
X109462143Y-89200858D01*
X109676429Y-89129430D01*
X110533571Y-88272287D01*
X110533571Y-89200858D01*
X108962143Y-90915143D02*
X110890714Y-89629429D01*
X109176429Y-91343715D02*
X109105000Y-91415144D01*
X109033571Y-91558001D01*
X109033571Y-91915144D01*
X109105000Y-92058001D01*
X109176429Y-92129430D01*
X109319286Y-92200858D01*
X109462143Y-92200858D01*
X109676429Y-92129430D01*
X110533571Y-91272287D01*
X110533571Y-92200858D01*
X109033571Y-93129429D02*
X109033571Y-93272286D01*
X109105000Y-93415143D01*
X109176429Y-93486572D01*
X109319286Y-93558001D01*
X109605000Y-93629429D01*
X109962143Y-93629429D01*
X110247857Y-93558001D01*
X110390714Y-93486572D01*
X110462143Y-93415143D01*
X110533571Y-93272286D01*
X110533571Y-93129429D01*
X110462143Y-92986572D01*
X110390714Y-92915143D01*
X110247857Y-92843715D01*
X109962143Y-92772286D01*
X109605000Y-92772286D01*
X109319286Y-92843715D01*
X109176429Y-92915143D01*
X109105000Y-92986572D01*
X109033571Y-93129429D01*
X110533571Y-95058000D02*
X110533571Y-94200857D01*
X110533571Y-94629429D02*
X109033571Y-94629429D01*
X109247857Y-94486572D01*
X109390714Y-94343714D01*
X109462143Y-94200857D01*
X109676429Y-95915143D02*
X109605000Y-95772285D01*
X109533571Y-95700857D01*
X109390714Y-95629428D01*
X109319286Y-95629428D01*
X109176429Y-95700857D01*
X109105000Y-95772285D01*
X109033571Y-95915143D01*
X109033571Y-96200857D01*
X109105000Y-96343714D01*
X109176429Y-96415143D01*
X109319286Y-96486571D01*
X109390714Y-96486571D01*
X109533571Y-96415143D01*
X109605000Y-96343714D01*
X109676429Y-96200857D01*
X109676429Y-95915143D01*
X109747857Y-95772285D01*
X109819286Y-95700857D01*
X109962143Y-95629428D01*
X110247857Y-95629428D01*
X110390714Y-95700857D01*
X110462143Y-95772285D01*
X110533571Y-95915143D01*
X110533571Y-96200857D01*
X110462143Y-96343714D01*
X110390714Y-96415143D01*
X110247857Y-96486571D01*
X109962143Y-96486571D01*
X109819286Y-96415143D01*
X109747857Y-96343714D01*
X109676429Y-96200857D01*
X109747857Y-99915142D02*
X109747857Y-99415142D01*
X110533571Y-99415142D02*
X109033571Y-99415142D01*
X109033571Y-100129428D01*
X109533571Y-101343713D02*
X110533571Y-101343713D01*
X108962143Y-100986570D02*
X110033571Y-100629427D01*
X110033571Y-101557999D01*
X110533571Y-102129427D02*
X109033571Y-102129427D01*
X109033571Y-102486570D01*
X109105000Y-102700855D01*
X109247857Y-102843713D01*
X109390714Y-102915141D01*
X109676429Y-102986570D01*
X109890714Y-102986570D01*
X110176429Y-102915141D01*
X110319286Y-102843713D01*
X110462143Y-102700855D01*
X110533571Y-102486570D01*
X110533571Y-102129427D01*
X109747857Y-103629427D02*
X109747857Y-104129427D01*
X110533571Y-104343713D02*
X110533571Y-103629427D01*
X109033571Y-103629427D01*
X109033571Y-104343713D01*
X109747857Y-105486570D02*
X109819286Y-105700856D01*
X109890714Y-105772284D01*
X110033571Y-105843713D01*
X110247857Y-105843713D01*
X110390714Y-105772284D01*
X110462143Y-105700856D01*
X110533571Y-105557998D01*
X110533571Y-104986570D01*
X109033571Y-104986570D01*
X109033571Y-105486570D01*
X109105000Y-105629427D01*
X109176429Y-105700856D01*
X109319286Y-105772284D01*
X109462143Y-105772284D01*
X109605000Y-105700856D01*
X109676429Y-105629427D01*
X109747857Y-105486570D01*
X109747857Y-104986570D01*
X89324571Y-75583716D02*
X87824571Y-75583716D01*
X87967429Y-76226573D02*
X87896000Y-76298002D01*
X87824571Y-76440859D01*
X87824571Y-76798002D01*
X87896000Y-76940859D01*
X87967429Y-77012288D01*
X88110286Y-77083716D01*
X88253143Y-77083716D01*
X88467429Y-77012288D01*
X89324571Y-76155145D01*
X89324571Y-77083716D01*
X89181714Y-78583716D02*
X89253143Y-78512287D01*
X89324571Y-78298001D01*
X89324571Y-78155144D01*
X89253143Y-77940859D01*
X89110286Y-77798001D01*
X88967429Y-77726573D01*
X88681714Y-77655144D01*
X88467429Y-77655144D01*
X88181714Y-77726573D01*
X88038857Y-77798001D01*
X87896000Y-77940859D01*
X87824571Y-78155144D01*
X87824571Y-78298001D01*
X87896000Y-78512287D01*
X87967429Y-78583716D01*
X89467429Y-78869430D02*
X89467429Y-80012287D01*
X89324571Y-80369430D02*
X87824571Y-80369430D01*
X88538857Y-80369430D02*
X88538857Y-81226573D01*
X89324571Y-81226573D02*
X87824571Y-81226573D01*
X87824571Y-81940859D02*
X89038857Y-81940859D01*
X89181714Y-82012287D01*
X89253143Y-82083716D01*
X89324571Y-82226573D01*
X89324571Y-82512287D01*
X89253143Y-82655145D01*
X89181714Y-82726573D01*
X89038857Y-82798002D01*
X87824571Y-82798002D01*
X88538857Y-84012288D02*
X88610286Y-84226574D01*
X88681714Y-84298002D01*
X88824571Y-84369431D01*
X89038857Y-84369431D01*
X89181714Y-84298002D01*
X89253143Y-84226574D01*
X89324571Y-84083716D01*
X89324571Y-83512288D01*
X87824571Y-83512288D01*
X87824571Y-84012288D01*
X87896000Y-84155145D01*
X87967429Y-84226574D01*
X88110286Y-84298002D01*
X88253143Y-84298002D01*
X88396000Y-84226574D01*
X88467429Y-84155145D01*
X88538857Y-84012288D01*
X88538857Y-83512288D01*
X89467429Y-84655145D02*
X89467429Y-85798002D01*
X89324571Y-86155145D02*
X87824571Y-86155145D01*
X88538857Y-86155145D02*
X88538857Y-87012288D01*
X89324571Y-87012288D02*
X87824571Y-87012288D01*
X89467429Y-87369431D02*
X89467429Y-88512288D01*
X87824571Y-88726574D02*
X87824571Y-89726574D01*
X89324571Y-89083717D01*
X89467429Y-89940859D02*
X89467429Y-91083716D01*
X88538857Y-91940859D02*
X88610286Y-92155145D01*
X88681714Y-92226573D01*
X88824571Y-92298002D01*
X89038857Y-92298002D01*
X89181714Y-92226573D01*
X89253143Y-92155145D01*
X89324571Y-92012287D01*
X89324571Y-91440859D01*
X87824571Y-91440859D01*
X87824571Y-91940859D01*
X87896000Y-92083716D01*
X87967429Y-92155145D01*
X88110286Y-92226573D01*
X88253143Y-92226573D01*
X88396000Y-92155145D01*
X88467429Y-92083716D01*
X88538857Y-91940859D01*
X88538857Y-91440859D01*
X87824571Y-93226573D02*
X87824571Y-93512287D01*
X87896000Y-93655145D01*
X88038857Y-93798002D01*
X88324571Y-93869430D01*
X88824571Y-93869430D01*
X89110286Y-93798002D01*
X89253143Y-93655145D01*
X89324571Y-93512287D01*
X89324571Y-93226573D01*
X89253143Y-93083716D01*
X89110286Y-92940859D01*
X88824571Y-92869430D01*
X88324571Y-92869430D01*
X88038857Y-92940859D01*
X87896000Y-93083716D01*
X87824571Y-93226573D01*
X88896000Y-94440859D02*
X88896000Y-95155145D01*
X89324571Y-94298002D02*
X87824571Y-94798002D01*
X89324571Y-95298002D01*
X89324571Y-96655145D02*
X88610286Y-96155145D01*
X89324571Y-95798002D02*
X87824571Y-95798002D01*
X87824571Y-96369430D01*
X87896000Y-96512288D01*
X87967429Y-96583716D01*
X88110286Y-96655145D01*
X88324571Y-96655145D01*
X88467429Y-96583716D01*
X88538857Y-96512288D01*
X88610286Y-96369430D01*
X88610286Y-95798002D01*
X89324571Y-97298002D02*
X87824571Y-97298002D01*
X87824571Y-97655145D01*
X87896000Y-97869430D01*
X88038857Y-98012288D01*
X88181714Y-98083716D01*
X88467429Y-98155145D01*
X88681714Y-98155145D01*
X88967429Y-98083716D01*
X89110286Y-98012288D01*
X89253143Y-97869430D01*
X89324571Y-97655145D01*
X89324571Y-97298002D01*
X89324571Y-103012287D02*
X89324571Y-102155144D01*
X89324571Y-102583716D02*
X87824571Y-102583716D01*
X88038857Y-102440859D01*
X88181714Y-102298001D01*
X88253143Y-102155144D01*
X87967429Y-103583715D02*
X87896000Y-103655144D01*
X87824571Y-103798001D01*
X87824571Y-104155144D01*
X87896000Y-104298001D01*
X87967429Y-104369430D01*
X88110286Y-104440858D01*
X88253143Y-104440858D01*
X88467429Y-104369430D01*
X89324571Y-103512287D01*
X89324571Y-104440858D01*
X87753143Y-106155143D02*
X89681714Y-104869429D01*
X87967429Y-106583715D02*
X87896000Y-106655144D01*
X87824571Y-106798001D01*
X87824571Y-107155144D01*
X87896000Y-107298001D01*
X87967429Y-107369430D01*
X88110286Y-107440858D01*
X88253143Y-107440858D01*
X88467429Y-107369430D01*
X89324571Y-106512287D01*
X89324571Y-107440858D01*
X87824571Y-108369429D02*
X87824571Y-108512286D01*
X87896000Y-108655143D01*
X87967429Y-108726572D01*
X88110286Y-108798001D01*
X88396000Y-108869429D01*
X88753143Y-108869429D01*
X89038857Y-108798001D01*
X89181714Y-108726572D01*
X89253143Y-108655143D01*
X89324571Y-108512286D01*
X89324571Y-108369429D01*
X89253143Y-108226572D01*
X89181714Y-108155143D01*
X89038857Y-108083715D01*
X88753143Y-108012286D01*
X88396000Y-108012286D01*
X88110286Y-108083715D01*
X87967429Y-108155143D01*
X87896000Y-108226572D01*
X87824571Y-108369429D01*
X89324571Y-110298000D02*
X89324571Y-109440857D01*
X89324571Y-109869429D02*
X87824571Y-109869429D01*
X88038857Y-109726572D01*
X88181714Y-109583714D01*
X88253143Y-109440857D01*
X88467429Y-111155143D02*
X88396000Y-111012285D01*
X88324571Y-110940857D01*
X88181714Y-110869428D01*
X88110286Y-110869428D01*
X87967429Y-110940857D01*
X87896000Y-111012285D01*
X87824571Y-111155143D01*
X87824571Y-111440857D01*
X87896000Y-111583714D01*
X87967429Y-111655143D01*
X88110286Y-111726571D01*
X88181714Y-111726571D01*
X88324571Y-111655143D01*
X88396000Y-111583714D01*
X88467429Y-111440857D01*
X88467429Y-111155143D01*
X88538857Y-111012285D01*
X88610286Y-110940857D01*
X88753143Y-110869428D01*
X89038857Y-110869428D01*
X89181714Y-110940857D01*
X89253143Y-111012285D01*
X89324571Y-111155143D01*
X89324571Y-111440857D01*
X89253143Y-111583714D01*
X89181714Y-111655143D01*
X89038857Y-111726571D01*
X88753143Y-111726571D01*
X88610286Y-111655143D01*
X88538857Y-111583714D01*
X88467429Y-111440857D01*
X88538857Y-115155142D02*
X88538857Y-114655142D01*
X89324571Y-114655142D02*
X87824571Y-114655142D01*
X87824571Y-115369428D01*
X88324571Y-116583713D02*
X89324571Y-116583713D01*
X87753143Y-116226570D02*
X88824571Y-115869427D01*
X88824571Y-116797999D01*
X89324571Y-117369427D02*
X87824571Y-117369427D01*
X87824571Y-117726570D01*
X87896000Y-117940855D01*
X88038857Y-118083713D01*
X88181714Y-118155141D01*
X88467429Y-118226570D01*
X88681714Y-118226570D01*
X88967429Y-118155141D01*
X89110286Y-118083713D01*
X89253143Y-117940855D01*
X89324571Y-117726570D01*
X89324571Y-117369427D01*
X88538857Y-118869427D02*
X88538857Y-119369427D01*
X89324571Y-119583713D02*
X89324571Y-118869427D01*
X87824571Y-118869427D01*
X87824571Y-119583713D01*
X88538857Y-120726570D02*
X88610286Y-120940856D01*
X88681714Y-121012284D01*
X88824571Y-121083713D01*
X89038857Y-121083713D01*
X89181714Y-121012284D01*
X89253143Y-120940856D01*
X89324571Y-120797998D01*
X89324571Y-120226570D01*
X87824571Y-120226570D01*
X87824571Y-120726570D01*
X87896000Y-120869427D01*
X87967429Y-120940856D01*
X88110286Y-121012284D01*
X88253143Y-121012284D01*
X88396000Y-120940856D01*
X88467429Y-120869427D01*
X88538857Y-120726570D01*
X88538857Y-120226570D01*
M02*
