%FSLAX45Y45*%
G04 Gerber Fmt 4.5, Leading zero omitted, Abs format (unit mm)*
G04 Created by KiCad (PCBNEW 4.0.5+dfsg1-4) date Tue Nov 20 18:09:06 2018*
%MOMM*%
%LPD*%
G01*
G04 APERTURE LIST*
%ADD10C,0.127000*%
%ADD11C,0.150000*%
%ADD12C,0.200000*%
%ADD13C,0.300000*%
G04 APERTURE END LIST*
D10*
D11*
X10414000Y-14668500D02*
X8636000Y-14668500D01*
X10414000Y-11766550D02*
X10414000Y-14668500D01*
X12261850Y-11766550D02*
X10414000Y-11766550D01*
X12261850Y-12731750D02*
X12261850Y-11766550D01*
X13525500Y-12731750D02*
X12261850Y-12731750D01*
X13525500Y-9721850D02*
X13525500Y-12731750D01*
X14922500Y-9721850D02*
X13525500Y-9721850D01*
X14922500Y-12744450D02*
X14922500Y-9721850D01*
X18021300Y-12744450D02*
X14922500Y-12744450D01*
X18021300Y-4699000D02*
X18021300Y-12744450D01*
X17970500Y-4699000D02*
X18021300Y-4699000D01*
X17970500Y-4699000D02*
X8636000Y-4699000D01*
X8636000Y-14668500D02*
X8636000Y-4699000D01*
D12*
X9050500Y-6637500D02*
X9110500Y-6697500D01*
X9110500Y-6637500D02*
X9050500Y-6697500D01*
X9050500Y-7780500D02*
X9110500Y-7840500D01*
X9110500Y-7780500D02*
X9050500Y-7840500D01*
X9050500Y-8923500D02*
X9110500Y-8983500D01*
X9110500Y-8923500D02*
X9050500Y-8983500D01*
X9050500Y-10066500D02*
X9110500Y-10126500D01*
X9110500Y-10066500D02*
X9050500Y-10126500D01*
X9050500Y-11209500D02*
X9110500Y-11269500D01*
X9110500Y-11209500D02*
X9050500Y-11269500D01*
X9050500Y-12352500D02*
X9110500Y-12412500D01*
X9110500Y-12352500D02*
X9050500Y-12412500D01*
X9050500Y-13495500D02*
X9110500Y-13555500D01*
X9110500Y-13495500D02*
X9050500Y-13555500D01*
X9304500Y-6383500D02*
X9364500Y-6443500D01*
X9364500Y-6383500D02*
X9304500Y-6443500D01*
X9304500Y-7526500D02*
X9364500Y-7586500D01*
X9364500Y-7526500D02*
X9304500Y-7586500D01*
X9304500Y-8669500D02*
X9364500Y-8729500D01*
X9364500Y-8669500D02*
X9304500Y-8729500D01*
X9304500Y-9812500D02*
X9364500Y-9872500D01*
X9364500Y-9812500D02*
X9304500Y-9872500D01*
X9304500Y-10955500D02*
X9364500Y-11015500D01*
X9364500Y-10955500D02*
X9304500Y-11015500D01*
X9304500Y-12098500D02*
X9364500Y-12158500D01*
X9364500Y-12098500D02*
X9304500Y-12158500D01*
X9304500Y-13241500D02*
X9364500Y-13301500D01*
X9364500Y-13241500D02*
X9304500Y-13301500D01*
X9558500Y-6129500D02*
X9618500Y-6189500D01*
X9618500Y-6129500D02*
X9558500Y-6189500D01*
X9558500Y-7272500D02*
X9618500Y-7332500D01*
X9618500Y-7272500D02*
X9558500Y-7332500D01*
X9558500Y-8415500D02*
X9618500Y-8475500D01*
X9618500Y-8415500D02*
X9558500Y-8475500D01*
X9558500Y-9558500D02*
X9618500Y-9618500D01*
X9618500Y-9558500D02*
X9558500Y-9618500D01*
X9558500Y-10701500D02*
X9618500Y-10761500D01*
X9618500Y-10701500D02*
X9558500Y-10761500D01*
X9558500Y-11844500D02*
X9618500Y-11904500D01*
X9618500Y-11844500D02*
X9558500Y-11904500D01*
X9558500Y-12987500D02*
X9618500Y-13047500D01*
X9618500Y-12987500D02*
X9558500Y-13047500D01*
X9622000Y-5177000D02*
X9682000Y-5237000D01*
X9682000Y-5177000D02*
X9622000Y-5237000D01*
X9622000Y-14181300D02*
X9682000Y-14241300D01*
X9682000Y-14181300D02*
X9622000Y-14241300D01*
X9812500Y-5875500D02*
X9872500Y-5935500D01*
X9872500Y-5875500D02*
X9812500Y-5935500D01*
X9812500Y-7018500D02*
X9872500Y-7078500D01*
X9872500Y-7018500D02*
X9812500Y-7078500D01*
X9812500Y-8161500D02*
X9872500Y-8221500D01*
X9872500Y-8161500D02*
X9812500Y-8221500D01*
X9812500Y-9304500D02*
X9872500Y-9364500D01*
X9872500Y-9304500D02*
X9812500Y-9364500D01*
X9812500Y-10447500D02*
X9872500Y-10507500D01*
X9872500Y-10447500D02*
X9812500Y-10507500D01*
X9812500Y-11590500D02*
X9872500Y-11650500D01*
X9872500Y-11590500D02*
X9812500Y-11650500D01*
X9812500Y-12733500D02*
X9872500Y-12793500D01*
X9872500Y-12733500D02*
X9812500Y-12793500D01*
X10130000Y-13495500D02*
X10190000Y-13555500D01*
X10190000Y-13495500D02*
X10130000Y-13555500D01*
X10815800Y-6853400D02*
X10875800Y-6913400D01*
X10875800Y-6853400D02*
X10815800Y-6913400D01*
X10815800Y-7996400D02*
X10875800Y-8056400D01*
X10875800Y-7996400D02*
X10815800Y-8056400D01*
X10815800Y-9139400D02*
X10875800Y-9199400D01*
X10875800Y-9139400D02*
X10815800Y-9199400D01*
X10815800Y-10282400D02*
X10875800Y-10342400D01*
X10875800Y-10282400D02*
X10815800Y-10342400D01*
X11069800Y-6599400D02*
X11129800Y-6659400D01*
X11129800Y-6599400D02*
X11069800Y-6659400D01*
X11069800Y-7742400D02*
X11129800Y-7802400D01*
X11129800Y-7742400D02*
X11069800Y-7802400D01*
X11069800Y-8885400D02*
X11129800Y-8945400D01*
X11129800Y-8885400D02*
X11069800Y-8945400D01*
X11069800Y-10028400D02*
X11129800Y-10088400D01*
X11129800Y-10028400D02*
X11069800Y-10088400D01*
X11323800Y-6345400D02*
X11383800Y-6405400D01*
X11383800Y-6345400D02*
X11323800Y-6405400D01*
X11323800Y-7488400D02*
X11383800Y-7548400D01*
X11383800Y-7488400D02*
X11323800Y-7548400D01*
X11323800Y-8631400D02*
X11383800Y-8691400D01*
X11383800Y-8631400D02*
X11323800Y-8691400D01*
X11323800Y-9774400D02*
X11383800Y-9834400D01*
X11383800Y-9774400D02*
X11323800Y-9834400D01*
X11400000Y-5177000D02*
X11460000Y-5237000D01*
X11460000Y-5177000D02*
X11400000Y-5237000D01*
X11400000Y-11177750D02*
X11460000Y-11237750D01*
X11460000Y-11177750D02*
X11400000Y-11237750D01*
X11577800Y-6091400D02*
X11637800Y-6151400D01*
X11637800Y-6091400D02*
X11577800Y-6151400D01*
X11577800Y-7234400D02*
X11637800Y-7294400D01*
X11637800Y-7234400D02*
X11577800Y-7294400D01*
X11577800Y-8377400D02*
X11637800Y-8437400D01*
X11637800Y-8377400D02*
X11577800Y-8437400D01*
X11577800Y-9520400D02*
X11637800Y-9580400D01*
X11637800Y-9520400D02*
X11577800Y-9580400D01*
X12860500Y-5177000D02*
X12920500Y-5237000D01*
X12920500Y-5177000D02*
X12860500Y-5237000D01*
X12860500Y-12181050D02*
X12920500Y-12241050D01*
X12920500Y-12181050D02*
X12860500Y-12241050D01*
X14130500Y-5177000D02*
X14190500Y-5237000D01*
X14190500Y-5177000D02*
X14130500Y-5237000D01*
X14130500Y-9177500D02*
X14190500Y-9237500D01*
X14190500Y-9177500D02*
X14130500Y-9237500D01*
X15413200Y-5177000D02*
X15473200Y-5237000D01*
X15473200Y-5177000D02*
X15413200Y-5237000D01*
X15413200Y-12181050D02*
X15473200Y-12241050D01*
X15473200Y-12181050D02*
X15413200Y-12241050D01*
X17419800Y-5177000D02*
X17479800Y-5237000D01*
X17479800Y-5177000D02*
X17419800Y-5237000D01*
X17419800Y-12181050D02*
X17479800Y-12241050D01*
X17479800Y-12181050D02*
X17419800Y-12241050D01*
X16106140Y-6286500D02*
G75*
G03X16106140Y-6286500I-40640J0D01*
G01*
X16106140Y-6540500D02*
G75*
G03X16106140Y-6540500I-40640J0D01*
G01*
X16106140Y-6794500D02*
G75*
G03X16106140Y-6794500I-40640J0D01*
G01*
X16106140Y-7747000D02*
G75*
G03X16106140Y-7747000I-40640J0D01*
G01*
X16106140Y-8001000D02*
G75*
G03X16106140Y-8001000I-40640J0D01*
G01*
X16106140Y-8255000D02*
G75*
G03X16106140Y-8255000I-40640J0D01*
G01*
X16106140Y-9207500D02*
G75*
G03X16106140Y-9207500I-40640J0D01*
G01*
X16106140Y-9461500D02*
G75*
G03X16106140Y-9461500I-40640J0D01*
G01*
X16106140Y-9715500D02*
G75*
G03X16106140Y-9715500I-40640J0D01*
G01*
X16106140Y-10668000D02*
G75*
G03X16106140Y-10668000I-40640J0D01*
G01*
X16106140Y-10922000D02*
G75*
G03X16106140Y-10922000I-40640J0D01*
G01*
X16106140Y-11176000D02*
G75*
G03X16106140Y-11176000I-40640J0D01*
G01*
X16360140Y-6159500D02*
G75*
G03X16360140Y-6159500I-40640J0D01*
G01*
X16360140Y-6413500D02*
G75*
G03X16360140Y-6413500I-40640J0D01*
G01*
X16360140Y-6667500D02*
G75*
G03X16360140Y-6667500I-40640J0D01*
G01*
X16360140Y-7620000D02*
G75*
G03X16360140Y-7620000I-40640J0D01*
G01*
X16360140Y-7874000D02*
G75*
G03X16360140Y-7874000I-40640J0D01*
G01*
X16360140Y-8128000D02*
G75*
G03X16360140Y-8128000I-40640J0D01*
G01*
X16360140Y-9080500D02*
G75*
G03X16360140Y-9080500I-40640J0D01*
G01*
X16360140Y-9334500D02*
G75*
G03X16360140Y-9334500I-40640J0D01*
G01*
X16360140Y-9588500D02*
G75*
G03X16360140Y-9588500I-40640J0D01*
G01*
X16360140Y-10541000D02*
G75*
G03X16360140Y-10541000I-40640J0D01*
G01*
X16360140Y-10795000D02*
G75*
G03X16360140Y-10795000I-40640J0D01*
G01*
X16360140Y-11049000D02*
G75*
G03X16360140Y-11049000I-40640J0D01*
G01*
X16614140Y-6286500D02*
G75*
G03X16614140Y-6286500I-40640J0D01*
G01*
X16614140Y-6540500D02*
G75*
G03X16614140Y-6540500I-40640J0D01*
G01*
X16614140Y-6794500D02*
G75*
G03X16614140Y-6794500I-40640J0D01*
G01*
X16614140Y-7747000D02*
G75*
G03X16614140Y-7747000I-40640J0D01*
G01*
X16614140Y-8001000D02*
G75*
G03X16614140Y-8001000I-40640J0D01*
G01*
X16614140Y-8255000D02*
G75*
G03X16614140Y-8255000I-40640J0D01*
G01*
X16614140Y-9207500D02*
G75*
G03X16614140Y-9207500I-40640J0D01*
G01*
X16614140Y-9461500D02*
G75*
G03X16614140Y-9461500I-40640J0D01*
G01*
X16614140Y-9715500D02*
G75*
G03X16614140Y-9715500I-40640J0D01*
G01*
X16614140Y-10668000D02*
G75*
G03X16614140Y-10668000I-40640J0D01*
G01*
X16614140Y-10922000D02*
G75*
G03X16614140Y-10922000I-40640J0D01*
G01*
X16614140Y-11176000D02*
G75*
G03X16614140Y-11176000I-40640J0D01*
G01*
X16868140Y-6159500D02*
G75*
G03X16868140Y-6159500I-40640J0D01*
G01*
X16868140Y-6413500D02*
G75*
G03X16868140Y-6413500I-40640J0D01*
G01*
X16868140Y-6667500D02*
G75*
G03X16868140Y-6667500I-40640J0D01*
G01*
X16868140Y-7620000D02*
G75*
G03X16868140Y-7620000I-40640J0D01*
G01*
X16868140Y-7874000D02*
G75*
G03X16868140Y-7874000I-40640J0D01*
G01*
X16868140Y-8128000D02*
G75*
G03X16868140Y-8128000I-40640J0D01*
G01*
X16868140Y-9080500D02*
G75*
G03X16868140Y-9080500I-40640J0D01*
G01*
X16868140Y-9334500D02*
G75*
G03X16868140Y-9334500I-40640J0D01*
G01*
X16868140Y-9588500D02*
G75*
G03X16868140Y-9588500I-40640J0D01*
G01*
X16868140Y-10541000D02*
G75*
G03X16868140Y-10541000I-40640J0D01*
G01*
X16868140Y-10795000D02*
G75*
G03X16868140Y-10795000I-40640J0D01*
G01*
X16868140Y-11049000D02*
G75*
G03X16868140Y-11049000I-40640J0D01*
G01*
X10160000Y-5855462D02*
X10160000Y-5955538D01*
X10109962Y-5905500D02*
X10210038Y-5905500D01*
X10160000Y-6109462D02*
X10160000Y-6209538D01*
X10109962Y-6159500D02*
X10210038Y-6159500D01*
X10160000Y-6363462D02*
X10160000Y-6463538D01*
X10109962Y-6413500D02*
X10210038Y-6413500D01*
X10160000Y-6617462D02*
X10160000Y-6717538D01*
X10109962Y-6667500D02*
X10210038Y-6667500D01*
X10160000Y-6998462D02*
X10160000Y-7098538D01*
X10109962Y-7048500D02*
X10210038Y-7048500D01*
X10160000Y-7252462D02*
X10160000Y-7352538D01*
X10109962Y-7302500D02*
X10210038Y-7302500D01*
X10160000Y-7506462D02*
X10160000Y-7606538D01*
X10109962Y-7556500D02*
X10210038Y-7556500D01*
X10160000Y-7760462D02*
X10160000Y-7860538D01*
X10109962Y-7810500D02*
X10210038Y-7810500D01*
X10160000Y-8141462D02*
X10160000Y-8241538D01*
X10109962Y-8191500D02*
X10210038Y-8191500D01*
X10160000Y-8395462D02*
X10160000Y-8495538D01*
X10109962Y-8445500D02*
X10210038Y-8445500D01*
X10160000Y-8649462D02*
X10160000Y-8749538D01*
X10109962Y-8699500D02*
X10210038Y-8699500D01*
X10160000Y-8903462D02*
X10160000Y-9003538D01*
X10109962Y-8953500D02*
X10210038Y-8953500D01*
X10160000Y-9284462D02*
X10160000Y-9384538D01*
X10109962Y-9334500D02*
X10210038Y-9334500D01*
X10160000Y-9538462D02*
X10160000Y-9638538D01*
X10109962Y-9588500D02*
X10210038Y-9588500D01*
X10160000Y-9792462D02*
X10160000Y-9892538D01*
X10109962Y-9842500D02*
X10210038Y-9842500D01*
X10160000Y-10046462D02*
X10160000Y-10146538D01*
X10109962Y-10096500D02*
X10210038Y-10096500D01*
X10160000Y-10427462D02*
X10160000Y-10527538D01*
X10109962Y-10477500D02*
X10210038Y-10477500D01*
X10160000Y-10681462D02*
X10160000Y-10781538D01*
X10109962Y-10731500D02*
X10210038Y-10731500D01*
X10160000Y-10935462D02*
X10160000Y-11035538D01*
X10109962Y-10985500D02*
X10210038Y-10985500D01*
X10160000Y-11189462D02*
X10160000Y-11289538D01*
X10109962Y-11239500D02*
X10210038Y-11239500D01*
X10160000Y-11570462D02*
X10160000Y-11670538D01*
X10109962Y-11620500D02*
X10210038Y-11620500D01*
X10160000Y-11824462D02*
X10160000Y-11924538D01*
X10109962Y-11874500D02*
X10210038Y-11874500D01*
X10160000Y-12078462D02*
X10160000Y-12178538D01*
X10109962Y-12128500D02*
X10210038Y-12128500D01*
X10160000Y-12332462D02*
X10160000Y-12432538D01*
X10109962Y-12382500D02*
X10210038Y-12382500D01*
X10160000Y-12713462D02*
X10160000Y-12813538D01*
X10109962Y-12763500D02*
X10210038Y-12763500D01*
X10160000Y-12967462D02*
X10160000Y-13067538D01*
X10109962Y-13017500D02*
X10210038Y-13017500D01*
X10160000Y-13221462D02*
X10160000Y-13321538D01*
X10109962Y-13271500D02*
X10210038Y-13271500D01*
X10160000Y-13475462D02*
X10160000Y-13575538D01*
X10109962Y-13525500D02*
X10210038Y-13525500D01*
X11925300Y-6071362D02*
X11925300Y-6171438D01*
X11875262Y-6121400D02*
X11975338Y-6121400D01*
X11925300Y-6325362D02*
X11925300Y-6425438D01*
X11875262Y-6375400D02*
X11975338Y-6375400D01*
X11925300Y-6579362D02*
X11925300Y-6679438D01*
X11875262Y-6629400D02*
X11975338Y-6629400D01*
X11925300Y-6833362D02*
X11925300Y-6933438D01*
X11875262Y-6883400D02*
X11975338Y-6883400D01*
X11925300Y-7214362D02*
X11925300Y-7314438D01*
X11875262Y-7264400D02*
X11975338Y-7264400D01*
X11925300Y-7468362D02*
X11925300Y-7568438D01*
X11875262Y-7518400D02*
X11975338Y-7518400D01*
X11925300Y-7722362D02*
X11925300Y-7822438D01*
X11875262Y-7772400D02*
X11975338Y-7772400D01*
X11925300Y-7976362D02*
X11925300Y-8076438D01*
X11875262Y-8026400D02*
X11975338Y-8026400D01*
X11925300Y-8357362D02*
X11925300Y-8457438D01*
X11875262Y-8407400D02*
X11975338Y-8407400D01*
X11925300Y-8611362D02*
X11925300Y-8711438D01*
X11875262Y-8661400D02*
X11975338Y-8661400D01*
X11925300Y-8865362D02*
X11925300Y-8965438D01*
X11875262Y-8915400D02*
X11975338Y-8915400D01*
X11925300Y-9119362D02*
X11925300Y-9219438D01*
X11875262Y-9169400D02*
X11975338Y-9169400D01*
X11925300Y-9500362D02*
X11925300Y-9600438D01*
X11875262Y-9550400D02*
X11975338Y-9550400D01*
X11925300Y-9754362D02*
X11925300Y-9854438D01*
X11875262Y-9804400D02*
X11975338Y-9804400D01*
X11925300Y-10008362D02*
X11925300Y-10108438D01*
X11875262Y-10058400D02*
X11975338Y-10058400D01*
X11925300Y-10262362D02*
X11925300Y-10362438D01*
X11875262Y-10312400D02*
X11975338Y-10312400D01*
X12503150Y-6236462D02*
X12503150Y-6336538D01*
X12453112Y-6286500D02*
X12553188Y-6286500D01*
X12503150Y-6934962D02*
X12503150Y-7035038D01*
X12453112Y-6985000D02*
X12553188Y-6985000D01*
X12503150Y-7633462D02*
X12503150Y-7733538D01*
X12453112Y-7683500D02*
X12553188Y-7683500D01*
X12503150Y-8331962D02*
X12503150Y-8432038D01*
X12453112Y-8382000D02*
X12553188Y-8382000D01*
X12503150Y-9030462D02*
X12503150Y-9130538D01*
X12453112Y-9080500D02*
X12553188Y-9080500D01*
X12503150Y-9728962D02*
X12503150Y-9829038D01*
X12453112Y-9779000D02*
X12553188Y-9779000D01*
X12503150Y-10427462D02*
X12503150Y-10527538D01*
X12453112Y-10477500D02*
X12553188Y-10477500D01*
X12503150Y-11125962D02*
X12503150Y-11226038D01*
X12453112Y-11176000D02*
X12553188Y-11176000D01*
X12757150Y-6236462D02*
X12757150Y-6336538D01*
X12707112Y-6286500D02*
X12807188Y-6286500D01*
X12757150Y-6934962D02*
X12757150Y-7035038D01*
X12707112Y-6985000D02*
X12807188Y-6985000D01*
X12757150Y-7633462D02*
X12757150Y-7733538D01*
X12707112Y-7683500D02*
X12807188Y-7683500D01*
X12757150Y-8331962D02*
X12757150Y-8432038D01*
X12707112Y-8382000D02*
X12807188Y-8382000D01*
X12757150Y-9030462D02*
X12757150Y-9130538D01*
X12707112Y-9080500D02*
X12807188Y-9080500D01*
X12757150Y-9728962D02*
X12757150Y-9829038D01*
X12707112Y-9779000D02*
X12807188Y-9779000D01*
X12757150Y-10427462D02*
X12757150Y-10527538D01*
X12707112Y-10477500D02*
X12807188Y-10477500D01*
X12757150Y-11125962D02*
X12757150Y-11226038D01*
X12707112Y-11176000D02*
X12807188Y-11176000D01*
X13011150Y-6236462D02*
X13011150Y-6336538D01*
X12961112Y-6286500D02*
X13061188Y-6286500D01*
X13011150Y-6934962D02*
X13011150Y-7035038D01*
X12961112Y-6985000D02*
X13061188Y-6985000D01*
X13011150Y-7633462D02*
X13011150Y-7733538D01*
X12961112Y-7683500D02*
X13061188Y-7683500D01*
X13011150Y-8331962D02*
X13011150Y-8432038D01*
X12961112Y-8382000D02*
X13061188Y-8382000D01*
X13011150Y-9030462D02*
X13011150Y-9130538D01*
X12961112Y-9080500D02*
X13061188Y-9080500D01*
X13011150Y-9728962D02*
X13011150Y-9829038D01*
X12961112Y-9779000D02*
X13061188Y-9779000D01*
X13011150Y-10427462D02*
X13011150Y-10527538D01*
X12961112Y-10477500D02*
X13061188Y-10477500D01*
X13011150Y-11125962D02*
X13011150Y-11226038D01*
X12961112Y-11176000D02*
X13061188Y-11176000D01*
X13265150Y-6236462D02*
X13265150Y-6336538D01*
X13215112Y-6286500D02*
X13315188Y-6286500D01*
X13265150Y-6934962D02*
X13265150Y-7035038D01*
X13215112Y-6985000D02*
X13315188Y-6985000D01*
X13265150Y-7633462D02*
X13265150Y-7733538D01*
X13215112Y-7683500D02*
X13315188Y-7683500D01*
X13265150Y-8331962D02*
X13265150Y-8432038D01*
X13215112Y-8382000D02*
X13315188Y-8382000D01*
X13265150Y-9030462D02*
X13265150Y-9130538D01*
X13215112Y-9080500D02*
X13315188Y-9080500D01*
X13265150Y-9728962D02*
X13265150Y-9829038D01*
X13215112Y-9779000D02*
X13315188Y-9779000D01*
X13265150Y-10427462D02*
X13265150Y-10527538D01*
X13215112Y-10477500D02*
X13315188Y-10477500D01*
X13265150Y-11125962D02*
X13265150Y-11226038D01*
X13215112Y-11176000D02*
X13315188Y-11176000D01*
X13785850Y-6109462D02*
X13785850Y-6209538D01*
X13735812Y-6159500D02*
X13835888Y-6159500D01*
X13785850Y-6807962D02*
X13785850Y-6908038D01*
X13735812Y-6858000D02*
X13835888Y-6858000D01*
X13785850Y-7506462D02*
X13785850Y-7606538D01*
X13735812Y-7556500D02*
X13835888Y-7556500D01*
X13785850Y-8204962D02*
X13785850Y-8305038D01*
X13735812Y-8255000D02*
X13835888Y-8255000D01*
X14039850Y-6109462D02*
X14039850Y-6209538D01*
X13989812Y-6159500D02*
X14089888Y-6159500D01*
X14039850Y-6807962D02*
X14039850Y-6908038D01*
X13989812Y-6858000D02*
X14089888Y-6858000D01*
X14039850Y-7506462D02*
X14039850Y-7606538D01*
X13989812Y-7556500D02*
X14089888Y-7556500D01*
X14039850Y-8204962D02*
X14039850Y-8305038D01*
X13989812Y-8255000D02*
X14089888Y-8255000D01*
X14293850Y-6109462D02*
X14293850Y-6209538D01*
X14243812Y-6159500D02*
X14343888Y-6159500D01*
X14293850Y-6807962D02*
X14293850Y-6908038D01*
X14243812Y-6858000D02*
X14343888Y-6858000D01*
X14293850Y-7506462D02*
X14293850Y-7606538D01*
X14243812Y-7556500D02*
X14343888Y-7556500D01*
X14293850Y-8204962D02*
X14293850Y-8305038D01*
X14243812Y-8255000D02*
X14343888Y-8255000D01*
X14547850Y-6109462D02*
X14547850Y-6209538D01*
X14497812Y-6159500D02*
X14597888Y-6159500D01*
X14547850Y-6807962D02*
X14547850Y-6908038D01*
X14497812Y-6858000D02*
X14597888Y-6858000D01*
X14547850Y-7506462D02*
X14547850Y-7606538D01*
X14497812Y-7556500D02*
X14597888Y-7556500D01*
X14547850Y-8204962D02*
X14547850Y-8305038D01*
X14497812Y-8255000D02*
X14597888Y-8255000D01*
X15545448Y-6083948D02*
X15545448Y-5854052D01*
X15315552Y-5854052D01*
X15315552Y-6083948D01*
X15545448Y-6083948D01*
X15545448Y-7099948D02*
X15545448Y-6870052D01*
X15315552Y-6870052D01*
X15315552Y-7099948D01*
X15545448Y-7099948D01*
X15545448Y-7544448D02*
X15545448Y-7314552D01*
X15315552Y-7314552D01*
X15315552Y-7544448D01*
X15545448Y-7544448D01*
X15545448Y-8560448D02*
X15545448Y-8330552D01*
X15315552Y-8330552D01*
X15315552Y-8560448D01*
X15545448Y-8560448D01*
X15545448Y-9004948D02*
X15545448Y-8775052D01*
X15315552Y-8775052D01*
X15315552Y-9004948D01*
X15545448Y-9004948D01*
X15545448Y-10020948D02*
X15545448Y-9791052D01*
X15315552Y-9791052D01*
X15315552Y-10020948D01*
X15545448Y-10020948D01*
X15545448Y-10465448D02*
X15545448Y-10235552D01*
X15315552Y-10235552D01*
X15315552Y-10465448D01*
X15545448Y-10465448D01*
X15545448Y-11481448D02*
X15545448Y-11251552D01*
X15315552Y-11251552D01*
X15315552Y-11481448D01*
X15545448Y-11481448D01*
X17577448Y-6083948D02*
X17577448Y-5854052D01*
X17347552Y-5854052D01*
X17347552Y-6083948D01*
X17577448Y-6083948D01*
X17577448Y-7099948D02*
X17577448Y-6870052D01*
X17347552Y-6870052D01*
X17347552Y-7099948D01*
X17577448Y-7099948D01*
X17577448Y-7544448D02*
X17577448Y-7314552D01*
X17347552Y-7314552D01*
X17347552Y-7544448D01*
X17577448Y-7544448D01*
X17577448Y-8560448D02*
X17577448Y-8330552D01*
X17347552Y-8330552D01*
X17347552Y-8560448D01*
X17577448Y-8560448D01*
X17577448Y-9004948D02*
X17577448Y-8775052D01*
X17347552Y-8775052D01*
X17347552Y-9004948D01*
X17577448Y-9004948D01*
X17577448Y-10020948D02*
X17577448Y-9791052D01*
X17347552Y-9791052D01*
X17347552Y-10020948D01*
X17577448Y-10020948D01*
X17577448Y-10465448D02*
X17577448Y-10235552D01*
X17347552Y-10235552D01*
X17347552Y-10465448D01*
X17577448Y-10465448D01*
X17577448Y-11481448D02*
X17577448Y-11251552D01*
X17347552Y-11251552D01*
X17347552Y-11481448D01*
X17577448Y-11481448D01*
X9652000Y-5407025D02*
X9852025Y-5207000D01*
X9652000Y-5006975D01*
X9451975Y-5207000D01*
X9652000Y-5407025D01*
X9652000Y-14411325D02*
X9852025Y-14211300D01*
X9652000Y-14011275D01*
X9451975Y-14211300D01*
X9652000Y-14411325D01*
X11430000Y-5407025D02*
X11630025Y-5207000D01*
X11430000Y-5006975D01*
X11229975Y-5207000D01*
X11430000Y-5407025D01*
X11430000Y-11407775D02*
X11630025Y-11207750D01*
X11430000Y-11007725D01*
X11229975Y-11207750D01*
X11430000Y-11407775D01*
X12890500Y-5407025D02*
X13090525Y-5207000D01*
X12890500Y-5006975D01*
X12690475Y-5207000D01*
X12890500Y-5407025D01*
X12890500Y-12411075D02*
X13090525Y-12211050D01*
X12890500Y-12011025D01*
X12690475Y-12211050D01*
X12890500Y-12411075D01*
X14160500Y-5407025D02*
X14360525Y-5207000D01*
X14160500Y-5006975D01*
X13960475Y-5207000D01*
X14160500Y-5407025D01*
X14160500Y-9407525D02*
X14360525Y-9207500D01*
X14160500Y-9007475D01*
X13960475Y-9207500D01*
X14160500Y-9407525D01*
X15443200Y-5407025D02*
X15643225Y-5207000D01*
X15443200Y-5006975D01*
X15243175Y-5207000D01*
X15443200Y-5407025D01*
X15443200Y-12411075D02*
X15643225Y-12211050D01*
X15443200Y-12011025D01*
X15243175Y-12211050D01*
X15443200Y-12411075D01*
X17449800Y-5407025D02*
X17649825Y-5207000D01*
X17449800Y-5006975D01*
X17249775Y-5207000D01*
X17449800Y-5407025D01*
X17449800Y-12411075D02*
X17649825Y-12211050D01*
X17449800Y-12011025D01*
X17249775Y-12211050D01*
X17449800Y-12411075D01*
D13*
X8899929Y-15141714D02*
X8899929Y-14841714D01*
X8971357Y-14841714D01*
X9014214Y-14856000D01*
X9042786Y-14884571D01*
X9057071Y-14913143D01*
X9071357Y-14970286D01*
X9071357Y-15013143D01*
X9057071Y-15070286D01*
X9042786Y-15098857D01*
X9014214Y-15127429D01*
X8971357Y-15141714D01*
X8899929Y-15141714D01*
X9199929Y-15141714D02*
X9199929Y-14941714D01*
X9199929Y-14998857D02*
X9214214Y-14970286D01*
X9228500Y-14956000D01*
X9257071Y-14941714D01*
X9285643Y-14941714D01*
X9385643Y-15141714D02*
X9385643Y-14941714D01*
X9385643Y-14841714D02*
X9371357Y-14856000D01*
X9385643Y-14870286D01*
X9399929Y-14856000D01*
X9385643Y-14841714D01*
X9385643Y-14870286D01*
X9571357Y-15141714D02*
X9542786Y-15127429D01*
X9528500Y-15098857D01*
X9528500Y-14841714D01*
X9728500Y-15141714D02*
X9699929Y-15127429D01*
X9685643Y-15098857D01*
X9685643Y-14841714D01*
X10071357Y-15141714D02*
X10071357Y-14841714D01*
X10171357Y-15056000D01*
X10271357Y-14841714D01*
X10271357Y-15141714D01*
X10542786Y-15141714D02*
X10542786Y-14984571D01*
X10528500Y-14956000D01*
X10499929Y-14941714D01*
X10442786Y-14941714D01*
X10414214Y-14956000D01*
X10542786Y-15127429D02*
X10514214Y-15141714D01*
X10442786Y-15141714D01*
X10414214Y-15127429D01*
X10399929Y-15098857D01*
X10399929Y-15070286D01*
X10414214Y-15041714D01*
X10442786Y-15027429D01*
X10514214Y-15027429D01*
X10542786Y-15013143D01*
X10685643Y-14941714D02*
X10685643Y-15241714D01*
X10685643Y-14956000D02*
X10714214Y-14941714D01*
X10771357Y-14941714D01*
X10799929Y-14956000D01*
X10814214Y-14970286D01*
X10828500Y-14998857D01*
X10828500Y-15084571D01*
X10814214Y-15113143D01*
X10799929Y-15127429D01*
X10771357Y-15141714D01*
X10714214Y-15141714D01*
X10685643Y-15127429D01*
X10957071Y-15113143D02*
X10971357Y-15127429D01*
X10957071Y-15141714D01*
X10942786Y-15127429D01*
X10957071Y-15113143D01*
X10957071Y-15141714D01*
X10957071Y-14956000D02*
X10971357Y-14970286D01*
X10957071Y-14984571D01*
X10942786Y-14970286D01*
X10957071Y-14956000D01*
X10957071Y-14984571D01*
X8568500Y-15606000D02*
X8628500Y-15666000D01*
X8628500Y-15606000D02*
X8568500Y-15666000D01*
X8957071Y-15471714D02*
X8985643Y-15471714D01*
X9014214Y-15486000D01*
X9028500Y-15500286D01*
X9042786Y-15528857D01*
X9057071Y-15586000D01*
X9057071Y-15657429D01*
X9042786Y-15714571D01*
X9028500Y-15743143D01*
X9014214Y-15757429D01*
X8985643Y-15771714D01*
X8957071Y-15771714D01*
X8928500Y-15757429D01*
X8914214Y-15743143D01*
X8899929Y-15714571D01*
X8885643Y-15657429D01*
X8885643Y-15586000D01*
X8899929Y-15528857D01*
X8914214Y-15500286D01*
X8928500Y-15486000D01*
X8957071Y-15471714D01*
X9185643Y-15743143D02*
X9199929Y-15757429D01*
X9185643Y-15771714D01*
X9171357Y-15757429D01*
X9185643Y-15743143D01*
X9185643Y-15771714D01*
X9457071Y-15471714D02*
X9399928Y-15471714D01*
X9371357Y-15486000D01*
X9357071Y-15500286D01*
X9328500Y-15543143D01*
X9314214Y-15600286D01*
X9314214Y-15714571D01*
X9328500Y-15743143D01*
X9342786Y-15757429D01*
X9371357Y-15771714D01*
X9428500Y-15771714D01*
X9457071Y-15757429D01*
X9471357Y-15743143D01*
X9485643Y-15714571D01*
X9485643Y-15643143D01*
X9471357Y-15614571D01*
X9457071Y-15600286D01*
X9428500Y-15586000D01*
X9371357Y-15586000D01*
X9342786Y-15600286D01*
X9328500Y-15614571D01*
X9314214Y-15643143D01*
X9671357Y-15471714D02*
X9699929Y-15471714D01*
X9728500Y-15486000D01*
X9742786Y-15500286D01*
X9757071Y-15528857D01*
X9771357Y-15586000D01*
X9771357Y-15657429D01*
X9757071Y-15714571D01*
X9742786Y-15743143D01*
X9728500Y-15757429D01*
X9699929Y-15771714D01*
X9671357Y-15771714D01*
X9642786Y-15757429D01*
X9628500Y-15743143D01*
X9614214Y-15714571D01*
X9599929Y-15657429D01*
X9599929Y-15586000D01*
X9614214Y-15528857D01*
X9628500Y-15500286D01*
X9642786Y-15486000D01*
X9671357Y-15471714D01*
X9899929Y-15771714D02*
X9899929Y-15571714D01*
X9899929Y-15600286D02*
X9914214Y-15586000D01*
X9942786Y-15571714D01*
X9985643Y-15571714D01*
X10014214Y-15586000D01*
X10028500Y-15614571D01*
X10028500Y-15771714D01*
X10028500Y-15614571D02*
X10042786Y-15586000D01*
X10071357Y-15571714D01*
X10114214Y-15571714D01*
X10142786Y-15586000D01*
X10157071Y-15614571D01*
X10157071Y-15771714D01*
X10299929Y-15771714D02*
X10299929Y-15571714D01*
X10299929Y-15600286D02*
X10314214Y-15586000D01*
X10342786Y-15571714D01*
X10385643Y-15571714D01*
X10414214Y-15586000D01*
X10428500Y-15614571D01*
X10428500Y-15771714D01*
X10428500Y-15614571D02*
X10442786Y-15586000D01*
X10471357Y-15571714D01*
X10514214Y-15571714D01*
X10542786Y-15586000D01*
X10557071Y-15614571D01*
X10557071Y-15771714D01*
X11142786Y-15457429D02*
X10885643Y-15843143D01*
X11528500Y-15471714D02*
X11557071Y-15471714D01*
X11585643Y-15486000D01*
X11599928Y-15500286D01*
X11614214Y-15528857D01*
X11628500Y-15586000D01*
X11628500Y-15657429D01*
X11614214Y-15714571D01*
X11599928Y-15743143D01*
X11585643Y-15757429D01*
X11557071Y-15771714D01*
X11528500Y-15771714D01*
X11499928Y-15757429D01*
X11485643Y-15743143D01*
X11471357Y-15714571D01*
X11457071Y-15657429D01*
X11457071Y-15586000D01*
X11471357Y-15528857D01*
X11485643Y-15500286D01*
X11499928Y-15486000D01*
X11528500Y-15471714D01*
X11757071Y-15743143D02*
X11771357Y-15757429D01*
X11757071Y-15771714D01*
X11742786Y-15757429D01*
X11757071Y-15743143D01*
X11757071Y-15771714D01*
X11957071Y-15471714D02*
X11985643Y-15471714D01*
X12014214Y-15486000D01*
X12028500Y-15500286D01*
X12042785Y-15528857D01*
X12057071Y-15586000D01*
X12057071Y-15657429D01*
X12042785Y-15714571D01*
X12028500Y-15743143D01*
X12014214Y-15757429D01*
X11985643Y-15771714D01*
X11957071Y-15771714D01*
X11928500Y-15757429D01*
X11914214Y-15743143D01*
X11899928Y-15714571D01*
X11885643Y-15657429D01*
X11885643Y-15586000D01*
X11899928Y-15528857D01*
X11914214Y-15500286D01*
X11928500Y-15486000D01*
X11957071Y-15471714D01*
X12171357Y-15500286D02*
X12185643Y-15486000D01*
X12214214Y-15471714D01*
X12285643Y-15471714D01*
X12314214Y-15486000D01*
X12328500Y-15500286D01*
X12342785Y-15528857D01*
X12342785Y-15557429D01*
X12328500Y-15600286D01*
X12157071Y-15771714D01*
X12342785Y-15771714D01*
X12599928Y-15571714D02*
X12599928Y-15771714D01*
X12528500Y-15457429D02*
X12457071Y-15671714D01*
X12642785Y-15671714D01*
X12742786Y-15471714D02*
X12742786Y-15528857D01*
X12857071Y-15471714D02*
X12857071Y-15528857D01*
X13299928Y-15886000D02*
X13285643Y-15871714D01*
X13257071Y-15828857D01*
X13242785Y-15800286D01*
X13228500Y-15757429D01*
X13214214Y-15686000D01*
X13214214Y-15628857D01*
X13228500Y-15557429D01*
X13242785Y-15514571D01*
X13257071Y-15486000D01*
X13285643Y-15443143D01*
X13299928Y-15428857D01*
X13557071Y-15471714D02*
X13414214Y-15471714D01*
X13399928Y-15614571D01*
X13414214Y-15600286D01*
X13442785Y-15586000D01*
X13514214Y-15586000D01*
X13542785Y-15600286D01*
X13557071Y-15614571D01*
X13571357Y-15643143D01*
X13571357Y-15714571D01*
X13557071Y-15743143D01*
X13542785Y-15757429D01*
X13514214Y-15771714D01*
X13442785Y-15771714D01*
X13414214Y-15757429D01*
X13399928Y-15743143D01*
X13671357Y-15471714D02*
X13871357Y-15471714D01*
X13742785Y-15771714D01*
X14214214Y-15771714D02*
X14214214Y-15471714D01*
X14342785Y-15771714D02*
X14342785Y-15614571D01*
X14328500Y-15586000D01*
X14299928Y-15571714D01*
X14257071Y-15571714D01*
X14228500Y-15586000D01*
X14214214Y-15600286D01*
X14528500Y-15771714D02*
X14499928Y-15757429D01*
X14485643Y-15743143D01*
X14471357Y-15714571D01*
X14471357Y-15628857D01*
X14485643Y-15600286D01*
X14499928Y-15586000D01*
X14528500Y-15571714D01*
X14571357Y-15571714D01*
X14599928Y-15586000D01*
X14614214Y-15600286D01*
X14628500Y-15628857D01*
X14628500Y-15714571D01*
X14614214Y-15743143D01*
X14599928Y-15757429D01*
X14571357Y-15771714D01*
X14528500Y-15771714D01*
X14799928Y-15771714D02*
X14771357Y-15757429D01*
X14757071Y-15728857D01*
X14757071Y-15471714D01*
X15028500Y-15757429D02*
X14999928Y-15771714D01*
X14942786Y-15771714D01*
X14914214Y-15757429D01*
X14899928Y-15728857D01*
X14899928Y-15614571D01*
X14914214Y-15586000D01*
X14942786Y-15571714D01*
X14999928Y-15571714D01*
X15028500Y-15586000D01*
X15042786Y-15614571D01*
X15042786Y-15643143D01*
X14899928Y-15671714D01*
X15157071Y-15757429D02*
X15185643Y-15771714D01*
X15242786Y-15771714D01*
X15271357Y-15757429D01*
X15285643Y-15728857D01*
X15285643Y-15714571D01*
X15271357Y-15686000D01*
X15242786Y-15671714D01*
X15199928Y-15671714D01*
X15171357Y-15657429D01*
X15157071Y-15628857D01*
X15157071Y-15614571D01*
X15171357Y-15586000D01*
X15199928Y-15571714D01*
X15242786Y-15571714D01*
X15271357Y-15586000D01*
X15385643Y-15886000D02*
X15399928Y-15871714D01*
X15428500Y-15828857D01*
X15442786Y-15800286D01*
X15457071Y-15757429D01*
X15471357Y-15686000D01*
X15471357Y-15628857D01*
X15457071Y-15557429D01*
X15442786Y-15514571D01*
X15428500Y-15486000D01*
X15399928Y-15443143D01*
X15385643Y-15428857D01*
X8628500Y-16032000D02*
G75*
G03X8628500Y-16032000I-40640J0D01*
G01*
X8957071Y-15867714D02*
X8985643Y-15867714D01*
X9014214Y-15882000D01*
X9028500Y-15896286D01*
X9042786Y-15924857D01*
X9057071Y-15982000D01*
X9057071Y-16053429D01*
X9042786Y-16110571D01*
X9028500Y-16139143D01*
X9014214Y-16153429D01*
X8985643Y-16167714D01*
X8957071Y-16167714D01*
X8928500Y-16153429D01*
X8914214Y-16139143D01*
X8899929Y-16110571D01*
X8885643Y-16053429D01*
X8885643Y-15982000D01*
X8899929Y-15924857D01*
X8914214Y-15896286D01*
X8928500Y-15882000D01*
X8957071Y-15867714D01*
X9185643Y-16139143D02*
X9199929Y-16153429D01*
X9185643Y-16167714D01*
X9171357Y-16153429D01*
X9185643Y-16139143D01*
X9185643Y-16167714D01*
X9371357Y-15996286D02*
X9342786Y-15982000D01*
X9328500Y-15967714D01*
X9314214Y-15939143D01*
X9314214Y-15924857D01*
X9328500Y-15896286D01*
X9342786Y-15882000D01*
X9371357Y-15867714D01*
X9428500Y-15867714D01*
X9457071Y-15882000D01*
X9471357Y-15896286D01*
X9485643Y-15924857D01*
X9485643Y-15939143D01*
X9471357Y-15967714D01*
X9457071Y-15982000D01*
X9428500Y-15996286D01*
X9371357Y-15996286D01*
X9342786Y-16010571D01*
X9328500Y-16024857D01*
X9314214Y-16053429D01*
X9314214Y-16110571D01*
X9328500Y-16139143D01*
X9342786Y-16153429D01*
X9371357Y-16167714D01*
X9428500Y-16167714D01*
X9457071Y-16153429D01*
X9471357Y-16139143D01*
X9485643Y-16110571D01*
X9485643Y-16053429D01*
X9471357Y-16024857D01*
X9457071Y-16010571D01*
X9428500Y-15996286D01*
X9771357Y-16167714D02*
X9599929Y-16167714D01*
X9685643Y-16167714D02*
X9685643Y-15867714D01*
X9657071Y-15910571D01*
X9628500Y-15939143D01*
X9599929Y-15953429D01*
X9899929Y-16167714D02*
X9899929Y-15967714D01*
X9899929Y-15996286D02*
X9914214Y-15982000D01*
X9942786Y-15967714D01*
X9985643Y-15967714D01*
X10014214Y-15982000D01*
X10028500Y-16010571D01*
X10028500Y-16167714D01*
X10028500Y-16010571D02*
X10042786Y-15982000D01*
X10071357Y-15967714D01*
X10114214Y-15967714D01*
X10142786Y-15982000D01*
X10157071Y-16010571D01*
X10157071Y-16167714D01*
X10299929Y-16167714D02*
X10299929Y-15967714D01*
X10299929Y-15996286D02*
X10314214Y-15982000D01*
X10342786Y-15967714D01*
X10385643Y-15967714D01*
X10414214Y-15982000D01*
X10428500Y-16010571D01*
X10428500Y-16167714D01*
X10428500Y-16010571D02*
X10442786Y-15982000D01*
X10471357Y-15967714D01*
X10514214Y-15967714D01*
X10542786Y-15982000D01*
X10557071Y-16010571D01*
X10557071Y-16167714D01*
X11142786Y-15853429D02*
X10885643Y-16239143D01*
X11528500Y-15867714D02*
X11557071Y-15867714D01*
X11585643Y-15882000D01*
X11599928Y-15896286D01*
X11614214Y-15924857D01*
X11628500Y-15982000D01*
X11628500Y-16053429D01*
X11614214Y-16110571D01*
X11599928Y-16139143D01*
X11585643Y-16153429D01*
X11557071Y-16167714D01*
X11528500Y-16167714D01*
X11499928Y-16153429D01*
X11485643Y-16139143D01*
X11471357Y-16110571D01*
X11457071Y-16053429D01*
X11457071Y-15982000D01*
X11471357Y-15924857D01*
X11485643Y-15896286D01*
X11499928Y-15882000D01*
X11528500Y-15867714D01*
X11757071Y-16139143D02*
X11771357Y-16153429D01*
X11757071Y-16167714D01*
X11742786Y-16153429D01*
X11757071Y-16139143D01*
X11757071Y-16167714D01*
X11957071Y-15867714D02*
X11985643Y-15867714D01*
X12014214Y-15882000D01*
X12028500Y-15896286D01*
X12042785Y-15924857D01*
X12057071Y-15982000D01*
X12057071Y-16053429D01*
X12042785Y-16110571D01*
X12028500Y-16139143D01*
X12014214Y-16153429D01*
X11985643Y-16167714D01*
X11957071Y-16167714D01*
X11928500Y-16153429D01*
X11914214Y-16139143D01*
X11899928Y-16110571D01*
X11885643Y-16053429D01*
X11885643Y-15982000D01*
X11899928Y-15924857D01*
X11914214Y-15896286D01*
X11928500Y-15882000D01*
X11957071Y-15867714D01*
X12157071Y-15867714D02*
X12342785Y-15867714D01*
X12242785Y-15982000D01*
X12285643Y-15982000D01*
X12314214Y-15996286D01*
X12328500Y-16010571D01*
X12342785Y-16039143D01*
X12342785Y-16110571D01*
X12328500Y-16139143D01*
X12314214Y-16153429D01*
X12285643Y-16167714D01*
X12199928Y-16167714D01*
X12171357Y-16153429D01*
X12157071Y-16139143D01*
X12457071Y-15896286D02*
X12471357Y-15882000D01*
X12499928Y-15867714D01*
X12571357Y-15867714D01*
X12599928Y-15882000D01*
X12614214Y-15896286D01*
X12628500Y-15924857D01*
X12628500Y-15953429D01*
X12614214Y-15996286D01*
X12442785Y-16167714D01*
X12628500Y-16167714D01*
X12742786Y-15867714D02*
X12742786Y-15924857D01*
X12857071Y-15867714D02*
X12857071Y-15924857D01*
X13299928Y-16282000D02*
X13285643Y-16267714D01*
X13257071Y-16224857D01*
X13242785Y-16196286D01*
X13228500Y-16153429D01*
X13214214Y-16082000D01*
X13214214Y-16024857D01*
X13228500Y-15953429D01*
X13242785Y-15910571D01*
X13257071Y-15882000D01*
X13285643Y-15839143D01*
X13299928Y-15824857D01*
X13542785Y-15967714D02*
X13542785Y-16167714D01*
X13471357Y-15853429D02*
X13399928Y-16067714D01*
X13585643Y-16067714D01*
X13742785Y-15996286D02*
X13714214Y-15982000D01*
X13699928Y-15967714D01*
X13685643Y-15939143D01*
X13685643Y-15924857D01*
X13699928Y-15896286D01*
X13714214Y-15882000D01*
X13742785Y-15867714D01*
X13799928Y-15867714D01*
X13828500Y-15882000D01*
X13842785Y-15896286D01*
X13857071Y-15924857D01*
X13857071Y-15939143D01*
X13842785Y-15967714D01*
X13828500Y-15982000D01*
X13799928Y-15996286D01*
X13742785Y-15996286D01*
X13714214Y-16010571D01*
X13699928Y-16024857D01*
X13685643Y-16053429D01*
X13685643Y-16110571D01*
X13699928Y-16139143D01*
X13714214Y-16153429D01*
X13742785Y-16167714D01*
X13799928Y-16167714D01*
X13828500Y-16153429D01*
X13842785Y-16139143D01*
X13857071Y-16110571D01*
X13857071Y-16053429D01*
X13842785Y-16024857D01*
X13828500Y-16010571D01*
X13799928Y-15996286D01*
X14214214Y-16167714D02*
X14214214Y-15867714D01*
X14342785Y-16167714D02*
X14342785Y-16010571D01*
X14328500Y-15982000D01*
X14299928Y-15967714D01*
X14257071Y-15967714D01*
X14228500Y-15982000D01*
X14214214Y-15996286D01*
X14528500Y-16167714D02*
X14499928Y-16153429D01*
X14485643Y-16139143D01*
X14471357Y-16110571D01*
X14471357Y-16024857D01*
X14485643Y-15996286D01*
X14499928Y-15982000D01*
X14528500Y-15967714D01*
X14571357Y-15967714D01*
X14599928Y-15982000D01*
X14614214Y-15996286D01*
X14628500Y-16024857D01*
X14628500Y-16110571D01*
X14614214Y-16139143D01*
X14599928Y-16153429D01*
X14571357Y-16167714D01*
X14528500Y-16167714D01*
X14799928Y-16167714D02*
X14771357Y-16153429D01*
X14757071Y-16124857D01*
X14757071Y-15867714D01*
X15028500Y-16153429D02*
X14999928Y-16167714D01*
X14942786Y-16167714D01*
X14914214Y-16153429D01*
X14899928Y-16124857D01*
X14899928Y-16010571D01*
X14914214Y-15982000D01*
X14942786Y-15967714D01*
X14999928Y-15967714D01*
X15028500Y-15982000D01*
X15042786Y-16010571D01*
X15042786Y-16039143D01*
X14899928Y-16067714D01*
X15157071Y-16153429D02*
X15185643Y-16167714D01*
X15242786Y-16167714D01*
X15271357Y-16153429D01*
X15285643Y-16124857D01*
X15285643Y-16110571D01*
X15271357Y-16082000D01*
X15242786Y-16067714D01*
X15199928Y-16067714D01*
X15171357Y-16053429D01*
X15157071Y-16024857D01*
X15157071Y-16010571D01*
X15171357Y-15982000D01*
X15199928Y-15967714D01*
X15242786Y-15967714D01*
X15271357Y-15982000D01*
X15385643Y-16282000D02*
X15399928Y-16267714D01*
X15428500Y-16224857D01*
X15442786Y-16196286D01*
X15457071Y-16153429D01*
X15471357Y-16082000D01*
X15471357Y-16024857D01*
X15457071Y-15953429D01*
X15442786Y-15910571D01*
X15428500Y-15882000D01*
X15399928Y-15839143D01*
X15385643Y-15824857D01*
X8578462Y-16377962D02*
X8578462Y-16478038D01*
X8528424Y-16428000D02*
X8628500Y-16428000D01*
X9057071Y-16563714D02*
X8885643Y-16563714D01*
X8971357Y-16563714D02*
X8971357Y-16263714D01*
X8942786Y-16306571D01*
X8914214Y-16335143D01*
X8885643Y-16349429D01*
X9185643Y-16535143D02*
X9199929Y-16549429D01*
X9185643Y-16563714D01*
X9171357Y-16549429D01*
X9185643Y-16535143D01*
X9185643Y-16563714D01*
X9385643Y-16263714D02*
X9414214Y-16263714D01*
X9442786Y-16278000D01*
X9457071Y-16292286D01*
X9471357Y-16320857D01*
X9485643Y-16378000D01*
X9485643Y-16449429D01*
X9471357Y-16506571D01*
X9457071Y-16535143D01*
X9442786Y-16549429D01*
X9414214Y-16563714D01*
X9385643Y-16563714D01*
X9357071Y-16549429D01*
X9342786Y-16535143D01*
X9328500Y-16506571D01*
X9314214Y-16449429D01*
X9314214Y-16378000D01*
X9328500Y-16320857D01*
X9342786Y-16292286D01*
X9357071Y-16278000D01*
X9385643Y-16263714D01*
X9671357Y-16263714D02*
X9699929Y-16263714D01*
X9728500Y-16278000D01*
X9742786Y-16292286D01*
X9757071Y-16320857D01*
X9771357Y-16378000D01*
X9771357Y-16449429D01*
X9757071Y-16506571D01*
X9742786Y-16535143D01*
X9728500Y-16549429D01*
X9699929Y-16563714D01*
X9671357Y-16563714D01*
X9642786Y-16549429D01*
X9628500Y-16535143D01*
X9614214Y-16506571D01*
X9599929Y-16449429D01*
X9599929Y-16378000D01*
X9614214Y-16320857D01*
X9628500Y-16292286D01*
X9642786Y-16278000D01*
X9671357Y-16263714D01*
X9899929Y-16563714D02*
X9899929Y-16363714D01*
X9899929Y-16392286D02*
X9914214Y-16378000D01*
X9942786Y-16363714D01*
X9985643Y-16363714D01*
X10014214Y-16378000D01*
X10028500Y-16406571D01*
X10028500Y-16563714D01*
X10028500Y-16406571D02*
X10042786Y-16378000D01*
X10071357Y-16363714D01*
X10114214Y-16363714D01*
X10142786Y-16378000D01*
X10157071Y-16406571D01*
X10157071Y-16563714D01*
X10299929Y-16563714D02*
X10299929Y-16363714D01*
X10299929Y-16392286D02*
X10314214Y-16378000D01*
X10342786Y-16363714D01*
X10385643Y-16363714D01*
X10414214Y-16378000D01*
X10428500Y-16406571D01*
X10428500Y-16563714D01*
X10428500Y-16406571D02*
X10442786Y-16378000D01*
X10471357Y-16363714D01*
X10514214Y-16363714D01*
X10542786Y-16378000D01*
X10557071Y-16406571D01*
X10557071Y-16563714D01*
X11142786Y-16249429D02*
X10885643Y-16635143D01*
X11528500Y-16263714D02*
X11557071Y-16263714D01*
X11585643Y-16278000D01*
X11599928Y-16292286D01*
X11614214Y-16320857D01*
X11628500Y-16378000D01*
X11628500Y-16449429D01*
X11614214Y-16506571D01*
X11599928Y-16535143D01*
X11585643Y-16549429D01*
X11557071Y-16563714D01*
X11528500Y-16563714D01*
X11499928Y-16549429D01*
X11485643Y-16535143D01*
X11471357Y-16506571D01*
X11457071Y-16449429D01*
X11457071Y-16378000D01*
X11471357Y-16320857D01*
X11485643Y-16292286D01*
X11499928Y-16278000D01*
X11528500Y-16263714D01*
X11757071Y-16535143D02*
X11771357Y-16549429D01*
X11757071Y-16563714D01*
X11742786Y-16549429D01*
X11757071Y-16535143D01*
X11757071Y-16563714D01*
X11957071Y-16263714D02*
X11985643Y-16263714D01*
X12014214Y-16278000D01*
X12028500Y-16292286D01*
X12042785Y-16320857D01*
X12057071Y-16378000D01*
X12057071Y-16449429D01*
X12042785Y-16506571D01*
X12028500Y-16535143D01*
X12014214Y-16549429D01*
X11985643Y-16563714D01*
X11957071Y-16563714D01*
X11928500Y-16549429D01*
X11914214Y-16535143D01*
X11899928Y-16506571D01*
X11885643Y-16449429D01*
X11885643Y-16378000D01*
X11899928Y-16320857D01*
X11914214Y-16292286D01*
X11928500Y-16278000D01*
X11957071Y-16263714D01*
X12157071Y-16263714D02*
X12342785Y-16263714D01*
X12242785Y-16378000D01*
X12285643Y-16378000D01*
X12314214Y-16392286D01*
X12328500Y-16406571D01*
X12342785Y-16435143D01*
X12342785Y-16506571D01*
X12328500Y-16535143D01*
X12314214Y-16549429D01*
X12285643Y-16563714D01*
X12199928Y-16563714D01*
X12171357Y-16549429D01*
X12157071Y-16535143D01*
X12485643Y-16563714D02*
X12542785Y-16563714D01*
X12571357Y-16549429D01*
X12585643Y-16535143D01*
X12614214Y-16492286D01*
X12628500Y-16435143D01*
X12628500Y-16320857D01*
X12614214Y-16292286D01*
X12599928Y-16278000D01*
X12571357Y-16263714D01*
X12514214Y-16263714D01*
X12485643Y-16278000D01*
X12471357Y-16292286D01*
X12457071Y-16320857D01*
X12457071Y-16392286D01*
X12471357Y-16420857D01*
X12485643Y-16435143D01*
X12514214Y-16449429D01*
X12571357Y-16449429D01*
X12599928Y-16435143D01*
X12614214Y-16420857D01*
X12628500Y-16392286D01*
X12742786Y-16263714D02*
X12742786Y-16320857D01*
X12857071Y-16263714D02*
X12857071Y-16320857D01*
X13299928Y-16678000D02*
X13285643Y-16663714D01*
X13257071Y-16620857D01*
X13242785Y-16592286D01*
X13228500Y-16549429D01*
X13214214Y-16478000D01*
X13214214Y-16420857D01*
X13228500Y-16349429D01*
X13242785Y-16306571D01*
X13257071Y-16278000D01*
X13285643Y-16235143D01*
X13299928Y-16220857D01*
X13428500Y-16563714D02*
X13485643Y-16563714D01*
X13514214Y-16549429D01*
X13528500Y-16535143D01*
X13557071Y-16492286D01*
X13571357Y-16435143D01*
X13571357Y-16320857D01*
X13557071Y-16292286D01*
X13542785Y-16278000D01*
X13514214Y-16263714D01*
X13457071Y-16263714D01*
X13428500Y-16278000D01*
X13414214Y-16292286D01*
X13399928Y-16320857D01*
X13399928Y-16392286D01*
X13414214Y-16420857D01*
X13428500Y-16435143D01*
X13457071Y-16449429D01*
X13514214Y-16449429D01*
X13542785Y-16435143D01*
X13557071Y-16420857D01*
X13571357Y-16392286D01*
X13685643Y-16292286D02*
X13699928Y-16278000D01*
X13728500Y-16263714D01*
X13799928Y-16263714D01*
X13828500Y-16278000D01*
X13842785Y-16292286D01*
X13857071Y-16320857D01*
X13857071Y-16349429D01*
X13842785Y-16392286D01*
X13671357Y-16563714D01*
X13857071Y-16563714D01*
X14214214Y-16563714D02*
X14214214Y-16263714D01*
X14342785Y-16563714D02*
X14342785Y-16406571D01*
X14328500Y-16378000D01*
X14299928Y-16363714D01*
X14257071Y-16363714D01*
X14228500Y-16378000D01*
X14214214Y-16392286D01*
X14528500Y-16563714D02*
X14499928Y-16549429D01*
X14485643Y-16535143D01*
X14471357Y-16506571D01*
X14471357Y-16420857D01*
X14485643Y-16392286D01*
X14499928Y-16378000D01*
X14528500Y-16363714D01*
X14571357Y-16363714D01*
X14599928Y-16378000D01*
X14614214Y-16392286D01*
X14628500Y-16420857D01*
X14628500Y-16506571D01*
X14614214Y-16535143D01*
X14599928Y-16549429D01*
X14571357Y-16563714D01*
X14528500Y-16563714D01*
X14799928Y-16563714D02*
X14771357Y-16549429D01*
X14757071Y-16520857D01*
X14757071Y-16263714D01*
X15028500Y-16549429D02*
X14999928Y-16563714D01*
X14942786Y-16563714D01*
X14914214Y-16549429D01*
X14899928Y-16520857D01*
X14899928Y-16406571D01*
X14914214Y-16378000D01*
X14942786Y-16363714D01*
X14999928Y-16363714D01*
X15028500Y-16378000D01*
X15042786Y-16406571D01*
X15042786Y-16435143D01*
X14899928Y-16463714D01*
X15157071Y-16549429D02*
X15185643Y-16563714D01*
X15242786Y-16563714D01*
X15271357Y-16549429D01*
X15285643Y-16520857D01*
X15285643Y-16506571D01*
X15271357Y-16478000D01*
X15242786Y-16463714D01*
X15199928Y-16463714D01*
X15171357Y-16449429D01*
X15157071Y-16420857D01*
X15157071Y-16406571D01*
X15171357Y-16378000D01*
X15199928Y-16363714D01*
X15242786Y-16363714D01*
X15271357Y-16378000D01*
X15385643Y-16678000D02*
X15399928Y-16663714D01*
X15428500Y-16620857D01*
X15442786Y-16592286D01*
X15457071Y-16549429D01*
X15471357Y-16478000D01*
X15471357Y-16420857D01*
X15457071Y-16349429D01*
X15442786Y-16306571D01*
X15428500Y-16278000D01*
X15399928Y-16235143D01*
X15385643Y-16220857D01*
X8580888Y-16938949D02*
X8580888Y-16709052D01*
X8350991Y-16709052D01*
X8350991Y-16938949D01*
X8580888Y-16938949D01*
X8871357Y-16659714D02*
X9057071Y-16659714D01*
X8957071Y-16774000D01*
X8999929Y-16774000D01*
X9028500Y-16788286D01*
X9042786Y-16802572D01*
X9057071Y-16831143D01*
X9057071Y-16902572D01*
X9042786Y-16931143D01*
X9028500Y-16945429D01*
X8999929Y-16959714D01*
X8914214Y-16959714D01*
X8885643Y-16945429D01*
X8871357Y-16931143D01*
X9185643Y-16931143D02*
X9199929Y-16945429D01*
X9185643Y-16959714D01*
X9171357Y-16945429D01*
X9185643Y-16931143D01*
X9185643Y-16959714D01*
X9314214Y-16688286D02*
X9328500Y-16674000D01*
X9357071Y-16659714D01*
X9428500Y-16659714D01*
X9457071Y-16674000D01*
X9471357Y-16688286D01*
X9485643Y-16716857D01*
X9485643Y-16745429D01*
X9471357Y-16788286D01*
X9299928Y-16959714D01*
X9485643Y-16959714D01*
X9757071Y-16659714D02*
X9614214Y-16659714D01*
X9599929Y-16802572D01*
X9614214Y-16788286D01*
X9642786Y-16774000D01*
X9714214Y-16774000D01*
X9742786Y-16788286D01*
X9757071Y-16802572D01*
X9771357Y-16831143D01*
X9771357Y-16902572D01*
X9757071Y-16931143D01*
X9742786Y-16945429D01*
X9714214Y-16959714D01*
X9642786Y-16959714D01*
X9614214Y-16945429D01*
X9599929Y-16931143D01*
X9899929Y-16959714D02*
X9899929Y-16759714D01*
X9899929Y-16788286D02*
X9914214Y-16774000D01*
X9942786Y-16759714D01*
X9985643Y-16759714D01*
X10014214Y-16774000D01*
X10028500Y-16802572D01*
X10028500Y-16959714D01*
X10028500Y-16802572D02*
X10042786Y-16774000D01*
X10071357Y-16759714D01*
X10114214Y-16759714D01*
X10142786Y-16774000D01*
X10157071Y-16802572D01*
X10157071Y-16959714D01*
X10299929Y-16959714D02*
X10299929Y-16759714D01*
X10299929Y-16788286D02*
X10314214Y-16774000D01*
X10342786Y-16759714D01*
X10385643Y-16759714D01*
X10414214Y-16774000D01*
X10428500Y-16802572D01*
X10428500Y-16959714D01*
X10428500Y-16802572D02*
X10442786Y-16774000D01*
X10471357Y-16759714D01*
X10514214Y-16759714D01*
X10542786Y-16774000D01*
X10557071Y-16802572D01*
X10557071Y-16959714D01*
X11142786Y-16645429D02*
X10885643Y-17031143D01*
X11528500Y-16659714D02*
X11557071Y-16659714D01*
X11585643Y-16674000D01*
X11599928Y-16688286D01*
X11614214Y-16716857D01*
X11628500Y-16774000D01*
X11628500Y-16845429D01*
X11614214Y-16902572D01*
X11599928Y-16931143D01*
X11585643Y-16945429D01*
X11557071Y-16959714D01*
X11528500Y-16959714D01*
X11499928Y-16945429D01*
X11485643Y-16931143D01*
X11471357Y-16902572D01*
X11457071Y-16845429D01*
X11457071Y-16774000D01*
X11471357Y-16716857D01*
X11485643Y-16688286D01*
X11499928Y-16674000D01*
X11528500Y-16659714D01*
X11757071Y-16931143D02*
X11771357Y-16945429D01*
X11757071Y-16959714D01*
X11742786Y-16945429D01*
X11757071Y-16931143D01*
X11757071Y-16959714D01*
X12057071Y-16959714D02*
X11885643Y-16959714D01*
X11971357Y-16959714D02*
X11971357Y-16659714D01*
X11942785Y-16702571D01*
X11914214Y-16731143D01*
X11885643Y-16745429D01*
X12171357Y-16688286D02*
X12185643Y-16674000D01*
X12214214Y-16659714D01*
X12285643Y-16659714D01*
X12314214Y-16674000D01*
X12328500Y-16688286D01*
X12342785Y-16716857D01*
X12342785Y-16745429D01*
X12328500Y-16788286D01*
X12157071Y-16959714D01*
X12342785Y-16959714D01*
X12514214Y-16788286D02*
X12485643Y-16774000D01*
X12471357Y-16759714D01*
X12457071Y-16731143D01*
X12457071Y-16716857D01*
X12471357Y-16688286D01*
X12485643Y-16674000D01*
X12514214Y-16659714D01*
X12571357Y-16659714D01*
X12599928Y-16674000D01*
X12614214Y-16688286D01*
X12628500Y-16716857D01*
X12628500Y-16731143D01*
X12614214Y-16759714D01*
X12599928Y-16774000D01*
X12571357Y-16788286D01*
X12514214Y-16788286D01*
X12485643Y-16802572D01*
X12471357Y-16816857D01*
X12457071Y-16845429D01*
X12457071Y-16902572D01*
X12471357Y-16931143D01*
X12485643Y-16945429D01*
X12514214Y-16959714D01*
X12571357Y-16959714D01*
X12599928Y-16945429D01*
X12614214Y-16931143D01*
X12628500Y-16902572D01*
X12628500Y-16845429D01*
X12614214Y-16816857D01*
X12599928Y-16802572D01*
X12571357Y-16788286D01*
X12742786Y-16659714D02*
X12742786Y-16716857D01*
X12857071Y-16659714D02*
X12857071Y-16716857D01*
X13299928Y-17074000D02*
X13285643Y-17059714D01*
X13257071Y-17016857D01*
X13242785Y-16988286D01*
X13228500Y-16945429D01*
X13214214Y-16874000D01*
X13214214Y-16816857D01*
X13228500Y-16745429D01*
X13242785Y-16702571D01*
X13257071Y-16674000D01*
X13285643Y-16631143D01*
X13299928Y-16616857D01*
X13571357Y-16959714D02*
X13399928Y-16959714D01*
X13485643Y-16959714D02*
X13485643Y-16659714D01*
X13457071Y-16702571D01*
X13428500Y-16731143D01*
X13399928Y-16745429D01*
X13828500Y-16659714D02*
X13771357Y-16659714D01*
X13742785Y-16674000D01*
X13728500Y-16688286D01*
X13699928Y-16731143D01*
X13685643Y-16788286D01*
X13685643Y-16902572D01*
X13699928Y-16931143D01*
X13714214Y-16945429D01*
X13742785Y-16959714D01*
X13799928Y-16959714D01*
X13828500Y-16945429D01*
X13842785Y-16931143D01*
X13857071Y-16902572D01*
X13857071Y-16831143D01*
X13842785Y-16802572D01*
X13828500Y-16788286D01*
X13799928Y-16774000D01*
X13742785Y-16774000D01*
X13714214Y-16788286D01*
X13699928Y-16802572D01*
X13685643Y-16831143D01*
X14214214Y-16959714D02*
X14214214Y-16659714D01*
X14342785Y-16959714D02*
X14342785Y-16802572D01*
X14328500Y-16774000D01*
X14299928Y-16759714D01*
X14257071Y-16759714D01*
X14228500Y-16774000D01*
X14214214Y-16788286D01*
X14528500Y-16959714D02*
X14499928Y-16945429D01*
X14485643Y-16931143D01*
X14471357Y-16902572D01*
X14471357Y-16816857D01*
X14485643Y-16788286D01*
X14499928Y-16774000D01*
X14528500Y-16759714D01*
X14571357Y-16759714D01*
X14599928Y-16774000D01*
X14614214Y-16788286D01*
X14628500Y-16816857D01*
X14628500Y-16902572D01*
X14614214Y-16931143D01*
X14599928Y-16945429D01*
X14571357Y-16959714D01*
X14528500Y-16959714D01*
X14799928Y-16959714D02*
X14771357Y-16945429D01*
X14757071Y-16916857D01*
X14757071Y-16659714D01*
X15028500Y-16945429D02*
X14999928Y-16959714D01*
X14942786Y-16959714D01*
X14914214Y-16945429D01*
X14899928Y-16916857D01*
X14899928Y-16802572D01*
X14914214Y-16774000D01*
X14942786Y-16759714D01*
X14999928Y-16759714D01*
X15028500Y-16774000D01*
X15042786Y-16802572D01*
X15042786Y-16831143D01*
X14899928Y-16859714D01*
X15157071Y-16945429D02*
X15185643Y-16959714D01*
X15242786Y-16959714D01*
X15271357Y-16945429D01*
X15285643Y-16916857D01*
X15285643Y-16902572D01*
X15271357Y-16874000D01*
X15242786Y-16859714D01*
X15199928Y-16859714D01*
X15171357Y-16845429D01*
X15157071Y-16816857D01*
X15157071Y-16802572D01*
X15171357Y-16774000D01*
X15199928Y-16759714D01*
X15242786Y-16759714D01*
X15271357Y-16774000D01*
X15385643Y-17074000D02*
X15399928Y-17059714D01*
X15428500Y-17016857D01*
X15442786Y-16988286D01*
X15457071Y-16945429D01*
X15471357Y-16874000D01*
X15471357Y-16816857D01*
X15457071Y-16745429D01*
X15442786Y-16702571D01*
X15428500Y-16674000D01*
X15399928Y-16631143D01*
X15385643Y-16616857D01*
X8428475Y-17479145D02*
X8628500Y-17279120D01*
X8428475Y-17079095D01*
X8228450Y-17279120D01*
X8428475Y-17479145D01*
X9028500Y-17214834D02*
X9028500Y-17414834D01*
X8957071Y-17100549D02*
X8885643Y-17314834D01*
X9071357Y-17314834D01*
X9185643Y-17386263D02*
X9199929Y-17400549D01*
X9185643Y-17414834D01*
X9171357Y-17400549D01*
X9185643Y-17386263D01*
X9185643Y-17414834D01*
X9385643Y-17114834D02*
X9414214Y-17114834D01*
X9442786Y-17129120D01*
X9457071Y-17143406D01*
X9471357Y-17171977D01*
X9485643Y-17229120D01*
X9485643Y-17300549D01*
X9471357Y-17357692D01*
X9457071Y-17386263D01*
X9442786Y-17400549D01*
X9414214Y-17414834D01*
X9385643Y-17414834D01*
X9357071Y-17400549D01*
X9342786Y-17386263D01*
X9328500Y-17357692D01*
X9314214Y-17300549D01*
X9314214Y-17229120D01*
X9328500Y-17171977D01*
X9342786Y-17143406D01*
X9357071Y-17129120D01*
X9385643Y-17114834D01*
X9671357Y-17114834D02*
X9699929Y-17114834D01*
X9728500Y-17129120D01*
X9742786Y-17143406D01*
X9757071Y-17171977D01*
X9771357Y-17229120D01*
X9771357Y-17300549D01*
X9757071Y-17357692D01*
X9742786Y-17386263D01*
X9728500Y-17400549D01*
X9699929Y-17414834D01*
X9671357Y-17414834D01*
X9642786Y-17400549D01*
X9628500Y-17386263D01*
X9614214Y-17357692D01*
X9599929Y-17300549D01*
X9599929Y-17229120D01*
X9614214Y-17171977D01*
X9628500Y-17143406D01*
X9642786Y-17129120D01*
X9671357Y-17114834D01*
X9899929Y-17414834D02*
X9899929Y-17214834D01*
X9899929Y-17243406D02*
X9914214Y-17229120D01*
X9942786Y-17214834D01*
X9985643Y-17214834D01*
X10014214Y-17229120D01*
X10028500Y-17257692D01*
X10028500Y-17414834D01*
X10028500Y-17257692D02*
X10042786Y-17229120D01*
X10071357Y-17214834D01*
X10114214Y-17214834D01*
X10142786Y-17229120D01*
X10157071Y-17257692D01*
X10157071Y-17414834D01*
X10299929Y-17414834D02*
X10299929Y-17214834D01*
X10299929Y-17243406D02*
X10314214Y-17229120D01*
X10342786Y-17214834D01*
X10385643Y-17214834D01*
X10414214Y-17229120D01*
X10428500Y-17257692D01*
X10428500Y-17414834D01*
X10428500Y-17257692D02*
X10442786Y-17229120D01*
X10471357Y-17214834D01*
X10514214Y-17214834D01*
X10542786Y-17229120D01*
X10557071Y-17257692D01*
X10557071Y-17414834D01*
X11142786Y-17100549D02*
X10885643Y-17486263D01*
X11528500Y-17114834D02*
X11557071Y-17114834D01*
X11585643Y-17129120D01*
X11599928Y-17143406D01*
X11614214Y-17171977D01*
X11628500Y-17229120D01*
X11628500Y-17300549D01*
X11614214Y-17357692D01*
X11599928Y-17386263D01*
X11585643Y-17400549D01*
X11557071Y-17414834D01*
X11528500Y-17414834D01*
X11499928Y-17400549D01*
X11485643Y-17386263D01*
X11471357Y-17357692D01*
X11457071Y-17300549D01*
X11457071Y-17229120D01*
X11471357Y-17171977D01*
X11485643Y-17143406D01*
X11499928Y-17129120D01*
X11528500Y-17114834D01*
X11757071Y-17386263D02*
X11771357Y-17400549D01*
X11757071Y-17414834D01*
X11742786Y-17400549D01*
X11757071Y-17386263D01*
X11757071Y-17414834D01*
X12057071Y-17414834D02*
X11885643Y-17414834D01*
X11971357Y-17414834D02*
X11971357Y-17114834D01*
X11942785Y-17157692D01*
X11914214Y-17186263D01*
X11885643Y-17200549D01*
X12328500Y-17114834D02*
X12185643Y-17114834D01*
X12171357Y-17257692D01*
X12185643Y-17243406D01*
X12214214Y-17229120D01*
X12285643Y-17229120D01*
X12314214Y-17243406D01*
X12328500Y-17257692D01*
X12342785Y-17286263D01*
X12342785Y-17357692D01*
X12328500Y-17386263D01*
X12314214Y-17400549D01*
X12285643Y-17414834D01*
X12214214Y-17414834D01*
X12185643Y-17400549D01*
X12171357Y-17386263D01*
X12514214Y-17243406D02*
X12485643Y-17229120D01*
X12471357Y-17214834D01*
X12457071Y-17186263D01*
X12457071Y-17171977D01*
X12471357Y-17143406D01*
X12485643Y-17129120D01*
X12514214Y-17114834D01*
X12571357Y-17114834D01*
X12599928Y-17129120D01*
X12614214Y-17143406D01*
X12628500Y-17171977D01*
X12628500Y-17186263D01*
X12614214Y-17214834D01*
X12599928Y-17229120D01*
X12571357Y-17243406D01*
X12514214Y-17243406D01*
X12485643Y-17257692D01*
X12471357Y-17271977D01*
X12457071Y-17300549D01*
X12457071Y-17357692D01*
X12471357Y-17386263D01*
X12485643Y-17400549D01*
X12514214Y-17414834D01*
X12571357Y-17414834D01*
X12599928Y-17400549D01*
X12614214Y-17386263D01*
X12628500Y-17357692D01*
X12628500Y-17300549D01*
X12614214Y-17271977D01*
X12599928Y-17257692D01*
X12571357Y-17243406D01*
X12742786Y-17114834D02*
X12742786Y-17171977D01*
X12857071Y-17114834D02*
X12857071Y-17171977D01*
X13299928Y-17529120D02*
X13285643Y-17514834D01*
X13257071Y-17471977D01*
X13242785Y-17443406D01*
X13228500Y-17400549D01*
X13214214Y-17329120D01*
X13214214Y-17271977D01*
X13228500Y-17200549D01*
X13242785Y-17157692D01*
X13257071Y-17129120D01*
X13285643Y-17086263D01*
X13299928Y-17071977D01*
X13571357Y-17414834D02*
X13399928Y-17414834D01*
X13485643Y-17414834D02*
X13485643Y-17114834D01*
X13457071Y-17157692D01*
X13428500Y-17186263D01*
X13399928Y-17200549D01*
X13685643Y-17143406D02*
X13699928Y-17129120D01*
X13728500Y-17114834D01*
X13799928Y-17114834D01*
X13828500Y-17129120D01*
X13842785Y-17143406D01*
X13857071Y-17171977D01*
X13857071Y-17200549D01*
X13842785Y-17243406D01*
X13671357Y-17414834D01*
X13857071Y-17414834D01*
X14214214Y-17414834D02*
X14214214Y-17114834D01*
X14342785Y-17414834D02*
X14342785Y-17257692D01*
X14328500Y-17229120D01*
X14299928Y-17214834D01*
X14257071Y-17214834D01*
X14228500Y-17229120D01*
X14214214Y-17243406D01*
X14528500Y-17414834D02*
X14499928Y-17400549D01*
X14485643Y-17386263D01*
X14471357Y-17357692D01*
X14471357Y-17271977D01*
X14485643Y-17243406D01*
X14499928Y-17229120D01*
X14528500Y-17214834D01*
X14571357Y-17214834D01*
X14599928Y-17229120D01*
X14614214Y-17243406D01*
X14628500Y-17271977D01*
X14628500Y-17357692D01*
X14614214Y-17386263D01*
X14599928Y-17400549D01*
X14571357Y-17414834D01*
X14528500Y-17414834D01*
X14799928Y-17414834D02*
X14771357Y-17400549D01*
X14757071Y-17371977D01*
X14757071Y-17114834D01*
X15028500Y-17400549D02*
X14999928Y-17414834D01*
X14942786Y-17414834D01*
X14914214Y-17400549D01*
X14899928Y-17371977D01*
X14899928Y-17257692D01*
X14914214Y-17229120D01*
X14942786Y-17214834D01*
X14999928Y-17214834D01*
X15028500Y-17229120D01*
X15042786Y-17257692D01*
X15042786Y-17286263D01*
X14899928Y-17314834D01*
X15157071Y-17400549D02*
X15185643Y-17414834D01*
X15242786Y-17414834D01*
X15271357Y-17400549D01*
X15285643Y-17371977D01*
X15285643Y-17357692D01*
X15271357Y-17329120D01*
X15242786Y-17314834D01*
X15199928Y-17314834D01*
X15171357Y-17300549D01*
X15157071Y-17271977D01*
X15157071Y-17257692D01*
X15171357Y-17229120D01*
X15199928Y-17214834D01*
X15242786Y-17214834D01*
X15271357Y-17229120D01*
X15385643Y-17529120D02*
X15399928Y-17514834D01*
X15428500Y-17471977D01*
X15442786Y-17443406D01*
X15457071Y-17400549D01*
X15471357Y-17329120D01*
X15471357Y-17271977D01*
X15457071Y-17200549D01*
X15442786Y-17157692D01*
X15428500Y-17129120D01*
X15399928Y-17086263D01*
X15385643Y-17071977D01*
M02*
