M48
;DRILL file {KiCad 4.0.5+dfsg1-4} date Sun Oct 21 20:25:18 2018
;FORMAT={-:-/ absolute / metric / decimal}
FMAT,2
METRIC,TZ
T1C0.599
T2C1.300
%
G90
G05
M71
T1
X90.487Y-43.243
X90.487Y-74.358
X90.487Y-105.41
X98.742Y-35.877
X98.742Y-66.992
X98.742Y-98.044
X100.393Y-35.877
X100.393Y-66.992
X100.393Y-98.044
X101.917Y-49.721
X101.917Y-51.244
X101.917Y-80.835
X101.917Y-82.359
X101.917Y-111.887
X101.917Y-113.411
X118.808Y-43.243
X118.808Y-74.358
X118.808Y-105.41
X127.063Y-35.877
X127.063Y-66.992
X127.063Y-98.044
X128.714Y-35.877
X128.714Y-66.992
X128.714Y-98.044
X130.238Y-49.721
X130.238Y-51.244
X130.238Y-80.835
X130.238Y-82.359
X130.238Y-111.887
X130.238Y-113.411
X147.002Y-43.307
X147.002Y-74.422
X147.002Y-105.474
X155.257Y-35.941
X155.257Y-67.056
X155.257Y-98.108
X156.909Y-35.941
X156.909Y-67.056
X156.909Y-98.108
X158.433Y-49.784
X158.433Y-51.308
X158.433Y-80.899
X158.433Y-82.423
X158.433Y-111.95
X158.433Y-113.474
T2
X82.867Y-28.258
X82.867Y-38.417
X82.867Y-48.578
X82.867Y-59.372
X82.867Y-69.532
X82.867Y-79.692
X82.867Y-90.487
X82.867Y-100.647
X82.867Y-110.807
X103.188Y-28.258
X103.188Y-35.877
X103.188Y-40.957
X103.188Y-59.372
X103.188Y-66.992
X103.188Y-72.072
X103.188Y-90.487
X103.188Y-98.108
X103.188Y-103.188
X111.188Y-28.258
X111.188Y-38.417
X111.188Y-48.578
X111.188Y-59.372
X111.188Y-69.532
X111.188Y-79.692
X111.188Y-90.424
X111.188Y-100.584
X111.188Y-110.744
X131.508Y-28.258
X131.508Y-35.877
X131.508Y-40.957
X131.508Y-59.372
X131.508Y-66.992
X131.508Y-72.072
X131.508Y-90.424
X131.508Y-98.044
X131.508Y-103.124
X139.382Y-28.321
X139.382Y-38.481
X139.382Y-48.641
X139.382Y-59.436
X139.382Y-69.596
X139.382Y-79.756
X139.382Y-90.487
X139.382Y-100.647
X139.382Y-110.807
X159.702Y-28.321
X159.702Y-35.941
X159.702Y-41.021
X159.702Y-59.436
X159.702Y-67.056
X159.702Y-72.136
X159.702Y-90.487
X159.702Y-98.108
X159.702Y-103.188
T0
M30
