G04 #@! TF.FileFunction,Legend,Bot*
%FSLAX46Y46*%
G04 Gerber Fmt 4.6, Leading zero omitted, Abs format (unit mm)*
G04 Created by KiCad (PCBNEW 4.0.5+dfsg1-4) date Sun Oct 21 20:25:12 2018*
%MOMM*%
%LPD*%
G01*
G04 APERTURE LIST*
%ADD10C,0.150000*%
%ADD11C,0.381000*%
%ADD12C,0.304800*%
G04 APERTURE END LIST*
D10*
D11*
X163004500Y-118300500D02*
X163004500Y-118554500D01*
X163449000Y-117856000D02*
X164147500Y-117856000D01*
X163703000Y-25781000D02*
X164655500Y-25781000D01*
X163004500Y-25082500D02*
X163004500Y-24257000D01*
X78803500Y-25781000D02*
X78232000Y-25781000D01*
X79311500Y-24955500D02*
X79311500Y-24193500D01*
X78740000Y-117856000D02*
X77470000Y-117856000D01*
X79311500Y-118554500D02*
X79311500Y-120015000D01*
D10*
X82867500Y-55435500D02*
X82867500Y-64071500D01*
X82867500Y-64071500D02*
X103187500Y-64071500D01*
X103187500Y-64071500D02*
X103187500Y-55435500D01*
X82867500Y-55435500D02*
X103187500Y-55435500D01*
D12*
X102171500Y-63309500D02*
X102933500Y-62039500D01*
X102933500Y-62039500D02*
X101409500Y-62039500D01*
X101409500Y-62039500D02*
X102171500Y-63309500D01*
D10*
X139382500Y-55499000D02*
X139382500Y-64135000D01*
X139382500Y-64135000D02*
X159702500Y-64135000D01*
X159702500Y-64135000D02*
X159702500Y-55499000D01*
X139382500Y-55499000D02*
X159702500Y-55499000D01*
D12*
X158686500Y-63373000D02*
X159448500Y-62103000D01*
X159448500Y-62103000D02*
X157924500Y-62103000D01*
X157924500Y-62103000D02*
X158686500Y-63373000D01*
D10*
X139382500Y-86614000D02*
X139382500Y-95250000D01*
X139382500Y-95250000D02*
X159702500Y-95250000D01*
X159702500Y-95250000D02*
X159702500Y-86614000D01*
X139382500Y-86614000D02*
X159702500Y-86614000D01*
D12*
X158686500Y-94488000D02*
X159448500Y-93218000D01*
X159448500Y-93218000D02*
X157924500Y-93218000D01*
X157924500Y-93218000D02*
X158686500Y-94488000D01*
D10*
X111188500Y-86550500D02*
X111188500Y-95186500D01*
X111188500Y-95186500D02*
X131508500Y-95186500D01*
X131508500Y-95186500D02*
X131508500Y-86550500D01*
X111188500Y-86550500D02*
X131508500Y-86550500D01*
D12*
X130492500Y-94424500D02*
X131254500Y-93154500D01*
X131254500Y-93154500D02*
X129730500Y-93154500D01*
X129730500Y-93154500D02*
X130492500Y-94424500D01*
D10*
X82867500Y-86550500D02*
X82867500Y-95186500D01*
X82867500Y-95186500D02*
X103187500Y-95186500D01*
X103187500Y-95186500D02*
X103187500Y-86550500D01*
X82867500Y-86550500D02*
X103187500Y-86550500D01*
D12*
X102171500Y-94424500D02*
X102933500Y-93154500D01*
X102933500Y-93154500D02*
X101409500Y-93154500D01*
X101409500Y-93154500D02*
X102171500Y-94424500D01*
D10*
X82867500Y-117602000D02*
X82867500Y-126238000D01*
X82867500Y-126238000D02*
X103187500Y-126238000D01*
X103187500Y-126238000D02*
X103187500Y-117602000D01*
X82867500Y-117602000D02*
X103187500Y-117602000D01*
D12*
X102171500Y-125476000D02*
X102933500Y-124206000D01*
X102933500Y-124206000D02*
X101409500Y-124206000D01*
X101409500Y-124206000D02*
X102171500Y-125476000D01*
D10*
X111188500Y-117602000D02*
X111188500Y-126238000D01*
X111188500Y-126238000D02*
X131508500Y-126238000D01*
X131508500Y-126238000D02*
X131508500Y-117602000D01*
X111188500Y-117602000D02*
X131508500Y-117602000D01*
D12*
X130492500Y-125476000D02*
X131254500Y-124206000D01*
X131254500Y-124206000D02*
X129730500Y-124206000D01*
X129730500Y-124206000D02*
X130492500Y-125476000D01*
D10*
X139382500Y-117665500D02*
X139382500Y-126301500D01*
X139382500Y-126301500D02*
X159702500Y-126301500D01*
X159702500Y-126301500D02*
X159702500Y-117665500D01*
X139382500Y-117665500D02*
X159702500Y-117665500D01*
D12*
X158686500Y-125539500D02*
X159448500Y-124269500D01*
X159448500Y-124269500D02*
X157924500Y-124269500D01*
X157924500Y-124269500D02*
X158686500Y-125539500D01*
D10*
X111188500Y-55435500D02*
X111188500Y-64071500D01*
X111188500Y-64071500D02*
X131508500Y-64071500D01*
X131508500Y-64071500D02*
X131508500Y-55435500D01*
X111188500Y-55435500D02*
X131508500Y-55435500D01*
D12*
X130492500Y-63309500D02*
X131254500Y-62039500D01*
X131254500Y-62039500D02*
X129730500Y-62039500D01*
X129730500Y-62039500D02*
X130492500Y-63309500D01*
D10*
X105727500Y-51117500D02*
X105727500Y-25717500D01*
X105727500Y-25717500D02*
X80327500Y-25717500D01*
X80327500Y-25717500D02*
X80327500Y-51117500D01*
X80327500Y-51117500D02*
X105727500Y-51117500D01*
X134048500Y-51117500D02*
X134048500Y-25717500D01*
X134048500Y-25717500D02*
X108648500Y-25717500D01*
X108648500Y-25717500D02*
X108648500Y-51117500D01*
X108648500Y-51117500D02*
X134048500Y-51117500D01*
X162242500Y-51181000D02*
X162242500Y-25781000D01*
X162242500Y-25781000D02*
X136842500Y-25781000D01*
X136842500Y-25781000D02*
X136842500Y-51181000D01*
X136842500Y-51181000D02*
X162242500Y-51181000D01*
X162242500Y-82296000D02*
X162242500Y-56896000D01*
X162242500Y-56896000D02*
X136842500Y-56896000D01*
X136842500Y-56896000D02*
X136842500Y-82296000D01*
X136842500Y-82296000D02*
X162242500Y-82296000D01*
X134048500Y-82232500D02*
X134048500Y-56832500D01*
X134048500Y-56832500D02*
X108648500Y-56832500D01*
X108648500Y-56832500D02*
X108648500Y-82232500D01*
X108648500Y-82232500D02*
X134048500Y-82232500D01*
X105727500Y-82232500D02*
X105727500Y-56832500D01*
X105727500Y-56832500D02*
X80327500Y-56832500D01*
X80327500Y-56832500D02*
X80327500Y-82232500D01*
X80327500Y-82232500D02*
X105727500Y-82232500D01*
X134048500Y-113284000D02*
X134048500Y-87884000D01*
X134048500Y-87884000D02*
X108648500Y-87884000D01*
X108648500Y-87884000D02*
X108648500Y-113284000D01*
X108648500Y-113284000D02*
X134048500Y-113284000D01*
X162242500Y-113347500D02*
X162242500Y-87947500D01*
X162242500Y-87947500D02*
X136842500Y-87947500D01*
X136842500Y-87947500D02*
X136842500Y-113347500D01*
X136842500Y-113347500D02*
X162242500Y-113347500D01*
X105727500Y-113347500D02*
X105727500Y-87947500D01*
X105727500Y-87947500D02*
X80327500Y-87947500D01*
X80327500Y-87947500D02*
X80327500Y-113347500D01*
X80327500Y-113347500D02*
X105727500Y-113347500D01*
D12*
X109972929Y-37256357D02*
X111206643Y-37256357D01*
X111351786Y-37328929D01*
X111424357Y-37401500D01*
X111496929Y-37546643D01*
X111496929Y-37836929D01*
X111424357Y-37982071D01*
X111351786Y-38054643D01*
X111206643Y-38127214D01*
X109972929Y-38127214D01*
X111496929Y-39651214D02*
X111496929Y-38780357D01*
X111496929Y-39215785D02*
X109972929Y-39215785D01*
X110190643Y-39070642D01*
X110335786Y-38925500D01*
X110408357Y-38780357D01*
X107432929Y-35804928D02*
X107432929Y-36675785D01*
X108956929Y-36240356D02*
X107432929Y-36240356D01*
X108956929Y-38054642D02*
X108231214Y-37546642D01*
X108956929Y-37183785D02*
X107432929Y-37183785D01*
X107432929Y-37764357D01*
X107505500Y-37909499D01*
X107578071Y-37982071D01*
X107723214Y-38054642D01*
X107940929Y-38054642D01*
X108086071Y-37982071D01*
X108158643Y-37909499D01*
X108231214Y-37764357D01*
X108231214Y-37183785D01*
X108521500Y-38635214D02*
X108521500Y-39360928D01*
X108956929Y-38490071D02*
X107432929Y-38998071D01*
X108956929Y-39506071D01*
X108811786Y-40884928D02*
X108884357Y-40812357D01*
X108956929Y-40594643D01*
X108956929Y-40449500D01*
X108884357Y-40231785D01*
X108739214Y-40086643D01*
X108594071Y-40014071D01*
X108303786Y-39941500D01*
X108086071Y-39941500D01*
X107795786Y-40014071D01*
X107650643Y-40086643D01*
X107505500Y-40231785D01*
X107432929Y-40449500D01*
X107432929Y-40594643D01*
X107505500Y-40812357D01*
X107578071Y-40884928D01*
X107432929Y-41828357D02*
X107432929Y-42118643D01*
X107505500Y-42263785D01*
X107650643Y-42408928D01*
X107940929Y-42481500D01*
X108448929Y-42481500D01*
X108739214Y-42408928D01*
X108884357Y-42263785D01*
X108956929Y-42118643D01*
X108956929Y-41828357D01*
X108884357Y-41683214D01*
X108739214Y-41538071D01*
X108448929Y-41465500D01*
X107940929Y-41465500D01*
X107650643Y-41538071D01*
X107505500Y-41683214D01*
X107432929Y-41828357D01*
X108376357Y-43134642D02*
X108376357Y-44295785D01*
X107432929Y-44803785D02*
X107432929Y-45674642D01*
X108956929Y-45239213D02*
X107432929Y-45239213D01*
X108956929Y-46182642D02*
X107432929Y-46182642D01*
X108158643Y-46182642D02*
X108158643Y-47053499D01*
X108956929Y-47053499D02*
X107432929Y-47053499D01*
X108956929Y-47779213D02*
X107432929Y-47779213D01*
X108956929Y-48650070D01*
X107432929Y-48650070D01*
X108376357Y-49375784D02*
X108376357Y-50536927D01*
X108956929Y-52060927D02*
X108956929Y-51190070D01*
X108956929Y-51625498D02*
X107432929Y-51625498D01*
X107650643Y-51480355D01*
X107795786Y-51335213D01*
X107868357Y-51190070D01*
X107432929Y-53439784D02*
X107432929Y-52714070D01*
X108158643Y-52641499D01*
X108086071Y-52714070D01*
X108013500Y-52859213D01*
X108013500Y-53222070D01*
X108086071Y-53367213D01*
X108158643Y-53439784D01*
X108303786Y-53512356D01*
X108666643Y-53512356D01*
X108811786Y-53439784D01*
X108884357Y-53367213D01*
X108956929Y-53222070D01*
X108956929Y-52859213D01*
X108884357Y-52714070D01*
X108811786Y-52641499D01*
X108376357Y-54165499D02*
X108376357Y-55326642D01*
X108956929Y-56850642D02*
X108956929Y-55979785D01*
X108956929Y-56415213D02*
X107432929Y-56415213D01*
X107650643Y-56270070D01*
X107795786Y-56124928D01*
X107868357Y-55979785D01*
X107578071Y-57431214D02*
X107505500Y-57503785D01*
X107432929Y-57648928D01*
X107432929Y-58011785D01*
X107505500Y-58156928D01*
X107578071Y-58229499D01*
X107723214Y-58302071D01*
X107868357Y-58302071D01*
X108086071Y-58229499D01*
X108956929Y-57358642D01*
X108956929Y-58302071D01*
X108956929Y-59753500D02*
X108956929Y-58882643D01*
X108956929Y-59318071D02*
X107432929Y-59318071D01*
X107650643Y-59172928D01*
X107795786Y-59027786D01*
X107868357Y-58882643D01*
X108956929Y-61204929D02*
X108956929Y-60334072D01*
X108956929Y-60769500D02*
X107432929Y-60769500D01*
X107650643Y-60624357D01*
X107795786Y-60479215D01*
X107868357Y-60334072D01*
X138293929Y-37256357D02*
X139527643Y-37256357D01*
X139672786Y-37328929D01*
X139745357Y-37401500D01*
X139817929Y-37546643D01*
X139817929Y-37836929D01*
X139745357Y-37982071D01*
X139672786Y-38054643D01*
X139527643Y-38127214D01*
X138293929Y-38127214D01*
X139817929Y-39651214D02*
X139817929Y-38780357D01*
X139817929Y-39215785D02*
X138293929Y-39215785D01*
X138511643Y-39070642D01*
X138656786Y-38925500D01*
X138729357Y-38780357D01*
X135753929Y-35804928D02*
X135753929Y-36675785D01*
X137277929Y-36240356D02*
X135753929Y-36240356D01*
X137277929Y-38054642D02*
X136552214Y-37546642D01*
X137277929Y-37183785D02*
X135753929Y-37183785D01*
X135753929Y-37764357D01*
X135826500Y-37909499D01*
X135899071Y-37982071D01*
X136044214Y-38054642D01*
X136261929Y-38054642D01*
X136407071Y-37982071D01*
X136479643Y-37909499D01*
X136552214Y-37764357D01*
X136552214Y-37183785D01*
X136842500Y-38635214D02*
X136842500Y-39360928D01*
X137277929Y-38490071D02*
X135753929Y-38998071D01*
X137277929Y-39506071D01*
X137132786Y-40884928D02*
X137205357Y-40812357D01*
X137277929Y-40594643D01*
X137277929Y-40449500D01*
X137205357Y-40231785D01*
X137060214Y-40086643D01*
X136915071Y-40014071D01*
X136624786Y-39941500D01*
X136407071Y-39941500D01*
X136116786Y-40014071D01*
X135971643Y-40086643D01*
X135826500Y-40231785D01*
X135753929Y-40449500D01*
X135753929Y-40594643D01*
X135826500Y-40812357D01*
X135899071Y-40884928D01*
X135753929Y-41828357D02*
X135753929Y-42118643D01*
X135826500Y-42263785D01*
X135971643Y-42408928D01*
X136261929Y-42481500D01*
X136769929Y-42481500D01*
X137060214Y-42408928D01*
X137205357Y-42263785D01*
X137277929Y-42118643D01*
X137277929Y-41828357D01*
X137205357Y-41683214D01*
X137060214Y-41538071D01*
X136769929Y-41465500D01*
X136261929Y-41465500D01*
X135971643Y-41538071D01*
X135826500Y-41683214D01*
X135753929Y-41828357D01*
X136697357Y-43134642D02*
X136697357Y-44295785D01*
X135753929Y-44803785D02*
X135753929Y-45674642D01*
X137277929Y-45239213D02*
X135753929Y-45239213D01*
X137277929Y-46182642D02*
X135753929Y-46182642D01*
X136479643Y-46182642D02*
X136479643Y-47053499D01*
X137277929Y-47053499D02*
X135753929Y-47053499D01*
X137277929Y-47779213D02*
X135753929Y-47779213D01*
X137277929Y-48650070D01*
X135753929Y-48650070D01*
X136697357Y-49375784D02*
X136697357Y-50536927D01*
X137277929Y-52060927D02*
X137277929Y-51190070D01*
X137277929Y-51625498D02*
X135753929Y-51625498D01*
X135971643Y-51480355D01*
X136116786Y-51335213D01*
X136189357Y-51190070D01*
X135753929Y-53439784D02*
X135753929Y-52714070D01*
X136479643Y-52641499D01*
X136407071Y-52714070D01*
X136334500Y-52859213D01*
X136334500Y-53222070D01*
X136407071Y-53367213D01*
X136479643Y-53439784D01*
X136624786Y-53512356D01*
X136987643Y-53512356D01*
X137132786Y-53439784D01*
X137205357Y-53367213D01*
X137277929Y-53222070D01*
X137277929Y-52859213D01*
X137205357Y-52714070D01*
X137132786Y-52641499D01*
X136697357Y-54165499D02*
X136697357Y-55326642D01*
X137277929Y-56850642D02*
X137277929Y-55979785D01*
X137277929Y-56415213D02*
X135753929Y-56415213D01*
X135971643Y-56270070D01*
X136116786Y-56124928D01*
X136189357Y-55979785D01*
X135899071Y-57431214D02*
X135826500Y-57503785D01*
X135753929Y-57648928D01*
X135753929Y-58011785D01*
X135826500Y-58156928D01*
X135899071Y-58229499D01*
X136044214Y-58302071D01*
X136189357Y-58302071D01*
X136407071Y-58229499D01*
X137277929Y-57358642D01*
X137277929Y-58302071D01*
X137277929Y-59753500D02*
X137277929Y-58882643D01*
X137277929Y-59318071D02*
X135753929Y-59318071D01*
X135971643Y-59172928D01*
X136116786Y-59027786D01*
X136189357Y-58882643D01*
X137277929Y-61204929D02*
X137277929Y-60334072D01*
X137277929Y-60769500D02*
X135753929Y-60769500D01*
X135971643Y-60624357D01*
X136116786Y-60479215D01*
X136189357Y-60334072D01*
X166487929Y-37319857D02*
X167721643Y-37319857D01*
X167866786Y-37392429D01*
X167939357Y-37465000D01*
X168011929Y-37610143D01*
X168011929Y-37900429D01*
X167939357Y-38045571D01*
X167866786Y-38118143D01*
X167721643Y-38190714D01*
X166487929Y-38190714D01*
X168011929Y-39714714D02*
X168011929Y-38843857D01*
X168011929Y-39279285D02*
X166487929Y-39279285D01*
X166705643Y-39134142D01*
X166850786Y-38989000D01*
X166923357Y-38843857D01*
X163947929Y-35868428D02*
X163947929Y-36739285D01*
X165471929Y-36303856D02*
X163947929Y-36303856D01*
X165471929Y-38118142D02*
X164746214Y-37610142D01*
X165471929Y-37247285D02*
X163947929Y-37247285D01*
X163947929Y-37827857D01*
X164020500Y-37972999D01*
X164093071Y-38045571D01*
X164238214Y-38118142D01*
X164455929Y-38118142D01*
X164601071Y-38045571D01*
X164673643Y-37972999D01*
X164746214Y-37827857D01*
X164746214Y-37247285D01*
X165036500Y-38698714D02*
X165036500Y-39424428D01*
X165471929Y-38553571D02*
X163947929Y-39061571D01*
X165471929Y-39569571D01*
X165326786Y-40948428D02*
X165399357Y-40875857D01*
X165471929Y-40658143D01*
X165471929Y-40513000D01*
X165399357Y-40295285D01*
X165254214Y-40150143D01*
X165109071Y-40077571D01*
X164818786Y-40005000D01*
X164601071Y-40005000D01*
X164310786Y-40077571D01*
X164165643Y-40150143D01*
X164020500Y-40295285D01*
X163947929Y-40513000D01*
X163947929Y-40658143D01*
X164020500Y-40875857D01*
X164093071Y-40948428D01*
X163947929Y-41891857D02*
X163947929Y-42182143D01*
X164020500Y-42327285D01*
X164165643Y-42472428D01*
X164455929Y-42545000D01*
X164963929Y-42545000D01*
X165254214Y-42472428D01*
X165399357Y-42327285D01*
X165471929Y-42182143D01*
X165471929Y-41891857D01*
X165399357Y-41746714D01*
X165254214Y-41601571D01*
X164963929Y-41529000D01*
X164455929Y-41529000D01*
X164165643Y-41601571D01*
X164020500Y-41746714D01*
X163947929Y-41891857D01*
X164891357Y-43198142D02*
X164891357Y-44359285D01*
X163947929Y-44867285D02*
X163947929Y-45738142D01*
X165471929Y-45302713D02*
X163947929Y-45302713D01*
X165471929Y-46246142D02*
X163947929Y-46246142D01*
X164673643Y-46246142D02*
X164673643Y-47116999D01*
X165471929Y-47116999D02*
X163947929Y-47116999D01*
X165471929Y-47842713D02*
X163947929Y-47842713D01*
X165471929Y-48713570D01*
X163947929Y-48713570D01*
X164891357Y-49439284D02*
X164891357Y-50600427D01*
X165471929Y-52124427D02*
X165471929Y-51253570D01*
X165471929Y-51688998D02*
X163947929Y-51688998D01*
X164165643Y-51543855D01*
X164310786Y-51398713D01*
X164383357Y-51253570D01*
X163947929Y-53503284D02*
X163947929Y-52777570D01*
X164673643Y-52704999D01*
X164601071Y-52777570D01*
X164528500Y-52922713D01*
X164528500Y-53285570D01*
X164601071Y-53430713D01*
X164673643Y-53503284D01*
X164818786Y-53575856D01*
X165181643Y-53575856D01*
X165326786Y-53503284D01*
X165399357Y-53430713D01*
X165471929Y-53285570D01*
X165471929Y-52922713D01*
X165399357Y-52777570D01*
X165326786Y-52704999D01*
X164891357Y-54228999D02*
X164891357Y-55390142D01*
X165471929Y-56914142D02*
X165471929Y-56043285D01*
X165471929Y-56478713D02*
X163947929Y-56478713D01*
X164165643Y-56333570D01*
X164310786Y-56188428D01*
X164383357Y-56043285D01*
X164093071Y-57494714D02*
X164020500Y-57567285D01*
X163947929Y-57712428D01*
X163947929Y-58075285D01*
X164020500Y-58220428D01*
X164093071Y-58292999D01*
X164238214Y-58365571D01*
X164383357Y-58365571D01*
X164601071Y-58292999D01*
X165471929Y-57422142D01*
X165471929Y-58365571D01*
X165471929Y-59817000D02*
X165471929Y-58946143D01*
X165471929Y-59381571D02*
X163947929Y-59381571D01*
X164165643Y-59236428D01*
X164310786Y-59091286D01*
X164383357Y-58946143D01*
X165471929Y-61268429D02*
X165471929Y-60397572D01*
X165471929Y-60833000D02*
X163947929Y-60833000D01*
X164165643Y-60687857D01*
X164310786Y-60542715D01*
X164383357Y-60397572D01*
X166487929Y-68434857D02*
X167721643Y-68434857D01*
X167866786Y-68507429D01*
X167939357Y-68580000D01*
X168011929Y-68725143D01*
X168011929Y-69015429D01*
X167939357Y-69160571D01*
X167866786Y-69233143D01*
X167721643Y-69305714D01*
X166487929Y-69305714D01*
X168011929Y-70829714D02*
X168011929Y-69958857D01*
X168011929Y-70394285D02*
X166487929Y-70394285D01*
X166705643Y-70249142D01*
X166850786Y-70104000D01*
X166923357Y-69958857D01*
X163947929Y-66983428D02*
X163947929Y-67854285D01*
X165471929Y-67418856D02*
X163947929Y-67418856D01*
X165471929Y-69233142D02*
X164746214Y-68725142D01*
X165471929Y-68362285D02*
X163947929Y-68362285D01*
X163947929Y-68942857D01*
X164020500Y-69087999D01*
X164093071Y-69160571D01*
X164238214Y-69233142D01*
X164455929Y-69233142D01*
X164601071Y-69160571D01*
X164673643Y-69087999D01*
X164746214Y-68942857D01*
X164746214Y-68362285D01*
X165036500Y-69813714D02*
X165036500Y-70539428D01*
X165471929Y-69668571D02*
X163947929Y-70176571D01*
X165471929Y-70684571D01*
X165326786Y-72063428D02*
X165399357Y-71990857D01*
X165471929Y-71773143D01*
X165471929Y-71628000D01*
X165399357Y-71410285D01*
X165254214Y-71265143D01*
X165109071Y-71192571D01*
X164818786Y-71120000D01*
X164601071Y-71120000D01*
X164310786Y-71192571D01*
X164165643Y-71265143D01*
X164020500Y-71410285D01*
X163947929Y-71628000D01*
X163947929Y-71773143D01*
X164020500Y-71990857D01*
X164093071Y-72063428D01*
X163947929Y-73006857D02*
X163947929Y-73297143D01*
X164020500Y-73442285D01*
X164165643Y-73587428D01*
X164455929Y-73660000D01*
X164963929Y-73660000D01*
X165254214Y-73587428D01*
X165399357Y-73442285D01*
X165471929Y-73297143D01*
X165471929Y-73006857D01*
X165399357Y-72861714D01*
X165254214Y-72716571D01*
X164963929Y-72644000D01*
X164455929Y-72644000D01*
X164165643Y-72716571D01*
X164020500Y-72861714D01*
X163947929Y-73006857D01*
X164891357Y-74313142D02*
X164891357Y-75474285D01*
X163947929Y-75982285D02*
X163947929Y-76853142D01*
X165471929Y-76417713D02*
X163947929Y-76417713D01*
X165471929Y-77361142D02*
X163947929Y-77361142D01*
X164673643Y-77361142D02*
X164673643Y-78231999D01*
X165471929Y-78231999D02*
X163947929Y-78231999D01*
X165471929Y-78957713D02*
X163947929Y-78957713D01*
X165471929Y-79828570D01*
X163947929Y-79828570D01*
X164891357Y-80554284D02*
X164891357Y-81715427D01*
X165471929Y-83239427D02*
X165471929Y-82368570D01*
X165471929Y-82803998D02*
X163947929Y-82803998D01*
X164165643Y-82658855D01*
X164310786Y-82513713D01*
X164383357Y-82368570D01*
X163947929Y-84618284D02*
X163947929Y-83892570D01*
X164673643Y-83819999D01*
X164601071Y-83892570D01*
X164528500Y-84037713D01*
X164528500Y-84400570D01*
X164601071Y-84545713D01*
X164673643Y-84618284D01*
X164818786Y-84690856D01*
X165181643Y-84690856D01*
X165326786Y-84618284D01*
X165399357Y-84545713D01*
X165471929Y-84400570D01*
X165471929Y-84037713D01*
X165399357Y-83892570D01*
X165326786Y-83819999D01*
X164891357Y-85343999D02*
X164891357Y-86505142D01*
X165471929Y-88029142D02*
X165471929Y-87158285D01*
X165471929Y-87593713D02*
X163947929Y-87593713D01*
X164165643Y-87448570D01*
X164310786Y-87303428D01*
X164383357Y-87158285D01*
X164093071Y-88609714D02*
X164020500Y-88682285D01*
X163947929Y-88827428D01*
X163947929Y-89190285D01*
X164020500Y-89335428D01*
X164093071Y-89407999D01*
X164238214Y-89480571D01*
X164383357Y-89480571D01*
X164601071Y-89407999D01*
X165471929Y-88537142D01*
X165471929Y-89480571D01*
X165471929Y-90932000D02*
X165471929Y-90061143D01*
X165471929Y-90496571D02*
X163947929Y-90496571D01*
X164165643Y-90351428D01*
X164310786Y-90206286D01*
X164383357Y-90061143D01*
X165471929Y-92383429D02*
X165471929Y-91512572D01*
X165471929Y-91948000D02*
X163947929Y-91948000D01*
X164165643Y-91802857D01*
X164310786Y-91657715D01*
X164383357Y-91512572D01*
X138293929Y-68371357D02*
X139527643Y-68371357D01*
X139672786Y-68443929D01*
X139745357Y-68516500D01*
X139817929Y-68661643D01*
X139817929Y-68951929D01*
X139745357Y-69097071D01*
X139672786Y-69169643D01*
X139527643Y-69242214D01*
X138293929Y-69242214D01*
X139817929Y-70766214D02*
X139817929Y-69895357D01*
X139817929Y-70330785D02*
X138293929Y-70330785D01*
X138511643Y-70185642D01*
X138656786Y-70040500D01*
X138729357Y-69895357D01*
X135753929Y-66919928D02*
X135753929Y-67790785D01*
X137277929Y-67355356D02*
X135753929Y-67355356D01*
X137277929Y-69169642D02*
X136552214Y-68661642D01*
X137277929Y-68298785D02*
X135753929Y-68298785D01*
X135753929Y-68879357D01*
X135826500Y-69024499D01*
X135899071Y-69097071D01*
X136044214Y-69169642D01*
X136261929Y-69169642D01*
X136407071Y-69097071D01*
X136479643Y-69024499D01*
X136552214Y-68879357D01*
X136552214Y-68298785D01*
X136842500Y-69750214D02*
X136842500Y-70475928D01*
X137277929Y-69605071D02*
X135753929Y-70113071D01*
X137277929Y-70621071D01*
X137132786Y-71999928D02*
X137205357Y-71927357D01*
X137277929Y-71709643D01*
X137277929Y-71564500D01*
X137205357Y-71346785D01*
X137060214Y-71201643D01*
X136915071Y-71129071D01*
X136624786Y-71056500D01*
X136407071Y-71056500D01*
X136116786Y-71129071D01*
X135971643Y-71201643D01*
X135826500Y-71346785D01*
X135753929Y-71564500D01*
X135753929Y-71709643D01*
X135826500Y-71927357D01*
X135899071Y-71999928D01*
X135753929Y-72943357D02*
X135753929Y-73233643D01*
X135826500Y-73378785D01*
X135971643Y-73523928D01*
X136261929Y-73596500D01*
X136769929Y-73596500D01*
X137060214Y-73523928D01*
X137205357Y-73378785D01*
X137277929Y-73233643D01*
X137277929Y-72943357D01*
X137205357Y-72798214D01*
X137060214Y-72653071D01*
X136769929Y-72580500D01*
X136261929Y-72580500D01*
X135971643Y-72653071D01*
X135826500Y-72798214D01*
X135753929Y-72943357D01*
X136697357Y-74249642D02*
X136697357Y-75410785D01*
X135753929Y-75918785D02*
X135753929Y-76789642D01*
X137277929Y-76354213D02*
X135753929Y-76354213D01*
X137277929Y-77297642D02*
X135753929Y-77297642D01*
X136479643Y-77297642D02*
X136479643Y-78168499D01*
X137277929Y-78168499D02*
X135753929Y-78168499D01*
X137277929Y-78894213D02*
X135753929Y-78894213D01*
X137277929Y-79765070D01*
X135753929Y-79765070D01*
X136697357Y-80490784D02*
X136697357Y-81651927D01*
X137277929Y-83175927D02*
X137277929Y-82305070D01*
X137277929Y-82740498D02*
X135753929Y-82740498D01*
X135971643Y-82595355D01*
X136116786Y-82450213D01*
X136189357Y-82305070D01*
X135753929Y-84554784D02*
X135753929Y-83829070D01*
X136479643Y-83756499D01*
X136407071Y-83829070D01*
X136334500Y-83974213D01*
X136334500Y-84337070D01*
X136407071Y-84482213D01*
X136479643Y-84554784D01*
X136624786Y-84627356D01*
X136987643Y-84627356D01*
X137132786Y-84554784D01*
X137205357Y-84482213D01*
X137277929Y-84337070D01*
X137277929Y-83974213D01*
X137205357Y-83829070D01*
X137132786Y-83756499D01*
X136697357Y-85280499D02*
X136697357Y-86441642D01*
X137277929Y-87965642D02*
X137277929Y-87094785D01*
X137277929Y-87530213D02*
X135753929Y-87530213D01*
X135971643Y-87385070D01*
X136116786Y-87239928D01*
X136189357Y-87094785D01*
X135899071Y-88546214D02*
X135826500Y-88618785D01*
X135753929Y-88763928D01*
X135753929Y-89126785D01*
X135826500Y-89271928D01*
X135899071Y-89344499D01*
X136044214Y-89417071D01*
X136189357Y-89417071D01*
X136407071Y-89344499D01*
X137277929Y-88473642D01*
X137277929Y-89417071D01*
X137277929Y-90868500D02*
X137277929Y-89997643D01*
X137277929Y-90433071D02*
X135753929Y-90433071D01*
X135971643Y-90287928D01*
X136116786Y-90142786D01*
X136189357Y-89997643D01*
X137277929Y-92319929D02*
X137277929Y-91449072D01*
X137277929Y-91884500D02*
X135753929Y-91884500D01*
X135971643Y-91739357D01*
X136116786Y-91594215D01*
X136189357Y-91449072D01*
X109972929Y-68371357D02*
X111206643Y-68371357D01*
X111351786Y-68443929D01*
X111424357Y-68516500D01*
X111496929Y-68661643D01*
X111496929Y-68951929D01*
X111424357Y-69097071D01*
X111351786Y-69169643D01*
X111206643Y-69242214D01*
X109972929Y-69242214D01*
X111496929Y-70766214D02*
X111496929Y-69895357D01*
X111496929Y-70330785D02*
X109972929Y-70330785D01*
X110190643Y-70185642D01*
X110335786Y-70040500D01*
X110408357Y-69895357D01*
X107432929Y-66919928D02*
X107432929Y-67790785D01*
X108956929Y-67355356D02*
X107432929Y-67355356D01*
X108956929Y-69169642D02*
X108231214Y-68661642D01*
X108956929Y-68298785D02*
X107432929Y-68298785D01*
X107432929Y-68879357D01*
X107505500Y-69024499D01*
X107578071Y-69097071D01*
X107723214Y-69169642D01*
X107940929Y-69169642D01*
X108086071Y-69097071D01*
X108158643Y-69024499D01*
X108231214Y-68879357D01*
X108231214Y-68298785D01*
X108521500Y-69750214D02*
X108521500Y-70475928D01*
X108956929Y-69605071D02*
X107432929Y-70113071D01*
X108956929Y-70621071D01*
X108811786Y-71999928D02*
X108884357Y-71927357D01*
X108956929Y-71709643D01*
X108956929Y-71564500D01*
X108884357Y-71346785D01*
X108739214Y-71201643D01*
X108594071Y-71129071D01*
X108303786Y-71056500D01*
X108086071Y-71056500D01*
X107795786Y-71129071D01*
X107650643Y-71201643D01*
X107505500Y-71346785D01*
X107432929Y-71564500D01*
X107432929Y-71709643D01*
X107505500Y-71927357D01*
X107578071Y-71999928D01*
X107432929Y-72943357D02*
X107432929Y-73233643D01*
X107505500Y-73378785D01*
X107650643Y-73523928D01*
X107940929Y-73596500D01*
X108448929Y-73596500D01*
X108739214Y-73523928D01*
X108884357Y-73378785D01*
X108956929Y-73233643D01*
X108956929Y-72943357D01*
X108884357Y-72798214D01*
X108739214Y-72653071D01*
X108448929Y-72580500D01*
X107940929Y-72580500D01*
X107650643Y-72653071D01*
X107505500Y-72798214D01*
X107432929Y-72943357D01*
X108376357Y-74249642D02*
X108376357Y-75410785D01*
X107432929Y-75918785D02*
X107432929Y-76789642D01*
X108956929Y-76354213D02*
X107432929Y-76354213D01*
X108956929Y-77297642D02*
X107432929Y-77297642D01*
X108158643Y-77297642D02*
X108158643Y-78168499D01*
X108956929Y-78168499D02*
X107432929Y-78168499D01*
X108956929Y-78894213D02*
X107432929Y-78894213D01*
X108956929Y-79765070D01*
X107432929Y-79765070D01*
X108376357Y-80490784D02*
X108376357Y-81651927D01*
X108956929Y-83175927D02*
X108956929Y-82305070D01*
X108956929Y-82740498D02*
X107432929Y-82740498D01*
X107650643Y-82595355D01*
X107795786Y-82450213D01*
X107868357Y-82305070D01*
X107432929Y-84554784D02*
X107432929Y-83829070D01*
X108158643Y-83756499D01*
X108086071Y-83829070D01*
X108013500Y-83974213D01*
X108013500Y-84337070D01*
X108086071Y-84482213D01*
X108158643Y-84554784D01*
X108303786Y-84627356D01*
X108666643Y-84627356D01*
X108811786Y-84554784D01*
X108884357Y-84482213D01*
X108956929Y-84337070D01*
X108956929Y-83974213D01*
X108884357Y-83829070D01*
X108811786Y-83756499D01*
X108376357Y-85280499D02*
X108376357Y-86441642D01*
X108956929Y-87965642D02*
X108956929Y-87094785D01*
X108956929Y-87530213D02*
X107432929Y-87530213D01*
X107650643Y-87385070D01*
X107795786Y-87239928D01*
X107868357Y-87094785D01*
X107578071Y-88546214D02*
X107505500Y-88618785D01*
X107432929Y-88763928D01*
X107432929Y-89126785D01*
X107505500Y-89271928D01*
X107578071Y-89344499D01*
X107723214Y-89417071D01*
X107868357Y-89417071D01*
X108086071Y-89344499D01*
X108956929Y-88473642D01*
X108956929Y-89417071D01*
X108956929Y-90868500D02*
X108956929Y-89997643D01*
X108956929Y-90433071D02*
X107432929Y-90433071D01*
X107650643Y-90287928D01*
X107795786Y-90142786D01*
X107868357Y-89997643D01*
X108956929Y-92319929D02*
X108956929Y-91449072D01*
X108956929Y-91884500D02*
X107432929Y-91884500D01*
X107650643Y-91739357D01*
X107795786Y-91594215D01*
X107868357Y-91449072D01*
X138293929Y-99422857D02*
X139527643Y-99422857D01*
X139672786Y-99495429D01*
X139745357Y-99568000D01*
X139817929Y-99713143D01*
X139817929Y-100003429D01*
X139745357Y-100148571D01*
X139672786Y-100221143D01*
X139527643Y-100293714D01*
X138293929Y-100293714D01*
X139817929Y-101817714D02*
X139817929Y-100946857D01*
X139817929Y-101382285D02*
X138293929Y-101382285D01*
X138511643Y-101237142D01*
X138656786Y-101092000D01*
X138729357Y-100946857D01*
X135753929Y-97971428D02*
X135753929Y-98842285D01*
X137277929Y-98406856D02*
X135753929Y-98406856D01*
X137277929Y-100221142D02*
X136552214Y-99713142D01*
X137277929Y-99350285D02*
X135753929Y-99350285D01*
X135753929Y-99930857D01*
X135826500Y-100075999D01*
X135899071Y-100148571D01*
X136044214Y-100221142D01*
X136261929Y-100221142D01*
X136407071Y-100148571D01*
X136479643Y-100075999D01*
X136552214Y-99930857D01*
X136552214Y-99350285D01*
X136842500Y-100801714D02*
X136842500Y-101527428D01*
X137277929Y-100656571D02*
X135753929Y-101164571D01*
X137277929Y-101672571D01*
X137132786Y-103051428D02*
X137205357Y-102978857D01*
X137277929Y-102761143D01*
X137277929Y-102616000D01*
X137205357Y-102398285D01*
X137060214Y-102253143D01*
X136915071Y-102180571D01*
X136624786Y-102108000D01*
X136407071Y-102108000D01*
X136116786Y-102180571D01*
X135971643Y-102253143D01*
X135826500Y-102398285D01*
X135753929Y-102616000D01*
X135753929Y-102761143D01*
X135826500Y-102978857D01*
X135899071Y-103051428D01*
X135753929Y-103994857D02*
X135753929Y-104285143D01*
X135826500Y-104430285D01*
X135971643Y-104575428D01*
X136261929Y-104648000D01*
X136769929Y-104648000D01*
X137060214Y-104575428D01*
X137205357Y-104430285D01*
X137277929Y-104285143D01*
X137277929Y-103994857D01*
X137205357Y-103849714D01*
X137060214Y-103704571D01*
X136769929Y-103632000D01*
X136261929Y-103632000D01*
X135971643Y-103704571D01*
X135826500Y-103849714D01*
X135753929Y-103994857D01*
X136697357Y-105301142D02*
X136697357Y-106462285D01*
X135753929Y-106970285D02*
X135753929Y-107841142D01*
X137277929Y-107405713D02*
X135753929Y-107405713D01*
X137277929Y-108349142D02*
X135753929Y-108349142D01*
X136479643Y-108349142D02*
X136479643Y-109219999D01*
X137277929Y-109219999D02*
X135753929Y-109219999D01*
X137277929Y-109945713D02*
X135753929Y-109945713D01*
X137277929Y-110816570D01*
X135753929Y-110816570D01*
X136697357Y-111542284D02*
X136697357Y-112703427D01*
X137277929Y-114227427D02*
X137277929Y-113356570D01*
X137277929Y-113791998D02*
X135753929Y-113791998D01*
X135971643Y-113646855D01*
X136116786Y-113501713D01*
X136189357Y-113356570D01*
X135753929Y-115606284D02*
X135753929Y-114880570D01*
X136479643Y-114807999D01*
X136407071Y-114880570D01*
X136334500Y-115025713D01*
X136334500Y-115388570D01*
X136407071Y-115533713D01*
X136479643Y-115606284D01*
X136624786Y-115678856D01*
X136987643Y-115678856D01*
X137132786Y-115606284D01*
X137205357Y-115533713D01*
X137277929Y-115388570D01*
X137277929Y-115025713D01*
X137205357Y-114880570D01*
X137132786Y-114807999D01*
X136697357Y-116331999D02*
X136697357Y-117493142D01*
X137277929Y-119017142D02*
X137277929Y-118146285D01*
X137277929Y-118581713D02*
X135753929Y-118581713D01*
X135971643Y-118436570D01*
X136116786Y-118291428D01*
X136189357Y-118146285D01*
X135899071Y-119597714D02*
X135826500Y-119670285D01*
X135753929Y-119815428D01*
X135753929Y-120178285D01*
X135826500Y-120323428D01*
X135899071Y-120395999D01*
X136044214Y-120468571D01*
X136189357Y-120468571D01*
X136407071Y-120395999D01*
X137277929Y-119525142D01*
X137277929Y-120468571D01*
X137277929Y-121920000D02*
X137277929Y-121049143D01*
X137277929Y-121484571D02*
X135753929Y-121484571D01*
X135971643Y-121339428D01*
X136116786Y-121194286D01*
X136189357Y-121049143D01*
X137277929Y-123371429D02*
X137277929Y-122500572D01*
X137277929Y-122936000D02*
X135753929Y-122936000D01*
X135971643Y-122790857D01*
X136116786Y-122645715D01*
X136189357Y-122500572D01*
X166487929Y-99486357D02*
X167721643Y-99486357D01*
X167866786Y-99558929D01*
X167939357Y-99631500D01*
X168011929Y-99776643D01*
X168011929Y-100066929D01*
X167939357Y-100212071D01*
X167866786Y-100284643D01*
X167721643Y-100357214D01*
X166487929Y-100357214D01*
X168011929Y-101881214D02*
X168011929Y-101010357D01*
X168011929Y-101445785D02*
X166487929Y-101445785D01*
X166705643Y-101300642D01*
X166850786Y-101155500D01*
X166923357Y-101010357D01*
X163947929Y-98034928D02*
X163947929Y-98905785D01*
X165471929Y-98470356D02*
X163947929Y-98470356D01*
X165471929Y-100284642D02*
X164746214Y-99776642D01*
X165471929Y-99413785D02*
X163947929Y-99413785D01*
X163947929Y-99994357D01*
X164020500Y-100139499D01*
X164093071Y-100212071D01*
X164238214Y-100284642D01*
X164455929Y-100284642D01*
X164601071Y-100212071D01*
X164673643Y-100139499D01*
X164746214Y-99994357D01*
X164746214Y-99413785D01*
X165036500Y-100865214D02*
X165036500Y-101590928D01*
X165471929Y-100720071D02*
X163947929Y-101228071D01*
X165471929Y-101736071D01*
X165326786Y-103114928D02*
X165399357Y-103042357D01*
X165471929Y-102824643D01*
X165471929Y-102679500D01*
X165399357Y-102461785D01*
X165254214Y-102316643D01*
X165109071Y-102244071D01*
X164818786Y-102171500D01*
X164601071Y-102171500D01*
X164310786Y-102244071D01*
X164165643Y-102316643D01*
X164020500Y-102461785D01*
X163947929Y-102679500D01*
X163947929Y-102824643D01*
X164020500Y-103042357D01*
X164093071Y-103114928D01*
X163947929Y-104058357D02*
X163947929Y-104348643D01*
X164020500Y-104493785D01*
X164165643Y-104638928D01*
X164455929Y-104711500D01*
X164963929Y-104711500D01*
X165254214Y-104638928D01*
X165399357Y-104493785D01*
X165471929Y-104348643D01*
X165471929Y-104058357D01*
X165399357Y-103913214D01*
X165254214Y-103768071D01*
X164963929Y-103695500D01*
X164455929Y-103695500D01*
X164165643Y-103768071D01*
X164020500Y-103913214D01*
X163947929Y-104058357D01*
X164891357Y-105364642D02*
X164891357Y-106525785D01*
X163947929Y-107033785D02*
X163947929Y-107904642D01*
X165471929Y-107469213D02*
X163947929Y-107469213D01*
X165471929Y-108412642D02*
X163947929Y-108412642D01*
X164673643Y-108412642D02*
X164673643Y-109283499D01*
X165471929Y-109283499D02*
X163947929Y-109283499D01*
X165471929Y-110009213D02*
X163947929Y-110009213D01*
X165471929Y-110880070D01*
X163947929Y-110880070D01*
X164891357Y-111605784D02*
X164891357Y-112766927D01*
X165471929Y-114290927D02*
X165471929Y-113420070D01*
X165471929Y-113855498D02*
X163947929Y-113855498D01*
X164165643Y-113710355D01*
X164310786Y-113565213D01*
X164383357Y-113420070D01*
X163947929Y-115669784D02*
X163947929Y-114944070D01*
X164673643Y-114871499D01*
X164601071Y-114944070D01*
X164528500Y-115089213D01*
X164528500Y-115452070D01*
X164601071Y-115597213D01*
X164673643Y-115669784D01*
X164818786Y-115742356D01*
X165181643Y-115742356D01*
X165326786Y-115669784D01*
X165399357Y-115597213D01*
X165471929Y-115452070D01*
X165471929Y-115089213D01*
X165399357Y-114944070D01*
X165326786Y-114871499D01*
X164891357Y-116395499D02*
X164891357Y-117556642D01*
X165471929Y-119080642D02*
X165471929Y-118209785D01*
X165471929Y-118645213D02*
X163947929Y-118645213D01*
X164165643Y-118500070D01*
X164310786Y-118354928D01*
X164383357Y-118209785D01*
X164093071Y-119661214D02*
X164020500Y-119733785D01*
X163947929Y-119878928D01*
X163947929Y-120241785D01*
X164020500Y-120386928D01*
X164093071Y-120459499D01*
X164238214Y-120532071D01*
X164383357Y-120532071D01*
X164601071Y-120459499D01*
X165471929Y-119588642D01*
X165471929Y-120532071D01*
X165471929Y-121983500D02*
X165471929Y-121112643D01*
X165471929Y-121548071D02*
X163947929Y-121548071D01*
X164165643Y-121402928D01*
X164310786Y-121257786D01*
X164383357Y-121112643D01*
X165471929Y-123434929D02*
X165471929Y-122564072D01*
X165471929Y-122999500D02*
X163947929Y-122999500D01*
X164165643Y-122854357D01*
X164310786Y-122709215D01*
X164383357Y-122564072D01*
X109972929Y-99486357D02*
X111206643Y-99486357D01*
X111351786Y-99558929D01*
X111424357Y-99631500D01*
X111496929Y-99776643D01*
X111496929Y-100066929D01*
X111424357Y-100212071D01*
X111351786Y-100284643D01*
X111206643Y-100357214D01*
X109972929Y-100357214D01*
X111496929Y-101881214D02*
X111496929Y-101010357D01*
X111496929Y-101445785D02*
X109972929Y-101445785D01*
X110190643Y-101300642D01*
X110335786Y-101155500D01*
X110408357Y-101010357D01*
X107432929Y-98034928D02*
X107432929Y-98905785D01*
X108956929Y-98470356D02*
X107432929Y-98470356D01*
X108956929Y-100284642D02*
X108231214Y-99776642D01*
X108956929Y-99413785D02*
X107432929Y-99413785D01*
X107432929Y-99994357D01*
X107505500Y-100139499D01*
X107578071Y-100212071D01*
X107723214Y-100284642D01*
X107940929Y-100284642D01*
X108086071Y-100212071D01*
X108158643Y-100139499D01*
X108231214Y-99994357D01*
X108231214Y-99413785D01*
X108521500Y-100865214D02*
X108521500Y-101590928D01*
X108956929Y-100720071D02*
X107432929Y-101228071D01*
X108956929Y-101736071D01*
X108811786Y-103114928D02*
X108884357Y-103042357D01*
X108956929Y-102824643D01*
X108956929Y-102679500D01*
X108884357Y-102461785D01*
X108739214Y-102316643D01*
X108594071Y-102244071D01*
X108303786Y-102171500D01*
X108086071Y-102171500D01*
X107795786Y-102244071D01*
X107650643Y-102316643D01*
X107505500Y-102461785D01*
X107432929Y-102679500D01*
X107432929Y-102824643D01*
X107505500Y-103042357D01*
X107578071Y-103114928D01*
X107432929Y-104058357D02*
X107432929Y-104348643D01*
X107505500Y-104493785D01*
X107650643Y-104638928D01*
X107940929Y-104711500D01*
X108448929Y-104711500D01*
X108739214Y-104638928D01*
X108884357Y-104493785D01*
X108956929Y-104348643D01*
X108956929Y-104058357D01*
X108884357Y-103913214D01*
X108739214Y-103768071D01*
X108448929Y-103695500D01*
X107940929Y-103695500D01*
X107650643Y-103768071D01*
X107505500Y-103913214D01*
X107432929Y-104058357D01*
X108376357Y-105364642D02*
X108376357Y-106525785D01*
X107432929Y-107033785D02*
X107432929Y-107904642D01*
X108956929Y-107469213D02*
X107432929Y-107469213D01*
X108956929Y-108412642D02*
X107432929Y-108412642D01*
X108158643Y-108412642D02*
X108158643Y-109283499D01*
X108956929Y-109283499D02*
X107432929Y-109283499D01*
X108956929Y-110009213D02*
X107432929Y-110009213D01*
X108956929Y-110880070D01*
X107432929Y-110880070D01*
X108376357Y-111605784D02*
X108376357Y-112766927D01*
X108956929Y-114290927D02*
X108956929Y-113420070D01*
X108956929Y-113855498D02*
X107432929Y-113855498D01*
X107650643Y-113710355D01*
X107795786Y-113565213D01*
X107868357Y-113420070D01*
X107432929Y-115669784D02*
X107432929Y-114944070D01*
X108158643Y-114871499D01*
X108086071Y-114944070D01*
X108013500Y-115089213D01*
X108013500Y-115452070D01*
X108086071Y-115597213D01*
X108158643Y-115669784D01*
X108303786Y-115742356D01*
X108666643Y-115742356D01*
X108811786Y-115669784D01*
X108884357Y-115597213D01*
X108956929Y-115452070D01*
X108956929Y-115089213D01*
X108884357Y-114944070D01*
X108811786Y-114871499D01*
X108376357Y-116395499D02*
X108376357Y-117556642D01*
X108956929Y-119080642D02*
X108956929Y-118209785D01*
X108956929Y-118645213D02*
X107432929Y-118645213D01*
X107650643Y-118500070D01*
X107795786Y-118354928D01*
X107868357Y-118209785D01*
X107578071Y-119661214D02*
X107505500Y-119733785D01*
X107432929Y-119878928D01*
X107432929Y-120241785D01*
X107505500Y-120386928D01*
X107578071Y-120459499D01*
X107723214Y-120532071D01*
X107868357Y-120532071D01*
X108086071Y-120459499D01*
X108956929Y-119588642D01*
X108956929Y-120532071D01*
X108956929Y-121983500D02*
X108956929Y-121112643D01*
X108956929Y-121548071D02*
X107432929Y-121548071D01*
X107650643Y-121402928D01*
X107795786Y-121257786D01*
X107868357Y-121112643D01*
X108956929Y-123434929D02*
X108956929Y-122564072D01*
X108956929Y-122999500D02*
X107432929Y-122999500D01*
X107650643Y-122854357D01*
X107795786Y-122709215D01*
X107868357Y-122564072D01*
M02*
