G04 #@! TF.FileFunction,Soldermask,Top*
%FSLAX46Y46*%
G04 Gerber Fmt 4.6, Leading zero omitted, Abs format (unit mm)*
G04 Created by KiCad (PCBNEW 4.0.5+dfsg1-4) date Sun Oct 21 20:25:12 2018*
%MOMM*%
%LPD*%
G01*
G04 APERTURE LIST*
%ADD10C,0.150000*%
%ADD11R,1.808000X1.208000*%
%ADD12R,2.032000X3.508000*%
%ADD13C,3.108000*%
G04 APERTURE END LIST*
D10*
D11*
X150812500Y-114424500D03*
X150812500Y-112524500D03*
X148272500Y-114424500D03*
X148272500Y-112524500D03*
X145732500Y-114424500D03*
X145732500Y-112524500D03*
X143192500Y-114424500D03*
X143192500Y-112524500D03*
X94297500Y-114361000D03*
X94297500Y-112461000D03*
X91757500Y-114361000D03*
X91757500Y-112461000D03*
X89217500Y-114361000D03*
X89217500Y-112461000D03*
X86677500Y-114361000D03*
X86677500Y-112461000D03*
X114998500Y-114361000D03*
X114998500Y-112461000D03*
X117538500Y-114361000D03*
X117538500Y-112461000D03*
X120078500Y-114361000D03*
X120078500Y-112461000D03*
X122618500Y-114361000D03*
X122618500Y-112461000D03*
X122618500Y-83309500D03*
X122618500Y-81409500D03*
X120078500Y-83309500D03*
X120078500Y-81409500D03*
X117538500Y-83309500D03*
X117538500Y-81409500D03*
X114998500Y-83309500D03*
X114998500Y-81409500D03*
X86677500Y-83309500D03*
X86677500Y-81409500D03*
X89217500Y-83309500D03*
X89217500Y-81409500D03*
X91757500Y-83309500D03*
X91757500Y-81409500D03*
X94297500Y-83309500D03*
X94297500Y-81409500D03*
X143192500Y-83373000D03*
X143192500Y-81473000D03*
X145732500Y-83373000D03*
X145732500Y-81473000D03*
X148272500Y-83373000D03*
X148272500Y-81473000D03*
X150812500Y-83373000D03*
X150812500Y-81473000D03*
X150812500Y-52258000D03*
X150812500Y-50358000D03*
X148272500Y-52258000D03*
X148272500Y-50358000D03*
X145732500Y-52258000D03*
X145732500Y-50358000D03*
X143192500Y-52258000D03*
X143192500Y-50358000D03*
X94297500Y-52194500D03*
X94297500Y-50294500D03*
X91757500Y-52194500D03*
X91757500Y-50294500D03*
X89217500Y-52194500D03*
X89217500Y-50294500D03*
X86677500Y-52194500D03*
X86677500Y-50294500D03*
X114998500Y-52194500D03*
X114998500Y-50294500D03*
X117538500Y-52194500D03*
X117538500Y-50294500D03*
X120078500Y-52194500D03*
X120078500Y-50294500D03*
X122618500Y-52194500D03*
X122618500Y-50294500D03*
D12*
X84137500Y-53911500D03*
X86677500Y-53911500D03*
X89217500Y-53911500D03*
X91757500Y-53911500D03*
X94297500Y-53911500D03*
X96837500Y-53911500D03*
X101917500Y-53911500D03*
X140652500Y-53975000D03*
X143192500Y-53975000D03*
X145732500Y-53975000D03*
X148272500Y-53975000D03*
X150812500Y-53975000D03*
X153352500Y-53975000D03*
X158432500Y-53975000D03*
X140652500Y-85090000D03*
X143192500Y-85090000D03*
X145732500Y-85090000D03*
X148272500Y-85090000D03*
X150812500Y-85090000D03*
X153352500Y-85090000D03*
X158432500Y-85090000D03*
X112458500Y-85026500D03*
X114998500Y-85026500D03*
X117538500Y-85026500D03*
X120078500Y-85026500D03*
X122618500Y-85026500D03*
X125158500Y-85026500D03*
X130238500Y-85026500D03*
X84137500Y-85026500D03*
X86677500Y-85026500D03*
X89217500Y-85026500D03*
X91757500Y-85026500D03*
X94297500Y-85026500D03*
X96837500Y-85026500D03*
X101917500Y-85026500D03*
X84137500Y-116078000D03*
X86677500Y-116078000D03*
X89217500Y-116078000D03*
X91757500Y-116078000D03*
X94297500Y-116078000D03*
X96837500Y-116078000D03*
X101917500Y-116078000D03*
X112458500Y-116078000D03*
X114998500Y-116078000D03*
X117538500Y-116078000D03*
X120078500Y-116078000D03*
X122618500Y-116078000D03*
X125158500Y-116078000D03*
X130238500Y-116078000D03*
X140652500Y-116141500D03*
X143192500Y-116141500D03*
X145732500Y-116141500D03*
X148272500Y-116141500D03*
X150812500Y-116141500D03*
X153352500Y-116141500D03*
X158432500Y-116141500D03*
X112458500Y-53911500D03*
X114998500Y-53911500D03*
X117538500Y-53911500D03*
X120078500Y-53911500D03*
X122618500Y-53911500D03*
X125158500Y-53911500D03*
X130238500Y-53911500D03*
D13*
X103187500Y-28257500D03*
X103187500Y-35877500D03*
X103187500Y-40957500D03*
X82867500Y-38417500D03*
X82867500Y-28257500D03*
X82867500Y-48577500D03*
X131508500Y-28257500D03*
X131508500Y-35877500D03*
X131508500Y-40957500D03*
X111188500Y-38417500D03*
X111188500Y-28257500D03*
X111188500Y-48577500D03*
X159702500Y-28321000D03*
X159702500Y-35941000D03*
X159702500Y-41021000D03*
X139382500Y-38481000D03*
X139382500Y-28321000D03*
X139382500Y-48641000D03*
X159702500Y-59436000D03*
X159702500Y-67056000D03*
X159702500Y-72136000D03*
X139382500Y-69596000D03*
X139382500Y-59436000D03*
X139382500Y-79756000D03*
X131508500Y-59372500D03*
X131508500Y-66992500D03*
X131508500Y-72072500D03*
X111188500Y-69532500D03*
X111188500Y-59372500D03*
X111188500Y-79692500D03*
X103187500Y-59372500D03*
X103187500Y-66992500D03*
X103187500Y-72072500D03*
X82867500Y-69532500D03*
X82867500Y-59372500D03*
X82867500Y-79692500D03*
X131508500Y-90424000D03*
X131508500Y-98044000D03*
X131508500Y-103124000D03*
X111188500Y-100584000D03*
X111188500Y-90424000D03*
X111188500Y-110744000D03*
X159702500Y-90487500D03*
X159702500Y-98107500D03*
X159702500Y-103187500D03*
X139382500Y-100647500D03*
X139382500Y-90487500D03*
X139382500Y-110807500D03*
X103187500Y-90487500D03*
X103187500Y-98107500D03*
X103187500Y-103187500D03*
X82867500Y-100647500D03*
X82867500Y-90487500D03*
X82867500Y-110807500D03*
M02*
