%FSLAX45Y45*%
G04 Gerber Fmt 4.5, Leading zero omitted, Abs format (unit mm)*
G04 Created by KiCad (PCBNEW 5.0.2+dfsg1-1~bpo9+1) date ven. 20 sept. 2019 22:33:48 CEST*
%MOMM*%
%LPD*%
G01*
G04 APERTURE LIST*
%ADD10C,0.200000*%
%ADD11C,0.300000*%
G04 APERTURE END LIST*
D10*
X12674600Y-15608300D02*
X12674600Y-6146800D01*
X21297900Y-15608300D02*
X12674600Y-15608300D01*
X21297900Y-6146800D02*
X21297900Y-15608300D01*
X12674600Y-6146800D02*
X21297900Y-6146800D01*
D10*
X12895900Y-10444800D02*
X12935900Y-10484800D01*
X12935900Y-10444800D02*
X12895900Y-10484800D01*
X12895900Y-15207300D02*
X12935900Y-15247300D01*
X12935900Y-15207300D02*
X12895900Y-15247300D01*
X13492800Y-9746300D02*
X13532800Y-9786300D01*
X13532800Y-9746300D02*
X13492800Y-9786300D01*
X13492800Y-14508800D02*
X13532800Y-14548800D01*
X13532800Y-14508800D02*
X13492800Y-14548800D01*
X13530900Y-6266500D02*
X13570900Y-6306500D01*
X13570900Y-6266500D02*
X13530900Y-6306500D01*
X13530900Y-11029000D02*
X13570900Y-11069000D01*
X13570900Y-11029000D02*
X13530900Y-11069000D01*
X13721400Y-8793800D02*
X13761400Y-8833800D01*
X13761400Y-8793800D02*
X13721400Y-8833800D01*
X13721400Y-13556300D02*
X13761400Y-13596300D01*
X13761400Y-13556300D02*
X13721400Y-13596300D01*
X13797600Y-8895400D02*
X13837600Y-8935400D01*
X13837600Y-8895400D02*
X13797600Y-8935400D01*
X13797600Y-13657900D02*
X13837600Y-13697900D01*
X13837600Y-13657900D02*
X13797600Y-13697900D01*
X13808700Y-7955600D02*
X13848700Y-7995600D01*
X13848700Y-7955600D02*
X13808700Y-7995600D01*
X13808700Y-12718100D02*
X13848700Y-12758100D01*
X13848700Y-12718100D02*
X13808700Y-12758100D01*
X13886500Y-9543100D02*
X13926500Y-9583100D01*
X13926500Y-9543100D02*
X13886500Y-9583100D01*
X13886500Y-14305600D02*
X13926500Y-14345600D01*
X13926500Y-14305600D02*
X13886500Y-14345600D01*
X14000800Y-9466900D02*
X14040800Y-9506900D01*
X14040800Y-9466900D02*
X14000800Y-9506900D01*
X14000800Y-14229400D02*
X14040800Y-14269400D01*
X14040800Y-14229400D02*
X14000800Y-14269400D01*
X14331000Y-7130100D02*
X14371000Y-7170100D01*
X14371000Y-7130100D02*
X14331000Y-7170100D01*
X14331000Y-11892600D02*
X14371000Y-11932600D01*
X14371000Y-11892600D02*
X14331000Y-11932600D01*
X14381800Y-9632000D02*
X14421800Y-9672000D01*
X14421800Y-9632000D02*
X14381800Y-9672000D01*
X14381800Y-14394500D02*
X14421800Y-14434500D01*
X14421800Y-14394500D02*
X14381800Y-14434500D01*
X14483400Y-9746300D02*
X14523400Y-9786300D01*
X14523400Y-9746300D02*
X14483400Y-9786300D01*
X14483400Y-14508800D02*
X14523400Y-14548800D01*
X14523400Y-14508800D02*
X14483400Y-14548800D01*
X14585000Y-9835200D02*
X14625000Y-9875200D01*
X14625000Y-9835200D02*
X14585000Y-9875200D01*
X14585000Y-14597700D02*
X14625000Y-14637700D01*
X14625000Y-14597700D02*
X14585000Y-14637700D01*
X14762800Y-7053900D02*
X14802800Y-7093900D01*
X14802800Y-7053900D02*
X14762800Y-7093900D01*
X14762800Y-7053900D02*
X14802800Y-7093900D01*
X14802800Y-7053900D02*
X14762800Y-7093900D01*
X14762800Y-11816400D02*
X14802800Y-11856400D01*
X14802800Y-11816400D02*
X14762800Y-11856400D01*
X14762800Y-11816400D02*
X14802800Y-11856400D01*
X14802800Y-11816400D02*
X14762800Y-11856400D01*
X14775500Y-9378000D02*
X14815500Y-9418000D01*
X14815500Y-9378000D02*
X14775500Y-9418000D01*
X14775500Y-14140500D02*
X14815500Y-14180500D01*
X14815500Y-14140500D02*
X14775500Y-14180500D01*
X14902900Y-9416500D02*
X14942900Y-9456500D01*
X14942900Y-9416500D02*
X14902900Y-9456500D01*
X14902900Y-14179000D02*
X14942900Y-14219000D01*
X14942900Y-14179000D02*
X14902900Y-14219000D01*
X14978700Y-7498400D02*
X15018700Y-7538400D01*
X15018700Y-7498400D02*
X14978700Y-7538400D01*
X14978700Y-12260900D02*
X15018700Y-12300900D01*
X15018700Y-12260900D02*
X14978700Y-12300900D01*
X15093000Y-9555800D02*
X15133000Y-9595800D01*
X15133000Y-9555800D02*
X15093000Y-9595800D01*
X15093000Y-14318300D02*
X15133000Y-14358300D01*
X15133000Y-14318300D02*
X15093000Y-14358300D01*
X15232700Y-9632000D02*
X15272700Y-9672000D01*
X15272700Y-9632000D02*
X15232700Y-9672000D01*
X15232700Y-14394500D02*
X15272700Y-14434500D01*
X15272700Y-14394500D02*
X15232700Y-14434500D01*
X15791500Y-8120700D02*
X15831500Y-8160700D01*
X15831500Y-8120700D02*
X15791500Y-8160700D01*
X15791500Y-8222300D02*
X15831500Y-8262300D01*
X15831500Y-8222300D02*
X15791500Y-8262300D01*
X15791500Y-12883200D02*
X15831500Y-12923200D01*
X15831500Y-12883200D02*
X15791500Y-12923200D01*
X15791500Y-12984800D02*
X15831500Y-13024800D01*
X15831500Y-12984800D02*
X15791500Y-13024800D01*
X17252000Y-10444800D02*
X17292000Y-10484800D01*
X17292000Y-10444800D02*
X17252000Y-10484800D01*
X17252000Y-15207300D02*
X17292000Y-15247300D01*
X17292000Y-15207300D02*
X17252000Y-15247300D01*
X17848900Y-9746300D02*
X17888900Y-9786300D01*
X17888900Y-9746300D02*
X17848900Y-9786300D01*
X17848900Y-14508800D02*
X17888900Y-14548800D01*
X17888900Y-14508800D02*
X17848900Y-14548800D01*
X17887000Y-6266500D02*
X17927000Y-6306500D01*
X17927000Y-6266500D02*
X17887000Y-6306500D01*
X17887000Y-11029000D02*
X17927000Y-11069000D01*
X17927000Y-11029000D02*
X17887000Y-11069000D01*
X18077500Y-8793800D02*
X18117500Y-8833800D01*
X18117500Y-8793800D02*
X18077500Y-8833800D01*
X18077500Y-13556300D02*
X18117500Y-13596300D01*
X18117500Y-13556300D02*
X18077500Y-13596300D01*
X18153700Y-8895400D02*
X18193700Y-8935400D01*
X18193700Y-8895400D02*
X18153700Y-8935400D01*
X18153700Y-13657900D02*
X18193700Y-13697900D01*
X18193700Y-13657900D02*
X18153700Y-13697900D01*
X18164800Y-7955600D02*
X18204800Y-7995600D01*
X18204800Y-7955600D02*
X18164800Y-7995600D01*
X18164800Y-12718100D02*
X18204800Y-12758100D01*
X18204800Y-12718100D02*
X18164800Y-12758100D01*
X18242600Y-9543100D02*
X18282600Y-9583100D01*
X18282600Y-9543100D02*
X18242600Y-9583100D01*
X18242600Y-14305600D02*
X18282600Y-14345600D01*
X18282600Y-14305600D02*
X18242600Y-14345600D01*
X18356900Y-9466900D02*
X18396900Y-9506900D01*
X18396900Y-9466900D02*
X18356900Y-9506900D01*
X18356900Y-14229400D02*
X18396900Y-14269400D01*
X18396900Y-14229400D02*
X18356900Y-14269400D01*
X18687100Y-7130100D02*
X18727100Y-7170100D01*
X18727100Y-7130100D02*
X18687100Y-7170100D01*
X18687100Y-11892600D02*
X18727100Y-11932600D01*
X18727100Y-11892600D02*
X18687100Y-11932600D01*
X18737900Y-9632000D02*
X18777900Y-9672000D01*
X18777900Y-9632000D02*
X18737900Y-9672000D01*
X18737900Y-14394500D02*
X18777900Y-14434500D01*
X18777900Y-14394500D02*
X18737900Y-14434500D01*
X18839500Y-9746300D02*
X18879500Y-9786300D01*
X18879500Y-9746300D02*
X18839500Y-9786300D01*
X18839500Y-14508800D02*
X18879500Y-14548800D01*
X18879500Y-14508800D02*
X18839500Y-14548800D01*
X18941100Y-9835200D02*
X18981100Y-9875200D01*
X18981100Y-9835200D02*
X18941100Y-9875200D01*
X18941100Y-14597700D02*
X18981100Y-14637700D01*
X18981100Y-14597700D02*
X18941100Y-14637700D01*
X19118900Y-7053900D02*
X19158900Y-7093900D01*
X19158900Y-7053900D02*
X19118900Y-7093900D01*
X19118900Y-7053900D02*
X19158900Y-7093900D01*
X19158900Y-7053900D02*
X19118900Y-7093900D01*
X19118900Y-11816400D02*
X19158900Y-11856400D01*
X19158900Y-11816400D02*
X19118900Y-11856400D01*
X19118900Y-11816400D02*
X19158900Y-11856400D01*
X19158900Y-11816400D02*
X19118900Y-11856400D01*
X19131600Y-9378000D02*
X19171600Y-9418000D01*
X19171600Y-9378000D02*
X19131600Y-9418000D01*
X19131600Y-14140500D02*
X19171600Y-14180500D01*
X19171600Y-14140500D02*
X19131600Y-14180500D01*
X19259000Y-9416500D02*
X19299000Y-9456500D01*
X19299000Y-9416500D02*
X19259000Y-9456500D01*
X19259000Y-14179000D02*
X19299000Y-14219000D01*
X19299000Y-14179000D02*
X19259000Y-14219000D01*
X19334800Y-7498400D02*
X19374800Y-7538400D01*
X19374800Y-7498400D02*
X19334800Y-7538400D01*
X19334800Y-12260900D02*
X19374800Y-12300900D01*
X19374800Y-12260900D02*
X19334800Y-12300900D01*
X19449100Y-9555800D02*
X19489100Y-9595800D01*
X19489100Y-9555800D02*
X19449100Y-9595800D01*
X19449100Y-14318300D02*
X19489100Y-14358300D01*
X19489100Y-14318300D02*
X19449100Y-14358300D01*
X19588800Y-9632000D02*
X19628800Y-9672000D01*
X19628800Y-9632000D02*
X19588800Y-9672000D01*
X19588800Y-14394500D02*
X19628800Y-14434500D01*
X19628800Y-14394500D02*
X19588800Y-14434500D01*
X20147600Y-8120700D02*
X20187600Y-8160700D01*
X20187600Y-8120700D02*
X20147600Y-8160700D01*
X20147600Y-8222300D02*
X20187600Y-8262300D01*
X20187600Y-8222300D02*
X20147600Y-8262300D01*
X20147600Y-12883200D02*
X20187600Y-12923200D01*
X20187600Y-12883200D02*
X20147600Y-12923200D01*
X20147600Y-12984800D02*
X20187600Y-13024800D01*
X20187600Y-12984800D02*
X20147600Y-13024800D01*
X18147500Y-14998700D02*
G75*
G03X18147500Y-14998700I-50000J0D01*
G01*
X18147500Y-15252700D02*
G75*
G03X18147500Y-15252700I-50000J0D01*
G01*
X18401500Y-14998700D02*
G75*
G03X18401500Y-14998700I-50000J0D01*
G01*
X18401500Y-15252700D02*
G75*
G03X18401500Y-15252700I-50000J0D01*
G01*
X18655500Y-14998700D02*
G75*
G03X18655500Y-14998700I-50000J0D01*
G01*
X18655500Y-15252700D02*
G75*
G03X18655500Y-15252700I-50000J0D01*
G01*
X18909500Y-14998700D02*
G75*
G03X18909500Y-14998700I-50000J0D01*
G01*
X18909500Y-15252700D02*
G75*
G03X18909500Y-15252700I-50000J0D01*
G01*
X19163500Y-14998700D02*
G75*
G03X19163500Y-14998700I-50000J0D01*
G01*
X19163500Y-15252700D02*
G75*
G03X19163500Y-15252700I-50000J0D01*
G01*
X19417500Y-14998700D02*
G75*
G03X19417500Y-14998700I-50000J0D01*
G01*
X19417500Y-15252700D02*
G75*
G03X19417500Y-15252700I-50000J0D01*
G01*
X19671500Y-14998700D02*
G75*
G03X19671500Y-14998700I-50000J0D01*
G01*
X19671500Y-15252700D02*
G75*
G03X19671500Y-15252700I-50000J0D01*
G01*
X19925500Y-14998700D02*
G75*
G03X19925500Y-14998700I-50000J0D01*
G01*
X19925500Y-15252700D02*
G75*
G03X19925500Y-15252700I-50000J0D01*
G01*
X13054800Y-7620000D02*
G75*
G03X13054800Y-7620000I-50000J0D01*
G01*
X13054800Y-7874000D02*
G75*
G03X13054800Y-7874000I-50000J0D01*
G01*
X13054800Y-8128000D02*
G75*
G03X13054800Y-8128000I-50000J0D01*
G01*
X13054800Y-8382000D02*
G75*
G03X13054800Y-8382000I-50000J0D01*
G01*
X13054800Y-8636000D02*
G75*
G03X13054800Y-8636000I-50000J0D01*
G01*
X13054800Y-8890000D02*
G75*
G03X13054800Y-8890000I-50000J0D01*
G01*
X13054800Y-9144000D02*
G75*
G03X13054800Y-9144000I-50000J0D01*
G01*
X13054800Y-9398000D02*
G75*
G03X13054800Y-9398000I-50000J0D01*
G01*
X13308800Y-7620000D02*
G75*
G03X13308800Y-7620000I-50000J0D01*
G01*
X13308800Y-7874000D02*
G75*
G03X13308800Y-7874000I-50000J0D01*
G01*
X13308800Y-8128000D02*
G75*
G03X13308800Y-8128000I-50000J0D01*
G01*
X13308800Y-8382000D02*
G75*
G03X13308800Y-8382000I-50000J0D01*
G01*
X13308800Y-8636000D02*
G75*
G03X13308800Y-8636000I-50000J0D01*
G01*
X13308800Y-8890000D02*
G75*
G03X13308800Y-8890000I-50000J0D01*
G01*
X13308800Y-9144000D02*
G75*
G03X13308800Y-9144000I-50000J0D01*
G01*
X13308800Y-9398000D02*
G75*
G03X13308800Y-9398000I-50000J0D01*
G01*
X13791400Y-6515100D02*
G75*
G03X13791400Y-6515100I-50000J0D01*
G01*
X13791400Y-6769100D02*
G75*
G03X13791400Y-6769100I-50000J0D01*
G01*
X14045400Y-6515100D02*
G75*
G03X14045400Y-6515100I-50000J0D01*
G01*
X14045400Y-6769100D02*
G75*
G03X14045400Y-6769100I-50000J0D01*
G01*
X14299400Y-6515100D02*
G75*
G03X14299400Y-6515100I-50000J0D01*
G01*
X14299400Y-6769100D02*
G75*
G03X14299400Y-6769100I-50000J0D01*
G01*
X14553400Y-6515100D02*
G75*
G03X14553400Y-6515100I-50000J0D01*
G01*
X14553400Y-6769100D02*
G75*
G03X14553400Y-6769100I-50000J0D01*
G01*
X14807400Y-6515100D02*
G75*
G03X14807400Y-6515100I-50000J0D01*
G01*
X14807400Y-6769100D02*
G75*
G03X14807400Y-6769100I-50000J0D01*
G01*
X15061400Y-6515100D02*
G75*
G03X15061400Y-6515100I-50000J0D01*
G01*
X15061400Y-6769100D02*
G75*
G03X15061400Y-6769100I-50000J0D01*
G01*
X15315400Y-6515100D02*
G75*
G03X15315400Y-6515100I-50000J0D01*
G01*
X15315400Y-6769100D02*
G75*
G03X15315400Y-6769100I-50000J0D01*
G01*
X15569400Y-6515100D02*
G75*
G03X15569400Y-6515100I-50000J0D01*
G01*
X15569400Y-6769100D02*
G75*
G03X15569400Y-6769100I-50000J0D01*
G01*
X17410900Y-12382500D02*
G75*
G03X17410900Y-12382500I-50000J0D01*
G01*
X17410900Y-12636500D02*
G75*
G03X17410900Y-12636500I-50000J0D01*
G01*
X17410900Y-12890500D02*
G75*
G03X17410900Y-12890500I-50000J0D01*
G01*
X17410900Y-13144500D02*
G75*
G03X17410900Y-13144500I-50000J0D01*
G01*
X17410900Y-13398500D02*
G75*
G03X17410900Y-13398500I-50000J0D01*
G01*
X17410900Y-13652500D02*
G75*
G03X17410900Y-13652500I-50000J0D01*
G01*
X17410900Y-13906500D02*
G75*
G03X17410900Y-13906500I-50000J0D01*
G01*
X17410900Y-14160500D02*
G75*
G03X17410900Y-14160500I-50000J0D01*
G01*
X17664900Y-12382500D02*
G75*
G03X17664900Y-12382500I-50000J0D01*
G01*
X17664900Y-12636500D02*
G75*
G03X17664900Y-12636500I-50000J0D01*
G01*
X17664900Y-12890500D02*
G75*
G03X17664900Y-12890500I-50000J0D01*
G01*
X17664900Y-13144500D02*
G75*
G03X17664900Y-13144500I-50000J0D01*
G01*
X17664900Y-13398500D02*
G75*
G03X17664900Y-13398500I-50000J0D01*
G01*
X17664900Y-13652500D02*
G75*
G03X17664900Y-13652500I-50000J0D01*
G01*
X17664900Y-13906500D02*
G75*
G03X17664900Y-13906500I-50000J0D01*
G01*
X17664900Y-14160500D02*
G75*
G03X17664900Y-14160500I-50000J0D01*
G01*
X13791400Y-11277600D02*
G75*
G03X13791400Y-11277600I-50000J0D01*
G01*
X13791400Y-11531600D02*
G75*
G03X13791400Y-11531600I-50000J0D01*
G01*
X14045400Y-11277600D02*
G75*
G03X14045400Y-11277600I-50000J0D01*
G01*
X14045400Y-11531600D02*
G75*
G03X14045400Y-11531600I-50000J0D01*
G01*
X14299400Y-11277600D02*
G75*
G03X14299400Y-11277600I-50000J0D01*
G01*
X14299400Y-11531600D02*
G75*
G03X14299400Y-11531600I-50000J0D01*
G01*
X14553400Y-11277600D02*
G75*
G03X14553400Y-11277600I-50000J0D01*
G01*
X14553400Y-11531600D02*
G75*
G03X14553400Y-11531600I-50000J0D01*
G01*
X14807400Y-11277600D02*
G75*
G03X14807400Y-11277600I-50000J0D01*
G01*
X14807400Y-11531600D02*
G75*
G03X14807400Y-11531600I-50000J0D01*
G01*
X15061400Y-11277600D02*
G75*
G03X15061400Y-11277600I-50000J0D01*
G01*
X15061400Y-11531600D02*
G75*
G03X15061400Y-11531600I-50000J0D01*
G01*
X15315400Y-11277600D02*
G75*
G03X15315400Y-11277600I-50000J0D01*
G01*
X15315400Y-11531600D02*
G75*
G03X15315400Y-11531600I-50000J0D01*
G01*
X15569400Y-11277600D02*
G75*
G03X15569400Y-11277600I-50000J0D01*
G01*
X15569400Y-11531600D02*
G75*
G03X15569400Y-11531600I-50000J0D01*
G01*
X17410900Y-7620000D02*
G75*
G03X17410900Y-7620000I-50000J0D01*
G01*
X17410900Y-7874000D02*
G75*
G03X17410900Y-7874000I-50000J0D01*
G01*
X17410900Y-8128000D02*
G75*
G03X17410900Y-8128000I-50000J0D01*
G01*
X17410900Y-8382000D02*
G75*
G03X17410900Y-8382000I-50000J0D01*
G01*
X17410900Y-8636000D02*
G75*
G03X17410900Y-8636000I-50000J0D01*
G01*
X17410900Y-8890000D02*
G75*
G03X17410900Y-8890000I-50000J0D01*
G01*
X17410900Y-9144000D02*
G75*
G03X17410900Y-9144000I-50000J0D01*
G01*
X17410900Y-9398000D02*
G75*
G03X17410900Y-9398000I-50000J0D01*
G01*
X17664900Y-7620000D02*
G75*
G03X17664900Y-7620000I-50000J0D01*
G01*
X17664900Y-7874000D02*
G75*
G03X17664900Y-7874000I-50000J0D01*
G01*
X17664900Y-8128000D02*
G75*
G03X17664900Y-8128000I-50000J0D01*
G01*
X17664900Y-8382000D02*
G75*
G03X17664900Y-8382000I-50000J0D01*
G01*
X17664900Y-8636000D02*
G75*
G03X17664900Y-8636000I-50000J0D01*
G01*
X17664900Y-8890000D02*
G75*
G03X17664900Y-8890000I-50000J0D01*
G01*
X17664900Y-9144000D02*
G75*
G03X17664900Y-9144000I-50000J0D01*
G01*
X17664900Y-9398000D02*
G75*
G03X17664900Y-9398000I-50000J0D01*
G01*
X20751000Y-7620000D02*
G75*
G03X20751000Y-7620000I-50000J0D01*
G01*
X20751000Y-7874000D02*
G75*
G03X20751000Y-7874000I-50000J0D01*
G01*
X20751000Y-8128000D02*
G75*
G03X20751000Y-8128000I-50000J0D01*
G01*
X20751000Y-8382000D02*
G75*
G03X20751000Y-8382000I-50000J0D01*
G01*
X20751000Y-8636000D02*
G75*
G03X20751000Y-8636000I-50000J0D01*
G01*
X20751000Y-8890000D02*
G75*
G03X20751000Y-8890000I-50000J0D01*
G01*
X20751000Y-9144000D02*
G75*
G03X20751000Y-9144000I-50000J0D01*
G01*
X20751000Y-9398000D02*
G75*
G03X20751000Y-9398000I-50000J0D01*
G01*
X21005000Y-7620000D02*
G75*
G03X21005000Y-7620000I-50000J0D01*
G01*
X21005000Y-7874000D02*
G75*
G03X21005000Y-7874000I-50000J0D01*
G01*
X21005000Y-8128000D02*
G75*
G03X21005000Y-8128000I-50000J0D01*
G01*
X21005000Y-8382000D02*
G75*
G03X21005000Y-8382000I-50000J0D01*
G01*
X21005000Y-8636000D02*
G75*
G03X21005000Y-8636000I-50000J0D01*
G01*
X21005000Y-8890000D02*
G75*
G03X21005000Y-8890000I-50000J0D01*
G01*
X21005000Y-9144000D02*
G75*
G03X21005000Y-9144000I-50000J0D01*
G01*
X21005000Y-9398000D02*
G75*
G03X21005000Y-9398000I-50000J0D01*
G01*
X18147500Y-6515100D02*
G75*
G03X18147500Y-6515100I-50000J0D01*
G01*
X18147500Y-6769100D02*
G75*
G03X18147500Y-6769100I-50000J0D01*
G01*
X18401500Y-6515100D02*
G75*
G03X18401500Y-6515100I-50000J0D01*
G01*
X18401500Y-6769100D02*
G75*
G03X18401500Y-6769100I-50000J0D01*
G01*
X18655500Y-6515100D02*
G75*
G03X18655500Y-6515100I-50000J0D01*
G01*
X18655500Y-6769100D02*
G75*
G03X18655500Y-6769100I-50000J0D01*
G01*
X18909500Y-6515100D02*
G75*
G03X18909500Y-6515100I-50000J0D01*
G01*
X18909500Y-6769100D02*
G75*
G03X18909500Y-6769100I-50000J0D01*
G01*
X19163500Y-6515100D02*
G75*
G03X19163500Y-6515100I-50000J0D01*
G01*
X19163500Y-6769100D02*
G75*
G03X19163500Y-6769100I-50000J0D01*
G01*
X19417500Y-6515100D02*
G75*
G03X19417500Y-6515100I-50000J0D01*
G01*
X19417500Y-6769100D02*
G75*
G03X19417500Y-6769100I-50000J0D01*
G01*
X19671500Y-6515100D02*
G75*
G03X19671500Y-6515100I-50000J0D01*
G01*
X19671500Y-6769100D02*
G75*
G03X19671500Y-6769100I-50000J0D01*
G01*
X19925500Y-6515100D02*
G75*
G03X19925500Y-6515100I-50000J0D01*
G01*
X19925500Y-6769100D02*
G75*
G03X19925500Y-6769100I-50000J0D01*
G01*
X18147500Y-10236200D02*
G75*
G03X18147500Y-10236200I-50000J0D01*
G01*
X18147500Y-10490200D02*
G75*
G03X18147500Y-10490200I-50000J0D01*
G01*
X18401500Y-10236200D02*
G75*
G03X18401500Y-10236200I-50000J0D01*
G01*
X18401500Y-10490200D02*
G75*
G03X18401500Y-10490200I-50000J0D01*
G01*
X18655500Y-10236200D02*
G75*
G03X18655500Y-10236200I-50000J0D01*
G01*
X18655500Y-10490200D02*
G75*
G03X18655500Y-10490200I-50000J0D01*
G01*
X18909500Y-10236200D02*
G75*
G03X18909500Y-10236200I-50000J0D01*
G01*
X18909500Y-10490200D02*
G75*
G03X18909500Y-10490200I-50000J0D01*
G01*
X19163500Y-10236200D02*
G75*
G03X19163500Y-10236200I-50000J0D01*
G01*
X19163500Y-10490200D02*
G75*
G03X19163500Y-10490200I-50000J0D01*
G01*
X19417500Y-10236200D02*
G75*
G03X19417500Y-10236200I-50000J0D01*
G01*
X19417500Y-10490200D02*
G75*
G03X19417500Y-10490200I-50000J0D01*
G01*
X19671500Y-10236200D02*
G75*
G03X19671500Y-10236200I-50000J0D01*
G01*
X19671500Y-10490200D02*
G75*
G03X19671500Y-10490200I-50000J0D01*
G01*
X19925500Y-10236200D02*
G75*
G03X19925500Y-10236200I-50000J0D01*
G01*
X19925500Y-10490200D02*
G75*
G03X19925500Y-10490200I-50000J0D01*
G01*
X13791400Y-14998700D02*
G75*
G03X13791400Y-14998700I-50000J0D01*
G01*
X13791400Y-15252700D02*
G75*
G03X13791400Y-15252700I-50000J0D01*
G01*
X14045400Y-14998700D02*
G75*
G03X14045400Y-14998700I-50000J0D01*
G01*
X14045400Y-15252700D02*
G75*
G03X14045400Y-15252700I-50000J0D01*
G01*
X14299400Y-14998700D02*
G75*
G03X14299400Y-14998700I-50000J0D01*
G01*
X14299400Y-15252700D02*
G75*
G03X14299400Y-15252700I-50000J0D01*
G01*
X14553400Y-14998700D02*
G75*
G03X14553400Y-14998700I-50000J0D01*
G01*
X14553400Y-15252700D02*
G75*
G03X14553400Y-15252700I-50000J0D01*
G01*
X14807400Y-14998700D02*
G75*
G03X14807400Y-14998700I-50000J0D01*
G01*
X14807400Y-15252700D02*
G75*
G03X14807400Y-15252700I-50000J0D01*
G01*
X15061400Y-14998700D02*
G75*
G03X15061400Y-14998700I-50000J0D01*
G01*
X15061400Y-15252700D02*
G75*
G03X15061400Y-15252700I-50000J0D01*
G01*
X15315400Y-14998700D02*
G75*
G03X15315400Y-14998700I-50000J0D01*
G01*
X15315400Y-15252700D02*
G75*
G03X15315400Y-15252700I-50000J0D01*
G01*
X15569400Y-14998700D02*
G75*
G03X15569400Y-14998700I-50000J0D01*
G01*
X15569400Y-15252700D02*
G75*
G03X15569400Y-15252700I-50000J0D01*
G01*
X13054800Y-12382500D02*
G75*
G03X13054800Y-12382500I-50000J0D01*
G01*
X13054800Y-12636500D02*
G75*
G03X13054800Y-12636500I-50000J0D01*
G01*
X13054800Y-12890500D02*
G75*
G03X13054800Y-12890500I-50000J0D01*
G01*
X13054800Y-13144500D02*
G75*
G03X13054800Y-13144500I-50000J0D01*
G01*
X13054800Y-13398500D02*
G75*
G03X13054800Y-13398500I-50000J0D01*
G01*
X13054800Y-13652500D02*
G75*
G03X13054800Y-13652500I-50000J0D01*
G01*
X13054800Y-13906500D02*
G75*
G03X13054800Y-13906500I-50000J0D01*
G01*
X13054800Y-14160500D02*
G75*
G03X13054800Y-14160500I-50000J0D01*
G01*
X13308800Y-12382500D02*
G75*
G03X13308800Y-12382500I-50000J0D01*
G01*
X13308800Y-12636500D02*
G75*
G03X13308800Y-12636500I-50000J0D01*
G01*
X13308800Y-12890500D02*
G75*
G03X13308800Y-12890500I-50000J0D01*
G01*
X13308800Y-13144500D02*
G75*
G03X13308800Y-13144500I-50000J0D01*
G01*
X13308800Y-13398500D02*
G75*
G03X13308800Y-13398500I-50000J0D01*
G01*
X13308800Y-13652500D02*
G75*
G03X13308800Y-13652500I-50000J0D01*
G01*
X13308800Y-13906500D02*
G75*
G03X13308800Y-13906500I-50000J0D01*
G01*
X13308800Y-14160500D02*
G75*
G03X13308800Y-14160500I-50000J0D01*
G01*
X13791400Y-10236200D02*
G75*
G03X13791400Y-10236200I-50000J0D01*
G01*
X13791400Y-10490200D02*
G75*
G03X13791400Y-10490200I-50000J0D01*
G01*
X14045400Y-10236200D02*
G75*
G03X14045400Y-10236200I-50000J0D01*
G01*
X14045400Y-10490200D02*
G75*
G03X14045400Y-10490200I-50000J0D01*
G01*
X14299400Y-10236200D02*
G75*
G03X14299400Y-10236200I-50000J0D01*
G01*
X14299400Y-10490200D02*
G75*
G03X14299400Y-10490200I-50000J0D01*
G01*
X14553400Y-10236200D02*
G75*
G03X14553400Y-10236200I-50000J0D01*
G01*
X14553400Y-10490200D02*
G75*
G03X14553400Y-10490200I-50000J0D01*
G01*
X14807400Y-10236200D02*
G75*
G03X14807400Y-10236200I-50000J0D01*
G01*
X14807400Y-10490200D02*
G75*
G03X14807400Y-10490200I-50000J0D01*
G01*
X15061400Y-10236200D02*
G75*
G03X15061400Y-10236200I-50000J0D01*
G01*
X15061400Y-10490200D02*
G75*
G03X15061400Y-10490200I-50000J0D01*
G01*
X15315400Y-10236200D02*
G75*
G03X15315400Y-10236200I-50000J0D01*
G01*
X15315400Y-10490200D02*
G75*
G03X15315400Y-10490200I-50000J0D01*
G01*
X15569400Y-10236200D02*
G75*
G03X15569400Y-10236200I-50000J0D01*
G01*
X15569400Y-10490200D02*
G75*
G03X15569400Y-10490200I-50000J0D01*
G01*
X16394900Y-12382500D02*
G75*
G03X16394900Y-12382500I-50000J0D01*
G01*
X16394900Y-12636500D02*
G75*
G03X16394900Y-12636500I-50000J0D01*
G01*
X16394900Y-12890500D02*
G75*
G03X16394900Y-12890500I-50000J0D01*
G01*
X16394900Y-13144500D02*
G75*
G03X16394900Y-13144500I-50000J0D01*
G01*
X16394900Y-13398500D02*
G75*
G03X16394900Y-13398500I-50000J0D01*
G01*
X16394900Y-13652500D02*
G75*
G03X16394900Y-13652500I-50000J0D01*
G01*
X16394900Y-13906500D02*
G75*
G03X16394900Y-13906500I-50000J0D01*
G01*
X16394900Y-14160500D02*
G75*
G03X16394900Y-14160500I-50000J0D01*
G01*
X16648900Y-12382500D02*
G75*
G03X16648900Y-12382500I-50000J0D01*
G01*
X16648900Y-12636500D02*
G75*
G03X16648900Y-12636500I-50000J0D01*
G01*
X16648900Y-12890500D02*
G75*
G03X16648900Y-12890500I-50000J0D01*
G01*
X16648900Y-13144500D02*
G75*
G03X16648900Y-13144500I-50000J0D01*
G01*
X16648900Y-13398500D02*
G75*
G03X16648900Y-13398500I-50000J0D01*
G01*
X16648900Y-13652500D02*
G75*
G03X16648900Y-13652500I-50000J0D01*
G01*
X16648900Y-13906500D02*
G75*
G03X16648900Y-13906500I-50000J0D01*
G01*
X16648900Y-14160500D02*
G75*
G03X16648900Y-14160500I-50000J0D01*
G01*
X20751000Y-12382500D02*
G75*
G03X20751000Y-12382500I-50000J0D01*
G01*
X20751000Y-12636500D02*
G75*
G03X20751000Y-12636500I-50000J0D01*
G01*
X20751000Y-12890500D02*
G75*
G03X20751000Y-12890500I-50000J0D01*
G01*
X20751000Y-13144500D02*
G75*
G03X20751000Y-13144500I-50000J0D01*
G01*
X20751000Y-13398500D02*
G75*
G03X20751000Y-13398500I-50000J0D01*
G01*
X20751000Y-13652500D02*
G75*
G03X20751000Y-13652500I-50000J0D01*
G01*
X20751000Y-13906500D02*
G75*
G03X20751000Y-13906500I-50000J0D01*
G01*
X20751000Y-14160500D02*
G75*
G03X20751000Y-14160500I-50000J0D01*
G01*
X21005000Y-12382500D02*
G75*
G03X21005000Y-12382500I-50000J0D01*
G01*
X21005000Y-12636500D02*
G75*
G03X21005000Y-12636500I-50000J0D01*
G01*
X21005000Y-12890500D02*
G75*
G03X21005000Y-12890500I-50000J0D01*
G01*
X21005000Y-13144500D02*
G75*
G03X21005000Y-13144500I-50000J0D01*
G01*
X21005000Y-13398500D02*
G75*
G03X21005000Y-13398500I-50000J0D01*
G01*
X21005000Y-13652500D02*
G75*
G03X21005000Y-13652500I-50000J0D01*
G01*
X21005000Y-13906500D02*
G75*
G03X21005000Y-13906500I-50000J0D01*
G01*
X21005000Y-14160500D02*
G75*
G03X21005000Y-14160500I-50000J0D01*
G01*
X18147500Y-11277600D02*
G75*
G03X18147500Y-11277600I-50000J0D01*
G01*
X18147500Y-11531600D02*
G75*
G03X18147500Y-11531600I-50000J0D01*
G01*
X18401500Y-11277600D02*
G75*
G03X18401500Y-11277600I-50000J0D01*
G01*
X18401500Y-11531600D02*
G75*
G03X18401500Y-11531600I-50000J0D01*
G01*
X18655500Y-11277600D02*
G75*
G03X18655500Y-11277600I-50000J0D01*
G01*
X18655500Y-11531600D02*
G75*
G03X18655500Y-11531600I-50000J0D01*
G01*
X18909500Y-11277600D02*
G75*
G03X18909500Y-11277600I-50000J0D01*
G01*
X18909500Y-11531600D02*
G75*
G03X18909500Y-11531600I-50000J0D01*
G01*
X19163500Y-11277600D02*
G75*
G03X19163500Y-11277600I-50000J0D01*
G01*
X19163500Y-11531600D02*
G75*
G03X19163500Y-11531600I-50000J0D01*
G01*
X19417500Y-11277600D02*
G75*
G03X19417500Y-11277600I-50000J0D01*
G01*
X19417500Y-11531600D02*
G75*
G03X19417500Y-11531600I-50000J0D01*
G01*
X19671500Y-11277600D02*
G75*
G03X19671500Y-11277600I-50000J0D01*
G01*
X19671500Y-11531600D02*
G75*
G03X19671500Y-11531600I-50000J0D01*
G01*
X19925500Y-11277600D02*
G75*
G03X19925500Y-11277600I-50000J0D01*
G01*
X19925500Y-11531600D02*
G75*
G03X19925500Y-11531600I-50000J0D01*
G01*
X16394900Y-7620000D02*
G75*
G03X16394900Y-7620000I-50000J0D01*
G01*
X16394900Y-7874000D02*
G75*
G03X16394900Y-7874000I-50000J0D01*
G01*
X16394900Y-8128000D02*
G75*
G03X16394900Y-8128000I-50000J0D01*
G01*
X16394900Y-8382000D02*
G75*
G03X16394900Y-8382000I-50000J0D01*
G01*
X16394900Y-8636000D02*
G75*
G03X16394900Y-8636000I-50000J0D01*
G01*
X16394900Y-8890000D02*
G75*
G03X16394900Y-8890000I-50000J0D01*
G01*
X16394900Y-9144000D02*
G75*
G03X16394900Y-9144000I-50000J0D01*
G01*
X16394900Y-9398000D02*
G75*
G03X16394900Y-9398000I-50000J0D01*
G01*
X16648900Y-7620000D02*
G75*
G03X16648900Y-7620000I-50000J0D01*
G01*
X16648900Y-7874000D02*
G75*
G03X16648900Y-7874000I-50000J0D01*
G01*
X16648900Y-8128000D02*
G75*
G03X16648900Y-8128000I-50000J0D01*
G01*
X16648900Y-8382000D02*
G75*
G03X16648900Y-8382000I-50000J0D01*
G01*
X16648900Y-8636000D02*
G75*
G03X16648900Y-8636000I-50000J0D01*
G01*
X16648900Y-8890000D02*
G75*
G03X16648900Y-8890000I-50000J0D01*
G01*
X16648900Y-9144000D02*
G75*
G03X16648900Y-9144000I-50000J0D01*
G01*
X16648900Y-9398000D02*
G75*
G03X16648900Y-9398000I-50000J0D01*
G01*
D11*
X12951028Y-16084014D02*
X12951028Y-15784014D01*
X13022457Y-15784014D01*
X13065314Y-15798300D01*
X13093886Y-15826871D01*
X13108171Y-15855443D01*
X13122457Y-15912586D01*
X13122457Y-15955443D01*
X13108171Y-16012586D01*
X13093886Y-16041157D01*
X13065314Y-16069729D01*
X13022457Y-16084014D01*
X12951028Y-16084014D01*
X13251028Y-16084014D02*
X13251028Y-15884014D01*
X13251028Y-15941157D02*
X13265314Y-15912586D01*
X13279600Y-15898300D01*
X13308171Y-15884014D01*
X13336743Y-15884014D01*
X13436743Y-16084014D02*
X13436743Y-15884014D01*
X13436743Y-15784014D02*
X13422457Y-15798300D01*
X13436743Y-15812586D01*
X13451028Y-15798300D01*
X13436743Y-15784014D01*
X13436743Y-15812586D01*
X13622457Y-16084014D02*
X13593886Y-16069729D01*
X13579600Y-16041157D01*
X13579600Y-15784014D01*
X13779600Y-16084014D02*
X13751028Y-16069729D01*
X13736743Y-16041157D01*
X13736743Y-15784014D01*
X14122457Y-16084014D02*
X14122457Y-15784014D01*
X14222457Y-15998300D01*
X14322457Y-15784014D01*
X14322457Y-16084014D01*
X14593886Y-16084014D02*
X14593886Y-15926871D01*
X14579600Y-15898300D01*
X14551028Y-15884014D01*
X14493886Y-15884014D01*
X14465314Y-15898300D01*
X14593886Y-16069729D02*
X14565314Y-16084014D01*
X14493886Y-16084014D01*
X14465314Y-16069729D01*
X14451028Y-16041157D01*
X14451028Y-16012586D01*
X14465314Y-15984014D01*
X14493886Y-15969729D01*
X14565314Y-15969729D01*
X14593886Y-15955443D01*
X14736743Y-15884014D02*
X14736743Y-16184014D01*
X14736743Y-15898300D02*
X14765314Y-15884014D01*
X14822457Y-15884014D01*
X14851028Y-15898300D01*
X14865314Y-15912586D01*
X14879600Y-15941157D01*
X14879600Y-16026871D01*
X14865314Y-16055443D01*
X14851028Y-16069729D01*
X14822457Y-16084014D01*
X14765314Y-16084014D01*
X14736743Y-16069729D01*
X15008171Y-16055443D02*
X15022457Y-16069729D01*
X15008171Y-16084014D01*
X14993886Y-16069729D01*
X15008171Y-16055443D01*
X15008171Y-16084014D01*
X15008171Y-15898300D02*
X15022457Y-15912586D01*
X15008171Y-15926871D01*
X14993886Y-15912586D01*
X15008171Y-15898300D01*
X15008171Y-15926871D01*
X12624600Y-16558300D02*
X12664600Y-16598300D01*
X12664600Y-16558300D02*
X12624600Y-16598300D01*
X13008171Y-16414014D02*
X13036743Y-16414014D01*
X13065314Y-16428300D01*
X13079600Y-16442586D01*
X13093886Y-16471157D01*
X13108171Y-16528300D01*
X13108171Y-16599729D01*
X13093886Y-16656871D01*
X13079600Y-16685443D01*
X13065314Y-16699729D01*
X13036743Y-16714014D01*
X13008171Y-16714014D01*
X12979600Y-16699729D01*
X12965314Y-16685443D01*
X12951028Y-16656871D01*
X12936743Y-16599729D01*
X12936743Y-16528300D01*
X12951028Y-16471157D01*
X12965314Y-16442586D01*
X12979600Y-16428300D01*
X13008171Y-16414014D01*
X13236743Y-16685443D02*
X13251028Y-16699729D01*
X13236743Y-16714014D01*
X13222457Y-16699729D01*
X13236743Y-16685443D01*
X13236743Y-16714014D01*
X13508171Y-16514014D02*
X13508171Y-16714014D01*
X13436743Y-16399729D02*
X13365314Y-16614014D01*
X13551028Y-16614014D01*
X13722457Y-16414014D02*
X13751028Y-16414014D01*
X13779600Y-16428300D01*
X13793886Y-16442586D01*
X13808171Y-16471157D01*
X13822457Y-16528300D01*
X13822457Y-16599729D01*
X13808171Y-16656871D01*
X13793886Y-16685443D01*
X13779600Y-16699729D01*
X13751028Y-16714014D01*
X13722457Y-16714014D01*
X13693886Y-16699729D01*
X13679600Y-16685443D01*
X13665314Y-16656871D01*
X13651028Y-16599729D01*
X13651028Y-16528300D01*
X13665314Y-16471157D01*
X13679600Y-16442586D01*
X13693886Y-16428300D01*
X13722457Y-16414014D01*
X13951028Y-16714014D02*
X13951028Y-16514014D01*
X13951028Y-16542586D02*
X13965314Y-16528300D01*
X13993886Y-16514014D01*
X14036743Y-16514014D01*
X14065314Y-16528300D01*
X14079600Y-16556871D01*
X14079600Y-16714014D01*
X14079600Y-16556871D02*
X14093886Y-16528300D01*
X14122457Y-16514014D01*
X14165314Y-16514014D01*
X14193886Y-16528300D01*
X14208171Y-16556871D01*
X14208171Y-16714014D01*
X14351028Y-16714014D02*
X14351028Y-16514014D01*
X14351028Y-16542586D02*
X14365314Y-16528300D01*
X14393886Y-16514014D01*
X14436743Y-16514014D01*
X14465314Y-16528300D01*
X14479600Y-16556871D01*
X14479600Y-16714014D01*
X14479600Y-16556871D02*
X14493886Y-16528300D01*
X14522457Y-16514014D01*
X14565314Y-16514014D01*
X14593886Y-16528300D01*
X14608171Y-16556871D01*
X14608171Y-16714014D01*
X15193886Y-16399729D02*
X14936743Y-16785443D01*
X15579600Y-16414014D02*
X15608171Y-16414014D01*
X15636743Y-16428300D01*
X15651028Y-16442586D01*
X15665314Y-16471157D01*
X15679600Y-16528300D01*
X15679600Y-16599729D01*
X15665314Y-16656871D01*
X15651028Y-16685443D01*
X15636743Y-16699729D01*
X15608171Y-16714014D01*
X15579600Y-16714014D01*
X15551028Y-16699729D01*
X15536743Y-16685443D01*
X15522457Y-16656871D01*
X15508171Y-16599729D01*
X15508171Y-16528300D01*
X15522457Y-16471157D01*
X15536743Y-16442586D01*
X15551028Y-16428300D01*
X15579600Y-16414014D01*
X15808171Y-16685443D02*
X15822457Y-16699729D01*
X15808171Y-16714014D01*
X15793886Y-16699729D01*
X15808171Y-16685443D01*
X15808171Y-16714014D01*
X16008171Y-16414014D02*
X16036743Y-16414014D01*
X16065314Y-16428300D01*
X16079600Y-16442586D01*
X16093886Y-16471157D01*
X16108171Y-16528300D01*
X16108171Y-16599729D01*
X16093886Y-16656871D01*
X16079600Y-16685443D01*
X16065314Y-16699729D01*
X16036743Y-16714014D01*
X16008171Y-16714014D01*
X15979600Y-16699729D01*
X15965314Y-16685443D01*
X15951028Y-16656871D01*
X15936743Y-16599729D01*
X15936743Y-16528300D01*
X15951028Y-16471157D01*
X15965314Y-16442586D01*
X15979600Y-16428300D01*
X16008171Y-16414014D01*
X16393886Y-16714014D02*
X16222457Y-16714014D01*
X16308171Y-16714014D02*
X16308171Y-16414014D01*
X16279600Y-16456871D01*
X16251028Y-16485443D01*
X16222457Y-16499729D01*
X16651028Y-16414014D02*
X16593886Y-16414014D01*
X16565314Y-16428300D01*
X16551028Y-16442586D01*
X16522457Y-16485443D01*
X16508171Y-16542586D01*
X16508171Y-16656871D01*
X16522457Y-16685443D01*
X16536743Y-16699729D01*
X16565314Y-16714014D01*
X16622457Y-16714014D01*
X16651028Y-16699729D01*
X16665314Y-16685443D01*
X16679600Y-16656871D01*
X16679600Y-16585443D01*
X16665314Y-16556871D01*
X16651028Y-16542586D01*
X16622457Y-16528300D01*
X16565314Y-16528300D01*
X16536743Y-16542586D01*
X16522457Y-16556871D01*
X16508171Y-16585443D01*
X16793886Y-16414014D02*
X16793886Y-16471157D01*
X16908171Y-16414014D02*
X16908171Y-16471157D01*
X17351028Y-16828300D02*
X17336743Y-16814014D01*
X17308171Y-16771157D01*
X17293886Y-16742586D01*
X17279600Y-16699729D01*
X17265314Y-16628300D01*
X17265314Y-16571157D01*
X17279600Y-16499729D01*
X17293886Y-16456871D01*
X17308171Y-16428300D01*
X17336743Y-16385443D01*
X17351028Y-16371157D01*
X17508171Y-16542586D02*
X17479600Y-16528300D01*
X17465314Y-16514014D01*
X17451028Y-16485443D01*
X17451028Y-16471157D01*
X17465314Y-16442586D01*
X17479600Y-16428300D01*
X17508171Y-16414014D01*
X17565314Y-16414014D01*
X17593886Y-16428300D01*
X17608171Y-16442586D01*
X17622457Y-16471157D01*
X17622457Y-16485443D01*
X17608171Y-16514014D01*
X17593886Y-16528300D01*
X17565314Y-16542586D01*
X17508171Y-16542586D01*
X17479600Y-16556871D01*
X17465314Y-16571157D01*
X17451028Y-16599729D01*
X17451028Y-16656871D01*
X17465314Y-16685443D01*
X17479600Y-16699729D01*
X17508171Y-16714014D01*
X17565314Y-16714014D01*
X17593886Y-16699729D01*
X17608171Y-16685443D01*
X17622457Y-16656871D01*
X17622457Y-16599729D01*
X17608171Y-16571157D01*
X17593886Y-16556871D01*
X17565314Y-16542586D01*
X17879600Y-16514014D02*
X17879600Y-16714014D01*
X17808171Y-16399729D02*
X17736743Y-16614014D01*
X17922457Y-16614014D01*
X18265314Y-16714014D02*
X18265314Y-16414014D01*
X18393886Y-16714014D02*
X18393886Y-16556871D01*
X18379600Y-16528300D01*
X18351028Y-16514014D01*
X18308171Y-16514014D01*
X18279600Y-16528300D01*
X18265314Y-16542586D01*
X18579600Y-16714014D02*
X18551028Y-16699729D01*
X18536743Y-16685443D01*
X18522457Y-16656871D01*
X18522457Y-16571157D01*
X18536743Y-16542586D01*
X18551028Y-16528300D01*
X18579600Y-16514014D01*
X18622457Y-16514014D01*
X18651028Y-16528300D01*
X18665314Y-16542586D01*
X18679600Y-16571157D01*
X18679600Y-16656871D01*
X18665314Y-16685443D01*
X18651028Y-16699729D01*
X18622457Y-16714014D01*
X18579600Y-16714014D01*
X18851028Y-16714014D02*
X18822457Y-16699729D01*
X18808171Y-16671157D01*
X18808171Y-16414014D01*
X19079600Y-16699729D02*
X19051028Y-16714014D01*
X18993886Y-16714014D01*
X18965314Y-16699729D01*
X18951028Y-16671157D01*
X18951028Y-16556871D01*
X18965314Y-16528300D01*
X18993886Y-16514014D01*
X19051028Y-16514014D01*
X19079600Y-16528300D01*
X19093886Y-16556871D01*
X19093886Y-16585443D01*
X18951028Y-16614014D01*
X19208171Y-16699729D02*
X19236743Y-16714014D01*
X19293886Y-16714014D01*
X19322457Y-16699729D01*
X19336743Y-16671157D01*
X19336743Y-16656871D01*
X19322457Y-16628300D01*
X19293886Y-16614014D01*
X19251028Y-16614014D01*
X19222457Y-16599729D01*
X19208171Y-16571157D01*
X19208171Y-16556871D01*
X19222457Y-16528300D01*
X19251028Y-16514014D01*
X19293886Y-16514014D01*
X19322457Y-16528300D01*
X19436743Y-16828300D02*
X19451028Y-16814014D01*
X19479600Y-16771157D01*
X19493886Y-16742586D01*
X19508171Y-16699729D01*
X19522457Y-16628300D01*
X19522457Y-16571157D01*
X19508171Y-16499729D01*
X19493886Y-16456871D01*
X19479600Y-16428300D01*
X19451028Y-16385443D01*
X19436743Y-16371157D01*
X12664600Y-16974300D02*
G75*
G03X12664600Y-16974300I-50000J0D01*
G01*
X13108171Y-17110014D02*
X12936743Y-17110014D01*
X13022457Y-17110014D02*
X13022457Y-16810014D01*
X12993886Y-16852872D01*
X12965314Y-16881443D01*
X12936743Y-16895729D01*
X13236743Y-17081443D02*
X13251028Y-17095729D01*
X13236743Y-17110014D01*
X13222457Y-17095729D01*
X13236743Y-17081443D01*
X13236743Y-17110014D01*
X13436743Y-16810014D02*
X13465314Y-16810014D01*
X13493886Y-16824300D01*
X13508171Y-16838586D01*
X13522457Y-16867157D01*
X13536743Y-16924300D01*
X13536743Y-16995729D01*
X13522457Y-17052872D01*
X13508171Y-17081443D01*
X13493886Y-17095729D01*
X13465314Y-17110014D01*
X13436743Y-17110014D01*
X13408171Y-17095729D01*
X13393886Y-17081443D01*
X13379600Y-17052872D01*
X13365314Y-16995729D01*
X13365314Y-16924300D01*
X13379600Y-16867157D01*
X13393886Y-16838586D01*
X13408171Y-16824300D01*
X13436743Y-16810014D01*
X13722457Y-16810014D02*
X13751028Y-16810014D01*
X13779600Y-16824300D01*
X13793886Y-16838586D01*
X13808171Y-16867157D01*
X13822457Y-16924300D01*
X13822457Y-16995729D01*
X13808171Y-17052872D01*
X13793886Y-17081443D01*
X13779600Y-17095729D01*
X13751028Y-17110014D01*
X13722457Y-17110014D01*
X13693886Y-17095729D01*
X13679600Y-17081443D01*
X13665314Y-17052872D01*
X13651028Y-16995729D01*
X13651028Y-16924300D01*
X13665314Y-16867157D01*
X13679600Y-16838586D01*
X13693886Y-16824300D01*
X13722457Y-16810014D01*
X13951028Y-17110014D02*
X13951028Y-16910014D01*
X13951028Y-16938586D02*
X13965314Y-16924300D01*
X13993886Y-16910014D01*
X14036743Y-16910014D01*
X14065314Y-16924300D01*
X14079600Y-16952872D01*
X14079600Y-17110014D01*
X14079600Y-16952872D02*
X14093886Y-16924300D01*
X14122457Y-16910014D01*
X14165314Y-16910014D01*
X14193886Y-16924300D01*
X14208171Y-16952872D01*
X14208171Y-17110014D01*
X14351028Y-17110014D02*
X14351028Y-16910014D01*
X14351028Y-16938586D02*
X14365314Y-16924300D01*
X14393886Y-16910014D01*
X14436743Y-16910014D01*
X14465314Y-16924300D01*
X14479600Y-16952872D01*
X14479600Y-17110014D01*
X14479600Y-16952872D02*
X14493886Y-16924300D01*
X14522457Y-16910014D01*
X14565314Y-16910014D01*
X14593886Y-16924300D01*
X14608171Y-16952872D01*
X14608171Y-17110014D01*
X15193886Y-16795729D02*
X14936743Y-17181443D01*
X15579600Y-16810014D02*
X15608171Y-16810014D01*
X15636743Y-16824300D01*
X15651028Y-16838586D01*
X15665314Y-16867157D01*
X15679600Y-16924300D01*
X15679600Y-16995729D01*
X15665314Y-17052872D01*
X15651028Y-17081443D01*
X15636743Y-17095729D01*
X15608171Y-17110014D01*
X15579600Y-17110014D01*
X15551028Y-17095729D01*
X15536743Y-17081443D01*
X15522457Y-17052872D01*
X15508171Y-16995729D01*
X15508171Y-16924300D01*
X15522457Y-16867157D01*
X15536743Y-16838586D01*
X15551028Y-16824300D01*
X15579600Y-16810014D01*
X15808171Y-17081443D02*
X15822457Y-17095729D01*
X15808171Y-17110014D01*
X15793886Y-17095729D01*
X15808171Y-17081443D01*
X15808171Y-17110014D01*
X16008171Y-16810014D02*
X16036743Y-16810014D01*
X16065314Y-16824300D01*
X16079600Y-16838586D01*
X16093886Y-16867157D01*
X16108171Y-16924300D01*
X16108171Y-16995729D01*
X16093886Y-17052872D01*
X16079600Y-17081443D01*
X16065314Y-17095729D01*
X16036743Y-17110014D01*
X16008171Y-17110014D01*
X15979600Y-17095729D01*
X15965314Y-17081443D01*
X15951028Y-17052872D01*
X15936743Y-16995729D01*
X15936743Y-16924300D01*
X15951028Y-16867157D01*
X15965314Y-16838586D01*
X15979600Y-16824300D01*
X16008171Y-16810014D01*
X16208171Y-16810014D02*
X16393886Y-16810014D01*
X16293886Y-16924300D01*
X16336743Y-16924300D01*
X16365314Y-16938586D01*
X16379600Y-16952872D01*
X16393886Y-16981443D01*
X16393886Y-17052872D01*
X16379600Y-17081443D01*
X16365314Y-17095729D01*
X16336743Y-17110014D01*
X16251028Y-17110014D01*
X16222457Y-17095729D01*
X16208171Y-17081443D01*
X16536743Y-17110014D02*
X16593886Y-17110014D01*
X16622457Y-17095729D01*
X16636743Y-17081443D01*
X16665314Y-17038586D01*
X16679600Y-16981443D01*
X16679600Y-16867157D01*
X16665314Y-16838586D01*
X16651028Y-16824300D01*
X16622457Y-16810014D01*
X16565314Y-16810014D01*
X16536743Y-16824300D01*
X16522457Y-16838586D01*
X16508171Y-16867157D01*
X16508171Y-16938586D01*
X16522457Y-16967157D01*
X16536743Y-16981443D01*
X16565314Y-16995729D01*
X16622457Y-16995729D01*
X16651028Y-16981443D01*
X16665314Y-16967157D01*
X16679600Y-16938586D01*
X16793886Y-16810014D02*
X16793886Y-16867157D01*
X16908171Y-16810014D02*
X16908171Y-16867157D01*
X17351028Y-17224300D02*
X17336743Y-17210014D01*
X17308171Y-17167157D01*
X17293886Y-17138586D01*
X17279600Y-17095729D01*
X17265314Y-17024300D01*
X17265314Y-16967157D01*
X17279600Y-16895729D01*
X17293886Y-16852872D01*
X17308171Y-16824300D01*
X17336743Y-16781443D01*
X17351028Y-16767157D01*
X17451028Y-16838586D02*
X17465314Y-16824300D01*
X17493886Y-16810014D01*
X17565314Y-16810014D01*
X17593886Y-16824300D01*
X17608171Y-16838586D01*
X17622457Y-16867157D01*
X17622457Y-16895729D01*
X17608171Y-16938586D01*
X17436743Y-17110014D01*
X17622457Y-17110014D01*
X17893886Y-16810014D02*
X17751028Y-16810014D01*
X17736743Y-16952872D01*
X17751028Y-16938586D01*
X17779600Y-16924300D01*
X17851028Y-16924300D01*
X17879600Y-16938586D01*
X17893886Y-16952872D01*
X17908171Y-16981443D01*
X17908171Y-17052872D01*
X17893886Y-17081443D01*
X17879600Y-17095729D01*
X17851028Y-17110014D01*
X17779600Y-17110014D01*
X17751028Y-17095729D01*
X17736743Y-17081443D01*
X18165314Y-16810014D02*
X18108171Y-16810014D01*
X18079600Y-16824300D01*
X18065314Y-16838586D01*
X18036743Y-16881443D01*
X18022457Y-16938586D01*
X18022457Y-17052872D01*
X18036743Y-17081443D01*
X18051028Y-17095729D01*
X18079600Y-17110014D01*
X18136743Y-17110014D01*
X18165314Y-17095729D01*
X18179600Y-17081443D01*
X18193886Y-17052872D01*
X18193886Y-16981443D01*
X18179600Y-16952872D01*
X18165314Y-16938586D01*
X18136743Y-16924300D01*
X18079600Y-16924300D01*
X18051028Y-16938586D01*
X18036743Y-16952872D01*
X18022457Y-16981443D01*
X18551028Y-17110014D02*
X18551028Y-16810014D01*
X18679600Y-17110014D02*
X18679600Y-16952872D01*
X18665314Y-16924300D01*
X18636743Y-16910014D01*
X18593886Y-16910014D01*
X18565314Y-16924300D01*
X18551028Y-16938586D01*
X18865314Y-17110014D02*
X18836743Y-17095729D01*
X18822457Y-17081443D01*
X18808171Y-17052872D01*
X18808171Y-16967157D01*
X18822457Y-16938586D01*
X18836743Y-16924300D01*
X18865314Y-16910014D01*
X18908171Y-16910014D01*
X18936743Y-16924300D01*
X18951028Y-16938586D01*
X18965314Y-16967157D01*
X18965314Y-17052872D01*
X18951028Y-17081443D01*
X18936743Y-17095729D01*
X18908171Y-17110014D01*
X18865314Y-17110014D01*
X19136743Y-17110014D02*
X19108171Y-17095729D01*
X19093886Y-17067157D01*
X19093886Y-16810014D01*
X19365314Y-17095729D02*
X19336743Y-17110014D01*
X19279600Y-17110014D01*
X19251028Y-17095729D01*
X19236743Y-17067157D01*
X19236743Y-16952872D01*
X19251028Y-16924300D01*
X19279600Y-16910014D01*
X19336743Y-16910014D01*
X19365314Y-16924300D01*
X19379600Y-16952872D01*
X19379600Y-16981443D01*
X19236743Y-17010014D01*
X19493886Y-17095729D02*
X19522457Y-17110014D01*
X19579600Y-17110014D01*
X19608171Y-17095729D01*
X19622457Y-17067157D01*
X19622457Y-17052872D01*
X19608171Y-17024300D01*
X19579600Y-17010014D01*
X19536743Y-17010014D01*
X19508171Y-16995729D01*
X19493886Y-16967157D01*
X19493886Y-16952872D01*
X19508171Y-16924300D01*
X19536743Y-16910014D01*
X19579600Y-16910014D01*
X19608171Y-16924300D01*
X19722457Y-17224300D02*
X19736743Y-17210014D01*
X19765314Y-17167157D01*
X19779600Y-17138586D01*
X19793886Y-17095729D01*
X19808171Y-17024300D01*
X19808171Y-16967157D01*
X19793886Y-16895729D01*
X19779600Y-16852872D01*
X19765314Y-16824300D01*
X19736743Y-16781443D01*
X19722457Y-16767157D01*
M02*
