%FSLAX45Y45*%
G04 Gerber Fmt 4.5, Leading zero omitted, Abs format (unit mm)*
G04 Created by KiCad (PCBNEW 5.0.2+dfsg1-1~bpo9+1) date ven. 05 juil. 2019 22:25:51 CEST*
%MOMM*%
%LPD*%
G01*
G04 APERTURE LIST*
%ADD10C,0.200000*%
%ADD11C,0.300000*%
G04 APERTURE END LIST*
D10*
X16929100Y-10833100D02*
X16929100Y-6159500D01*
X12687300Y-10833100D02*
X16929100Y-10833100D01*
X12687300Y-6159500D02*
X12687300Y-10833100D01*
X12687300Y-6159500D02*
X16929100Y-6159500D01*
D10*
D11*
X12963728Y-11308814D02*
X12963728Y-11008814D01*
X13035157Y-11008814D01*
X13078014Y-11023100D01*
X13106586Y-11051672D01*
X13120871Y-11080243D01*
X13135157Y-11137386D01*
X13135157Y-11180243D01*
X13120871Y-11237386D01*
X13106586Y-11265957D01*
X13078014Y-11294529D01*
X13035157Y-11308814D01*
X12963728Y-11308814D01*
X13263728Y-11308814D02*
X13263728Y-11108814D01*
X13263728Y-11165957D02*
X13278014Y-11137386D01*
X13292300Y-11123100D01*
X13320871Y-11108814D01*
X13349443Y-11108814D01*
X13449443Y-11308814D02*
X13449443Y-11108814D01*
X13449443Y-11008814D02*
X13435157Y-11023100D01*
X13449443Y-11037386D01*
X13463728Y-11023100D01*
X13449443Y-11008814D01*
X13449443Y-11037386D01*
X13635157Y-11308814D02*
X13606586Y-11294529D01*
X13592300Y-11265957D01*
X13592300Y-11008814D01*
X13792300Y-11308814D02*
X13763728Y-11294529D01*
X13749443Y-11265957D01*
X13749443Y-11008814D01*
X14135157Y-11308814D02*
X14135157Y-11008814D01*
X14235157Y-11223100D01*
X14335157Y-11008814D01*
X14335157Y-11308814D01*
X14606586Y-11308814D02*
X14606586Y-11151672D01*
X14592300Y-11123100D01*
X14563728Y-11108814D01*
X14506586Y-11108814D01*
X14478014Y-11123100D01*
X14606586Y-11294529D02*
X14578014Y-11308814D01*
X14506586Y-11308814D01*
X14478014Y-11294529D01*
X14463728Y-11265957D01*
X14463728Y-11237386D01*
X14478014Y-11208814D01*
X14506586Y-11194529D01*
X14578014Y-11194529D01*
X14606586Y-11180243D01*
X14749443Y-11108814D02*
X14749443Y-11408814D01*
X14749443Y-11123100D02*
X14778014Y-11108814D01*
X14835157Y-11108814D01*
X14863728Y-11123100D01*
X14878014Y-11137386D01*
X14892300Y-11165957D01*
X14892300Y-11251671D01*
X14878014Y-11280243D01*
X14863728Y-11294529D01*
X14835157Y-11308814D01*
X14778014Y-11308814D01*
X14749443Y-11294529D01*
X15020871Y-11280243D02*
X15035157Y-11294529D01*
X15020871Y-11308814D01*
X15006586Y-11294529D01*
X15020871Y-11280243D01*
X15020871Y-11308814D01*
X15020871Y-11123100D02*
X15035157Y-11137386D01*
X15020871Y-11151672D01*
X15006586Y-11137386D01*
X15020871Y-11123100D01*
X15020871Y-11151672D01*
M02*
