G04 #@! TF.GenerationSoftware,KiCad,Pcbnew,5.0.2+dfsg1-1~bpo9+1*
G04 #@! TF.CreationDate,2019-07-05T22:25:26+02:00*
G04 #@! TF.ProjectId,PIC32MZTOMX,50494333-324d-45a5-944f-4d582e6b6963,rev?*
G04 #@! TF.SameCoordinates,Original*
G04 #@! TF.FileFunction,Soldermask,Top*
G04 #@! TF.FilePolarity,Negative*
%FSLAX46Y46*%
G04 Gerber Fmt 4.6, Leading zero omitted, Abs format (unit mm)*
G04 Created by KiCad (PCBNEW 5.0.2+dfsg1-1~bpo9+1) date ven. 05 juil. 2019 22:25:26 CEST*
%MOMM*%
%LPD*%
G01*
G04 APERTURE LIST*
%ADD10C,0.100000*%
G04 APERTURE END LIST*
D10*
G36*
X133184570Y-105144918D02*
X133216922Y-105154733D01*
X133246744Y-105170672D01*
X133272879Y-105192121D01*
X133294328Y-105218256D01*
X133310267Y-105248078D01*
X133320082Y-105280430D01*
X133324000Y-105320215D01*
X133324000Y-106261785D01*
X133320082Y-106301570D01*
X133310267Y-106333922D01*
X133294328Y-106363744D01*
X133272879Y-106389879D01*
X133246744Y-106411328D01*
X133216922Y-106427267D01*
X133184570Y-106437082D01*
X133144785Y-106441000D01*
X132178215Y-106441000D01*
X132138430Y-106437082D01*
X132106078Y-106427267D01*
X132076256Y-106411328D01*
X132050121Y-106389879D01*
X132028672Y-106363744D01*
X132012733Y-106333922D01*
X132002918Y-106301570D01*
X131999000Y-106261785D01*
X131999000Y-105320215D01*
X132002918Y-105280430D01*
X132012733Y-105248078D01*
X132028672Y-105218256D01*
X132050121Y-105192121D01*
X132076256Y-105170672D01*
X132106078Y-105154733D01*
X132138430Y-105144918D01*
X132178215Y-105141000D01*
X133144785Y-105141000D01*
X133184570Y-105144918D01*
X133184570Y-105144918D01*
G37*
G36*
X131259570Y-105144918D02*
X131291922Y-105154733D01*
X131321744Y-105170672D01*
X131347879Y-105192121D01*
X131369328Y-105218256D01*
X131385267Y-105248078D01*
X131395082Y-105280430D01*
X131399000Y-105320215D01*
X131399000Y-106261785D01*
X131395082Y-106301570D01*
X131385267Y-106333922D01*
X131369328Y-106363744D01*
X131347879Y-106389879D01*
X131321744Y-106411328D01*
X131291922Y-106427267D01*
X131259570Y-106437082D01*
X131219785Y-106441000D01*
X130253215Y-106441000D01*
X130213430Y-106437082D01*
X130181078Y-106427267D01*
X130151256Y-106411328D01*
X130125121Y-106389879D01*
X130103672Y-106363744D01*
X130087733Y-106333922D01*
X130077918Y-106301570D01*
X130074000Y-106261785D01*
X130074000Y-105320215D01*
X130077918Y-105280430D01*
X130087733Y-105248078D01*
X130103672Y-105218256D01*
X130125121Y-105192121D01*
X130151256Y-105170672D01*
X130181078Y-105154733D01*
X130213430Y-105144918D01*
X130253215Y-105141000D01*
X131219785Y-105141000D01*
X131259570Y-105144918D01*
X131259570Y-105144918D01*
G37*
G36*
X136176116Y-105319595D02*
X136205313Y-105328452D01*
X136232218Y-105342833D01*
X136255808Y-105362192D01*
X136275167Y-105385782D01*
X136289548Y-105412687D01*
X136298405Y-105441884D01*
X136302000Y-105478390D01*
X136302000Y-106103610D01*
X136298405Y-106140116D01*
X136289548Y-106169313D01*
X136275167Y-106196218D01*
X136255808Y-106219808D01*
X136232218Y-106239167D01*
X136205313Y-106253548D01*
X136176116Y-106262405D01*
X136139610Y-106266000D01*
X135589390Y-106266000D01*
X135552884Y-106262405D01*
X135523687Y-106253548D01*
X135496782Y-106239167D01*
X135473192Y-106219808D01*
X135453833Y-106196218D01*
X135439452Y-106169313D01*
X135430595Y-106140116D01*
X135427000Y-106103610D01*
X135427000Y-105478390D01*
X135430595Y-105441884D01*
X135439452Y-105412687D01*
X135453833Y-105385782D01*
X135473192Y-105362192D01*
X135496782Y-105342833D01*
X135523687Y-105328452D01*
X135552884Y-105319595D01*
X135589390Y-105316000D01*
X136139610Y-105316000D01*
X136176116Y-105319595D01*
X136176116Y-105319595D01*
G37*
G36*
X137751116Y-105319595D02*
X137780313Y-105328452D01*
X137807218Y-105342833D01*
X137830808Y-105362192D01*
X137850167Y-105385782D01*
X137864548Y-105412687D01*
X137873405Y-105441884D01*
X137877000Y-105478390D01*
X137877000Y-106103610D01*
X137873405Y-106140116D01*
X137864548Y-106169313D01*
X137850167Y-106196218D01*
X137830808Y-106219808D01*
X137807218Y-106239167D01*
X137780313Y-106253548D01*
X137751116Y-106262405D01*
X137714610Y-106266000D01*
X137164390Y-106266000D01*
X137127884Y-106262405D01*
X137098687Y-106253548D01*
X137071782Y-106239167D01*
X137048192Y-106219808D01*
X137028833Y-106196218D01*
X137014452Y-106169313D01*
X137005595Y-106140116D01*
X137002000Y-106103610D01*
X137002000Y-105478390D01*
X137005595Y-105441884D01*
X137014452Y-105412687D01*
X137028833Y-105385782D01*
X137048192Y-105362192D01*
X137071782Y-105342833D01*
X137098687Y-105328452D01*
X137127884Y-105319595D01*
X137164390Y-105316000D01*
X137714610Y-105316000D01*
X137751116Y-105319595D01*
X137751116Y-105319595D01*
G37*
G36*
X141693000Y-105752000D02*
X139993000Y-105752000D01*
X139993000Y-104052000D01*
X141693000Y-104052000D01*
X141693000Y-105752000D01*
X141693000Y-105752000D01*
G37*
G36*
X143549630Y-104064299D02*
X143709855Y-104112903D01*
X143857520Y-104191831D01*
X143986949Y-104298051D01*
X144093169Y-104427480D01*
X144172097Y-104575145D01*
X144220701Y-104735370D01*
X144237112Y-104902000D01*
X144220701Y-105068630D01*
X144172097Y-105228855D01*
X144093169Y-105376520D01*
X143986949Y-105505949D01*
X143857520Y-105612169D01*
X143709855Y-105691097D01*
X143549630Y-105739701D01*
X143424752Y-105752000D01*
X143341248Y-105752000D01*
X143216370Y-105739701D01*
X143056145Y-105691097D01*
X142908480Y-105612169D01*
X142779051Y-105505949D01*
X142672831Y-105376520D01*
X142593903Y-105228855D01*
X142545299Y-105068630D01*
X142528888Y-104902000D01*
X142545299Y-104735370D01*
X142593903Y-104575145D01*
X142672831Y-104427480D01*
X142779051Y-104298051D01*
X142908480Y-104191831D01*
X143056145Y-104112903D01*
X143216370Y-104064299D01*
X143341248Y-104052000D01*
X143424752Y-104052000D01*
X143549630Y-104064299D01*
X143549630Y-104064299D01*
G37*
G36*
X146089630Y-104064299D02*
X146249855Y-104112903D01*
X146397520Y-104191831D01*
X146526949Y-104298051D01*
X146633169Y-104427480D01*
X146712097Y-104575145D01*
X146760701Y-104735370D01*
X146777112Y-104902000D01*
X146760701Y-105068630D01*
X146712097Y-105228855D01*
X146633169Y-105376520D01*
X146526949Y-105505949D01*
X146397520Y-105612169D01*
X146249855Y-105691097D01*
X146089630Y-105739701D01*
X145964752Y-105752000D01*
X145881248Y-105752000D01*
X145756370Y-105739701D01*
X145596145Y-105691097D01*
X145448480Y-105612169D01*
X145319051Y-105505949D01*
X145212831Y-105376520D01*
X145133903Y-105228855D01*
X145085299Y-105068630D01*
X145068888Y-104902000D01*
X145085299Y-104735370D01*
X145133903Y-104575145D01*
X145212831Y-104427480D01*
X145319051Y-104298051D01*
X145448480Y-104191831D01*
X145596145Y-104112903D01*
X145756370Y-104064299D01*
X145881248Y-104052000D01*
X145964752Y-104052000D01*
X146089630Y-104064299D01*
X146089630Y-104064299D01*
G37*
G36*
X158789630Y-104064299D02*
X158949855Y-104112903D01*
X159097520Y-104191831D01*
X159226949Y-104298051D01*
X159333169Y-104427480D01*
X159412097Y-104575145D01*
X159460701Y-104735370D01*
X159477112Y-104902000D01*
X159460701Y-105068630D01*
X159412097Y-105228855D01*
X159333169Y-105376520D01*
X159226949Y-105505949D01*
X159097520Y-105612169D01*
X158949855Y-105691097D01*
X158789630Y-105739701D01*
X158664752Y-105752000D01*
X158581248Y-105752000D01*
X158456370Y-105739701D01*
X158296145Y-105691097D01*
X158148480Y-105612169D01*
X158019051Y-105505949D01*
X157912831Y-105376520D01*
X157833903Y-105228855D01*
X157785299Y-105068630D01*
X157768888Y-104902000D01*
X157785299Y-104735370D01*
X157833903Y-104575145D01*
X157912831Y-104427480D01*
X158019051Y-104298051D01*
X158148480Y-104191831D01*
X158296145Y-104112903D01*
X158456370Y-104064299D01*
X158581248Y-104052000D01*
X158664752Y-104052000D01*
X158789630Y-104064299D01*
X158789630Y-104064299D01*
G37*
G36*
X148629630Y-104064299D02*
X148789855Y-104112903D01*
X148937520Y-104191831D01*
X149066949Y-104298051D01*
X149173169Y-104427480D01*
X149252097Y-104575145D01*
X149300701Y-104735370D01*
X149317112Y-104902000D01*
X149300701Y-105068630D01*
X149252097Y-105228855D01*
X149173169Y-105376520D01*
X149066949Y-105505949D01*
X148937520Y-105612169D01*
X148789855Y-105691097D01*
X148629630Y-105739701D01*
X148504752Y-105752000D01*
X148421248Y-105752000D01*
X148296370Y-105739701D01*
X148136145Y-105691097D01*
X147988480Y-105612169D01*
X147859051Y-105505949D01*
X147752831Y-105376520D01*
X147673903Y-105228855D01*
X147625299Y-105068630D01*
X147608888Y-104902000D01*
X147625299Y-104735370D01*
X147673903Y-104575145D01*
X147752831Y-104427480D01*
X147859051Y-104298051D01*
X147988480Y-104191831D01*
X148136145Y-104112903D01*
X148296370Y-104064299D01*
X148421248Y-104052000D01*
X148504752Y-104052000D01*
X148629630Y-104064299D01*
X148629630Y-104064299D01*
G37*
G36*
X151169630Y-104064299D02*
X151329855Y-104112903D01*
X151477520Y-104191831D01*
X151606949Y-104298051D01*
X151713169Y-104427480D01*
X151792097Y-104575145D01*
X151840701Y-104735370D01*
X151857112Y-104902000D01*
X151840701Y-105068630D01*
X151792097Y-105228855D01*
X151713169Y-105376520D01*
X151606949Y-105505949D01*
X151477520Y-105612169D01*
X151329855Y-105691097D01*
X151169630Y-105739701D01*
X151044752Y-105752000D01*
X150961248Y-105752000D01*
X150836370Y-105739701D01*
X150676145Y-105691097D01*
X150528480Y-105612169D01*
X150399051Y-105505949D01*
X150292831Y-105376520D01*
X150213903Y-105228855D01*
X150165299Y-105068630D01*
X150148888Y-104902000D01*
X150165299Y-104735370D01*
X150213903Y-104575145D01*
X150292831Y-104427480D01*
X150399051Y-104298051D01*
X150528480Y-104191831D01*
X150676145Y-104112903D01*
X150836370Y-104064299D01*
X150961248Y-104052000D01*
X151044752Y-104052000D01*
X151169630Y-104064299D01*
X151169630Y-104064299D01*
G37*
G36*
X153709630Y-104064299D02*
X153869855Y-104112903D01*
X154017520Y-104191831D01*
X154146949Y-104298051D01*
X154253169Y-104427480D01*
X154332097Y-104575145D01*
X154380701Y-104735370D01*
X154397112Y-104902000D01*
X154380701Y-105068630D01*
X154332097Y-105228855D01*
X154253169Y-105376520D01*
X154146949Y-105505949D01*
X154017520Y-105612169D01*
X153869855Y-105691097D01*
X153709630Y-105739701D01*
X153584752Y-105752000D01*
X153501248Y-105752000D01*
X153376370Y-105739701D01*
X153216145Y-105691097D01*
X153068480Y-105612169D01*
X152939051Y-105505949D01*
X152832831Y-105376520D01*
X152753903Y-105228855D01*
X152705299Y-105068630D01*
X152688888Y-104902000D01*
X152705299Y-104735370D01*
X152753903Y-104575145D01*
X152832831Y-104427480D01*
X152939051Y-104298051D01*
X153068480Y-104191831D01*
X153216145Y-104112903D01*
X153376370Y-104064299D01*
X153501248Y-104052000D01*
X153584752Y-104052000D01*
X153709630Y-104064299D01*
X153709630Y-104064299D01*
G37*
G36*
X156249630Y-104064299D02*
X156409855Y-104112903D01*
X156557520Y-104191831D01*
X156686949Y-104298051D01*
X156793169Y-104427480D01*
X156872097Y-104575145D01*
X156920701Y-104735370D01*
X156937112Y-104902000D01*
X156920701Y-105068630D01*
X156872097Y-105228855D01*
X156793169Y-105376520D01*
X156686949Y-105505949D01*
X156557520Y-105612169D01*
X156409855Y-105691097D01*
X156249630Y-105739701D01*
X156124752Y-105752000D01*
X156041248Y-105752000D01*
X155916370Y-105739701D01*
X155756145Y-105691097D01*
X155608480Y-105612169D01*
X155479051Y-105505949D01*
X155372831Y-105376520D01*
X155293903Y-105228855D01*
X155245299Y-105068630D01*
X155228888Y-104902000D01*
X155245299Y-104735370D01*
X155293903Y-104575145D01*
X155372831Y-104427480D01*
X155479051Y-104298051D01*
X155608480Y-104191831D01*
X155756145Y-104112903D01*
X155916370Y-104064299D01*
X156041248Y-104052000D01*
X156124752Y-104052000D01*
X156249630Y-104064299D01*
X156249630Y-104064299D01*
G37*
G36*
X143549630Y-101524299D02*
X143709855Y-101572903D01*
X143857520Y-101651831D01*
X143986949Y-101758051D01*
X144093169Y-101887480D01*
X144172097Y-102035145D01*
X144220701Y-102195370D01*
X144237112Y-102362000D01*
X144220701Y-102528630D01*
X144172097Y-102688855D01*
X144093169Y-102836520D01*
X143986949Y-102965949D01*
X143857520Y-103072169D01*
X143709855Y-103151097D01*
X143549630Y-103199701D01*
X143424752Y-103212000D01*
X143341248Y-103212000D01*
X143216370Y-103199701D01*
X143056145Y-103151097D01*
X142908480Y-103072169D01*
X142779051Y-102965949D01*
X142672831Y-102836520D01*
X142593903Y-102688855D01*
X142545299Y-102528630D01*
X142528888Y-102362000D01*
X142545299Y-102195370D01*
X142593903Y-102035145D01*
X142672831Y-101887480D01*
X142779051Y-101758051D01*
X142908480Y-101651831D01*
X143056145Y-101572903D01*
X143216370Y-101524299D01*
X143341248Y-101512000D01*
X143424752Y-101512000D01*
X143549630Y-101524299D01*
X143549630Y-101524299D01*
G37*
G36*
X153709630Y-101524299D02*
X153869855Y-101572903D01*
X154017520Y-101651831D01*
X154146949Y-101758051D01*
X154253169Y-101887480D01*
X154332097Y-102035145D01*
X154380701Y-102195370D01*
X154397112Y-102362000D01*
X154380701Y-102528630D01*
X154332097Y-102688855D01*
X154253169Y-102836520D01*
X154146949Y-102965949D01*
X154017520Y-103072169D01*
X153869855Y-103151097D01*
X153709630Y-103199701D01*
X153584752Y-103212000D01*
X153501248Y-103212000D01*
X153376370Y-103199701D01*
X153216145Y-103151097D01*
X153068480Y-103072169D01*
X152939051Y-102965949D01*
X152832831Y-102836520D01*
X152753903Y-102688855D01*
X152705299Y-102528630D01*
X152688888Y-102362000D01*
X152705299Y-102195370D01*
X152753903Y-102035145D01*
X152832831Y-101887480D01*
X152939051Y-101758051D01*
X153068480Y-101651831D01*
X153216145Y-101572903D01*
X153376370Y-101524299D01*
X153501248Y-101512000D01*
X153584752Y-101512000D01*
X153709630Y-101524299D01*
X153709630Y-101524299D01*
G37*
G36*
X156249630Y-101524299D02*
X156409855Y-101572903D01*
X156557520Y-101651831D01*
X156686949Y-101758051D01*
X156793169Y-101887480D01*
X156872097Y-102035145D01*
X156920701Y-102195370D01*
X156937112Y-102362000D01*
X156920701Y-102528630D01*
X156872097Y-102688855D01*
X156793169Y-102836520D01*
X156686949Y-102965949D01*
X156557520Y-103072169D01*
X156409855Y-103151097D01*
X156249630Y-103199701D01*
X156124752Y-103212000D01*
X156041248Y-103212000D01*
X155916370Y-103199701D01*
X155756145Y-103151097D01*
X155608480Y-103072169D01*
X155479051Y-102965949D01*
X155372831Y-102836520D01*
X155293903Y-102688855D01*
X155245299Y-102528630D01*
X155228888Y-102362000D01*
X155245299Y-102195370D01*
X155293903Y-102035145D01*
X155372831Y-101887480D01*
X155479051Y-101758051D01*
X155608480Y-101651831D01*
X155756145Y-101572903D01*
X155916370Y-101524299D01*
X156041248Y-101512000D01*
X156124752Y-101512000D01*
X156249630Y-101524299D01*
X156249630Y-101524299D01*
G37*
G36*
X151169630Y-101524299D02*
X151329855Y-101572903D01*
X151477520Y-101651831D01*
X151606949Y-101758051D01*
X151713169Y-101887480D01*
X151792097Y-102035145D01*
X151840701Y-102195370D01*
X151857112Y-102362000D01*
X151840701Y-102528630D01*
X151792097Y-102688855D01*
X151713169Y-102836520D01*
X151606949Y-102965949D01*
X151477520Y-103072169D01*
X151329855Y-103151097D01*
X151169630Y-103199701D01*
X151044752Y-103212000D01*
X150961248Y-103212000D01*
X150836370Y-103199701D01*
X150676145Y-103151097D01*
X150528480Y-103072169D01*
X150399051Y-102965949D01*
X150292831Y-102836520D01*
X150213903Y-102688855D01*
X150165299Y-102528630D01*
X150148888Y-102362000D01*
X150165299Y-102195370D01*
X150213903Y-102035145D01*
X150292831Y-101887480D01*
X150399051Y-101758051D01*
X150528480Y-101651831D01*
X150676145Y-101572903D01*
X150836370Y-101524299D01*
X150961248Y-101512000D01*
X151044752Y-101512000D01*
X151169630Y-101524299D01*
X151169630Y-101524299D01*
G37*
G36*
X158789630Y-101524299D02*
X158949855Y-101572903D01*
X159097520Y-101651831D01*
X159226949Y-101758051D01*
X159333169Y-101887480D01*
X159412097Y-102035145D01*
X159460701Y-102195370D01*
X159477112Y-102362000D01*
X159460701Y-102528630D01*
X159412097Y-102688855D01*
X159333169Y-102836520D01*
X159226949Y-102965949D01*
X159097520Y-103072169D01*
X158949855Y-103151097D01*
X158789630Y-103199701D01*
X158664752Y-103212000D01*
X158581248Y-103212000D01*
X158456370Y-103199701D01*
X158296145Y-103151097D01*
X158148480Y-103072169D01*
X158019051Y-102965949D01*
X157912831Y-102836520D01*
X157833903Y-102688855D01*
X157785299Y-102528630D01*
X157768888Y-102362000D01*
X157785299Y-102195370D01*
X157833903Y-102035145D01*
X157912831Y-101887480D01*
X158019051Y-101758051D01*
X158148480Y-101651831D01*
X158296145Y-101572903D01*
X158456370Y-101524299D01*
X158581248Y-101512000D01*
X158664752Y-101512000D01*
X158789630Y-101524299D01*
X158789630Y-101524299D01*
G37*
G36*
X148629630Y-101524299D02*
X148789855Y-101572903D01*
X148937520Y-101651831D01*
X149066949Y-101758051D01*
X149173169Y-101887480D01*
X149252097Y-102035145D01*
X149300701Y-102195370D01*
X149317112Y-102362000D01*
X149300701Y-102528630D01*
X149252097Y-102688855D01*
X149173169Y-102836520D01*
X149066949Y-102965949D01*
X148937520Y-103072169D01*
X148789855Y-103151097D01*
X148629630Y-103199701D01*
X148504752Y-103212000D01*
X148421248Y-103212000D01*
X148296370Y-103199701D01*
X148136145Y-103151097D01*
X147988480Y-103072169D01*
X147859051Y-102965949D01*
X147752831Y-102836520D01*
X147673903Y-102688855D01*
X147625299Y-102528630D01*
X147608888Y-102362000D01*
X147625299Y-102195370D01*
X147673903Y-102035145D01*
X147752831Y-101887480D01*
X147859051Y-101758051D01*
X147988480Y-101651831D01*
X148136145Y-101572903D01*
X148296370Y-101524299D01*
X148421248Y-101512000D01*
X148504752Y-101512000D01*
X148629630Y-101524299D01*
X148629630Y-101524299D01*
G37*
G36*
X146089630Y-101524299D02*
X146249855Y-101572903D01*
X146397520Y-101651831D01*
X146526949Y-101758051D01*
X146633169Y-101887480D01*
X146712097Y-102035145D01*
X146760701Y-102195370D01*
X146777112Y-102362000D01*
X146760701Y-102528630D01*
X146712097Y-102688855D01*
X146633169Y-102836520D01*
X146526949Y-102965949D01*
X146397520Y-103072169D01*
X146249855Y-103151097D01*
X146089630Y-103199701D01*
X145964752Y-103212000D01*
X145881248Y-103212000D01*
X145756370Y-103199701D01*
X145596145Y-103151097D01*
X145448480Y-103072169D01*
X145319051Y-102965949D01*
X145212831Y-102836520D01*
X145133903Y-102688855D01*
X145085299Y-102528630D01*
X145068888Y-102362000D01*
X145085299Y-102195370D01*
X145133903Y-102035145D01*
X145212831Y-101887480D01*
X145319051Y-101758051D01*
X145448480Y-101651831D01*
X145596145Y-101572903D01*
X145756370Y-101524299D01*
X145881248Y-101512000D01*
X145964752Y-101512000D01*
X146089630Y-101524299D01*
X146089630Y-101524299D01*
G37*
G36*
X141009630Y-101524299D02*
X141169855Y-101572903D01*
X141317520Y-101651831D01*
X141446949Y-101758051D01*
X141553169Y-101887480D01*
X141632097Y-102035145D01*
X141680701Y-102195370D01*
X141697112Y-102362000D01*
X141680701Y-102528630D01*
X141632097Y-102688855D01*
X141553169Y-102836520D01*
X141446949Y-102965949D01*
X141317520Y-103072169D01*
X141169855Y-103151097D01*
X141009630Y-103199701D01*
X140884752Y-103212000D01*
X140801248Y-103212000D01*
X140676370Y-103199701D01*
X140516145Y-103151097D01*
X140368480Y-103072169D01*
X140239051Y-102965949D01*
X140132831Y-102836520D01*
X140053903Y-102688855D01*
X140005299Y-102528630D01*
X139988888Y-102362000D01*
X140005299Y-102195370D01*
X140053903Y-102035145D01*
X140132831Y-101887480D01*
X140239051Y-101758051D01*
X140368480Y-101651831D01*
X140516145Y-101572903D01*
X140676370Y-101524299D01*
X140801248Y-101512000D01*
X140884752Y-101512000D01*
X141009630Y-101524299D01*
X141009630Y-101524299D01*
G37*
G36*
X163615630Y-93142299D02*
X163775855Y-93190903D01*
X163923520Y-93269831D01*
X164052949Y-93376051D01*
X164159169Y-93505480D01*
X164238097Y-93653145D01*
X164286701Y-93813370D01*
X164303112Y-93980000D01*
X164286701Y-94146630D01*
X164238097Y-94306855D01*
X164159169Y-94454520D01*
X164052949Y-94583949D01*
X163923520Y-94690169D01*
X163775855Y-94769097D01*
X163615630Y-94817701D01*
X163490752Y-94830000D01*
X163407248Y-94830000D01*
X163282370Y-94817701D01*
X163122145Y-94769097D01*
X162974480Y-94690169D01*
X162845051Y-94583949D01*
X162738831Y-94454520D01*
X162659903Y-94306855D01*
X162611299Y-94146630D01*
X162594888Y-93980000D01*
X162611299Y-93813370D01*
X162659903Y-93653145D01*
X162738831Y-93505480D01*
X162845051Y-93376051D01*
X162974480Y-93269831D01*
X163122145Y-93190903D01*
X163282370Y-93142299D01*
X163407248Y-93130000D01*
X163490752Y-93130000D01*
X163615630Y-93142299D01*
X163615630Y-93142299D01*
G37*
G36*
X130214630Y-93142299D02*
X130374855Y-93190903D01*
X130522520Y-93269831D01*
X130651949Y-93376051D01*
X130758169Y-93505480D01*
X130837097Y-93653145D01*
X130885701Y-93813370D01*
X130902112Y-93980000D01*
X130885701Y-94146630D01*
X130837097Y-94306855D01*
X130758169Y-94454520D01*
X130651949Y-94583949D01*
X130522520Y-94690169D01*
X130374855Y-94769097D01*
X130214630Y-94817701D01*
X130089752Y-94830000D01*
X130006248Y-94830000D01*
X129881370Y-94817701D01*
X129721145Y-94769097D01*
X129573480Y-94690169D01*
X129444051Y-94583949D01*
X129337831Y-94454520D01*
X129258903Y-94306855D01*
X129210299Y-94146630D01*
X129193888Y-93980000D01*
X129210299Y-93813370D01*
X129258903Y-93653145D01*
X129337831Y-93505480D01*
X129444051Y-93376051D01*
X129573480Y-93269831D01*
X129721145Y-93190903D01*
X129881370Y-93142299D01*
X130006248Y-93130000D01*
X130089752Y-93130000D01*
X130214630Y-93142299D01*
X130214630Y-93142299D01*
G37*
G36*
X132754630Y-93142299D02*
X132914855Y-93190903D01*
X133062520Y-93269831D01*
X133191949Y-93376051D01*
X133298169Y-93505480D01*
X133377097Y-93653145D01*
X133425701Y-93813370D01*
X133442112Y-93980000D01*
X133425701Y-94146630D01*
X133377097Y-94306855D01*
X133298169Y-94454520D01*
X133191949Y-94583949D01*
X133062520Y-94690169D01*
X132914855Y-94769097D01*
X132754630Y-94817701D01*
X132629752Y-94830000D01*
X132546248Y-94830000D01*
X132421370Y-94817701D01*
X132261145Y-94769097D01*
X132113480Y-94690169D01*
X131984051Y-94583949D01*
X131877831Y-94454520D01*
X131798903Y-94306855D01*
X131750299Y-94146630D01*
X131733888Y-93980000D01*
X131750299Y-93813370D01*
X131798903Y-93653145D01*
X131877831Y-93505480D01*
X131984051Y-93376051D01*
X132113480Y-93269831D01*
X132261145Y-93190903D01*
X132421370Y-93142299D01*
X132546248Y-93130000D01*
X132629752Y-93130000D01*
X132754630Y-93142299D01*
X132754630Y-93142299D01*
G37*
G36*
X166839000Y-94830000D02*
X165139000Y-94830000D01*
X165139000Y-93130000D01*
X166839000Y-93130000D01*
X166839000Y-94830000D01*
X166839000Y-94830000D01*
G37*
G36*
X130214630Y-90602299D02*
X130374855Y-90650903D01*
X130522520Y-90729831D01*
X130651949Y-90836051D01*
X130758169Y-90965480D01*
X130837097Y-91113145D01*
X130885701Y-91273370D01*
X130902112Y-91440000D01*
X130885701Y-91606630D01*
X130837097Y-91766855D01*
X130758169Y-91914520D01*
X130651949Y-92043949D01*
X130522520Y-92150169D01*
X130374855Y-92229097D01*
X130214630Y-92277701D01*
X130089752Y-92290000D01*
X130006248Y-92290000D01*
X129881370Y-92277701D01*
X129721145Y-92229097D01*
X129573480Y-92150169D01*
X129444051Y-92043949D01*
X129337831Y-91914520D01*
X129258903Y-91766855D01*
X129210299Y-91606630D01*
X129193888Y-91440000D01*
X129210299Y-91273370D01*
X129258903Y-91113145D01*
X129337831Y-90965480D01*
X129444051Y-90836051D01*
X129573480Y-90729831D01*
X129721145Y-90650903D01*
X129881370Y-90602299D01*
X130006248Y-90590000D01*
X130089752Y-90590000D01*
X130214630Y-90602299D01*
X130214630Y-90602299D01*
G37*
G36*
X132754630Y-90602299D02*
X132914855Y-90650903D01*
X133062520Y-90729831D01*
X133191949Y-90836051D01*
X133298169Y-90965480D01*
X133377097Y-91113145D01*
X133425701Y-91273370D01*
X133442112Y-91440000D01*
X133425701Y-91606630D01*
X133377097Y-91766855D01*
X133298169Y-91914520D01*
X133191949Y-92043949D01*
X133062520Y-92150169D01*
X132914855Y-92229097D01*
X132754630Y-92277701D01*
X132629752Y-92290000D01*
X132546248Y-92290000D01*
X132421370Y-92277701D01*
X132261145Y-92229097D01*
X132113480Y-92150169D01*
X131984051Y-92043949D01*
X131877831Y-91914520D01*
X131798903Y-91766855D01*
X131750299Y-91606630D01*
X131733888Y-91440000D01*
X131750299Y-91273370D01*
X131798903Y-91113145D01*
X131877831Y-90965480D01*
X131984051Y-90836051D01*
X132113480Y-90729831D01*
X132261145Y-90650903D01*
X132421370Y-90602299D01*
X132546248Y-90590000D01*
X132629752Y-90590000D01*
X132754630Y-90602299D01*
X132754630Y-90602299D01*
G37*
G36*
X166155630Y-90602299D02*
X166315855Y-90650903D01*
X166463520Y-90729831D01*
X166592949Y-90836051D01*
X166699169Y-90965480D01*
X166778097Y-91113145D01*
X166826701Y-91273370D01*
X166843112Y-91440000D01*
X166826701Y-91606630D01*
X166778097Y-91766855D01*
X166699169Y-91914520D01*
X166592949Y-92043949D01*
X166463520Y-92150169D01*
X166315855Y-92229097D01*
X166155630Y-92277701D01*
X166030752Y-92290000D01*
X165947248Y-92290000D01*
X165822370Y-92277701D01*
X165662145Y-92229097D01*
X165514480Y-92150169D01*
X165385051Y-92043949D01*
X165278831Y-91914520D01*
X165199903Y-91766855D01*
X165151299Y-91606630D01*
X165134888Y-91440000D01*
X165151299Y-91273370D01*
X165199903Y-91113145D01*
X165278831Y-90965480D01*
X165385051Y-90836051D01*
X165514480Y-90729831D01*
X165662145Y-90650903D01*
X165822370Y-90602299D01*
X165947248Y-90590000D01*
X166030752Y-90590000D01*
X166155630Y-90602299D01*
X166155630Y-90602299D01*
G37*
G36*
X163615630Y-90602299D02*
X163775855Y-90650903D01*
X163923520Y-90729831D01*
X164052949Y-90836051D01*
X164159169Y-90965480D01*
X164238097Y-91113145D01*
X164286701Y-91273370D01*
X164303112Y-91440000D01*
X164286701Y-91606630D01*
X164238097Y-91766855D01*
X164159169Y-91914520D01*
X164052949Y-92043949D01*
X163923520Y-92150169D01*
X163775855Y-92229097D01*
X163615630Y-92277701D01*
X163490752Y-92290000D01*
X163407248Y-92290000D01*
X163282370Y-92277701D01*
X163122145Y-92229097D01*
X162974480Y-92150169D01*
X162845051Y-92043949D01*
X162738831Y-91914520D01*
X162659903Y-91766855D01*
X162611299Y-91606630D01*
X162594888Y-91440000D01*
X162611299Y-91273370D01*
X162659903Y-91113145D01*
X162738831Y-90965480D01*
X162845051Y-90836051D01*
X162974480Y-90729831D01*
X163122145Y-90650903D01*
X163282370Y-90602299D01*
X163407248Y-90590000D01*
X163490752Y-90590000D01*
X163615630Y-90602299D01*
X163615630Y-90602299D01*
G37*
G36*
X145868818Y-88872833D02*
X145871053Y-88873511D01*
X145873107Y-88874609D01*
X145874911Y-88876089D01*
X145882374Y-88885183D01*
X145899701Y-88902510D01*
X145920076Y-88916123D01*
X145942715Y-88925501D01*
X145966749Y-88930281D01*
X145991253Y-88930281D01*
X146015286Y-88925500D01*
X146037925Y-88916123D01*
X146058300Y-88902509D01*
X146075626Y-88885183D01*
X146083089Y-88876089D01*
X146084893Y-88874609D01*
X146086947Y-88873511D01*
X146089182Y-88872833D01*
X146097640Y-88872000D01*
X146360360Y-88872000D01*
X146368818Y-88872833D01*
X146371053Y-88873511D01*
X146373107Y-88874609D01*
X146374911Y-88876089D01*
X146382374Y-88885183D01*
X146399701Y-88902510D01*
X146420076Y-88916123D01*
X146442715Y-88925501D01*
X146466749Y-88930281D01*
X146491253Y-88930281D01*
X146515286Y-88925500D01*
X146537925Y-88916123D01*
X146558300Y-88902509D01*
X146575626Y-88885183D01*
X146583089Y-88876089D01*
X146584893Y-88874609D01*
X146586947Y-88873511D01*
X146589182Y-88872833D01*
X146597640Y-88872000D01*
X146860360Y-88872000D01*
X146868818Y-88872833D01*
X146871053Y-88873511D01*
X146873107Y-88874609D01*
X146874911Y-88876089D01*
X146882374Y-88885183D01*
X146899701Y-88902510D01*
X146920076Y-88916123D01*
X146942715Y-88925501D01*
X146966749Y-88930281D01*
X146991253Y-88930281D01*
X147015286Y-88925500D01*
X147037925Y-88916123D01*
X147058300Y-88902509D01*
X147075626Y-88885183D01*
X147083089Y-88876089D01*
X147084893Y-88874609D01*
X147086947Y-88873511D01*
X147089182Y-88872833D01*
X147097640Y-88872000D01*
X147360360Y-88872000D01*
X147368818Y-88872833D01*
X147371053Y-88873511D01*
X147373107Y-88874609D01*
X147374911Y-88876089D01*
X147382374Y-88885183D01*
X147399701Y-88902510D01*
X147420076Y-88916123D01*
X147442715Y-88925501D01*
X147466749Y-88930281D01*
X147491253Y-88930281D01*
X147515286Y-88925500D01*
X147537925Y-88916123D01*
X147558300Y-88902509D01*
X147575626Y-88885183D01*
X147583089Y-88876089D01*
X147584893Y-88874609D01*
X147586947Y-88873511D01*
X147589182Y-88872833D01*
X147597640Y-88872000D01*
X147860360Y-88872000D01*
X147868818Y-88872833D01*
X147871053Y-88873511D01*
X147873107Y-88874609D01*
X147874911Y-88876089D01*
X147882374Y-88885183D01*
X147899701Y-88902510D01*
X147920076Y-88916123D01*
X147942715Y-88925501D01*
X147966749Y-88930281D01*
X147991253Y-88930281D01*
X148015286Y-88925500D01*
X148037925Y-88916123D01*
X148058300Y-88902509D01*
X148075626Y-88885183D01*
X148083089Y-88876089D01*
X148084893Y-88874609D01*
X148086947Y-88873511D01*
X148089182Y-88872833D01*
X148097640Y-88872000D01*
X148360360Y-88872000D01*
X148368818Y-88872833D01*
X148371053Y-88873511D01*
X148373107Y-88874609D01*
X148374911Y-88876089D01*
X148382374Y-88885183D01*
X148399701Y-88902510D01*
X148420076Y-88916123D01*
X148442715Y-88925501D01*
X148466749Y-88930281D01*
X148491253Y-88930281D01*
X148515286Y-88925500D01*
X148537925Y-88916123D01*
X148558300Y-88902509D01*
X148575626Y-88885183D01*
X148583089Y-88876089D01*
X148584893Y-88874609D01*
X148586947Y-88873511D01*
X148589182Y-88872833D01*
X148597640Y-88872000D01*
X148860360Y-88872000D01*
X148868818Y-88872833D01*
X148871053Y-88873511D01*
X148873107Y-88874609D01*
X148874911Y-88876089D01*
X148882374Y-88885183D01*
X148899701Y-88902510D01*
X148920076Y-88916123D01*
X148942715Y-88925501D01*
X148966749Y-88930281D01*
X148991253Y-88930281D01*
X149015286Y-88925500D01*
X149037925Y-88916123D01*
X149058300Y-88902509D01*
X149075626Y-88885183D01*
X149083089Y-88876089D01*
X149084893Y-88874609D01*
X149086947Y-88873511D01*
X149089182Y-88872833D01*
X149097640Y-88872000D01*
X149360360Y-88872000D01*
X149368818Y-88872833D01*
X149371053Y-88873511D01*
X149373107Y-88874609D01*
X149374911Y-88876089D01*
X149382374Y-88885183D01*
X149399701Y-88902510D01*
X149420076Y-88916123D01*
X149442715Y-88925501D01*
X149466749Y-88930281D01*
X149491253Y-88930281D01*
X149515286Y-88925500D01*
X149537925Y-88916123D01*
X149558300Y-88902509D01*
X149575626Y-88885183D01*
X149583089Y-88876089D01*
X149584893Y-88874609D01*
X149586947Y-88873511D01*
X149589182Y-88872833D01*
X149597640Y-88872000D01*
X149860360Y-88872000D01*
X149868818Y-88872833D01*
X149871053Y-88873511D01*
X149873107Y-88874609D01*
X149874911Y-88876089D01*
X149882374Y-88885183D01*
X149899701Y-88902510D01*
X149920076Y-88916123D01*
X149942715Y-88925501D01*
X149966749Y-88930281D01*
X149991253Y-88930281D01*
X150015286Y-88925500D01*
X150037925Y-88916123D01*
X150058300Y-88902509D01*
X150075626Y-88885183D01*
X150083089Y-88876089D01*
X150084893Y-88874609D01*
X150086947Y-88873511D01*
X150089182Y-88872833D01*
X150097640Y-88872000D01*
X150360360Y-88872000D01*
X150368818Y-88872833D01*
X150371053Y-88873511D01*
X150373107Y-88874609D01*
X150374911Y-88876089D01*
X150382374Y-88885183D01*
X150399701Y-88902510D01*
X150420076Y-88916123D01*
X150442715Y-88925501D01*
X150466749Y-88930281D01*
X150491253Y-88930281D01*
X150515286Y-88925500D01*
X150537925Y-88916123D01*
X150558300Y-88902509D01*
X150575626Y-88885183D01*
X150583089Y-88876089D01*
X150584893Y-88874609D01*
X150586947Y-88873511D01*
X150589182Y-88872833D01*
X150597640Y-88872000D01*
X150860360Y-88872000D01*
X150868818Y-88872833D01*
X150871053Y-88873511D01*
X150873107Y-88874609D01*
X150874911Y-88876089D01*
X150882374Y-88885183D01*
X150899701Y-88902510D01*
X150920076Y-88916123D01*
X150942715Y-88925501D01*
X150966749Y-88930281D01*
X150991253Y-88930281D01*
X151015286Y-88925500D01*
X151037925Y-88916123D01*
X151058300Y-88902509D01*
X151075626Y-88885183D01*
X151083089Y-88876089D01*
X151084893Y-88874609D01*
X151086947Y-88873511D01*
X151089182Y-88872833D01*
X151097640Y-88872000D01*
X151360360Y-88872000D01*
X151368818Y-88872833D01*
X151371053Y-88873511D01*
X151373107Y-88874609D01*
X151374911Y-88876089D01*
X151382374Y-88885183D01*
X151399701Y-88902510D01*
X151420076Y-88916123D01*
X151442715Y-88925501D01*
X151466749Y-88930281D01*
X151491253Y-88930281D01*
X151515286Y-88925500D01*
X151537925Y-88916123D01*
X151558300Y-88902509D01*
X151575626Y-88885183D01*
X151583089Y-88876089D01*
X151584893Y-88874609D01*
X151586947Y-88873511D01*
X151589182Y-88872833D01*
X151597640Y-88872000D01*
X151860360Y-88872000D01*
X151868818Y-88872833D01*
X151871053Y-88873511D01*
X151873107Y-88874609D01*
X151874911Y-88876089D01*
X151882374Y-88885183D01*
X151899701Y-88902510D01*
X151920076Y-88916123D01*
X151942715Y-88925501D01*
X151966749Y-88930281D01*
X151991253Y-88930281D01*
X152015286Y-88925500D01*
X152037925Y-88916123D01*
X152058300Y-88902509D01*
X152075626Y-88885183D01*
X152083089Y-88876089D01*
X152084893Y-88874609D01*
X152086947Y-88873511D01*
X152089182Y-88872833D01*
X152097640Y-88872000D01*
X152360360Y-88872000D01*
X152368818Y-88872833D01*
X152371053Y-88873511D01*
X152373107Y-88874609D01*
X152374911Y-88876089D01*
X152382374Y-88885183D01*
X152399701Y-88902510D01*
X152420076Y-88916123D01*
X152442715Y-88925501D01*
X152466749Y-88930281D01*
X152491253Y-88930281D01*
X152515286Y-88925500D01*
X152537925Y-88916123D01*
X152558300Y-88902509D01*
X152575626Y-88885183D01*
X152583089Y-88876089D01*
X152584893Y-88874609D01*
X152586947Y-88873511D01*
X152589182Y-88872833D01*
X152597640Y-88872000D01*
X152860360Y-88872000D01*
X152868818Y-88872833D01*
X152871053Y-88873511D01*
X152873107Y-88874609D01*
X152874911Y-88876089D01*
X152882374Y-88885183D01*
X152899701Y-88902510D01*
X152920076Y-88916123D01*
X152942715Y-88925501D01*
X152966749Y-88930281D01*
X152991253Y-88930281D01*
X153015286Y-88925500D01*
X153037925Y-88916123D01*
X153058300Y-88902509D01*
X153075626Y-88885183D01*
X153083089Y-88876089D01*
X153084893Y-88874609D01*
X153086947Y-88873511D01*
X153089182Y-88872833D01*
X153097640Y-88872000D01*
X153360360Y-88872000D01*
X153368818Y-88872833D01*
X153371053Y-88873511D01*
X153373107Y-88874609D01*
X153374911Y-88876089D01*
X153376391Y-88877893D01*
X153377489Y-88879947D01*
X153378167Y-88882182D01*
X153379000Y-88890640D01*
X153379000Y-90328360D01*
X153378167Y-90336818D01*
X153377489Y-90339053D01*
X153376391Y-90341107D01*
X153374911Y-90342911D01*
X153373107Y-90344391D01*
X153371053Y-90345489D01*
X153368818Y-90346167D01*
X153360360Y-90347000D01*
X153097640Y-90347000D01*
X153089182Y-90346167D01*
X153086947Y-90345489D01*
X153084893Y-90344391D01*
X153083089Y-90342911D01*
X153075626Y-90333817D01*
X153058299Y-90316490D01*
X153037924Y-90302877D01*
X153015285Y-90293499D01*
X152991251Y-90288719D01*
X152966747Y-90288719D01*
X152942714Y-90293500D01*
X152920075Y-90302877D01*
X152899700Y-90316491D01*
X152882374Y-90333817D01*
X152874911Y-90342911D01*
X152873107Y-90344391D01*
X152871053Y-90345489D01*
X152868818Y-90346167D01*
X152860360Y-90347000D01*
X152597640Y-90347000D01*
X152589182Y-90346167D01*
X152586947Y-90345489D01*
X152584893Y-90344391D01*
X152583089Y-90342911D01*
X152575626Y-90333817D01*
X152558299Y-90316490D01*
X152537924Y-90302877D01*
X152515285Y-90293499D01*
X152491251Y-90288719D01*
X152466747Y-90288719D01*
X152442714Y-90293500D01*
X152420075Y-90302877D01*
X152399700Y-90316491D01*
X152382374Y-90333817D01*
X152374911Y-90342911D01*
X152373107Y-90344391D01*
X152371053Y-90345489D01*
X152368818Y-90346167D01*
X152360360Y-90347000D01*
X152097640Y-90347000D01*
X152089182Y-90346167D01*
X152086947Y-90345489D01*
X152084893Y-90344391D01*
X152083089Y-90342911D01*
X152075626Y-90333817D01*
X152058299Y-90316490D01*
X152037924Y-90302877D01*
X152015285Y-90293499D01*
X151991251Y-90288719D01*
X151966747Y-90288719D01*
X151942714Y-90293500D01*
X151920075Y-90302877D01*
X151899700Y-90316491D01*
X151882374Y-90333817D01*
X151874911Y-90342911D01*
X151873107Y-90344391D01*
X151871053Y-90345489D01*
X151868818Y-90346167D01*
X151860360Y-90347000D01*
X151597640Y-90347000D01*
X151589182Y-90346167D01*
X151586947Y-90345489D01*
X151584893Y-90344391D01*
X151583089Y-90342911D01*
X151575626Y-90333817D01*
X151558299Y-90316490D01*
X151537924Y-90302877D01*
X151515285Y-90293499D01*
X151491251Y-90288719D01*
X151466747Y-90288719D01*
X151442714Y-90293500D01*
X151420075Y-90302877D01*
X151399700Y-90316491D01*
X151382374Y-90333817D01*
X151374911Y-90342911D01*
X151373107Y-90344391D01*
X151371053Y-90345489D01*
X151368818Y-90346167D01*
X151360360Y-90347000D01*
X151097640Y-90347000D01*
X151089182Y-90346167D01*
X151086947Y-90345489D01*
X151084893Y-90344391D01*
X151083089Y-90342911D01*
X151075626Y-90333817D01*
X151058299Y-90316490D01*
X151037924Y-90302877D01*
X151015285Y-90293499D01*
X150991251Y-90288719D01*
X150966747Y-90288719D01*
X150942714Y-90293500D01*
X150920075Y-90302877D01*
X150899700Y-90316491D01*
X150882374Y-90333817D01*
X150874911Y-90342911D01*
X150873107Y-90344391D01*
X150871053Y-90345489D01*
X150868818Y-90346167D01*
X150860360Y-90347000D01*
X150597640Y-90347000D01*
X150589182Y-90346167D01*
X150586947Y-90345489D01*
X150584893Y-90344391D01*
X150583089Y-90342911D01*
X150575626Y-90333817D01*
X150558299Y-90316490D01*
X150537924Y-90302877D01*
X150515285Y-90293499D01*
X150491251Y-90288719D01*
X150466747Y-90288719D01*
X150442714Y-90293500D01*
X150420075Y-90302877D01*
X150399700Y-90316491D01*
X150382374Y-90333817D01*
X150374911Y-90342911D01*
X150373107Y-90344391D01*
X150371053Y-90345489D01*
X150368818Y-90346167D01*
X150360360Y-90347000D01*
X150097640Y-90347000D01*
X150089182Y-90346167D01*
X150086947Y-90345489D01*
X150084893Y-90344391D01*
X150083089Y-90342911D01*
X150075626Y-90333817D01*
X150058299Y-90316490D01*
X150037924Y-90302877D01*
X150015285Y-90293499D01*
X149991251Y-90288719D01*
X149966747Y-90288719D01*
X149942714Y-90293500D01*
X149920075Y-90302877D01*
X149899700Y-90316491D01*
X149882374Y-90333817D01*
X149874911Y-90342911D01*
X149873107Y-90344391D01*
X149871053Y-90345489D01*
X149868818Y-90346167D01*
X149860360Y-90347000D01*
X149597640Y-90347000D01*
X149589182Y-90346167D01*
X149586947Y-90345489D01*
X149584893Y-90344391D01*
X149583089Y-90342911D01*
X149575626Y-90333817D01*
X149558299Y-90316490D01*
X149537924Y-90302877D01*
X149515285Y-90293499D01*
X149491251Y-90288719D01*
X149466747Y-90288719D01*
X149442714Y-90293500D01*
X149420075Y-90302877D01*
X149399700Y-90316491D01*
X149382374Y-90333817D01*
X149374911Y-90342911D01*
X149373107Y-90344391D01*
X149371053Y-90345489D01*
X149368818Y-90346167D01*
X149360360Y-90347000D01*
X149097640Y-90347000D01*
X149089182Y-90346167D01*
X149086947Y-90345489D01*
X149084893Y-90344391D01*
X149083089Y-90342911D01*
X149075626Y-90333817D01*
X149058299Y-90316490D01*
X149037924Y-90302877D01*
X149015285Y-90293499D01*
X148991251Y-90288719D01*
X148966747Y-90288719D01*
X148942714Y-90293500D01*
X148920075Y-90302877D01*
X148899700Y-90316491D01*
X148882374Y-90333817D01*
X148874911Y-90342911D01*
X148873107Y-90344391D01*
X148871053Y-90345489D01*
X148868818Y-90346167D01*
X148860360Y-90347000D01*
X148597640Y-90347000D01*
X148589182Y-90346167D01*
X148586947Y-90345489D01*
X148584893Y-90344391D01*
X148583089Y-90342911D01*
X148575626Y-90333817D01*
X148558299Y-90316490D01*
X148537924Y-90302877D01*
X148515285Y-90293499D01*
X148491251Y-90288719D01*
X148466747Y-90288719D01*
X148442714Y-90293500D01*
X148420075Y-90302877D01*
X148399700Y-90316491D01*
X148382374Y-90333817D01*
X148374911Y-90342911D01*
X148373107Y-90344391D01*
X148371053Y-90345489D01*
X148368818Y-90346167D01*
X148360360Y-90347000D01*
X148097640Y-90347000D01*
X148089182Y-90346167D01*
X148086947Y-90345489D01*
X148084893Y-90344391D01*
X148083089Y-90342911D01*
X148075626Y-90333817D01*
X148058299Y-90316490D01*
X148037924Y-90302877D01*
X148015285Y-90293499D01*
X147991251Y-90288719D01*
X147966747Y-90288719D01*
X147942714Y-90293500D01*
X147920075Y-90302877D01*
X147899700Y-90316491D01*
X147882374Y-90333817D01*
X147874911Y-90342911D01*
X147873107Y-90344391D01*
X147871053Y-90345489D01*
X147868818Y-90346167D01*
X147860360Y-90347000D01*
X147597640Y-90347000D01*
X147589182Y-90346167D01*
X147586947Y-90345489D01*
X147584893Y-90344391D01*
X147583089Y-90342911D01*
X147575626Y-90333817D01*
X147558299Y-90316490D01*
X147537924Y-90302877D01*
X147515285Y-90293499D01*
X147491251Y-90288719D01*
X147466747Y-90288719D01*
X147442714Y-90293500D01*
X147420075Y-90302877D01*
X147399700Y-90316491D01*
X147382374Y-90333817D01*
X147374911Y-90342911D01*
X147373107Y-90344391D01*
X147371053Y-90345489D01*
X147368818Y-90346167D01*
X147360360Y-90347000D01*
X147097640Y-90347000D01*
X147089182Y-90346167D01*
X147086947Y-90345489D01*
X147084893Y-90344391D01*
X147083089Y-90342911D01*
X147075626Y-90333817D01*
X147058299Y-90316490D01*
X147037924Y-90302877D01*
X147015285Y-90293499D01*
X146991251Y-90288719D01*
X146966747Y-90288719D01*
X146942714Y-90293500D01*
X146920075Y-90302877D01*
X146899700Y-90316491D01*
X146882374Y-90333817D01*
X146874911Y-90342911D01*
X146873107Y-90344391D01*
X146871053Y-90345489D01*
X146868818Y-90346167D01*
X146860360Y-90347000D01*
X146597640Y-90347000D01*
X146589182Y-90346167D01*
X146586947Y-90345489D01*
X146584893Y-90344391D01*
X146583089Y-90342911D01*
X146575626Y-90333817D01*
X146558299Y-90316490D01*
X146537924Y-90302877D01*
X146515285Y-90293499D01*
X146491251Y-90288719D01*
X146466747Y-90288719D01*
X146442714Y-90293500D01*
X146420075Y-90302877D01*
X146399700Y-90316491D01*
X146382374Y-90333817D01*
X146374911Y-90342911D01*
X146373107Y-90344391D01*
X146371053Y-90345489D01*
X146368818Y-90346167D01*
X146360360Y-90347000D01*
X146097640Y-90347000D01*
X146089182Y-90346167D01*
X146086947Y-90345489D01*
X146084893Y-90344391D01*
X146083089Y-90342911D01*
X146075626Y-90333817D01*
X146058299Y-90316490D01*
X146037924Y-90302877D01*
X146015285Y-90293499D01*
X145991251Y-90288719D01*
X145966747Y-90288719D01*
X145942714Y-90293500D01*
X145920075Y-90302877D01*
X145899700Y-90316491D01*
X145882374Y-90333817D01*
X145874911Y-90342911D01*
X145873107Y-90344391D01*
X145871053Y-90345489D01*
X145868818Y-90346167D01*
X145860360Y-90347000D01*
X145597640Y-90347000D01*
X145589182Y-90346167D01*
X145586947Y-90345489D01*
X145584893Y-90344391D01*
X145583089Y-90342911D01*
X145581609Y-90341107D01*
X145580511Y-90339053D01*
X145579833Y-90336818D01*
X145579000Y-90328360D01*
X145579000Y-88890640D01*
X145579833Y-88882182D01*
X145580511Y-88879947D01*
X145581609Y-88877893D01*
X145583089Y-88876089D01*
X145584893Y-88874609D01*
X145586947Y-88873511D01*
X145589182Y-88872833D01*
X145597640Y-88872000D01*
X145860360Y-88872000D01*
X145868818Y-88872833D01*
X145868818Y-88872833D01*
G37*
G36*
X163615630Y-88062299D02*
X163775855Y-88110903D01*
X163923520Y-88189831D01*
X164052949Y-88296051D01*
X164159169Y-88425480D01*
X164238097Y-88573145D01*
X164286701Y-88733370D01*
X164303112Y-88900000D01*
X164286701Y-89066630D01*
X164238097Y-89226855D01*
X164159169Y-89374520D01*
X164052949Y-89503949D01*
X163923520Y-89610169D01*
X163775855Y-89689097D01*
X163615630Y-89737701D01*
X163490752Y-89750000D01*
X163407248Y-89750000D01*
X163282370Y-89737701D01*
X163122145Y-89689097D01*
X162974480Y-89610169D01*
X162845051Y-89503949D01*
X162738831Y-89374520D01*
X162659903Y-89226855D01*
X162611299Y-89066630D01*
X162594888Y-88900000D01*
X162611299Y-88733370D01*
X162659903Y-88573145D01*
X162738831Y-88425480D01*
X162845051Y-88296051D01*
X162974480Y-88189831D01*
X163122145Y-88110903D01*
X163282370Y-88062299D01*
X163407248Y-88050000D01*
X163490752Y-88050000D01*
X163615630Y-88062299D01*
X163615630Y-88062299D01*
G37*
G36*
X132754630Y-88062299D02*
X132914855Y-88110903D01*
X133062520Y-88189831D01*
X133191949Y-88296051D01*
X133298169Y-88425480D01*
X133377097Y-88573145D01*
X133425701Y-88733370D01*
X133442112Y-88900000D01*
X133425701Y-89066630D01*
X133377097Y-89226855D01*
X133298169Y-89374520D01*
X133191949Y-89503949D01*
X133062520Y-89610169D01*
X132914855Y-89689097D01*
X132754630Y-89737701D01*
X132629752Y-89750000D01*
X132546248Y-89750000D01*
X132421370Y-89737701D01*
X132261145Y-89689097D01*
X132113480Y-89610169D01*
X131984051Y-89503949D01*
X131877831Y-89374520D01*
X131798903Y-89226855D01*
X131750299Y-89066630D01*
X131733888Y-88900000D01*
X131750299Y-88733370D01*
X131798903Y-88573145D01*
X131877831Y-88425480D01*
X131984051Y-88296051D01*
X132113480Y-88189831D01*
X132261145Y-88110903D01*
X132421370Y-88062299D01*
X132546248Y-88050000D01*
X132629752Y-88050000D01*
X132754630Y-88062299D01*
X132754630Y-88062299D01*
G37*
G36*
X130214630Y-88062299D02*
X130374855Y-88110903D01*
X130522520Y-88189831D01*
X130651949Y-88296051D01*
X130758169Y-88425480D01*
X130837097Y-88573145D01*
X130885701Y-88733370D01*
X130902112Y-88900000D01*
X130885701Y-89066630D01*
X130837097Y-89226855D01*
X130758169Y-89374520D01*
X130651949Y-89503949D01*
X130522520Y-89610169D01*
X130374855Y-89689097D01*
X130214630Y-89737701D01*
X130089752Y-89750000D01*
X130006248Y-89750000D01*
X129881370Y-89737701D01*
X129721145Y-89689097D01*
X129573480Y-89610169D01*
X129444051Y-89503949D01*
X129337831Y-89374520D01*
X129258903Y-89226855D01*
X129210299Y-89066630D01*
X129193888Y-88900000D01*
X129210299Y-88733370D01*
X129258903Y-88573145D01*
X129337831Y-88425480D01*
X129444051Y-88296051D01*
X129573480Y-88189831D01*
X129721145Y-88110903D01*
X129881370Y-88062299D01*
X130006248Y-88050000D01*
X130089752Y-88050000D01*
X130214630Y-88062299D01*
X130214630Y-88062299D01*
G37*
G36*
X166155630Y-88062299D02*
X166315855Y-88110903D01*
X166463520Y-88189831D01*
X166592949Y-88296051D01*
X166699169Y-88425480D01*
X166778097Y-88573145D01*
X166826701Y-88733370D01*
X166843112Y-88900000D01*
X166826701Y-89066630D01*
X166778097Y-89226855D01*
X166699169Y-89374520D01*
X166592949Y-89503949D01*
X166463520Y-89610169D01*
X166315855Y-89689097D01*
X166155630Y-89737701D01*
X166030752Y-89750000D01*
X165947248Y-89750000D01*
X165822370Y-89737701D01*
X165662145Y-89689097D01*
X165514480Y-89610169D01*
X165385051Y-89503949D01*
X165278831Y-89374520D01*
X165199903Y-89226855D01*
X165151299Y-89066630D01*
X165134888Y-88900000D01*
X165151299Y-88733370D01*
X165199903Y-88573145D01*
X165278831Y-88425480D01*
X165385051Y-88296051D01*
X165514480Y-88189831D01*
X165662145Y-88110903D01*
X165822370Y-88062299D01*
X165947248Y-88050000D01*
X166030752Y-88050000D01*
X166155630Y-88062299D01*
X166155630Y-88062299D01*
G37*
G36*
X155868818Y-80047833D02*
X155871053Y-80048511D01*
X155873107Y-80049609D01*
X155874911Y-80051089D01*
X155876391Y-80052893D01*
X155877489Y-80054947D01*
X155878167Y-80057182D01*
X155879000Y-80065640D01*
X155879000Y-80328360D01*
X155878167Y-80336818D01*
X155877489Y-80339053D01*
X155876391Y-80341107D01*
X155874911Y-80342911D01*
X155865817Y-80350374D01*
X155848490Y-80367701D01*
X155834877Y-80388076D01*
X155825499Y-80410715D01*
X155820719Y-80434749D01*
X155820719Y-80459253D01*
X155825500Y-80483286D01*
X155834877Y-80505925D01*
X155848491Y-80526300D01*
X155865817Y-80543626D01*
X155874911Y-80551089D01*
X155876391Y-80552893D01*
X155877489Y-80554947D01*
X155878167Y-80557182D01*
X155879000Y-80565640D01*
X155879000Y-80828360D01*
X155878167Y-80836818D01*
X155877489Y-80839053D01*
X155876391Y-80841107D01*
X155874911Y-80842911D01*
X155865817Y-80850374D01*
X155848490Y-80867701D01*
X155834877Y-80888076D01*
X155825499Y-80910715D01*
X155820719Y-80934749D01*
X155820719Y-80959253D01*
X155825500Y-80983286D01*
X155834877Y-81005925D01*
X155848491Y-81026300D01*
X155865817Y-81043626D01*
X155874911Y-81051089D01*
X155876391Y-81052893D01*
X155877489Y-81054947D01*
X155878167Y-81057182D01*
X155879000Y-81065640D01*
X155879000Y-81328360D01*
X155878167Y-81336818D01*
X155877489Y-81339053D01*
X155876391Y-81341107D01*
X155874911Y-81342911D01*
X155865817Y-81350374D01*
X155848490Y-81367701D01*
X155834877Y-81388076D01*
X155825499Y-81410715D01*
X155820719Y-81434749D01*
X155820719Y-81459253D01*
X155825500Y-81483286D01*
X155834877Y-81505925D01*
X155848491Y-81526300D01*
X155865817Y-81543626D01*
X155874911Y-81551089D01*
X155876391Y-81552893D01*
X155877489Y-81554947D01*
X155878167Y-81557182D01*
X155879000Y-81565640D01*
X155879000Y-81828360D01*
X155878167Y-81836818D01*
X155877489Y-81839053D01*
X155876391Y-81841107D01*
X155874911Y-81842911D01*
X155865817Y-81850374D01*
X155848490Y-81867701D01*
X155834877Y-81888076D01*
X155825499Y-81910715D01*
X155820719Y-81934749D01*
X155820719Y-81959253D01*
X155825500Y-81983286D01*
X155834877Y-82005925D01*
X155848491Y-82026300D01*
X155865817Y-82043626D01*
X155874911Y-82051089D01*
X155876391Y-82052893D01*
X155877489Y-82054947D01*
X155878167Y-82057182D01*
X155879000Y-82065640D01*
X155879000Y-82328360D01*
X155878167Y-82336818D01*
X155877489Y-82339053D01*
X155876391Y-82341107D01*
X155874911Y-82342911D01*
X155865817Y-82350374D01*
X155848490Y-82367701D01*
X155834877Y-82388076D01*
X155825499Y-82410715D01*
X155820719Y-82434749D01*
X155820719Y-82459253D01*
X155825500Y-82483286D01*
X155834877Y-82505925D01*
X155848491Y-82526300D01*
X155865817Y-82543626D01*
X155874911Y-82551089D01*
X155876391Y-82552893D01*
X155877489Y-82554947D01*
X155878167Y-82557182D01*
X155879000Y-82565640D01*
X155879000Y-82828360D01*
X155878167Y-82836818D01*
X155877489Y-82839053D01*
X155876391Y-82841107D01*
X155874911Y-82842911D01*
X155865817Y-82850374D01*
X155848490Y-82867701D01*
X155834877Y-82888076D01*
X155825499Y-82910715D01*
X155820719Y-82934749D01*
X155820719Y-82959253D01*
X155825500Y-82983286D01*
X155834877Y-83005925D01*
X155848491Y-83026300D01*
X155865817Y-83043626D01*
X155874911Y-83051089D01*
X155876391Y-83052893D01*
X155877489Y-83054947D01*
X155878167Y-83057182D01*
X155879000Y-83065640D01*
X155879000Y-83328360D01*
X155878167Y-83336818D01*
X155877489Y-83339053D01*
X155876391Y-83341107D01*
X155874911Y-83342911D01*
X155865817Y-83350374D01*
X155848490Y-83367701D01*
X155834877Y-83388076D01*
X155825499Y-83410715D01*
X155820719Y-83434749D01*
X155820719Y-83459253D01*
X155825500Y-83483286D01*
X155834877Y-83505925D01*
X155848491Y-83526300D01*
X155865817Y-83543626D01*
X155874911Y-83551089D01*
X155876391Y-83552893D01*
X155877489Y-83554947D01*
X155878167Y-83557182D01*
X155879000Y-83565640D01*
X155879000Y-83828360D01*
X155878167Y-83836818D01*
X155877489Y-83839053D01*
X155876391Y-83841107D01*
X155874911Y-83842911D01*
X155865817Y-83850374D01*
X155848490Y-83867701D01*
X155834877Y-83888076D01*
X155825499Y-83910715D01*
X155820719Y-83934749D01*
X155820719Y-83959253D01*
X155825500Y-83983286D01*
X155834877Y-84005925D01*
X155848491Y-84026300D01*
X155865817Y-84043626D01*
X155874911Y-84051089D01*
X155876391Y-84052893D01*
X155877489Y-84054947D01*
X155878167Y-84057182D01*
X155879000Y-84065640D01*
X155879000Y-84328360D01*
X155878167Y-84336818D01*
X155877489Y-84339053D01*
X155876391Y-84341107D01*
X155874911Y-84342911D01*
X155865817Y-84350374D01*
X155848490Y-84367701D01*
X155834877Y-84388076D01*
X155825499Y-84410715D01*
X155820719Y-84434749D01*
X155820719Y-84459253D01*
X155825500Y-84483286D01*
X155834877Y-84505925D01*
X155848491Y-84526300D01*
X155865817Y-84543626D01*
X155874911Y-84551089D01*
X155876391Y-84552893D01*
X155877489Y-84554947D01*
X155878167Y-84557182D01*
X155879000Y-84565640D01*
X155879000Y-84828360D01*
X155878167Y-84836818D01*
X155877489Y-84839053D01*
X155876391Y-84841107D01*
X155874911Y-84842911D01*
X155865817Y-84850374D01*
X155848490Y-84867701D01*
X155834877Y-84888076D01*
X155825499Y-84910715D01*
X155820719Y-84934749D01*
X155820719Y-84959253D01*
X155825500Y-84983286D01*
X155834877Y-85005925D01*
X155848491Y-85026300D01*
X155865817Y-85043626D01*
X155874911Y-85051089D01*
X155876391Y-85052893D01*
X155877489Y-85054947D01*
X155878167Y-85057182D01*
X155879000Y-85065640D01*
X155879000Y-85328360D01*
X155878167Y-85336818D01*
X155877489Y-85339053D01*
X155876391Y-85341107D01*
X155874911Y-85342911D01*
X155865817Y-85350374D01*
X155848490Y-85367701D01*
X155834877Y-85388076D01*
X155825499Y-85410715D01*
X155820719Y-85434749D01*
X155820719Y-85459253D01*
X155825500Y-85483286D01*
X155834877Y-85505925D01*
X155848491Y-85526300D01*
X155865817Y-85543626D01*
X155874911Y-85551089D01*
X155876391Y-85552893D01*
X155877489Y-85554947D01*
X155878167Y-85557182D01*
X155879000Y-85565640D01*
X155879000Y-85828360D01*
X155878167Y-85836818D01*
X155877489Y-85839053D01*
X155876391Y-85841107D01*
X155874911Y-85842911D01*
X155865817Y-85850374D01*
X155848490Y-85867701D01*
X155834877Y-85888076D01*
X155825499Y-85910715D01*
X155820719Y-85934749D01*
X155820719Y-85959253D01*
X155825500Y-85983286D01*
X155834877Y-86005925D01*
X155848491Y-86026300D01*
X155865817Y-86043626D01*
X155874911Y-86051089D01*
X155876391Y-86052893D01*
X155877489Y-86054947D01*
X155878167Y-86057182D01*
X155879000Y-86065640D01*
X155879000Y-86328360D01*
X155878167Y-86336818D01*
X155877489Y-86339053D01*
X155876391Y-86341107D01*
X155874911Y-86342911D01*
X155865817Y-86350374D01*
X155848490Y-86367701D01*
X155834877Y-86388076D01*
X155825499Y-86410715D01*
X155820719Y-86434749D01*
X155820719Y-86459253D01*
X155825500Y-86483286D01*
X155834877Y-86505925D01*
X155848491Y-86526300D01*
X155865817Y-86543626D01*
X155874911Y-86551089D01*
X155876391Y-86552893D01*
X155877489Y-86554947D01*
X155878167Y-86557182D01*
X155879000Y-86565640D01*
X155879000Y-86828360D01*
X155878167Y-86836818D01*
X155877489Y-86839053D01*
X155876391Y-86841107D01*
X155874911Y-86842911D01*
X155865817Y-86850374D01*
X155848490Y-86867701D01*
X155834877Y-86888076D01*
X155825499Y-86910715D01*
X155820719Y-86934749D01*
X155820719Y-86959253D01*
X155825500Y-86983286D01*
X155834877Y-87005925D01*
X155848491Y-87026300D01*
X155865817Y-87043626D01*
X155874911Y-87051089D01*
X155876391Y-87052893D01*
X155877489Y-87054947D01*
X155878167Y-87057182D01*
X155879000Y-87065640D01*
X155879000Y-87328360D01*
X155878167Y-87336818D01*
X155877489Y-87339053D01*
X155876391Y-87341107D01*
X155874911Y-87342911D01*
X155865817Y-87350374D01*
X155848490Y-87367701D01*
X155834877Y-87388076D01*
X155825499Y-87410715D01*
X155820719Y-87434749D01*
X155820719Y-87459253D01*
X155825500Y-87483286D01*
X155834877Y-87505925D01*
X155848491Y-87526300D01*
X155865817Y-87543626D01*
X155874911Y-87551089D01*
X155876391Y-87552893D01*
X155877489Y-87554947D01*
X155878167Y-87557182D01*
X155879000Y-87565640D01*
X155879000Y-87828360D01*
X155878167Y-87836818D01*
X155877489Y-87839053D01*
X155876391Y-87841107D01*
X155874911Y-87842911D01*
X155873107Y-87844391D01*
X155871053Y-87845489D01*
X155868818Y-87846167D01*
X155860360Y-87847000D01*
X154422640Y-87847000D01*
X154414182Y-87846167D01*
X154411947Y-87845489D01*
X154409893Y-87844391D01*
X154408089Y-87842911D01*
X154406609Y-87841107D01*
X154405511Y-87839053D01*
X154404833Y-87836818D01*
X154404000Y-87828360D01*
X154404000Y-87565640D01*
X154404833Y-87557182D01*
X154405511Y-87554947D01*
X154406609Y-87552893D01*
X154408089Y-87551089D01*
X154417183Y-87543626D01*
X154434510Y-87526299D01*
X154448123Y-87505924D01*
X154457501Y-87483285D01*
X154462281Y-87459251D01*
X154462281Y-87434747D01*
X154457500Y-87410714D01*
X154448123Y-87388075D01*
X154434509Y-87367700D01*
X154417183Y-87350374D01*
X154408089Y-87342911D01*
X154406609Y-87341107D01*
X154405511Y-87339053D01*
X154404833Y-87336818D01*
X154404000Y-87328360D01*
X154404000Y-87065640D01*
X154404833Y-87057182D01*
X154405511Y-87054947D01*
X154406609Y-87052893D01*
X154408089Y-87051089D01*
X154417183Y-87043626D01*
X154434510Y-87026299D01*
X154448123Y-87005924D01*
X154457501Y-86983285D01*
X154462281Y-86959251D01*
X154462281Y-86934747D01*
X154457500Y-86910714D01*
X154448123Y-86888075D01*
X154434509Y-86867700D01*
X154417183Y-86850374D01*
X154408089Y-86842911D01*
X154406609Y-86841107D01*
X154405511Y-86839053D01*
X154404833Y-86836818D01*
X154404000Y-86828360D01*
X154404000Y-86565640D01*
X154404833Y-86557182D01*
X154405511Y-86554947D01*
X154406609Y-86552893D01*
X154408089Y-86551089D01*
X154417183Y-86543626D01*
X154434510Y-86526299D01*
X154448123Y-86505924D01*
X154457501Y-86483285D01*
X154462281Y-86459251D01*
X154462281Y-86434747D01*
X154457500Y-86410714D01*
X154448123Y-86388075D01*
X154434509Y-86367700D01*
X154417183Y-86350374D01*
X154408089Y-86342911D01*
X154406609Y-86341107D01*
X154405511Y-86339053D01*
X154404833Y-86336818D01*
X154404000Y-86328360D01*
X154404000Y-86065640D01*
X154404833Y-86057182D01*
X154405511Y-86054947D01*
X154406609Y-86052893D01*
X154408089Y-86051089D01*
X154417183Y-86043626D01*
X154434510Y-86026299D01*
X154448123Y-86005924D01*
X154457501Y-85983285D01*
X154462281Y-85959251D01*
X154462281Y-85934747D01*
X154457500Y-85910714D01*
X154448123Y-85888075D01*
X154434509Y-85867700D01*
X154417183Y-85850374D01*
X154408089Y-85842911D01*
X154406609Y-85841107D01*
X154405511Y-85839053D01*
X154404833Y-85836818D01*
X154404000Y-85828360D01*
X154404000Y-85565640D01*
X154404833Y-85557182D01*
X154405511Y-85554947D01*
X154406609Y-85552893D01*
X154408089Y-85551089D01*
X154417183Y-85543626D01*
X154434510Y-85526299D01*
X154448123Y-85505924D01*
X154457501Y-85483285D01*
X154462281Y-85459251D01*
X154462281Y-85434747D01*
X154457500Y-85410714D01*
X154448123Y-85388075D01*
X154434509Y-85367700D01*
X154417183Y-85350374D01*
X154408089Y-85342911D01*
X154406609Y-85341107D01*
X154405511Y-85339053D01*
X154404833Y-85336818D01*
X154404000Y-85328360D01*
X154404000Y-85065640D01*
X154404833Y-85057182D01*
X154405511Y-85054947D01*
X154406609Y-85052893D01*
X154408089Y-85051089D01*
X154417183Y-85043626D01*
X154434510Y-85026299D01*
X154448123Y-85005924D01*
X154457501Y-84983285D01*
X154462281Y-84959251D01*
X154462281Y-84934747D01*
X154457500Y-84910714D01*
X154448123Y-84888075D01*
X154434509Y-84867700D01*
X154417183Y-84850374D01*
X154408089Y-84842911D01*
X154406609Y-84841107D01*
X154405511Y-84839053D01*
X154404833Y-84836818D01*
X154404000Y-84828360D01*
X154404000Y-84565640D01*
X154404833Y-84557182D01*
X154405511Y-84554947D01*
X154406609Y-84552893D01*
X154408089Y-84551089D01*
X154417183Y-84543626D01*
X154434510Y-84526299D01*
X154448123Y-84505924D01*
X154457501Y-84483285D01*
X154462281Y-84459251D01*
X154462281Y-84434747D01*
X154457500Y-84410714D01*
X154448123Y-84388075D01*
X154434509Y-84367700D01*
X154417183Y-84350374D01*
X154408089Y-84342911D01*
X154406609Y-84341107D01*
X154405511Y-84339053D01*
X154404833Y-84336818D01*
X154404000Y-84328360D01*
X154404000Y-84065640D01*
X154404833Y-84057182D01*
X154405511Y-84054947D01*
X154406609Y-84052893D01*
X154408089Y-84051089D01*
X154417183Y-84043626D01*
X154434510Y-84026299D01*
X154448123Y-84005924D01*
X154457501Y-83983285D01*
X154462281Y-83959251D01*
X154462281Y-83934747D01*
X154457500Y-83910714D01*
X154448123Y-83888075D01*
X154434509Y-83867700D01*
X154417183Y-83850374D01*
X154408089Y-83842911D01*
X154406609Y-83841107D01*
X154405511Y-83839053D01*
X154404833Y-83836818D01*
X154404000Y-83828360D01*
X154404000Y-83565640D01*
X154404833Y-83557182D01*
X154405511Y-83554947D01*
X154406609Y-83552893D01*
X154408089Y-83551089D01*
X154417183Y-83543626D01*
X154434510Y-83526299D01*
X154448123Y-83505924D01*
X154457501Y-83483285D01*
X154462281Y-83459251D01*
X154462281Y-83434747D01*
X154457500Y-83410714D01*
X154448123Y-83388075D01*
X154434509Y-83367700D01*
X154417183Y-83350374D01*
X154408089Y-83342911D01*
X154406609Y-83341107D01*
X154405511Y-83339053D01*
X154404833Y-83336818D01*
X154404000Y-83328360D01*
X154404000Y-83065640D01*
X154404833Y-83057182D01*
X154405511Y-83054947D01*
X154406609Y-83052893D01*
X154408089Y-83051089D01*
X154417183Y-83043626D01*
X154434510Y-83026299D01*
X154448123Y-83005924D01*
X154457501Y-82983285D01*
X154462281Y-82959251D01*
X154462281Y-82934747D01*
X154457500Y-82910714D01*
X154448123Y-82888075D01*
X154434509Y-82867700D01*
X154417183Y-82850374D01*
X154408089Y-82842911D01*
X154406609Y-82841107D01*
X154405511Y-82839053D01*
X154404833Y-82836818D01*
X154404000Y-82828360D01*
X154404000Y-82565640D01*
X154404833Y-82557182D01*
X154405511Y-82554947D01*
X154406609Y-82552893D01*
X154408089Y-82551089D01*
X154417183Y-82543626D01*
X154434510Y-82526299D01*
X154448123Y-82505924D01*
X154457501Y-82483285D01*
X154462281Y-82459251D01*
X154462281Y-82434747D01*
X154457500Y-82410714D01*
X154448123Y-82388075D01*
X154434509Y-82367700D01*
X154417183Y-82350374D01*
X154408089Y-82342911D01*
X154406609Y-82341107D01*
X154405511Y-82339053D01*
X154404833Y-82336818D01*
X154404000Y-82328360D01*
X154404000Y-82065640D01*
X154404833Y-82057182D01*
X154405511Y-82054947D01*
X154406609Y-82052893D01*
X154408089Y-82051089D01*
X154417183Y-82043626D01*
X154434510Y-82026299D01*
X154448123Y-82005924D01*
X154457501Y-81983285D01*
X154462281Y-81959251D01*
X154462281Y-81934747D01*
X154457500Y-81910714D01*
X154448123Y-81888075D01*
X154434509Y-81867700D01*
X154417183Y-81850374D01*
X154408089Y-81842911D01*
X154406609Y-81841107D01*
X154405511Y-81839053D01*
X154404833Y-81836818D01*
X154404000Y-81828360D01*
X154404000Y-81565640D01*
X154404833Y-81557182D01*
X154405511Y-81554947D01*
X154406609Y-81552893D01*
X154408089Y-81551089D01*
X154417183Y-81543626D01*
X154434510Y-81526299D01*
X154448123Y-81505924D01*
X154457501Y-81483285D01*
X154462281Y-81459251D01*
X154462281Y-81434747D01*
X154457500Y-81410714D01*
X154448123Y-81388075D01*
X154434509Y-81367700D01*
X154417183Y-81350374D01*
X154408089Y-81342911D01*
X154406609Y-81341107D01*
X154405511Y-81339053D01*
X154404833Y-81336818D01*
X154404000Y-81328360D01*
X154404000Y-81065640D01*
X154404833Y-81057182D01*
X154405511Y-81054947D01*
X154406609Y-81052893D01*
X154408089Y-81051089D01*
X154417183Y-81043626D01*
X154434510Y-81026299D01*
X154448123Y-81005924D01*
X154457501Y-80983285D01*
X154462281Y-80959251D01*
X154462281Y-80934747D01*
X154457500Y-80910714D01*
X154448123Y-80888075D01*
X154434509Y-80867700D01*
X154417183Y-80850374D01*
X154408089Y-80842911D01*
X154406609Y-80841107D01*
X154405511Y-80839053D01*
X154404833Y-80836818D01*
X154404000Y-80828360D01*
X154404000Y-80565640D01*
X154404833Y-80557182D01*
X154405511Y-80554947D01*
X154406609Y-80552893D01*
X154408089Y-80551089D01*
X154417183Y-80543626D01*
X154434510Y-80526299D01*
X154448123Y-80505924D01*
X154457501Y-80483285D01*
X154462281Y-80459251D01*
X154462281Y-80434747D01*
X154457500Y-80410714D01*
X154448123Y-80388075D01*
X154434509Y-80367700D01*
X154417183Y-80350374D01*
X154408089Y-80342911D01*
X154406609Y-80341107D01*
X154405511Y-80339053D01*
X154404833Y-80336818D01*
X154404000Y-80328360D01*
X154404000Y-80065640D01*
X154404833Y-80057182D01*
X154405511Y-80054947D01*
X154406609Y-80052893D01*
X154408089Y-80051089D01*
X154409893Y-80049609D01*
X154411947Y-80048511D01*
X154414182Y-80047833D01*
X154422640Y-80047000D01*
X155860360Y-80047000D01*
X155868818Y-80047833D01*
X155868818Y-80047833D01*
G37*
G36*
X144543818Y-80047833D02*
X144546053Y-80048511D01*
X144548107Y-80049609D01*
X144549911Y-80051089D01*
X144551391Y-80052893D01*
X144552489Y-80054947D01*
X144553167Y-80057182D01*
X144554000Y-80065640D01*
X144554000Y-80328360D01*
X144553167Y-80336818D01*
X144552489Y-80339053D01*
X144551391Y-80341107D01*
X144549911Y-80342911D01*
X144540817Y-80350374D01*
X144523490Y-80367701D01*
X144509877Y-80388076D01*
X144500499Y-80410715D01*
X144495719Y-80434749D01*
X144495719Y-80459253D01*
X144500500Y-80483286D01*
X144509877Y-80505925D01*
X144523491Y-80526300D01*
X144540817Y-80543626D01*
X144549911Y-80551089D01*
X144551391Y-80552893D01*
X144552489Y-80554947D01*
X144553167Y-80557182D01*
X144554000Y-80565640D01*
X144554000Y-80828360D01*
X144553167Y-80836818D01*
X144552489Y-80839053D01*
X144551391Y-80841107D01*
X144549911Y-80842911D01*
X144540817Y-80850374D01*
X144523490Y-80867701D01*
X144509877Y-80888076D01*
X144500499Y-80910715D01*
X144495719Y-80934749D01*
X144495719Y-80959253D01*
X144500500Y-80983286D01*
X144509877Y-81005925D01*
X144523491Y-81026300D01*
X144540817Y-81043626D01*
X144549911Y-81051089D01*
X144551391Y-81052893D01*
X144552489Y-81054947D01*
X144553167Y-81057182D01*
X144554000Y-81065640D01*
X144554000Y-81328360D01*
X144553167Y-81336818D01*
X144552489Y-81339053D01*
X144551391Y-81341107D01*
X144549911Y-81342911D01*
X144540817Y-81350374D01*
X144523490Y-81367701D01*
X144509877Y-81388076D01*
X144500499Y-81410715D01*
X144495719Y-81434749D01*
X144495719Y-81459253D01*
X144500500Y-81483286D01*
X144509877Y-81505925D01*
X144523491Y-81526300D01*
X144540817Y-81543626D01*
X144549911Y-81551089D01*
X144551391Y-81552893D01*
X144552489Y-81554947D01*
X144553167Y-81557182D01*
X144554000Y-81565640D01*
X144554000Y-81828360D01*
X144553167Y-81836818D01*
X144552489Y-81839053D01*
X144551391Y-81841107D01*
X144549911Y-81842911D01*
X144540817Y-81850374D01*
X144523490Y-81867701D01*
X144509877Y-81888076D01*
X144500499Y-81910715D01*
X144495719Y-81934749D01*
X144495719Y-81959253D01*
X144500500Y-81983286D01*
X144509877Y-82005925D01*
X144523491Y-82026300D01*
X144540817Y-82043626D01*
X144549911Y-82051089D01*
X144551391Y-82052893D01*
X144552489Y-82054947D01*
X144553167Y-82057182D01*
X144554000Y-82065640D01*
X144554000Y-82328360D01*
X144553167Y-82336818D01*
X144552489Y-82339053D01*
X144551391Y-82341107D01*
X144549911Y-82342911D01*
X144540817Y-82350374D01*
X144523490Y-82367701D01*
X144509877Y-82388076D01*
X144500499Y-82410715D01*
X144495719Y-82434749D01*
X144495719Y-82459253D01*
X144500500Y-82483286D01*
X144509877Y-82505925D01*
X144523491Y-82526300D01*
X144540817Y-82543626D01*
X144549911Y-82551089D01*
X144551391Y-82552893D01*
X144552489Y-82554947D01*
X144553167Y-82557182D01*
X144554000Y-82565640D01*
X144554000Y-82828360D01*
X144553167Y-82836818D01*
X144552489Y-82839053D01*
X144551391Y-82841107D01*
X144549911Y-82842911D01*
X144540817Y-82850374D01*
X144523490Y-82867701D01*
X144509877Y-82888076D01*
X144500499Y-82910715D01*
X144495719Y-82934749D01*
X144495719Y-82959253D01*
X144500500Y-82983286D01*
X144509877Y-83005925D01*
X144523491Y-83026300D01*
X144540817Y-83043626D01*
X144549911Y-83051089D01*
X144551391Y-83052893D01*
X144552489Y-83054947D01*
X144553167Y-83057182D01*
X144554000Y-83065640D01*
X144554000Y-83328360D01*
X144553167Y-83336818D01*
X144552489Y-83339053D01*
X144551391Y-83341107D01*
X144549911Y-83342911D01*
X144540817Y-83350374D01*
X144523490Y-83367701D01*
X144509877Y-83388076D01*
X144500499Y-83410715D01*
X144495719Y-83434749D01*
X144495719Y-83459253D01*
X144500500Y-83483286D01*
X144509877Y-83505925D01*
X144523491Y-83526300D01*
X144540817Y-83543626D01*
X144549911Y-83551089D01*
X144551391Y-83552893D01*
X144552489Y-83554947D01*
X144553167Y-83557182D01*
X144554000Y-83565640D01*
X144554000Y-83828360D01*
X144553167Y-83836818D01*
X144552489Y-83839053D01*
X144551391Y-83841107D01*
X144549911Y-83842911D01*
X144540817Y-83850374D01*
X144523490Y-83867701D01*
X144509877Y-83888076D01*
X144500499Y-83910715D01*
X144495719Y-83934749D01*
X144495719Y-83959253D01*
X144500500Y-83983286D01*
X144509877Y-84005925D01*
X144523491Y-84026300D01*
X144540817Y-84043626D01*
X144549911Y-84051089D01*
X144551391Y-84052893D01*
X144552489Y-84054947D01*
X144553167Y-84057182D01*
X144554000Y-84065640D01*
X144554000Y-84328360D01*
X144553167Y-84336818D01*
X144552489Y-84339053D01*
X144551391Y-84341107D01*
X144549911Y-84342911D01*
X144540817Y-84350374D01*
X144523490Y-84367701D01*
X144509877Y-84388076D01*
X144500499Y-84410715D01*
X144495719Y-84434749D01*
X144495719Y-84459253D01*
X144500500Y-84483286D01*
X144509877Y-84505925D01*
X144523491Y-84526300D01*
X144540817Y-84543626D01*
X144549911Y-84551089D01*
X144551391Y-84552893D01*
X144552489Y-84554947D01*
X144553167Y-84557182D01*
X144554000Y-84565640D01*
X144554000Y-84828360D01*
X144553167Y-84836818D01*
X144552489Y-84839053D01*
X144551391Y-84841107D01*
X144549911Y-84842911D01*
X144540817Y-84850374D01*
X144523490Y-84867701D01*
X144509877Y-84888076D01*
X144500499Y-84910715D01*
X144495719Y-84934749D01*
X144495719Y-84959253D01*
X144500500Y-84983286D01*
X144509877Y-85005925D01*
X144523491Y-85026300D01*
X144540817Y-85043626D01*
X144549911Y-85051089D01*
X144551391Y-85052893D01*
X144552489Y-85054947D01*
X144553167Y-85057182D01*
X144554000Y-85065640D01*
X144554000Y-85328360D01*
X144553167Y-85336818D01*
X144552489Y-85339053D01*
X144551391Y-85341107D01*
X144549911Y-85342911D01*
X144540817Y-85350374D01*
X144523490Y-85367701D01*
X144509877Y-85388076D01*
X144500499Y-85410715D01*
X144495719Y-85434749D01*
X144495719Y-85459253D01*
X144500500Y-85483286D01*
X144509877Y-85505925D01*
X144523491Y-85526300D01*
X144540817Y-85543626D01*
X144549911Y-85551089D01*
X144551391Y-85552893D01*
X144552489Y-85554947D01*
X144553167Y-85557182D01*
X144554000Y-85565640D01*
X144554000Y-85828360D01*
X144553167Y-85836818D01*
X144552489Y-85839053D01*
X144551391Y-85841107D01*
X144549911Y-85842911D01*
X144540817Y-85850374D01*
X144523490Y-85867701D01*
X144509877Y-85888076D01*
X144500499Y-85910715D01*
X144495719Y-85934749D01*
X144495719Y-85959253D01*
X144500500Y-85983286D01*
X144509877Y-86005925D01*
X144523491Y-86026300D01*
X144540817Y-86043626D01*
X144549911Y-86051089D01*
X144551391Y-86052893D01*
X144552489Y-86054947D01*
X144553167Y-86057182D01*
X144554000Y-86065640D01*
X144554000Y-86328360D01*
X144553167Y-86336818D01*
X144552489Y-86339053D01*
X144551391Y-86341107D01*
X144549911Y-86342911D01*
X144540817Y-86350374D01*
X144523490Y-86367701D01*
X144509877Y-86388076D01*
X144500499Y-86410715D01*
X144495719Y-86434749D01*
X144495719Y-86459253D01*
X144500500Y-86483286D01*
X144509877Y-86505925D01*
X144523491Y-86526300D01*
X144540817Y-86543626D01*
X144549911Y-86551089D01*
X144551391Y-86552893D01*
X144552489Y-86554947D01*
X144553167Y-86557182D01*
X144554000Y-86565640D01*
X144554000Y-86828360D01*
X144553167Y-86836818D01*
X144552489Y-86839053D01*
X144551391Y-86841107D01*
X144549911Y-86842911D01*
X144540817Y-86850374D01*
X144523490Y-86867701D01*
X144509877Y-86888076D01*
X144500499Y-86910715D01*
X144495719Y-86934749D01*
X144495719Y-86959253D01*
X144500500Y-86983286D01*
X144509877Y-87005925D01*
X144523491Y-87026300D01*
X144540817Y-87043626D01*
X144549911Y-87051089D01*
X144551391Y-87052893D01*
X144552489Y-87054947D01*
X144553167Y-87057182D01*
X144554000Y-87065640D01*
X144554000Y-87328360D01*
X144553167Y-87336818D01*
X144552489Y-87339053D01*
X144551391Y-87341107D01*
X144549911Y-87342911D01*
X144540817Y-87350374D01*
X144523490Y-87367701D01*
X144509877Y-87388076D01*
X144500499Y-87410715D01*
X144495719Y-87434749D01*
X144495719Y-87459253D01*
X144500500Y-87483286D01*
X144509877Y-87505925D01*
X144523491Y-87526300D01*
X144540817Y-87543626D01*
X144549911Y-87551089D01*
X144551391Y-87552893D01*
X144552489Y-87554947D01*
X144553167Y-87557182D01*
X144554000Y-87565640D01*
X144554000Y-87828360D01*
X144553167Y-87836818D01*
X144552489Y-87839053D01*
X144551391Y-87841107D01*
X144549911Y-87842911D01*
X144548107Y-87844391D01*
X144546053Y-87845489D01*
X144543818Y-87846167D01*
X144535360Y-87847000D01*
X143097640Y-87847000D01*
X143089182Y-87846167D01*
X143086947Y-87845489D01*
X143084893Y-87844391D01*
X143083089Y-87842911D01*
X143081609Y-87841107D01*
X143080511Y-87839053D01*
X143079833Y-87836818D01*
X143079000Y-87828360D01*
X143079000Y-87565640D01*
X143079833Y-87557182D01*
X143080511Y-87554947D01*
X143081609Y-87552893D01*
X143083089Y-87551089D01*
X143092183Y-87543626D01*
X143109510Y-87526299D01*
X143123123Y-87505924D01*
X143132501Y-87483285D01*
X143137281Y-87459251D01*
X143137281Y-87434747D01*
X143132500Y-87410714D01*
X143123123Y-87388075D01*
X143109509Y-87367700D01*
X143092183Y-87350374D01*
X143083089Y-87342911D01*
X143081609Y-87341107D01*
X143080511Y-87339053D01*
X143079833Y-87336818D01*
X143079000Y-87328360D01*
X143079000Y-87065640D01*
X143079833Y-87057182D01*
X143080511Y-87054947D01*
X143081609Y-87052893D01*
X143083089Y-87051089D01*
X143092183Y-87043626D01*
X143109510Y-87026299D01*
X143123123Y-87005924D01*
X143132501Y-86983285D01*
X143137281Y-86959251D01*
X143137281Y-86934747D01*
X143132500Y-86910714D01*
X143123123Y-86888075D01*
X143109509Y-86867700D01*
X143092183Y-86850374D01*
X143083089Y-86842911D01*
X143081609Y-86841107D01*
X143080511Y-86839053D01*
X143079833Y-86836818D01*
X143079000Y-86828360D01*
X143079000Y-86565640D01*
X143079833Y-86557182D01*
X143080511Y-86554947D01*
X143081609Y-86552893D01*
X143083089Y-86551089D01*
X143092183Y-86543626D01*
X143109510Y-86526299D01*
X143123123Y-86505924D01*
X143132501Y-86483285D01*
X143137281Y-86459251D01*
X143137281Y-86434747D01*
X143132500Y-86410714D01*
X143123123Y-86388075D01*
X143109509Y-86367700D01*
X143092183Y-86350374D01*
X143083089Y-86342911D01*
X143081609Y-86341107D01*
X143080511Y-86339053D01*
X143079833Y-86336818D01*
X143079000Y-86328360D01*
X143079000Y-86065640D01*
X143079833Y-86057182D01*
X143080511Y-86054947D01*
X143081609Y-86052893D01*
X143083089Y-86051089D01*
X143092183Y-86043626D01*
X143109510Y-86026299D01*
X143123123Y-86005924D01*
X143132501Y-85983285D01*
X143137281Y-85959251D01*
X143137281Y-85934747D01*
X143132500Y-85910714D01*
X143123123Y-85888075D01*
X143109509Y-85867700D01*
X143092183Y-85850374D01*
X143083089Y-85842911D01*
X143081609Y-85841107D01*
X143080511Y-85839053D01*
X143079833Y-85836818D01*
X143079000Y-85828360D01*
X143079000Y-85565640D01*
X143079833Y-85557182D01*
X143080511Y-85554947D01*
X143081609Y-85552893D01*
X143083089Y-85551089D01*
X143092183Y-85543626D01*
X143109510Y-85526299D01*
X143123123Y-85505924D01*
X143132501Y-85483285D01*
X143137281Y-85459251D01*
X143137281Y-85434747D01*
X143132500Y-85410714D01*
X143123123Y-85388075D01*
X143109509Y-85367700D01*
X143092183Y-85350374D01*
X143083089Y-85342911D01*
X143081609Y-85341107D01*
X143080511Y-85339053D01*
X143079833Y-85336818D01*
X143079000Y-85328360D01*
X143079000Y-85065640D01*
X143079833Y-85057182D01*
X143080511Y-85054947D01*
X143081609Y-85052893D01*
X143083089Y-85051089D01*
X143092183Y-85043626D01*
X143109510Y-85026299D01*
X143123123Y-85005924D01*
X143132501Y-84983285D01*
X143137281Y-84959251D01*
X143137281Y-84934747D01*
X143132500Y-84910714D01*
X143123123Y-84888075D01*
X143109509Y-84867700D01*
X143092183Y-84850374D01*
X143083089Y-84842911D01*
X143081609Y-84841107D01*
X143080511Y-84839053D01*
X143079833Y-84836818D01*
X143079000Y-84828360D01*
X143079000Y-84565640D01*
X143079833Y-84557182D01*
X143080511Y-84554947D01*
X143081609Y-84552893D01*
X143083089Y-84551089D01*
X143092183Y-84543626D01*
X143109510Y-84526299D01*
X143123123Y-84505924D01*
X143132501Y-84483285D01*
X143137281Y-84459251D01*
X143137281Y-84434747D01*
X143132500Y-84410714D01*
X143123123Y-84388075D01*
X143109509Y-84367700D01*
X143092183Y-84350374D01*
X143083089Y-84342911D01*
X143081609Y-84341107D01*
X143080511Y-84339053D01*
X143079833Y-84336818D01*
X143079000Y-84328360D01*
X143079000Y-84065640D01*
X143079833Y-84057182D01*
X143080511Y-84054947D01*
X143081609Y-84052893D01*
X143083089Y-84051089D01*
X143092183Y-84043626D01*
X143109510Y-84026299D01*
X143123123Y-84005924D01*
X143132501Y-83983285D01*
X143137281Y-83959251D01*
X143137281Y-83934747D01*
X143132500Y-83910714D01*
X143123123Y-83888075D01*
X143109509Y-83867700D01*
X143092183Y-83850374D01*
X143083089Y-83842911D01*
X143081609Y-83841107D01*
X143080511Y-83839053D01*
X143079833Y-83836818D01*
X143079000Y-83828360D01*
X143079000Y-83565640D01*
X143079833Y-83557182D01*
X143080511Y-83554947D01*
X143081609Y-83552893D01*
X143083089Y-83551089D01*
X143092183Y-83543626D01*
X143109510Y-83526299D01*
X143123123Y-83505924D01*
X143132501Y-83483285D01*
X143137281Y-83459251D01*
X143137281Y-83434747D01*
X143132500Y-83410714D01*
X143123123Y-83388075D01*
X143109509Y-83367700D01*
X143092183Y-83350374D01*
X143083089Y-83342911D01*
X143081609Y-83341107D01*
X143080511Y-83339053D01*
X143079833Y-83336818D01*
X143079000Y-83328360D01*
X143079000Y-83065640D01*
X143079833Y-83057182D01*
X143080511Y-83054947D01*
X143081609Y-83052893D01*
X143083089Y-83051089D01*
X143092183Y-83043626D01*
X143109510Y-83026299D01*
X143123123Y-83005924D01*
X143132501Y-82983285D01*
X143137281Y-82959251D01*
X143137281Y-82934747D01*
X143132500Y-82910714D01*
X143123123Y-82888075D01*
X143109509Y-82867700D01*
X143092183Y-82850374D01*
X143083089Y-82842911D01*
X143081609Y-82841107D01*
X143080511Y-82839053D01*
X143079833Y-82836818D01*
X143079000Y-82828360D01*
X143079000Y-82565640D01*
X143079833Y-82557182D01*
X143080511Y-82554947D01*
X143081609Y-82552893D01*
X143083089Y-82551089D01*
X143092183Y-82543626D01*
X143109510Y-82526299D01*
X143123123Y-82505924D01*
X143132501Y-82483285D01*
X143137281Y-82459251D01*
X143137281Y-82434747D01*
X143132500Y-82410714D01*
X143123123Y-82388075D01*
X143109509Y-82367700D01*
X143092183Y-82350374D01*
X143083089Y-82342911D01*
X143081609Y-82341107D01*
X143080511Y-82339053D01*
X143079833Y-82336818D01*
X143079000Y-82328360D01*
X143079000Y-82065640D01*
X143079833Y-82057182D01*
X143080511Y-82054947D01*
X143081609Y-82052893D01*
X143083089Y-82051089D01*
X143092183Y-82043626D01*
X143109510Y-82026299D01*
X143123123Y-82005924D01*
X143132501Y-81983285D01*
X143137281Y-81959251D01*
X143137281Y-81934747D01*
X143132500Y-81910714D01*
X143123123Y-81888075D01*
X143109509Y-81867700D01*
X143092183Y-81850374D01*
X143083089Y-81842911D01*
X143081609Y-81841107D01*
X143080511Y-81839053D01*
X143079833Y-81836818D01*
X143079000Y-81828360D01*
X143079000Y-81565640D01*
X143079833Y-81557182D01*
X143080511Y-81554947D01*
X143081609Y-81552893D01*
X143083089Y-81551089D01*
X143092183Y-81543626D01*
X143109510Y-81526299D01*
X143123123Y-81505924D01*
X143132501Y-81483285D01*
X143137281Y-81459251D01*
X143137281Y-81434747D01*
X143132500Y-81410714D01*
X143123123Y-81388075D01*
X143109509Y-81367700D01*
X143092183Y-81350374D01*
X143083089Y-81342911D01*
X143081609Y-81341107D01*
X143080511Y-81339053D01*
X143079833Y-81336818D01*
X143079000Y-81328360D01*
X143079000Y-81065640D01*
X143079833Y-81057182D01*
X143080511Y-81054947D01*
X143081609Y-81052893D01*
X143083089Y-81051089D01*
X143092183Y-81043626D01*
X143109510Y-81026299D01*
X143123123Y-81005924D01*
X143132501Y-80983285D01*
X143137281Y-80959251D01*
X143137281Y-80934747D01*
X143132500Y-80910714D01*
X143123123Y-80888075D01*
X143109509Y-80867700D01*
X143092183Y-80850374D01*
X143083089Y-80842911D01*
X143081609Y-80841107D01*
X143080511Y-80839053D01*
X143079833Y-80836818D01*
X143079000Y-80828360D01*
X143079000Y-80565640D01*
X143079833Y-80557182D01*
X143080511Y-80554947D01*
X143081609Y-80552893D01*
X143083089Y-80551089D01*
X143092183Y-80543626D01*
X143109510Y-80526299D01*
X143123123Y-80505924D01*
X143132501Y-80483285D01*
X143137281Y-80459251D01*
X143137281Y-80434747D01*
X143132500Y-80410714D01*
X143123123Y-80388075D01*
X143109509Y-80367700D01*
X143092183Y-80350374D01*
X143083089Y-80342911D01*
X143081609Y-80341107D01*
X143080511Y-80339053D01*
X143079833Y-80336818D01*
X143079000Y-80328360D01*
X143079000Y-80065640D01*
X143079833Y-80057182D01*
X143080511Y-80054947D01*
X143081609Y-80052893D01*
X143083089Y-80051089D01*
X143084893Y-80049609D01*
X143086947Y-80048511D01*
X143089182Y-80047833D01*
X143097640Y-80047000D01*
X144535360Y-80047000D01*
X144543818Y-80047833D01*
X144543818Y-80047833D01*
G37*
G36*
X132754630Y-85522299D02*
X132914855Y-85570903D01*
X133062520Y-85649831D01*
X133191949Y-85756051D01*
X133298169Y-85885480D01*
X133377097Y-86033145D01*
X133425701Y-86193370D01*
X133442112Y-86360000D01*
X133425701Y-86526630D01*
X133377097Y-86686855D01*
X133298169Y-86834520D01*
X133191949Y-86963949D01*
X133062520Y-87070169D01*
X132914855Y-87149097D01*
X132754630Y-87197701D01*
X132629752Y-87210000D01*
X132546248Y-87210000D01*
X132421370Y-87197701D01*
X132261145Y-87149097D01*
X132113480Y-87070169D01*
X131984051Y-86963949D01*
X131877831Y-86834520D01*
X131798903Y-86686855D01*
X131750299Y-86526630D01*
X131733888Y-86360000D01*
X131750299Y-86193370D01*
X131798903Y-86033145D01*
X131877831Y-85885480D01*
X131984051Y-85756051D01*
X132113480Y-85649831D01*
X132261145Y-85570903D01*
X132421370Y-85522299D01*
X132546248Y-85510000D01*
X132629752Y-85510000D01*
X132754630Y-85522299D01*
X132754630Y-85522299D01*
G37*
G36*
X130214630Y-85522299D02*
X130374855Y-85570903D01*
X130522520Y-85649831D01*
X130651949Y-85756051D01*
X130758169Y-85885480D01*
X130837097Y-86033145D01*
X130885701Y-86193370D01*
X130902112Y-86360000D01*
X130885701Y-86526630D01*
X130837097Y-86686855D01*
X130758169Y-86834520D01*
X130651949Y-86963949D01*
X130522520Y-87070169D01*
X130374855Y-87149097D01*
X130214630Y-87197701D01*
X130089752Y-87210000D01*
X130006248Y-87210000D01*
X129881370Y-87197701D01*
X129721145Y-87149097D01*
X129573480Y-87070169D01*
X129444051Y-86963949D01*
X129337831Y-86834520D01*
X129258903Y-86686855D01*
X129210299Y-86526630D01*
X129193888Y-86360000D01*
X129210299Y-86193370D01*
X129258903Y-86033145D01*
X129337831Y-85885480D01*
X129444051Y-85756051D01*
X129573480Y-85649831D01*
X129721145Y-85570903D01*
X129881370Y-85522299D01*
X130006248Y-85510000D01*
X130089752Y-85510000D01*
X130214630Y-85522299D01*
X130214630Y-85522299D01*
G37*
G36*
X163615630Y-85522299D02*
X163775855Y-85570903D01*
X163923520Y-85649831D01*
X164052949Y-85756051D01*
X164159169Y-85885480D01*
X164238097Y-86033145D01*
X164286701Y-86193370D01*
X164303112Y-86360000D01*
X164286701Y-86526630D01*
X164238097Y-86686855D01*
X164159169Y-86834520D01*
X164052949Y-86963949D01*
X163923520Y-87070169D01*
X163775855Y-87149097D01*
X163615630Y-87197701D01*
X163490752Y-87210000D01*
X163407248Y-87210000D01*
X163282370Y-87197701D01*
X163122145Y-87149097D01*
X162974480Y-87070169D01*
X162845051Y-86963949D01*
X162738831Y-86834520D01*
X162659903Y-86686855D01*
X162611299Y-86526630D01*
X162594888Y-86360000D01*
X162611299Y-86193370D01*
X162659903Y-86033145D01*
X162738831Y-85885480D01*
X162845051Y-85756051D01*
X162974480Y-85649831D01*
X163122145Y-85570903D01*
X163282370Y-85522299D01*
X163407248Y-85510000D01*
X163490752Y-85510000D01*
X163615630Y-85522299D01*
X163615630Y-85522299D01*
G37*
G36*
X166155630Y-85522299D02*
X166315855Y-85570903D01*
X166463520Y-85649831D01*
X166592949Y-85756051D01*
X166699169Y-85885480D01*
X166778097Y-86033145D01*
X166826701Y-86193370D01*
X166843112Y-86360000D01*
X166826701Y-86526630D01*
X166778097Y-86686855D01*
X166699169Y-86834520D01*
X166592949Y-86963949D01*
X166463520Y-87070169D01*
X166315855Y-87149097D01*
X166155630Y-87197701D01*
X166030752Y-87210000D01*
X165947248Y-87210000D01*
X165822370Y-87197701D01*
X165662145Y-87149097D01*
X165514480Y-87070169D01*
X165385051Y-86963949D01*
X165278831Y-86834520D01*
X165199903Y-86686855D01*
X165151299Y-86526630D01*
X165134888Y-86360000D01*
X165151299Y-86193370D01*
X165199903Y-86033145D01*
X165278831Y-85885480D01*
X165385051Y-85756051D01*
X165514480Y-85649831D01*
X165662145Y-85570903D01*
X165822370Y-85522299D01*
X165947248Y-85510000D01*
X166030752Y-85510000D01*
X166155630Y-85522299D01*
X166155630Y-85522299D01*
G37*
G36*
X160750116Y-85824595D02*
X160779313Y-85833452D01*
X160806218Y-85847833D01*
X160829808Y-85867192D01*
X160849167Y-85890782D01*
X160863548Y-85917687D01*
X160872405Y-85946884D01*
X160876000Y-85983390D01*
X160876000Y-86533610D01*
X160872405Y-86570116D01*
X160863548Y-86599313D01*
X160849167Y-86626218D01*
X160829808Y-86649808D01*
X160806218Y-86669167D01*
X160779313Y-86683548D01*
X160750116Y-86692405D01*
X160713610Y-86696000D01*
X160088390Y-86696000D01*
X160051884Y-86692405D01*
X160022687Y-86683548D01*
X159995782Y-86669167D01*
X159972192Y-86649808D01*
X159952833Y-86626218D01*
X159938452Y-86599313D01*
X159929595Y-86570116D01*
X159926000Y-86533610D01*
X159926000Y-85983390D01*
X159929595Y-85946884D01*
X159938452Y-85917687D01*
X159952833Y-85890782D01*
X159972192Y-85867192D01*
X159995782Y-85847833D01*
X160022687Y-85833452D01*
X160051884Y-85824595D01*
X160088390Y-85821000D01*
X160713610Y-85821000D01*
X160750116Y-85824595D01*
X160750116Y-85824595D01*
G37*
G36*
X160750116Y-84249595D02*
X160779313Y-84258452D01*
X160806218Y-84272833D01*
X160829808Y-84292192D01*
X160849167Y-84315782D01*
X160863548Y-84342687D01*
X160872405Y-84371884D01*
X160876000Y-84408390D01*
X160876000Y-84958610D01*
X160872405Y-84995116D01*
X160863548Y-85024313D01*
X160849167Y-85051218D01*
X160829808Y-85074808D01*
X160806218Y-85094167D01*
X160779313Y-85108548D01*
X160750116Y-85117405D01*
X160713610Y-85121000D01*
X160088390Y-85121000D01*
X160051884Y-85117405D01*
X160022687Y-85108548D01*
X159995782Y-85094167D01*
X159972192Y-85074808D01*
X159952833Y-85051218D01*
X159938452Y-85024313D01*
X159929595Y-84995116D01*
X159926000Y-84958610D01*
X159926000Y-84408390D01*
X159929595Y-84371884D01*
X159938452Y-84342687D01*
X159952833Y-84315782D01*
X159972192Y-84292192D01*
X159995782Y-84272833D01*
X160022687Y-84258452D01*
X160051884Y-84249595D01*
X160088390Y-84246000D01*
X160713610Y-84246000D01*
X160750116Y-84249595D01*
X160750116Y-84249595D01*
G37*
G36*
X166155630Y-82982299D02*
X166315855Y-83030903D01*
X166463520Y-83109831D01*
X166592949Y-83216051D01*
X166699169Y-83345480D01*
X166778097Y-83493145D01*
X166826701Y-83653370D01*
X166843112Y-83820000D01*
X166826701Y-83986630D01*
X166778097Y-84146855D01*
X166699169Y-84294520D01*
X166592949Y-84423949D01*
X166463520Y-84530169D01*
X166315855Y-84609097D01*
X166155630Y-84657701D01*
X166030752Y-84670000D01*
X165947248Y-84670000D01*
X165822370Y-84657701D01*
X165662145Y-84609097D01*
X165514480Y-84530169D01*
X165385051Y-84423949D01*
X165278831Y-84294520D01*
X165199903Y-84146855D01*
X165151299Y-83986630D01*
X165134888Y-83820000D01*
X165151299Y-83653370D01*
X165199903Y-83493145D01*
X165278831Y-83345480D01*
X165385051Y-83216051D01*
X165514480Y-83109831D01*
X165662145Y-83030903D01*
X165822370Y-82982299D01*
X165947248Y-82970000D01*
X166030752Y-82970000D01*
X166155630Y-82982299D01*
X166155630Y-82982299D01*
G37*
G36*
X132754630Y-82982299D02*
X132914855Y-83030903D01*
X133062520Y-83109831D01*
X133191949Y-83216051D01*
X133298169Y-83345480D01*
X133377097Y-83493145D01*
X133425701Y-83653370D01*
X133442112Y-83820000D01*
X133425701Y-83986630D01*
X133377097Y-84146855D01*
X133298169Y-84294520D01*
X133191949Y-84423949D01*
X133062520Y-84530169D01*
X132914855Y-84609097D01*
X132754630Y-84657701D01*
X132629752Y-84670000D01*
X132546248Y-84670000D01*
X132421370Y-84657701D01*
X132261145Y-84609097D01*
X132113480Y-84530169D01*
X131984051Y-84423949D01*
X131877831Y-84294520D01*
X131798903Y-84146855D01*
X131750299Y-83986630D01*
X131733888Y-83820000D01*
X131750299Y-83653370D01*
X131798903Y-83493145D01*
X131877831Y-83345480D01*
X131984051Y-83216051D01*
X132113480Y-83109831D01*
X132261145Y-83030903D01*
X132421370Y-82982299D01*
X132546248Y-82970000D01*
X132629752Y-82970000D01*
X132754630Y-82982299D01*
X132754630Y-82982299D01*
G37*
G36*
X130214630Y-82982299D02*
X130374855Y-83030903D01*
X130522520Y-83109831D01*
X130651949Y-83216051D01*
X130758169Y-83345480D01*
X130837097Y-83493145D01*
X130885701Y-83653370D01*
X130902112Y-83820000D01*
X130885701Y-83986630D01*
X130837097Y-84146855D01*
X130758169Y-84294520D01*
X130651949Y-84423949D01*
X130522520Y-84530169D01*
X130374855Y-84609097D01*
X130214630Y-84657701D01*
X130089752Y-84670000D01*
X130006248Y-84670000D01*
X129881370Y-84657701D01*
X129721145Y-84609097D01*
X129573480Y-84530169D01*
X129444051Y-84423949D01*
X129337831Y-84294520D01*
X129258903Y-84146855D01*
X129210299Y-83986630D01*
X129193888Y-83820000D01*
X129210299Y-83653370D01*
X129258903Y-83493145D01*
X129337831Y-83345480D01*
X129444051Y-83216051D01*
X129573480Y-83109831D01*
X129721145Y-83030903D01*
X129881370Y-82982299D01*
X130006248Y-82970000D01*
X130089752Y-82970000D01*
X130214630Y-82982299D01*
X130214630Y-82982299D01*
G37*
G36*
X163615630Y-82982299D02*
X163775855Y-83030903D01*
X163923520Y-83109831D01*
X164052949Y-83216051D01*
X164159169Y-83345480D01*
X164238097Y-83493145D01*
X164286701Y-83653370D01*
X164303112Y-83820000D01*
X164286701Y-83986630D01*
X164238097Y-84146855D01*
X164159169Y-84294520D01*
X164052949Y-84423949D01*
X163923520Y-84530169D01*
X163775855Y-84609097D01*
X163615630Y-84657701D01*
X163490752Y-84670000D01*
X163407248Y-84670000D01*
X163282370Y-84657701D01*
X163122145Y-84609097D01*
X162974480Y-84530169D01*
X162845051Y-84423949D01*
X162738831Y-84294520D01*
X162659903Y-84146855D01*
X162611299Y-83986630D01*
X162594888Y-83820000D01*
X162611299Y-83653370D01*
X162659903Y-83493145D01*
X162738831Y-83345480D01*
X162845051Y-83216051D01*
X162974480Y-83109831D01*
X163122145Y-83030903D01*
X163282370Y-82982299D01*
X163407248Y-82970000D01*
X163490752Y-82970000D01*
X163615630Y-82982299D01*
X163615630Y-82982299D01*
G37*
G36*
X132754630Y-80442299D02*
X132914855Y-80490903D01*
X133062520Y-80569831D01*
X133191949Y-80676051D01*
X133298169Y-80805480D01*
X133377097Y-80953145D01*
X133425701Y-81113370D01*
X133442112Y-81280000D01*
X133425701Y-81446630D01*
X133377097Y-81606855D01*
X133298169Y-81754520D01*
X133191949Y-81883949D01*
X133062520Y-81990169D01*
X132914855Y-82069097D01*
X132754630Y-82117701D01*
X132629752Y-82130000D01*
X132546248Y-82130000D01*
X132421370Y-82117701D01*
X132261145Y-82069097D01*
X132113480Y-81990169D01*
X131984051Y-81883949D01*
X131877831Y-81754520D01*
X131798903Y-81606855D01*
X131750299Y-81446630D01*
X131733888Y-81280000D01*
X131750299Y-81113370D01*
X131798903Y-80953145D01*
X131877831Y-80805480D01*
X131984051Y-80676051D01*
X132113480Y-80569831D01*
X132261145Y-80490903D01*
X132421370Y-80442299D01*
X132546248Y-80430000D01*
X132629752Y-80430000D01*
X132754630Y-80442299D01*
X132754630Y-80442299D01*
G37*
G36*
X130214630Y-80442299D02*
X130374855Y-80490903D01*
X130522520Y-80569831D01*
X130651949Y-80676051D01*
X130758169Y-80805480D01*
X130837097Y-80953145D01*
X130885701Y-81113370D01*
X130902112Y-81280000D01*
X130885701Y-81446630D01*
X130837097Y-81606855D01*
X130758169Y-81754520D01*
X130651949Y-81883949D01*
X130522520Y-81990169D01*
X130374855Y-82069097D01*
X130214630Y-82117701D01*
X130089752Y-82130000D01*
X130006248Y-82130000D01*
X129881370Y-82117701D01*
X129721145Y-82069097D01*
X129573480Y-81990169D01*
X129444051Y-81883949D01*
X129337831Y-81754520D01*
X129258903Y-81606855D01*
X129210299Y-81446630D01*
X129193888Y-81280000D01*
X129210299Y-81113370D01*
X129258903Y-80953145D01*
X129337831Y-80805480D01*
X129444051Y-80676051D01*
X129573480Y-80569831D01*
X129721145Y-80490903D01*
X129881370Y-80442299D01*
X130006248Y-80430000D01*
X130089752Y-80430000D01*
X130214630Y-80442299D01*
X130214630Y-80442299D01*
G37*
G36*
X163615630Y-80442299D02*
X163775855Y-80490903D01*
X163923520Y-80569831D01*
X164052949Y-80676051D01*
X164159169Y-80805480D01*
X164238097Y-80953145D01*
X164286701Y-81113370D01*
X164303112Y-81280000D01*
X164286701Y-81446630D01*
X164238097Y-81606855D01*
X164159169Y-81754520D01*
X164052949Y-81883949D01*
X163923520Y-81990169D01*
X163775855Y-82069097D01*
X163615630Y-82117701D01*
X163490752Y-82130000D01*
X163407248Y-82130000D01*
X163282370Y-82117701D01*
X163122145Y-82069097D01*
X162974480Y-81990169D01*
X162845051Y-81883949D01*
X162738831Y-81754520D01*
X162659903Y-81606855D01*
X162611299Y-81446630D01*
X162594888Y-81280000D01*
X162611299Y-81113370D01*
X162659903Y-80953145D01*
X162738831Y-80805480D01*
X162845051Y-80676051D01*
X162974480Y-80569831D01*
X163122145Y-80490903D01*
X163282370Y-80442299D01*
X163407248Y-80430000D01*
X163490752Y-80430000D01*
X163615630Y-80442299D01*
X163615630Y-80442299D01*
G37*
G36*
X166155630Y-80442299D02*
X166315855Y-80490903D01*
X166463520Y-80569831D01*
X166592949Y-80676051D01*
X166699169Y-80805480D01*
X166778097Y-80953145D01*
X166826701Y-81113370D01*
X166843112Y-81280000D01*
X166826701Y-81446630D01*
X166778097Y-81606855D01*
X166699169Y-81754520D01*
X166592949Y-81883949D01*
X166463520Y-81990169D01*
X166315855Y-82069097D01*
X166155630Y-82117701D01*
X166030752Y-82130000D01*
X165947248Y-82130000D01*
X165822370Y-82117701D01*
X165662145Y-82069097D01*
X165514480Y-81990169D01*
X165385051Y-81883949D01*
X165278831Y-81754520D01*
X165199903Y-81606855D01*
X165151299Y-81446630D01*
X165134888Y-81280000D01*
X165151299Y-81113370D01*
X165199903Y-80953145D01*
X165278831Y-80805480D01*
X165385051Y-80676051D01*
X165514480Y-80569831D01*
X165662145Y-80490903D01*
X165822370Y-80442299D01*
X165947248Y-80430000D01*
X166030752Y-80430000D01*
X166155630Y-80442299D01*
X166155630Y-80442299D01*
G37*
G36*
X166155630Y-77902299D02*
X166315855Y-77950903D01*
X166463520Y-78029831D01*
X166592949Y-78136051D01*
X166699169Y-78265480D01*
X166778097Y-78413145D01*
X166826701Y-78573370D01*
X166843112Y-78740000D01*
X166826701Y-78906630D01*
X166778097Y-79066855D01*
X166699169Y-79214520D01*
X166592949Y-79343949D01*
X166463520Y-79450169D01*
X166315855Y-79529097D01*
X166155630Y-79577701D01*
X166030752Y-79590000D01*
X165947248Y-79590000D01*
X165822370Y-79577701D01*
X165662145Y-79529097D01*
X165514480Y-79450169D01*
X165385051Y-79343949D01*
X165278831Y-79214520D01*
X165199903Y-79066855D01*
X165151299Y-78906630D01*
X165134888Y-78740000D01*
X165151299Y-78573370D01*
X165199903Y-78413145D01*
X165278831Y-78265480D01*
X165385051Y-78136051D01*
X165514480Y-78029831D01*
X165662145Y-77950903D01*
X165822370Y-77902299D01*
X165947248Y-77890000D01*
X166030752Y-77890000D01*
X166155630Y-77902299D01*
X166155630Y-77902299D01*
G37*
G36*
X130214630Y-77902299D02*
X130374855Y-77950903D01*
X130522520Y-78029831D01*
X130651949Y-78136051D01*
X130758169Y-78265480D01*
X130837097Y-78413145D01*
X130885701Y-78573370D01*
X130902112Y-78740000D01*
X130885701Y-78906630D01*
X130837097Y-79066855D01*
X130758169Y-79214520D01*
X130651949Y-79343949D01*
X130522520Y-79450169D01*
X130374855Y-79529097D01*
X130214630Y-79577701D01*
X130089752Y-79590000D01*
X130006248Y-79590000D01*
X129881370Y-79577701D01*
X129721145Y-79529097D01*
X129573480Y-79450169D01*
X129444051Y-79343949D01*
X129337831Y-79214520D01*
X129258903Y-79066855D01*
X129210299Y-78906630D01*
X129193888Y-78740000D01*
X129210299Y-78573370D01*
X129258903Y-78413145D01*
X129337831Y-78265480D01*
X129444051Y-78136051D01*
X129573480Y-78029831D01*
X129721145Y-77950903D01*
X129881370Y-77902299D01*
X130006248Y-77890000D01*
X130089752Y-77890000D01*
X130214630Y-77902299D01*
X130214630Y-77902299D01*
G37*
G36*
X163615630Y-77902299D02*
X163775855Y-77950903D01*
X163923520Y-78029831D01*
X164052949Y-78136051D01*
X164159169Y-78265480D01*
X164238097Y-78413145D01*
X164286701Y-78573370D01*
X164303112Y-78740000D01*
X164286701Y-78906630D01*
X164238097Y-79066855D01*
X164159169Y-79214520D01*
X164052949Y-79343949D01*
X163923520Y-79450169D01*
X163775855Y-79529097D01*
X163615630Y-79577701D01*
X163490752Y-79590000D01*
X163407248Y-79590000D01*
X163282370Y-79577701D01*
X163122145Y-79529097D01*
X162974480Y-79450169D01*
X162845051Y-79343949D01*
X162738831Y-79214520D01*
X162659903Y-79066855D01*
X162611299Y-78906630D01*
X162594888Y-78740000D01*
X162611299Y-78573370D01*
X162659903Y-78413145D01*
X162738831Y-78265480D01*
X162845051Y-78136051D01*
X162974480Y-78029831D01*
X163122145Y-77950903D01*
X163282370Y-77902299D01*
X163407248Y-77890000D01*
X163490752Y-77890000D01*
X163615630Y-77902299D01*
X163615630Y-77902299D01*
G37*
G36*
X132754630Y-77902299D02*
X132914855Y-77950903D01*
X133062520Y-78029831D01*
X133191949Y-78136051D01*
X133298169Y-78265480D01*
X133377097Y-78413145D01*
X133425701Y-78573370D01*
X133442112Y-78740000D01*
X133425701Y-78906630D01*
X133377097Y-79066855D01*
X133298169Y-79214520D01*
X133191949Y-79343949D01*
X133062520Y-79450169D01*
X132914855Y-79529097D01*
X132754630Y-79577701D01*
X132629752Y-79590000D01*
X132546248Y-79590000D01*
X132421370Y-79577701D01*
X132261145Y-79529097D01*
X132113480Y-79450169D01*
X131984051Y-79343949D01*
X131877831Y-79214520D01*
X131798903Y-79066855D01*
X131750299Y-78906630D01*
X131733888Y-78740000D01*
X131750299Y-78573370D01*
X131798903Y-78413145D01*
X131877831Y-78265480D01*
X131984051Y-78136051D01*
X132113480Y-78029831D01*
X132261145Y-77950903D01*
X132421370Y-77902299D01*
X132546248Y-77890000D01*
X132629752Y-77890000D01*
X132754630Y-77902299D01*
X132754630Y-77902299D01*
G37*
G36*
X145868818Y-77547833D02*
X145871053Y-77548511D01*
X145873107Y-77549609D01*
X145874911Y-77551089D01*
X145882374Y-77560183D01*
X145899701Y-77577510D01*
X145920076Y-77591123D01*
X145942715Y-77600501D01*
X145966749Y-77605281D01*
X145991253Y-77605281D01*
X146015286Y-77600500D01*
X146037925Y-77591123D01*
X146058300Y-77577509D01*
X146075626Y-77560183D01*
X146083089Y-77551089D01*
X146084893Y-77549609D01*
X146086947Y-77548511D01*
X146089182Y-77547833D01*
X146097640Y-77547000D01*
X146360360Y-77547000D01*
X146368818Y-77547833D01*
X146371053Y-77548511D01*
X146373107Y-77549609D01*
X146374911Y-77551089D01*
X146382374Y-77560183D01*
X146399701Y-77577510D01*
X146420076Y-77591123D01*
X146442715Y-77600501D01*
X146466749Y-77605281D01*
X146491253Y-77605281D01*
X146515286Y-77600500D01*
X146537925Y-77591123D01*
X146558300Y-77577509D01*
X146575626Y-77560183D01*
X146583089Y-77551089D01*
X146584893Y-77549609D01*
X146586947Y-77548511D01*
X146589182Y-77547833D01*
X146597640Y-77547000D01*
X146860360Y-77547000D01*
X146868818Y-77547833D01*
X146871053Y-77548511D01*
X146873107Y-77549609D01*
X146874911Y-77551089D01*
X146882374Y-77560183D01*
X146899701Y-77577510D01*
X146920076Y-77591123D01*
X146942715Y-77600501D01*
X146966749Y-77605281D01*
X146991253Y-77605281D01*
X147015286Y-77600500D01*
X147037925Y-77591123D01*
X147058300Y-77577509D01*
X147075626Y-77560183D01*
X147083089Y-77551089D01*
X147084893Y-77549609D01*
X147086947Y-77548511D01*
X147089182Y-77547833D01*
X147097640Y-77547000D01*
X147360360Y-77547000D01*
X147368818Y-77547833D01*
X147371053Y-77548511D01*
X147373107Y-77549609D01*
X147374911Y-77551089D01*
X147382374Y-77560183D01*
X147399701Y-77577510D01*
X147420076Y-77591123D01*
X147442715Y-77600501D01*
X147466749Y-77605281D01*
X147491253Y-77605281D01*
X147515286Y-77600500D01*
X147537925Y-77591123D01*
X147558300Y-77577509D01*
X147575626Y-77560183D01*
X147583089Y-77551089D01*
X147584893Y-77549609D01*
X147586947Y-77548511D01*
X147589182Y-77547833D01*
X147597640Y-77547000D01*
X147860360Y-77547000D01*
X147868818Y-77547833D01*
X147871053Y-77548511D01*
X147873107Y-77549609D01*
X147874911Y-77551089D01*
X147882374Y-77560183D01*
X147899701Y-77577510D01*
X147920076Y-77591123D01*
X147942715Y-77600501D01*
X147966749Y-77605281D01*
X147991253Y-77605281D01*
X148015286Y-77600500D01*
X148037925Y-77591123D01*
X148058300Y-77577509D01*
X148075626Y-77560183D01*
X148083089Y-77551089D01*
X148084893Y-77549609D01*
X148086947Y-77548511D01*
X148089182Y-77547833D01*
X148097640Y-77547000D01*
X148360360Y-77547000D01*
X148368818Y-77547833D01*
X148371053Y-77548511D01*
X148373107Y-77549609D01*
X148374911Y-77551089D01*
X148382374Y-77560183D01*
X148399701Y-77577510D01*
X148420076Y-77591123D01*
X148442715Y-77600501D01*
X148466749Y-77605281D01*
X148491253Y-77605281D01*
X148515286Y-77600500D01*
X148537925Y-77591123D01*
X148558300Y-77577509D01*
X148575626Y-77560183D01*
X148583089Y-77551089D01*
X148584893Y-77549609D01*
X148586947Y-77548511D01*
X148589182Y-77547833D01*
X148597640Y-77547000D01*
X148860360Y-77547000D01*
X148868818Y-77547833D01*
X148871053Y-77548511D01*
X148873107Y-77549609D01*
X148874911Y-77551089D01*
X148882374Y-77560183D01*
X148899701Y-77577510D01*
X148920076Y-77591123D01*
X148942715Y-77600501D01*
X148966749Y-77605281D01*
X148991253Y-77605281D01*
X149015286Y-77600500D01*
X149037925Y-77591123D01*
X149058300Y-77577509D01*
X149075626Y-77560183D01*
X149083089Y-77551089D01*
X149084893Y-77549609D01*
X149086947Y-77548511D01*
X149089182Y-77547833D01*
X149097640Y-77547000D01*
X149360360Y-77547000D01*
X149368818Y-77547833D01*
X149371053Y-77548511D01*
X149373107Y-77549609D01*
X149374911Y-77551089D01*
X149382374Y-77560183D01*
X149399701Y-77577510D01*
X149420076Y-77591123D01*
X149442715Y-77600501D01*
X149466749Y-77605281D01*
X149491253Y-77605281D01*
X149515286Y-77600500D01*
X149537925Y-77591123D01*
X149558300Y-77577509D01*
X149575626Y-77560183D01*
X149583089Y-77551089D01*
X149584893Y-77549609D01*
X149586947Y-77548511D01*
X149589182Y-77547833D01*
X149597640Y-77547000D01*
X149860360Y-77547000D01*
X149868818Y-77547833D01*
X149871053Y-77548511D01*
X149873107Y-77549609D01*
X149874911Y-77551089D01*
X149882374Y-77560183D01*
X149899701Y-77577510D01*
X149920076Y-77591123D01*
X149942715Y-77600501D01*
X149966749Y-77605281D01*
X149991253Y-77605281D01*
X150015286Y-77600500D01*
X150037925Y-77591123D01*
X150058300Y-77577509D01*
X150075626Y-77560183D01*
X150083089Y-77551089D01*
X150084893Y-77549609D01*
X150086947Y-77548511D01*
X150089182Y-77547833D01*
X150097640Y-77547000D01*
X150360360Y-77547000D01*
X150368818Y-77547833D01*
X150371053Y-77548511D01*
X150373107Y-77549609D01*
X150374911Y-77551089D01*
X150382374Y-77560183D01*
X150399701Y-77577510D01*
X150420076Y-77591123D01*
X150442715Y-77600501D01*
X150466749Y-77605281D01*
X150491253Y-77605281D01*
X150515286Y-77600500D01*
X150537925Y-77591123D01*
X150558300Y-77577509D01*
X150575626Y-77560183D01*
X150583089Y-77551089D01*
X150584893Y-77549609D01*
X150586947Y-77548511D01*
X150589182Y-77547833D01*
X150597640Y-77547000D01*
X150860360Y-77547000D01*
X150868818Y-77547833D01*
X150871053Y-77548511D01*
X150873107Y-77549609D01*
X150874911Y-77551089D01*
X150882374Y-77560183D01*
X150899701Y-77577510D01*
X150920076Y-77591123D01*
X150942715Y-77600501D01*
X150966749Y-77605281D01*
X150991253Y-77605281D01*
X151015286Y-77600500D01*
X151037925Y-77591123D01*
X151058300Y-77577509D01*
X151075626Y-77560183D01*
X151083089Y-77551089D01*
X151084893Y-77549609D01*
X151086947Y-77548511D01*
X151089182Y-77547833D01*
X151097640Y-77547000D01*
X151360360Y-77547000D01*
X151368818Y-77547833D01*
X151371053Y-77548511D01*
X151373107Y-77549609D01*
X151374911Y-77551089D01*
X151382374Y-77560183D01*
X151399701Y-77577510D01*
X151420076Y-77591123D01*
X151442715Y-77600501D01*
X151466749Y-77605281D01*
X151491253Y-77605281D01*
X151515286Y-77600500D01*
X151537925Y-77591123D01*
X151558300Y-77577509D01*
X151575626Y-77560183D01*
X151583089Y-77551089D01*
X151584893Y-77549609D01*
X151586947Y-77548511D01*
X151589182Y-77547833D01*
X151597640Y-77547000D01*
X151860360Y-77547000D01*
X151868818Y-77547833D01*
X151871053Y-77548511D01*
X151873107Y-77549609D01*
X151874911Y-77551089D01*
X151882374Y-77560183D01*
X151899701Y-77577510D01*
X151920076Y-77591123D01*
X151942715Y-77600501D01*
X151966749Y-77605281D01*
X151991253Y-77605281D01*
X152015286Y-77600500D01*
X152037925Y-77591123D01*
X152058300Y-77577509D01*
X152075626Y-77560183D01*
X152083089Y-77551089D01*
X152084893Y-77549609D01*
X152086947Y-77548511D01*
X152089182Y-77547833D01*
X152097640Y-77547000D01*
X152360360Y-77547000D01*
X152368818Y-77547833D01*
X152371053Y-77548511D01*
X152373107Y-77549609D01*
X152374911Y-77551089D01*
X152382374Y-77560183D01*
X152399701Y-77577510D01*
X152420076Y-77591123D01*
X152442715Y-77600501D01*
X152466749Y-77605281D01*
X152491253Y-77605281D01*
X152515286Y-77600500D01*
X152537925Y-77591123D01*
X152558300Y-77577509D01*
X152575626Y-77560183D01*
X152583089Y-77551089D01*
X152584893Y-77549609D01*
X152586947Y-77548511D01*
X152589182Y-77547833D01*
X152597640Y-77547000D01*
X152860360Y-77547000D01*
X152868818Y-77547833D01*
X152871053Y-77548511D01*
X152873107Y-77549609D01*
X152874911Y-77551089D01*
X152882374Y-77560183D01*
X152899701Y-77577510D01*
X152920076Y-77591123D01*
X152942715Y-77600501D01*
X152966749Y-77605281D01*
X152991253Y-77605281D01*
X153015286Y-77600500D01*
X153037925Y-77591123D01*
X153058300Y-77577509D01*
X153075626Y-77560183D01*
X153083089Y-77551089D01*
X153084893Y-77549609D01*
X153086947Y-77548511D01*
X153089182Y-77547833D01*
X153097640Y-77547000D01*
X153360360Y-77547000D01*
X153368818Y-77547833D01*
X153371053Y-77548511D01*
X153373107Y-77549609D01*
X153374911Y-77551089D01*
X153376391Y-77552893D01*
X153377489Y-77554947D01*
X153378167Y-77557182D01*
X153379000Y-77565640D01*
X153379000Y-79003360D01*
X153378167Y-79011818D01*
X153377489Y-79014053D01*
X153376391Y-79016107D01*
X153374911Y-79017911D01*
X153373107Y-79019391D01*
X153371053Y-79020489D01*
X153368818Y-79021167D01*
X153360360Y-79022000D01*
X153097640Y-79022000D01*
X153089182Y-79021167D01*
X153086947Y-79020489D01*
X153084893Y-79019391D01*
X153083089Y-79017911D01*
X153075626Y-79008817D01*
X153058299Y-78991490D01*
X153037924Y-78977877D01*
X153015285Y-78968499D01*
X152991251Y-78963719D01*
X152966747Y-78963719D01*
X152942714Y-78968500D01*
X152920075Y-78977877D01*
X152899700Y-78991491D01*
X152882374Y-79008817D01*
X152874911Y-79017911D01*
X152873107Y-79019391D01*
X152871053Y-79020489D01*
X152868818Y-79021167D01*
X152860360Y-79022000D01*
X152597640Y-79022000D01*
X152589182Y-79021167D01*
X152586947Y-79020489D01*
X152584893Y-79019391D01*
X152583089Y-79017911D01*
X152575626Y-79008817D01*
X152558299Y-78991490D01*
X152537924Y-78977877D01*
X152515285Y-78968499D01*
X152491251Y-78963719D01*
X152466747Y-78963719D01*
X152442714Y-78968500D01*
X152420075Y-78977877D01*
X152399700Y-78991491D01*
X152382374Y-79008817D01*
X152374911Y-79017911D01*
X152373107Y-79019391D01*
X152371053Y-79020489D01*
X152368818Y-79021167D01*
X152360360Y-79022000D01*
X152097640Y-79022000D01*
X152089182Y-79021167D01*
X152086947Y-79020489D01*
X152084893Y-79019391D01*
X152083089Y-79017911D01*
X152075626Y-79008817D01*
X152058299Y-78991490D01*
X152037924Y-78977877D01*
X152015285Y-78968499D01*
X151991251Y-78963719D01*
X151966747Y-78963719D01*
X151942714Y-78968500D01*
X151920075Y-78977877D01*
X151899700Y-78991491D01*
X151882374Y-79008817D01*
X151874911Y-79017911D01*
X151873107Y-79019391D01*
X151871053Y-79020489D01*
X151868818Y-79021167D01*
X151860360Y-79022000D01*
X151597640Y-79022000D01*
X151589182Y-79021167D01*
X151586947Y-79020489D01*
X151584893Y-79019391D01*
X151583089Y-79017911D01*
X151575626Y-79008817D01*
X151558299Y-78991490D01*
X151537924Y-78977877D01*
X151515285Y-78968499D01*
X151491251Y-78963719D01*
X151466747Y-78963719D01*
X151442714Y-78968500D01*
X151420075Y-78977877D01*
X151399700Y-78991491D01*
X151382374Y-79008817D01*
X151374911Y-79017911D01*
X151373107Y-79019391D01*
X151371053Y-79020489D01*
X151368818Y-79021167D01*
X151360360Y-79022000D01*
X151097640Y-79022000D01*
X151089182Y-79021167D01*
X151086947Y-79020489D01*
X151084893Y-79019391D01*
X151083089Y-79017911D01*
X151075626Y-79008817D01*
X151058299Y-78991490D01*
X151037924Y-78977877D01*
X151015285Y-78968499D01*
X150991251Y-78963719D01*
X150966747Y-78963719D01*
X150942714Y-78968500D01*
X150920075Y-78977877D01*
X150899700Y-78991491D01*
X150882374Y-79008817D01*
X150874911Y-79017911D01*
X150873107Y-79019391D01*
X150871053Y-79020489D01*
X150868818Y-79021167D01*
X150860360Y-79022000D01*
X150597640Y-79022000D01*
X150589182Y-79021167D01*
X150586947Y-79020489D01*
X150584893Y-79019391D01*
X150583089Y-79017911D01*
X150575626Y-79008817D01*
X150558299Y-78991490D01*
X150537924Y-78977877D01*
X150515285Y-78968499D01*
X150491251Y-78963719D01*
X150466747Y-78963719D01*
X150442714Y-78968500D01*
X150420075Y-78977877D01*
X150399700Y-78991491D01*
X150382374Y-79008817D01*
X150374911Y-79017911D01*
X150373107Y-79019391D01*
X150371053Y-79020489D01*
X150368818Y-79021167D01*
X150360360Y-79022000D01*
X150097640Y-79022000D01*
X150089182Y-79021167D01*
X150086947Y-79020489D01*
X150084893Y-79019391D01*
X150083089Y-79017911D01*
X150075626Y-79008817D01*
X150058299Y-78991490D01*
X150037924Y-78977877D01*
X150015285Y-78968499D01*
X149991251Y-78963719D01*
X149966747Y-78963719D01*
X149942714Y-78968500D01*
X149920075Y-78977877D01*
X149899700Y-78991491D01*
X149882374Y-79008817D01*
X149874911Y-79017911D01*
X149873107Y-79019391D01*
X149871053Y-79020489D01*
X149868818Y-79021167D01*
X149860360Y-79022000D01*
X149597640Y-79022000D01*
X149589182Y-79021167D01*
X149586947Y-79020489D01*
X149584893Y-79019391D01*
X149583089Y-79017911D01*
X149575626Y-79008817D01*
X149558299Y-78991490D01*
X149537924Y-78977877D01*
X149515285Y-78968499D01*
X149491251Y-78963719D01*
X149466747Y-78963719D01*
X149442714Y-78968500D01*
X149420075Y-78977877D01*
X149399700Y-78991491D01*
X149382374Y-79008817D01*
X149374911Y-79017911D01*
X149373107Y-79019391D01*
X149371053Y-79020489D01*
X149368818Y-79021167D01*
X149360360Y-79022000D01*
X149097640Y-79022000D01*
X149089182Y-79021167D01*
X149086947Y-79020489D01*
X149084893Y-79019391D01*
X149083089Y-79017911D01*
X149075626Y-79008817D01*
X149058299Y-78991490D01*
X149037924Y-78977877D01*
X149015285Y-78968499D01*
X148991251Y-78963719D01*
X148966747Y-78963719D01*
X148942714Y-78968500D01*
X148920075Y-78977877D01*
X148899700Y-78991491D01*
X148882374Y-79008817D01*
X148874911Y-79017911D01*
X148873107Y-79019391D01*
X148871053Y-79020489D01*
X148868818Y-79021167D01*
X148860360Y-79022000D01*
X148597640Y-79022000D01*
X148589182Y-79021167D01*
X148586947Y-79020489D01*
X148584893Y-79019391D01*
X148583089Y-79017911D01*
X148575626Y-79008817D01*
X148558299Y-78991490D01*
X148537924Y-78977877D01*
X148515285Y-78968499D01*
X148491251Y-78963719D01*
X148466747Y-78963719D01*
X148442714Y-78968500D01*
X148420075Y-78977877D01*
X148399700Y-78991491D01*
X148382374Y-79008817D01*
X148374911Y-79017911D01*
X148373107Y-79019391D01*
X148371053Y-79020489D01*
X148368818Y-79021167D01*
X148360360Y-79022000D01*
X148097640Y-79022000D01*
X148089182Y-79021167D01*
X148086947Y-79020489D01*
X148084893Y-79019391D01*
X148083089Y-79017911D01*
X148075626Y-79008817D01*
X148058299Y-78991490D01*
X148037924Y-78977877D01*
X148015285Y-78968499D01*
X147991251Y-78963719D01*
X147966747Y-78963719D01*
X147942714Y-78968500D01*
X147920075Y-78977877D01*
X147899700Y-78991491D01*
X147882374Y-79008817D01*
X147874911Y-79017911D01*
X147873107Y-79019391D01*
X147871053Y-79020489D01*
X147868818Y-79021167D01*
X147860360Y-79022000D01*
X147597640Y-79022000D01*
X147589182Y-79021167D01*
X147586947Y-79020489D01*
X147584893Y-79019391D01*
X147583089Y-79017911D01*
X147575626Y-79008817D01*
X147558299Y-78991490D01*
X147537924Y-78977877D01*
X147515285Y-78968499D01*
X147491251Y-78963719D01*
X147466747Y-78963719D01*
X147442714Y-78968500D01*
X147420075Y-78977877D01*
X147399700Y-78991491D01*
X147382374Y-79008817D01*
X147374911Y-79017911D01*
X147373107Y-79019391D01*
X147371053Y-79020489D01*
X147368818Y-79021167D01*
X147360360Y-79022000D01*
X147097640Y-79022000D01*
X147089182Y-79021167D01*
X147086947Y-79020489D01*
X147084893Y-79019391D01*
X147083089Y-79017911D01*
X147075626Y-79008817D01*
X147058299Y-78991490D01*
X147037924Y-78977877D01*
X147015285Y-78968499D01*
X146991251Y-78963719D01*
X146966747Y-78963719D01*
X146942714Y-78968500D01*
X146920075Y-78977877D01*
X146899700Y-78991491D01*
X146882374Y-79008817D01*
X146874911Y-79017911D01*
X146873107Y-79019391D01*
X146871053Y-79020489D01*
X146868818Y-79021167D01*
X146860360Y-79022000D01*
X146597640Y-79022000D01*
X146589182Y-79021167D01*
X146586947Y-79020489D01*
X146584893Y-79019391D01*
X146583089Y-79017911D01*
X146575626Y-79008817D01*
X146558299Y-78991490D01*
X146537924Y-78977877D01*
X146515285Y-78968499D01*
X146491251Y-78963719D01*
X146466747Y-78963719D01*
X146442714Y-78968500D01*
X146420075Y-78977877D01*
X146399700Y-78991491D01*
X146382374Y-79008817D01*
X146374911Y-79017911D01*
X146373107Y-79019391D01*
X146371053Y-79020489D01*
X146368818Y-79021167D01*
X146360360Y-79022000D01*
X146097640Y-79022000D01*
X146089182Y-79021167D01*
X146086947Y-79020489D01*
X146084893Y-79019391D01*
X146083089Y-79017911D01*
X146075626Y-79008817D01*
X146058299Y-78991490D01*
X146037924Y-78977877D01*
X146015285Y-78968499D01*
X145991251Y-78963719D01*
X145966747Y-78963719D01*
X145942714Y-78968500D01*
X145920075Y-78977877D01*
X145899700Y-78991491D01*
X145882374Y-79008817D01*
X145874911Y-79017911D01*
X145873107Y-79019391D01*
X145871053Y-79020489D01*
X145868818Y-79021167D01*
X145860360Y-79022000D01*
X145597640Y-79022000D01*
X145589182Y-79021167D01*
X145586947Y-79020489D01*
X145584893Y-79019391D01*
X145583089Y-79017911D01*
X145581609Y-79016107D01*
X145580511Y-79014053D01*
X145579833Y-79011818D01*
X145579000Y-79003360D01*
X145579000Y-77565640D01*
X145579833Y-77557182D01*
X145580511Y-77554947D01*
X145581609Y-77552893D01*
X145583089Y-77551089D01*
X145584893Y-77549609D01*
X145586947Y-77548511D01*
X145589182Y-77547833D01*
X145597640Y-77547000D01*
X145860360Y-77547000D01*
X145868818Y-77547833D01*
X145868818Y-77547833D01*
G37*
G36*
X163615630Y-75362299D02*
X163775855Y-75410903D01*
X163923520Y-75489831D01*
X164052949Y-75596051D01*
X164159169Y-75725480D01*
X164238097Y-75873145D01*
X164286701Y-76033370D01*
X164303112Y-76200000D01*
X164286701Y-76366630D01*
X164238097Y-76526855D01*
X164159169Y-76674520D01*
X164052949Y-76803949D01*
X163923520Y-76910169D01*
X163775855Y-76989097D01*
X163615630Y-77037701D01*
X163490752Y-77050000D01*
X163407248Y-77050000D01*
X163282370Y-77037701D01*
X163122145Y-76989097D01*
X162974480Y-76910169D01*
X162845051Y-76803949D01*
X162738831Y-76674520D01*
X162659903Y-76526855D01*
X162611299Y-76366630D01*
X162594888Y-76200000D01*
X162611299Y-76033370D01*
X162659903Y-75873145D01*
X162738831Y-75725480D01*
X162845051Y-75596051D01*
X162974480Y-75489831D01*
X163122145Y-75410903D01*
X163282370Y-75362299D01*
X163407248Y-75350000D01*
X163490752Y-75350000D01*
X163615630Y-75362299D01*
X163615630Y-75362299D01*
G37*
G36*
X130898000Y-77050000D02*
X129198000Y-77050000D01*
X129198000Y-75350000D01*
X130898000Y-75350000D01*
X130898000Y-77050000D01*
X130898000Y-77050000D01*
G37*
G36*
X132754630Y-75362299D02*
X132914855Y-75410903D01*
X133062520Y-75489831D01*
X133191949Y-75596051D01*
X133298169Y-75725480D01*
X133377097Y-75873145D01*
X133425701Y-76033370D01*
X133442112Y-76200000D01*
X133425701Y-76366630D01*
X133377097Y-76526855D01*
X133298169Y-76674520D01*
X133191949Y-76803949D01*
X133062520Y-76910169D01*
X132914855Y-76989097D01*
X132754630Y-77037701D01*
X132629752Y-77050000D01*
X132546248Y-77050000D01*
X132421370Y-77037701D01*
X132261145Y-76989097D01*
X132113480Y-76910169D01*
X131984051Y-76803949D01*
X131877831Y-76674520D01*
X131798903Y-76526855D01*
X131750299Y-76366630D01*
X131733888Y-76200000D01*
X131750299Y-76033370D01*
X131798903Y-75873145D01*
X131877831Y-75725480D01*
X131984051Y-75596051D01*
X132113480Y-75489831D01*
X132261145Y-75410903D01*
X132421370Y-75362299D01*
X132546248Y-75350000D01*
X132629752Y-75350000D01*
X132754630Y-75362299D01*
X132754630Y-75362299D01*
G37*
G36*
X166155630Y-75362299D02*
X166315855Y-75410903D01*
X166463520Y-75489831D01*
X166592949Y-75596051D01*
X166699169Y-75725480D01*
X166778097Y-75873145D01*
X166826701Y-76033370D01*
X166843112Y-76200000D01*
X166826701Y-76366630D01*
X166778097Y-76526855D01*
X166699169Y-76674520D01*
X166592949Y-76803949D01*
X166463520Y-76910169D01*
X166315855Y-76989097D01*
X166155630Y-77037701D01*
X166030752Y-77050000D01*
X165947248Y-77050000D01*
X165822370Y-77037701D01*
X165662145Y-76989097D01*
X165514480Y-76910169D01*
X165385051Y-76803949D01*
X165278831Y-76674520D01*
X165199903Y-76526855D01*
X165151299Y-76366630D01*
X165134888Y-76200000D01*
X165151299Y-76033370D01*
X165199903Y-75873145D01*
X165278831Y-75725480D01*
X165385051Y-75596051D01*
X165514480Y-75489831D01*
X165662145Y-75410903D01*
X165822370Y-75362299D01*
X165947248Y-75350000D01*
X166030752Y-75350000D01*
X166155630Y-75362299D01*
X166155630Y-75362299D01*
G37*
G36*
X133385910Y-68865528D02*
X133414454Y-68874187D01*
X133440769Y-68888253D01*
X133463825Y-68907175D01*
X133482747Y-68930231D01*
X133496813Y-68956546D01*
X133505472Y-68985090D01*
X133509000Y-69020915D01*
X133509000Y-70953085D01*
X133505472Y-70988910D01*
X133496813Y-71017454D01*
X133482747Y-71043769D01*
X133463825Y-71066825D01*
X133440769Y-71085747D01*
X133414454Y-71099813D01*
X133385910Y-71108472D01*
X133350085Y-71112000D01*
X131317915Y-71112000D01*
X131282090Y-71108472D01*
X131253546Y-71099813D01*
X131227231Y-71085747D01*
X131204175Y-71066825D01*
X131185253Y-71043769D01*
X131171187Y-71017454D01*
X131162528Y-70988910D01*
X131159000Y-70953085D01*
X131159000Y-69020915D01*
X131162528Y-68985090D01*
X131171187Y-68956546D01*
X131185253Y-68930231D01*
X131204175Y-68907175D01*
X131227231Y-68888253D01*
X131253546Y-68874187D01*
X131282090Y-68865528D01*
X131317915Y-68862000D01*
X133350085Y-68862000D01*
X133385910Y-68865528D01*
X133385910Y-68865528D01*
G37*
G36*
X147326616Y-70140595D02*
X147355813Y-70149452D01*
X147382718Y-70163833D01*
X147406308Y-70183192D01*
X147425667Y-70206782D01*
X147440048Y-70233687D01*
X147448905Y-70262884D01*
X147452500Y-70299390D01*
X147452500Y-70924610D01*
X147448905Y-70961116D01*
X147440048Y-70990313D01*
X147425667Y-71017218D01*
X147406308Y-71040808D01*
X147382718Y-71060167D01*
X147355813Y-71074548D01*
X147326616Y-71083405D01*
X147290110Y-71087000D01*
X146739890Y-71087000D01*
X146703384Y-71083405D01*
X146674187Y-71074548D01*
X146647282Y-71060167D01*
X146623692Y-71040808D01*
X146604333Y-71017218D01*
X146589952Y-70990313D01*
X146581095Y-70961116D01*
X146577500Y-70924610D01*
X146577500Y-70299390D01*
X146581095Y-70262884D01*
X146589952Y-70233687D01*
X146604333Y-70206782D01*
X146623692Y-70183192D01*
X146647282Y-70163833D01*
X146674187Y-70149452D01*
X146703384Y-70140595D01*
X146739890Y-70137000D01*
X147290110Y-70137000D01*
X147326616Y-70140595D01*
X147326616Y-70140595D01*
G37*
G36*
X148901616Y-70140595D02*
X148930813Y-70149452D01*
X148957718Y-70163833D01*
X148981308Y-70183192D01*
X149000667Y-70206782D01*
X149015048Y-70233687D01*
X149023905Y-70262884D01*
X149027500Y-70299390D01*
X149027500Y-70924610D01*
X149023905Y-70961116D01*
X149015048Y-70990313D01*
X149000667Y-71017218D01*
X148981308Y-71040808D01*
X148957718Y-71060167D01*
X148930813Y-71074548D01*
X148901616Y-71083405D01*
X148865110Y-71087000D01*
X148314890Y-71087000D01*
X148278384Y-71083405D01*
X148249187Y-71074548D01*
X148222282Y-71060167D01*
X148198692Y-71040808D01*
X148179333Y-71017218D01*
X148164952Y-70990313D01*
X148156095Y-70961116D01*
X148152500Y-70924610D01*
X148152500Y-70299390D01*
X148156095Y-70262884D01*
X148164952Y-70233687D01*
X148179333Y-70206782D01*
X148198692Y-70183192D01*
X148222282Y-70163833D01*
X148249187Y-70149452D01*
X148278384Y-70140595D01*
X148314890Y-70137000D01*
X148865110Y-70137000D01*
X148901616Y-70140595D01*
X148901616Y-70140595D01*
G37*
G36*
X156249630Y-66853299D02*
X156409855Y-66901903D01*
X156557520Y-66980831D01*
X156686949Y-67087051D01*
X156793169Y-67216480D01*
X156872097Y-67364145D01*
X156920701Y-67524370D01*
X156937112Y-67691000D01*
X156920701Y-67857630D01*
X156872097Y-68017855D01*
X156793169Y-68165520D01*
X156686949Y-68294949D01*
X156557520Y-68401169D01*
X156409855Y-68480097D01*
X156249630Y-68528701D01*
X156124752Y-68541000D01*
X156041248Y-68541000D01*
X155916370Y-68528701D01*
X155756145Y-68480097D01*
X155608480Y-68401169D01*
X155479051Y-68294949D01*
X155372831Y-68165520D01*
X155293903Y-68017855D01*
X155245299Y-67857630D01*
X155228888Y-67691000D01*
X155245299Y-67524370D01*
X155293903Y-67364145D01*
X155372831Y-67216480D01*
X155479051Y-67087051D01*
X155608480Y-66980831D01*
X155756145Y-66901903D01*
X155916370Y-66853299D01*
X156041248Y-66841000D01*
X156124752Y-66841000D01*
X156249630Y-66853299D01*
X156249630Y-66853299D01*
G37*
G36*
X141009630Y-66853299D02*
X141169855Y-66901903D01*
X141317520Y-66980831D01*
X141446949Y-67087051D01*
X141553169Y-67216480D01*
X141632097Y-67364145D01*
X141680701Y-67524370D01*
X141697112Y-67691000D01*
X141680701Y-67857630D01*
X141632097Y-68017855D01*
X141553169Y-68165520D01*
X141446949Y-68294949D01*
X141317520Y-68401169D01*
X141169855Y-68480097D01*
X141009630Y-68528701D01*
X140884752Y-68541000D01*
X140801248Y-68541000D01*
X140676370Y-68528701D01*
X140516145Y-68480097D01*
X140368480Y-68401169D01*
X140239051Y-68294949D01*
X140132831Y-68165520D01*
X140053903Y-68017855D01*
X140005299Y-67857630D01*
X139988888Y-67691000D01*
X140005299Y-67524370D01*
X140053903Y-67364145D01*
X140132831Y-67216480D01*
X140239051Y-67087051D01*
X140368480Y-66980831D01*
X140516145Y-66901903D01*
X140676370Y-66853299D01*
X140801248Y-66841000D01*
X140884752Y-66841000D01*
X141009630Y-66853299D01*
X141009630Y-66853299D01*
G37*
G36*
X143549630Y-66853299D02*
X143709855Y-66901903D01*
X143857520Y-66980831D01*
X143986949Y-67087051D01*
X144093169Y-67216480D01*
X144172097Y-67364145D01*
X144220701Y-67524370D01*
X144237112Y-67691000D01*
X144220701Y-67857630D01*
X144172097Y-68017855D01*
X144093169Y-68165520D01*
X143986949Y-68294949D01*
X143857520Y-68401169D01*
X143709855Y-68480097D01*
X143549630Y-68528701D01*
X143424752Y-68541000D01*
X143341248Y-68541000D01*
X143216370Y-68528701D01*
X143056145Y-68480097D01*
X142908480Y-68401169D01*
X142779051Y-68294949D01*
X142672831Y-68165520D01*
X142593903Y-68017855D01*
X142545299Y-67857630D01*
X142528888Y-67691000D01*
X142545299Y-67524370D01*
X142593903Y-67364145D01*
X142672831Y-67216480D01*
X142779051Y-67087051D01*
X142908480Y-66980831D01*
X143056145Y-66901903D01*
X143216370Y-66853299D01*
X143341248Y-66841000D01*
X143424752Y-66841000D01*
X143549630Y-66853299D01*
X143549630Y-66853299D01*
G37*
G36*
X151169630Y-66853299D02*
X151329855Y-66901903D01*
X151477520Y-66980831D01*
X151606949Y-67087051D01*
X151713169Y-67216480D01*
X151792097Y-67364145D01*
X151840701Y-67524370D01*
X151857112Y-67691000D01*
X151840701Y-67857630D01*
X151792097Y-68017855D01*
X151713169Y-68165520D01*
X151606949Y-68294949D01*
X151477520Y-68401169D01*
X151329855Y-68480097D01*
X151169630Y-68528701D01*
X151044752Y-68541000D01*
X150961248Y-68541000D01*
X150836370Y-68528701D01*
X150676145Y-68480097D01*
X150528480Y-68401169D01*
X150399051Y-68294949D01*
X150292831Y-68165520D01*
X150213903Y-68017855D01*
X150165299Y-67857630D01*
X150148888Y-67691000D01*
X150165299Y-67524370D01*
X150213903Y-67364145D01*
X150292831Y-67216480D01*
X150399051Y-67087051D01*
X150528480Y-66980831D01*
X150676145Y-66901903D01*
X150836370Y-66853299D01*
X150961248Y-66841000D01*
X151044752Y-66841000D01*
X151169630Y-66853299D01*
X151169630Y-66853299D01*
G37*
G36*
X146089630Y-66853299D02*
X146249855Y-66901903D01*
X146397520Y-66980831D01*
X146526949Y-67087051D01*
X146633169Y-67216480D01*
X146712097Y-67364145D01*
X146760701Y-67524370D01*
X146777112Y-67691000D01*
X146760701Y-67857630D01*
X146712097Y-68017855D01*
X146633169Y-68165520D01*
X146526949Y-68294949D01*
X146397520Y-68401169D01*
X146249855Y-68480097D01*
X146089630Y-68528701D01*
X145964752Y-68541000D01*
X145881248Y-68541000D01*
X145756370Y-68528701D01*
X145596145Y-68480097D01*
X145448480Y-68401169D01*
X145319051Y-68294949D01*
X145212831Y-68165520D01*
X145133903Y-68017855D01*
X145085299Y-67857630D01*
X145068888Y-67691000D01*
X145085299Y-67524370D01*
X145133903Y-67364145D01*
X145212831Y-67216480D01*
X145319051Y-67087051D01*
X145448480Y-66980831D01*
X145596145Y-66901903D01*
X145756370Y-66853299D01*
X145881248Y-66841000D01*
X145964752Y-66841000D01*
X146089630Y-66853299D01*
X146089630Y-66853299D01*
G37*
G36*
X153709630Y-66853299D02*
X153869855Y-66901903D01*
X154017520Y-66980831D01*
X154146949Y-67087051D01*
X154253169Y-67216480D01*
X154332097Y-67364145D01*
X154380701Y-67524370D01*
X154397112Y-67691000D01*
X154380701Y-67857630D01*
X154332097Y-68017855D01*
X154253169Y-68165520D01*
X154146949Y-68294949D01*
X154017520Y-68401169D01*
X153869855Y-68480097D01*
X153709630Y-68528701D01*
X153584752Y-68541000D01*
X153501248Y-68541000D01*
X153376370Y-68528701D01*
X153216145Y-68480097D01*
X153068480Y-68401169D01*
X152939051Y-68294949D01*
X152832831Y-68165520D01*
X152753903Y-68017855D01*
X152705299Y-67857630D01*
X152688888Y-67691000D01*
X152705299Y-67524370D01*
X152753903Y-67364145D01*
X152832831Y-67216480D01*
X152939051Y-67087051D01*
X153068480Y-66980831D01*
X153216145Y-66901903D01*
X153376370Y-66853299D01*
X153501248Y-66841000D01*
X153584752Y-66841000D01*
X153709630Y-66853299D01*
X153709630Y-66853299D01*
G37*
G36*
X148629630Y-66853299D02*
X148789855Y-66901903D01*
X148937520Y-66980831D01*
X149066949Y-67087051D01*
X149173169Y-67216480D01*
X149252097Y-67364145D01*
X149300701Y-67524370D01*
X149317112Y-67691000D01*
X149300701Y-67857630D01*
X149252097Y-68017855D01*
X149173169Y-68165520D01*
X149066949Y-68294949D01*
X148937520Y-68401169D01*
X148789855Y-68480097D01*
X148629630Y-68528701D01*
X148504752Y-68541000D01*
X148421248Y-68541000D01*
X148296370Y-68528701D01*
X148136145Y-68480097D01*
X147988480Y-68401169D01*
X147859051Y-68294949D01*
X147752831Y-68165520D01*
X147673903Y-68017855D01*
X147625299Y-67857630D01*
X147608888Y-67691000D01*
X147625299Y-67524370D01*
X147673903Y-67364145D01*
X147752831Y-67216480D01*
X147859051Y-67087051D01*
X147988480Y-66980831D01*
X148136145Y-66901903D01*
X148296370Y-66853299D01*
X148421248Y-66841000D01*
X148504752Y-66841000D01*
X148629630Y-66853299D01*
X148629630Y-66853299D01*
G37*
G36*
X158789630Y-66853299D02*
X158949855Y-66901903D01*
X159097520Y-66980831D01*
X159226949Y-67087051D01*
X159333169Y-67216480D01*
X159412097Y-67364145D01*
X159460701Y-67524370D01*
X159477112Y-67691000D01*
X159460701Y-67857630D01*
X159412097Y-68017855D01*
X159333169Y-68165520D01*
X159226949Y-68294949D01*
X159097520Y-68401169D01*
X158949855Y-68480097D01*
X158789630Y-68528701D01*
X158664752Y-68541000D01*
X158581248Y-68541000D01*
X158456370Y-68528701D01*
X158296145Y-68480097D01*
X158148480Y-68401169D01*
X158019051Y-68294949D01*
X157912831Y-68165520D01*
X157833903Y-68017855D01*
X157785299Y-67857630D01*
X157768888Y-67691000D01*
X157785299Y-67524370D01*
X157833903Y-67364145D01*
X157912831Y-67216480D01*
X158019051Y-67087051D01*
X158148480Y-66980831D01*
X158296145Y-66901903D01*
X158456370Y-66853299D01*
X158581248Y-66841000D01*
X158664752Y-66841000D01*
X158789630Y-66853299D01*
X158789630Y-66853299D01*
G37*
G36*
X133385910Y-63765528D02*
X133414454Y-63774187D01*
X133440769Y-63788253D01*
X133463825Y-63807175D01*
X133482747Y-63830231D01*
X133496813Y-63856546D01*
X133505472Y-63885090D01*
X133509000Y-63920915D01*
X133509000Y-65853085D01*
X133505472Y-65888910D01*
X133496813Y-65917454D01*
X133482747Y-65943769D01*
X133463825Y-65966825D01*
X133440769Y-65985747D01*
X133414454Y-65999813D01*
X133385910Y-66008472D01*
X133350085Y-66012000D01*
X131317915Y-66012000D01*
X131282090Y-66008472D01*
X131253546Y-65999813D01*
X131227231Y-65985747D01*
X131204175Y-65966825D01*
X131185253Y-65943769D01*
X131171187Y-65917454D01*
X131162528Y-65888910D01*
X131159000Y-65853085D01*
X131159000Y-63920915D01*
X131162528Y-63885090D01*
X131171187Y-63856546D01*
X131185253Y-63830231D01*
X131204175Y-63807175D01*
X131227231Y-63788253D01*
X131253546Y-63774187D01*
X131282090Y-63765528D01*
X131317915Y-63762000D01*
X133350085Y-63762000D01*
X133385910Y-63765528D01*
X133385910Y-63765528D01*
G37*
G36*
X148629630Y-64313299D02*
X148789855Y-64361903D01*
X148937520Y-64440831D01*
X149066949Y-64547051D01*
X149173169Y-64676480D01*
X149252097Y-64824145D01*
X149300701Y-64984370D01*
X149317112Y-65151000D01*
X149300701Y-65317630D01*
X149252097Y-65477855D01*
X149173169Y-65625520D01*
X149066949Y-65754949D01*
X148937520Y-65861169D01*
X148789855Y-65940097D01*
X148629630Y-65988701D01*
X148504752Y-66001000D01*
X148421248Y-66001000D01*
X148296370Y-65988701D01*
X148136145Y-65940097D01*
X147988480Y-65861169D01*
X147859051Y-65754949D01*
X147752831Y-65625520D01*
X147673903Y-65477855D01*
X147625299Y-65317630D01*
X147608888Y-65151000D01*
X147625299Y-64984370D01*
X147673903Y-64824145D01*
X147752831Y-64676480D01*
X147859051Y-64547051D01*
X147988480Y-64440831D01*
X148136145Y-64361903D01*
X148296370Y-64313299D01*
X148421248Y-64301000D01*
X148504752Y-64301000D01*
X148629630Y-64313299D01*
X148629630Y-64313299D01*
G37*
G36*
X159473000Y-66001000D02*
X157773000Y-66001000D01*
X157773000Y-64301000D01*
X159473000Y-64301000D01*
X159473000Y-66001000D01*
X159473000Y-66001000D01*
G37*
G36*
X156249630Y-64313299D02*
X156409855Y-64361903D01*
X156557520Y-64440831D01*
X156686949Y-64547051D01*
X156793169Y-64676480D01*
X156872097Y-64824145D01*
X156920701Y-64984370D01*
X156937112Y-65151000D01*
X156920701Y-65317630D01*
X156872097Y-65477855D01*
X156793169Y-65625520D01*
X156686949Y-65754949D01*
X156557520Y-65861169D01*
X156409855Y-65940097D01*
X156249630Y-65988701D01*
X156124752Y-66001000D01*
X156041248Y-66001000D01*
X155916370Y-65988701D01*
X155756145Y-65940097D01*
X155608480Y-65861169D01*
X155479051Y-65754949D01*
X155372831Y-65625520D01*
X155293903Y-65477855D01*
X155245299Y-65317630D01*
X155228888Y-65151000D01*
X155245299Y-64984370D01*
X155293903Y-64824145D01*
X155372831Y-64676480D01*
X155479051Y-64547051D01*
X155608480Y-64440831D01*
X155756145Y-64361903D01*
X155916370Y-64313299D01*
X156041248Y-64301000D01*
X156124752Y-64301000D01*
X156249630Y-64313299D01*
X156249630Y-64313299D01*
G37*
G36*
X146089630Y-64313299D02*
X146249855Y-64361903D01*
X146397520Y-64440831D01*
X146526949Y-64547051D01*
X146633169Y-64676480D01*
X146712097Y-64824145D01*
X146760701Y-64984370D01*
X146777112Y-65151000D01*
X146760701Y-65317630D01*
X146712097Y-65477855D01*
X146633169Y-65625520D01*
X146526949Y-65754949D01*
X146397520Y-65861169D01*
X146249855Y-65940097D01*
X146089630Y-65988701D01*
X145964752Y-66001000D01*
X145881248Y-66001000D01*
X145756370Y-65988701D01*
X145596145Y-65940097D01*
X145448480Y-65861169D01*
X145319051Y-65754949D01*
X145212831Y-65625520D01*
X145133903Y-65477855D01*
X145085299Y-65317630D01*
X145068888Y-65151000D01*
X145085299Y-64984370D01*
X145133903Y-64824145D01*
X145212831Y-64676480D01*
X145319051Y-64547051D01*
X145448480Y-64440831D01*
X145596145Y-64361903D01*
X145756370Y-64313299D01*
X145881248Y-64301000D01*
X145964752Y-64301000D01*
X146089630Y-64313299D01*
X146089630Y-64313299D01*
G37*
G36*
X141009630Y-64313299D02*
X141169855Y-64361903D01*
X141317520Y-64440831D01*
X141446949Y-64547051D01*
X141553169Y-64676480D01*
X141632097Y-64824145D01*
X141680701Y-64984370D01*
X141697112Y-65151000D01*
X141680701Y-65317630D01*
X141632097Y-65477855D01*
X141553169Y-65625520D01*
X141446949Y-65754949D01*
X141317520Y-65861169D01*
X141169855Y-65940097D01*
X141009630Y-65988701D01*
X140884752Y-66001000D01*
X140801248Y-66001000D01*
X140676370Y-65988701D01*
X140516145Y-65940097D01*
X140368480Y-65861169D01*
X140239051Y-65754949D01*
X140132831Y-65625520D01*
X140053903Y-65477855D01*
X140005299Y-65317630D01*
X139988888Y-65151000D01*
X140005299Y-64984370D01*
X140053903Y-64824145D01*
X140132831Y-64676480D01*
X140239051Y-64547051D01*
X140368480Y-64440831D01*
X140516145Y-64361903D01*
X140676370Y-64313299D01*
X140801248Y-64301000D01*
X140884752Y-64301000D01*
X141009630Y-64313299D01*
X141009630Y-64313299D01*
G37*
G36*
X143549630Y-64313299D02*
X143709855Y-64361903D01*
X143857520Y-64440831D01*
X143986949Y-64547051D01*
X144093169Y-64676480D01*
X144172097Y-64824145D01*
X144220701Y-64984370D01*
X144237112Y-65151000D01*
X144220701Y-65317630D01*
X144172097Y-65477855D01*
X144093169Y-65625520D01*
X143986949Y-65754949D01*
X143857520Y-65861169D01*
X143709855Y-65940097D01*
X143549630Y-65988701D01*
X143424752Y-66001000D01*
X143341248Y-66001000D01*
X143216370Y-65988701D01*
X143056145Y-65940097D01*
X142908480Y-65861169D01*
X142779051Y-65754949D01*
X142672831Y-65625520D01*
X142593903Y-65477855D01*
X142545299Y-65317630D01*
X142528888Y-65151000D01*
X142545299Y-64984370D01*
X142593903Y-64824145D01*
X142672831Y-64676480D01*
X142779051Y-64547051D01*
X142908480Y-64440831D01*
X143056145Y-64361903D01*
X143216370Y-64313299D01*
X143341248Y-64301000D01*
X143424752Y-64301000D01*
X143549630Y-64313299D01*
X143549630Y-64313299D01*
G37*
G36*
X151169630Y-64313299D02*
X151329855Y-64361903D01*
X151477520Y-64440831D01*
X151606949Y-64547051D01*
X151713169Y-64676480D01*
X151792097Y-64824145D01*
X151840701Y-64984370D01*
X151857112Y-65151000D01*
X151840701Y-65317630D01*
X151792097Y-65477855D01*
X151713169Y-65625520D01*
X151606949Y-65754949D01*
X151477520Y-65861169D01*
X151329855Y-65940097D01*
X151169630Y-65988701D01*
X151044752Y-66001000D01*
X150961248Y-66001000D01*
X150836370Y-65988701D01*
X150676145Y-65940097D01*
X150528480Y-65861169D01*
X150399051Y-65754949D01*
X150292831Y-65625520D01*
X150213903Y-65477855D01*
X150165299Y-65317630D01*
X150148888Y-65151000D01*
X150165299Y-64984370D01*
X150213903Y-64824145D01*
X150292831Y-64676480D01*
X150399051Y-64547051D01*
X150528480Y-64440831D01*
X150676145Y-64361903D01*
X150836370Y-64313299D01*
X150961248Y-64301000D01*
X151044752Y-64301000D01*
X151169630Y-64313299D01*
X151169630Y-64313299D01*
G37*
G36*
X153709630Y-64313299D02*
X153869855Y-64361903D01*
X154017520Y-64440831D01*
X154146949Y-64547051D01*
X154253169Y-64676480D01*
X154332097Y-64824145D01*
X154380701Y-64984370D01*
X154397112Y-65151000D01*
X154380701Y-65317630D01*
X154332097Y-65477855D01*
X154253169Y-65625520D01*
X154146949Y-65754949D01*
X154017520Y-65861169D01*
X153869855Y-65940097D01*
X153709630Y-65988701D01*
X153584752Y-66001000D01*
X153501248Y-66001000D01*
X153376370Y-65988701D01*
X153216145Y-65940097D01*
X153068480Y-65861169D01*
X152939051Y-65754949D01*
X152832831Y-65625520D01*
X152753903Y-65477855D01*
X152705299Y-65317630D01*
X152688888Y-65151000D01*
X152705299Y-64984370D01*
X152753903Y-64824145D01*
X152832831Y-64676480D01*
X152939051Y-64547051D01*
X153068480Y-64440831D01*
X153216145Y-64361903D01*
X153376370Y-64313299D01*
X153501248Y-64301000D01*
X153584752Y-64301000D01*
X153709630Y-64313299D01*
X153709630Y-64313299D01*
G37*
M02*
