%FSLAX45Y45*%
G04 Gerber Fmt 4.5, Leading zero omitted, Abs format (unit mm)*
G04 Created by KiCad (PCBNEW 5.0.2+dfsg1-1~bpo9+1) date lun. 08 juil. 2019 21:33:23 CEST*
%MOMM*%
%LPD*%
G01*
G04 APERTURE LIST*
%ADD10C,0.200000*%
%ADD11C,0.300000*%
G04 APERTURE END LIST*
D10*
X16929100Y-15608300D02*
X17018000Y-15608300D01*
X17030700Y-6159500D02*
X17018000Y-6159500D01*
X16929100Y-6159500D02*
X17030700Y-6159500D01*
X12687300Y-10833100D02*
X12687300Y-10934700D01*
X21259800Y-10833100D02*
X21259800Y-10934700D01*
X21259800Y-15608300D02*
X21259800Y-10934700D01*
X17018000Y-15608300D02*
X21259800Y-15608300D01*
X12687300Y-10934700D02*
X12687300Y-15608300D01*
X12687300Y-15608300D02*
X16929100Y-15608300D01*
X17018000Y-6159500D02*
X21259800Y-6159500D01*
X21259800Y-10833100D02*
X21259800Y-6159500D01*
X12687300Y-6159500D02*
X12687300Y-10833100D01*
X12687300Y-6159500D02*
X16929100Y-6159500D01*
D10*
X13492800Y-9746300D02*
X13532800Y-9786300D01*
X13532800Y-9746300D02*
X13492800Y-9786300D01*
X13492800Y-14521500D02*
X13532800Y-14561500D01*
X13532800Y-14521500D02*
X13492800Y-14561500D01*
X13721400Y-8793800D02*
X13761400Y-8833800D01*
X13761400Y-8793800D02*
X13721400Y-8833800D01*
X13721400Y-10381300D02*
X13761400Y-10421300D01*
X13761400Y-10381300D02*
X13721400Y-10421300D01*
X13721400Y-13569000D02*
X13761400Y-13609000D01*
X13761400Y-13569000D02*
X13721400Y-13609000D01*
X13721400Y-15156500D02*
X13761400Y-15196500D01*
X13761400Y-15156500D02*
X13721400Y-15196500D01*
X13734100Y-6266500D02*
X13774100Y-6306500D01*
X13774100Y-6266500D02*
X13734100Y-6306500D01*
X13734100Y-11041700D02*
X13774100Y-11081700D01*
X13774100Y-11041700D02*
X13734100Y-11081700D01*
X13797600Y-8895400D02*
X13837600Y-8935400D01*
X13837600Y-8895400D02*
X13797600Y-8935400D01*
X13797600Y-13670600D02*
X13837600Y-13710600D01*
X13837600Y-13670600D02*
X13797600Y-13710600D01*
X13808700Y-7955600D02*
X13848700Y-7995600D01*
X13848700Y-7955600D02*
X13808700Y-7995600D01*
X13808700Y-12730800D02*
X13848700Y-12770800D01*
X13848700Y-12730800D02*
X13808700Y-12770800D01*
X13886500Y-9543100D02*
X13926500Y-9583100D01*
X13926500Y-9543100D02*
X13886500Y-9583100D01*
X13886500Y-14318300D02*
X13926500Y-14358300D01*
X13926500Y-14318300D02*
X13886500Y-14358300D01*
X14000800Y-9466900D02*
X14040800Y-9506900D01*
X14040800Y-9466900D02*
X14000800Y-9506900D01*
X14000800Y-14242100D02*
X14040800Y-14282100D01*
X14040800Y-14242100D02*
X14000800Y-14282100D01*
X14585000Y-9835200D02*
X14625000Y-9875200D01*
X14625000Y-9835200D02*
X14585000Y-9875200D01*
X14585000Y-14610400D02*
X14625000Y-14650400D01*
X14625000Y-14610400D02*
X14585000Y-14650400D01*
X14724700Y-7295200D02*
X14764700Y-7335200D01*
X14764700Y-7295200D02*
X14724700Y-7335200D01*
X14724700Y-12070400D02*
X14764700Y-12110400D01*
X14764700Y-12070400D02*
X14724700Y-12110400D01*
X14775500Y-9378000D02*
X14815500Y-9418000D01*
X14815500Y-9378000D02*
X14775500Y-9418000D01*
X14775500Y-14153200D02*
X14815500Y-14193200D01*
X14815500Y-14153200D02*
X14775500Y-14193200D01*
X14826300Y-9949500D02*
X14866300Y-9989500D01*
X14866300Y-9949500D02*
X14826300Y-9989500D01*
X14826300Y-14724700D02*
X14866300Y-14764700D01*
X14866300Y-14724700D02*
X14826300Y-14764700D01*
X14864400Y-7307900D02*
X14904400Y-7347900D01*
X14904400Y-7307900D02*
X14864400Y-7347900D01*
X14864400Y-12083100D02*
X14904400Y-12123100D01*
X14904400Y-12083100D02*
X14864400Y-12123100D01*
X14902900Y-9416500D02*
X14942900Y-9456500D01*
X14942900Y-9416500D02*
X14902900Y-9456500D01*
X14902900Y-14191700D02*
X14942900Y-14231700D01*
X14942900Y-14191700D02*
X14902900Y-14231700D01*
X14953300Y-9949500D02*
X14993300Y-9989500D01*
X14993300Y-9949500D02*
X14953300Y-9989500D01*
X14953300Y-14724700D02*
X14993300Y-14764700D01*
X14993300Y-14724700D02*
X14953300Y-14764700D01*
X14991400Y-6939600D02*
X15031400Y-6979600D01*
X15031400Y-6939600D02*
X14991400Y-6979600D01*
X14991400Y-11714800D02*
X15031400Y-11754800D01*
X15031400Y-11714800D02*
X14991400Y-11754800D01*
X15093000Y-9555800D02*
X15133000Y-9595800D01*
X15133000Y-9555800D02*
X15093000Y-9595800D01*
X15093000Y-14331000D02*
X15133000Y-14371000D01*
X15133000Y-14331000D02*
X15093000Y-14371000D01*
X15232700Y-9632000D02*
X15272700Y-9672000D01*
X15272700Y-9632000D02*
X15232700Y-9672000D01*
X15232700Y-14407200D02*
X15272700Y-14447200D01*
X15272700Y-14407200D02*
X15232700Y-14447200D01*
X15791500Y-8120700D02*
X15831500Y-8160700D01*
X15831500Y-8120700D02*
X15791500Y-8160700D01*
X15791500Y-8222300D02*
X15831500Y-8262300D01*
X15831500Y-8222300D02*
X15791500Y-8262300D01*
X15791500Y-12895900D02*
X15831500Y-12935900D01*
X15831500Y-12895900D02*
X15791500Y-12935900D01*
X15791500Y-12997500D02*
X15831500Y-13037500D01*
X15831500Y-12997500D02*
X15791500Y-13037500D01*
X17823500Y-9746300D02*
X17863500Y-9786300D01*
X17863500Y-9746300D02*
X17823500Y-9786300D01*
X17823500Y-14521500D02*
X17863500Y-14561500D01*
X17863500Y-14521500D02*
X17823500Y-14561500D01*
X18052100Y-8793800D02*
X18092100Y-8833800D01*
X18092100Y-8793800D02*
X18052100Y-8833800D01*
X18052100Y-10381300D02*
X18092100Y-10421300D01*
X18092100Y-10381300D02*
X18052100Y-10421300D01*
X18052100Y-13569000D02*
X18092100Y-13609000D01*
X18092100Y-13569000D02*
X18052100Y-13609000D01*
X18052100Y-15156500D02*
X18092100Y-15196500D01*
X18092100Y-15156500D02*
X18052100Y-15196500D01*
X18064800Y-6266500D02*
X18104800Y-6306500D01*
X18104800Y-6266500D02*
X18064800Y-6306500D01*
X18064800Y-11041700D02*
X18104800Y-11081700D01*
X18104800Y-11041700D02*
X18064800Y-11081700D01*
X18128300Y-8895400D02*
X18168300Y-8935400D01*
X18168300Y-8895400D02*
X18128300Y-8935400D01*
X18128300Y-13670600D02*
X18168300Y-13710600D01*
X18168300Y-13670600D02*
X18128300Y-13710600D01*
X18139400Y-7955600D02*
X18179400Y-7995600D01*
X18179400Y-7955600D02*
X18139400Y-7995600D01*
X18139400Y-12730800D02*
X18179400Y-12770800D01*
X18179400Y-12730800D02*
X18139400Y-12770800D01*
X18217200Y-9543100D02*
X18257200Y-9583100D01*
X18257200Y-9543100D02*
X18217200Y-9583100D01*
X18217200Y-14318300D02*
X18257200Y-14358300D01*
X18257200Y-14318300D02*
X18217200Y-14358300D01*
X18331500Y-9466900D02*
X18371500Y-9506900D01*
X18371500Y-9466900D02*
X18331500Y-9506900D01*
X18331500Y-14242100D02*
X18371500Y-14282100D01*
X18371500Y-14242100D02*
X18331500Y-14282100D01*
X18915700Y-9835200D02*
X18955700Y-9875200D01*
X18955700Y-9835200D02*
X18915700Y-9875200D01*
X18915700Y-14610400D02*
X18955700Y-14650400D01*
X18955700Y-14610400D02*
X18915700Y-14650400D01*
X19055400Y-7295200D02*
X19095400Y-7335200D01*
X19095400Y-7295200D02*
X19055400Y-7335200D01*
X19055400Y-12070400D02*
X19095400Y-12110400D01*
X19095400Y-12070400D02*
X19055400Y-12110400D01*
X19106200Y-9378000D02*
X19146200Y-9418000D01*
X19146200Y-9378000D02*
X19106200Y-9418000D01*
X19106200Y-14153200D02*
X19146200Y-14193200D01*
X19146200Y-14153200D02*
X19106200Y-14193200D01*
X19157000Y-9949500D02*
X19197000Y-9989500D01*
X19197000Y-9949500D02*
X19157000Y-9989500D01*
X19157000Y-14724700D02*
X19197000Y-14764700D01*
X19197000Y-14724700D02*
X19157000Y-14764700D01*
X19195100Y-7307900D02*
X19235100Y-7347900D01*
X19235100Y-7307900D02*
X19195100Y-7347900D01*
X19195100Y-12083100D02*
X19235100Y-12123100D01*
X19235100Y-12083100D02*
X19195100Y-12123100D01*
X19233600Y-9416500D02*
X19273600Y-9456500D01*
X19273600Y-9416500D02*
X19233600Y-9456500D01*
X19233600Y-14191700D02*
X19273600Y-14231700D01*
X19273600Y-14191700D02*
X19233600Y-14231700D01*
X19284000Y-9949500D02*
X19324000Y-9989500D01*
X19324000Y-9949500D02*
X19284000Y-9989500D01*
X19284000Y-14724700D02*
X19324000Y-14764700D01*
X19324000Y-14724700D02*
X19284000Y-14764700D01*
X19322100Y-6939600D02*
X19362100Y-6979600D01*
X19362100Y-6939600D02*
X19322100Y-6979600D01*
X19322100Y-11714800D02*
X19362100Y-11754800D01*
X19362100Y-11714800D02*
X19322100Y-11754800D01*
X19423700Y-9555800D02*
X19463700Y-9595800D01*
X19463700Y-9555800D02*
X19423700Y-9595800D01*
X19423700Y-14331000D02*
X19463700Y-14371000D01*
X19463700Y-14331000D02*
X19423700Y-14371000D01*
X19563400Y-9632000D02*
X19603400Y-9672000D01*
X19603400Y-9632000D02*
X19563400Y-9672000D01*
X19563400Y-14407200D02*
X19603400Y-14447200D01*
X19603400Y-14407200D02*
X19563400Y-14447200D01*
X20122200Y-8120700D02*
X20162200Y-8160700D01*
X20162200Y-8120700D02*
X20122200Y-8160700D01*
X20122200Y-8222300D02*
X20162200Y-8262300D01*
X20162200Y-8222300D02*
X20122200Y-8262300D01*
X20122200Y-12895900D02*
X20162200Y-12935900D01*
X20162200Y-12895900D02*
X20122200Y-12935900D01*
X20122200Y-12997500D02*
X20162200Y-13037500D01*
X20162200Y-12997500D02*
X20122200Y-13037500D01*
X16394900Y-12395200D02*
G75*
G03X16394900Y-12395200I-50000J0D01*
G01*
X16394900Y-12649200D02*
G75*
G03X16394900Y-12649200I-50000J0D01*
G01*
X16394900Y-12903200D02*
G75*
G03X16394900Y-12903200I-50000J0D01*
G01*
X16394900Y-13157200D02*
G75*
G03X16394900Y-13157200I-50000J0D01*
G01*
X16394900Y-13411200D02*
G75*
G03X16394900Y-13411200I-50000J0D01*
G01*
X16394900Y-13665200D02*
G75*
G03X16394900Y-13665200I-50000J0D01*
G01*
X16394900Y-13919200D02*
G75*
G03X16394900Y-13919200I-50000J0D01*
G01*
X16394900Y-14173200D02*
G75*
G03X16394900Y-14173200I-50000J0D01*
G01*
X16648900Y-12395200D02*
G75*
G03X16648900Y-12395200I-50000J0D01*
G01*
X16648900Y-12649200D02*
G75*
G03X16648900Y-12649200I-50000J0D01*
G01*
X16648900Y-12903200D02*
G75*
G03X16648900Y-12903200I-50000J0D01*
G01*
X16648900Y-13157200D02*
G75*
G03X16648900Y-13157200I-50000J0D01*
G01*
X16648900Y-13411200D02*
G75*
G03X16648900Y-13411200I-50000J0D01*
G01*
X16648900Y-13665200D02*
G75*
G03X16648900Y-13665200I-50000J0D01*
G01*
X16648900Y-13919200D02*
G75*
G03X16648900Y-13919200I-50000J0D01*
G01*
X16648900Y-14173200D02*
G75*
G03X16648900Y-14173200I-50000J0D01*
G01*
X18465000Y-6515100D02*
G75*
G03X18465000Y-6515100I-50000J0D01*
G01*
X18465000Y-6769100D02*
G75*
G03X18465000Y-6769100I-50000J0D01*
G01*
X18719000Y-6515100D02*
G75*
G03X18719000Y-6515100I-50000J0D01*
G01*
X18719000Y-6769100D02*
G75*
G03X18719000Y-6769100I-50000J0D01*
G01*
X18973000Y-6515100D02*
G75*
G03X18973000Y-6515100I-50000J0D01*
G01*
X18973000Y-6769100D02*
G75*
G03X18973000Y-6769100I-50000J0D01*
G01*
X19227000Y-6515100D02*
G75*
G03X19227000Y-6515100I-50000J0D01*
G01*
X19227000Y-6769100D02*
G75*
G03X19227000Y-6769100I-50000J0D01*
G01*
X19481000Y-6515100D02*
G75*
G03X19481000Y-6515100I-50000J0D01*
G01*
X19481000Y-6769100D02*
G75*
G03X19481000Y-6769100I-50000J0D01*
G01*
X19735000Y-6515100D02*
G75*
G03X19735000Y-6515100I-50000J0D01*
G01*
X19735000Y-6769100D02*
G75*
G03X19735000Y-6769100I-50000J0D01*
G01*
X19989000Y-6515100D02*
G75*
G03X19989000Y-6515100I-50000J0D01*
G01*
X19989000Y-6769100D02*
G75*
G03X19989000Y-6769100I-50000J0D01*
G01*
X20243000Y-6515100D02*
G75*
G03X20243000Y-6515100I-50000J0D01*
G01*
X20243000Y-6769100D02*
G75*
G03X20243000Y-6769100I-50000J0D01*
G01*
X14134300Y-15011400D02*
G75*
G03X14134300Y-15011400I-50000J0D01*
G01*
X14134300Y-15265400D02*
G75*
G03X14134300Y-15265400I-50000J0D01*
G01*
X14388300Y-15011400D02*
G75*
G03X14388300Y-15011400I-50000J0D01*
G01*
X14388300Y-15265400D02*
G75*
G03X14388300Y-15265400I-50000J0D01*
G01*
X14642300Y-15011400D02*
G75*
G03X14642300Y-15011400I-50000J0D01*
G01*
X14642300Y-15265400D02*
G75*
G03X14642300Y-15265400I-50000J0D01*
G01*
X14896300Y-15011400D02*
G75*
G03X14896300Y-15011400I-50000J0D01*
G01*
X14896300Y-15265400D02*
G75*
G03X14896300Y-15265400I-50000J0D01*
G01*
X15150300Y-15011400D02*
G75*
G03X15150300Y-15011400I-50000J0D01*
G01*
X15150300Y-15265400D02*
G75*
G03X15150300Y-15265400I-50000J0D01*
G01*
X15404300Y-15011400D02*
G75*
G03X15404300Y-15011400I-50000J0D01*
G01*
X15404300Y-15265400D02*
G75*
G03X15404300Y-15265400I-50000J0D01*
G01*
X15658300Y-15011400D02*
G75*
G03X15658300Y-15011400I-50000J0D01*
G01*
X15658300Y-15265400D02*
G75*
G03X15658300Y-15265400I-50000J0D01*
G01*
X15912300Y-15011400D02*
G75*
G03X15912300Y-15011400I-50000J0D01*
G01*
X15912300Y-15265400D02*
G75*
G03X15912300Y-15265400I-50000J0D01*
G01*
X13054800Y-7620000D02*
G75*
G03X13054800Y-7620000I-50000J0D01*
G01*
X13054800Y-7874000D02*
G75*
G03X13054800Y-7874000I-50000J0D01*
G01*
X13054800Y-8128000D02*
G75*
G03X13054800Y-8128000I-50000J0D01*
G01*
X13054800Y-8382000D02*
G75*
G03X13054800Y-8382000I-50000J0D01*
G01*
X13054800Y-8636000D02*
G75*
G03X13054800Y-8636000I-50000J0D01*
G01*
X13054800Y-8890000D02*
G75*
G03X13054800Y-8890000I-50000J0D01*
G01*
X13054800Y-9144000D02*
G75*
G03X13054800Y-9144000I-50000J0D01*
G01*
X13054800Y-9398000D02*
G75*
G03X13054800Y-9398000I-50000J0D01*
G01*
X13308800Y-7620000D02*
G75*
G03X13308800Y-7620000I-50000J0D01*
G01*
X13308800Y-7874000D02*
G75*
G03X13308800Y-7874000I-50000J0D01*
G01*
X13308800Y-8128000D02*
G75*
G03X13308800Y-8128000I-50000J0D01*
G01*
X13308800Y-8382000D02*
G75*
G03X13308800Y-8382000I-50000J0D01*
G01*
X13308800Y-8636000D02*
G75*
G03X13308800Y-8636000I-50000J0D01*
G01*
X13308800Y-8890000D02*
G75*
G03X13308800Y-8890000I-50000J0D01*
G01*
X13308800Y-9144000D02*
G75*
G03X13308800Y-9144000I-50000J0D01*
G01*
X13308800Y-9398000D02*
G75*
G03X13308800Y-9398000I-50000J0D01*
G01*
X14134300Y-10236200D02*
G75*
G03X14134300Y-10236200I-50000J0D01*
G01*
X14134300Y-10490200D02*
G75*
G03X14134300Y-10490200I-50000J0D01*
G01*
X14388300Y-10236200D02*
G75*
G03X14388300Y-10236200I-50000J0D01*
G01*
X14388300Y-10490200D02*
G75*
G03X14388300Y-10490200I-50000J0D01*
G01*
X14642300Y-10236200D02*
G75*
G03X14642300Y-10236200I-50000J0D01*
G01*
X14642300Y-10490200D02*
G75*
G03X14642300Y-10490200I-50000J0D01*
G01*
X14896300Y-10236200D02*
G75*
G03X14896300Y-10236200I-50000J0D01*
G01*
X14896300Y-10490200D02*
G75*
G03X14896300Y-10490200I-50000J0D01*
G01*
X15150300Y-10236200D02*
G75*
G03X15150300Y-10236200I-50000J0D01*
G01*
X15150300Y-10490200D02*
G75*
G03X15150300Y-10490200I-50000J0D01*
G01*
X15404300Y-10236200D02*
G75*
G03X15404300Y-10236200I-50000J0D01*
G01*
X15404300Y-10490200D02*
G75*
G03X15404300Y-10490200I-50000J0D01*
G01*
X15658300Y-10236200D02*
G75*
G03X15658300Y-10236200I-50000J0D01*
G01*
X15658300Y-10490200D02*
G75*
G03X15658300Y-10490200I-50000J0D01*
G01*
X15912300Y-10236200D02*
G75*
G03X15912300Y-10236200I-50000J0D01*
G01*
X15912300Y-10490200D02*
G75*
G03X15912300Y-10490200I-50000J0D01*
G01*
X16394900Y-7620000D02*
G75*
G03X16394900Y-7620000I-50000J0D01*
G01*
X16394900Y-7874000D02*
G75*
G03X16394900Y-7874000I-50000J0D01*
G01*
X16394900Y-8128000D02*
G75*
G03X16394900Y-8128000I-50000J0D01*
G01*
X16394900Y-8382000D02*
G75*
G03X16394900Y-8382000I-50000J0D01*
G01*
X16394900Y-8636000D02*
G75*
G03X16394900Y-8636000I-50000J0D01*
G01*
X16394900Y-8890000D02*
G75*
G03X16394900Y-8890000I-50000J0D01*
G01*
X16394900Y-9144000D02*
G75*
G03X16394900Y-9144000I-50000J0D01*
G01*
X16394900Y-9398000D02*
G75*
G03X16394900Y-9398000I-50000J0D01*
G01*
X16648900Y-7620000D02*
G75*
G03X16648900Y-7620000I-50000J0D01*
G01*
X16648900Y-7874000D02*
G75*
G03X16648900Y-7874000I-50000J0D01*
G01*
X16648900Y-8128000D02*
G75*
G03X16648900Y-8128000I-50000J0D01*
G01*
X16648900Y-8382000D02*
G75*
G03X16648900Y-8382000I-50000J0D01*
G01*
X16648900Y-8636000D02*
G75*
G03X16648900Y-8636000I-50000J0D01*
G01*
X16648900Y-8890000D02*
G75*
G03X16648900Y-8890000I-50000J0D01*
G01*
X16648900Y-9144000D02*
G75*
G03X16648900Y-9144000I-50000J0D01*
G01*
X16648900Y-9398000D02*
G75*
G03X16648900Y-9398000I-50000J0D01*
G01*
X20725600Y-7620000D02*
G75*
G03X20725600Y-7620000I-50000J0D01*
G01*
X20725600Y-7874000D02*
G75*
G03X20725600Y-7874000I-50000J0D01*
G01*
X20725600Y-8128000D02*
G75*
G03X20725600Y-8128000I-50000J0D01*
G01*
X20725600Y-8382000D02*
G75*
G03X20725600Y-8382000I-50000J0D01*
G01*
X20725600Y-8636000D02*
G75*
G03X20725600Y-8636000I-50000J0D01*
G01*
X20725600Y-8890000D02*
G75*
G03X20725600Y-8890000I-50000J0D01*
G01*
X20725600Y-9144000D02*
G75*
G03X20725600Y-9144000I-50000J0D01*
G01*
X20725600Y-9398000D02*
G75*
G03X20725600Y-9398000I-50000J0D01*
G01*
X20979600Y-7620000D02*
G75*
G03X20979600Y-7620000I-50000J0D01*
G01*
X20979600Y-7874000D02*
G75*
G03X20979600Y-7874000I-50000J0D01*
G01*
X20979600Y-8128000D02*
G75*
G03X20979600Y-8128000I-50000J0D01*
G01*
X20979600Y-8382000D02*
G75*
G03X20979600Y-8382000I-50000J0D01*
G01*
X20979600Y-8636000D02*
G75*
G03X20979600Y-8636000I-50000J0D01*
G01*
X20979600Y-8890000D02*
G75*
G03X20979600Y-8890000I-50000J0D01*
G01*
X20979600Y-9144000D02*
G75*
G03X20979600Y-9144000I-50000J0D01*
G01*
X20979600Y-9398000D02*
G75*
G03X20979600Y-9398000I-50000J0D01*
G01*
X18465000Y-10236200D02*
G75*
G03X18465000Y-10236200I-50000J0D01*
G01*
X18465000Y-10490200D02*
G75*
G03X18465000Y-10490200I-50000J0D01*
G01*
X18719000Y-10236200D02*
G75*
G03X18719000Y-10236200I-50000J0D01*
G01*
X18719000Y-10490200D02*
G75*
G03X18719000Y-10490200I-50000J0D01*
G01*
X18973000Y-10236200D02*
G75*
G03X18973000Y-10236200I-50000J0D01*
G01*
X18973000Y-10490200D02*
G75*
G03X18973000Y-10490200I-50000J0D01*
G01*
X19227000Y-10236200D02*
G75*
G03X19227000Y-10236200I-50000J0D01*
G01*
X19227000Y-10490200D02*
G75*
G03X19227000Y-10490200I-50000J0D01*
G01*
X19481000Y-10236200D02*
G75*
G03X19481000Y-10236200I-50000J0D01*
G01*
X19481000Y-10490200D02*
G75*
G03X19481000Y-10490200I-50000J0D01*
G01*
X19735000Y-10236200D02*
G75*
G03X19735000Y-10236200I-50000J0D01*
G01*
X19735000Y-10490200D02*
G75*
G03X19735000Y-10490200I-50000J0D01*
G01*
X19989000Y-10236200D02*
G75*
G03X19989000Y-10236200I-50000J0D01*
G01*
X19989000Y-10490200D02*
G75*
G03X19989000Y-10490200I-50000J0D01*
G01*
X20243000Y-10236200D02*
G75*
G03X20243000Y-10236200I-50000J0D01*
G01*
X20243000Y-10490200D02*
G75*
G03X20243000Y-10490200I-50000J0D01*
G01*
X14134300Y-6515100D02*
G75*
G03X14134300Y-6515100I-50000J0D01*
G01*
X14134300Y-6769100D02*
G75*
G03X14134300Y-6769100I-50000J0D01*
G01*
X14388300Y-6515100D02*
G75*
G03X14388300Y-6515100I-50000J0D01*
G01*
X14388300Y-6769100D02*
G75*
G03X14388300Y-6769100I-50000J0D01*
G01*
X14642300Y-6515100D02*
G75*
G03X14642300Y-6515100I-50000J0D01*
G01*
X14642300Y-6769100D02*
G75*
G03X14642300Y-6769100I-50000J0D01*
G01*
X14896300Y-6515100D02*
G75*
G03X14896300Y-6515100I-50000J0D01*
G01*
X14896300Y-6769100D02*
G75*
G03X14896300Y-6769100I-50000J0D01*
G01*
X15150300Y-6515100D02*
G75*
G03X15150300Y-6515100I-50000J0D01*
G01*
X15150300Y-6769100D02*
G75*
G03X15150300Y-6769100I-50000J0D01*
G01*
X15404300Y-6515100D02*
G75*
G03X15404300Y-6515100I-50000J0D01*
G01*
X15404300Y-6769100D02*
G75*
G03X15404300Y-6769100I-50000J0D01*
G01*
X15658300Y-6515100D02*
G75*
G03X15658300Y-6515100I-50000J0D01*
G01*
X15658300Y-6769100D02*
G75*
G03X15658300Y-6769100I-50000J0D01*
G01*
X15912300Y-6515100D02*
G75*
G03X15912300Y-6515100I-50000J0D01*
G01*
X15912300Y-6769100D02*
G75*
G03X15912300Y-6769100I-50000J0D01*
G01*
X14134300Y-11290300D02*
G75*
G03X14134300Y-11290300I-50000J0D01*
G01*
X14134300Y-11544300D02*
G75*
G03X14134300Y-11544300I-50000J0D01*
G01*
X14388300Y-11290300D02*
G75*
G03X14388300Y-11290300I-50000J0D01*
G01*
X14388300Y-11544300D02*
G75*
G03X14388300Y-11544300I-50000J0D01*
G01*
X14642300Y-11290300D02*
G75*
G03X14642300Y-11290300I-50000J0D01*
G01*
X14642300Y-11544300D02*
G75*
G03X14642300Y-11544300I-50000J0D01*
G01*
X14896300Y-11290300D02*
G75*
G03X14896300Y-11290300I-50000J0D01*
G01*
X14896300Y-11544300D02*
G75*
G03X14896300Y-11544300I-50000J0D01*
G01*
X15150300Y-11290300D02*
G75*
G03X15150300Y-11290300I-50000J0D01*
G01*
X15150300Y-11544300D02*
G75*
G03X15150300Y-11544300I-50000J0D01*
G01*
X15404300Y-11290300D02*
G75*
G03X15404300Y-11290300I-50000J0D01*
G01*
X15404300Y-11544300D02*
G75*
G03X15404300Y-11544300I-50000J0D01*
G01*
X15658300Y-11290300D02*
G75*
G03X15658300Y-11290300I-50000J0D01*
G01*
X15658300Y-11544300D02*
G75*
G03X15658300Y-11544300I-50000J0D01*
G01*
X15912300Y-11290300D02*
G75*
G03X15912300Y-11290300I-50000J0D01*
G01*
X15912300Y-11544300D02*
G75*
G03X15912300Y-11544300I-50000J0D01*
G01*
X20725600Y-12395200D02*
G75*
G03X20725600Y-12395200I-50000J0D01*
G01*
X20725600Y-12649200D02*
G75*
G03X20725600Y-12649200I-50000J0D01*
G01*
X20725600Y-12903200D02*
G75*
G03X20725600Y-12903200I-50000J0D01*
G01*
X20725600Y-13157200D02*
G75*
G03X20725600Y-13157200I-50000J0D01*
G01*
X20725600Y-13411200D02*
G75*
G03X20725600Y-13411200I-50000J0D01*
G01*
X20725600Y-13665200D02*
G75*
G03X20725600Y-13665200I-50000J0D01*
G01*
X20725600Y-13919200D02*
G75*
G03X20725600Y-13919200I-50000J0D01*
G01*
X20725600Y-14173200D02*
G75*
G03X20725600Y-14173200I-50000J0D01*
G01*
X20979600Y-12395200D02*
G75*
G03X20979600Y-12395200I-50000J0D01*
G01*
X20979600Y-12649200D02*
G75*
G03X20979600Y-12649200I-50000J0D01*
G01*
X20979600Y-12903200D02*
G75*
G03X20979600Y-12903200I-50000J0D01*
G01*
X20979600Y-13157200D02*
G75*
G03X20979600Y-13157200I-50000J0D01*
G01*
X20979600Y-13411200D02*
G75*
G03X20979600Y-13411200I-50000J0D01*
G01*
X20979600Y-13665200D02*
G75*
G03X20979600Y-13665200I-50000J0D01*
G01*
X20979600Y-13919200D02*
G75*
G03X20979600Y-13919200I-50000J0D01*
G01*
X20979600Y-14173200D02*
G75*
G03X20979600Y-14173200I-50000J0D01*
G01*
X18465000Y-11290300D02*
G75*
G03X18465000Y-11290300I-50000J0D01*
G01*
X18465000Y-11544300D02*
G75*
G03X18465000Y-11544300I-50000J0D01*
G01*
X18719000Y-11290300D02*
G75*
G03X18719000Y-11290300I-50000J0D01*
G01*
X18719000Y-11544300D02*
G75*
G03X18719000Y-11544300I-50000J0D01*
G01*
X18973000Y-11290300D02*
G75*
G03X18973000Y-11290300I-50000J0D01*
G01*
X18973000Y-11544300D02*
G75*
G03X18973000Y-11544300I-50000J0D01*
G01*
X19227000Y-11290300D02*
G75*
G03X19227000Y-11290300I-50000J0D01*
G01*
X19227000Y-11544300D02*
G75*
G03X19227000Y-11544300I-50000J0D01*
G01*
X19481000Y-11290300D02*
G75*
G03X19481000Y-11290300I-50000J0D01*
G01*
X19481000Y-11544300D02*
G75*
G03X19481000Y-11544300I-50000J0D01*
G01*
X19735000Y-11290300D02*
G75*
G03X19735000Y-11290300I-50000J0D01*
G01*
X19735000Y-11544300D02*
G75*
G03X19735000Y-11544300I-50000J0D01*
G01*
X19989000Y-11290300D02*
G75*
G03X19989000Y-11290300I-50000J0D01*
G01*
X19989000Y-11544300D02*
G75*
G03X19989000Y-11544300I-50000J0D01*
G01*
X20243000Y-11290300D02*
G75*
G03X20243000Y-11290300I-50000J0D01*
G01*
X20243000Y-11544300D02*
G75*
G03X20243000Y-11544300I-50000J0D01*
G01*
X17385500Y-12395200D02*
G75*
G03X17385500Y-12395200I-50000J0D01*
G01*
X17385500Y-12649200D02*
G75*
G03X17385500Y-12649200I-50000J0D01*
G01*
X17385500Y-12903200D02*
G75*
G03X17385500Y-12903200I-50000J0D01*
G01*
X17385500Y-13157200D02*
G75*
G03X17385500Y-13157200I-50000J0D01*
G01*
X17385500Y-13411200D02*
G75*
G03X17385500Y-13411200I-50000J0D01*
G01*
X17385500Y-13665200D02*
G75*
G03X17385500Y-13665200I-50000J0D01*
G01*
X17385500Y-13919200D02*
G75*
G03X17385500Y-13919200I-50000J0D01*
G01*
X17385500Y-14173200D02*
G75*
G03X17385500Y-14173200I-50000J0D01*
G01*
X17639500Y-12395200D02*
G75*
G03X17639500Y-12395200I-50000J0D01*
G01*
X17639500Y-12649200D02*
G75*
G03X17639500Y-12649200I-50000J0D01*
G01*
X17639500Y-12903200D02*
G75*
G03X17639500Y-12903200I-50000J0D01*
G01*
X17639500Y-13157200D02*
G75*
G03X17639500Y-13157200I-50000J0D01*
G01*
X17639500Y-13411200D02*
G75*
G03X17639500Y-13411200I-50000J0D01*
G01*
X17639500Y-13665200D02*
G75*
G03X17639500Y-13665200I-50000J0D01*
G01*
X17639500Y-13919200D02*
G75*
G03X17639500Y-13919200I-50000J0D01*
G01*
X17639500Y-14173200D02*
G75*
G03X17639500Y-14173200I-50000J0D01*
G01*
X13054800Y-12395200D02*
G75*
G03X13054800Y-12395200I-50000J0D01*
G01*
X13054800Y-12649200D02*
G75*
G03X13054800Y-12649200I-50000J0D01*
G01*
X13054800Y-12903200D02*
G75*
G03X13054800Y-12903200I-50000J0D01*
G01*
X13054800Y-13157200D02*
G75*
G03X13054800Y-13157200I-50000J0D01*
G01*
X13054800Y-13411200D02*
G75*
G03X13054800Y-13411200I-50000J0D01*
G01*
X13054800Y-13665200D02*
G75*
G03X13054800Y-13665200I-50000J0D01*
G01*
X13054800Y-13919200D02*
G75*
G03X13054800Y-13919200I-50000J0D01*
G01*
X13054800Y-14173200D02*
G75*
G03X13054800Y-14173200I-50000J0D01*
G01*
X13308800Y-12395200D02*
G75*
G03X13308800Y-12395200I-50000J0D01*
G01*
X13308800Y-12649200D02*
G75*
G03X13308800Y-12649200I-50000J0D01*
G01*
X13308800Y-12903200D02*
G75*
G03X13308800Y-12903200I-50000J0D01*
G01*
X13308800Y-13157200D02*
G75*
G03X13308800Y-13157200I-50000J0D01*
G01*
X13308800Y-13411200D02*
G75*
G03X13308800Y-13411200I-50000J0D01*
G01*
X13308800Y-13665200D02*
G75*
G03X13308800Y-13665200I-50000J0D01*
G01*
X13308800Y-13919200D02*
G75*
G03X13308800Y-13919200I-50000J0D01*
G01*
X13308800Y-14173200D02*
G75*
G03X13308800Y-14173200I-50000J0D01*
G01*
X18465000Y-15011400D02*
G75*
G03X18465000Y-15011400I-50000J0D01*
G01*
X18465000Y-15265400D02*
G75*
G03X18465000Y-15265400I-50000J0D01*
G01*
X18719000Y-15011400D02*
G75*
G03X18719000Y-15011400I-50000J0D01*
G01*
X18719000Y-15265400D02*
G75*
G03X18719000Y-15265400I-50000J0D01*
G01*
X18973000Y-15011400D02*
G75*
G03X18973000Y-15011400I-50000J0D01*
G01*
X18973000Y-15265400D02*
G75*
G03X18973000Y-15265400I-50000J0D01*
G01*
X19227000Y-15011400D02*
G75*
G03X19227000Y-15011400I-50000J0D01*
G01*
X19227000Y-15265400D02*
G75*
G03X19227000Y-15265400I-50000J0D01*
G01*
X19481000Y-15011400D02*
G75*
G03X19481000Y-15011400I-50000J0D01*
G01*
X19481000Y-15265400D02*
G75*
G03X19481000Y-15265400I-50000J0D01*
G01*
X19735000Y-15011400D02*
G75*
G03X19735000Y-15011400I-50000J0D01*
G01*
X19735000Y-15265400D02*
G75*
G03X19735000Y-15265400I-50000J0D01*
G01*
X19989000Y-15011400D02*
G75*
G03X19989000Y-15011400I-50000J0D01*
G01*
X19989000Y-15265400D02*
G75*
G03X19989000Y-15265400I-50000J0D01*
G01*
X20243000Y-15011400D02*
G75*
G03X20243000Y-15011400I-50000J0D01*
G01*
X20243000Y-15265400D02*
G75*
G03X20243000Y-15265400I-50000J0D01*
G01*
X17385500Y-7620000D02*
G75*
G03X17385500Y-7620000I-50000J0D01*
G01*
X17385500Y-7874000D02*
G75*
G03X17385500Y-7874000I-50000J0D01*
G01*
X17385500Y-8128000D02*
G75*
G03X17385500Y-8128000I-50000J0D01*
G01*
X17385500Y-8382000D02*
G75*
G03X17385500Y-8382000I-50000J0D01*
G01*
X17385500Y-8636000D02*
G75*
G03X17385500Y-8636000I-50000J0D01*
G01*
X17385500Y-8890000D02*
G75*
G03X17385500Y-8890000I-50000J0D01*
G01*
X17385500Y-9144000D02*
G75*
G03X17385500Y-9144000I-50000J0D01*
G01*
X17385500Y-9398000D02*
G75*
G03X17385500Y-9398000I-50000J0D01*
G01*
X17639500Y-7620000D02*
G75*
G03X17639500Y-7620000I-50000J0D01*
G01*
X17639500Y-7874000D02*
G75*
G03X17639500Y-7874000I-50000J0D01*
G01*
X17639500Y-8128000D02*
G75*
G03X17639500Y-8128000I-50000J0D01*
G01*
X17639500Y-8382000D02*
G75*
G03X17639500Y-8382000I-50000J0D01*
G01*
X17639500Y-8636000D02*
G75*
G03X17639500Y-8636000I-50000J0D01*
G01*
X17639500Y-8890000D02*
G75*
G03X17639500Y-8890000I-50000J0D01*
G01*
X17639500Y-9144000D02*
G75*
G03X17639500Y-9144000I-50000J0D01*
G01*
X17639500Y-9398000D02*
G75*
G03X17639500Y-9398000I-50000J0D01*
G01*
D11*
X12963728Y-16084014D02*
X12963728Y-15784014D01*
X13035157Y-15784014D01*
X13078014Y-15798300D01*
X13106586Y-15826871D01*
X13120871Y-15855443D01*
X13135157Y-15912586D01*
X13135157Y-15955443D01*
X13120871Y-16012586D01*
X13106586Y-16041157D01*
X13078014Y-16069729D01*
X13035157Y-16084014D01*
X12963728Y-16084014D01*
X13263728Y-16084014D02*
X13263728Y-15884014D01*
X13263728Y-15941157D02*
X13278014Y-15912586D01*
X13292300Y-15898300D01*
X13320871Y-15884014D01*
X13349443Y-15884014D01*
X13449443Y-16084014D02*
X13449443Y-15884014D01*
X13449443Y-15784014D02*
X13435157Y-15798300D01*
X13449443Y-15812586D01*
X13463728Y-15798300D01*
X13449443Y-15784014D01*
X13449443Y-15812586D01*
X13635157Y-16084014D02*
X13606586Y-16069729D01*
X13592300Y-16041157D01*
X13592300Y-15784014D01*
X13792300Y-16084014D02*
X13763728Y-16069729D01*
X13749443Y-16041157D01*
X13749443Y-15784014D01*
X14135157Y-16084014D02*
X14135157Y-15784014D01*
X14235157Y-15998300D01*
X14335157Y-15784014D01*
X14335157Y-16084014D01*
X14606586Y-16084014D02*
X14606586Y-15926871D01*
X14592300Y-15898300D01*
X14563728Y-15884014D01*
X14506586Y-15884014D01*
X14478014Y-15898300D01*
X14606586Y-16069729D02*
X14578014Y-16084014D01*
X14506586Y-16084014D01*
X14478014Y-16069729D01*
X14463728Y-16041157D01*
X14463728Y-16012586D01*
X14478014Y-15984014D01*
X14506586Y-15969729D01*
X14578014Y-15969729D01*
X14606586Y-15955443D01*
X14749443Y-15884014D02*
X14749443Y-16184014D01*
X14749443Y-15898300D02*
X14778014Y-15884014D01*
X14835157Y-15884014D01*
X14863728Y-15898300D01*
X14878014Y-15912586D01*
X14892300Y-15941157D01*
X14892300Y-16026871D01*
X14878014Y-16055443D01*
X14863728Y-16069729D01*
X14835157Y-16084014D01*
X14778014Y-16084014D01*
X14749443Y-16069729D01*
X15020871Y-16055443D02*
X15035157Y-16069729D01*
X15020871Y-16084014D01*
X15006586Y-16069729D01*
X15020871Y-16055443D01*
X15020871Y-16084014D01*
X15020871Y-15898300D02*
X15035157Y-15912586D01*
X15020871Y-15926871D01*
X15006586Y-15912586D01*
X15020871Y-15898300D01*
X15020871Y-15926871D01*
X12637300Y-16558300D02*
X12677300Y-16598300D01*
X12677300Y-16558300D02*
X12637300Y-16598300D01*
X13020871Y-16414014D02*
X13049443Y-16414014D01*
X13078014Y-16428300D01*
X13092300Y-16442586D01*
X13106586Y-16471157D01*
X13120871Y-16528300D01*
X13120871Y-16599729D01*
X13106586Y-16656871D01*
X13092300Y-16685443D01*
X13078014Y-16699729D01*
X13049443Y-16714014D01*
X13020871Y-16714014D01*
X12992300Y-16699729D01*
X12978014Y-16685443D01*
X12963728Y-16656871D01*
X12949443Y-16599729D01*
X12949443Y-16528300D01*
X12963728Y-16471157D01*
X12978014Y-16442586D01*
X12992300Y-16428300D01*
X13020871Y-16414014D01*
X13249443Y-16685443D02*
X13263728Y-16699729D01*
X13249443Y-16714014D01*
X13235157Y-16699729D01*
X13249443Y-16685443D01*
X13249443Y-16714014D01*
X13520871Y-16514014D02*
X13520871Y-16714014D01*
X13449443Y-16399729D02*
X13378014Y-16614014D01*
X13563728Y-16614014D01*
X13735157Y-16414014D02*
X13763728Y-16414014D01*
X13792300Y-16428300D01*
X13806586Y-16442586D01*
X13820871Y-16471157D01*
X13835157Y-16528300D01*
X13835157Y-16599729D01*
X13820871Y-16656871D01*
X13806586Y-16685443D01*
X13792300Y-16699729D01*
X13763728Y-16714014D01*
X13735157Y-16714014D01*
X13706586Y-16699729D01*
X13692300Y-16685443D01*
X13678014Y-16656871D01*
X13663728Y-16599729D01*
X13663728Y-16528300D01*
X13678014Y-16471157D01*
X13692300Y-16442586D01*
X13706586Y-16428300D01*
X13735157Y-16414014D01*
X13963728Y-16714014D02*
X13963728Y-16514014D01*
X13963728Y-16542586D02*
X13978014Y-16528300D01*
X14006586Y-16514014D01*
X14049443Y-16514014D01*
X14078014Y-16528300D01*
X14092300Y-16556871D01*
X14092300Y-16714014D01*
X14092300Y-16556871D02*
X14106586Y-16528300D01*
X14135157Y-16514014D01*
X14178014Y-16514014D01*
X14206586Y-16528300D01*
X14220871Y-16556871D01*
X14220871Y-16714014D01*
X14363728Y-16714014D02*
X14363728Y-16514014D01*
X14363728Y-16542586D02*
X14378014Y-16528300D01*
X14406586Y-16514014D01*
X14449443Y-16514014D01*
X14478014Y-16528300D01*
X14492300Y-16556871D01*
X14492300Y-16714014D01*
X14492300Y-16556871D02*
X14506586Y-16528300D01*
X14535157Y-16514014D01*
X14578014Y-16514014D01*
X14606586Y-16528300D01*
X14620871Y-16556871D01*
X14620871Y-16714014D01*
X15206586Y-16399729D02*
X14949443Y-16785443D01*
X15592300Y-16414014D02*
X15620871Y-16414014D01*
X15649443Y-16428300D01*
X15663728Y-16442586D01*
X15678014Y-16471157D01*
X15692300Y-16528300D01*
X15692300Y-16599729D01*
X15678014Y-16656871D01*
X15663728Y-16685443D01*
X15649443Y-16699729D01*
X15620871Y-16714014D01*
X15592300Y-16714014D01*
X15563728Y-16699729D01*
X15549443Y-16685443D01*
X15535157Y-16656871D01*
X15520871Y-16599729D01*
X15520871Y-16528300D01*
X15535157Y-16471157D01*
X15549443Y-16442586D01*
X15563728Y-16428300D01*
X15592300Y-16414014D01*
X15820871Y-16685443D02*
X15835157Y-16699729D01*
X15820871Y-16714014D01*
X15806586Y-16699729D01*
X15820871Y-16685443D01*
X15820871Y-16714014D01*
X16020871Y-16414014D02*
X16049443Y-16414014D01*
X16078014Y-16428300D01*
X16092300Y-16442586D01*
X16106586Y-16471157D01*
X16120871Y-16528300D01*
X16120871Y-16599729D01*
X16106586Y-16656871D01*
X16092300Y-16685443D01*
X16078014Y-16699729D01*
X16049443Y-16714014D01*
X16020871Y-16714014D01*
X15992300Y-16699729D01*
X15978014Y-16685443D01*
X15963728Y-16656871D01*
X15949443Y-16599729D01*
X15949443Y-16528300D01*
X15963728Y-16471157D01*
X15978014Y-16442586D01*
X15992300Y-16428300D01*
X16020871Y-16414014D01*
X16406586Y-16714014D02*
X16235157Y-16714014D01*
X16320871Y-16714014D02*
X16320871Y-16414014D01*
X16292300Y-16456871D01*
X16263728Y-16485443D01*
X16235157Y-16499729D01*
X16663728Y-16414014D02*
X16606586Y-16414014D01*
X16578014Y-16428300D01*
X16563728Y-16442586D01*
X16535157Y-16485443D01*
X16520871Y-16542586D01*
X16520871Y-16656871D01*
X16535157Y-16685443D01*
X16549443Y-16699729D01*
X16578014Y-16714014D01*
X16635157Y-16714014D01*
X16663728Y-16699729D01*
X16678014Y-16685443D01*
X16692300Y-16656871D01*
X16692300Y-16585443D01*
X16678014Y-16556871D01*
X16663728Y-16542586D01*
X16635157Y-16528300D01*
X16578014Y-16528300D01*
X16549443Y-16542586D01*
X16535157Y-16556871D01*
X16520871Y-16585443D01*
X16806586Y-16414014D02*
X16806586Y-16471157D01*
X16920871Y-16414014D02*
X16920871Y-16471157D01*
X17363728Y-16828300D02*
X17349443Y-16814014D01*
X17320871Y-16771157D01*
X17306586Y-16742586D01*
X17292300Y-16699729D01*
X17278014Y-16628300D01*
X17278014Y-16571157D01*
X17292300Y-16499729D01*
X17306586Y-16456871D01*
X17320871Y-16428300D01*
X17349443Y-16385443D01*
X17363728Y-16371157D01*
X17520871Y-16542586D02*
X17492300Y-16528300D01*
X17478014Y-16514014D01*
X17463728Y-16485443D01*
X17463728Y-16471157D01*
X17478014Y-16442586D01*
X17492300Y-16428300D01*
X17520871Y-16414014D01*
X17578014Y-16414014D01*
X17606586Y-16428300D01*
X17620871Y-16442586D01*
X17635157Y-16471157D01*
X17635157Y-16485443D01*
X17620871Y-16514014D01*
X17606586Y-16528300D01*
X17578014Y-16542586D01*
X17520871Y-16542586D01*
X17492300Y-16556871D01*
X17478014Y-16571157D01*
X17463728Y-16599729D01*
X17463728Y-16656871D01*
X17478014Y-16685443D01*
X17492300Y-16699729D01*
X17520871Y-16714014D01*
X17578014Y-16714014D01*
X17606586Y-16699729D01*
X17620871Y-16685443D01*
X17635157Y-16656871D01*
X17635157Y-16599729D01*
X17620871Y-16571157D01*
X17606586Y-16556871D01*
X17578014Y-16542586D01*
X17820871Y-16414014D02*
X17849443Y-16414014D01*
X17878014Y-16428300D01*
X17892300Y-16442586D01*
X17906586Y-16471157D01*
X17920871Y-16528300D01*
X17920871Y-16599729D01*
X17906586Y-16656871D01*
X17892300Y-16685443D01*
X17878014Y-16699729D01*
X17849443Y-16714014D01*
X17820871Y-16714014D01*
X17792300Y-16699729D01*
X17778014Y-16685443D01*
X17763728Y-16656871D01*
X17749443Y-16599729D01*
X17749443Y-16528300D01*
X17763728Y-16471157D01*
X17778014Y-16442586D01*
X17792300Y-16428300D01*
X17820871Y-16414014D01*
X18278014Y-16714014D02*
X18278014Y-16414014D01*
X18406586Y-16714014D02*
X18406586Y-16556871D01*
X18392300Y-16528300D01*
X18363728Y-16514014D01*
X18320871Y-16514014D01*
X18292300Y-16528300D01*
X18278014Y-16542586D01*
X18592300Y-16714014D02*
X18563728Y-16699729D01*
X18549443Y-16685443D01*
X18535157Y-16656871D01*
X18535157Y-16571157D01*
X18549443Y-16542586D01*
X18563728Y-16528300D01*
X18592300Y-16514014D01*
X18635157Y-16514014D01*
X18663728Y-16528300D01*
X18678014Y-16542586D01*
X18692300Y-16571157D01*
X18692300Y-16656871D01*
X18678014Y-16685443D01*
X18663728Y-16699729D01*
X18635157Y-16714014D01*
X18592300Y-16714014D01*
X18863728Y-16714014D02*
X18835157Y-16699729D01*
X18820871Y-16671157D01*
X18820871Y-16414014D01*
X19092300Y-16699729D02*
X19063728Y-16714014D01*
X19006586Y-16714014D01*
X18978014Y-16699729D01*
X18963728Y-16671157D01*
X18963728Y-16556871D01*
X18978014Y-16528300D01*
X19006586Y-16514014D01*
X19063728Y-16514014D01*
X19092300Y-16528300D01*
X19106586Y-16556871D01*
X19106586Y-16585443D01*
X18963728Y-16614014D01*
X19220871Y-16699729D02*
X19249443Y-16714014D01*
X19306586Y-16714014D01*
X19335157Y-16699729D01*
X19349443Y-16671157D01*
X19349443Y-16656871D01*
X19335157Y-16628300D01*
X19306586Y-16614014D01*
X19263728Y-16614014D01*
X19235157Y-16599729D01*
X19220871Y-16571157D01*
X19220871Y-16556871D01*
X19235157Y-16528300D01*
X19263728Y-16514014D01*
X19306586Y-16514014D01*
X19335157Y-16528300D01*
X19449443Y-16828300D02*
X19463728Y-16814014D01*
X19492300Y-16771157D01*
X19506586Y-16742586D01*
X19520871Y-16699729D01*
X19535157Y-16628300D01*
X19535157Y-16571157D01*
X19520871Y-16499729D01*
X19506586Y-16456871D01*
X19492300Y-16428300D01*
X19463728Y-16385443D01*
X19449443Y-16371157D01*
X12677300Y-16974300D02*
G75*
G03X12677300Y-16974300I-50000J0D01*
G01*
X13120871Y-17110014D02*
X12949443Y-17110014D01*
X13035157Y-17110014D02*
X13035157Y-16810014D01*
X13006586Y-16852872D01*
X12978014Y-16881443D01*
X12949443Y-16895729D01*
X13249443Y-17081443D02*
X13263728Y-17095729D01*
X13249443Y-17110014D01*
X13235157Y-17095729D01*
X13249443Y-17081443D01*
X13249443Y-17110014D01*
X13449443Y-16810014D02*
X13478014Y-16810014D01*
X13506586Y-16824300D01*
X13520871Y-16838586D01*
X13535157Y-16867157D01*
X13549443Y-16924300D01*
X13549443Y-16995729D01*
X13535157Y-17052872D01*
X13520871Y-17081443D01*
X13506586Y-17095729D01*
X13478014Y-17110014D01*
X13449443Y-17110014D01*
X13420871Y-17095729D01*
X13406586Y-17081443D01*
X13392300Y-17052872D01*
X13378014Y-16995729D01*
X13378014Y-16924300D01*
X13392300Y-16867157D01*
X13406586Y-16838586D01*
X13420871Y-16824300D01*
X13449443Y-16810014D01*
X13735157Y-16810014D02*
X13763728Y-16810014D01*
X13792300Y-16824300D01*
X13806586Y-16838586D01*
X13820871Y-16867157D01*
X13835157Y-16924300D01*
X13835157Y-16995729D01*
X13820871Y-17052872D01*
X13806586Y-17081443D01*
X13792300Y-17095729D01*
X13763728Y-17110014D01*
X13735157Y-17110014D01*
X13706586Y-17095729D01*
X13692300Y-17081443D01*
X13678014Y-17052872D01*
X13663728Y-16995729D01*
X13663728Y-16924300D01*
X13678014Y-16867157D01*
X13692300Y-16838586D01*
X13706586Y-16824300D01*
X13735157Y-16810014D01*
X13963728Y-17110014D02*
X13963728Y-16910014D01*
X13963728Y-16938586D02*
X13978014Y-16924300D01*
X14006586Y-16910014D01*
X14049443Y-16910014D01*
X14078014Y-16924300D01*
X14092300Y-16952872D01*
X14092300Y-17110014D01*
X14092300Y-16952872D02*
X14106586Y-16924300D01*
X14135157Y-16910014D01*
X14178014Y-16910014D01*
X14206586Y-16924300D01*
X14220871Y-16952872D01*
X14220871Y-17110014D01*
X14363728Y-17110014D02*
X14363728Y-16910014D01*
X14363728Y-16938586D02*
X14378014Y-16924300D01*
X14406586Y-16910014D01*
X14449443Y-16910014D01*
X14478014Y-16924300D01*
X14492300Y-16952872D01*
X14492300Y-17110014D01*
X14492300Y-16952872D02*
X14506586Y-16924300D01*
X14535157Y-16910014D01*
X14578014Y-16910014D01*
X14606586Y-16924300D01*
X14620871Y-16952872D01*
X14620871Y-17110014D01*
X15206586Y-16795729D02*
X14949443Y-17181443D01*
X15592300Y-16810014D02*
X15620871Y-16810014D01*
X15649443Y-16824300D01*
X15663728Y-16838586D01*
X15678014Y-16867157D01*
X15692300Y-16924300D01*
X15692300Y-16995729D01*
X15678014Y-17052872D01*
X15663728Y-17081443D01*
X15649443Y-17095729D01*
X15620871Y-17110014D01*
X15592300Y-17110014D01*
X15563728Y-17095729D01*
X15549443Y-17081443D01*
X15535157Y-17052872D01*
X15520871Y-16995729D01*
X15520871Y-16924300D01*
X15535157Y-16867157D01*
X15549443Y-16838586D01*
X15563728Y-16824300D01*
X15592300Y-16810014D01*
X15820871Y-17081443D02*
X15835157Y-17095729D01*
X15820871Y-17110014D01*
X15806586Y-17095729D01*
X15820871Y-17081443D01*
X15820871Y-17110014D01*
X16020871Y-16810014D02*
X16049443Y-16810014D01*
X16078014Y-16824300D01*
X16092300Y-16838586D01*
X16106586Y-16867157D01*
X16120871Y-16924300D01*
X16120871Y-16995729D01*
X16106586Y-17052872D01*
X16092300Y-17081443D01*
X16078014Y-17095729D01*
X16049443Y-17110014D01*
X16020871Y-17110014D01*
X15992300Y-17095729D01*
X15978014Y-17081443D01*
X15963728Y-17052872D01*
X15949443Y-16995729D01*
X15949443Y-16924300D01*
X15963728Y-16867157D01*
X15978014Y-16838586D01*
X15992300Y-16824300D01*
X16020871Y-16810014D01*
X16220871Y-16810014D02*
X16406586Y-16810014D01*
X16306586Y-16924300D01*
X16349443Y-16924300D01*
X16378014Y-16938586D01*
X16392300Y-16952872D01*
X16406586Y-16981443D01*
X16406586Y-17052872D01*
X16392300Y-17081443D01*
X16378014Y-17095729D01*
X16349443Y-17110014D01*
X16263728Y-17110014D01*
X16235157Y-17095729D01*
X16220871Y-17081443D01*
X16549443Y-17110014D02*
X16606586Y-17110014D01*
X16635157Y-17095729D01*
X16649443Y-17081443D01*
X16678014Y-17038586D01*
X16692300Y-16981443D01*
X16692300Y-16867157D01*
X16678014Y-16838586D01*
X16663728Y-16824300D01*
X16635157Y-16810014D01*
X16578014Y-16810014D01*
X16549443Y-16824300D01*
X16535157Y-16838586D01*
X16520871Y-16867157D01*
X16520871Y-16938586D01*
X16535157Y-16967157D01*
X16549443Y-16981443D01*
X16578014Y-16995729D01*
X16635157Y-16995729D01*
X16663728Y-16981443D01*
X16678014Y-16967157D01*
X16692300Y-16938586D01*
X16806586Y-16810014D02*
X16806586Y-16867157D01*
X16920871Y-16810014D02*
X16920871Y-16867157D01*
X17363728Y-17224300D02*
X17349443Y-17210014D01*
X17320871Y-17167157D01*
X17306586Y-17138586D01*
X17292300Y-17095729D01*
X17278014Y-17024300D01*
X17278014Y-16967157D01*
X17292300Y-16895729D01*
X17306586Y-16852872D01*
X17320871Y-16824300D01*
X17349443Y-16781443D01*
X17363728Y-16767157D01*
X17463728Y-16838586D02*
X17478014Y-16824300D01*
X17506586Y-16810014D01*
X17578014Y-16810014D01*
X17606586Y-16824300D01*
X17620871Y-16838586D01*
X17635157Y-16867157D01*
X17635157Y-16895729D01*
X17620871Y-16938586D01*
X17449443Y-17110014D01*
X17635157Y-17110014D01*
X17906586Y-16810014D02*
X17763728Y-16810014D01*
X17749443Y-16952872D01*
X17763728Y-16938586D01*
X17792300Y-16924300D01*
X17863728Y-16924300D01*
X17892300Y-16938586D01*
X17906586Y-16952872D01*
X17920871Y-16981443D01*
X17920871Y-17052872D01*
X17906586Y-17081443D01*
X17892300Y-17095729D01*
X17863728Y-17110014D01*
X17792300Y-17110014D01*
X17763728Y-17095729D01*
X17749443Y-17081443D01*
X18178014Y-16810014D02*
X18120871Y-16810014D01*
X18092300Y-16824300D01*
X18078014Y-16838586D01*
X18049443Y-16881443D01*
X18035157Y-16938586D01*
X18035157Y-17052872D01*
X18049443Y-17081443D01*
X18063728Y-17095729D01*
X18092300Y-17110014D01*
X18149443Y-17110014D01*
X18178014Y-17095729D01*
X18192300Y-17081443D01*
X18206586Y-17052872D01*
X18206586Y-16981443D01*
X18192300Y-16952872D01*
X18178014Y-16938586D01*
X18149443Y-16924300D01*
X18092300Y-16924300D01*
X18063728Y-16938586D01*
X18049443Y-16952872D01*
X18035157Y-16981443D01*
X18563728Y-17110014D02*
X18563728Y-16810014D01*
X18692300Y-17110014D02*
X18692300Y-16952872D01*
X18678014Y-16924300D01*
X18649443Y-16910014D01*
X18606586Y-16910014D01*
X18578014Y-16924300D01*
X18563728Y-16938586D01*
X18878014Y-17110014D02*
X18849443Y-17095729D01*
X18835157Y-17081443D01*
X18820871Y-17052872D01*
X18820871Y-16967157D01*
X18835157Y-16938586D01*
X18849443Y-16924300D01*
X18878014Y-16910014D01*
X18920871Y-16910014D01*
X18949443Y-16924300D01*
X18963728Y-16938586D01*
X18978014Y-16967157D01*
X18978014Y-17052872D01*
X18963728Y-17081443D01*
X18949443Y-17095729D01*
X18920871Y-17110014D01*
X18878014Y-17110014D01*
X19149443Y-17110014D02*
X19120871Y-17095729D01*
X19106586Y-17067157D01*
X19106586Y-16810014D01*
X19378014Y-17095729D02*
X19349443Y-17110014D01*
X19292300Y-17110014D01*
X19263728Y-17095729D01*
X19249443Y-17067157D01*
X19249443Y-16952872D01*
X19263728Y-16924300D01*
X19292300Y-16910014D01*
X19349443Y-16910014D01*
X19378014Y-16924300D01*
X19392300Y-16952872D01*
X19392300Y-16981443D01*
X19249443Y-17010014D01*
X19506586Y-17095729D02*
X19535157Y-17110014D01*
X19592300Y-17110014D01*
X19620871Y-17095729D01*
X19635157Y-17067157D01*
X19635157Y-17052872D01*
X19620871Y-17024300D01*
X19592300Y-17010014D01*
X19549443Y-17010014D01*
X19520871Y-16995729D01*
X19506586Y-16967157D01*
X19506586Y-16952872D01*
X19520871Y-16924300D01*
X19549443Y-16910014D01*
X19592300Y-16910014D01*
X19620871Y-16924300D01*
X19735157Y-17224300D02*
X19749443Y-17210014D01*
X19778014Y-17167157D01*
X19792300Y-17138586D01*
X19806586Y-17095729D01*
X19820871Y-17024300D01*
X19820871Y-16967157D01*
X19806586Y-16895729D01*
X19792300Y-16852872D01*
X19778014Y-16824300D01*
X19749443Y-16781443D01*
X19735157Y-16767157D01*
M02*
