M48
;DRILL file {KiCad 5.0.2+dfsg1-1~bpo9+1} date ven. 05 juil. 2019 22:25:50 CEST
;FORMAT={-:-/ absolute / inch / decimal}
FMAT,2
INCH,TZ
T1C0.0157
T2C0.0394
%
G90
G05
T1
X5.32Y-3.845
X5.41Y-3.47
X5.41Y-4.095
X5.415Y-2.475
X5.44Y-3.51
X5.4444Y-3.14
X5.475Y-3.765
X5.52Y-3.735
X5.75Y-3.88
X5.805Y-2.88
X5.825Y-3.7
X5.845Y-3.925
X5.86Y-2.885
X5.8752Y-3.7152
X5.895Y-3.925
X5.91Y-2.74
X5.95Y-3.77
X6.005Y-3.8
X6.225Y-3.205
X6.225Y-3.245
T2
X5.545Y-4.03
X5.545Y-4.13
X5.645Y-4.03
X5.645Y-4.13
X5.745Y-4.03
X5.745Y-4.13
X5.845Y-4.03
X5.845Y-4.13
X5.945Y-4.03
X5.945Y-4.13
X6.045Y-4.03
X6.045Y-4.13
X6.145Y-4.03
X6.145Y-4.13
X6.245Y-4.03
X6.245Y-4.13
X5.545Y-2.565
X5.545Y-2.665
X5.645Y-2.565
X5.645Y-2.665
X5.745Y-2.565
X5.745Y-2.665
X5.845Y-2.565
X5.845Y-2.665
X5.945Y-2.565
X5.945Y-2.665
X6.045Y-2.565
X6.045Y-2.665
X6.145Y-2.565
X6.145Y-2.665
X6.245Y-2.565
X6.245Y-2.665
X6.435Y-3.
X6.435Y-3.1
X6.435Y-3.2
X6.435Y-3.3
X6.435Y-3.4
X6.435Y-3.5
X6.435Y-3.6
X6.435Y-3.7
X6.535Y-3.
X6.535Y-3.1
X6.535Y-3.2
X6.535Y-3.3
X6.535Y-3.4
X6.535Y-3.5
X6.535Y-3.6
X6.535Y-3.7
X5.12Y-3.
X5.12Y-3.1
X5.12Y-3.2
X5.12Y-3.3
X5.12Y-3.4
X5.12Y-3.5
X5.12Y-3.6
X5.12Y-3.7
X5.22Y-3.
X5.22Y-3.1
X5.22Y-3.2
X5.22Y-3.3
X5.22Y-3.4
X5.22Y-3.5
X5.22Y-3.6
X5.22Y-3.7
T0
M30
