G04 #@! TF.GenerationSoftware,KiCad,Pcbnew,5.0.2+dfsg1-1~bpo9+1*
G04 #@! TF.CreationDate,2019-07-05T22:25:26+02:00*
G04 #@! TF.ProjectId,PIC32MZTOMX,50494333-324d-45a5-944f-4d582e6b6963,rev?*
G04 #@! TF.SameCoordinates,Original*
G04 #@! TF.FileFunction,Legend,Top*
G04 #@! TF.FilePolarity,Positive*
%FSLAX46Y46*%
G04 Gerber Fmt 4.6, Leading zero omitted, Abs format (unit mm)*
G04 Created by KiCad (PCBNEW 5.0.2+dfsg1-1~bpo9+1) date ven. 05 juil. 2019 22:25:26 CEST*
%MOMM*%
%LPD*%
G01*
G04 APERTURE LIST*
%ADD10C,0.300000*%
%ADD11C,0.250000*%
%ADD12C,0.120000*%
%ADD13C,0.150000*%
G04 APERTURE END LIST*
D10*
X140759571Y-92244571D02*
X139259571Y-92244571D01*
X139259571Y-91673142D01*
X139331000Y-91530285D01*
X139402428Y-91458857D01*
X139545285Y-91387428D01*
X139759571Y-91387428D01*
X139902428Y-91458857D01*
X139973857Y-91530285D01*
X140045285Y-91673142D01*
X140045285Y-92244571D01*
X140759571Y-90744571D02*
X139259571Y-90744571D01*
X140616714Y-89173142D02*
X140688142Y-89244571D01*
X140759571Y-89458857D01*
X140759571Y-89601714D01*
X140688142Y-89816000D01*
X140545285Y-89958857D01*
X140402428Y-90030285D01*
X140116714Y-90101714D01*
X139902428Y-90101714D01*
X139616714Y-90030285D01*
X139473857Y-89958857D01*
X139331000Y-89816000D01*
X139259571Y-89601714D01*
X139259571Y-89458857D01*
X139331000Y-89244571D01*
X139402428Y-89173142D01*
X139259571Y-88673142D02*
X139259571Y-87744571D01*
X139831000Y-88244571D01*
X139831000Y-88030285D01*
X139902428Y-87887428D01*
X139973857Y-87816000D01*
X140116714Y-87744571D01*
X140473857Y-87744571D01*
X140616714Y-87816000D01*
X140688142Y-87887428D01*
X140759571Y-88030285D01*
X140759571Y-88458857D01*
X140688142Y-88601714D01*
X140616714Y-88673142D01*
X139402428Y-87173142D02*
X139331000Y-87101714D01*
X139259571Y-86958857D01*
X139259571Y-86601714D01*
X139331000Y-86458857D01*
X139402428Y-86387428D01*
X139545285Y-86316000D01*
X139688142Y-86316000D01*
X139902428Y-86387428D01*
X140759571Y-87244571D01*
X140759571Y-86316000D01*
X140759571Y-85673142D02*
X139259571Y-85673142D01*
X140331000Y-85173142D01*
X139259571Y-84673142D01*
X140759571Y-84673142D01*
X139259571Y-84101714D02*
X139259571Y-83101714D01*
X140759571Y-84101714D01*
X140759571Y-83101714D01*
X139402428Y-82601714D02*
X139331000Y-82530285D01*
X139259571Y-82387428D01*
X139259571Y-82030285D01*
X139331000Y-81887428D01*
X139402428Y-81816000D01*
X139545285Y-81744571D01*
X139688142Y-81744571D01*
X139902428Y-81816000D01*
X140759571Y-82673142D01*
X140759571Y-81744571D01*
X139259571Y-80816000D02*
X139259571Y-80673142D01*
X139331000Y-80530285D01*
X139402428Y-80458857D01*
X139545285Y-80387428D01*
X139831000Y-80316000D01*
X140188142Y-80316000D01*
X140473857Y-80387428D01*
X140616714Y-80458857D01*
X140688142Y-80530285D01*
X140759571Y-80673142D01*
X140759571Y-80816000D01*
X140688142Y-80958857D01*
X140616714Y-81030285D01*
X140473857Y-81101714D01*
X140188142Y-81173142D01*
X139831000Y-81173142D01*
X139545285Y-81101714D01*
X139402428Y-81030285D01*
X139331000Y-80958857D01*
X139259571Y-80816000D01*
X139759571Y-79030285D02*
X140759571Y-79030285D01*
X139188142Y-79387428D02*
X140259571Y-79744571D01*
X140259571Y-78816000D01*
X139902428Y-78030285D02*
X139831000Y-78173142D01*
X139759571Y-78244571D01*
X139616714Y-78316000D01*
X139545285Y-78316000D01*
X139402428Y-78244571D01*
X139331000Y-78173142D01*
X139259571Y-78030285D01*
X139259571Y-77744571D01*
X139331000Y-77601714D01*
X139402428Y-77530285D01*
X139545285Y-77458857D01*
X139616714Y-77458857D01*
X139759571Y-77530285D01*
X139831000Y-77601714D01*
X139902428Y-77744571D01*
X139902428Y-78030285D01*
X139973857Y-78173142D01*
X140045285Y-78244571D01*
X140188142Y-78316000D01*
X140473857Y-78316000D01*
X140616714Y-78244571D01*
X140688142Y-78173142D01*
X140759571Y-78030285D01*
X140759571Y-77744571D01*
X140688142Y-77601714D01*
X140616714Y-77530285D01*
X140473857Y-77458857D01*
X140188142Y-77458857D01*
X140045285Y-77530285D01*
X139973857Y-77601714D01*
X139902428Y-77744571D01*
X139973857Y-76816000D02*
X139973857Y-76316000D01*
X140759571Y-76101714D02*
X140759571Y-76816000D01*
X139259571Y-76816000D01*
X139259571Y-76101714D01*
X139973857Y-74958857D02*
X139973857Y-75458857D01*
X140759571Y-75458857D02*
X139259571Y-75458857D01*
X139259571Y-74744571D01*
X162622571Y-73580571D02*
X162622571Y-73866285D01*
X162694000Y-74009142D01*
X162765428Y-74080571D01*
X162979714Y-74223428D01*
X163265428Y-74294857D01*
X163836857Y-74294857D01*
X163979714Y-74223428D01*
X164051142Y-74152000D01*
X164122571Y-74009142D01*
X164122571Y-73723428D01*
X164051142Y-73580571D01*
X163979714Y-73509142D01*
X163836857Y-73437714D01*
X163479714Y-73437714D01*
X163336857Y-73509142D01*
X163265428Y-73580571D01*
X163194000Y-73723428D01*
X163194000Y-74009142D01*
X163265428Y-74152000D01*
X163336857Y-74223428D01*
X163479714Y-74294857D01*
X162622571Y-72937714D02*
X162622571Y-72009142D01*
X163194000Y-72509142D01*
X163194000Y-72294857D01*
X163265428Y-72152000D01*
X163336857Y-72080571D01*
X163479714Y-72009142D01*
X163836857Y-72009142D01*
X163979714Y-72080571D01*
X164051142Y-72152000D01*
X164122571Y-72294857D01*
X164122571Y-72723428D01*
X164051142Y-72866285D01*
X163979714Y-72937714D01*
X165172571Y-73580571D02*
X165172571Y-73866285D01*
X165244000Y-74009142D01*
X165315428Y-74080571D01*
X165529714Y-74223428D01*
X165815428Y-74294857D01*
X166386857Y-74294857D01*
X166529714Y-74223428D01*
X166601142Y-74152000D01*
X166672571Y-74009142D01*
X166672571Y-73723428D01*
X166601142Y-73580571D01*
X166529714Y-73509142D01*
X166386857Y-73437714D01*
X166029714Y-73437714D01*
X165886857Y-73509142D01*
X165815428Y-73580571D01*
X165744000Y-73723428D01*
X165744000Y-74009142D01*
X165815428Y-74152000D01*
X165886857Y-74223428D01*
X166029714Y-74294857D01*
X165672571Y-72152000D02*
X166672571Y-72152000D01*
X165101142Y-72509142D02*
X166172571Y-72866285D01*
X166172571Y-71937714D01*
X161115428Y-102035571D02*
X161115428Y-103035571D01*
X160758285Y-101464142D02*
X160401142Y-102535571D01*
X161329714Y-102535571D01*
X161758285Y-101535571D02*
X162758285Y-101535571D01*
X162115428Y-103035571D01*
X161115428Y-104585571D02*
X161115428Y-105585571D01*
X160758285Y-104014142D02*
X160401142Y-105085571D01*
X161329714Y-105085571D01*
X162115428Y-104728428D02*
X161972571Y-104657000D01*
X161901142Y-104585571D01*
X161829714Y-104442714D01*
X161829714Y-104371285D01*
X161901142Y-104228428D01*
X161972571Y-104157000D01*
X162115428Y-104085571D01*
X162401142Y-104085571D01*
X162544000Y-104157000D01*
X162615428Y-104228428D01*
X162686857Y-104371285D01*
X162686857Y-104442714D01*
X162615428Y-104585571D01*
X162544000Y-104657000D01*
X162401142Y-104728428D01*
X162115428Y-104728428D01*
X161972571Y-104799857D01*
X161901142Y-104871285D01*
X161829714Y-105014142D01*
X161829714Y-105299857D01*
X161901142Y-105442714D01*
X161972571Y-105514142D01*
X162115428Y-105585571D01*
X162401142Y-105585571D01*
X162544000Y-105514142D01*
X162615428Y-105442714D01*
X162686857Y-105299857D01*
X162686857Y-105014142D01*
X162615428Y-104871285D01*
X162544000Y-104799857D01*
X162401142Y-104728428D01*
X136453714Y-101540571D02*
X137382285Y-101540571D01*
X136882285Y-102112000D01*
X137096571Y-102112000D01*
X137239428Y-102183428D01*
X137310857Y-102254857D01*
X137382285Y-102397714D01*
X137382285Y-102754857D01*
X137310857Y-102897714D01*
X137239428Y-102969142D01*
X137096571Y-103040571D01*
X136668000Y-103040571D01*
X136525142Y-102969142D01*
X136453714Y-102897714D01*
X137882285Y-101540571D02*
X138810857Y-101540571D01*
X138310857Y-102112000D01*
X138525142Y-102112000D01*
X138668000Y-102183428D01*
X138739428Y-102254857D01*
X138810857Y-102397714D01*
X138810857Y-102754857D01*
X138739428Y-102897714D01*
X138668000Y-102969142D01*
X138525142Y-103040571D01*
X138096571Y-103040571D01*
X137953714Y-102969142D01*
X137882285Y-102897714D01*
X129221571Y-97988285D02*
X129221571Y-97059714D01*
X129793000Y-97559714D01*
X129793000Y-97345428D01*
X129864428Y-97202571D01*
X129935857Y-97131142D01*
X130078714Y-97059714D01*
X130435857Y-97059714D01*
X130578714Y-97131142D01*
X130650142Y-97202571D01*
X130721571Y-97345428D01*
X130721571Y-97774000D01*
X130650142Y-97916857D01*
X130578714Y-97988285D01*
X129364428Y-96488285D02*
X129293000Y-96416857D01*
X129221571Y-96274000D01*
X129221571Y-95916857D01*
X129293000Y-95774000D01*
X129364428Y-95702571D01*
X129507285Y-95631142D01*
X129650142Y-95631142D01*
X129864428Y-95702571D01*
X130721571Y-96559714D01*
X130721571Y-95631142D01*
X131771571Y-97988285D02*
X131771571Y-97059714D01*
X132343000Y-97559714D01*
X132343000Y-97345428D01*
X132414428Y-97202571D01*
X132485857Y-97131142D01*
X132628714Y-97059714D01*
X132985857Y-97059714D01*
X133128714Y-97131142D01*
X133200142Y-97202571D01*
X133271571Y-97345428D01*
X133271571Y-97774000D01*
X133200142Y-97916857D01*
X133128714Y-97988285D01*
X133271571Y-95631142D02*
X133271571Y-96488285D01*
X133271571Y-96059714D02*
X131771571Y-96059714D01*
X131985857Y-96202571D01*
X132128714Y-96345428D01*
X132200142Y-96488285D01*
X130721571Y-73564714D02*
X130721571Y-74421857D01*
X130721571Y-73993285D02*
X129221571Y-73993285D01*
X129435857Y-74136142D01*
X129578714Y-74279000D01*
X129650142Y-74421857D01*
X129864428Y-72707571D02*
X129793000Y-72850428D01*
X129721571Y-72921857D01*
X129578714Y-72993285D01*
X129507285Y-72993285D01*
X129364428Y-72921857D01*
X129293000Y-72850428D01*
X129221571Y-72707571D01*
X129221571Y-72421857D01*
X129293000Y-72279000D01*
X129364428Y-72207571D01*
X129507285Y-72136142D01*
X129578714Y-72136142D01*
X129721571Y-72207571D01*
X129793000Y-72279000D01*
X129864428Y-72421857D01*
X129864428Y-72707571D01*
X129935857Y-72850428D01*
X130007285Y-72921857D01*
X130150142Y-72993285D01*
X130435857Y-72993285D01*
X130578714Y-72921857D01*
X130650142Y-72850428D01*
X130721571Y-72707571D01*
X130721571Y-72421857D01*
X130650142Y-72279000D01*
X130578714Y-72207571D01*
X130435857Y-72136142D01*
X130150142Y-72136142D01*
X130007285Y-72207571D01*
X129935857Y-72279000D01*
X129864428Y-72421857D01*
X133271571Y-73564714D02*
X133271571Y-74421857D01*
X133271571Y-73993285D02*
X131771571Y-73993285D01*
X131985857Y-74136142D01*
X132128714Y-74279000D01*
X132200142Y-74421857D01*
X131771571Y-73064714D02*
X131771571Y-72064714D01*
X133271571Y-72707571D01*
X137890285Y-65951571D02*
X137033142Y-65951571D01*
X137461714Y-65951571D02*
X137461714Y-64451571D01*
X137318857Y-64665857D01*
X137176000Y-64808714D01*
X137033142Y-64880142D01*
X139176000Y-64451571D02*
X138890285Y-64451571D01*
X138747428Y-64523000D01*
X138676000Y-64594428D01*
X138533142Y-64808714D01*
X138461714Y-65094428D01*
X138461714Y-65665857D01*
X138533142Y-65808714D01*
X138604571Y-65880142D01*
X138747428Y-65951571D01*
X139033142Y-65951571D01*
X139176000Y-65880142D01*
X139247428Y-65808714D01*
X139318857Y-65665857D01*
X139318857Y-65308714D01*
X139247428Y-65165857D01*
X139176000Y-65094428D01*
X139033142Y-65023000D01*
X138747428Y-65023000D01*
X138604571Y-65094428D01*
X138533142Y-65165857D01*
X138461714Y-65308714D01*
X137890285Y-68501571D02*
X137033142Y-68501571D01*
X137461714Y-68501571D02*
X137461714Y-67001571D01*
X137318857Y-67215857D01*
X137176000Y-67358714D01*
X137033142Y-67430142D01*
X139247428Y-67001571D02*
X138533142Y-67001571D01*
X138461714Y-67715857D01*
X138533142Y-67644428D01*
X138676000Y-67573000D01*
X139033142Y-67573000D01*
X139176000Y-67644428D01*
X139247428Y-67715857D01*
X139318857Y-67858714D01*
X139318857Y-68215857D01*
X139247428Y-68358714D01*
X139176000Y-68430142D01*
X139033142Y-68501571D01*
X138676000Y-68501571D01*
X138533142Y-68430142D01*
X138461714Y-68358714D01*
X160480428Y-64472428D02*
X160551857Y-64401000D01*
X160694714Y-64329571D01*
X161051857Y-64329571D01*
X161194714Y-64401000D01*
X161266142Y-64472428D01*
X161337571Y-64615285D01*
X161337571Y-64758142D01*
X161266142Y-64972428D01*
X160409000Y-65829571D01*
X161337571Y-65829571D01*
X161337571Y-68369571D02*
X160480428Y-68369571D01*
X160909000Y-68369571D02*
X160909000Y-66869571D01*
X160766142Y-67083857D01*
X160623285Y-67226714D01*
X160480428Y-67298142D01*
D11*
X130333904Y-102195380D02*
X130952952Y-102195380D01*
X130619619Y-102576333D01*
X130762476Y-102576333D01*
X130857714Y-102623952D01*
X130905333Y-102671571D01*
X130952952Y-102766809D01*
X130952952Y-103004904D01*
X130905333Y-103100142D01*
X130857714Y-103147761D01*
X130762476Y-103195380D01*
X130476761Y-103195380D01*
X130381523Y-103147761D01*
X130333904Y-103100142D01*
X131238666Y-102195380D02*
X131572000Y-103195380D01*
X131905333Y-102195380D01*
X132143428Y-102195380D02*
X132762476Y-102195380D01*
X132429142Y-102576333D01*
X132572000Y-102576333D01*
X132667238Y-102623952D01*
X132714857Y-102671571D01*
X132762476Y-102766809D01*
X132762476Y-103004904D01*
X132714857Y-103100142D01*
X132667238Y-103147761D01*
X132572000Y-103195380D01*
X132286285Y-103195380D01*
X132191047Y-103147761D01*
X132143428Y-103100142D01*
X165566380Y-106933380D02*
X164566380Y-106933380D01*
X164566380Y-106552428D01*
X164614000Y-106457190D01*
X164661619Y-106409571D01*
X164756857Y-106361952D01*
X164899714Y-106361952D01*
X164994952Y-106409571D01*
X165042571Y-106457190D01*
X165090190Y-106552428D01*
X165090190Y-106933380D01*
X165566380Y-105933380D02*
X164566380Y-105933380D01*
X165471142Y-104885761D02*
X165518761Y-104933380D01*
X165566380Y-105076238D01*
X165566380Y-105171476D01*
X165518761Y-105314333D01*
X165423523Y-105409571D01*
X165328285Y-105457190D01*
X165137809Y-105504809D01*
X164994952Y-105504809D01*
X164804476Y-105457190D01*
X164709238Y-105409571D01*
X164614000Y-105314333D01*
X164566380Y-105171476D01*
X164566380Y-105076238D01*
X164614000Y-104933380D01*
X164661619Y-104885761D01*
X164566380Y-104552428D02*
X164566380Y-103933380D01*
X164947333Y-104266714D01*
X164947333Y-104123857D01*
X164994952Y-104028619D01*
X165042571Y-103981000D01*
X165137809Y-103933380D01*
X165375904Y-103933380D01*
X165471142Y-103981000D01*
X165518761Y-104028619D01*
X165566380Y-104123857D01*
X165566380Y-104409571D01*
X165518761Y-104504809D01*
X165471142Y-104552428D01*
X164661619Y-103552428D02*
X164614000Y-103504809D01*
X164566380Y-103409571D01*
X164566380Y-103171476D01*
X164614000Y-103076238D01*
X164661619Y-103028619D01*
X164756857Y-102981000D01*
X164852095Y-102981000D01*
X164994952Y-103028619D01*
X165566380Y-103600047D01*
X165566380Y-102981000D01*
X165566380Y-102552428D02*
X164566380Y-102552428D01*
X165280666Y-102219095D01*
X164566380Y-101885761D01*
X165566380Y-101885761D01*
X164566380Y-101504809D02*
X164566380Y-100838142D01*
X165566380Y-101504809D01*
X165566380Y-100838142D01*
X164566380Y-100600047D02*
X164566380Y-100028619D01*
X165566380Y-100314333D02*
X164566380Y-100314333D01*
X164566380Y-99504809D02*
X164566380Y-99314333D01*
X164614000Y-99219095D01*
X164709238Y-99123857D01*
X164899714Y-99076238D01*
X165233047Y-99076238D01*
X165423523Y-99123857D01*
X165518761Y-99219095D01*
X165566380Y-99314333D01*
X165566380Y-99504809D01*
X165518761Y-99600047D01*
X165423523Y-99695285D01*
X165233047Y-99742904D01*
X164899714Y-99742904D01*
X164709238Y-99695285D01*
X164614000Y-99600047D01*
X164566380Y-99504809D01*
X165566380Y-98647666D02*
X164566380Y-98647666D01*
X165280666Y-98314333D01*
X164566380Y-97981000D01*
X165566380Y-97981000D01*
X164566380Y-97600047D02*
X165566380Y-96933380D01*
X164566380Y-96933380D02*
X165566380Y-97600047D01*
X166316380Y-104361952D02*
X167316380Y-104028619D01*
X166316380Y-103695285D01*
X167316380Y-102838142D02*
X167316380Y-103409571D01*
X167316380Y-103123857D02*
X166316380Y-103123857D01*
X166459238Y-103219095D01*
X166554476Y-103314333D01*
X166602095Y-103409571D01*
X166935428Y-102409571D02*
X166935428Y-101647666D01*
X166316380Y-100981000D02*
X166316380Y-100885761D01*
X166364000Y-100790523D01*
X166411619Y-100742904D01*
X166506857Y-100695285D01*
X166697333Y-100647666D01*
X166935428Y-100647666D01*
X167125904Y-100695285D01*
X167221142Y-100742904D01*
X167268761Y-100790523D01*
X167316380Y-100885761D01*
X167316380Y-100981000D01*
X167268761Y-101076238D01*
X167221142Y-101123857D01*
X167125904Y-101171476D01*
X166935428Y-101219095D01*
X166697333Y-101219095D01*
X166506857Y-101171476D01*
X166411619Y-101123857D01*
X166364000Y-101076238D01*
X166316380Y-100981000D01*
X166316380Y-100028619D02*
X166316380Y-99933380D01*
X166364000Y-99838142D01*
X166411619Y-99790523D01*
X166506857Y-99742904D01*
X166697333Y-99695285D01*
X166935428Y-99695285D01*
X167125904Y-99742904D01*
X167221142Y-99790523D01*
X167268761Y-99838142D01*
X167316380Y-99933380D01*
X167316380Y-100028619D01*
X167268761Y-100123857D01*
X167221142Y-100171476D01*
X167125904Y-100219095D01*
X166935428Y-100266714D01*
X166697333Y-100266714D01*
X166506857Y-100219095D01*
X166411619Y-100171476D01*
X166364000Y-100123857D01*
X166316380Y-100028619D01*
X165042571Y-68333714D02*
X165042571Y-68667047D01*
X165566380Y-68667047D02*
X164566380Y-68667047D01*
X164566380Y-68190857D01*
X164899714Y-67381333D02*
X165566380Y-67381333D01*
X164518761Y-67619428D02*
X165233047Y-67857523D01*
X165233047Y-67238476D01*
X165566380Y-66857523D02*
X164566380Y-66857523D01*
X164566380Y-66619428D01*
X164614000Y-66476571D01*
X164709238Y-66381333D01*
X164804476Y-66333714D01*
X164994952Y-66286095D01*
X165137809Y-66286095D01*
X165328285Y-66333714D01*
X165423523Y-66381333D01*
X165518761Y-66476571D01*
X165566380Y-66619428D01*
X165566380Y-66857523D01*
X165042571Y-65857523D02*
X165042571Y-65524190D01*
X165566380Y-65381333D02*
X165566380Y-65857523D01*
X164566380Y-65857523D01*
X164566380Y-65381333D01*
X165042571Y-64619428D02*
X165090190Y-64476571D01*
X165137809Y-64428952D01*
X165233047Y-64381333D01*
X165375904Y-64381333D01*
X165471142Y-64428952D01*
X165518761Y-64476571D01*
X165566380Y-64571809D01*
X165566380Y-64952761D01*
X164566380Y-64952761D01*
X164566380Y-64619428D01*
X164614000Y-64524190D01*
X164661619Y-64476571D01*
X164756857Y-64428952D01*
X164852095Y-64428952D01*
X164947333Y-64476571D01*
X164994952Y-64524190D01*
X165042571Y-64619428D01*
X165042571Y-64952761D01*
X166316380Y-69500380D02*
X166316380Y-69405142D01*
X166364000Y-69309904D01*
X166411619Y-69262285D01*
X166506857Y-69214666D01*
X166697333Y-69167047D01*
X166935428Y-69167047D01*
X167125904Y-69214666D01*
X167221142Y-69262285D01*
X167268761Y-69309904D01*
X167316380Y-69405142D01*
X167316380Y-69500380D01*
X167268761Y-69595619D01*
X167221142Y-69643238D01*
X167125904Y-69690857D01*
X166935428Y-69738476D01*
X166697333Y-69738476D01*
X166506857Y-69690857D01*
X166411619Y-69643238D01*
X166364000Y-69595619D01*
X166316380Y-69500380D01*
X166316380Y-68833714D02*
X166316380Y-68167047D01*
X167316380Y-68595619D01*
X166268761Y-67071809D02*
X167554476Y-67928952D01*
X166411619Y-66786095D02*
X166364000Y-66738476D01*
X166316380Y-66643238D01*
X166316380Y-66405142D01*
X166364000Y-66309904D01*
X166411619Y-66262285D01*
X166506857Y-66214666D01*
X166602095Y-66214666D01*
X166744952Y-66262285D01*
X167316380Y-66833714D01*
X167316380Y-66214666D01*
X166316380Y-65595619D02*
X166316380Y-65500380D01*
X166364000Y-65405142D01*
X166411619Y-65357523D01*
X166506857Y-65309904D01*
X166697333Y-65262285D01*
X166935428Y-65262285D01*
X167125904Y-65309904D01*
X167221142Y-65357523D01*
X167268761Y-65405142D01*
X167316380Y-65500380D01*
X167316380Y-65595619D01*
X167268761Y-65690857D01*
X167221142Y-65738476D01*
X167125904Y-65786095D01*
X166935428Y-65833714D01*
X166697333Y-65833714D01*
X166506857Y-65786095D01*
X166411619Y-65738476D01*
X166364000Y-65690857D01*
X166316380Y-65595619D01*
X167316380Y-64309904D02*
X167316380Y-64881333D01*
X167316380Y-64595619D02*
X166316380Y-64595619D01*
X166459238Y-64690857D01*
X166554476Y-64786095D01*
X166602095Y-64881333D01*
X167316380Y-63833714D02*
X167316380Y-63643238D01*
X167268761Y-63548000D01*
X167221142Y-63500380D01*
X167078285Y-63405142D01*
X166887809Y-63357523D01*
X166506857Y-63357523D01*
X166411619Y-63405142D01*
X166364000Y-63452761D01*
X166316380Y-63548000D01*
X166316380Y-63738476D01*
X166364000Y-63833714D01*
X166411619Y-63881333D01*
X166506857Y-63928952D01*
X166744952Y-63928952D01*
X166840190Y-63881333D01*
X166887809Y-63833714D01*
X166935428Y-63738476D01*
X166935428Y-63548000D01*
X166887809Y-63452761D01*
X166840190Y-63405142D01*
X166744952Y-63357523D01*
D12*
G04 #@! TO.C,C108*
X130624000Y-63502000D02*
X130624000Y-70437000D01*
X134044000Y-63502000D02*
X130624000Y-63502000D01*
X134044000Y-70437000D02*
X134044000Y-63502000D01*
G04 #@! TO.C,U101*
X153639000Y-78837000D02*
X153639000Y-77547000D01*
X144369000Y-89057000D02*
X145319000Y-89057000D01*
X144369000Y-88107000D02*
X144369000Y-89057000D01*
X144369000Y-78837000D02*
X145319000Y-78837000D01*
X144369000Y-79787000D02*
X144369000Y-78837000D01*
X154589000Y-89057000D02*
X153639000Y-89057000D01*
X154589000Y-88107000D02*
X154589000Y-89057000D01*
X154589000Y-78837000D02*
X153639000Y-78837000D01*
X154589000Y-79787000D02*
X154589000Y-78837000D01*
G04 #@! TO.C,D101*
X132699000Y-104881000D02*
X129814000Y-104881000D01*
X129814000Y-104881000D02*
X129814000Y-106701000D01*
X129814000Y-106701000D02*
X132699000Y-106701000D01*
G04 #@! TO.C,R104*
X136814779Y-105281000D02*
X136489221Y-105281000D01*
X136814779Y-106301000D02*
X136489221Y-106301000D01*
G04 #@! TO.C,C103*
X147639721Y-70102000D02*
X147965279Y-70102000D01*
X147639721Y-71122000D02*
X147965279Y-71122000D01*
G04 #@! TO.C,C106*
X160911000Y-85633779D02*
X160911000Y-85308221D01*
X159891000Y-85633779D02*
X159891000Y-85308221D01*
G04 #@! TO.C,C108*
D13*
X135241142Y-68556047D02*
X135288761Y-68603666D01*
X135336380Y-68746523D01*
X135336380Y-68841761D01*
X135288761Y-68984619D01*
X135193523Y-69079857D01*
X135098285Y-69127476D01*
X134907809Y-69175095D01*
X134764952Y-69175095D01*
X134574476Y-69127476D01*
X134479238Y-69079857D01*
X134384000Y-68984619D01*
X134336380Y-68841761D01*
X134336380Y-68746523D01*
X134384000Y-68603666D01*
X134431619Y-68556047D01*
X135336380Y-67603666D02*
X135336380Y-68175095D01*
X135336380Y-67889380D02*
X134336380Y-67889380D01*
X134479238Y-67984619D01*
X134574476Y-68079857D01*
X134622095Y-68175095D01*
X134336380Y-66984619D02*
X134336380Y-66889380D01*
X134384000Y-66794142D01*
X134431619Y-66746523D01*
X134526857Y-66698904D01*
X134717333Y-66651285D01*
X134955428Y-66651285D01*
X135145904Y-66698904D01*
X135241142Y-66746523D01*
X135288761Y-66794142D01*
X135336380Y-66889380D01*
X135336380Y-66984619D01*
X135288761Y-67079857D01*
X135241142Y-67127476D01*
X135145904Y-67175095D01*
X134955428Y-67222714D01*
X134717333Y-67222714D01*
X134526857Y-67175095D01*
X134431619Y-67127476D01*
X134384000Y-67079857D01*
X134336380Y-66984619D01*
X134764952Y-66079857D02*
X134717333Y-66175095D01*
X134669714Y-66222714D01*
X134574476Y-66270333D01*
X134526857Y-66270333D01*
X134431619Y-66222714D01*
X134384000Y-66175095D01*
X134336380Y-66079857D01*
X134336380Y-65889380D01*
X134384000Y-65794142D01*
X134431619Y-65746523D01*
X134526857Y-65698904D01*
X134574476Y-65698904D01*
X134669714Y-65746523D01*
X134717333Y-65794142D01*
X134764952Y-65889380D01*
X134764952Y-66079857D01*
X134812571Y-66175095D01*
X134860190Y-66222714D01*
X134955428Y-66270333D01*
X135145904Y-66270333D01*
X135241142Y-66222714D01*
X135288761Y-66175095D01*
X135336380Y-66079857D01*
X135336380Y-65889380D01*
X135288761Y-65794142D01*
X135241142Y-65746523D01*
X135145904Y-65698904D01*
X134955428Y-65698904D01*
X134860190Y-65746523D01*
X134812571Y-65794142D01*
X134764952Y-65889380D01*
G04 #@! TO.C,U101*
X156281380Y-85661285D02*
X157090904Y-85661285D01*
X157186142Y-85613666D01*
X157233761Y-85566047D01*
X157281380Y-85470809D01*
X157281380Y-85280333D01*
X157233761Y-85185095D01*
X157186142Y-85137476D01*
X157090904Y-85089857D01*
X156281380Y-85089857D01*
X157281380Y-84089857D02*
X157281380Y-84661285D01*
X157281380Y-84375571D02*
X156281380Y-84375571D01*
X156424238Y-84470809D01*
X156519476Y-84566047D01*
X156567095Y-84661285D01*
X156281380Y-83470809D02*
X156281380Y-83375571D01*
X156329000Y-83280333D01*
X156376619Y-83232714D01*
X156471857Y-83185095D01*
X156662333Y-83137476D01*
X156900428Y-83137476D01*
X157090904Y-83185095D01*
X157186142Y-83232714D01*
X157233761Y-83280333D01*
X157281380Y-83375571D01*
X157281380Y-83470809D01*
X157233761Y-83566047D01*
X157186142Y-83613666D01*
X157090904Y-83661285D01*
X156900428Y-83708904D01*
X156662333Y-83708904D01*
X156471857Y-83661285D01*
X156376619Y-83613666D01*
X156329000Y-83566047D01*
X156281380Y-83470809D01*
X157281380Y-82185095D02*
X157281380Y-82756523D01*
X157281380Y-82470809D02*
X156281380Y-82470809D01*
X156424238Y-82566047D01*
X156519476Y-82661285D01*
X156567095Y-82756523D01*
G04 #@! TO.C,D101*
X130008523Y-104643380D02*
X130008523Y-103643380D01*
X130246619Y-103643380D01*
X130389476Y-103691000D01*
X130484714Y-103786238D01*
X130532333Y-103881476D01*
X130579952Y-104071952D01*
X130579952Y-104214809D01*
X130532333Y-104405285D01*
X130484714Y-104500523D01*
X130389476Y-104595761D01*
X130246619Y-104643380D01*
X130008523Y-104643380D01*
X131532333Y-104643380D02*
X130960904Y-104643380D01*
X131246619Y-104643380D02*
X131246619Y-103643380D01*
X131151380Y-103786238D01*
X131056142Y-103881476D01*
X130960904Y-103929095D01*
X132151380Y-103643380D02*
X132246619Y-103643380D01*
X132341857Y-103691000D01*
X132389476Y-103738619D01*
X132437095Y-103833857D01*
X132484714Y-104024333D01*
X132484714Y-104262428D01*
X132437095Y-104452904D01*
X132389476Y-104548142D01*
X132341857Y-104595761D01*
X132246619Y-104643380D01*
X132151380Y-104643380D01*
X132056142Y-104595761D01*
X132008523Y-104548142D01*
X131960904Y-104452904D01*
X131913285Y-104262428D01*
X131913285Y-104024333D01*
X131960904Y-103833857D01*
X132008523Y-103738619D01*
X132056142Y-103691000D01*
X132151380Y-103643380D01*
X133437095Y-104643380D02*
X132865666Y-104643380D01*
X133151380Y-104643380D02*
X133151380Y-103643380D01*
X133056142Y-103786238D01*
X132960904Y-103881476D01*
X132865666Y-103929095D01*
G04 #@! TO.C,R104*
X135532952Y-107673380D02*
X135199619Y-107197190D01*
X134961523Y-107673380D02*
X134961523Y-106673380D01*
X135342476Y-106673380D01*
X135437714Y-106721000D01*
X135485333Y-106768619D01*
X135532952Y-106863857D01*
X135532952Y-107006714D01*
X135485333Y-107101952D01*
X135437714Y-107149571D01*
X135342476Y-107197190D01*
X134961523Y-107197190D01*
X136485333Y-107673380D02*
X135913904Y-107673380D01*
X136199619Y-107673380D02*
X136199619Y-106673380D01*
X136104380Y-106816238D01*
X136009142Y-106911476D01*
X135913904Y-106959095D01*
X137104380Y-106673380D02*
X137199619Y-106673380D01*
X137294857Y-106721000D01*
X137342476Y-106768619D01*
X137390095Y-106863857D01*
X137437714Y-107054333D01*
X137437714Y-107292428D01*
X137390095Y-107482904D01*
X137342476Y-107578142D01*
X137294857Y-107625761D01*
X137199619Y-107673380D01*
X137104380Y-107673380D01*
X137009142Y-107625761D01*
X136961523Y-107578142D01*
X136913904Y-107482904D01*
X136866285Y-107292428D01*
X136866285Y-107054333D01*
X136913904Y-106863857D01*
X136961523Y-106768619D01*
X137009142Y-106721000D01*
X137104380Y-106673380D01*
X138294857Y-107006714D02*
X138294857Y-107673380D01*
X138056761Y-106625761D02*
X137818666Y-107340047D01*
X138437714Y-107340047D01*
G04 #@! TO.C,C103*
X146683452Y-69539142D02*
X146635833Y-69586761D01*
X146492976Y-69634380D01*
X146397738Y-69634380D01*
X146254880Y-69586761D01*
X146159642Y-69491523D01*
X146112023Y-69396285D01*
X146064404Y-69205809D01*
X146064404Y-69062952D01*
X146112023Y-68872476D01*
X146159642Y-68777238D01*
X146254880Y-68682000D01*
X146397738Y-68634380D01*
X146492976Y-68634380D01*
X146635833Y-68682000D01*
X146683452Y-68729619D01*
X147635833Y-69634380D02*
X147064404Y-69634380D01*
X147350119Y-69634380D02*
X147350119Y-68634380D01*
X147254880Y-68777238D01*
X147159642Y-68872476D01*
X147064404Y-68920095D01*
X148254880Y-68634380D02*
X148350119Y-68634380D01*
X148445357Y-68682000D01*
X148492976Y-68729619D01*
X148540595Y-68824857D01*
X148588214Y-69015333D01*
X148588214Y-69253428D01*
X148540595Y-69443904D01*
X148492976Y-69539142D01*
X148445357Y-69586761D01*
X148350119Y-69634380D01*
X148254880Y-69634380D01*
X148159642Y-69586761D01*
X148112023Y-69539142D01*
X148064404Y-69443904D01*
X148016785Y-69253428D01*
X148016785Y-69015333D01*
X148064404Y-68824857D01*
X148112023Y-68729619D01*
X148159642Y-68682000D01*
X148254880Y-68634380D01*
X148921547Y-68634380D02*
X149540595Y-68634380D01*
X149207261Y-69015333D01*
X149350119Y-69015333D01*
X149445357Y-69062952D01*
X149492976Y-69110571D01*
X149540595Y-69205809D01*
X149540595Y-69443904D01*
X149492976Y-69539142D01*
X149445357Y-69586761D01*
X149350119Y-69634380D01*
X149064404Y-69634380D01*
X148969166Y-69586761D01*
X148921547Y-69539142D01*
G04 #@! TO.C,C106*
X159328142Y-86590047D02*
X159375761Y-86637666D01*
X159423380Y-86780523D01*
X159423380Y-86875761D01*
X159375761Y-87018619D01*
X159280523Y-87113857D01*
X159185285Y-87161476D01*
X158994809Y-87209095D01*
X158851952Y-87209095D01*
X158661476Y-87161476D01*
X158566238Y-87113857D01*
X158471000Y-87018619D01*
X158423380Y-86875761D01*
X158423380Y-86780523D01*
X158471000Y-86637666D01*
X158518619Y-86590047D01*
X159423380Y-85637666D02*
X159423380Y-86209095D01*
X159423380Y-85923380D02*
X158423380Y-85923380D01*
X158566238Y-86018619D01*
X158661476Y-86113857D01*
X158709095Y-86209095D01*
X158423380Y-85018619D02*
X158423380Y-84923380D01*
X158471000Y-84828142D01*
X158518619Y-84780523D01*
X158613857Y-84732904D01*
X158804333Y-84685285D01*
X159042428Y-84685285D01*
X159232904Y-84732904D01*
X159328142Y-84780523D01*
X159375761Y-84828142D01*
X159423380Y-84923380D01*
X159423380Y-85018619D01*
X159375761Y-85113857D01*
X159328142Y-85161476D01*
X159232904Y-85209095D01*
X159042428Y-85256714D01*
X158804333Y-85256714D01*
X158613857Y-85209095D01*
X158518619Y-85161476D01*
X158471000Y-85113857D01*
X158423380Y-85018619D01*
X158423380Y-83828142D02*
X158423380Y-84018619D01*
X158471000Y-84113857D01*
X158518619Y-84161476D01*
X158661476Y-84256714D01*
X158851952Y-84304333D01*
X159232904Y-84304333D01*
X159328142Y-84256714D01*
X159375761Y-84209095D01*
X159423380Y-84113857D01*
X159423380Y-83923380D01*
X159375761Y-83828142D01*
X159328142Y-83780523D01*
X159232904Y-83732904D01*
X158994809Y-83732904D01*
X158899571Y-83780523D01*
X158851952Y-83828142D01*
X158804333Y-83923380D01*
X158804333Y-84113857D01*
X158851952Y-84209095D01*
X158899571Y-84256714D01*
X158994809Y-84304333D01*
G04 #@! TD*
M02*
