M48
;DRILL file {KiCad 5.0.2+dfsg1-1~bpo9+1} date mer. 31 juil. 2019 18:24:29 CEST
;FORMAT={-:-/ absolute / inch / decimal}
FMAT,2
INCH,TZ
T1C0.0157
T2C0.0315
T3C0.0394
T4C0.0472
T5C0.1575
%
G90
G05
T1
X4.98Y-2.784
X4.98Y-2.846
X4.98Y-4.034
X4.98Y-4.096
X4.98Y-5.289
X4.98Y-5.351
X5.02Y-2.63
X5.02Y-3.88
X5.02Y-5.135
X5.0765Y-2.2505
X5.0765Y-3.5005
X5.0765Y-4.7555
X5.095Y-2.705
X5.095Y-3.955
X5.095Y-5.21
X5.1092Y-2.435
X5.1092Y-3.685
X5.1092Y-4.94
X5.165Y-2.845
X5.165Y-4.095
X5.165Y-5.35
X5.17Y-2.65
X5.17Y-3.9
X5.17Y-5.155
X5.24Y-2.455
X5.24Y-3.705
X5.24Y-4.96
X5.285Y-2.7771
X5.285Y-2.8885
X5.285Y-4.0271
X5.285Y-4.1385
X5.285Y-5.2821
X5.285Y-5.3935
X5.335Y-2.845
X5.335Y-4.095
X5.335Y-5.35
X5.34Y-2.32
X5.34Y-2.8921
X5.34Y-3.57
X5.34Y-4.1421
X5.34Y-4.825
X5.34Y-5.3971
X5.355Y-2.425
X5.355Y-2.425
X5.355Y-3.675
X5.355Y-3.675
X5.355Y-4.93
X5.355Y-4.93
X5.39Y-2.7771
X5.39Y-4.0271
X5.39Y-5.2821
X5.3984Y-2.935
X5.3984Y-4.185
X5.3984Y-5.44
X5.415Y-2.5023
X5.415Y-3.7523
X5.415Y-5.0073
X5.44Y-2.65
X5.44Y-2.845
X5.44Y-3.9
X5.44Y-4.095
X5.44Y-5.155
X5.44Y-5.35
X5.495Y-2.53
X5.495Y-3.78
X5.495Y-5.035
X5.545Y-2.5113
X5.545Y-2.635
X5.545Y-3.7613
X5.545Y-3.885
X5.545Y-5.0163
X5.545Y-5.14
X5.56Y-2.8885
X5.56Y-4.1385
X5.56Y-5.3935
X5.5922Y-2.3476
X5.5922Y-3.5976
X5.5922Y-4.8526
X5.595Y-2.2987
X5.595Y-2.395
X5.595Y-3.5487
X5.595Y-3.645
X5.595Y-4.8037
X5.595Y-4.9
X5.61Y-2.7771
X5.61Y-4.0271
X5.61Y-5.2821
X5.615Y-2.8921
X5.615Y-4.1421
X5.615Y-5.3971
X5.653Y-2.65
X5.653Y-3.9
X5.653Y-5.155
X5.695Y-2.5113
X5.695Y-3.7613
X5.695Y-5.0163
X5.715Y-2.65
X5.715Y-2.845
X5.715Y-3.9
X5.715Y-4.095
X5.715Y-5.155
X5.715Y-5.35
X5.745Y-2.2987
X5.745Y-2.455
X5.745Y-3.5487
X5.745Y-3.705
X5.745Y-4.8037
X5.745Y-4.96
X5.8Y-2.7771
X5.8Y-4.0271
X5.8Y-5.2821
X5.8185Y-2.6749
X5.8185Y-3.9249
X5.8185Y-5.1799
X5.835Y-2.8885
X5.835Y-4.1385
X5.835Y-5.3935
X5.845Y-2.5113
X5.845Y-3.7613
X5.845Y-5.0163
X5.89Y-2.8921
X5.89Y-4.1421
X5.89Y-5.3971
X5.9196Y-2.4496
X5.9196Y-3.6996
X5.9196Y-4.9546
X5.9263Y-2.93
X5.9263Y-4.18
X5.9263Y-5.435
X5.99Y-2.65
X5.99Y-2.845
X5.99Y-3.9
X5.99Y-4.095
X5.99Y-5.155
X5.99Y-5.35
X6.01Y-2.445
X6.01Y-2.93
X6.01Y-3.695
X6.01Y-4.18
X6.01Y-4.95
X6.01Y-5.435
X6.04Y-2.625
X6.04Y-3.875
X6.04Y-5.13
X6.085Y-2.52
X6.085Y-3.77
X6.085Y-5.025
X6.09Y-2.7771
X6.09Y-4.0271
X6.09Y-5.2821
X6.11Y-2.8885
X6.11Y-4.1385
X6.11Y-5.3935
X6.1356Y-2.5341
X6.1356Y-3.7841
X6.1356Y-5.0391
X6.145Y-2.41
X6.145Y-2.66
X6.145Y-3.66
X6.145Y-3.91
X6.145Y-4.915
X6.145Y-5.165
X6.165Y-2.8921
X6.165Y-4.1421
X6.165Y-5.3971
X6.195Y-2.3613
X6.195Y-3.6113
X6.195Y-4.8663
X6.26Y-2.29
X6.26Y-3.54
X6.26Y-4.795
X6.2622Y-2.2487
X6.2622Y-3.4987
X6.2622Y-4.7537
X6.265Y-2.845
X6.265Y-4.095
X6.265Y-5.35
X6.315Y-2.635
X6.315Y-3.885
X6.315Y-5.14
X6.385Y-2.8885
X6.385Y-4.1385
X6.385Y-5.3935
X6.44Y-2.485
X6.44Y-2.8921
X6.44Y-3.735
X6.44Y-4.1421
X6.44Y-4.99
X6.44Y-5.3971
X6.475Y-2.255
X6.475Y-2.5087
X6.475Y-3.505
X6.475Y-3.7587
X6.475Y-4.76
X6.475Y-5.0137
X6.4953Y-2.5303
X6.4953Y-3.7803
X6.4953Y-5.0353
X6.5Y-2.67
X6.5Y-3.92
X6.5Y-5.175
X6.535Y-2.65
X6.535Y-3.9
X6.535Y-5.155
X6.54Y-2.845
X6.54Y-4.095
X6.54Y-5.35
X6.625Y-2.7771
X6.625Y-4.0271
X6.625Y-5.2821
X6.66Y-2.8885
X6.66Y-4.1385
X6.66Y-5.3935
X6.695Y-2.2937
X6.695Y-3.5437
X6.695Y-4.7987
X6.7Y-2.385
X6.7Y-3.635
X6.7Y-4.89
X6.715Y-2.8921
X6.715Y-4.1421
X6.715Y-5.3971
X6.74Y-2.4443
X6.74Y-3.6943
X6.74Y-4.9493
X6.775Y-2.415
X6.775Y-3.665
X6.775Y-4.92
X6.795Y-2.4437
X6.795Y-3.6937
X6.795Y-4.9487
X6.815Y-2.65
X6.815Y-2.845
X6.815Y-3.9
X6.815Y-4.095
X6.815Y-5.155
X6.815Y-5.35
X6.84Y-2.93
X6.84Y-4.18
X6.84Y-5.435
X6.845Y-2.2937
X6.845Y-2.42
X6.845Y-2.7771
X6.845Y-3.5437
X6.845Y-3.67
X6.845Y-4.0271
X6.845Y-4.7987
X6.845Y-4.925
X6.845Y-5.2821
X6.935Y-2.8885
X6.935Y-4.1385
X6.935Y-5.3935
X6.945Y-2.4443
X6.945Y-3.6943
X6.945Y-4.9493
X6.955Y-2.39
X6.955Y-3.64
X6.955Y-4.895
X6.99Y-2.8921
X6.99Y-4.1421
X6.99Y-5.3971
X7.0234Y-2.71
X7.0234Y-3.96
X7.0234Y-5.215
X7.09Y-2.64
X7.09Y-2.845
X7.09Y-3.89
X7.09Y-4.095
X7.09Y-5.145
X7.09Y-5.35
X7.095Y-2.4748
X7.095Y-3.7248
X7.095Y-4.9798
X7.135Y-2.75
X7.135Y-4.
X7.135Y-5.255
X7.15Y-2.465
X7.15Y-3.715
X7.15Y-4.97
X7.21Y-2.8885
X7.21Y-4.1385
X7.21Y-5.3935
X7.215Y-2.79
X7.215Y-4.04
X7.215Y-5.295
X7.22Y-2.34
X7.22Y-2.42
X7.22Y-3.59
X7.22Y-3.67
X7.22Y-4.845
X7.22Y-4.925
X7.2285Y-2.2687
X7.2285Y-3.5187
X7.2285Y-4.7737
X7.2558Y-2.5286
X7.2558Y-3.7786
X7.2558Y-5.0336
X7.26Y-2.4985
X7.26Y-3.7485
X7.26Y-5.0035
X7.265Y-2.89
X7.265Y-4.14
X7.265Y-5.395
X7.28Y-2.265
X7.28Y-3.515
X7.28Y-4.77
X7.2958Y-3.1067
X7.2958Y-4.3567
X7.2958Y-5.6117
X7.314Y-2.42
X7.314Y-3.67
X7.314Y-4.925
X7.314Y-2.335
X7.314Y-3.585
X7.314Y-4.84
X7.321Y-3.231
X7.321Y-4.481
X7.321Y-5.736
X7.368Y-3.0935
X7.368Y-4.3435
X7.368Y-5.5985
X7.385Y-2.96
X7.385Y-4.21
X7.385Y-5.465
X7.385Y-2.59
X7.385Y-2.69
X7.385Y-2.79
X7.385Y-2.895
X7.385Y-3.84
X7.385Y-3.94
X7.385Y-4.04
X7.385Y-4.145
X7.385Y-5.095
X7.385Y-5.195
X7.385Y-5.295
X7.385Y-5.4
X7.3976Y-3.0935
X7.3976Y-4.3435
X7.3976Y-5.5985
X7.4121Y-3.253
X7.4121Y-4.503
X7.4121Y-5.758
X7.4273Y-2.5392
X7.4273Y-3.7892
X7.4273Y-5.0442
X7.428Y-3.287
X7.428Y-4.537
X7.428Y-5.792
X7.447Y-2.79
X7.447Y-4.04
X7.447Y-5.295
X7.448Y-3.341
X7.448Y-4.591
X7.448Y-5.846
X7.5Y-2.897
X7.5Y-4.147
X7.5Y-5.402
X7.556Y-2.851
X7.556Y-4.101
X7.556Y-5.356
X7.63Y-2.915
X7.63Y-4.165
X7.63Y-5.42
X7.676Y-2.609
X7.676Y-3.859
X7.676Y-5.114
X7.68Y-2.833
X7.68Y-4.083
X7.68Y-5.338
X7.74Y-2.7
X7.74Y-3.95
X7.74Y-5.205
T2
X5.057Y-2.9044
X5.057Y-4.1544
X5.057Y-5.4094
X5.99Y-2.7634
X5.99Y-4.0134
X5.99Y-5.2684
X6.41Y-2.7771
X6.41Y-4.0271
X6.41Y-5.2821
X6.645Y-2.445
X6.645Y-3.695
X6.645Y-4.95
X7.21Y-2.5815
X7.21Y-3.8315
X7.21Y-5.0865
X7.2786Y-2.7221
X7.2786Y-3.9721
X7.2786Y-5.2271
X7.3023Y-2.995
X7.3023Y-4.245
X7.3023Y-5.5
X7.31Y-3.185
X7.31Y-4.435
X7.31Y-5.69
X7.6324Y-2.7634
X7.6324Y-4.0134
X7.6324Y-5.2684
X7.7426Y-2.59
X7.7426Y-2.99
X7.7426Y-3.84
X7.7426Y-4.24
X7.7426Y-5.095
X7.7426Y-5.495
T3
X4.95Y-2.69
X4.95Y-3.94
X4.95Y-5.195
T4
X6.34Y-4.235
X6.34Y-4.335
X6.34Y-4.435
X6.34Y-4.535
X6.615Y-5.49
X6.615Y-5.59
X6.615Y-5.69
X6.615Y-5.79
X5.24Y-2.985
X5.24Y-3.085
X5.24Y-3.185
X5.24Y-3.285
X6.89Y-4.235
X6.89Y-4.335
X6.89Y-4.435
X6.89Y-4.535
X5.24Y-5.49
X5.24Y-5.59
X5.24Y-5.69
X5.24Y-5.79
X6.065Y-4.235
X6.065Y-4.335
X6.065Y-4.435
X6.065Y-4.535
X6.34Y-5.49
X6.34Y-5.59
X6.34Y-5.69
X6.34Y-5.79
X5.515Y-5.49
X5.515Y-5.59
X5.515Y-5.69
X5.515Y-5.79
X6.615Y-4.235
X6.615Y-4.335
X6.615Y-4.435
X6.615Y-4.535
X6.89Y-5.49
X6.89Y-5.59
X6.89Y-5.69
X6.89Y-5.79
X6.615Y-2.985
X6.615Y-3.085
X6.615Y-3.185
X6.615Y-3.285
X7.165Y-5.49
X7.165Y-5.59
X7.165Y-5.69
X7.165Y-5.79
X7.165Y-2.985
X7.165Y-3.085
X7.165Y-3.185
X7.165Y-3.285
X5.24Y-4.235
X5.24Y-4.335
X5.24Y-4.435
X5.24Y-4.535
X6.34Y-2.985
X6.34Y-3.085
X6.34Y-3.185
X6.34Y-3.285
X4.775Y-2.65
X4.775Y-2.75
X4.775Y-2.85
X4.775Y-2.95
X5.79Y-5.49
X5.79Y-5.59
X5.79Y-5.69
X5.79Y-5.79
X4.775Y-3.9
X4.775Y-4.
X4.775Y-4.1
X4.775Y-4.2
X5.79Y-4.235
X5.79Y-4.335
X5.79Y-4.435
X5.79Y-4.535
X5.79Y-2.985
X5.79Y-3.085
X5.79Y-3.185
X5.79Y-3.285
X4.775Y-5.155
X4.775Y-5.255
X4.775Y-5.355
X4.775Y-5.455
X6.89Y-2.985
X6.89Y-3.085
X6.89Y-3.185
X6.89Y-3.285
X5.515Y-2.985
X5.515Y-3.085
X5.515Y-3.185
X5.515Y-3.285
X5.515Y-4.235
X5.515Y-4.335
X5.515Y-4.435
X5.515Y-4.535
X7.165Y-4.235
X7.165Y-4.335
X7.165Y-4.435
X7.165Y-4.535
X6.065Y-5.49
X6.065Y-5.59
X6.065Y-5.69
X6.065Y-5.79
X6.065Y-2.985
X6.065Y-3.085
X6.065Y-3.185
X6.065Y-3.285
T5
X4.8506Y-4.4355
X7.6065Y-3.6481
X7.6065Y-4.9031
X4.8506Y-3.1855
X4.8506Y-3.6481
X7.6065Y-2.3981
X4.8506Y-2.3981
X4.8506Y-4.9031
X7.6065Y-4.4355
X7.6065Y-3.1855
X4.8506Y-5.6905
X7.6065Y-5.6905
T0
M30
