G04 #@! TF.FileFunction,Legend,Top*
%FSLAX46Y46*%
G04 Gerber Fmt 4.6, Leading zero omitted, Abs format (unit mm)*
G04 Created by KiCad (PCBNEW 4.0.6) date 01/03/18 21:10:08*
%MOMM*%
%LPD*%
G01*
G04 APERTURE LIST*
%ADD10C,0.150000*%
%ADD11C,0.304800*%
%ADD12C,0.381000*%
%ADD13C,0.119380*%
%ADD14C,0.127000*%
%ADD15C,0.152400*%
%ADD16C,0.203200*%
%ADD17C,0.114300*%
%ADD18C,0.271780*%
G04 APERTURE END LIST*
D10*
D11*
X242930438Y-60803972D02*
X241962819Y-61311972D01*
X242930438Y-61674829D02*
X240898438Y-61674829D01*
X240898438Y-61094257D01*
X240995200Y-60949115D01*
X241091962Y-60876543D01*
X241285486Y-60803972D01*
X241575771Y-60803972D01*
X241769295Y-60876543D01*
X241866057Y-60949115D01*
X241962819Y-61094257D01*
X241962819Y-61674829D01*
X242833676Y-60223400D02*
X242930438Y-60005686D01*
X242930438Y-59642829D01*
X242833676Y-59497686D01*
X242736914Y-59425115D01*
X242543390Y-59352543D01*
X242349867Y-59352543D01*
X242156343Y-59425115D01*
X242059581Y-59497686D01*
X241962819Y-59642829D01*
X241866057Y-59933115D01*
X241769295Y-60078257D01*
X241672533Y-60150829D01*
X241479010Y-60223400D01*
X241285486Y-60223400D01*
X241091962Y-60150829D01*
X240995200Y-60078257D01*
X240898438Y-59933115D01*
X240898438Y-59570257D01*
X240995200Y-59352543D01*
X240898438Y-58917114D02*
X240898438Y-58046257D01*
X242930438Y-58481686D02*
X240898438Y-58481686D01*
X243819438Y-73580172D02*
X242851819Y-74088172D01*
X243819438Y-74451029D02*
X241787438Y-74451029D01*
X241787438Y-73870457D01*
X241884200Y-73725315D01*
X241980962Y-73652743D01*
X242174486Y-73580172D01*
X242464771Y-73580172D01*
X242658295Y-73652743D01*
X242755057Y-73725315D01*
X242851819Y-73870457D01*
X242851819Y-74451029D01*
X243722676Y-72999600D02*
X243819438Y-72781886D01*
X243819438Y-72419029D01*
X243722676Y-72273886D01*
X243625914Y-72201315D01*
X243432390Y-72128743D01*
X243238867Y-72128743D01*
X243045343Y-72201315D01*
X242948581Y-72273886D01*
X242851819Y-72419029D01*
X242755057Y-72709315D01*
X242658295Y-72854457D01*
X242561533Y-72927029D01*
X242368010Y-72999600D01*
X242174486Y-72999600D01*
X241980962Y-72927029D01*
X241884200Y-72854457D01*
X241787438Y-72709315D01*
X241787438Y-72346457D01*
X241884200Y-72128743D01*
X241787438Y-71693314D02*
X241787438Y-70822457D01*
X243819438Y-71257886D02*
X241787438Y-71257886D01*
X227665038Y-75064257D02*
X225633038Y-75064257D01*
X225826562Y-74411114D02*
X225729800Y-74338543D01*
X225633038Y-74193400D01*
X225633038Y-73830543D01*
X225729800Y-73685400D01*
X225826562Y-73612829D01*
X226020086Y-73540257D01*
X226213610Y-73540257D01*
X226503895Y-73612829D01*
X227665038Y-74483686D01*
X227665038Y-73540257D01*
X227471514Y-72016257D02*
X227568276Y-72088828D01*
X227665038Y-72306542D01*
X227665038Y-72451685D01*
X227568276Y-72669400D01*
X227374752Y-72814542D01*
X227181229Y-72887114D01*
X226794181Y-72959685D01*
X226503895Y-72959685D01*
X226116848Y-72887114D01*
X225923324Y-72814542D01*
X225729800Y-72669400D01*
X225633038Y-72451685D01*
X225633038Y-72306542D01*
X225729800Y-72088828D01*
X225826562Y-72016257D01*
X226890943Y-71363114D02*
X226890943Y-70201971D01*
X226310371Y-68823114D02*
X227665038Y-68823114D01*
X225536276Y-69185971D02*
X226987705Y-69548828D01*
X226987705Y-68605400D01*
X229417638Y-149671314D02*
X227385638Y-149671314D01*
X228837067Y-149163314D01*
X227385638Y-148655314D01*
X229417638Y-148655314D01*
X227579162Y-148002171D02*
X227482400Y-147929600D01*
X227385638Y-147784457D01*
X227385638Y-147421600D01*
X227482400Y-147276457D01*
X227579162Y-147203886D01*
X227772686Y-147131314D01*
X227966210Y-147131314D01*
X228256495Y-147203886D01*
X229417638Y-148074743D01*
X229417638Y-147131314D01*
X228353257Y-145970171D02*
X228450019Y-145752457D01*
X228546781Y-145679885D01*
X228740305Y-145607314D01*
X229030590Y-145607314D01*
X229224114Y-145679885D01*
X229320876Y-145752457D01*
X229417638Y-145897599D01*
X229417638Y-146478171D01*
X227385638Y-146478171D01*
X227385638Y-145970171D01*
X227482400Y-145825028D01*
X227579162Y-145752457D01*
X227772686Y-145679885D01*
X227966210Y-145679885D01*
X228159733Y-145752457D01*
X228256495Y-145825028D01*
X228353257Y-145970171D01*
X228353257Y-146478171D01*
X222356438Y-149671314D02*
X220324438Y-149671314D01*
X221775867Y-149163314D01*
X220324438Y-148655314D01*
X222356438Y-148655314D01*
X222356438Y-147131314D02*
X222356438Y-148002171D01*
X222356438Y-147566743D02*
X220324438Y-147566743D01*
X220614724Y-147711886D01*
X220808248Y-147857028D01*
X220905010Y-148002171D01*
X221292057Y-145970171D02*
X221388819Y-145752457D01*
X221485581Y-145679885D01*
X221679105Y-145607314D01*
X221969390Y-145607314D01*
X222162914Y-145679885D01*
X222259676Y-145752457D01*
X222356438Y-145897599D01*
X222356438Y-146478171D01*
X220324438Y-146478171D01*
X220324438Y-145970171D01*
X220421200Y-145825028D01*
X220517962Y-145752457D01*
X220711486Y-145679885D01*
X220905010Y-145679885D01*
X221098533Y-145752457D01*
X221195295Y-145825028D01*
X221292057Y-145970171D01*
X221292057Y-146478171D01*
X254258838Y-146140714D02*
X252226838Y-146140714D01*
X252226838Y-145560142D01*
X252323600Y-145415000D01*
X252420362Y-145342428D01*
X252613886Y-145269857D01*
X252904171Y-145269857D01*
X253097695Y-145342428D01*
X253194457Y-145415000D01*
X253291219Y-145560142D01*
X253291219Y-146140714D01*
X252226838Y-144326428D02*
X252226838Y-144036142D01*
X252323600Y-143891000D01*
X252517124Y-143745857D01*
X252904171Y-143673285D01*
X253581505Y-143673285D01*
X253968552Y-143745857D01*
X254162076Y-143891000D01*
X254258838Y-144036142D01*
X254258838Y-144326428D01*
X254162076Y-144471571D01*
X253968552Y-144616714D01*
X253581505Y-144689285D01*
X252904171Y-144689285D01*
X252517124Y-144616714D01*
X252323600Y-144471571D01*
X252226838Y-144326428D01*
X252226838Y-143165286D02*
X254258838Y-142802429D01*
X252807410Y-142512143D01*
X254258838Y-142221857D01*
X252226838Y-141859000D01*
X253194457Y-141278429D02*
X253194457Y-140770429D01*
X254258838Y-140552715D02*
X254258838Y-141278429D01*
X252226838Y-141278429D01*
X252226838Y-140552715D01*
X254258838Y-139028715D02*
X253291219Y-139536715D01*
X254258838Y-139899572D02*
X252226838Y-139899572D01*
X252226838Y-139319000D01*
X252323600Y-139173858D01*
X252420362Y-139101286D01*
X252613886Y-139028715D01*
X252904171Y-139028715D01*
X253097695Y-139101286D01*
X253194457Y-139173858D01*
X253291219Y-139319000D01*
X253291219Y-139899572D01*
X257514876Y-146648714D02*
X257611638Y-146431000D01*
X257611638Y-146068143D01*
X257514876Y-145923000D01*
X257418114Y-145850429D01*
X257224590Y-145777857D01*
X257031067Y-145777857D01*
X256837543Y-145850429D01*
X256740781Y-145923000D01*
X256644019Y-146068143D01*
X256547257Y-146358429D01*
X256450495Y-146503571D01*
X256353733Y-146576143D01*
X256160210Y-146648714D01*
X255966686Y-146648714D01*
X255773162Y-146576143D01*
X255676400Y-146503571D01*
X255579638Y-146358429D01*
X255579638Y-145995571D01*
X255676400Y-145777857D01*
X255579638Y-145124714D02*
X257224590Y-145124714D01*
X257418114Y-145052142D01*
X257514876Y-144979571D01*
X257611638Y-144834428D01*
X257611638Y-144544142D01*
X257514876Y-144399000D01*
X257418114Y-144326428D01*
X257224590Y-144253857D01*
X255579638Y-144253857D01*
X257611638Y-143528143D02*
X255579638Y-143528143D01*
X255579638Y-142947571D01*
X255676400Y-142802429D01*
X255773162Y-142729857D01*
X255966686Y-142657286D01*
X256256971Y-142657286D01*
X256450495Y-142729857D01*
X256547257Y-142802429D01*
X256644019Y-142947571D01*
X256644019Y-143528143D01*
X257611638Y-142004143D02*
X255579638Y-142004143D01*
X255579638Y-141423571D01*
X255676400Y-141278429D01*
X255773162Y-141205857D01*
X255966686Y-141133286D01*
X256256971Y-141133286D01*
X256450495Y-141205857D01*
X256547257Y-141278429D01*
X256644019Y-141423571D01*
X256644019Y-142004143D01*
X257611638Y-139754429D02*
X257611638Y-140480143D01*
X255579638Y-140480143D01*
X256644019Y-138956143D02*
X257611638Y-138956143D01*
X255579638Y-139464143D02*
X256644019Y-138956143D01*
X255579638Y-138448143D01*
X232301143Y-150146657D02*
X232301143Y-148985514D01*
X233075238Y-149566085D02*
X231527048Y-149566085D01*
X232010857Y-147751800D02*
X232107619Y-147534086D01*
X232204381Y-147461514D01*
X232397905Y-147388943D01*
X232688190Y-147388943D01*
X232881714Y-147461514D01*
X232978476Y-147534086D01*
X233075238Y-147679228D01*
X233075238Y-148259800D01*
X231043238Y-148259800D01*
X231043238Y-147751800D01*
X231140000Y-147606657D01*
X231236762Y-147534086D01*
X231430286Y-147461514D01*
X231623810Y-147461514D01*
X231817333Y-147534086D01*
X231914095Y-147606657D01*
X232010857Y-147751800D01*
X232010857Y-148259800D01*
X232494667Y-146808371D02*
X232494667Y-146082657D01*
X233075238Y-146953514D02*
X231043238Y-146445514D01*
X233075238Y-145937514D01*
X231043238Y-145647228D02*
X231043238Y-144776371D01*
X233075238Y-145211800D02*
X231043238Y-145211800D01*
X231043238Y-144486085D02*
X231043238Y-143615228D01*
X233075238Y-144050657D02*
X231043238Y-144050657D01*
X213360000Y-148989142D02*
X213263238Y-149134285D01*
X213263238Y-149351999D01*
X213360000Y-149569714D01*
X213553524Y-149714856D01*
X213747048Y-149787428D01*
X214134095Y-149859999D01*
X214424381Y-149859999D01*
X214811429Y-149787428D01*
X215004952Y-149714856D01*
X215198476Y-149569714D01*
X215295238Y-149351999D01*
X215295238Y-149206856D01*
X215198476Y-148989142D01*
X215101714Y-148916571D01*
X214424381Y-148916571D01*
X214424381Y-149206856D01*
X215295238Y-148263428D02*
X213263238Y-148263428D01*
X215295238Y-147392571D01*
X213263238Y-147392571D01*
X215295238Y-146666857D02*
X213263238Y-146666857D01*
X213263238Y-146304000D01*
X213360000Y-146086285D01*
X213553524Y-145941143D01*
X213747048Y-145868571D01*
X214134095Y-145796000D01*
X214424381Y-145796000D01*
X214811429Y-145868571D01*
X215004952Y-145941143D01*
X215198476Y-146086285D01*
X215295238Y-146304000D01*
X215295238Y-146666857D01*
X249229638Y-95409657D02*
X250874590Y-95409657D01*
X251068114Y-95337085D01*
X251164876Y-95264514D01*
X251261638Y-95119371D01*
X251261638Y-94829085D01*
X251164876Y-94683943D01*
X251068114Y-94611371D01*
X250874590Y-94538800D01*
X249229638Y-94538800D01*
X250681067Y-93885657D02*
X250681067Y-93159943D01*
X251261638Y-94030800D02*
X249229638Y-93522800D01*
X251261638Y-93014800D01*
X251261638Y-91635943D02*
X250294019Y-92143943D01*
X251261638Y-92506800D02*
X249229638Y-92506800D01*
X249229638Y-91926228D01*
X249326400Y-91781086D01*
X249423162Y-91708514D01*
X249616686Y-91635943D01*
X249906971Y-91635943D01*
X250100495Y-91708514D01*
X250197257Y-91781086D01*
X250294019Y-91926228D01*
X250294019Y-92506800D01*
X249229638Y-91200514D02*
X249229638Y-90329657D01*
X251261638Y-90765086D02*
X249229638Y-90765086D01*
X249423162Y-89894228D02*
X249326400Y-89821657D01*
X249229638Y-89676514D01*
X249229638Y-89313657D01*
X249326400Y-89168514D01*
X249423162Y-89095943D01*
X249616686Y-89023371D01*
X249810210Y-89023371D01*
X250100495Y-89095943D01*
X251261638Y-89966800D01*
X251261638Y-89023371D01*
X249178838Y-83878057D02*
X250823790Y-83878057D01*
X251017314Y-83805485D01*
X251114076Y-83732914D01*
X251210838Y-83587771D01*
X251210838Y-83297485D01*
X251114076Y-83152343D01*
X251017314Y-83079771D01*
X250823790Y-83007200D01*
X249178838Y-83007200D01*
X250630267Y-82354057D02*
X250630267Y-81628343D01*
X251210838Y-82499200D02*
X249178838Y-81991200D01*
X251210838Y-81483200D01*
X251210838Y-80104343D02*
X250243219Y-80612343D01*
X251210838Y-80975200D02*
X249178838Y-80975200D01*
X249178838Y-80394628D01*
X249275600Y-80249486D01*
X249372362Y-80176914D01*
X249565886Y-80104343D01*
X249856171Y-80104343D01*
X250049695Y-80176914D01*
X250146457Y-80249486D01*
X250243219Y-80394628D01*
X250243219Y-80975200D01*
X249178838Y-79668914D02*
X249178838Y-78798057D01*
X251210838Y-79233486D02*
X249178838Y-79233486D01*
X249178838Y-77564343D02*
X249178838Y-78290057D01*
X250146457Y-78362628D01*
X250049695Y-78290057D01*
X249952933Y-78144914D01*
X249952933Y-77782057D01*
X250049695Y-77636914D01*
X250146457Y-77564343D01*
X250339981Y-77491771D01*
X250823790Y-77491771D01*
X251017314Y-77564343D01*
X251114076Y-77636914D01*
X251210838Y-77782057D01*
X251210838Y-78144914D01*
X251114076Y-78290057D01*
X251017314Y-78362628D01*
X249280438Y-105518857D02*
X250925390Y-105518857D01*
X251118914Y-105446285D01*
X251215676Y-105373714D01*
X251312438Y-105228571D01*
X251312438Y-104938285D01*
X251215676Y-104793143D01*
X251118914Y-104720571D01*
X250925390Y-104648000D01*
X249280438Y-104648000D01*
X250731867Y-103994857D02*
X250731867Y-103269143D01*
X251312438Y-104140000D02*
X249280438Y-103632000D01*
X251312438Y-103124000D01*
X251312438Y-101745143D02*
X250344819Y-102253143D01*
X251312438Y-102616000D02*
X249280438Y-102616000D01*
X249280438Y-102035428D01*
X249377200Y-101890286D01*
X249473962Y-101817714D01*
X249667486Y-101745143D01*
X249957771Y-101745143D01*
X250151295Y-101817714D01*
X250248057Y-101890286D01*
X250344819Y-102035428D01*
X250344819Y-102616000D01*
X249280438Y-101309714D02*
X249280438Y-100438857D01*
X251312438Y-100874286D02*
X249280438Y-100874286D01*
X251312438Y-99132571D02*
X251312438Y-100003428D01*
X251312438Y-99568000D02*
X249280438Y-99568000D01*
X249570724Y-99713143D01*
X249764248Y-99858285D01*
X249861010Y-100003428D01*
X218800438Y-149613257D02*
X216768438Y-149613257D01*
X218219867Y-149105257D01*
X216768438Y-148597257D01*
X218800438Y-148597257D01*
X218800438Y-147073257D02*
X218800438Y-147944114D01*
X218800438Y-147508686D02*
X216768438Y-147508686D01*
X217058724Y-147653829D01*
X217252248Y-147798971D01*
X217349010Y-147944114D01*
X218219867Y-146492685D02*
X218219867Y-145766971D01*
X218800438Y-146637828D02*
X216768438Y-146129828D01*
X218800438Y-145621828D01*
X225861638Y-149613257D02*
X223829638Y-149613257D01*
X225281067Y-149105257D01*
X223829638Y-148597257D01*
X225861638Y-148597257D01*
X224023162Y-147944114D02*
X223926400Y-147871543D01*
X223829638Y-147726400D01*
X223829638Y-147363543D01*
X223926400Y-147218400D01*
X224023162Y-147145829D01*
X224216686Y-147073257D01*
X224410210Y-147073257D01*
X224700495Y-147145829D01*
X225861638Y-148016686D01*
X225861638Y-147073257D01*
X225281067Y-146492685D02*
X225281067Y-145766971D01*
X225861638Y-146637828D02*
X223829638Y-146129828D01*
X225861638Y-145621828D01*
X250982238Y-117057714D02*
X248950238Y-117057714D01*
X249143762Y-116404571D02*
X249047000Y-116332000D01*
X248950238Y-116186857D01*
X248950238Y-115824000D01*
X249047000Y-115678857D01*
X249143762Y-115606286D01*
X249337286Y-115533714D01*
X249530810Y-115533714D01*
X249821095Y-115606286D01*
X250982238Y-116477143D01*
X250982238Y-115533714D01*
X250788714Y-114009714D02*
X250885476Y-114082285D01*
X250982238Y-114299999D01*
X250982238Y-114445142D01*
X250885476Y-114662857D01*
X250691952Y-114807999D01*
X250498429Y-114880571D01*
X250111381Y-114953142D01*
X249821095Y-114953142D01*
X249434048Y-114880571D01*
X249240524Y-114807999D01*
X249047000Y-114662857D01*
X248950238Y-114445142D01*
X248950238Y-114299999D01*
X249047000Y-114082285D01*
X249143762Y-114009714D01*
X249178838Y-69850000D02*
X251210838Y-68834000D01*
X249178838Y-68834000D02*
X251210838Y-69850000D01*
X250243219Y-57886600D02*
X251210838Y-57886600D01*
X249178838Y-58394600D02*
X250243219Y-57886600D01*
X249178838Y-57378600D01*
X233299000Y-53243238D02*
X233299000Y-51211238D01*
X234315000Y-51211238D02*
X234605286Y-51211238D01*
X234750428Y-51308000D01*
X234895571Y-51501524D01*
X234968143Y-51888571D01*
X234968143Y-52565905D01*
X234895571Y-52952952D01*
X234750428Y-53146476D01*
X234605286Y-53243238D01*
X234315000Y-53243238D01*
X234169857Y-53146476D01*
X234024714Y-52952952D01*
X233952143Y-52565905D01*
X233952143Y-51888571D01*
X234024714Y-51501524D01*
X234169857Y-51308000D01*
X234315000Y-51211238D01*
X236419571Y-53243238D02*
X235548714Y-53243238D01*
X235984142Y-53243238D02*
X235984142Y-51211238D01*
X235838999Y-51501524D01*
X235693857Y-51695048D01*
X235548714Y-51791810D01*
X241808000Y-53497238D02*
X241808000Y-51465238D01*
X242824000Y-51465238D02*
X243114286Y-51465238D01*
X243259428Y-51562000D01*
X243404571Y-51755524D01*
X243477143Y-52142571D01*
X243477143Y-52819905D01*
X243404571Y-53206952D01*
X243259428Y-53400476D01*
X243114286Y-53497238D01*
X242824000Y-53497238D01*
X242678857Y-53400476D01*
X242533714Y-53206952D01*
X242461143Y-52819905D01*
X242461143Y-52142571D01*
X242533714Y-51755524D01*
X242678857Y-51562000D01*
X242824000Y-51465238D01*
X244057714Y-51658762D02*
X244130285Y-51562000D01*
X244275428Y-51465238D01*
X244638285Y-51465238D01*
X244783428Y-51562000D01*
X244855999Y-51658762D01*
X244928571Y-51852286D01*
X244928571Y-52045810D01*
X244855999Y-52336095D01*
X243985142Y-53497238D01*
X244928571Y-53497238D01*
D12*
X185166000Y-129794000D02*
X185166000Y-129159000D01*
X185166000Y-129159000D02*
X195326000Y-129159000D01*
X195326000Y-129159000D02*
X195326000Y-129794000D01*
X185166000Y-133604000D02*
X185166000Y-129794000D01*
X185166000Y-129794000D02*
X195326000Y-129794000D01*
X195326000Y-129794000D02*
X195326000Y-133604000D01*
X195326000Y-133604000D02*
X185166000Y-133604000D01*
X230886000Y-136144000D02*
X230886000Y-135509000D01*
X230886000Y-135509000D02*
X241046000Y-135509000D01*
X241046000Y-135509000D02*
X241046000Y-136144000D01*
X230886000Y-139954000D02*
X230886000Y-136144000D01*
X230886000Y-136144000D02*
X241046000Y-136144000D01*
X241046000Y-136144000D02*
X241046000Y-139954000D01*
X241046000Y-139954000D02*
X230886000Y-139954000D01*
X230886000Y-129794000D02*
X230886000Y-129159000D01*
X230886000Y-129159000D02*
X241046000Y-129159000D01*
X241046000Y-129159000D02*
X241046000Y-129794000D01*
X230886000Y-133604000D02*
X230886000Y-129794000D01*
X230886000Y-129794000D02*
X241046000Y-129794000D01*
X241046000Y-129794000D02*
X241046000Y-133604000D01*
X241046000Y-133604000D02*
X230886000Y-133604000D01*
X200406000Y-136144000D02*
X200406000Y-135509000D01*
X200406000Y-135509000D02*
X210566000Y-135509000D01*
X210566000Y-135509000D02*
X210566000Y-136144000D01*
X200406000Y-139954000D02*
X200406000Y-136144000D01*
X200406000Y-136144000D02*
X210566000Y-136144000D01*
X210566000Y-136144000D02*
X210566000Y-139954000D01*
X210566000Y-139954000D02*
X200406000Y-139954000D01*
X200406000Y-129794000D02*
X200406000Y-129159000D01*
X200406000Y-129159000D02*
X210566000Y-129159000D01*
X210566000Y-129159000D02*
X210566000Y-129794000D01*
X200406000Y-133604000D02*
X200406000Y-129794000D01*
X200406000Y-129794000D02*
X210566000Y-129794000D01*
X210566000Y-129794000D02*
X210566000Y-133604000D01*
X210566000Y-133604000D02*
X200406000Y-133604000D01*
X215646000Y-129794000D02*
X215646000Y-129159000D01*
X215646000Y-129159000D02*
X225806000Y-129159000D01*
X225806000Y-129159000D02*
X225806000Y-129794000D01*
X215646000Y-133604000D02*
X215646000Y-129794000D01*
X215646000Y-129794000D02*
X225806000Y-129794000D01*
X225806000Y-129794000D02*
X225806000Y-133604000D01*
X225806000Y-133604000D02*
X215646000Y-133604000D01*
X185166000Y-136144000D02*
X185166000Y-135509000D01*
X185166000Y-135509000D02*
X195326000Y-135509000D01*
X195326000Y-135509000D02*
X195326000Y-136144000D01*
X185166000Y-139954000D02*
X185166000Y-136144000D01*
X185166000Y-136144000D02*
X195326000Y-136144000D01*
X195326000Y-136144000D02*
X195326000Y-139954000D01*
X195326000Y-139954000D02*
X185166000Y-139954000D01*
X215646000Y-136144000D02*
X215646000Y-135509000D01*
X215646000Y-135509000D02*
X225806000Y-135509000D01*
X225806000Y-135509000D02*
X225806000Y-136144000D01*
X215646000Y-139954000D02*
X215646000Y-136144000D01*
X215646000Y-136144000D02*
X225806000Y-136144000D01*
X225806000Y-136144000D02*
X225806000Y-139954000D01*
X225806000Y-139954000D02*
X215646000Y-139954000D01*
D13*
X236466380Y-119395240D02*
X237164880Y-119395240D01*
X235465620Y-119395240D02*
X234767120Y-119395240D01*
X236466380Y-118094760D02*
X237164880Y-118094760D01*
X234767120Y-118094760D02*
X235465620Y-118094760D01*
X237164880Y-118110000D02*
X237164880Y-119380000D01*
X234767120Y-119380000D02*
X234767120Y-118110000D01*
X205986380Y-119395240D02*
X206684880Y-119395240D01*
X204985620Y-119395240D02*
X204287120Y-119395240D01*
X205986380Y-118094760D02*
X206684880Y-118094760D01*
X204287120Y-118094760D02*
X204985620Y-118094760D01*
X206684880Y-118110000D02*
X206684880Y-119380000D01*
X204287120Y-119380000D02*
X204287120Y-118110000D01*
X234688380Y-127777240D02*
X235386880Y-127777240D01*
X233687620Y-127777240D02*
X232989120Y-127777240D01*
X234688380Y-126476760D02*
X235386880Y-126476760D01*
X232989120Y-126476760D02*
X233687620Y-126476760D01*
X235386880Y-126492000D02*
X235386880Y-127762000D01*
X232989120Y-127762000D02*
X232989120Y-126492000D01*
X188714380Y-128539240D02*
X189412880Y-128539240D01*
X187713620Y-128539240D02*
X187015120Y-128539240D01*
X188714380Y-127238760D02*
X189412880Y-127238760D01*
X187015120Y-127238760D02*
X187713620Y-127238760D01*
X189412880Y-127254000D02*
X189412880Y-128524000D01*
X187015120Y-128524000D02*
X187015120Y-127254000D01*
X203819760Y-82161380D02*
X203819760Y-82859880D01*
X203819760Y-81160620D02*
X203819760Y-80462120D01*
X205120240Y-82161380D02*
X205120240Y-82859880D01*
X205120240Y-80462120D02*
X205120240Y-81160620D01*
X205105000Y-82859880D02*
X203835000Y-82859880D01*
X203835000Y-80462120D02*
X205105000Y-80462120D01*
X192846960Y-82135980D02*
X192846960Y-82834480D01*
X192846960Y-81135220D02*
X192846960Y-80436720D01*
X194147440Y-82135980D02*
X194147440Y-82834480D01*
X194147440Y-80436720D02*
X194147440Y-81135220D01*
X194132200Y-82834480D02*
X192862200Y-82834480D01*
X192862200Y-80436720D02*
X194132200Y-80436720D01*
X219448380Y-127777240D02*
X220146880Y-127777240D01*
X218447620Y-127777240D02*
X217749120Y-127777240D01*
X219448380Y-126476760D02*
X220146880Y-126476760D01*
X217749120Y-126476760D02*
X218447620Y-126476760D01*
X220146880Y-126492000D02*
X220146880Y-127762000D01*
X217749120Y-127762000D02*
X217749120Y-126492000D01*
X204208380Y-127777240D02*
X204906880Y-127777240D01*
X203207620Y-127777240D02*
X202509120Y-127777240D01*
X204208380Y-126476760D02*
X204906880Y-126476760D01*
X202509120Y-126476760D02*
X203207620Y-126476760D01*
X204906880Y-126492000D02*
X204906880Y-127762000D01*
X202509120Y-127762000D02*
X202509120Y-126492000D01*
X190746380Y-119395240D02*
X191444880Y-119395240D01*
X189745620Y-119395240D02*
X189047120Y-119395240D01*
X190746380Y-118094760D02*
X191444880Y-118094760D01*
X189047120Y-118094760D02*
X189745620Y-118094760D01*
X191444880Y-118110000D02*
X191444880Y-119380000D01*
X189047120Y-119380000D02*
X189047120Y-118110000D01*
X221226380Y-119395240D02*
X221924880Y-119395240D01*
X220225620Y-119395240D02*
X219527120Y-119395240D01*
X221226380Y-118094760D02*
X221924880Y-118094760D01*
X219527120Y-118094760D02*
X220225620Y-118094760D01*
X221924880Y-118110000D02*
X221924880Y-119380000D01*
X219527120Y-119380000D02*
X219527120Y-118110000D01*
X190134240Y-88653620D02*
X190134240Y-87955120D01*
X190134240Y-89654380D02*
X190134240Y-90352880D01*
X188833760Y-88653620D02*
X188833760Y-87955120D01*
X188833760Y-90352880D02*
X188833760Y-89654380D01*
X188849000Y-87955120D02*
X190119000Y-87955120D01*
X190119000Y-90352880D02*
X188849000Y-90352880D01*
X204358240Y-88653620D02*
X204358240Y-87955120D01*
X204358240Y-89654380D02*
X204358240Y-90352880D01*
X203057760Y-88653620D02*
X203057760Y-87955120D01*
X203057760Y-90352880D02*
X203057760Y-89654380D01*
X203073000Y-87955120D02*
X204343000Y-87955120D01*
X204343000Y-90352880D02*
X203073000Y-90352880D01*
D14*
X196913500Y-124325380D02*
X196913500Y-125031500D01*
X196913500Y-125031500D02*
X198310500Y-125031500D01*
X198310500Y-125031500D02*
X198310500Y-124325380D01*
X196913500Y-122618500D02*
X196913500Y-123324620D01*
X196913500Y-122618500D02*
X198310500Y-122618500D01*
X198310500Y-122618500D02*
X198310500Y-123324620D01*
X204731620Y-113220500D02*
X204025500Y-113220500D01*
X204025500Y-113220500D02*
X204025500Y-114617500D01*
X204025500Y-114617500D02*
X204731620Y-114617500D01*
X206438500Y-113220500D02*
X205732380Y-113220500D01*
X206438500Y-113220500D02*
X206438500Y-114617500D01*
X206438500Y-114617500D02*
X205732380Y-114617500D01*
X190253620Y-113220500D02*
X189547500Y-113220500D01*
X189547500Y-113220500D02*
X189547500Y-114617500D01*
X189547500Y-114617500D02*
X190253620Y-114617500D01*
X191960500Y-113220500D02*
X191254380Y-113220500D01*
X191960500Y-113220500D02*
X191960500Y-114617500D01*
X191960500Y-114617500D02*
X191254380Y-114617500D01*
X210121500Y-124325380D02*
X210121500Y-125031500D01*
X210121500Y-125031500D02*
X211518500Y-125031500D01*
X211518500Y-125031500D02*
X211518500Y-124325380D01*
X210121500Y-122618500D02*
X210121500Y-123324620D01*
X210121500Y-122618500D02*
X211518500Y-122618500D01*
X211518500Y-122618500D02*
X211518500Y-123324620D01*
X240601500Y-124579380D02*
X240601500Y-125285500D01*
X240601500Y-125285500D02*
X241998500Y-125285500D01*
X241998500Y-125285500D02*
X241998500Y-124579380D01*
X240601500Y-122872500D02*
X240601500Y-123578620D01*
X240601500Y-122872500D02*
X241998500Y-122872500D01*
X241998500Y-122872500D02*
X241998500Y-123578620D01*
X227393500Y-124579380D02*
X227393500Y-125285500D01*
X227393500Y-125285500D02*
X228790500Y-125285500D01*
X228790500Y-125285500D02*
X228790500Y-124579380D01*
X227393500Y-122872500D02*
X227393500Y-123578620D01*
X227393500Y-122872500D02*
X228790500Y-122872500D01*
X228790500Y-122872500D02*
X228790500Y-123578620D01*
X234195620Y-113093500D02*
X233489500Y-113093500D01*
X233489500Y-113093500D02*
X233489500Y-114490500D01*
X233489500Y-114490500D02*
X234195620Y-114490500D01*
X235902500Y-113093500D02*
X235196380Y-113093500D01*
X235902500Y-113093500D02*
X235902500Y-114490500D01*
X235902500Y-114490500D02*
X235196380Y-114490500D01*
X220225620Y-113220500D02*
X219519500Y-113220500D01*
X219519500Y-113220500D02*
X219519500Y-114617500D01*
X219519500Y-114617500D02*
X220225620Y-114617500D01*
X221932500Y-113220500D02*
X221226380Y-113220500D01*
X221932500Y-113220500D02*
X221932500Y-114617500D01*
X221932500Y-114617500D02*
X221226380Y-114617500D01*
X212153500Y-124579380D02*
X212153500Y-125285500D01*
X212153500Y-125285500D02*
X213550500Y-125285500D01*
X213550500Y-125285500D02*
X213550500Y-124579380D01*
X212153500Y-122872500D02*
X212153500Y-123578620D01*
X212153500Y-122872500D02*
X213550500Y-122872500D01*
X213550500Y-122872500D02*
X213550500Y-123578620D01*
X225107500Y-124579380D02*
X225107500Y-125285500D01*
X225107500Y-125285500D02*
X226504500Y-125285500D01*
X226504500Y-125285500D02*
X226504500Y-124579380D01*
X225107500Y-122872500D02*
X225107500Y-123578620D01*
X225107500Y-122872500D02*
X226504500Y-122872500D01*
X226504500Y-122872500D02*
X226504500Y-123578620D01*
X180657500Y-125849380D02*
X180657500Y-126555500D01*
X180657500Y-126555500D02*
X182054500Y-126555500D01*
X182054500Y-126555500D02*
X182054500Y-125849380D01*
X180657500Y-124142500D02*
X180657500Y-124848620D01*
X180657500Y-124142500D02*
X182054500Y-124142500D01*
X182054500Y-124142500D02*
X182054500Y-124848620D01*
X220225620Y-77914500D02*
X219519500Y-77914500D01*
X219519500Y-77914500D02*
X219519500Y-79311500D01*
X219519500Y-79311500D02*
X220225620Y-79311500D01*
X221932500Y-77914500D02*
X221226380Y-77914500D01*
X221932500Y-77914500D02*
X221932500Y-79311500D01*
X221932500Y-79311500D02*
X221226380Y-79311500D01*
X220225620Y-80327500D02*
X219519500Y-80327500D01*
X219519500Y-80327500D02*
X219519500Y-81724500D01*
X219519500Y-81724500D02*
X220225620Y-81724500D01*
X221932500Y-80327500D02*
X221226380Y-80327500D01*
X221932500Y-80327500D02*
X221932500Y-81724500D01*
X221932500Y-81724500D02*
X221226380Y-81724500D01*
X220225620Y-82867500D02*
X219519500Y-82867500D01*
X219519500Y-82867500D02*
X219519500Y-84264500D01*
X219519500Y-84264500D02*
X220225620Y-84264500D01*
X221932500Y-82867500D02*
X221226380Y-82867500D01*
X221932500Y-82867500D02*
X221932500Y-84264500D01*
X221932500Y-84264500D02*
X221226380Y-84264500D01*
X220225620Y-85280500D02*
X219519500Y-85280500D01*
X219519500Y-85280500D02*
X219519500Y-86677500D01*
X219519500Y-86677500D02*
X220225620Y-86677500D01*
X221932500Y-85280500D02*
X221226380Y-85280500D01*
X221932500Y-85280500D02*
X221932500Y-86677500D01*
X221932500Y-86677500D02*
X221226380Y-86677500D01*
X225305620Y-77914500D02*
X224599500Y-77914500D01*
X224599500Y-77914500D02*
X224599500Y-79311500D01*
X224599500Y-79311500D02*
X225305620Y-79311500D01*
X227012500Y-77914500D02*
X226306380Y-77914500D01*
X227012500Y-77914500D02*
X227012500Y-79311500D01*
X227012500Y-79311500D02*
X226306380Y-79311500D01*
X225305620Y-80327500D02*
X224599500Y-80327500D01*
X224599500Y-80327500D02*
X224599500Y-81724500D01*
X224599500Y-81724500D02*
X225305620Y-81724500D01*
X227012500Y-80327500D02*
X226306380Y-80327500D01*
X227012500Y-80327500D02*
X227012500Y-81724500D01*
X227012500Y-81724500D02*
X226306380Y-81724500D01*
X225305620Y-82867500D02*
X224599500Y-82867500D01*
X224599500Y-82867500D02*
X224599500Y-84264500D01*
X224599500Y-84264500D02*
X225305620Y-84264500D01*
X227012500Y-82867500D02*
X226306380Y-82867500D01*
X227012500Y-82867500D02*
X227012500Y-84264500D01*
X227012500Y-84264500D02*
X226306380Y-84264500D01*
X225305620Y-85280500D02*
X224599500Y-85280500D01*
X224599500Y-85280500D02*
X224599500Y-86677500D01*
X224599500Y-86677500D02*
X225305620Y-86677500D01*
X227012500Y-85280500D02*
X226306380Y-85280500D01*
X227012500Y-85280500D02*
X227012500Y-86677500D01*
X227012500Y-86677500D02*
X226306380Y-86677500D01*
X194881500Y-124325380D02*
X194881500Y-125031500D01*
X194881500Y-125031500D02*
X196278500Y-125031500D01*
X196278500Y-125031500D02*
X196278500Y-124325380D01*
X194881500Y-122618500D02*
X194881500Y-123324620D01*
X194881500Y-122618500D02*
X196278500Y-122618500D01*
X196278500Y-122618500D02*
X196278500Y-123324620D01*
X180594000Y-133858000D02*
X180594000Y-131572000D01*
X180594000Y-131572000D02*
X178943000Y-131572000D01*
X177165000Y-133858000D02*
X175514000Y-133858000D01*
X175514000Y-133858000D02*
X175514000Y-131572000D01*
X175514000Y-131572000D02*
X177165000Y-131572000D01*
X178943000Y-133858000D02*
X180594000Y-133858000D01*
X180594000Y-140462000D02*
X180594000Y-138176000D01*
X180594000Y-138176000D02*
X178943000Y-138176000D01*
X177165000Y-140462000D02*
X175514000Y-140462000D01*
X175514000Y-140462000D02*
X175514000Y-138176000D01*
X175514000Y-138176000D02*
X177165000Y-138176000D01*
X178943000Y-140462000D02*
X180594000Y-140462000D01*
X180594000Y-137160000D02*
X180594000Y-134874000D01*
X180594000Y-134874000D02*
X178943000Y-134874000D01*
X177165000Y-137160000D02*
X175514000Y-137160000D01*
X175514000Y-137160000D02*
X175514000Y-134874000D01*
X175514000Y-134874000D02*
X177165000Y-134874000D01*
X178943000Y-137160000D02*
X180594000Y-137160000D01*
X244348000Y-133858000D02*
X244348000Y-136144000D01*
X244348000Y-136144000D02*
X245999000Y-136144000D01*
X247777000Y-133858000D02*
X249428000Y-133858000D01*
X249428000Y-133858000D02*
X249428000Y-136144000D01*
X249428000Y-136144000D02*
X247777000Y-136144000D01*
X245999000Y-133858000D02*
X244348000Y-133858000D01*
X244348000Y-137160000D02*
X244348000Y-139446000D01*
X244348000Y-139446000D02*
X245999000Y-139446000D01*
X247777000Y-137160000D02*
X249428000Y-137160000D01*
X249428000Y-137160000D02*
X249428000Y-139446000D01*
X249428000Y-139446000D02*
X247777000Y-139446000D01*
X245999000Y-137160000D02*
X244348000Y-137160000D01*
X244348000Y-130556000D02*
X244348000Y-132842000D01*
X244348000Y-132842000D02*
X245999000Y-132842000D01*
X247777000Y-130556000D02*
X249428000Y-130556000D01*
X249428000Y-130556000D02*
X249428000Y-132842000D01*
X249428000Y-132842000D02*
X247777000Y-132842000D01*
X245999000Y-130556000D02*
X244348000Y-130556000D01*
X180594000Y-143510000D02*
X180594000Y-141224000D01*
X180594000Y-141224000D02*
X178943000Y-141224000D01*
X177165000Y-143510000D02*
X175514000Y-143510000D01*
X175514000Y-143510000D02*
X175514000Y-141224000D01*
X175514000Y-141224000D02*
X177165000Y-141224000D01*
X178943000Y-143510000D02*
X180594000Y-143510000D01*
X244348000Y-127254000D02*
X244348000Y-129540000D01*
X244348000Y-129540000D02*
X245999000Y-129540000D01*
X247777000Y-127254000D02*
X249428000Y-127254000D01*
X249428000Y-127254000D02*
X249428000Y-129540000D01*
X249428000Y-129540000D02*
X247777000Y-129540000D01*
X245999000Y-127254000D02*
X244348000Y-127254000D01*
X182753000Y-127889000D02*
X185039000Y-127889000D01*
X185039000Y-127889000D02*
X185039000Y-126238000D01*
X182753000Y-124460000D02*
X182753000Y-122809000D01*
X182753000Y-122809000D02*
X185039000Y-122809000D01*
X185039000Y-122809000D02*
X185039000Y-124460000D01*
X182753000Y-126238000D02*
X182753000Y-127889000D01*
X188214000Y-115062000D02*
X188214000Y-117348000D01*
X188214000Y-117348000D02*
X189865000Y-117348000D01*
X191643000Y-115062000D02*
X193294000Y-115062000D01*
X193294000Y-115062000D02*
X193294000Y-117348000D01*
X193294000Y-117348000D02*
X191643000Y-117348000D01*
X189865000Y-115062000D02*
X188214000Y-115062000D01*
X213995000Y-126619000D02*
X216281000Y-126619000D01*
X216281000Y-126619000D02*
X216281000Y-124968000D01*
X213995000Y-123190000D02*
X213995000Y-121539000D01*
X213995000Y-121539000D02*
X216281000Y-121539000D01*
X216281000Y-121539000D02*
X216281000Y-123190000D01*
X213995000Y-124968000D02*
X213995000Y-126619000D01*
X218186000Y-115062000D02*
X218186000Y-117348000D01*
X218186000Y-117348000D02*
X219837000Y-117348000D01*
X221615000Y-115062000D02*
X223266000Y-115062000D01*
X223266000Y-115062000D02*
X223266000Y-117348000D01*
X223266000Y-117348000D02*
X221615000Y-117348000D01*
X219837000Y-115062000D02*
X218186000Y-115062000D01*
X229235000Y-126619000D02*
X231521000Y-126619000D01*
X231521000Y-126619000D02*
X231521000Y-124968000D01*
X229235000Y-123190000D02*
X229235000Y-121539000D01*
X229235000Y-121539000D02*
X231521000Y-121539000D01*
X231521000Y-121539000D02*
X231521000Y-123190000D01*
X229235000Y-124968000D02*
X229235000Y-126619000D01*
X233426000Y-115062000D02*
X233426000Y-117348000D01*
X233426000Y-117348000D02*
X235077000Y-117348000D01*
X236855000Y-115062000D02*
X238506000Y-115062000D01*
X238506000Y-115062000D02*
X238506000Y-117348000D01*
X238506000Y-117348000D02*
X236855000Y-117348000D01*
X235077000Y-115062000D02*
X233426000Y-115062000D01*
X198755000Y-126619000D02*
X201041000Y-126619000D01*
X201041000Y-126619000D02*
X201041000Y-124968000D01*
X198755000Y-123190000D02*
X198755000Y-121539000D01*
X198755000Y-121539000D02*
X201041000Y-121539000D01*
X201041000Y-121539000D02*
X201041000Y-123190000D01*
X198755000Y-124968000D02*
X198755000Y-126619000D01*
X202692000Y-115062000D02*
X202692000Y-117348000D01*
X202692000Y-117348000D02*
X204343000Y-117348000D01*
X206121000Y-115062000D02*
X207772000Y-115062000D01*
X207772000Y-115062000D02*
X207772000Y-117348000D01*
X207772000Y-117348000D02*
X206121000Y-117348000D01*
X204343000Y-115062000D02*
X202692000Y-115062000D01*
X226239605Y-57277000D02*
G75*
G03X226239605Y-57277000I-179605J0D01*
G01*
X230886000Y-57150000D02*
X232537000Y-57150000D01*
X232537000Y-57150000D02*
X232537000Y-53086000D01*
X232537000Y-53086000D02*
X230886000Y-53086000D01*
X227838000Y-53086000D02*
X226187000Y-53086000D01*
X226187000Y-53086000D02*
X226187000Y-57150000D01*
X226187000Y-57150000D02*
X227838000Y-57150000D01*
X203708000Y-120142000D02*
X203581000Y-120142000D01*
X203581000Y-120142000D02*
X203581000Y-125476000D01*
X207391000Y-125476000D02*
X207391000Y-120142000D01*
X207391000Y-120142000D02*
X203708000Y-120142000D01*
X205994000Y-120142000D02*
X205994000Y-120650000D01*
X205994000Y-120650000D02*
X204978000Y-120650000D01*
X204978000Y-120650000D02*
X204978000Y-120142000D01*
X207391000Y-125476000D02*
X203581000Y-125476000D01*
X218948000Y-120142000D02*
X218821000Y-120142000D01*
X218821000Y-120142000D02*
X218821000Y-125476000D01*
X222631000Y-125476000D02*
X222631000Y-120142000D01*
X222631000Y-120142000D02*
X218948000Y-120142000D01*
X221234000Y-120142000D02*
X221234000Y-120650000D01*
X221234000Y-120650000D02*
X220218000Y-120650000D01*
X220218000Y-120650000D02*
X220218000Y-120142000D01*
X222631000Y-125476000D02*
X218821000Y-125476000D01*
X234188000Y-120142000D02*
X234061000Y-120142000D01*
X234061000Y-120142000D02*
X234061000Y-125476000D01*
X237871000Y-125476000D02*
X237871000Y-120142000D01*
X237871000Y-120142000D02*
X234188000Y-120142000D01*
X236474000Y-120142000D02*
X236474000Y-120650000D01*
X236474000Y-120650000D02*
X235458000Y-120650000D01*
X235458000Y-120650000D02*
X235458000Y-120142000D01*
X237871000Y-125476000D02*
X234061000Y-125476000D01*
X188468000Y-120142000D02*
X188341000Y-120142000D01*
X188341000Y-120142000D02*
X188341000Y-125476000D01*
X192151000Y-125476000D02*
X192151000Y-120142000D01*
X192151000Y-120142000D02*
X188468000Y-120142000D01*
X190754000Y-120142000D02*
X190754000Y-120650000D01*
X190754000Y-120650000D02*
X189738000Y-120650000D01*
X189738000Y-120650000D02*
X189738000Y-120142000D01*
X192151000Y-125476000D02*
X188341000Y-125476000D01*
D15*
X223393000Y-64389000D02*
G75*
G03X223393000Y-64389000I-254000J0D01*
G01*
X222631000Y-66929000D02*
X222631000Y-63881000D01*
X222631000Y-63881000D02*
X225679000Y-63881000D01*
X225679000Y-63881000D02*
X225679000Y-66929000D01*
X225679000Y-66929000D02*
X222631000Y-66929000D01*
D14*
X220606620Y-67881500D02*
X219900500Y-67881500D01*
X219900500Y-67881500D02*
X219900500Y-69278500D01*
X219900500Y-69278500D02*
X220606620Y-69278500D01*
X222313500Y-67881500D02*
X221607380Y-67881500D01*
X222313500Y-67881500D02*
X222313500Y-69278500D01*
X222313500Y-69278500D02*
X221607380Y-69278500D01*
X200921620Y-90614500D02*
X200215500Y-90614500D01*
X200215500Y-90614500D02*
X200215500Y-92011500D01*
X200215500Y-92011500D02*
X200921620Y-92011500D01*
X202628500Y-90614500D02*
X201922380Y-90614500D01*
X202628500Y-90614500D02*
X202628500Y-92011500D01*
X202628500Y-92011500D02*
X201922380Y-92011500D01*
X200921620Y-92265500D02*
X200215500Y-92265500D01*
X200215500Y-92265500D02*
X200215500Y-93662500D01*
X200215500Y-93662500D02*
X200921620Y-93662500D01*
X202628500Y-92265500D02*
X201922380Y-92265500D01*
X202628500Y-92265500D02*
X202628500Y-93662500D01*
X202628500Y-93662500D02*
X201922380Y-93662500D01*
D13*
X215331040Y-70314820D02*
X215331040Y-69616320D01*
X215331040Y-71315580D02*
X215331040Y-72014080D01*
X214030560Y-70314820D02*
X214030560Y-69616320D01*
X214030560Y-72014080D02*
X214030560Y-71315580D01*
X214045800Y-69616320D02*
X215315800Y-69616320D01*
X215315800Y-72014080D02*
X214045800Y-72014080D01*
D11*
X209801460Y-101219000D02*
X209801460Y-73533000D01*
X218437460Y-73533000D02*
X218437460Y-101092000D01*
X209928460Y-84836000D02*
X210690460Y-84836000D01*
X210690460Y-84836000D02*
X210690460Y-74676000D01*
X210690460Y-74676000D02*
X217802460Y-74676000D01*
X217802460Y-74676000D02*
X217802460Y-100076000D01*
X217802460Y-100076000D02*
X210690460Y-100076000D01*
X210690460Y-100076000D02*
X210690460Y-89916000D01*
X210690460Y-89916000D02*
X209928460Y-89916000D01*
X209801460Y-73660000D02*
X218437460Y-73660000D01*
X218564460Y-101219000D02*
X209928460Y-101219000D01*
X213741000Y-99060000D02*
X212979000Y-97790000D01*
X212217000Y-99060000D02*
X213741000Y-99060000D01*
X212979000Y-97790000D02*
X212217000Y-99060000D01*
X172720000Y-73533000D02*
X181356000Y-73533000D01*
X181483000Y-101092000D02*
X172847000Y-101092000D01*
X180594000Y-84836000D02*
X181356000Y-84836000D01*
X180594000Y-74676000D02*
X180594000Y-84836000D01*
X173482000Y-74676000D02*
X180594000Y-74676000D01*
X173482000Y-100076000D02*
X173482000Y-74676000D01*
X180594000Y-100076000D02*
X173482000Y-100076000D01*
X180594000Y-89916000D02*
X180594000Y-100076000D01*
X181356000Y-89916000D02*
X180594000Y-89916000D01*
X172847000Y-101219000D02*
X172847000Y-73660000D01*
X181356000Y-73533000D02*
X181356000Y-101219000D01*
X209423000Y-76708000D02*
X181737000Y-76708000D01*
X181737000Y-68199000D02*
X209296000Y-68199000D01*
X193040000Y-76708000D02*
X193040000Y-75946000D01*
X193040000Y-75946000D02*
X182880000Y-75946000D01*
X182880000Y-75946000D02*
X182880000Y-68834000D01*
X182880000Y-68834000D02*
X208280000Y-68834000D01*
X208280000Y-68834000D02*
X208280000Y-75946000D01*
X208280000Y-75946000D02*
X198120000Y-75946000D01*
X198120000Y-75946000D02*
X198120000Y-76708000D01*
X181864000Y-76835000D02*
X181864000Y-68199000D01*
X209423000Y-68072000D02*
X209423000Y-76708000D01*
X209423000Y-110109000D02*
X209423000Y-101473000D01*
X181864000Y-101346000D02*
X181864000Y-109982000D01*
X198120000Y-102235000D02*
X198120000Y-101473000D01*
X208280000Y-102235000D02*
X198120000Y-102235000D01*
X208280000Y-109347000D02*
X208280000Y-102235000D01*
X182880000Y-109347000D02*
X208280000Y-109347000D01*
X182880000Y-102235000D02*
X182880000Y-109347000D01*
X193040000Y-102235000D02*
X182880000Y-102235000D01*
X193040000Y-101473000D02*
X193040000Y-102235000D01*
X181737000Y-109982000D02*
X209296000Y-109982000D01*
X209423000Y-101473000D02*
X181737000Y-101473000D01*
D15*
X207924400Y-52882800D02*
G75*
G03X207924400Y-52882800I-254000J0D01*
G01*
X207162400Y-55422800D02*
X207162400Y-52374800D01*
X207162400Y-52374800D02*
X210210400Y-52374800D01*
X210210400Y-52374800D02*
X210210400Y-55422800D01*
X210210400Y-55422800D02*
X207162400Y-55422800D01*
D14*
X206146400Y-49250600D02*
X206146400Y-51536600D01*
X206146400Y-51536600D02*
X207797400Y-51536600D01*
X209575400Y-49250600D02*
X211226400Y-49250600D01*
X211226400Y-49250600D02*
X211226400Y-51536600D01*
X211226400Y-51536600D02*
X209575400Y-51536600D01*
X207797400Y-49250600D02*
X206146400Y-49250600D01*
X210700620Y-47180500D02*
X209994500Y-47180500D01*
X209994500Y-47180500D02*
X209994500Y-48577500D01*
X209994500Y-48577500D02*
X210700620Y-48577500D01*
X212407500Y-47180500D02*
X211701380Y-47180500D01*
X212407500Y-47180500D02*
X212407500Y-48577500D01*
X212407500Y-48577500D02*
X211701380Y-48577500D01*
D13*
X203344780Y-56479440D02*
X204043280Y-56479440D01*
X202344020Y-56479440D02*
X201645520Y-56479440D01*
X203344780Y-55178960D02*
X204043280Y-55178960D01*
X201645520Y-55178960D02*
X202344020Y-55178960D01*
X204043280Y-55194200D02*
X204043280Y-56464200D01*
X201645520Y-56464200D02*
X201645520Y-55194200D01*
D12*
X199593200Y-54000400D02*
X195021200Y-54000400D01*
X195021200Y-54000400D02*
X195021200Y-49936400D01*
X195021200Y-49936400D02*
X203149200Y-49936400D01*
X203149200Y-49936400D02*
X203149200Y-54000400D01*
X203149200Y-54000400D02*
X199593200Y-54000400D01*
X229870000Y-45212000D02*
X229870000Y-44577000D01*
X236220000Y-44577000D02*
X228600000Y-44577000D01*
X229870000Y-45212000D02*
X234950000Y-45212000D01*
X234950000Y-45212000D02*
X234950000Y-44577000D01*
X228600000Y-44577000D02*
X228600000Y-50927000D01*
X228600000Y-50927000D02*
X236220000Y-50927000D01*
X234950000Y-45212000D02*
X234950000Y-44577000D01*
X236220000Y-44577000D02*
X236220000Y-50927000D01*
X238760000Y-45212000D02*
X238760000Y-44577000D01*
X245110000Y-44577000D02*
X237490000Y-44577000D01*
X238760000Y-45212000D02*
X243840000Y-45212000D01*
X243840000Y-45212000D02*
X243840000Y-44577000D01*
X237490000Y-44577000D02*
X237490000Y-50927000D01*
X237490000Y-50927000D02*
X245110000Y-50927000D01*
X243840000Y-45212000D02*
X243840000Y-44577000D01*
X245110000Y-44577000D02*
X245110000Y-50927000D01*
X258445000Y-61722000D02*
X257810000Y-61722000D01*
X257810000Y-61722000D02*
X257810000Y-54102000D01*
X257810000Y-54102000D02*
X258445000Y-54102000D01*
X252095000Y-52832000D02*
X252095000Y-62992000D01*
X252095000Y-62992000D02*
X258445000Y-62992000D01*
X258445000Y-62992000D02*
X258445000Y-52832000D01*
X258445000Y-52832000D02*
X252095000Y-52832000D01*
X234772200Y-73863200D02*
X234137200Y-73863200D01*
X234137200Y-73863200D02*
X234137200Y-66243200D01*
X234137200Y-66243200D02*
X234772200Y-66243200D01*
X228422200Y-64973200D02*
X228422200Y-75133200D01*
X228422200Y-75133200D02*
X234772200Y-75133200D01*
X234772200Y-75133200D02*
X234772200Y-64973200D01*
X234772200Y-64973200D02*
X228422200Y-64973200D01*
X258445000Y-118872000D02*
X257810000Y-118872000D01*
X257810000Y-118872000D02*
X257810000Y-111252000D01*
X257810000Y-111252000D02*
X258445000Y-111252000D01*
X252095000Y-109982000D02*
X252095000Y-120142000D01*
X252095000Y-120142000D02*
X258445000Y-120142000D01*
X258445000Y-120142000D02*
X258445000Y-109982000D01*
X258445000Y-109982000D02*
X252095000Y-109982000D01*
X258445000Y-107442000D02*
X257810000Y-107442000D01*
X257810000Y-107442000D02*
X257810000Y-99822000D01*
X257810000Y-99822000D02*
X258445000Y-99822000D01*
X252095000Y-98552000D02*
X252095000Y-108712000D01*
X252095000Y-108712000D02*
X258445000Y-108712000D01*
X258445000Y-108712000D02*
X258445000Y-98552000D01*
X258445000Y-98552000D02*
X252095000Y-98552000D01*
X258445000Y-96012000D02*
X257810000Y-96012000D01*
X257810000Y-96012000D02*
X257810000Y-88392000D01*
X257810000Y-88392000D02*
X258445000Y-88392000D01*
X252095000Y-87122000D02*
X252095000Y-97282000D01*
X252095000Y-97282000D02*
X258445000Y-97282000D01*
X258445000Y-97282000D02*
X258445000Y-87122000D01*
X258445000Y-87122000D02*
X252095000Y-87122000D01*
X258445000Y-84582000D02*
X257810000Y-84582000D01*
X257810000Y-84582000D02*
X257810000Y-76962000D01*
X257810000Y-76962000D02*
X258445000Y-76962000D01*
X252095000Y-75692000D02*
X252095000Y-85852000D01*
X252095000Y-85852000D02*
X258445000Y-85852000D01*
X258445000Y-85852000D02*
X258445000Y-75692000D01*
X258445000Y-75692000D02*
X252095000Y-75692000D01*
X258445000Y-73152000D02*
X257810000Y-73152000D01*
X257810000Y-73152000D02*
X257810000Y-65532000D01*
X257810000Y-65532000D02*
X258445000Y-65532000D01*
X252095000Y-64262000D02*
X252095000Y-74422000D01*
X252095000Y-74422000D02*
X258445000Y-74422000D01*
X258445000Y-74422000D02*
X258445000Y-64262000D01*
X258445000Y-64262000D02*
X252095000Y-64262000D01*
X252095000Y-125222000D02*
X252095000Y-128397000D01*
X257810000Y-126492000D02*
X258445000Y-126492000D01*
X258445000Y-137922000D02*
X258445000Y-125222000D01*
X258445000Y-125222000D02*
X252095000Y-125222000D01*
X257810000Y-126492000D02*
X257810000Y-129032000D01*
X258445000Y-136652000D02*
X257810000Y-136652000D01*
X257810000Y-136652000D02*
X257810000Y-129032000D01*
X252095000Y-127762000D02*
X252095000Y-137922000D01*
X252095000Y-137922000D02*
X258445000Y-137922000D01*
X251107574Y-150825200D02*
G75*
G03X251107574Y-150825200I-6505574J0D01*
G01*
X242570000Y-145745200D02*
X240538000Y-145745200D01*
X241554000Y-154381200D02*
X241554000Y-154889200D01*
X242062000Y-153873200D02*
X242570000Y-153873200D01*
X242062000Y-153873200D02*
X240538000Y-153873200D01*
X241554000Y-154381200D02*
X241554000Y-152857200D01*
X237998000Y-143713200D02*
X237490000Y-143713200D01*
X241046000Y-157429200D02*
X237490000Y-153873200D01*
X248158000Y-157429200D02*
X241046000Y-157429200D01*
X248158000Y-157429200D02*
X251714000Y-153873200D01*
X237490000Y-143713200D02*
X237490000Y-153873200D01*
X251714000Y-143713200D02*
X251714000Y-153873200D01*
X251714000Y-143713200D02*
X237998000Y-143713200D01*
X251714000Y-143713200D02*
X239014000Y-143713200D01*
X200866374Y-150977600D02*
G75*
G03X200866374Y-150977600I-6505574J0D01*
G01*
X192328800Y-145897600D02*
X190296800Y-145897600D01*
X191312800Y-154533600D02*
X191312800Y-155041600D01*
X191820800Y-154025600D02*
X192328800Y-154025600D01*
X191820800Y-154025600D02*
X190296800Y-154025600D01*
X191312800Y-154533600D02*
X191312800Y-153009600D01*
X187756800Y-143865600D02*
X187248800Y-143865600D01*
X190804800Y-157581600D02*
X187248800Y-154025600D01*
X197916800Y-157581600D02*
X190804800Y-157581600D01*
X197916800Y-157581600D02*
X201472800Y-154025600D01*
X187248800Y-143865600D02*
X187248800Y-154025600D01*
X201472800Y-143865600D02*
X201472800Y-154025600D01*
X201472800Y-143865600D02*
X187756800Y-143865600D01*
X201472800Y-143865600D02*
X188772800Y-143865600D01*
X237947200Y-76047600D02*
X240995200Y-76047600D01*
X240995200Y-76047600D02*
X240995200Y-69443600D01*
X240995200Y-69443600D02*
X237947200Y-69443600D01*
X237947200Y-69443600D02*
X237947200Y-76047600D01*
X226263200Y-60401200D02*
X226263200Y-62941200D01*
X226263200Y-62941200D02*
X221183200Y-62941200D01*
X221183200Y-62941200D02*
X221183200Y-60401200D01*
X221183200Y-60401200D02*
X226263200Y-60401200D01*
X227533200Y-63093600D02*
X227533200Y-60553600D01*
X227533200Y-60553600D02*
X232613200Y-60553600D01*
X232613200Y-60553600D02*
X232613200Y-63093600D01*
X232613200Y-63093600D02*
X227533200Y-63093600D01*
X251206000Y-106172000D02*
X251206000Y-108712000D01*
X251206000Y-108712000D02*
X246126000Y-108712000D01*
X246126000Y-108712000D02*
X246126000Y-106172000D01*
X246126000Y-106172000D02*
X251206000Y-106172000D01*
X251206000Y-110490000D02*
X251206000Y-113030000D01*
X251206000Y-113030000D02*
X246126000Y-113030000D01*
X246126000Y-113030000D02*
X246126000Y-110490000D01*
X246126000Y-110490000D02*
X251206000Y-110490000D01*
X234315000Y-164846000D02*
X211836000Y-164846000D01*
X234188000Y-151765000D02*
X211836000Y-151765000D01*
X233680000Y-158369000D02*
X234188000Y-158369000D01*
X233934000Y-158369000D02*
X212090000Y-158369000D01*
X212090000Y-158369000D02*
X211836000Y-158369000D01*
X234188000Y-159385000D02*
X211836000Y-159385000D01*
X211836000Y-159385000D02*
X211836000Y-164846000D01*
X234315000Y-164846000D02*
X234315000Y-159004000D01*
X234315000Y-151828500D02*
X234315000Y-159321500D01*
X211836000Y-151828500D02*
X211836000Y-159321500D01*
X239115600Y-58521600D02*
X239623600Y-58521600D01*
X239750600Y-57505600D02*
X239750600Y-62585600D01*
X239750600Y-57505600D02*
X233400600Y-57505600D01*
X233400600Y-57505600D02*
X233400600Y-61950600D01*
X233400600Y-61950600D02*
X233400600Y-62585600D01*
X239115600Y-61315600D02*
X239115600Y-58521600D01*
X239115600Y-61315600D02*
X239750600Y-61315600D01*
X239750600Y-62585600D02*
X233400600Y-62585600D01*
D10*
X209143600Y-52019200D02*
X209143600Y-53289200D01*
X209143600Y-44399200D02*
X209143600Y-46939200D01*
X210413600Y-45669200D02*
X207873600Y-45669200D01*
X214858600Y-45669200D02*
X211683600Y-45669200D01*
X214858600Y-52654200D02*
X211683600Y-52654200D01*
X211683600Y-55194200D02*
X179298600Y-55194200D01*
X179298600Y-55194200D02*
X179298600Y-43129200D01*
X211683600Y-43129200D02*
X179298600Y-43129200D01*
X211683600Y-43129200D02*
X211683600Y-55194200D01*
X209143600Y-64211200D02*
X209143600Y-65481200D01*
X209143600Y-56591200D02*
X209143600Y-59131200D01*
X210413600Y-57861200D02*
X207873600Y-57861200D01*
X214858600Y-57861200D02*
X211683600Y-57861200D01*
X214858600Y-64846200D02*
X211683600Y-64846200D01*
X211683600Y-67386200D02*
X179298600Y-67386200D01*
X179298600Y-67386200D02*
X179298600Y-55321200D01*
X211683600Y-55321200D02*
X179298600Y-55321200D01*
X211683600Y-55321200D02*
X211683600Y-67386200D01*
D12*
X220319600Y-70434200D02*
G75*
G03X220319600Y-70434200I-50800J0D01*
G01*
X219748100Y-72009000D02*
X222161100Y-72009000D01*
X222161100Y-72009000D02*
X222161100Y-69913500D01*
X222161100Y-69913500D02*
X219748100Y-69913500D01*
X219748100Y-69913500D02*
X219748100Y-72009000D01*
D14*
X197319900Y-91178380D02*
X197319900Y-91884500D01*
X197319900Y-91884500D02*
X198716900Y-91884500D01*
X198716900Y-91884500D02*
X198716900Y-91178380D01*
X197319900Y-89471500D02*
X197319900Y-90177620D01*
X197319900Y-89471500D02*
X198716900Y-89471500D01*
X198716900Y-89471500D02*
X198716900Y-90177620D01*
X185039000Y-89560400D02*
X182753000Y-89560400D01*
X182753000Y-89560400D02*
X182753000Y-91211400D01*
X185039000Y-92989400D02*
X185039000Y-94640400D01*
X185039000Y-94640400D02*
X182753000Y-94640400D01*
X182753000Y-94640400D02*
X182753000Y-92989400D01*
X185039000Y-91211400D02*
X185039000Y-89560400D01*
D16*
X194467238Y-128723571D02*
X194370476Y-128651000D01*
X194273714Y-128505857D01*
X194128571Y-128288143D01*
X194031810Y-128215571D01*
X193935048Y-128215571D01*
X193983429Y-128578429D02*
X193886667Y-128505857D01*
X193789905Y-128360714D01*
X193741524Y-128070429D01*
X193741524Y-127562429D01*
X193789905Y-127272143D01*
X193886667Y-127127000D01*
X193983429Y-127054429D01*
X194176952Y-127054429D01*
X194273714Y-127127000D01*
X194370476Y-127272143D01*
X194418857Y-127562429D01*
X194418857Y-128070429D01*
X194370476Y-128360714D01*
X194273714Y-128505857D01*
X194176952Y-128578429D01*
X193983429Y-128578429D01*
X194757524Y-127054429D02*
X195386476Y-127054429D01*
X195047810Y-127635000D01*
X195192952Y-127635000D01*
X195289714Y-127707571D01*
X195338095Y-127780143D01*
X195386476Y-127925286D01*
X195386476Y-128288143D01*
X195338095Y-128433286D01*
X195289714Y-128505857D01*
X195192952Y-128578429D01*
X194902667Y-128578429D01*
X194805905Y-128505857D01*
X194757524Y-128433286D01*
X231551238Y-142058571D02*
X231454476Y-141986000D01*
X231357714Y-141840857D01*
X231212571Y-141623143D01*
X231115810Y-141550571D01*
X231019048Y-141550571D01*
X231067429Y-141913429D02*
X230970667Y-141840857D01*
X230873905Y-141695714D01*
X230825524Y-141405429D01*
X230825524Y-140897429D01*
X230873905Y-140607143D01*
X230970667Y-140462000D01*
X231067429Y-140389429D01*
X231260952Y-140389429D01*
X231357714Y-140462000D01*
X231454476Y-140607143D01*
X231502857Y-140897429D01*
X231502857Y-141405429D01*
X231454476Y-141695714D01*
X231357714Y-141840857D01*
X231260952Y-141913429D01*
X231067429Y-141913429D01*
X232373714Y-140389429D02*
X232180191Y-140389429D01*
X232083429Y-140462000D01*
X232035048Y-140534571D01*
X231938286Y-140752286D01*
X231889905Y-141042571D01*
X231889905Y-141623143D01*
X231938286Y-141768286D01*
X231986667Y-141840857D01*
X232083429Y-141913429D01*
X232276952Y-141913429D01*
X232373714Y-141840857D01*
X232422095Y-141768286D01*
X232470476Y-141623143D01*
X232470476Y-141260286D01*
X232422095Y-141115143D01*
X232373714Y-141042571D01*
X232276952Y-140970000D01*
X232083429Y-140970000D01*
X231986667Y-141042571D01*
X231938286Y-141115143D01*
X231889905Y-141260286D01*
X239933238Y-128723571D02*
X239836476Y-128651000D01*
X239739714Y-128505857D01*
X239594571Y-128288143D01*
X239497810Y-128215571D01*
X239401048Y-128215571D01*
X239449429Y-128578429D02*
X239352667Y-128505857D01*
X239255905Y-128360714D01*
X239207524Y-128070429D01*
X239207524Y-127562429D01*
X239255905Y-127272143D01*
X239352667Y-127127000D01*
X239449429Y-127054429D01*
X239642952Y-127054429D01*
X239739714Y-127127000D01*
X239836476Y-127272143D01*
X239884857Y-127562429D01*
X239884857Y-128070429D01*
X239836476Y-128360714D01*
X239739714Y-128505857D01*
X239642952Y-128578429D01*
X239449429Y-128578429D01*
X240465429Y-127707571D02*
X240368667Y-127635000D01*
X240320286Y-127562429D01*
X240271905Y-127417286D01*
X240271905Y-127344714D01*
X240320286Y-127199571D01*
X240368667Y-127127000D01*
X240465429Y-127054429D01*
X240658952Y-127054429D01*
X240755714Y-127127000D01*
X240804095Y-127199571D01*
X240852476Y-127344714D01*
X240852476Y-127417286D01*
X240804095Y-127562429D01*
X240755714Y-127635000D01*
X240658952Y-127707571D01*
X240465429Y-127707571D01*
X240368667Y-127780143D01*
X240320286Y-127852714D01*
X240271905Y-127997857D01*
X240271905Y-128288143D01*
X240320286Y-128433286D01*
X240368667Y-128505857D01*
X240465429Y-128578429D01*
X240658952Y-128578429D01*
X240755714Y-128505857D01*
X240804095Y-128433286D01*
X240852476Y-128288143D01*
X240852476Y-127997857D01*
X240804095Y-127852714D01*
X240755714Y-127780143D01*
X240658952Y-127707571D01*
X201579238Y-142058571D02*
X201482476Y-141986000D01*
X201385714Y-141840857D01*
X201240571Y-141623143D01*
X201143810Y-141550571D01*
X201047048Y-141550571D01*
X201095429Y-141913429D02*
X200998667Y-141840857D01*
X200901905Y-141695714D01*
X200853524Y-141405429D01*
X200853524Y-140897429D01*
X200901905Y-140607143D01*
X200998667Y-140462000D01*
X201095429Y-140389429D01*
X201288952Y-140389429D01*
X201385714Y-140462000D01*
X201482476Y-140607143D01*
X201530857Y-140897429D01*
X201530857Y-141405429D01*
X201482476Y-141695714D01*
X201385714Y-141840857D01*
X201288952Y-141913429D01*
X201095429Y-141913429D01*
X201917905Y-140534571D02*
X201966286Y-140462000D01*
X202063048Y-140389429D01*
X202304952Y-140389429D01*
X202401714Y-140462000D01*
X202450095Y-140534571D01*
X202498476Y-140679714D01*
X202498476Y-140824857D01*
X202450095Y-141042571D01*
X201869524Y-141913429D01*
X202498476Y-141913429D01*
X209326238Y-128850571D02*
X209229476Y-128778000D01*
X209132714Y-128632857D01*
X208987571Y-128415143D01*
X208890810Y-128342571D01*
X208794048Y-128342571D01*
X208842429Y-128705429D02*
X208745667Y-128632857D01*
X208648905Y-128487714D01*
X208600524Y-128197429D01*
X208600524Y-127689429D01*
X208648905Y-127399143D01*
X208745667Y-127254000D01*
X208842429Y-127181429D01*
X209035952Y-127181429D01*
X209132714Y-127254000D01*
X209229476Y-127399143D01*
X209277857Y-127689429D01*
X209277857Y-128197429D01*
X209229476Y-128487714D01*
X209132714Y-128632857D01*
X209035952Y-128705429D01*
X208842429Y-128705429D01*
X210148714Y-127689429D02*
X210148714Y-128705429D01*
X209906810Y-127108857D02*
X209664905Y-128197429D01*
X210293857Y-128197429D01*
X224947238Y-128850571D02*
X224850476Y-128778000D01*
X224753714Y-128632857D01*
X224608571Y-128415143D01*
X224511810Y-128342571D01*
X224415048Y-128342571D01*
X224463429Y-128705429D02*
X224366667Y-128632857D01*
X224269905Y-128487714D01*
X224221524Y-128197429D01*
X224221524Y-127689429D01*
X224269905Y-127399143D01*
X224366667Y-127254000D01*
X224463429Y-127181429D01*
X224656952Y-127181429D01*
X224753714Y-127254000D01*
X224850476Y-127399143D01*
X224898857Y-127689429D01*
X224898857Y-128197429D01*
X224850476Y-128487714D01*
X224753714Y-128632857D01*
X224656952Y-128705429D01*
X224463429Y-128705429D01*
X225237524Y-127181429D02*
X225914857Y-127181429D01*
X225479429Y-128705429D01*
X186339238Y-142058571D02*
X186242476Y-141986000D01*
X186145714Y-141840857D01*
X186000571Y-141623143D01*
X185903810Y-141550571D01*
X185807048Y-141550571D01*
X185855429Y-141913429D02*
X185758667Y-141840857D01*
X185661905Y-141695714D01*
X185613524Y-141405429D01*
X185613524Y-140897429D01*
X185661905Y-140607143D01*
X185758667Y-140462000D01*
X185855429Y-140389429D01*
X186048952Y-140389429D01*
X186145714Y-140462000D01*
X186242476Y-140607143D01*
X186290857Y-140897429D01*
X186290857Y-141405429D01*
X186242476Y-141695714D01*
X186145714Y-141840857D01*
X186048952Y-141913429D01*
X185855429Y-141913429D01*
X187258476Y-141913429D02*
X186677905Y-141913429D01*
X186968191Y-141913429D02*
X186968191Y-140389429D01*
X186871429Y-140607143D01*
X186774667Y-140752286D01*
X186677905Y-140824857D01*
X216311238Y-142185571D02*
X216214476Y-142113000D01*
X216117714Y-141967857D01*
X215972571Y-141750143D01*
X215875810Y-141677571D01*
X215779048Y-141677571D01*
X215827429Y-142040429D02*
X215730667Y-141967857D01*
X215633905Y-141822714D01*
X215585524Y-141532429D01*
X215585524Y-141024429D01*
X215633905Y-140734143D01*
X215730667Y-140589000D01*
X215827429Y-140516429D01*
X216020952Y-140516429D01*
X216117714Y-140589000D01*
X216214476Y-140734143D01*
X216262857Y-141024429D01*
X216262857Y-141532429D01*
X216214476Y-141822714D01*
X216117714Y-141967857D01*
X216020952Y-142040429D01*
X215827429Y-142040429D01*
X217182095Y-140516429D02*
X216698286Y-140516429D01*
X216649905Y-141242143D01*
X216698286Y-141169571D01*
X216795048Y-141097000D01*
X217036952Y-141097000D01*
X217133714Y-141169571D01*
X217182095Y-141242143D01*
X217230476Y-141387286D01*
X217230476Y-141750143D01*
X217182095Y-141895286D01*
X217133714Y-141967857D01*
X217036952Y-142040429D01*
X216795048Y-142040429D01*
X216698286Y-141967857D01*
X216649905Y-141895286D01*
D17*
X238077829Y-119064315D02*
X238102019Y-119086086D01*
X238126210Y-119151400D01*
X238126210Y-119194943D01*
X238102019Y-119260258D01*
X238053638Y-119303800D01*
X238005257Y-119325572D01*
X237908495Y-119347343D01*
X237835924Y-119347343D01*
X237739162Y-119325572D01*
X237690781Y-119303800D01*
X237642400Y-119260258D01*
X237618210Y-119194943D01*
X237618210Y-119151400D01*
X237642400Y-119086086D01*
X237666590Y-119064315D01*
X238126210Y-118628886D02*
X238126210Y-118890143D01*
X238126210Y-118759515D02*
X237618210Y-118759515D01*
X237690781Y-118803058D01*
X237739162Y-118846600D01*
X237763352Y-118890143D01*
X237618210Y-118345857D02*
X237618210Y-118302314D01*
X237642400Y-118258771D01*
X237666590Y-118237000D01*
X237714971Y-118215229D01*
X237811733Y-118193457D01*
X237932686Y-118193457D01*
X238029448Y-118215229D01*
X238077829Y-118237000D01*
X238102019Y-118258771D01*
X238126210Y-118302314D01*
X238126210Y-118345857D01*
X238102019Y-118389400D01*
X238077829Y-118411171D01*
X238029448Y-118432943D01*
X237932686Y-118454714D01*
X237811733Y-118454714D01*
X237714971Y-118432943D01*
X237666590Y-118411171D01*
X237642400Y-118389400D01*
X237618210Y-118345857D01*
X207597829Y-118948200D02*
X207622019Y-118969971D01*
X207646210Y-119035285D01*
X207646210Y-119078828D01*
X207622019Y-119144143D01*
X207573638Y-119187685D01*
X207525257Y-119209457D01*
X207428495Y-119231228D01*
X207355924Y-119231228D01*
X207259162Y-119209457D01*
X207210781Y-119187685D01*
X207162400Y-119144143D01*
X207138210Y-119078828D01*
X207138210Y-119035285D01*
X207162400Y-118969971D01*
X207186590Y-118948200D01*
X207138210Y-118556314D02*
X207138210Y-118643400D01*
X207162400Y-118686943D01*
X207186590Y-118708714D01*
X207259162Y-118752257D01*
X207355924Y-118774028D01*
X207549448Y-118774028D01*
X207597829Y-118752257D01*
X207622019Y-118730485D01*
X207646210Y-118686943D01*
X207646210Y-118599857D01*
X207622019Y-118556314D01*
X207597829Y-118534543D01*
X207549448Y-118512771D01*
X207428495Y-118512771D01*
X207380114Y-118534543D01*
X207355924Y-118556314D01*
X207331733Y-118599857D01*
X207331733Y-118686943D01*
X207355924Y-118730485D01*
X207380114Y-118752257D01*
X207428495Y-118774028D01*
X236325229Y-127152400D02*
X236349419Y-127174171D01*
X236373610Y-127239485D01*
X236373610Y-127283028D01*
X236349419Y-127348343D01*
X236301038Y-127391885D01*
X236252657Y-127413657D01*
X236155895Y-127435428D01*
X236083324Y-127435428D01*
X235986562Y-127413657D01*
X235938181Y-127391885D01*
X235889800Y-127348343D01*
X235865610Y-127283028D01*
X235865610Y-127239485D01*
X235889800Y-127174171D01*
X235913990Y-127152400D01*
X236083324Y-126891143D02*
X236059133Y-126934685D01*
X236034943Y-126956457D01*
X235986562Y-126978228D01*
X235962371Y-126978228D01*
X235913990Y-126956457D01*
X235889800Y-126934685D01*
X235865610Y-126891143D01*
X235865610Y-126804057D01*
X235889800Y-126760514D01*
X235913990Y-126738743D01*
X235962371Y-126716971D01*
X235986562Y-126716971D01*
X236034943Y-126738743D01*
X236059133Y-126760514D01*
X236083324Y-126804057D01*
X236083324Y-126891143D01*
X236107514Y-126934685D01*
X236131705Y-126956457D01*
X236180086Y-126978228D01*
X236276848Y-126978228D01*
X236325229Y-126956457D01*
X236349419Y-126934685D01*
X236373610Y-126891143D01*
X236373610Y-126804057D01*
X236349419Y-126760514D01*
X236325229Y-126738743D01*
X236276848Y-126716971D01*
X236180086Y-126716971D01*
X236131705Y-126738743D01*
X236107514Y-126760514D01*
X236083324Y-126804057D01*
X190249629Y-128016000D02*
X190273819Y-128037771D01*
X190298010Y-128103085D01*
X190298010Y-128146628D01*
X190273819Y-128211943D01*
X190225438Y-128255485D01*
X190177057Y-128277257D01*
X190080295Y-128299028D01*
X190007724Y-128299028D01*
X189910962Y-128277257D01*
X189862581Y-128255485D01*
X189814200Y-128211943D01*
X189790010Y-128146628D01*
X189790010Y-128103085D01*
X189814200Y-128037771D01*
X189838390Y-128016000D01*
X189790010Y-127863600D02*
X189790010Y-127580571D01*
X189983533Y-127732971D01*
X189983533Y-127667657D01*
X190007724Y-127624114D01*
X190031914Y-127602343D01*
X190080295Y-127580571D01*
X190201248Y-127580571D01*
X190249629Y-127602343D01*
X190273819Y-127624114D01*
X190298010Y-127667657D01*
X190298010Y-127798285D01*
X190273819Y-127841828D01*
X190249629Y-127863600D01*
X204176085Y-80191429D02*
X204154314Y-80215619D01*
X204089000Y-80239810D01*
X204045457Y-80239810D01*
X203980142Y-80215619D01*
X203936600Y-80167238D01*
X203914828Y-80118857D01*
X203893057Y-80022095D01*
X203893057Y-79949524D01*
X203914828Y-79852762D01*
X203936600Y-79804381D01*
X203980142Y-79756000D01*
X204045457Y-79731810D01*
X204089000Y-79731810D01*
X204154314Y-79756000D01*
X204176085Y-79780190D01*
X204611514Y-80239810D02*
X204350257Y-80239810D01*
X204480885Y-80239810D02*
X204480885Y-79731810D01*
X204437342Y-79804381D01*
X204393800Y-79852762D01*
X204350257Y-79876952D01*
X205025171Y-79731810D02*
X204807457Y-79731810D01*
X204785686Y-79973714D01*
X204807457Y-79949524D01*
X204851000Y-79925333D01*
X204959857Y-79925333D01*
X205003400Y-79949524D01*
X205025171Y-79973714D01*
X205046943Y-80022095D01*
X205046943Y-80143048D01*
X205025171Y-80191429D01*
X205003400Y-80215619D01*
X204959857Y-80239810D01*
X204851000Y-80239810D01*
X204807457Y-80215619D01*
X204785686Y-80191429D01*
X193127085Y-80191429D02*
X193105314Y-80215619D01*
X193040000Y-80239810D01*
X192996457Y-80239810D01*
X192931142Y-80215619D01*
X192887600Y-80167238D01*
X192865828Y-80118857D01*
X192844057Y-80022095D01*
X192844057Y-79949524D01*
X192865828Y-79852762D01*
X192887600Y-79804381D01*
X192931142Y-79756000D01*
X192996457Y-79731810D01*
X193040000Y-79731810D01*
X193105314Y-79756000D01*
X193127085Y-79780190D01*
X193562514Y-80239810D02*
X193301257Y-80239810D01*
X193431885Y-80239810D02*
X193431885Y-79731810D01*
X193388342Y-79804381D01*
X193344800Y-79852762D01*
X193301257Y-79876952D01*
X193954400Y-79731810D02*
X193867314Y-79731810D01*
X193823771Y-79756000D01*
X193802000Y-79780190D01*
X193758457Y-79852762D01*
X193736686Y-79949524D01*
X193736686Y-80143048D01*
X193758457Y-80191429D01*
X193780229Y-80215619D01*
X193823771Y-80239810D01*
X193910857Y-80239810D01*
X193954400Y-80215619D01*
X193976171Y-80191429D01*
X193997943Y-80143048D01*
X193997943Y-80022095D01*
X193976171Y-79973714D01*
X193954400Y-79949524D01*
X193910857Y-79925333D01*
X193823771Y-79925333D01*
X193780229Y-79949524D01*
X193758457Y-79973714D01*
X193736686Y-80022095D01*
X221161429Y-127254000D02*
X221185619Y-127275771D01*
X221209810Y-127341085D01*
X221209810Y-127384628D01*
X221185619Y-127449943D01*
X221137238Y-127493485D01*
X221088857Y-127515257D01*
X220992095Y-127537028D01*
X220919524Y-127537028D01*
X220822762Y-127515257D01*
X220774381Y-127493485D01*
X220726000Y-127449943D01*
X220701810Y-127384628D01*
X220701810Y-127341085D01*
X220726000Y-127275771D01*
X220750190Y-127254000D01*
X220701810Y-127101600D02*
X220701810Y-126796800D01*
X221209810Y-126992743D01*
X205819829Y-127177800D02*
X205844019Y-127199571D01*
X205868210Y-127264885D01*
X205868210Y-127308428D01*
X205844019Y-127373743D01*
X205795638Y-127417285D01*
X205747257Y-127439057D01*
X205650495Y-127460828D01*
X205577924Y-127460828D01*
X205481162Y-127439057D01*
X205432781Y-127417285D01*
X205384400Y-127373743D01*
X205360210Y-127308428D01*
X205360210Y-127264885D01*
X205384400Y-127199571D01*
X205408590Y-127177800D01*
X205529543Y-126785914D02*
X205868210Y-126785914D01*
X205336019Y-126894771D02*
X205698876Y-127003628D01*
X205698876Y-126720600D01*
X192332429Y-118846600D02*
X192356619Y-118868371D01*
X192380810Y-118933685D01*
X192380810Y-118977228D01*
X192356619Y-119042543D01*
X192308238Y-119086085D01*
X192259857Y-119107857D01*
X192163095Y-119129628D01*
X192090524Y-119129628D01*
X191993762Y-119107857D01*
X191945381Y-119086085D01*
X191897000Y-119042543D01*
X191872810Y-118977228D01*
X191872810Y-118933685D01*
X191897000Y-118868371D01*
X191921190Y-118846600D01*
X191872810Y-118432943D02*
X191872810Y-118650657D01*
X192114714Y-118672428D01*
X192090524Y-118650657D01*
X192066333Y-118607114D01*
X192066333Y-118498257D01*
X192090524Y-118454714D01*
X192114714Y-118432943D01*
X192163095Y-118411171D01*
X192284048Y-118411171D01*
X192332429Y-118432943D01*
X192356619Y-118454714D01*
X192380810Y-118498257D01*
X192380810Y-118607114D01*
X192356619Y-118650657D01*
X192332429Y-118672428D01*
X222888629Y-118846600D02*
X222912819Y-118868371D01*
X222937010Y-118933685D01*
X222937010Y-118977228D01*
X222912819Y-119042543D01*
X222864438Y-119086085D01*
X222816057Y-119107857D01*
X222719295Y-119129628D01*
X222646724Y-119129628D01*
X222549962Y-119107857D01*
X222501581Y-119086085D01*
X222453200Y-119042543D01*
X222429010Y-118977228D01*
X222429010Y-118933685D01*
X222453200Y-118868371D01*
X222477390Y-118846600D01*
X222937010Y-118628885D02*
X222937010Y-118541800D01*
X222912819Y-118498257D01*
X222888629Y-118476485D01*
X222816057Y-118432943D01*
X222719295Y-118411171D01*
X222525771Y-118411171D01*
X222477390Y-118432943D01*
X222453200Y-118454714D01*
X222429010Y-118498257D01*
X222429010Y-118585343D01*
X222453200Y-118628885D01*
X222477390Y-118650657D01*
X222525771Y-118672428D01*
X222646724Y-118672428D01*
X222695105Y-118650657D01*
X222719295Y-118628885D01*
X222743486Y-118585343D01*
X222743486Y-118498257D01*
X222719295Y-118454714D01*
X222695105Y-118432943D01*
X222646724Y-118411171D01*
X189190085Y-91265829D02*
X189168314Y-91290019D01*
X189103000Y-91314210D01*
X189059457Y-91314210D01*
X188994142Y-91290019D01*
X188950600Y-91241638D01*
X188928828Y-91193257D01*
X188907057Y-91096495D01*
X188907057Y-91023924D01*
X188928828Y-90927162D01*
X188950600Y-90878781D01*
X188994142Y-90830400D01*
X189059457Y-90806210D01*
X189103000Y-90806210D01*
X189168314Y-90830400D01*
X189190085Y-90854590D01*
X189625514Y-91314210D02*
X189364257Y-91314210D01*
X189494885Y-91314210D02*
X189494885Y-90806210D01*
X189451342Y-90878781D01*
X189407800Y-90927162D01*
X189364257Y-90951352D01*
X189777914Y-90806210D02*
X190060943Y-90806210D01*
X189908543Y-90999733D01*
X189973857Y-90999733D01*
X190017400Y-91023924D01*
X190039171Y-91048114D01*
X190060943Y-91096495D01*
X190060943Y-91217448D01*
X190039171Y-91265829D01*
X190017400Y-91290019D01*
X189973857Y-91314210D01*
X189843229Y-91314210D01*
X189799686Y-91290019D01*
X189777914Y-91265829D01*
X203464885Y-87506629D02*
X203443114Y-87530819D01*
X203377800Y-87555010D01*
X203334257Y-87555010D01*
X203268942Y-87530819D01*
X203225400Y-87482438D01*
X203203628Y-87434057D01*
X203181857Y-87337295D01*
X203181857Y-87264724D01*
X203203628Y-87167962D01*
X203225400Y-87119581D01*
X203268942Y-87071200D01*
X203334257Y-87047010D01*
X203377800Y-87047010D01*
X203443114Y-87071200D01*
X203464885Y-87095390D01*
X203900314Y-87555010D02*
X203639057Y-87555010D01*
X203769685Y-87555010D02*
X203769685Y-87047010D01*
X203726142Y-87119581D01*
X203682600Y-87167962D01*
X203639057Y-87192152D01*
X204292200Y-87216343D02*
X204292200Y-87555010D01*
X204183343Y-87022819D02*
X204074486Y-87385676D01*
X204357514Y-87385676D01*
X197535800Y-122146362D02*
X197383400Y-121908086D01*
X197274543Y-122146362D02*
X197274543Y-121645982D01*
X197448715Y-121645982D01*
X197492257Y-121669810D01*
X197514029Y-121693638D01*
X197535800Y-121741293D01*
X197535800Y-121812776D01*
X197514029Y-121860431D01*
X197492257Y-121884259D01*
X197448715Y-121908086D01*
X197274543Y-121908086D01*
X197927686Y-121645982D02*
X197840600Y-121645982D01*
X197797057Y-121669810D01*
X197775286Y-121693638D01*
X197731743Y-121765120D01*
X197709972Y-121860431D01*
X197709972Y-122051052D01*
X197731743Y-122098707D01*
X197753515Y-122122535D01*
X197797057Y-122146362D01*
X197884143Y-122146362D01*
X197927686Y-122122535D01*
X197949457Y-122098707D01*
X197971229Y-122051052D01*
X197971229Y-121931914D01*
X197949457Y-121884259D01*
X197927686Y-121860431D01*
X197884143Y-121836603D01*
X197797057Y-121836603D01*
X197753515Y-121860431D01*
X197731743Y-121884259D01*
X197709972Y-121931914D01*
X207566562Y-113969800D02*
X207328286Y-114122200D01*
X207566562Y-114231057D02*
X207066182Y-114231057D01*
X207066182Y-114056885D01*
X207090010Y-114013343D01*
X207113838Y-113991571D01*
X207161493Y-113969800D01*
X207232976Y-113969800D01*
X207280631Y-113991571D01*
X207304459Y-114013343D01*
X207328286Y-114056885D01*
X207328286Y-114231057D01*
X207566562Y-113752085D02*
X207566562Y-113665000D01*
X207542735Y-113621457D01*
X207518907Y-113599685D01*
X207447424Y-113556143D01*
X207352114Y-113534371D01*
X207161493Y-113534371D01*
X207113838Y-113556143D01*
X207090010Y-113577914D01*
X207066182Y-113621457D01*
X207066182Y-113708543D01*
X207090010Y-113752085D01*
X207113838Y-113773857D01*
X207161493Y-113795628D01*
X207280631Y-113795628D01*
X207328286Y-113773857D01*
X207352114Y-113752085D01*
X207375941Y-113708543D01*
X207375941Y-113621457D01*
X207352114Y-113577914D01*
X207328286Y-113556143D01*
X207280631Y-113534371D01*
X193037762Y-114020600D02*
X192799486Y-114173000D01*
X193037762Y-114281857D02*
X192537382Y-114281857D01*
X192537382Y-114107685D01*
X192561210Y-114064143D01*
X192585038Y-114042371D01*
X192632693Y-114020600D01*
X192704176Y-114020600D01*
X192751831Y-114042371D01*
X192775659Y-114064143D01*
X192799486Y-114107685D01*
X192799486Y-114281857D01*
X192751831Y-113759343D02*
X192728003Y-113802885D01*
X192704176Y-113824657D01*
X192656520Y-113846428D01*
X192632693Y-113846428D01*
X192585038Y-113824657D01*
X192561210Y-113802885D01*
X192537382Y-113759343D01*
X192537382Y-113672257D01*
X192561210Y-113628714D01*
X192585038Y-113606943D01*
X192632693Y-113585171D01*
X192656520Y-113585171D01*
X192704176Y-113606943D01*
X192728003Y-113628714D01*
X192751831Y-113672257D01*
X192751831Y-113759343D01*
X192775659Y-113802885D01*
X192799486Y-113824657D01*
X192847141Y-113846428D01*
X192942452Y-113846428D01*
X192990107Y-113824657D01*
X193013935Y-113802885D01*
X193037762Y-113759343D01*
X193037762Y-113672257D01*
X193013935Y-113628714D01*
X192990107Y-113606943D01*
X192942452Y-113585171D01*
X192847141Y-113585171D01*
X192799486Y-113606943D01*
X192775659Y-113628714D01*
X192751831Y-113672257D01*
X210526085Y-122197162D02*
X210373685Y-121958886D01*
X210264828Y-122197162D02*
X210264828Y-121696782D01*
X210439000Y-121696782D01*
X210482542Y-121720610D01*
X210504314Y-121744438D01*
X210526085Y-121792093D01*
X210526085Y-121863576D01*
X210504314Y-121911231D01*
X210482542Y-121935059D01*
X210439000Y-121958886D01*
X210264828Y-121958886D01*
X210961514Y-122197162D02*
X210700257Y-122197162D01*
X210830885Y-122197162D02*
X210830885Y-121696782D01*
X210787342Y-121768265D01*
X210743800Y-121815920D01*
X210700257Y-121839748D01*
X211244543Y-121696782D02*
X211288086Y-121696782D01*
X211331629Y-121720610D01*
X211353400Y-121744438D01*
X211375171Y-121792093D01*
X211396943Y-121887403D01*
X211396943Y-122006541D01*
X211375171Y-122101852D01*
X211353400Y-122149507D01*
X211331629Y-122173335D01*
X211288086Y-122197162D01*
X211244543Y-122197162D01*
X211201000Y-122173335D01*
X211179229Y-122149507D01*
X211157457Y-122101852D01*
X211135686Y-122006541D01*
X211135686Y-121887403D01*
X211157457Y-121792093D01*
X211179229Y-121744438D01*
X211201000Y-121720610D01*
X211244543Y-121696782D01*
X240955285Y-122425762D02*
X240802885Y-122187486D01*
X240694028Y-122425762D02*
X240694028Y-121925382D01*
X240868200Y-121925382D01*
X240911742Y-121949210D01*
X240933514Y-121973038D01*
X240955285Y-122020693D01*
X240955285Y-122092176D01*
X240933514Y-122139831D01*
X240911742Y-122163659D01*
X240868200Y-122187486D01*
X240694028Y-122187486D01*
X241390714Y-122425762D02*
X241129457Y-122425762D01*
X241260085Y-122425762D02*
X241260085Y-121925382D01*
X241216542Y-121996865D01*
X241173000Y-122044520D01*
X241129457Y-122068348D01*
X241543114Y-121925382D02*
X241847914Y-121925382D01*
X241651971Y-122425762D01*
X227696485Y-122374962D02*
X227544085Y-122136686D01*
X227435228Y-122374962D02*
X227435228Y-121874582D01*
X227609400Y-121874582D01*
X227652942Y-121898410D01*
X227674714Y-121922238D01*
X227696485Y-121969893D01*
X227696485Y-122041376D01*
X227674714Y-122089031D01*
X227652942Y-122112859D01*
X227609400Y-122136686D01*
X227435228Y-122136686D01*
X228131914Y-122374962D02*
X227870657Y-122374962D01*
X228001285Y-122374962D02*
X228001285Y-121874582D01*
X227957742Y-121946065D01*
X227914200Y-121993720D01*
X227870657Y-122017548D01*
X228284314Y-121874582D02*
X228567343Y-121874582D01*
X228414943Y-122065203D01*
X228480257Y-122065203D01*
X228523800Y-122089031D01*
X228545571Y-122112859D01*
X228567343Y-122160514D01*
X228567343Y-122279652D01*
X228545571Y-122327307D01*
X228523800Y-122351135D01*
X228480257Y-122374962D01*
X228349629Y-122374962D01*
X228306086Y-122351135D01*
X228284314Y-122327307D01*
X236751162Y-114111315D02*
X236512886Y-114263715D01*
X236751162Y-114372572D02*
X236250782Y-114372572D01*
X236250782Y-114198400D01*
X236274610Y-114154858D01*
X236298438Y-114133086D01*
X236346093Y-114111315D01*
X236417576Y-114111315D01*
X236465231Y-114133086D01*
X236489059Y-114154858D01*
X236512886Y-114198400D01*
X236512886Y-114372572D01*
X236751162Y-113675886D02*
X236751162Y-113937143D01*
X236751162Y-113806515D02*
X236250782Y-113806515D01*
X236322265Y-113850058D01*
X236369920Y-113893600D01*
X236393748Y-113937143D01*
X236250782Y-113284000D02*
X236250782Y-113371086D01*
X236274610Y-113414629D01*
X236298438Y-113436400D01*
X236369920Y-113479943D01*
X236465231Y-113501714D01*
X236655852Y-113501714D01*
X236703507Y-113479943D01*
X236727335Y-113458171D01*
X236751162Y-113414629D01*
X236751162Y-113327543D01*
X236727335Y-113284000D01*
X236703507Y-113262229D01*
X236655852Y-113240457D01*
X236536714Y-113240457D01*
X236489059Y-113262229D01*
X236465231Y-113284000D01*
X236441403Y-113327543D01*
X236441403Y-113414629D01*
X236465231Y-113458171D01*
X236489059Y-113479943D01*
X236536714Y-113501714D01*
X222857362Y-114111315D02*
X222619086Y-114263715D01*
X222857362Y-114372572D02*
X222356982Y-114372572D01*
X222356982Y-114198400D01*
X222380810Y-114154858D01*
X222404638Y-114133086D01*
X222452293Y-114111315D01*
X222523776Y-114111315D01*
X222571431Y-114133086D01*
X222595259Y-114154858D01*
X222619086Y-114198400D01*
X222619086Y-114372572D01*
X222857362Y-113675886D02*
X222857362Y-113937143D01*
X222857362Y-113806515D02*
X222356982Y-113806515D01*
X222428465Y-113850058D01*
X222476120Y-113893600D01*
X222499948Y-113937143D01*
X222356982Y-113262229D02*
X222356982Y-113479943D01*
X222595259Y-113501714D01*
X222571431Y-113479943D01*
X222547603Y-113436400D01*
X222547603Y-113327543D01*
X222571431Y-113284000D01*
X222595259Y-113262229D01*
X222642914Y-113240457D01*
X222762052Y-113240457D01*
X222809707Y-113262229D01*
X222833535Y-113284000D01*
X222857362Y-113327543D01*
X222857362Y-113436400D01*
X222833535Y-113479943D01*
X222809707Y-113501714D01*
X212532685Y-122451162D02*
X212380285Y-122212886D01*
X212271428Y-122451162D02*
X212271428Y-121950782D01*
X212445600Y-121950782D01*
X212489142Y-121974610D01*
X212510914Y-121998438D01*
X212532685Y-122046093D01*
X212532685Y-122117576D01*
X212510914Y-122165231D01*
X212489142Y-122189059D01*
X212445600Y-122212886D01*
X212271428Y-122212886D01*
X212968114Y-122451162D02*
X212706857Y-122451162D01*
X212837485Y-122451162D02*
X212837485Y-121950782D01*
X212793942Y-122022265D01*
X212750400Y-122069920D01*
X212706857Y-122093748D01*
X213142286Y-121998438D02*
X213164057Y-121974610D01*
X213207600Y-121950782D01*
X213316457Y-121950782D01*
X213360000Y-121974610D01*
X213381771Y-121998438D01*
X213403543Y-122046093D01*
X213403543Y-122093748D01*
X213381771Y-122165231D01*
X213120514Y-122451162D01*
X213403543Y-122451162D01*
X225461285Y-122374962D02*
X225308885Y-122136686D01*
X225200028Y-122374962D02*
X225200028Y-121874582D01*
X225374200Y-121874582D01*
X225417742Y-121898410D01*
X225439514Y-121922238D01*
X225461285Y-121969893D01*
X225461285Y-122041376D01*
X225439514Y-122089031D01*
X225417742Y-122112859D01*
X225374200Y-122136686D01*
X225200028Y-122136686D01*
X225896714Y-122374962D02*
X225635457Y-122374962D01*
X225766085Y-122374962D02*
X225766085Y-121874582D01*
X225722542Y-121946065D01*
X225679000Y-121993720D01*
X225635457Y-122017548D01*
X226288600Y-122041376D02*
X226288600Y-122374962D01*
X226179743Y-121850755D02*
X226070886Y-122208169D01*
X226353914Y-122208169D01*
X180312362Y-125425200D02*
X180074086Y-125577600D01*
X180312362Y-125686457D02*
X179811982Y-125686457D01*
X179811982Y-125512285D01*
X179835810Y-125468743D01*
X179859638Y-125446971D01*
X179907293Y-125425200D01*
X179978776Y-125425200D01*
X180026431Y-125446971D01*
X180050259Y-125468743D01*
X180074086Y-125512285D01*
X180074086Y-125686457D01*
X179811982Y-125011543D02*
X179811982Y-125229257D01*
X180050259Y-125251028D01*
X180026431Y-125229257D01*
X180002603Y-125185714D01*
X180002603Y-125076857D01*
X180026431Y-125033314D01*
X180050259Y-125011543D01*
X180097914Y-124989771D01*
X180217052Y-124989771D01*
X180264707Y-125011543D01*
X180288535Y-125033314D01*
X180312362Y-125076857D01*
X180312362Y-125185714D01*
X180288535Y-125229257D01*
X180264707Y-125251028D01*
X219174362Y-78779915D02*
X218936086Y-78932315D01*
X219174362Y-79041172D02*
X218673982Y-79041172D01*
X218673982Y-78867000D01*
X218697810Y-78823458D01*
X218721638Y-78801686D01*
X218769293Y-78779915D01*
X218840776Y-78779915D01*
X218888431Y-78801686D01*
X218912259Y-78823458D01*
X218936086Y-78867000D01*
X218936086Y-79041172D01*
X218673982Y-78627515D02*
X218673982Y-78344486D01*
X218864603Y-78496886D01*
X218864603Y-78431572D01*
X218888431Y-78388029D01*
X218912259Y-78366258D01*
X218959914Y-78344486D01*
X219079052Y-78344486D01*
X219126707Y-78366258D01*
X219150535Y-78388029D01*
X219174362Y-78431572D01*
X219174362Y-78562200D01*
X219150535Y-78605743D01*
X219126707Y-78627515D01*
X218673982Y-77930829D02*
X218673982Y-78148543D01*
X218912259Y-78170314D01*
X218888431Y-78148543D01*
X218864603Y-78105000D01*
X218864603Y-77996143D01*
X218888431Y-77952600D01*
X218912259Y-77930829D01*
X218959914Y-77909057D01*
X219079052Y-77909057D01*
X219126707Y-77930829D01*
X219150535Y-77952600D01*
X219174362Y-77996143D01*
X219174362Y-78105000D01*
X219150535Y-78148543D01*
X219126707Y-78170314D01*
X219174362Y-81319915D02*
X218936086Y-81472315D01*
X219174362Y-81581172D02*
X218673982Y-81581172D01*
X218673982Y-81407000D01*
X218697810Y-81363458D01*
X218721638Y-81341686D01*
X218769293Y-81319915D01*
X218840776Y-81319915D01*
X218888431Y-81341686D01*
X218912259Y-81363458D01*
X218936086Y-81407000D01*
X218936086Y-81581172D01*
X218673982Y-81167515D02*
X218673982Y-80884486D01*
X218864603Y-81036886D01*
X218864603Y-80971572D01*
X218888431Y-80928029D01*
X218912259Y-80906258D01*
X218959914Y-80884486D01*
X219079052Y-80884486D01*
X219126707Y-80906258D01*
X219150535Y-80928029D01*
X219174362Y-80971572D01*
X219174362Y-81102200D01*
X219150535Y-81145743D01*
X219126707Y-81167515D01*
X218673982Y-80492600D02*
X218673982Y-80579686D01*
X218697810Y-80623229D01*
X218721638Y-80645000D01*
X218793120Y-80688543D01*
X218888431Y-80710314D01*
X219079052Y-80710314D01*
X219126707Y-80688543D01*
X219150535Y-80666771D01*
X219174362Y-80623229D01*
X219174362Y-80536143D01*
X219150535Y-80492600D01*
X219126707Y-80470829D01*
X219079052Y-80449057D01*
X218959914Y-80449057D01*
X218912259Y-80470829D01*
X218888431Y-80492600D01*
X218864603Y-80536143D01*
X218864603Y-80623229D01*
X218888431Y-80666771D01*
X218912259Y-80688543D01*
X218959914Y-80710314D01*
X219301362Y-83986915D02*
X219063086Y-84139315D01*
X219301362Y-84248172D02*
X218800982Y-84248172D01*
X218800982Y-84074000D01*
X218824810Y-84030458D01*
X218848638Y-84008686D01*
X218896293Y-83986915D01*
X218967776Y-83986915D01*
X219015431Y-84008686D01*
X219039259Y-84030458D01*
X219063086Y-84074000D01*
X219063086Y-84248172D01*
X218800982Y-83834515D02*
X218800982Y-83551486D01*
X218991603Y-83703886D01*
X218991603Y-83638572D01*
X219015431Y-83595029D01*
X219039259Y-83573258D01*
X219086914Y-83551486D01*
X219206052Y-83551486D01*
X219253707Y-83573258D01*
X219277535Y-83595029D01*
X219301362Y-83638572D01*
X219301362Y-83769200D01*
X219277535Y-83812743D01*
X219253707Y-83834515D01*
X218800982Y-83399086D02*
X218800982Y-83094286D01*
X219301362Y-83290229D01*
X219301362Y-86272915D02*
X219063086Y-86425315D01*
X219301362Y-86534172D02*
X218800982Y-86534172D01*
X218800982Y-86360000D01*
X218824810Y-86316458D01*
X218848638Y-86294686D01*
X218896293Y-86272915D01*
X218967776Y-86272915D01*
X219015431Y-86294686D01*
X219039259Y-86316458D01*
X219063086Y-86360000D01*
X219063086Y-86534172D01*
X218800982Y-86120515D02*
X218800982Y-85837486D01*
X218991603Y-85989886D01*
X218991603Y-85924572D01*
X219015431Y-85881029D01*
X219039259Y-85859258D01*
X219086914Y-85837486D01*
X219206052Y-85837486D01*
X219253707Y-85859258D01*
X219277535Y-85881029D01*
X219301362Y-85924572D01*
X219301362Y-86055200D01*
X219277535Y-86098743D01*
X219253707Y-86120515D01*
X219015431Y-85576229D02*
X218991603Y-85619771D01*
X218967776Y-85641543D01*
X218920120Y-85663314D01*
X218896293Y-85663314D01*
X218848638Y-85641543D01*
X218824810Y-85619771D01*
X218800982Y-85576229D01*
X218800982Y-85489143D01*
X218824810Y-85445600D01*
X218848638Y-85423829D01*
X218896293Y-85402057D01*
X218920120Y-85402057D01*
X218967776Y-85423829D01*
X218991603Y-85445600D01*
X219015431Y-85489143D01*
X219015431Y-85576229D01*
X219039259Y-85619771D01*
X219063086Y-85641543D01*
X219110741Y-85663314D01*
X219206052Y-85663314D01*
X219253707Y-85641543D01*
X219277535Y-85619771D01*
X219301362Y-85576229D01*
X219301362Y-85489143D01*
X219277535Y-85445600D01*
X219253707Y-85423829D01*
X219206052Y-85402057D01*
X219110741Y-85402057D01*
X219063086Y-85423829D01*
X219039259Y-85445600D01*
X219015431Y-85489143D01*
X224381362Y-78906915D02*
X224143086Y-79059315D01*
X224381362Y-79168172D02*
X223880982Y-79168172D01*
X223880982Y-78994000D01*
X223904810Y-78950458D01*
X223928638Y-78928686D01*
X223976293Y-78906915D01*
X224047776Y-78906915D01*
X224095431Y-78928686D01*
X224119259Y-78950458D01*
X224143086Y-78994000D01*
X224143086Y-79168172D01*
X223880982Y-78754515D02*
X223880982Y-78471486D01*
X224071603Y-78623886D01*
X224071603Y-78558572D01*
X224095431Y-78515029D01*
X224119259Y-78493258D01*
X224166914Y-78471486D01*
X224286052Y-78471486D01*
X224333707Y-78493258D01*
X224357535Y-78515029D01*
X224381362Y-78558572D01*
X224381362Y-78689200D01*
X224357535Y-78732743D01*
X224333707Y-78754515D01*
X224381362Y-78253771D02*
X224381362Y-78166686D01*
X224357535Y-78123143D01*
X224333707Y-78101371D01*
X224262224Y-78057829D01*
X224166914Y-78036057D01*
X223976293Y-78036057D01*
X223928638Y-78057829D01*
X223904810Y-78079600D01*
X223880982Y-78123143D01*
X223880982Y-78210229D01*
X223904810Y-78253771D01*
X223928638Y-78275543D01*
X223976293Y-78297314D01*
X224095431Y-78297314D01*
X224143086Y-78275543D01*
X224166914Y-78253771D01*
X224190741Y-78210229D01*
X224190741Y-78123143D01*
X224166914Y-78079600D01*
X224143086Y-78057829D01*
X224095431Y-78036057D01*
X224254362Y-81319915D02*
X224016086Y-81472315D01*
X224254362Y-81581172D02*
X223753982Y-81581172D01*
X223753982Y-81407000D01*
X223777810Y-81363458D01*
X223801638Y-81341686D01*
X223849293Y-81319915D01*
X223920776Y-81319915D01*
X223968431Y-81341686D01*
X223992259Y-81363458D01*
X224016086Y-81407000D01*
X224016086Y-81581172D01*
X223920776Y-80928029D02*
X224254362Y-80928029D01*
X223730155Y-81036886D02*
X224087569Y-81145743D01*
X224087569Y-80862715D01*
X223753982Y-80601457D02*
X223753982Y-80557914D01*
X223777810Y-80514371D01*
X223801638Y-80492600D01*
X223849293Y-80470829D01*
X223944603Y-80449057D01*
X224063741Y-80449057D01*
X224159052Y-80470829D01*
X224206707Y-80492600D01*
X224230535Y-80514371D01*
X224254362Y-80557914D01*
X224254362Y-80601457D01*
X224230535Y-80645000D01*
X224206707Y-80666771D01*
X224159052Y-80688543D01*
X224063741Y-80710314D01*
X223944603Y-80710314D01*
X223849293Y-80688543D01*
X223801638Y-80666771D01*
X223777810Y-80645000D01*
X223753982Y-80601457D01*
X224381362Y-83859915D02*
X224143086Y-84012315D01*
X224381362Y-84121172D02*
X223880982Y-84121172D01*
X223880982Y-83947000D01*
X223904810Y-83903458D01*
X223928638Y-83881686D01*
X223976293Y-83859915D01*
X224047776Y-83859915D01*
X224095431Y-83881686D01*
X224119259Y-83903458D01*
X224143086Y-83947000D01*
X224143086Y-84121172D01*
X224047776Y-83468029D02*
X224381362Y-83468029D01*
X223857155Y-83576886D02*
X224214569Y-83685743D01*
X224214569Y-83402715D01*
X224381362Y-82989057D02*
X224381362Y-83250314D01*
X224381362Y-83119686D02*
X223880982Y-83119686D01*
X223952465Y-83163229D01*
X224000120Y-83206771D01*
X224023948Y-83250314D01*
X224381362Y-86272915D02*
X224143086Y-86425315D01*
X224381362Y-86534172D02*
X223880982Y-86534172D01*
X223880982Y-86360000D01*
X223904810Y-86316458D01*
X223928638Y-86294686D01*
X223976293Y-86272915D01*
X224047776Y-86272915D01*
X224095431Y-86294686D01*
X224119259Y-86316458D01*
X224143086Y-86360000D01*
X224143086Y-86534172D01*
X224047776Y-85881029D02*
X224381362Y-85881029D01*
X223857155Y-85989886D02*
X224214569Y-86098743D01*
X224214569Y-85815715D01*
X223928638Y-85663314D02*
X223904810Y-85641543D01*
X223880982Y-85598000D01*
X223880982Y-85489143D01*
X223904810Y-85445600D01*
X223928638Y-85423829D01*
X223976293Y-85402057D01*
X224023948Y-85402057D01*
X224095431Y-85423829D01*
X224381362Y-85685086D01*
X224381362Y-85402057D01*
X195503800Y-122273362D02*
X195351400Y-122035086D01*
X195242543Y-122273362D02*
X195242543Y-121772982D01*
X195416715Y-121772982D01*
X195460257Y-121796810D01*
X195482029Y-121820638D01*
X195503800Y-121868293D01*
X195503800Y-121939776D01*
X195482029Y-121987431D01*
X195460257Y-122011259D01*
X195416715Y-122035086D01*
X195242543Y-122035086D01*
X195656200Y-121772982D02*
X195961000Y-121772982D01*
X195765057Y-122273362D01*
D14*
X181483000Y-133059714D02*
X181229000Y-132696857D01*
X181047572Y-133059714D02*
X181047572Y-132297714D01*
X181337857Y-132297714D01*
X181410429Y-132334000D01*
X181446714Y-132370286D01*
X181483000Y-132442857D01*
X181483000Y-132551714D01*
X181446714Y-132624286D01*
X181410429Y-132660571D01*
X181337857Y-132696857D01*
X181047572Y-132696857D01*
X182208714Y-133059714D02*
X181773286Y-133059714D01*
X181991000Y-133059714D02*
X181991000Y-132297714D01*
X181918429Y-132406571D01*
X181845857Y-132479143D01*
X181773286Y-132515429D01*
X181483000Y-139663714D02*
X181229000Y-139300857D01*
X181047572Y-139663714D02*
X181047572Y-138901714D01*
X181337857Y-138901714D01*
X181410429Y-138938000D01*
X181446714Y-138974286D01*
X181483000Y-139046857D01*
X181483000Y-139155714D01*
X181446714Y-139228286D01*
X181410429Y-139264571D01*
X181337857Y-139300857D01*
X181047572Y-139300857D01*
X181773286Y-138974286D02*
X181809572Y-138938000D01*
X181882143Y-138901714D01*
X182063572Y-138901714D01*
X182136143Y-138938000D01*
X182172429Y-138974286D01*
X182208714Y-139046857D01*
X182208714Y-139119429D01*
X182172429Y-139228286D01*
X181737000Y-139663714D01*
X182208714Y-139663714D01*
X181501143Y-136234714D02*
X181247143Y-135871857D01*
X181065715Y-136234714D02*
X181065715Y-135472714D01*
X181356000Y-135472714D01*
X181428572Y-135509000D01*
X181464857Y-135545286D01*
X181501143Y-135617857D01*
X181501143Y-135726714D01*
X181464857Y-135799286D01*
X181428572Y-135835571D01*
X181356000Y-135871857D01*
X181065715Y-135871857D01*
X182190572Y-135472714D02*
X181827715Y-135472714D01*
X181791429Y-135835571D01*
X181827715Y-135799286D01*
X181900286Y-135763000D01*
X182081715Y-135763000D01*
X182154286Y-135799286D01*
X182190572Y-135835571D01*
X182226857Y-135908143D01*
X182226857Y-136089571D01*
X182190572Y-136162143D01*
X182154286Y-136198429D01*
X182081715Y-136234714D01*
X181900286Y-136234714D01*
X181827715Y-136198429D01*
X181791429Y-136162143D01*
X182517143Y-135545286D02*
X182553429Y-135509000D01*
X182626000Y-135472714D01*
X182807429Y-135472714D01*
X182880000Y-135509000D01*
X182916286Y-135545286D01*
X182952571Y-135617857D01*
X182952571Y-135690429D01*
X182916286Y-135799286D01*
X182480857Y-136234714D01*
X182952571Y-136234714D01*
X242461143Y-135345714D02*
X242207143Y-134982857D01*
X242025715Y-135345714D02*
X242025715Y-134583714D01*
X242316000Y-134583714D01*
X242388572Y-134620000D01*
X242424857Y-134656286D01*
X242461143Y-134728857D01*
X242461143Y-134837714D01*
X242424857Y-134910286D01*
X242388572Y-134946571D01*
X242316000Y-134982857D01*
X242025715Y-134982857D01*
X243150572Y-134583714D02*
X242787715Y-134583714D01*
X242751429Y-134946571D01*
X242787715Y-134910286D01*
X242860286Y-134874000D01*
X243041715Y-134874000D01*
X243114286Y-134910286D01*
X243150572Y-134946571D01*
X243186857Y-135019143D01*
X243186857Y-135200571D01*
X243150572Y-135273143D01*
X243114286Y-135309429D01*
X243041715Y-135345714D01*
X242860286Y-135345714D01*
X242787715Y-135309429D01*
X242751429Y-135273143D01*
X243440857Y-134583714D02*
X243912571Y-134583714D01*
X243658571Y-134874000D01*
X243767429Y-134874000D01*
X243840000Y-134910286D01*
X243876286Y-134946571D01*
X243912571Y-135019143D01*
X243912571Y-135200571D01*
X243876286Y-135273143D01*
X243840000Y-135309429D01*
X243767429Y-135345714D01*
X243549714Y-135345714D01*
X243477143Y-135309429D01*
X243440857Y-135273143D01*
X242334143Y-138520714D02*
X242080143Y-138157857D01*
X241898715Y-138520714D02*
X241898715Y-137758714D01*
X242189000Y-137758714D01*
X242261572Y-137795000D01*
X242297857Y-137831286D01*
X242334143Y-137903857D01*
X242334143Y-138012714D01*
X242297857Y-138085286D01*
X242261572Y-138121571D01*
X242189000Y-138157857D01*
X241898715Y-138157857D01*
X243023572Y-137758714D02*
X242660715Y-137758714D01*
X242624429Y-138121571D01*
X242660715Y-138085286D01*
X242733286Y-138049000D01*
X242914715Y-138049000D01*
X242987286Y-138085286D01*
X243023572Y-138121571D01*
X243059857Y-138194143D01*
X243059857Y-138375571D01*
X243023572Y-138448143D01*
X242987286Y-138484429D01*
X242914715Y-138520714D01*
X242733286Y-138520714D01*
X242660715Y-138484429D01*
X242624429Y-138448143D01*
X243713000Y-138012714D02*
X243713000Y-138520714D01*
X243531571Y-137722429D02*
X243350143Y-138266714D01*
X243821857Y-138266714D01*
X242334143Y-132043714D02*
X242080143Y-131680857D01*
X241898715Y-132043714D02*
X241898715Y-131281714D01*
X242189000Y-131281714D01*
X242261572Y-131318000D01*
X242297857Y-131354286D01*
X242334143Y-131426857D01*
X242334143Y-131535714D01*
X242297857Y-131608286D01*
X242261572Y-131644571D01*
X242189000Y-131680857D01*
X241898715Y-131680857D01*
X243023572Y-131281714D02*
X242660715Y-131281714D01*
X242624429Y-131644571D01*
X242660715Y-131608286D01*
X242733286Y-131572000D01*
X242914715Y-131572000D01*
X242987286Y-131608286D01*
X243023572Y-131644571D01*
X243059857Y-131717143D01*
X243059857Y-131898571D01*
X243023572Y-131971143D01*
X242987286Y-132007429D01*
X242914715Y-132043714D01*
X242733286Y-132043714D01*
X242660715Y-132007429D01*
X242624429Y-131971143D01*
X243749286Y-131281714D02*
X243386429Y-131281714D01*
X243350143Y-131644571D01*
X243386429Y-131608286D01*
X243459000Y-131572000D01*
X243640429Y-131572000D01*
X243713000Y-131608286D01*
X243749286Y-131644571D01*
X243785571Y-131717143D01*
X243785571Y-131898571D01*
X243749286Y-131971143D01*
X243713000Y-132007429D01*
X243640429Y-132043714D01*
X243459000Y-132043714D01*
X243386429Y-132007429D01*
X243350143Y-131971143D01*
X181628143Y-142584714D02*
X181374143Y-142221857D01*
X181192715Y-142584714D02*
X181192715Y-141822714D01*
X181483000Y-141822714D01*
X181555572Y-141859000D01*
X181591857Y-141895286D01*
X181628143Y-141967857D01*
X181628143Y-142076714D01*
X181591857Y-142149286D01*
X181555572Y-142185571D01*
X181483000Y-142221857D01*
X181192715Y-142221857D01*
X182353857Y-142584714D02*
X181918429Y-142584714D01*
X182136143Y-142584714D02*
X182136143Y-141822714D01*
X182063572Y-141931571D01*
X181991000Y-142004143D01*
X181918429Y-142040429D01*
X183079571Y-142584714D02*
X182644143Y-142584714D01*
X182861857Y-142584714D02*
X182861857Y-141822714D01*
X182789286Y-141931571D01*
X182716714Y-142004143D01*
X182644143Y-142040429D01*
X242207143Y-128868714D02*
X241953143Y-128505857D01*
X241771715Y-128868714D02*
X241771715Y-128106714D01*
X242062000Y-128106714D01*
X242134572Y-128143000D01*
X242170857Y-128179286D01*
X242207143Y-128251857D01*
X242207143Y-128360714D01*
X242170857Y-128433286D01*
X242134572Y-128469571D01*
X242062000Y-128505857D01*
X241771715Y-128505857D01*
X242932857Y-128868714D02*
X242497429Y-128868714D01*
X242715143Y-128868714D02*
X242715143Y-128106714D01*
X242642572Y-128215571D01*
X242570000Y-128288143D01*
X242497429Y-128324429D01*
X243368286Y-128433286D02*
X243295714Y-128397000D01*
X243259429Y-128360714D01*
X243223143Y-128288143D01*
X243223143Y-128251857D01*
X243259429Y-128179286D01*
X243295714Y-128143000D01*
X243368286Y-128106714D01*
X243513429Y-128106714D01*
X243586000Y-128143000D01*
X243622286Y-128179286D01*
X243658571Y-128251857D01*
X243658571Y-128288143D01*
X243622286Y-128360714D01*
X243586000Y-128397000D01*
X243513429Y-128433286D01*
X243368286Y-128433286D01*
X243295714Y-128469571D01*
X243259429Y-128505857D01*
X243223143Y-128578429D01*
X243223143Y-128723571D01*
X243259429Y-128796143D01*
X243295714Y-128832429D01*
X243368286Y-128868714D01*
X243513429Y-128868714D01*
X243586000Y-128832429D01*
X243622286Y-128796143D01*
X243658571Y-128723571D01*
X243658571Y-128578429D01*
X243622286Y-128505857D01*
X243586000Y-128469571D01*
X243513429Y-128433286D01*
X183231972Y-122036114D02*
X183231972Y-121274114D01*
X183413400Y-121274114D01*
X183522257Y-121310400D01*
X183594829Y-121382971D01*
X183631114Y-121455543D01*
X183667400Y-121600686D01*
X183667400Y-121709543D01*
X183631114Y-121854686D01*
X183594829Y-121927257D01*
X183522257Y-121999829D01*
X183413400Y-122036114D01*
X183231972Y-122036114D01*
X184102829Y-121600686D02*
X184030257Y-121564400D01*
X183993972Y-121528114D01*
X183957686Y-121455543D01*
X183957686Y-121419257D01*
X183993972Y-121346686D01*
X184030257Y-121310400D01*
X184102829Y-121274114D01*
X184247972Y-121274114D01*
X184320543Y-121310400D01*
X184356829Y-121346686D01*
X184393114Y-121419257D01*
X184393114Y-121455543D01*
X184356829Y-121528114D01*
X184320543Y-121564400D01*
X184247972Y-121600686D01*
X184102829Y-121600686D01*
X184030257Y-121636971D01*
X183993972Y-121673257D01*
X183957686Y-121745829D01*
X183957686Y-121890971D01*
X183993972Y-121963543D01*
X184030257Y-121999829D01*
X184102829Y-122036114D01*
X184247972Y-122036114D01*
X184320543Y-121999829D01*
X184356829Y-121963543D01*
X184393114Y-121890971D01*
X184393114Y-121745829D01*
X184356829Y-121673257D01*
X184320543Y-121636971D01*
X184247972Y-121600686D01*
X185993315Y-116473514D02*
X185993315Y-115711514D01*
X186174743Y-115711514D01*
X186283600Y-115747800D01*
X186356172Y-115820371D01*
X186392457Y-115892943D01*
X186428743Y-116038086D01*
X186428743Y-116146943D01*
X186392457Y-116292086D01*
X186356172Y-116364657D01*
X186283600Y-116437229D01*
X186174743Y-116473514D01*
X185993315Y-116473514D01*
X187154457Y-116473514D02*
X186719029Y-116473514D01*
X186936743Y-116473514D02*
X186936743Y-115711514D01*
X186864172Y-115820371D01*
X186791600Y-115892943D01*
X186719029Y-115929229D01*
X187626171Y-115711514D02*
X187698743Y-115711514D01*
X187771314Y-115747800D01*
X187807600Y-115784086D01*
X187843886Y-115856657D01*
X187880171Y-116001800D01*
X187880171Y-116183229D01*
X187843886Y-116328371D01*
X187807600Y-116400943D01*
X187771314Y-116437229D01*
X187698743Y-116473514D01*
X187626171Y-116473514D01*
X187553600Y-116437229D01*
X187517314Y-116400943D01*
X187481029Y-116328371D01*
X187444743Y-116183229D01*
X187444743Y-116001800D01*
X187481029Y-115856657D01*
X187517314Y-115784086D01*
X187553600Y-115747800D01*
X187626171Y-115711514D01*
X214085715Y-120893114D02*
X214085715Y-120131114D01*
X214267143Y-120131114D01*
X214376000Y-120167400D01*
X214448572Y-120239971D01*
X214484857Y-120312543D01*
X214521143Y-120457686D01*
X214521143Y-120566543D01*
X214484857Y-120711686D01*
X214448572Y-120784257D01*
X214376000Y-120856829D01*
X214267143Y-120893114D01*
X214085715Y-120893114D01*
X215246857Y-120893114D02*
X214811429Y-120893114D01*
X215029143Y-120893114D02*
X215029143Y-120131114D01*
X214956572Y-120239971D01*
X214884000Y-120312543D01*
X214811429Y-120348829D01*
X215537143Y-120203686D02*
X215573429Y-120167400D01*
X215646000Y-120131114D01*
X215827429Y-120131114D01*
X215900000Y-120167400D01*
X215936286Y-120203686D01*
X215972571Y-120276257D01*
X215972571Y-120348829D01*
X215936286Y-120457686D01*
X215500857Y-120893114D01*
X215972571Y-120893114D01*
X215838315Y-116448114D02*
X215838315Y-115686114D01*
X216019743Y-115686114D01*
X216128600Y-115722400D01*
X216201172Y-115794971D01*
X216237457Y-115867543D01*
X216273743Y-116012686D01*
X216273743Y-116121543D01*
X216237457Y-116266686D01*
X216201172Y-116339257D01*
X216128600Y-116411829D01*
X216019743Y-116448114D01*
X215838315Y-116448114D01*
X216999457Y-116448114D02*
X216564029Y-116448114D01*
X216781743Y-116448114D02*
X216781743Y-115686114D01*
X216709172Y-115794971D01*
X216636600Y-115867543D01*
X216564029Y-115903829D01*
X217652600Y-115940114D02*
X217652600Y-116448114D01*
X217471171Y-115649829D02*
X217289743Y-116194114D01*
X217761457Y-116194114D01*
X229427315Y-120867714D02*
X229427315Y-120105714D01*
X229608743Y-120105714D01*
X229717600Y-120142000D01*
X229790172Y-120214571D01*
X229826457Y-120287143D01*
X229862743Y-120432286D01*
X229862743Y-120541143D01*
X229826457Y-120686286D01*
X229790172Y-120758857D01*
X229717600Y-120831429D01*
X229608743Y-120867714D01*
X229427315Y-120867714D01*
X230588457Y-120867714D02*
X230153029Y-120867714D01*
X230370743Y-120867714D02*
X230370743Y-120105714D01*
X230298172Y-120214571D01*
X230225600Y-120287143D01*
X230153029Y-120323429D01*
X230842457Y-120105714D02*
X231314171Y-120105714D01*
X231060171Y-120396000D01*
X231169029Y-120396000D01*
X231241600Y-120432286D01*
X231277886Y-120468571D01*
X231314171Y-120541143D01*
X231314171Y-120722571D01*
X231277886Y-120795143D01*
X231241600Y-120831429D01*
X231169029Y-120867714D01*
X230951314Y-120867714D01*
X230878743Y-120831429D01*
X230842457Y-120795143D01*
X231027515Y-116473514D02*
X231027515Y-115711514D01*
X231208943Y-115711514D01*
X231317800Y-115747800D01*
X231390372Y-115820371D01*
X231426657Y-115892943D01*
X231462943Y-116038086D01*
X231462943Y-116146943D01*
X231426657Y-116292086D01*
X231390372Y-116364657D01*
X231317800Y-116437229D01*
X231208943Y-116473514D01*
X231027515Y-116473514D01*
X232188657Y-116473514D02*
X231753229Y-116473514D01*
X231970943Y-116473514D02*
X231970943Y-115711514D01*
X231898372Y-115820371D01*
X231825800Y-115892943D01*
X231753229Y-115929229D01*
X232878086Y-115711514D02*
X232515229Y-115711514D01*
X232478943Y-116074371D01*
X232515229Y-116038086D01*
X232587800Y-116001800D01*
X232769229Y-116001800D01*
X232841800Y-116038086D01*
X232878086Y-116074371D01*
X232914371Y-116146943D01*
X232914371Y-116328371D01*
X232878086Y-116400943D01*
X232841800Y-116437229D01*
X232769229Y-116473514D01*
X232587800Y-116473514D01*
X232515229Y-116437229D01*
X232478943Y-116400943D01*
X199335572Y-120740714D02*
X199335572Y-119978714D01*
X199517000Y-119978714D01*
X199625857Y-120015000D01*
X199698429Y-120087571D01*
X199734714Y-120160143D01*
X199771000Y-120305286D01*
X199771000Y-120414143D01*
X199734714Y-120559286D01*
X199698429Y-120631857D01*
X199625857Y-120704429D01*
X199517000Y-120740714D01*
X199335572Y-120740714D01*
X200133857Y-120740714D02*
X200279000Y-120740714D01*
X200351572Y-120704429D01*
X200387857Y-120668143D01*
X200460429Y-120559286D01*
X200496714Y-120414143D01*
X200496714Y-120123857D01*
X200460429Y-120051286D01*
X200424143Y-120015000D01*
X200351572Y-119978714D01*
X200206429Y-119978714D01*
X200133857Y-120015000D01*
X200097572Y-120051286D01*
X200061286Y-120123857D01*
X200061286Y-120305286D01*
X200097572Y-120377857D01*
X200133857Y-120414143D01*
X200206429Y-120450429D01*
X200351572Y-120450429D01*
X200424143Y-120414143D01*
X200460429Y-120377857D01*
X200496714Y-120305286D01*
X200674515Y-116524314D02*
X200674515Y-115762314D01*
X200855943Y-115762314D01*
X200964800Y-115798600D01*
X201037372Y-115871171D01*
X201073657Y-115943743D01*
X201109943Y-116088886D01*
X201109943Y-116197743D01*
X201073657Y-116342886D01*
X201037372Y-116415457D01*
X200964800Y-116488029D01*
X200855943Y-116524314D01*
X200674515Y-116524314D01*
X201835657Y-116524314D02*
X201400229Y-116524314D01*
X201617943Y-116524314D02*
X201617943Y-115762314D01*
X201545372Y-115871171D01*
X201472800Y-115943743D01*
X201400229Y-115980029D01*
X202561371Y-116524314D02*
X202125943Y-116524314D01*
X202343657Y-116524314D02*
X202343657Y-115762314D01*
X202271086Y-115871171D01*
X202198514Y-115943743D01*
X202125943Y-115980029D01*
X225660857Y-55607857D02*
X225709238Y-55644143D01*
X225757619Y-55753000D01*
X225757619Y-55825571D01*
X225709238Y-55934428D01*
X225612476Y-56007000D01*
X225515714Y-56043285D01*
X225322190Y-56079571D01*
X225177048Y-56079571D01*
X224983524Y-56043285D01*
X224886762Y-56007000D01*
X224790000Y-55934428D01*
X224741619Y-55825571D01*
X224741619Y-55753000D01*
X224790000Y-55644143D01*
X224838381Y-55607857D01*
X225757619Y-54882143D02*
X225757619Y-55317571D01*
X225757619Y-55099857D02*
X224741619Y-55099857D01*
X224886762Y-55172428D01*
X224983524Y-55245000D01*
X225031905Y-55317571D01*
X225177048Y-54446714D02*
X225128667Y-54519286D01*
X225080286Y-54555571D01*
X224983524Y-54591857D01*
X224935143Y-54591857D01*
X224838381Y-54555571D01*
X224790000Y-54519286D01*
X224741619Y-54446714D01*
X224741619Y-54301571D01*
X224790000Y-54229000D01*
X224838381Y-54192714D01*
X224935143Y-54156429D01*
X224983524Y-54156429D01*
X225080286Y-54192714D01*
X225128667Y-54229000D01*
X225177048Y-54301571D01*
X225177048Y-54446714D01*
X225225429Y-54519286D01*
X225273810Y-54555571D01*
X225370571Y-54591857D01*
X225564095Y-54591857D01*
X225660857Y-54555571D01*
X225709238Y-54519286D01*
X225757619Y-54446714D01*
X225757619Y-54301571D01*
X225709238Y-54229000D01*
X225660857Y-54192714D01*
X225564095Y-54156429D01*
X225370571Y-54156429D01*
X225273810Y-54192714D01*
X225225429Y-54229000D01*
X225177048Y-54301571D01*
D15*
X205749071Y-123679857D02*
X206674357Y-123679857D01*
X206783214Y-123625429D01*
X206837643Y-123571000D01*
X206892071Y-123462143D01*
X206892071Y-123244429D01*
X206837643Y-123135571D01*
X206783214Y-123081143D01*
X206674357Y-123026714D01*
X205749071Y-123026714D01*
X205749071Y-121938142D02*
X205749071Y-122482428D01*
X206293357Y-122536857D01*
X206238929Y-122482428D01*
X206184500Y-122373571D01*
X206184500Y-122101428D01*
X206238929Y-121992571D01*
X206293357Y-121938142D01*
X206402214Y-121883714D01*
X206674357Y-121883714D01*
X206783214Y-121938142D01*
X206837643Y-121992571D01*
X206892071Y-122101428D01*
X206892071Y-122373571D01*
X206837643Y-122482428D01*
X206783214Y-122536857D01*
X220989071Y-123679857D02*
X221914357Y-123679857D01*
X222023214Y-123625429D01*
X222077643Y-123571000D01*
X222132071Y-123462143D01*
X222132071Y-123244429D01*
X222077643Y-123135571D01*
X222023214Y-123081143D01*
X221914357Y-123026714D01*
X220989071Y-123026714D01*
X220989071Y-122591285D02*
X220989071Y-121829285D01*
X222132071Y-122319142D01*
X236229071Y-123679857D02*
X237154357Y-123679857D01*
X237263214Y-123625429D01*
X237317643Y-123571000D01*
X237372071Y-123462143D01*
X237372071Y-123244429D01*
X237317643Y-123135571D01*
X237263214Y-123081143D01*
X237154357Y-123026714D01*
X236229071Y-123026714D01*
X236718929Y-122319142D02*
X236664500Y-122428000D01*
X236610071Y-122482428D01*
X236501214Y-122536857D01*
X236446786Y-122536857D01*
X236337929Y-122482428D01*
X236283500Y-122428000D01*
X236229071Y-122319142D01*
X236229071Y-122101428D01*
X236283500Y-121992571D01*
X236337929Y-121938142D01*
X236446786Y-121883714D01*
X236501214Y-121883714D01*
X236610071Y-121938142D01*
X236664500Y-121992571D01*
X236718929Y-122101428D01*
X236718929Y-122319142D01*
X236773357Y-122428000D01*
X236827786Y-122482428D01*
X236936643Y-122536857D01*
X237154357Y-122536857D01*
X237263214Y-122482428D01*
X237317643Y-122428000D01*
X237372071Y-122319142D01*
X237372071Y-122101428D01*
X237317643Y-121992571D01*
X237263214Y-121938142D01*
X237154357Y-121883714D01*
X236936643Y-121883714D01*
X236827786Y-121938142D01*
X236773357Y-121992571D01*
X236718929Y-122101428D01*
X189502143Y-125739071D02*
X189502143Y-126664357D01*
X189556571Y-126773214D01*
X189611000Y-126827643D01*
X189719857Y-126882071D01*
X189937571Y-126882071D01*
X190046429Y-126827643D01*
X190100857Y-126773214D01*
X190155286Y-126664357D01*
X190155286Y-125739071D01*
X191189429Y-126120071D02*
X191189429Y-126882071D01*
X190917286Y-125684643D02*
X190645143Y-126501071D01*
X191352715Y-126501071D01*
X223507905Y-67388619D02*
X223507905Y-68211095D01*
X223556286Y-68307857D01*
X223604667Y-68356238D01*
X223701429Y-68404619D01*
X223894952Y-68404619D01*
X223991714Y-68356238D01*
X224040095Y-68307857D01*
X224088476Y-68211095D01*
X224088476Y-67388619D01*
X224620667Y-68404619D02*
X224814191Y-68404619D01*
X224910952Y-68356238D01*
X224959333Y-68307857D01*
X225056095Y-68162714D01*
X225104476Y-67969190D01*
X225104476Y-67582143D01*
X225056095Y-67485381D01*
X225007714Y-67437000D01*
X224910952Y-67388619D01*
X224717429Y-67388619D01*
X224620667Y-67437000D01*
X224572286Y-67485381D01*
X224523905Y-67582143D01*
X224523905Y-67824048D01*
X224572286Y-67920810D01*
X224620667Y-67969190D01*
X224717429Y-68017571D01*
X224910952Y-68017571D01*
X225007714Y-67969190D01*
X225056095Y-67920810D01*
X225104476Y-67824048D01*
D17*
X219504562Y-68696115D02*
X219266286Y-68848515D01*
X219504562Y-68957372D02*
X219004182Y-68957372D01*
X219004182Y-68783200D01*
X219028010Y-68739658D01*
X219051838Y-68717886D01*
X219099493Y-68696115D01*
X219170976Y-68696115D01*
X219218631Y-68717886D01*
X219242459Y-68739658D01*
X219266286Y-68783200D01*
X219266286Y-68957372D01*
X219004182Y-68304229D02*
X219004182Y-68391315D01*
X219028010Y-68434858D01*
X219051838Y-68456629D01*
X219123320Y-68500172D01*
X219218631Y-68521943D01*
X219409252Y-68521943D01*
X219456907Y-68500172D01*
X219480735Y-68478400D01*
X219504562Y-68434858D01*
X219504562Y-68347772D01*
X219480735Y-68304229D01*
X219456907Y-68282458D01*
X219409252Y-68260686D01*
X219290114Y-68260686D01*
X219242459Y-68282458D01*
X219218631Y-68304229D01*
X219194803Y-68347772D01*
X219194803Y-68434858D01*
X219218631Y-68478400D01*
X219242459Y-68500172D01*
X219290114Y-68521943D01*
X219218631Y-67999429D02*
X219194803Y-68042971D01*
X219170976Y-68064743D01*
X219123320Y-68086514D01*
X219099493Y-68086514D01*
X219051838Y-68064743D01*
X219028010Y-68042971D01*
X219004182Y-67999429D01*
X219004182Y-67912343D01*
X219028010Y-67868800D01*
X219051838Y-67847029D01*
X219099493Y-67825257D01*
X219123320Y-67825257D01*
X219170976Y-67847029D01*
X219194803Y-67868800D01*
X219218631Y-67912343D01*
X219218631Y-67999429D01*
X219242459Y-68042971D01*
X219266286Y-68064743D01*
X219313941Y-68086514D01*
X219409252Y-68086514D01*
X219456907Y-68064743D01*
X219480735Y-68042971D01*
X219504562Y-67999429D01*
X219504562Y-67912343D01*
X219480735Y-67868800D01*
X219456907Y-67847029D01*
X219409252Y-67825257D01*
X219313941Y-67825257D01*
X219266286Y-67847029D01*
X219242459Y-67868800D01*
X219218631Y-67912343D01*
X199997362Y-91606915D02*
X199759086Y-91759315D01*
X199997362Y-91868172D02*
X199496982Y-91868172D01*
X199496982Y-91694000D01*
X199520810Y-91650458D01*
X199544638Y-91628686D01*
X199592293Y-91606915D01*
X199663776Y-91606915D01*
X199711431Y-91628686D01*
X199735259Y-91650458D01*
X199759086Y-91694000D01*
X199759086Y-91868172D01*
X199496982Y-91215029D02*
X199496982Y-91302115D01*
X199520810Y-91345658D01*
X199544638Y-91367429D01*
X199616120Y-91410972D01*
X199711431Y-91432743D01*
X199902052Y-91432743D01*
X199949707Y-91410972D01*
X199973535Y-91389200D01*
X199997362Y-91345658D01*
X199997362Y-91258572D01*
X199973535Y-91215029D01*
X199949707Y-91193258D01*
X199902052Y-91171486D01*
X199782914Y-91171486D01*
X199735259Y-91193258D01*
X199711431Y-91215029D01*
X199687603Y-91258572D01*
X199687603Y-91345658D01*
X199711431Y-91389200D01*
X199735259Y-91410972D01*
X199782914Y-91432743D01*
X199496982Y-90779600D02*
X199496982Y-90866686D01*
X199520810Y-90910229D01*
X199544638Y-90932000D01*
X199616120Y-90975543D01*
X199711431Y-90997314D01*
X199902052Y-90997314D01*
X199949707Y-90975543D01*
X199973535Y-90953771D01*
X199997362Y-90910229D01*
X199997362Y-90823143D01*
X199973535Y-90779600D01*
X199949707Y-90757829D01*
X199902052Y-90736057D01*
X199782914Y-90736057D01*
X199735259Y-90757829D01*
X199711431Y-90779600D01*
X199687603Y-90823143D01*
X199687603Y-90910229D01*
X199711431Y-90953771D01*
X199735259Y-90975543D01*
X199782914Y-90997314D01*
X199870362Y-93257915D02*
X199632086Y-93410315D01*
X199870362Y-93519172D02*
X199369982Y-93519172D01*
X199369982Y-93345000D01*
X199393810Y-93301458D01*
X199417638Y-93279686D01*
X199465293Y-93257915D01*
X199536776Y-93257915D01*
X199584431Y-93279686D01*
X199608259Y-93301458D01*
X199632086Y-93345000D01*
X199632086Y-93519172D01*
X199369982Y-92866029D02*
X199369982Y-92953115D01*
X199393810Y-92996658D01*
X199417638Y-93018429D01*
X199489120Y-93061972D01*
X199584431Y-93083743D01*
X199775052Y-93083743D01*
X199822707Y-93061972D01*
X199846535Y-93040200D01*
X199870362Y-92996658D01*
X199870362Y-92909572D01*
X199846535Y-92866029D01*
X199822707Y-92844258D01*
X199775052Y-92822486D01*
X199655914Y-92822486D01*
X199608259Y-92844258D01*
X199584431Y-92866029D01*
X199560603Y-92909572D01*
X199560603Y-92996658D01*
X199584431Y-93040200D01*
X199608259Y-93061972D01*
X199655914Y-93083743D01*
X199369982Y-92670086D02*
X199369982Y-92365286D01*
X199870362Y-92561229D01*
X214604600Y-70996629D02*
X214582829Y-71020819D01*
X214517515Y-71045010D01*
X214473972Y-71045010D01*
X214408657Y-71020819D01*
X214365115Y-70972438D01*
X214343343Y-70924057D01*
X214321572Y-70827295D01*
X214321572Y-70754724D01*
X214343343Y-70657962D01*
X214365115Y-70609581D01*
X214408657Y-70561200D01*
X214473972Y-70537010D01*
X214517515Y-70537010D01*
X214582829Y-70561200D01*
X214604600Y-70585390D01*
X214778772Y-70585390D02*
X214800543Y-70561200D01*
X214844086Y-70537010D01*
X214952943Y-70537010D01*
X214996486Y-70561200D01*
X215018257Y-70585390D01*
X215040029Y-70633771D01*
X215040029Y-70682152D01*
X215018257Y-70754724D01*
X214757000Y-71045010D01*
X215040029Y-71045010D01*
X214169171Y-72696010D02*
X213907914Y-72696010D01*
X214038542Y-72696010D02*
X214038542Y-72188010D01*
X213994999Y-72260581D01*
X213951457Y-72308962D01*
X213907914Y-72333152D01*
X214452200Y-72188010D02*
X214495743Y-72188010D01*
X214539286Y-72212200D01*
X214561057Y-72236390D01*
X214582828Y-72284771D01*
X214604600Y-72381533D01*
X214604600Y-72502486D01*
X214582828Y-72599248D01*
X214561057Y-72647629D01*
X214539286Y-72671819D01*
X214495743Y-72696010D01*
X214452200Y-72696010D01*
X214408657Y-72671819D01*
X214386886Y-72647629D01*
X214365114Y-72599248D01*
X214343343Y-72502486D01*
X214343343Y-72381533D01*
X214365114Y-72284771D01*
X214386886Y-72236390D01*
X214408657Y-72212200D01*
X214452200Y-72188010D01*
X214887629Y-72188010D02*
X214931172Y-72188010D01*
X214974715Y-72212200D01*
X214996486Y-72236390D01*
X215018257Y-72284771D01*
X215040029Y-72381533D01*
X215040029Y-72502486D01*
X215018257Y-72599248D01*
X214996486Y-72647629D01*
X214974715Y-72671819D01*
X214931172Y-72696010D01*
X214887629Y-72696010D01*
X214844086Y-72671819D01*
X214822315Y-72647629D01*
X214800543Y-72599248D01*
X214778772Y-72502486D01*
X214778772Y-72381533D01*
X214800543Y-72284771D01*
X214822315Y-72236390D01*
X214844086Y-72212200D01*
X214887629Y-72188010D01*
X215235972Y-72357343D02*
X215235972Y-72696010D01*
X215235972Y-72405724D02*
X215257744Y-72381533D01*
X215301286Y-72357343D01*
X215366601Y-72357343D01*
X215410144Y-72381533D01*
X215431915Y-72429914D01*
X215431915Y-72696010D01*
D11*
X194648667Y-64431333D02*
X194648667Y-65870667D01*
X194733334Y-66040000D01*
X194818001Y-66124667D01*
X194987334Y-66209333D01*
X195326001Y-66209333D01*
X195495334Y-66124667D01*
X195580001Y-66040000D01*
X195664667Y-65870667D01*
X195664667Y-64431333D01*
X197442668Y-66209333D02*
X196426668Y-66209333D01*
X196934668Y-66209333D02*
X196934668Y-64431333D01*
X196765334Y-64685333D01*
X196596001Y-64854667D01*
X196426668Y-64939333D01*
X198543334Y-64431333D02*
X198712667Y-64431333D01*
X198882001Y-64516000D01*
X198966667Y-64600667D01*
X199051334Y-64770000D01*
X199136001Y-65108667D01*
X199136001Y-65532000D01*
X199051334Y-65870667D01*
X198966667Y-66040000D01*
X198882001Y-66124667D01*
X198712667Y-66209333D01*
X198543334Y-66209333D01*
X198374001Y-66124667D01*
X198289334Y-66040000D01*
X198204667Y-65870667D01*
X198120001Y-65532000D01*
X198120001Y-65108667D01*
X198204667Y-64770000D01*
X198289334Y-64600667D01*
X198374001Y-64516000D01*
X198543334Y-64431333D01*
D15*
X207276096Y-55831619D02*
X207276096Y-56654095D01*
X207324477Y-56750857D01*
X207372858Y-56799238D01*
X207469620Y-56847619D01*
X207663143Y-56847619D01*
X207759905Y-56799238D01*
X207808286Y-56750857D01*
X207856667Y-56654095D01*
X207856667Y-55831619D01*
X208872667Y-56847619D02*
X208292096Y-56847619D01*
X208582382Y-56847619D02*
X208582382Y-55831619D01*
X208485620Y-55976762D01*
X208388858Y-56073524D01*
X208292096Y-56121905D01*
X209791905Y-55831619D02*
X209308096Y-55831619D01*
X209259715Y-56315429D01*
X209308096Y-56267048D01*
X209404858Y-56218667D01*
X209646762Y-56218667D01*
X209743524Y-56267048D01*
X209791905Y-56315429D01*
X209840286Y-56412190D01*
X209840286Y-56654095D01*
X209791905Y-56750857D01*
X209743524Y-56799238D01*
X209646762Y-56847619D01*
X209404858Y-56847619D01*
X209308096Y-56799238D01*
X209259715Y-56750857D01*
D14*
X206719715Y-48858714D02*
X206719715Y-48096714D01*
X206901143Y-48096714D01*
X207010000Y-48133000D01*
X207082572Y-48205571D01*
X207118857Y-48278143D01*
X207155143Y-48423286D01*
X207155143Y-48532143D01*
X207118857Y-48677286D01*
X207082572Y-48749857D01*
X207010000Y-48822429D01*
X206901143Y-48858714D01*
X206719715Y-48858714D01*
X207445429Y-48169286D02*
X207481715Y-48133000D01*
X207554286Y-48096714D01*
X207735715Y-48096714D01*
X207808286Y-48133000D01*
X207844572Y-48169286D01*
X207880857Y-48241857D01*
X207880857Y-48314429D01*
X207844572Y-48423286D01*
X207409143Y-48858714D01*
X207880857Y-48858714D01*
X208134857Y-48096714D02*
X208606571Y-48096714D01*
X208352571Y-48387000D01*
X208461429Y-48387000D01*
X208534000Y-48423286D01*
X208570286Y-48459571D01*
X208606571Y-48532143D01*
X208606571Y-48713571D01*
X208570286Y-48786143D01*
X208534000Y-48822429D01*
X208461429Y-48858714D01*
X208243714Y-48858714D01*
X208171143Y-48822429D01*
X208134857Y-48786143D01*
D17*
X210907085Y-46835362D02*
X210754685Y-46597086D01*
X210645828Y-46835362D02*
X210645828Y-46334982D01*
X210820000Y-46334982D01*
X210863542Y-46358810D01*
X210885314Y-46382638D01*
X210907085Y-46430293D01*
X210907085Y-46501776D01*
X210885314Y-46549431D01*
X210863542Y-46573259D01*
X210820000Y-46597086D01*
X210645828Y-46597086D01*
X211298971Y-46334982D02*
X211211885Y-46334982D01*
X211168342Y-46358810D01*
X211146571Y-46382638D01*
X211103028Y-46454120D01*
X211081257Y-46549431D01*
X211081257Y-46740052D01*
X211103028Y-46787707D01*
X211124800Y-46811535D01*
X211168342Y-46835362D01*
X211255428Y-46835362D01*
X211298971Y-46811535D01*
X211320742Y-46787707D01*
X211342514Y-46740052D01*
X211342514Y-46620914D01*
X211320742Y-46573259D01*
X211298971Y-46549431D01*
X211255428Y-46525603D01*
X211168342Y-46525603D01*
X211124800Y-46549431D01*
X211103028Y-46573259D01*
X211081257Y-46620914D01*
X211560229Y-46835362D02*
X211647314Y-46835362D01*
X211690857Y-46811535D01*
X211712629Y-46787707D01*
X211756171Y-46716224D01*
X211777943Y-46620914D01*
X211777943Y-46430293D01*
X211756171Y-46382638D01*
X211734400Y-46358810D01*
X211690857Y-46334982D01*
X211603771Y-46334982D01*
X211560229Y-46358810D01*
X211538457Y-46382638D01*
X211516686Y-46430293D01*
X211516686Y-46549431D01*
X211538457Y-46597086D01*
X211560229Y-46620914D01*
X211603771Y-46644741D01*
X211690857Y-46644741D01*
X211734400Y-46620914D01*
X211756171Y-46597086D01*
X211777943Y-46549431D01*
X201349429Y-56427915D02*
X201373619Y-56449686D01*
X201397810Y-56515000D01*
X201397810Y-56558543D01*
X201373619Y-56623858D01*
X201325238Y-56667400D01*
X201276857Y-56689172D01*
X201180095Y-56710943D01*
X201107524Y-56710943D01*
X201010762Y-56689172D01*
X200962381Y-56667400D01*
X200914000Y-56623858D01*
X200889810Y-56558543D01*
X200889810Y-56515000D01*
X200914000Y-56449686D01*
X200938190Y-56427915D01*
X200938190Y-56253743D02*
X200914000Y-56231972D01*
X200889810Y-56188429D01*
X200889810Y-56079572D01*
X200914000Y-56036029D01*
X200938190Y-56014258D01*
X200986571Y-55992486D01*
X201034952Y-55992486D01*
X201107524Y-56014258D01*
X201397810Y-56275515D01*
X201397810Y-55992486D01*
X200889810Y-55840086D02*
X200889810Y-55557057D01*
X201083333Y-55709457D01*
X201083333Y-55644143D01*
X201107524Y-55600600D01*
X201131714Y-55578829D01*
X201180095Y-55557057D01*
X201301048Y-55557057D01*
X201349429Y-55578829D01*
X201373619Y-55600600D01*
X201397810Y-55644143D01*
X201397810Y-55774771D01*
X201373619Y-55818314D01*
X201349429Y-55840086D01*
D11*
X197521285Y-47806429D02*
X198537285Y-49330429D01*
X198537285Y-47806429D02*
X197521285Y-49330429D01*
X199916143Y-49330429D02*
X199045286Y-49330429D01*
X199480714Y-49330429D02*
X199480714Y-47806429D01*
X199335571Y-48024143D01*
X199190429Y-48169286D01*
X199045286Y-48241857D01*
D18*
X256156400Y-122519198D02*
X254421580Y-122519198D01*
X254421580Y-122105057D01*
X254504190Y-122001522D01*
X254586800Y-121949754D01*
X254752021Y-121897986D01*
X254999853Y-121897986D01*
X255165074Y-121949754D01*
X255247684Y-122001522D01*
X255330295Y-122105057D01*
X255330295Y-122519198D01*
X254586800Y-121483846D02*
X254504190Y-121432078D01*
X254421580Y-121328543D01*
X254421580Y-121069705D01*
X254504190Y-120966169D01*
X254586800Y-120914402D01*
X254752021Y-120862634D01*
X254917242Y-120862634D01*
X255165074Y-120914402D01*
X256156400Y-121535613D01*
X256156400Y-120862634D01*
X250200402Y-137411400D02*
X250200402Y-135676580D01*
X250614543Y-135676580D01*
X250718078Y-135759190D01*
X250769846Y-135841800D01*
X250821614Y-136007021D01*
X250821614Y-136254853D01*
X250769846Y-136420074D01*
X250718078Y-136502684D01*
X250614543Y-136585295D01*
X250200402Y-136585295D01*
X251753431Y-135676580D02*
X251546360Y-135676580D01*
X251442825Y-135759190D01*
X251391057Y-135841800D01*
X251287522Y-136089632D01*
X251235754Y-136420074D01*
X251235754Y-137080958D01*
X251287522Y-137246179D01*
X251339290Y-137328789D01*
X251442825Y-137411400D01*
X251649895Y-137411400D01*
X251753431Y-137328789D01*
X251805198Y-137246179D01*
X251856966Y-137080958D01*
X251856966Y-136667905D01*
X251805198Y-136502684D01*
X251753431Y-136420074D01*
X251649895Y-136337463D01*
X251442825Y-136337463D01*
X251339290Y-136420074D01*
X251287522Y-136502684D01*
X251235754Y-136667905D01*
D11*
X237998000Y-158405286D02*
X237925429Y-158477857D01*
X237707715Y-158550429D01*
X237562572Y-158550429D01*
X237344857Y-158477857D01*
X237199715Y-158332714D01*
X237127143Y-158187571D01*
X237054572Y-157897286D01*
X237054572Y-157679571D01*
X237127143Y-157389286D01*
X237199715Y-157244143D01*
X237344857Y-157099000D01*
X237562572Y-157026429D01*
X237707715Y-157026429D01*
X237925429Y-157099000D01*
X237998000Y-157171571D01*
X239449429Y-158550429D02*
X238578572Y-158550429D01*
X239014000Y-158550429D02*
X239014000Y-157026429D01*
X238868857Y-157244143D01*
X238723715Y-157389286D01*
X238578572Y-157461857D01*
X195616285Y-160310286D02*
X195543714Y-160382857D01*
X195326000Y-160455429D01*
X195180857Y-160455429D01*
X194963142Y-160382857D01*
X194818000Y-160237714D01*
X194745428Y-160092571D01*
X194672857Y-159802286D01*
X194672857Y-159584571D01*
X194745428Y-159294286D01*
X194818000Y-159149143D01*
X194963142Y-159004000D01*
X195180857Y-158931429D01*
X195326000Y-158931429D01*
X195543714Y-159004000D01*
X195616285Y-159076571D01*
X197067714Y-160455429D02*
X196196857Y-160455429D01*
X196632285Y-160455429D02*
X196632285Y-158931429D01*
X196487142Y-159149143D01*
X196342000Y-159294286D01*
X196196857Y-159366857D01*
X197793429Y-160455429D02*
X198083714Y-160455429D01*
X198228857Y-160382857D01*
X198301429Y-160310286D01*
X198446571Y-160092571D01*
X198519143Y-159802286D01*
X198519143Y-159221714D01*
X198446571Y-159076571D01*
X198374000Y-159004000D01*
X198228857Y-158931429D01*
X197938571Y-158931429D01*
X197793429Y-159004000D01*
X197720857Y-159076571D01*
X197648286Y-159221714D01*
X197648286Y-159584571D01*
X197720857Y-159729714D01*
X197793429Y-159802286D01*
X197938571Y-159874857D01*
X198228857Y-159874857D01*
X198374000Y-159802286D01*
X198446571Y-159729714D01*
X198519143Y-159584571D01*
X221948828Y-59642829D02*
X221948828Y-58118829D01*
X222529400Y-58118829D01*
X222674542Y-58191400D01*
X222747114Y-58263971D01*
X222819685Y-58409114D01*
X222819685Y-58626829D01*
X222747114Y-58771971D01*
X222674542Y-58844543D01*
X222529400Y-58917114D01*
X221948828Y-58917114D01*
X224271114Y-59642829D02*
X223400257Y-59642829D01*
X223835685Y-59642829D02*
X223835685Y-58118829D01*
X223690542Y-58336543D01*
X223545400Y-58481686D01*
X223400257Y-58554257D01*
X225214543Y-58118829D02*
X225359686Y-58118829D01*
X225504829Y-58191400D01*
X225577400Y-58263971D01*
X225649971Y-58409114D01*
X225722543Y-58699400D01*
X225722543Y-59062257D01*
X225649971Y-59352543D01*
X225577400Y-59497686D01*
X225504829Y-59570257D01*
X225359686Y-59642829D01*
X225214543Y-59642829D01*
X225069400Y-59570257D01*
X224996829Y-59497686D01*
X224924257Y-59352543D01*
X224851686Y-59062257D01*
X224851686Y-58699400D01*
X224924257Y-58409114D01*
X224996829Y-58263971D01*
X225069400Y-58191400D01*
X225214543Y-58118829D01*
X228872143Y-59744429D02*
X228872143Y-58220429D01*
X229452715Y-58220429D01*
X229597857Y-58293000D01*
X229670429Y-58365571D01*
X229743000Y-58510714D01*
X229743000Y-58728429D01*
X229670429Y-58873571D01*
X229597857Y-58946143D01*
X229452715Y-59018714D01*
X228872143Y-59018714D01*
X230468715Y-59744429D02*
X230759000Y-59744429D01*
X230904143Y-59671857D01*
X230976715Y-59599286D01*
X231121857Y-59381571D01*
X231194429Y-59091286D01*
X231194429Y-58510714D01*
X231121857Y-58365571D01*
X231049286Y-58293000D01*
X230904143Y-58220429D01*
X230613857Y-58220429D01*
X230468715Y-58293000D01*
X230396143Y-58365571D01*
X230323572Y-58510714D01*
X230323572Y-58873571D01*
X230396143Y-59018714D01*
X230468715Y-59091286D01*
X230613857Y-59163857D01*
X230904143Y-59163857D01*
X231049286Y-59091286D01*
X231121857Y-59018714D01*
X231194429Y-58873571D01*
X243350143Y-108156829D02*
X243350143Y-106632829D01*
X243930715Y-106632829D01*
X244075857Y-106705400D01*
X244148429Y-106777971D01*
X244221000Y-106923114D01*
X244221000Y-107140829D01*
X244148429Y-107285971D01*
X244075857Y-107358543D01*
X243930715Y-107431114D01*
X243350143Y-107431114D01*
X245672429Y-108156829D02*
X244801572Y-108156829D01*
X245237000Y-108156829D02*
X245237000Y-106632829D01*
X245091857Y-106850543D01*
X244946715Y-106995686D01*
X244801572Y-107068257D01*
X243350143Y-112576429D02*
X243350143Y-111052429D01*
X243930715Y-111052429D01*
X244075857Y-111125000D01*
X244148429Y-111197571D01*
X244221000Y-111342714D01*
X244221000Y-111560429D01*
X244148429Y-111705571D01*
X244075857Y-111778143D01*
X243930715Y-111850714D01*
X243350143Y-111850714D01*
X244729000Y-111052429D02*
X245672429Y-111052429D01*
X245164429Y-111633000D01*
X245382143Y-111633000D01*
X245527286Y-111705571D01*
X245599857Y-111778143D01*
X245672429Y-111923286D01*
X245672429Y-112286143D01*
X245599857Y-112431286D01*
X245527286Y-112503857D01*
X245382143Y-112576429D01*
X244946715Y-112576429D01*
X244801572Y-112503857D01*
X244729000Y-112431286D01*
X208780743Y-151870229D02*
X208780743Y-150346229D01*
X209361315Y-150346229D01*
X209506457Y-150418800D01*
X209579029Y-150491371D01*
X209651600Y-150636514D01*
X209651600Y-150854229D01*
X209579029Y-150999371D01*
X209506457Y-151071943D01*
X209361315Y-151144514D01*
X208780743Y-151144514D01*
X210957886Y-150854229D02*
X210957886Y-151870229D01*
X210595029Y-150273657D02*
X210232172Y-151362229D01*
X211175600Y-151362229D01*
D10*
X215876143Y-50172857D02*
X215923762Y-50220476D01*
X215971381Y-50363333D01*
X215971381Y-50458571D01*
X215923762Y-50601429D01*
X215828524Y-50696667D01*
X215733286Y-50744286D01*
X215542810Y-50791905D01*
X215399952Y-50791905D01*
X215209476Y-50744286D01*
X215114238Y-50696667D01*
X215019000Y-50601429D01*
X214971381Y-50458571D01*
X214971381Y-50363333D01*
X215019000Y-50220476D01*
X215066619Y-50172857D01*
X215066619Y-49791905D02*
X215019000Y-49744286D01*
X214971381Y-49649048D01*
X214971381Y-49410952D01*
X215019000Y-49315714D01*
X215066619Y-49268095D01*
X215161857Y-49220476D01*
X215257095Y-49220476D01*
X215399952Y-49268095D01*
X215971381Y-49839524D01*
X215971381Y-49220476D01*
X214971381Y-48601429D02*
X214971381Y-48506190D01*
X215019000Y-48410952D01*
X215066619Y-48363333D01*
X215161857Y-48315714D01*
X215352333Y-48268095D01*
X215590429Y-48268095D01*
X215780905Y-48315714D01*
X215876143Y-48363333D01*
X215923762Y-48410952D01*
X215971381Y-48506190D01*
X215971381Y-48601429D01*
X215923762Y-48696667D01*
X215876143Y-48744286D01*
X215780905Y-48791905D01*
X215590429Y-48839524D01*
X215352333Y-48839524D01*
X215161857Y-48791905D01*
X215066619Y-48744286D01*
X215019000Y-48696667D01*
X214971381Y-48601429D01*
X215749143Y-58173857D02*
X215796762Y-58221476D01*
X215844381Y-58364333D01*
X215844381Y-58459571D01*
X215796762Y-58602429D01*
X215701524Y-58697667D01*
X215606286Y-58745286D01*
X215415810Y-58792905D01*
X215272952Y-58792905D01*
X215082476Y-58745286D01*
X214987238Y-58697667D01*
X214892000Y-58602429D01*
X214844381Y-58459571D01*
X214844381Y-58364333D01*
X214892000Y-58221476D01*
X214939619Y-58173857D01*
X214939619Y-57792905D02*
X214892000Y-57745286D01*
X214844381Y-57650048D01*
X214844381Y-57411952D01*
X214892000Y-57316714D01*
X214939619Y-57269095D01*
X215034857Y-57221476D01*
X215130095Y-57221476D01*
X215272952Y-57269095D01*
X215844381Y-57840524D01*
X215844381Y-57221476D01*
X214939619Y-56840524D02*
X214892000Y-56792905D01*
X214844381Y-56697667D01*
X214844381Y-56459571D01*
X214892000Y-56364333D01*
X214939619Y-56316714D01*
X215034857Y-56269095D01*
X215130095Y-56269095D01*
X215272952Y-56316714D01*
X215844381Y-56888143D01*
X215844381Y-56269095D01*
D11*
X219920457Y-72546029D02*
X219920457Y-73779743D01*
X219993029Y-73924886D01*
X220065600Y-73997457D01*
X220210743Y-74070029D01*
X220501029Y-74070029D01*
X220646171Y-73997457D01*
X220718743Y-73924886D01*
X220791314Y-73779743D01*
X220791314Y-72546029D01*
X222315314Y-74070029D02*
X221444457Y-74070029D01*
X221879885Y-74070029D02*
X221879885Y-72546029D01*
X221734742Y-72763743D01*
X221589600Y-72908886D01*
X221444457Y-72981457D01*
X182045429Y-47860857D02*
X180521429Y-47860857D01*
X182045429Y-46990000D02*
X181174571Y-47643143D01*
X180521429Y-46990000D02*
X181392286Y-47860857D01*
X182045429Y-46264285D02*
X182045429Y-45974000D01*
X181972857Y-45828857D01*
X181900286Y-45756285D01*
X181682571Y-45611143D01*
X181392286Y-45538571D01*
X180811714Y-45538571D01*
X180666571Y-45611143D01*
X180594000Y-45683714D01*
X180521429Y-45828857D01*
X180521429Y-46119143D01*
X180594000Y-46264285D01*
X180666571Y-46336857D01*
X180811714Y-46409428D01*
X181174571Y-46409428D01*
X181319714Y-46336857D01*
X181392286Y-46264285D01*
X181464857Y-46119143D01*
X181464857Y-45828857D01*
X181392286Y-45683714D01*
X181319714Y-45611143D01*
X181174571Y-45538571D01*
D17*
X197826085Y-89126362D02*
X197673685Y-88888086D01*
X197564828Y-89126362D02*
X197564828Y-88625982D01*
X197739000Y-88625982D01*
X197782542Y-88649810D01*
X197804314Y-88673638D01*
X197826085Y-88721293D01*
X197826085Y-88792776D01*
X197804314Y-88840431D01*
X197782542Y-88864259D01*
X197739000Y-88888086D01*
X197564828Y-88888086D01*
X197978485Y-88625982D02*
X198283285Y-88625982D01*
X198087342Y-89126362D01*
X198435686Y-88673638D02*
X198457457Y-88649810D01*
X198501000Y-88625982D01*
X198609857Y-88625982D01*
X198653400Y-88649810D01*
X198675171Y-88673638D01*
X198696943Y-88721293D01*
X198696943Y-88768948D01*
X198675171Y-88840431D01*
X198413914Y-89126362D01*
X198696943Y-89126362D01*
D14*
X186272714Y-93072857D02*
X185909857Y-93326857D01*
X186272714Y-93508285D02*
X185510714Y-93508285D01*
X185510714Y-93218000D01*
X185547000Y-93145428D01*
X185583286Y-93109143D01*
X185655857Y-93072857D01*
X185764714Y-93072857D01*
X185837286Y-93109143D01*
X185873571Y-93145428D01*
X185909857Y-93218000D01*
X185909857Y-93508285D01*
X185510714Y-92818857D02*
X185510714Y-92310857D01*
X186272714Y-92637428D01*
X185510714Y-91875429D02*
X185510714Y-91802857D01*
X185547000Y-91730286D01*
X185583286Y-91694000D01*
X185655857Y-91657714D01*
X185801000Y-91621429D01*
X185982429Y-91621429D01*
X186127571Y-91657714D01*
X186200143Y-91694000D01*
X186236429Y-91730286D01*
X186272714Y-91802857D01*
X186272714Y-91875429D01*
X186236429Y-91948000D01*
X186200143Y-91984286D01*
X186127571Y-92020571D01*
X185982429Y-92056857D01*
X185801000Y-92056857D01*
X185655857Y-92020571D01*
X185583286Y-91984286D01*
X185547000Y-91948000D01*
X185510714Y-91875429D01*
M02*
