G04 #@! TF.FileFunction,Soldermask,Top*
%FSLAX46Y46*%
G04 Gerber Fmt 4.6, Leading zero omitted, Abs format (unit mm)*
G04 Created by KiCad (PCBNEW 4.0.6) date 01/03/18 21:10:08*
%MOMM*%
%LPD*%
G01*
G04 APERTURE LIST*
%ADD10C,0.150000*%
%ADD11C,0.304800*%
%ADD12O,2.286000X3.048000*%
%ADD13R,2.286000X3.048000*%
%ADD14R,1.143000X1.651000*%
%ADD15R,1.651000X1.143000*%
%ADD16R,2.032000X2.540000*%
%ADD17R,2.540000X2.032000*%
%ADD18R,1.905000X4.318000*%
%ADD19R,1.907540X1.107440*%
%ADD20R,1.778000X0.914400*%
%ADD21R,2.407920X2.108200*%
%ADD22R,2.108200X2.407920*%
%ADD23R,2.008000X2.508000*%
%ADD24R,2.032000X2.508000*%
%ADD25R,2.608000X3.048000*%
%ADD26O,2.608580X3.048000*%
%ADD27R,3.048000X2.506980*%
%ADD28O,3.048000X2.506980*%
%ADD29R,8.508000X8.508000*%
%ADD30R,1.808480X2.809240*%
%ADD31R,2.506980X3.048000*%
%ADD32R,2.506980X2.506980*%
%ADD33R,3.048000X5.588000*%
%ADD34O,3.048000X5.588000*%
%ADD35R,2.608580X2.308860*%
%ADD36C,2.608580*%
%ADD37C,2.008000*%
%ADD38R,1.508760X0.756920*%
%ADD39O,2.308860X2.508000*%
%ADD40C,3.759200*%
G04 APERTURE END LIST*
D10*
D11*
X228092000Y-106456238D02*
X228092000Y-104424238D01*
X226495429Y-106262714D02*
X226568000Y-106359476D01*
X226785714Y-106456238D01*
X226930857Y-106456238D01*
X227148572Y-106359476D01*
X227293714Y-106165952D01*
X227366286Y-105972429D01*
X227438857Y-105585381D01*
X227438857Y-105295095D01*
X227366286Y-104908048D01*
X227293714Y-104714524D01*
X227148572Y-104521000D01*
X226930857Y-104424238D01*
X226785714Y-104424238D01*
X226568000Y-104521000D01*
X226495429Y-104617762D01*
X225842286Y-106456238D02*
X225842286Y-104424238D01*
X225479429Y-104424238D01*
X225261714Y-104521000D01*
X225116572Y-104714524D01*
X225044000Y-104908048D01*
X224971429Y-105295095D01*
X224971429Y-105585381D01*
X225044000Y-105972429D01*
X225116572Y-106165952D01*
X225261714Y-106359476D01*
X225479429Y-106456238D01*
X225842286Y-106456238D01*
D12*
X192786000Y-131699000D03*
X190246000Y-131699000D03*
D13*
X187706000Y-131699000D03*
D12*
X238506000Y-138049000D03*
X235966000Y-138049000D03*
D13*
X233426000Y-138049000D03*
D12*
X238506000Y-131699000D03*
X235966000Y-131699000D03*
D13*
X233426000Y-131699000D03*
D12*
X208026000Y-138049000D03*
X205486000Y-138049000D03*
D13*
X202946000Y-138049000D03*
D12*
X208026000Y-131699000D03*
X205486000Y-131699000D03*
D13*
X202946000Y-131699000D03*
D12*
X223266000Y-131699000D03*
X220726000Y-131699000D03*
D13*
X218186000Y-131699000D03*
D12*
X192786000Y-138049000D03*
X190246000Y-138049000D03*
D13*
X187706000Y-138049000D03*
D12*
X223266000Y-138049000D03*
X220726000Y-138049000D03*
D13*
X218186000Y-138049000D03*
D14*
X235204000Y-118745000D03*
X236728000Y-118745000D03*
X204724000Y-118745000D03*
X206248000Y-118745000D03*
X233426000Y-127127000D03*
X234950000Y-127127000D03*
X187452000Y-127889000D03*
X188976000Y-127889000D03*
D15*
X204470000Y-80899000D03*
X204470000Y-82423000D03*
X193497200Y-80873600D03*
X193497200Y-82397600D03*
D14*
X218186000Y-127127000D03*
X219710000Y-127127000D03*
X202946000Y-127127000D03*
X204470000Y-127127000D03*
X189484000Y-118745000D03*
X191008000Y-118745000D03*
X219964000Y-118745000D03*
X221488000Y-118745000D03*
D15*
X189484000Y-89916000D03*
X189484000Y-88392000D03*
X203708000Y-89916000D03*
X203708000Y-88392000D03*
X197612000Y-124587000D03*
X197612000Y-123063000D03*
D14*
X204470000Y-113919000D03*
X205994000Y-113919000D03*
X189992000Y-113919000D03*
X191516000Y-113919000D03*
D15*
X210820000Y-124587000D03*
X210820000Y-123063000D03*
X241300000Y-124841000D03*
X241300000Y-123317000D03*
X228092000Y-124841000D03*
X228092000Y-123317000D03*
D14*
X233934000Y-113792000D03*
X235458000Y-113792000D03*
X219964000Y-113919000D03*
X221488000Y-113919000D03*
D15*
X212852000Y-124841000D03*
X212852000Y-123317000D03*
X225806000Y-124841000D03*
X225806000Y-123317000D03*
X181356000Y-126111000D03*
X181356000Y-124587000D03*
D14*
X219964000Y-78613000D03*
X221488000Y-78613000D03*
X219964000Y-81026000D03*
X221488000Y-81026000D03*
X219964000Y-83566000D03*
X221488000Y-83566000D03*
X219964000Y-85979000D03*
X221488000Y-85979000D03*
X225044000Y-78613000D03*
X226568000Y-78613000D03*
X225044000Y-81026000D03*
X226568000Y-81026000D03*
X225044000Y-83566000D03*
X226568000Y-83566000D03*
X225044000Y-85979000D03*
X226568000Y-85979000D03*
D15*
X195580000Y-124587000D03*
X195580000Y-123063000D03*
D16*
X179705000Y-132715000D03*
X176403000Y-132715000D03*
X179705000Y-139319000D03*
X176403000Y-139319000D03*
X179705000Y-136017000D03*
X176403000Y-136017000D03*
X245237000Y-135001000D03*
X248539000Y-135001000D03*
X245237000Y-138303000D03*
X248539000Y-138303000D03*
X245237000Y-131699000D03*
X248539000Y-131699000D03*
X179705000Y-142367000D03*
X176403000Y-142367000D03*
X245237000Y-128397000D03*
X248539000Y-128397000D03*
D17*
X183896000Y-127000000D03*
X183896000Y-123698000D03*
D16*
X189103000Y-116205000D03*
X192405000Y-116205000D03*
D17*
X215138000Y-125730000D03*
X215138000Y-122428000D03*
D16*
X219075000Y-116205000D03*
X222377000Y-116205000D03*
D17*
X230378000Y-125730000D03*
X230378000Y-122428000D03*
D16*
X234315000Y-116205000D03*
X237617000Y-116205000D03*
D17*
X199898000Y-125730000D03*
X199898000Y-122428000D03*
D16*
X203581000Y-116205000D03*
X206883000Y-116205000D03*
D18*
X227076000Y-55118000D03*
X231648000Y-55118000D03*
D19*
X208153000Y-120904000D03*
X202819000Y-120904000D03*
X208153000Y-122174000D03*
X208153000Y-123444000D03*
X208153000Y-124714000D03*
X202819000Y-122174000D03*
X202819000Y-123444000D03*
X202819000Y-124714000D03*
X223393000Y-120904000D03*
X218059000Y-120904000D03*
X223393000Y-122174000D03*
X223393000Y-123444000D03*
X223393000Y-124714000D03*
X218059000Y-122174000D03*
X218059000Y-123444000D03*
X218059000Y-124714000D03*
X238633000Y-120904000D03*
X233299000Y-120904000D03*
X238633000Y-122174000D03*
X238633000Y-123444000D03*
X238633000Y-124714000D03*
X233299000Y-122174000D03*
X233299000Y-123444000D03*
X233299000Y-124714000D03*
X192913000Y-120904000D03*
X187579000Y-120904000D03*
X192913000Y-122174000D03*
X192913000Y-123444000D03*
X192913000Y-124714000D03*
X187579000Y-122174000D03*
X187579000Y-123444000D03*
X187579000Y-124714000D03*
D20*
X221932500Y-64427100D03*
X221932500Y-65074800D03*
X221932500Y-65735200D03*
X221932500Y-66382900D03*
X226377500Y-66382900D03*
X226377500Y-65735200D03*
X226377500Y-65074800D03*
X226377500Y-64427100D03*
D14*
X220345000Y-68580000D03*
X221869000Y-68580000D03*
X200660000Y-91313000D03*
X202184000Y-91313000D03*
X200660000Y-92964000D03*
X202184000Y-92964000D03*
D15*
X214680800Y-71577200D03*
X214680800Y-70053200D03*
D21*
X212976460Y-78486000D03*
X215516460Y-78486000D03*
X212976460Y-81026000D03*
X215516460Y-81026000D03*
X212976460Y-83566000D03*
X215516460Y-83566000D03*
X212976460Y-86106000D03*
X215516460Y-86106000D03*
X212976460Y-88646000D03*
X215516460Y-88646000D03*
X212976460Y-91186000D03*
X215516460Y-91186000D03*
X212976460Y-93726000D03*
X215516460Y-93726000D03*
X212976460Y-96266000D03*
X215516460Y-96266000D03*
X175768000Y-78486000D03*
X178308000Y-78486000D03*
X175768000Y-81026000D03*
X178308000Y-81026000D03*
X175768000Y-83566000D03*
X178308000Y-83566000D03*
X175768000Y-86106000D03*
X178308000Y-86106000D03*
X175768000Y-88646000D03*
X178308000Y-88646000D03*
X175768000Y-91186000D03*
X178308000Y-91186000D03*
X175768000Y-93726000D03*
X178308000Y-93726000D03*
X175768000Y-96266000D03*
X178308000Y-96266000D03*
D22*
X186690000Y-73660000D03*
X186690000Y-71120000D03*
X189230000Y-73660000D03*
X189230000Y-71120000D03*
X191770000Y-73660000D03*
X191770000Y-71120000D03*
X194310000Y-73660000D03*
X194310000Y-71120000D03*
X196850000Y-73660000D03*
X196850000Y-71120000D03*
X199390000Y-73660000D03*
X199390000Y-71120000D03*
X201930000Y-73660000D03*
X201930000Y-71120000D03*
X204470000Y-73660000D03*
X204470000Y-71120000D03*
X204470000Y-107061000D03*
X204470000Y-104521000D03*
X201930000Y-107061000D03*
X201930000Y-104521000D03*
X199390000Y-107061000D03*
X199390000Y-104521000D03*
X196850000Y-107061000D03*
X196850000Y-104521000D03*
X194310000Y-107061000D03*
X194310000Y-104521000D03*
X191770000Y-107061000D03*
X191770000Y-104521000D03*
X189230000Y-107061000D03*
X189230000Y-104521000D03*
X186690000Y-107061000D03*
X186690000Y-104521000D03*
D20*
X206463900Y-52920900D03*
X206463900Y-53568600D03*
X206463900Y-54229000D03*
X206463900Y-54876700D03*
X210908900Y-54876700D03*
X210908900Y-54229000D03*
X210908900Y-53568600D03*
X210908900Y-52920900D03*
D16*
X207035400Y-50393600D03*
X210337400Y-50393600D03*
D14*
X210439000Y-47879000D03*
X211963000Y-47879000D03*
X202082400Y-55829200D03*
X203606400Y-55829200D03*
D23*
X201625200Y-50444400D03*
X201625200Y-53492400D03*
D24*
X196037200Y-50444400D03*
X196037200Y-53492400D03*
D25*
X234950000Y-47752000D03*
D26*
X232410000Y-47752000D03*
X229870000Y-47752000D03*
D25*
X243840000Y-47752000D03*
D26*
X241300000Y-47752000D03*
X238760000Y-47752000D03*
D27*
X255270000Y-61722000D03*
D28*
X255270000Y-59182000D03*
X255270000Y-56642000D03*
X255270000Y-54102000D03*
D27*
X231597200Y-73863200D03*
D28*
X231597200Y-71323200D03*
X231597200Y-68783200D03*
X231597200Y-66243200D03*
D27*
X255270000Y-118872000D03*
D28*
X255270000Y-116332000D03*
X255270000Y-113792000D03*
X255270000Y-111252000D03*
D27*
X255270000Y-107442000D03*
D28*
X255270000Y-104902000D03*
X255270000Y-102362000D03*
X255270000Y-99822000D03*
D27*
X255270000Y-96012000D03*
D28*
X255270000Y-93472000D03*
X255270000Y-90932000D03*
X255270000Y-88392000D03*
D27*
X255270000Y-84582000D03*
D28*
X255270000Y-82042000D03*
X255270000Y-79502000D03*
X255270000Y-76962000D03*
D27*
X255270000Y-73152000D03*
D28*
X255270000Y-70612000D03*
X255270000Y-68072000D03*
X255270000Y-65532000D03*
X255270000Y-126492000D03*
D27*
X255270000Y-136652000D03*
D28*
X255270000Y-134112000D03*
X255270000Y-131572000D03*
X255270000Y-129032000D03*
D29*
X244602000Y-156413200D03*
X244602000Y-144729200D03*
X194360800Y-156565600D03*
X194360800Y-144881600D03*
D30*
X239471200Y-76555600D03*
X239471200Y-68935600D03*
D31*
X224993200Y-61671200D03*
X222453200Y-61671200D03*
X228803200Y-61823600D03*
X231343200Y-61823600D03*
D32*
X249936000Y-107442000D03*
X247396000Y-107442000D03*
X249936000Y-111760000D03*
X247396000Y-111760000D03*
D33*
X214376000Y-155829000D03*
D34*
X217868500Y-155829000D03*
X221424500Y-155829000D03*
X224917000Y-155829000D03*
X228409500Y-155829000D03*
X231902000Y-155829000D03*
D35*
X236575600Y-61315600D03*
D36*
X236575600Y-58775600D03*
D37*
X215493600Y-46380400D03*
X215493600Y-52654200D03*
X215493600Y-55118000D03*
X215544400Y-60147200D03*
D38*
X219506800Y-71755000D03*
X219506800Y-71247000D03*
X219506800Y-70739000D03*
X219506800Y-70231000D03*
X222402400Y-71755000D03*
X222402400Y-71247000D03*
X222402400Y-70739000D03*
X222402400Y-70231000D03*
D39*
X229552500Y-91186000D03*
X232092500Y-91186000D03*
X227012500Y-91186000D03*
X233362500Y-88646000D03*
X230822500Y-88646000D03*
X228282500Y-88646000D03*
D40*
X225107500Y-97536000D03*
X235267500Y-97536000D03*
D15*
X198018400Y-91440000D03*
X198018400Y-89916000D03*
D17*
X183896000Y-90449400D03*
X183896000Y-93751400D03*
M02*
