G04 #@! TF.FileFunction,Soldermask,Bot*
%FSLAX46Y46*%
G04 Gerber Fmt 4.6, Leading zero omitted, Abs format (unit mm)*
G04 Created by KiCad (PCBNEW 4.0.5+dfsg1-4) date Wed Nov 21 21:13:56 2018*
%MOMM*%
%LPD*%
G01*
G04 APERTURE LIST*
%ADD10C,0.150000*%
%ADD11R,1.808000X1.208000*%
%ADD12R,1.308000X1.258000*%
%ADD13R,3.058000X3.208000*%
%ADD14R,2.032000X3.508000*%
G04 APERTURE END LIST*
D10*
D11*
X170307000Y-145285500D03*
X170307000Y-143385500D03*
X172847000Y-145285500D03*
X172847000Y-143385500D03*
X175387000Y-145285500D03*
X175387000Y-143385500D03*
X177927000Y-145285500D03*
X177927000Y-143385500D03*
D12*
X181090000Y-139763500D03*
X179590000Y-139763500D03*
X181090000Y-134302500D03*
X179590000Y-134302500D03*
D13*
X177165000Y-134302500D03*
X170815000Y-134302500D03*
X177165000Y-129222500D03*
X170815000Y-129222500D03*
X177165000Y-124015500D03*
X170815000Y-124015500D03*
D12*
X163842000Y-142176500D03*
X165342000Y-142176500D03*
D13*
X177165000Y-139763500D03*
X170815000Y-139763500D03*
D11*
X141732000Y-145349000D03*
X141732000Y-143449000D03*
X144272000Y-145349000D03*
X144272000Y-143449000D03*
X146812000Y-145349000D03*
X146812000Y-143449000D03*
X149352000Y-145349000D03*
X149352000Y-143449000D03*
D12*
X152515000Y-139827000D03*
X151015000Y-139827000D03*
X152515000Y-134366000D03*
X151015000Y-134366000D03*
D13*
X148590000Y-134366000D03*
X142240000Y-134366000D03*
X148590000Y-129286000D03*
X142240000Y-129286000D03*
X148590000Y-124079000D03*
X142240000Y-124079000D03*
D12*
X135267000Y-142240000D03*
X136767000Y-142240000D03*
D13*
X148590000Y-139827000D03*
X142240000Y-139827000D03*
D11*
X113220500Y-145285500D03*
X113220500Y-143385500D03*
X115760500Y-145285500D03*
X115760500Y-143385500D03*
X118300500Y-145285500D03*
X118300500Y-143385500D03*
X120840500Y-145285500D03*
X120840500Y-143385500D03*
D12*
X124003500Y-139763500D03*
X122503500Y-139763500D03*
X124003500Y-134302500D03*
X122503500Y-134302500D03*
D13*
X120078500Y-134302500D03*
X113728500Y-134302500D03*
X120078500Y-129222500D03*
X113728500Y-129222500D03*
X120078500Y-124015500D03*
X113728500Y-124015500D03*
D12*
X106755500Y-142176500D03*
X108255500Y-142176500D03*
D13*
X120078500Y-139763500D03*
X113728500Y-139763500D03*
X119951500Y-108966000D03*
X113601500Y-108966000D03*
D12*
X106628500Y-111379000D03*
X108128500Y-111379000D03*
D13*
X119951500Y-93218000D03*
X113601500Y-93218000D03*
X119951500Y-98425000D03*
X113601500Y-98425000D03*
X119951500Y-103505000D03*
X113601500Y-103505000D03*
D12*
X123876500Y-103505000D03*
X122376500Y-103505000D03*
X123876500Y-108966000D03*
X122376500Y-108966000D03*
D11*
X120713500Y-114488000D03*
X120713500Y-112588000D03*
X118173500Y-114488000D03*
X118173500Y-112588000D03*
X115633500Y-114488000D03*
X115633500Y-112588000D03*
X113093500Y-114488000D03*
X113093500Y-112588000D03*
D13*
X148463000Y-109029500D03*
X142113000Y-109029500D03*
D12*
X135140000Y-111442500D03*
X136640000Y-111442500D03*
D13*
X148463000Y-93281500D03*
X142113000Y-93281500D03*
X148463000Y-98488500D03*
X142113000Y-98488500D03*
X148463000Y-103568500D03*
X142113000Y-103568500D03*
D12*
X152388000Y-103568500D03*
X150888000Y-103568500D03*
X152388000Y-109029500D03*
X150888000Y-109029500D03*
D11*
X149225000Y-114551500D03*
X149225000Y-112651500D03*
X146685000Y-114551500D03*
X146685000Y-112651500D03*
X144145000Y-114551500D03*
X144145000Y-112651500D03*
X141605000Y-114551500D03*
X141605000Y-112651500D03*
D13*
X177038000Y-108966000D03*
X170688000Y-108966000D03*
D12*
X163715000Y-111379000D03*
X165215000Y-111379000D03*
D13*
X177038000Y-93218000D03*
X170688000Y-93218000D03*
X177038000Y-98425000D03*
X170688000Y-98425000D03*
X177038000Y-103505000D03*
X170688000Y-103505000D03*
D12*
X180963000Y-103505000D03*
X179463000Y-103505000D03*
X180963000Y-108966000D03*
X179463000Y-108966000D03*
D11*
X177800000Y-114488000D03*
X177800000Y-112588000D03*
X175260000Y-114488000D03*
X175260000Y-112588000D03*
X172720000Y-114488000D03*
X172720000Y-112588000D03*
X170180000Y-114488000D03*
X170180000Y-112588000D03*
X170243500Y-83563500D03*
X170243500Y-81663500D03*
X172783500Y-83563500D03*
X172783500Y-81663500D03*
X175323500Y-83563500D03*
X175323500Y-81663500D03*
X177863500Y-83563500D03*
X177863500Y-81663500D03*
D12*
X181026500Y-78041500D03*
X179526500Y-78041500D03*
X181026500Y-72580500D03*
X179526500Y-72580500D03*
D13*
X177101500Y-72580500D03*
X170751500Y-72580500D03*
X177101500Y-67500500D03*
X170751500Y-67500500D03*
X177101500Y-62293500D03*
X170751500Y-62293500D03*
D12*
X163778500Y-80454500D03*
X165278500Y-80454500D03*
D13*
X177101500Y-78041500D03*
X170751500Y-78041500D03*
D11*
X141668500Y-83627000D03*
X141668500Y-81727000D03*
X144208500Y-83627000D03*
X144208500Y-81727000D03*
X146748500Y-83627000D03*
X146748500Y-81727000D03*
X149288500Y-83627000D03*
X149288500Y-81727000D03*
D12*
X152451500Y-78105000D03*
X150951500Y-78105000D03*
X152451500Y-72644000D03*
X150951500Y-72644000D03*
D13*
X148526500Y-72644000D03*
X142176500Y-72644000D03*
X148526500Y-67564000D03*
X142176500Y-67564000D03*
X148526500Y-62357000D03*
X142176500Y-62357000D03*
D12*
X135203500Y-80518000D03*
X136703500Y-80518000D03*
D13*
X148526500Y-78105000D03*
X142176500Y-78105000D03*
D11*
X113157000Y-83563500D03*
X113157000Y-81663500D03*
X115697000Y-83563500D03*
X115697000Y-81663500D03*
X118237000Y-83563500D03*
X118237000Y-81663500D03*
X120777000Y-83563500D03*
X120777000Y-81663500D03*
D12*
X123940000Y-78041500D03*
X122440000Y-78041500D03*
X123940000Y-72580500D03*
X122440000Y-72580500D03*
D13*
X120015000Y-72580500D03*
X113665000Y-72580500D03*
X120015000Y-67500500D03*
X113665000Y-67500500D03*
X120015000Y-62293500D03*
X113665000Y-62293500D03*
D12*
X106692000Y-80454500D03*
X108192000Y-80454500D03*
D13*
X120015000Y-78041500D03*
X113665000Y-78041500D03*
D14*
X151828500Y-85344000D03*
X149288500Y-85344000D03*
X146748500Y-85344000D03*
X144208500Y-85344000D03*
X141668500Y-85344000D03*
X139128500Y-85344000D03*
X136588500Y-85344000D03*
X134048500Y-85344000D03*
X180403500Y-85280500D03*
X177863500Y-85280500D03*
X175323500Y-85280500D03*
X172783500Y-85280500D03*
X170243500Y-85280500D03*
X167703500Y-85280500D03*
X165163500Y-85280500D03*
X162623500Y-85280500D03*
X180340000Y-116205000D03*
X177800000Y-116205000D03*
X175260000Y-116205000D03*
X172720000Y-116205000D03*
X170180000Y-116205000D03*
X167640000Y-116205000D03*
X165100000Y-116205000D03*
X162560000Y-116205000D03*
X151765000Y-116268500D03*
X149225000Y-116268500D03*
X146685000Y-116268500D03*
X144145000Y-116268500D03*
X141605000Y-116268500D03*
X139065000Y-116268500D03*
X136525000Y-116268500D03*
X133985000Y-116268500D03*
X123253500Y-116205000D03*
X120713500Y-116205000D03*
X118173500Y-116205000D03*
X115633500Y-116205000D03*
X113093500Y-116205000D03*
X110553500Y-116205000D03*
X108013500Y-116205000D03*
X105473500Y-116205000D03*
X123380500Y-147002500D03*
X120840500Y-147002500D03*
X118300500Y-147002500D03*
X115760500Y-147002500D03*
X113220500Y-147002500D03*
X110680500Y-147002500D03*
X108140500Y-147002500D03*
X105600500Y-147002500D03*
X151892000Y-147066000D03*
X149352000Y-147066000D03*
X146812000Y-147066000D03*
X144272000Y-147066000D03*
X141732000Y-147066000D03*
X139192000Y-147066000D03*
X136652000Y-147066000D03*
X134112000Y-147066000D03*
X180467000Y-147002500D03*
X177927000Y-147002500D03*
X175387000Y-147002500D03*
X172847000Y-147002500D03*
X170307000Y-147002500D03*
X167767000Y-147002500D03*
X165227000Y-147002500D03*
X162687000Y-147002500D03*
X123317000Y-85280500D03*
X120777000Y-85280500D03*
X118237000Y-85280500D03*
X115697000Y-85280500D03*
X113157000Y-85280500D03*
X110617000Y-85280500D03*
X108077000Y-85280500D03*
X105537000Y-85280500D03*
M02*
