M48
;DRILL file {KiCad 4.0.5+dfsg1-4} date Wed Nov 21 21:13:59 2018
;FORMAT={-:-/ absolute / metric / decimal}
FMAT,2
METRIC,TZ
T1C0.599
%
G90
G05
M71
T1
X105.228Y-97.536
X105.292Y-66.611
X105.355Y-128.333
X106.489Y-104.584
X106.553Y-73.66
X106.553Y-102.806
X106.617Y-71.882
X106.617Y-135.382
X106.68Y-133.604
X108.013Y-104.14
X108.077Y-73.215
X108.14Y-134.938
X109.029Y-102.933
X109.093Y-72.009
X109.156Y-133.731
X109.791Y-104.14
X109.855Y-73.215
X109.918Y-134.938
X110.553Y-113.665
X110.617Y-82.74
X110.68Y-144.463
X110.691Y-102.83
X110.755Y-71.906
X110.819Y-133.627
X111.316Y-104.076
X111.379Y-73.152
X111.442Y-134.874
X116.776Y-112.395
X116.84Y-81.471
X116.903Y-143.192
X133.74Y-97.599
X133.803Y-66.675
X133.867Y-128.397
X135.001Y-104.648
X135.064Y-73.724
X135.064Y-102.87
X135.128Y-71.945
X135.128Y-135.445
X135.191Y-133.667
X136.525Y-104.203
X136.588Y-73.279
X136.652Y-135.001
X137.541Y-102.997
X137.605Y-72.072
X137.668Y-133.794
X138.303Y-104.203
X138.367Y-73.279
X138.43Y-135.001
X139.065Y-113.728
X139.129Y-82.804
X139.192Y-144.526
X139.203Y-102.893
X139.267Y-71.969
X139.33Y-133.691
X139.827Y-104.14
X139.891Y-73.215
X139.954Y-134.938
X145.288Y-112.459
X145.351Y-81.534
X145.415Y-143.256
X162.315Y-97.536
X162.379Y-66.611
X162.442Y-128.333
X163.576Y-104.584
X163.639Y-73.66
X163.639Y-102.806
X163.703Y-71.882
X163.703Y-135.382
X163.766Y-133.604
X165.1Y-104.14
X165.163Y-73.215
X165.227Y-134.938
X166.116Y-102.933
X166.179Y-72.009
X166.243Y-133.731
X166.878Y-104.14
X166.941Y-73.215
X167.005Y-134.938
X167.64Y-113.665
X167.703Y-82.74
X167.767Y-144.463
X167.778Y-102.83
X167.841Y-71.906
X167.905Y-133.627
X168.402Y-104.076
X168.465Y-73.152
X168.529Y-134.874
X173.863Y-112.395
X173.927Y-81.471
X173.99Y-143.192
T0
M30
