G04 #@! TF.FileFunction,Soldermask,Top*
%FSLAX46Y46*%
G04 Gerber Fmt 4.6, Leading zero omitted, Abs format (unit mm)*
G04 Created by KiCad (PCBNEW 4.0.5+dfsg1-4) date Wed Nov 21 21:13:56 2018*
%MOMM*%
%LPD*%
G01*
G04 APERTURE LIST*
%ADD10C,0.150000*%
%ADD11R,1.808000X1.208000*%
%ADD12R,1.158000X2.008000*%
%ADD13R,2.308000X1.858000*%
%ADD14R,1.408000X1.008000*%
%ADD15R,3.507740X3.507740*%
%ADD16R,3.008000X2.808000*%
%ADD17R,1.258000X1.308000*%
%ADD18R,3.058000X3.208000*%
%ADD19R,2.508000X4.308000*%
%ADD20R,2.508000X2.008000*%
%ADD21R,2.032000X3.508000*%
G04 APERTURE END LIST*
D10*
D11*
X161925000Y-132204500D03*
X161925000Y-130304500D03*
D12*
X168910000Y-131602500D03*
X167640000Y-131602500D03*
X166370000Y-131602500D03*
X165100000Y-131602500D03*
X165100000Y-137002500D03*
X166370000Y-137002500D03*
X167640000Y-137002500D03*
X168910000Y-137002500D03*
D13*
X166105000Y-134977500D03*
X167905000Y-134977500D03*
X166105000Y-133627500D03*
X167905000Y-133627500D03*
D14*
X171323000Y-140513500D03*
X171323000Y-139013500D03*
X161925000Y-138735500D03*
X161925000Y-137235500D03*
X159893000Y-137235500D03*
X159893000Y-138735500D03*
X159893000Y-131750500D03*
X159893000Y-130250500D03*
D15*
X171069000Y-124142500D03*
X181229000Y-124142500D03*
D16*
X173999000Y-139763500D03*
X178299000Y-139763500D03*
X166742000Y-124142500D03*
X162442000Y-124142500D03*
D17*
X159893000Y-133171500D03*
X159893000Y-134671500D03*
D18*
X167513000Y-142176500D03*
X161163000Y-142176500D03*
D19*
X179045000Y-132778500D03*
D20*
X172745000Y-132778500D03*
X172745000Y-135078500D03*
X172745000Y-130478500D03*
D11*
X133350000Y-132268000D03*
X133350000Y-130368000D03*
D12*
X140335000Y-131666000D03*
X139065000Y-131666000D03*
X137795000Y-131666000D03*
X136525000Y-131666000D03*
X136525000Y-137066000D03*
X137795000Y-137066000D03*
X139065000Y-137066000D03*
X140335000Y-137066000D03*
D13*
X137530000Y-135041000D03*
X139330000Y-135041000D03*
X137530000Y-133691000D03*
X139330000Y-133691000D03*
D14*
X142748000Y-140577000D03*
X142748000Y-139077000D03*
X133350000Y-138799000D03*
X133350000Y-137299000D03*
X131318000Y-137299000D03*
X131318000Y-138799000D03*
X131318000Y-131814000D03*
X131318000Y-130314000D03*
D15*
X142494000Y-124206000D03*
X152654000Y-124206000D03*
D16*
X145424000Y-139827000D03*
X149724000Y-139827000D03*
X138167000Y-124206000D03*
X133867000Y-124206000D03*
D17*
X131318000Y-133235000D03*
X131318000Y-134735000D03*
D18*
X138938000Y-142240000D03*
X132588000Y-142240000D03*
D19*
X150470000Y-132842000D03*
D20*
X144170000Y-132842000D03*
X144170000Y-135142000D03*
X144170000Y-130542000D03*
D11*
X104838500Y-132204500D03*
X104838500Y-130304500D03*
D12*
X111823500Y-131602500D03*
X110553500Y-131602500D03*
X109283500Y-131602500D03*
X108013500Y-131602500D03*
X108013500Y-137002500D03*
X109283500Y-137002500D03*
X110553500Y-137002500D03*
X111823500Y-137002500D03*
D13*
X109018500Y-134977500D03*
X110818500Y-134977500D03*
X109018500Y-133627500D03*
X110818500Y-133627500D03*
D14*
X114236500Y-140513500D03*
X114236500Y-139013500D03*
X104838500Y-138735500D03*
X104838500Y-137235500D03*
X102806500Y-137235500D03*
X102806500Y-138735500D03*
X102806500Y-131750500D03*
X102806500Y-130250500D03*
D15*
X113982500Y-124142500D03*
X124142500Y-124142500D03*
D16*
X116912500Y-139763500D03*
X121212500Y-139763500D03*
X109655500Y-124142500D03*
X105355500Y-124142500D03*
D17*
X102806500Y-133171500D03*
X102806500Y-134671500D03*
D18*
X110426500Y-142176500D03*
X104076500Y-142176500D03*
D19*
X121958500Y-132778500D03*
D20*
X115658500Y-132778500D03*
X115658500Y-135078500D03*
X115658500Y-130478500D03*
D19*
X121831500Y-101981000D03*
D20*
X115531500Y-101981000D03*
X115531500Y-104281000D03*
X115531500Y-99681000D03*
D18*
X110299500Y-111379000D03*
X103949500Y-111379000D03*
D17*
X102679500Y-102374000D03*
X102679500Y-103874000D03*
D16*
X109528500Y-93345000D03*
X105228500Y-93345000D03*
X116785500Y-108966000D03*
X121085500Y-108966000D03*
D15*
X113855500Y-93345000D03*
X124015500Y-93345000D03*
D14*
X102679500Y-100953000D03*
X102679500Y-99453000D03*
X102679500Y-106438000D03*
X102679500Y-107938000D03*
X104711500Y-107938000D03*
X104711500Y-106438000D03*
X114109500Y-109716000D03*
X114109500Y-108216000D03*
D12*
X111696500Y-100805000D03*
X110426500Y-100805000D03*
X109156500Y-100805000D03*
X107886500Y-100805000D03*
X107886500Y-106205000D03*
X109156500Y-106205000D03*
X110426500Y-106205000D03*
X111696500Y-106205000D03*
D13*
X108891500Y-104180000D03*
X110691500Y-104180000D03*
X108891500Y-102830000D03*
X110691500Y-102830000D03*
D11*
X104711500Y-101407000D03*
X104711500Y-99507000D03*
D19*
X150343000Y-102044500D03*
D20*
X144043000Y-102044500D03*
X144043000Y-104344500D03*
X144043000Y-99744500D03*
D18*
X138811000Y-111442500D03*
X132461000Y-111442500D03*
D17*
X131191000Y-102437500D03*
X131191000Y-103937500D03*
D16*
X138040000Y-93408500D03*
X133740000Y-93408500D03*
X145297000Y-109029500D03*
X149597000Y-109029500D03*
D15*
X142367000Y-93408500D03*
X152527000Y-93408500D03*
D14*
X131191000Y-101016500D03*
X131191000Y-99516500D03*
X131191000Y-106501500D03*
X131191000Y-108001500D03*
X133223000Y-108001500D03*
X133223000Y-106501500D03*
X142621000Y-109779500D03*
X142621000Y-108279500D03*
D12*
X140208000Y-100868500D03*
X138938000Y-100868500D03*
X137668000Y-100868500D03*
X136398000Y-100868500D03*
X136398000Y-106268500D03*
X137668000Y-106268500D03*
X138938000Y-106268500D03*
X140208000Y-106268500D03*
D13*
X137403000Y-104243500D03*
X139203000Y-104243500D03*
X137403000Y-102893500D03*
X139203000Y-102893500D03*
D11*
X133223000Y-101470500D03*
X133223000Y-99570500D03*
D19*
X178918000Y-101981000D03*
D20*
X172618000Y-101981000D03*
X172618000Y-104281000D03*
X172618000Y-99681000D03*
D18*
X167386000Y-111379000D03*
X161036000Y-111379000D03*
D17*
X159766000Y-102374000D03*
X159766000Y-103874000D03*
D16*
X166615000Y-93345000D03*
X162315000Y-93345000D03*
X173872000Y-108966000D03*
X178172000Y-108966000D03*
D15*
X170942000Y-93345000D03*
X181102000Y-93345000D03*
D14*
X159766000Y-100953000D03*
X159766000Y-99453000D03*
X159766000Y-106438000D03*
X159766000Y-107938000D03*
X161798000Y-107938000D03*
X161798000Y-106438000D03*
X171196000Y-109716000D03*
X171196000Y-108216000D03*
D12*
X168783000Y-100805000D03*
X167513000Y-100805000D03*
X166243000Y-100805000D03*
X164973000Y-100805000D03*
X164973000Y-106205000D03*
X166243000Y-106205000D03*
X167513000Y-106205000D03*
X168783000Y-106205000D03*
D13*
X165978000Y-104180000D03*
X167778000Y-104180000D03*
X165978000Y-102830000D03*
X167778000Y-102830000D03*
D11*
X161798000Y-101407000D03*
X161798000Y-99507000D03*
X161861500Y-70482500D03*
X161861500Y-68582500D03*
D12*
X168846500Y-69880500D03*
X167576500Y-69880500D03*
X166306500Y-69880500D03*
X165036500Y-69880500D03*
X165036500Y-75280500D03*
X166306500Y-75280500D03*
X167576500Y-75280500D03*
X168846500Y-75280500D03*
D13*
X166041500Y-73255500D03*
X167841500Y-73255500D03*
X166041500Y-71905500D03*
X167841500Y-71905500D03*
D14*
X171259500Y-78791500D03*
X171259500Y-77291500D03*
X161861500Y-77013500D03*
X161861500Y-75513500D03*
X159829500Y-75513500D03*
X159829500Y-77013500D03*
X159829500Y-70028500D03*
X159829500Y-68528500D03*
D15*
X171005500Y-62420500D03*
X181165500Y-62420500D03*
D16*
X173935500Y-78041500D03*
X178235500Y-78041500D03*
X166678500Y-62420500D03*
X162378500Y-62420500D03*
D17*
X159829500Y-71449500D03*
X159829500Y-72949500D03*
D18*
X167449500Y-80454500D03*
X161099500Y-80454500D03*
D19*
X178981500Y-71056500D03*
D20*
X172681500Y-71056500D03*
X172681500Y-73356500D03*
X172681500Y-68756500D03*
D11*
X133286500Y-70546000D03*
X133286500Y-68646000D03*
D12*
X140271500Y-69944000D03*
X139001500Y-69944000D03*
X137731500Y-69944000D03*
X136461500Y-69944000D03*
X136461500Y-75344000D03*
X137731500Y-75344000D03*
X139001500Y-75344000D03*
X140271500Y-75344000D03*
D13*
X137466500Y-73319000D03*
X139266500Y-73319000D03*
X137466500Y-71969000D03*
X139266500Y-71969000D03*
D14*
X142684500Y-78855000D03*
X142684500Y-77355000D03*
X133286500Y-77077000D03*
X133286500Y-75577000D03*
X131254500Y-75577000D03*
X131254500Y-77077000D03*
X131254500Y-70092000D03*
X131254500Y-68592000D03*
D15*
X142430500Y-62484000D03*
X152590500Y-62484000D03*
D16*
X145360500Y-78105000D03*
X149660500Y-78105000D03*
X138103500Y-62484000D03*
X133803500Y-62484000D03*
D17*
X131254500Y-71513000D03*
X131254500Y-73013000D03*
D18*
X138874500Y-80518000D03*
X132524500Y-80518000D03*
D19*
X150406500Y-71120000D03*
D20*
X144106500Y-71120000D03*
X144106500Y-73420000D03*
X144106500Y-68820000D03*
D11*
X104775000Y-70482500D03*
X104775000Y-68582500D03*
D12*
X111760000Y-69880500D03*
X110490000Y-69880500D03*
X109220000Y-69880500D03*
X107950000Y-69880500D03*
X107950000Y-75280500D03*
X109220000Y-75280500D03*
X110490000Y-75280500D03*
X111760000Y-75280500D03*
D13*
X108955000Y-73255500D03*
X110755000Y-73255500D03*
X108955000Y-71905500D03*
X110755000Y-71905500D03*
D14*
X114173000Y-78791500D03*
X114173000Y-77291500D03*
X104775000Y-77013500D03*
X104775000Y-75513500D03*
X102743000Y-75513500D03*
X102743000Y-77013500D03*
X102743000Y-70028500D03*
X102743000Y-68528500D03*
D15*
X113919000Y-62420500D03*
X124079000Y-62420500D03*
D16*
X116849000Y-78041500D03*
X121149000Y-78041500D03*
X109592000Y-62420500D03*
X105292000Y-62420500D03*
D17*
X102743000Y-71449500D03*
X102743000Y-72949500D03*
D18*
X110363000Y-80454500D03*
X104013000Y-80454500D03*
D19*
X121895000Y-71056500D03*
D20*
X115595000Y-71056500D03*
X115595000Y-73356500D03*
X115595000Y-68756500D03*
D21*
X134048500Y-85344000D03*
X136588500Y-85344000D03*
X139128500Y-85344000D03*
X144208500Y-85344000D03*
X146748500Y-85344000D03*
X141668500Y-85344000D03*
X149288500Y-85344000D03*
X151828500Y-85344000D03*
X162623500Y-85280500D03*
X165163500Y-85280500D03*
X167703500Y-85280500D03*
X172783500Y-85280500D03*
X175323500Y-85280500D03*
X170243500Y-85280500D03*
X177863500Y-85280500D03*
X180403500Y-85280500D03*
X162560000Y-116205000D03*
X165100000Y-116205000D03*
X167640000Y-116205000D03*
X172720000Y-116205000D03*
X175260000Y-116205000D03*
X170180000Y-116205000D03*
X177800000Y-116205000D03*
X180340000Y-116205000D03*
X133985000Y-116268500D03*
X136525000Y-116268500D03*
X139065000Y-116268500D03*
X144145000Y-116268500D03*
X146685000Y-116268500D03*
X141605000Y-116268500D03*
X149225000Y-116268500D03*
X151765000Y-116268500D03*
X105473500Y-116205000D03*
X108013500Y-116205000D03*
X110553500Y-116205000D03*
X115633500Y-116205000D03*
X118173500Y-116205000D03*
X113093500Y-116205000D03*
X120713500Y-116205000D03*
X123253500Y-116205000D03*
X105600500Y-147002500D03*
X108140500Y-147002500D03*
X110680500Y-147002500D03*
X115760500Y-147002500D03*
X118300500Y-147002500D03*
X113220500Y-147002500D03*
X120840500Y-147002500D03*
X123380500Y-147002500D03*
X134112000Y-147066000D03*
X136652000Y-147066000D03*
X139192000Y-147066000D03*
X144272000Y-147066000D03*
X146812000Y-147066000D03*
X141732000Y-147066000D03*
X149352000Y-147066000D03*
X151892000Y-147066000D03*
X162687000Y-147002500D03*
X165227000Y-147002500D03*
X167767000Y-147002500D03*
X172847000Y-147002500D03*
X175387000Y-147002500D03*
X170307000Y-147002500D03*
X177927000Y-147002500D03*
X180467000Y-147002500D03*
X105537000Y-85280500D03*
X108077000Y-85280500D03*
X110617000Y-85280500D03*
X115697000Y-85280500D03*
X118237000Y-85280500D03*
X113157000Y-85280500D03*
X120777000Y-85280500D03*
X123317000Y-85280500D03*
M02*
