G04 #@! TF.FileFunction,Soldermask,Bot*
%FSLAX46Y46*%
G04 Gerber Fmt 4.6, Leading zero omitted, Abs format (unit mm)*
G04 Created by KiCad (PCBNEW 4.0.7) date 02/20/18 19:55:49*
%MOMM*%
%LPD*%
G01*
G04 APERTURE LIST*
%ADD10C,0.150000*%
%ADD11R,0.635000X1.143000*%
%ADD12R,1.998980X1.800860*%
%ADD13C,1.998980*%
%ADD14R,1.524000X2.032000*%
%ADD15R,5.499100X1.849120*%
%ADD16R,0.797560X0.797560*%
%ADD17R,1.143000X0.635000*%
%ADD18R,2.692400X1.600200*%
%ADD19C,1.422400*%
%ADD20C,2.000000*%
%ADD21C,1.700000*%
%ADD22O,10.000000X3.000000*%
G04 APERTURE END LIST*
D10*
D11*
X151892000Y-63627000D03*
X150368000Y-63627000D03*
X173355000Y-41910000D03*
X171831000Y-41910000D03*
X146050000Y-22479000D03*
X144526000Y-22479000D03*
X139065000Y-34671000D03*
X140589000Y-34671000D03*
D12*
X180848000Y-29845000D03*
D13*
X180848000Y-27305000D03*
X180848000Y-24765000D03*
X180848000Y-22225000D03*
D12*
X180848000Y-41529000D03*
D13*
X180848000Y-38989000D03*
X180848000Y-36449000D03*
X180848000Y-33909000D03*
D12*
X180848000Y-53340000D03*
D13*
X180848000Y-50800000D03*
X180848000Y-48260000D03*
X180848000Y-45720000D03*
D12*
X180848000Y-65024000D03*
D13*
X180848000Y-62484000D03*
X180848000Y-59944000D03*
X180848000Y-57404000D03*
D14*
X177038000Y-44069000D03*
X173736000Y-44069000D03*
D15*
X148463000Y-51470560D03*
X148463000Y-46319440D03*
D16*
X178816000Y-58305700D03*
X178816000Y-59804300D03*
X178816000Y-46621700D03*
X178816000Y-48120300D03*
X178816000Y-34810700D03*
X178816000Y-36309300D03*
X178816000Y-22364700D03*
X178816000Y-23863300D03*
X147840700Y-25654000D03*
X149339300Y-25654000D03*
D17*
X178816000Y-64135000D03*
X178816000Y-65659000D03*
X178562000Y-51943000D03*
X178562000Y-53467000D03*
X178816000Y-40005000D03*
X178816000Y-41529000D03*
X178816000Y-27940000D03*
X178816000Y-29464000D03*
D11*
X151257000Y-25654000D03*
X152781000Y-25654000D03*
D18*
X154813000Y-46609000D03*
X154813000Y-49403000D03*
X154940000Y-43561000D03*
X154940000Y-40767000D03*
D19*
X140589000Y-30099000D03*
X140589000Y-25019000D03*
D20*
X130302000Y-55372000D03*
X130302000Y-30607000D03*
X173355000Y-25019000D03*
X173482000Y-61849000D03*
D21*
X136271000Y-44323000D03*
X136271000Y-41783000D03*
X134272020Y-41783000D03*
X134272020Y-44323000D03*
D22*
X131572000Y-49052480D03*
X131572000Y-37053520D03*
D15*
X148336000Y-38572440D03*
X148336000Y-43723560D03*
X148336000Y-86070440D03*
X148336000Y-91221560D03*
D21*
X136271000Y-91821000D03*
X136271000Y-89281000D03*
X134272020Y-89281000D03*
X134272020Y-91821000D03*
D22*
X131572000Y-96550480D03*
X131572000Y-84551520D03*
D20*
X173482000Y-109347000D03*
X173355000Y-72517000D03*
X130302000Y-78105000D03*
X130302000Y-102870000D03*
D19*
X140589000Y-77597000D03*
X140589000Y-72517000D03*
D18*
X154940000Y-91059000D03*
X154940000Y-88265000D03*
X154813000Y-94107000D03*
X154813000Y-96901000D03*
D11*
X151257000Y-73152000D03*
X152781000Y-73152000D03*
D17*
X178816000Y-75438000D03*
X178816000Y-76962000D03*
X178816000Y-87503000D03*
X178816000Y-89027000D03*
X178562000Y-99441000D03*
X178562000Y-100965000D03*
X178816000Y-111633000D03*
X178816000Y-113157000D03*
D16*
X147840700Y-73152000D03*
X149339300Y-73152000D03*
X178816000Y-69862700D03*
X178816000Y-71361300D03*
X178816000Y-82308700D03*
X178816000Y-83807300D03*
X178816000Y-94119700D03*
X178816000Y-95618300D03*
X178816000Y-105803700D03*
X178816000Y-107302300D03*
D15*
X148463000Y-98968560D03*
X148463000Y-93817440D03*
D14*
X177038000Y-91567000D03*
X173736000Y-91567000D03*
D12*
X180848000Y-112522000D03*
D13*
X180848000Y-109982000D03*
X180848000Y-107442000D03*
X180848000Y-104902000D03*
D12*
X180848000Y-100838000D03*
D13*
X180848000Y-98298000D03*
X180848000Y-95758000D03*
X180848000Y-93218000D03*
D12*
X180848000Y-89027000D03*
D13*
X180848000Y-86487000D03*
X180848000Y-83947000D03*
X180848000Y-81407000D03*
D12*
X180848000Y-77343000D03*
D13*
X180848000Y-74803000D03*
X180848000Y-72263000D03*
X180848000Y-69723000D03*
D11*
X139065000Y-82169000D03*
X140589000Y-82169000D03*
X146050000Y-69977000D03*
X144526000Y-69977000D03*
X173355000Y-89408000D03*
X171831000Y-89408000D03*
X151892000Y-111125000D03*
X150368000Y-111125000D03*
M02*
